<?xml version="1.0" encoding="UTF-8"?>
<svg version="1.1" xmlns="http://www.w3.org/2000/svg" width="512" height="512">
<path d="M0 0 C12.06457833 9.59562979 20.02501103 20.35142136 25 35 C25.33 35 25.66 35 26 35 C26.14695312 34.34515625 26.29390625 33.6903125 26.4453125 33.015625 C30.18282085 17.80783241 37.34544852 6.19479899 50.48828125 -2.5 C63.38039063 -10.19917574 77.22221114 -11.80530666 91.89453125 -9.34765625 C106.56098218 -5.57997922 118.42859378 3.38098963 126.22265625 16.37109375 C127 18 127 18 127 20 C128.46759766 19.00419922 128.46759766 19.00419922 129.96484375 17.98828125 C143.93281087 8.55668995 143.93281087 8.55668995 151 5 C152.03640625 4.45859375 153.0728125 3.9171875 154.140625 3.359375 C161.41908454 -0.32129004 168.78833407 -3.05159791 176.625 -5.3125 C177.45870117 -5.55476318 178.29240234 -5.79702637 179.15136719 -6.04663086 C191.35495755 -9.4058197 203.44849424 -10.41093372 216.0625 -10.375 C216.78511017 -10.37445618 217.50772034 -10.37391235 218.25222778 -10.37335205 C230.21499222 -10.3321074 241.47436417 -9.34098511 253 -6 C253.7626416 -5.78569336 254.5252832 -5.57138672 255.31103516 -5.35058594 C292.09091669 5.22391861 321.92987791 30.0841352 341 63 C351.46757216 82.15674201 357.32743563 104.18552092 358 126 C358.03996094 126.92039063 358.07992188 127.84078125 358.12109375 128.7890625 C359.01368993 166.90816981 343.97802855 202.51728155 318 230 C317.25363281 230.81082031 316.50726563 231.62164062 315.73828125 232.45703125 C299.44895403 249.55409371 277.64701202 261.59505746 255 268 C254.01 268 253.02 268 252 268 C252.00368717 268.80746013 252.00737434 269.61492025 252.01117325 270.44684887 C252.09969539 290.1376999 252.16579264 309.82851096 252.20724869 329.51951885 C252.22783186 339.04213822 252.25587087 348.56462437 252.30175781 358.0871582 C252.34175601 366.39164299 252.36746363 374.69603125 252.37635398 383.0006097 C252.38154684 387.39364729 252.39366239 391.78640883 252.42292023 396.17935753 C252.45029509 400.3235969 252.458401 404.46744942 252.45243073 408.61177063 C252.45352119 410.12374799 252.46134277 411.6357398 252.4768219 413.14763832 C252.59718531 425.52256156 251.33493208 437.34193272 242.984375 447.06640625 C239.64445381 450.32085702 236.08194849 452.7656703 232 455 C231.40960938 455.3403125 230.81921875 455.680625 230.2109375 456.03125 C222.63506763 459.63562862 212.50765959 459.19185576 204.54296875 457.0859375 C194.45605753 453.15267652 188.2835337 447.3816592 183 438 C180.3281558 431.63846618 179.87426566 425.0421864 179.87974548 418.19789124 C179.87846385 417.22724319 179.87846385 417.22724319 179.87715632 416.2369861 C179.87552153 414.08903268 179.88098978 411.941159 179.88647461 409.79321289 C179.88675694 408.24540204 179.88659785 406.69759105 179.8860321 405.14978027 C179.88574592 400.96229999 179.89161373 396.77484853 179.89860606 392.58737493 C179.90486939 388.20582937 179.90544576 383.82428311 179.90663147 379.44273376 C179.90973601 371.15208259 179.91793756 362.86144465 179.92798096 354.57079929 C179.93916936 345.12946412 179.94465942 335.6881283 179.94967639 326.24678814 C179.96012091 306.8311846 179.97770334 287.41559337 180 268 C179.39164307 267.86944717 178.78328613 267.73889435 178.15649414 267.60438538 C176.95174438 267.34207375 176.95174438 267.34207375 175.72265625 267.07446289 C174.53168335 266.81675865 174.53168335 266.81675865 173.31665039 266.55384827 C151.27737482 261.28485532 132.17178083 247.22219228 116 232 C115.09894531 231.17822266 115.09894531 231.17822266 114.1796875 230.33984375 C98.93621359 215.91171844 87.59503908 195.78511725 81 176 C80.505 284.9 80.505 284.9 80 396 C82.97 396 85.94 396 89 396 C103.24156107 398.68488446 115.26516706 406.72457159 123.75 418.41015625 C132.14167103 431.64801729 134.72797831 445.59854601 131.875 460.9375 C130.30374214 467.70712499 127.79576567 473.20315692 124 479 C123.48566406 479.79148437 122.97132813 480.58296875 122.44140625 481.3984375 C114.79829127 492.13912186 102.84441497 499.24520129 90 502 C86.62818983 502.24438773 83.2548082 502.23111839 79.875 502.25 C78.97523438 502.270625 78.07546875 502.29125 77.1484375 502.3125 C63.28747982 502.39216068 51.31811588 496.91750216 41.32421875 487.45703125 C33.0035706 478.66091749 28.12949139 468.85230076 26 457 C24.2425194 459.6362209 23.39520342 461.5633397 22.375 464.5 C15.93084059 480.87293835 2.08490796 492.21289647 -13.63671875 499.17578125 C-28.03007196 504.19561187 -46.00889548 504.316659 -60 498 C-60.94746094 497.57589844 -61.89492187 497.15179688 -62.87109375 496.71484375 C-69.90902171 493.21052178 -75.45907979 488.53143234 -81 483 C-81.6496875 482.36191406 -82.299375 481.72382813 -82.96875 481.06640625 C-94.07714134 469.34900222 -98.43873342 453.09836721 -98.203125 437.29296875 C-97.09981483 419.4066135 -89.25223348 403.8725489 -76 392 C-64.16966416 382.81369337 -50.86507609 378 -36 378 C-36 290.88 -36 203.76 -36 114 C-38.97 114 -41.94 114 -45 114 C-61.29382669 111.94723443 -76.17341288 102.06069579 -86.12109375 89.2734375 C-96.38570339 73.95378354 -100.30756632 56.9933159 -96.75 38.875 C-92.89071906 22.45518897 -83.48455803 7.7191722 -69.01757812 -1.33911133 C-47.70698072 -13.82818105 -20.71928629 -14.08288331 0 0 Z " fill="#FEDCB9" transform="translate(126,10)"/>
<path d="M0 0 C12.06457833 9.59562979 20.02501103 20.35142136 25 35 C25.33 35 25.66 35 26 35 C26.14695312 34.34515625 26.29390625 33.6903125 26.4453125 33.015625 C30.18282085 17.80783241 37.34544852 6.19479899 50.48828125 -2.5 C63.38039063 -10.19917574 77.22221114 -11.80530666 91.89453125 -9.34765625 C106.24412055 -5.66137807 117.88676626 2.86525821 125.5625 15.5625 C126.38892172 17.0339338 127.20695199 18.51031375 128 20 C124.94542888 23.74184962 121.97702111 27.11195006 118.25 30.1875 C94.53104217 50.52447715 78.97454683 84.83176182 76.3125 115.5 C76.18435203 117.99888551 76.08311516 120.49921161 76 123 C75.96745117 123.78874512 75.93490234 124.57749023 75.90136719 125.39013672 C75.5106006 135.79676414 75.90168959 145.53843364 77.9911499 155.75135803 C80.24013341 167.74785872 80.5416946 179.36794193 80.45410156 191.54077148 C80.45296946 193.79044067 80.45361399 196.04011133 80.45587158 198.28977966 C80.45700552 204.31728514 80.43371316 210.34446333 80.40557575 216.37189364 C80.38033884 222.70055341 80.37820271 229.02922309 80.37347412 235.35792542 C80.36250847 245.95441142 80.33763192 256.55079196 80.30175781 267.1472168 C80.26489034 278.0485781 80.23665133 288.94990708 80.21972656 299.85131836 C80.21867567 300.52631071 80.21762477 301.20130306 80.21654204 301.89674973 C80.21132087 305.28389318 80.20626628 308.67103686 80.20129442 312.05818069 C80.16000817 340.03886906 80.08941302 368.01942711 80 396 C80.61098541 395.9927037 81.22197083 395.98540741 81.85147095 395.97789001 C82.65668182 395.97221512 83.4618927 395.96654022 84.29150391 395.96069336 C85.08811432 395.95339706 85.88472473 395.94610077 86.70547485 395.93858337 C98.62993935 396.25776069 109.42977876 403.39159813 117.8125 411.3125 C128.1888154 422.26321857 133.43958802 436.08760814 133.2109375 451.1328125 C132.44864375 461.4943609 129.68211089 470.32235548 124 479 C123.48566406 479.79148437 122.97132813 480.58296875 122.44140625 481.3984375 C114.79829127 492.13912186 102.84441497 499.24520129 90 502 C86.62818983 502.24438773 83.2548082 502.23111839 79.875 502.25 C78.97523438 502.270625 78.07546875 502.29125 77.1484375 502.3125 C63.28747982 502.39216068 51.31811588 496.91750216 41.32421875 487.45703125 C33.0035706 478.66091749 28.12949139 468.85230076 26 457 C24.2425194 459.6362209 23.39520342 461.5633397 22.375 464.5 C15.93084059 480.87293835 2.08490796 492.21289647 -13.63671875 499.17578125 C-28.03007196 504.19561187 -46.00889548 504.316659 -60 498 C-60.94746094 497.57589844 -61.89492187 497.15179688 -62.87109375 496.71484375 C-69.90902171 493.21052178 -75.45907979 488.53143234 -81 483 C-81.6496875 482.36191406 -82.299375 481.72382813 -82.96875 481.06640625 C-94.07714134 469.34900222 -98.43873342 453.09836721 -98.203125 437.29296875 C-97.09981483 419.4066135 -89.25223348 403.8725489 -76 392 C-64.16966416 382.81369337 -50.86507609 378 -36 378 C-36 290.88 -36 203.76 -36 114 C-38.97 114 -41.94 114 -45 114 C-61.29382669 111.94723443 -76.17341288 102.06069579 -86.12109375 89.2734375 C-96.38570339 73.95378354 -100.30756632 56.9933159 -96.75 38.875 C-92.89071906 22.45518897 -83.48455803 7.7191722 -69.01757812 -1.33911133 C-47.70698072 -13.82818105 -20.71928629 -14.08288331 0 0 Z " fill="#E84F4F" transform="translate(126,10)"/>
<path d="M0 0 C1.03279587 -0.00684311 1.03279587 -0.00684311 2.0864563 -0.01382446 C13.72667738 -0.04140592 24.28605145 1.33071724 35.25 5.375 C36.37559326 5.78951416 36.37559326 5.78951416 37.52392578 6.21240234 C39.4358966 6.9245246 41.34341527 7.64858057 43.25 8.375 C43.25 9.035 43.25 9.695 43.25 10.375 C42.07244141 10.90287109 42.07244141 10.90287109 40.87109375 11.44140625 C29.93455872 16.58090676 23.31384086 22.25582173 19 33.6875 C16.80861765 44.46179654 18.34887807 55.43817354 24.375 64.75 C27.99164728 69.49351843 31.99757633 72.60237914 37.25 75.375 C37.88679687 75.71402344 38.52359375 76.05304688 39.1796875 76.40234375 C46.4568649 79.67858337 55.67359338 79.45686602 63.25390625 77.1875 C72.83724526 73.28664968 80.10739864 67.24902283 84.625 57.875 C86.31933816 53.71156222 86.92488872 49.84528014 87.25 45.375 C99.73524991 56.30928719 104.90704942 77.67373415 107.25 93.375 C107.30964197 95.37411051 107.33550021 97.37682841 107.25 99.375 C106.48816406 99.0140625 105.72632813 98.653125 104.94140625 98.28125 C90.83049934 91.93926937 80.50233177 95.17446338 66.3125 99.8125 C64.44948731 100.41619401 62.58620727 101.0190636 60.72265625 101.62109375 C59.81555908 101.91628906 58.90846191 102.21148437 57.97387695 102.515625 C55.28207138 103.36488157 52.57551215 104.13512727 49.859375 104.90234375 C42.74635189 107.02759771 37.36028061 111.10212362 33.3125 117.375 C30.19957364 123.54718158 29.84928631 130.58607002 29.25 137.375 C30.52875 137.4575 31.8075 137.54 33.125 137.625 C40.98997873 138.50439132 47.93961802 141.64221352 54.25 146.375 C55.24 147.096875 56.23 147.81875 57.25 148.5625 C63.75499996 154.14794499 67.90958071 162.24177821 70.25 170.375 C70.53157959 171.33599609 70.53157959 171.33599609 70.81884766 172.31640625 C72.16022201 177.25867106 73.32370246 182.28067903 72.25 187.375 C68.7776966 192.15408424 64.37507676 194.59779872 59.25 197.375 C57.86119181 198.18224066 56.47318156 198.99085557 55.0859375 199.80078125 C29.86393452 214.12803858 0.8610634 218.99409498 -27.45727539 211.64208984 C-54.77846833 203.84969361 -78.57971846 186.24626023 -92.83251953 161.49511719 C-98.19368399 151.84162033 -101.86371739 142.02515907 -104.75 131.375 C-105.306875 129.65796875 -105.306875 129.65796875 -105.875 127.90625 C-107.51397798 121.25991172 -106.95679321 114.17618263 -106.875 107.375 C-106.86495155 105.91797489 -106.85582899 104.46094309 -106.84765625 103.00390625 C-106.82578711 99.46079671 -106.79135977 95.91794188 -106.75 92.375 C-103.37972371 93.49842543 -102.81811192 94.28831211 -100.6875 97 C-92.43348448 106.6124889 -81.0600313 112.83065409 -68.34375 113.8203125 C-54.61505188 114.39380833 -41.99705626 111.54773358 -30.75 103.375 C-29.98042969 102.82328125 -29.21085937 102.2715625 -28.41796875 101.703125 C-19.58546186 94.66119446 -12.29373025 82.67570495 -10.75 71.375 C-9.29284036 53.79775241 -12.48472255 39.89199826 -23.7109375 25.9375 C-28.98175037 20.13764643 -34.69967452 17.01583625 -41.7109375 13.78515625 C-44.75 12.375 -44.75 12.375 -47.75 10.375 C-31.73044295 3.69477985 -17.51762486 0.11152424 0 0 Z " fill="#E74F4F" transform="translate(342.75,35.625)"/>
<path d="M0 0 C1.43336153 0.15469704 2.86658259 0.31069598 4.29974365 0.46723938 C5.49695353 0.59733634 5.49695353 0.59733634 6.71834946 0.73006153 C9.54605121 1.06460245 12.33698947 1.54764737 15.140625 2.04296875 C22.35956039 3.170272 29.45355904 3.34250143 36.75 3.3125 C38.7132019 3.31056641 38.7132019 3.31056641 40.71606445 3.30859375 C50.49518152 3.21174084 59.47490349 2.11389196 69 0 C69.99 0 70.98 0 72 0 C72.09366223 19.33300738 72.16408608 38.66596836 72.20724869 57.999156 C72.22782728 66.97697242 72.25585735 75.95464742 72.30175781 84.93237305 C72.34177024 92.76221848 72.36746695 100.59196145 72.37635398 108.42190629 C72.38154448 112.56344029 72.3936445 116.70468125 72.42292023 120.84612083 C72.45031779 124.75398289 72.45839659 128.66143463 72.45243073 132.56938362 C72.4535202 133.9942842 72.46132814 135.41920027 72.4768219 136.84401703 C72.60235485 148.99679107 71.15289351 160.55392208 62.984375 170.06640625 C59.64445381 173.32085702 56.08194849 175.7656703 52 178 C51.40960938 178.3403125 50.81921875 178.680625 50.2109375 179.03125 C42.63506763 182.63562862 32.50765959 182.19185576 24.54296875 180.0859375 C14.45605753 176.15267652 8.2835337 170.3816592 3 161 C0.37693266 154.75460157 -0.12596706 148.26322529 -0.12025452 141.53956604 C-0.12162918 140.28464859 -0.12300385 139.02973114 -0.12442017 137.73678589 C-0.12088198 136.3643186 -0.11724718 134.99185157 -0.11352539 133.61938477 C-0.11324303 132.16024274 -0.11340221 130.70110057 -0.1139679 129.24195862 C-0.11425395 125.29620543 -0.10838827 121.35048285 -0.10139394 117.40473676 C-0.09512842 113.27543625 -0.09455407 109.14613498 -0.09336853 105.01683044 C-0.09026463 97.20429444 -0.08206395 89.39177248 -0.07201904 81.57924265 C-0.06082864 72.68203267 -0.05534008 63.78482201 -0.05032361 54.88760674 C-0.03988054 36.59172987 -0.02229936 18.29586607 0 0 Z " fill="#FEDCB9" transform="translate(306,287)"/>
<path d="M0 0 C14.02631358 5.21491146 23.74006467 15.57056608 30 29 C35.00431145 40.64085351 34.99347333 56.49748255 30.328125 68.2265625 C23.10861556 83.30259692 14.09335397 93.41376813 -1.875 99.375 C-14.47306425 103.69970862 -28.47723741 103.68769189 -40.81640625 98.609375 C-49.09346089 94.42514615 -58.27859542 88.21172659 -63 80 C-63.53268561 74.7358128 -62.50948428 70.07518227 -61 65.0625 C-60.78069824 64.3295874 -60.56139648 63.5966748 -60.33544922 62.84155273 C-56.57438503 50.90765259 -50.67978306 39.86933823 -43 30 C-42.31164062 29.09765625 -41.62328125 28.1953125 -40.9140625 27.265625 C-32.87503545 17.0546503 -14.62369718 -3.99986142 0 0 Z " fill="#3788C8" transform="translate(300,48)"/>
<path d="M0 0 C0.40405273 1.9609375 0.40405273 1.9609375 0.43359375 4.375 C0.44519531 5.26864258 0.45679688 6.16228516 0.46875 7.08300781 C0.4584375 8.04561523 0.448125 9.00822266 0.4375 10 C0.42847656 10.9909668 0.41945313 11.98193359 0.41015625 13.00292969 C-0.23642724 40.9946067 -13.47111595 65.21316548 -32.20703125 85.375 C-34 87 -34 87 -36 87 C-36.05945801 86.45174561 -36.11891602 85.90349121 -36.18017578 85.33862305 C-37.40787632 74.56402467 -38.50425574 65.02741895 -45 56 C-45.7425 54.9275 -46.485 53.855 -47.25 52.75 C-55.17210729 44.82789271 -63.17102236 41.53676302 -74 39 C-75.33358682 38.66768225 -76.66705381 38.33487811 -78 38 C-78.48767903 28.17417056 -77.31832894 20.81477526 -71 13 C-64.72921131 6.65843491 -57.49287714 4.03522002 -49.09277344 1.60595703 C-46.91222709 0.97458558 -44.74130294 0.31578098 -42.5703125 -0.34765625 C-13.6699481 -9.11329874 -13.6699481 -9.11329874 0 0 Z " fill="#3788C7" transform="translate(450,135)"/>
<path d="M0 0 C9.20761025 5.72243421 17.47206434 11.74499298 25.19921875 19.36328125 C25.70332275 19.85795898 26.20742676 20.35263672 26.72680664 20.86230469 C35.44384559 29.65656294 35.44384559 29.65656294 35.51171875 35.42578125 C35.09942992 43.8421601 30.09588059 52.18947451 23.94140625 57.76953125 C14.3187733 64.94077102 4.82980652 67.57162977 -7.11328125 66.30078125 C-17.59042508 63.3328968 -25.04839976 58.04036544 -30.82421875 48.8515625 C-34.85722952 40.87108968 -36.70224804 30.97690527 -34.609375 22.18359375 C-31.06602885 11.77627991 -24.40736044 3.18663172 -14.55078125 -1.76171875 C-8.71055404 -4.55044843 -5.48078312 -2.99139355 0 0 Z " fill="#3788C7" transform="translate(395.11328125,48.69921875)"/>
<path d="M0 0 C0.33 0 0.66 0 1 0 C1 2.31 1 4.62 1 7 C2.27875 7.0825 3.5575 7.165 4.875 7.25 C12.73997873 8.12939132 19.68961802 11.26721352 26 16 C26.99 16.721875 27.98 17.44375 29 18.1875 C35.50499996 23.77294499 39.65958071 31.86677821 42 40 C42.18771973 40.64066406 42.37543945 41.28132813 42.56884766 41.94140625 C43.91022201 46.88367106 45.07370246 51.90567903 44 57 C40.5276966 61.77908424 36.12507676 64.22279872 31 67 C29.61119181 67.80724066 28.22318156 68.61585557 26.8359375 69.42578125 C11.35799588 78.21368217 -4.07101375 83.55450473 -22 83 C-26.81956254 74.47970194 -27.28733606 66.27059013 -24.9375 56.8125 C-22.19018714 48.77693234 -16.02193399 41.72452023 -9 37 C-8.34 37 -7.68 37 -7 37 C-6.7525 36.34 -6.505 35.68 -6.25 35 C-5 32 -5 32 -2.96875 28.59375 C-0.20325512 23.09798948 -0.32955348 17.54606412 -0.25 11.5 C-0.22035156 10.39140625 -0.19070313 9.2828125 -0.16015625 8.140625 C-0.08997662 5.42701248 -0.03702388 2.7142332 0 0 Z " fill="#C74444" transform="translate(371,166)"/>
<path d="M0 0 C4.46876455 3.07848225 8.07974831 6.73924494 9.8125 11.9375 C10.35153153 18.29807211 9.44613485 22.62861791 5.8125 27.9375 C1.57449786 32.06683542 -2.13914951 33.7360229 -8 34.3125 C-12.67904605 34.17097876 -16.40918566 32.67698734 -20.1875 29.9375 C-25.23909972 23.5906183 -26.0033099 17.8463238 -25.1875 9.9375 C-23.00961093 5.5010593 -20.27314574 2.69531087 -16.1875 -0.0625 C-10.81636879 -1.74515729 -5.32437921 -1.77479307 0 0 Z " fill="#3888C6" transform="translate(297.1875,178.0625)"/>
<path d="M0 0 C3.41656316 0.48044998 6.82831696 0.97217457 10.23413086 1.52416992 C18.7194462 2.86091061 26.97831856 3.34848766 35.5625 3.3125 C37.50020264 3.31056641 37.50020264 3.31056641 39.47705078 3.30859375 C50.51172235 3.19921775 61.16237907 2.00962507 72 0 C72 2.97 72 5.94 72 9 C50.19361666 14.74662337 26.97362972 15.25515556 5 10 C3.33453815 9.66069819 1.66834322 9.32483809 0 9 C0 6.03 0 3.06 0 0 Z " fill="#DDBFA0" transform="translate(306,278)"/>
</svg>
