<?xml version="1.0" encoding="UTF-8"?>
<svg version="1.1" xmlns="http://www.w3.org/2000/svg" width="512" height="512">
<path d="M0 0 C1.90625 0.46484375 1.90625 0.46484375 4.40625 2.83984375 C5.90625 5.46484375 5.90625 5.46484375 5.90625 7.46484375 C12.17625 7.46484375 18.44625 7.46484375 24.90625 7.46484375 C25.56625 5.81484375 26.22625 4.16484375 26.90625 2.46484375 C29.46702765 -0.0959339 31.33507603 0.15033011 34.8359375 0.00390625 C37.86362654 0.67799551 38.97080396 2.07603318 40.90625 4.46484375 C41.38726807 7.22369385 41.38726807 7.22369385 41.36035156 10.42675781 C41.36004944 11.62770081 41.35974731 12.8286438 41.35943604 14.065979 C41.33879089 15.35776062 41.31814575 16.64954224 41.296875 17.98046875 C41.28941071 19.31995804 41.28371866 20.65945827 41.27972412 21.9989624 C41.26448213 25.51735811 41.22521418 29.0350889 41.1809082 32.55322266 C41.13992364 36.14606736 41.1217064 39.73901995 41.1015625 43.33203125 C41.05871745 50.37657341 40.99048446 57.42066507 40.90625 64.46484375 C42.97328406 64.20360136 45.03827807 63.92618815 47.10229492 63.64208984 C48.25243576 63.48936615 49.4025766 63.33664246 50.58757019 63.17929077 C55.76938939 62.06374619 59.18953797 59.4021723 63.21875 56.08984375 C64.02070801 55.4656958 64.82266602 54.84154785 65.64892578 54.19848633 C67.29024042 52.92041346 68.92414873 51.63276912 70.55029297 50.33544922 C74.07468047 47.53712207 77.67491344 44.84369869 81.28125 42.15234375 C82.26182373 41.41866577 82.26182373 41.41866577 83.26220703 40.67016602 C84.53489441 39.71909928 85.80862714 38.76942949 87.08349609 37.82128906 C88.27358777 36.93565427 89.46151909 36.04710695 90.64697266 35.15527344 C103.99707403 25.16687536 116.24562402 21.33332841 132.6953125 21.26171875 C133.71676361 21.25601868 134.73821472 21.2503186 135.7906189 21.2444458 C137.9404803 21.23503722 140.09035586 21.22847838 142.24023438 21.22460938 C145.52759641 21.21485459 148.81434558 21.18377218 152.1015625 21.15234375 C154.19530881 21.1458175 156.28905956 21.14056555 158.3828125 21.13671875 C159.85326523 21.11819855 159.85326523 21.11819855 161.35342407 21.0993042 C169.94416472 21.12738868 169.94416472 21.12738868 173.90625 24.46484375 C175.45211876 27.55658127 175.19984521 30.05913927 174.90625 33.46484375 C173.09375 35.90234375 173.09375 35.90234375 170.90625 37.46484375 C169.91625 37.46484375 168.92625 37.46484375 167.90625 37.46484375 C167.90625 46.37484375 167.90625 55.28484375 167.90625 64.46484375 C169.22625 64.79484375 170.54625 65.12484375 171.90625 65.46484375 C173.65625 66.52734375 173.65625 66.52734375 174.90625 68.46484375 C175.61404977 74.03876692 175.61404977 74.03876692 174.90625 76.46484375 C172.05029306 79.50431741 169.90664678 80.72176547 165.80957031 80.88378906 C164.20093734 80.87106247 162.5923788 80.83972107 160.984375 80.79296875 C159.21875278 80.78796183 157.45312703 80.78409165 155.6875 80.78125 C152.92448937 80.75430575 150.16286291 80.71499021 147.40039062 80.65380859 C135.14288547 79.94839072 135.14288547 79.94839072 124.59765625 85.1484375 C123.34417728 86.56723814 122.11185473 88.00514446 120.90625 89.46484375 C119.66832791 90.52695877 118.40207115 91.55724799 117.10546875 92.546875 C116.52087891 93.00384766 115.93628906 93.46082031 115.33398438 93.93164062 C114.75970703 94.37572266 114.18542969 94.81980469 113.59375 95.27734375 C112.70333008 95.9724707 112.70333008 95.9724707 111.79492188 96.68164062 C108.85444938 98.97304561 105.89826842 101.24114611 102.90625 103.46484375 C104.32544662 107.92517598 106.77241559 110.79335173 109.96875 114.08984375 C113.60438724 117.93962192 117.0917313 121.8291875 120.40625 125.96484375 C121.10137695 126.79886719 121.79650391 127.63289063 122.51269531 128.4921875 C124.90625 131.46484375 124.90625 131.46484375 127.00708008 134.57861328 C130.87278498 139.73689199 134.03955489 143.44781464 140.60498047 144.59472656 C145.15693816 145.0626753 149.67086996 145.06221214 154.2409668 144.91943359 C157.10350942 144.83957147 159.94767194 144.87814839 162.81054688 144.9296875 C172.38583026 145.10889987 172.38583026 145.10889987 180.81762695 141.27563477 C182.93964155 138.7074014 182.93964155 138.7074014 184.41796875 135.97631836 C188.74229854 128.67901184 199.09738332 124.06779931 206.90625 121.46484375 C214.63072264 119.6784744 222.09573613 119.15719352 230.00390625 119.1640625 C231.67627602 119.15763481 231.67627602 119.15763481 233.38243103 119.15107727 C235.72280197 119.14537242 238.06319063 119.14480506 240.40356445 119.14916992 C243.96271157 119.15233837 247.52103287 119.12879189 251.08007812 119.10351562 C253.36718646 119.10124292 255.65429701 119.100539 257.94140625 119.1015625 C258.99272232 119.09235275 260.04403839 119.08314301 261.12721252 119.07365417 C272.04138908 119.14131024 279.87580363 121.29488606 287.765625 129.0234375 C293.6948598 135.78579471 294.57073803 142.20122677 294.29296875 151.08984375 C293.44637305 158.47831529 290.21764039 164.27148426 284.90625 169.46484375 C279.52339085 172.96797431 274.67590181 175.59547276 268.15942383 175.57836914 C267.19865433 175.57829361 266.23788483 175.57821808 265.2480011 175.57814026 C264.21354355 175.57297897 263.179086 175.56781769 262.11328125 175.5625 C260.52153328 175.56037758 260.52153328 175.56037758 258.89762878 175.55821228 C255.50464065 175.55260981 252.11171823 175.54005689 248.71875 175.52734375 C246.41992283 175.52232907 244.12109462 175.51776611 241.82226562 175.51367188 C236.18357128 175.50263958 230.54491534 175.48589905 224.90625 175.46484375 C224.91508713 176.03306351 224.92392426 176.60128326 224.93302917 177.1867218 C224.9684122 179.79632333 224.99015622 182.40587413 225.01171875 185.015625 C225.02585815 185.90930786 225.03999756 186.80299072 225.05456543 187.72375488 C225.14568756 202.45516542 219.36935001 214.47366446 209.34375 225.109375 C199.60306579 234.52224772 188.22405692 238.91210267 174.90625 240.46484375 C174.89166748 241.50302246 174.87708496 242.54120117 174.86206055 243.61083984 C174.80356775 247.5063519 174.72634387 251.4013163 174.64379883 255.29638672 C174.61078704 256.97402988 174.58268324 258.65177777 174.55981445 260.32958984 C174.21834614 284.72641067 174.21834614 284.72641067 164.90625 294.46484375 C160.12658898 298.46484375 160.12658898 298.46484375 156.90625 298.46484375 C155.58625 304.07484375 154.26625 309.68484375 152.90625 315.46484375 C154.22625 316.12484375 155.54625 316.78484375 156.90625 317.46484375 C159.04664263 319.41254093 161.09915114 321.37939125 163.1375885 323.42875671 C163.75958946 324.04622656 164.38159042 324.66369641 165.0224399 325.29987746 C167.10837732 327.37314023 169.18708568 329.45350163 171.26586914 331.53393555 C172.75870949 333.02079256 174.25195994 334.50723791 175.74559021 335.99330139 C179.80405371 340.03407756 183.85598703 344.08134166 187.9062531 348.13033271 C191.28693007 351.5091116 194.67033133 354.88515634 198.05360216 358.26133758 C206.03546521 366.22690854 214.01160899 374.19817619 221.98461914 382.17260742 C230.2108921 390.40008192 238.44825148 398.61633884 246.69090182 406.82740277 C253.76562983 413.87598366 260.83262959 420.93224993 267.89365667 427.99455577 C272.11166035 432.21306955 276.33271597 436.42841487 280.5615406 440.6360836 C284.53894079 444.59412814 288.50663368 448.56165199 292.46708107 452.53665733 C293.92169065 453.99335942 295.3797193 455.44665662 296.84140396 456.89625931 C298.83762954 458.87705012 300.82110358 460.86980471 302.80189514 462.86601257 C303.38185228 463.43568258 303.96180942 464.0053526 304.55934101 464.59228534 C308.63503026 468.73830808 311.59431519 472.92012996 312.12109375 478.90625 C312.02957031 479.60621094 311.93804687 480.30617188 311.84375 481.02734375 C311.77027344 481.72988281 311.69679688 482.43242187 311.62109375 483.15625 C309.30660907 490.63089725 302.79413673 495.87571617 297.40625 501.21484375 C296.55160156 502.07722656 295.69695312 502.93960937 294.81640625 503.828125 C293.99011719 504.65183594 293.16382813 505.47554688 292.3125 506.32421875 C291.56291016 507.07155273 290.81332031 507.81888672 290.04101562 508.58886719 C286.33693449 511.84391744 283.4958856 512.77050661 278.59375 512.83984375 C277.69011719 512.86820313 276.78648437 512.8965625 275.85546875 512.92578125 C269.15337115 511.8783011 264.41236357 507.40931638 259.82545471 502.74481201 C258.97118791 501.89439012 258.97118791 501.89439012 258.0996632 501.026788 C256.2071207 499.13915802 254.32545048 497.2410617 252.44360352 495.34277344 C251.08362709 493.98195019 249.72298854 492.62178839 248.36174011 491.26223755 C244.67783916 487.57919584 241.00324862 483.88699084 237.33027768 480.19305325 C233.48662814 476.33062513 229.63445735 472.47671473 225.78318787 468.62188721 C218.49586562 461.32524799 211.21622329 454.02099648 203.9393186 446.71396947 C195.6526245 438.39372062 187.35739039 430.08200852 179.06143296 421.77099752 C162.00019535 404.67841876 144.94969407 387.57516365 127.90625 370.46484375 C125.47632786 372.89476589 124.52663906 375.19102844 123.15625 378.33984375 C122.68703125 379.38914062 122.2178125 380.4384375 121.734375 381.51953125 C120.61812188 384.33026791 120.61812188 384.33026791 121.703125 386.41015625 C122.29867187 387.42722656 122.29867187 387.42722656 122.90625 388.46484375 C124.36912752 394.25454209 123.4028912 397.7038879 120.59375 402.77734375 C120.23200684 403.46103027 119.87026367 404.1447168 119.49755859 404.84912109 C118.71959312 406.30958197 117.93252751 407.76522569 117.13720703 409.21630859 C115.90231958 411.47202328 114.69778799 413.74208368 113.49609375 416.015625 C108.3073226 425.716101 102.58794277 434.72890887 95.90625 443.46484375 C95.21273437 444.38265625 94.51921875 445.30046875 93.8046875 446.24609375 C77.2182864 467.36735357 56.0802243 485.07292029 28.7734375 489.03125 C5.85454166 491.60094438 -14.84565628 485.43155353 -33.09375 471.46484375 C-36.56910892 468.60123238 -39.84986767 465.58689012 -43.09375 462.46484375 C-43.98964844 461.62050781 -44.88554687 460.77617187 -45.80859375 459.90625 C-85.53405482 421.51797135 -105.83573838 360.5860002 -120.09375 308.46484375 C-120.33770508 307.58086914 -120.58166016 306.69689453 -120.83300781 305.78613281 C-124.85627792 290.82268424 -126.69166876 275.5830631 -128.35122681 260.21443176 C-128.84491068 255.65130902 -129.37766929 251.09496562 -129.94177246 246.5400238 C-132.03956416 229.53072515 -133.47954847 212.67560319 -133.53125 195.52734375 C-133.53733276 194.77078491 -133.54341553 194.01422607 -133.54968262 193.23474121 C-133.68601511 167.58315064 -125.71449183 144.55621586 -107.65234375 126.046875 C-106.80800781 125.19480469 -105.96367188 124.34273438 -105.09375 123.46484375 C-104.46597656 122.78808594 -103.83820313 122.11132812 -103.19140625 121.4140625 C-93.98866051 111.64832526 -81.75623311 105.76502464 -70.09375 99.46484375 C-72.33328056 98.06962819 -74.5826161 96.69921591 -76.84375 95.33984375 C-77.47796875 94.94152344 -78.1121875 94.54320313 -78.765625 94.1328125 C-80.8519373 92.84650155 -80.8519373 92.84650155 -84.09375 91.46484375 C-86.23684215 92.07786178 -86.23684215 92.07786178 -88.09375 93.46484375 C-92.99997016 94.74708071 -96.07930746 94.15188744 -100.8203125 92.48046875 C-101.44924408 92.26420837 -102.07817566 92.047948 -102.72616577 91.82513428 C-104.72840749 91.13446262 -106.72364096 90.42582806 -108.71875 89.71484375 C-111.33348588 88.79623982 -113.95102976 87.88602064 -116.5703125 86.98046875 C-117.20712952 86.75885071 -117.84394653 86.53723267 -118.50006104 86.30889893 C-123.47700176 84.60480387 -128.48463345 83.28942231 -133.61865234 82.15625 C-139.04203308 80.6412555 -142.58749202 77.67378871 -145.46875 72.90234375 C-148.3790122 66.74601986 -149.10782858 61.12679597 -147.09375 54.46484375 C-144.57630129 48.3612181 -139.6267196 44.52408558 -133.65625 42.02734375 C-129.42035908 41.35851887 -125.37012892 41.29029767 -121.09375 41.46484375 C-121.32191406 40.94277344 -121.55007812 40.42070313 -121.78515625 39.8828125 C-124.5108578 32.90354978 -125.11119021 26.19899628 -122.11328125 19.1640625 C-118.96176721 13.74835391 -115.0763894 9.9214816 -109.40625 7.15234375 C-101.38620849 5.48780683 -94.63816405 5.72266329 -87.390625 9.7734375 C-82.74007932 13.19807403 -79.04448831 17.71125311 -77.15234375 23.19140625 C-76.35253583 25.58954109 -76.35253583 25.58954109 -74.37890625 26.14453125 C-73.64542969 26.20898438 -72.91195312 26.2734375 -72.15625 26.33984375 C-59.67748421 28.30641142 -47.7191606 33.98519131 -36.34375 39.27734375 C-35.54219482 39.64279297 -34.74063965 40.00824219 -33.91479492 40.38476562 C-25.7952257 44.26715131 -18.49524813 49.38389222 -11.09375 54.46484375 C-11.09010437 53.84732239 -11.08645874 53.22980103 -11.08270264 52.59356689 C-11.0409097 46.16941622 -10.9715867 39.74598214 -10.88623047 33.32226562 C-10.85799535 30.92455205 -10.83679354 28.52674496 -10.82275391 26.12890625 C-10.80136028 22.68310578 -10.7547262 19.2384328 -10.703125 15.79296875 C-10.70189636 14.71992493 -10.70066772 13.6468811 -10.69940186 12.5413208 C-10.67968323 11.54058533 -10.6599646 10.53984985 -10.63964844 9.50878906 C-10.63076599 8.62942688 -10.62188354 7.7500647 -10.61273193 6.84405518 C-9.35275774 1.06785217 -5.2789351 -0.24621899 0 0 Z " fill="#020101" transform="translate(174.09375,-0.46484375)"/>
<path d="M0 0 C1.94737061 -0.00043808 1.94737061 -0.00043808 3.93408203 -0.00088501 C7.47699902 -0.00145661 11.01977938 0.01026631 14.56266475 0.02426291 C18.27155147 0.03680253 21.98044166 0.03794331 25.68934631 0.04031372 C32.70504638 0.04651902 39.72068379 0.06291692 46.73635632 0.0830127 C54.72668427 0.10540135 62.71701529 0.11637258 70.70736682 0.12640357 C87.13706626 0.14728404 103.56667944 0.18394833 119.99633789 0.22705078 C119.66633789 8.47705078 119.33633789 16.72705078 118.99633789 25.22705078 C111.76091974 26.54258135 105.63402306 27.51918302 98.45751953 27.48242188 C97.57476349 27.48604233 96.69200745 27.48966278 95.78250122 27.49339294 C93.88925768 27.50022307 91.99599471 27.50280454 90.10273933 27.50144577 C87.10558578 27.50047174 84.1087822 27.51352139 81.11167908 27.53042603 C72.59889293 27.57646434 64.08614886 27.60133661 55.57324219 27.60791016 C50.34735595 27.61291632 45.12184497 27.63710397 39.89608574 27.67323685 C37.90936978 27.68303983 35.92260229 27.68536409 33.93586922 27.68006516 C31.16663249 27.6730168 28.39852444 27.69022488 25.62939453 27.71289062 C24.81013992 27.70471817 23.99088531 27.69654572 23.14680481 27.68812561 C19.67096993 27.73885098 17.46800198 27.88724831 14.60818481 29.94755554 C12.93230537 32.31760642 11.71722207 34.5449877 10.57373047 37.21313477 C10.14260452 38.20615097 9.71147858 39.19916718 9.26728821 40.22227478 C8.58596077 41.83145531 8.58596077 41.83145531 7.89086914 43.47314453 C7.40736496 44.59406998 6.92386078 45.71499542 6.42570496 46.86988831 C4.87776041 50.46432343 3.34313404 54.0642717 1.80883789 57.66455078 C0.79603949 60.02234805 -0.21762396 62.37977394 -1.23217773 64.73681641 C-5.05338262 73.6248279 -8.86350089 82.5173491 -12.62304688 91.43164062 C-13.02948929 92.39119156 -13.4359317 93.35074249 -13.85469055 94.33937073 C-14.60443645 96.11038916 -15.35041745 97.88300859 -16.09172058 99.65757751 C-18.68607048 105.77572121 -21.70452479 111.1242459 -26.00366211 116.22705078 C-26.61725586 116.99919922 -27.23084961 117.77134766 -27.86303711 118.56689453 C-31.98532531 123.52188495 -36.38193853 127.09846367 -41.72631836 130.67236328 C-44.63571327 132.65853682 -46.81720852 134.4575429 -49.00366211 137.22705078 C-49.4623055 140.43755454 -49.03437406 142.13491493 -48.00366211 145.22705078 C-43.83207729 146.40768799 -41.39237515 146.84815424 -37.37475586 145.05126953 C-31.31958328 141.30447 -26.06918451 136.83154277 -20.90209961 131.94970703 C-19.00366211 130.22705078 -19.00366211 130.22705078 -18.00366211 130.22705078 C-17.74698652 137.45079387 -17.55245882 144.67353052 -17.43372822 151.90093613 C-17.37668056 155.25914528 -17.29352685 158.61184748 -17.17382812 161.96875 C-16.31402274 186.71459258 -16.31402274 186.71459258 -21.76200867 193.24005127 C-24.01767426 195.44745662 -26.49013884 197.32355552 -29.00366211 199.22705078 C-30.59330694 201.06155083 -32.14261601 202.93266857 -33.62866211 204.85205078 C-37.19513235 209.28158144 -40.8969714 213.52472373 -44.80053711 217.66064453 C-47.09745709 220.19223316 -47.09745709 220.19223316 -48.83178711 223.26220703 C-51.01804003 226.70599974 -52.64460275 228.8735697 -56.00366211 231.22705078 C-60.52107833 232.19513465 -65.03822469 232.21724976 -69.64135742 232.08081055 C-74.95631642 231.81024317 -74.95631642 231.81024317 -79.64428711 234.00439453 C-81.32642052 236.30837128 -81.32642052 236.30837128 -80.94116211 239.85205078 C-80.32857761 243.48222002 -80.32857761 243.48222002 -77.00366211 245.22705078 C-74.24948893 245.52771232 -71.57721064 245.73630377 -68.81616211 245.85205078 C-67.69177734 245.91005859 -67.69177734 245.91005859 -66.54467773 245.96923828 C-64.69807012 246.06333294 -62.85090021 246.14627397 -61.00366211 246.22705078 C-60.93018555 247.88994141 -60.93018555 247.88994141 -60.85522461 249.58642578 C-60.78016996 251.04999143 -60.7046233 252.5135319 -60.62866211 253.97705078 C-60.59772461 254.70666016 -60.56678711 255.43626953 -60.53491211 256.18798828 C-60.31921384 261.54719297 -60.31921384 261.54719297 -58.00366211 266.22705078 C-54.41440163 267.22406758 -52.15299682 267.84449766 -48.79321289 266.03955078 C-46.80431997 264.37159079 -46.80431997 264.37159079 -46.61645508 261.94970703 C-46.65915527 261.07185547 -46.70185547 260.19400391 -46.74584961 259.28955078 C-46.76583008 258.31727539 -46.78581055 257.345 -46.80639648 256.34326172 C-46.84216797 254.8007373 -46.84216797 254.8007373 -46.87866211 253.22705078 C-46.7611614 240.50955773 -46.7611614 240.50955773 -41.50366211 234.97705078 C-39.68559026 233.37621653 -37.85229747 231.79249093 -36.00366211 230.22705078 C-34.44278756 228.40646332 -32.92102833 226.55157596 -31.44116211 224.66455078 C-28.51886404 221.04131349 -25.51804611 217.53890603 -22.37866211 214.10205078 C-18.32955539 209.66155413 -14.61186814 205.03025752 -11.00366211 200.22705078 C-8.1521118 201.53656101 -6.51669139 202.67167622 -4.12866211 204.85205078 C-1.22483911 207.46255963 -1.22483911 207.46255963 2.18383789 207.66455078 C5.19540782 207.39782715 5.19540782 207.39782715 7.99633789 205.22705078 C8.87787663 201.76386289 9.15865113 200.51442372 7.99633789 197.22705078 C6.22602062 195.61808424 4.39661438 194.07338862 2.53515625 192.57080078 C-2.31934012 188.13034658 -4.06418786 184.43725929 -4.44287109 177.87939453 C-4.56135651 174.63722563 -4.54283855 171.40810083 -4.49975586 168.16455078 C-4.50974213 166.40647425 -4.52283282 164.64841294 -4.53883362 162.89038086 C-4.55949102 159.2079149 -4.54021922 155.52838831 -4.49267578 151.84619141 C-4.43623795 147.2100398 -4.48266302 142.58176658 -4.55760384 137.94613361 C-4.85943707 116.14128699 -3.25084239 99.39725319 7.48068237 80.03948975 C9.769053 75.79320645 11.60698179 71.38741821 13.44946289 66.93408203 C14.03280081 65.56595723 14.6177488 64.19851776 15.2043457 62.83178711 C15.87820312 61.25034912 16.55206055 59.66891113 17.24633789 58.03955078 C19.47383789 52.82142578 21.70133789 47.60330078 23.99633789 42.22705078 C42.80633789 42.22705078 61.61633789 42.22705078 80.99633789 42.22705078 C79.48424977 45.25122702 78.06715047 47.59263438 76.12133789 50.28955078 C70.95915175 57.92554739 67.93142773 66.80260456 67.81933594 76.04223633 C67.8065007 76.97057785 67.79366547 77.89891937 67.78044128 78.85539246 C67.77305435 79.84815689 67.76566742 80.84092133 67.75805664 81.86376953 C67.74998489 82.89838821 67.74191315 83.9330069 67.7335968 84.99897766 C67.71978665 87.18688293 67.70905082 89.37480947 67.70117188 91.56274414 C67.68966185 93.7883948 67.66922569 96.01401807 67.63964844 98.23950195 C67.59675974 101.46861381 67.58077263 104.6969074 67.57055664 107.92626953 C67.54429451 109.40023445 67.54429451 109.40023445 67.51750183 110.90397644 C67.54221657 118.87960611 69.53260848 125.26748566 73.74633789 132.03955078 C78.08573834 136.25841233 83.27385407 139.25994697 88.99633789 141.22705078 C88.90676059 142.56144367 88.79862759 143.89458998 88.68383789 145.22705078 C88.62583008 145.96955078 88.56782227 146.71205078 88.50805664 147.47705078 C86.75024202 156.92362708 82.36099948 161.45279281 75.49633789 167.91455078 C73.77314519 169.55964931 72.05422778 171.20924038 70.34008789 172.86376953 C69.57889648 173.58266357 68.81770508 174.30155762 68.03344727 175.04223633 C64.59850336 178.72623837 62.56209163 181.95185517 62.49633789 187.03955078 C62.77505471 194.8784614 66.86084652 199.24242292 72.37133789 204.41455078 C73.08032227 205.02685547 73.78930664 205.63916016 74.51977539 206.27001953 C75.99633789 208.22705078 75.99633789 208.22705078 75.88305664 210.51220703 C75.59043945 211.40810547 75.29782227 212.30400391 74.99633789 213.22705078 C74.62379883 214.38720703 74.25125977 215.54736328 73.86743164 216.74267578 C72.49695584 220.44183831 71.05322159 223.84915125 68.99633789 227.22705078 C66.99633789 228.07861328 66.99633789 228.07861328 64.93383789 228.10205078 C63.63446289 228.14330078 62.33508789 228.18455078 60.99633789 228.22705078 C59.61760916 229.62246692 59.61760916 229.62246692 58.60180664 231.57861328 C58.17875244 232.31096191 57.75569824 233.04331055 57.31982422 233.79785156 C56.88307373 234.5994873 56.44632324 235.40112305 55.99633789 236.22705078 C55.55249756 237.04028809 55.10865723 237.85352539 54.65136719 238.69140625 C53.7114157 240.43776601 52.77772371 242.18750617 51.84960938 243.94018555 C43.47512781 259.72791587 33.96985932 273.95625178 21.99633789 287.22705078 C21.2087207 288.11005859 20.42110352 288.99306641 19.60961914 289.90283203 C7.29978512 302.98584571 -10.20508229 313.77159714 -28.55444336 314.52783203 C-50.52515779 314.80192349 -67.11877938 307.17404087 -83.00366211 292.22705078 C-83.8634668 291.44716797 -84.72327148 290.66728516 -85.60913086 289.86376953 C-115.08665044 261.97962939 -130.82759952 220.01104166 -143.8125 182.61669922 C-144.62058168 180.31716939 -145.44589575 178.02363667 -146.28662109 175.73583984 C-149.17454951 167.86215337 -151.53766904 159.98734444 -153.56616211 151.85205078 C-154.01004272 150.10311523 -154.01004272 150.10311523 -154.46289062 148.31884766 C-155.04744644 146.01197131 -155.62917728 143.70437686 -156.20776367 141.39599609 C-156.90866607 138.60528655 -157.62064185 135.81783806 -158.33959961 133.03173828 C-161.00366211 122.63071428 -161.00366211 122.63071428 -161.00366211 119.22705078 C-159.12475586 117.42236328 -159.12475586 117.42236328 -156.44116211 115.35205078 C-151.75515601 111.6452998 -147.19182433 107.84424652 -142.69116211 103.91455078 C-141.40873064 102.79852675 -140.12617774 101.68264225 -138.84350586 100.56689453 C-138.20654785 100.01243652 -137.56958984 99.45797852 -136.91333008 98.88671875 C-129.76974969 92.67832455 -122.60720339 86.49881106 -115.25366211 80.53955078 C-110.87858463 76.98959757 -106.69817019 73.27141257 -102.53491211 69.47705078 C-99.02566725 66.35772202 -95.37204088 63.42955945 -91.72241211 60.47705078 C-89.08218481 58.29203509 -86.53636491 56.03533687 -84.00366211 53.72705078 C-80.68376725 50.70422657 -77.30602099 47.80192917 -73.81616211 44.97705078 C-69.3651282 41.37234022 -65.01188456 37.67312008 -60.69116211 33.91455078 C-60.05621826 33.36275146 -59.42127441 32.81095215 -58.76708984 32.24243164 C-56.23570399 30.04126829 -53.70536756 27.83890942 -51.17700195 25.63427734 C-21.59068036 -0.12741181 -21.59068036 -0.12741181 0 0 Z " fill="#FC4654" transform="translate(225.003662109375,158.77294921875)"/>
<path d="M0 0 C0.96061844 0.00007553 1.92123688 0.00015106 2.91096497 0.00022888 C4.44716743 0.00797081 4.44716743 0.00797081 6.0144043 0.01586914 C7.07273972 0.01728409 8.13107513 0.01869904 9.22148132 0.02015686 C12.59389093 0.0257438 15.96623358 0.03829395 19.33862305 0.05102539 C21.62833563 0.05604208 23.91804925 0.06060469 26.20776367 0.06469727 C31.81392987 0.07485704 37.41995171 0.09443514 43.02612305 0.11352539 C43.02612305 9.02352539 43.02612305 17.93352539 43.02612305 27.11352539 C40.14506836 27.06969727 37.26401367 27.02586914 34.2956543 26.98071289 C31.46222161 26.97229849 28.6293176 26.98108575 25.79589844 26.99145508 C23.84755602 26.98952491 21.89914051 26.97009638 19.95117188 26.93188477 C8.06596997 26.71218399 -0.39860804 27.10199312 -9.30175781 35.48022461 C-10.18355713 36.34921387 -11.06535645 37.21820313 -11.97387695 38.11352539 C-13.50605279 39.38248167 -15.05033178 40.63708131 -16.6105957 41.87133789 C-17.96258763 42.99164742 -19.31287965 44.11401188 -20.66137695 45.23852539 C-22.10490191 46.43572556 -23.54891026 47.63234312 -24.9934082 48.82836914 C-25.6735498 49.39152832 -26.35369141 49.9546875 -27.05444336 50.53491211 C-30.36384112 53.2566834 -33.72181018 55.91547293 -37.09106445 58.56274414 C-37.71239258 59.07450195 -38.3337207 59.58625977 -38.97387695 60.11352539 C-39.55395508 60.5530957 -40.1340332 60.99266602 -40.73168945 61.44555664 C-42.18922898 63.14938661 -42.18922898 63.14938661 -42.5012207 65.87915039 C-41.76613729 70.38766202 -39.5824517 72.58359396 -36.53637695 75.86352539 C-35.98941162 76.47623291 -35.44244629 77.08894043 -34.87890625 77.72021484 C-33.25763529 79.53102501 -31.61835289 81.32379768 -29.97387695 83.11352539 C-28.41034999 84.84176353 -26.84771985 86.57081385 -25.28637695 88.30102539 C-24.5799707 89.07961914 -23.87356445 89.85821289 -23.14575195 90.66040039 C-18.49538051 95.91297821 -13.86820792 101.27202894 -9.97387695 107.11352539 C-10.92219894 107.11717102 -11.87052094 107.12081665 -12.84757996 107.12457275 C-21.83529475 107.16170004 -30.82267253 107.21966388 -39.81013012 107.29742813 C-44.42942298 107.33674328 -49.04852976 107.36900932 -53.66796875 107.38452148 C-58.13565184 107.39979416 -62.60282278 107.4344245 -67.07027626 107.48183441 C-68.76484 107.49653977 -70.4594769 107.50456009 -72.15410423 107.50540924 C-84.16223267 107.51746487 -94.65782668 108.65108157 -105.47387695 114.42602539 C-109.31220958 116.27665005 -110.07304145 116.31804014 -113.97387695 115.11352539 C-115.98754883 113.87353516 -115.98754883 113.87353516 -117.94262695 112.30493164 C-119.03667847 111.43916504 -119.03667847 111.43916504 -120.15283203 110.5559082 C-121.30174927 109.62536621 -121.30174927 109.62536621 -122.47387695 108.67602539 C-124.09212588 107.39056613 -125.71061685 106.10541151 -127.3293457 104.82055664 C-128.12131348 104.18714355 -128.91328125 103.55373047 -129.72924805 102.90112305 C-132.72073781 100.51873366 -135.74820672 98.18588645 -138.78637695 95.86352539 C-141.90680314 93.4695063 -145.02538362 91.07360614 -148.1340332 88.66430664 C-156.30749769 82.33285468 -164.61361529 76.19581811 -172.97387695 70.11352539 C-170.76291339 67.68651638 -168.6252516 66.24663319 -165.7019043 64.76928711 C-164.41574722 64.11378372 -164.41574722 64.11378372 -163.10360718 63.44503784 C-162.18165558 62.98243561 -161.25970398 62.51983337 -160.30981445 62.04321289 C-159.36200104 61.56151642 -158.41418762 61.07981995 -157.43765259 60.58352661 C-154.41081946 59.04634531 -151.3800703 57.5170882 -148.34887695 55.98852539 C-145.3112432 54.45148463 -142.27445389 52.9128077 -139.23867798 51.37210083 C-137.34910655 50.41366514 -135.45832343 49.45761406 -133.56625366 48.50411987 C-132.71511993 48.07342194 -131.86398621 47.642724 -130.98706055 47.19897461 C-130.23443939 46.8194162 -129.48181824 46.43985779 -128.70639038 46.04879761 C-126.99849719 45.23358833 -126.99849719 45.23358833 -125.97387695 44.11352539 C-124.39743999 43.93725133 -122.8137131 43.82558793 -121.22973633 43.74047852 C-120.21778198 43.68371948 -119.20582764 43.62696045 -118.16320801 43.56848145 C-117.05916626 43.51115845 -115.95512451 43.45383545 -114.81762695 43.39477539 C-113.68619263 43.33197388 -112.5547583 43.26917236 -111.38903809 43.20446777 C-107.75087791 43.00306403 -104.11241991 42.80788175 -100.47387695 42.61352539 C-96.86394641 42.41843307 -93.25410579 42.22195831 -89.64440918 42.02258301 C-87.39512458 41.89857287 -85.14569772 41.77710856 -82.89611816 41.65856934 C-79.92043188 41.49572543 -76.94726343 41.31381833 -73.97387695 41.11352539 C-73.11390106 41.05625778 -72.25392517 40.99899017 -71.3678894 40.93998718 C-67.10104989 40.573847 -64.07106918 40.16096539 -60.60668945 37.44555664 C-59.87579102 36.88884277 -59.14489258 36.33212891 -58.3918457 35.75854492 C-57.63516602 35.15381348 -56.87848633 34.54908203 -56.09887695 33.92602539 C-54.43519914 32.64818065 -52.77112481 31.370852 -51.10668945 30.09399414 C-50.26138672 29.4357666 -49.41608398 28.77753906 -48.54516602 28.09936523 C-44.40915058 24.90506695 -40.19023705 21.8254958 -35.97387695 18.73852539 C-34.39672242 17.57882 -32.81988774 16.41867945 -31.2434082 15.25805664 C-30.14633545 14.45102295 -30.14633545 14.45102295 -29.02709961 13.62768555 C-27.19680309 12.27792347 -25.3714245 10.92189317 -23.5480957 9.56274414 C-22.59547852 8.85762695 -21.64286133 8.15250977 -20.66137695 7.42602539 C-19.49155273 6.55397461 -19.49155273 6.55397461 -18.2980957 5.66430664 C-12.34739932 1.693842 -7.11304162 -0.01876792 0 0 Z " fill="#FB7F86" transform="translate(298.973876953125,36.886474609375)"/>
<path d="M0 0 C2.91856282 2.06197433 5.70876645 4.26983021 8.5 6.5 C10.12476813 7.78154402 11.74976923 9.06279274 13.375 10.34375 C14.16777344 10.97152344 14.96054688 11.59929687 15.77734375 12.24609375 C18.66474878 14.52455571 21.57910266 16.76461938 24.5 19 C28.91743045 22.3898613 33.31661685 25.80192512 37.70751953 29.22607422 C45.41173511 35.23386082 53.15089637 41.18242907 61 47 C53.07162184 55.01486956 44.74347556 62.49367487 35.96875 69.56640625 C32.48667906 72.42078809 29.08364868 75.35687412 25.6875 78.3125 C24.73701782 79.13935303 24.73701782 79.13935303 23.76733398 79.98291016 C22.48134745 81.10193833 21.19545892 82.22107914 19.90966797 83.34033203 C12.76608759 89.54872623 5.60354128 95.72823972 -1.75 101.6875 C-6.12507747 105.23745321 -10.30549192 108.95563821 -14.46875 112.75 C-17.97799486 115.86932876 -21.63162123 118.79749133 -25.28125 121.75 C-28.76844136 124.63595147 -32.09758894 127.67700111 -35.44140625 130.7265625 C-39.07965124 133.9593237 -42.85779763 137.00813104 -46.65234375 140.0546875 C-48.96072797 141.89324251 -48.96072797 141.89324251 -50.69140625 143.7578125 C-52 145 -52 145 -54 145 C-54.08040527 144.10917725 -54.16081055 143.21835449 -54.24365234 142.30053711 C-54.55054571 138.91748649 -54.86031272 135.53472227 -55.171875 132.15209961 C-55.30481918 130.70265656 -55.4366972 129.25311523 -55.56738281 127.8034668 C-56.24649628 120.27836718 -57.00040572 112.8003049 -58.0859375 105.3203125 C-59.06978241 98.16546345 -59.3089078 91.15294988 -59.25 83.9375 C-59.24250732 82.71522705 -59.23501465 81.4929541 -59.22729492 80.23364258 C-58.94237216 56.40041089 -52.91024962 35.40052862 -35.98046875 17.9140625 C-28.6991627 11.0785507 -9.87493481 -5.4487229 0 0 Z " fill="#25A4FC" transform="translate(115,116)"/>
<path d="M0 0 C3.87559098 0.04754725 7.74845529 0.04105087 11.62426758 0.02783203 C14.09759123 0.03897651 16.57090338 0.05319055 19.04418945 0.07080078 C20.19737167 0.06897797 21.35055389 0.06715515 22.53868103 0.0652771 C28.7870475 0.1757004 32.69154784 0.44128179 37.4230957 4.67236328 C40.19782068 7.80511729 40.64543211 10.1096707 40.4230957 14.17236328 C39.73690317 18.70425023 38.10403843 20.84745375 34.4230957 23.67236328 C31.29795623 25.55044931 28.99619261 25.92255439 25.36669922 25.92773438 C24.36208145 25.9346933 23.35746368 25.94165222 22.32240295 25.94882202 C20.70355446 25.94732651 20.70355446 25.94732651 19.05200195 25.94580078 C16.76358558 25.96608675 14.47517415 25.98693747 12.18676758 26.00830078 C8.58117491 26.03092025 4.9757776 26.04737919 1.37011719 26.05322266 C-2.11127976 26.06273532 -5.59179769 26.09649594 -9.07299805 26.13330078 C-10.15020615 26.12825531 -11.22741425 26.12320984 -12.33726501 26.11801147 C-18.2961444 26.1735571 -18.2961444 26.1735571 -23.67089844 28.51855469 C-26.82575194 32.08357552 -27.81726874 34.06778948 -27.81518555 38.75830078 C-27.82767334 39.76570313 -27.84016113 40.77310547 -27.85302734 41.81103516 C-27.86503174 42.87902344 -27.87703613 43.94701172 -27.8894043 45.04736328 C-28.27279163 59.20643521 -31.06629835 70.4330117 -41.5378418 80.57080078 C-48.60671953 86.61890195 -56.70666983 89.5328433 -65.9519043 90.17236328 C-70.46821537 90.49133228 -73.10202233 91.62124741 -76.5769043 94.67236328 C-80.23438292 99.25677459 -80.00252645 103.53268262 -79.9831543 109.13720703 C-79.99399048 110.04813614 -80.00482666 110.95906525 -80.01599121 111.89759827 C-80.05018725 114.80175916 -80.06583099 117.70552774 -80.0769043 120.60986328 C-80.09150295 124.43185343 -80.12523961 128.25297245 -80.1706543 132.07470703 C-80.16763306 132.94675278 -80.16461182 133.81879852 -80.16149902 134.7172699 C-80.22361508 139.78112024 -80.77338481 143.2818576 -83.5769043 147.67236328 C-87.18104076 150.85248369 -90.70328442 151.24940061 -95.3581543 151.09423828 C-99.22461243 150.35906666 -100.9118838 148.53238528 -103.5769043 145.67236328 C-105.32131331 142.77586863 -105.83355997 140.62691472 -105.86743164 137.26196289 C-105.88019135 136.39683578 -105.89295105 135.53170868 -105.90609741 134.6403656 C-105.90832306 133.71119827 -105.91054871 132.78203094 -105.9128418 131.82470703 C-105.922827 130.3740963 -105.922827 130.3740963 -105.93301392 128.8941803 C-105.94313612 126.84573261 -105.94783107 124.79725197 -105.94750977 122.7487793 C-105.95185474 119.64526345 -105.98810075 116.54320305 -106.02612305 113.43994141 C-106.10629696 99.44842816 -105.00010498 87.74985919 -95.5769043 76.67236328 C-86.96554611 68.46720123 -78.08228618 65.35834912 -66.51635742 63.88623047 C-63.16026375 63.40526163 -60.89895005 62.92114494 -58.19018555 60.82861328 C-55.29717401 56.96192474 -54.3348786 54.23515054 -54.3034668 49.38330078 C-54.2828418 48.35849609 -54.2622168 47.33369141 -54.2409668 46.27783203 C-54.21520947 44.14770142 -54.1968121 42.01746732 -54.1862793 39.88720703 C-53.92298193 28.17047406 -49.97090548 19.37403126 -42.1394043 10.67236328 C-29.61817794 -0.91186066 -16.22135914 -0.21350712 0 0 Z " fill="#DBE9EE" transform="translate(412.576904296875,134.32763671875)"/>
<path d="M0 0 C1.55243375 2.32865063 2.66383201 4.36259426 3.8125 6.875 C7.57305387 14.45161408 14.09639653 19.21049289 22 22 C21.9104227 23.33439289 21.8022897 24.66753919 21.6875 26 C21.62949219 26.7425 21.57148438 27.485 21.51171875 28.25 C19.75390413 37.6965763 15.36466158 42.22574203 8.5 48.6875 C6.7768073 50.33259853 5.05788989 51.9821896 3.34375 53.63671875 C2.58255859 54.35561279 1.82136719 55.07450684 1.03710938 55.81518555 C-2.39783453 59.49918759 -4.43424626 62.72480438 -4.5 67.8125 C-4.22128318 75.65141061 -0.13549137 80.01537214 5.375 85.1875 C6.08398438 85.79980469 6.79296875 86.41210938 7.5234375 87.04296875 C9 89 9 89 8.88671875 91.28515625 C8.59410156 92.18105469 8.30148437 93.07695312 8 94 C7.62746094 95.16015625 7.25492187 96.3203125 6.87109375 97.515625 C5.50061795 101.21478752 4.0568837 104.62210047 2 108 C0 108.8515625 0 108.8515625 -2.0625 108.875 C-3.361875 108.91625 -4.66125 108.9575 -6 109 C-7.37872873 110.39541614 -7.37872873 110.39541614 -8.39453125 112.3515625 C-8.81758545 113.08391113 -9.24063965 113.81625977 -9.67651367 114.57080078 C-10.11326416 115.37243652 -10.55001465 116.17407227 -11 117 C-11.44384033 117.8132373 -11.88768066 118.62647461 -12.3449707 119.46435547 C-13.28492219 121.21071523 -14.21861418 122.96045539 -15.14672852 124.71313477 C-23.52121008 140.50086509 -33.02647857 154.72920099 -45 168 C-45.78761719 168.88300781 -46.57523438 169.76601563 -47.38671875 170.67578125 C-57.31647551 181.22922521 -69.17494311 188.67494805 -83 193 C-83.73734375 193.24363281 -84.4746875 193.48726562 -85.234375 193.73828125 C-90.47023438 195.27762391 -95.60371659 195.19904324 -101 195 C-97.72960145 192.33804769 -94.39380556 189.85117945 -90.9375 187.4375 C-79.37364286 179.00907795 -70.41916794 169.49640646 -62 158 C-61.25234375 156.99582031 -60.5046875 155.99164063 -59.734375 154.95703125 C-48.58812872 139.46054137 -39.73950281 122.40931147 -32 105 C-31.49025635 103.86062988 -31.49025635 103.86062988 -30.97021484 102.69824219 C-25.59904482 90.59962391 -21.13386464 78.24411167 -16.9140625 65.70263672 C-16.0829671 63.24531138 -15.23328897 60.79558562 -14.375 58.34765625 C-8.6177253 41.77681401 -4.11802401 24.8811169 -1.54296875 7.51953125 C-1.1455034 4.94315512 -0.7049422 2.50286817 0 0 Z " fill="#F92A39" transform="translate(292,278)"/>
<path d="M0 0 C6.48348614 2.4313073 9.47496154 8.17062732 12.9609375 13.8203125 C17.21857101 18.63258027 24.12427711 19.85071921 30.08276367 21.72436523 C49.90345217 27.99935248 70.30039275 35.86616856 85 51.125 C75.09922637 57.08346559 64.86708833 62.27476922 54.50439453 67.37963867 C53.43688965 67.90662354 52.36938477 68.4336084 51.26953125 68.9765625 C50.2223291 69.4912207 49.17512695 70.00587891 48.09619141 70.53613281 C44.14223061 72.56518004 40.33285952 74.81641087 36.54174805 77.13427734 C33.27424278 78.40788568 31.35829943 78.00078237 28 77.125 C16.07733519 71.69048302 16.07733519 71.69048302 13.99609375 66.734375 C13.80050456 65.23898424 13.64542603 63.73727784 13.54614258 62.23242188 C13.20629636 60.03318015 13.20629636 60.03318015 11.46191406 58.94042969 C10.79901367 58.64555664 10.13611328 58.35068359 9.453125 58.046875 C8.72569092 57.71913086 7.99825684 57.39138672 7.2487793 57.05371094 C3.87737591 55.66137368 0.5057251 54.33025173 -2.9375 53.125 C-4.01862061 52.74154419 -4.01862061 52.74154419 -5.12158203 52.3503418 C-11.16819987 50.27136731 -17.28433462 48.74765978 -23.55444336 47.50585938 C-29.94520382 46.17256288 -29.94520382 46.17256288 -32 43.125 C-32.3125 40.5625 -32.3125 40.5625 -32 38.125 C-30 36.125 -30 36.125 -27.46557617 35.88549805 C-26.41861572 35.88590088 -25.37165527 35.88630371 -24.29296875 35.88671875 C-23.14892578 35.87060547 -22.00488281 35.85449219 -20.82617188 35.83789062 C-18.41216253 35.82104569 -15.99804363 35.81572346 -13.58398438 35.82226562 C-6.61603947 35.95220829 -6.61603947 35.95220829 -0.61328125 32.95703125 C1.22740801 30.24708969 1.22740801 30.24708969 1.06640625 27.21875 C-0.59544794 22.39754662 -3.44159502 18.54162598 -6.28515625 14.34375 C-8.14556473 10.85177599 -8.53049093 9.0134438 -8 5.125 C-5.52055426 1.69753088 -4.3074999 0.17947916 0 0 Z " fill="#F82A39" transform="translate(74,20.875)"/>
<path d="M0 0 C4.19602484 1.64748539 7.03343049 4.7307012 10.16137695 7.85498047 C10.76828873 8.45356873 11.3752005 9.05215698 12.00050354 9.66888428 C14.00190077 11.64621363 15.99558119 13.63109596 17.98828125 15.6171875 C19.37493812 16.99487949 20.7616732 18.37249275 22.14848328 19.75003052 C25.05137042 22.63643659 27.9498422 25.52720022 30.84594727 28.42041016 C34.56465317 32.13371645 38.29926455 35.83057784 42.03799152 39.52371025 C44.90562629 42.3616722 47.76201091 45.21075245 50.61534691 48.06308365 C51.9880477 49.43156694 53.36488712 50.79591147 54.74584389 52.15606308 C56.67106524 54.05455907 58.57999528 55.96806924 60.4855957 57.88623047 C61.06265259 58.44845306 61.63970947 59.01067566 62.23425293 59.5899353 C63.79341125 61.17868042 63.79341125 61.17868042 66 64 C65.90161298 67.58726421 64.12742326 69.22873027 61.62109375 71.671875 C60.94755859 72.33574219 60.27402344 72.99960937 59.58007812 73.68359375 C58.87302734 74.36550781 58.16597656 75.04742187 57.4375 75.75 C56.37112305 76.79607422 56.37112305 76.79607422 55.28320312 77.86328125 C53.52869286 79.5824658 51.76756648 81.29425872 50 83 C45.74443702 81.34986235 42.90420204 78.17055778 39.76269531 74.98974609 C39.14763626 74.3749791 38.53257721 73.7602121 37.89888 73.1268158 C35.87051742 71.09706176 33.84932774 69.06031925 31.828125 67.0234375 C30.42180303 65.61338475 29.01503836 64.20377342 27.60784912 62.79458618 C23.90777382 59.08687958 20.21374433 55.37320576 16.52093506 51.65826416 C12.75065747 47.86751741 8.97470239 44.08243543 5.19921875 40.296875 C-2.2060936 32.87012159 -9.60503232 25.43705286 -17 18 C-16.0636169 16.89661782 -15.12563812 15.79458971 -14.18701172 14.69311523 C-13.66485077 14.07927475 -13.14268982 13.46543427 -12.60470581 12.83299255 C-10.23001076 10.12047147 -7.69567399 7.58776807 -5.125 5.0625 C-4.62742187 4.56943359 -4.12984375 4.07636719 -3.6171875 3.56835938 C-2.41379715 2.37654008 -1.20724635 1.18791322 0 0 Z " fill="#ECF3F4" transform="translate(342,352)"/>
<path d="M0 0 C6.1241816 5.06500238 11.70715861 10.5782921 17.30859375 16.2109375 C18.28485986 17.18907267 19.26134994 18.16698435 20.23805237 19.14468384 C22.78672577 21.69714399 25.33237958 24.25259448 27.87738037 26.80871582 C30.48346618 29.42509914 33.09244621 32.03859303 35.70117188 34.65234375 C40.80359118 39.76543246 45.90281857 44.88168912 51 50 C49.51136264 53.11966041 47.99711308 55.24012613 45.5234375 57.671875 C44.853125 58.33574219 44.1828125 58.99960937 43.4921875 59.68359375 C42.79351562 60.36550781 42.09484375 61.04742187 41.375 61.75 C40.66859375 62.44738281 39.9621875 63.14476562 39.234375 63.86328125 C37.49400848 65.5801293 35.74829728 67.29123998 34 69 C27.8758184 63.93499762 22.29284139 58.4217079 16.69140625 52.7890625 C15.71514014 51.81092733 14.73865006 50.83301565 13.76194763 49.85531616 C11.21327423 47.30285601 8.66762042 44.74740552 6.12261963 42.19128418 C3.51653382 39.57490086 0.90755379 36.96140697 -1.70117188 34.34765625 C-6.80359118 29.23456754 -11.90281857 24.11831088 -17 19 C-15.51136264 15.88033959 -13.99711308 13.75987387 -11.5234375 11.328125 C-10.51796875 10.33232422 -10.51796875 10.33232422 -9.4921875 9.31640625 C-8.79351562 8.63449219 -8.09484375 7.95257813 -7.375 7.25 C-6.66859375 6.55261719 -5.9621875 5.85523438 -5.234375 5.13671875 C-3.49400848 3.4198707 -1.74829728 1.70876002 0 0 Z " fill="#D4A75C" transform="translate(419,428)"/>
<path d="M0 0 C8.91899811 3.51354471 17.46040014 7.57802846 25.97851562 11.96044922 C27.29557932 12.63775082 28.61450892 13.31144007 29.93554688 13.98095703 C37.33747748 17.73730314 44.47986797 21.77998623 51.4375 26.3125 C52.09500244 26.73321777 52.75250488 27.15393555 53.42993164 27.58740234 C55.24609375 28.80078125 55.24609375 28.80078125 58 31 C58 31.99 58 32.98 58 34 C54.56056271 35.89073617 51.110167 37.75950956 47.6484375 39.60913086 C45.89752622 40.5503903 44.15570694 41.50849928 42.4140625 42.46679688 C41.30546875 43.05654297 40.196875 43.64628906 39.0546875 44.25390625 C38.03874512 44.80377197 37.02280273 45.3536377 35.97607422 45.92016602 C31.23603731 47.64003339 28.10946508 46.50570966 23.640625 44.46875 C14.48368883 39.15181932 14.48368883 39.15181932 12.99609375 35.609375 C12.80050456 34.11398424 12.64542603 32.61227784 12.54614258 31.10742188 C12.20629636 28.90818015 12.20629636 28.90818015 10.46191406 27.81542969 C9.79901367 27.52055664 9.13611328 27.22568359 8.453125 26.921875 C7.72569092 26.59413086 6.99825684 26.26638672 6.2487793 25.92871094 C2.87737591 24.53637368 -0.4942749 23.20525173 -3.9375 22 C-5.01862061 21.61654419 -5.01862061 21.61654419 -6.12158203 21.2253418 C-12.16819987 19.14636731 -18.28433462 17.62265978 -24.55444336 16.38085938 C-30.94520382 15.04756288 -30.94520382 15.04756288 -33 12 C-33.3125 9.4375 -33.3125 9.4375 -33 7 C-30.33449935 4.33449935 -29.01197491 4.74774037 -25.29296875 4.7265625 C-24.14892578 4.7059375 -23.00488281 4.6853125 -21.82617188 4.6640625 C-19.41217965 4.63814739 -16.99809301 4.61984268 -14.58398438 4.609375 C-12.86211914 4.57457031 -12.86211914 4.57457031 -11.10546875 4.5390625 C-10.05512451 4.53084473 -9.00478027 4.52262695 -7.92260742 4.51416016 C-4.34110775 3.88408428 -2.63293172 2.44388983 0 0 Z " fill="#FB4654" transform="translate(75,52)"/>
<path d="M0 0 C43.89 0 87.78 0 133 0 C132.67 8.25 132.34 16.5 132 25 C124.30152008 26.39972362 117.74411785 27.28058314 110.08203125 27.1953125 C109.09877365 27.1924826 108.11551605 27.18965271 107.10246277 27.18673706 C104.00567714 27.17566891 100.9091961 27.15059053 97.8125 27.125 C95.69466568 27.11495289 93.57682676 27.10583009 91.45898438 27.09765625 C86.30587477 27.07577359 81.15298876 27.04133839 76 27 C75.73060104 26.32457657 75.46120209 25.64915314 75.18363953 24.95326233 C74.64934074 23.61526833 74.64934074 23.61526833 74.10424805 22.25024414 C73.75234909 21.36857071 73.40045013 20.48689728 73.03788757 19.57850647 C71.66984014 16.17975767 70.25128032 12.80698296 68.8125 9.4375 C68.30332031 8.23996094 67.79414063 7.04242188 67.26953125 5.80859375 C66.26615588 3.14846026 66.26615588 3.14846026 65 2 C62.97585009 1.87624831 60.94742263 1.82202689 58.91967773 1.79467773 C57.61840439 1.77473251 56.31713104 1.75478729 54.97642517 1.73423767 C53.5454826 1.71725201 52.11453875 1.70037325 50.68359375 1.68359375 C49.2277008 1.66303094 47.77181391 1.64203466 46.31593323 1.62062073 C42.47727353 1.56533039 38.63855935 1.51595198 34.79980469 1.46777344 C30.88536712 1.41760909 26.97100904 1.36189664 23.05664062 1.30664062 C15.37116099 1.19897397 7.68561543 1.09754807 0 1 C0 0.67 0 0.34 0 0 Z " fill="#F62B39" transform="translate(212,159)"/>
<path d="M0 0 C1.175625 0.01353516 1.175625 0.01353516 2.375 0.02734375 C4.29180055 0.05071937 6.20844191 0.08658347 8.125 0.125 C0.86949138 7.44338131 -6.8353108 13.99738036 -15.00170898 20.26806641 C-21.19043628 24.56213085 -21.19043628 24.56213085 -24.46484375 30.953125 C-23.64073896 35.38473486 -21.44849462 37.6328419 -18.4375 40.875 C-17.617052 41.79406128 -17.617052 41.79406128 -16.7800293 42.73168945 C-15.15875833 44.54249962 -13.51947593 46.33527229 -11.875 48.125 C-10.31147304 49.85323814 -8.74884289 51.58228846 -7.1875 53.3125 C-6.48109375 54.09109375 -5.7746875 54.8696875 -5.046875 55.671875 C-0.39650356 60.92445282 4.23066903 66.28350355 8.125 72.125 C-13.9830874 74.20037708 -13.9830874 74.20037708 -19.6015625 69.83984375 C-22.01827869 67.40631919 -23.94785579 64.67593941 -25.78662109 61.78857422 C-27.5183166 59.14169823 -29.58477549 56.78740477 -31.625 54.375 C-32.34300781 53.48167969 -33.06101563 52.58835938 -33.80078125 51.66796875 C-36.26215546 48.65035179 -38.83867461 45.7534129 -41.46484375 42.87890625 C-44.04135703 39.67432325 -45.18821146 36.92864389 -45.3125 32.8125 C-45.35246094 32.09449219 -45.39242187 31.37648438 -45.43359375 30.63671875 C-43.95069384 23.96885413 -38.49503141 19.5973402 -33.25 15.6875 C-32.33347656 14.98862671 -32.33347656 14.98862671 -31.3984375 14.27563477 C-30.15705116 13.33279537 -28.91196604 12.39480455 -27.66308594 11.46191406 C-26.00792994 10.22438891 -24.36659737 8.96843322 -22.7265625 7.7109375 C-15.05765674 1.9329948 -9.55552252 -0.21054541 0 0 Z " fill="#FC636E" transform="translate(280.875,71.875)"/>
<path d="M0 0 C6.93 0 13.86 0 21 0 C21 19.14 21 38.28 21 58 C13 59 13 59 0 59 C0 39.53 0 20.06 0 0 Z " fill="#24A0F5" transform="translate(179,7)"/>
<path d="M0 0 C4.19602484 1.64748539 7.03343049 4.7307012 10.16137695 7.85498047 C10.76828873 8.45356873 11.3752005 9.05215698 12.00050354 9.66888428 C14.00190077 11.64621363 15.99558119 13.63109596 17.98828125 15.6171875 C19.37493812 16.99487949 20.7616732 18.37249275 22.14848328 19.75003052 C25.05137042 22.63643659 27.9498422 25.52720022 30.84594727 28.42041016 C34.56465317 32.13371645 38.29926455 35.83057784 42.03799152 39.52371025 C44.90562629 42.3616722 47.76201091 45.21075245 50.61534691 48.06308365 C51.9880477 49.43156694 53.36488712 50.79591147 54.74584389 52.15606308 C56.67106524 54.05455907 58.57999528 55.96806924 60.4855957 57.88623047 C61.06265259 58.44845306 61.63970947 59.01067566 62.23425293 59.5899353 C63.79341125 61.17868042 63.79341125 61.17868042 66 64 C65 68 65 68 58 74 C36.55 52.55 15.1 31.1 -7 9 C-5.04783565 5.09567131 -3.12613393 2.96160056 0 0 Z " fill="#DAE8ED" transform="translate(342,352)"/>
<path d="M0 0 C11.55 0 23.1 0 35 0 C35 8.91 35 17.82 35 27 C23.45 27 11.9 27 0 27 C0 18.09 0 9.18 0 0 Z " fill="#FD646F" transform="translate(307,37)"/>
<path d="M0 0 C3.12441895 1.39345045 5.30675139 3.02929779 7.75878906 5.40478516 C8.47923401 6.09955963 9.19967896 6.79433411 9.94195557 7.51016235 C11.09217194 8.63821793 11.09217194 8.63821793 12.265625 9.7890625 C13.05902283 10.56631683 13.85242065 11.34357117 14.66986084 12.14437866 C16.34376802 13.79064776 18.01461621 15.44003216 19.68261719 17.09228516 C22.23727566 19.61244748 24.8173015 22.10465901 27.3984375 24.59765625 C29.02248474 26.20145447 30.64493537 27.80687138 32.265625 29.4140625 C33.04053284 30.15395416 33.81544067 30.89384583 34.61383057 31.65615845 C40.46674698 37.5574564 40.46674698 37.5574564 40.63964844 42.34912109 C39.86801097 46.75334502 38.441005 48.247196 35 51 C31.68386118 49.55419034 29.50814272 47.75170208 26.96582031 45.19287109 C26.18531311 44.41221283 25.40480591 43.63155457 24.60064697 42.82723999 C23.76821472 41.98448517 22.93578247 41.14173035 22.078125 40.2734375 C21.21813904 39.41062164 20.35815308 38.54780579 19.47210693 37.65884399 C16.7266769 34.90221971 13.9882831 32.13872201 11.25 29.375 C9.38978217 27.50475143 7.52911054 25.63495411 5.66796875 23.765625 C1.10670055 19.1823064 -3.44881011 14.59332522 -8 10 C-5.95933017 5.73384496 -3.41446998 3.26601476 0 0 Z " fill="#E8B564" transform="translate(410,437)"/>
<path d="M0 0 C2.87602455 -0.10852923 5.74790832 -0.1875515 8.625 -0.25 C9.43324219 -0.28351563 10.24148438 -0.31703125 11.07421875 -0.3515625 C16.57981592 -0.44108441 19.62530931 0.33981965 24 4 C26.77472498 7.13275401 27.22233641 9.43730742 27 13.5 C26.31380747 18.03188695 24.68094273 20.17509047 21 23 C17.95564872 24.81481573 15.76167235 25.2460305 12.23144531 25.22705078 C11.29077209 25.22689972 10.35009888 25.22674866 9.38092041 25.22659302 C7.86978668 25.21110916 7.86978668 25.21110916 6.328125 25.1953125 C5.29057068 25.1924826 4.25301636 25.18965271 3.184021 25.18673706 C-0.12743701 25.17554865 -3.43862384 25.15044627 -6.75 25.125 C-8.99608984 25.11496848 -11.24218393 25.10584293 -13.48828125 25.09765625 C-18.99227991 25.0756137 -24.49612058 25.04214932 -30 25 C-30 24.67 -30 24.34 -30 24 C-19.77 24 -9.54 24 1 24 C2.84519817 17.66034645 2.84519817 17.66034645 3.3125 11.4375 C3.32925781 10.54933594 3.34601563 9.66117188 3.36328125 8.74609375 C2.91799181 5.38008866 1.64099452 2.94859438 0 0 Z " fill="#A5CDD2" transform="translate(426,135)"/>
<path d="M0 0 C3.68069887 1.53643852 5.98775204 3.78150945 8.75 6.625 C9.54921875 7.44226563 10.3484375 8.25953125 11.171875 9.1015625 C11.77515625 9.72804688 12.3784375 10.35453125 13 11 C10.90308431 15.64080887 7.67171494 18.73327953 4.125 22.3125 C3.18720703 23.29959961 3.18720703 23.29959961 2.23046875 24.30664062 C1.62074219 24.92345703 1.01101563 25.54027344 0.3828125 26.17578125 C-0.17003418 26.74208252 -0.72288086 27.30838379 -1.29248047 27.8918457 C-3 29 -3 29 -5.05029297 28.81933594 C-8.10813503 27.53432242 -9.96843434 25.30912746 -12.25 22.9375 C-13.14203125 22.01839844 -14.0340625 21.09929687 -14.953125 20.15234375 C-15.62859375 19.44207031 -16.3040625 18.73179687 -17 18 C-11.72898586 11.58930713 -5.90871848 5.81409488 0 0 Z " fill="#F87D84" transform="translate(319,329)"/>
<path d="M0 0 C3.68069887 1.53643852 5.98775204 3.78150945 8.75 6.625 C9.54921875 7.44226563 10.3484375 8.25953125 11.171875 9.1015625 C11.77515625 9.72804688 12.3784375 10.35453125 13 11 C11.61811547 14.21043882 10.07578097 16.04936365 7.375 18.25 C6.74335938 18.77078125 6.11171875 19.2915625 5.4609375 19.828125 C4.97882813 20.21484375 4.49671875 20.6015625 4 21 C3.54109375 20.46890625 3.0821875 19.9378125 2.609375 19.390625 C-0.49493717 15.81675301 -3.58181312 12.28145941 -7 9 C-5.44499019 5.18315774 -2.96404505 2.80804268 0 0 Z " fill="#F6616B" transform="translate(319,329)"/>
<path d="M0 0 C18.81 0 37.62 0 57 0 C55.47684695 3.0463061 54.00371751 5.50364647 52.0625 8.25 C49.26743287 12.37084469 47.5454534 16.27778127 46 21 C45.67 21 45.34 21 45 21 C44.01 11.1 44.01 11.1 43 1 C28.81 1 14.62 1 0 1 C0 0.67 0 0.34 0 0 Z " fill="#DF2B38" transform="translate(249,201)"/>
</svg>
