<?xml version="1.0" encoding="UTF-8"?>
<svg version="1.1" xmlns="http://www.w3.org/2000/svg" width="512" height="512">
<path d="M0 0 C2.00711444 -0.00571257 4.01422563 -0.01268023 6.02133179 -0.02079773 C11.4387991 -0.03864659 16.85610371 -0.03757634 22.27359152 -0.03185534 C26.81105103 -0.02875138 31.34847983 -0.03486935 35.88593495 -0.04089409 C46.59781106 -0.05491066 57.30960738 -0.05340204 68.02148438 -0.04199219 C79.03976722 -0.03051467 90.05780655 -0.04458718 101.07605731 -0.07138866 C110.56693852 -0.09360295 120.05774361 -0.10017013 129.54864895 -0.09431225 C135.20352142 -0.09095507 140.85823785 -0.09327496 146.51308823 -0.11056328 C151.83370027 -0.12612182 157.15395381 -0.12197865 162.47455215 -0.10325813 C164.41623114 -0.09959676 166.35793722 -0.10260827 168.29959106 -0.11314392 C189.89797492 -0.22130436 208.40986725 4.4812789 224.85205078 19.40405273 C225.69509766 20.15428711 226.53814453 20.90452148 227.40673828 21.67749023 C241.75419633 35.15276238 249.63316323 53.4216137 251.12022972 72.9204998 C251.21600377 76.45054918 251.2241447 79.96833218 251.19262695 83.49951172 C251.19306503 84.81843414 251.19350311 86.13735657 251.19395447 87.49624634 C251.19480346 91.05942209 251.17735907 94.62228521 251.1562326 98.18538928 C251.13727953 101.92891968 251.13570087 105.6724599 251.13215637 109.41603088 C251.12288994 116.48108478 251.09835066 123.54599681 251.0681079 130.61098868 C251.03439402 138.66436753 251.0180355 146.71775372 251.0030216 154.77118576 C250.97179521 171.31555734 250.91914179 187.85978684 250.85205078 204.40405273 C251.47908401 204.39517029 252.10611725 204.38628784 252.75215149 204.37713623 C259.32287409 204.28812329 265.8934233 204.22809608 272.46459961 204.18432617 C274.91161058 204.16430444 277.35857427 204.13707875 279.80541992 204.10229492 C283.33800985 204.0533611 286.86996307 204.03098857 290.40283203 204.01342773 C291.48349442 203.99278259 292.5641568 203.97213745 293.67756653 203.9508667 C305.05734016 203.94756162 314.70130844 207.31890993 322.85205078 215.40405273 C330.04537886 224.49684153 330.7533473 234.23242672 329.85205078 245.40405273 C328.25055832 251.6022614 324.56106905 256.30158126 320.85205078 261.40405273 C321.42012451 261.65985107 321.98819824 261.91564941 322.57348633 262.17919922 C357.27969204 277.92731985 382.88963468 301.43684427 397.35205078 337.10327148 C409.28880379 369.39645151 408.9749616 405.15426664 394.64135742 436.69287109 C379.14908851 469.45277927 353.02349052 493.94690581 318.85205078 506.40405273 C304.73005793 510.81990808 291.09532726 512.82038461 276.28955078 512.77905273 C275.58750519 512.77884125 274.88545959 512.77862976 274.16213989 512.77841187 C262.6427054 512.743875 251.92466208 511.68452245 240.85205078 508.40405273 C239.59521484 508.0650293 238.33837891 507.72600586 237.04345703 507.37670898 C217.4733134 501.55743876 200.582637 490.31893874 185.85205078 476.40405273 C185.10181641 475.71827148 184.35158203 475.03249023 183.57861328 474.32592773 C167.09951706 458.71415237 154.22805766 435.70633341 149.85205078 413.40405273 C149.85205078 412.08405273 149.85205078 410.76405273 149.85205078 409.40405273 C149.01035811 409.40681811 148.16866545 409.40958349 147.30146694 409.41243267 C126.76703217 409.47885108 106.23261607 409.52841021 85.69809628 409.55948925 C75.76752284 409.57492052 65.83702137 409.59593806 55.90649414 409.63037109 C47.24527849 409.66038846 38.58411499 409.67965488 29.92284876 409.68631822 C25.34200839 409.69020968 20.76131713 409.6992761 16.18052483 409.7212429 C11.85739695 409.74180358 7.53447775 409.74784755 3.21130562 409.74337578 C1.63567592 409.74419232 0.06003829 409.75004024 -1.51554871 409.76166916 C-24.96265196 409.92604498 -46.26441836 403.61477758 -63.61669922 387.06030273 C-79.98504586 369.88364268 -86.30870053 348.60413893 -86.28839111 325.41369629 C-86.29136224 324.33994326 -86.29433336 323.26619023 -86.29739451 322.15989923 C-86.30603271 318.57916634 -86.30758562 314.99846708 -86.30908203 311.41772461 C-86.3137137 308.84302703 -86.31873882 306.26833014 -86.3241272 303.69363403 C-86.33766152 296.70977891 -86.34372768 289.72592957 -86.34813786 282.74206352 C-86.35090882 278.37339533 -86.35514771 274.00472933 -86.35964203 269.63606262 C-86.37182872 257.51794321 -86.38212894 245.39982554 -86.38551712 233.28170013 C-86.38573669 232.50734341 -86.38595625 231.73298668 -86.38618247 230.9351646 C-86.38640075 230.15905404 -86.38661903 229.38294348 -86.38684392 228.58331442 C-86.38728737 227.01086521 -86.38773393 225.438416 -86.38818359 223.8659668 C-86.38840502 223.08599329 -86.38862645 222.30601978 -86.38885459 221.50241071 C-86.39279823 208.87884806 -86.41024169 196.25534329 -86.43354312 183.63180298 C-86.45732528 170.64194113 -86.4697221 157.65210824 -86.47088504 144.66222429 C-86.471798 137.3808174 -86.47745393 130.09948594 -86.49570465 122.81809998 C-86.51282809 115.96276483 -86.51430727 109.10757433 -86.50556564 102.25222397 C-86.50479895 99.74698885 -86.50908905 97.24174584 -86.5190239 94.7365303 C-86.6228539 66.90481506 -83.28151153 43.08417014 -63.08935547 22.25952148 C-45.03159132 4.35747935 -24.4934021 -0.06332817 0 0 Z " fill="#010101" transform="translate(96.14794921875,-0.404052734375)"/>
<path d="M0 0 C1.93607872 -0.01713043 1.93607872 -0.01713043 3.91127014 -0.03460693 C5.34526023 -0.03709781 6.77925076 -0.03934797 8.21324158 -0.04138184 C9.72140997 -0.05063983 11.22957368 -0.06068938 12.73773193 -0.07147217 C16.84193597 -0.09773548 20.94607451 -0.11061655 25.05034947 -0.11949348 C27.62095148 -0.12536118 30.19153576 -0.13357265 32.76212883 -0.14250183 C40.82245235 -0.16987485 48.88273516 -0.18918871 56.94310194 -0.19690561 C66.21230349 -0.20583012 75.48090972 -0.24074298 84.74993044 -0.2989068 C91.93239038 -0.34239128 99.11468458 -0.36232791 106.29727453 -0.36498785 C110.57707863 -0.36706901 114.85632415 -0.37855552 119.13598824 -0.41462708 C143.82482642 -0.61085392 165.11106985 0.07666487 184.08799744 18.03088379 C193.8308355 28.25237158 201.90613113 41.87485741 201.99862671 56.29548645 C202.00867233 57.52774963 202.01871796 58.76001282 202.02906799 60.02961731 C202.03509756 61.39242493 202.0409826 62.75523319 202.04673767 64.11804199 C202.0562801 65.55553412 202.06617144 66.99302396 202.0763855 68.43051147 C202.10771924 73.1475351 202.12802837 77.8645761 202.14659119 82.58166504 C202.14988851 83.38481006 202.15318583 84.18795509 202.15658307 85.01543784 C202.18735616 92.59227043 202.21405699 100.1691071 202.23100185 107.74598408 C202.25291453 117.42955983 202.2949113 127.11258163 202.36443943 136.79593593 C202.4116992 143.60965459 202.4359378 150.42322385 202.44319874 157.23710126 C202.44815106 161.30474668 202.46319142 165.37176704 202.50294304 169.43923378 C202.53985979 173.26686496 202.54820342 177.09351536 202.5349369 180.92129135 C202.53499077 182.32293183 202.54525259 183.72461636 202.56668854 185.12609291 C202.73885733 197.0219781 202.73885733 197.0219781 198.88354492 201.52445984 C197.87869564 202.45455743 196.86499621 203.37530269 195.83799744 204.28088379 C194.41860248 206.4966899 194.41860248 206.4966899 193.52549744 208.53088379 C193.21998962 209.17541504 192.91448181 209.81994629 192.59971619 210.48400879 C189.54878047 217.68108793 189.70660629 226.24531881 192.46299744 233.53088379 C194.7200995 238.48351781 197.69387414 242.85052823 200.83799744 247.28088379 C195.88799744 249.26088379 190.93799744 251.24088379 185.83799744 253.28088379 C185.82381775 250.8329541 185.80963806 248.38502441 185.79502869 245.86291504 C185.76426376 243.44652311 185.72521339 241.03039379 185.68540955 238.61413574 C185.6624585 236.95700621 185.64788857 235.29973556 185.6424408 233.64245605 C185.58636665 219.37805496 183.77996154 207.67750012 174.07237244 196.43713379 C170.39160949 192.88506885 166.43874412 190.47274895 161.83799744 188.28088379 C161.14190369 187.94186035 160.44580994 187.60283691 159.72862244 187.25354004 C151.137363 183.74921053 140.69449997 183.99828746 131.96299744 186.84338379 C122.10512572 191.00331777 114.00301176 198.44011158 109.20542908 207.99353027 C105.15176014 218.04202046 106.14163607 229.03420106 106.20909119 239.69104004 C106.20826124 242.06892505 106.20579713 244.44681 106.20178223 246.82469177 C106.19893407 251.79146739 106.21353105 256.75778961 106.24107361 261.7244873 C106.27517243 268.06819171 106.26912208 274.41108708 106.25041103 280.75483036 C106.23980785 285.65956787 106.2488088 290.5641194 106.26379585 295.46883965 C106.26895247 297.80704635 106.26852673 300.14527267 106.2622509 302.48347664 C106.25675786 305.7588953 106.27730479 309.03318225 106.30455017 312.30847168 C106.29802429 313.25995087 106.29149841 314.21143005 106.28477478 315.19174194 C106.40650356 323.86387008 108.41988907 331.68880316 114.15049744 338.34338379 C116.81904048 341.65581455 116.81904048 341.65581455 116.901474 344.37390137 C116.78255798 345.13340088 116.66364197 345.89290039 116.54112244 346.67541504 C115.69822307 353.07733848 115.49479508 359.45637601 115.27549744 365.90588379 C115.21072205 367.6983252 115.21072205 367.6983252 115.14463806 369.52697754 C115.03959437 372.44485785 114.93744095 375.36280817 114.83799744 378.28088379 C99.12132966 378.46823779 83.40496614 378.60906811 67.68745708 378.69538116 C60.38854198 378.73653357 53.09032297 378.79257985 45.79185486 378.88439941 C39.4262287 378.96444464 33.0611069 379.0158213 26.69499141 379.03359175 C23.3276688 379.04397099 19.9617883 379.06814479 16.59493065 379.12672424 C12.82442826 379.18509863 9.05687952 379.19278397 5.28599548 379.18908691 C4.18475342 379.21784912 3.08351135 379.24661133 1.94889832 379.27624512 C-6.80590274 379.18381534 -11.63511087 375.88796522 -18.16200256 370.28088379 C-19.43049239 369.27791275 -20.70075777 368.27717268 -21.97450256 367.28088379 C-24.5701693 365.0845504 -25.97044352 362.89868454 -27.66200256 359.96838379 C-29.04214398 357.80609567 -29.04214398 357.80609567 -31.16200256 356.28088379 C-34.89718024 355.65096071 -38.48586591 355.5900694 -42.27137756 355.52697754 C-52.79362565 354.86141365 -61.70107271 348.92883179 -68.87294006 341.51135254 C-75.96886175 332.95662462 -79.03185642 322.64036542 -78.57997131 311.63635254 C-77.13503201 300.03632579 -71.21167144 290.1447727 -62.22840881 282.78088379 C-56.24728859 278.43920106 -50.38045808 276.6343442 -43.16200256 275.28088379 C-43.16200256 271.65088379 -43.16200256 268.02088379 -43.16200256 264.28088379 C-44.11075256 264.21900879 -45.05950256 264.15713379 -46.03700256 264.09338379 C-55.62302782 262.6468005 -63.99817814 256.51667767 -70.16200256 249.28088379 C-77.16961126 238.36841416 -80.29893031 227.20601206 -77.51356506 214.26916504 C-73.66158027 202.72967214 -66.50531226 193.8041988 -55.79872131 187.99963379 C-51.40802183 185.93342227 -48.10283768 185.10435631 -43.16200256 184.28088379 C-43.16200256 175.37088379 -43.16200256 166.46088379 -43.16200256 157.28088379 C-39.7387561 157.27541534 -39.7387561 157.27541534 -36.24635315 157.26983643 C-14.70681326 157.23353774 6.8325881 157.17526359 28.37201691 157.09698105 C39.44482652 157.05726167 50.51756579 157.02483319 61.59043884 157.0098877 C71.24753506 156.99683428 80.90447605 156.96977589 90.56148481 156.92627072 C95.6693924 156.90373866 100.77710911 156.88796813 105.8850708 156.88899994 C110.70489289 156.88975146 115.52429437 156.87160528 120.34400749 156.83971596 C122.10140498 156.83128244 123.85885001 156.8294218 125.61625862 156.8350811 C139.93424449 156.87500341 154.74705712 155.82749441 166.83799744 147.28088379 C167.447724 146.86322754 168.05745056 146.44557129 168.68565369 146.01525879 C177.91307956 138.957799 183.25797774 127.57377167 184.83799744 116.28088379 C184.93896905 114.25242744 184.99566704 112.2214276 185.01499939 110.19055176 C185.02783463 109.00847137 185.04066986 107.82639099 185.05389404 106.60848999 C185.06128098 105.34280182 185.06866791 104.07711365 185.07627869 102.77307129 C185.08435043 101.45606232 185.09242218 100.13905334 185.10073853 98.78213501 C185.11571539 95.99656305 185.12557593 93.21101607 185.13316345 90.42541504 C185.14418787 86.88859834 185.17856147 83.35241767 185.21833515 79.81582451 C185.24471557 77.06683331 185.25287421 74.31798857 185.25644493 71.56888199 C185.26357194 69.64148165 185.28991616 67.71418234 185.3168335 65.78695679 C185.28723474 53.63618544 182.24563726 43.92933466 174.83799744 34.28088379 C174.21924744 33.44557129 173.60049744 32.61025879 172.96299744 31.74963379 C170.75400658 29.18330618 168.68188022 27.54236218 165.83799744 25.71838379 C164.99237244 25.16021973 164.14674744 24.60205566 163.27549744 24.02697754 C153.78654875 19.20702292 145.06462102 17.69238568 134.49790955 17.7791748 C133.22325836 17.77377182 131.94860718 17.76836884 130.6353302 17.76280212 C127.17915999 17.74898696 123.72349524 17.75991158 120.26735377 17.77651334 C116.63729867 17.79047463 113.00726961 17.78389228 109.37719727 17.78038025 C103.29414307 17.7776899 97.21128756 17.79106245 91.12828064 17.81433105 C84.09682636 17.84104143 77.06570173 17.84264955 70.03421396 17.83094269 C63.25316969 17.82017281 56.47224458 17.82633875 49.69120979 17.84049797 C46.81046797 17.84625386 43.92981346 17.84617854 41.04907036 17.84143257 C37.03704145 17.83578323 33.02550769 17.8549583 29.01353455 17.87683105 C27.81822617 17.87232941 26.62291779 17.86782776 25.39138794 17.8631897 C23.75783356 17.87804665 23.75783356 17.87804665 22.09127808 17.89320374 C21.14359023 17.89563363 20.19590239 17.89806353 19.21949673 17.90056705 C16.79090497 18.09988565 16.79090497 18.09988565 15.03701115 19.62152004 C13.14296439 22.24276824 13.39008159 24.14547286 13.83799744 27.28088379 C15.86483939 29.86456996 17.06162442 31.12551628 20.31968975 31.77751923 C21.25560357 31.77601112 22.19151739 31.77450302 23.15579224 31.77294922 C24.77266937 31.78514748 24.77266937 31.78514748 26.42221069 31.79759216 C27.59993546 31.78627762 28.77766022 31.77496307 29.99107361 31.76330566 C31.85758072 31.76917442 31.85758072 31.76917442 33.76179504 31.77516174 C36.46697815 31.78114535 39.17105329 31.77994925 41.87610435 31.76673889 C46.15945757 31.74637919 50.44241201 31.75639081 54.72576904 31.77099609 C64.5976473 31.80002447 74.46940842 31.78932265 84.34130859 31.77829742 C93.37716426 31.76860825 102.41281086 31.76743551 111.44863111 31.7981782 C115.6997088 31.81150119 119.95018529 31.80566339 124.20122659 31.78481293 C127.48016526 31.77365588 130.75901759 31.78822423 134.03794861 31.79846191 C135.20555222 31.78714737 136.37315582 31.77583282 137.57614136 31.76417542 C147.61445838 31.83893002 154.69814058 34.506077 162.04893494 41.35900879 C170.38504734 50.31395923 171.1521018 59.51709115 171.17393494 71.30041504 C171.18392014 73.18103889 171.18392014 73.18103889 171.19410706 75.09965515 C171.20421094 77.74655408 171.20979273 80.39304192 171.20860291 83.03991699 C171.20844034 85.73712982 171.22233328 88.43366365 171.24961853 91.1307373 C171.28641721 95.04167208 171.29608261 98.95182396 171.29893494 102.86291504 C171.31330597 104.058022 171.327677 105.25312897 171.34248352 106.48445129 C171.28876211 116.41856071 168.95760923 125.94606963 161.83799744 133.28088379 C154.7918024 138.8382653 148.86704368 141.58434466 139.82513428 141.55503845 C139.023458 141.56027513 138.22178172 141.56551181 137.39581221 141.57090718 C134.71218336 141.58589684 132.02874535 141.5866121 129.34507751 141.58728027 C127.4196999 141.59490256 125.49432532 141.60333018 123.56895447 141.61250305 C118.33940117 141.63445074 113.10990635 141.64324758 107.8803122 141.6483295 C104.61124812 141.65197339 101.34219935 141.6582137 98.0731411 141.66533089 C86.66296593 141.68982838 75.25283623 141.70287749 63.84263611 141.7064209 C53.21633242 141.71005419 42.59031791 141.73993415 31.96410257 141.78182548 C22.8343993 141.81655194 13.70479173 141.83196977 4.57502288 141.83266693 C-0.87474953 141.83345908 -6.32422749 141.84216888 -11.7739315 141.8706646 C-16.90322414 141.8968847 -22.03197909 141.89902826 -27.16130829 141.88300896 C-29.03897845 141.88119749 -30.9166798 141.88785776 -32.79428291 141.90382767 C-44.83792943 141.99998018 -53.54602553 141.3523171 -62.97450256 133.09338379 C-69.37740919 126.17582273 -72.24261951 118.05408925 -72.33900452 108.74719238 C-72.35825737 107.11927261 -72.35825737 107.11927261 -72.37789917 105.45846558 C-72.3852861 104.29384796 -72.39267303 103.12923035 -72.40028381 101.92932129 C-72.41239143 100.11459824 -72.41239143 100.11459824 -72.42474365 98.26321411 C-72.43856344 95.702875 -72.44929498 93.14251762 -72.45716858 90.58215332 C-72.46867739 87.97532722 -72.48911147 85.36852449 -72.51869202 82.76184082 C-72.56154933 78.98417227 -72.57756452 75.20720337 -72.58778381 71.42932129 C-72.61404594 69.70061295 -72.61404594 69.70061295 -72.64083862 67.9369812 C-72.61004879 56.31602023 -69.63294721 47.78110228 -61.54090881 39.38244629 C-54.55080389 33.20727971 -47.40329527 32.15029493 -38.38075256 32.06994629 C-36.63464925 32.04188938 -34.88855561 32.013225 -33.14247131 31.98400879 C-30.39719292 31.94268942 -27.65209754 31.905789 -24.90663147 31.8795166 C-22.25179625 31.85192648 -19.59777464 31.80607208 -16.94325256 31.75744629 C-15.71342651 31.75256699 -15.71342651 31.75256699 -14.45875549 31.74758911 C-11.09235403 31.67493455 -8.61562955 31.53490434 -5.64637756 29.87219238 C-3.81452344 27.90837245 -3.62169325 26.94129836 -3.66200256 24.28088379 C-3.65169006 23.60025879 -3.64137756 22.91963379 -3.63075256 22.21838379 C-4.04198865 20.16994801 -4.04198865 20.16994801 -5.64637756 18.57385254 C-9.33113962 16.67997639 -12.82135675 16.71210071 -16.91200256 16.59338379 C-18.10116272 16.54214355 -18.10116272 16.54214355 -19.31434631 16.48986816 C-21.26307761 16.40769275 -23.21251618 16.34260334 -25.16200256 16.28088379 C-20.54044059 10.32150124 -15.45740078 6.38752049 -9.16200256 2.28088379 C-5.6370022 -0.06911645 -4.17576462 0.02209731 0 0 Z " fill="#3F6F91" transform="translate(129.16200256347656,14.7191162109375)"/>
<path d="M0 0 C0.6727597 0.00370605 1.34551941 0.00741211 2.03866577 0.01123047 C30.18102475 0.23076457 54.27836062 9.16342052 75.875 27.4375 C76.48859375 27.91703125 77.1021875 28.3965625 77.734375 28.890625 C94.63513706 42.38022408 106.06423552 63.94575102 111.875 84.4375 C112.1946875 85.46230469 112.514375 86.48710937 112.84375 87.54296875 C120.51336737 116.12649646 113.20855179 147.7821402 98.94140625 173.03515625 C95.98677991 177.89995689 92.63404126 182.17629674 88.875 186.4375 C88.19953125 187.24445313 87.5240625 188.05140625 86.828125 188.8828125 C68.46925883 210.25682092 41.99025224 224.49047958 13.875 227.4375 C-18.57100558 229.7594268 -48.64800855 221.17105633 -73.515625 199.84765625 C-87.36836031 187.70970128 -96.52396318 174.04786389 -104.125 157.4375 C-104.53492188 156.57898438 -104.94484375 155.72046875 -105.3671875 154.8359375 C-106.44761477 152.39869458 -107.31333952 149.97756248 -108.125 147.4375 C-108.681875 145.69533203 -108.681875 145.69533203 -109.25 143.91796875 C-112.07488054 133.96023467 -112.52601565 124.04770889 -112.5625 113.75 C-112.57249023 112.46843018 -112.58248047 111.18686035 -112.59277344 109.86645508 C-112.32586725 80.07019166 -99.10027316 52.51897682 -78.3046875 31.53125 C-56.88755037 11.3004849 -29.52044343 -0.23730558 0 0 Z " fill="#D1EDF9" transform="translate(371.125,269.5625)"/>
<path d="M0 0 C4.95 0 9.9 0 15 0 C15.99 1.98 16.98 3.96 18 6 C20.52230974 7.26115487 22.25331298 7.1275157 25.07728577 7.13130188 C26.69003891 7.13731415 26.69003891 7.13731415 28.33537292 7.14344788 C29.52028824 7.14291916 30.70520355 7.14239044 31.92602539 7.1418457 C33.17007141 7.14532013 34.41411743 7.14879456 35.69586182 7.15237427 C38.40613893 7.15974286 41.11636676 7.16541072 43.8266468 7.16866493 C48.11815031 7.17457582 52.40957089 7.19111916 56.70103455 7.21000671 C58.17082686 7.21634453 59.64061923 7.22267015 61.11041164 7.22898388 C62.21474948 7.2337326 62.21474948 7.2337326 63.34139717 7.23857725 C73.33297051 7.28062155 83.32450626 7.31360013 93.31616211 7.32592773 C100.05397462 7.33432623 106.79158274 7.3568866 113.529293 7.3952834 C117.0927064 7.4149917 120.65581461 7.42746638 124.21928596 7.42244911 C128.2024609 7.41690972 132.18512373 7.44228819 136.16821289 7.4699707 C137.92433144 7.46006859 137.92433144 7.46006859 139.71592712 7.44996643 C149.75488604 7.5642795 156.8569605 10.22222612 164.2109375 17.078125 C172.5470499 26.03307544 173.31410436 35.23620736 173.3359375 47.01953125 C173.3459227 48.90015511 173.3459227 48.90015511 173.35610962 50.81877136 C173.3662135 53.46567029 173.3717953 56.11215813 173.37060547 58.7590332 C173.3704429 61.45624603 173.38433584 64.15277986 173.41162109 66.84985352 C173.44841977 70.76078829 173.45808517 74.67094017 173.4609375 78.58203125 C173.47530853 79.77713821 173.48967957 80.97224518 173.50448608 82.2035675 C173.45076467 92.13767692 171.11961179 101.66518584 164 109 C156.95380496 114.55738151 151.02904625 117.30346087 141.98713684 117.27415466 C141.18546056 117.27939134 140.38378428 117.28462802 139.55781478 117.29002339 C136.87418592 117.30501305 134.19074791 117.30572831 131.50708008 117.30639648 C129.58170246 117.31401878 127.65632789 117.32244639 125.73095703 117.33161926 C120.50140374 117.35356695 115.27190892 117.36236379 110.04231477 117.36744571 C106.77325069 117.3710896 103.50420191 117.37732991 100.23514366 117.3844471 C88.82496849 117.4089446 77.41483879 117.4219937 66.00463867 117.42553711 C55.37833498 117.4291704 44.75232047 117.45905036 34.12610513 117.50094169 C24.99640186 117.53566815 15.86679429 117.55108598 6.73702544 117.55178314 C1.28725304 117.55257529 -4.16222492 117.56128509 -9.61192894 117.58978081 C-14.74122158 117.61600091 -19.86997652 117.61814447 -24.99930573 117.60212517 C-26.87697588 117.6003137 -28.75467723 117.60697397 -30.63228035 117.62294388 C-42.67592687 117.71909639 -51.38402296 117.07143331 -60.8125 108.8125 C-67.21540663 101.89493894 -70.08061695 93.77320546 -70.17700195 84.46630859 C-70.18983719 83.38102875 -70.20267242 82.2957489 -70.21589661 81.17758179 C-70.22328354 80.01296417 -70.23067047 78.84834656 -70.23828125 77.6484375 C-70.25038887 75.83371445 -70.25038887 75.83371445 -70.26274109 73.98233032 C-70.27656087 71.42199121 -70.28729242 68.86163383 -70.29516602 66.30126953 C-70.30667482 63.69444344 -70.3271089 61.0876407 -70.35668945 58.48095703 C-70.39954677 54.70328848 -70.41556196 50.92631958 -70.42578125 47.1484375 C-70.44328934 45.99596527 -70.46079742 44.84349304 -70.47883606 43.65609741 C-70.44804623 32.03513644 -67.47094465 23.50021849 -59.37890625 15.1015625 C-52.3834164 8.92163879 -45.28196801 7.87072958 -36.25390625 7.859375 C-34.51235665 7.84105302 -32.77081981 7.82148328 -31.02929688 7.80078125 C-28.2926668 7.7717858 -25.55686222 7.749999 -22.82006836 7.74951172 C-20.17227513 7.74617547 -17.52637102 7.71162866 -14.87890625 7.671875 C-13.65682213 7.68247955 -13.65682213 7.68247955 -12.41004944 7.69329834 C-8.09870871 7.60108925 -6.48248723 7.38970576 -3.00756836 4.58300781 C-1.01513797 2.19342257 -1.01513797 2.19342257 0 0 Z " fill="#D2EEFA" transform="translate(127,39)"/>
<path d="M0 0 C0.89871826 0.00141495 1.79743652 0.0028299 2.72338867 0.00428772 C5.56562775 0.00984042 8.40778513 0.02238388 11.25 0.03515625 C13.18880094 0.04017737 15.12760312 0.0447392 17.06640625 0.04882812 C21.79430183 0.05979431 26.52213711 0.07702581 31.25 0.09765625 C27.84182893 3.61014008 23.93171021 6.24485679 19.94140625 9.0625 C17.48003006 10.9237148 15.36749554 12.86001912 13.25 15.09765625 C14.89548828 15.13632812 14.89548828 15.13632812 16.57421875 15.17578125 C18.02868448 15.23208315 19.48311003 15.28943002 20.9375 15.34765625 C21.65873047 15.36183594 22.37996094 15.37601563 23.12304688 15.390625 C27.98334596 15.61255646 30.81261021 16.34777648 34.25 20.09765625 C34.9140625 22.09765625 34.9140625 22.09765625 34.875 24.09765625 C34.89433594 25.08765625 34.89433594 25.08765625 34.9140625 26.09765625 C33.84991177 29.30262786 32.0742817 30.30429019 29.25 32.09765625 C26.34541961 32.66120364 23.49840715 32.6317876 20.546875 32.6015625 C19.70964905 32.61098373 18.8724231 32.62040497 18.00982666 32.63011169 C15.33963478 32.65870736 12.67033232 32.66184359 10 32.66015625 C7.34407929 32.66378126 4.68880753 32.67353275 2.03302002 32.70091248 C0.38462366 32.71750223 -1.26398468 32.72073574 -2.91241455 32.707901 C-12.11801509 32.79084145 -19.04388344 35.44554251 -25.734375 41.7734375 C-31.20738874 48.08437389 -33.85207052 55.26610322 -33.91113281 63.53369141 C-33.92074036 64.62227448 -33.9303479 65.71085754 -33.94024658 66.83242798 C-33.9466214 68.59180191 -33.9466214 68.59180191 -33.953125 70.38671875 C-33.96167511 72.20712173 -33.96167511 72.20712173 -33.97039795 74.06430054 C-33.97984557 76.6348178 -33.98638099 79.20534717 -33.99023438 81.77587891 C-33.99991114 85.6867421 -34.03092597 89.59707327 -34.0625 93.5078125 C-34.06903327 96.00911147 -34.07428246 98.5104142 -34.078125 101.01171875 C-34.0904718 102.17248932 -34.1028186 103.33325989 -34.11553955 104.52920532 C-34.08653622 115.23230949 -32.32923544 124.17854478 -24.75 132.09765625 C-18.10993829 137.95653423 -12.67612445 140.40078353 -3.73713684 140.37181091 C-2.93546056 140.37704759 -2.13378428 140.38228427 -1.30781478 140.38767964 C1.37581408 140.4026693 4.05925209 140.40338456 6.74291992 140.40405273 C8.66829754 140.41167503 10.59367211 140.42010264 12.51904297 140.42927551 C17.74859626 140.4512232 22.97809108 140.46002004 28.20768523 140.46510196 C31.47674931 140.46874585 34.74579809 140.47498616 38.01485634 140.48210335 C49.42503151 140.50660085 60.83516121 140.51964995 72.24536133 140.52319336 C82.87166502 140.52682665 93.49767953 140.55670661 104.12389487 140.59859794 C113.25359814 140.6333244 122.38320571 140.64874223 131.51297456 140.64943939 C136.96274696 140.65023154 142.41222492 140.65894134 147.86192894 140.68743706 C152.99122158 140.71365716 158.11997652 140.71580072 163.24930573 140.69978142 C165.12697588 140.69796995 167.00467723 140.70463022 168.88228035 140.72060013 C178.84103795 140.80010757 186.68222411 140.79975878 195.25 135.09765625 C195.9711307 134.75231559 196.69226141 134.40697493 197.43524456 134.0511694 C199.82700499 132.79448491 200.21200249 131.55677481 201.25 129.09765625 C202.53133642 126.83036938 203.82725519 124.57208643 205.12890625 122.31640625 C207.12570701 118.36454969 207.38091813 114.86220473 207.41113281 110.4621582 C207.42554413 108.76437981 207.42554413 108.76437981 207.44024658 107.03230286 C207.44449646 105.81250229 207.44874634 104.59270172 207.453125 103.3359375 C207.45882507 102.07557175 207.46452515 100.81520599 207.47039795 99.51664734 C207.47984599 96.84773146 207.48674353 94.17892795 207.49023438 91.51000977 C207.49570025 88.11195388 207.51969444 84.71430249 207.54820633 81.31637287 C207.57146784 78.05209235 207.57329183 74.78778925 207.578125 71.5234375 C207.5966452 69.70891838 207.5966452 69.70891838 207.61553955 67.85774231 C207.58844186 57.4956498 205.91676492 48.96635489 198.49609375 41.28125 C190.20999879 33.51404944 182.5780314 32.65726672 171.5793457 32.74462891 C169.70232468 32.74138863 169.70232468 32.74138863 167.78738403 32.73808289 C165.08026701 32.73500319 162.37375028 32.73717888 159.66671181 32.74809647 C155.38417849 32.7645341 151.10191459 32.75595726 146.81938171 32.74325562 C135.41694907 32.71321444 124.01456725 32.71462339 112.61211509 32.73350847 C105.1080728 32.7458425 97.60433784 32.74398664 90.10033101 32.71512067 C85.84471002 32.69989862 81.58992469 32.70734829 77.33435595 32.73183084 C74.06699629 32.74427029 70.799803 32.72432621 67.5324707 32.70947266 C66.35677017 32.72281143 65.18106964 32.73615021 63.96974182 32.74989319 C56.03766578 32.66951101 56.03766578 32.66951101 52.01750183 29.75082397 C49.8497446 26.49683949 49.51587508 24.93141972 50.25 21.09765625 C52.29157031 18.5124023 53.48640306 17.25112417 56.75454712 16.59429169 C57.70131317 16.59278358 58.64807922 16.59127548 59.62353516 16.58972168 C60.71394608 16.57844238 61.80435699 16.56716309 62.92781067 16.55554199 C64.11952377 16.56363892 65.31123688 16.57173584 66.5390625 16.58007812 C67.79808884 16.57306885 69.05711517 16.56605957 70.35429382 16.55883789 C73.80738847 16.54059965 77.26000504 16.54767762 80.71310806 16.56035423 C84.33633949 16.57049714 87.95953059 16.56108335 91.58276367 16.55480957 C97.67585566 16.54752944 103.76875386 16.55712251 109.86181641 16.57617188 C116.88048842 16.59786341 123.89869421 16.59094747 130.91735458 16.56886625 C136.95837735 16.55062883 142.99926082 16.54819672 149.04030228 16.55862093 C152.64122378 16.56482043 156.24192744 16.56579197 159.84283447 16.55247498 C163.87075672 16.53862099 167.89789613 16.55790093 171.92578125 16.58007812 C173.10130051 16.5719812 174.27681976 16.56388428 175.48796082 16.55554199 C188.89127048 16.69137672 201.11916693 21.06663266 210.76171875 30.57421875 C218.33310314 39.2594101 223.35310141 49.40322577 223.39526367 61.02441406 C223.40483345 62.81712738 223.40483345 62.81712738 223.41459656 64.64605713 C223.41626579 66.57889557 223.41626579 66.57889557 223.41796875 68.55078125 C223.4211849 69.8935347 223.42454924 71.2362878 223.42805481 72.57904053 C223.4340376 75.39335949 223.43589569 78.20764779 223.43530273 81.02197266 C223.43520139 84.61060273 223.44882833 88.19903371 223.46607494 91.78761673 C223.47725165 94.56218347 223.47922018 97.33670304 223.47869301 100.11128998 C223.48043216 102.07203134 223.4912402 104.03275798 223.50224304 105.99346924 C223.48593124 112.3967742 223.17482372 117.97945034 221.25 124.09765625 C220.98960937 124.96132812 220.72921875 125.825 220.4609375 126.71484375 C216.4024749 137.67648572 208.89557153 146.29604935 198.4296875 151.5 C186.06817735 156.95360742 174.43609582 157.38258649 161.13232422 157.32470703 C159.30821234 157.32414214 157.48410002 157.324461 155.6599884 157.32559204 C150.73301142 157.3261635 145.80613275 157.31444277 140.87917852 157.30044413 C135.72089995 157.28790219 130.56261887 157.28676354 125.40432739 157.28439331 C115.64753981 157.2781887 105.89079729 157.2617917 96.13402951 157.24169433 C85.0215607 157.21930357 73.90908969 157.20833392 62.79660392 157.19830346 C39.94771016 157.17742455 17.09885951 157.14186336 -5.75 157.09765625 C-5.75 166.00765625 -5.75 174.91765625 -5.75 184.09765625 C-7.68875 184.77828125 -9.6275 185.45890625 -11.625 186.16015625 C-23.68951886 190.85482772 -31.18791968 197.10886891 -37.06640625 208.69140625 C-41.14554897 218.35627402 -41.14352384 228.13445367 -37.625 237.97265625 C-32.84780509 248.96821101 -25.67802071 256.87049902 -14.4375 261.47265625 C-11.53797817 262.54655322 -8.76356152 263.34426587 -5.75 264.09765625 C-5.75 267.72765625 -5.75 271.35765625 -5.75 275.09765625 C-6.58402344 275.38898438 -7.41804688 275.6803125 -8.27734375 275.98046875 C-20.63031579 280.48017678 -29.73761641 285.59088616 -36.03515625 297.53515625 C-40.70858608 307.71954814 -41.5295527 318.20279627 -37.6875 328.91015625 C-32.68759669 340.42253866 -25.40679719 347.17151079 -14.125 352.41015625 C-9.70612348 354.15155151 -5.97308525 354.14992379 -1.25 354.09765625 C3.39945818 354.27971335 5.5063648 354.44853334 9.046875 357.5390625 C10.70709304 359.65134628 12.28165686 361.75129974 13.83203125 363.9375 C17.52169423 368.75969282 22.20146703 371.82156997 27.25 375.09765625 C28.24 375.75765625 29.23 376.41765625 30.25 377.09765625 C32.59291291 377.40879842 32.59291291 377.40879842 35.24235535 377.37612915 C36.27300613 377.38729263 37.30365692 377.39845612 38.36553955 377.40995789 C39.49554382 377.41211807 40.6255481 377.41427826 41.78979492 377.41650391 C42.98016861 377.42654953 44.1705423 377.43659515 45.39698792 377.44694519 C48.66117718 377.4725597 51.9252715 377.48940118 55.18953109 377.50237322 C58.60087658 377.5179939 62.0121337 377.54478748 65.42341614 377.57040405 C71.88315546 377.61721074 78.34291137 377.65394565 84.80273372 377.68707693 C92.15701053 377.72528501 99.51119862 377.77469858 106.86540067 377.82506108 C121.9935349 377.928409 137.12172292 378.01766006 152.25 378.09765625 C152.25 378.42765625 152.25 378.75765625 152.25 379.09765625 C131.50002191 379.16790397 110.75006357 379.2207214 89.99999046 379.25309277 C80.36421089 379.26852644 70.72850543 379.28954863 61.09277344 379.32397461 C52.68902999 379.35398456 44.28534026 379.37325666 35.88154471 379.37992173 C31.43655024 379.38381444 26.99170936 379.39288893 22.54676437 379.41484642 C18.35249973 379.43539531 14.15845015 379.44145338 9.96413994 379.43697929 C8.43485401 379.43779635 6.90555997 379.44365145 5.37631798 379.45527267 C-7.26051594 379.54649392 -19.64366588 378.49557186 -31 372.47265625 C-31.66765381 372.12783203 -32.33530762 371.78300781 -33.02319336 371.42773438 C-39.0900139 368.16002589 -43.98640855 364.07414564 -48.75 359.09765625 C-49.68005859 358.21400391 -49.68005859 358.21400391 -50.62890625 357.3125 C-54.71259543 353.15572466 -57.40484536 348.42060163 -60.0625 343.28515625 C-60.40039551 342.64570068 -60.73829102 342.00624512 -61.08642578 341.34741211 C-65.56259163 332.26476166 -66.04784405 322.53634917 -66.01069641 312.56739807 C-66.01452196 311.4598235 -66.01834751 310.35224892 -66.02228898 309.21111149 C-66.03254474 305.52814281 -66.02864099 301.8453322 -66.0246582 298.16235352 C-66.02900875 295.51027924 -66.03412918 292.85821625 -66.04014587 290.20614624 C-66.05285075 283.76730746 -66.0546919 277.32851047 -66.05234561 270.88966126 C-66.05055778 265.65308446 -66.05232202 260.41652028 -66.05657005 255.17994499 C-66.05716524 254.43277716 -66.05776043 253.68560933 -66.05837366 252.91580005 C-66.05958549 251.39761869 -66.06079962 249.87943734 -66.06201603 248.361256 C-66.07287507 234.14608654 -66.07073668 219.93094084 -66.06463119 205.71577006 C-66.05946189 192.7300613 -66.07072072 179.74442756 -66.08972941 166.75873364 C-66.10913091 153.40157378 -66.11735986 140.04444938 -66.11360615 126.68727535 C-66.11169782 119.19758982 -66.11414582 111.70796813 -66.12832069 104.21829414 C-66.1402649 97.84316693 -66.14160535 91.4681429 -66.12953053 85.09301419 C-66.12366342 81.84487138 -66.12412598 78.59695481 -66.13453293 75.34881783 C-66.14502904 71.81733845 -66.13687623 68.28635987 -66.1242218 64.75489807 C-66.13528323 63.23691371 -66.13528323 63.23691371 -66.14656812 61.688263 C-66.01348969 43.94010227 -58.72455152 29.73979586 -46.765625 16.98046875 C-33.76205291 4.41686715 -17.69758749 -0.10676633 0 0 Z " fill="#355C7A" transform="translate(91.75,14.90234375)"/>
<path d="M0 0 C0.6727597 0.00370605 1.34551941 0.00741211 2.03866577 0.01123047 C30.18102475 0.23076457 54.27836062 9.16342052 75.875 27.4375 C76.48859375 27.91703125 77.1021875 28.3965625 77.734375 28.890625 C94.63513706 42.38022408 106.06423552 63.94575102 111.875 84.4375 C112.1946875 85.46230469 112.514375 86.48710937 112.84375 87.54296875 C120.51336737 116.12649646 113.20855179 147.7821402 98.94140625 173.03515625 C95.98677991 177.89995689 92.63404126 182.17629674 88.875 186.4375 C88.19953125 187.24445313 87.5240625 188.05140625 86.828125 188.8828125 C68.46925883 210.25682092 41.99025224 224.49047958 13.875 227.4375 C-18.57100558 229.7594268 -48.64800855 221.17105633 -73.515625 199.84765625 C-87.36836031 187.70970128 -96.52396318 174.04786389 -104.125 157.4375 C-104.53492188 156.57898438 -104.94484375 155.72046875 -105.3671875 154.8359375 C-106.44761477 152.39869458 -107.31333952 149.97756248 -108.125 147.4375 C-108.681875 145.69533203 -108.681875 145.69533203 -109.25 143.91796875 C-112.07488054 133.96023467 -112.52601565 124.04770889 -112.5625 113.75 C-112.57249023 112.46843018 -112.58248047 111.18686035 -112.59277344 109.86645508 C-112.32586725 80.07019166 -99.10027316 52.51897682 -78.3046875 31.53125 C-56.88755037 11.3004849 -29.52044343 -0.23730558 0 0 Z M-65.125 54.4375 C-68.03329824 57.96179196 -70.62461852 61.61533095 -73.125 65.4375 C-73.66898437 66.24960937 -74.21296875 67.06171875 -74.7734375 67.8984375 C-86.45895918 86.2275045 -90.59673272 109.61717286 -85.9934082 130.91552734 C-85.18074727 134.14284879 -84.18609748 137.28386556 -83.125 140.4375 C-82.91069336 141.07768066 -82.69638672 141.71786133 -82.47558594 142.37744141 C-77.78633081 156.03907771 -70.23685878 167.15129882 -60.125 177.4375 C-59.09632813 178.48550781 -59.09632813 178.48550781 -58.046875 179.5546875 C-48.86934458 188.29033682 -37.00960624 194.27631161 -25.125 198.4375 C-24.21492188 198.7571875 -23.30484375 199.076875 -22.3671875 199.40625 C-1.05228121 205.54494301 23.79621392 201.8950175 43.1796875 191.69921875 C51.69776873 187.31725212 51.69776873 187.31725212 57.875 180.4375 C57.91754356 178.43795254 57.91580783 176.43708364 57.875 174.4375 C57.875 171.4375 57.875 171.4375 59.3359375 169.68359375 C59.96757812 169.08675781 60.59921875 168.48992187 61.25 167.875 C61.87648438 167.27558594 62.50296875 166.67617188 63.1484375 166.05859375 C63.71820313 165.52363281 64.28796875 164.98867188 64.875 164.4375 C65.535 163.7775 66.195 163.1175 66.875 162.4375 C67.98875 162.47875 69.1025 162.52 70.25 162.5625 C73.81443112 162.79394143 73.81443112 162.79394143 75.8515625 160.90234375 C88.39516838 145.62239141 91.7344685 122.54893011 89.875 103.4375 C86.68940981 79.5795741 74.10946496 58.88153175 55.875 43.4375 C51.79076161 40.32944901 47.42150271 37.8088358 42.875 35.4375 C41.50601563 34.72013672 41.50601563 34.72013672 40.109375 33.98828125 C3.73128078 16.27789328 -37.52707374 25.71840799 -65.125 54.4375 Z " fill="#FCDD7B" transform="translate(371.125,269.5625)"/>
<path d="M0 0 C0.84767944 -0.00960754 1.69535889 -0.01921509 2.56872559 -0.02911377 C3.92979431 -0.03548859 3.92979431 -0.03548859 5.31835938 -0.04199219 C6.72728455 -0.0505423 6.72728455 -0.0505423 8.16467285 -0.05926514 C10.14834471 -0.06869942 12.13203212 -0.07524287 14.11572266 -0.07910156 C17.15099232 -0.08883155 20.18559158 -0.11987957 23.22070312 -0.15136719 C25.14908453 -0.15789525 27.07747076 -0.16314649 29.00585938 -0.16699219 C29.91323853 -0.17933899 30.82061768 -0.19168579 31.75549316 -0.20440674 C37.96976697 -0.18240591 37.96976697 -0.18240591 41.23046875 1.43554688 C43.20368179 3.8139012 43.19229005 6.11194296 43.29101562 9.12597656 C42.28541271 12.38013259 40.50858561 13.35707702 37.66210938 15.16113281 C34.75746605 15.72444129 31.9105412 15.69526442 28.95898438 15.66503906 C28.12175842 15.6744603 27.28453247 15.68388153 26.42193604 15.69358826 C23.75174416 15.72218392 21.0824417 15.72532015 18.41210938 15.72363281 C15.75618867 15.72725782 13.10091691 15.73700931 10.44512939 15.76438904 C8.79673304 15.7809788 7.1481247 15.7842123 5.49969482 15.77137756 C-3.70590572 15.85431801 -10.63177407 18.50901907 -17.32226562 24.83691406 C-22.79527937 31.14785045 -25.43996115 38.32957978 -25.49902344 46.59716797 C-25.51343475 48.23004257 -25.51343475 48.23004257 -25.52813721 49.89590454 C-25.53451202 51.65527847 -25.53451202 51.65527847 -25.54101562 53.45019531 C-25.5467157 54.6637973 -25.55241577 55.87739929 -25.55828857 57.1277771 C-25.5677362 59.69829437 -25.57427161 62.26882373 -25.578125 64.83935547 C-25.58780176 68.75021866 -25.6188166 72.66054983 -25.65039062 76.57128906 C-25.65692389 79.07258804 -25.66217309 81.57389076 -25.66601562 84.07519531 C-25.67836243 85.23596588 -25.69070923 86.39673645 -25.70343018 87.59268188 C-25.67442685 98.29578605 -23.91712606 107.24202134 -16.33789062 115.16113281 C-9.69782891 121.0200108 -4.26401507 123.46426009 4.67497253 123.43528748 C5.87748696 123.44314249 5.87748696 123.44314249 7.1042946 123.4511562 C9.78792345 123.46614586 12.47136146 123.46686113 15.1550293 123.4675293 C17.08040691 123.47515159 19.00578149 123.48357921 20.93115234 123.49275208 C26.16070564 123.51469976 31.39020046 123.5234966 36.61979461 123.52857852 C39.88885869 123.53222242 43.15790747 123.53846272 46.42696571 123.54557991 C57.83714088 123.57007741 69.24727058 123.58312651 80.6574707 123.58666992 C91.28377439 123.59030322 101.9097889 123.62018317 112.53600425 123.66207451 C121.66570751 123.69680096 130.79531508 123.71221879 139.92508394 123.71291596 C145.37485634 123.7137081 150.8243343 123.7224179 156.27403831 123.75091362 C161.40333095 123.77713372 166.5320859 123.77927728 171.6614151 123.76325798 C173.53908526 123.76144651 175.41678661 123.76810679 177.29438972 123.78407669 C187.25314733 123.86358413 195.09433349 123.86323534 203.66210938 118.16113281 C204.38324008 117.81579215 205.10437078 117.47045149 205.84735394 117.11464596 C208.23911437 115.85796147 208.62411187 114.62025138 209.66210938 112.16113281 C210.94344579 109.89384595 212.23936456 107.63556299 213.54101562 105.37988281 C215.53781638 101.42802626 215.79302751 97.92568129 215.82324219 93.52563477 C215.8376535 91.82785637 215.8376535 91.82785637 215.85235596 90.09577942 C215.85660583 88.87597885 215.86085571 87.65617828 215.86523438 86.39941406 C215.87093445 85.13904831 215.87663452 83.87868256 215.88250732 82.5801239 C215.89195536 79.91120803 215.89885291 77.24240452 215.90234375 74.57348633 C215.90780963 71.17543044 215.93180381 67.77777905 215.9603157 64.37984943 C215.98357722 61.11556891 215.9854012 57.85126581 215.99023438 54.58691406 C216.00875458 52.77239494 216.00875458 52.77239494 216.02764893 50.92121887 C216.00055124 40.55912636 214.3288743 32.02983145 206.90820312 24.34472656 C198.62210816 16.577526 190.99014078 15.72074329 179.99145508 15.80810547 C178.11443405 15.80486519 178.11443405 15.80486519 176.19949341 15.80155945 C173.49237639 15.79847975 170.78585965 15.80065544 168.07882118 15.81157303 C163.79628786 15.82801067 159.51402397 15.81943382 155.23149109 15.80673218 C143.82905845 15.776691 132.42667662 15.77809996 121.02422446 15.79698503 C113.52018217 15.80931907 106.01644721 15.8074632 98.51244038 15.77859724 C94.25681939 15.76337518 90.00203407 15.77082485 85.74646533 15.7953074 C82.47910567 15.80774685 79.21191237 15.78780277 75.94458008 15.77294922 C74.76887955 15.78628799 73.59317902 15.79962677 72.3818512 15.81336975 C64.44977516 15.73298758 64.44977516 15.73298758 60.42961121 12.81430054 C58.26185397 9.56031606 57.92798446 7.99489628 58.66210938 4.16113281 C60.70367969 1.57587887 61.89851243 0.31460073 65.16665649 -0.34223175 C66.11342255 -0.34373985 67.0601886 -0.34524796 68.03564453 -0.34680176 C69.12605545 -0.35808105 70.21646637 -0.36936035 71.33992004 -0.38098145 C72.53163315 -0.37288452 73.72334625 -0.3647876 74.95117188 -0.35644531 C76.21019821 -0.36345459 77.46922455 -0.37046387 78.7664032 -0.37768555 C82.21949784 -0.39592378 85.67211442 -0.38884582 89.12521744 -0.3761692 C92.74844887 -0.3660263 96.37163996 -0.37544009 99.99487305 -0.38171387 C106.08796503 -0.388994 112.18086323 -0.37940092 118.27392578 -0.36035156 C125.29259779 -0.33866003 132.31080358 -0.34557596 139.32946396 -0.36765718 C145.37048673 -0.38589461 151.4113702 -0.38832672 157.45241165 -0.37790251 C161.05333316 -0.37170301 164.65403681 -0.37073147 168.25494385 -0.38404846 C172.28286609 -0.39790245 176.3100055 -0.37862251 180.33789062 -0.35644531 C181.51340988 -0.36454224 182.68892914 -0.37263916 183.90007019 -0.38098145 C197.30337986 -0.24514672 209.5312763 4.13010922 219.17382812 13.63769531 C226.74521251 22.32288666 231.76521079 32.46670233 231.80737305 44.08789062 C231.81694283 45.88060394 231.81694283 45.88060394 231.82670593 47.70953369 C231.82837517 49.64237213 231.82837517 49.64237213 231.83007812 51.61425781 C231.83329427 52.95701126 231.83665862 54.29976436 231.84016418 55.64251709 C231.84614697 58.45683605 231.84800506 61.27112435 231.84741211 64.08544922 C231.84731077 67.67407929 231.86093771 71.26251027 231.87818432 74.85109329 C231.88936103 77.62566004 231.89132955 80.4001796 231.89080238 83.17476654 C231.89254154 85.1355079 231.90334957 87.09623454 231.91435242 89.0569458 C231.89804061 95.46025076 231.5869331 101.0429269 229.66210938 107.16113281 C229.40171875 108.02480469 229.14132812 108.88847656 228.87304688 109.77832031 C224.80669448 120.76127211 217.23983043 129.56757437 206.63085938 134.59863281 C199.32676036 137.71883045 193.65806365 139.30978726 185.70703125 139.31503296 C184.49566451 139.32160634 184.49566451 139.32160634 183.25982571 139.32831252 C180.55016788 139.3416809 177.84054256 139.34787504 175.13085938 139.35400391 C173.18917189 139.36190658 171.24748587 139.37017564 169.30580139 139.37878418 C162.92458496 139.40499088 156.54336202 139.42031311 150.16210938 139.43457031 C147.96328731 139.43993105 145.76446529 139.44530856 143.56564331 139.45070267 C134.41583321 139.47233175 125.26602487 139.49106652 116.11619568 139.50232506 C103.01652045 139.51855098 89.91714246 139.55169571 76.81757927 139.60872591 C67.6004022 139.64748071 58.38330444 139.66696447 49.16604805 139.67224562 C43.66476273 139.6758922 38.16379453 139.6878396 32.66259766 139.72034836 C27.48162415 139.75052538 22.30115804 139.75670642 17.12011528 139.7449646 C15.22554058 139.74474465 13.33094169 139.75298384 11.43644905 139.77061844 C-2.94050651 139.89708555 -14.1530094 137.96306777 -25.33789062 128.16113281 C-26.24474609 127.41089844 -26.24474609 127.41089844 -27.16992188 126.64550781 C-34.38804522 120.16649514 -39.78704091 109.63563278 -40.61204529 99.93881226 C-40.62268509 98.78031769 -40.63332489 97.62182312 -40.64428711 96.42822266 C-40.65261063 95.78337921 -40.66093414 95.13853577 -40.66950989 94.47415161 C-40.69346634 92.35672837 -40.70236644 90.23961444 -40.70898438 88.12207031 C-40.71796538 86.63481564 -40.72708746 85.14756182 -40.73634338 83.66030884 C-40.7527997 80.54516414 -40.76052667 77.43012643 -40.76342773 74.31494141 C-40.76879181 70.35423251 -40.80640273 66.39455308 -40.8521719 62.43413353 C-40.88216117 59.36085498 -40.88915606 56.28781709 -40.89015388 53.21440506 C-40.89431716 51.75616392 -40.90659192 50.2979194 -40.92767143 48.83982468 C-41.10304706 35.65393348 -38.10902553 25.19775485 -29.33789062 15.16113281 C-28.8609375 14.56816406 -28.38398437 13.97519531 -27.89257812 13.36425781 C-21.34672211 5.93027058 -9.99815393 0.09188782 0 0 Z " fill="#030304" transform="translate(83.337890625,31.8388671875)"/>
<path d="M0 0 C19.20663347 15.70202414 32.10339744 35.94467674 35.5625 60.875 C37.49328794 80.41076206 33.5003349 101.32181282 22.5625 117.875 C18.82994552 120.36336965 16.97809065 120.41726552 12.5625 119.875 C10.0625 117.8125 10.0625 117.8125 8.5625 114.875 C8.47566029 110.44617493 9.73705112 107.4135178 11.8125 103.625 C15.91533723 95.94563703 17.53413443 87.28192794 19.5625 78.875 C18.46550781 78.92140625 17.36851562 78.9678125 16.23828125 79.015625 C14.7838815 79.0531579 13.32945217 79.08955643 11.875 79.125 C11.15376953 79.15851563 10.43253906 79.19203125 9.68945312 79.2265625 C5.86209215 79.29646864 3.95721766 79.10800741 0.578125 77.11328125 C-1.55348493 74.74620278 -2.10219203 73.93236246 -2 70.8125 C-1.4375 66.875 -1.4375 66.875 0.05078125 65.140625 C3.7796787 63.26167823 7.20287914 63.55460181 11.3125 63.6875 C12.50166016 63.70780273 12.50166016 63.70780273 13.71484375 63.72851562 C15.66435564 63.76374777 17.61351626 63.81755179 19.5625 63.875 C18.00442789 54.48856559 16.10835991 46.31916143 11.5625 37.875 C11.12035156 37.03453125 10.67820312 36.1940625 10.22265625 35.328125 C0.28056097 17.592088 -15.56119739 6.67623543 -34.65625 0.62109375 C-38.26825219 -0.34785627 -41.71219107 -0.83843777 -45.4375 -1.125 C-45.37949219 -0.02800781 -45.32148438 1.06898438 -45.26171875 2.19921875 C-45.21480312 3.65360314 -45.16930489 5.10803374 -45.125 6.5625 C-45.08310547 7.28373047 -45.04121094 8.00496094 -44.99804688 8.74804688 C-44.9024961 12.9331707 -45.08796372 14.42752319 -47.765625 17.85546875 C-50.4375 19.875 -50.4375 19.875 -53.5 20.5 C-56.4375 19.875 -56.4375 19.875 -58.60546875 17.85546875 C-61.02385747 13.92107517 -60.89698223 11.07039641 -60.6875 6.5625 C-60.66945313 5.82193359 -60.65140625 5.08136719 -60.6328125 4.31835938 C-60.58597337 2.5033429 -60.51423789 0.68899834 -60.4375 -1.125 C-76.01763227 0.86395306 -89.66877194 6.18240077 -101.4375 16.875 C-102.18257813 17.52855469 -102.92765625 18.18210937 -103.6953125 18.85546875 C-116.51975671 30.78872277 -123.36206756 46.68298498 -125.4375 63.875 C-124.25671875 63.82859375 -123.0759375 63.7821875 -121.859375 63.734375 C-120.30210866 63.69685051 -118.74481492 63.66045107 -117.1875 63.625 C-116.41019531 63.59148437 -115.63289063 63.55796875 -114.83203125 63.5234375 C-109.06668313 63.42488454 -109.06668313 63.42488454 -105.92578125 65.671875 C-103.72831545 68.9248165 -103.822168 71.04626754 -104.4375 74.875 C-106.53641948 77.1691678 -108.21166257 78.67197312 -111.34790039 79.19140625 C-113.49580228 79.26812604 -115.60320853 79.22476153 -117.75 79.125 C-118.49056641 79.10695313 -119.23113281 79.08890625 -119.99414062 79.0703125 C-121.8091571 79.02347337 -123.62350166 78.95173789 -125.4375 78.875 C-121.60944162 99.22415243 -113.48516582 117.14675776 -96.4375 129.875 C-85.19439058 137.22678173 -73.70473952 141.64422521 -60.4375 143.875 C-60.49550781 142.70582031 -60.55351562 141.53664063 -60.61328125 140.33203125 C-60.66019449 138.7838942 -60.70569298 137.23571383 -60.75 135.6875 C-60.79189453 134.91857422 -60.83378906 134.14964844 -60.87695312 133.35742188 C-60.96992765 129.02480896 -60.84702116 127.39688565 -58.07421875 123.86328125 C-55.4375 121.875 -55.4375 121.875 -52.9375 121.25 C-49.19272888 122.18619278 -47.80810732 123.85394505 -45.4375 126.875 C-44.84112999 129.84166974 -44.96097024 132.67692301 -45.125 135.6875 C-45.14755859 136.47576172 -45.17011719 137.26402344 -45.19335938 138.07617188 C-45.25195839 140.00993929 -45.34163173 141.94272167 -45.4375 143.875 C-33.52857823 141.16980077 -22.08689776 138.49272751 -12.125 131.0625 C-8.94011659 128.72112504 -7.55864281 127.89649308 -3.5625 127.1875 C0.14589743 128.00334744 1.47525188 128.70238286 3.5625 131.875 C4.125 134.8125 4.125 134.8125 3.5625 137.875 C-5.97318321 150.17910736 -23.63095129 155.27238853 -38.11328125 158.46484375 C-62.62878337 161.48967069 -86.61065914 157.17512102 -106.4375 141.9375 C-108.48126351 140.29234505 -110.45666604 138.59840684 -112.4375 136.875 C-113.24574219 136.17890625 -114.05398438 135.4828125 -114.88671875 134.765625 C-125.7520629 124.6777313 -132.83724013 111.81953774 -137.4375 97.875 C-137.85 96.64523437 -138.2625 95.41546875 -138.6875 94.1484375 C-144.73265655 73.53613288 -142.634592 50.82057204 -132.4375 31.875 C-131.66599609 30.41513672 -131.66599609 30.41513672 -130.87890625 28.92578125 C-118.42501105 6.46275087 -99.28908656 -7.64874253 -75.1171875 -15.15625 C-49.51598232 -21.69272792 -21.14212623 -15.63834112 0 0 Z " fill="#030303" transform="translate(425.4375,312.125)"/>
<path d="M0 0 C8.59998822 6.16922232 14.7556705 13.9320079 17.3125 24.3125 C18.95157244 36.7544132 17.05561364 48.14966335 9.3125 58.3125 C8.71824219 59.116875 8.12398438 59.92125 7.51171875 60.75 C1.69735808 67.52481457 -7.63541098 72.65496256 -16.57275391 73.48828125 C-29.32359199 74.31721895 -38.61688907 72.51258622 -48.65625 64.15234375 C-56.45971282 57.08420723 -62.09399959 47.95016918 -62.92578125 37.24609375 C-63.19502393 24.56334634 -60.04775173 14.97543396 -51.6875 5.3125 C-36.91525324 -8.78459837 -17.40628535 -10.66357754 0 0 Z " fill="#020203" transform="translate(113.6875,205.6875)"/>
<path d="M0 0 C8.62036368 5.54359865 14.7165047 13.76660856 18.125 23.41015625 C20.2306509 36.2271617 18.70785114 47.8452202 11.1328125 58.46875 C4.68702073 66.79329151 -3.80021038 73.10172583 -14.515625 74.59765625 C-27.77497108 75.68068335 -38.2104546 73.18071506 -48.5546875 64.4609375 C-56.98105565 56.4542092 -61.70682098 46.1495274 -62.078125 34.47265625 C-61.58292954 22.41397761 -56.48958157 11.95742791 -47.640625 3.78515625 C-33.76505978 -7.65424103 -15.65261808 -8.3367205 0 0 Z " fill="#010202" transform="translate(112.515625,295.40234375)"/>
<path d="M0 0 C8.86939582 6.88634561 15.84675804 14.71230191 18 26 C19.00486596 39.67559766 16.75337714 49.89531616 8.5078125 61.01171875 C1.31783909 68.97076892 -8.72134297 73.46826577 -19.26171875 74.23828125 C-31.83455291 74.51066876 -40.72280466 71.56915108 -50 63 C-58.58031411 54.71286291 -62.05714194 45.09929041 -62.3125 33.3125 C-62.18488341 21.18892419 -57.63515277 12.86988695 -49.34375 4.28515625 C-35.89911441 -8.17649891 -15.46029422 -9.99709371 0 0 Z " fill="#010202" transform="translate(205,296)"/>
<path d="M0 0 C7.93037185 6.54464372 12.72382068 14.26303648 15.5625 24.125 C16.63868847 36.73856196 14.66875711 48.53441557 6.5859375 58.58203125 C-0.97441334 66.63660997 -10.16942558 71.48783955 -21.26953125 72.4609375 C-34.7452538 72.59318208 -43.82804473 69.51146757 -53.5703125 60.0546875 C-59.93421707 53.31505425 -63.81262411 46.49813835 -64.4375 37.125 C-64.51226562 36.16722656 -64.58703125 35.20945313 -64.6640625 34.22265625 C-65.15160387 23.43259584 -61.99099902 14.33675327 -55.16015625 5.93359375 C-40.09444969 -9.88369001 -18.17983709 -12.85722319 0 0 Z " fill="#010202" transform="translate(207.4375,206.875)"/>
<path d="M0 0 C7.48769647 4.25840557 11.95230742 9.62329594 14.625 17.8125 C15.6678274 23.90501171 15.80535248 30.05614127 15.88110352 36.22436523 C15.93731335 39.11539981 16.10534933 41.98677425 16.27539062 44.87304688 C16.67994893 58.00013219 16.67994893 58.00013219 13.0562439 62.95947266 C9.27638261 66.80546526 5.01333858 69.78387845 0.45280457 72.63070679 C-15.56405896 82.98663923 -26.85426493 105.69557045 -33.375 122.8125 C-35.77009008 120.41740992 -35.62807225 119.90311963 -35.64242554 116.63961792 C-35.65095551 115.7649437 -35.65948547 114.89026947 -35.66827393 113.98908997 C-35.66691437 112.54598701 -35.66691437 112.54598701 -35.66552734 111.07373047 C-35.67224457 110.06216385 -35.67896179 109.05059723 -35.68588257 108.00837708 C-35.70495042 104.64876449 -35.70879182 101.28935091 -35.7109375 97.9296875 C-35.71736158 95.5975842 -35.72408964 93.26548171 -35.73110962 90.93338013 C-35.74310596 86.03564588 -35.74678825 81.13798228 -35.74560547 76.24023438 C-35.74540266 69.97224411 -35.77265489 63.70470922 -35.80714989 57.43682671 C-35.82942418 52.61544732 -35.83344276 47.79417718 -35.83238602 42.97275162 C-35.83474309 40.66274579 -35.84357256 38.352737 -35.85905075 36.04278183 C-35.8787115 32.80408002 -35.87287061 29.56635527 -35.86083984 26.32763672 C-35.87207886 25.37771347 -35.88331787 24.42779022 -35.89489746 23.44908142 C-35.82783376 16.32145 -34.15731217 11.05375026 -29.48046875 5.60546875 C-20.49772967 -1.91368758 -11.12034198 -5.25357438 0 0 Z " fill="#F2F9FD" transform="translate(285.375,216.1875)"/>
<path d="M0 0 C1.25039062 0.00322266 2.50078125 0.00644531 3.7890625 0.00976562 C5.74199219 0.02233398 5.74199219 0.02233398 7.734375 0.03515625 C9.71050781 0.04192383 9.71050781 0.04192383 11.7265625 0.04882812 C14.97921241 0.06061309 18.23177084 0.07706614 21.484375 0.09765625 C21.08968018 0.53190918 20.69498535 0.96616211 20.28833008 1.41357422 C16.9773121 5.14827697 14.36316183 8.69832818 12.171875 13.22265625 C11.68074219 14.21523438 11.18960938 15.2078125 10.68359375 16.23046875 C8.72495284 20.91334311 8.35208546 25.20870019 8.29150391 30.25805664 C8.27544098 31.48025406 8.25937805 32.70245148 8.24282837 33.96168518 C8.19807642 39.55184554 8.15687485 45.14188048 8.13427734 50.73217773 C8.12098474 53.67195065 8.09321152 56.61102174 8.05224609 59.55053711 C8.00248796 63.12257662 7.9781043 66.69398439 7.97105026 70.26635551 C7.96121122 72.26471932 7.92707353 74.26291713 7.89224243 76.26100159 C7.91637605 86.79720257 10.12525089 96.58463713 17.796875 104.28515625 C21.484375 108.06808139 21.484375 108.06808139 21.484375 109.09765625 C17.39526129 109.22267619 13.30691035 109.3126499 9.21630859 109.37231445 C7.82939236 109.3972243 6.44260413 109.43116627 5.05615234 109.47485352 C-5.96473758 109.81303967 -13.90098827 108.34468486 -22.328125 100.91015625 C-28.73103163 93.99259519 -31.59624195 85.87086171 -31.69262695 76.56396484 C-31.70546219 75.478685 -31.71829742 74.39340515 -31.73152161 73.27523804 C-31.73890854 72.11062042 -31.74629547 70.94600281 -31.75390625 69.74609375 C-31.76601387 67.9313707 -31.76601387 67.9313707 -31.77836609 66.07998657 C-31.79218587 63.51964746 -31.80291742 60.95929008 -31.81079102 58.39892578 C-31.82229982 55.79209969 -31.8427339 53.18529695 -31.87231445 50.57861328 C-31.91517177 46.80094473 -31.93118696 43.02397583 -31.94140625 39.24609375 C-31.95891434 38.09362152 -31.97642242 36.94114929 -31.99446106 35.75375366 C-31.96367123 24.13279269 -28.98656965 15.59787474 -20.89453125 7.19921875 C-14.63477023 1.66924925 -8.18676254 -0.03721256 0 0 Z " fill="#AFE1F6" transform="translate(88.515625,46.90234375)"/>
<path d="M0 0 C0 4.62 0 9.24 0 14 C-0.33 14 -0.66 14 -1 14 C-1.495 10.535 -1.495 10.535 -2 7 C-19.56445459 19.54010706 -30.87667562 37.83706518 -35 59 C-35.4088168 63.09470382 -35.47871023 67.13702587 -35.4375 71.25 C-35.42847656 72.34046631 -35.41945313 73.43093262 -35.41015625 74.55444336 C-34.90414146 98.31078374 -24.70334001 116.61413607 -8.078125 133.08984375 C-6.13443687 134.87642927 -4.14252811 136.46066111 -2 138 C-1.505 134.04 -1.505 134.04 -1 130 C-0.67 130 -0.34 130 0 130 C0 134.95 0 139.9 0 145 C-18.57800938 144.15554503 -34.84394991 134.90619733 -47.51318359 121.67529297 C-57.41288531 110.5206537 -65.23345972 95.06876347 -65 80 C-63.89140625 79.96261719 -62.7828125 79.92523438 -61.640625 79.88671875 C-60.17705026 79.82104552 -58.71351009 79.75459865 -57.25 79.6875 C-56.52039063 79.66494141 -55.79078125 79.64238281 -55.0390625 79.61914062 C-51.83515871 79.45894544 -49.36381527 79.19361597 -46.51171875 77.67578125 C-44.65288343 75.93673619 -44.65288343 75.93673619 -44.5625 72.5 C-44.68895842 69.11891086 -44.68895842 69.11891086 -46.27661133 67.31323242 C-48.33673267 65.7434077 -49.4454834 65.58475626 -52.01171875 65.48828125 C-53.14770508 65.43510742 -53.14770508 65.43510742 -54.30664062 65.38085938 C-55.09232422 65.35830078 -55.87800781 65.33574219 -56.6875 65.3125 C-57.48478516 65.27833984 -58.28207031 65.24417969 -59.10351562 65.20898438 C-61.06851904 65.12661896 -63.03423696 65.06162933 -65 65 C-65.54455642 50.01644762 -58.38742766 35.93234653 -48.6875 24.8125 C-47.14343417 23.19058211 -45.58085525 21.58608122 -44 20 C-43.25105469 19.22785156 -42.50210937 18.45570313 -41.73046875 17.66015625 C-30.25404195 6.52630936 -16.04460183 0 0 0 Z " fill="#AFE1F6" transform="translate(365,311)"/>
<path d="M0 0 C6.14635549 4.72898472 11.07763183 10.88301999 12.125 18.73828125 C12.59224214 28.19993463 8.94347725 34.36144728 2.81225586 41.21826172 C-0.59833138 44.92989334 -4.08482956 48.55656373 -7.625 52.14453125 C-8.33720703 52.88574219 -9.04941406 53.62695312 -9.78320312 54.390625 C-15.97512394 60.6556566 -22.6342948 65.38910054 -31.75 65.76953125 C-38.51011381 65.68071224 -43.99500672 63.22408845 -49.04296875 58.75 C-54.82567722 52.42471641 -56.50230925 46.17633523 -56.78125 37.75 C-54.9453794 27.3749155 -48.19561707 20.67787012 -40.875 13.58203125 C-39.96298828 12.66744141 -39.05097656 11.75285156 -38.11132812 10.81054688 C-27.88152898 0.72741152 -14.54310444 -8.57437199 0 0 Z " fill="#030404" transform="translate(404.1875,342.60546875)"/>
<path d="M0 0 C1.17349503 -0.0038269 2.34699005 -0.00765381 3.55604553 -0.01159668 C6.03305928 -0.01431371 8.51010183 -0.00696732 10.98706055 0.00976562 C14.76872087 0.03115703 18.5484771 0.0099646 22.33007812 -0.015625 C24.74088959 -0.01298131 27.15169988 -0.0078555 29.5625 0 C31.25184914 -0.01214539 31.25184914 -0.01214539 32.97532654 -0.02453613 C39.47876854 0.05273261 43.59039626 0.59242651 48.84765625 4.53125 C52.98800125 9.87011593 54.29704683 13.79039128 53.84765625 20.53125 C52.04462001 26.57672445 48.97174848 30.06084208 43.84765625 33.53125 C40.87896434 34.52081397 38.85443835 34.68047013 35.75292969 34.72412109 C34.19551056 34.74821548 34.19551056 34.74821548 32.60662842 34.77279663 C27.85836497 34.81733904 23.11024002 34.85831217 18.36181641 34.88134766 C15.85944312 34.89790247 13.35711703 34.92518582 10.85498047 34.96337891 C7.24291504 35.01821554 3.6319572 35.04003346 0.01953125 35.0546875 C-1.09423889 35.07735687 -2.20800903 35.10002625 -3.35552979 35.12338257 C-10.33243554 35.10446101 -13.95260392 34.27407148 -19.15234375 29.53125 C-22.63362917 25.23853715 -23.87548474 20.23853044 -23.6015625 14.76953125 C-22.55089073 9.53444495 -19.72859979 5.92965015 -15.80688477 2.45043945 C-11.02765151 -0.65261388 -5.50194387 -0.03948464 0 0 Z " fill="#FEDF7C" transform="translate(357.15234375,219.46875)"/>
<path d="M0 0 C0.99 0.495 0.99 0.495 2 1 C1.01 1.33 0.02 1.66 -1 2 C-1 2.66 -1 3.32 -1 4 C-2.57716239 5.25033597 -4.21501322 6.42442042 -5.875 7.5625 C-33.01046811 26.87042924 -49.41745841 55.2855255 -55 88 C-55.50917618 91.66804588 -55.82157817 95.30180208 -56 99 C-56.05285156 99.86109375 -56.10570312 100.7221875 -56.16015625 101.609375 C-57.11358982 130.95854754 -46.72754268 160.51300336 -28 183 C-26.14681021 184.8977489 -24.26308746 186.74216449 -22.32250977 188.55029297 C-21 190 -21 190 -21 192 C-20.42378906 192.25394531 -19.84757812 192.50789062 -19.25390625 192.76953125 C-16.74912118 194.13696158 -15.00330695 195.7220874 -12.9375 197.6875 C-8.64716371 201.6131577 -4.08980585 204.60546432 0.91015625 207.5546875 C1.59980469 208.03164063 2.28945313 208.50859375 3 209 C3 209.66 3 210.32 3 211 C-21.61286359 203.45855856 -43.22441508 183.27539788 -55.26171875 160.90234375 C-57.29079424 156.98731875 -59.16543161 153.00903841 -61 149 C-61.40992188 148.14148438 -61.81984375 147.28296875 -62.2421875 146.3984375 C-63.32261477 143.96119458 -64.18833952 141.54006248 -65 139 C-65.556875 137.25783203 -65.556875 137.25783203 -66.125 135.48046875 C-68.94988054 125.52273467 -69.40101565 115.61020889 -69.4375 105.3125 C-69.44749023 104.03093018 -69.45748047 102.74936035 -69.46777344 101.42895508 C-69.20086725 71.63269166 -55.97527316 44.08147682 -35.1796875 23.09375 C-25.00413897 13.4818616 -13.05661405 5.20807757 0 0 Z " fill="#FBCC62" transform="translate(328,278)"/>
<path d="M0 0 C1.875 1.1875 1.875 1.1875 3 3 C3.1875 6.1875 3.1875 6.1875 3 9 C3.86625 9.061875 4.7325 9.12375 5.625 9.1875 C9.91867418 10.2211623 11.96129901 11.81996408 15 15 C16.125 18 16.125 18 16 21 C14.5625 23.875 14.5625 23.875 12 26 C7.73834601 26.8300812 4.6669139 26.44460927 1 24 C-1.21582589 23.68439676 -1.21582589 23.68439676 -3.5625 23.75 C-4.34753906 23.74484375 -5.13257813 23.7396875 -5.94140625 23.734375 C-8.22290968 23.81570738 -8.22290968 23.81570738 -10 26 C-10.16687448 28.58354218 -10.16687448 28.58354218 -10 31 C-8.47604164 31.76197918 -6.95202504 32.52384205 -5.42773438 33.28515625 C-4.13632687 33.93151421 -2.84596904 34.57997341 -1.55664062 35.23046875 C1.11119394 36.57382731 3.76925013 37.89760475 6.5 39.109375 C12.75882233 41.89650682 17.44961885 46.55449128 20 53 C20.8618113 60.57592257 20.87076754 67.83036111 16 74 C12.94077162 77.15953095 9.85753806 80.16742491 5.8125 81.98046875 C2.82968138 83.65830422 2.88881176 86.8336081 2 90 C-0.15897282 92.3078675 -1.39988964 92.89498069 -4.5 93.4375 C-7.89456558 92.84345102 -8.9680513 91.75764467 -11 89 C-11.75 85.75 -11.75 85.75 -12 83 C-13.03125 82.9175 -14.0625 82.835 -15.125 82.75 C-20.21229473 81.76536231 -23.25149467 79.69210193 -26.9375 76.125 C-28.4688663 73.06226741 -27.9613396 71.22735437 -27 68 C-25.875 66.125 -25.875 66.125 -24 65 C-20.03478037 64.55110721 -17.68605505 64.64205824 -14.125 66.5 C-9.98959312 68.4849953 -6.51510595 68.63194853 -2 68 C1.76398568 66.2880813 1.76398568 66.2880813 4 63 C4.04022391 60.6670134 4.04320247 58.33293334 4 56 C3.41734375 55.70867187 2.8346875 55.41734375 2.234375 55.1171875 C0.48801804 54.24400902 -1.25662481 53.367398 -3 52.48828125 C-5.02944374 51.4814869 -7.07175707 50.50029327 -9.125 49.54296875 C-16.03769861 46.26807778 -21.29313023 43.42942326 -25.375 36.75 C-26.90101637 30.03552796 -26.78329154 23.8950725 -23.34765625 17.82421875 C-20.61568305 14.12615648 -17.11698261 11.0584913 -13 9 C-12.54625 7.88625 -12.0925 6.7725 -11.625 5.625 C-8.90859225 -0.43467883 -6.48249485 -1.93095591 0 0 Z " fill="#030404" transform="translate(259,55)"/>
<path d="M0 0 C6.79264468 4.02773256 10.50342202 8.7373999 12.99609375 16.18359375 C14.223464 23.67588867 12.93785927 30.68410959 8.99609375 37.18359375 C3.83122661 43.25116997 -1.99640744 46.57392563 -9.859375 47.53125 C-17.11939253 47.89011018 -22.26080702 46.7074239 -28.00390625 42.18359375 C-34.01889047 36.63028595 -37.10283516 30.6247147 -37.50390625 22.37109375 C-37.29861701 15.2395241 -35.11329403 9.67703893 -30.359375 4.3359375 C-21.60318324 -3.70869015 -10.61798596 -5.46987156 0 0 Z " fill="#F2F9FD" transform="translate(195.00390625,216.81640625)"/>
<path d="M0 0 C6.44859453 3.65524199 11.42902182 8.86574182 13.6875 16 C14.56597825 23.88587454 14.32921713 31.34297152 9.6875 38 C4.77411435 43.45694892 -0.67140802 47.48646285 -8.13671875 48.3125 C-17.48832838 48.68797241 -23.38417653 46.17666574 -30.3125 40 C-34.67761212 33.45706621 -37.73367553 26.90977494 -36.3125 19 C-34.73045562 11.39846969 -31.50040269 5.94870154 -25.12109375 1.45703125 C-17.00465589 -3.19396123 -8.60128716 -3.83729655 0 0 Z " fill="#F2F9FD" transform="translate(102.3125,307)"/>
<path d="M0 0 C6.44859453 3.65524199 11.42902182 8.86574182 13.6875 16 C14.56346993 23.86335794 14.3768446 31.39001959 9.6875 38 C4.84995878 43.21660228 0.1498256 47.52607025 -7.14453125 48.30078125 C-16.35253792 48.33698573 -22.8608205 47.06289224 -29.7734375 40.75 C-34.67523213 35.17638581 -36.8112996 28.21445839 -36.71484375 20.89453125 C-35.70210099 13.60868283 -32.06343663 6.89778751 -26.25 2.375 C-18.22632705 -3.03974862 -8.90206081 -4.04267899 0 0 Z " fill="#F2F9FD" transform="translate(102.3125,216)"/>
<path d="M0 0 C6.86875676 3.91397857 11.33958251 9.3194417 13.625 16.9375 C14.73418942 25.94795237 12.73638692 32.98032282 7.375 40.25 C2.19999502 45.30739123 -4.19929757 48.04171833 -11.4375 48.3125 C-18.47784917 48.22868632 -23.91701171 45.94317758 -29.2265625 41.328125 C-35.04590908 35.07877744 -37.05510869 28.20851574 -36.78515625 19.74609375 C-35.72102981 12.45936128 -32.01787263 6.53706432 -26.17578125 2.12109375 C-18.06143608 -3.21219602 -8.88864477 -4.06223132 0 0 Z " fill="#F2F9FD" transform="translate(194.375,307.0625)"/>
<path d="M0 0 C-0.89525391 0.36931641 -0.89525391 0.36931641 -1.80859375 0.74609375 C-4.37608191 2.21519126 -5.43708809 3.6048772 -7.0625 6.0625 C-7.54847656 6.77535156 -8.03445313 7.48820313 -8.53515625 8.22265625 C-13.18691044 17.0423822 -13.32807465 24.9290822 -13.07266808 34.62911224 C-13.01050559 37.09499909 -12.97253354 39.56020912 -12.94136047 42.02667236 C-12.8504033 49.03294009 -12.73169801 56.038161 -12.5612793 63.04296875 C-12.45831091 67.34567318 -12.39584326 71.64746467 -12.35779762 75.95121002 C-12.3357107 77.57632049 -12.29880969 79.20130884 -12.24585533 80.82570648 C-11.86157156 92.79613576 -13.95026528 99.27973004 -21 109 C-22.49681961 111.87983726 -23.77482165 114.80874149 -25 117.8125 C-25.29777344 118.51697266 -25.59554687 119.22144531 -25.90234375 119.94726562 C-26.61103388 121.62754705 -27.30707338 123.31315677 -28 125 C-30.39509008 122.60490992 -30.25307225 122.09061963 -30.26742554 118.82711792 C-30.27595551 117.9524437 -30.28448547 117.07776947 -30.29327393 116.17658997 C-30.29191437 114.73348701 -30.29191437 114.73348701 -30.29052734 113.26123047 C-30.29724457 112.24966385 -30.30396179 111.23809723 -30.31088257 110.19587708 C-30.32995042 106.83626449 -30.33379182 103.47685091 -30.3359375 100.1171875 C-30.34236158 97.7850842 -30.34908964 95.45298171 -30.35610962 93.12088013 C-30.36810596 88.22314588 -30.37178825 83.32548228 -30.37060547 78.42773438 C-30.37040266 72.15974411 -30.39765489 65.89220922 -30.43214989 59.62432671 C-30.45442418 54.80294732 -30.45844276 49.98167718 -30.45738602 45.16025162 C-30.45974309 42.85024579 -30.46857256 40.540237 -30.48405075 38.23028183 C-30.5037115 34.99158002 -30.49787061 31.75385527 -30.48583984 28.51513672 C-30.49707886 27.56521347 -30.50831787 26.61529022 -30.51989746 25.63658142 C-30.45283376 18.50895 -28.78231217 13.24125026 -24.10546875 7.79296875 C-16.25503877 1.22163123 -10.16532234 -0.49631773 0 0 Z " fill="#E2F4FD" transform="translate(280,214)"/>
<path d="M0 0 C2.8100346 1.79363911 4.50940468 3.01880935 6 6 C6.49071637 10.31830403 5.88438707 12.69309802 3.40649414 16.23388672 C0.41600735 19.98899546 -3.03010076 23.3150186 -6.4375 26.6875 C-7.18837891 27.44611328 -7.93925781 28.20472656 -8.71289062 28.98632812 C-9.44572266 29.71658203 -10.17855469 30.44683594 -10.93359375 31.19921875 C-11.9244397 32.18668091 -11.9244397 32.18668091 -12.93530273 33.1940918 C-16.48194386 36.29619709 -18.76749783 38.04324569 -23.5625 37.875 C-26.87814444 37.03101778 -28.60623921 36.39376079 -31 34 C-32.21692691 30.34921928 -32.38891129 27.83998993 -32 24 C-30.3941558 21.68130751 -29.01030549 20.00178265 -27.03125 18.06640625 C-26.51751831 17.5436058 -26.00378662 17.02080536 -25.4744873 16.48216248 C-24.38686521 15.38542617 -23.29031169 14.29748367 -22.18554688 13.21801758 C-20.50592521 11.56831965 -18.87012398 9.88253205 -17.234375 8.18945312 C-16.1690767 7.12518632 -15.1014399 6.0632541 -14.03125 5.00390625 C-13.54756958 4.50089493 -13.06388916 3.99788361 -12.56555176 3.47962952 C-8.35286638 -0.54002307 -5.52888741 -0.62444656 0 0 Z " fill="#3E6D8F" transform="translate(395,355)"/>
<path d="M0 0 C-0.91265625 0.41572266 -0.91265625 0.41572266 -1.84375 0.83984375 C-6.92469367 3.57361236 -10.12319867 9.04223366 -12.265625 14.2578125 C-14.80823624 23.75203106 -13.44201322 32.68032235 -9.484375 41.51171875 C-7.05424678 45.58538106 -4.36412347 48.12966137 0 50 C-9.34627185 50.56077631 -14.93805588 49.59209389 -22.515625 44.21484375 C-27.25712863 39.98774853 -30.26371886 33.7526587 -31.484375 27.53125 C-31.73014233 20.55145789 -29.67897136 13.80116081 -25.4375 8.25 C-18.18985426 0.61058963 -10.17244055 -0.78652891 0 0 Z " fill="#DFF0F9" transform="translate(97,305)"/>
<path d="M0 0 C1.06863281 0.01804688 2.13726562 0.03609375 3.23828125 0.0546875 C4.04652344 0.07789063 4.85476562 0.10109375 5.6875 0.125 C4.77484375 0.54265625 4.77484375 0.54265625 3.84375 0.96875 C-1.66038821 3.9202444 -4.48806227 9.56081418 -6.5859375 15.21484375 C-8.71436714 23.74000547 -8.29976511 33.21326136 -4.3125 41.125 C-2.29206529 44.42885551 -0.05887477 47.37862523 2.6875 50.125 C-5.07062792 50.540614 -10.85791549 49.2926866 -17.0625 44.4375 C-22.32002876 39.63610387 -25.36587802 32.77629645 -25.75 25.6875 C-25.65229404 18.27270362 -22.52444147 11.36824695 -17.30859375 6.1015625 C-11.81010899 1.82380396 -7.03573811 -0.15463161 0 0 Z " fill="#DFF1F9" transform="translate(91.3125,213.875)"/>
<path d="M0 0 C-0.61875 0.0825 -1.2375 0.165 -1.875 0.25 C-4.14281617 0.79587615 -4.14281617 0.79587615 -5.09375 2.83203125 C-5.3928125 3.54746094 -5.691875 4.26289063 -6 5 C-6.82496285 6.23480016 -7.65858245 7.46385314 -8.5 8.6875 C-13.30427734 16.39140036 -13.71407909 24.19360814 -12 33 C-10.08443466 39.49585278 -7.1566195 44.68876398 -3 50 C-10.40129747 50.58740456 -15.01593422 49.47396255 -21 45 C-27.02681117 39.47214052 -30.09984724 33.42222254 -30.5 25.1875 C-30.29471076 18.05593035 -28.10938778 12.49344518 -23.35546875 7.15234375 C-16.25075487 0.6249881 -9.36789245 -0.45738354 0 0 Z " fill="#DFF1FA" transform="translate(188,214)"/>
<path d="M0 0 C0 0.33 0 0.66 0 1 C-1.299375 1.185625 -1.299375 1.185625 -2.625 1.375 C-8.32805636 4.12091602 -10.68153625 9.49613743 -12.85546875 15.2734375 C-15.43082567 24.84892564 -13.4378708 34.31243666 -9 43 C-6.62128573 46.56807141 -4.82265288 48.21609532 -1 50 C-9.18942642 50.70061633 -15.17368077 49.74249546 -22 45 C-27.50615253 40.21406151 -30.38067562 34.58300045 -31.3515625 27.3984375 C-31.77559988 19.47563376 -29.65553331 13.11573109 -24.35546875 7.1484375 C-16.92899841 0.34223669 -9.75144039 -0.43232987 0 0 Z " fill="#E0F2FB" transform="translate(189,305)"/>
<path d="M0 0 C1.24716797 0.02707031 1.24716797 0.02707031 2.51953125 0.0546875 C4.55519074 0.10148427 6.5902509 0.17321702 8.625 0.25 C8.2640625 0.91644531 7.903125 1.58289063 7.53125 2.26953125 C3.7442608 9.79091258 2.04098503 16.27485491 4.2421875 24.578125 C5.44499001 27.92613199 7.0225891 31.08001322 8.625 34.25 C5.76920924 34.38599004 2.91998825 34.48454826 0.0625 34.5625 C-0.73736328 34.60439453 -1.53722656 34.64628906 -2.36132812 34.68945312 C-7.67542928 34.79790417 -10.85294719 33.98545879 -14.99243164 30.5847168 C-18.93573757 26.77789117 -20.58267317 22.16577796 -20.9375 16.75 C-20.68726495 11.7539278 -18.74322701 7.90805119 -15.375 4.25 C-10.27659516 -0.10360775 -6.38357006 -0.26470944 0 0 Z " fill="#FBCD62" transform="translate(354.375,219.75)"/>
</svg>
