<?xml version="1.0" encoding="UTF-8"?>
<svg version="1.1" xmlns="http://www.w3.org/2000/svg" width="512" height="512">
<path d="M0 0 C0.97016556 -0.00708481 1.94033112 -0.01416962 2.93989563 -0.02146912 C3.99254105 -0.0189917 5.04518646 -0.01651428 6.12973022 -0.01396179 C7.24730209 -0.01907272 8.36487396 -0.02418365 9.51631165 -0.02944946 C13.20830648 -0.04334396 16.9001147 -0.04238923 20.59213257 -0.04008484 C23.15612864 -0.04397087 25.72012406 -0.04830535 28.28411865 -0.05307007 C33.65569419 -0.06053127 39.02719728 -0.0603792 44.39877319 -0.05497742 C50.60925708 -0.04892823 56.81951495 -0.06127546 63.02996027 -0.08254749 C69.00740066 -0.1022687 74.98472235 -0.10533989 80.96220016 -0.10181236 C83.50519721 -0.10232695 86.04819777 -0.1075903 88.59117508 -0.11762428 C92.13936249 -0.12990974 95.68702055 -0.123245 99.23519897 -0.11161804 C100.29189285 -0.11926178 101.34858673 -0.12690552 102.43730164 -0.13478088 C103.40182755 -0.12776657 104.36635345 -0.12075226 105.36010742 -0.11352539 C106.1988975 -0.11369313 107.03768757 -0.11386087 107.90189552 -0.1140337 C110.57504616 0.35162356 111.42395198 1.1246617 113.05307007 3.26069641 C113.38307007 4.25069641 113.71307007 5.24069641 114.05307007 6.26069641 C120.32307007 6.59069641 126.59307007 6.92069641 133.05307007 7.26069641 C133.38307007 5.61069641 133.71307007 3.96069641 134.05307007 2.26069641 C137.85152423 -0.27160637 140.96992016 -0.0805027 145.37728882 -0.11039734 C146.60763603 -0.12394005 146.60763603 -0.12394005 147.86283875 -0.13775635 C149.60028434 -0.15226436 151.33778463 -0.16114696 153.07528687 -0.1648407 C155.71402262 -0.17668443 158.35037849 -0.22581526 160.98861694 -0.27641296 C162.68066288 -0.28588399 164.37272313 -0.29311577 166.06478882 -0.29789734 C167.23554207 -0.32719582 167.23554207 -0.32719582 168.4299469 -0.35708618 C175.89279189 -0.29665038 180.62659949 2.8881474 185.86557007 8.01069641 C190.6610517 15.13541198 191.53012043 21.79746961 191.05307007 30.26069641 C191.72209351 30.21429016 192.39111694 30.16788391 193.08041382 30.12007141 C216.30563717 29.24717711 237.1496196 40.01493945 254.05307007 55.26069641 C270.65816678 71.38136567 280.87429886 94.21941594 281.29476929 117.41181946 C281.39592686 144.51312241 272.25636494 167.79307962 253.05307007 187.26069641 C250.47777685 189.54017892 247.87423832 191.6640677 245.11166382 193.70991516 C243.24876142 195.11327807 241.65269337 196.56908199 240.05307007 198.26069641 C240.52615601 198.6873761 240.99924194 199.11405579 241.48666382 199.55366516 C252.7094901 210.16393952 263.41534045 225.31745608 264.05307007 241.26069641 C265.20807007 241.17819641 266.36307007 241.09569641 267.55307007 241.01069641 C273.28561298 241.04108091 277.63676082 243.00476167 281.81869507 246.90913391 C286.47472885 252.08501612 288.29896204 256.486217 288.32049561 263.52722168 C288.32902557 264.79018066 288.33755554 266.05313965 288.34634399 267.35437012 C288.34564502 268.7465669 288.34472198 270.13876358 288.34359741 271.53096008 C288.34958458 273.00314169 288.35639057 274.47532015 288.36395264 275.94749451 C288.38160478 279.94156097 288.3863078 283.93554169 288.38758421 287.92964339 C288.38900728 290.42816477 288.39327993 292.92666445 288.39857864 295.42518044 C288.41707923 304.1510468 288.42524958 312.8768521 288.42367554 321.60273743 C288.42247546 329.72057413 288.44355139 337.83814439 288.47516286 345.95591372 C288.50137354 352.93701743 288.51204077 359.91803441 288.51076472 366.89918691 C288.51025631 371.0634325 288.5158714 375.22744147 288.53712082 379.3916378 C288.55658319 383.31272919 288.55657363 387.23336026 288.54208755 391.15446854 C288.54000793 392.58706782 288.54464955 394.01969652 288.55680847 395.45224571 C288.65437155 407.75179239 286.3930318 417.00513028 278.05307007 426.26069641 C273.61142827 430.68228565 268.61069408 435.26069641 262.05307007 435.26069641 C262.29541382 436.49819641 262.53775757 437.73569641 262.78744507 439.01069641 C264.71483428 448.93170937 266.56807991 458.86668302 268.30307007 468.82319641 C268.4780603 469.7841925 268.65305054 470.7451886 268.83334351 471.73530579 C270.97680821 484.28557198 270.98440325 493.71865743 263.92807007 504.51069641 C257.8080406 510.36463764 252.03634672 512.57721362 243.55307007 512.88569641 C235.53483139 512.57046324 229.89962249 510.83718728 223.99447632 505.34663391 C216.6135261 496.90687794 215.73861947 485.29705111 214.01010132 474.58882141 C213.85585693 473.65731262 213.70161255 472.72580383 213.54269409 471.7660675 C212.97825691 468.34849726 212.42238677 464.92951651 211.86557007 461.51069641 C210.60744507 453.83819641 209.34932007 446.16569641 208.05307007 438.26069641 C189.90307007 437.93069641 171.75307007 437.60069641 153.05307007 437.26069641 C153.08787476 441.28257141 153.12267944 445.30444641 153.15853882 449.44819641 C153.17785735 452.67275718 153.19411665 455.89730141 153.20832062 459.12188721 C153.22410499 462.5160958 153.2451671 465.91007641 153.27938843 469.30415344 C153.31590482 473.20639544 153.33282756 477.10831432 153.34603882 481.01069641 C153.36152267 482.21621155 153.37700653 483.42172668 153.39295959 484.66377258 C153.39471496 493.49960167 152.48581671 500.64415701 146.05307007 507.26069641 C140.13089286 511.61168375 135.95220947 512.40888658 128.76026917 512.40113831 C127.47645535 512.40559499 127.47645535 512.40559499 126.16670591 512.41014171 C123.28791579 512.4188396 120.40916721 512.42033787 117.53036499 512.42182922 C115.47071748 512.42645661 113.41107082 512.43148116 111.35142517 512.43687439 C105.7480732 512.45000771 100.14473321 512.45644512 94.54136825 512.46088505 C91.0421932 512.46381417 87.54302144 512.46791866 84.04384804 512.47238922 C73.10029432 512.48606638 62.15674811 512.49573206 51.21318644 512.49959111 C38.57192605 512.50407306 25.93077372 512.52162647 13.28954619 512.55059171 C3.5238654 512.57219296 -6.24178495 512.58229456 -16.00748938 512.58363223 C-21.84273567 512.58468134 -27.6778804 512.59061174 -33.51310158 512.60845184 C-39.00174212 512.62490564 -44.49020447 512.62710108 -49.97886086 512.61831284 C-51.99365719 512.61754103 -54.008463 512.62190402 -56.02323532 512.63177109 C-58.77342943 512.64445016 -61.52298861 512.63863574 -64.2731781 512.62818909 C-65.07075383 512.63624549 -65.86832957 512.6443019 -66.69007427 512.65260243 C-73.72339805 512.59010523 -78.81027798 510.12699826 -83.94692993 505.26069641 C-87.77414076 499.76389696 -89.07507895 495.18405438 -89.06045532 488.57417297 C-89.06037979 487.43329224 -89.06030426 486.2924115 -89.06022644 485.11695862 C-89.05506516 483.89079834 -89.04990387 482.66463806 -89.04458618 481.40132141 C-89.04246376 479.51204926 -89.04246376 479.51204926 -89.04029846 477.58460999 C-89.03565066 474.24404522 -89.02667275 470.9035492 -89.01559448 467.56300354 C-89.00534592 464.15104272 -89.0007386 460.73907457 -88.99575806 457.32710266 C-88.98558027 450.63826194 -88.96600458 443.94954138 -88.94692993 437.26069641 C-116.17192993 437.75569641 -116.17192993 437.75569641 -143.94692993 438.26069641 C-146.78169296 455.29636255 -146.78169296 455.29636255 -149.60049438 472.33467102 C-149.96149343 474.48589034 -150.32303028 476.63701951 -150.68521118 478.78804016 C-150.86418945 479.88636169 -151.04316772 480.98468323 -151.22756958 482.11628723 C-153.05667048 492.89816432 -154.8716119 502.02708101 -164.03286743 508.80366516 C-171.29120685 513.10802923 -178.70695097 513.33509022 -186.94692993 512.26069641 C-194.93284552 510.04120657 -199.68077148 505.20097751 -203.94692993 498.26069641 C-209.75294121 486.90110913 -204.5853125 470.60497392 -202.50942993 458.69819641 C-202.1798048 456.75498088 -201.85102214 454.81162223 -201.52310181 452.86811829 C-201.20810814 451.01837907 -200.8923799 449.16876475 -200.57583618 447.31929016 C-200.42788101 446.45371994 -200.27992584 445.58814972 -200.12748718 444.6963501 C-199.98741745 443.89443741 -199.84734772 443.09252472 -199.70303345 442.26631165 C-199.58089981 441.56304245 -199.45876617 440.85977325 -199.33293152 440.13519287 C-198.94692993 438.26069641 -198.94692993 438.26069641 -197.94692993 435.26069641 C-198.68169556 435.14854797 -199.41646118 435.03639954 -200.17349243 434.92085266 C-208.07913119 433.03908794 -214.32442016 426.67217749 -218.94692993 420.26069641 C-222.68859249 414.00563742 -224.06344303 408.92460639 -224.12393188 401.61201477 C-224.13050308 400.95300674 -224.13707428 400.29399872 -224.1438446 399.61502075 C-224.16348928 397.44352595 -224.17521584 395.27209977 -224.18521118 393.10054016 C-224.18928671 392.35773867 -224.19336224 391.61493717 -224.19756126 390.84962654 C-224.21837703 386.92342027 -224.23270218 382.99724857 -224.24209595 379.07099915 C-224.25319497 375.01313379 -224.28764687 370.95581159 -224.32726765 366.898139 C-224.3533674 363.77806558 -224.36178144 360.65812351 -224.36537743 357.53795052 C-224.37025496 356.04157881 -224.38190216 354.54521342 -224.40041542 353.04894829 C-224.42468398 350.95884813 -224.42386652 348.87018049 -224.41690063 346.77998352 C-224.42276688 345.59069748 -224.42863312 344.40141144 -224.43467712 343.17608643 C-223.94692993 340.26069641 -223.94692993 340.26069641 -222.10505676 338.35324097 C-219.94692993 337.26069641 -219.94692993 337.26069641 -216.94692993 337.26069641 C-216.94692993 330.66069641 -216.94692993 324.06069641 -216.94692993 317.26069641 C-218.59692993 316.93069641 -220.24692993 316.60069641 -221.94692993 316.26069641 C-224.55034909 313.65727726 -224.20935994 312.55488617 -224.23745728 308.92817688 C-224.25021698 307.81296661 -224.26297668 306.69775635 -224.27612305 305.54875183 C-224.27834869 304.33736542 -224.28057434 303.125979 -224.28286743 301.87788391 C-224.28952423 300.63451263 -224.29618103 299.39114136 -224.30303955 298.11009216 C-224.31318504 295.47199762 -224.31871916 292.83431474 -224.3175354 290.19624329 C-224.31737322 287.49968028 -224.33119114 284.80379912 -224.35855103 282.1073761 C-224.39529569 278.21816796 -224.4050139 274.32974864 -224.40786743 270.44038391 C-224.42223846 269.24114288 -224.4366095 268.04190186 -224.45141602 266.80632019 C-224.408596 258.91405243 -223.5065668 253.38573421 -218.20083618 247.23725891 C-212.01764355 242.29641676 -207.84898669 240.99283008 -199.94692993 241.26069641 C-199.90567993 240.22944641 -199.86442993 239.19819641 -199.82192993 238.13569641 C-197.9690157 223.62120156 -188.46398912 211.57643577 -178.66958618 201.38960266 C-176.63241289 199.32843651 -176.63241289 199.32843651 -176.94692993 196.26069641 C-178.44155833 194.81106346 -178.44155833 194.81106346 -180.44692993 193.51069641 C-199.44117766 179.866941 -211.95957147 159.68696338 -216.12246704 136.62446594 C-220.09487531 111.10786934 -214.07715926 86.26576834 -198.85317993 65.38960266 C-184.78987423 47.53811779 -164.19441247 33.4887494 -141.23599243 30.47602844 C-115.12634407 28.01989471 -90.70242541 31.9944699 -69.84536743 48.73725891 C-52.52368381 63.81786217 -39.46059024 81.98840089 -35.94692993 105.26069641 C-35.83735962 105.95936829 -35.72778931 106.65804016 -35.61489868 107.37788391 C-33.31117594 124.6404463 -35.68481119 142.43188669 -42.94692993 158.26069641 C-43.31560181 159.11663391 -43.68427368 159.97257141 -44.06411743 160.85444641 C-50.95860317 175.87967051 -63.45158345 188.91776423 -76.94692993 198.26069641 C-76.47384399 198.6151886 -76.00075806 198.96968079 -75.51333618 199.33491516 C-59.59525788 212.15005423 -52.40955878 231.55966564 -49.94692993 251.26069641 C-49.94692993 262.81069641 -49.94692993 274.36069641 -49.94692993 286.26069641 C-17.93692993 286.26069641 14.07307007 286.26069641 47.05307007 286.26069641 C47.05307007 281.97069641 47.05307007 277.68069641 47.05307007 273.26069641 C50.21855483 263.51100334 55.86691831 256.92484342 64.93978882 252.17085266 C76.35059527 247.25640182 87.80561682 251.31411516 98.80307007 255.26069641 C100.19310764 255.74415952 101.58373091 256.22594205 102.97494507 256.70600891 C106.34127836 257.87165239 109.69916894 259.05968039 113.05307007 260.26069641 C113.12300171 259.6570929 113.19293335 259.05348938 113.26498413 258.43159485 C115.88225216 236.35733751 120.80628617 214.95203343 138.82650757 199.95210266 C139.56127319 199.3939386 140.29603882 198.83577454 141.05307007 198.26069641 C140.0534021 197.47759094 140.0534021 197.47759094 139.03353882 196.67866516 C116.85063205 178.96336479 102.86795222 158.20249597 99.34994507 129.57319641 C99.09879153 126.77085164 99.03034151 124.06946832 99.05307007 121.26069641 C94.49868032 121.23043087 89.94753693 121.2463865 85.3934021 121.30342102 C83.84755871 121.31648312 82.30155885 121.31736641 80.75570679 121.30537415 C70.61014402 120.92084731 70.61014402 120.92084731 61.75619507 125.04975891 C60.49388849 126.42833983 59.26300744 127.83593158 58.05307007 129.26069641 C56.6204832 130.69970123 55.18705702 132.13794761 53.74118042 133.56359863 C50.51429704 136.75296229 47.34473622 139.99996895 44.16928101 143.24043274 C42.58805909 144.85184335 41.00067975 146.45698285 39.41244507 148.06147766 C38.93321594 148.55416641 38.45398682 149.04685516 37.9602356 149.55447388 C33.69138676 153.85506611 30.73564603 155.55085641 24.67807007 155.63569641 C19.68200669 155.54243656 16.85811394 154.6852359 13.05307007 151.26069641 C9.5955513 147.32627851 8.92694288 144.08971691 8.95541382 138.93647766 C8.95863647 137.90845032 8.96185913 136.88042297 8.96517944 135.82124329 C8.97355835 134.74938782 8.98193726 133.67753235 8.99057007 132.57319641 C8.99508179 131.48973938 8.99959351 130.40628235 9.00424194 129.28999329 C9.01603264 126.61350556 9.03248943 123.93712864 9.05307007 121.26069641 C8.22436401 121.30226868 7.39565796 121.34384094 6.5418396 121.38667297 C-1.55650121 121.72990317 -7.85861594 121.01223358 -13.98599243 115.38960266 C-19.67562209 109.19656955 -21.24721389 104.26090461 -21.23745728 95.8495636 C-21.2441745 95.01472946 -21.25089172 94.17989532 -21.2578125 93.31976318 C-21.27677649 90.56563832 -21.28071618 87.81175747 -21.28286743 85.05757141 C-21.28929752 83.13571575 -21.29602604 81.21386107 -21.30303955 79.29200745 C-21.31500907 75.26380648 -21.31872081 71.23569125 -21.3175354 67.20747375 C-21.31733247 62.0617516 -21.344609 56.91658336 -21.37907982 51.77099228 C-21.40139023 47.80054736 -21.40537164 43.83023475 -21.40431595 39.85973358 C-21.40666665 37.96363165 -21.41546012 36.06752577 -21.43098068 34.1714859 C-21.45072047 31.51040654 -21.44477127 28.85050838 -21.43276978 26.18940735 C-21.44400879 25.4161058 -21.4552478 24.64280426 -21.46682739 23.84606934 C-21.39290748 17.35039026 -19.68894936 11.22645957 -15.19687462 6.36783981 C-10.64912586 2.20494774 -6.25269314 0.01528921 0 0 Z " fill="#010101" transform="translate(223.94692993164063,-0.2606964111328125)"/>
<path d="M0 0 C1.19026291 -0.00860046 2.38052582 -0.01720093 3.6068573 -0.02606201 C5.56824646 -0.03245193 5.56824646 -0.03245193 7.56925964 -0.03897095 C8.95896611 -0.04687378 10.34867053 -0.05514284 11.7383728 -0.06375122 C16.30331977 -0.08994766 20.8682758 -0.1052752 25.43327332 -0.11953735 C27.00537815 -0.12489777 28.57748292 -0.13027528 30.14958763 -0.13566971 C36.68897234 -0.15729381 43.2283546 -0.17603068 49.767766 -0.1872921 C59.1370644 -0.20353368 68.50594828 -0.23672148 77.87509042 -0.29369295 C84.4645745 -0.3323953 91.05394771 -0.35192504 97.64354247 -0.35721266 C101.57862896 -0.3608654 105.51327308 -0.37287784 109.44823647 -0.4053154 C113.15101926 -0.43540225 116.85309217 -0.44170625 120.55597115 -0.42993164 C122.55872875 -0.42960592 124.56144259 -0.45406683 126.56404114 -0.47930908 C136.37584893 -0.41122047 136.37584893 -0.41122047 139.94088745 2.59320068 C141.10307549 3.86074692 141.10307549 3.86074692 142.28874207 5.15390015 C145.52730756 6.76946116 145.52730756 6.76946116 149.03874207 8.02890015 C149.69447205 8.28099243 150.35020203 8.53308472 151.02580261 8.79281616 C153.74083981 9.83435371 156.46595486 10.84796772 159.1915741 11.86141968 C161.16418706 12.59775951 163.13349627 13.34214938 165.10124207 14.09140015 C165.81095154 14.36105591 166.52066101 14.63071167 167.25187683 14.90853882 C172.73310758 17.04142167 178.10497563 19.38479451 183.46842957 21.79452515 C184.20310959 22.12356339 184.93778961 22.45260162 185.69473267 22.79161072 C189.40168225 24.45360105 193.10204241 26.12826381 196.79386902 27.82357788 C208.636082 33.20007679 220.55092001 37.6312218 233.72624207 37.90390015 C234.4693866 37.93354858 235.21253113 37.96319702 235.97819519 37.9937439 C237.74785693 38.06224693 239.51828536 38.11055971 241.28874207 38.15390015 C234.94581804 44.84920884 234.94581804 44.84920884 230.09503174 45.40545654 C228.90519936 45.40734482 228.90519936 45.40734482 227.69132996 45.40927124 C226.78681595 45.41623016 225.88230194 45.42318909 224.95037842 45.43035889 C223.98051498 45.42936188 223.01065155 45.42836487 222.01139832 45.42733765 C219.95084598 45.44762378 217.89029914 45.46847451 215.82975769 45.48983765 C212.58630223 45.51245211 209.34306381 45.52891488 206.09953308 45.53475952 C202.96559081 45.54427867 199.83262247 45.57804589 196.69889832 45.61483765 C195.24713951 45.60726944 195.24713951 45.60726944 193.76605225 45.59954834 C189.4714401 45.66230323 186.92304285 45.78884132 183.14201355 47.9649353 C180.91341076 50.12917271 180.91341076 50.12917271 181.22624207 53.71640015 C182.41474291 57.56154993 182.86207815 58.25897888 186.28874207 60.15390015 C189.67400447 60.65876984 189.67400447 60.65876984 193.46061707 60.6656189 C194.48424347 60.6925457 194.48424347 60.6925457 195.52854919 60.72001648 C197.69855147 60.77400398 199.86833532 60.80797598 202.03874207 60.84140015 C203.5140328 60.87458367 204.98929476 60.9090743 206.46452332 60.94491577 C210.07238634 61.02972172 213.68032569 61.09658851 217.28874207 61.15390015 C217.40550954 78.16503494 217.49369771 95.17604479 217.54780293 112.18748856 C217.57359196 120.08609661 217.60875545 127.98445576 217.66593933 135.88290405 C217.71575337 142.76668072 217.74802801 149.65027714 217.75918454 156.53422904 C217.76570685 160.17981765 217.78104944 163.82489059 217.81739235 167.47031403 C217.8576223 171.53857867 217.85869282 175.60594512 217.85636902 179.67440796 C217.8743454 180.8849736 217.89232178 182.09553925 217.9108429 183.3427887 C217.90396957 184.45054153 217.89709625 185.55829437 217.89001465 186.69961548 C217.8969281 188.14314329 217.8969281 188.14314329 217.90398121 189.61583328 C217.28874207 192.15390015 217.28874207 192.15390015 215.2635603 194.46220589 C211.49160406 196.60720979 208.31388077 196.71707248 204.09037781 196.67529297 C203.26883949 196.68294406 202.44730117 196.69059516 201.60086775 196.6984781 C198.85008057 196.71910384 196.10013101 196.71116132 193.34928894 196.70321655 C191.37638578 196.7119114 189.40348938 196.72227791 187.43060303 196.73419189 C182.0732202 196.76098584 176.71611942 196.76212797 171.35868263 196.7570653 C166.88777436 196.75492716 162.41692331 196.76468909 157.94602728 196.77427614 C147.4005541 196.79647053 136.8552234 196.79733848 126.30973816 196.7852478 C115.42537034 196.77316069 104.54151911 196.797808 93.65723944 196.84038794 C84.31527833 196.87559235 74.97348187 196.88762723 65.63145685 196.88111246 C60.05047721 196.87748254 54.46986621 196.88280082 48.88894653 196.91054153 C43.64219231 196.93564543 38.39624516 196.93186183 33.14950371 196.90571976 C31.22297839 196.90097768 29.29639673 196.90649555 27.36993599 196.922966 C24.74138338 196.94382048 22.11555956 196.92777541 19.48710632 196.90234375 C18.72300052 196.91709232 17.95889472 196.93184089 17.1716342 196.94703639 C14.3432865 196.88937975 12.0075818 196.68889382 9.69413406 194.96711934 C6.65295924 191.6477969 5.66610709 188.91481341 5.68746948 184.49707031 C5.68059616 183.3949823 5.67372284 182.29289429 5.66664124 181.15740967 C5.68461761 179.96338531 5.70259399 178.76936096 5.72111511 177.53915405 C5.72038498 176.27031372 5.71965485 175.00147339 5.71890259 173.69418335 C5.71747191 170.22734967 5.74680341 166.76138643 5.78177238 163.29475451 C5.81309497 159.66731243 5.81597123 156.03984892 5.82189941 152.41229248 C5.83742067 145.54868602 5.87842537 138.68547925 5.92864686 131.82204854 C5.98459425 124.00591155 6.01204031 116.18975516 6.03712404 108.37346768 C6.08934315 92.30004479 6.17725141 76.22702352 6.28874207 60.15390015 C7.05903653 60.15151179 7.829331 60.14912344 8.62296772 60.14666271 C27.35074294 60.08757194 46.0783857 60.01206007 64.80601978 59.91818523 C73.86250458 59.87318594 82.9189497 59.8337809 91.97550964 59.8074646 C99.86759232 59.7845179 107.75954983 59.7511574 115.65153331 59.70519859 C119.83176238 59.68122125 124.01186715 59.66252213 128.19216347 59.65628624 C132.1246551 59.65025565 136.05682848 59.63032994 139.9892025 59.59962463 C141.43438384 59.59081173 142.87960671 59.58712853 144.32481384 59.58889198 C146.29437845 59.59053684 148.26392969 59.57212888 150.23339844 59.55262756 C151.33678464 59.5480186 152.44017084 59.54340963 153.57699299 59.538661 C156.29631915 59.3682235 156.29631915 59.3682235 158.13985729 57.81257343 C159.96460076 55.17814628 159.7331468 53.26473326 159.28874207 50.15390015 C157.1014284 47.22498281 155.91808758 46.25696756 152.27326584 45.66005802 C151.08532551 45.66286494 149.89738518 45.66567186 148.67344666 45.66856384 C148.01005445 45.66459042 147.34666224 45.660617 146.66316724 45.65652317 C144.44126394 45.64793501 142.22052312 45.66775994 139.998703 45.68734741 C138.40520062 45.68679866 136.81169797 45.68442388 135.21820068 45.68035889 C131.78648495 45.67518031 128.35508847 45.68226106 124.92340851 45.69861031 C119.4935977 45.72371487 114.06410258 45.71744791 108.63426208 45.70613098 C95.1446436 45.68292094 81.65511555 45.70132955 68.16551208 45.72763062 C57.68730422 45.74758924 47.20934863 45.75612688 36.73114038 45.73069423 C31.33736199 45.71889437 25.94430216 45.7304974 20.55059862 45.75994694 C17.18825908 45.77323741 13.82619573 45.76576022 10.46386528 45.75266647 C8.90947749 45.75081562 7.35505161 45.75747568 5.80074501 45.77346992 C-9.48163056 45.92208811 -9.48163056 45.92208811 -15.71125793 40.15390015 C-21.07707212 34.88093774 -23.01192108 29.87903219 -23.21125793 22.40390015 C-23.09477666 15.4514242 -21.67099467 11.07187068 -16.71125793 6.15390015 C-11.37435721 1.98287604 -6.81497974 0.03663435 0 0 Z " fill="#F3F2FC" transform="translate(143.7112579345703,300.8460998535156)"/>
<path d="M0 0 C6.6 0 13.2 0 20 0 C20.99 1.98 21.98 3.96 23 6 C25.97435661 7.48717831 28.70405589 7.1471836 32.01953125 7.17578125 C33.44858235 7.19898514 34.87761885 7.22310271 36.30664062 7.24804688 C38.55812264 7.28311516 40.80906953 7.31247951 43.06079102 7.32592773 C45.23519703 7.34145409 47.40804079 7.38169301 49.58203125 7.42578125 C51.53459839 7.44765503 51.53459839 7.44765503 53.52661133 7.4699707 C57.53154322 8.08111199 59.22279032 9.08927694 62 12 C62.48828125 15.234375 62.48828125 15.234375 62.3125 18.75 C62.26738281 19.92046875 62.22226562 21.0909375 62.17578125 22.296875 C62.08876953 23.63492187 62.08876953 23.63492187 62 25 C61.030625 25.1959375 60.06125 25.391875 59.0625 25.59375 C43.86463739 28.89322301 31.16705711 35.27868579 19 45 C18.071875 45.68255859 18.071875 45.68255859 17.125 46.37890625 C0.92622934 58.94045294 -6.52783945 79.074789 -12 98 C-13.06847168 98.00410889 -14.13694336 98.00821777 -15.23779297 98.01245117 C-19.24526605 98.03441079 -23.25178054 98.08887088 -27.25878906 98.15258789 C-28.98493177 98.17562246 -30.71121213 98.1901291 -32.4375 98.19555664 C-48.63382369 98.25648031 -56.69631377 101.17106071 -68.20617676 112.76750183 C-70.16554538 114.77558857 -72.11462074 116.79327162 -74.0625 118.8125 C-76.05053362 120.8504806 -78.0421193 122.8849007 -80.03575134 124.91740417 C-81.26845438 126.17655933 -82.49722818 127.43957536 -83.72169495 128.70674133 C-85.12932473 130.15600052 -86.56204422 131.58082525 -88 133 C-88.33 133 -88.66 133 -89 133 C-89.01458252 132.26885986 -89.02916504 131.53771973 -89.04418945 130.78442383 C-89.1188291 127.45992629 -89.21543801 124.13641533 -89.3125 120.8125 C-89.33505859 119.66201172 -89.35761719 118.51152344 -89.38085938 117.32617188 C-89.4340332 115.65844727 -89.4340332 115.65844727 -89.48828125 113.95703125 C-89.51446533 112.93585205 -89.54064941 111.91467285 -89.56762695 110.86254883 C-90.27020268 106.21110873 -92.15390721 103.69225774 -95.75 100.75 C-100.59834282 98.11208444 -106.19879972 98.56100382 -111.57421875 98.56640625 C-115 98 -115 98 -117.18077087 95.95410156 C-119.43343249 92.29618343 -119.57110387 89.33547449 -119.53344727 85.16796875 C-119.54206284 84.39498444 -119.55067841 83.62200012 -119.55955505 82.82559204 C-119.58219441 80.27921742 -119.57548084 77.73394508 -119.56640625 75.1875 C-119.57164247 73.41300124 -119.57791895 71.63850526 -119.58518982 69.86401367 C-119.59559001 66.14846684 -119.59103771 62.43330309 -119.57641602 58.71777344 C-119.55922164 53.95930527 -119.58273289 49.20204386 -119.61790562 44.44371033 C-119.63987801 40.78047708 -119.6384387 37.11753271 -119.6301403 33.45425415 C-119.62932083 31.69998856 -119.63618361 29.94570176 -119.65091133 28.1914978 C-119.66835684 25.73758989 -119.65381786 23.2858523 -119.63110352 20.83203125 C-119.64279572 20.10980377 -119.65448792 19.38757629 -119.66653442 18.64346313 C-119.59971491 15.09083444 -119.0357539 13.05606949 -117.11743164 10.04774475 C-112.59568094 7.0775461 -108.79316735 7.32458358 -103.48999023 7.40405273 C-102.43254608 7.3999942 -101.37510193 7.39593567 -100.28561401 7.39175415 C-97.99282764 7.38623882 -95.69999112 7.39223996 -93.40725517 7.40841484 C-89.78026159 7.43379198 -86.15440678 7.4290507 -82.52735901 7.41651917 C-74.83061449 7.39575779 -67.1342214 7.41547243 -59.4375 7.4375 C-50.51576075 7.4585824 -41.59438642 7.46322298 -32.67265511 7.43699837 C-29.09608222 7.43362907 -25.520201 7.45488854 -21.94371033 7.47740173 C-19.75601041 7.47489118 -17.56831137 7.47133187 -15.38061523 7.46655273 C-14.38362106 7.47943832 -13.38662689 7.49232391 -12.35942078 7.50559998 C-7.03460582 7.53161941 -7.03460582 7.53161941 -2.41371155 5.15834045 C-0.84720241 2.96706393 -0.84720241 2.96706393 0 0 Z " fill="#C1E9FA" transform="translate(337,7)"/>
<path d="M0 0 C7.45379928 4.32472996 13.77051772 10.10094267 20 16 C20.83660156 16.77214844 21.67320312 17.54429688 22.53515625 18.33984375 C39.58269115 34.59692108 50.45784156 56.63690197 51.8125 80.25 C51.6186254 85.00502965 51.2189479 87.71560813 47.6875 91 C46.15772207 92.04937398 44.59185115 93.04741606 43 94 C42.16726563 94.57878906 41.33453125 95.15757812 40.4765625 95.75390625 C23.25545798 107.44506665 4.81486453 112.24779018 -15.76953125 109.49609375 C-36.47175236 105.50172915 -53.00015961 94.44449855 -66 78 C-70 72.06779661 -70 72.06779661 -70 69 C-68.78763672 68.54560547 -68.78763672 68.54560547 -67.55078125 68.08203125 C-59.17609043 65.05882653 -59.17609043 65.05882653 -53 59 C-52.42795288 56.0367959 -52.59619675 54.07899979 -53 51 C-56.51253146 48.65831236 -57.86469356 48.50376323 -62 49 C-64.69433317 50.87197454 -64.69433317 50.87197454 -67 53 C-70.47325181 54.1577506 -73.36067448 54.06866652 -77 54 C-78.63078609 47.53556395 -79.36495014 41.59553057 -79.375 34.9375 C-79.39949219 34.11056641 -79.42398437 33.28363281 -79.44921875 32.43164062 C-79.48756777 23.95011536 -77.24409109 16.11242107 -75 8 C-73.97342285 8.02094727 -72.9468457 8.04189453 -71.88916016 8.06347656 C-67.98647688 8.13728481 -64.08385125 8.18229669 -60.18066406 8.21972656 C-58.50900823 8.23952837 -56.83741853 8.26657737 -55.16601562 8.30175781 C-40.30653667 8.60610859 -26.62307003 6.87850493 -12.8125 1.1875 C-8.01847523 -0.73610244 -5.03330416 -1.89936006 0 0 Z " fill="#FCDACC" transform="translate(418,86)"/>
<path d="M0 0 C1.19026291 -0.00860046 2.38052582 -0.01720093 3.6068573 -0.02606201 C5.56824646 -0.03245193 5.56824646 -0.03245193 7.56925964 -0.03897095 C8.95896611 -0.04687378 10.34867053 -0.05514284 11.7383728 -0.06375122 C16.30331977 -0.08994766 20.8682758 -0.1052752 25.43327332 -0.11953735 C27.00537815 -0.12489777 28.57748292 -0.13027528 30.14958763 -0.13566971 C36.68897234 -0.15729381 43.2283546 -0.17603068 49.767766 -0.1872921 C59.1370644 -0.20353368 68.50594828 -0.23672148 77.87509042 -0.29369295 C84.4645745 -0.3323953 91.05394771 -0.35192504 97.64354247 -0.35721266 C101.57862896 -0.3608654 105.51327308 -0.37287784 109.44823647 -0.4053154 C113.15101926 -0.43540225 116.85309217 -0.44170625 120.55597115 -0.42993164 C122.55872875 -0.42960592 124.56144259 -0.45406683 126.56404114 -0.47930908 C136.37584893 -0.41122047 136.37584893 -0.41122047 139.94088745 2.59320068 C141.10307549 3.86074692 141.10307549 3.86074692 142.28874207 5.15390015 C145.52730756 6.76946116 145.52730756 6.76946116 149.03874207 8.02890015 C149.69447205 8.28099243 150.35020203 8.53308472 151.02580261 8.79281616 C153.74083981 9.83435371 156.46595486 10.84796772 159.1915741 11.86141968 C161.16418706 12.59775951 163.13349627 13.34214938 165.10124207 14.09140015 C165.81095154 14.36105591 166.52066101 14.63071167 167.25187683 14.90853882 C172.73310758 17.04142167 178.10497563 19.38479451 183.46842957 21.79452515 C184.20310959 22.12356339 184.93778961 22.45260162 185.69473267 22.79161072 C189.40168225 24.45360105 193.10204241 26.12826381 196.79386902 27.82357788 C208.636082 33.20007679 220.55092001 37.6312218 233.72624207 37.90390015 C234.4693866 37.93354858 235.21253113 37.96319702 235.97819519 37.9937439 C237.74785693 38.06224693 239.51828536 38.11055971 241.28874207 38.15390015 C234.94581804 44.84920884 234.94581804 44.84920884 230.09503174 45.40545654 C228.90519936 45.40734482 228.90519936 45.40734482 227.69132996 45.40927124 C226.78681595 45.41623016 225.88230194 45.42318909 224.95037842 45.43035889 C223.98051498 45.42936188 223.01065155 45.42836487 222.01139832 45.42733765 C219.95084598 45.44762378 217.89029914 45.46847451 215.82975769 45.48983765 C212.58630223 45.51245211 209.34306381 45.52891488 206.09953308 45.53475952 C202.96559081 45.54427867 199.83262247 45.57804589 196.69889832 45.61483765 C195.24713951 45.60726944 195.24713951 45.60726944 193.76605225 45.59954834 C189.46620592 45.66237972 186.95223478 45.75724176 183.2006073 48.00009155 C181.09064742 50.09269816 181.09064742 50.09269816 180.28874207 53.15390015 C173.68874207 53.15390015 167.08874207 53.15390015 160.28874207 53.15390015 C159.29874207 51.17390015 158.30874207 49.19390015 157.28874207 47.15390015 C154.45533421 45.73719622 152.08359229 46.02921672 148.91395569 46.02932739 C148.25227233 46.02791724 147.59058897 46.0265071 146.9088546 46.02505422 C144.68113324 46.02139055 142.4534751 46.02474237 140.22575378 46.02792358 C138.63254751 46.02652927 137.0393416 46.02463025 135.44613647 46.02226257 C132.00904416 46.01775956 128.57196381 46.01590935 125.13486862 46.01580048 C119.69688127 46.01466142 114.25896202 46.0018316 108.82099915 45.98623657 C107.9036014 45.98366372 106.98620365 45.98109087 106.04100597 45.97844005 C104.16465881 45.97317318 102.28831171 45.9678877 100.41196465 45.96258402 C87.74913534 45.92746925 75.08638972 45.90091977 62.42350769 45.90341187 C53.88639698 45.9050017 45.34951762 45.88893347 36.81248105 45.85270524 C32.29499761 45.83425952 27.77790035 45.82488986 23.26038742 45.83718109 C19.00681502 45.84864118 14.75393281 45.83685991 10.50045204 45.80754662 C8.94286788 45.80092079 7.38522024 45.80274759 5.82766151 45.81384468 C-3.51443971 45.87485814 -10.32412586 45.44758184 -17.21530342 38.67594528 C-22.72677342 32.55706532 -23.28238535 26.64931747 -23.14875793 18.6734314 C-22.36989503 12.40775749 -19.55730613 8.37821277 -14.63703918 4.5328064 C-9.75368073 1.34643757 -5.86987453 0.03155388 0 0 Z " fill="#918DA1" transform="translate(143.7112579345703,300.8460998535156)"/>
<path d="M0 0 C1.06798828 -0.01224609 2.13597656 -0.02449219 3.23632812 -0.03710938 C19.99962484 -0.06783014 19.99962484 -0.06783014 24.7109375 4.078125 C30.78794256 15.76765067 33.74152124 27.95810031 33.625 41.125 C33.62048828 41.80884766 33.61597656 42.49269531 33.61132812 43.19726562 C33.5996956 44.86071604 33.58176694 46.5241205 33.5625 48.1875 C26.2930282 47.81149284 26.2930282 47.81149284 22.5625 44.625 C19.54009166 42.16929322 18.95177315 41.79877274 15.3125 41.6875 C13.45625 41.935 13.45625 41.935 11.5625 42.1875 C9.22081236 45.70003146 9.06626323 47.05219356 9.5625 51.1875 C12.76805497 56.90175016 18.83618455 59.99261538 24.92578125 61.9453125 C26.79134679 62.4158459 28.67587286 62.81017457 30.5625 63.1875 C24.67911502 82.30850119 13.47024458 97.40752103 -4.01953125 107.4375 C-22.75163985 117.0283396 -43.08211023 120.49924567 -63.53125 114.5234375 C-72.4473733 111.6359305 -80.38173891 107.36393951 -87.4375 101.1875 C-84.59885839 98.26015084 -81.71464435 95.58794731 -78.5625 93 C-63.75110025 80.085352 -58.18499203 59.61798192 -56.59033203 40.71386719 C-56.41783673 37.86245916 -56.35495204 35.02027314 -56.30859375 32.1640625 C-56.28627686 31.13265137 -56.26395996 30.10124023 -56.2409668 29.03857422 C-56.20593337 27.00663525 -56.1973153 24.97403004 -56.21801758 22.94189453 C-56.10684864 16.11765129 -56.10684864 16.11765129 -54.22192383 13.49829102 C-40.17483472 1.36029744 -17.62823311 0.01060026 0 0 Z " fill="#D99C81" transform="translate(139.4375,78.8125)"/>
<path d="M0 0 C5.72661103 2.58085178 9.31710984 6.95027414 12.73828125 12.08203125 C13.96926876 15.38746066 13.79239169 18.62414288 13.70703125 22.09765625 C13.69800781 22.79503906 13.68898438 23.49242187 13.6796875 24.2109375 C13.65623013 25.92332583 13.62036229 27.63553629 13.58203125 29.34765625 C14.57203125 29.28964844 15.56203125 29.23164063 16.58203125 29.171875 C29.55591965 28.63465055 29.55591965 28.63465055 34.9375 32.796875 C41.27307382 38.77127596 43.99901309 43.26706943 45.01953125 52.16015625 C44.81657538 58.30852515 42.00725046 63.97133259 37.64453125 68.24609375 C32.07132128 72.57377574 27.41695186 74.62974242 20.26953125 74.47265625 C19.20089844 74.45460938 18.13226563 74.4365625 17.03125 74.41796875 C16.22300781 74.39476562 15.41476562 74.3715625 14.58203125 74.34765625 C14.63423828 75.27384766 14.63423828 75.27384766 14.6875 76.21875 C14.94362141 84.23169129 13.92278926 91.87799647 8.21484375 97.99609375 C2.62033344 102.62695635 -3.60167985 105.26042194 -10.90234375 104.82421875 C-17.49913382 103.57451628 -22.74351996 100.68901017 -26.91796875 95.41015625 C-31.48586265 88.46798981 -31.67825859 82.47448349 -31.41796875 74.34765625 C-32.16820312 74.40566406 -32.9184375 74.46367187 -33.69140625 74.5234375 C-41.39788348 74.86314368 -47.12530844 74.00556851 -53.41796875 69.34765625 C-58.26445433 64.36040138 -61.40582192 59.10259412 -61.79296875 52.09765625 C-61.60827287 45.92060516 -59.74272843 40.84867845 -55.51171875 36.296875 C-49.59431671 30.96458921 -45.72891001 29.02456129 -37.66796875 29.22265625 C-36.97058594 29.23167969 -36.27320313 29.24070312 -35.5546875 29.25 C-33.84229917 29.27345737 -32.13008871 29.30932521 -30.41796875 29.34765625 C-30.47597656 28.35765625 -30.53398437 27.36765625 -30.59375 26.34765625 C-31.12750464 13.41638574 -31.12750464 13.41638574 -26.9140625 7.92578125 C-19.21972184 -0.19044232 -11.17211979 -3.01412602 0 0 Z " fill="#040303" transform="translate(264.41796875,377.65234375)"/>
<path d="M0 0 C3.32773514 0.9859956 4.35265 1.33874102 6.375 4 C6.7457943 6.12159061 6.7457943 6.12159061 6.74008179 8.62135315 C6.74539413 9.57023911 6.75070648 10.51912506 6.75617981 11.49676514 C6.7468895 12.53625305 6.73759918 13.57574097 6.72802734 14.64672852 C6.73018753 15.74301071 6.73234772 16.83929291 6.73457336 17.96879578 C6.73766534 20.35382177 6.73403981 22.7388636 6.72455978 25.12387276 C6.71084868 28.90339043 6.71724459 32.68238132 6.72940063 36.4618988 C6.75844373 46.53323282 6.75813084 56.60446789 6.73914778 66.67581934 C6.72558378 73.92380486 6.73484298 81.17132462 6.76524734 88.41929436 C6.77067744 90.92021376 6.76665093 93.42117279 6.75284958 95.92206001 C6.73372079 99.43097634 6.74525268 102.93861417 6.76318359 106.44750977 C6.74984482 107.47282806 6.73650604 108.49814636 6.72276306 109.55453491 C6.80272436 116.62653304 8.3563413 122.11288249 12.375 128 C18.3305026 133.80202843 24.066918 134.14950054 31.99902344 134.20532227 C33.30200127 134.22017166 33.30200127 134.22017166 34.63130188 134.23532104 C37.49896531 134.26687728 40.3666453 134.29167027 43.234375 134.31640625 C45.22406441 134.33698085 47.21374949 134.35797745 49.20343018 134.37937927 C54.43781024 134.43454768 59.67222941 134.48398005 64.90667725 134.53222656 C70.24901811 134.58247976 75.59130225 134.6381459 80.93359375 134.69335938 C91.41401582 134.800877 101.89448614 134.90183593 112.375 135 C112.375 145.23 112.375 155.46 112.375 166 C99.11819204 166.11314834 85.86170699 166.20480174 72.60452461 166.25906086 C66.44808069 166.28510798 60.29198546 166.32041762 54.13574219 166.37719727 C48.1899665 166.43168997 42.24452535 166.46145726 36.29851913 166.47438622 C34.0347861 166.48359504 31.7710705 166.50157771 29.50748062 166.52865028 C26.32636801 166.56516898 23.14662192 166.56993569 19.96533203 166.56762695 C19.03815872 166.58560333 18.11098541 166.60357971 17.15571594 166.62210083 C9.81419374 166.56478554 3.37931932 164.47368632 -2.24744987 159.59254932 C-9.25193153 151.77579608 -9.0430855 143.87157585 -8.99609375 133.89453125 C-9.00279478 132.52405282 -9.01137604 131.15358242 -9.02174377 129.78312683 C-9.06166155 123.99092821 -9.06303977 118.19880757 -9.06079102 112.40649414 C-9.06073991 108.85152703 -9.07989793 105.2970551 -9.11012459 101.74222374 C-9.12093216 99.7370119 -9.10878908 97.73171879 -9.09629822 95.72651672 C-9.10633377 94.50812607 -9.11636932 93.28973541 -9.12670898 92.03442383 C-9.12654282 90.96299637 -9.12637665 89.89156891 -9.12620544 88.78767395 C-9.74932313 85.30518016 -10.86992514 84.15328988 -13.625 82 C-14.615 81.67 -15.605 81.34 -16.625 81 C-16.625 74.4 -16.625 67.8 -16.625 61 C-14.645 60.01 -12.665 59.02 -10.625 58 C-9.39411747 55.53823494 -9.5004618 53.92310694 -9.49902344 51.1706543 C-9.49521667 50.16588547 -9.49140991 49.16111664 -9.48748779 48.12590027 C-9.48646057 47.03634537 -9.48543335 45.94679047 -9.484375 44.82421875 C-9.4660479 42.52928694 -9.44647768 40.23436479 -9.42578125 37.93945312 C-9.39679315 34.31176495 -9.37499962 30.68469635 -9.37451172 27.05688477 C-9.37118086 23.56209993 -9.336649 20.06875419 -9.296875 16.57421875 C-9.3039447 15.49073654 -9.3110144 14.40725433 -9.31829834 13.29093933 C-9.19699628 5.79629554 -9.19699628 5.79629554 -6.30957031 1.77661133 C-3.625 0 -3.625 0 0 0 Z " fill="#F15446" transform="translate(23.625,256)"/>
<path d="M0 0 C2.58636245 1.64799584 3.57090166 2.37964495 5 5 C5.76884931 9.50344963 5.68237264 13.97684622 5.64697266 18.53588867 C5.65375171 19.9292617 5.66265646 21.32262576 5.67352295 22.7159729 C5.69630009 26.49537715 5.68748428 30.27409819 5.67162752 34.05351424 C5.65894747 38.01667703 5.67071563 41.97978224 5.67855835 45.94294739 C5.68765415 52.60342878 5.67567458 59.26363298 5.65185547 65.92407227 C5.62469991 73.60577214 5.6334176 81.28680729 5.6609875 88.96849078 C5.68374658 95.57596942 5.68684393 102.18324893 5.67379415 108.79075414 C5.6660296 112.7314496 5.6648736 116.67183377 5.68147659 120.61250877 C5.6960196 124.32364646 5.68572319 128.03393666 5.65700531 131.74498367 C5.64733596 133.74210219 5.66201457 135.73929313 5.67764282 137.7363739 C5.57963987 146.14530724 4.27314683 153.11562707 -1.40714073 159.60841656 C-8.06423459 165.63612876 -14.7004225 166.4388871 -23.24975586 166.34057617 C-24.75821579 166.34123329 -24.75821579 166.34123329 -26.29714966 166.34190369 C-29.6032489 166.33982268 -32.90883368 166.31652369 -36.21484375 166.29296875 C-38.51412173 166.28737036 -40.81340331 166.28310141 -43.11268616 166.28010559 C-49.15107176 166.26867603 -55.18923933 166.23922486 -61.22753906 166.20599365 C-67.39450125 166.17525218 -73.56149882 166.16159153 -79.72851562 166.14648438 C-91.8191214 166.1143535 -103.90950842 166.06160076 -116 166 C-116 155.77 -116 145.54 -116 135 C-113.3405835 134.98541748 -110.68116699 134.97083496 -107.94116211 134.95581055 C-99.144061 134.90542226 -90.3471361 134.83881957 -81.55020809 134.76428509 C-76.21781367 134.71960109 -70.88549531 134.68034048 -65.55297852 134.65356445 C-60.40460724 134.62751203 -55.25652896 134.58709555 -50.10833931 134.53681374 C-48.14644585 134.5201582 -46.18450173 134.50863576 -44.22254753 134.50238609 C-41.46958747 134.49273081 -38.71737474 134.46465431 -35.96459961 134.43237305 C-34.75402641 134.43452568 -34.75402641 134.43452568 -33.51899719 134.4367218 C-27.07471676 134.33019416 -22.4185993 132.96862734 -17.3125 128.8125 C-11.49877999 121.74175945 -10.41842824 115.72458625 -10.51757812 106.69042969 C-10.51170937 105.03045456 -10.51170937 105.03045456 -10.50572205 103.33694458 C-10.49976555 100.94599729 -10.50288345 98.55501358 -10.5141449 96.16408539 C-10.53143437 92.38153792 -10.52388462 88.5997527 -10.5098877 84.81719971 C-10.48457777 76.79473199 -10.48985541 68.77248166 -10.5 60.75 C-10.51175949 51.43877196 -10.51046035 42.12795597 -10.47593689 32.81674957 C-10.4688271 29.08731986 -10.48553697 25.35847305 -10.50305176 21.62908936 C-10.49734658 19.35005373 -10.49053062 17.07102053 -10.48242188 14.79199219 C-10.49939369 13.23344009 -10.49939369 13.23344009 -10.51670837 11.6434021 C-10.45706968 4.65330417 -10.45706968 4.65330417 -8.15344238 1.36065674 C-5.14355399 -0.54114707 -3.49685073 -0.64227871 0 0 Z " fill="#F8776B" transform="translate(492,256)"/>
<path d="M0 0 C16.54709021 4.57636944 33.85561912 5.04106237 50.15234375 -0.93359375 C52.84398051 -1.78181625 54.71296975 -2.21791798 57.53125 -1.97265625 C69.89431722 4.67770154 77.82798942 18.23567326 82.53125 31.02734375 C84.26599331 37.21633579 84.80854302 43.03138212 84.7265625 49.4375 C84.7237326 50.29041122 84.72090271 51.14332245 84.71798706 52.02207947 C84.70690831 54.71148493 84.68182793 57.40054117 84.65625 60.08984375 C84.64620425 61.92772952 84.63708121 63.76562058 84.62890625 65.60351562 C84.608722 70.07836352 84.56955136 74.55246877 84.53125 79.02734375 C77.93125 79.02734375 71.33125 79.02734375 64.53125 79.02734375 C64.57765625 77.19429688 64.6240625 75.36125 64.671875 73.47265625 C64.70941481 71.03256848 64.74581258 68.59246296 64.78125 66.15234375 C64.81476563 64.94835937 64.84828125 63.744375 64.8828125 62.50390625 C65.01249905 50.57274369 61.91144287 41.65547132 53.53125 33.02734375 C44.63912059 25.58201419 35.8131474 23.34489576 24.31640625 23.62109375 C14.38341909 24.68717287 5.91191688 29.36810813 -0.46875 37.02734375 C-11.03240647 51.67952652 -8.18012671 67.70074002 -5.71875 84.65234375 C-5.56237061 85.73032227 -5.40599121 86.80830078 -5.24487305 87.91894531 C-4.25560565 94.01824484 -2.76699036 99.42346989 -0.26464844 105.07958984 C0.53125 107.02734375 0.53125 107.02734375 0.53125 109.02734375 C-9.03875 109.02734375 -18.60875 109.02734375 -28.46875 109.02734375 C-28.52482422 102.99453125 -28.52482422 102.99453125 -28.58203125 96.83984375 C-28.62018829 93.61523716 -28.66126064 90.39069676 -28.7042923 87.16615295 C-28.74879201 83.77208752 -28.78825926 80.37814093 -28.81518555 76.98388672 C-28.84883992 73.08141123 -28.90116401 69.17955683 -28.95703125 65.27734375 C-28.96342117 64.07182861 -28.9698111 62.86631348 -28.97639465 61.62426758 C-29.11434696 50.93732879 -29.11434696 50.93732879 -34.46875 42.02734375 C-35.7039461 30.16946123 -29.36189445 19.24319333 -22.2578125 10.21875 C-10.73824396 -3.01106165 -10.73824396 -3.01106165 0 0 Z " fill="#F9E09E" transform="translate(73.46875,206.97265625)"/>
<path d="M0 0 C0.99 0.845625 1.98 1.69125 3 2.5625 C3 2.8925 3 3.2225 3 3.5625 C2.36199463 3.57708252 1.72398926 3.59166504 1.06665039 3.60668945 C-21.94907068 4.19153717 -52.32584075 5.28323236 -70.015625 22.52734375 C-73.12455924 26.75299287 -74.11198282 30.52513232 -74.2109375 35.65625 C-74.23720215 36.67783203 -74.2634668 37.69941406 -74.29052734 38.75195312 C-74.31840332 39.84443359 -74.3462793 40.93691406 -74.375 42.0625 C-74.64144434 50.13727606 -75.1057496 58.07876837 -76.375 66.0625 C-76.4889209 66.79533203 -76.6028418 67.52816406 -76.72021484 68.28320312 C-79.44823058 84.11953477 -86.43827539 97.06993925 -99.66796875 106.4453125 C-102 107.5625 -102 107.5625 -104.05859375 107.58984375 C-112.9002437 102.91106319 -117.07462194 86.46010316 -120 77.5625 C-125.28588834 59.8348383 -120.75453598 39.74041337 -112.75 23.75 C-102.03725812 5.07196513 -85.8074586 -6.93283495 -65.54296875 -13.4921875 C-42.72178022 -19.5811926 -18.8412884 -13.74188873 0 0 Z " fill="#74708A" transform="translate(144,60.4375)"/>
<path d="M0 0 C1.44092766 0.00056648 1.44092766 0.00056648 2.91096497 0.00114441 C4.44716743 0.03985405 4.44716743 0.03985405 6.0144043 0.0793457 C7.07273972 0.08642044 8.13107513 0.09349518 9.22148132 0.1007843 C12.59458741 0.12872476 15.96602051 0.19146575 19.33862305 0.25512695 C21.62831258 0.28021013 23.91802819 0.30302326 26.20776367 0.32348633 C31.81445219 0.37855014 37.42016809 0.46217365 43.02612305 0.56762695 C42.86510101 1.5599382 42.70407898 2.55224945 42.53817749 3.57463074 C41.97574002 7.53250869 41.85762823 11.46243881 41.83325195 15.45556641 C41.82507446 16.21105774 41.81689697 16.96654907 41.80847168 17.74493408 C41.7838351 20.22358446 41.76716016 22.70217854 41.75268555 25.1809082 C41.74470003 26.45991532 41.74470003 26.45991532 41.73655319 27.76476097 C41.70991911 32.2761075 41.69051133 36.78742726 41.67602539 41.29882812 C41.66268457 45.0145732 41.63481531 48.72976935 41.59399414 52.4453125 C41.54448744 56.95330269 41.51988358 61.46079527 41.51279831 65.96904564 C41.50612006 67.6773543 41.4909882 69.38565333 41.4669075 71.09380531 C41.2775886 83.43349549 41.2775886 83.43349549 45.95077515 94.72038269 C47.02612305 96.56762695 47.02612305 96.56762695 47.02612305 99.56762695 C45.19773429 101.67090476 43.36083198 103.60442096 41.3737793 105.5480957 C40.7990538 106.12094803 40.22432831 106.69380035 39.63218689 107.28401184 C38.41583251 108.49364119 37.19588444 109.69966593 35.97265625 110.90234375 C34.09267487 112.75114233 32.22360115 114.61042634 30.35620117 116.47192383 C29.17518206 117.64377449 27.9935617 118.81501958 26.8112793 119.9855957 C25.96594383 120.82455635 25.96594383 120.82455635 25.10353088 121.6804657 C21.14326481 125.56762695 21.14326481 125.56762695 20.02612305 125.56762695 C20.01154053 124.83648682 19.99695801 124.10534668 19.98193359 123.35205078 C19.90729394 120.02755324 19.81068504 116.70404228 19.71362305 113.38012695 C19.69106445 112.22963867 19.66850586 111.07915039 19.64526367 109.89379883 C19.59208984 108.22607422 19.59208984 108.22607422 19.5378418 106.5246582 C19.51165771 105.503479 19.48547363 104.4822998 19.45849609 103.43017578 C18.75592037 98.77873568 16.87221584 96.25988469 13.27612305 93.31762695 C8.42778023 90.6797114 2.82732333 91.12863077 -2.5480957 91.1340332 C-5.97387695 90.56762695 -5.97387695 90.56762695 -8.15464783 88.52172852 C-10.40730945 84.86381038 -10.54498083 81.90310145 -10.50732422 77.7355957 C-10.51593979 76.96261139 -10.52455536 76.18962708 -10.53343201 75.39321899 C-10.55607136 72.84684438 -10.5493578 70.30157203 -10.5402832 67.75512695 C-10.54551942 65.98062819 -10.5517959 64.20613222 -10.55906677 62.43164062 C-10.56946697 58.71609379 -10.56491466 55.00093005 -10.55029297 51.28540039 C-10.53309859 46.52693223 -10.55660985 41.76967081 -10.59178257 37.01133728 C-10.61375496 33.34810403 -10.61231565 29.68515967 -10.60401726 26.0218811 C-10.60319778 24.26761552 -10.61006056 22.51332871 -10.62478828 20.75912476 C-10.6422338 18.30521685 -10.62769482 15.85347925 -10.60498047 13.3996582 C-10.61667267 12.67743073 -10.62836487 11.95520325 -10.64041138 11.21109009 C-10.56916124 7.4228964 -10.05000054 5.66853037 -7.74530029 2.61360168 C-4.77814122 0.42312706 -3.6146427 -0.04768658 0 0 Z " fill="#A6DFF3" transform="translate(227.973876953125,14.432373046875)"/>
<path d="M0 0 C15.70961907 4.55600444 35.32157223 5.47561083 50.6953125 -1.1640625 C53.39324695 -2.14263533 54.37482151 -2.08682389 57 -1 C68.69575028 6.18892921 78.34180089 19.30538499 81.671875 32.703125 C82.62055898 39.34391283 81.98536461 42.56541189 78 48 C76.90944016 51.22238486 76.84710557 54.30118341 76.79467773 57.68652344 C76.77473251 58.82740417 76.75478729 59.96828491 76.73423767 61.14373779 C76.71752518 62.36989807 76.70081268 63.59605835 76.68359375 64.859375 C76.6524221 66.74864716 76.6524221 66.74864716 76.62062073 68.67608643 C76.56633698 72.01658871 76.51607931 75.35710222 76.46777344 78.69769287 C76.41744296 82.10971383 76.36186831 85.52164912 76.30664062 88.93359375 C76.19875779 95.62232977 76.09961267 102.31111522 76 109 C63.13 109 50.26 109 37 109 C39.31 105.37 41.62 101.74 44 98 C46.36724865 93.85106019 48.55627029 89.61793135 50.75 85.375 C51.31332031 84.30765625 51.87664062 83.2403125 52.45703125 82.140625 C58.31914725 70.85986276 62.28022315 60.88096697 59.30859375 48.00390625 C56.33387116 39.02995232 50.96177224 31.25071868 43 26 C32.33744325 20.84176157 21.85699944 19.0645723 10.41015625 22.96484375 C2.13071784 26.52084242 -5.26716006 32.29706392 -9.21484375 40.53515625 C-11.07906861 45.42434974 -12.31232238 50.33379376 -13.4375 55.4375 C-14.3297569 59.13604875 -14.82434873 60.79111741 -17.3125 63.75 C-22.71812077 66.26424222 -26.47320341 64.93910647 -31.875 63 C-33.58692821 62.34261957 -35.29651829 61.6789678 -37 61 C-37.60881334 38.78299628 -34.83151838 21.8308501 -19 5 C-12.49892112 -1.75199771 -8.83683658 -2.91577242 0 0 Z " fill="#74E4D3" transform="translate(391,207)"/>
<path d="M0 0 C6.17996913 3.16305852 10.41744021 7.52394503 13.875 13.49609375 C17.32714856 27.99511772 7.27245256 42.83713396 0.5 55.12109375 C-1.58505741 58.4425385 -3.7699437 61.31216916 -6.5 64.12109375 C-7.16257812 64.81074219 -7.82515625 65.50039063 -8.5078125 66.2109375 C-19.92658024 77.19996667 -34.04992787 81.32834148 -49.58984375 81.6171875 C-61.39573061 80.11933772 -72.12819391 74.82019331 -82.8125 69.87109375 C-84.24640834 69.21410892 -85.68065159 68.55785456 -87.11523438 67.90234375 C-90.58072799 66.31695844 -94.04158661 64.72186154 -97.5 63.12109375 C-96.96397797 58.72094848 -96.20027577 54.77738907 -94.65234375 50.625 C-94.29462891 49.65498047 -93.93691406 48.68496094 -93.56835938 47.68554688 C-93.19517578 46.69490234 -92.82199219 45.70425781 -92.4375 44.68359375 C-92.06044922 43.66587891 -91.68339844 42.64816406 -91.29492188 41.59960938 C-90.36946564 39.10439194 -89.43769349 36.61173256 -88.5 34.12109375 C-81.44028284 34.87620781 -74.92553328 37.79030142 -68.34960938 40.32617188 C-61.14305966 42.96015865 -53.51754042 45.01260899 -46.05004883 42.19750977 C-44.00817347 41.21930837 -44.00817347 41.21930837 -42.15625 40.09375 C-40.5 39.12109375 -40.5 39.12109375 -37.5 38.12109375 C-36.41568906 36.37241892 -36.41568906 36.37241892 -35.5 34.12109375 C-34.78650391 32.81205078 -34.78650391 32.81205078 -34.05859375 31.4765625 C-32.02917131 27.10745504 -31.11085933 22.73748086 -30.12695312 18.04296875 C-28.22080375 9.68462335 -23.90602064 5.05844085 -16.875 0.37109375 C-11.2672715 -1.70584273 -5.6959031 -2.00246593 0 0 Z " fill="#00DAC2" transform="translate(422.5,242.87890625)"/>
<path d="M0 0 C16.4618214 11.88647276 27.7877219 28.98764382 31.7265625 48.96875 C32.16806268 53.37385725 32.24987609 57.73107871 32.2265625 62.15625 C32.22446777 63.33429199 32.22237305 64.51233398 32.22021484 65.72607422 C32.05250338 75.05774489 30.84702964 83.50306297 26.7265625 91.96875 C25.7365625 92.46375 25.7365625 92.46375 24.7265625 92.96875 C24.54222656 92.10636719 24.35789062 91.24398437 24.16796875 90.35546875 C20.4809501 74.8372169 13.92895797 60.31512713 3.7265625 47.96875 C2.86193969 46.89065666 1.99735867 45.8125298 1.1328125 44.734375 C-6.43427743 35.42837291 -14.75523452 27.65349501 -24.4609375 20.59375 C-25.03110596 20.17649658 -25.60127441 19.75924316 -26.1887207 19.3293457 C-33.48282287 14.16563131 -40.23780481 11.58372601 -49.2734375 12.96875 C-51.9288727 13.84289948 -54.49309774 14.75346045 -57.0859375 15.78125 C-73.60742836 22.31018297 -88.63520382 22.3409049 -106.2734375 21.96875 C-99.06556707 6.84077684 -82.89481801 -3.75033807 -67.59375 -9.38671875 C-44.67885382 -16.58334714 -20.11094018 -13.36952643 0 0 Z " fill="#D89C80" transform="translate(457.2734375,58.03125)"/>
<path d="M0 0 C1.58884758 0.01665459 1.58884758 0.01665459 3.20979309 0.03364563 C4.41081161 0.03402328 5.61183014 0.03440094 6.84924316 0.03479004 C8.14618607 0.06059647 9.44312897 0.08640289 10.77937317 0.11299133 C12.1202869 0.12231862 13.46121768 0.12943514 14.80215454 0.13442993 C18.3289558 0.15350728 21.85472492 0.20261156 25.38111877 0.25794983 C28.98052507 0.30912814 32.58009841 0.33194076 36.17976379 0.35713196 C43.24073255 0.41073166 50.30100105 0.49605154 57.36140442 0.60127258 C57.46043959 6.20628223 57.53295154 11.8107802 57.58113098 17.41645813 C57.60121987 19.32247288 57.62849636 21.22842621 57.66316223 23.13423157 C57.71180084 25.87730584 57.73440021 28.61956383 57.75202942 31.36299133 C57.77267456 32.21213608 57.7933197 33.06128082 57.81459045 33.93615723 C57.81613486 38.02793371 57.69399958 40.07335258 55.46199036 43.61616516 C51.66903812 47.20060201 48.30096687 46.73748166 43.33161926 46.71479797 C42.50227371 46.714944 41.67292816 46.71509003 40.81845093 46.71524048 C38.06972157 46.7145423 35.32105948 46.7067543 32.57234192 46.69892883 C30.66947975 46.69706432 28.7666171 46.69564057 26.86375427 46.69464111 C21.84959086 46.69081857 16.83545631 46.68099051 11.82130432 46.66993713 C6.70707083 46.65971737 1.59283268 46.65514228 -3.52140808 46.65010071 C-13.56048531 46.63936803 -23.59953354 46.62177334 -33.63859558 46.60127258 C-33.63859558 41.32127258 -33.63859558 36.04127258 -33.63859558 30.60127258 C-32.56480652 30.10498352 -31.49101746 29.60869446 -30.38468933 29.09736633 C-19.28934938 23.85106573 -12.00698476 19.55413042 -6.77922058 8.03096008 C-6.40281433 7.22916321 -6.02640808 6.42736633 -5.63859558 5.60127258 C-5.24069321 4.73786758 -4.84279083 3.87446259 -4.43283081 2.9848938 C-2.63859558 0.60127258 -2.63859558 0.60127258 0 0 Z " fill="#BDE5F5" transform="translate(409.6385955810547,330.3987274169922)"/>
<path d="M0 0 C5.60498022 -0.12379331 11.20916122 -0.21443018 16.81518555 -0.2746582 C18.72125107 -0.29976999 20.62722059 -0.33386645 22.53295898 -0.37719727 C25.27611998 -0.43799744 28.01800586 -0.46624245 30.76171875 -0.48828125 C31.61086349 -0.51408768 32.46000824 -0.5398941 33.33488464 -0.56648254 C37.68628119 -0.56853554 39.41420049 -0.4753922 42.90161133 2.35473633 C43.59407959 3.22767334 44.28654785 4.10061035 45 5 C52.4079271 12.4079271 62.17818027 16.58651465 71.75390625 20.58203125 C74.38692704 21.73219557 76.58087961 22.8911038 78.9375 24.5 C82.80423451 27.00467539 86.64317295 28.52179082 91 30 C91 35.28 91 40.56 91 46 C80.00374336 46.09037543 69.00773347 46.16375891 58.01118946 46.20724869 C52.90502434 46.22812179 47.79912652 46.25643456 42.69311523 46.30175781 C37.7653357 46.34522517 32.83781325 46.36913919 27.9098568 46.37950897 C26.0299646 46.38689873 24.15008645 46.40132923 22.27030373 46.42292023 C19.63668052 46.4519662 17.00411899 46.45595553 14.37036133 46.45410156 C13.59352493 46.46848267 12.81668854 46.48286377 12.01631165 46.49768066 C8.29361408 46.46933209 6.20221091 46.13000009 3.03935242 44.09661865 C-0.8082209 40.14100318 -0.12890074 36.28882472 -0.09765625 31.0546875 C-0.0962413 30.1696756 -0.09482635 29.2846637 -0.09336853 28.37283325 C-0.0877614 25.54018809 -0.07520771 22.70762136 -0.0625 19.875 C-0.05748592 17.95703239 -0.05292285 16.03906354 -0.04882812 14.12109375 C-0.03778966 9.41403218 -0.02052025 4.7070294 0 0 Z " fill="#918DA1" transform="translate(45,331)"/>
<path d="M0 0 C6.00301801 3.54143229 10.58013311 8.27438396 13.01953125 14.81640625 C13.64453125 18.12890625 13.64453125 18.12890625 13.64453125 22.12890625 C14.27359375 22.27585937 14.90265625 22.4228125 15.55078125 22.57421875 C25.27962763 25.12364536 31.33975735 29.60911787 36.64453125 38.12890625 C38.2214549 42.85967721 38.67732358 47.57239787 36.7734375 52.28515625 C32.24830986 60.00012796 26.21943185 64.65837483 17.7421875 67.43359375 C8.53112966 69.5011452 -0.25795717 69.1527959 -8.35546875 64.12890625 C-9.43634766 63.47535156 -9.43634766 63.47535156 -10.5390625 62.80859375 C-15.51473868 59.46713048 -18.692212 55.95547028 -20.35546875 50.12890625 C-21.23697825 44.85663992 -20.99084753 40.55999393 -18.29296875 35.87890625 C-14.1183833 30.0533548 -9.43488642 25.85559349 -2.35546875 24.12890625 C-2.68507091 19.11355573 -2.68507091 19.11355573 -5.35546875 15.12890625 C-8.35546875 14.79557292 -8.35546875 14.79557292 -11.35546875 15.12890625 C-13.65134327 17.09402148 -13.65134327 17.09402148 -14.29296875 20.56640625 C-15.82204159 25.69329752 -15.82204159 25.69329752 -18.35546875 27.12890625 C-21.11568794 27.59086762 -23.59817973 27.62292053 -26.35546875 27.12890625 C-28.35546875 25.69140625 -28.35546875 25.69140625 -29.35546875 23.12890625 C-30.16153836 17.84353845 -29.76160702 13.42801801 -26.765625 8.83203125 C-19.81419692 0.43640066 -10.92722174 -4.04107869 0 0 Z " fill="#FEA1AC" transform="translate(414.35546875,104.87109375)"/>
<path d="M0 0 C1.19893387 -0.00137466 2.39786774 -0.00274933 3.63313293 -0.00416565 C4.95015198 -0.00057037 6.26717102 0.0030249 7.62409973 0.00672913 C9.0235392 0.00701117 10.42297883 0.00685293 11.82241821 0.00628662 C15.62378515 0.00599931 19.42512063 0.01188536 23.22648025 0.01886058 C27.19831798 0.02510512 31.17015641 0.02569879 35.14199829 0.02688599 C42.6642568 0.02999605 50.18650081 0.03820507 57.70875293 0.04823548 C66.27214004 0.05940668 74.83552784 0.06490961 83.39892042 0.06993091 C101.01541094 0.08038794 118.63188796 0.09798112 136.24836731 0.12025452 C136.24836731 0.45025452 136.24836731 0.78025452 136.24836731 1.12025452 C91.69836731 1.61525452 91.69836731 1.61525452 46.24836731 2.12025452 C41.53630433 11.84865676 41.53630433 11.84865676 40.68586731 21.62025452 C40.6988385 22.34366028 40.71180969 23.06706604 40.72517395 23.81239319 C40.97151657 30.12115039 42.7045255 35.36851581 45.24836731 41.12025452 C45.59714822 42.4496306 45.93292809 43.78257481 46.24836731 45.12025452 C38.70460579 45.2474024 31.16112231 45.33475236 23.61653137 45.39491272 C21.0519732 45.42000149 18.48748614 45.45408037 15.923172 45.49745178 C12.22930824 45.55834752 8.5363928 45.58652216 4.84211731 45.60853577 C3.13227661 45.64724541 3.13227661 45.64724541 1.38789368 45.68673706 C-6.53422839 45.68950595 -11.55800141 44.20836998 -17.26835632 38.64169312 C-22.75345761 32.49769693 -23.3229388 26.62633777 -23.18913269 18.63978577 C-22.41026979 12.37411186 -19.59768089 8.34456714 -14.67741394 4.49916077 C-9.77126853 1.29792356 -5.89896568 -0.0052065 0 0 Z " fill="#74708B" transform="translate(143.7516326904297,300.87974548339844)"/>
<path d="M0 0 C0.99 0.845625 1.98 1.69125 3 2.5625 C3 2.8925 3 3.2225 3 3.5625 C2.36199463 3.57708252 1.72398926 3.59166504 1.06665039 3.60668945 C-21.94907068 4.19153717 -52.32584075 5.28323236 -70.015625 22.52734375 C-73.12455924 26.75299287 -74.11198282 30.52513232 -74.2109375 35.65625 C-74.25033447 37.18862305 -74.25033447 37.18862305 -74.29052734 38.75195312 C-74.31840332 39.84443359 -74.3462793 40.93691406 -74.375 42.0625 C-74.64144434 50.13727606 -75.1057496 58.07876837 -76.375 66.0625 C-76.4889209 66.79533203 -76.6028418 67.52816406 -76.72021484 68.28320312 C-77.87186807 74.96863467 -79.31129212 82.42724852 -84 87.5625 C-92.03244834 68.82012055 -93.03622994 46.39768712 -89 26.5625 C-88.8146167 25.6044043 -88.8146167 25.6044043 -88.62548828 24.62695312 C-86.27611634 12.67790504 -82.45485489 1.47220978 -77 -9.4375 C-74.62834774 -10.38675234 -72.30171133 -11.21965485 -69.875 -12 C-69.22273438 -12.22107422 -68.57046875 -12.44214844 -67.8984375 -12.66992188 C-44.71801968 -20.28174558 -19.33062063 -14.09878306 0 0 Z " fill="#908CA0" transform="translate(144,60.4375)"/>
<path d="M0 0 C16.335 0.495 16.335 0.495 33 1 C32.67 3.3925 32.34 5.785 32 8.25 C28.09834402 40.36483821 35.13494389 69.84739633 55.01953125 95.609375 C56.60578381 97.5241414 58.19661982 99.29333106 60 101 C40.43253736 99.84897279 24.66898024 87.66422189 12 73.75 C5 65.43215159 5 65.43215159 5 61 C5.80824219 60.69707031 6.61648438 60.39414063 7.44921875 60.08203125 C15.82390957 57.05882653 15.82390957 57.05882653 22 51 C22.57204712 48.0367959 22.40380325 46.07899979 22 43 C18.48746854 40.65831236 17.13530644 40.50376323 13 41 C10.30566683 42.87197454 10.30566683 42.87197454 8 45 C4.52674819 46.1577506 1.63932552 46.06866652 -2 46 C-3.63078609 39.53556395 -4.36495014 33.59553057 -4.375 26.9375 C-4.39949219 26.11056641 -4.42398437 25.28363281 -4.44921875 24.43164062 C-4.48969842 15.47888713 -2.33082275 9.32329099 0 0 Z " fill="#FCC8BB" transform="translate(343,94)"/>
<path d="M0 0 C6.52884097 2.88299351 10.05567094 6.8817666 13.26171875 13.19921875 C14.95535296 18.28012138 14.68349113 23.59047982 14.77661133 28.91333008 C14.80823825 30.30734736 14.85598394 31.70109605 14.92016602 33.09399414 C15.44765564 44.71667023 15.44765564 44.71667023 12.55737305 48.32983398 C10.52476899 49.80492646 8.46165539 50.99501709 6.26171875 52.19921875 C4.26895627 54.39324281 4.26895627 54.39324281 2.94921875 56.63671875 C2.49933594 57.33667969 2.04945312 58.03664063 1.5859375 58.7578125 C-1.71421248 64.84215981 -3.20720964 69.81103955 -3.42578125 76.63671875 C-3.45994141 77.36826172 -3.49410156 78.09980469 -3.52929688 78.85351562 C-3.61079878 80.63491437 -3.67623648 82.41703624 -3.73828125 84.19921875 C-14.80606263 77.92683658 -21.83044406 67.54321829 -25.859375 55.625 C-29.14054759 42.83571837 -33.41720361 24.11748563 -28.671875 11.32421875 C-22.50902078 1.11436762 -11.42065189 -3.33984827 0 0 Z " fill="#F6CE6F" transform="translate(109.73828125,245.80078125)"/>
<path d="M0 0 C0.66 -0.01289063 1.32 -0.02578125 2 -0.0390625 C5.24959727 1.03990534 6.26746987 2.71465334 8 5.625 C8.63760613 9.19251496 8.50699844 12.77430066 8.48828125 16.38671875 C8.5626799 20.20810371 8.73612654 22.19446962 10.78125 25.53125 C15.91906866 30.37961409 21.03454074 29.95645356 27.80078125 29.92773438 C31.87522579 30.03833663 33.43854394 30.1025942 36.52734375 32.9765625 C38 35.625 38 35.625 38.0625 38.6875 C36.69679014 42.4632861 35.40511211 43.50745993 32 45.625 C28.43382955 46.24073188 24.84558448 46.08457781 21.23828125 46.02539062 C16.94424801 46.08999113 15.47391491 46.23027877 12.03125 49.09765625 C11.02578125 50.34869141 11.02578125 50.34869141 10 51.625 C9.67 51.955 9.34 52.285 9 52.625 C8.86372189 56.1190194 8.75205577 59.60678963 8.74609375 63.10351562 C8.55442381 68.91918511 7.2633817 71.61351678 3 75.625 C-0.0625 76.25 -0.0625 76.25 -3 75.625 C-5.30275556 73.7579009 -6.67823871 72.26852259 -8 69.625 C-8.13314977 66.08543523 -8.24789759 62.55187265 -8.25390625 59.00976562 C-8.39643212 54.69273192 -8.61225449 53.09017268 -11.484375 49.64453125 C-12.31453125 48.97808594 -13.1446875 48.31164062 -14 47.625 C-14.495 47.13 -14.495 47.13 -15 46.625 C-18.73811016 46.48879356 -22.47030306 46.37703126 -26.2109375 46.37109375 C-30.56929741 46.23622594 -32.49311601 46.00709275 -36.078125 43.3046875 C-38 40.625 -38 40.625 -38 37 C-36.63659865 32.39852045 -36.63659865 32.39852045 -34 30.625 C-30.44379444 30.27778569 -26.99110707 30.18862477 -23.42382812 30.18554688 C-18.17414687 30.0518851 -15.17134733 29.10217455 -11 25.625 C-8.14713195 21.34569792 -8.64346665 16.9553638 -8.609375 11.9609375 C-8.48795975 8.10263062 -8.23160705 6.01337164 -6.2109375 2.625 C-3.89104235 0.5264376 -3.06868548 -0.05993526 0 0 Z " fill="#F7776B" transform="translate(256,391.375)"/>
<path d="M0 0 C20.46 0 40.92 0 62 0 C62 9.57 62 19.14 62 29 C41.54 29 21.08 29 0 29 C-3.41504854 18.75485437 -3.41504854 18.75485437 -3.375 13.375 C-3.38273437 12.33085937 -3.39046875 11.28671875 -3.3984375 10.2109375 C-3 7 -3 7 0 0 Z " fill="#FC796D" transform="translate(73,392)"/>
<path d="M0 0 C0.763125 0.495 1.52625 0.99 2.3125 1.5 C1.94898438 1.97308594 1.58546875 2.44617188 1.2109375 2.93359375 C0.45683594 3.92552734 0.45683594 3.92552734 -0.3125 4.9375 C-0.79976563 5.57558594 -1.28703125 6.21367187 -1.7890625 6.87109375 C-6.79007596 13.79636548 -10.88430302 20.69913537 -14.5 28.4375 C-21.03723747 41.87981798 -29.01168371 51.32295658 -43.5625 56.375 C-54.50635102 59.12109178 -63.97573164 56.99624065 -74.5 53.5625 C-84.43000199 50.29112168 -84.43000199 50.29112168 -94.6875 48.5 C-91.61232916 37.94191344 -91.61232916 37.94191344 -89.6875 33.5 C-82.62778284 34.25511406 -76.11303328 37.16920767 -69.53710938 39.70507812 C-62.33055966 42.3390649 -54.70504042 44.39151524 -47.23754883 41.57641602 C-45.19567347 40.59821462 -45.19567347 40.59821462 -43.34375 39.47265625 C-41.6875 38.5 -41.6875 38.5 -38.6875 37.5 C-37.60318906 35.75132517 -37.60318906 35.75132517 -36.6875 33.5 C-35.97400391 32.19095703 -35.97400391 32.19095703 -35.24609375 30.85546875 C-33.21667131 26.48636129 -32.29835933 22.11638711 -31.31445312 17.421875 C-29.40830375 9.0635296 -25.09352064 4.4373471 -18.0625 -0.25 C-11.97527713 -2.50452699 -6.00324525 -2.44199807 0 0 Z " fill="#00D0B2" transform="translate(423.6875,243.5)"/>
<path d="M0 0 C1.87443683 0.54361232 3.74942112 1.0853412 5.625 1.625 C7.08479415 2.07865911 8.54370667 2.53522553 10 3 C9.81824219 3.65484375 9.63648438 4.3096875 9.44921875 4.984375 C9.07216797 6.35335937 9.07216797 6.35335937 8.6875 7.75 C8.40390625 8.75289062 8.1203125 9.75578125 7.828125 10.7890625 C6.9608565 13.95981931 6.9608565 13.95981931 6.484375 17.0859375 C5.09345251 24.81549248 2.45570155 27.90912272 -3.5625 32.81640625 C-10.11209612 38.68375278 -11.82544736 47.13910062 -13.39404297 55.46704102 C-14.14176438 59.02984194 -14.85106615 60.85201176 -17.4609375 63.4453125 C-20.78388818 65.47998076 -22.1240573 65.57421373 -26 65 C-29.72475244 63.80643292 -33.36725833 62.4479255 -37 61 C-37.60881334 38.78299628 -34.83151838 21.8308501 -19 5 C-12.56839999 -1.67983721 -8.77113896 -3.03462774 0 0 Z " fill="#00DAC1" transform="translate(391,207)"/>
<path d="M0 0 C1.43279297 0.37318359 1.43279297 0.37318359 2.89453125 0.75390625 C3.85746094 1.02074219 4.82039063 1.28757813 5.8125 1.5625 C6.78832031 1.83191406 7.76414063 2.10132813 8.76953125 2.37890625 C9.50558594 2.58386719 10.24164063 2.78882813 11 3 C9.48751152 6.84997068 7.18041174 8.45567061 4 11 C-8.41291075 26.30358859 -12.25027372 41.52941813 -12.4140625 60.9765625 C-12.4328129 62.39717688 -12.45238907 63.81778057 -12.4727478 65.2383728 C-12.52366678 68.94372199 -12.56350528 72.64910712 -12.60089111 76.35461426 C-12.64118586 80.14925737 -12.6921608 83.94375617 -12.7421875 87.73828125 C-12.83846917 95.15876177 -12.92203416 102.5793003 -13 110 C-16.96 110 -20.92 110 -25 110 C-25.01458252 108.31519531 -25.02916504 106.63039063 -25.04418945 104.89453125 C-25.09601923 99.30246979 -25.16135222 93.71067289 -25.23571491 88.11886597 C-25.28027556 84.73144958 -25.31956199 81.3441495 -25.34643555 77.95654297 C-25.38008992 74.05406748 -25.43241401 70.15221308 -25.48828125 66.25 C-25.49467117 65.04448486 -25.5010611 63.83896973 -25.50764465 62.59692383 C-25.64559696 51.90998504 -25.64559696 51.90998504 -31 43 C-32.2351961 31.14211748 -25.89314445 20.21584958 -18.7890625 11.19140625 C-7.3370242 -1.96084934 -7.3370242 -1.96084934 0 0 Z " fill="#F6CF70" transform="translate(70,206)"/>
<path d="M0 0 C7.59 0 15.18 0 23 0 C24.00760082 5.45698096 25.00782208 10.91437766 25.99072266 16.37573242 C26.32616 18.22771319 26.66557944 20.07897781 27.00927734 21.92944336 C32.29001076 50.40383533 32.29001076 50.40383533 28 57 C23.92193906 59.59512969 20.81637456 60.61485633 16 60 C12.42909265 58.58824593 11.25859988 57.49892754 9.4831543 54.07348633 C7.49834696 49.17962314 6.77894518 44.0784219 5.95703125 38.88671875 C5.78370773 37.83595657 5.61038422 36.7851944 5.43180847 35.70259094 C4.88364446 32.36553643 4.34811201 29.02658954 3.8125 25.6875 C3.44154171 23.4236991 3.06980508 21.16002561 2.69726562 18.89648438 C2.0225887 14.77245184 1.34854272 10.64834107 0.68676758 6.5222168 C0.55369705 5.69505661 0.42062653 4.86789642 0.28352356 4.01567078 C0 2 0 2 0 0 Z " fill="#8F8B9F" transform="translate(448,437)"/>
<path d="M0 0 C7.59 0 15.18 0 23 0 C22.20270738 5.11918625 21.40385378 10.23808443 20.60131836 15.35644531 C20.32994481 17.09003397 20.0594077 18.82375382 19.78979492 20.55761719 C19.00969164 25.57235932 18.2096481 30.58326318 17.38763428 35.59130859 C17.00965365 37.94001393 16.65739922 40.29155887 16.30712891 42.64453125 C16.07695941 44.07570029 15.84573407 45.50670005 15.61328125 46.9375 C15.42161377 48.18402344 15.22994629 49.43054688 15.0324707 50.71484375 C13.79638564 54.64786826 12.14532462 56.38972195 9 59 C4.84103192 60.4812763 1.13817653 60.46011391 -2.9375 58.8125 C-5.70774389 56.37804325 -6.83126836 54.3266749 -7.29858398 50.65234375 C-7.33445011 40.92475056 -5.69796364 31.55587347 -4.0625 22 C-3.78105352 20.30613019 -3.5004488 18.61212029 -3.22070312 16.91796875 C-1.20946771 4.83787083 -1.20946771 4.83787083 0 0 Z " fill="#736F89" transform="translate(41,437)"/>
<path d="M0 0 C5.50743443 3.24906673 10.59747807 7.9877467 12.64453125 14.12890625 C13.03256094 18.18083171 13.13509437 21.87183825 11.64453125 25.69140625 C9.03850071 27.5644907 6.74721923 27.7467557 3.578125 27.578125 C1.64453125 27.12890625 1.64453125 27.12890625 -0.73046875 25.00390625 C-2.37586681 22.09281737 -3.41003172 19.32884698 -4.35546875 16.12890625 C-5.46713739 14.79702832 -5.46713739 14.79702832 -8.29296875 14.94140625 C-11.46439734 14.79611892 -11.46439734 14.79611892 -13.35546875 17.12890625 C-13.66484375 18.26328125 -13.97421875 19.39765625 -14.29296875 20.56640625 C-15.82204159 25.69329752 -15.82204159 25.69329752 -18.35546875 27.12890625 C-21.11568794 27.59086762 -23.59817973 27.62292053 -26.35546875 27.12890625 C-28.35546875 25.69140625 -28.35546875 25.69140625 -29.35546875 23.12890625 C-30.16153836 17.84353845 -29.76160702 13.42801801 -26.765625 8.83203125 C-19.81419692 0.43640066 -10.92722174 -4.04107869 0 0 Z " fill="#040303" transform="translate(414.35546875,104.87109375)"/>
<path d="M0 0 C4.7865896 1.4115555 9.3784975 3.11091868 14 5 C13.3490961 8.64795474 12.38201944 12.02569081 11.15234375 15.51953125 C10.61577148 17.0519043 10.61577148 17.0519043 10.06835938 18.61523438 C9.50858398 20.19788086 9.50858398 20.19788086 8.9375 21.8125 C8.56044922 22.88693359 8.18339844 23.96136719 7.79492188 25.06835938 C6.86625342 27.71330118 5.93451811 30.35712054 5 33 C-3.93425977 31.90377181 -11.55169247 29.44830753 -18 23 C-20.54624448 18.76796608 -20.67940918 14.82296638 -20 10 C-15.3812331 0.93353164 -9.76850781 -1.44145054 0 0 Z " fill="#FAC8BB" transform="translate(306,266)"/>
<path d="M0 0 C13.2 0 26.4 0 40 0 C40 0.33 40 0.66 40 1 C30.76 1 21.52 1 12 1 C12.47551729 17.64310498 14.64272765 29.96409148 24 44 C26.86748316 44.47910061 26.86748316 44.47910061 30.28564453 44.43237305 C30.92967224 44.4425647 31.57369995 44.45275635 32.23724365 44.46325684 C34.36918725 44.49348761 36.50068236 44.50266751 38.6328125 44.51171875 C40.10970566 44.52855809 41.58658442 44.54670732 43.06344604 44.56611633 C46.95305889 44.61370399 50.84261339 44.64345625 54.73242188 44.66955566 C58.70063811 44.69931729 62.66865308 44.74586257 66.63671875 44.79101562 C74.42439683 44.87714846 82.21204503 44.942898 90 45 C90 40.05 90 35.1 90 30 C90.33 30 90.66 30 91 30 C91 35.28 91 40.56 91 46 C80.00374336 46.09037543 69.00773347 46.16375891 58.01118946 46.20724869 C52.90502434 46.22812179 47.79912652 46.25643456 42.69311523 46.30175781 C37.7653357 46.34522517 32.83781325 46.36913919 27.9098568 46.37950897 C26.0299646 46.38689873 24.15008645 46.40132923 22.27030373 46.42292023 C19.63668052 46.4519662 17.00411899 46.45595553 14.37036133 46.45410156 C13.59352493 46.46848267 12.81668854 46.48286377 12.01631165 46.49768066 C8.29361408 46.46933209 6.20221091 46.13000009 3.03935242 44.09661865 C-0.80848151 40.14073525 -0.12904274 36.29054755 -0.09765625 31.0546875 C-0.09664917 30.27037354 -0.09564209 29.48605957 -0.09460449 28.67797852 C-0.08936611 25.74363751 -0.07540487 22.80931731 -0.0625 19.875 C-0.041875 13.31625 -0.02125 6.7575 0 0 Z " fill="#6E6A82" transform="translate(45,331)"/>
<path d="M0 0 C-0.4846875 0.7528125 -0.969375 1.505625 -1.46875 2.28125 C-5.46312665 8.61080069 -9.17551567 15.01064918 -12.5625 21.6875 C-12.92085938 22.38230469 -13.27921875 23.07710937 -13.6484375 23.79296875 C-14.4974349 25.49772847 -15.25745964 27.24625084 -16 29 C-15.505 29.99 -15.505 29.99 -15 31 C-19.22282518 31.80395025 -23.19613764 32.11811363 -27.4921875 32.09765625 C-28.69101562 32.09443359 -29.88984375 32.09121094 -31.125 32.08789062 C-32.98125 32.07532227 -32.98125 32.07532227 -34.875 32.0625 C-36.13570313 32.05798828 -37.39640625 32.05347656 -38.6953125 32.04882812 C-41.79692386 32.0370796 -44.89843725 32.02065167 -48 32 C-40.57058857 16.40705367 -23.56741887 5.66656141 -7.8125 -0.0625 C-4.2409846 -0.94074149 -3.27348319 -1.0379337 0 0 Z " fill="#C48468" transform="translate(399,48)"/>
<path d="M0 0 C2.37788665 3.01863455 4.25790786 6.14464602 6.125 9.5 C9.41967624 15.23048389 13.14259447 20.38755422 17.1796875 25.6015625 C19 28 19 28 20 30 C7.33655821 29.04426854 -5.64151031 23.61966155 -15 15 C-11.43148336 11.31996721 -7.68500942 7.95750318 -3.76953125 4.6484375 C-1.78388311 2.92576263 -1.78388311 2.92576263 0 0 Z " fill="#C48368" transform="translate(67,165)"/>
<path d="M0 0 C3.35639224 0.92964983 6.70965639 1.8701393 10.0625 2.8125 C11.47692383 3.20405273 11.47692383 3.20405273 12.91992188 3.60351562 C18.14395197 5.07789346 23.07065719 6.72334098 28 9 C27.52140759 10.60433809 27.04210442 12.20846416 26.5625 13.8125 C26.29566406 14.70582031 26.02882813 15.59914063 25.75390625 16.51953125 C25.19612127 18.35473055 24.60655425 20.18033726 24 22 C15.14564492 21.23005608 7.40159046 18.23744712 1 12 C-0.26237731 9.47524538 -0.09856404 7.68799534 -0.0625 4.875 C-0.05347656 3.96492188 -0.04445313 3.05484375 -0.03515625 2.1171875 C-0.02355469 1.41851562 -0.01195312 0.71984375 0 0 Z " fill="#FBD9CB" transform="translate(287,277)"/>
<path d="M0 0 C3.67456788 2.80172331 4.88599917 4.21474954 5.55859375 8.84765625 C5.54410454 10.25310921 5.50313127 11.65850553 5.4375 13.0625 C5.43169922 13.76955078 5.42589844 14.47660156 5.41992188 15.20507812 C5.33318363 18.90012748 5.17770516 21.94241396 3 25 C0 27 0 27 -3.5 26.875 C-7 26 -7 26 -8.69140625 24.5078125 C-10.66267239 20.73004277 -10.47439027 17.19878351 -10.4375 13 C-10.45748047 12.19304687 -10.47746094 11.38609375 -10.49804688 10.5546875 C-10.49486396 6.69699439 -10.47713871 4.65404396 -8.15625 1.47265625 C-5.16187039 -0.57241823 -3.55510628 -0.6529787 0 0 Z " fill="#050302" transform="translate(112,108)"/>
</svg>
