<?xml version="1.0" encoding="UTF-8"?>
<svg version="1.1" xmlns="http://www.w3.org/2000/svg" width="512" height="512">
<path d="M0 0 C11.94219675 8.66563735 19.25249782 19.74779896 22.25 34.25 C23.50554687 34.27578125 24.76109375 34.3015625 26.0546875 34.328125 C38.17988162 34.69140856 48.17870676 35.40548909 57.25 44.25 C57.91 45.24 58.57 46.23 59.25 47.25 C61.39413178 47.71202049 61.39413178 47.71202049 63.90820312 47.65063477 C64.87681274 47.66397354 65.84542236 47.67731232 66.84338379 47.6910553 C67.89537964 47.69117111 68.94737549 47.69128693 70.03125 47.69140625 C71.65613342 47.71121803 71.65613342 47.71121803 73.31384277 47.73143005 C76.79258708 47.77244709 80.27106824 47.79400526 83.75 47.8125 C87.20028385 47.83637322 90.65032274 47.86471847 94.10046387 47.90428162 C96.24857096 47.92840528 98.39680599 47.94345281 100.54504395 47.94789124 C112.39503934 48.06935237 121.88442288 49.9276162 131.0703125 57.8125 C135.9390735 62.90145622 139.09888272 70.03034057 139.3515625 77.0859375 C139.30128906 78.15714844 139.30128906 78.15714844 139.25 79.25 C140.08660156 79.21519531 140.92320312 79.18039063 141.78515625 79.14453125 C165.53299032 78.59225604 188.03349532 86.84000223 205.24560547 103.23730469 C206.59442607 104.56072812 207.92289671 105.90479985 209.25 107.25 C210.24773437 108.24966797 210.24773437 108.24966797 211.265625 109.26953125 C227.1900913 126.30584092 234.49020983 149.28696208 234.25 172.25 C233.34562613 196.19153831 223.93793448 218.82548941 206.25 235.25 C205.57839844 235.91515625 204.90679687 236.5803125 204.21484375 237.265625 C188.98032252 251.83131359 168.405933 260.60448436 147.29296875 260.32421875 C146.1262262 260.31618225 146.1262262 260.31618225 144.93591309 260.3079834 C143.04056067 260.29414871 141.14526509 260.27285707 139.25 260.25 C139.25368717 261.37368138 139.25737434 262.49736277 139.26117325 263.6550951 C139.35002698 291.01449179 139.4157294 318.37386974 139.45724869 345.73338032 C139.47786151 358.96431422 139.50595782 372.19515272 139.55175781 385.42602539 C139.59166455 396.95994306 139.61744212 408.49379163 139.62635398 420.02777642 C139.63156217 426.13322676 139.64377703 432.23847944 139.67292023 438.34386635 C139.70014972 444.09515022 139.70842967 449.84615573 139.70243073 455.59749794 C139.70352758 457.70373041 139.71143626 459.80997258 139.7268219 461.91614914 C139.89115113 485.58018973 139.89115113 485.58018973 132.25 495.5625 C125.41150836 502.47414833 116.9494085 505.90525159 107.30981857 506.04313624 C106.24588242 506.02838767 105.18194628 506.0136391 104.08576965 505.9984436 C102.92213778 506.00639242 101.7585059 506.01434123 100.55961245 506.02253091 C97.36554893 506.03832568 94.17291462 506.02759061 90.97893488 506.00502992 C87.52081724 505.98721281 84.06283786 506.00427064 80.60472107 506.01675415 C73.84536805 506.0356559 67.08644439 506.02259745 60.32712344 505.99822827 C52.44732205 505.97088508 44.56762106 505.9742729 36.68778428 505.97849493 C22.62550863 505.98486353 8.56343612 505.96160149 -5.4987793 505.92236328 C-19.13002708 505.88433788 -32.76103696 505.87019522 -46.39233398 505.88134766 C-61.25688976 505.89347321 -76.12134117 505.89309256 -90.9858883 505.87037599 C-92.57181791 505.86796154 -94.15774752 505.86554957 -95.74367714 505.86314011 C-96.52387819 505.86193303 -97.30407925 505.86072595 -98.10792276 505.8594823 C-103.59515074 505.85173715 -109.08233974 505.85250602 -114.56957054 505.8563118 C-121.25809137 505.86056329 -127.94640432 505.85004994 -134.63486668 505.82108469 C-138.04468095 505.80663471 -141.45419306 505.79840976 -144.86403275 505.80757141 C-148.56526239 505.81402547 -152.26558426 505.79582675 -155.96672058 505.77139282 C-157.03734889 505.77895147 -158.10797719 505.78651012 -159.21104878 505.79429781 C-168.8694572 505.68161625 -175.92105029 502.76530939 -182.9609375 496.16015625 C-192.62852065 485.83821704 -192.04503704 473.40387473 -192.00396729 460.00512695 C-192.00627433 458.36195138 -192.00945249 456.71877684 -192.01342177 455.07560444 C-192.02174484 450.5796494 -192.01765583 446.08377963 -192.01144934 441.58782434 C-192.00691566 436.73158863 -192.01391315 431.87536735 -192.01940918 427.01913452 C-192.02829503 417.5134064 -192.02638476 408.00770989 -192.0205839 398.50198054 C-192.01606424 390.77537575 -192.01545582 383.04877981 -192.01763153 375.32217407 C-192.017938 374.22182243 -192.01824446 373.12147078 -192.01856022 371.98777515 C-192.01919968 369.7523218 -192.0198481 367.51686845 -192.0205054 365.2814151 C-192.02620633 344.32733631 -192.01965452 323.37327503 -192.00890467 302.41919911 C-191.99996937 284.44579845 -192.00152148 266.47242363 -192.01074219 248.49902344 C-192.021449 227.61911055 -192.02565703 206.739213 -192.01951766 185.85929775 C-192.01888057 183.63214048 -192.01825183 181.4049832 -192.01763153 179.17782593 C-192.01732298 178.08206704 -192.01701443 176.98630815 -192.01669653 175.85734445 C-192.01497082 168.1414343 -192.01788201 160.42553389 -192.02259064 152.70962524 C-192.02820402 143.30450606 -192.02667336 133.89942026 -192.01602915 124.4943049 C-192.01077863 119.69714665 -192.00870516 114.90004402 -192.01532745 110.1028862 C-192.0213018 105.70858543 -192.01798729 101.31439168 -192.00737235 96.92010057 C-192.00514462 95.3334229 -192.00626047 93.74673612 -192.01112393 92.16006434 C-192.05128912 77.96360857 -191.31801595 67.3369057 -181.5625 56.5 C-172.64916946 47.99446889 -160.68269519 48.09595697 -149.12890625 48.15234375 C-148.02900864 48.1537587 -146.92911102 48.15517365 -145.79588318 48.15663147 C-142.30139383 48.16220497 -138.80696981 48.17475261 -135.3125 48.1875 C-132.9355478 48.19251842 -130.5585946 48.19708073 -128.18164062 48.20117188 C-122.37107166 48.21216572 -116.5605405 48.22887738 -110.75 48.25 C-110.44908447 47.62295166 -110.14816895 46.99590332 -109.83813477 46.34985352 C-108.68346561 44.1216037 -107.55767617 42.8454576 -105.6875 41.1875 C-105.16027344 40.70152344 -104.63304687 40.21554688 -104.08984375 39.71484375 C-97.33319963 35.48489126 -90.49369926 34.82631554 -82.6875 35.0625 C-81.82189453 35.07603516 -80.95628906 35.08957031 -80.06445312 35.10351562 C-77.95935826 35.1384067 -75.85459026 35.19219335 -73.75 35.25 C-73.62753906 34.21488281 -73.50507813 33.17976563 -73.37890625 32.11328125 C-71.26015748 19.09811023 -63.69648119 8.50268931 -53.1875 0.78515625 C-36.92082982 -9.45971776 -16.5235322 -10.25019116 0 0 Z " fill="#010100" transform="translate(234.75,6.75)"/>
<path d="M0 0 C10.89 0 21.78 0 33 0 C35.31 3.3 37.62 6.6 40 10 C45.90898008 13.80973716 50.34664719 16.11632558 57.41859436 16.14717102 C59.10696915 16.15790398 59.10696915 16.15790398 60.82945251 16.16885376 C62.06530594 16.17154266 63.30115936 16.17423157 64.57446289 16.17700195 C65.87557007 16.18357315 67.17667725 16.19014435 68.51721191 16.19691467 C72.83568084 16.21794476 77.15415006 16.22831952 81.47265625 16.23828125 C82.96171016 16.2423299 84.45076389 16.24644686 85.93981743 16.25063133 C92.93972497 16.26968467 99.93962198 16.28391256 106.93955046 16.2922433 C115.00484682 16.30200147 123.06986768 16.32828295 131.13506705 16.36874419 C137.37727268 16.39897847 143.61939971 16.41371928 149.86167711 16.41702431 C153.58555767 16.41936748 157.309144 16.42823066 161.03294563 16.45348549 C165.19539612 16.48125801 169.35723792 16.47691284 173.51977539 16.4699707 C175.3523011 16.48918579 175.3523011 16.48918579 177.22184753 16.50878906 C185.49583231 16.45862584 192.87495498 15.38465232 199.4375 10 C199.953125 9.34 200.46875 8.68 201 8 C201.53625 7.34 202.0725 6.68 202.625 6 C204.24136321 3.7476003 204.24136321 3.7476003 206 0 C215.9 0 225.8 0 236 0 C232.90597263 3.09402737 230.14059429 5.73381365 226.8125 8.4375 C212.30517156 21.30340026 202.78870487 41.0356413 200 60 C198.88987634 79.60545663 199.43831662 100.67881798 210.75 117.62109375 C212.35670233 120.67884911 211.91056866 121.7102895 211 125 C210.13609573 126.95632737 209.2076743 128.8847947 208.234375 130.7890625 C207.67363281 131.89636719 207.11289062 133.00367188 206.53515625 134.14453125 C205.94605469 135.29308594 205.35695313 136.44164062 204.75 137.625 C195.72880402 152.56951797 195.72880402 152.56951797 193 169 C194.81290495 174.13656401 197.13046834 176.56523417 202 179 C212.24954959 181.04990992 223.9442176 171.3734745 232.38818359 166.25244141 C233.08766113 165.83140137 233.78713867 165.41036133 234.5078125 164.9765625 C235.13316895 164.59580566 235.75852539 164.21504883 236.40283203 163.82275391 C238 163 238 163 240 163 C240 228.67 240 294.34 240 362 C160.8 362 81.6 362 0 362 C0 242.54 0 123.08 0 0 Z " fill="#E8F2F9" transform="translate(89,103)"/>
<path d="M0 0 C1.51787109 -0.01160156 1.51787109 -0.01160156 3.06640625 -0.0234375 C22.47769735 0.02627131 39.62098832 7.61097124 53.8671875 20.8359375 C69.39063847 37.43367573 75.95150698 56.51596224 75.41015625 79.0234375 C75.15269393 85.07972698 74.21554972 90.549264 72.125 96.25 C71.77308594 97.23871094 71.42117188 98.22742188 71.05859375 99.24609375 C63.68597934 118.34676146 50.04129688 133.73233366 31.25 142.125 C13.02230125 149.77942805 -6.21193024 150.86167993 -24.875 144.25 C-25.96296875 143.70988281 -27.0509375 143.16976562 -28.171875 142.61328125 C-33.96922505 140.47902474 -38.85136145 140.0225719 -44.66796875 142.38378906 C-47.64568688 143.94272403 -50.50896792 145.61950765 -53.375 147.375 C-54.34308594 147.94476563 -55.31117188 148.51453125 -56.30859375 149.1015625 C-60.15260196 151.37184923 -63.96823057 153.68111306 -67.75 156.05371094 C-68.6471875 156.6109082 -69.544375 157.16810547 -70.46875 157.7421875 C-71.26990234 158.24862793 -72.07105469 158.75506836 -72.89648438 159.27685547 C-73.54939453 159.59799316 -74.20230469 159.91913086 -74.875 160.25 C-75.535 159.92 -76.195 159.59 -76.875 159.25 C-76.42584229 158.35692139 -75.97668457 157.46384277 -75.51391602 156.54370117 C-73.84765862 153.22928959 -72.18405118 149.9135539 -70.52124023 146.59741211 C-69.80125968 145.16247902 -69.08056143 143.7279058 -68.35913086 142.29370117 C-67.32216423 140.23190034 -66.28778728 138.16881821 -65.25390625 136.10546875 C-64.93096085 135.46473923 -64.60801544 134.8240097 -64.27528381 134.16386414 C-61.19195208 127.99797636 -59.66391601 123.12139852 -60.875 116.25 C-61.95176582 113.59325254 -63.27317722 111.08833004 -64.625 108.5625 C-73.4774111 91.78457041 -76.43548692 71.96671319 -71.38330078 53.35961914 C-67.72022172 41.880371 -61.76129901 32.28735646 -53.875 23.25 C-53.35550781 22.63511719 -52.83601563 22.02023438 -52.30078125 21.38671875 C-38.93508642 6.74168789 -19.36149514 -0.14686343 0 0 Z " fill="#FDD200" transform="translate(376.875,102.75)"/>
<path d="M0 0 C1.65196884 0.00848969 1.65196884 0.00848969 3.33731079 0.01715088 C6.84251013 0.03947758 10.34667396 0.08966928 13.8515625 0.140625 C16.23305812 0.16069469 18.61456981 0.17894464 20.99609375 0.1953125 C26.82331349 0.2393306 32.64976264 0.30833451 38.4765625 0.390625 C38.4765625 5.340625 38.4765625 10.290625 38.4765625 15.390625 C36.59952637 15.40464355 36.59952637 15.40464355 34.68457031 15.41894531 C30.040003 15.45882982 25.39609915 15.52458441 20.75195312 15.59814453 C18.74227423 15.62636307 16.73248416 15.64757321 14.72265625 15.66162109 C11.83275401 15.68303835 8.9441896 15.72968203 6.0546875 15.78125 C5.15663391 15.78247864 4.25858032 15.78370728 3.33331299 15.78497314 C2.49274353 15.80469177 1.65217407 15.8244104 0.78613281 15.84472656 C-0.31973175 15.85805023 -0.31973175 15.85805023 -1.44793701 15.87164307 C-4.46593594 16.62629811 -5.58843812 17.97669127 -7.5234375 20.390625 C-8.12281816 23.42459391 -8.12281816 23.42459391 -8.02680206 26.86871338 C-8.03261583 27.52046587 -8.03842959 28.17221835 -8.04441953 28.84372091 C-8.059068 31.03713712 -8.04511309 33.22944272 -8.03137207 35.42285156 C-8.03597911 37.00738219 -8.0423307 38.59190855 -8.05028105 40.17642593 C-8.06702476 44.53798617 -8.05870526 48.89919764 -8.04633617 53.26075935 C-8.03730854 57.9615837 -8.05124401 62.66234688 -8.06225586 67.36315918 C-8.08007018 76.57495564 -8.07618815 85.78662195 -8.0646053 94.99842358 C-8.05558269 102.48305011 -8.05434189 109.9676401 -8.05870056 117.45227051 C-8.05931349 118.51631237 -8.05992643 119.58035424 -8.06055793 120.6766398 C-8.06183679 122.83801875 -8.06313365 124.99939769 -8.0644483 127.16077662 C-8.07586263 147.44224919 -8.06272702 167.72364953 -8.04124683 188.00511026 C-8.02337509 205.41880762 -8.02647895 222.83239832 -8.04492188 240.24609375 C-8.06631353 260.4535129 -8.07476391 280.66086869 -8.06247282 300.86829758 C-8.06119858 303.02185821 -8.0599411 305.17541884 -8.05870056 307.32897949 C-8.05808346 308.38865504 -8.05746636 309.44833058 -8.05683056 310.5401175 C-8.05337254 318.01833758 -8.05921572 325.49651757 -8.06861877 332.97473145 C-8.07982121 342.08449626 -8.07683576 351.19412316 -8.0554958 360.30387211 C-8.04496168 364.95448462 -8.0409036 369.60486694 -8.05409241 374.25547791 C-8.06597347 378.50919474 -8.05952512 382.76246707 -8.0381822 387.01614332 C-8.03369785 388.55847593 -8.03602327 390.10084576 -8.04568535 391.64315462 C-8.05778052 393.73348895 -8.04544754 395.82228384 -8.02680206 397.91253662 C-8.02615265 399.0753503 -8.02550324 400.23816399 -8.02483416 401.43621445 C-7.40861179 405.06721965 -6.48803528 406.25024692 -3.5234375 408.390625 C-1.34123791 408.98268895 -1.34123791 408.98268895 1.03092098 408.89678288 C1.94496793 408.90783056 2.85901487 408.91887825 3.80076021 408.93026072 C4.80123575 408.92201995 5.80171129 408.91377918 6.83250427 408.9052887 C7.89820131 408.91223422 8.96389835 408.91917975 10.06188923 408.92633575 C13.64490453 408.94468123 17.22726336 408.93432005 20.81030273 408.92407227 C23.37418109 408.93112689 25.93805528 408.93986997 28.50192261 408.95018005 C34.75027045 408.9703906 40.99837432 408.97168863 47.2467423 408.96355451 C52.32480698 408.95725799 57.40281853 408.95838833 62.48088264 408.96482658 C63.20326635 408.96572824 63.92565006 408.96662989 64.66992419 408.96755887 C66.13738641 408.96941005 67.60484862 408.97127261 69.07231081 408.97314643 C82.83803275 408.98973125 96.60365224 408.98100006 110.36936802 408.96416085 C122.96585245 408.94946459 135.56209834 408.96408993 148.15855204 408.99293102 C161.08946078 409.02231761 174.0202594 409.03329939 186.95120007 409.02374882 C188.41360889 409.02272625 189.87601773 409.02173164 191.33842659 409.0207653 C192.05797586 409.02028891 192.77752513 409.01981252 193.51887892 409.0193217 C198.59064082 409.01715651 203.66229859 409.02696721 208.7340374 409.04153633 C215.56066836 409.06087278 222.38678486 409.05399236 229.21342087 409.02933693 C231.7220735 409.02431408 234.23075973 409.02785669 236.7393856 409.04048538 C240.15798561 409.05633637 243.57510783 409.04153811 246.99363708 409.01881409 C247.9918819 409.03064982 248.99012672 409.04248554 250.01862139 409.05467993 C254.41741155 408.99506977 256.82500918 408.80765426 260.59179306 406.39670944 C263.12850247 402.35082323 263.17697586 399.35425763 263.11579895 394.66508484 C263.12415463 393.78693251 263.1325103 392.90878018 263.14111918 392.00401717 C263.16306475 389.06176337 263.14943725 386.12075586 263.13598633 383.1784668 C263.14443815 381.06937206 263.15508161 378.96028514 263.16775513 376.85121155 C263.19594568 371.12430906 263.19342192 365.39778056 263.18546128 359.67082953 C263.18234028 353.68632442 263.20735869 347.70193926 263.22941589 341.71748352 C263.26689863 330.38451912 263.2790064 319.05167472 263.2820403 307.71865445 C263.28672652 294.81667039 263.3196359 281.91480688 263.35493815 269.01287591 C263.42692543 242.47214022 263.46339787 215.93145043 263.4765625 189.390625 C267.7665625 190.380625 272.0565625 191.370625 276.4765625 192.390625 C276.54661249 220.97142017 276.59953104 249.55220249 276.63199902 278.13306618 C276.64747448 291.40335584 276.66857705 304.6735922 276.70288086 317.94384766 C276.73276233 329.50884676 276.75213256 341.07380726 276.75882798 352.63884389 C276.76274234 358.76365841 276.7719559 364.88836248 276.79375267 371.01314163 C276.81409793 376.77668939 276.82040021 382.54008109 276.81588554 388.30366135 C276.81671162 390.42005003 276.82268884 392.53644386 276.83417892 394.65280151 C276.84909217 397.54107562 276.84552019 400.42875951 276.83732605 403.31704712 C276.84606457 404.1555787 276.8548031 404.99411027 276.86380643 405.8580519 C276.82082785 411.45810612 275.89291941 415.74144203 271.9765625 420.03515625 C267.82149791 423.27047998 265.04478442 424.51361955 259.83219528 424.52484608 C258.39281023 424.53153284 258.39281023 424.53153284 256.92434669 424.53835469 C255.86784927 424.53817033 254.81135185 424.53798597 253.72283936 424.53779602 C252.60223814 424.54147271 251.48163693 424.5451494 250.3270781 424.5489375 C246.5523574 424.55999689 242.77766419 424.56382199 239.00292969 424.56762695 C236.30451798 424.57388984 233.60610923 424.5805235 230.90769958 424.58753967 C222.79613292 424.60730233 214.68456501 424.61736978 206.57298028 424.62626746 C202.75346888 424.63065045 198.93395886 424.63601721 195.11444855 424.64125633 C182.41837222 424.65826797 169.72229676 424.6727625 157.02621078 424.68000507 C153.73150379 424.68191498 150.43679681 424.68383531 147.14208984 424.68579102 C146.32320346 424.68627476 145.50431707 424.6867585 144.66061595 424.6872569 C131.39294692 424.69555855 118.12536801 424.72089803 104.85773835 424.75337169 C91.23756829 424.7864366 77.61744404 424.80445329 63.99723363 424.80764931 C56.3493842 424.80981488 48.70166622 424.81857031 41.0538559 424.84411049 C34.54114015 424.86580971 28.02858776 424.87387178 21.51583996 424.86414371 C18.19331108 424.85959664 14.87139284 424.8636864 11.54886436 424.88090515 C7.94503035 424.89853827 4.34205411 424.89155911 0.73822021 424.87837219 C-0.83314158 424.89482606 -0.83314158 424.89482606 -2.43624806 424.91161233 C-8.678603 424.8563919 -12.52069654 424.24106543 -17.5234375 420.390625 C-21.0700774 415.94345453 -22.02379514 413.01657505 -22.02680206 407.35968018 C-22.03261583 406.67245172 -22.03842959 405.98522326 -22.04441953 405.2771697 C-22.05901377 402.97511155 -22.04513802 400.67412062 -22.03137207 398.37207031 C-22.03598124 396.70474325 -22.04233426 395.03742024 -22.05028105 393.37010574 C-22.06699539 388.7888992 -22.05871846 384.20802552 -22.04633617 379.6268177 C-22.03729662 374.68604388 -22.05124997 369.74532783 -22.06225586 364.80456543 C-22.08005736 355.12581003 -22.07619382 345.4471786 -22.0646053 335.76841831 C-22.05557767 327.90342248 -22.05434407 320.03846144 -22.05870056 312.17346191 C-22.05931349 311.05476125 -22.05992643 309.93606059 -22.06055793 308.7834599 C-22.06183681 306.51095548 -22.06313366 304.23845107 -22.0644483 301.96594667 C-22.07585887 280.6485944 -22.06273289 259.33131089 -22.04124683 238.0139699 C-22.02337543 219.71631007 -22.0264794 201.41875174 -22.04492188 183.12109375 C-22.06632014 161.88086144 -22.07476019 140.64068943 -22.06247282 119.40044785 C-22.0611986 117.13622794 -22.05994112 114.87200802 -22.05870056 112.60778809 C-22.05808346 111.49370174 -22.05746636 110.37961539 -22.05683056 109.23176885 C-22.05337452 101.3747534 -22.05921146 93.51777614 -22.06861877 85.6607666 C-22.07982852 76.08778178 -22.07682025 66.51492818 -22.0554958 56.94195843 C-22.04497162 52.05615706 -22.04088686 47.17057461 -22.05409241 42.28477478 C-22.0659938 37.81392493 -22.05949107 33.34349734 -22.0381822 28.87268591 C-22.03370656 27.25366175 -22.03600394 25.63460208 -22.04568535 24.01560068 C-22.05782577 21.81708113 -22.04540029 19.62001329 -22.02680206 17.42156982 C-22.02615265 16.19984447 -22.02550324 14.97811913 -22.02483416 13.7193718 C-21.25088445 8.58115919 -18.73279456 5.51431635 -14.99365234 2.04003906 C-9.97438028 -0.34565125 -5.48683436 -0.10659095 0 0 Z " fill="#2E5172" transform="translate(81.5234375,71.609375)"/>
<path d="M0 0 C8.61062465 4.97732506 14.9458846 12.69082234 17.58984375 22.37890625 C18.2278469 26.03292427 18.71094016 29.64256892 19.03125 33.3359375 C19.23715225 35.5238822 19.23715225 35.5238822 20.27734375 38.31640625 C23.62596568 39.43261356 26.21059262 39.45834701 29.73828125 39.4921875 C31.65253906 39.52795898 31.65253906 39.52795898 33.60546875 39.56445312 C35.62869149 39.59953082 37.65131512 39.62889942 39.67480469 39.64233398 C41.63368473 39.65786927 43.59229954 39.69974057 45.55078125 39.7421875 C46.72044434 39.75677002 47.89010742 39.77135254 49.09521484 39.78637695 C52.9323028 40.42549909 54.55236132 41.5796548 57.27734375 44.31640625 C60.79046789 49.37092191 59.64637303 56.24476271 59.65234375 62.12890625 C59.67683594 63.38767578 59.70132813 64.64644531 59.7265625 65.94335938 C59.74848624 72.87491397 59.73871604 77.82970103 55.27734375 83.31640625 C52.11049232 85.34583223 49.58657497 85.57242218 45.86343384 85.59056091 C44.76435196 85.60053604 43.66527008 85.61051117 42.53288269 85.62078857 C41.33174332 85.62145325 40.13060394 85.62211792 38.89306641 85.62280273 C36.99007027 85.63528801 36.99007027 85.63528801 35.04862976 85.64802551 C31.57129307 85.6699533 28.09404431 85.67876699 24.61664629 85.68385196 C22.44296129 85.68749739 20.26929925 85.6937384 18.09562302 85.70085335 C10.5090509 85.72534131 2.92254711 85.73839844 -4.6640625 85.74194336 C-11.73059875 85.74557877 -18.79670071 85.77547569 -25.86310422 85.81734794 C-31.93458109 85.8520607 -38.00591408 85.86749196 -44.0774895 85.86818939 C-47.70179845 85.86898185 -51.32566484 85.87770517 -54.94987106 85.90618706 C-58.99342163 85.93725464 -63.03593936 85.92830361 -67.07958984 85.91577148 C-68.27668076 85.93060577 -69.47377167 85.94544006 -70.70713806 85.96072388 C-79.75398241 85.88076695 -79.75398241 85.88076695 -83.4503479 82.96644592 C-87.95868476 77.7086773 -86.94360169 71.63841333 -86.96289062 65.02954102 C-86.9725713 63.02152598 -87.00376916 61.01365243 -87.03515625 59.00585938 C-87.0403125 57.73033203 -87.04546875 56.45480469 -87.05078125 55.140625 C-87.06012695 53.97619873 -87.06947266 52.81177246 -87.07910156 51.61206055 C-86.67484118 47.87431338 -85.69193747 45.5042307 -83.72265625 42.31640625 C-80.13585793 39.92520737 -78.51923275 40.07665588 -74.26171875 40.078125 C-72.98554688 40.06201172 -71.709375 40.04589844 -70.39453125 40.02929688 C-68.37118714 40.01286088 -66.34860055 40.00390294 -64.32519531 40.01098633 C-62.36644326 40.0136152 -60.4077335 39.98372679 -58.44921875 39.953125 C-56.69472412 39.94865356 -56.69472412 39.94865356 -54.90478516 39.9440918 C-50.79132881 39.1326988 -49.307738 37.5502812 -46.72265625 34.31640625 C-45.87876878 31.0959597 -45.87876878 31.0959597 -45.72265625 27.62890625 C-44.60247949 17.88336846 -41.26821345 10.76855055 -34.0078125 4.078125 C-23.89279527 -3.71994811 -11.70303619 -5.44371375 0 0 Z " fill="#FE4545" transform="translate(222.72265625,18.68359375)"/>
<path d="M0 0 C1.22263046 -0.00241196 2.44526093 -0.00482391 3.7049408 -0.00730896 C6.2845281 -0.00633119 8.86413656 0.00704527 11.44360352 0.03198242 C15.39216313 0.06631772 19.33848798 0.05262781 23.28710938 0.03320312 C25.79558244 0.04010083 28.30404974 0.04977252 30.8125 0.0625 C31.99280289 0.05754013 33.17310577 0.05258026 34.38917542 0.04747009 C42.5576749 0.16491783 42.5576749 0.16491783 46.56030273 2.53930664 C49.34559408 5.80989364 49.47417958 7.69010389 49.5168457 11.91723633 C49.53609856 13.57454521 49.53609856 13.57454521 49.55574036 15.26533508 C49.56312729 16.46425888 49.57051422 17.66318268 49.578125 18.8984375 C49.58619675 20.12672775 49.59426849 21.35501801 49.60258484 22.62052917 C49.61643509 25.22397445 49.62715302 27.82743795 49.63500977 30.4309082 C49.64823866 34.41450346 49.69610892 38.39748905 49.74023438 42.38085938 C49.75036047 44.90754597 49.75887683 47.43423963 49.765625 49.9609375 C49.78313309 51.1537886 49.80064117 52.34663971 49.81867981 53.57563782 C49.79694924 61.85266613 49.79694924 61.85266613 47.43823242 65.8581543 C44.12223691 68.65639926 42.21806954 68.76074019 37.94384766 68.79003906 C36.81572662 68.79964661 35.68760559 68.80925415 34.52529907 68.81915283 C33.30136444 68.82340271 32.07742981 68.82765259 30.81640625 68.83203125 C29.56354828 68.83773132 28.31069031 68.8434314 27.01986694 68.8493042 C24.36509567 68.85876465 21.71043773 68.86565612 19.05566406 68.86914062 C15.65705924 68.87462339 12.25885546 68.89864684 8.86037636 68.92711258 C5.61658333 68.95023869 2.37277018 68.95218869 -0.87109375 68.95703125 C-2.700923 68.97555145 -2.700923 68.97555145 -4.56771851 68.9944458 C-5.70214386 68.9914447 -6.83656921 68.9884436 -8.00537109 68.98535156 C-9.50189713 68.99082001 -9.50189713 68.99082001 -11.02865601 68.99639893 C-14.10390724 68.56693581 -15.45001323 67.78233846 -17.66015625 65.62890625 C-18.68516302 62.55388595 -18.81723 60.35974747 -18.86889648 57.13525391 C-18.8881871 56.0104361 -18.90747772 54.88561829 -18.92735291 53.72671509 C-18.98504891 48.59259962 -19.03464728 43.45856622 -19.06518555 38.32421875 C-19.08300723 35.61377697 -19.1178426 32.90437404 -19.16772461 30.19433594 C-19.23949888 26.2897572 -19.26215136 22.38567761 -19.28125 18.48046875 C-19.30908066 17.26888092 -19.33691132 16.05729309 -19.36558533 14.80899048 C-19.34550898 6.62417896 -19.34550898 6.62417896 -16.41259766 2.36499023 C-11.54504695 -0.66687402 -5.5236788 -0.06215345 0 0 Z " fill="#040404" transform="translate(129.66015625,363.37109375)"/>
<path d="M0 0 C1.16801147 -0.01253311 2.33602295 -0.02506622 3.53942871 -0.03797913 C4.79678833 -0.02472092 6.05414795 -0.01146271 7.34960938 0.00219727 C8.64402954 -0.00021469 9.93844971 -0.00262665 11.27209473 -0.00511169 C14.0093532 -0.00796732 16.74579233 0.00670586 19.48291016 0.03417969 C22.98712102 0.06826437 26.48986726 0.06224334 29.99414825 0.04351711 C33.34194706 0.03039192 36.68932078 0.04866574 40.03710938 0.06469727 C41.9231488 0.05725746 41.9231488 0.05725746 43.84729004 0.04966736 C45.01530151 0.06550369 46.18331299 0.08134003 47.38671875 0.09765625 C48.92749084 0.10695412 48.92749084 0.10695412 50.49938965 0.11643982 C53.88406404 0.76305771 55.04968159 1.99290407 57.19335938 4.63110352 C58.46517663 7.17473803 58.33418614 8.97995326 58.35449219 11.82763672 C58.36409973 12.91248856 58.37370728 13.99734039 58.38360596 15.11506653 C58.38785583 16.29211655 58.39210571 17.46916656 58.39648438 18.68188477 C58.40218445 19.88797897 58.40788452 21.09407318 58.41375732 22.3367157 C58.42321783 24.89308797 58.42974546 27.44947249 58.43359375 30.00585938 C58.44329331 33.91696479 58.47430528 37.82754354 58.50585938 41.73852539 C58.51238982 44.21964205 58.51764013 46.70076249 58.52148438 49.18188477 C58.53383118 50.35286209 58.54617798 51.52383942 58.55889893 52.7303009 C58.55589783 53.82460922 58.55289673 54.91891754 58.54980469 56.04638672 C58.55527313 57.48628716 58.55527313 57.48628716 58.56085205 58.95527649 C58.12216634 62.14948185 57.07390642 64.03395554 55.19335938 66.63110352 C52.56215275 67.94670683 50.56044621 67.78724075 47.61376953 67.82397461 C46.44560699 67.84003754 45.27744446 67.85610046 44.07388306 67.87265015 C38.73414564 67.91697934 33.39455607 67.95859662 28.0546875 67.98120117 C25.23372014 67.99454793 22.41347491 68.02241303 19.59277344 68.06323242 C15.5350315 68.12195318 11.47806639 68.13985024 7.41992188 68.15454102 C6.15628815 68.17721039 4.89265442 68.19987976 3.59072876 68.22323608 C2.4162619 68.22038605 1.24179504 68.21753601 0.03173828 68.21459961 C-1.00147552 68.22268646 -2.03468933 68.23077332 -3.09921265 68.23910522 C-5.80664062 67.63110352 -5.80664062 67.63110352 -8.13919067 65.45217896 C-10.01159107 62.28435808 -10.3124444 60.56000065 -10.32421875 56.91040039 C-10.33682739 55.78573364 -10.34943604 54.66106689 -10.36242676 53.50231934 C-10.35432983 52.29700562 -10.34623291 51.09169189 -10.33789062 49.84985352 C-10.34171753 48.60361206 -10.34554443 47.35737061 -10.3494873 46.07336426 C-10.35290271 42.76735404 -10.33683559 39.46209894 -10.31445312 36.15618896 C-10.30664706 34.13277194 -10.31442584 32.11004879 -10.328125 30.08666992 C-10.35283764 26.19490396 -10.34984142 22.30416231 -10.33789062 18.41235352 C-10.34598755 17.20703979 -10.35408447 16.00172607 -10.36242676 14.7598877 C-10.34981812 13.63522095 -10.33720947 12.5105542 -10.32421875 11.35180664 C-10.32103638 10.36539185 -10.317854 9.37897705 -10.3145752 8.3626709 C-9.16898082 2.20190058 -6.04261053 0.00565776 0 0 Z " fill="#030503" transform="translate(120.806640625,152.368896484375)"/>
<path d="M0 0 C1.16478378 -0.01583633 2.32956757 -0.03167267 3.52964783 -0.04798889 C4.78387039 -0.04302902 6.03809296 -0.03806915 7.33032227 -0.03295898 C9.268395 -0.04225685 9.268395 -0.04225685 11.24562073 -0.05174255 C13.97854444 -0.06214113 16.71094732 -0.05759469 19.44384766 -0.04296875 C22.93913677 -0.02579013 26.43278053 -0.04926355 29.92788601 -0.08445835 C33.27046105 -0.11175532 36.61264094 -0.10169438 39.95532227 -0.09545898 C41.83361977 -0.1153463 41.83361977 -0.1153463 43.74986267 -0.13563538 C48.62397488 -0.08333132 52.16195511 -0.0236494 56.50268555 2.28540039 C59.21107379 7.44024977 58.86221475 12.3968149 58.76782227 18.13110352 C58.76432518 19.97072914 58.76432518 19.97072914 58.76075745 21.84751892 C58.75102319 24.43731655 58.72924389 27.02709297 58.69628906 29.61669922 C58.64686846 33.58471122 58.63480708 37.55148336 58.62915039 41.51977539 C58.61506483 44.03606465 58.5988606 46.55234312 58.58032227 49.06860352 C58.57227821 50.85150536 58.57227821 50.85150536 58.56407166 52.67042542 C58.54808426 53.77514694 58.53209686 54.87986847 58.515625 56.01806641 C58.4996653 57.47437218 58.4996653 57.47437218 58.48338318 58.96009827 C58.19493814 61.66758371 57.69754088 63.26561214 56.20922852 65.53344727 C52.80900611 67.80026221 51.59910144 67.78992802 47.60791016 67.80810547 C45.88581078 67.82240349 45.88581078 67.82240349 44.12892151 67.83699036 C42.88827438 67.83607895 41.64762726 67.83516754 40.36938477 67.83422852 C38.45892616 67.8406562 38.45892616 67.8406562 36.50987244 67.84721375 C33.8138961 67.85296196 31.118302 67.85438685 28.42236328 67.84912109 C24.9710671 67.84332777 21.52030781 67.86025458 18.06910038 67.88346577 C14.77336582 67.90175856 11.47766096 67.89801752 8.18188477 67.89672852 C6.94326187 67.90593826 5.70463898 67.91514801 4.42848206 67.92463684 C3.27726364 67.91840805 2.12604523 67.91217926 0.93994141 67.90576172 C-0.57870766 67.90670586 -0.57870766 67.90670586 -2.1280365 67.90766907 C-5.21978362 67.47315373 -6.57092258 66.70106677 -8.79077148 64.53344727 C-9.82075234 61.44350469 -9.93567949 59.26413413 -9.96777344 56.02392578 C-9.98060867 54.89588028 -9.99344391 53.76783478 -10.00666809 52.60560608 C-10.01405502 51.38683273 -10.02144196 50.16805939 -10.02905273 48.91235352 C-10.03712448 47.66091049 -10.04519623 46.40946747 -10.05351257 45.12010193 C-10.06735057 42.47130633 -10.07836859 39.8226351 -10.0859375 37.17382812 C-10.09701605 33.78297961 -10.13143998 30.39278479 -10.1711092 27.0021677 C-10.20354573 23.76396113 -10.20805061 20.5256978 -10.21655273 17.28735352 C-10.23406082 16.0706044 -10.25156891 14.85385529 -10.26960754 13.60023499 C-10.26668198 12.46903732 -10.26375641 11.33783966 -10.26074219 10.17236328 C-10.26660843 9.17769547 -10.27247467 8.18302765 -10.27851868 7.15821838 C-9.18385156 1.26735797 -5.51693214 0.03339025 0 0 Z " fill="#030402" transform="translate(120.790771484375,258.466552734375)"/>
<path d="M0 0 C6.40826615 4.7734014 11.01934323 11.41769626 13.25 19.125 C14.77762075 29.64860961 13.27058652 38.12174345 7.32421875 47.0859375 C2.78705558 52.83066606 -2.85927036 56.51301632 -9.1875 60 C-10.44806021 62.52112042 -10.36677342 64.499516 -10.5 67.3125 C-10.81419908 70.89061785 -11.13402525 72.89716394 -12.8125 76.125 C-16.04710238 78.67863346 -18.0752824 79.14428834 -22.1875 79 C-25.125 77.375 -25.125 77.375 -27.1875 74 C-28.42994862 65.96767866 -27.62468297 57.92200543 -23.1875 51 C-18.78321055 46.17784628 -13.65159644 42.51263342 -8.1875 39 C-4.12140133 35.80520819 -3.39280987 31.58381901 -2.75 26.625 C-3.3342042 21.78445091 -4.93595274 18.62068427 -8.1875 15 C-12.86099646 11.50954344 -17.34616679 10.24279014 -23.1875 11 C-28.06282015 12.75511526 -31.71311872 15.40726353 -34.1875 20 C-35.06040218 23.0837105 -35.74139421 26.14031654 -36.31640625 29.29296875 C-37.34756748 32.49742943 -38.26852867 33.3985827 -41.1875 35 C-44.6875 35.5 -44.6875 35.5 -48.1875 35 C-50.9538059 32.87207239 -51.97410897 31.24294774 -52.56640625 27.79296875 C-52.99675826 18.97769369 -50.0811209 11.91603698 -44.5 5.1875 C-40.55085663 1.02508818 -36.40447981 -1.6704668 -31.1875 -4 C-30.218125 -4.433125 -29.24875 -4.86625 -28.25 -5.3125 C-18.09423597 -7.59236539 -8.7321238 -5.50876797 0 0 Z " fill="#040300" transform="translate(397.1875,125)"/>
<path d="M0 0 C0.91099457 -0.00700928 1.82198914 -0.01401855 2.7605896 -0.02124023 C5.77169278 -0.0388444 8.78185602 -0.02718876 11.79296875 -0.01367188 C13.88517436 -0.01636609 15.97737876 -0.02024792 18.06958008 -0.02526855 C22.45438559 -0.03116689 26.83886518 -0.02258967 31.22363281 -0.00390625 C36.84633833 0.01888328 42.46828015 0.00576202 48.09095764 -0.01819611 C52.41123212 -0.03264489 56.73132531 -0.02805227 61.05160522 -0.01768494 C63.12486867 -0.01501512 65.19814854 -0.01829635 67.27139282 -0.02760315 C70.16835171 -0.03775342 73.06407103 -0.02228876 75.9609375 0 C76.81924164 -0.00809692 77.67754578 -0.01619385 78.56185913 -0.02453613 C82.37393197 0.02984644 84.35054593 0.06479639 87.5090332 2.33508301 C89.70376678 5.5904042 89.58592014 7.68305264 88.98046875 11.51757812 C87.00115172 14.20419787 85.41569614 16.17370321 82.06594849 16.97628975 C79.71271034 17.16215241 77.40730372 17.18175619 75.046875 17.14868164 C73.71183426 17.1594146 73.71183426 17.1594146 72.349823 17.17036438 C69.41367959 17.18724549 66.47906431 17.16785226 63.54296875 17.14648438 C61.49942905 17.14731313 59.45588942 17.14977274 57.41235352 17.15379333 C53.13179432 17.15665094 48.85175847 17.1419535 44.57128906 17.11450195 C39.08656111 17.08041952 33.60276896 17.08643789 28.11799622 17.10516453 C23.89888725 17.11573705 19.67999574 17.10679434 15.46090698 17.09177971 C13.4387171 17.08659931 11.4165045 17.08707797 9.39431763 17.09332466 C6.56706982 17.09877982 3.74115805 17.07839202 0.9140625 17.05102539 C-0.33759201 17.06081421 -0.33759201 17.06081421 -1.61453247 17.07080078 C-5.61639418 17.00498943 -7.5721952 16.80033975 -11.03857422 14.60923767 C-13.01953125 12.51757812 -13.01953125 12.51757812 -13.6484375 10.51757812 C-13.62652344 9.85757812 -13.60460937 9.19757813 -13.58203125 8.51757812 C-13.58332031 7.85757812 -13.58460938 7.19757813 -13.5859375 6.51757812 C-11.62395571 -0.41024722 -6.01474794 -0.05674091 0 0 Z " fill="#040404" transform="translate(217.01953125,372.482421875)"/>
<path d="M0 0 C11.88 0 23.76 0 36 0 C36 11.88 36 23.76 36 36 C24.12 36 12.24 36 0 36 C0 24.12 0 12.24 0 0 Z " fill="#6DD43E" transform="translate(127,380)"/>
<path d="M0 0 C11.55 0 23.1 0 35 0 C35 11.55 35 23.1 35 35 C23.45 35 11.9 35 0 35 C0 23.45 0 11.9 0 0 Z " fill="#70DA40" transform="translate(127,275)"/>
<path d="M0 0 C11.55 0 23.1 0 35 0 C35 11.55 35 23.1 35 35 C23.45 35 11.9 35 0 35 C0 23.45 0 11.9 0 0 Z " fill="#70DA40" transform="translate(127,169)"/>
<path d="M0 0 C1.20474976 -0.01583633 2.40949951 -0.03167267 3.65075684 -0.04798889 C4.94356567 -0.04302902 6.23637451 -0.03806915 7.56835938 -0.03295898 C8.91687448 -0.0381979 10.26538591 -0.04447536 11.6138916 -0.05174255 C14.43499034 -0.06213153 17.25558419 -0.05760723 20.07666016 -0.04296875 C23.68512176 -0.02577349 27.29199208 -0.04928966 30.90027618 -0.08445835 C33.6833951 -0.10645789 36.4661346 -0.10498517 39.24931335 -0.09669304 C41.22407183 -0.09547853 43.1988069 -0.11538459 45.17346191 -0.13563538 C55.12975075 -0.03205928 55.12975075 -0.03205928 58.2265625 2.88525391 C60.32339474 6.17962519 60.71016884 7.70276184 59.91210938 11.53344727 C58.26705974 14.14257921 57.55630025 15.10843497 54.91210938 16.53344727 C50.28103839 17.29225442 45.68550443 17.20947339 41.00195312 17.16235352 C39.62862459 17.16318275 38.25529617 17.16564421 36.88197327 17.16966248 C34.00947044 17.17251568 31.13774943 17.15786622 28.26538086 17.13037109 C24.5874657 17.09625503 20.91094493 17.10232066 17.23296261 17.12103367 C14.39926063 17.13161162 11.56588208 17.12265955 8.73221016 17.10764885 C6.71812871 17.09996294 4.70400804 17.10731466 2.68992615 17.11488342 C1.46508011 17.09904709 0.24023407 17.08321075 -1.02172852 17.06689453 C-2.09918839 17.06069595 -3.17664825 17.05449738 -4.28675842 17.04811096 C-7.74885478 16.41200557 -8.9304936 15.25797466 -11.08789062 12.53344727 C-11.65429688 10.53344727 -11.65429688 10.53344727 -11.65039062 8.53344727 C-11.67230469 7.87344727 -11.69421875 7.21344727 -11.71679688 6.53344727 C-10.0128987 1.11483941 -5.07783109 0.02976463 0 0 Z " fill="#010102" transform="translate(215.087890625,160.466552734375)"/>
<path d="M0 0 C1.10472153 -0.01583633 2.20944305 -0.03167267 3.34764099 -0.04798889 C4.53624222 -0.04302902 5.72484344 -0.03806915 6.94946289 -0.03295898 C8.78765343 -0.04225685 8.78765343 -0.04225685 10.66297913 -0.05174255 C13.254478 -0.05884634 15.84602245 -0.05565711 18.4375 -0.04296875 C22.40393078 -0.02911626 26.36799752 -0.06315548 30.33422852 -0.10131836 C32.85180722 -0.10226965 35.36938888 -0.10041022 37.88696289 -0.09545898 C39.07353989 -0.10871719 40.26011688 -0.1219754 41.48265076 -0.13563538 C50.63914759 -0.0320501 50.63914759 -0.0320501 53.74072266 2.88134766 C55.87191005 6.12243524 56.13281033 7.72532403 55.48461914 11.53344727 C53.70477509 14.66936297 52.96153707 15.37447462 49.48461914 16.53344727 C47.74752407 16.64099128 46.00668242 16.69217615 44.26635742 16.71044922 C43.20160187 16.72328445 42.13684631 16.73611969 41.03982544 16.74934387 C39.88981049 16.7567308 38.73979553 16.76411774 37.55493164 16.77172852 C36.37244843 16.77980026 35.18996521 16.78787201 33.97164917 16.79618835 C31.46833766 16.81002536 28.96500732 16.82074923 26.46166992 16.82861328 C22.63171792 16.84584782 18.80262417 16.88974162 14.97290039 16.93383789 C12.54191716 16.9439629 10.11092659 16.9524796 7.67993164 16.95922852 C5.9609819 16.98549065 5.9609819 16.98549065 4.20730591 17.01228333 C-3.74063095 16.99057378 -3.74063095 16.99057378 -7.73828125 14.63183594 C-9.65563148 12.36784017 -10.17509449 11.46129299 -10.07788086 8.53344727 C-10.07916992 7.87344727 -10.08045898 7.21344727 -10.08178711 6.53344727 C-8.61337519 1.34843414 -4.98103818 0.03180172 0 0 Z " fill="#020303" transform="translate(213.515380859375,266.466552734375)"/>
<path d="M0 0 C6.72604977 -0.0742768 13.4518596 -0.12866276 20.17822266 -0.16479492 C22.46537435 -0.17986116 24.75249725 -0.20031797 27.03955078 -0.22631836 C30.33112707 -0.26279606 33.62232062 -0.27974834 36.9140625 -0.29296875 C37.93303619 -0.30845261 38.95200989 -0.32393646 40.00186157 -0.33988953 C47.16563141 -0.34157947 51.49413694 0.65756279 56.875 5.6875 C59.60487682 9.94289622 59.42656834 12.05180731 59 17 C57.2097939 17.67057887 55.41778511 18.3363469 53.625 19 C52.62726563 19.37125 51.62953125 19.7425 50.6015625 20.125 C48 21 48 21 46 21 C45.32880127 20.18958252 44.65760254 19.37916504 43.96606445 18.54418945 C39.85807899 15.0204989 36.792471 15.26926725 31.54296875 15.29296875 C30.64000565 15.27784744 29.73704254 15.26272614 28.80671692 15.24714661 C25.93339021 15.20428851 23.06111442 15.19543351 20.1875 15.1875 C18.23499814 15.1643542 16.28252124 15.13898869 14.33007812 15.11132812 C9.55329259 15.04849442 4.77716228 15.01614441 0 15 C0 10.05 0 5.1 0 0 Z " fill="#2E5173" transform="translate(298,72)"/>
<path d="M0 0 C1.04647705 -0.00145523 2.0929541 -0.00291046 3.17114258 -0.00440979 C5.38007394 -0.00275239 7.58901704 0.00879097 9.79785156 0.02954102 C13.17563008 0.05849201 16.55183828 0.05014652 19.9296875 0.03710938 C22.07813262 0.04334717 24.22657278 0.05173843 26.375 0.0625 C27.38344971 0.05956436 28.39189941 0.05662872 29.4309082 0.05360413 C38.26283473 0.1722151 38.26283473 0.1722151 42.1875 3.49609375 C43.63180855 6.38471084 43.56438506 8.29257076 43.1875 11.49609375 C41.1301084 14.50606844 39.48748233 16.24151941 35.82858276 16.95803833 C32.84195038 17.14275546 29.89451487 17.16259077 26.90234375 17.125 C25.26248253 17.12861794 25.26248253 17.12861794 23.5894928 17.13230896 C21.28219977 17.13133088 18.97488317 17.11794679 16.66772461 17.09301758 C13.13379379 17.0586792 9.60235922 17.07236984 6.06835938 17.09179688 C3.82551018 17.08489931 1.58266744 17.07522775 -0.66015625 17.0625 C-2.24619408 17.0699398 -2.24619408 17.0699398 -3.86427307 17.07752991 C-11.1660514 16.96008754 -11.1660514 16.96008754 -14.47412109 14.58569336 C-15.9077255 12.34741899 -16.3801583 11.13714462 -16.375 8.49609375 C-16.39691406 7.83609375 -16.41882813 7.17609375 -16.44140625 6.49609375 C-14.10646125 -0.92932139 -6.3105307 -0.07029836 0 0 Z " fill="#020202" transform="translate(219.8125,195.50390625)"/>
<path d="M0 0 C1.63842613 -0.00929787 1.63842613 -0.00929787 3.30995178 -0.01878357 C5.61897897 -0.02588465 7.92805733 -0.02270278 10.23706055 -0.01000977 C13.76902629 0.00384299 17.29833671 -0.03019835 20.83007812 -0.06835938 C23.0742194 -0.06931069 25.31836399 -0.06745111 27.5625 -0.0625 C28.61783432 -0.07575821 29.67316864 -0.08901642 30.76048279 -0.10267639 C38.06947153 -0.00993587 38.06947153 -0.00993587 42.01782227 2.91430664 C43.84765625 5.56640625 43.84765625 5.56640625 44.41015625 8.62890625 C43.7294411 12.18375206 42.64693166 13.34345225 39.84765625 15.56640625 C37.46362083 16.75842396 35.95514508 16.71196312 33.29370117 16.7434082 C31.87664131 16.76266106 31.87664131 16.76266106 30.43095398 16.78230286 C29.40702042 16.78968979 28.38308685 16.79707672 27.328125 16.8046875 C26.27740311 16.81275925 25.22668121 16.82083099 24.14411926 16.82914734 C21.91730401 16.8429944 19.69046748 16.85371376 17.46362305 16.86157227 C14.05932349 16.87878406 10.65599515 16.92266538 7.25195312 16.96679688 C5.0898509 16.9769237 2.92774041 16.98543983 0.765625 16.9921875 C-0.76116631 17.01844963 -0.76116631 17.01844963 -2.31880188 17.04524231 C-6.7916245 17.03152815 -9.40450767 17.01886044 -13.29541016 14.66479492 C-15.29852022 12.40122261 -15.81367926 11.54309915 -15.71484375 8.56640625 C-15.71613281 7.90640625 -15.71742188 7.24640625 -15.71875 6.56640625 C-13.55530495 -1.07279283 -6.52953927 -0.03062884 0 0 Z " fill="#020202" transform="translate(219.15234375,301.43359375)"/>
<path d="M0 0 C1.63842613 -0.00929787 1.63842613 -0.00929787 3.30995178 -0.01878357 C5.61897897 -0.02588465 7.92805733 -0.02270278 10.23706055 -0.01000977 C13.76902629 0.00384299 17.29833671 -0.03019835 20.83007812 -0.06835938 C23.0742194 -0.06931069 25.31836399 -0.06745111 27.5625 -0.0625 C28.61783432 -0.07575821 29.67316864 -0.08901642 30.76048279 -0.10267639 C35.58156848 -0.04150377 38.05776654 -0.00588232 42.04516602 2.88305664 C43.84765625 5.56640625 43.84765625 5.56640625 43.97265625 9.12890625 C42.58532794 13.36796499 41.68546049 14.31652368 37.84765625 16.56640625 C34.2440054 17.16680492 30.68211803 17.15074939 27.03515625 17.1328125 C25.46544067 17.14211037 25.46544067 17.14211037 23.86401367 17.15159607 C21.65512013 17.15868879 19.44617307 17.15552985 17.23730469 17.14282227 C13.85902546 17.12895293 10.4835143 17.16304217 7.10546875 17.20117188 C4.95703057 17.20212306 2.80858893 17.20026428 0.66015625 17.1953125 C-0.85251831 17.21519981 -0.85251831 17.21519981 -2.39575195 17.23548889 C-7.10288894 17.17302587 -9.41804711 17.10805277 -13.29296875 14.24975586 C-15.73331638 10.72797791 -15.83959466 8.76627293 -15.15234375 4.56640625 C-11.69938005 -1.05749576 -5.8892551 -0.02762538 0 0 Z " fill="#040404" transform="translate(219.15234375,407.43359375)"/>
<path d="M0 0 C0.33 0.66 0.66 1.32 1 2 C0.401875 2.680625 -0.19625 3.36125 -0.8125 4.0625 C-3.17903939 7.24042433 -4.58379391 10.34527461 -6 14 C-6.58974609 15.3921875 -6.58974609 15.3921875 -7.19140625 16.8125 C-15.11328705 36.10878278 -17.06304325 57.7423966 -9.34765625 77.4609375 C-7.31133039 82.31315838 -5.25762289 87.15929741 -2.28125 91.515625 C-0.53268612 94.90613301 -0.71856213 97.20205712 -1 101 C-1.97389784 103.52312008 -2.95653046 105.73747468 -4.2109375 108.10546875 C-4.53913483 108.75195877 -4.86733215 109.39844879 -5.20547485 110.06452942 C-6.24891863 112.11252963 -7.31143676 114.14988848 -8.375 116.1875 C-9.08202519 117.56639353 -9.787767 118.9459459 -10.4921875 120.32617188 C-11.78556611 122.85597693 -13.08605987 125.38180603 -14.39599609 127.90307617 C-15.97455473 130.83926825 -15.97455473 130.83926825 -16.96728516 133.35668945 C-18 135 -18 135 -20.125 135.75 C-20.74375 135.8325 -21.3625 135.915 -22 136 C-21.764021 135.50298584 -21.52804199 135.00597168 -21.28491211 134.49389648 C-20.78616577 133.44310913 -20.78616577 133.44310913 -20.27734375 132.37109375 C-19.7213147 131.20018188 -19.7213147 131.20018188 -19.15405273 130.00561523 C-18.33713047 128.28111085 -17.52287591 126.55534041 -16.71118164 124.82836914 C-14.80441163 120.77540565 -12.88354639 116.73791654 -10.84375 112.75 C-5.64795191 102.83953766 -5.64795191 102.83953766 -6 92 C-7.44886241 88.65227113 -9.15600169 85.4413727 -10.85375977 82.21484375 C-19.14537071 66.33501858 -21.2402186 46.53242642 -16.50805664 29.109375 C-12.99538907 18.09859135 -7.3619405 8.82126006 0 0 Z " fill="#DCB700" transform="translate(322,127)"/>
<path d="M0 0 C-0.16226074 0.65991943 -0.32452148 1.31983887 -0.49169922 1.99975586 C-1.11528226 5.68045324 -1.14316801 9.28357462 -1.1328125 13.00390625 C-1.13424759 14.14435646 -1.13424759 14.14435646 -1.13571167 15.30784607 C-1.13638981 16.90892622 -1.13456112 18.51000917 -1.13037109 20.11108398 C-1.1250102 22.5578428 -1.13033228 25.00441868 -1.13671875 27.45117188 C-1.13605805 29.01041707 -1.13477705 30.56966215 -1.1328125 32.12890625 C-1.13483673 32.85815811 -1.13686096 33.58740997 -1.13894653 34.33876038 C-1.12297997 37.80485654 -0.84841891 40.60632435 0 44 C42.9 44 85.8 44 130 44 C130 44.33 130 44.66 130 45 C113.02340684 45.11685121 96.04693935 45.20499672 79.07003593 45.25906086 C71.18717879 45.28483212 63.30457166 45.31996168 55.421875 45.37719727 C48.55053098 45.42706569 41.67936805 45.45929886 34.8078481 45.47044247 C31.17001942 45.47695556 27.53270873 45.49223955 23.89504623 45.52865028 C19.83197904 45.5689884 15.76980979 45.56994726 11.70654297 45.56762695 C9.90148033 45.59459152 9.90148033 45.59459152 8.05995178 45.62210083 C-1.03578367 45.56580385 -1.03578367 45.56580385 -4.73165894 42.65202332 C-9.23299301 37.38930375 -8.22094442 31.32235699 -8.24023438 24.71313477 C-8.24991505 22.70511973 -8.28111291 20.69724618 -8.3125 18.68945312 C-8.31765625 17.41392578 -8.3228125 16.13839844 -8.328125 14.82421875 C-8.3374707 13.65979248 -8.34681641 12.49536621 -8.35644531 11.2956543 C-7.95218493 7.55790713 -6.96928122 5.18782445 -5 2 C-2 0 -2 0 0 0 Z " fill="#DA3C3C" transform="translate(144,59)"/>
<path d="M0 0 C3.72975427 1.15283314 5.35163561 1.75988138 7.4375 5.0625 C7.37702191 8.50975099 7.09986979 10.95855036 5.3125 13.9375 C2.28014294 15.75691423 -0.04116855 16.0625 -3.5625 16.0625 C-6.98514067 13.65936932 -8.33064736 12.17539267 -9.1875 8.0625 C-8.06449489 2.67207546 -5.55537361 0.09746269 0 0 Z " fill="#080600" transform="translate(378.5625,217.9375)"/>
<path d="M0 0 C0.33 0.66 0.66 1.32 1 2 C0.34 2 -0.32 2 -1 2 C-1.27972656 2.57105469 -1.55945313 3.14210938 -1.84765625 3.73046875 C-2.58883322 5.19021052 -3.36525014 6.63285915 -4.18359375 8.05078125 C-8.26150195 15.40626053 -9.65505618 22.79912303 -11 31 C-12.65 31 -14.3 31 -16 31 C-16.61902351 22.79793853 -14.85936154 15.77291207 -9.8359375 9.14453125 C-6.74770091 5.65894826 -3.88383465 2.5892231 0 0 Z " fill="#E13D3D" transform="translate(193,20)"/>
<path d="M0 0 C0.33 0.66 0.66 1.32 1 2 C0.401875 2.680625 -0.19625 3.36125 -0.8125 4.0625 C-3.16627208 6.96671433 -3.16627208 6.96671433 -4.5 10.6875 C-6 14 -6 14 -8.1875 15.4375 C-9.0846875 15.7159375 -9.0846875 15.7159375 -10 16 C-8.55797524 11.84848662 -6.4989562 8.70021555 -3.875 5.1875 C-3.15054687 4.21167969 -2.42609375 3.23585937 -1.6796875 2.23046875 C-0.84824219 1.12638672 -0.84824219 1.12638672 0 0 Z " fill="#D3AF00" transform="translate(322,127)"/>
</svg>
