<?xml version="1.0" encoding="UTF-8"?>
<svg version="1.1" xmlns="http://www.w3.org/2000/svg" width="512" height="512">
<path d="M0 0 C0.99660645 0.19335938 1.99321289 0.38671875 3.02001953 0.5859375 C44.10882055 8.70471873 81.20299494 26.07415115 114 52 C115.03769531 52.81210937 116.07539063 53.62421875 117.14453125 54.4609375 C132.71007346 67.12917083 147.2884666 81.68183944 159 98 C159.9773747 99.32197691 160.95526343 100.64357389 161.93359375 101.96484375 C184.78105736 133.19251017 200.00958031 168.95069698 207 207 C207.16081055 207.80598633 207.32162109 208.61197266 207.48730469 209.44238281 C212.91249702 237.39610578 212.48097109 270.09984329 207 298 C206.83902832 298.89557617 206.67805664 299.79115234 206.51220703 300.71386719 C197.75600016 349.11272821 174.58514278 393.30212589 141 429 C141.76151995 432.20221776 141.76151995 432.20221776 144.625 434.0625 C153.08702926 440.85653311 158.2079682 451.44118715 160 462 C160.54202928 471.67749775 159.61714971 481.09876553 158.34594727 490.6730957 C158.05694428 492.85443347 157.78248207 495.03727467 157.50976562 497.22070312 C156.14808914 507.85191086 156.14808914 507.85191086 155 509 C152.48112573 508.96174607 150.01049556 508.85563411 147.5 508.6875 C146.79746094 508.65205078 146.09492188 508.61660156 145.37109375 508.58007812 C143.57405767 508.46408447 141.78474153 508.23977252 140 508 C138.4789941 504.95798821 139.32112107 502.49975609 139.77734375 499.15625 C139.91264244 498.13065979 139.91264244 498.13065979 140.05067444 497.08435059 C140.43653119 494.16042637 140.8365199 491.23848408 141.23608398 488.31640625 C144.26266611 468.63517813 144.26266611 468.63517813 137.125 450.6875 C134.71630091 447.67060439 132.16900024 445.23694135 129 443 C125.18768542 444.61185747 122.37301672 447.16510834 119.3125 449.875 C107.19353661 460.32856305 93.93341209 469.05171703 79.99511719 476.87695312 C78.14595606 477.91784167 76.31107324 478.98046819 74.4765625 480.046875 C42.28102454 498.13425588 3.17138455 509.0091896 -33.79296875 509.203125 C-34.69355515 509.21013931 -35.59414154 509.21715363 -36.52201843 509.22438049 C-39.41056381 509.24177809 -42.29890416 509.24823227 -45.1875 509.25 C-46.17453918 509.25067474 -47.16157837 509.25134949 -48.17852783 509.25204468 C-62.64968559 509.23631228 -76.76994611 508.87100014 -91 506 C-91.90186035 505.82307617 -92.8037207 505.64615234 -93.73291016 505.46386719 C-100.20582573 504.16502189 -106.61020862 502.65823805 -113 501 C-113.83063965 500.78504883 -114.6612793 500.57009766 -115.51708984 500.34863281 C-154.61940953 489.97818609 -190.34826342 469.3768679 -220 442 C-223.7715067 444.70019832 -225.71800901 446.73314385 -227.375 451.0625 C-227.7875 452.11179687 -228.2 453.16109375 -228.625 454.2421875 C-229.66834246 457.04540321 -230.65016948 459.86762069 -231.625 462.6953125 C-237.4940032 479.56205756 -237.4940032 479.56205756 -244 486 C-244.67804688 486.70253906 -245.35609375 487.40507812 -246.0546875 488.12890625 C-254.77945761 496.55871082 -266.11204471 499.92592107 -277.42749023 503.6496582 C-279.46194812 504.32056227 -281.4917405 505.00443586 -283.52148438 505.68945312 C-284.82526455 506.123167 -286.1292922 506.55613783 -287.43359375 506.98828125 C-288.59947021 507.37540283 -289.76534668 507.76252441 -290.96655273 508.16137695 C-294 509 -294 509 -298 509 C-298.67467562 507.25307205 -299.33944156 505.50231475 -300 503.75 C-300.37125 502.77546875 -300.7425 501.8009375 -301.125 500.796875 C-302 498 -302 498 -302 494 C-300.92105469 493.6376123 -299.84210938 493.27522461 -298.73046875 492.90185547 C-294.69230161 491.54118108 -290.66097887 490.16111883 -286.63134766 488.77539062 C-284.89322017 488.18064075 -283.15332843 487.59101923 -281.41162109 487.00683594 C-278.89448668 486.16154037 -276.38447727 485.29741422 -273.875 484.4296875 C-273.10696045 484.17629608 -272.3389209 483.92290466 -271.54760742 483.66183472 C-264.05348931 481.03120511 -257.42437155 476.72381292 -253 470 C-251.93921324 467.72378493 -250.96533012 465.40585686 -250.0625 463.0625 C-249.80581543 462.40862305 -249.54913086 461.75474609 -249.28466797 461.08105469 C-247.5765045 456.6831948 -246.09332424 452.23407437 -244.625 447.75 C-242.52693025 441.69655286 -239.56388681 437.09461642 -235.57421875 432.109375 C-233.80063379 430.17153228 -233.80063379 430.17153228 -234 428 C-235.53766719 426.25044953 -237.13293983 424.55144374 -238.75 422.875 C-271.90778165 387.52362875 -292.99152295 339.68174186 -300 292 C-300.17732666 290.80117188 -300.35465332 289.60234375 -300.53735352 288.3671875 C-302.16588622 276.54116514 -302.35902287 264.79841448 -302.3125 252.875 C-302.31034485 251.88043793 -302.3081897 250.88587585 -302.30596924 249.86117554 C-302.25561017 235.38061334 -301.90483356 221.2318575 -299 207 C-298.80132324 205.98599121 -298.60264648 204.97198242 -298.39794922 203.92724609 C-291.69495862 170.41229309 -279.0042017 136.94109145 -259 109 C-258.34257812 108.06929688 -257.68515625 107.13859375 -257.0078125 106.1796875 C-241.19995051 84.09788806 -222.21016118 62.80278285 -200 47 C-199.38237793 46.55398437 -198.76475586 46.10796875 -198.12841797 45.6484375 C-166.2928961 22.75691487 -130.61290977 7.10612895 -92 0 C-91.19933105 -0.16081055 -90.39866211 -0.32162109 -89.57373047 -0.48730469 C-61.49587547 -5.9794441 -28.01022065 -5.73396692 0 0 Z " fill="#EF5374" transform="translate(302,3)"/>
<path d="M0 0 C0.99660645 0.19335938 1.99321289 0.38671875 3.02001953 0.5859375 C44.10882055 8.70471873 81.20299494 26.07415115 114 52 C115.03769531 52.81210937 116.07539063 53.62421875 117.14453125 54.4609375 C132.71007346 67.12917083 147.2884666 81.68183944 159 98 C159.9773747 99.32197691 160.95526343 100.64357389 161.93359375 101.96484375 C184.78105736 133.19251017 200.00958031 168.95069698 207 207 C207.16081055 207.80598633 207.32162109 208.61197266 207.48730469 209.44238281 C212.91249702 237.39610578 212.48097109 270.09984329 207 298 C206.83902832 298.89557617 206.67805664 299.79115234 206.51220703 300.71386719 C197.75600016 349.11272821 174.58514278 393.30212589 141 429 C141.76151995 432.20221776 141.76151995 432.20221776 144.625 434.0625 C153.08702926 440.85653311 158.2079682 451.44118715 160 462 C160.54202928 471.67749775 159.61714971 481.09876553 158.34594727 490.6730957 C158.05694428 492.85443347 157.78248207 495.03727467 157.50976562 497.22070312 C156.14808914 507.85191086 156.14808914 507.85191086 155 509 C152.48112573 508.96174607 150.01049556 508.85563411 147.5 508.6875 C146.79746094 508.65205078 146.09492188 508.61660156 145.37109375 508.58007812 C143.57405767 508.46408447 141.78474153 508.23977252 140 508 C138.4789941 504.95798821 139.32112107 502.49975609 139.77734375 499.15625 C139.91264244 498.13065979 139.91264244 498.13065979 140.05067444 497.08435059 C140.43653119 494.16042637 140.8365199 491.23848408 141.23608398 488.31640625 C144.26266611 468.63517813 144.26266611 468.63517813 137.125 450.6875 C134.71630091 447.67060439 132.16900024 445.23694135 129 443 C125.18768542 444.61185747 122.37301672 447.16510834 119.3125 449.875 C107.19353661 460.32856305 93.93341209 469.05171703 79.99511719 476.87695312 C78.14595606 477.91784167 76.31107324 478.98046819 74.4765625 480.046875 C42.28102454 498.13425588 3.17138455 509.0091896 -33.79296875 509.203125 C-34.69355515 509.21013931 -35.59414154 509.21715363 -36.52201843 509.22438049 C-39.41056381 509.24177809 -42.29890416 509.24823227 -45.1875 509.25 C-46.17453918 509.25067474 -47.16157837 509.25134949 -48.17852783 509.25204468 C-62.64968559 509.23631228 -76.76994611 508.87100014 -91 506 C-91.90186035 505.82307617 -92.8037207 505.64615234 -93.73291016 505.46386719 C-100.20582573 504.16502189 -106.61020862 502.65823805 -113 501 C-113.83063965 500.78504883 -114.6612793 500.57009766 -115.51708984 500.34863281 C-154.61940953 489.97818609 -190.34826342 469.3768679 -220 442 C-223.7715067 444.70019832 -225.71800901 446.73314385 -227.375 451.0625 C-227.7875 452.11179687 -228.2 453.16109375 -228.625 454.2421875 C-229.66834246 457.04540321 -230.65016948 459.86762069 -231.625 462.6953125 C-237.4940032 479.56205756 -237.4940032 479.56205756 -244 486 C-244.67804688 486.70253906 -245.35609375 487.40507812 -246.0546875 488.12890625 C-254.77945761 496.55871082 -266.11204471 499.92592107 -277.42749023 503.6496582 C-279.46194812 504.32056227 -281.4917405 505.00443586 -283.52148438 505.68945312 C-284.82526455 506.123167 -286.1292922 506.55613783 -287.43359375 506.98828125 C-288.59947021 507.37540283 -289.76534668 507.76252441 -290.96655273 508.16137695 C-294 509 -294 509 -298 509 C-298.67467562 507.25307205 -299.33944156 505.50231475 -300 503.75 C-300.37125 502.77546875 -300.7425 501.8009375 -301.125 500.796875 C-302 498 -302 498 -302 494 C-300.92105469 493.6376123 -299.84210938 493.27522461 -298.73046875 492.90185547 C-294.69230161 491.54118108 -290.66097887 490.16111883 -286.63134766 488.77539062 C-284.89322017 488.18064075 -283.15332843 487.59101923 -281.41162109 487.00683594 C-278.89448668 486.16154037 -276.38447727 485.29741422 -273.875 484.4296875 C-273.10696045 484.17629608 -272.3389209 483.92290466 -271.54760742 483.66183472 C-264.05348931 481.03120511 -257.42437155 476.72381292 -253 470 C-251.93921324 467.72378493 -250.96533012 465.40585686 -250.0625 463.0625 C-249.80581543 462.40862305 -249.54913086 461.75474609 -249.28466797 461.08105469 C-247.5765045 456.6831948 -246.09332424 452.23407437 -244.625 447.75 C-242.52693025 441.69655286 -239.56388681 437.09461642 -235.57421875 432.109375 C-233.80063379 430.17153228 -233.80063379 430.17153228 -234 428 C-235.53766719 426.25044953 -237.13293983 424.55144374 -238.75 422.875 C-271.90778165 387.52362875 -292.99152295 339.68174186 -300 292 C-300.17732666 290.80117188 -300.35465332 289.60234375 -300.53735352 288.3671875 C-302.16588622 276.54116514 -302.35902287 264.79841448 -302.3125 252.875 C-302.31034485 251.88043793 -302.3081897 250.88587585 -302.30596924 249.86117554 C-302.25561017 235.38061334 -301.90483356 221.2318575 -299 207 C-298.80132324 205.98599121 -298.60264648 204.97198242 -298.39794922 203.92724609 C-291.69495862 170.41229309 -279.0042017 136.94109145 -259 109 C-258.34257812 108.06929688 -257.68515625 107.13859375 -257.0078125 106.1796875 C-241.19995051 84.09788806 -222.21016118 62.80278285 -200 47 C-199.38237793 46.55398437 -198.76475586 46.10796875 -198.12841797 45.6484375 C-166.2928961 22.75691487 -130.61290977 7.10612895 -92 0 C-91.19933105 -0.16081055 -90.39866211 -0.32162109 -89.57373047 -0.48730469 C-61.49587547 -5.9794441 -28.01022065 -5.73396692 0 0 Z M-92 16 C-92.85787109 16.14953125 -93.71574219 16.2990625 -94.59960938 16.453125 C-135.02092661 23.69877191 -173.41072541 43.89968776 -204 71 C-204.84820312 71.73734375 -205.69640625 72.4746875 -206.5703125 73.234375 C-218.27629372 83.54768321 -228.71841769 94.46239274 -238 107 C-238.42909668 107.57363281 -238.85819336 108.14726563 -239.30029297 108.73828125 C-245.81327127 117.47815066 -251.58806652 126.54348991 -257 136 C-257.65613281 137.12277344 -258.31226563 138.24554688 -258.98828125 139.40234375 C-268.54953497 156.43632081 -275.47100017 175.02279126 -280 194 C-280.17724609 194.7110791 -280.35449219 195.4221582 -280.53710938 196.15478516 C-281.84281487 201.40942486 -282.97530041 206.68368224 -284 212 C-284.15243164 212.77102051 -284.30486328 213.54204102 -284.46191406 214.33642578 C-289.01230279 238.35127428 -289.22614693 265.46085154 -284.49169922 289.46533203 C-283.94750407 292.27061206 -283.47581525 295.08403609 -283.00390625 297.90234375 C-274.73760127 345.14207406 -251.29499699 386.1429782 -219 421 C-217.26982492 420.54548816 -215.54090123 420.08621143 -213.8125 419.625 C-212.36810547 419.24214844 -212.36810547 419.24214844 -210.89453125 418.8515625 C-208.17789793 418.05233704 -205.60862825 417.0968638 -203 416 C-206.49240227 411.86426046 -210.06715742 407.84247868 -213.75 403.875 C-219.22170967 397.86267231 -224.21832155 391.56938058 -229 385 C-229.39654785 384.45988281 -229.7930957 383.91976563 -230.20166016 383.36328125 C-266.16231694 333.78673927 -277.15384528 271.71879354 -268 212 C-262.22197356 179.06253663 -248.36231432 147.9521801 -229 120.8125 C-228.46028564 120.05195312 -227.92057129 119.29140625 -227.36450195 118.5078125 C-226.85234131 117.81042969 -226.34018066 117.11304687 -225.8125 116.39453125 C-225.14154297 115.47957886 -225.14154297 115.47957886 -224.45703125 114.54614258 C-223 113 -223 113 -219 111 C-214.545 114.465 -214.545 114.465 -210 118 C-211.62697899 121.25395797 -213.333298 123.85309489 -215.52807617 126.71826172 C-222.59868759 135.97019289 -228.49072485 145.7527049 -234 156 C-234.36722168 156.68223633 -234.73444336 157.36447266 -235.11279297 158.06738281 C-244.36343331 175.6127495 -250.98459863 195.410584 -254 215 C-254.27344554 216.36016451 -254.55103439 217.71950043 -254.83203125 219.078125 C-259.73257832 244.39164301 -258.31396727 271.91997233 -253 297 C-252.85046875 297.71768555 -252.7009375 298.43537109 -252.546875 299.17480469 C-251.60126879 303.52853329 -250.37260415 307.76571199 -249 312 C-248.73203613 312.84062988 -248.46407227 313.68125977 -248.18798828 314.54736328 C-239.69061116 340.9034789 -227.70450974 364.59232969 -210 386 C-209.51499023 386.58652344 -209.02998047 387.17304688 -208.53027344 387.77734375 C-202.65912696 394.83017495 -196.67068097 401.68247273 -190 408 C-183.6265178 405.29937195 -181.28058627 398.93706244 -178.625 392.875 C-177.08484625 388.75540176 -176.57302827 386.2809152 -178 382 C-178.32097656 381.36707031 -178.64195312 380.73414063 -178.97265625 380.08203125 C-183.81764622 369.99264354 -183.67146412 357.18838211 -180.4375 346.5625 C-173.49631015 329.23362674 -161.66879741 315.34282942 -144.6328125 307.4375 C-138.72372597 305.0356542 -133.36931035 303.30330049 -127 303 C-125.63101563 302.9071875 -125.63101563 302.9071875 -124.234375 302.8125 C-115.43804423 302.45162489 -108.0640026 304.13129228 -100.8125 309.25 C-100.214375 309.8275 -99.61625 310.405 -99 311 C-101.64 313.97 -104.28 316.94 -107 320 C-111 319 -111 319 -113.5 317.9375 C-124.13625877 315.08850212 -133.43206591 317.40941086 -142.88671875 322.578125 C-154.71310232 329.74171887 -162.64860842 339.3266652 -167.203125 352.47265625 C-168.86180539 359.81475621 -169.83912198 368.83867328 -166 375.625 C-162.4304007 380.30627451 -157.51778547 383.16073818 -152 385 C-140.66683179 386.38209368 -130.25883825 382.29121944 -121.12109375 375.71875 C-113.78598375 369.77501446 -108.30852512 363.4099096 -104 355 C-103.6596875 354.39027344 -103.319375 353.78054688 -102.96875 353.15234375 C-99.74205196 346.35536409 -100.75976081 338.33174422 -101 331 C-94.07 329.02 -94.07 329.02 -87 327 C-86.23387264 349.728445 -86.23387264 349.728445 -91 360 C-91.33902344 360.83144531 -91.67804688 361.66289062 -92.02734375 362.51953125 C-98.65700289 377.50114532 -111.48832626 388.60657834 -126.33203125 395.02734375 C-133.31257192 397.57222607 -139.25662378 398.31191913 -146.625 398.25 C-147.553125 398.25773437 -148.48125 398.26546875 -149.4375 398.2734375 C-154.1209853 398.26001777 -157.71225178 398.06994742 -162 396 C-162.99 396 -163.98 396 -165 396 C-165.36351562 396.92941406 -165.72703125 397.85882813 -166.1015625 398.81640625 C-170.63939108 410.07807068 -170.63939108 410.07807068 -174.4375 414.1875 C-175.283125 415.115625 -176.12875 416.04375 -177 417 C-175.59479856 421.21560431 -172.54915909 422.69016953 -169 425.0625 C-168.28448975 425.54565674 -167.56897949 426.02881348 -166.83178711 426.52661133 C-118.83744035 458.56988041 -62.39580316 471.47038785 -5.31494141 460.69775391 C3.97316396 458.74272333 13.00986673 456.02324564 22 453 C22.76763672 452.74460449 23.53527344 452.48920898 24.32617188 452.22607422 C34.04068611 448.94028264 43.16679337 444.69299553 52.23681641 439.92431641 C53.77913987 439.11578184 55.33211542 438.32763322 56.88671875 437.54296875 C75.37027466 427.95583288 90.94467401 414.18188723 106 400 C106.74636719 399.34644531 107.49273437 398.69289063 108.26171875 398.01953125 C113.35474388 392.1024661 112.46294608 380.64024858 112.29296875 373.2421875 C111.8507144 368.34790604 110.69000736 365.09231696 108 361 C107.66629395 360.46391113 107.33258789 359.92782227 106.98876953 359.37548828 C103.33179749 353.67799782 99.98798915 348.6781252 93.14453125 347.125 C90.40404403 346.96039228 87.68119519 347.01877239 84.9375 347.0703125 C75.0773009 346.89423752 67.1422906 341.35331664 60 335 C59.39671875 334.50113281 58.7934375 334.00226563 58.171875 333.48828125 C47.13016563 323.61540148 40.77146857 307.25391582 39.85913086 292.76245117 C39.26790037 278.20099256 40.30333481 265.64495589 50 254 C56.8444831 246.70693556 63.52512629 242.92589039 73.54711914 242.52905273 C87.23328129 242.36271086 95.25353261 246.5826149 106 255 C104.69555432 257.85114555 103.29447569 260.04747746 101.125 262.3125 C100.63257813 262.84488281 100.14015625 263.37726563 99.6328125 263.92578125 C98 265 98 265 95.953125 264.78515625 C93.22110868 263.68688569 91.28322909 261.84832831 89 260 C82.4606158 256.14944569 76.41413726 256.21538857 69 257 C61.78349574 260.29173878 57.43959433 266.68619696 54.72265625 273.95703125 C51.46522638 287.67345215 54.65486227 302.15971586 61.27734375 314.3515625 C66.20913505 322.30253906 73.75563008 330.33014587 83 333 C89.16877483 333.86833194 94.76447573 333.5648338 100.21875 330.390625 C106.39153289 325.57152257 110.23946071 318.36550177 111.33374023 310.64550781 C111.51076812 308.08838193 111.56819022 305.56320495 111.5625 303 C111.56443359 302.09096924 111.56636719 301.18193848 111.56835938 300.24536133 C111.36253197 291.34098726 108.78821436 283.97103438 105 276 C105.91007812 275.71382813 106.82015625 275.42765625 107.7578125 275.1328125 C110.37661934 274.2178077 112.5162688 273.29023872 114.875 271.875 C115.90625 271.25625 116.9375 270.6375 118 270 C118.268125 270.845625 118.53625 271.69125 118.8125 272.5625 C119.93361901 276.00650757 119.93361901 276.00650757 121.5 279.1875 C126.62879151 291.26749626 127.5888387 309.61973121 122.90625 321.9765625 C122.6071875 322.64429688 122.308125 323.31203125 122 324 C121.7215625 324.68835938 121.443125 325.37671875 121.15625 326.0859375 C119.00528329 330.9256126 116.03040857 334.41089124 112.29296875 338.140625 C110.78897061 339.89917989 110.78897061 339.89917989 111.1015625 342.015625 C112.15135349 344.3342938 113.39483537 345.69546341 115.1875 347.5 C121.7770977 354.78109869 125.3983187 363.3899122 127 373 C148.72626406 354.37011561 158.88883144 312.09837294 163 285 C163.17732666 283.86836426 163.35465332 282.73672852 163.53735352 281.57080078 C164.8592145 272.55249689 165.35192403 263.73476591 165.3125 254.625 C165.31034485 253.93745636 165.3081897 253.24991272 165.30596924 252.54153442 C165.06874585 204.88225887 149.55681233 157.93408215 119 121 C118.29423828 120.14196777 118.29423828 120.14196777 117.57421875 119.26660156 C107.72279993 107.35522248 97.26990385 96.47544931 85 87 C84.45923828 86.57750977 83.91847656 86.15501953 83.36132812 85.71972656 C57.51615223 65.63911033 25.50447166 50.09474477 -7 45 C-7.78584473 44.86754883 -8.57168945 44.73509766 -9.38134766 44.59863281 C-43.80761748 38.92782398 -78.84438855 40.91528592 -112 52 C-112.70624512 52.23444824 -113.41249023 52.46889648 -114.14013672 52.71044922 C-136.02576626 60.12070897 -156.70310113 71.05620937 -174.8125 85.41796875 C-177 87 -177 87 -179 87 C-180.76171875 85.13671875 -180.76171875 85.13671875 -182.6875 82.6875 C-183.33074219 81.88699219 -183.97398437 81.08648437 -184.63671875 80.26171875 C-185.08660156 79.51535156 -185.53648437 78.76898438 -186 78 C-184.8600118 74.58003541 -184.18713313 74.15033064 -181.30859375 72.1796875 C-180.15097534 71.38340942 -180.15097534 71.38340942 -178.9699707 70.57104492 C-178.13425537 70.0113501 -177.29854004 69.45165527 -176.4375 68.875 C-175.57922607 68.29532471 -174.72095215 67.71564941 -173.83666992 67.1184082 C-166.11597865 61.96533383 -158.20709804 57.32681516 -150 53 C-149.36030273 52.65630371 -148.72060547 52.31260742 -148.06152344 51.95849609 C-107.86223546 30.44551702 -59.03988539 22.41510385 -14 30 C-13.21544434 30.12358887 -12.43088867 30.24717773 -11.62255859 30.37451172 C36.13352575 38.01733802 78.23582923 59.65332855 113 93 C113.82371094 93.78246094 114.64742188 94.56492187 115.49609375 95.37109375 C131.35643086 110.79162949 143.82667177 129.46490372 154 149 C154.71602933 150.33990601 155.43217191 151.67975152 156.1484375 153.01953125 C183.53241155 205.05426339 185.29666902 267.02867896 168.50390625 322.52832031 C160.19688416 348.67890851 146.47153382 377.4806044 126.9375 397.125 C124.08254786 401.3613806 124.26966893 405.03983481 125 410 C125.80140891 412.82314503 126.80303363 415.30682566 128 418 C132.21483398 416.41943726 134.682853 413.28773293 137.5 409.9375 C138.02118408 409.32189209 138.54236816 408.70628418 139.0793457 408.07202148 C166.04418613 375.68751911 184.26620182 336.27595768 191.49902344 294.83007812 C191.82716274 292.9763789 192.17352378 291.1257916 192.54003906 289.27929688 C201.25879761 244.86661519 192.92029698 196.97199529 175 156 C174.54270508 154.92709717 174.54270508 154.92709717 174.07617188 153.83251953 C149.22100626 95.84160668 98.91613978 51.40497541 41.125 27.94921875 C26.27638655 22.15259298 10.68240384 17.83761192 -5 15 C-5.80679199 14.85046875 -6.61358398 14.7009375 -7.44482422 14.546875 C-35.43798321 9.57507566 -64.144637 10.97130778 -92 16 Z " fill="#020102" transform="translate(302,3)"/>
<path d="M0 0 C0.75345703 0.13390137 1.50691406 0.26780273 2.28320312 0.40576172 C66.95152337 12.24058075 122.15422385 50.29075113 159.47802734 103.76611328 C162.89126425 108.77591721 166.00909901 113.9413497 168.99121094 119.21728516 C169.97118841 120.94908464 170.97356727 122.66814787 171.9765625 124.38671875 C181.63358997 141.33333732 188.48919057 160.05982528 193 179 C193.17724609 179.71639648 193.35449219 180.43279297 193.53710938 181.17089844 C194.83062323 186.42200432 195.96010663 191.69318934 197 197 C197.15243164 197.74926758 197.30486328 198.49853516 197.46191406 199.27050781 C201.9846624 222.27498372 201.7671121 247.89572824 198 271 C197.87109375 271.86915039 197.7421875 272.73830078 197.609375 273.63378906 C193.57598176 300.81251067 185.02203984 326.78357503 172 351 C171.65888184 351.64743164 171.31776367 352.29486328 170.96630859 352.96191406 C162.95600645 368.11694308 153.13882284 381.98336795 142 395 C141.32710938 395.80695313 140.65421875 396.61390625 139.9609375 397.4453125 C136.42095745 401.6262766 136.42095745 401.6262766 135 403 C134.34 403 133.68 403 133 403 C130.37786724 397.10020129 128.24792379 391.43677196 130 385 C132.14250224 381.84613024 134.58880458 379.06937205 137.14453125 376.25390625 C159.71946446 351.21402611 172.84835421 315.29652806 180 283 C180.20109375 282.14277344 180.4021875 281.28554688 180.609375 280.40234375 C181.15150738 277.94221273 181.59349275 275.48622741 182 273 C182.185625 271.90042969 182.37125 270.80085938 182.5625 269.66796875 C191.05451206 210.51874589 174.78195881 150.92444111 139.75 103.125 C127.84542488 87.49005288 114.62883793 72.98350576 99 61 C98.46213867 60.58041016 97.92427734 60.16082031 97.37011719 59.72851562 C69.80140571 38.30529684 37.22076969 23.76677236 3 17 C2.28763184 16.85723633 1.57526367 16.71447266 0.84130859 16.56738281 C-57.04192953 5.15739789 -116.68162294 18.06339902 -166 50 C-171.11212364 53.5162815 -176.07427005 57.22862598 -181 61 C-180.690625 61.598125 -180.38125 62.19625 -180.0625 62.8125 C-179 65 -179 65 -178 68 C-181.3 70.97 -184.6 73.94 -188 77 C-189.65 75.68 -191.3 74.36 -193 73 C-196.21524305 74.40844718 -198.32183868 76.10344786 -200.75 78.625 C-201.36359375 79.25664063 -201.9771875 79.88828125 -202.609375 80.5390625 C-203.06828125 81.02117187 -203.5271875 81.50328125 -204 82 C-202.68 83.65 -201.36 85.3 -200 87 C-201.44424635 90.23861303 -203.25772247 92.61969163 -205.625 95.25 C-206.57246094 96.30960938 -206.57246094 96.30960938 -207.5390625 97.390625 C-208.02117187 97.92171875 -208.50328125 98.4528125 -209 99 C-209.7425 98.46375 -210.485 97.9275 -211.25 97.375 C-212.1575 96.92125 -213.065 96.4675 -214 96 C-217.23907987 97.13077954 -218.88605551 98.76958344 -220.8828125 101.5 C-221.40528564 102.2130127 -221.92775879 102.92602539 -222.46606445 103.66064453 C-223.28723755 104.81862549 -223.28723755 104.81862549 -224.125 106 C-224.69758545 106.80163574 -225.2701709 107.60327148 -225.86010742 108.42919922 C-231.59072632 116.60257322 -236.39490111 125.15716625 -241 134 C-241.71602933 135.33990601 -242.43217191 136.67975152 -243.1484375 138.01953125 C-266.03943912 181.5335445 -271.45611671 234.1368521 -262 282 C-261.85046875 282.78584473 -261.7009375 283.57168945 -261.546875 284.38134766 C-260.58604808 289.32226663 -259.38662892 294.16190482 -258 299 C-257.75330566 299.86173828 -257.50661133 300.72347656 -257.25244141 301.61132812 C-250.38896273 324.9463448 -240.15176617 347.17749065 -226 367 C-225.26523438 368.04542969 -224.53046875 369.09085937 -223.7734375 370.16796875 C-218.1568031 377.89850009 -211.88074032 385.04748 -205.56884766 392.20947266 C-203.02052201 395.11787918 -200.50941881 398.05801964 -198 401 C-200.24403702 401.89401475 -202.49290133 402.76515289 -204.75 403.625 C-205.70132813 404.00785156 -205.70132813 404.00785156 -206.671875 404.3984375 C-211.36376739 406.15789714 -211.36376739 406.15789714 -214.140625 405.46875 C-229.69530208 393.18186222 -240.98745424 373.75304196 -251 357 C-251.37608398 356.37335449 -251.75216797 355.74670898 -252.13964844 355.10107422 C-259.23607376 343.08379435 -264.06212533 330.01105128 -269 317 C-269.42007324 315.9171875 -269.42007324 315.9171875 -269.84863281 314.8125 C-274.17158878 303.58100412 -276.32099486 291.85216641 -278.44775391 280.04394531 C-278.78848303 278.16586809 -279.14005078 276.28967532 -279.50927734 274.41699219 C-284.80913424 247.49481757 -283.22738509 218.77167936 -278 192 C-277.85046875 191.17628906 -277.7009375 190.35257813 -277.546875 189.50390625 C-270.2449577 149.41097143 -250.51631153 111.70053684 -224 81 C-223.30777344 80.19691406 -222.61554688 79.39382812 -221.90234375 78.56640625 C-212.41917027 67.80963053 -202.35681715 57.77497958 -191 49 C-190.11441406 48.29746094 -189.22882813 47.59492187 -188.31640625 46.87109375 C-162.23206196 26.64758687 -132.11632913 11.69662664 -100 4 C-98.9493335 3.73413086 -98.9493335 3.73413086 -97.87744141 3.46289062 C-66.21429564 -4.5450449 -32.1571859 -5.93422768 0 0 Z " fill="#DFE8F1" transform="translate(297,18)"/>
<path d="M0 0 C-3.01443842 1.65332719 -6.1230357 2.76266208 -9.37841797 3.8503418 C-40.22765117 14.20560224 -70.26256842 30.87047232 -92.6875 54.80078125 C-94 56 -94 56 -96 56 C-96.25910156 56.59039062 -96.51820313 57.18078125 -96.78515625 57.7890625 C-98.09174716 60.16697393 -99.44545731 61.54447428 -101.4375 63.375 C-120.28268057 81.81124356 -134.35014672 106.67395242 -144 131 C-144.2573291 131.64163086 -144.5146582 132.28326172 -144.77978516 132.94433594 C-148.35384208 142.00283866 -150.9495918 151.22948153 -153.25 160.6875 C-153.4962915 161.69611084 -153.74258301 162.70472168 -153.99633789 163.74389648 C-157.32227041 177.94488157 -158.32465414 191.44593835 -158.26074219 205.97607422 C-158.25004383 208.86317061 -158.26068236 211.74964142 -158.2734375 214.63671875 C-158.28189004 225.59877981 -157.7012165 236.1646081 -156 247 C-155.8752832 247.87172852 -155.75056641 248.74345703 -155.62207031 249.64160156 C-152.54372122 270.20215095 -145.22302657 290.21345142 -135.77172852 308.64892578 C-132.76803306 314.78486092 -132.25698624 319.69937592 -132.2421875 326.55859375 C-131.90549109 331.34294109 -130.15370822 335.00281513 -127.9609375 339.21875 C-126.25463828 344.15730709 -127.55761107 347.94280389 -129.5234375 352.640625 C-130.13024885 353.84901656 -130.74757226 355.0521834 -131.375 356.25 C-131.67921875 356.86101562 -131.9834375 357.47203125 -132.296875 358.1015625 C-133.86338813 361.16764376 -135.35517307 363.76082137 -138 366 C-147.31173569 361.96142699 -153.85812851 351.70766279 -160 344 C-160.64582031 343.23300781 -161.29164063 342.46601563 -161.95703125 341.67578125 C-176.76905908 323.90738126 -186.98484817 303.55185271 -195 282 C-195.42974121 280.8567627 -195.42974121 280.8567627 -195.86816406 279.69042969 C-200.31550231 267.70309412 -202.98761877 255.61158981 -205 243 C-205.17732666 241.95706787 -205.35465332 240.91413574 -205.53735352 239.83959961 C-207.01363513 230.56569249 -207.44027397 221.42943327 -207.4375 212.0625 C-207.4385675 211.28841797 -207.43963501 210.51433594 -207.44073486 209.71679688 C-207.39528058 186.61421705 -203.89200015 163.77954413 -196 142 C-195.70754395 141.18563477 -195.41508789 140.37126953 -195.11376953 139.53222656 C-187.19890346 117.87004679 -176.34835317 97.49400562 -161.3984375 79.85546875 C-159.79937289 78.12104547 -159.79937289 78.12104547 -160 76 C-161.9600281 74.36323743 -161.9600281 74.36323743 -164 73 C-162.52670958 67.99081256 -159.72484762 65.48192278 -156 62 C-157.20381448 59.50638429 -158.45428722 57.31856917 -160 55 C-156.7 51.7 -153.4 48.4 -150 45 C-146 47 -146 47 -143 49 C-140.03 46.36 -137.06 43.72 -134 41 C-130 43 -130 43 -129 45 C-124.52264693 43.51588669 -121.22506186 40.99420726 -117.5625 38.125 C-91.85238466 18.71276087 -60.52945067 7.34171125 -29 2 C-27.95537598 1.82210937 -27.95537598 1.82210937 -26.88964844 1.640625 C-17.85356481 0.15159896 -9.14112758 -0.25352896 0 0 Z " fill="#E01742" transform="translate(252,45)"/>
<path d="M0 0 C13.75659676 7.27665543 23.10547445 19.96992655 28.03515625 34.56640625 C33.49039752 53.71220495 32.24975912 72.61905446 22.65625 90.12109375 C19.02376377 95.94098995 14.26707834 101.4895077 8.03515625 104.60546875 C9.00896056 107.75160574 10.06021863 110.65559352 11.53515625 113.60546875 C16.83102922 124.1972147 15.48140344 133.68499629 12.03515625 144.66796875 C9.5760928 152.53807946 7.46818322 160.14862296 9.8125 168.3125 C13.13287426 174.3383644 16.92621207 179.95280207 20.94921875 185.52734375 C27.10657609 194.61348154 28.24758339 203.8269412 27.03515625 214.60546875 C26.02280003 219.42276926 24.36627836 224.03820229 22.7109375 228.66552734 C21.63241638 231.7615999 20.71933177 234.90042976 19.78515625 238.04296875 C18.15599688 243.48462812 18.15599688 243.48462812 17.03515625 244.60546875 C12.04744804 244.18278161 7.74792292 243.37275625 3.03515625 241.60546875 C3.64833354 236.32801026 4.83625131 231.5280385 6.47265625 226.48046875 C6.68986328 225.79082031 6.90707031 225.10117187 7.13085938 224.390625 C8.04127386 221.53088459 8.97915153 218.73435633 10.17578125 215.98046875 C11.20877807 213.12564118 11.33584441 210.76217435 11.34765625 207.73046875 C11.37279297 206.24933594 11.37279297 206.24933594 11.3984375 204.73828125 C10.43615993 196.43993058 5.15155145 190.1325867 0.41796875 183.54101562 C-6.03492097 174.22285025 -8.78289684 163.94093633 -6.96484375 152.60546875 C-5.90176962 148.47560249 -4.57182097 144.44292574 -3.09985352 140.44165039 C-0.7056933 133.7665697 0.275265 127.99821909 -2.20703125 121.20703125 C-2.74585938 120.22476563 -3.2846875 119.2425 -3.83984375 118.23046875 C-4.37351562 117.23273438 -4.9071875 116.235 -5.45703125 115.20703125 C-6.56175915 113.30094633 -7.74279208 111.43854626 -8.96484375 109.60546875 C-11.5098764 108.98372978 -11.5098764 108.98372978 -14.46484375 108.73046875 C-27.6565261 106.73601201 -37.47503431 98.89243079 -45.36328125 88.421875 C-49.83485681 81.49841322 -52.86018118 74.55887782 -54.96484375 66.60546875 C-55.30128906 65.46464844 -55.30128906 65.46464844 -55.64453125 64.30078125 C-59.80849146 47.81606208 -57.36004965 29.81451297 -48.78515625 15.20703125 C-37.02984004 -1.59348506 -19.29272865 -8.3687778 0 0 Z " fill="#030202" transform="translate(279.96484375,135.39453125)"/>
<path d="M0 0 C0.26554687 0.67546875 0.53109375 1.3509375 0.8046875 2.046875 C1.33449219 3.38492187 1.33449219 3.38492187 1.875 4.75 C2.22304688 5.63171875 2.57109375 6.5134375 2.9296875 7.421875 C3.8646709 9.6740248 4.87780794 11.83649459 6 14 C-11.80249092 30.94660194 -32.69076402 44.74679347 -55 55 C-55.98347412 55.45366943 -55.98347412 55.45366943 -56.98681641 55.91650391 C-61.62068665 58.03616888 -66.2957837 60.04215556 -71 62 C-72.21558594 62.51433594 -73.43117188 63.02867187 -74.68359375 63.55859375 C-128.27966475 85.41514753 -194.23049928 83.15813852 -247.3671875 61.45703125 C-270.77736778 51.55667509 -300.12765752 37.89160377 -317 18 C-317 17.34 -317 16.68 -317 16 C-314.75596298 15.10598525 -312.50709867 14.23484711 -310.25 13.375 C-309.61578125 13.11976563 -308.9815625 12.86453125 -308.328125 12.6015625 C-303.61084611 10.83258292 -303.61084611 10.83258292 -300.890625 11.578125 C-298.38454275 13.46286454 -295.93322107 15.39640708 -293.5 17.375 C-278.16781308 29.40906119 -260.71213899 38.05970843 -243 46 C-241.86820312 46.51175781 -240.73640625 47.02351563 -239.5703125 47.55078125 C-222.38219282 54.70085272 -203.43239384 58.7473228 -185 61 C-184.00673706 61.1403064 -184.00673706 61.1403064 -182.9934082 61.28344727 C-155.9390092 64.82348067 -127.2299376 61.93429597 -101 55 C-100.15195801 54.77828125 -99.30391602 54.5565625 -98.43017578 54.328125 C-63.83591237 45.10477556 -33.15524121 27.43818042 -6.49267578 3.75878906 C-2.21121487 0 -2.21121487 0 0 0 Z " fill="#DEE8F1" transform="translate(414,419)"/>
<path d="M0 0 C10.73612452 7.1645029 17.45736595 17.65989169 20.16015625 30.31640625 C22.65697748 45.52813224 21.05967723 58.20032667 12.97265625 71.31640625 C9.15852019 75.60010118 4.84252687 78.9514294 -0.9453125 79.6875 C-8.67163763 79.84442656 -13.84665469 79.06142344 -20.02734375 74.31640625 C-20.6409375 73.85492188 -21.25453125 73.3934375 -21.88671875 72.91796875 C-27.87981903 67.69389461 -30.9109419 60.45916709 -34.02734375 53.31640625 C-34.39214844 52.49269531 -34.75695312 51.66898438 -35.1328125 50.8203125 C-39.5240126 38.9249019 -38.20542284 23.66343141 -33.02734375 12.31640625 C-29.45851657 6.16118185 -24.72075877 1.03999993 -18.21484375 -1.99609375 C-11.53274327 -3.43733111 -6.03747132 -3.4448395 0 0 Z " fill="#E1ECF5" transform="translate(275.02734375,149.68359375)"/>
<path d="M0 0 C3.11067864 -0.25221719 3.75975635 -0.75975635 6 -3 C6.99 -3 7.98 -3 9 -3 C10.640625 -1.171875 10.640625 -1.171875 12.25 1.25 C12.79140625 2.03890625 13.3328125 2.8278125 13.890625 3.640625 C15 6 15 6 14.671875 8.296875 C14.45015625 8.85890625 14.2284375 9.4209375 14 10 C12.35 10.33 10.7 10.66 9 11 C9.05800781 12.01578125 9.11601562 13.0315625 9.17578125 14.078125 C9.72482189 27.84443756 6.26475291 37.58203945 -3 48 C-3.54914063 48.67675781 -4.09828125 49.35351562 -4.6640625 50.05078125 C-11.48428171 57.78737352 -23.13782567 64.12084313 -33.4453125 65.2734375 C-40.72841654 65.54947351 -45.95239235 64.12183315 -52 60 C-54.5 57.4375 -54.5 57.4375 -56 55 C-56.35449219 54.43796875 -56.70898438 53.8759375 -57.07421875 53.296875 C-59.82561435 46.47062769 -58.82579338 36.00220516 -56.10546875 29.24609375 C-48.83812988 14.48029922 -40.02476054 4.89912625 -24.5625 -1.4375 C-15.82948781 -4.33601048 -8.19541183 -3.92696817 0 0 Z " fill="#E1EBF4" transform="translate(192,323)"/>
<path d="M0 0 C2.9653462 1.6192351 5.4559902 3.22459429 7.8046875 5.6640625 C8.48917969 6.31761719 8.48917969 6.31761719 9.1875 6.984375 C12.18003546 6.69477479 14.53478497 5.33011561 17.1875 3.984375 C18.39026695 5.38810302 19.57430519 6.80789597 20.75 8.234375 C21.41128906 9.02328125 22.07257813 9.8121875 22.75390625 10.625 C24.1875 12.984375 24.1875 12.984375 23.90234375 15.28125 C23.66644531 15.84328125 23.43054688 16.4053125 23.1875 16.984375 C21.8675 17.314375 20.5475 17.644375 19.1875 17.984375 C19.620625 18.89574219 20.05375 19.80710937 20.5 20.74609375 C25.97031529 33.1184211 28.2656651 47.78617031 23.5625 60.859375 C20.72012807 66.43441327 17.36438406 70.66117096 12 73.921875 C5.70857272 75.67522359 -0.76192855 76.24454621 -6.875 73.546875 C-19.01301174 66.44352111 -26.78397094 55.30950959 -30.8125 41.984375 C-32.73929184 31.09157848 -33.79795438 18.75654541 -27.8125 8.984375 C-20.75341424 -0.71163142 -11.99963141 -4.33320023 0 0 Z " fill="#E1EBF4" transform="translate(387.8125,261.015625)"/>
<path d="M0 0 C4 1 4 1 5.88378906 1.51538086 C7.99430627 1.99869612 9.94948261 2.2018665 12.109375 2.31640625 C13.24052734 2.37924805 13.24052734 2.37924805 14.39453125 2.44335938 C15.56048828 2.50233398 15.56048828 2.50233398 16.75 2.5625 C17.93916016 2.62727539 17.93916016 2.62727539 19.15234375 2.69335938 C21.10137815 2.79902991 23.05066748 2.89997966 25 3 C25 3.33 25 3.66 25 4 C21.37 4.33 17.74 4.66 14 5 C15.2375 6.175625 15.2375 6.175625 16.5 7.375 C19 10 19 10 19 12 C19.5878125 12.25394531 20.175625 12.50789063 20.78125 12.76953125 C23.24937161 14.13829587 24.61543206 15.59131744 26.5 17.6875 C47.08718716 38.71632649 74.9113775 52.41929919 102 63 C102.70133057 63.28770264 103.40266113 63.57540527 104.12524414 63.87182617 C110.54520328 66.30066588 116.74770502 66.54372795 123.5625 66.6875 C124.66658203 66.72166016 125.77066406 66.75582031 126.90820312 66.79101562 C129.60536703 66.87274786 132.30223643 66.94213826 135 67 C135 67.33 135 67.66 135 68 C100.09998745 68.43537104 100.09998745 68.43537104 85 66 C84.27619141 65.8870459 83.55238281 65.7740918 82.80664062 65.65771484 C47.93327593 59.94991392 15.89802439 44.31534448 -12 23 C-10.6187244 20.06643373 -9.00394678 17.51331387 -7.125 14.875 C-3.94113596 10.1850434 -1.88976014 5.32467711 0 0 Z " fill="#DE1742" transform="translate(137,399)"/>
<path d="M0 0 C0 0.33 0 0.66 0 1 C-1.03125 1 -2.0625 1 -3.125 1 C-6.60496096 1.51320636 -8.02785986 2.69238197 -10.1875 5.4375 C-19.179943 18.89019473 -20.81722179 35.06924471 -17.87890625 50.7265625 C-14.62069118 62.86160353 -8.90985737 73.09014263 0 82 C-8.26730997 81.48329313 -13.53811931 77.80047824 -19.1875 71.875 C-23.29678446 67.01637543 -25.7607202 61.92052008 -28 56 C-28.3196875 55.24460938 -28.639375 54.48921875 -28.96875 53.7109375 C-33.43302024 41.68220936 -32.25555736 26.5168078 -27 15 C-23.43117282 8.8447756 -18.69341502 3.72359368 -12.1875 0.6875 C-8.0795351 -0.19853165 -4.18380878 -0.16735235 0 0 Z " fill="#C2D5E8" transform="translate(269,147)"/>
<path d="M0 0 C-0.72316406 1.39412109 -0.72316406 1.39412109 -1.4609375 2.81640625 C-2.09928433 4.06493755 -2.73728678 5.31364495 -3.375 6.5625 C-3.69210937 7.17158203 -4.00921875 7.78066406 -4.3359375 8.40820312 C-10.8764544 21.28484577 -10.40527343 34.80533514 -6.32421875 48.39453125 C-2.26890635 59.43598654 3.75970773 67.75970773 12 76 C3.9335726 75.82464288 -1.53379678 71.26692672 -7.2421875 65.88671875 C-18.45478463 53.97597878 -21.58569425 39.97223959 -21.2734375 23.94921875 C-20.64718111 14.9042872 -16.73512302 8.0261627 -10 2 C-6.66783736 -0.20261598 -3.93839241 -0.17901784 0 0 Z " fill="#C1D5E8" transform="translate(377,260)"/>
<path d="M0 0 C0.66 0.33 1.32 0.66 2 1 C1.03900391 1.8353125 1.03900391 1.8353125 0.05859375 2.6875 C-11.2000768 12.62063407 -22.00974984 24.25661673 -23.23828125 40.06640625 C-23.41649469 48.46119747 -23.01031 56.87318324 -17.625 63.7578125 C-15.63119594 65.28192234 -14.29620592 65.48391755 -11.8125 65.6875 C-10.554375 65.790625 -9.29625 65.89375 -8 66 C-8 66.33 -8 66.66 -8 67 C-16.1919339 67.70083085 -22.13556239 66.67855524 -29 62 C-31.5 59.4375 -31.5 59.4375 -33 57 C-33.35449219 56.43796875 -33.70898438 55.8759375 -34.07421875 55.296875 C-36.82561435 48.47062769 -35.82579338 38.00220516 -33.10546875 31.24609375 C-25.79091722 16.38437245 -16.11095445 5.48458024 0 0 Z " fill="#BFD3E5" transform="translate(169,321)"/>
<path d="M0 0 C3.49353838 1.74676919 5.13945763 2.91405215 7.75 5.625 C8.67039062 6.57246094 8.67039062 6.57246094 9.609375 7.5390625 C10.06828125 8.02117187 10.5271875 8.50328125 11 9 C9.52278578 12.45201639 7.56205999 14.64961936 4.875 17.25 C4.15054688 17.95640625 3.42609375 18.6628125 2.6796875 19.390625 C2.12539062 19.92171875 1.57109375 20.4528125 1 21 C-0.08839774 20.11032656 -1.17044608 19.21288426 -2.25 18.3125 C-2.85328125 17.81363281 -3.4565625 17.31476563 -4.078125 16.80078125 C-6 15 -6 15 -10 10 C-6.7 6.7 -3.4 3.4 0 0 Z " fill="#050203" transform="translate(102,90)"/>
<path d="M0 0 C4.95 0 9.9 0 15 0 C15 4.62 15 9.24 15 14 C10.05 14 5.1 14 0 14 C0 9.38 0 4.76 0 0 Z " fill="#030101" transform="translate(394,152)"/>
<path d="M0 0 C4.62 0 9.24 0 14 0 C14 4.95 14 9.9 14 15 C9.38 15 4.76 15 0 15 C0 10.05 0 5.1 0 0 Z " fill="#040102" transform="translate(380,121)"/>
</svg>
