<?xml version="1.0" encoding="UTF-8"?>
<svg version="1.1" xmlns="http://www.w3.org/2000/svg" width="512" height="512">
<path d="M0 0 C15.84 0 31.68 0 48 0 C48 66.99 48 133.98 48 203 C57.02913773 206.05218279 57.02913773 206.05218279 66 206 C68.84450104 203.69364781 70.87795682 200.96714571 73 198 C73.68191406 197.06285156 74.36382812 196.12570313 75.06640625 195.16015625 C77.80792957 191.23326223 77.80792957 191.23326223 80 187 C79.12485651 183.56888188 76.50256856 181.07190209 74.26757812 178.3815918 C61.83428027 163.37193104 54.56678984 146.56381455 56.2734375 126.83984375 C58.79742795 105.71928214 67.47336775 87.4753833 83.73046875 73.68359375 C104.07399065 58.21312327 130.9345486 52.26750958 156.14453125 55.46484375 C176.78847585 58.62283381 194.46786532 68.27070238 210 82 C210.94875 82.82757813 211.8975 83.65515625 212.875 84.5078125 C218.34081123 89.36466106 223.41061995 94.3083671 228 100 C228.73476563 100.8971875 229.46953125 101.794375 230.2265625 102.71875 C254.47479763 133.20224559 269.24608829 167.78565843 275.75 206.0625 C275.94875732 207.23151855 276.14751465 208.40053711 276.35229492 209.60498047 C279.43121213 228.82280834 280.34934131 247.85627322 280.31567383 267.30859375 C280.31252141 271.09925349 280.33604788 274.88912381 280.36132812 278.6796875 C280.46901824 320.67185752 273.8565587 362.80306476 246 396 C245.24332031 396.93070312 244.48664063 397.86140625 243.70703125 398.8203125 C230.43910615 414.36088382 211.80533439 424.8943889 191.28125 426.87109375 C163.94102094 428.41600395 136.07651112 422.3001989 115 404 C114.19175781 403.33484375 113.38351562 402.6696875 112.55078125 401.984375 C95.98008476 387.87517554 85.70666726 367.33779994 82 346 C80.84415892 330.11833803 80.78347112 315.39119247 88 301 C88.43548157 300.12492798 88.43548157 300.12492798 88.87976074 299.23217773 C93.77244852 289.41003808 98.83712693 279.68245179 104 270 C103.32453125 269.86722656 102.6490625 269.73445313 101.953125 269.59765625 C101.06109375 269.42105469 100.1690625 269.24445313 99.25 269.0625 C97.92742187 268.80146484 97.92742187 268.80146484 96.578125 268.53515625 C94.36764947 268.07631512 92.18487932 267.56663926 90 267 C74.42264966 295.1718038 73.83023152 328.63682295 73 360 C69.7 360 66.4 360 63 360 C58.11504628 326.06701791 59.76777183 290.98788248 69 258 C62.01252647 256.60250529 55.0038025 255.31321297 48 254 C48 339.14 48 424.28 48 512 C32.16 512 16.32 512 0 512 C-0.33 441.38 -0.66 370.76 -1 298 C-11.3367303 302.16621623 -11.3367303 302.16621623 -20 308 C-19.74605469 309.0209375 -19.49210938 310.041875 -19.23046875 311.09375 C-11.66494366 342.52091174 -10.38972924 375.9750835 -15 408 C-18.3 408 -21.6 408 -25 408 C-25.02187378 406.93193115 -25.02187378 406.93193115 -25.04418945 405.84228516 C-25.72960926 375.55302692 -27.79277073 346.04572295 -40 318 C-40.33 317.01 -40.66 316.02 -41 315 C-43.31 315.66 -45.62 316.32 -48 317 C-47.57702637 317.85996582 -47.57702637 317.85996582 -47.14550781 318.73730469 C-45.83920996 321.4044632 -44.54460588 324.07714798 -43.25 326.75 C-42.8065625 327.65105469 -42.363125 328.55210937 -41.90625 329.48046875 C-36.45932137 340.77483547 -33.29026161 350.55870679 -33.5 363.1875 C-33.51281006 364.36932861 -33.52562012 365.55115723 -33.53881836 366.76879883 C-34.1233722 392.16827009 -44.48024913 414.70965521 -62.546875 432.62451172 C-82.38150208 451.39942586 -110.34053833 459.9530195 -137.31640625 459.28515625 C-161.35261553 457.42445288 -181.97299662 447.18516823 -197.76171875 428.81640625 C-222.75401389 397.36885861 -232.05531374 359.5087631 -232.203125 319.94140625 C-232.21167511 318.10569313 -232.21167511 318.10569313 -232.22039795 316.2328949 C-232.22979379 313.64868009 -232.23636021 311.06445359 -232.24023438 308.48022461 C-232.24982733 304.63176911 -232.28085704 300.78387496 -232.3125 296.93554688 C-232.56991073 236.82881633 -218.97681881 175.92229694 -178 130 C-177.54947266 129.4853418 -177.09894531 128.97068359 -176.63476562 128.44042969 C-157.50868925 106.64589539 -133.36522072 90.36242985 -104 87 C-78.37373548 85.37824585 -52.43483428 91.38450146 -32.6875 108.375 C-17.91761159 122.42790354 -8.90696253 141.45532712 -8 162 C-7.96003906 162.72316406 -7.92007813 163.44632813 -7.87890625 164.19140625 C-7.28163074 184.39337217 -18.12776433 201.36320478 -31 216 C-33.27425907 218.39944765 -35.59380488 220.7330702 -38 223 C-36.42148695 227.37640656 -34.20771947 231.28136653 -31.8125 235.25 C-31.41538818 235.9102417 -31.01827637 236.5704834 -30.60913086 237.25073242 C-26.94348683 243.25339894 -22.98865663 249.01134337 -18 254 C-11.22614034 254.72062337 -7.05783021 252.92486278 0 251 C0 168.17 0 85.34 0 0 Z M95 200 C92.36 205.28 89.72 210.56 87 216 C91.45619305 214.51460232 94.05963002 213.56304379 97.75 211.0625 C98.50796875 210.55847656 99.2659375 210.05445313 100.046875 209.53515625 C102.24278572 207.97315281 102.24278572 207.97315281 104 205 C102.87926138 204.16094435 101.75325453 203.32892169 100.625 202.5 C99.99851562 202.0359375 99.37203125 201.571875 98.7265625 201.09375 C97.05905387 199.82161899 97.05905387 199.82161899 95 200 Z M-60.0625 240 C-60.98160156 240.7425 -61.90070313 241.485 -62.84765625 242.25 C-63.91306641 243.11625 -63.91306641 243.11625 -65 244 C-58.33931161 252.23821985 -51.01743861 260.06457769 -41 264 C-40.34 263.67 -39.68 263.34 -39 263 C-45.96324751 249.18599009 -45.96324751 249.18599009 -54 236 C-56.17255579 236 -58.49414258 238.72943196 -60.0625 240 Z " fill="#AE1818" transform="translate(232,0)"/>
<path d="M0 0 C7.92 0 15.84 0 24 0 C24 66.99 24 133.98 24 203 C33.02913773 206.05218279 33.02913773 206.05218279 42 206 C44.84450104 203.69364781 46.87795682 200.96714571 49 198 C49.68191406 197.06285156 50.36382812 196.12570313 51.06640625 195.16015625 C53.80792957 191.23326223 53.80792957 191.23326223 56 187 C55.12485651 183.56888188 52.50256856 181.07190209 50.26757812 178.3815918 C37.83428027 163.37193104 30.56678984 146.56381455 32.2734375 126.83984375 C34.79742795 105.71928214 43.47336775 87.4753833 59.73046875 73.68359375 C80.07399065 58.21312327 106.9345486 52.26750958 132.14453125 55.46484375 C152.78847585 58.62283381 170.46786532 68.27070238 186 82 C186.94875 82.82757813 187.8975 83.65515625 188.875 84.5078125 C194.34081123 89.36466106 199.41061995 94.3083671 204 100 C205.10214844 101.34578125 205.10214844 101.34578125 206.2265625 102.71875 C230.47479763 133.20224559 245.24608829 167.78565843 251.75 206.0625 C251.94875732 207.23151855 252.14751465 208.40053711 252.35229492 209.60498047 C255.43121213 228.82280834 256.34934131 247.85627322 256.31567383 267.30859375 C256.31252141 271.09925349 256.33604788 274.88912381 256.36132812 278.6796875 C256.46901824 320.67185752 249.8565587 362.80306476 222 396 C221.24332031 396.93070312 220.48664063 397.86140625 219.70703125 398.8203125 C206.43910615 414.36088382 187.80533439 424.8943889 167.28125 426.87109375 C139.94102094 428.41600395 112.07651112 422.3001989 91 404 C90.19175781 403.33484375 89.38351562 402.6696875 88.55078125 401.984375 C71.98008476 387.87517554 61.70666726 367.33779994 58 346 C56.84034243 330.06589815 56.79749643 315.41051365 64 301 C64.55300781 299.87819336 65.10601562 298.75638672 65.67578125 297.60058594 C71.34175107 286.16604021 77.05525103 274.72016705 84 264 C85.00509214 262.33639922 86.00769103 260.67125722 87 259 C86.18273437 258.75507813 85.36546875 258.51015625 84.5234375 258.2578125 C80.36838676 256.77452388 76.54678711 254.88199051 72.625 252.875 C71.88894531 252.50246094 71.15289062 252.12992188 70.39453125 251.74609375 C68.59449642 250.8343878 66.79698598 249.91770068 65 249 C66.84127884 244.22290434 70.01815004 242.98662505 74.484375 240.92578125 C77.92529402 239.65948031 79.55075891 239.70653459 83 241 C86.38769487 242.5710307 89.70833137 244.23707075 93 246 C95.29336437 237.82988942 97.09534516 227.71209311 94.1015625 219.55078125 C92.93123181 217.49628457 92.93123181 217.49628457 91 215 C91 214.34 91 213.68 91 213 C90.49210937 213.44730469 89.98421875 213.89460937 89.4609375 214.35546875 C88.02429768 215.61723668 86.58396856 216.87481229 85.140625 218.12890625 C83.45011892 219.60655664 81.78310329 221.11107961 80.125 222.625 C76.65280823 225.26386575 73.13364616 227.00026279 69.171875 228.7890625 C66.70503329 229.94780042 66.70503329 229.94780042 65 233 C63.0546875 233.51171875 63.0546875 233.51171875 60.875 233.6875 C58.956875 233.8421875 58.956875 233.8421875 57 234 C55.31732122 228.36354225 57.22421754 224.96789955 59.8515625 219.94140625 C62.94136458 215.71118631 66.59723482 213.80514372 71.20703125 211.46875 C74.54434017 209.71374559 76.58408088 207.84733325 79 205 C77.948125 204.278125 76.89625 203.55625 75.8125 202.8125 C72.5399098 200.48341866 69.80504065 197.88085256 67 195 C65.68824014 193.97186389 64.3630107 192.95915568 63 192 C62.76410156 192.65613281 62.52820313 193.31226563 62.28515625 193.98828125 C58.15634612 203.66400347 51.16317678 218.38341423 42 224 C27.85786438 224 13.89991177 220.60623346 0 218 C0 146.06 0 74.12 0 0 Z " fill="#AE1818" transform="translate(256,0)"/>
<path d="M0 0 C7.92 0 15.84 0 24 0 C24 71.94 24 143.88 24 218 C29.28 218.66 34.56 219.32 40 220 C42.79837959 220.50584308 45.59258285 221.03766674 48.375 221.625 C57.17602045 223.65052378 57.17602045 223.65052378 66 223 C72.56061185 217.47870115 76.82199184 209.79527427 81 202.4375 C81.58394531 201.42880859 82.16789063 200.42011719 82.76953125 199.38085938 C84.18906515 196.92576387 85.59893082 194.46566364 87 192 C90.40212299 193.61382757 93.10324519 195.58603766 96 198 C94.06963538 205.19941017 89.94672854 211.44876983 86.25585938 217.85742188 C83.37701159 222.98745149 81.27166332 227.08103256 81 233 C83.64 233 86.28 233 89 233 C89.20496094 232.40574219 89.40992188 231.81148437 89.62109375 231.19921875 C91.54896511 228.12445507 93.80308667 227.35643263 97.0625 225.8125 C102.87241744 222.84957093 106.94728599 219.55208849 111.29296875 214.72265625 C112.13794922 213.86994141 112.13794922 213.86994141 113 213 C113.66 213 114.32 213 115 213 C120.70598539 220.5196736 120.95208519 227.80642734 120 237 C119.25272191 240.22263678 118.28881043 242.93907523 117 246 C113.78724616 245.00557619 110.98815654 243.99319631 108.0625 242.3125 C104.08276211 240.60689805 102.16363059 240.85141225 98 242 C92.65826039 244.60078275 92.65826039 244.60078275 89 249 C89.81726563 249.24492187 90.63453125 249.48984375 91.4765625 249.7421875 C95.63161324 251.22547612 99.45321289 253.11800949 103.375 255.125 C104.11105469 255.49753906 104.84710938 255.87007812 105.60546875 256.25390625 C107.40550358 257.1656122 109.20301402 258.08229932 111 259 C109.35442612 263.29183459 107.32599824 267.04580299 105 271 C97.575 269.02 97.575 269.02 90 267 C74.65919087 295.49007411 73.83686933 328.3860704 73 360 C69.7 360 66.4 360 63 360 C58.11504628 326.06701791 59.76777183 290.98788248 69 258 C62.01252647 256.60250529 55.0038025 255.31321297 48 254 C48 339.14 48 424.28 48 512 C32.16 512 16.32 512 0 512 C-0.33 441.38 -0.66 370.76 -1 298 C-11.3367303 302.16621623 -11.3367303 302.16621623 -20 308 C-19.74605469 309.0209375 -19.49210937 310.041875 -19.23046875 311.09375 C-11.66494366 342.52091174 -10.38972924 375.9750835 -15 408 C-18.3 408 -21.6 408 -25 408 C-25.01458252 407.2879541 -25.02916504 406.5759082 -25.04418945 405.84228516 C-25.72960926 375.55302692 -27.79277073 346.04572295 -40 318 C-40.33 317.01 -40.66 316.02 -41 315 C-41.7425 315.33 -42.485 315.66 -43.25 316 C-46 317 -46 317 -50 317 C-51.03307771 315.23628182 -52.05112049 313.46374967 -53.0625 311.6875 C-53.91521484 310.20830078 -53.91521484 310.20830078 -54.78515625 308.69921875 C-56 306 -56 306 -55 303 C-52.34765625 301.39453125 -52.34765625 301.39453125 -49.0625 299.8125 C-47.98097656 299.28269531 -46.89945313 298.75289063 -45.78515625 298.20703125 C-43 297 -43 297 -41 297 C-44.76361869 292.64831588 -48.32732829 290.27086332 -54 289 C-56.66303039 289.14874817 -56.66303039 289.14874817 -59 290 C-60.6644563 290.34420071 -62.33092973 290.67891849 -64 291 C-65.15149172 288.27309923 -66.29632922 285.54371696 -67.4375 282.8125 C-67.92573242 281.65911133 -67.92573242 281.65911133 -68.42382812 280.48242188 C-71.17297723 273.87879567 -72.15215109 268.5307477 -72.1875 261.3125 C-72.20586914 260.29833008 -72.20586914 260.29833008 -72.22460938 259.26367188 C-72.2298516 257.50752573 -72.12232123 255.75188878 -72 254 C-71.01 253.01 -71.01 253.01 -70 252 C-69.59910156 252.68964844 -69.19820312 253.37929687 -68.78515625 254.08984375 C-63.48067314 262.85847909 -58.14796836 270.96914012 -48 274 C-42.203125 277.390625 -42.203125 277.390625 -41 281 C-38.36 281 -35.72 281 -33 281 C-33.50517771 275.78984063 -34.7042837 272.05942585 -37.203125 267.47265625 C-37.52279236 266.88004501 -37.84245972 266.28743378 -38.17181396 265.67686462 C-39.18793979 263.79980552 -40.21891376 261.93137404 -41.25 260.0625 C-41.92670866 258.81365313 -42.60249759 257.56430743 -43.27734375 256.31445312 C-46.04292563 251.22090599 -48.81993123 246.19030887 -52.046875 241.37109375 C-54 238 -54 238 -53.70581055 235.88208008 C-52.43975413 232.50607562 -49.85852164 231.10013835 -47 229 C-46.34 229 -45.68 229 -45 229 C-44.71390869 229.53254395 -44.42781738 230.06508789 -44.13305664 230.61376953 C-38.16693751 241.68366596 -32.18657192 252.66502514 -25 263 C-24.39542969 263.88042969 -23.79085937 264.76085937 -23.16796875 265.66796875 C-21.5540099 267.78469581 -20.16924673 269.46100738 -18 271 C-14.07921009 271.31363277 -14.07921009 271.31363277 -10 270 C-6.7 269.34 -3.4 268.68 0 268 C0 179.56 0 91.12 0 0 Z " fill="#0197AF" transform="translate(232,0)"/>
<path d="M0 0 C0 85.14 0 170.28 0 258 C-7.92 258 -15.84 258 -24 258 C-24 173.19 -24 88.38 -24 1 C-16.10200162 -0.31633306 -8.00694143 0 0 0 Z " fill="#E82E20" transform="translate(280,254)"/>
<path d="M0 0 C7.92 0 15.84 0 24 0 C24 66.99 24 133.98 24 203 C33.02913773 206.05218279 33.02913773 206.05218279 42 206 C48.39149305 200.8427263 52.62276433 192.82166598 57 186 C59.46800047 187.15173355 61.04783565 188.04783565 63 190 C62.93541278 196.00661148 59.59953852 200.4489654 56.4375 205.3125 C55.89174316 206.15466064 55.34598633 206.99682129 54.78369141 207.86450195 C45.46676038 222.04333694 45.46676038 222.04333694 42 224 C27.85786438 224 13.89991177 220.60623346 0 218 C0 146.06 0 74.12 0 0 Z " fill="#E82E20" transform="translate(256,0)"/>
<path d="M0 0 C4.67225381 0.63875667 8.87268349 1.85754418 13.3125 3.4375 C14.54613281 3.86933594 15.77976562 4.30117188 17.05078125 4.74609375 C20 6 20 6 21 8 C20.1796875 9.85546875 20.1796875 9.85546875 18.875 12.1875 C5.02008173 39.12975104 4.78249778 71.44003316 4 101 C0.7 101 -2.6 101 -6 101 C-10.8110669 67.58026745 -9.6633323 32.38935096 0 0 Z " fill="#FDEBCA" transform="translate(301,259)"/>
<path d="M0 0 C2.54350556 7.3077368 4.42663779 14.50181901 5.6875 22.125 C5.86599487 23.19693604 5.86599487 23.19693604 6.0480957 24.29052734 C7.94115961 36.33680136 8.1981738 48.27143918 8.1875 60.4375 C8.1882251 61.27750549 8.1889502 62.11751099 8.18969727 62.98297119 C8.18850951 75.42082326 7.77495673 87.67038983 6 100 C2.7 100 -0.6 100 -4 100 C-4.01458252 99.2879541 -4.02916504 98.5759082 -4.04418945 97.84228516 C-4.6977091 68.96272101 -6.15478932 39.77617006 -17.765625 12.93359375 C-18.75609391 10.5796629 -19.42564233 8.46754934 -20 6 C-17.23113877 4.99422987 -14.46015896 3.99519853 -11.6875 3 C-10.90181641 2.71382813 -10.11613281 2.42765625 -9.30664062 2.1328125 C-8.54931641 1.86210937 -7.79199219 1.59140625 -7.01171875 1.3125 C-6.31522217 1.06113281 -5.61872559 0.80976563 -4.90112305 0.55078125 C-3 0 -3 0 0 0 Z " fill="#FDEACA" transform="translate(211,308)"/>
<path d="M0 0 C3.22132405 2.06495131 3.85914307 3.41309614 4.75 7.125 C3.77777274 12.14817416 1.3842008 14.56249853 -1.89453125 18.38671875 C-8.89519104 27.07584936 -11.38078377 36.98202409 -11.25 47.9375 C-11.24419922 49.12545166 -11.24419922 49.12545166 -11.23828125 50.33740234 C-11.16732673 55.11993428 -10.70920598 59.48489013 -9.46484375 64.1171875 C-8.59920724 67.6233791 -8.57842133 70.38646854 -9 74 C-11.0625 77.0625 -11.0625 77.0625 -14 79 C-17.46634319 79 -19.83237086 78.92106667 -22.609375 76.73046875 C-24.28218771 74.64885068 -24.89236652 72.87671718 -25.625 70.3125 C-25.86476562 69.50425781 -26.10453125 68.69601562 -26.3515625 67.86328125 C-30.80313524 48.20663777 -28.20252874 29.33419734 -18 12 C-8.93497984 -0.94052419 -8.93497984 -0.94052419 0 0 Z " fill="#871010" transform="translate(159,217)"/>
<path d="M0 0 C3.03130047 1.99350514 5.48036566 4.40275886 8 7 C8.77150391 7.72316406 8.77150391 7.72316406 9.55859375 8.4609375 C21.38228376 20.5730102 25.44037877 38.00878982 25.28613281 54.28173828 C24.91990086 69.94238012 24.91990086 69.94238012 21.3125 75.6875 C17.98557894 77.57575249 15.75806714 77.53686673 12 77 C9.79907227 75.38134766 9.79907227 75.38134766 8 73 C7.59350586 69.95068359 7.59350586 69.95068359 7.71484375 66.3984375 C7.74126953 65.10292969 7.76769531 63.80742187 7.79492188 62.47265625 C7.8404754 61.10670363 7.88801392 59.74081581 7.9375 58.375 C8.50032153 41.89606281 5.68738648 28.98523547 -5.609375 16.41015625 C-7.11087521 14.84415547 -7.11087521 14.84415547 -9.375 13 C-11 11 -11 11 -11.5 7.5 C-11 4 -11 4 -9.4375 1.5625 C-5.90550465 -0.70159958 -4.13858566 -0.7587407 0 0 Z " fill="#871010" transform="translate(358,186)"/>
<path d="M0 0 C3.26761492 3.86507949 5.79464572 7.88825419 8.3125 12.25 C12.27107221 18.98458569 16.44813899 25.44813899 22 31 C28.39947181 31.68079487 33.88078587 29.81310048 40 28 C40 33.61 40 39.22 40 45 C25.83184258 49.57960644 25.83184258 49.57960644 22 49 C12.58149636 42.3408236 6.99084503 29.40591187 1.49023438 19.62841797 C0.50458522 17.88996797 -0.50434724 16.16449464 -1.53710938 14.45361328 C-2.00439453 13.66583496 -2.47167969 12.87805664 -2.953125 12.06640625 C-3.58202637 11.03108765 -3.58202637 11.03108765 -4.22363281 9.97485352 C-5.19047447 7.51548805 -4.97409249 6.42800409 -4 4 C-1.9375 1.75 -1.9375 1.75 0 0 Z " fill="#E62F21" transform="translate(192,223)"/>
<path d="M0 0 C6.36695279 5.39806867 6.36695279 5.39806867 9.3046875 8.19140625 C13.59252611 12.23950947 17.37447474 15.33654475 22.75 17.8125 C28.44802765 20.69388898 30.51437883 24.42492405 33.171875 30.09765625 C34.06292714 33.22054183 33.9253615 34.92486575 33 38 C25.72714681 37.63019391 25.72714681 37.63019391 22.1875 34.5625 C21.465625 33.716875 20.74375 32.87125 20 32 C17.16228549 29.89153323 17.16228549 29.89153323 14.12890625 29.1640625 C6.77754923 26.42910071 0.54673119 18.54215078 -3.29296875 11.8125 C-4.44227146 8.86622123 -4.06151316 6.9191612 -3 4 C-1.4375 1.625 -1.4375 1.625 0 0 Z " fill="#E62F22" transform="translate(166,244)"/>
<path d="M0 0 C2.99990667 1.19996267 5.0914807 2.86674005 7.5 5 C6.61238163 10.8556316 1.883824 14.42339571 -2.5 18 C-5.60842544 19.76321443 -8.72236803 21.28103431 -11.99609375 22.7109375 C-14.77391736 23.88451519 -14.77391736 23.88451519 -16.5 27 C-18.4453125 27.51171875 -18.4453125 27.51171875 -20.625 27.6875 C-21.90375 27.790625 -23.1825 27.89375 -24.5 28 C-26.18228817 22.36485068 -24.27784553 18.96958043 -21.6484375 13.9453125 C-18.58412584 9.74441979 -15.00711609 7.7757176 -10.40234375 5.5 C-7.40778301 4.07484604 -7.40778301 4.07484604 -4.78515625 1.8125 C-2.5 0 -2.5 0 0 0 Z " fill="#E62F22" transform="translate(337.5,206)"/>
<path d="M0 0 C3.06989521 1.55778154 6.05127521 3.22421241 9 5 C8.40895235 9.84659077 7.02055843 13.60748167 5 18 C1.52401836 17.42022443 -1.29104698 16.53478895 -4.42578125 14.93359375 C-5.22177734 14.53076172 -6.01777344 14.12792969 -6.83789062 13.71289062 C-8.06282227 13.08157227 -8.06282227 13.08157227 -9.3125 12.4375 C-10.56643555 11.80038086 -10.56643555 11.80038086 -11.84570312 11.15039062 C-13.89996426 10.1056521 -15.95120292 9.05540238 -18 8 C-15.86097092 3.28507235 -13.14329395 2.06236974 -8.51953125 -0.07421875 C-5.09314924 -1.33321493 -3.42268011 -1.31081366 0 0 Z " fill="#E43023" transform="translate(339,241)"/>
<path d="M0 0 C2.3352408 1.15789023 3.95949911 2.31658676 6 4 C6.33 4.99 6.66 5.98 7 7 C4.71070947 8.17154293 2.41881638 9.33738074 0.125 10.5 C-0.52597656 10.83386719 -1.17695313 11.16773438 -1.84765625 11.51171875 C-6.7734375 14 -6.7734375 14 -9 14 C-10.00508801 12.21118264 -11.00392736 10.41885304 -12 8.625 C-12.8353125 7.12839844 -12.8353125 7.12839844 -13.6875 5.6015625 C-15 3 -15 3 -15 1 C-9.56069705 -2.62620196 -5.86356136 -2.15695293 0 0 Z " fill="#E43023" transform="translate(184,290)"/>
<path d="M0 0 C4.71403788 0.47939368 8.66579301 0.96834048 13 3 C12.67 3.99 12.34 4.98 12 6 C7.76570244 4.68938409 3.92592596 3.05643741 0 1 C0 0.67 0 0.34 0 0 Z " fill="#DFD5BC" transform="translate(337,240)"/>
<path d="M0 0 C0 2.31 0 4.62 0 7 C-2.97 6.505 -2.97 6.505 -6 6 C-6 5.01 -6 4.02 -6 3 C-1.66666667 0 -1.66666667 0 0 0 Z " fill="#E8E3C7" transform="translate(352,227)"/>
<path d="M0 0 C4.51707932 0.5314211 7.38687577 2.29015683 11 5 C11.33 5.66 11.66 6.32 12 7 C7.39104317 5.68315519 3.85859765 3.84801255 0 1 C0 0.67 0 0.34 0 0 Z " fill="#E4D3B9" transform="translate(179,273)"/>
<path d="M0 0 C-1.6188996 1.03048037 -3.24532489 2.04914678 -4.875 3.0625 C-5.77992188 3.63097656 -6.68484375 4.19945312 -7.6171875 4.78515625 C-8.40351563 5.18605469 -9.18984375 5.58695313 -10 6 C-10.66 5.67 -11.32 5.34 -12 5 C-4.28571429 -1.42857143 -4.28571429 -1.42857143 0 0 Z " fill="#E4D8BE" transform="translate(333,226)"/>
</svg>
