<?xml version="1.0" encoding="UTF-8"?>
<svg version="1.1" xmlns="http://www.w3.org/2000/svg" width="512" height="512">
<path d="M0 0 C2.36588704 -0.00435722 4.73177267 -0.0095437 7.09765625 -0.01548767 C13.47164587 -0.02877849 19.84557584 -0.02946761 26.2195766 -0.02692437 C30.21292222 -0.02611994 34.2062587 -0.02827962 38.19960213 -0.03191185 C38.86609035 -0.03250704 39.53257858 -0.03310223 40.21926342 -0.03371545 C41.57395792 -0.03492741 42.92865241 -0.03614155 44.2833469 -0.03735783 C56.93645886 -0.04818954 69.58954406 -0.04609137 82.24265749 -0.03997298 C93.77469412 -0.03480453 105.30664626 -0.04606521 116.83866619 -0.0650712 C128.73271626 -0.08452089 140.6267265 -0.09269337 152.52079254 -0.08894795 C159.17725511 -0.08704709 165.83365618 -0.08968517 172.4901104 -0.10366249 C178.7521638 -0.11632218 185.01404906 -0.11422033 191.27610016 -0.1012516 C193.55957918 -0.09890413 195.84307035 -0.10155392 198.12653542 -0.10987473 C215.47424043 -0.16847787 232.15516605 1.09628307 248.88891602 6.0246582 C249.76443115 6.28069824 250.63994629 6.53673828 251.54199219 6.80053711 C263.64529839 10.51997491 274.42451303 16.50670405 280.95922852 27.7199707 C287.22236828 39.60080623 289.09910646 50.92688776 285.26391602 64.0871582 C275.23259628 92.95778574 248.14346036 108.99883571 222.45141602 122.2746582 C208.97560767 129.23829148 196.41074626 136.20593793 184.95141602 146.2746582 C184.12254883 146.97075195 183.29368164 147.6668457 182.43969727 148.3840332 C158.65997976 168.84130981 145.61232606 197.35885086 134.31860352 225.92700195 C126.09644317 246.62610647 117.55786943 267.61501405 98.95141602 281.2746582 C97.95023743 281.67937945 96.94905884 282.0841007 95.9175415 282.50108624 C92.22962046 284.02988169 89.78734998 285.44330747 86.95141602 288.2746582 C85.13684615 294.6051774 85.41459579 300.82315346 85.56079102 307.36181641 C85.5608619 309.32690082 85.55559296 311.2919916 85.5453949 313.25704956 C85.53501816 317.48350991 85.56254871 321.7074145 85.61972046 325.93349648 C85.71017261 332.62030034 85.7176037 339.30564576 85.71435547 345.9929657 C85.71928709 356.57426997 85.78183942 367.15434935 85.86797237 377.73527449 C86.02027635 396.67081104 86.07541501 415.60676292 86.10875893 434.54284161 C86.12273654 441.18472327 86.16193467 447.82584253 86.22246456 454.46745837 C86.25704558 458.60659202 86.27563469 462.74569907 86.29072762 466.88494492 C86.30133426 468.79813444 86.31890328 470.71130059 86.3441143 472.62435341 C86.4870191 483.7180388 86.21613991 492.32473778 80.26391602 502.0246582 C72.46990524 509.60802003 64.79330932 512.69538046 54.04516602 512.63818359 C45.16702054 512.4103571 39.19187148 509.29952024 32.74438477 503.34106445 C27.19021721 496.93985609 24.82395581 489.61865866 24.8311615 481.28887939 C24.8290995 479.4505529 24.8290995 479.4505529 24.82699585 477.5750885 C24.83053473 476.22006201 24.83416954 474.86503577 24.83789062 473.51000977 C24.83817275 472.08086652 24.83801427 470.65172312 24.83744812 469.22257996 C24.83716112 465.34482862 24.84304217 461.4671082 24.85002208 457.58936405 C24.85627177 453.53611978 24.8568607 449.48287481 24.85804749 445.42962646 C24.86115603 437.75511273 24.869363 430.08061323 24.87939698 422.40610576 C24.8905729 413.66857539 24.8960723 404.93104435 24.90109241 396.19350863 C24.911546 378.22054877 24.92988557 360.24760844 24.95141602 342.2746582 C13.40141602 342.2746582 1.85141602 342.2746582 -10.04858398 342.2746582 C-10.25483398 344.8115332 -10.46108398 347.3484082 -10.67358398 349.9621582 C-13.25399348 374.98726164 -22.99684236 398.784692 -42.47045898 415.36450195 C-60.41578611 428.66035796 -80.49255525 433.50864646 -102.54858398 433.3371582 C-103.65717773 433.33264648 -104.76577148 433.32813477 -105.90795898 433.32348633 C-108.62155798 433.31178978 -111.33504159 433.29539906 -114.04858398 433.2746582 C-114.21656494 433.8025293 -114.3845459 434.33040039 -114.55761719 434.87426758 C-122.70653267 459.95121139 -134.58447043 496.33781088 -158.81420898 510.14575195 C-165.73337457 513.64162408 -177.02393356 513.61045287 -184.42358398 511.3371582 C-193.71429937 506.96019896 -199.44261466 499.31940738 -202.90356445 489.96337891 C-216.38646609 449.64701656 -220.98156285 405.52775069 -223.90756226 363.30813599 C-224.00077146 361.96409593 -224.09661144 360.62023545 -224.19522095 359.27658081 C-225.27014868 344.39409252 -225.24873411 329.50188555 -225.23608398 314.5871582 C-225.23547974 313.27418762 -225.23487549 311.96121704 -225.23425293 310.60845947 C-225.21569615 291.41815309 -224.98830352 272.38102904 -223.04858398 253.2746582 C-222.92499512 251.9983252 -222.80140625 250.72199219 -222.67407227 249.40698242 C-218.12487216 203.19960994 -208.10092415 157.33654843 -188.04858398 115.2746582 C-187.72422363 114.57824219 -187.39986328 113.88182617 -187.06567383 113.16430664 C-176.54167752 90.59030731 -162.17319914 71.21827669 -145.04858398 53.2746582 C-144.44788086 52.62110352 -143.84717773 51.96754883 -143.22827148 51.29418945 C-137.49421128 45.22876396 -130.72666995 40.24443714 -124.04858398 35.2746582 C-123.47640137 34.84749512 -122.90421875 34.42033203 -122.31469727 33.98022461 C-101.92378246 19.00189391 -77.8892182 9.96537062 -53.36108398 4.4621582 C-52.49612305 4.26702637 -51.63116211 4.07189453 -50.73999023 3.87084961 C-33.91105826 0.34511368 -17.12448089 -0.02105888 0 0 Z " fill="#F04D5C" transform="translate(225.048583984375,-0.274658203125)"/>
<path d="M0 0 C2.36588704 -0.00435722 4.73177267 -0.0095437 7.09765625 -0.01548767 C13.47164587 -0.02877849 19.84557584 -0.02946761 26.2195766 -0.02692437 C30.21292222 -0.02611994 34.2062587 -0.02827962 38.19960213 -0.03191185 C38.86609035 -0.03250704 39.53257858 -0.03310223 40.21926342 -0.03371545 C41.57395792 -0.03492741 42.92865241 -0.03614155 44.2833469 -0.03735783 C56.93645886 -0.04818954 69.58954406 -0.04609137 82.24265749 -0.03997298 C93.77469412 -0.03480453 105.30664626 -0.04606521 116.83866619 -0.0650712 C128.73271626 -0.08452089 140.6267265 -0.09269337 152.52079254 -0.08894795 C159.17725511 -0.08704709 165.83365618 -0.08968517 172.4901104 -0.10366249 C178.7521638 -0.11632218 185.01404906 -0.11422033 191.27610016 -0.1012516 C193.55957918 -0.09890413 195.84307035 -0.10155392 198.12653542 -0.10987473 C215.47424043 -0.16847787 232.15516605 1.09628307 248.88891602 6.0246582 C249.76443115 6.28069824 250.63994629 6.53673828 251.54199219 6.80053711 C263.64529839 10.51997491 274.42451303 16.50670405 280.95922852 27.7199707 C287.22236828 39.60080623 289.09910646 50.92688776 285.26391602 64.0871582 C275.23259628 92.95778574 248.14346036 108.99883571 222.45141602 122.2746582 C208.97560767 129.23829148 196.41074626 136.20593793 184.95141602 146.2746582 C184.12254883 146.97075195 183.29368164 147.6668457 182.43969727 148.3840332 C158.65997976 168.84130981 145.61232606 197.35885086 134.31860352 225.92700195 C126.09644317 246.62610647 117.55786943 267.61501405 98.95141602 281.2746582 C97.95023743 281.67937945 96.94905884 282.0841007 95.9175415 282.50108624 C92.22962046 284.02988169 89.78734998 285.44330747 86.95141602 288.2746582 C85.13684615 294.6051774 85.41459579 300.82315346 85.56079102 307.36181641 C85.5608619 309.32690082 85.55559296 311.2919916 85.5453949 313.25704956 C85.53501816 317.48350991 85.56254871 321.7074145 85.61972046 325.93349648 C85.71017261 332.62030034 85.7176037 339.30564576 85.71435547 345.9929657 C85.71928709 356.57426997 85.78183942 367.15434935 85.86797237 377.73527449 C86.02027635 396.67081104 86.07541501 415.60676292 86.10875893 434.54284161 C86.12273654 441.18472327 86.16193467 447.82584253 86.22246456 454.46745837 C86.25704558 458.60659202 86.27563469 462.74569907 86.29072762 466.88494492 C86.30133426 468.79813444 86.31890328 470.71130059 86.3441143 472.62435341 C86.4870191 483.7180388 86.21613991 492.32473778 80.26391602 502.0246582 C72.46990524 509.60802003 64.79330932 512.69538046 54.04516602 512.63818359 C45.16702054 512.4103571 39.19187148 509.29952024 32.74438477 503.34106445 C27.19021721 496.93985609 24.82395581 489.61865866 24.8311615 481.28887939 C24.8290995 479.4505529 24.8290995 479.4505529 24.82699585 477.5750885 C24.83053473 476.22006201 24.83416954 474.86503577 24.83789062 473.51000977 C24.83817275 472.08086652 24.83801427 470.65172312 24.83744812 469.22257996 C24.83716112 465.34482862 24.84304217 461.4671082 24.85002208 457.58936405 C24.85627177 453.53611978 24.8568607 449.48287481 24.85804749 445.42962646 C24.86115603 437.75511273 24.869363 430.08061323 24.87939698 422.40610576 C24.8905729 413.66857539 24.8960723 404.93104435 24.90109241 396.19350863 C24.911546 378.22054877 24.92988557 360.24760844 24.95141602 342.2746582 C13.40141602 342.2746582 1.85141602 342.2746582 -10.04858398 342.2746582 C-10.25483398 344.8115332 -10.46108398 347.3484082 -10.67358398 349.9621582 C-13.25399348 374.98726164 -22.99684236 398.784692 -42.47045898 415.36450195 C-60.41578611 428.66035796 -80.49255525 433.50864646 -102.54858398 433.3371582 C-103.65717773 433.33264648 -104.76577148 433.32813477 -105.90795898 433.32348633 C-108.62155798 433.31178978 -111.33504159 433.29539906 -114.04858398 433.2746582 C-114.21656494 433.8025293 -114.3845459 434.33040039 -114.55761719 434.87426758 C-122.70653267 459.95121139 -134.58447043 496.33781088 -158.81420898 510.14575195 C-165.73337457 513.64162408 -177.02393356 513.61045287 -184.42358398 511.3371582 C-193.71429937 506.96019896 -199.44261466 499.31940738 -202.90356445 489.96337891 C-216.38646609 449.64701656 -220.98156285 405.52775069 -223.90756226 363.30813599 C-224.00077146 361.96409593 -224.09661144 360.62023545 -224.19522095 359.27658081 C-225.27014868 344.39409252 -225.24873411 329.50188555 -225.23608398 314.5871582 C-225.23547974 313.27418762 -225.23487549 311.96121704 -225.23425293 310.60845947 C-225.21569615 291.41815309 -224.98830352 272.38102904 -223.04858398 253.2746582 C-222.92499512 251.9983252 -222.80140625 250.72199219 -222.67407227 249.40698242 C-218.12487216 203.19960994 -208.10092415 157.33654843 -188.04858398 115.2746582 C-187.72422363 114.57824219 -187.39986328 113.88182617 -187.06567383 113.16430664 C-176.54167752 90.59030731 -162.17319914 71.21827669 -145.04858398 53.2746582 C-144.44788086 52.62110352 -143.84717773 51.96754883 -143.22827148 51.29418945 C-137.49421128 45.22876396 -130.72666995 40.24443714 -124.04858398 35.2746582 C-123.47640137 34.84749512 -122.90421875 34.42033203 -122.31469727 33.98022461 C-101.92378246 19.00189391 -77.8892182 9.96537062 -53.36108398 4.4621582 C-52.49612305 4.26702637 -51.63116211 4.07189453 -50.73999023 3.87084961 C-33.91105826 0.34511368 -17.12448089 -0.02105888 0 0 Z M-124.75561523 63.1730957 C-126.7832866 65.0315066 -128.86384951 66.77693569 -130.98608398 68.5246582 C-178.24730483 109.99685401 -194.44542878 183.00698173 -201.29858398 242.3996582 C-201.38166809 243.11247955 -201.4647522 243.8253009 -201.550354 244.5597229 C-203.49249809 261.43890254 -204.20858435 278.26917644 -204.21655273 295.2512207 C-204.21978375 296.91677882 -204.22314903 298.58233669 -204.22663879 300.24789429 C-204.23256415 303.71173762 -204.2344856 307.17555627 -204.23388672 310.6394043 C-204.23380559 314.13555081 -204.24073909 317.63156594 -204.25439453 321.12768555 C-204.32622395 339.80779267 -204.30998482 358.33606966 -202.29983521 376.93383789 C-202.06801141 379.09365963 -201.86083962 381.25367741 -201.66748047 383.41723633 C-200.16096309 400.16177002 -197.96862197 416.72081139 -195.04858398 433.2746582 C-194.78223145 434.83748535 -194.78223145 434.83748535 -194.51049805 436.43188477 C-192.30217861 449.30784356 -189.54366568 461.98279006 -186.11108398 474.5871582 C-185.79945313 475.77994385 -185.48782227 476.97272949 -185.16674805 478.20166016 C-183.3179755 484.71241139 -181.98835786 488.7515955 -176.04858398 492.2746582 C-172.49340459 493.06469807 -170.41103559 493.01419352 -167.17749023 491.2590332 C-145.77521009 474.8951168 -137.44628571 438.40131146 -128.46893311 414.15762329 C-105.04987953 350.91701566 -105.04987953 350.91701566 -77.04858398 335.2746582 C-75.97737305 334.6662207 -74.90616211 334.0577832 -73.80249023 333.4309082 C-65.15319997 328.79700922 -56.70671976 325.98754744 -47.04858398 324.2746582 C-46.12730713 324.10095703 -45.20603027 323.92725586 -44.25683594 323.74829102 C-30.33140163 321.49742798 -16.17850105 321.81506961 -2.11108398 321.6496582 C11.77985352 321.4640332 11.77985352 321.4640332 25.95141602 321.2746582 C25.95141602 285.9646582 25.95141602 250.6546582 25.95141602 214.2746582 C19.02141602 211.3046582 12.09141602 208.3346582 4.95141602 205.2746582 C0.49189024 203.13917963 -3.94026856 200.98436675 -8.36108398 198.7746582 C-30.5166466 187.96548662 -57.23580923 175.87178287 -82.42358398 176.2121582 C-83.29756836 176.22118164 -84.17155273 176.23020508 -85.07202148 176.23950195 C-85.72428711 176.25110352 -86.37655273 176.26270508 -87.04858398 176.2746582 C-87.32831055 177.02489258 -87.60803711 177.77512695 -87.89624023 178.5480957 C-94.5394008 195.50844775 -94.5394008 195.50844775 -101.07983398 199.52075195 C-103.97763865 200.63042715 -105.97061405 200.71436819 -109.04858398 200.2746582 C-111.98732775 198.29420045 -113.63150055 196.76675951 -114.60327148 193.2902832 C-115.15668253 187.04780659 -112.55953416 183.39955843 -108.77514648 178.6340332 C-104.59253965 172.91843473 -104.13615492 167.15935022 -105.04858398 160.2746582 C-106.7449135 155.49655077 -108.96381918 151.47669488 -112.36108398 147.7121582 C-114.90439622 144.03848497 -114.81554453 140.60193034 -114.04858398 136.2746582 C-112.61108398 133.7121582 -112.61108398 133.7121582 -110.04858398 132.2746582 C-105.80133767 131.75333555 -102.1115931 131.92032183 -98.04858398 133.2746582 C-97.04077148 135.04418945 -97.04077148 135.04418945 -96.04858398 137.2746582 C-94.56257351 139.7329441 -93.04395047 142.16804672 -91.51342773 144.59887695 C-90.09391796 147.19184815 -89.47448891 149.43569766 -88.73608398 152.2746582 C-87.8992275 154.5949969 -87.8992275 154.5949969 -86.04858398 156.2746582 C-81.23198758 157.52550169 -76.43784218 157.75161514 -71.4855957 158.07348633 C-47.14903414 160.08243511 -23.94363925 170.39657537 -2.18139648 180.78051758 C3.51499203 183.49731135 9.23207206 186.1691262 14.95141602 188.8371582 C16.03165039 189.34996338 17.11188477 189.86276855 18.22485352 190.39111328 C28.10322165 195.00915707 38.29417387 198.56202319 49.28735352 195.6574707 C57.29487791 192.19061148 60.90653881 185.18938461 64.01391602 177.3996582 C67.04084728 169.31002649 68.46690694 160.96333432 69.99121094 152.48852539 C73.24019219 134.7361225 77.92436429 117.47915139 85.95141602 101.2746582 C86.4090332 100.28723633 86.86665039 99.29981445 87.33813477 98.2824707 C91.43945231 89.9858226 97.68342873 82.79175197 104.70532227 76.77075195 C106.49642081 74.62031075 106.69306988 72.57133419 107.20141602 69.8371582 C109.86112355 58.48541675 116.17289563 49.80165837 124.95141602 42.2746582 C127.85437407 40.82317918 129.72403381 40.90226795 132.95141602 41.2746582 C136.32641602 43.3371582 136.32641602 43.3371582 138.95141602 46.2746582 C139.71519388 50.47543644 139.35734332 52.52525395 137.32641602 56.2746582 C135.560177 58.50569696 133.76536196 60.64084436 131.88891602 62.7746582 C127.49814636 67.86572783 125.32127437 72.20408166 125.61547852 78.9934082 C126.5914828 85.6211582 130.41091443 89.83706764 134.76391602 94.7121582 C137.79335733 98.29467186 139.63748839 100.48826213 139.26391602 105.2746582 C138.62909171 107.84615667 138.00113583 109.20902804 136.38891602 111.3371582 C132.76246225 112.73194811 129.70466604 113.21638275 125.95141602 112.2746582 C120.01057684 108.60335309 115.84919609 102.95892081 111.95141602 97.2746582 C107.95568532 100.91028839 105.37787541 104.58491136 103.01391602 109.4621582 C102.67183105 110.16501953 102.32974609 110.86788086 101.97729492 111.59204102 C94.06260109 128.32343022 90.4236237 146.17925753 86.95141602 164.2746582 C86.77701996 165.13380829 86.6026239 165.99295837 86.42294312 166.87814331 C85.83141596 171.13904539 85.81987694 175.28883023 85.83789062 179.5847168 C85.83767159 180.96128448 85.83767159 180.96128448 85.83744812 182.36566162 C85.83814217 185.38483075 85.84591079 188.40393741 85.85375977 191.4230957 C85.85562575 193.52202318 85.8570488 195.62095109 85.85804749 197.71987915 C85.86185847 203.23375662 85.87167664 208.74760758 85.88275146 214.26147461 C85.8929961 219.89216758 85.89755164 225.52286484 85.90258789 231.15356445 C85.91330019 242.19394066 85.93035956 253.23429722 85.95141602 264.2746582 C87.24008528 263.32827994 88.52602031 262.37817776 89.81079102 261.42651367 C90.5271875 260.89782684 91.24358398 260.36914001 91.98168945 259.82443237 C104.49023317 249.98275266 110.20413201 230.85547002 115.82641602 216.5871582 C127.16313244 187.82375372 140.58713893 161.93018281 161.95141602 139.2746582 C162.57274414 138.60047852 163.19407227 137.92629883 163.83422852 137.23168945 C177.53481716 122.87186746 195.01544647 113.19062475 212.51391602 104.2746582 C233.7298776 93.44837625 257.96750474 80.22639204 265.95141602 56.2746582 C266.80557438 48.46829946 266.68285814 42.43382936 261.69360352 36.1340332 C249.87221668 23.51748582 226.8104911 20.72566804 210.2532692 19.90664864 C204.22569587 19.72132658 198.20031265 19.74395333 192.1706543 19.77294922 C189.88125274 19.76915407 187.59185351 19.76364429 185.30245972 19.75657654 C179.15348677 19.74275896 173.00479797 19.75369514 166.85584116 19.77028775 C160.37556212 19.78427673 153.89529729 19.77766245 147.41500854 19.77415466 C136.53663533 19.771463 125.65837565 19.7847465 114.7800293 19.80810547 C103.64782593 19.83200601 92.51576934 19.83911012 81.38354492 19.82861328 C67.88458485 19.81590715 54.38573646 19.81856522 40.88677597 19.83427238 C35.76541426 19.83998007 30.64410174 19.8399911 25.52273941 19.83520699 C19.47317628 19.83037763 13.42381207 19.8407812 7.37428665 19.86216164 C5.17515229 19.86765007 2.97599849 19.8682697 0.7768631 19.86320877 C-45.49404608 19.77020677 -90.1422266 31.1460811 -124.75561523 63.1730957 Z " fill="#010000" transform="translate(225.048583984375,-0.274658203125)"/>
<path d="M0 0 C0.06864145 35.07564684 0.12151624 70.1512801 0.15319599 105.22697995 C0.15694818 109.36640797 0.16083114 113.50583585 0.16479492 117.64526367 C0.16558185 118.4693618 0.16636878 119.29345992 0.16717956 120.14253072 C0.18023946 133.49255057 0.20389651 146.84253174 0.23145839 160.19252863 C0.25949636 173.88717064 0.27617285 187.58179236 0.28226548 201.2764619 C0.28638527 209.72927538 0.29940511 218.18197951 0.3237494 226.63475934 C0.33958674 232.42830359 0.34440491 238.22179116 0.34050413 244.01535549 C0.33857942 247.35980769 0.34319555 250.70391406 0.35761642 254.04835892 C0.37248141 257.67262679 0.36897512 261.29642189 0.36076355 264.92070007 C0.37387134 266.50970636 0.37387134 266.50970636 0.38724393 268.13081378 C0.33237577 277.05365246 0.33237577 277.05365246 -3 281 C-5.74227995 283.14935455 -7.54798392 283.93408099 -11 284.4375 C-14.72413693 283.8943967 -16.32854076 282.59513183 -19 280 C-20.18882841 277.62234318 -20.12427729 276.19038988 -20.12304783 273.53721428 C-20.12503888 272.59271538 -20.12702993 271.64821647 -20.12908131 270.67509639 C-20.12471205 269.10800086 -20.12471205 269.10800086 -20.12025452 267.50924683 C-20.12110894 266.40497884 -20.12196337 265.30071085 -20.12284368 264.1629802 C-20.12449961 260.43790163 -20.11897525 256.71286743 -20.11352539 252.98779297 C-20.11324352 250.32743223 -20.11335715 247.66707427 -20.1139679 245.00671387 C-20.11449302 239.26635142 -20.11134739 233.52600031 -20.10573006 227.78564072 C-20.09761354 219.4859778 -20.09499968 211.18632037 -20.09374207 202.88665392 C-20.09155179 189.42199143 -20.08489234 175.95733499 -20.07543945 162.49267578 C-20.06626472 149.41064484 -20.05918418 136.32861554 -20.05493164 123.24658203 C-20.05466892 122.44061867 -20.05440619 121.63465531 -20.05413551 120.80426882 C-20.0528305 116.76111086 -20.05156679 112.71795289 -20.05032361 108.67479491 C-20.03995174 75.11652556 -20.02233407 41.55826352 -20 8 C-18.96359375 7.67386719 -17.9271875 7.34773437 -16.859375 7.01171875 C-15.4894532 6.57071653 -14.11966867 6.12928777 -12.75 5.6875 C-12.06808594 5.47416016 -11.38617188 5.26082031 -10.68359375 5.04101562 C-7.59385032 4.03609907 -2.80958464 0 0 0 Z " fill="#F57E6A" transform="translate(291,208)"/>
<path d="M0 0 C2.8100346 1.79363911 4.50940468 3.01880935 6 6 C6.23240505 8.71426141 6.41908802 11.40633767 6.5625 14.125 C6.706875 16.72375 6.85125 19.3225 7 22 C13.27 22.66 19.54 23.32 26 24 C25.9175 21.958125 25.835 19.91625 25.75 17.8125 C25.58143765 13.64058174 25.56638015 11.65670113 27.890625 8.13671875 C30.79968348 5.18995025 31.57020435 5.03522915 35.8125 4.6875 C39.13227327 4.71767976 39.99044521 4.9939012 42.9375 6.875 C47.5946871 11.67331398 46.06251965 17.62299585 46 24 C52.6 23.34 59.2 22.68 66 22 C65.84261511 16.95869876 65.84261511 16.95869876 65.63964844 11.91918945 C65.57972899 8.09739161 65.76797272 6.36290217 67.890625 3.04296875 C71.13703548 -0.10123992 73.44207811 -0.33404929 77.9609375 -0.29296875 C81.13134567 0.16254967 82.8192402 1.75315657 85 4 C86.32229189 6.64458379 86.09677194 8.67761301 86.0625 11.625 C86.05347656 12.62789062 86.04445313 13.63078125 86.03515625 14.6640625 C86.02355469 15.43492187 86.01195312 16.20578125 86 17 C86.7321875 16.67773438 87.464375 16.35546875 88.21875 16.0234375 C92.20864075 14.55524736 95.80291721 14.36131349 100 15 C102.87029869 16.79393668 104.49131638 17.98263276 106 21 C106.11598958 25.29161452 105.87515212 28.88342661 103.1875 32.3125 C98.16412801 34.97193223 91.7759853 38 86 38 C86.05220703 39.42892578 86.05220703 39.42892578 86.10546875 40.88671875 C86.13253906 42.14097656 86.15960938 43.39523437 86.1875 44.6875 C86.23970703 46.54955078 86.23970703 46.54955078 86.29296875 48.44921875 C85.97972188 52.2457708 85.30757653 54.01467371 83 57 C79.33091443 59.44605705 76.26381231 59.83946402 72 59 C69.30894802 56.82425584 67.54467072 55.08934144 66 52 C65.93049459 50.45976004 65.91547643 48.91665012 65.9375 47.375 C65.94652344 46.55773437 65.95554687 45.74046875 65.96484375 44.8984375 C65.97644531 44.27195312 65.98804688 43.64546875 66 43 C65.09121094 43.10828125 65.09121094 43.10828125 64.1640625 43.21875 C58.08165405 43.8924937 52.11697862 44.11713363 46 44 C46.05220703 45.32064453 46.05220703 45.32064453 46.10546875 46.66796875 C46.13253906 47.82941406 46.15960938 48.99085938 46.1875 50.1875 C46.23970703 51.91033203 46.23970703 51.91033203 46.29296875 53.66796875 C45.97073045 57.33289234 45.21232393 59.09664715 43 62 C39.33091443 64.44605705 36.26381231 64.83946402 32 64 C29.30894802 61.82425584 27.54467072 60.08934144 26 57 C25.92907158 54.7927077 25.91584975 52.58332548 25.9375 50.375 C25.94652344 49.18648438 25.95554688 47.99796875 25.96484375 46.7734375 C25.97644531 45.85820312 25.98804688 44.94296875 26 44 C25.09121094 44.01740234 25.09121094 44.01740234 24.1640625 44.03515625 C18.04075052 44.10109961 12.07906669 43.72431433 6 43 C6.05220703 43.88751953 6.05220703 43.88751953 6.10546875 44.79296875 C6.27430004 49.72123437 6.25919114 53.01654416 3 57 C-0.66908557 59.44605705 -3.73618769 59.83946402 -8 59 C-10.69105198 56.82425584 -12.45532928 55.08934144 -14 52 C-14.23029956 49.62876754 -14.41119942 47.25258057 -14.5625 44.875 C-14.68818359 42.95300781 -14.68818359 42.95300781 -14.81640625 40.9921875 C-14.87699219 40.00476563 -14.93757813 39.01734375 -15 38 C-15.88042969 37.76925781 -16.76085937 37.53851563 -17.66796875 37.30078125 C-29.28783973 34.0379318 -29.28783973 34.0379318 -33 29 C-34.42662219 26.14675563 -34.31033868 24.16545451 -34 21 C-32.20006226 18.30009338 -30.916227 16.4581135 -28 15 C-22.7627306 14.73813653 -18.93784652 15.02486139 -14 17 C-14.04640625 16.26394531 -14.0928125 15.52789062 -14.140625 14.76953125 C-14.43799253 6.72998756 -14.43799253 6.72998756 -12.125 2.875 C-8.40305861 -0.40906593 -4.83061216 -0.69405347 0 0 Z " fill="#020000" transform="translate(99,234)"/>
<path d="M0 0 C0.39788044 17.32990366 -5.92280765 34.07179822 -16 48 C-16.47050781 48.65484375 -16.94101563 49.3096875 -17.42578125 49.984375 C-24.24114185 58.66196089 -33.840272 63.29419757 -44 67 C-45.44632813 67.53173828 -45.44632813 67.53173828 -46.921875 68.07421875 C-53.4066844 70.02459924 -59.73410954 70.13272085 -66.4375 70.0625 C-67.26443359 70.05798828 -68.09136719 70.05347656 -68.94335938 70.04882812 C-70.96227146 70.03715811 -72.98114574 70.01922718 -75 70 C-74.38821064 64.01248771 -72.10261147 58.81619241 -69.8125 53.3125 C-69.40394775 52.32733398 -68.99539551 51.34216797 -68.57446289 50.32714844 C-59.80161039 29.44385122 -47.32102448 12.96422187 -26 4 C-17.45797211 0.81242225 -9.10176104 -0.68121288 0 0 Z " fill="#FADC3C" transform="translate(194,342)"/>
</svg>
