<?xml version="1.0" encoding="UTF-8"?>
<svg version="1.1" xmlns="http://www.w3.org/2000/svg" width="512" height="512">
<path d="M0 0 C3.07416865 2.05402042 6.05885255 4.19759835 9 6.4375 C9.53367188 5.99019531 10.06734375 5.54289062 10.6171875 5.08203125 C24.60709332 -6.26963974 38.34334795 -9.02474862 56 -7.5625 C68.87751681 -5.11493741 80.83718947 2.57826474 88.625 13.0625 C94.70136748 22.10862366 98.1725376 31.35627724 98.0625 42.25 C98.05347656 43.41144531 98.04445313 44.57289062 98.03515625 45.76953125 C98.01775391 47.09017578 98.01775391 47.09017578 98 48.4375 C98.88300781 48.70691406 99.76601563 48.97632813 100.67578125 49.25390625 C117.18114197 55.13066806 128.41571681 69.66135985 135.75 84.9375 C142.40603774 100.26390269 143.11959184 116.0106632 141 132.4375 C141.87140625 132.7778125 142.7428125 133.118125 143.640625 133.46875 C165.65058332 142.42518326 184.30905306 158.28133504 194 180.4375 C194 181.4275 194 182.4175 194 183.4375 C194.55429687 183.01597656 195.10859375 182.59445313 195.6796875 182.16015625 C196.40414063 181.61230469 197.12859375 181.06445312 197.875 180.5 C198.59429687 179.95472656 199.31359375 179.40945312 200.0546875 178.84765625 C204.02424848 175.97012309 207.572801 176.27611093 212.31762695 176.26049805 C213.17795532 176.25392685 214.03828369 176.24735565 214.92468262 176.24058533 C217.77921633 176.22083242 220.63369738 176.20918549 223.48828125 176.19921875 C224.94901597 176.19310546 224.94901597 176.19310546 226.43926048 176.18686867 C231.59321252 176.16599972 236.74713787 176.15170141 241.90112305 176.14233398 C247.22776712 176.131266 252.55399384 176.0968639 257.8804903 176.05716228 C261.97343224 176.0310319 266.0662742 176.02264534 270.15929222 176.01905251 C272.12290453 176.01417752 274.08651211 176.00253768 276.05004311 175.98401451 C278.79842941 175.95969847 281.54572878 175.9605742 284.29418945 175.9675293 C285.51083534 175.94831421 285.51083534 175.94831421 286.75205994 175.92871094 C290.55317296 175.96377036 292.76213462 176.28674672 296.00480652 178.34187317 C298 180.4375 298 180.4375 298.62890625 182.4375 C298.60699219 183.0975 298.58507812 183.7575 298.5625 184.4375 C298.56378906 185.0975 298.56507813 185.7575 298.56640625 186.4375 C297.71713461 189.43630744 296.4724461 190.53553271 294 192.4375 C291.15713099 192.80461706 288.70738733 192.93153705 285.87011719 192.87231445 C285.05332993 192.87140808 284.23654266 192.87050171 283.39500427 192.86956787 C281.62327858 192.86550635 279.85155593 192.85252197 278.07994843 192.83165932 C275.27107934 192.80049505 272.46338395 192.79666752 269.65435791 192.80058289 C261.66920361 192.80709878 253.68458207 192.76679442 245.69970703 192.7019043 C240.81245081 192.66409158 235.92609341 192.66038277 231.03873444 192.67693138 C229.18084678 192.67616942 227.3229138 192.66217865 225.46523285 192.63445473 C213.93915776 192.07070538 213.93915776 192.07070538 203.79785156 196.67260742 C201.64418876 198.88633139 201.04341796 199.8964969 200.79486084 202.99360657 C200.97244949 205.51740019 200.97244949 205.51740019 201.484375 208.3046875 C204.49741639 226.61119656 200.21367216 248.94328986 190 264.4375 C188 266.4375 188 266.4375 184.3125 266.5625 C180.48690728 266.96888164 178.62829073 268.20348372 175.9375 270.9375 C174.00646084 273.34805895 173.0120146 274.6445367 172.96484375 277.7578125 C173.3241954 280.05057682 173.3241954 280.05057682 174.0234375 282.1640625 C173.99177972 285.23486684 172.5934413 286.72605931 170.57763672 288.93847656 C167.90169759 291.48107425 164.97043141 293.50261549 161.875 295.5 C161.21918945 295.92974121 160.56337891 296.35948242 159.88769531 296.80224609 C146.44197952 305.4375 146.44197952 305.4375 140 305.4375 C140.144375 306.05753906 140.28875 306.67757813 140.4375 307.31640625 C144.66305463 327.47582312 141.24073315 347.42063652 130.125 364.75 C126.84856252 369.4902451 123.30820292 373.61396991 119 377.4375 C120.75599929 381.27222277 123.08829367 384.70020549 125.4375 388.1875 C125.87344482 388.83783203 126.30938965 389.48816406 126.75854492 390.15820312 C131.77698582 397.62568597 136.83814922 405.0682496 142 412.4375 C142.31491268 412.99835171 142.62982536 413.55920341 142.95428085 414.13705063 C144.16795221 416.13255633 145.34314101 417.78692721 147 419.4375 C149.99378739 420.14524331 151.9231088 420.36030741 154.90795898 420.27636719 C156.07965637 420.28530251 156.07965637 420.28530251 157.27502441 420.29441833 C159.84979973 420.30650188 162.42157661 420.27006462 164.99609375 420.234375 C166.79062056 420.23614315 168.58514704 420.24142388 170.37965393 420.25006104 C175.10087448 420.26531537 179.82102543 420.24147545 184.54211426 420.20684814 C192.09428324 420.15638148 199.64640378 420.15803401 207.1986866 420.17325592 C209.83234362 420.17189502 212.46521286 420.14956525 215.09873962 420.12469482 C216.72004072 420.12124937 218.3413432 420.11839039 219.96264648 420.11621094 C221.0546209 420.09756233 221.0546209 420.09756233 222.1686554 420.07853699 C226.84253455 420.09512179 230.03735117 420.95339015 234 423.4375 C235.54586876 426.52923752 235.29359521 429.03179552 235 432.4375 C233.53172302 434.63072205 233.53172302 434.63072205 231 436.4375 C227.94034399 436.8371636 225.23989506 436.99477566 222.17993164 436.97094727 C221.29005051 436.97956284 220.40016937 436.98817841 219.48332214 436.99705505 C216.54197088 437.01975609 213.60156922 437.0129683 210.66015625 437.00390625 C208.61518571 437.00914023 206.5702176 437.01541588 204.5252533 437.02268982 C200.23880659 437.03310186 195.95269168 437.02852129 191.66625977 437.01391602 C186.1735653 436.9967326 180.6819173 437.02021412 175.18933964 437.05540562 C170.96594817 437.07736885 166.74280748 437.07594062 162.51937675 437.0676403 C160.49437755 437.06682009 158.46936005 437.07369682 156.44441414 437.08841133 C153.61211013 437.10583595 150.78169112 437.09133197 147.94946289 437.06860352 C147.11345551 437.08029572 146.27744812 437.09198792 145.41610718 437.10403442 C141.1502819 437.03440085 139.50830831 436.84633047 136.07273865 434.08311462 C133.78652583 431.16502455 131.67986507 428.1846188 129.6875 425.0625 C124.44356566 416.99953609 118.92553855 409.13785112 113.3581543 401.29541016 C112.69340088 400.34972168 112.02864746 399.4040332 111.34375 398.4296875 C110.74755859 397.58776855 110.15136719 396.74584961 109.53710938 395.87841797 C108.01482196 393.46103716 106.96932357 391.11869685 106 388.4375 C105.05640625 388.83582031 104.1128125 389.23414063 103.140625 389.64453125 C83.09526825 397.98975191 61.8848936 401.51966773 41 393.4375 C29.22401511 388.48908082 18.16887501 381.44572434 10 371.4375 C10 370.7775 10 370.1175 10 369.4375 C7.38109585 371.40167812 5.17354535 373.21384389 3.16015625 375.80859375 C-6.57707876 387.65879116 -23.98850791 395.725395 -39 397.4375 C-61.27441377 398.96372553 -81.52938637 395.24954199 -99 380.4375 C-101.77286669 383.08093373 -104.01595938 385.72186973 -106.12890625 388.9140625 C-106.96905273 390.16703125 -106.96905273 390.16703125 -107.82617188 391.4453125 C-108.98851695 393.1973287 -110.14996829 394.94993814 -111.31054688 396.703125 C-111.86935547 397.53585937 -112.42816406 398.36859375 -113.00390625 399.2265625 C-113.75909546 400.36665771 -113.75909546 400.36665771 -114.52954102 401.52978516 C-116 403.4375 -116 403.4375 -119 405.4375 C-121.87267572 405.64269614 -124.64920215 405.7311925 -127.52294922 405.72802734 C-128.39317719 405.73474457 -129.26340515 405.74146179 -130.16000366 405.74838257 C-133.04162276 405.76740651 -135.92300948 405.77128902 -138.8046875 405.7734375 C-140.80624488 405.77986252 -142.80780131 405.78659066 -144.80935669 405.79360962 C-149.00752948 405.80559349 -153.20561991 405.80928932 -157.40380859 405.80810547 C-162.78314052 405.80790225 -168.1619443 405.83520232 -173.54115105 405.86964989 C-177.67614161 405.89188884 -181.81100449 405.89594393 -185.94604874 405.89488602 C-187.92918849 405.89724659 -189.91233151 405.90609569 -191.89541245 405.92155075 C-194.67007149 405.94114927 -197.44358417 405.93539685 -200.21826172 405.92333984 C-201.03713867 405.93457886 -201.85601562 405.94581787 -202.69970703 405.95739746 C-206.6714842 405.91354561 -208.56695454 405.71166362 -212.009552 403.53213501 C-214 401.4375 -214 401.4375 -214.62890625 399.4375 C-214.60699219 398.7775 -214.58507812 398.1175 -214.5625 397.4375 C-214.56378906 396.7775 -214.56507813 396.1175 -214.56640625 395.4375 C-213.71794314 392.44154749 -212.46982204 391.33544967 -210 389.4375 C-207.18992464 389.11142767 -204.79092926 389.02374224 -201.99365234 389.12963867 C-201.18983124 389.14339539 -200.38601013 389.1571521 -199.55783081 389.17132568 C-197.81381857 389.2021482 -196.06993844 389.24132155 -194.32627487 389.28786278 C-191.55890292 389.35613571 -188.79315339 389.39016463 -186.02505493 389.41316223 C-178.15636268 389.47972456 -170.28970223 389.56802741 -162.42333984 389.77661133 C-157.60687236 389.90183259 -152.79433505 389.95294079 -147.97630692 389.95708656 C-146.14759438 389.97254898 -144.31888944 390.01521231 -142.49149704 390.08638573 C-132.81142753 390.73036462 -132.81142753 390.73036462 -124.27490997 386.98736954 C-121.19828474 383.44004793 -118.99924453 379.51486603 -116.96025467 375.30408669 C-116.00515149 373.4475137 -114.91994686 371.80975608 -113.71127319 370.11003113 C-113.14655304 369.22809586 -112.58183289 368.34616058 -112 367.4375 C-112.45639547 364.81064771 -112.45639547 364.81064771 -114 362.4375 C-114.45117188 361.58414062 -114.90234375 360.73078125 -115.3671875 359.8515625 C-115.86476563 358.93117188 -116.36234375 358.01078125 -116.875 357.0625 C-124.6881552 341.24469069 -126.64849537 322.79009992 -123 305.4375 C-124.216875 305.086875 -125.43375 304.73625 -126.6875 304.375 C-137.90576263 300.58861622 -147.24236296 294.29112289 -156 286.4375 C-156.63421875 285.88578125 -157.2684375 285.3340625 -157.921875 284.765625 C-172.6867103 271.08444733 -182.72555575 249.41332095 -184.22265625 229.47167969 C-185.18342841 203.17468296 -180.48795298 179.35772822 -162.4375 159.0625 C-160.96584979 157.51365663 -159.48736437 155.97125923 -158 154.4375 C-157.20916016 153.53644531 -157.20916016 153.53644531 -156.40234375 152.6171875 C-147.83350931 143.19366113 -135.87850221 136.64032201 -124 132.4375 C-124.02618408 131.82229492 -124.05236816 131.20708984 -124.0793457 130.57324219 C-124.18345921 127.77825592 -124.24836749 124.98367742 -124.3125 122.1875 C-124.35439453 121.21941406 -124.39628906 120.25132812 -124.43945312 119.25390625 C-124.5630954 112.08265452 -124.5630954 112.08265452 -121.66796875 108.765625 C-119 107.4375 -119 107.4375 -116 107.4375 C-115.83081732 105.85443353 -115.66476064 104.27103281 -115.5 102.6875 C-115.4071875 101.80578125 -115.314375 100.9240625 -115.21875 100.015625 C-114.7107373 95.31083487 -114.7107373 95.31083487 -116.5625 91.125 C-118.53720389 87.43316229 -117.90986246 85.48511243 -117 81.4375 C-115.22265625 78.26953125 -115.22265625 78.26953125 -113.0625 75.25 C-110.78934876 72.03623446 -108.70780044 68.98046388 -107 65.4375 C-111.99193505 57.35216926 -118.61973514 48.53291808 -128.15065765 45.82688141 C-140.49406057 43.4811091 -153.52740483 44.44820461 -166.01068115 44.90246582 C-172.80695362 45.12894682 -179.60695454 45.20243772 -186.40614319 45.29246521 C-190.01539707 45.34052168 -193.61966207 45.43088059 -197.22703552 45.55580139 C-198.86351064 45.59800722 -200.49999011 45.64004434 -202.13647461 45.68188477 C-202.87770569 45.71676498 -203.61893677 45.7516452 -204.38262939 45.7875824 C-207.87794375 45.85671613 -209.6453912 45.70961474 -212.46046448 43.54942322 C-215.03799284 40.01358926 -214.47696083 37.73014743 -214 33.4375 C-212.18836733 30.76318511 -211.12238923 30.47829641 -208 29.4375 C-205.2479297 29.33082603 -202.52081279 29.2802458 -199.76831055 29.27636719 C-198.5092691 29.26891983 -198.5092691 29.26891983 -197.22479248 29.26132202 C-194.44542625 29.24670621 -191.66611711 29.23989918 -188.88671875 29.234375 C-186.95481871 29.22862284 -185.02291869 29.22286511 -183.09101868 29.21710205 C-179.03829685 29.20659356 -174.98559486 29.20074997 -170.93286133 29.19726562 C-165.74430123 29.19178282 -160.55600381 29.16775868 -155.36752605 29.13929367 C-151.37577046 29.12065304 -147.38407793 29.11546092 -143.39228249 29.11392975 C-141.47975034 29.11090565 -139.56721924 29.10288532 -137.65472984 29.08974457 C-134.97624209 29.07265517 -132.29839348 29.07457141 -129.61987305 29.08105469 C-128.83264359 29.0718399 -128.04541412 29.06262512 -127.23432922 29.0531311 C-121.77417341 29.09445007 -117.47970243 30.07105321 -113.375 33.98828125 C-112.694375 34.86033203 -112.694375 34.86033203 -112 35.75 C-108.42770759 40.06753256 -104.53573627 43.99359568 -100.5625 47.9375 C-99.92248047 48.57341064 -99.28246094 49.20932129 -98.62304688 49.86450195 C-97.08401986 51.39084239 -95.54229258 52.91445933 -94 54.4375 C-93.22914062 54.004375 -92.45828125 53.57125 -91.6640625 53.125 C-90.66117187 52.568125 -89.65828125 52.01125 -88.625 51.4375 C-87.62726563 50.880625 -86.62953125 50.32375 -85.6015625 49.75 C-83 48.4375 -83 48.4375 -81 48.4375 C-81.03480469 47.86644531 -81.06960937 47.29539063 -81.10546875 46.70703125 C-81.58674018 32.2918059 -77.07367145 20.10904447 -67.75 9.1875 C-49.84074616 -9.71171259 -22.26778478 -13.79316853 0 0 Z " fill="#DB626D" transform="translate(214,41.5625)"/>
<path d="M0 0 C3.07416865 2.05402042 6.05885255 4.19759835 9 6.4375 C9.53367188 5.99019531 10.06734375 5.54289062 10.6171875 5.08203125 C24.60709332 -6.26963974 38.34334795 -9.02474862 56 -7.5625 C68.87751681 -5.11493741 80.83718947 2.57826474 88.625 13.0625 C94.70136748 22.10862366 98.1725376 31.35627724 98.0625 42.25 C98.05347656 43.41144531 98.04445313 44.57289062 98.03515625 45.76953125 C98.01775391 47.09017578 98.01775391 47.09017578 98 48.4375 C98.88300781 48.70691406 99.76601563 48.97632813 100.67578125 49.25390625 C117.18114197 55.13066806 128.41571681 69.66135985 135.75 84.9375 C142.40603774 100.26390269 143.11959184 116.0106632 141 132.4375 C141.87140625 132.7778125 142.7428125 133.118125 143.640625 133.46875 C165.65058332 142.42518326 184.30905306 158.28133504 194 180.4375 C194 181.4275 194 182.4175 194 183.4375 C194.55429687 183.01597656 195.10859375 182.59445313 195.6796875 182.16015625 C196.40414063 181.61230469 197.12859375 181.06445312 197.875 180.5 C198.59429687 179.95472656 199.31359375 179.40945312 200.0546875 178.84765625 C204.02424848 175.97012309 207.572801 176.27611093 212.31762695 176.26049805 C213.17795532 176.25392685 214.03828369 176.24735565 214.92468262 176.24058533 C217.77921633 176.22083242 220.63369738 176.20918549 223.48828125 176.19921875 C224.94901597 176.19310546 224.94901597 176.19310546 226.43926048 176.18686867 C231.59321252 176.16599972 236.74713787 176.15170141 241.90112305 176.14233398 C247.22776712 176.131266 252.55399384 176.0968639 257.8804903 176.05716228 C261.97343224 176.0310319 266.0662742 176.02264534 270.15929222 176.01905251 C272.12290453 176.01417752 274.08651211 176.00253768 276.05004311 175.98401451 C278.79842941 175.95969847 281.54572878 175.9605742 284.29418945 175.9675293 C285.51083534 175.94831421 285.51083534 175.94831421 286.75205994 175.92871094 C290.55317296 175.96377036 292.76213462 176.28674672 296.00480652 178.34187317 C298 180.4375 298 180.4375 298.62890625 182.4375 C298.60699219 183.0975 298.58507812 183.7575 298.5625 184.4375 C298.56378906 185.0975 298.56507813 185.7575 298.56640625 186.4375 C297.71713461 189.43630744 296.4724461 190.53553271 294 192.4375 C291.15713099 192.80461706 288.70738733 192.93153705 285.87011719 192.87231445 C285.05332993 192.87140808 284.23654266 192.87050171 283.39500427 192.86956787 C281.62327858 192.86550635 279.85155593 192.85252197 278.07994843 192.83165932 C275.27107934 192.80049505 272.46338395 192.79666752 269.65435791 192.80058289 C261.66920361 192.80709878 253.68458207 192.76679442 245.69970703 192.7019043 C240.81245081 192.66409158 235.92609341 192.66038277 231.03873444 192.67693138 C229.18084678 192.67616942 227.3229138 192.66217865 225.46523285 192.63445473 C213.93915776 192.07070538 213.93915776 192.07070538 203.79785156 196.67260742 C201.64418876 198.88633139 201.04341796 199.8964969 200.79486084 202.99360657 C200.97244949 205.51740019 200.97244949 205.51740019 201.484375 208.3046875 C204.49741639 226.61119656 200.21367216 248.94328986 190 264.4375 C188 266.4375 188 266.4375 184.125 266.875 C180.81523525 266.77854055 180.14708585 266.55588617 177.4375 264.375 C175.55359428 260.52527961 176.1373659 258.6025414 177 254.4375 C177.91018375 252.179289 178.89280677 249.94921973 179.9375 247.75 C185.02152492 236.43059462 185.29972612 225.62636223 185 213.4375 C184.26136719 214.12714844 183.52273438 214.81679688 182.76171875 215.52734375 C176.84777888 221.01689458 170.84080021 226.29823095 164.55078125 231.359375 C161.4759928 233.86440939 158.50885951 236.47528107 155.55859375 239.125 C153.33203079 241.00000039 152.05491488 241.43033719 149.125 241.8125 C146 241.4375 146 241.4375 143.5625 239.375 C141.4913724 235.48128011 141.9165988 233.67591054 143 229.4375 C144.77375157 227.33154078 146.29191563 225.78510006 148.375 224.0625 C148.91447266 223.59263672 149.45394531 223.12277344 150.00976562 222.63867188 C154.31636496 218.9163597 158.75119221 215.3431551 163.1875 211.77734375 C166.92353744 208.66916816 170.48435676 205.38950465 174.02929688 202.06640625 C176.27983796 199.96549409 178.42885331 198.15159779 181 196.4375 C179.73319911 182.573068 168.6729617 169.07958589 158.4375 160.25 C142.11080855 147.96082112 122.29362173 141.92447207 101.95263672 144.71875 C87.4588428 147.18637537 72.88342668 153.9436973 62.21875 164.140625 C59.1142688 167.05448016 57.63130884 168.3304985 53.3125 169.0625 C50 168.4375 50 168.4375 47.5625 166.8125 C45.45896742 163.61513048 45.26054775 162.20870647 46 158.4375 C53.27652228 145.71887282 71.62514107 136.88115492 85.1875 132.625 C86.78823495 132.21550966 88.39265012 131.82020235 90 131.4375 C90.95648438 131.16164062 91.91296875 130.88578125 92.8984375 130.6015625 C103.29384256 127.80378682 114.42779524 127.16356458 125 129.4375 C126.1057282 110.4148887 126.1057282 110.4148887 121 92.4375 C120.5875 91.52613281 120.175 90.61476563 119.75 89.67578125 C112.1947212 74.28619346 99.87420163 65.00233884 84 59.4375 C78.46821458 58.14601911 73.03112258 58.17692279 67.375 58.125 C66.34503906 58.09599609 65.31507813 58.06699219 64.25390625 58.03710938 C57.60469054 57.98274472 52.44230831 58.9748278 46.31298828 61.57958984 C43.18406129 62.74013971 41.10879013 62.6032963 38 61.4375 C36.125 60.375 36.125 60.375 35 58.4375 C34.48159307 54.98865387 34.06703017 51.7833171 36.12109375 48.8203125 C38.72833643 46.90146862 41.33444281 46.20713851 44.4375 45.3125 C45.57058594 44.97992188 46.70367187 44.64734375 47.87109375 44.3046875 C49.41990234 43.87542969 49.41990234 43.87542969 51 43.4375 C51.60585938 43.25735352 52.21171875 43.07720703 52.8359375 42.89160156 C55.51451913 42.32953457 58.01680498 42.30775232 60.75390625 42.3046875 C61.85541016 42.30339844 62.95691406 42.30210938 64.09179688 42.30078125 C65.80979492 42.30658203 65.80979492 42.30658203 67.5625 42.3125 C68.71169922 42.30863281 69.86089844 42.30476563 71.04492188 42.30078125 C72.69524414 42.30271484 72.69524414 42.30271484 74.37890625 42.3046875 C75.3851001 42.30581543 76.39129395 42.30694336 77.42797852 42.30810547 C80 42.4375 80 42.4375 83 43.4375 C81.38406185 35.67311426 79.34947693 29.09935707 75 22.4375 C74.1646875 21.1071875 74.1646875 21.1071875 73.3125 19.75 C65.845936 12.283436 56.04910743 8.38151987 45.625 8 C34.98277725 8.29768455 26.70357317 12.14026915 19 19.4375 C16.94660013 22.5175998 16.74687857 23.1768103 16.7253418 26.65844727 C16.71580978 27.50685684 16.70627777 28.35526642 16.69645691 29.22938538 C16.69736832 30.14497726 16.69827972 31.06056915 16.69921875 32.00390625 C16.69279106 33.42690285 16.69279106 33.42690285 16.68623352 34.87864685 C16.68048655 36.89019982 16.67999265 38.90177357 16.68432617 40.91333008 C16.68746306 43.96407555 16.66411227 47.01382923 16.63867188 50.06445312 C16.63639635 52.02343629 16.63569656 53.98242203 16.63671875 55.94140625 C16.62290413 57.29353966 16.62290413 57.29353966 16.60881042 58.67298889 C16.68816226 69.76242395 20.13096974 80.34319384 27.93359375 88.4453125 C39.1012963 97.91224567 53.28810983 100.26400286 67.4609375 100.6328125 C68.62536377 100.6647168 69.78979004 100.69662109 70.98950195 100.72949219 C73.34702845 100.78426219 75.70511027 100.81919358 78.06323242 100.83300781 C79.70449097 100.86539551 79.70449097 100.86539551 81.37890625 100.8984375 C82.3644751 100.90665527 83.35004395 100.91487305 84.36547852 100.92333984 C87.73764445 101.58146064 88.95469438 102.71548572 91 105.4375 C90.93906499 108.9107957 90.6880626 111.35108536 88.8125 114.3125 C79.02712443 120.38618139 58.27500149 117.26011143 47.5 114.9375 C36.06161707 112.20940957 25.91491719 107.02268428 17 99.4375 C16.99413376 100.08007751 16.98826752 100.72265503 16.98222351 101.38470459 C16.91832604 108.06828452 16.83391559 114.7513813 16.73754883 121.43457031 C16.70427931 123.92929721 16.67625377 126.42409975 16.65356445 128.91894531 C16.6200565 132.50358335 16.56774089 136.08752692 16.51171875 139.671875 C16.50532883 140.78866638 16.4989389 141.90545776 16.49235535 143.05609131 C16.46266411 144.61725677 16.46266411 144.61725677 16.43237305 146.20996094 C16.41571846 147.58229889 16.41571846 147.58229889 16.39872742 148.98236084 C15.92510992 151.89863101 15.00376459 153.29519487 13 155.4375 C10.29375396 156.13042993 7.74101787 155.92390192 5 155.4375 C2.82523599 153.89411909 2.18167363 152.80084727 1 150.4375 C0.9097165 148.80332405 0.88244342 147.16547163 0.88647461 145.52880859 C0.88655014 144.50790131 0.88662567 143.48699402 0.88670349 142.43515015 C0.89186478 141.32990997 0.89702606 140.2246698 0.90234375 139.0859375 C0.90446617 137.39218491 0.90446617 137.39218491 0.90663147 135.66421509 C0.91224256 132.04695012 0.92479697 128.42974636 0.9375 124.8125 C0.94251357 122.36458423 0.94707672 119.91666748 0.95117188 117.46875 C0.9622156 111.45831234 0.97896456 105.44791054 1 99.4375 C0.32163086 99.91743408 -0.35673828 100.39736816 -1.05566406 100.8918457 C-1.94995117 101.52179443 -2.84423828 102.15174316 -3.765625 102.80078125 C-4.65024414 103.42509033 -5.53486328 104.04939941 -6.44628906 104.69262695 C-14.02204524 109.86891084 -22.12719104 112.242356 -31 114.4375 C-31.72759521 114.61917725 -32.45519043 114.80085449 -33.20483398 114.98803711 C-40.24993574 116.58844999 -47.10784235 116.77047941 -54.3125 116.75 C-56.04209961 116.77416992 -56.04209961 116.77416992 -57.80664062 116.79882812 C-58.91845703 116.79947266 -60.03027344 116.80011719 -61.17578125 116.80078125 C-62.17520752 116.80376221 -63.17463379 116.80674316 -64.2043457 116.80981445 C-67.46890527 116.37505301 -69.35305648 115.36663829 -72 113.4375 C-73.52491998 110.38766004 -73.23562548 107.7951631 -73 104.4375 C-71.82299805 102.74023438 -71.82299805 102.74023438 -70 101.4375 C-67.52661133 101.05273438 -67.52661133 101.05273438 -64.58203125 101.03125 C-63.50002441 101.0115918 -62.41801758 100.99193359 -61.30322266 100.97167969 C-60.15128418 100.96040039 -58.9993457 100.94912109 -57.8125 100.9375 C-39.8610519 100.48951377 -21.76472941 99.12697903 -8.1328125 86.04296875 C1.01537419 74.86743666 0.38440225 60.88727758 0.56982422 47.27368164 C0.60652083 45.17953906 0.661128 43.08563157 0.73388672 40.99243164 C1.56474845 29.22161701 1.56474845 29.22161701 -1.86108398 18.32250977 C-10.28908142 10.59618763 -21.51103842 8.04826355 -32.61328125 8.16015625 C-41.69272021 8.90368585 -49.60363041 13.62388237 -55.6875 20.28515625 C-61.19191784 27.20696168 -64.28123519 33.5136911 -64 42.4375 C-62.88141602 42.42178955 -62.88141602 42.42178955 -61.74023438 42.40576172 C-58.32685787 42.36391555 -54.91353558 42.33808324 -51.5 42.3125 C-49.74042969 42.28736328 -49.74042969 42.28736328 -47.9453125 42.26171875 C-39.43901583 42.21393057 -32.62753301 43.22178115 -24.6875 46.375 C-23.45580078 46.85259766 -23.45580078 46.85259766 -22.19921875 47.33984375 C-19.93400362 48.47043958 -18.56998551 49.46011318 -17 51.4375 C-16.47020122 54.9947204 -16.56795768 56.75343299 -18.5 59.8125 C-21.99055426 62.08136027 -25.01009156 62.05951283 -29 61.4375 C-30.36669416 60.96905299 -31.72223536 60.46712265 -33.06640625 59.9375 C-38.47502807 58.08173633 -43.57069967 57.94150887 -49.25 58 C-50.26126953 58.00612305 -51.27253906 58.01224609 -52.31445312 58.01855469 C-63.10875303 58.24358018 -71.7950784 60.70999323 -81 66.4375 C-81.66 66.4375 -82.32 66.4375 -83 66.4375 C-78.99966329 71.11874509 -74.91636084 75.62105168 -70.48046875 79.89453125 C-69 81.4375 -69 81.4375 -67 84.4375 C-67.18010028 87.79937193 -67.41887954 90.43668142 -69.125 93.375 C-72.24571558 95.14340549 -74.4874034 94.91378428 -78 94.4375 C-82.54302383 91.40881744 -85.81805417 87.49271164 -89.2890625 83.3046875 C-91.04481454 81.38859281 -92.8782175 79.92923355 -95 78.4375 C-95.45890625 79.10136719 -95.9178125 79.76523438 -96.390625 80.44921875 C-97.65345738 82.26653005 -98.92731985 84.07621612 -100.2109375 85.87890625 C-101.50263085 87.72619696 -102.7152765 89.62962751 -103.875 91.5625 C-106.80979792 94.15202758 -109.10399249 94.15140408 -112.93359375 93.91796875 C-115 93.4375 -115 93.4375 -117.125 91.375 C-118.24618003 87.61103847 -117.82929777 85.27249649 -117 81.4375 C-115.22265625 78.26953125 -115.22265625 78.26953125 -113.0625 75.25 C-110.78934876 72.03623446 -108.70780044 68.98046388 -107 65.4375 C-111.99193505 57.35216926 -118.61973514 48.53291808 -128.15065765 45.82688141 C-140.49406057 43.4811091 -153.52740483 44.44820461 -166.01068115 44.90246582 C-172.80695362 45.12894682 -179.60695454 45.20243772 -186.40614319 45.29246521 C-190.01539707 45.34052168 -193.61966207 45.43088059 -197.22703552 45.55580139 C-198.86351064 45.59800722 -200.49999011 45.64004434 -202.13647461 45.68188477 C-202.87770569 45.71676498 -203.61893677 45.7516452 -204.38262939 45.7875824 C-207.87794375 45.85671613 -209.6453912 45.70961474 -212.46046448 43.54942322 C-215.03799284 40.01358926 -214.47696083 37.73014743 -214 33.4375 C-212.18836733 30.76318511 -211.12238923 30.47829641 -208 29.4375 C-205.2479297 29.33082603 -202.52081279 29.2802458 -199.76831055 29.27636719 C-198.5092691 29.26891983 -198.5092691 29.26891983 -197.22479248 29.26132202 C-194.44542625 29.24670621 -191.66611711 29.23989918 -188.88671875 29.234375 C-186.95481871 29.22862284 -185.02291869 29.22286511 -183.09101868 29.21710205 C-179.03829685 29.20659356 -174.98559486 29.20074997 -170.93286133 29.19726562 C-165.74430123 29.19178282 -160.55600381 29.16775868 -155.36752605 29.13929367 C-151.37577046 29.12065304 -147.38407793 29.11546092 -143.39228249 29.11392975 C-141.47975034 29.11090565 -139.56721924 29.10288532 -137.65472984 29.08974457 C-134.97624209 29.07265517 -132.29839348 29.07457141 -129.61987305 29.08105469 C-128.83264359 29.0718399 -128.04541412 29.06262512 -127.23432922 29.0531311 C-121.77417341 29.09445007 -117.47970243 30.07105321 -113.375 33.98828125 C-112.694375 34.86033203 -112.694375 34.86033203 -112 35.75 C-108.42770759 40.06753256 -104.53573627 43.99359568 -100.5625 47.9375 C-99.92248047 48.57341064 -99.28246094 49.20932129 -98.62304688 49.86450195 C-97.08401986 51.39084239 -95.54229258 52.91445933 -94 54.4375 C-93.22914062 54.004375 -92.45828125 53.57125 -91.6640625 53.125 C-90.66117187 52.568125 -89.65828125 52.01125 -88.625 51.4375 C-87.62726563 50.880625 -86.62953125 50.32375 -85.6015625 49.75 C-83 48.4375 -83 48.4375 -81 48.4375 C-81.03480469 47.86644531 -81.06960937 47.29539063 -81.10546875 46.70703125 C-81.58674018 32.2918059 -77.07367145 20.10904447 -67.75 9.1875 C-49.84074616 -9.71171259 -22.26778478 -13.79316853 0 0 Z " fill="#020001" transform="translate(214,41.5625)"/>
<path d="M0 0 C3.49277636 1.18903025 4.7223128 2.04641706 6.9375 5 C7.56252736 7.91013333 7.63333261 10.78064209 7.6875 13.75 C7.71714844 14.54277344 7.74679688 15.33554688 7.77734375 16.15234375 C7.84777787 18.10102094 7.89493482 20.05051495 7.9375 22 C8.9275 21.505 8.9275 21.505 9.9375 21 C33.38245994 18.94778865 57.60937487 25.43095272 76.25 40 C77.82117751 41.32309685 79.38446074 42.65565886 80.9375 44 C81.58332031 44.515625 82.22914063 45.03125 82.89453125 45.5625 C85.10472462 47.46730366 86.73257055 49.16267106 87.4375 52.04296875 C87.62737933 55.30058608 87.39128215 57.44149889 85.3125 60 C82.25228353 61.2885122 80.24608699 61.32963782 76.9375 61 C74.33203125 59.27734375 74.33203125 59.27734375 71.75 56.9375 C55.47719313 42.98313067 36.52804392 35.57252602 14.9375 37 C-5.3553146 39.26358206 -22.87849793 48.24240849 -36.0625 64 C-48.09168151 80.81544035 -54.68998092 100.53267542 -51.73730469 121.28564453 C-48.41816425 140.6634486 -39.73318775 159.6592421 -23.47265625 171.52490234 C-16.22943248 176.59728934 -8.48076153 181.19391282 -0.0625 184 C0.30875 182.69482422 0.30875 182.69482422 0.6875 181.36328125 C4.39857907 171.37815913 12.8370778 163.58946262 20.9375 157 C21.62199219 156.4328125 22.30648437 155.865625 23.01171875 155.28125 C26.04397551 153.26384591 28.40134833 153.55798104 31.9375 154 C34.375 155.625 34.375 155.625 35.9375 158 C36.54408888 161.56370967 36.33995062 163.31758374 34.5 166.4375 C32.28272288 168.65477712 30.14392269 170.34774076 27.625 172.1875 C16.66572619 180.50143185 9.94272224 194.58043581 7.9375 208 C6.93578588 218.76445175 8.16248387 227.81321984 11.9375 238 C12.36996196 239.43282728 12.79004615 240.86956972 13.1875 242.3125 C13.435 243.199375 13.6825 244.08625 13.9375 245 C17.57864508 241.63045548 20.30442599 237.85905037 23.125 233.8125 C27.84797297 227.08952703 27.84797297 227.08952703 28.9375 226 C36.02321429 225.54285714 36.02321429 225.54285714 38.9375 227 C40.60794183 230.34088366 40.66244871 233.41680928 39.9375 237 C37.94256696 240.71135032 35.4411327 243.97874179 32.875 247.3125 C31.54183387 249.07268598 30.21712845 250.83932302 28.90234375 252.61328125 C28.3105835 253.38454346 27.71882324 254.15580566 27.10913086 254.95043945 C26.72249268 255.62679443 26.33585449 256.30314941 25.9375 257 C27.27904892 261.02464676 29.87853521 262.27482517 33.3125 264.4375 C34.2550061 265.03691406 34.2550061 265.03691406 35.21655273 265.6484375 C48.25781299 273.70736495 62.7360359 275.99415688 77.77734375 273.31640625 C93.36248888 269.16610793 107.54269674 260.10570847 115.9375 246 C116.85203039 242.43891991 116.83667232 239.08029956 116.74462891 235.41894531 C116.7473732 234.40153763 116.75011749 233.38412994 116.75294495 232.33589172 C116.75419634 230.14244272 116.73937079 227.94893635 116.70998001 225.7556839 C116.66346148 222.28326118 116.65921648 218.81297478 116.66537476 215.340271 C116.66929307 209.22631008 116.63592375 203.11322291 116.590271 196.99945068 C116.5176939 187.20058619 116.47666109 177.40218352 116.48350143 167.60305023 C116.47664748 164.18302846 116.43837826 160.76431249 116.39810181 157.34454346 C116.39378497 155.25085682 116.3907357 153.15716706 116.38916016 151.06347656 C116.35972572 149.63890892 116.35972572 149.63890892 116.32969666 148.18556213 C116.3564803 143.6415493 116.47621795 141.62544133 119.24520874 137.87103271 C121.9375 136 121.9375 136 125.5625 136 C128.88586789 136.9847016 129.90420097 137.35553932 131.9375 140 C132.29991436 141.97824097 132.29991436 141.97824097 132.28239441 144.27294922 C132.28385971 145.58051933 132.28385971 145.58051933 132.28535461 146.914505 C132.26434944 148.34514534 132.26434944 148.34514534 132.24291992 149.8046875 C132.23893188 151.31502815 132.23893188 151.31502815 132.23486328 152.85588074 C132.22789973 155.04613039 132.2144577 157.23636669 132.195364 159.42654419 C132.16777249 162.8997053 132.1628272 166.37219625 132.16487122 169.84545898 C132.16840548 179.72191517 132.14557759 189.59792565 132.0715332 199.47412109 C132.02786559 205.51439582 132.02333314 211.55367023 132.04311562 217.59405518 C132.04301838 219.8904501 132.02823931 222.18689535 131.99815941 224.48309326 C131.39396488 240.48473744 131.39396488 240.48473744 138.81611633 254.02026367 C139.51617294 254.67357666 140.21622955 255.32688965 140.9375 256 C142.01834114 257.12510986 142.01834114 257.12510986 143.12101746 258.27294922 C153.54911153 268.89208747 168.82078653 274.202456 183.4375 274.375 C190.32836051 274.32355873 196.41647901 273.30887824 202.9375 271 C203.81792969 270.71382813 204.69835937 270.42765625 205.60546875 270.1328125 C207.72424975 269.44297682 209.83321563 268.73260271 211.9375 268 C210.98165068 266.47760423 210.02256795 264.9572389 209.0625 263.4375 C208.43472656 262.44234375 207.80695313 261.4471875 207.16015625 260.421875 C205.57865342 257.95254921 203.93125531 255.54032371 202.24609375 253.140625 C201.79153809 252.48521729 201.33698242 251.82980957 200.86865234 251.15454102 C199.9701567 249.86321397 199.06060837 248.57949361 198.13916016 247.30444336 C195.43819476 243.39531658 194.2631158 240.75509673 194.9375 236 C196.5 233.625 196.5 233.625 198.9375 232 C202.3125 231.3125 202.3125 231.3125 205.9375 232 C211.0304165 236.47224963 214.64019446 242.81116522 218.3125 248.4375 C219.13041016 249.67790039 219.13041016 249.67790039 219.96484375 250.94335938 C221.29337415 252.95946253 222.61747076 254.97832494 223.9375 257 C233.91543458 249.41542135 238.32173646 238.04687225 240.9375 226 C241.85230246 214.67411468 241.90713186 203.40371529 236.9375 193 C236.51339844 192.071875 236.08929688 191.14375 235.65234375 190.1875 C231.35071927 181.56028656 225.44654291 174.23798068 217.4375 168.8125 C214.40374886 166.66460419 213.99612237 166.16707375 212.6875 162.4375 C212.9375 159 212.9375 159 214.4375 156.0625 C216.9375 154 216.9375 154 220.0625 153.1875 C225.98191505 154.42866767 229.53873068 158.00047068 233.9375 162 C234.55753906 162.52722656 235.17757813 163.05445313 235.81640625 163.59765625 C241.80879894 169.03391041 245.75213308 176.15725727 249.9375 183 C259.39798099 180.05389277 267.89073619 175.87539353 275.1875 169.0625 C277.9375 167 277.9375 167 281.5 166.375 C284.9375 167 284.9375 167 287.9375 169.0625 C289.9375 172 289.9375 172 290.25 175.375 C286.67382872 185.25204449 274.04888784 190.87873325 265.20703125 195.39453125 C259.56338339 198 259.56338339 198 255.9375 198 C256.081875 198.62003906 256.22625 199.24007812 256.375 199.87890625 C260.60055463 220.03832312 257.17823315 239.98313652 246.0625 257.3125 C242.78606252 262.0527451 239.24570292 266.17646991 234.9375 270 C236.69349929 273.83472277 239.02579367 277.26270549 241.375 280.75 C241.81094482 281.40033203 242.24688965 282.05066406 242.69604492 282.72070312 C247.71448582 290.18818597 252.77564922 297.6307496 257.9375 305 C258.25241268 305.56085171 258.56732536 306.12170341 258.89178085 306.69955063 C260.10545221 308.69505633 261.28064101 310.34942721 262.9375 312 C265.93128739 312.70774331 267.8606088 312.92280741 270.84545898 312.83886719 C272.01715637 312.84780251 272.01715637 312.84780251 273.21252441 312.85691833 C275.78729973 312.86900188 278.35907661 312.83256462 280.93359375 312.796875 C282.72812056 312.79864315 284.52264704 312.80392388 286.31715393 312.81256104 C291.03837448 312.82781537 295.75852543 312.80397545 300.47961426 312.76934814 C308.03178324 312.71888148 315.58390378 312.72053401 323.1361866 312.73575592 C325.76984362 312.73439502 328.40271286 312.71206525 331.03623962 312.68719482 C332.65754072 312.68374937 334.2788432 312.68089039 335.90014648 312.67871094 C336.9921209 312.66006233 336.9921209 312.66006233 338.1061554 312.64103699 C342.78003455 312.65762179 345.97485117 313.51589015 349.9375 316 C351.48336876 319.09173752 351.23109521 321.59429552 350.9375 325 C349.46922302 327.19322205 349.46922302 327.19322205 346.9375 329 C343.87784399 329.3996636 341.17739506 329.55727566 338.11743164 329.53344727 C337.22755051 329.54206284 336.33766937 329.55067841 335.42082214 329.55955505 C332.47947088 329.58225609 329.53906922 329.5754683 326.59765625 329.56640625 C324.55268571 329.57164023 322.5077176 329.57791588 320.4627533 329.58518982 C316.17630659 329.59560186 311.89019168 329.59102129 307.60375977 329.57641602 C302.1110653 329.5592326 296.6194173 329.58271412 291.12683964 329.61790562 C286.90344817 329.63986885 282.68030748 329.63844062 278.45687675 329.6301403 C276.43187755 329.62932009 274.40686005 329.63619682 272.38191414 329.65091133 C269.54961013 329.66833595 266.71919112 329.65383197 263.88696289 329.63110352 C263.05095551 329.64279572 262.21494812 329.65448792 261.35360718 329.66653442 C257.0877819 329.59690085 255.44580831 329.40883047 252.01023865 326.64561462 C249.72402583 323.72752455 247.61736507 320.7471188 245.625 317.625 C240.38106566 309.56203609 234.86303855 301.70035112 229.2956543 293.85791016 C228.63090088 292.91222168 227.96614746 291.9665332 227.28125 290.9921875 C226.68505859 290.15026855 226.08886719 289.30834961 225.47460938 288.44091797 C223.95232196 286.02353716 222.90682357 283.68119685 221.9375 281 C220.99390625 281.39832031 220.0503125 281.79664063 219.078125 282.20703125 C199.03276825 290.55225191 177.8223936 294.08216773 156.9375 286 C145.16151511 281.05158082 134.10637501 274.00822434 125.9375 264 C125.9375 263.34 125.9375 262.68 125.9375 262 C123.31859585 263.96417812 121.11104535 265.77634389 119.09765625 268.37109375 C109.36042124 280.22129116 91.94899209 288.287895 76.9375 290 C54.66308623 291.52622553 34.40811363 287.81204199 16.9375 273 C14.16463331 275.64343373 11.92154062 278.28436973 9.80859375 281.4765625 C8.96844727 282.72953125 8.96844727 282.72953125 8.11132812 284.0078125 C6.94898305 285.7598287 5.78753171 287.51243814 4.62695312 289.265625 C4.06814453 290.09835937 3.50933594 290.93109375 2.93359375 291.7890625 C2.17840454 292.92915771 2.17840454 292.92915771 1.40795898 294.09228516 C-0.0625 296 -0.0625 296 -3.0625 298 C-5.93517572 298.20519614 -8.71170215 298.2936925 -11.58544922 298.29052734 C-12.45567719 298.29724457 -13.32590515 298.30396179 -14.22250366 298.31088257 C-17.10412276 298.32990651 -19.98550948 298.33378902 -22.8671875 298.3359375 C-24.86874488 298.34236252 -26.87030131 298.34909066 -28.87185669 298.35610962 C-33.07002948 298.36809349 -37.26811991 298.37178932 -41.46630859 298.37060547 C-46.84564052 298.37040225 -52.2244443 298.39770232 -57.60365105 298.43214989 C-61.73864161 298.45438884 -65.87350449 298.45844393 -70.00854874 298.45738602 C-71.99168849 298.45974659 -73.97483151 298.46859569 -75.95791245 298.48405075 C-78.73257149 298.50364927 -81.50608417 298.49789685 -84.28076172 298.48583984 C-85.09963867 298.49707886 -85.91851562 298.50831787 -86.76220703 298.51989746 C-90.7339842 298.47604561 -92.62945454 298.27416362 -96.072052 296.09463501 C-98.0625 294 -98.0625 294 -98.69140625 292 C-98.66949219 291.34 -98.64757812 290.68 -98.625 290 C-98.62628906 289.34 -98.62757812 288.68 -98.62890625 288 C-97.78044314 285.00404749 -96.53232204 283.89794967 -94.0625 282 C-91.25242464 281.67392767 -88.85342926 281.58624224 -86.05615234 281.69213867 C-85.25233124 281.70589539 -84.44851013 281.7196521 -83.62033081 281.73382568 C-81.87631857 281.7646482 -80.13243844 281.80382155 -78.38877487 281.85036278 C-75.62140292 281.91863571 -72.85565339 281.95266463 -70.08755493 281.97566223 C-62.21886268 282.04222456 -54.35220223 282.13052741 -46.48583984 282.33911133 C-41.66937236 282.46433259 -36.85683505 282.51544079 -32.03880692 282.51958656 C-30.21009438 282.53504898 -28.38138944 282.57771231 -26.55399704 282.64888573 C-16.87392753 283.29286462 -16.87392753 283.29286462 -8.33740997 279.54986954 C-5.26078474 276.00254793 -3.06174453 272.07736603 -1.02275467 267.86658669 C-0.06765149 266.0100137 1.01755314 264.37225608 2.22622681 262.67253113 C2.79094696 261.79059586 3.35566711 260.90866058 3.9375 260 C3.48110453 257.37314771 3.48110453 257.37314771 1.9375 255 C1.48632812 254.14664063 1.03515625 253.29328125 0.5703125 252.4140625 C0.07273437 251.49367188 -0.42484375 250.57328125 -0.9375 249.625 C-8.7506552 233.80719069 -10.71099537 215.35259992 -7.0625 198 C-8.279375 197.649375 -9.49625 197.29875 -10.75 196.9375 C-21.96826263 193.15111622 -31.30486296 186.85362289 -40.0625 179 C-40.69671875 178.44828125 -41.3309375 177.8965625 -41.984375 177.328125 C-56.7492103 163.64694733 -66.78805575 141.97582095 -68.28515625 122.03417969 C-69.24592841 95.73718296 -64.55045298 71.92022822 -46.5 51.625 C-45.02834979 50.07615663 -43.54986437 48.53375923 -42.0625 47 C-41.53527344 46.39929688 -41.00804687 45.79859375 -40.46484375 45.1796875 C-31.89600931 35.75616113 -19.94100221 29.20282201 -8.0625 25 C-8.08868408 24.38479492 -8.11486816 23.76958984 -8.1418457 23.13574219 C-8.24595921 20.34075592 -8.31086749 17.54617742 -8.375 14.75 C-8.41689453 13.78191406 -8.45878906 12.81382812 -8.50195312 11.81640625 C-8.62557709 4.64621599 -8.62557709 4.64621599 -5.734375 1.328125 C-3.0625 0 -3.0625 0 0 0 Z " fill="#010000" transform="translate(98.0625,149)"/>
<path d="M0 0 C-1.2375 1.3303125 -1.2375 1.3303125 -2.5 2.6875 C-21.69321075 25.23046922 -26.31078779 52.66826382 -24.83203125 81.24609375 C-23.29064304 93.16011793 -16.01749139 106.51297927 -6.58203125 113.890625 C-2.51581182 116.84569141 1.26122988 119.26836386 6 121 C5.34 121.639375 4.68 122.27875 4 122.9375 C2.9952223 123.95363112 1.99593345 124.97519892 1 126 C0.38382812 126.63164062 -0.23234375 127.26328125 -0.8671875 127.9140625 C-6.30536599 133.73312508 -10.21548471 140.01047333 -14 147 C-30.08966729 144.40583263 -44.59868945 131.13219243 -53.86328125 118.44921875 C-65.678617 100.96656992 -69.78737262 79.39662409 -65.8125 58.75 C-60.68150675 37.84770491 -48.59945236 20.50494911 -30.35302734 9.00854492 C-20.85838742 3.333393 -11.09890938 -0.21762567 0 0 Z " fill="#D62D3C" transform="translate(112,186)"/>
<path d="M0 0 C5.06489093 1.44407792 7.06154692 4.10774375 10.3515625 8.0625 C24.17844395 23.72938323 42.78781696 33.81079571 63.7265625 36.0625 C78.9698153 36.91177641 93.52883689 37.14673096 107.7265625 31.0625 C108.41814453 30.76778809 109.10972656 30.47307617 109.82226562 30.16943359 C123.51307616 24.15860513 136.10410289 15.41185475 144.8515625 3.0625 C146.7265625 1.0625 146.7265625 1.0625 150.1640625 0 C153.7265625 0.0625 153.7265625 0.0625 156.6640625 1.5625 C158.7265625 4.0625 158.7265625 4.0625 159.15625 7.3203125 C158.63446934 11.86454773 156.90036572 14.1793065 153.9140625 17.4375 C153.16745361 18.27994263 153.16745361 18.27994263 152.40576172 19.1394043 C139.4316221 33.43547593 122.73917028 42.99642298 104.4765625 48.8125 C103.81487061 49.02350342 103.15317871 49.23450684 102.47143555 49.4519043 C79.02654783 56.61260004 50.72727842 53.40828564 29.2277832 42.13989258 C27.38291533 41.13255771 25.55253201 40.10363199 23.7265625 39.0625 C22.73140625 38.50691406 21.73625 37.95132813 20.7109375 37.37890625 C13.18293647 32.89436849 6.93184197 27.18159503 0.7265625 21.0625 C-0.0984375 20.25039062 -0.9234375 19.43828125 -1.7734375 18.6015625 C-4.99437285 15.23108372 -7.0326406 12.75049115 -8.5859375 8.3125 C-8.2734375 5.0625 -8.2734375 5.0625 -6.2734375 2.0625 C-3.2734375 0.0625 -3.2734375 0.0625 0 0 Z " fill="#040102" transform="translate(147.2734375,213.9375)"/>
<path d="M0 0 C4.80836237 3.65853659 4.80836237 3.65853659 5.3515625 7.4609375 C4.90459246 10.68905446 4.01206204 11.42301948 1.5 13.4375 C0.76910156 14.03304688 0.03820312 14.62859375 -0.71484375 15.2421875 C-3.48426467 17.37251128 -6.27320422 19.47397655 -9.07421875 21.5625 C-9.70972656 22.036875 -10.34523438 22.51125 -11 23 C-11.56332031 23.4125 -12.12664062 23.825 -12.70703125 24.25 C-26.12737415 34.81026982 -36.97563327 53.73584575 -39.72314453 70.52099609 C-41.24843377 84.17865656 -41.44454057 99.04184373 -37.65625 112.3359375 C-36.91203966 115.35707708 -36.75623555 117.89948724 -37 121 C-39.0625 123.9375 -39.0625 123.9375 -42 126 C-45.625 126.0625 -45.625 126.0625 -49 125 C-52.15526901 121.79112205 -52.77609106 118.46283139 -53.625 114.125 C-53.86476563 112.93132812 -54.10453125 111.73765625 -54.3515625 110.5078125 C-54.56554687 109.35023438 -54.77953125 108.19265625 -55 107 C-55.17345947 106.07348633 -55.34691895 105.14697266 -55.52563477 104.19238281 C-59.46184671 77.70246654 -54.4350429 51.17725205 -38.5 29.4375 C-37.02438782 27.6050904 -35.5251843 25.79135957 -34 24 C-32.93845703 22.71416016 -32.93845703 22.71416016 -31.85546875 21.40234375 C-11.55682668 -2.26111826 -11.55682668 -2.26111826 0 0 Z " fill="#050202" transform="translate(330,244)"/>
<path d="M0 0 C21.01892862 9.35949253 37.1261986 32.16044999 45.45703125 52.7890625 C52.66036949 71.7945553 52.71012322 91.40095106 48.8125 111.1875 C48.61664307 112.20924316 48.42078613 113.23098633 48.21899414 114.28369141 C47.24726047 118.6838683 46.63699233 121.33036676 43.484375 124.64453125 C40.60944785 126.21308427 39.2144114 126.65936644 36 126 C33.6875 124.5 33.6875 124.5 32 122 C31.67931086 116.18986738 32.43469431 110.94206859 33.5 105.25 C36.13951304 89.65021597 36.29518898 75.05222572 31 60 C30.63777344 58.95457031 30.27554688 57.90914063 29.90234375 56.83203125 C23.6211284 40.3731178 12.01750779 27.03111394 -2.2734375 17.03515625 C-9.73011893 11.46935249 -9.73011893 11.46935249 -10.5625 6.9375 C-9.35543485 0.63393753 -5.97477145 -0.5224246 0 0 Z " fill="#030101" transform="translate(121,244)"/>
<path d="M0 0 C0.64764816 -0.00700928 1.29529633 -0.01401855 1.96257019 -0.02124023 C4.09723149 -0.03880413 6.23056029 -0.02720508 8.36523438 -0.01367188 C9.85209405 -0.0163673 11.33895201 -0.02025014 12.82580566 -0.02526855 C15.93954273 -0.03116136 19.05282032 -0.02260834 22.16650391 -0.00390625 C26.15489526 0.01888398 30.14220997 0.00575961 34.13056183 -0.01819611 C37.2001352 -0.03266045 40.26945393 -0.02804535 43.33903503 -0.01768494 C44.80942411 -0.01501937 46.27983642 -0.01828149 47.75019836 -0.02760315 C49.80674339 -0.03778022 51.86155281 -0.0222559 53.91796875 0 C55.08726929 0.00318237 56.25656982 0.00636475 57.46130371 0.00964355 C61.09541296 0.62541619 62.28618247 1.58243559 64.45898438 4.51757812 C64.9281712 8.27107274 64.99034819 10.55606266 63.14648438 13.89257812 C59.96566644 16.95558799 56.60625196 16.65263133 52.41455078 16.67871094 C51.16960846 16.68831848 49.92466614 16.69792603 48.64199829 16.70782471 C47.28151635 16.71267265 45.92103228 16.71695149 44.56054688 16.72070312 C43.16433714 16.72645716 41.76812743 16.73221486 40.37191772 16.73797607 C37.44488152 16.74847661 34.5178727 16.75432551 31.59082031 16.7578125 C27.84596919 16.76329619 24.10148184 16.78732509 20.35674477 16.81578445 C17.472493 16.8344368 14.58832843 16.8396178 11.70402145 16.84114838 C10.32375474 16.84416945 8.94348936 16.8521796 7.56328201 16.86533356 C5.62966391 16.88244681 3.6958953 16.87866136 1.76220703 16.87402344 C0.11365219 16.87949188 0.11365219 16.87949188 -1.56820679 16.8850708 C-5.23104843 16.43227765 -7.91277602 15.14581773 -10.54101562 12.51757812 C-11.13371389 5.28665925 -11.13371389 5.28665925 -8.92321777 2.41833496 C-5.79630076 -0.07662916 -3.97346709 0.0108142 0 0 Z " fill="#000000" transform="translate(10.541015625,46.482421875)"/>
<path d="M0 0 C0.98588356 -0.01270432 0.98588356 -0.01270432 1.99168396 -0.02566528 C4.16400511 -0.04906136 6.33561904 -0.0500569 8.50805664 -0.04882812 C10.01876611 -0.0559283 11.52947288 -0.06362709 13.04017639 -0.07189941 C16.20687353 -0.08535024 19.37332134 -0.08691046 22.54003906 -0.08105469 C26.59694437 -0.07515847 30.65265295 -0.10574214 34.70932674 -0.14617157 C37.82949765 -0.17203024 40.94937973 -0.17492773 44.06964302 -0.17127991 C45.56518117 -0.17297298 47.0607324 -0.18263367 48.5561657 -0.20042419 C50.64893362 -0.22258048 52.73927116 -0.21293406 54.83203125 -0.1953125 C56.6171537 -0.19839417 56.6171537 -0.19839417 58.43833923 -0.20153809 C61.48071289 0.41992188 61.48071289 0.41992188 63.90016174 2.73181152 C65.48071289 5.41992188 65.48071289 5.41992188 65.41821289 9.04492188 C64.18099678 13.49889989 64.18099678 13.49889989 61.48071289 15.41992188 C58.56532288 15.81433105 58.56532288 15.81433105 54.96142578 15.83984375 C53.97554222 15.85254807 53.97554222 15.85254807 52.96974182 15.86550903 C50.79742067 15.88890511 48.62580674 15.88990065 46.45336914 15.88867188 C44.94265967 15.89577205 43.4319529 15.90347084 41.92124939 15.91174316 C38.75455225 15.92519399 35.58810444 15.92675421 32.42138672 15.92089844 C28.36448141 15.91500222 24.30877283 15.94558589 20.25209904 15.98601532 C17.13192813 16.01187399 14.01204605 16.01477148 10.89178276 16.01112366 C9.39624461 16.01281673 7.90069338 16.02247742 6.40526009 16.04026794 C4.31249216 16.06242423 2.22215462 16.05277781 0.12939453 16.03515625 C-1.65572792 16.03823792 -1.65572792 16.03823792 -3.47691345 16.04138184 C-6.51928711 15.41992188 -6.51928711 15.41992188 -8.93873596 13.10803223 C-10.51928711 10.41992188 -10.51928711 10.41992188 -10.45678711 6.79492188 C-8.71521257 0.52525355 -6.290087 0.04452876 0 0 Z " fill="#000000" transform="translate(422.519287109375,193.580078125)"/>
<path d="M0 0 C2.31 1.98 4.62 3.96 7 6 C6.71125 6.70382813 6.4225 7.40765625 6.125 8.1328125 C1.30702807 20.9472795 2.14002904 31.39140065 7 44 C7.35729936 45.32711192 7.70085746 46.65858186 8 48 C8.96679688 47.95359375 9.93359375 47.9071875 10.9296875 47.859375 C24.69536517 47.47775225 33.42952255 50.9948678 44 60 C45.81640625 62.25 45.81640625 62.25 47 64 C42.96634675 62.70325518 39.07944241 61.23494112 35.1875 59.5625 C30.18082582 57.46610933 25.22924438 55.46785807 20 54 C19.26523438 53.79375 18.53046875 53.5875 17.7734375 53.375 C7.74428639 51.0826226 -2.77833081 51.82416078 -13 52 C-13.16435547 50.21142578 -13.16435547 50.21142578 -13.33203125 48.38671875 C-13.49149299 46.82024165 -13.65168751 45.25383901 -13.8125 43.6875 C-13.88275391 42.90181641 -13.95300781 42.11613281 -14.02539062 41.30664062 C-14.10595703 40.54931641 -14.18652344 39.79199219 -14.26953125 39.01171875 C-14.37164917 37.96697388 -14.37164917 37.96697388 -14.47583008 36.90112305 C-15.13788172 34.49991384 -16.06756727 33.54393473 -18 32 C-18.99 31.67 -19.98 31.34 -21 31 C-21.36263859 25.1977825 -20.25684543 21.36000789 -18 16 C-16.4840625 16.061875 -16.4840625 16.061875 -14.9375 16.125 C-12.00312223 15.73295763 -11.11947477 15.13434715 -9.1171875 12.8828125 C-7.3425308 10.29381117 -5.66415809 7.66100526 -4 5 C-2.68729166 3.31704059 -1.36639342 1.6396721 0 0 Z " fill="#D42D3C" transform="translate(119,119)"/>
<path d="M0 0 C1.0686731 -0.00524185 2.13734619 -0.0104837 3.23840332 -0.0158844 C5.49437594 -0.02229833 7.75038203 -0.02097578 10.00634766 -0.01245117 C13.45666007 -0.00393609 16.90531959 -0.0327214 20.35546875 -0.06445312 C22.54947867 -0.06606513 24.74349152 -0.06548762 26.9375 -0.0625 C28.48298523 -0.07935097 28.48298523 -0.07935097 30.05969238 -0.09654236 C34.5506089 -0.05286269 37.21451556 -0.02275812 41.11889648 2.33959961 C43.11617439 4.60047497 43.62991683 5.46198092 43.53125 8.43359375 C43.53318359 9.42359375 43.53318359 9.42359375 43.53515625 10.43359375 C42.71762095 13.3203391 41.25455078 14.52654874 38.96875 16.43359375 C36.54052734 16.94825745 36.54052734 16.94825745 33.8046875 16.96704102 C32.77682129 16.98287735 31.74895508 16.99871368 30.68994141 17.01502991 C29.58569824 17.01007004 28.48145508 17.00511017 27.34375 17 C26.20470215 17.00619858 25.0656543 17.01239716 23.89208984 17.01878357 C21.48470922 17.02588508 19.07727952 17.02270205 16.66992188 17.01000977 C12.982156 16.99614416 9.29692651 17.03021399 5.609375 17.06835938 C3.27083271 17.06931054 0.93228724 17.0674519 -1.40625 17.0625 C-3.06261475 17.08238731 -3.06261475 17.08238731 -4.75244141 17.10267639 C-12.38367373 17.00962626 -12.38367373 17.00962626 -15.73608398 14.02758789 C-17.04534875 11.40535639 -17.50377377 10.1731434 -17.09375 7.30859375 C-17.02285156 6.64601563 -16.95195312 5.9834375 -16.87890625 5.30078125 C-13.95338234 -1.14346036 -5.92033176 -0.01686844 0 0 Z " fill="#000000" transform="translate(41.03125,405.56640625)"/>
<path d="M0 0 C1.51188148 -0.01429802 1.51188148 -0.01429802 3.05430603 -0.02888489 C4.1418367 -0.02797348 5.22936737 -0.02706207 6.34985352 -0.02612305 C7.46812027 -0.03040817 8.58638702 -0.0346933 9.73854065 -0.03910828 C12.10482099 -0.0448544 14.471119 -0.04534977 16.83740234 -0.04101562 C20.46099953 -0.03785728 24.08377929 -0.06130668 27.70727539 -0.08666992 C30.0048004 -0.088943 32.30232761 -0.08964637 34.59985352 -0.08862305 C35.68535995 -0.09783279 36.77086639 -0.10704254 37.88926697 -0.11653137 C39.40587669 -0.10718819 39.40587669 -0.10718819 40.953125 -0.09765625 C41.84120346 -0.09828568 42.72928192 -0.0989151 43.64427185 -0.0995636 C46.57204625 0.35752549 47.92210879 1.22453483 50.04125977 3.2746582 C51.04125977 6.6496582 51.04125977 6.6496582 51.04125977 10.2746582 C49.27484804 13.07655266 48.01076155 14.78990731 45.04125977 16.2746582 C43.49546512 16.3847143 41.94511166 16.43373374 40.39550781 16.45166016 C39.43078049 16.46449539 38.46605316 16.47733063 37.47209167 16.49055481 C36.42628433 16.49794174 35.38047699 16.50532867 34.30297852 16.51293945 C33.23006058 16.5210112 32.15714264 16.52908295 31.05171204 16.53739929 C28.77781799 16.55124681 26.5039031 16.56196596 24.22998047 16.56982422 C20.75326115 16.5870369 17.27749257 16.63091808 13.80102539 16.67504883 C11.5933501 16.68517555 9.38566672 16.69369172 7.17797852 16.70043945 C6.13824387 16.71794754 5.09850922 16.73545563 4.02726746 16.75349426 C-3.19348647 16.73180964 -3.19348647 16.73180964 -7.09619141 14.40039062 C-9.28898785 11.89774564 -9.8777593 10.59487652 -9.95874023 7.2746582 C-8.36909463 1.57842811 -5.76086815 0.02991444 0 0 Z " fill="#000000" transform="translate(373.958740234375,437.725341796875)"/>
<path d="M0 0 C0.94875 0.845625 1.8975 1.69125 2.875 2.5625 C16.1830557 13.85176881 31.55066327 21.06118481 49 23 C49 23.33 49 23.66 49 24 C34.44046474 27.49088272 19.41140749 24.83608503 6.5 17.5625 C2.3607094 14.99481172 -1.41111145 12.28981451 -5 9 C-3.7508258 5.54074837 -2.32472205 2.85306797 0 0 Z " fill="#CE2C3B" transform="translate(128,399)"/>
<path d="M0 0 C0.33 0 0.66 0 1 0 C1.16435547 1.63195312 1.16435547 1.63195312 1.33203125 3.296875 C2.54403862 14.76967126 4.29591251 25.18295526 9 35.8125 C11.21715778 41.28631388 11.21715778 41.28631388 10.27734375 44.375 C8.9375 46.3125 8.9375 46.3125 6 49 C5.34 49 4.68 49 4 49 C3.01540929 46.6062703 2.03721297 44.2102493 1.0625 41.8125 C0.78470703 41.13896484 0.50691406 40.46542969 0.22070312 39.77148438 C-4.93528012 27.03682697 -4.19038782 12.94530522 0 0 Z " fill="#D02C3B" transform="translate(108,345)"/>
<path d="M0 0 C0.33 0.66 0.66 1.32 1 2 C0.13624532 3.88964762 -0.81775181 5.73840671 -1.8125 7.5625 C-4.5082102 12.74752031 -6.04239908 17.25439449 -7 23 C-6.10539063 23.02578125 -5.21078125 23.0515625 -4.2890625 23.078125 C3.57081687 23.4468187 9.93014425 24.49765211 17 28 C13.52334905 29.06888524 10.32862522 29.11475767 6.703125 29.09765625 C5.49785156 29.09443359 4.29257813 29.09121094 3.05078125 29.08789062 C1.79652344 29.07951172 0.54226562 29.07113281 -0.75 29.0625 C-2.01972656 29.05798828 -3.28945312 29.05347656 -4.59765625 29.04882812 C-7.73181836 29.03704556 -10.86588541 29.02059416 -14 29 C-14.28366598 18.61346098 -10.66596762 11.89578518 -4 4 C-2.70128156 2.63292796 -1.38555866 1.27897723 0 0 Z " fill="#CB2C3A" transform="translate(163,56)"/>
<path d="M0 0 C0.66 0.33 1.32 0.66 2 1 C0.02 3.31 -1.96 5.62 -4 8 C-4.99 7.34 -5.98 6.68 -7 6 C-7 5.34 -7 4.68 -7 4 C-1.7265625 0.77734375 -1.7265625 0.77734375 0 0 Z " fill="#CC2D3B" transform="translate(138,104)"/>
</svg>
