<?xml version="1.0" encoding="UTF-8"?>
<svg version="1.1" xmlns="http://www.w3.org/2000/svg" width="512" height="512">
<path d="M0 0 C8.14760598 4.74496593 13.59290535 12.10336184 16.0390625 21.1875 C17.24275527 32.04388282 16.11491304 39.88017217 10.0390625 49.1875 C9.7090625 49.5175 9.3790625 49.8475 9.0390625 50.1875 C8.88251223 51.67388992 8.78839307 53.16699127 8.72265625 54.66015625 C8.68076172 55.55927734 8.63886719 56.45839844 8.59570312 57.38476562 C8.53672852 58.80305664 8.53672852 58.80305664 8.4765625 60.25 C8.43337891 61.19939453 8.39019531 62.14878906 8.34570312 63.12695312 C8.23926974 65.48031353 8.13725242 67.83378354 8.0390625 70.1875 C8.94785156 70.28546875 9.85664063 70.3834375 10.79296875 70.484375 C25.15407064 72.19297789 38.53144278 76.1091345 52.0390625 81.1875 C60.38001987 70.02010517 60.38001987 70.02010517 62.21484375 56.70703125 C61.72437579 49.67699056 64.96115469 43.32580907 69.3046875 38.00390625 C74.89855337 32.14546565 81.81293874 27.28552273 90.08984375 26.75390625 C91.5102241 26.7304807 92.93113307 26.72976779 94.3515625 26.75 C95.09776855 26.75757324 95.84397461 26.76514648 96.61279297 26.77294922 C105.23918964 27.02936413 112.14947277 29.5348358 118.5078125 35.48828125 C125.81744735 43.59973828 127.50062467 52.01185939 127.2734375 62.7578125 C126.59592354 72.67210014 122.2831095 78.48495153 115.0390625 85.1875 C111.79251989 87.60685838 109.19640184 89.1875 105.0390625 89.1875 C104.65621094 90.22970703 104.65621094 90.22970703 104.265625 91.29296875 C102.88940422 94.54067449 101.21366937 97.46732916 99.4140625 100.5 C98.78242188 101.56863281 98.15078125 102.63726562 97.5 103.73828125 C97.01789063 104.54652344 96.53578125 105.35476562 96.0390625 106.1875 C99.42294874 109.62972911 102.90582621 112.93366776 106.45874023 116.20068359 C112.32907815 121.60265518 117.98936583 126.99231448 123.0390625 133.1875 C124.09867187 132.5378125 125.15828125 131.888125 126.25 131.21875 C127.63788025 130.37476877 129.02590879 129.53103136 130.4140625 128.6875 C131.46207031 128.04361328 131.46207031 128.04361328 132.53125 127.38671875 C137.8125 124.1875 137.8125 124.1875 140.0390625 124.1875 C140.1009375 123.341875 140.1628125 122.49625 140.2265625 121.625 C141.84065554 114.79614485 146.22741675 110.4180503 151.88671875 106.4765625 C160.35011084 101.40774328 169.72919713 100.84674829 179.29296875 102.87890625 C188.5486858 105.64751248 193.99945183 109.87687501 198.99609375 118.0625 C203.41042335 127.05648989 203.5630173 137.64044363 200.4765625 147.125 C196.09497412 157.34365248 189.17058816 162.05772438 179.0390625 166.1875 C175.84837492 167.2611151 173.60360358 167.03159743 170.2890625 166.625 C161.66175878 166.42599842 154.80272413 172.43511542 148.0390625 177.1875 C148.60173828 178.86199219 148.60173828 178.86199219 149.17578125 180.5703125 C152.17999889 189.69145653 154.79669115 198.81756805 156.9140625 208.1875 C157.12893311 209.13641113 157.34380371 210.08532227 157.56518555 211.06298828 C159.0390625 217.76331449 159.0390625 217.76331449 159.0390625 221.1875 C162.20727593 221.1644173 165.37200304 221.08673829 168.5390625 221 C169.4259375 220.99419922 170.3128125 220.98839844 171.2265625 220.98242188 C177.89008055 220.76193782 181.6725115 218.99530492 187.0390625 215.1875 C193.79613686 211.72502401 203.59002708 212.03956199 210.83984375 213.91015625 C213.0478196 214.85207341 215.01028086 215.90793648 217.0390625 217.1875 C217.66039062 217.538125 218.28171875 217.88875 218.921875 218.25 C225.78146869 222.52611035 229.98071272 229.4804369 232.0390625 237.1875 C232.83110162 246.07491567 232.93837394 254.41951278 228.0390625 262.1875 C227.6884375 262.80882812 227.3378125 263.43015625 226.9765625 264.0703125 C222.69207834 270.94333918 215.74923105 275.10188525 208.0390625 277.1875 C197.18267968 278.39119277 189.34639033 277.26335054 180.0390625 271.1875 C179.7090625 270.8575 179.3790625 270.5275 179.0390625 270.1875 C177.62336127 270.10098389 176.2034675 270.08045096 174.78515625 270.08984375 C173.50415039 270.09467773 173.50415039 270.09467773 172.19726562 270.09960938 C171.29943359 270.10798828 170.40160156 270.11636719 169.4765625 270.125 C168.57486328 270.12951172 167.67316406 270.13402344 166.74414062 270.13867188 C164.50904936 270.15049775 162.27408813 270.1669778 160.0390625 270.1875 C159.89210938 271.18265625 159.74515625 272.1778125 159.59375 273.203125 C157.43208742 286.95476569 153.48588449 300.01724731 149.0390625 313.1875 C160.04512722 320.59211921 160.04512722 320.59211921 172.7421875 322.328125 C179.6509424 321.90514001 186.01647483 325.18963068 191.2265625 329.46484375 C198.79307082 336.65628808 203.16916637 345.1947798 203.5390625 355.6875 C203.20496962 365.16460136 199.6659345 373.36303778 193.0390625 380.1875 C184.04250426 387.25879477 174.12190157 388.31696131 163.0390625 387.1875 C156.3519795 385.66495588 150.52421968 382.42018338 146.0390625 377.1875 C144.64682378 374.9513624 143.42173847 372.70795564 142.27734375 370.3359375 C139.54659649 365.59804793 135.64640573 363.16765518 130.9765625 360.5 C129.93371094 359.89800781 128.89085937 359.29601562 127.81640625 358.67578125 C125.0727232 357.10463383 125.0727232 357.10463383 122.0390625 356.1875 C121.64400513 357.06365967 121.64400513 357.06365967 121.2409668 357.95751953 C119.9846183 360.28851429 118.6171588 361.93944063 116.80859375 363.8671875 C116.16986328 364.54910156 115.53113281 365.23101562 114.87304688 365.93359375 C114.20595703 366.63613281 113.53886719 367.33867187 112.8515625 368.0625 C112.20380859 368.75730469 111.55605469 369.45210938 110.88867188 370.16796875 C102.59987411 378.96187807 102.59987411 378.96187807 98.0390625 382.1875 C97.3790625 382.1875 96.7190625 382.1875 96.0390625 382.1875 C102.24570703 395.23132485 102.24570703 395.23132485 113.64453125 403.1015625 C119.30394079 405.66814627 122.88092336 411.24481499 125.9765625 416.4375 C129.0999395 427.46118352 128.95320067 438.31008389 123.4140625 448.4375 C119.36017435 454.70528338 113.73512591 459.35097615 106.55859375 461.71484375 C94.84342611 463.91257287 83.82684831 462.54192863 73.7265625 456.0625 C66.91590788 448.77668343 62.89064297 440.71105915 62.9140625 430.6875 C62.46443418 422.08032931 58.7002589 416.17398572 54.0390625 409.1875 C48.27653592 409.82261718 43.05361552 411.30953654 37.5390625 413.0625 C17.74172986 419.1875 17.74172986 419.1875 9.0390625 419.1875 C9.0621452 422.35571343 9.13982421 425.52044054 9.2265625 428.6875 C9.23236328 429.574375 9.23816406 430.46125 9.24414062 431.375 C9.43563224 437.1623021 10.50212281 440.66985278 13.82299805 445.40551758 C18.3846645 452.09003946 17.69135808 460.47410477 17.0390625 468.1875 C16.17773087 471.56431152 14.89073049 474.24797707 13.0390625 477.1875 C12.6265625 477.88359375 12.2140625 478.5796875 11.7890625 479.296875 C7.18053152 486.26204115 0.43896026 490.57515311 -7.6484375 492.5625 C-17.20656294 494.18337092 -25.45252673 492.60241877 -33.7109375 487.5 C-40.99758824 482.29892774 -45.29424117 475.24821392 -47.6484375 466.6875 C-48.63701944 458.77884447 -47.91978877 450.00374568 -42.8984375 443.52734375 C-40.17319407 438.8295955 -40.29055153 434.6538779 -40.2109375 429.3125 C-40.18128906 428.33796875 -40.15164062 427.3634375 -40.12109375 426.359375 C-40.05077886 423.96866873 -39.99789516 421.57891566 -39.9609375 419.1875 C-40.88390625 419.11273438 -41.806875 419.03796875 -42.7578125 418.9609375 C-56.72131703 417.5535487 -70.1469335 413.9495018 -82.9609375 408.1875 C-84.44372856 410.36720286 -85.91130417 412.55482323 -87.359375 414.7578125 C-88.29992456 416.18469501 -89.25667308 417.60152981 -90.25 418.9921875 C-93.15326576 423.35752954 -93.11531518 426.57442931 -92.92578125 431.578125 C-93.0347061 439.66276918 -96.6713502 447.197989 -101.9609375 453.1875 C-110.56310552 460.36380775 -120.09579413 463.86377959 -131.31640625 463.0078125 C-139.81443618 461.53381793 -146.82101472 457.26055222 -151.8984375 450.3125 C-152.95700147 448.62728613 -153.9817833 446.92005895 -154.9609375 445.1875 C-155.50234375 444.24970703 -155.50234375 444.24970703 -156.0546875 443.29296875 C-159.38105468 436.22443849 -159.12151366 426.94033571 -157.3046875 419.5 C-153.9134674 411.08041905 -147.2534796 403.93717121 -138.9609375 400.1875 C-137.9709375 400.1875 -136.9809375 400.1875 -135.9609375 400.1875 C-135.69539062 399.49269531 -135.42984375 398.79789062 -135.15625 398.08203125 C-133.85490674 394.93073924 -132.37390367 391.91749829 -130.8359375 388.875 C-130.29710937 387.80636719 -129.75828125 386.73773438 -129.203125 385.63671875 C-128.79320312 384.82847656 -128.38328125 384.02023437 -127.9609375 383.1875 C-128.42242187 382.78660156 -128.88390625 382.38570313 -129.359375 381.97265625 C-131.56515835 380.05022451 -133.76268709 378.11854007 -135.9609375 376.1875 C-137.16943359 375.13949219 -137.16943359 375.13949219 -138.40234375 374.0703125 C-144.38175503 368.81142496 -149.75509963 363.21067956 -154.9609375 357.1875 C-156.02054687 357.8371875 -157.08015625 358.486875 -158.171875 359.15625 C-159.55975525 360.00023123 -160.94778379 360.84396864 -162.3359375 361.6875 C-163.38394531 362.33138672 -163.38394531 362.33138672 -164.453125 362.98828125 C-169.734375 366.1875 -169.734375 366.1875 -171.9609375 366.1875 C-172.03957031 367.07179688 -172.11820312 367.95609375 -172.19921875 368.8671875 C-173.69776983 375.39933323 -179.72637674 380.82396839 -185.0859375 384.6875 C-193.77868772 389.22284794 -204.31744673 389.8172153 -213.7734375 387.125 C-221.90450024 383.88468822 -228.26954474 378.11880573 -231.9609375 370.1875 C-235.67496964 360.79086744 -235.23886591 349.87439014 -231.26953125 340.6171875 C-226.30314541 331.39601738 -218.71571187 326.79685697 -208.89453125 323.4921875 C-206.54865676 323.12253455 -204.56637829 323.46105618 -202.2109375 323.75 C-193.58363378 323.94900158 -186.72459913 317.93988458 -179.9609375 313.1875 C-180.33605469 312.07117188 -180.71117187 310.95484375 -181.09765625 309.8046875 C-184.10187389 300.68354347 -186.71856615 291.55743195 -188.8359375 282.1875 C-189.15824341 280.7641333 -189.15824341 280.7641333 -189.48706055 279.31201172 C-190.9609375 272.61168551 -190.9609375 272.61168551 -190.9609375 269.1875 C-194.12915093 269.2105827 -197.29387804 269.28826171 -200.4609375 269.375 C-201.3478125 269.38080078 -202.2346875 269.38660156 -203.1484375 269.39257812 C-209.81195555 269.61306218 -213.5943865 271.37969508 -218.9609375 275.1875 C-225.71801186 278.64997599 -235.51190208 278.33543801 -242.76171875 276.46484375 C-244.9696946 275.52292659 -246.93215586 274.46706352 -248.9609375 273.1875 C-249.58226562 272.836875 -250.20359375 272.48625 -250.84375 272.125 C-257.70458989 267.8481128 -261.89998985 260.89487958 -263.9609375 253.1875 C-264.95945262 242.08772728 -264.31040952 232.4530134 -257.2109375 223.375 C-251.54071678 217.30385459 -244.50804915 213.63935733 -236.2265625 212.81640625 C-227.75577967 212.56314094 -221.12362282 213.11521211 -213.9609375 218.1875 C-212.9709375 219.1775 -212.9709375 219.1775 -211.9609375 220.1875 C-209.6364036 220.55801993 -209.6364036 220.55801993 -206.953125 220.6015625 C-205.47392578 220.65957031 -205.47392578 220.65957031 -203.96484375 220.71875 C-202.93230469 220.7496875 -201.89976562 220.780625 -200.8359375 220.8125 C-199.27552734 220.87050781 -199.27552734 220.87050781 -197.68359375 220.9296875 C-195.10955439 221.02414766 -192.53552595 221.10971214 -189.9609375 221.1875 C-189.88617188 220.26453125 -189.81140625 219.3415625 -189.734375 218.390625 C-188.3269862 204.42712047 -184.7229393 191.001504 -178.9609375 178.1875 C-181.14064036 176.70470894 -183.32826073 175.23713333 -185.53125 173.7890625 C-186.95813251 172.84851294 -188.37496731 171.89176442 -189.765625 170.8984375 C-194.12585709 167.99857023 -197.34059526 168.02502018 -202.33984375 168.23046875 C-210.68187789 168.09371409 -217.38784894 164.32484606 -223.5234375 158.9375 C-230.61468471 150.93711853 -233.79884132 142.87111167 -233.9609375 132.1875 C-233.3572162 124.07080259 -229.70813447 116.52739295 -223.625 111.10546875 C-221.14063706 109.28997275 -218.63879658 107.70088974 -215.9609375 106.1875 C-215.33574219 105.8265625 -214.71054688 105.465625 -214.06640625 105.09375 C-206.99787599 101.76738282 -197.71377321 102.02692384 -190.2734375 103.84375 C-182.54234496 106.95766227 -175.93026076 112.8839452 -171.9609375 120.1875 C-171.744375 121.54875 -171.744375 121.54875 -171.5234375 122.9375 C-171.245 124.05125 -171.245 124.05125 -170.9609375 125.1875 C-169.31887026 125.91264648 -167.64507914 126.56630022 -165.9609375 127.1875 C-163.84783172 128.21091133 -161.74382858 129.25329132 -159.6484375 130.3125 C-158.57980469 130.85132813 -157.51117188 131.39015625 -156.41015625 131.9453125 C-155.60191406 132.35523438 -154.79367188 132.76515625 -153.9609375 133.1875 C-153.56003906 132.72601563 -153.15914063 132.26453125 -152.74609375 131.7890625 C-150.82366201 129.58327915 -148.89197757 127.38575041 -146.9609375 125.1875 C-145.91292969 123.97900391 -145.91292969 123.97900391 -144.84375 122.74609375 C-139.58486246 116.76668247 -133.98411706 111.39333787 -127.9609375 106.1875 C-128.610625 105.12789063 -129.2603125 104.06828125 -129.9296875 102.9765625 C-130.77366873 101.58868225 -131.61740614 100.20065371 -132.4609375 98.8125 C-133.10482422 97.76449219 -133.10482422 97.76449219 -133.76171875 96.6953125 C-136.9609375 91.4140625 -136.9609375 91.4140625 -136.9609375 89.1875 C-137.6209375 89.14625 -138.2809375 89.105 -138.9609375 89.0625 C-145.956063 87.02225506 -151.98428921 81.18344322 -155.9609375 75.1875 C-160.32141577 66.96018251 -160.39029757 56.21259069 -157.8984375 47.375 C-154.65812572 39.24393726 -148.89224323 32.87889276 -140.9609375 29.1875 C-132.76405997 25.90173312 -122.88217046 25.70677504 -114.4296875 28.25 C-105.11870121 32.57631686 -99.57785873 38.70485563 -95.6875 48.109375 C-94.28900053 52.10938424 -94.00655856 54.72395522 -94.5234375 58.9375 C-94.72243908 67.56480372 -88.71332208 74.42383837 -83.9609375 81.1875 C-82.78660156 80.80078125 -81.61226562 80.4140625 -80.40234375 80.015625 C-72.25501723 77.36687062 -64.11613078 74.83843002 -55.7734375 72.875 C-55.10449463 72.71612305 -54.43555176 72.55724609 -53.74633789 72.39355469 C-49.16512648 71.35145935 -44.6227743 70.71124362 -39.9609375 70.1875 C-39.9840202 67.01928657 -40.06169921 63.85455946 -40.1484375 60.6875 C-40.15423828 59.800625 -40.16003906 58.91375 -40.16601562 58 C-40.38650764 51.33624118 -42.15344175 47.55437968 -45.9609375 42.1875 C-49.51524138 35.24045152 -48.97910395 25.66511837 -47.2734375 18.1640625 C-44.03649977 9.39735616 -38.32673459 3.29350703 -29.9609375 -0.8125 C-20.74371915 -4.52282095 -8.98180329 -4.32568453 0 0 Z " fill="#020100" transform="translate(271.9609375,10.8125)"/>
<path d="M0 0 C8.14760598 4.74496593 13.59290535 12.10336184 16.0390625 21.1875 C17.24275527 32.04388282 16.11491304 39.88017217 10.0390625 49.1875 C9.7090625 49.5175 9.3790625 49.8475 9.0390625 50.1875 C8.88251223 51.67388992 8.78839307 53.16699127 8.72265625 54.66015625 C8.68076172 55.55927734 8.63886719 56.45839844 8.59570312 57.38476562 C8.53672852 58.80305664 8.53672852 58.80305664 8.4765625 60.25 C8.43337891 61.19939453 8.39019531 62.14878906 8.34570312 63.12695312 C8.23926974 65.48031353 8.13725242 67.83378354 8.0390625 70.1875 C8.94785156 70.28546875 9.85664063 70.3834375 10.79296875 70.484375 C25.15407064 72.19297789 38.53144278 76.1091345 52.0390625 81.1875 C60.38001987 70.02010517 60.38001987 70.02010517 62.21484375 56.70703125 C61.72437579 49.67699056 64.96115469 43.32580907 69.3046875 38.00390625 C74.89855337 32.14546565 81.81293874 27.28552273 90.08984375 26.75390625 C91.5102241 26.7304807 92.93113307 26.72976779 94.3515625 26.75 C95.09776855 26.75757324 95.84397461 26.76514648 96.61279297 26.77294922 C105.23918964 27.02936413 112.14947277 29.5348358 118.5078125 35.48828125 C125.81744735 43.59973828 127.50062467 52.01185939 127.2734375 62.7578125 C126.59592354 72.67210014 122.2831095 78.48495153 115.0390625 85.1875 C111.79251989 87.60685838 109.19640184 89.1875 105.0390625 89.1875 C104.65621094 90.22970703 104.65621094 90.22970703 104.265625 91.29296875 C102.88940422 94.54067449 101.21366937 97.46732916 99.4140625 100.5 C98.78242188 101.56863281 98.15078125 102.63726562 97.5 103.73828125 C97.01789063 104.54652344 96.53578125 105.35476562 96.0390625 106.1875 C99.42294874 109.62972911 102.90582621 112.93366776 106.45874023 116.20068359 C112.32907815 121.60265518 117.98936583 126.99231448 123.0390625 133.1875 C124.09867187 132.5378125 125.15828125 131.888125 126.25 131.21875 C127.63788025 130.37476877 129.02590879 129.53103136 130.4140625 128.6875 C131.46207031 128.04361328 131.46207031 128.04361328 132.53125 127.38671875 C137.8125 124.1875 137.8125 124.1875 140.0390625 124.1875 C140.1009375 123.341875 140.1628125 122.49625 140.2265625 121.625 C141.84065554 114.79614485 146.22741675 110.4180503 151.88671875 106.4765625 C160.35011084 101.40774328 169.72919713 100.84674829 179.29296875 102.87890625 C188.5486858 105.64751248 193.99945183 109.87687501 198.99609375 118.0625 C203.41042335 127.05648989 203.5630173 137.64044363 200.4765625 147.125 C196.09497412 157.34365248 189.17058816 162.05772438 179.0390625 166.1875 C175.84837492 167.2611151 173.60360358 167.03159743 170.2890625 166.625 C161.66175878 166.42599842 154.80272413 172.43511542 148.0390625 177.1875 C148.60173828 178.86199219 148.60173828 178.86199219 149.17578125 180.5703125 C152.17999889 189.69145653 154.79669115 198.81756805 156.9140625 208.1875 C157.12893311 209.13641113 157.34380371 210.08532227 157.56518555 211.06298828 C159.0390625 217.76331449 159.0390625 217.76331449 159.0390625 221.1875 C162.20727593 221.1644173 165.37200304 221.08673829 168.5390625 221 C169.4259375 220.99419922 170.3128125 220.98839844 171.2265625 220.98242188 C177.89008055 220.76193782 181.6725115 218.99530492 187.0390625 215.1875 C193.79613686 211.72502401 203.59002708 212.03956199 210.83984375 213.91015625 C213.0478196 214.85207341 215.01028086 215.90793648 217.0390625 217.1875 C217.66039062 217.538125 218.28171875 217.88875 218.921875 218.25 C225.78146869 222.52611035 229.98071272 229.4804369 232.0390625 237.1875 C232.83110162 246.07491567 232.93837394 254.41951278 228.0390625 262.1875 C227.6884375 262.80882812 227.3378125 263.43015625 226.9765625 264.0703125 C222.69207834 270.94333918 215.74923105 275.10188525 208.0390625 277.1875 C197.18267968 278.39119277 189.34639033 277.26335054 180.0390625 271.1875 C179.7090625 270.8575 179.3790625 270.5275 179.0390625 270.1875 C177.62336127 270.10098389 176.2034675 270.08045096 174.78515625 270.08984375 C173.50415039 270.09467773 173.50415039 270.09467773 172.19726562 270.09960938 C171.29943359 270.10798828 170.40160156 270.11636719 169.4765625 270.125 C168.57486328 270.12951172 167.67316406 270.13402344 166.74414062 270.13867188 C164.50904936 270.15049775 162.27408813 270.1669778 160.0390625 270.1875 C159.89210938 271.18265625 159.74515625 272.1778125 159.59375 273.203125 C157.43208742 286.95476569 153.48588449 300.01724731 149.0390625 313.1875 C160.04512722 320.59211921 160.04512722 320.59211921 172.7421875 322.328125 C179.6509424 321.90514001 186.01647483 325.18963068 191.2265625 329.46484375 C198.79307082 336.65628808 203.16916637 345.1947798 203.5390625 355.6875 C203.20496962 365.16460136 199.6659345 373.36303778 193.0390625 380.1875 C184.04250426 387.25879477 174.12190157 388.31696131 163.0390625 387.1875 C156.3519795 385.66495588 150.52421968 382.42018338 146.0390625 377.1875 C144.64682378 374.9513624 143.42173847 372.70795564 142.27734375 370.3359375 C139.54659649 365.59804793 135.64640573 363.16765518 130.9765625 360.5 C129.93371094 359.89800781 128.89085937 359.29601562 127.81640625 358.67578125 C125.0727232 357.10463383 125.0727232 357.10463383 122.0390625 356.1875 C121.64400513 357.06365967 121.64400513 357.06365967 121.2409668 357.95751953 C119.9846183 360.28851429 118.6171588 361.93944063 116.80859375 363.8671875 C116.16986328 364.54910156 115.53113281 365.23101562 114.87304688 365.93359375 C114.20595703 366.63613281 113.53886719 367.33867187 112.8515625 368.0625 C112.20380859 368.75730469 111.55605469 369.45210938 110.88867188 370.16796875 C102.59987411 378.96187807 102.59987411 378.96187807 98.0390625 382.1875 C97.3790625 382.1875 96.7190625 382.1875 96.0390625 382.1875 C102.24570703 395.23132485 102.24570703 395.23132485 113.64453125 403.1015625 C119.30394079 405.66814627 122.88092336 411.24481499 125.9765625 416.4375 C129.0999395 427.46118352 128.95320067 438.31008389 123.4140625 448.4375 C119.36017435 454.70528338 113.73512591 459.35097615 106.55859375 461.71484375 C94.84342611 463.91257287 83.82684831 462.54192863 73.7265625 456.0625 C66.91590788 448.77668343 62.89064297 440.71105915 62.9140625 430.6875 C62.46443418 422.08032931 58.7002589 416.17398572 54.0390625 409.1875 C48.27653592 409.82261718 43.05361552 411.30953654 37.5390625 413.0625 C17.74172986 419.1875 17.74172986 419.1875 9.0390625 419.1875 C9.0621452 422.35571343 9.13982421 425.52044054 9.2265625 428.6875 C9.23236328 429.574375 9.23816406 430.46125 9.24414062 431.375 C9.43563224 437.1623021 10.50212281 440.66985278 13.82299805 445.40551758 C18.3846645 452.09003946 17.69135808 460.47410477 17.0390625 468.1875 C16.17773087 471.56431152 14.89073049 474.24797707 13.0390625 477.1875 C12.6265625 477.88359375 12.2140625 478.5796875 11.7890625 479.296875 C7.18053152 486.26204115 0.43896026 490.57515311 -7.6484375 492.5625 C-17.20656294 494.18337092 -25.45252673 492.60241877 -33.7109375 487.5 C-40.99758824 482.29892774 -45.29424117 475.24821392 -47.6484375 466.6875 C-48.63701944 458.77884447 -47.91978877 450.00374568 -42.8984375 443.52734375 C-40.17319407 438.8295955 -40.29055153 434.6538779 -40.2109375 429.3125 C-40.18128906 428.33796875 -40.15164062 427.3634375 -40.12109375 426.359375 C-40.05077886 423.96866873 -39.99789516 421.57891566 -39.9609375 419.1875 C-40.88390625 419.11273438 -41.806875 419.03796875 -42.7578125 418.9609375 C-56.72131703 417.5535487 -70.1469335 413.9495018 -82.9609375 408.1875 C-84.44372856 410.36720286 -85.91130417 412.55482323 -87.359375 414.7578125 C-88.29992456 416.18469501 -89.25667308 417.60152981 -90.25 418.9921875 C-93.15326576 423.35752954 -93.11531518 426.57442931 -92.92578125 431.578125 C-93.0347061 439.66276918 -96.6713502 447.197989 -101.9609375 453.1875 C-110.56310552 460.36380775 -120.09579413 463.86377959 -131.31640625 463.0078125 C-139.81443618 461.53381793 -146.82101472 457.26055222 -151.8984375 450.3125 C-152.95700147 448.62728613 -153.9817833 446.92005895 -154.9609375 445.1875 C-155.50234375 444.24970703 -155.50234375 444.24970703 -156.0546875 443.29296875 C-159.38105468 436.22443849 -159.12151366 426.94033571 -157.3046875 419.5 C-153.9134674 411.08041905 -147.2534796 403.93717121 -138.9609375 400.1875 C-137.9709375 400.1875 -136.9809375 400.1875 -135.9609375 400.1875 C-135.69539062 399.49269531 -135.42984375 398.79789062 -135.15625 398.08203125 C-133.85490674 394.93073924 -132.37390367 391.91749829 -130.8359375 388.875 C-130.29710937 387.80636719 -129.75828125 386.73773438 -129.203125 385.63671875 C-128.79320312 384.82847656 -128.38328125 384.02023437 -127.9609375 383.1875 C-128.42242187 382.78660156 -128.88390625 382.38570313 -129.359375 381.97265625 C-131.56515835 380.05022451 -133.76268709 378.11854007 -135.9609375 376.1875 C-137.16943359 375.13949219 -137.16943359 375.13949219 -138.40234375 374.0703125 C-144.38175503 368.81142496 -149.75509963 363.21067956 -154.9609375 357.1875 C-156.02054687 357.8371875 -157.08015625 358.486875 -158.171875 359.15625 C-159.55975525 360.00023123 -160.94778379 360.84396864 -162.3359375 361.6875 C-163.38394531 362.33138672 -163.38394531 362.33138672 -164.453125 362.98828125 C-169.734375 366.1875 -169.734375 366.1875 -171.9609375 366.1875 C-172.03957031 367.07179688 -172.11820312 367.95609375 -172.19921875 368.8671875 C-173.69776983 375.39933323 -179.72637674 380.82396839 -185.0859375 384.6875 C-193.77868772 389.22284794 -204.31744673 389.8172153 -213.7734375 387.125 C-221.90450024 383.88468822 -228.26954474 378.11880573 -231.9609375 370.1875 C-235.67496964 360.79086744 -235.23886591 349.87439014 -231.26953125 340.6171875 C-226.30314541 331.39601738 -218.71571187 326.79685697 -208.89453125 323.4921875 C-206.54865676 323.12253455 -204.56637829 323.46105618 -202.2109375 323.75 C-193.58363378 323.94900158 -186.72459913 317.93988458 -179.9609375 313.1875 C-180.33605469 312.07117188 -180.71117187 310.95484375 -181.09765625 309.8046875 C-184.10187389 300.68354347 -186.71856615 291.55743195 -188.8359375 282.1875 C-189.15824341 280.7641333 -189.15824341 280.7641333 -189.48706055 279.31201172 C-190.9609375 272.61168551 -190.9609375 272.61168551 -190.9609375 269.1875 C-194.12915093 269.2105827 -197.29387804 269.28826171 -200.4609375 269.375 C-201.3478125 269.38080078 -202.2346875 269.38660156 -203.1484375 269.39257812 C-209.81195555 269.61306218 -213.5943865 271.37969508 -218.9609375 275.1875 C-225.71801186 278.64997599 -235.51190208 278.33543801 -242.76171875 276.46484375 C-244.9696946 275.52292659 -246.93215586 274.46706352 -248.9609375 273.1875 C-249.58226562 272.836875 -250.20359375 272.48625 -250.84375 272.125 C-257.70458989 267.8481128 -261.89998985 260.89487958 -263.9609375 253.1875 C-264.95945262 242.08772728 -264.31040952 232.4530134 -257.2109375 223.375 C-251.54071678 217.30385459 -244.50804915 213.63935733 -236.2265625 212.81640625 C-227.75577967 212.56314094 -221.12362282 213.11521211 -213.9609375 218.1875 C-212.9709375 219.1775 -212.9709375 219.1775 -211.9609375 220.1875 C-209.6364036 220.55801993 -209.6364036 220.55801993 -206.953125 220.6015625 C-205.47392578 220.65957031 -205.47392578 220.65957031 -203.96484375 220.71875 C-202.93230469 220.7496875 -201.89976562 220.780625 -200.8359375 220.8125 C-199.27552734 220.87050781 -199.27552734 220.87050781 -197.68359375 220.9296875 C-195.10955439 221.02414766 -192.53552595 221.10971214 -189.9609375 221.1875 C-189.88617188 220.26453125 -189.81140625 219.3415625 -189.734375 218.390625 C-188.3269862 204.42712047 -184.7229393 191.001504 -178.9609375 178.1875 C-181.14064036 176.70470894 -183.32826073 175.23713333 -185.53125 173.7890625 C-186.95813251 172.84851294 -188.37496731 171.89176442 -189.765625 170.8984375 C-194.12585709 167.99857023 -197.34059526 168.02502018 -202.33984375 168.23046875 C-210.68187789 168.09371409 -217.38784894 164.32484606 -223.5234375 158.9375 C-230.61468471 150.93711853 -233.79884132 142.87111167 -233.9609375 132.1875 C-233.3572162 124.07080259 -229.70813447 116.52739295 -223.625 111.10546875 C-221.14063706 109.28997275 -218.63879658 107.70088974 -215.9609375 106.1875 C-215.33574219 105.8265625 -214.71054688 105.465625 -214.06640625 105.09375 C-206.99787599 101.76738282 -197.71377321 102.02692384 -190.2734375 103.84375 C-182.54234496 106.95766227 -175.93026076 112.8839452 -171.9609375 120.1875 C-171.744375 121.54875 -171.744375 121.54875 -171.5234375 122.9375 C-171.245 124.05125 -171.245 124.05125 -170.9609375 125.1875 C-169.31887026 125.91264648 -167.64507914 126.56630022 -165.9609375 127.1875 C-163.84783172 128.21091133 -161.74382858 129.25329132 -159.6484375 130.3125 C-158.57980469 130.85132813 -157.51117188 131.39015625 -156.41015625 131.9453125 C-155.60191406 132.35523438 -154.79367188 132.76515625 -153.9609375 133.1875 C-153.56003906 132.72601563 -153.15914063 132.26453125 -152.74609375 131.7890625 C-150.82366201 129.58327915 -148.89197757 127.38575041 -146.9609375 125.1875 C-145.91292969 123.97900391 -145.91292969 123.97900391 -144.84375 122.74609375 C-139.58486246 116.76668247 -133.98411706 111.39333787 -127.9609375 106.1875 C-128.610625 105.12789063 -129.2603125 104.06828125 -129.9296875 102.9765625 C-130.77366873 101.58868225 -131.61740614 100.20065371 -132.4609375 98.8125 C-133.10482422 97.76449219 -133.10482422 97.76449219 -133.76171875 96.6953125 C-136.9609375 91.4140625 -136.9609375 91.4140625 -136.9609375 89.1875 C-137.6209375 89.14625 -138.2809375 89.105 -138.9609375 89.0625 C-145.956063 87.02225506 -151.98428921 81.18344322 -155.9609375 75.1875 C-160.32141577 66.96018251 -160.39029757 56.21259069 -157.8984375 47.375 C-154.65812572 39.24393726 -148.89224323 32.87889276 -140.9609375 29.1875 C-132.76405997 25.90173312 -122.88217046 25.70677504 -114.4296875 28.25 C-105.11870121 32.57631686 -99.57785873 38.70485563 -95.6875 48.109375 C-94.28900053 52.10938424 -94.00655856 54.72395522 -94.5234375 58.9375 C-94.72243908 67.56480372 -88.71332208 74.42383837 -83.9609375 81.1875 C-82.78660156 80.80078125 -81.61226562 80.4140625 -80.40234375 80.015625 C-72.25501723 77.36687062 -64.11613078 74.83843002 -55.7734375 72.875 C-55.10449463 72.71612305 -54.43555176 72.55724609 -53.74633789 72.39355469 C-49.16512648 71.35145935 -44.6227743 70.71124362 -39.9609375 70.1875 C-39.9840202 67.01928657 -40.06169921 63.85455946 -40.1484375 60.6875 C-40.15423828 59.800625 -40.16003906 58.91375 -40.16601562 58 C-40.38650764 51.33624118 -42.15344175 47.55437968 -45.9609375 42.1875 C-49.51524138 35.24045152 -48.97910395 25.66511837 -47.2734375 18.1640625 C-44.03649977 9.39735616 -38.32673459 3.29350703 -29.9609375 -0.8125 C-20.74371915 -4.52282095 -8.98180329 -4.32568453 0 0 Z M-29.2734375 19.8125 C-32.42066175 24.24192672 -32.59771427 27.84706546 -31.9609375 33.1875 C-30.57122915 37.06682804 -28.87943199 40.26900551 -25.9609375 43.1875 C-25.73634711 46.08150755 -25.63276502 48.87694378 -25.625 51.7734375 C-25.6150148 53.05343124 -25.6150148 53.05343124 -25.60482788 54.35928345 C-25.59469272 56.16658367 -25.59001113 57.97392139 -25.59033203 59.78125 C-25.58596531 62.54490036 -25.54967438 65.30694561 -25.51171875 68.0703125 C-25.50584944 69.82551537 -25.50188081 71.58072583 -25.5 73.3359375 C-25.48562897 74.16209564 -25.47125793 74.98825378 -25.45645142 75.83944702 C-25.48614872 79.57523141 -25.52721994 81.56679552 -27.70849609 84.68847656 C-30.14778334 86.31184787 -31.56416694 86.77419453 -34.4609375 87.0234375 C-35.77674805 87.16036011 -35.77674805 87.16036011 -37.11914062 87.30004883 C-38.05693359 87.38665771 -38.99472656 87.4732666 -39.9609375 87.5625 C-55.16303525 89.30681747 -69.27794669 93.44976863 -83.015625 100.18359375 C-86.55406381 101.38966639 -88.40934104 101.31491414 -91.9609375 100.1875 C-95.04506708 97.4818565 -97.07589277 94.62553918 -99.125 91.08984375 C-99.68960938 90.12369141 -100.25421875 89.15753906 -100.8359375 88.16210938 C-101.4134375 87.15986328 -101.9909375 86.15761719 -102.5859375 85.125 C-103.74419464 83.13376719 -104.90302362 81.14286686 -106.0625 79.15234375 C-106.82554443 77.83157837 -106.82554443 77.83157837 -107.60400391 76.48413086 C-108.66729214 74.68449927 -109.80146073 72.92671515 -110.9609375 71.1875 C-111.00059296 68.95829665 -110.94667587 66.72680425 -110.8359375 64.5 C-110.76138082 58.47954823 -111.05077484 53.93470054 -114.9609375 49.1875 C-120.15889666 45.05034883 -124.31900188 43.53419486 -130.9609375 44.1875 C-136.38964873 46.53724068 -140.44831118 49.74347631 -142.9609375 55.1875 C-143.84489451 60.83669652 -143.23030774 65.39242365 -139.9609375 70.1875 C-135.90542128 74.33957613 -132.54832638 75.91558693 -126.9140625 77.21875 C-124.14329831 78.59304904 -124.07271209 80.33879721 -122.9609375 83.1875 C-121.91221414 84.97933716 -120.8230679 86.74788638 -119.703125 88.49609375 C-119.07792969 89.49060547 -118.45273438 90.48511719 -117.80859375 91.50976562 C-116.49301091 93.58734446 -115.17007232 95.66028354 -113.83984375 97.72851562 C-112.90591797 99.2222168 -112.90591797 99.2222168 -111.953125 100.74609375 C-111.37933105 101.64642334 -110.80553711 102.54675293 -110.21435547 103.47436523 C-108.46764377 107.25527818 -108.76032693 110.38200484 -109.2109375 114.4375 C-109.9609375 116.1875 -109.9609375 116.1875 -111.58984375 116.94921875 C-115.01898958 118.74005768 -117.73846524 121.2204572 -120.6484375 123.75 C-121.58272583 124.55908813 -121.58272583 124.55908813 -122.53588867 125.38452148 C-131.15029014 132.90609274 -139.23672069 140.88805122 -145.9609375 150.1875 C-145.9609375 150.8475 -145.9609375 151.5075 -145.9609375 152.1875 C-151.60622836 153.78730555 -154.86090389 153.61280668 -160.0718689 150.72433472 C-163.22603702 148.8421849 -166.31615672 146.8720652 -169.3984375 144.875 C-170.68813119 144.06624749 -171.97913855 143.25958588 -173.27148438 142.45507812 C-184.60782346 135.34492935 -184.60782346 135.34492935 -186.0859375 130.5 C-188.00615933 125.30019138 -191.07892265 121.83659331 -195.9609375 119.1875 C-201.29173564 118.07754628 -205.48492799 118.48975005 -210.3984375 120.8125 C-213.91655519 124.07319445 -216.59546193 126.66612919 -217.30859375 131.5859375 C-217.48959128 136.82699638 -217.01235803 140.7682013 -213.9609375 145.1875 C-211.69941394 147.22838712 -209.67944727 148.82824512 -206.9609375 150.1875 C-204.72620474 150.04049752 -202.49189599 149.88702936 -200.2578125 149.73046875 C-190.89190981 149.45468914 -184.7821939 153.45012633 -177.2109375 158.5 C-175.9576351 159.29662628 -174.70242927 160.09026608 -173.4453125 160.88085938 C-163.30360698 167.32967044 -163.30360698 167.32967044 -160.9609375 170.1875 C-160.05664135 175.84146376 -162.44223068 180.31448239 -164.6484375 185.375 C-170.28590053 198.90266726 -174.07792756 212.47439062 -175.40625 227.0859375 C-176.00398254 230.42818849 -176.96678361 232.45918 -178.9609375 235.1875 C-183.80572416 237.60989333 -191.15098535 236.54224564 -196.53540039 236.5925293 C-198.2686765 236.61406772 -200.00184507 236.64812168 -201.73461914 236.69506836 C-204.24153909 236.76234412 -206.74620881 236.78957315 -209.25390625 236.80859375 C-210.02083298 236.83642441 -210.7877597 236.86425507 -211.57792664 236.89292908 C-217.01052245 236.87238792 -219.62098986 235.42155429 -223.44282532 231.57582092 C-226.64658801 228.64596446 -230.57549695 228.85294882 -234.6796875 228.90625 C-239.46073236 229.49569389 -242.21054928 232.33570797 -245.2734375 235.8125 C-248.41914192 240.2397877 -248.59087653 243.85051654 -247.9609375 249.1875 C-245.97542417 254.73398833 -242.19438945 258.57077402 -236.9609375 261.1875 C-230.40631598 262.01702679 -225.46738766 260.80564711 -219.9609375 257.1875 C-218.9709375 256.1975 -218.9709375 256.1975 -217.9609375 255.1875 C-215.06692995 254.96290961 -212.27149372 254.85932752 -209.375 254.8515625 C-208.52167084 254.8449057 -207.66834167 254.8382489 -206.78915405 254.83139038 C-204.98185383 254.82125522 -203.17451611 254.81657363 -201.3671875 254.81689453 C-198.60353714 254.81252781 -195.84149189 254.77623688 -193.078125 254.73828125 C-191.32292213 254.73241194 -189.56771167 254.72844331 -187.8125 254.7265625 C-186.98634186 254.71219147 -186.16018372 254.69782043 -185.30899048 254.68301392 C-181.579519 254.71266103 -179.58335959 254.75295593 -176.46655273 256.92895508 C-174.83598683 259.37493613 -174.33477656 260.88151861 -174.01953125 263.78515625 C-173.91278076 264.66333008 -173.80603027 265.54150391 -173.69604492 266.44628906 C-173.59783447 267.37151367 -173.49962402 268.29673828 -173.3984375 269.25 C-173.15837719 271.16335998 -172.91363603 273.07613888 -172.6640625 274.98828125 C-172.54611328 275.89787598 -172.42816406 276.8074707 -172.30664062 277.74462891 C-171.64870404 282.39386161 -170.45946712 286.74741225 -168.9609375 291.1875 C-168.62956787 292.16976562 -168.62956787 292.16976562 -168.29150391 293.171875 C-165.07657885 302.70203294 -165.07657885 302.70203294 -161.26953125 312.00390625 C-159.74597786 315.71046151 -159.70122702 317.40836856 -160.9609375 321.1875 C-163.67084189 324.26812935 -166.522299 326.30210794 -170.05859375 328.3515625 C-171.02474609 328.91617187 -171.99089844 329.48078125 -172.98632812 330.0625 C-174.48969727 330.92875 -174.48969727 330.92875 -176.0234375 331.8125 C-178.01467031 332.97075714 -180.00557064 334.12958612 -181.99609375 335.2890625 C-182.876604 335.79775879 -183.75711426 336.30645508 -184.66430664 336.83056641 C-186.46393823 337.89385464 -188.22172235 339.02802323 -189.9609375 340.1875 C-193.72301481 340.24867199 -197.44185131 340.0541212 -201.19921875 339.8671875 C-206.86888628 340.34996293 -209.76514345 343.04485236 -213.7734375 346.875 C-216.52125503 351.03598083 -217.38941707 354.22217788 -216.9609375 359.1875 C-215.34182727 364.55612865 -212.67638614 368.08523116 -207.9609375 371.1875 C-204.50521272 372.91536239 -200.74650685 372.54499053 -196.9609375 372.1875 C-192.75247426 370.59940067 -189.7070713 368.75747395 -186.9609375 365.1875 C-186.77055908 364.48641113 -186.58018066 363.78532227 -186.3840332 363.06298828 C-184.48604598 356.15445012 -180.86960753 353.16978866 -174.90258789 349.70195007 C-173.03644544 348.65641872 -171.15626115 347.6401274 -169.2734375 346.625 C-167.99782322 345.91092186 -166.72371646 345.1941437 -165.45117188 344.47460938 C-163.13908108 343.16931937 -160.81965384 341.88457281 -158.48950195 340.61108398 C-156.09752522 339.41384225 -156.09752522 339.41384225 -154.9609375 338.1875 C-148.01462878 337.87877517 -148.01462878 337.87877517 -144.9609375 339.1875 C-144.71085937 339.72375 -144.46078125 340.26 -144.203125 340.8125 C-142.39653385 344.26661138 -139.88605296 347.00668845 -137.3359375 349.9375 C-136.79396729 350.56293701 -136.25199707 351.18837402 -135.69360352 351.83276367 C-124.01323567 365.85953668 -124.01323567 365.85953668 -108.9609375 375.1875 C-107.36113195 380.83279086 -107.53563082 384.08746639 -110.42410278 389.2984314 C-112.3062526 392.45259952 -114.2763723 395.54271922 -116.2734375 398.625 C-117.08219001 399.91469369 -117.88885162 401.20570105 -118.69335938 402.49804688 C-125.80350815 413.83438596 -125.80350815 413.83438596 -130.6484375 415.3125 C-135.83701213 417.21908775 -139.27290361 420.35718455 -141.9609375 425.1875 C-142.97491207 429.95611953 -142.374262 433.89890009 -140.8984375 438.5 C-137.83576438 442.74822401 -134.80318398 445.7107941 -129.4921875 446.6015625 C-124.29465441 446.77376992 -120.33337631 446.20656489 -115.9609375 443.1875 C-113.92005038 440.92597644 -112.32019238 438.90600977 -110.9609375 436.1875 C-111.06541457 434.48414354 -111.17266884 432.78088941 -111.29728699 431.07888794 C-111.91281036 420.43591373 -108.43635216 413.96469335 -102.6484375 405.3125 C-101.85165721 404.05538303 -101.05801741 402.7962699 -100.26757812 401.53515625 C-94.58517868 392.60366079 -94.58517868 392.60366079 -90.9609375 390.1875 C-84.5457042 388.91781841 -79.83622764 390.95545116 -74.16796875 393.75390625 C-62.02300068 399.18289929 -47.59290065 402.67553527 -34.3984375 403.6875 C-30.57113387 403.99595046 -28.02664767 404.71515309 -24.9609375 407.1875 C-22.59063481 411.92810539 -23.60661148 419.01381409 -23.5559082 424.27978516 C-23.53439609 425.95772977 -23.5003737 427.63556423 -23.45336914 429.31298828 C-23.01696913 445.03891884 -23.01696913 445.03891884 -26.92578125 450.2109375 C-27.91658664 451.22400983 -28.92408385 452.22160903 -29.9609375 453.1875 C-31.69139196 456.64840891 -31.30672824 460.39660888 -30.9609375 464.1875 C-28.99659711 469.86226113 -25.33293088 473.50150331 -19.9609375 476.1875 C-14.27762142 476.77856487 -9.81316747 476.45993416 -4.9609375 473.1875 C-1.03067214 469.03888657 0.79563259 465.41894085 1.4140625 459.75 C0.9034232 454.89892667 -1.19113073 451.9913983 -4.57055664 448.546875 C-6.63186554 445.04898401 -6.40905644 441.57346039 -6.39453125 437.625 C-6.3997731 436.79669678 -6.40501495 435.96839355 -6.41041565 435.11499023 C-6.41682862 433.36671061 -6.41550822 431.61838779 -6.40698242 429.87011719 C-6.39846612 427.19648448 -6.42725163 424.52498453 -6.45898438 421.8515625 C-6.46059638 420.15104231 -6.46001886 418.45051833 -6.45703125 416.75 C-6.46826523 415.95198975 -6.47949921 415.15397949 -6.49107361 414.33178711 C-6.44696754 410.81693803 -6.26643491 408.6213645 -4.21728516 405.71118164 C-1.77022865 404.05871684 -0.27880596 403.56262963 2.63671875 403.24609375 C3.95397949 403.08596802 3.95397949 403.08596802 5.29785156 402.92260742 C6.22307617 402.82439697 7.14830078 402.72618652 8.1015625 402.625 C10.01492248 402.38493969 11.92770138 402.14019853 13.83984375 401.890625 C14.74943848 401.77267578 15.6590332 401.65472656 16.59619141 401.53320312 C21.24542411 400.87526654 25.59897475 399.68602962 30.0390625 398.1875 C30.69390625 397.96658691 31.34875 397.74567383 32.0234375 397.51806641 C41.55359544 394.30314135 41.55359544 394.30314135 50.85546875 390.49609375 C54.56202401 388.97254036 56.25993106 388.92778952 60.0390625 390.1875 C64.11409568 393.55494374 66.4047351 397.90824807 68.9765625 402.4375 C69.81788573 403.90168849 70.66033113 405.36523275 71.50390625 406.828125 C71.91616455 407.55378662 72.32842285 408.27944824 72.75317383 409.02709961 C73.61026446 410.46708347 74.51746019 411.87839205 75.47143555 413.25610352 C78.70745627 417.95046814 79.51581968 420.76755128 78.9765625 426.625 C78.75670111 432.92559916 79.36211368 436.57488918 83.33203125 441.51171875 C86.79053692 444.90691082 89.66063096 446.00881443 94.4140625 446.625 C100.51208601 445.88903164 104.62911193 443.95897636 108.4765625 439.125 C110.93349792 434.50596141 111.74834563 430.37905845 111.0390625 425.1875 C108.46982987 420.23934827 105.22868061 416.22855591 99.7890625 414.453125 C98.21137639 413.99802324 96.62389577 413.57511539 95.02734375 413.19140625 C92.2313468 411.77967498 92.15057619 410.07651698 91.0390625 407.1875 C90.07063232 405.42553951 89.06689425 403.68268431 88.03515625 401.95703125 C87.45958984 400.98958984 86.88402344 400.02214844 86.29101562 399.02539062 C85.69224609 398.02701172 85.09347656 397.02863281 84.4765625 396 C83.28726158 394.00680798 82.09843523 392.01333269 80.91015625 390.01953125 C80.12016235 388.70045776 80.12016235 388.70045776 79.31420898 387.35473633 C77.14506171 383.66805811 76.86300199 381.50098247 77.0390625 377.1875 C78.0390625 374.1875 78.0390625 374.1875 79.6796875 373.3515625 C80.45828125 372.96742188 81.236875 372.58328125 82.0390625 372.1875 C84.37298381 370.41064012 86.57685595 368.48768723 88.7890625 366.5625 C89.41522461 366.01907959 90.04138672 365.47565918 90.68652344 364.91577148 C98.20653077 358.34404916 104.70623749 351.6238511 110.62792969 343.57836914 C112.63693641 340.87122854 114.19940388 339.08060575 117.0390625 337.1875 C122.20215455 336.53006507 125.43613048 338.13897046 129.6796875 340.8359375 C130.28794373 341.20852692 130.89619995 341.58111633 131.52288818 341.96499634 C133.45286391 343.15186969 135.3706224 344.35709138 137.2890625 345.5625 C138.59303649 346.36574279 139.89771781 347.16783852 141.203125 347.96875 C152.69627204 355.06390904 152.69627204 355.06390904 154.1640625 359.875 C156.06208386 365.06608842 159.26486957 368.43443753 164.0390625 371.1875 C169.53577567 372.59519484 174.47841054 371.2198671 179.30859375 368.43359375 C182.27869087 366.29485564 183.56802401 364.55862986 185.0390625 361.1875 C185.79813207 355.88191997 185.72048325 351.62896697 183.4140625 346.75 C180.77579919 343.90345275 178.43260463 342.08091001 175.0390625 340.1875 C171.82957526 340.08818914 171.82957526 340.08818914 168.3515625 340.4375 C159.31009721 340.56721814 152.19881494 335.90456801 144.7265625 331.375 C144.12139801 331.01079956 143.51623352 330.64659912 142.89273071 330.2713623 C131.5872331 323.40750873 131.5872331 323.40750873 129.0390625 319.1875 C128.43752754 314.35538947 129.66489068 311.21126189 131.7265625 306.875 C137.21373536 294.75103858 140.30010393 282.20079439 142.36328125 269.08984375 C144.53406513 256.55450796 144.53406513 256.55450796 149.0390625 253.1875 C151.76370024 252.76471139 154.07948468 252.57903661 156.8046875 252.5859375 C157.55691589 252.57736725 158.30914429 252.568797 159.08416748 252.55996704 C160.67439764 252.54849973 162.26473269 252.54746598 163.85498047 252.55615234 C166.26846376 252.56244628 168.67697188 252.51565663 171.08984375 252.46484375 C185.0750001 252.35330837 185.0750001 252.35330837 190.71777344 257.79931641 C191.37181152 258.48646729 191.37181152 258.48646729 192.0390625 259.1875 C195.49997141 260.91795446 199.24817138 260.53329074 203.0390625 260.1875 C208.31228403 258.36215409 210.83597336 255.58030797 214.0390625 251.1875 C215.82889818 245.81799295 215.92337974 240.99014667 213.4140625 235.875 C209.25201399 231.16531353 205.01823347 228.46855386 198.7265625 227.875 C193.77528148 228.29460009 190.90518781 230.35664224 187.3984375 233.79711914 C183.90054651 235.85842804 180.42502289 235.63561894 176.4765625 235.62109375 C175.64825928 235.6263356 174.81995605 235.63157745 173.96655273 235.63697815 C172.21827311 235.64339112 170.46995029 235.64207072 168.72167969 235.63354492 C166.04804698 235.62502862 163.37654703 235.65381413 160.703125 235.68554688 C159.00260481 235.68715888 157.30208083 235.68658136 155.6015625 235.68359375 C154.80355225 235.69482773 154.00554199 235.70606171 153.18334961 235.71763611 C149.66257031 235.67345562 147.47040775 235.49147752 144.55615234 233.43774414 C142.91083778 230.99730895 142.45339068 229.59615679 142.203125 226.6875 C142.11184326 225.81029297 142.02056152 224.93308594 141.92651367 224.02929688 C141.83990479 223.09150391 141.7532959 222.15371094 141.6640625 221.1875 C139.91974503 205.98540225 135.77679387 191.87049081 129.04296875 178.1328125 C127.83689611 174.59437369 127.91164836 172.73909646 129.0390625 169.1875 C132.15245292 165.02845067 136.84440703 162.77379132 141.2890625 160.25 C142.75325099 159.40867677 144.21679525 158.56623137 145.6796875 157.72265625 C146.76854248 157.1040271 146.76854248 157.1040271 147.87939453 156.47290039 C149.31687268 155.61733602 150.72582777 154.71190326 152.10107422 153.75952148 C156.82374615 150.50371398 159.76710722 149.67937087 165.6640625 150.125 C172.82889818 150.64943643 175.8904296 148.81136075 181.2890625 144.3125 C184.07392783 140.93087781 184.82687301 137.5818881 185.4765625 133.3125 C184.73286005 128.00033962 181.84332465 123.83256255 177.9140625 120.25 C173.47000978 117.73170346 169.01254993 117.57433032 164.0390625 118.1875 C159.07908149 120.71428278 155.07619684 124.00989693 153.3046875 129.4375 C152.84958574 131.01518611 152.42667789 132.60266673 152.04296875 134.19921875 C150.63123748 136.9952157 148.92807948 137.07598631 146.0390625 138.1875 C144.27710201 139.15593018 142.53424681 140.15966825 140.80859375 141.19140625 C139.84115234 141.76697266 138.87371094 142.34253906 137.87695312 142.93554688 C136.87857422 143.53431641 135.88019531 144.13308594 134.8515625 144.75 C132.85837048 145.93930092 130.86489519 147.12812727 128.87109375 148.31640625 C127.99171143 148.84306885 127.1123291 149.36973145 126.20629883 149.91235352 C122.51962061 152.08150079 120.35254497 152.36356051 116.0390625 152.1875 C113.0390625 151.1875 113.0390625 151.1875 112.203125 149.546875 C111.62691406 148.37898438 111.62691406 148.37898438 111.0390625 147.1875 C109.26219819 144.85357288 107.33906251 142.64987522 105.4140625 140.4375 C104.87209229 139.81206299 104.33012207 139.18662598 103.77172852 138.54223633 C92.09136067 124.51546332 92.09136067 124.51546332 77.0390625 115.1875 C75.43925695 109.54220914 75.61375582 106.28753361 78.50222778 101.0765686 C80.3843776 97.92240048 82.3544973 94.83228078 84.3515625 91.75 C85.16031501 90.46030631 85.96697662 89.16929895 86.77148438 87.87695312 C93.85570586 76.58195221 93.85570586 76.58195221 98.7890625 74.9375 C103.43091037 73.28030112 105.8508093 70.92008911 109.0390625 67.1875 C110.63613999 62.39626752 111.07490729 57.67610637 109.09765625 52.92578125 C106.74267954 48.93191793 104.53179903 45.75019097 100.0390625 44.1875 C94.19430401 43.29467862 89.48224968 43.33125358 84.5390625 46.8125 C80.50108061 50.3374596 78.25221792 53.68292384 77.7890625 59.125 C77.92843744 62.21611745 77.92843744 62.21611745 78.96875 65.16015625 C79.82050995 71.07351523 75.4749403 75.97241999 72.4140625 80.6875 C71.78371094 81.69425781 71.15335937 82.70101562 70.50390625 83.73828125 C61.09858702 98.65773774 61.09858702 98.65773774 58.0390625 100.1875 C53.17526613 100.59803503 50.09819321 99.57848789 45.7265625 97.5 C33.60260108 92.01282714 21.05235689 88.92645857 7.94140625 86.86328125 C-3.13459918 84.94521424 -3.13459918 84.94521424 -5.66015625 82.62939453 C-7.51427555 79.14874489 -7.4480655 75.80257227 -7.46484375 71.94921875 C-7.47482895 71.15022659 -7.48481415 70.35123444 -7.49510193 69.5280304 C-7.51026698 67.83945887 -7.51732822 66.15079775 -7.5168457 64.4621582 C-7.52339122 61.89316486 -7.57783454 59.32807244 -7.63476562 56.75976562 C-7.643572 55.11459647 -7.64952334 53.46940906 -7.65234375 51.82421875 C-7.6739003 51.06356613 -7.69545685 50.30291351 -7.71766663 49.51921082 C-7.64916928 44.12152309 -6.16195568 41.50849855 -2.3467865 37.70808411 C0.57791672 34.49903518 0.37363293 30.57442275 0.3203125 26.46875 C-0.26610138 21.71228189 -3.10077215 18.96374678 -6.5234375 15.875 C-14.68387267 10.22546796 -23.07439611 12.77575031 -29.2734375 19.8125 Z " fill="#010000" transform="translate(271.9609375,10.8125)"/>
<path d="M0 0 C5.54648833 1.98551333 9.38327402 5.76654805 12 11 C12.59490278 16.72021903 12.20728341 21.07452904 9 26 C8.31558838 26.54406494 7.63117676 27.08812988 6.92602539 27.64868164 C4.18615888 30.99354846 4.40703349 34.16915709 4.43359375 38.30859375 C4.42429588 39.51419701 4.42429588 39.51419701 4.41481018 40.74415588 C4.40771801 42.44115998 4.4108756 44.13823374 4.42358398 45.83520508 C4.43743824 48.42595118 4.40339063 51.01307524 4.36523438 53.60351562 C4.36428299 55.25520921 4.36614304 56.90690731 4.37109375 58.55859375 C4.35783554 59.32956894 4.34457733 60.10054413 4.33091736 60.8948822 C4.39959479 64.8812362 4.83249173 66.784328 7.30444336 69.96704102 C10.76471581 72.5767402 13.93761638 73.03725801 18.125 73.5 C33.98937679 75.71980757 49.61227486 79.80613743 64 87 C66.87306228 87.50095023 66.87306228 87.50095023 70 87 C75.13567008 82.45544933 78.62416999 76.98186482 82.26806641 71.22851562 C83.00269729 70.08136374 83.75138448 68.94308648 84.51416016 67.81445312 C89.65255991 60.20562619 91.93735313 55.00121862 90.28540039 45.81469727 C89.8839066 41.85505494 91.11156908 39.66308671 93.49609375 36.58984375 C97.56324141 32.29028765 100.6167774 30.75509908 106.5 30.5 C111.42603649 30.70720099 114.33297182 31.51185124 118 35 C121.47832163 39.66827377 122.62240016 43.10593239 122.31640625 48.9296875 C121.54639417 53.96803816 118.52958617 56.78553195 114.671875 59.8984375 C113 61 113 61 109.5 62.25 C105.90430666 64.04784667 105.22798641 64.75044562 103.18359375 67.984375 C102.40894775 69.19625488 102.40894775 69.19625488 101.61865234 70.43261719 C101.08449707 71.27985352 100.5503418 72.12708984 100 73 C99.46455566 73.8137207 98.92911133 74.62744141 98.37744141 75.46582031 C96.74038191 77.95808954 95.14912369 80.47538458 93.5625 83 C92.73202148 84.25683594 92.73202148 84.25683594 91.88476562 85.5390625 C88.7064232 90.65290859 87.38931155 94.16616468 88.19506836 100.1875 C89.28868041 102.65003438 90.56537445 102.96117433 93 104 C94.08589733 104.80932566 95.14380357 105.65744457 96.171875 106.5390625 C96.74977783 107.032854 97.32768066 107.52664551 97.9230957 108.03540039 C98.52597412 108.55996826 99.12885254 109.08453613 99.75 109.625 C100.37543701 110.16697021 101.00087402 110.70894043 101.64526367 111.26733398 C122.0162153 129.04864589 122.0162153 129.04864589 125 138 C131.9620561 139.47880903 135.9149413 138.79269685 141.875 135 C142.55900879 134.59080322 143.24301758 134.18160645 143.94775391 133.76000977 C145.98299852 132.53299623 147.99414395 131.27438587 150 130 C150.87398438 129.44675049 150.87398438 129.44675049 151.765625 128.88232422 C154.17953563 127.34848517 156.58065984 125.80049699 158.9609375 124.21484375 C161 123 161 123 163 123 C163.14695312 122.43152344 163.29390625 121.86304688 163.4453125 121.27734375 C165.31410276 114.84397957 168.03723194 109.42124321 173.91796875 105.828125 C178.67944558 103.93425429 183.58365187 104.49225256 188.3125 106.1875 C192.43288969 108.96636746 195.10161149 112.42699301 197 117 C197.24839641 123.61207578 195.42500816 128.26208756 191.0625 133.1875 C187.92432423 135.94529083 186.12498152 137.0338183 181.84887695 136.90527344 C180.63675537 136.80762695 179.42463379 136.70998047 178.17578125 136.609375 C169.64673622 136.29889794 163.98622374 139.44008796 157.01538086 144.04345703 C155.1627674 145.26632543 153.28457804 146.43828358 151.39648438 147.60546875 C144.3274629 151.55108628 144.3274629 151.55108628 140 158 C140.29250805 163.63286924 142.73452407 168.70302384 144.8125 173.875 C149.74723391 186.54425461 153.24994795 198.80075187 154.14208984 212.41894531 C154.39874262 215.48259997 154.74746146 217.63631523 156.51660156 220.18408203 C160.00616673 222.73573222 163.25610092 222.61122998 167.421875 222.6015625 C168.24069153 222.61013275 169.05950806 222.618703 169.90313721 222.62753296 C171.63460602 222.63900469 173.36617121 222.64003081 175.09765625 222.63134766 C177.728269 222.62505201 180.35432285 222.67185067 182.984375 222.72265625 C193.10370744 223.06069344 193.10370744 223.06069344 202.078125 219.0234375 C203.07458436 218.0378668 204.05455259 217.03460623 205 216 C208.12856476 214.43571762 210.52712131 214.71992914 214 215 C220.05896204 217.07606893 224.08813 220.17626 227 226 C227.59057744 231.67862925 227.29370905 236.16922672 224 241 C219.99653611 245.03627917 216.41408246 247.12458106 210.6875 247.3125 C205.29649519 247.25999021 202.17373598 245.09035025 198.32617188 241.39038086 C195.01281813 239.40994954 191.84515209 239.55136948 188.09375 239.56640625 C187.33203491 239.5611644 186.57031982 239.55592255 185.78552246 239.55052185 C184.17847917 239.54411154 182.57138891 239.54542586 180.96435547 239.55395508 C178.50793898 239.56247247 176.05384353 239.53368236 173.59765625 239.50195312 C172.03385486 239.5003411 170.47004937 239.50091866 168.90625 239.50390625 C168.17386108 239.49267227 167.44147217 239.48143829 166.68688965 239.46986389 C163.28245641 239.51631654 161.34640722 239.74305919 158.57910156 241.7956543 C154.97738733 246.82346472 154.6702829 253.77995967 153.75 259.75 C151.57735063 272.75964945 148.09950664 286.02042461 141.8828125 297.7109375 C140.70898452 300.75457996 140.52304407 302.76172023 141 306 C147.64149594 315.01240691 163.03576833 323.81787724 173.63574219 326.72216797 C177.13557843 327.22183377 180.26064061 327.18203228 183.79296875 326.91796875 C187.94692483 327.02422098 189.79430477 328.44280266 193 331 C196.42917072 334.69989473 197.29969749 337.5792349 197.5 342.5 C197.28578227 347.43370215 196.54711702 350.36420505 193 354 C188.50308219 357.23818686 183.80204528 358.85859043 178.23828125 358.5703125 C173.76212755 357.42979166 170.82002796 354.54777711 168 351 C166.9296875 348.7421875 166.9296875 348.7421875 166.0625 346.4375 C164.66379352 342.78509502 163.32093265 341.18353887 160.0078125 339.12109375 C158.80088745 338.35889526 158.80088745 338.35889526 157.56958008 337.58129883 C156.72161865 337.05947021 155.87365723 336.5376416 155 336 C154.17072998 335.47108154 153.34145996 334.94216309 152.48706055 334.3972168 C149.94397189 332.78076162 147.38134395 331.20014277 144.8125 329.625 C143.94947266 329.07972656 143.08644531 328.53445313 142.19726562 327.97265625 C138.66929627 325.81862446 135.77319362 324.15555375 131.69921875 323.3359375 C127.89991491 324.27064322 126.52260766 326.03385693 124 329 C123.54286621 329.52674316 123.08573242 330.05348633 122.61474609 330.59619141 C121.12279699 332.32177681 119.65478339 334.0659144 118.1875 335.8125 C99.42571851 357.85809383 99.42571851 357.85809383 90 361 C88.52119097 367.9620561 89.20730315 371.9149413 93 377.875 C93.40919678 378.55900879 93.81839355 379.24301758 94.23999023 379.94775391 C95.46700377 381.98299852 96.72561413 383.99414395 98 386 C98.55324951 386.87398438 98.55324951 386.87398438 99.11767578 387.765625 C100.65151483 390.17953563 102.19950301 392.58065984 103.78515625 394.9609375 C105 397 105 397 105 399 C105.56847656 399.14695312 106.13695312 399.29390625 106.72265625 399.4453125 C113.14933616 401.31216109 118.63337427 404.03451675 122.16796875 409.95703125 C123.82364569 414.02237886 123.62111022 418.05197249 122.3125 422.15625 C120.15782243 426.96836324 117.74847768 429.474214 113 432 C107.96375821 433.67874726 104.29493167 433.5358338 99.375 431.5 C95.21023256 428.76422726 92.63616992 425.73013686 91 421 C91.06311112 418.70817956 91.20004147 416.4178892 91.38671875 414.1328125 C91.70154407 405.62526671 88.54781269 399.9679018 83.95654297 393.01538086 C82.73367457 391.1627674 81.56171642 389.28457804 80.39453125 387.39648438 C76.44983084 380.32538845 76.44983084 380.32538845 70 376 C64.6040055 376.33181811 59.68981728 378.46106991 54.6875 380.375 C36.97768819 387.07831289 36.97768819 387.07831289 27.5 388.625 C26.76241455 388.75269775 26.0248291 388.88039551 25.26489258 389.01196289 C21.40544146 389.66520553 17.59482342 390.15886831 13.6875 390.4375 C10.07361236 390.71450324 10.07361236 390.71450324 7.80712891 392.50878906 C5.27052805 396.00561089 5.38877281 399.25730075 5.3984375 403.421875 C5.38558212 404.65009979 5.38558212 404.65009979 5.37246704 405.90313721 C5.36099531 407.63460602 5.35996919 409.36617121 5.36865234 411.09765625 C5.37494799 413.728269 5.32814933 416.35432285 5.27734375 418.984375 C4.93930656 429.10370744 4.93930656 429.10370744 8.9765625 438.078125 C9.9621332 439.07458436 10.96539377 440.05455259 12 441 C13.56428238 444.12856476 13.28007086 446.52712131 13 450 C11.19351232 455.27219502 8.76359632 458.94641261 4 462 C-0.07047347 463.35682449 -3.74391717 463.52472254 -8 463 C-13.3035228 460.29820537 -17.09832298 456.70503105 -19 451 C-19.5498332 446.26782905 -19.50571075 442.92422999 -17.1875 438.6875 C-15 436 -15 436 -13.39038086 434.33984375 C-11.38388121 430.96314618 -11.55154537 427.69325165 -11.56640625 423.875 C-11.5611644 423.09108887 -11.55592255 422.30717773 -11.55052185 421.49951172 C-11.5441106 419.84538963 -11.54542707 418.1912219 -11.55395508 416.53710938 C-11.56247208 414.00828879 -11.53368359 411.4817229 -11.50195312 408.953125 C-11.50034111 407.34375068 -11.50091866 405.73437236 -11.50390625 404.125 C-11.48705528 402.99360596 -11.48705528 402.99360596 -11.46986389 401.83935547 C-11.51667413 398.30881324 -11.70463368 396.37894058 -13.90600586 393.5546875 C-17.51883011 390.87234346 -20.09393524 390.77572635 -24.5625 390.375 C-32.17902237 389.54223637 -39.43940647 387.73871488 -46.8125 385.6875 C-47.84898682 385.40374512 -48.88547363 385.11999023 -49.95336914 384.82763672 C-56.11610302 383.06208878 -61.80033035 380.8734006 -67.54614258 378.02514648 C-71.25013668 376.47773118 -75.1268352 375.75766412 -79 377 C-87.74838187 385.05600611 -98.74561258 399.86797535 -99.8359375 411.9921875 C-99.85141807 414.70796537 -99.55047148 417.08450232 -99.13671875 419.79296875 C-98.9559956 424.0322175 -100.379925 425.7578928 -103 429 C-107.40662779 432.87249109 -111.64197815 433.46425422 -117.35546875 433.4140625 C-121.91234027 432.70057892 -124.86544253 430.26777616 -128 427 C-130.8628662 422.7057007 -130.96989077 416.97826748 -130 412 C-127.26293726 406.99630718 -123.72847894 404.06231068 -118.4375 402.0625 C-114.78518962 400.66342126 -113.18361088 399.32104832 -111.12109375 396.0078125 C-110.35889526 394.80088745 -110.35889526 394.80088745 -109.58129883 393.56958008 C-109.05947021 392.72161865 -108.5376416 391.87365723 -108 391 C-107.47108154 390.17072998 -106.94216309 389.34145996 -106.3972168 388.48706055 C-104.78076162 385.94397189 -103.20014277 383.38134395 -101.625 380.8125 C-101.07972656 379.94947266 -100.53445312 379.08644531 -99.97265625 378.19726562 C-96.17657686 372.07383309 -96.17657686 372.07383309 -96 365 C-96.62744385 361.94813589 -96.62744385 361.94813589 -98.640625 361.1640625 C-99.41921875 360.77992188 -100.1978125 360.39578125 -101 360 C-103.33392712 358.22313569 -105.53762478 356.30000001 -107.75 354.375 C-108.37543701 353.83302979 -109.00087402 353.29105957 -109.64526367 352.73266602 C-130.0162153 334.95135411 -130.0162153 334.95135411 -133 326 C-139.16113809 324.41451909 -143.25906254 324.66951651 -148.83203125 327.859375 C-150.84228056 329.1301162 -152.83569012 330.42783958 -154.8125 331.75 C-155.82248047 332.39710938 -156.83246094 333.04421875 -157.87304688 333.7109375 C-159.74960104 334.91490493 -161.61941121 336.12950317 -163.47973633 337.35839844 C-165.19821832 338.47775065 -166.95384491 339.54157837 -168.73730469 340.55419922 C-171.6790022 342.43386394 -172.22763576 344.13983188 -173.4375 347.375 C-175.57205072 352.46560045 -177.38959038 354.99321112 -182 358 C-187.36950705 359.78983568 -192.19735333 359.88431724 -197.3125 357.375 C-202.36097571 352.91355635 -204.65355996 348.84646684 -205.08984375 342.16796875 C-204.91378739 337.91965215 -203.29412309 335.27320193 -200.30859375 332.3359375 C-197.97385981 330.27903203 -195.79017078 328.39508539 -193 327 C-190.77073524 327.16534944 -188.54158874 327.33229426 -186.3125 327.5 C-177.4721876 327.79075755 -171.89619832 324.16074422 -164.83740234 319.24462891 C-163.00833585 318.00564658 -161.14694176 316.87348738 -159.23828125 315.76171875 C-158.64031738 315.41173828 -158.04235352 315.06175781 -157.42626953 314.70117188 C-156.85247559 314.36666016 -156.27868164 314.03214844 -155.6875 313.6875 C-150.60534096 310.88118418 -150.60534096 310.88118418 -148 306 C-148.33181811 300.6040055 -150.46106991 295.68981728 -152.375 290.6875 C-159.07831289 272.97768819 -159.07831289 272.97768819 -160.625 263.5 C-160.75269775 262.76241455 -160.88039551 262.0248291 -161.01196289 261.26489258 C-161.66520553 257.40544146 -162.15886831 253.59482342 -162.4375 249.6875 C-162.71801881 246.07743088 -162.71801881 246.07743088 -164.48852539 243.80273438 C-168.08145463 241.22373277 -171.48524685 241.42650956 -175.74609375 241.46875 C-177.01828514 241.46300964 -177.01828514 241.46300964 -178.31617737 241.45715332 C-180.10736276 241.45443514 -181.89858791 241.46178981 -183.68969727 241.47851562 C-186.42489644 241.49990146 -189.15746123 241.47872595 -191.89257812 241.453125 C-193.63542244 241.45576881 -195.37826513 241.4608949 -197.12109375 241.46875 C-197.9358165 241.46065308 -198.75053925 241.45255615 -199.58995056 241.44421387 C-204.70392697 241.528225 -207.2091157 242.28322054 -211 246 C-215.42667069 248.45926149 -220.05198384 248.70810832 -225 248 C-230.3035228 245.29820537 -234.09832298 241.70503105 -236 236 C-236.54225459 231.33305478 -236.4698456 227.92228952 -234.3125 223.6875 C-231.28956376 220.17435788 -227.88736561 216.30028602 -223.046875 215.796875 C-217.90053666 215.69184769 -214.4390207 216.10947489 -210 219 C-209.45666016 219.68586182 -208.91332031 220.37172363 -208.35351562 221.07836914 C-204.99247663 223.82263656 -201.80620087 223.5561611 -197.65625 223.49609375 C-196.85014282 223.49754898 -196.04403564 223.49900421 -195.21350098 223.50050354 C-193.51225158 223.49884643 -191.8109869 223.48730599 -190.10986328 223.46655273 C-187.50879104 223.43759786 -184.90975785 223.44594657 -182.30859375 223.45898438 C-180.65363595 223.45274654 -178.99868457 223.44435525 -177.34375 223.43359375 C-176.56761353 223.43652939 -175.79147705 223.43946503 -174.99182129 223.44248962 C-171.78393149 223.38656336 -169.40081999 223.21522117 -166.54882812 221.68383789 C-162.91113692 217.72905286 -162.8985179 211.30813348 -162.1875 206.1875 C-160.22655635 193.13968261 -156.72603203 180.60964594 -151.2355957 168.60644531 C-148.68798488 162.97223988 -148.68798488 162.97223988 -149 157 C-151.37163453 154.56035718 -154.14907185 152.83447107 -157 151 C-158.27447998 150.11683105 -158.27447998 150.11683105 -159.57470703 149.21582031 C-174.41703518 138.51497725 -174.41703518 138.51497725 -191.94140625 136.8984375 C-196.06769164 137.03545336 -197.83407431 135.53182818 -201 133 C-204.87343579 128.59229721 -205.45979675 124.35823594 -205.41796875 118.64453125 C-204.71168695 114.17581367 -202.25559328 111.04651848 -199 108 C-194.34735783 105.06301963 -189.30689534 105.06046666 -184 106 C-178.94292913 108.68368604 -176.07264604 112.26791892 -174.0625 117.5625 C-172.66192456 121.22126295 -171.31782696 122.81464218 -167.99609375 124.875 C-167.19099365 125.38297119 -166.38589355 125.89094238 -165.55639648 126.41430664 C-164.71278564 126.93758545 -163.8691748 127.46086426 -163 128 C-161.35373086 129.08136807 -159.70789895 130.16340207 -158.0625 131.24609375 C-156.37648611 132.31224959 -154.68897629 133.37604336 -153 134.4375 C-151.74316406 135.26797852 -151.74316406 135.26797852 -150.4609375 136.11523438 C-145.34709141 139.2935768 -141.83383532 140.61068845 -135.8125 139.80493164 C-133.35222327 138.71232222 -133.02815955 137.4341825 -132 135 C-130.3480796 132.89062472 -128.68017136 130.84363808 -126.9375 128.8125 C-126.44507813 128.23661133 -125.95265625 127.66072266 -125.4453125 127.06738281 C-107.36032633 106.12010878 -107.36032633 106.12010878 -98 103 C-96.40298316 96.82379049 -96.66880334 92.7403557 -99.89453125 87.16796875 C-101.17452097 85.15768623 -102.48135576 83.16428135 -103.8125 81.1875 C-105.11354212 79.18284612 -106.41182592 77.17639872 -107.70703125 75.16796875 C-108.2894458 74.29422607 -108.87186035 73.4204834 -109.47192383 72.52026367 C-111 70 -111 70 -112.0859375 67.23535156 C-112.7726557 64.84709065 -112.7726557 64.84709065 -114.91796875 64.06640625 C-115.66691406 63.90011719 -116.41585937 63.73382813 -117.1875 63.5625 C-123.0432234 61.89078542 -127.20557265 58.88668748 -130.4375 53.6875 C-131.56564517 48.29747309 -131.840298 43.82064567 -129.5 38.75 C-125.44983169 34.29481486 -121.51333675 31.40392912 -115.5 30.4375 C-109.49377659 31.40278591 -105.38372915 33.26146851 -101.5625 38.0625 C-99.14251323 42.61207513 -99.06918637 45.21690394 -99.453125 50.265625 C-99.50977024 58.73191039 -96.46279267 64.03848293 -91.95654297 70.90917969 C-90.73570494 72.77180994 -89.56280824 74.65873527 -88.39453125 76.5546875 C-84.45722884 83.65485782 -84.45722884 83.65485782 -78 88 C-72.36713076 87.70749195 -67.29697616 85.26547593 -62.125 83.1875 C-49.45574539 78.25276609 -37.19924813 74.75005205 -23.58105469 73.85791016 C-20.52874529 73.60220781 -18.36157898 73.24722418 -15.81152344 71.50366211 C-13.21730319 67.91825394 -13.42649998 64.51571921 -13.46875 60.25390625 C-13.4649231 59.40577866 -13.46109619 58.55765106 -13.45715332 57.68382263 C-13.45443514 55.89263724 -13.46178981 54.10141209 -13.47851562 52.31030273 C-13.49990146 49.57510356 -13.47872595 46.84253877 -13.453125 44.10742188 C-13.45576881 42.36457756 -13.4608949 40.62173487 -13.46875 38.87890625 C-13.46065308 38.0641835 -13.45255615 37.24946075 -13.44421387 36.41004944 C-13.528225 31.29607303 -14.28322054 28.7908843 -18 25 C-20.45926149 20.57332931 -20.70810832 15.94801616 -20 11 C-15.58862696 2.3406381 -9.3934927 -1.10874012 0 0 Z M-105 129 C-105.73734375 129.67289063 -106.4746875 130.34578125 -107.234375 131.0390625 C-120.83258606 143.91396446 -130.88460752 160.80446818 -138 178 C-138.33515625 178.78761719 -138.6703125 179.57523437 -139.015625 180.38671875 C-145.28109778 196.22444161 -148.17817117 213.183841 -148.1875 230.125 C-148.20586914 231.84589844 -148.20586914 231.84589844 -148.22460938 233.6015625 C-148.23809807 241.58686736 -147.3993998 249.14634961 -146 257 C-145.81179687 258.258125 -145.62359375 259.51625 -145.4296875 260.8125 C-139.27819011 296.1619498 -116.88510541 328.81422287 -87.875 349.5 C-53.60693237 372.78043213 -16.08075123 380.12603221 24.5703125 373.41015625 C60.9459019 366.40847674 94.09982176 344.01658007 115.07421875 313.6171875 C129.69357169 291.70531427 138.99185093 266.41101633 140 240 C140.02868164 239.25427734 140.05736328 238.50855469 140.08691406 237.74023438 C141.26594336 201.35449488 129.99205237 166.67587144 106 139 C105.30390625 138.18273437 104.6078125 137.36546875 103.890625 136.5234375 C94.79038201 126.10010953 84.70460965 117.38624688 73 110 C72.10933838 109.43732422 72.10933838 109.43732422 71.20068359 108.86328125 C50.97892973 96.32033575 27.85802396 88.57159849 4 88 C2.86691406 87.9693042 2.86691406 87.9693042 1.7109375 87.93798828 C-39.19582791 86.95590125 -75.17610624 100.8549347 -105 129 Z " fill="#FB494E" transform="translate(260,24)"/>
<path d="M0 0 C15.58458882 11.94392667 26.80199202 28.49283132 29.859375 48.19140625 C31.63589456 67.77039103 28.14811392 87.23927038 15.65625 102.96484375 C13.46023217 105.45217007 11.18399239 107.82475238 8.859375 110.19140625 C8.34246094 110.80371094 7.82554687 111.41601562 7.29296875 112.046875 C-3.04715664 123.84487708 -21.01220409 130.30668813 -36.23461914 131.33251953 C-55.78331772 132.18872973 -73.71719119 127.85906088 -88.640625 114.62890625 C-90.15003772 113.15934602 -91.65100525 111.681026 -93.140625 110.19140625 C-93.76195312 109.65257812 -94.38328125 109.11375 -95.0234375 108.55859375 C-105.75964052 98.97785652 -113.34405557 81.30514135 -114.27954102 67.07885742 C-115.10701324 46.74174525 -111.41458521 28.29874447 -97.578125 12.69140625 C-96.10856477 11.18199353 -94.63024475 9.681026 -93.140625 8.19140625 C-92.60179687 7.57007813 -92.06296875 6.94875 -91.5078125 6.30859375 C-68.64505839 -19.31147744 -26.66329661 -17.83974903 0 0 Z " fill="#FE4A4F" transform="translate(338.140625,164.80859375)"/>
<path d="M0 0 C2.1786552 3.2679828 2.68891083 5.52262322 3.47265625 9.34765625 C3.73240234 10.59224609 3.99214844 11.83683594 4.25976562 13.11914062 C4.52774734 14.43351153 4.79532087 15.74796572 5.0625 17.0625 C5.59140995 19.63749792 6.12512739 22.21141391 6.66015625 24.78515625 C6.89355713 25.92863525 7.12695801 27.07211426 7.36743164 28.25024414 C7.87324256 30.94257573 7.87324256 30.94257573 9 33 C8.76232586 34.56559664 8.52188857 36.13080314 8.27099609 37.69433594 C7.66974427 42.80985147 7.81533246 47.9812452 7.8125 53.125 C7.80025391 54.27226562 7.78800781 55.41953125 7.77539062 56.6015625 C7.76190193 64.58686736 8.6006002 72.14634961 10 80 C10.28230469 81.8871875 10.28230469 81.8871875 10.5703125 83.8125 C14.624643 107.11062454 25.78429602 129.03895494 41 147 C41.42893555 147.50724609 41.85787109 148.01449219 42.29980469 148.53710938 C65.83791659 176.07094228 100.55012425 194.62843742 136.74169922 197.84765625 C148.01482431 198.60813518 159.32765677 198.21834922 170.54296875 196.92578125 C174.32690795 197.00701836 176.96006996 197.9026853 180.47729492 199.18286133 C185.22230612 200.71983534 190.14903099 201.39080502 195.0625 202.1875 C196.64708008 202.45336914 196.64708008 202.45336914 198.26367188 202.72460938 C200.84145002 203.15618309 203.42012674 203.58116655 206 204 C195.69971985 210.86685343 180.82895972 212.55594187 168.6875 213.4375 C165.07361236 213.71450324 165.07361236 213.71450324 162.80712891 215.50878906 C160.27052805 219.00561089 160.38877281 222.25730075 160.3984375 226.421875 C160.38558212 227.65009979 160.38558212 227.65009979 160.37246704 228.90313721 C160.36099531 230.63460602 160.35996919 232.36617121 160.36865234 234.09765625 C160.37494799 236.728269 160.32814933 239.35432285 160.27734375 241.984375 C159.93930656 252.10370744 159.93930656 252.10370744 163.9765625 261.078125 C164.9621332 262.07458436 165.96539377 263.05455259 167 264 C168.56428238 267.12856476 168.28007086 269.52712131 168 273 C166.19351232 278.27219502 163.76359632 281.94641261 159 285 C154.92952653 286.35682449 151.25608283 286.52472254 147 286 C141.6964772 283.29820537 137.90167702 279.70503105 136 274 C135.4501668 269.26782905 135.49428925 265.92422999 137.8125 261.6875 C140 259 140 259 141.60961914 257.33984375 C143.61611879 253.96314618 143.44845463 250.69325165 143.43359375 246.875 C143.4388356 246.09108887 143.44407745 245.30717773 143.44947815 244.49951172 C143.4558894 242.84538963 143.45457293 241.1912219 143.44604492 239.53710938 C143.43752792 237.00828879 143.46631641 234.4817229 143.49804688 231.953125 C143.49965889 230.34375068 143.49908134 228.73437236 143.49609375 227.125 C143.51294472 225.99360596 143.51294472 225.99360596 143.53013611 224.83935547 C143.48332587 221.30881324 143.29536632 219.37894058 141.09399414 216.5546875 C137.48116989 213.87234346 134.90606476 213.77572635 130.4375 213.375 C122.82097763 212.54223637 115.56059353 210.73871488 108.1875 208.6875 C107.15101318 208.40374512 106.11452637 208.11999023 105.04663086 207.82763672 C98.88389698 206.06208878 93.19966965 203.8734006 87.45385742 201.02514648 C83.74986332 199.47773118 79.8731648 198.75766412 76 200 C67.25161813 208.05600611 56.25438742 222.86797535 55.1640625 234.9921875 C55.14858193 237.70796537 55.44952852 240.08450232 55.86328125 242.79296875 C56.0440044 247.0322175 54.620075 248.7578928 52 252 C47.59337221 255.87249109 43.35802185 256.46425422 37.64453125 256.4140625 C33.08765973 255.70057892 30.13455747 253.26777616 27 250 C24.1371338 245.7057007 24.03010923 239.97826748 25 235 C27.73706274 229.99630718 31.27152106 227.06231068 36.5625 225.0625 C40.21481038 223.66342126 41.81638912 222.32104832 43.87890625 219.0078125 C44.38703857 218.2031958 44.8951709 217.3985791 45.41870117 216.56958008 C45.94052979 215.72161865 46.4623584 214.87365723 47 214 C47.52891846 213.17072998 48.05783691 212.34145996 48.6027832 211.48706055 C50.21923838 208.94397189 51.79985723 206.38134395 53.375 203.8125 C53.92027344 202.94947266 54.46554688 202.08644531 55.02734375 201.19726562 C58.82342314 195.07383309 58.82342314 195.07383309 59 188 C58.37255615 184.94813589 58.37255615 184.94813589 56.359375 184.1640625 C55.58078125 183.77992188 54.8021875 183.39578125 54 183 C51.66607288 181.22313569 49.46237522 179.30000001 47.25 177.375 C46.62456299 176.83302979 45.99912598 176.29105957 45.35473633 175.73266602 C24.9837847 157.95135411 24.9837847 157.95135411 22 149 C15.83886191 147.41451909 11.74093746 147.66951651 6.16796875 150.859375 C4.15771944 152.1301162 2.16430988 153.42783958 0.1875 154.75 C-0.82248047 155.39710938 -1.83246094 156.04421875 -2.87304688 156.7109375 C-4.74960104 157.91490493 -6.61941121 159.12950317 -8.47973633 160.35839844 C-10.19821832 161.47775065 -11.95384491 162.54157837 -13.73730469 163.55419922 C-16.6790022 165.43386394 -17.22763576 167.13983188 -18.4375 170.375 C-20.57205072 175.46560045 -22.38959038 177.99321112 -27 181 C-32.36950705 182.78983568 -37.19735333 182.88431724 -42.3125 180.375 C-47.36097571 175.91355635 -49.65355996 171.84646684 -50.08984375 165.16796875 C-49.91378739 160.91965215 -48.29412309 158.27320193 -45.30859375 155.3359375 C-42.97385981 153.27903203 -40.79017078 151.39508539 -38 150 C-35.77073524 150.16534944 -33.54158874 150.33229426 -31.3125 150.5 C-22.4721876 150.79075755 -16.89619832 147.16074422 -9.83740234 142.24462891 C-8.00833585 141.00564658 -6.14694176 139.87348738 -4.23828125 138.76171875 C-3.64031738 138.41173828 -3.04235352 138.06175781 -2.42626953 137.70117188 C-1.85247559 137.36666016 -1.27868164 137.03214844 -0.6875 136.6875 C4.39465904 133.88118418 4.39465904 133.88118418 7 129 C6.66818189 123.6040055 4.53893009 118.68981728 2.625 113.6875 C-4.07831289 95.97768819 -4.07831289 95.97768819 -5.625 86.5 C-5.75269775 85.76241455 -5.88039551 85.0248291 -6.01196289 84.26489258 C-6.66520553 80.40544146 -7.15886831 76.59482342 -7.4375 72.6875 C-7.71801881 69.07743088 -7.71801881 69.07743088 -9.48852539 66.80273438 C-13.08145463 64.22373277 -16.48524685 64.42650956 -20.74609375 64.46875 C-21.59422134 64.4649231 -22.44234894 64.46109619 -23.31617737 64.45715332 C-25.10736276 64.45443514 -26.89858791 64.46178981 -28.68969727 64.47851562 C-31.42489644 64.49990146 -34.15746123 64.47872595 -36.89257812 64.453125 C-38.63542244 64.45576881 -40.37826513 64.4608949 -42.12109375 64.46875 C-43.34317787 64.45660461 -43.34317787 64.45660461 -44.58995056 64.44421387 C-49.70392697 64.528225 -52.2091157 65.28322054 -56 69 C-60.42667069 71.45926149 -65.05198384 71.70810832 -70 71 C-75.3035228 68.29820537 -79.09832298 64.70503105 -81 59 C-81.54225459 54.33305478 -81.4698456 50.92228952 -79.3125 46.6875 C-76.28956376 43.17435788 -72.88736561 39.30028602 -68.046875 38.796875 C-62.90053666 38.69184769 -59.4390207 39.10947489 -55 42 C-54.45666016 42.68586182 -53.91332031 43.37172363 -53.35351562 44.07836914 C-49.99247663 46.82263656 -46.80620087 46.5561611 -42.65625 46.49609375 C-41.85014282 46.49754898 -41.04403564 46.49900421 -40.21350098 46.50050354 C-38.51225158 46.49884643 -36.8109869 46.48730599 -35.10986328 46.46655273 C-32.50879104 46.43759786 -29.90975785 46.44594657 -27.30859375 46.45898438 C-25.65363595 46.45274654 -23.99868457 46.44435525 -22.34375 46.43359375 C-21.56761353 46.43652939 -20.79147705 46.43946503 -19.99182129 46.44248962 C-16.78393149 46.38656336 -14.40081999 46.21522117 -11.54882812 44.68383789 C-7.91113692 40.72905286 -7.8985179 34.30813348 -7.1875 29.1875 C-5.74958947 19.31925922 -3.15404754 9.46214261 0 0 Z " fill="#E5343E" transform="translate(105,201)"/>
<path d="M0 0 C0.33 0 0.66 0 1 0 C5.28920323 34.31362585 -3.2438322 66.91907794 -24.015625 94.6953125 C-45.38553302 121.67674313 -74.54006838 139.08080249 -108.65234375 144.58984375 C-130.76996754 147.08395312 -150.99306356 143.57766698 -172 137 C-168.96435153 134.97623435 -166.30239189 133.9653872 -162.875 132.75 C-156.93798432 130.50053073 -152.03243449 127.84367044 -147 124 C-146.38640625 123.56171875 -145.7728125 123.1234375 -145.140625 122.671875 C-136.91832752 116.34143358 -132.24307289 106.64773443 -129 97 C-128.38125 95.1746875 -128.38125 95.1746875 -127.75 93.3125 C-125.32716427 82.48613495 -127.0233096 71.50700836 -130 61 C-129.030625 61.45890625 -128.06125 61.9178125 -127.0625 62.390625 C-103.54861681 73.27443097 -80.22915232 75.64322092 -55.4375 66.8125 C-32.48438315 57.34469048 -15.96407718 42.07090562 -5.87695312 19.18212891 C-3.37866781 12.96562718 -1.66790176 6.47915682 0 0 Z " fill="#8ABE00" transform="translate(382,239)"/>
<path d="M0 0 C0 0.33 0 0.66 0 1 C-1.29357422 1.02126953 -1.29357422 1.02126953 -2.61328125 1.04296875 C-27.61298066 2.01972575 -50.83916158 11.63466302 -68.20703125 29.93359375 C-84.95168331 49.23189646 -91.31958376 72.63979489 -90.27832031 97.79492188 C-89.22527061 109.92162052 -84.6747626 122.27821404 -79 133 C-79.66902344 132.7834375 -80.33804688 132.566875 -81.02734375 132.34375 C-97.05231819 127.69758291 -111.76461494 129.19475072 -126.6875 136.6875 C-140.59751813 144.81515594 -149.06383667 156.61388877 -153.32421875 172.09765625 C-154.09513262 175.40857537 -154.68523976 178.61632744 -155 182 C-158.3406225 178.15828413 -160.06299115 173.64537686 -162 169 C-162.35594238 168.14712402 -162.71188477 167.29424805 -163.07861328 166.41552734 C-169.33296174 151.11134813 -171.35002782 135.65780523 -171.125 119.1875 C-171.11597656 117.91068359 -171.10695313 116.63386719 -171.09765625 115.31835938 C-171.07438789 112.21203284 -171.04170155 109.10612428 -171 106 C-170.34 106 -169.68 106 -169 106 C-167.948125 107.3303125 -167.948125 107.3303125 -166.875 108.6875 C-161.95851163 114.78279553 -154.6380902 118.54831619 -147 120 C-135.32668917 121.07310705 -124.83940161 119.8113494 -115.1875 112.8125 C-105.69803621 104.73526131 -100.76623855 95.47121097 -99.76171875 83.0546875 C-99.47603742 70.81549768 -102.67870746 62.01321621 -111 53 C-119.48189844 44.38591613 -130.32723593 41.89248498 -142 41 C-124.44863148 15.73979512 -94.97054642 -0.22677911 -65.11230469 -5.65649414 C-43.17549432 -9.22388806 -20.92926027 -7.42711748 0 0 Z " fill="#89BD00" transform="translate(299,135)"/>
<path d="M0 0 C10.78606557 6.26407244 17.56744549 16.19142571 21 28 C22.25784744 40.72549549 19.54074723 52.88947344 11.4375 62.9375 C7.23742532 67.44869132 2.56718197 70.41523694 -3 73 C-3.67546875 73.32097656 -4.3509375 73.64195312 -5.046875 73.97265625 C-14.6888194 77.86930671 -26.09564678 77.27391855 -35.57421875 73.2578125 C-46.59544387 67.54310318 -54.22635073 58.4411059 -58.08203125 46.70703125 C-60.83338087 35.59626192 -59.54923302 24.60448714 -53.6796875 14.79296875 C-41.26609602 -2.94557863 -19.93470353 -9.46751407 0 0 Z " fill="#FD4A4F" transform="translate(219,284)"/>
<path d="M0 0 C7.470712 3.85499374 11.37701724 8.2312962 14.125 16.25 C15.57133971 25.12753342 12.99459117 31.63815705 8.375 39.0625 C2.50909699 44.76546126 -4.89302638 46.69172584 -12.890625 46.5859375 C-18.76923628 45.924209 -23.59533592 43.54854328 -27.76171875 39.34765625 C-33.44899655 32.17314842 -34.71674047 25.27240567 -33.875 16.25 C-31.58548695 8.89945812 -27.87172169 4.11086834 -21.25 0.375 C-14.08851844 -2.91310966 -7.27792029 -3.02944941 0 0 Z " fill="#FC4A4F" transform="translate(169.875,193.75)"/>
<path d="M0 0 C0.33 0 0.66 0 1 0 C0.835 1.258125 0.67 2.51625 0.5 3.8125 C-1.8392409 28.06492404 2.0686555 50.28150688 17 70 C17.59296875 70.78890625 18.1859375 71.5778125 18.796875 72.390625 C28.25830309 83.95459266 41.21639358 90.90654414 55 96 C55.93585938 96.3609375 56.87171875 96.721875 57.8359375 97.09375 C70.4430806 101.08662817 86.03788042 99.92261104 99 98 C86.27565531 108.13341477 67.64245431 109.38798771 52 108 C36.34816085 105.90545367 22.99388658 97.99388658 12 87 C11.37867188 86.46117187 10.75734375 85.92234375 10.1171875 85.3671875 C-0.61901552 75.78645027 -8.20343057 58.1137351 -9.13891602 43.88745117 C-9.79082729 27.86516984 -8.13798233 14.17476431 0 0 Z " fill="#E5343E" transform="translate(233,188)"/>
<path d="M0 0 C16.38206506 -1.93215888 16.38206506 -1.93215888 20.68505859 1.24365234 C23.8715543 4.9526371 27 10.03045806 27 15 C27.85271484 15.22042969 27.85271484 15.22042969 28.72265625 15.4453125 C35.14933616 17.31216109 40.63337427 20.03451675 44.16796875 25.95703125 C45.82364569 30.02237886 45.62111022 34.05197249 44.3125 38.15625 C42.15782243 42.96836324 39.74847768 45.474214 35 48 C29.96375821 49.67874726 26.29493167 49.5358338 21.375 47.5 C17.26301171 44.79889708 14.51228116 41.73220995 13 37 C13.10911807 34.76727632 13.28335554 32.53736561 13.5 30.3125 C14.02708403 19.4523729 7.18525092 11.37446396 1.19335938 2.80322266 C0 1 0 1 0 0 Z " fill="#E5343D" transform="translate(338,408)"/>
<path d="M0 0 C5.05707087 2.68368604 7.92735396 6.26791892 9.9375 11.5625 C12.0871321 17.14017977 15.96008414 19.15528404 21 22 C22.52449647 22.95249531 24.04560817 23.91044001 25.5625 24.875 C26.696875 25.57625 27.83125 26.2775 29 27 C28.67 32.94 28.34 38.88 28 45 C17.7828233 39.55083909 17.7828233 39.55083909 13.90234375 36.8203125 C6.44922068 31.62990957 1.49741004 30.2152281 -7.58984375 31.109375 C-11.85526983 30.97256867 -13.7139388 29.63749649 -17 27 C-20.87343579 22.59229721 -21.45979675 18.35823594 -21.41796875 12.64453125 C-20.71168695 8.17581367 -18.25559328 5.04651848 -15 2 C-10.34735783 -0.93698037 -5.30689534 -0.93953334 0 0 Z " fill="#E6343E" transform="translate(76,130)"/>
<path d="M0 0 C1.31137654 2.62275308 0.9902963 4.44647398 0.875 7.375 C0.79176241 21.29232481 5.74803164 33.50272084 15.2734375 43.6015625 C25.12573541 52.26819705 35.97624874 56.4184294 49 56.125 C50.16208984 56.11146484 50.16208984 56.11146484 51.34765625 56.09765625 C53.23190843 56.07439388 55.11599832 56.0385364 57 56 C53.75616503 58.7729557 50.86972527 60.69100506 46.875 62.1875 C46.02679688 62.51105469 45.17859375 62.83460938 44.3046875 63.16796875 C34.98203518 66.53360425 24.55738717 66.12690775 15.42578125 62.2578125 C4.40455613 56.54310318 -3.22635073 47.4411059 -7.08203125 35.70703125 C-9.81091727 24.68697664 -8.49900301 13.81245793 -2.84375 3.9921875 C-1.9522152 2.62304477 -0.98592009 1.30282297 0 0 Z " fill="#E5343E" transform="translate(168,295)"/>
<path d="M0 0 C0.66 0.33 1.32 0.66 2 1 C1.67 1.33 1.34 1.66 1 2 C0.13202076 11.11378202 3.22493682 16.75578572 8.125 24.25 C15.57723037 31.37822035 23.90715288 33.97838546 34 35 C29.50539385 40.19688836 25.22149447 42.42491617 18.390625 43.35546875 C11.28822111 43.72663957 5.77497148 42.19722096 0 38 C-5.63808936 32.31521839 -8.04100252 26.5336659 -8.3125 18.5625 C-8.14112357 10.65776215 -5.1512664 5.70816006 0 0 Z " fill="#E4343D" transform="translate(144,197)"/>
<path d="M0 0 C0 0.33 0 0.66 0 1 C-1.36318359 1.05607422 -1.36318359 1.05607422 -2.75390625 1.11328125 C-9.68563184 1.47586382 -16.16138469 2.14685407 -22.9375 3.6875 C-28.9186694 4.97718965 -32.28122293 5.00658845 -38 3 C-55.44961705 0.15430934 -76.41860172 0.11200883 -93.234375 6.1640625 C-96.06680329 7.02019196 -97.28478394 7.04431387 -100 6 C-91.22873824 1.69501014 -82.59285343 -1.63820644 -73.0625 -3.875 C-72.19987549 -4.07762451 -71.33725098 -4.28024902 -70.44848633 -4.48901367 C-47.04926469 -9.70359447 -22.54237411 -7.99955941 0 0 Z " fill="#7CA600" transform="translate(299,135)"/>
<path d="M0 0 C0.33 0 0.66 0 1 0 C4.19213721 25.53709766 0.34668269 48.53520175 -10 72 C-11.31150287 68.33653532 -10.65830107 65.87989234 -9.625 62.1875 C-7.29567919 53.77364494 -6.84238081 45.86964109 -6.875 37.1875 C-6.87113281 36.13884766 -6.86726563 35.09019531 -6.86328125 34.00976562 C-6.86457031 33.01009766 -6.86585938 32.01042969 -6.8671875 30.98046875 C-6.86831543 30.07192139 -6.86944336 29.16337402 -6.87060547 28.22729492 C-6.85532158 25.96053466 -6.85532158 25.96053466 -8 24 C-7.13160537 21.40963512 -6.20503149 18.90619571 -5.1875 16.375 C-3.03021689 10.96402636 -1.30884897 5.68231993 0 0 Z " fill="#7AA400" transform="translate(382,239)"/>
</svg>
