<?xml version="1.0" encoding="UTF-8"?>
<svg version="1.1" xmlns="http://www.w3.org/2000/svg" width="512" height="512">
<path d="M0 0 C2.50949159 0.65993197 3.37563317 1.64047534 5.12287998 3.52923775 C9.71317327 7.63385931 14.09667763 7.38305222 20.03180027 7.31143379 C21.65730305 7.32737839 21.65730305 7.32737839 23.31564426 7.3436451 C26.88174245 7.37165057 30.44635573 7.3576475 34.01251316 7.34317207 C36.49116907 7.3544242 38.96981432 7.3683057 41.44844151 7.3847065 C47.96032675 7.42074483 54.47174248 7.42111775 60.98370457 7.41403389 C67.63335292 7.40989661 74.28286971 7.445979 80.93243504 7.47598457 C93.97088559 7.5298474 107.00911816 7.54717581 120.04766941 7.53848457 C120.33641941 6.75473457 120.62516941 5.97098457 120.92266941 5.16348457 C122.04766941 2.53848457 122.04766941 2.53848457 124.04766941 0.53848457 C130.97948759 -0.14333361 130.97948759 -0.14333361 134.98516941 2.41348457 C137.04766941 4.53848457 137.04766941 4.53848457 138.04766941 6.53848457 C160.81766941 6.86848457 183.58766941 7.19848457 207.04766941 7.53848457 C207.37766941 5.88848457 207.70766941 4.23848457 208.04766941 2.53848457 C210.39511858 0.1910354 211.08044914 0.16979969 214.29766941 0.03848457 C215.04532566 -0.01307793 215.79298191 -0.06464043 216.56329441 -0.11776543 C219.42727919 0.63875886 219.86726623 1.33579132 221.72731113 3.53196907 C224.49037635 6.36337035 226.50999404 7.24256765 230.58392429 7.34054756 C231.6104813 7.31997292 231.6104813 7.31997292 232.65777683 7.29898262 C233.39510548 7.30789024 234.13243412 7.31679787 234.89210606 7.32597542 C237.31336786 7.34717449 239.73194407 7.3250079 242.15313816 7.30020332 C243.84131739 7.30170642 245.52949591 7.30513811 247.21766758 7.31041145 C250.74753812 7.31473575 254.27649274 7.29795463 257.80621433 7.2657795 C262.33290701 7.22590617 266.85789177 7.2353373 271.38463974 7.26001453 C274.86684815 7.27418418 278.34865628 7.26412343 281.8308363 7.24650192 C283.50020804 7.24064961 285.16962066 7.2419582 286.83898067 7.25052643 C289.16883216 7.25850612 291.49616234 7.23431885 293.82574558 7.20132637 C294.51618961 7.20987648 295.20663364 7.21842659 295.91800022 7.22723579 C298.07220666 7.22975296 298.07220666 7.22975296 301.04766941 6.53848457 C303.00535065 4.16963246 303.00535065 4.16963246 304.04766941 1.53848457 C305.57681315 0.00934083 306.98376217 0.07347315 309.11016941 -0.14901543 C312.17111922 -0.07693655 313.59322218 0.1599328 315.96563816 2.13614082 C317.69780103 4.28934114 319.30218538 6.49393036 320.84893894 8.78360176 C322.18830888 10.74437388 323.5794308 12.66094789 324.98126316 14.57754707 C327.79164525 18.42416903 330.57286016 22.29079762 333.34649754 26.16397285 C336.05182817 29.94009883 338.76717067 33.70897002 341.48516941 37.47598457 C342.01843845 38.21526192 342.5517075 38.95453926 343.10113621 39.71621895 C347.63166226 45.98581018 352.219934 52.2118527 356.81695652 58.43277168 C361.30583304 64.51393362 365.73757754 70.63443966 370.15313816 76.76895332 C374.08158973 82.21932318 378.05473769 87.63521299 382.04766941 93.03848457 C387.19012908 99.99764756 392.28529016 106.98865257 397.33551121 114.01504707 C399.96677602 117.67254177 402.61502384 121.31486824 405.30548191 124.92910957 C405.82022068 125.62230293 406.33495945 126.31549629 406.86529636 127.02969551 C407.83893995 128.33806386 408.8164561 129.64356209 409.79840183 130.94571114 C413.04766941 135.31712014 413.04766941 135.31712014 413.04766941 137.53848457 C417.10198454 133.64125545 420.65395829 129.48348526 424.17266941 125.10098457 C424.73889011 124.40013741 425.30511082 123.69929024 425.88848972 122.97720528 C430.01756236 117.85398966 434.09072104 112.68810918 438.14361668 107.50454903 C449.18276012 93.40339386 449.18276012 93.40339386 453.04766941 89.53848457 C456.05514319 89.19893108 458.14659219 88.98234922 461.04766941 89.53848457 C463.95888403 92.013017 464.90475597 93.53384552 465.44220066 97.31192207 C464.92375959 101.55184611 462.92259739 103.89851276 460.23516941 107.03848457 C459.21521573 108.28032524 458.19569614 109.52252255 457.17657566 110.76504707 C456.3917783 111.70719063 456.3917783 111.70719063 455.59112644 112.66836739 C453.22415237 115.53629232 450.95334645 118.47686618 448.67266941 121.41348457 C444.04726179 127.32489504 439.32169283 133.15223811 434.55011082 138.94619942 C431.20319656 143.03197464 428.07489022 147.20989394 425.04766941 151.53848457 C425.46016941 152.21910957 425.87266941 152.89973457 426.29766941 153.60098457 C441.79574242 179.61560712 451.33445725 205.92716969 451.48516941 236.53848457 C451.5180405 237.6548127 451.5509116 238.77114082 451.58477879 239.92129707 C451.63580138 248.51164663 450.50450624 256.71182065 449.06768894 265.16128731 C448.74190908 267.09308295 448.74190908 267.09308295 448.40954781 269.06390476 C445.15108703 288.18728458 441.43980719 307.23126101 437.79719138 326.28420377 C436.7275409 331.88316928 435.66189714 337.48289745 434.59578037 343.0825367 C432.58121516 353.66058722 430.56317778 364.23797208 428.54382044 374.81510872 C426.25762937 386.79080603 423.97535585 398.76724885 421.69340885 410.74375546 C417.78689819 431.24619649 413.87759104 451.7481026 409.96479893 472.24934578 C409.71775689 473.54583024 409.71775689 473.54583024 409.46572411 474.86850631 C409.14285926 476.55757448 408.81800798 478.24626434 408.4910239 479.93453991 C407.62913892 484.39968932 406.81413145 488.86825782 406.05375957 493.35189819 C405.88579343 494.31034966 405.71782728 495.26880113 405.54477125 496.25629658 C405.2235575 498.09383888 404.9146227 499.93358499 404.62008232 501.77559096 C403.77964872 506.50192227 403.14689129 509.57758585 399.04766941 512.53848457 C396.28868948 513.31983631 393.82931859 513.21679657 391.04766941 512.53848457 C388.54766941 510.16348457 388.54766941 510.16348457 387.04766941 507.53848457 C387.04766941 506.87848457 387.04766941 506.21848457 387.04766941 505.53848457 C374.17766941 505.53848457 361.30766941 505.53848457 348.04766941 505.53848457 C347.71766941 507.18848457 347.38766941 508.83848457 347.04766941 510.53848457 C343.83310871 512.68152504 341.81838525 513.01058931 337.98907566 512.93301582 C336.04766941 512.53848457 336.04766941 512.53848457 333.54766941 510.16348457 C332.04766941 507.53848457 332.04766941 507.53848457 332.04766941 505.53848457 C315.87766941 505.53848457 299.70766941 505.53848457 283.04766941 505.53848457 C282.38766941 507.18848457 281.72766941 508.83848457 281.04766941 510.53848457 C279.04766941 512.53848457 279.04766941 512.53848457 275.17266941 512.91348457 C272.02039574 512.83897629 271.20378266 512.65166668 268.54766941 510.72598457 C267.04766941 508.53848457 267.04766941 508.53848457 267.04766941 505.53848457 C252.85766941 505.53848457 238.66766941 505.53848457 224.04766941 505.53848457 C223.38766941 507.18848457 222.72766941 508.83848457 222.04766941 510.53848457 C219.48689176 513.09926222 217.61884338 512.85299821 214.11798191 512.99942207 C211.07987616 512.32301362 210.01389163 510.92833964 208.04766941 508.53848457 C207.10626316 505.45523262 207.10626316 505.45523262 206.48516941 501.80020332 C206.31009609 500.80397202 206.31009609 500.80397202 206.13148594 499.78761482 C205.75308368 497.60292698 205.39939542 495.41511399 205.04766941 493.22598457 C204.78998449 491.68536774 204.53175729 490.14484151 204.27301121 488.60440254 C200.76793809 467.46609009 198.15727807 446.26244637 196.36016941 424.91348457 C196.299231 424.19396614 196.23829258 423.47444771 196.17550755 422.73312569 C194.51424242 402.82595109 193.83890929 382.95026532 193.86016941 362.97598457 C193.86077366 361.91399849 193.86137791 360.85201241 193.86200047 359.75784492 C193.91938481 322.27467286 196.01814087 284.52235206 202.82843113 247.59829903 C204.63144623 237.48380194 205.80939433 228.48449288 200.04766941 219.53848457 C197.84514247 216.84634026 195.42936071 214.42772921 192.93829441 212.00332832 C192.25265415 211.32097618 191.56701389 210.63862404 190.86059666 209.93559456 C188.68218872 207.77282535 186.4900175 205.62461131 184.29766941 203.47598457 C182.84107311 202.03089454 181.38533589 200.58493806 179.93048191 199.13809395 C178.51718621 197.73823083 177.10314748 196.33911739 175.68829441 194.94082832 C175.04217197 194.30209282 174.39604954 193.66335732 173.73034763 193.00526619 C170.66310094 190.00079378 167.55663365 187.08623349 164.29614353 184.2919178 C160.11996808 180.65111591 156.19117511 176.80975961 152.28985691 172.87832832 C151.56026768 172.14727882 150.83067844 171.41622932 150.07898045 170.66302681 C148.50868456 169.08895071 146.93954401 167.51372134 145.37146091 165.93744087 C142.88426354 163.43738008 140.39386849 160.94054385 137.90264988 158.44449043 C131.71864387 152.24717531 125.54010943 146.04441443 119.36139011 139.8418293 C114.13022972 134.5908846 108.89699034 129.34202846 103.6610117 124.09588814 C101.21735061 121.64578359 98.77674093 119.19266764 96.33624363 116.73941231 C94.82613926 115.22567262 93.31589274 113.71207473 91.80548191 112.19864082 C90.80149357 111.186903 90.80149357 111.186903 89.77722263 110.15472603 C85.98949674 106.36658221 82.08236801 102.79526042 78.0291605 99.29413033 C74.67644851 96.32355196 71.53566581 93.14882701 68.38165379 89.9701252 C67.66181812 89.24882927 66.94198246 88.52753334 66.2003336 87.78437996 C64.65131834 86.23158503 63.10345841 84.67763687 61.55665684 83.1226368 C59.10306562 80.65617967 56.64627473 78.19294947 54.18866062 75.73050117 C48.08812949 69.61666248 41.993071 63.49737731 35.8978281 57.37826729 C30.73712859 52.19778174 25.5743489 47.01938605 20.40882969 41.84370613 C17.99840666 39.42684073 15.59103584 37.0069637 13.18377781 34.58694649 C11.69389646 33.09342975 10.20387292 31.60005484 8.71368504 30.10684395 C8.05371021 29.4417028 7.39373539 28.77656166 6.71376133 28.09126472 C2.89299394 24.27007013 -1.03609328 20.6653321 -5.1788702 17.19428444 C-8.34716943 14.23618655 -9.84346695 12.4093937 -10.38983059 8.03848457 C-9.95233059 4.53848457 -9.95233059 4.53848457 -8.45233059 2.10098457 C-5.60427721 0.32095121 -3.35795222 -0.13576527 0 0 Z " fill="#FB4654" transform="translate(9.952330589294434,-0.5384845733642578)"/>
<path d="M0 0 C22.44 0 44.88 0 68 0 C68.99 1.98 69.98 3.96 71 6 C72.37039434 7.83915502 72.37039434 7.83915502 73.890625 9.3671875 C74.70200928 10.22401123 74.70200928 10.22401123 75.52978516 11.09814453 C76.3812915 11.97768799 76.3812915 11.97768799 77.25 12.875 C78.43050405 14.11901731 79.61019953 15.36380245 80.7890625 16.609375 C81.35012695 17.19912109 81.91119141 17.78886719 82.48925781 18.39648438 C84.25009438 20.26545247 85.94925964 22.17950631 87.625 24.125 C90.51745062 27.47794027 93.50043328 30.7430978 96.5 34 C100.14422161 37.958548 103.73913904 41.95176975 107.265625 46.015625 C110.79500714 50.05374691 114.40634226 54.01914681 118 58 C119.50028679 59.66640851 121.00028872 61.33307353 122.5 63 C123.2425 63.825 123.985 64.65 124.75 65.5 C139 81.33333333 153.25 97.16666667 167.5 113 C168.23734375 113.81597656 168.9746875 114.63195312 169.734375 115.47265625 C171.29964245 117.21873908 172.8509116 118.97743604 174.390625 120.74609375 C175.16921875 121.63425781 175.9478125 122.52242188 176.75 123.4375 C177.44609375 124.24058594 178.1421875 125.04367188 178.859375 125.87109375 C182.2426721 129.23586915 186.16786326 131.09499485 190.3984375 133.19921875 C191.20796875 133.60462891 192.0175 134.01003906 192.8515625 134.42773438 C194.51984199 135.26058288 196.19431309 136.08115433 197.875 136.88867188 C204.70923844 140.35460708 209.46011093 144.80366153 213.4375 151.375 C214.8697141 158.05866582 214.7861432 164.17077759 211.32421875 170.18359375 C207.17863704 175.87001115 201.83665462 179.39292512 195 181 C186.70225106 182.07067728 180.71676808 178.81573339 174.1640625 173.8515625 C173.22304688 173.11679688 172.28203125 172.38203125 171.3125 171.625 C167.09305764 168.34084038 167.09305764 168.34084038 162 167.5625 C158.79227608 168.76079361 158.79227608 168.76079361 157.3125 171.8125 C156.84306076 173.19791825 156.41068154 174.59604216 156 176 C150.67268623 192.88487585 150.67268623 192.88487585 143 198 C138.02323651 200.16381021 133.26560908 201.05894508 127.98828125 199.34765625 C121.41342288 196.42967149 116.98776859 191.77852535 114.125 185.1875 C112.19182561 179.20276251 111.84085257 172.88708989 114.4375 167.0625 C117.03075458 162.48232734 120.4873907 158.51910036 123.87890625 154.515625 C127.74206109 150.13232283 127.74206109 150.13232283 129.625 144.75 C128.96931588 140.81589527 128.5073423 140.07631715 125.94140625 137.27734375 C124.98766113 136.22861084 124.98766113 136.22861084 124.01464844 135.15869141 C123.34981445 134.44632324 122.68498047 133.73395508 122 133 C121.37899414 132.3301709 120.75798828 131.6603418 120.11816406 130.97021484 C118.19269785 128.90821558 116.25439528 126.85902839 114.3125 124.8125 C109.47257543 119.69148278 104.64528055 114.56100543 99.875 109.375 C95.60310688 104.7313222 91.30897268 100.10929858 87 95.5 C82.16034615 90.32229666 77.34094129 85.12679723 72.5390625 79.9140625 C68.70948543 75.76028843 64.85791031 71.62745863 61 67.5 C56.65123899 62.84739543 52.31493047 58.18399903 48 53.5 C41.36734654 46.30154871 34.68412556 39.15062942 28 32 C24.46883827 28.2223886 20.93856885 24.44397913 17.4140625 20.66015625 C15.1247332 18.2024361 12.82684549 15.75311962 10.5234375 13.30859375 C9.43215976 12.14335269 8.34100823 10.9779934 7.25 9.8125 C6.74839355 9.28382324 6.24678711 8.75514648 5.72998047 8.21044922 C3.21938113 5.51796041 1.67374937 3.34749874 0 0 Z " fill="#E7EBF0" transform="translate(149,7)"/>
<path d="M0 0 C14.4857594 10.78010002 21.58365113 28.26316564 29.578125 43.95703125 C31.41489634 47.56161091 33.29382633 51.12197959 35.296875 54.63671875 C35.67513428 55.32258057 36.05339355 56.00844238 36.44311523 56.71508789 C37.40797429 58.45869898 38.39988313 60.18727133 39.39453125 61.9140625 C44.24649827 73.92065194 39.85117871 91.76584082 38.625 104.3125 C38.40238617 106.64633728 38.18048404 108.98024254 37.95922852 111.31420898 C37.47394597 116.42142414 36.98465059 121.52823861 36.4921875 126.63476562 C35.17080246 140.34281682 33.87705835 154.05351041 32.57940674 167.76382446 C32.27704948 170.95785429 31.97426185 174.15184287 31.67108154 177.34579468 C29.24648316 202.88919474 26.92185179 228.43901548 24.6875 254 C8.1875 254 -8.3125 254 -25.3125 254 C-25.3125 240.49953227 -25.3125 240.49953227 -24.84106445 235.25244141 C-24.73688202 234.06413727 -24.63269958 232.87583313 -24.52536011 231.65151978 C-24.40999908 230.39753387 -24.29463806 229.14354797 -24.17578125 227.8515625 C-24.05458092 226.49258291 -23.93383521 225.13356271 -23.81350708 223.77450562 C-23.4907216 220.14438369 -23.16132276 216.51489116 -22.83045578 212.88549805 C-22.48305877 209.06331174 -22.14152991 205.24060016 -21.79907227 201.41796875 C-21.04201912 192.9826342 -20.27515956 184.54820828 -19.50535583 176.11402893 C-19.20905897 172.8661099 -18.91370813 169.6181048 -18.61816406 166.37011719 C-16.77380712 146.12967721 -14.88990514 125.89325006 -12.92578125 105.6640625 C-12.81113022 104.48116638 -12.69647919 103.29827026 -12.57835388 102.07952881 C-12.03085953 96.43411766 -11.48037698 90.78903302 -10.92358398 85.14453125 C-10.44773683 80.2977287 -9.98855994 75.44971764 -9.54901123 70.5994873 C-9.39456109 68.90193084 -9.23624432 67.2047205 -9.07354736 65.50793457 C-8.86300154 63.27457303 -8.67385213 61.04055731 -8.4921875 58.8046875 C-8.38632324 57.58507324 -8.28045898 56.36545898 -8.17138672 55.10888672 C-8.37105792 50.70990225 -9.96736279 48.61541485 -13.14453125 45.7109375 C-13.85996094 45.14632812 -14.57539063 44.58171875 -15.3125 44 C-29.26870422 32.28546589 -29.26870422 32.28546589 -30.8515625 22.75390625 C-31.16690054 15.57581657 -30.18392969 10.39051646 -25.3125 5 C-17.99924548 -1.77813833 -9.56837502 -2.88856605 0 0 Z " fill="#E6EBF0" transform="translate(318.3125,251)"/>
<path d="M0 0 C3.0609498 0.07207888 4.48305277 0.30894823 6.85546875 2.28515625 C8.58763162 4.43835657 10.19201597 6.64294578 11.73876953 8.93261719 C13.07813947 10.89338931 14.46926139 12.80996332 15.87109375 14.7265625 C18.68147584 18.57318445 21.46269075 22.43981305 24.23632812 26.31298828 C26.94165876 30.08911425 29.65700126 33.85798545 32.375 37.625 C32.90826904 38.36427734 33.44153809 39.10355469 33.9909668 39.86523438 C38.52149284 46.13482561 43.10976459 52.36086812 47.70678711 58.58178711 C52.19566363 64.66294905 56.62740813 70.78345509 61.04296875 76.91796875 C64.97142032 82.36833861 68.94456828 87.78422842 72.9375 93.1875 C78.07995967 100.14666298 83.17512074 107.13766799 88.2253418 114.1640625 C90.85660661 117.8215572 93.50485442 121.46388367 96.1953125 125.078125 C96.96742065 126.11791504 96.96742065 126.11791504 97.75512695 127.17871094 C98.72877054 128.48707929 99.70628669 129.79257751 100.68823242 131.09472656 C103.9375 135.46613556 103.9375 135.46613556 103.9375 137.6875 C107.99181513 133.79027088 111.54378888 129.63250068 115.0625 125.25 C115.6287207 124.54915283 116.19494141 123.84830566 116.77832031 123.1262207 C120.90739295 118.00300509 124.98055163 112.83712461 129.03344727 107.65356445 C140.07259071 93.55240929 140.07259071 93.55240929 143.9375 89.6875 C146.94497378 89.34794651 149.03642278 89.13136464 151.9375 89.6875 C154.84871462 92.16203243 155.79458656 93.68286094 156.33203125 97.4609375 C155.81359018 101.70086154 153.81242798 104.04752818 151.125 107.1875 C150.10504631 108.42934066 149.08552673 109.67153797 148.06640625 110.9140625 C147.28160889 111.85620605 147.28160889 111.85620605 146.48095703 112.81738281 C144.11398296 115.68530774 141.84317704 118.6258816 139.5625 121.5625 C134.93709238 127.47391047 130.21152342 133.30125353 125.43994141 139.09521484 C122.09302715 143.18099007 118.96472081 147.35890936 115.9375 151.6875 C116.55625 152.7084375 116.55625 152.7084375 117.1875 153.75 C132.68557301 179.76462255 142.22428784 206.07618512 142.375 236.6875 C142.40787109 237.80382812 142.44074219 238.92015625 142.47460938 240.0703125 C142.52563197 248.66066206 141.39433683 256.86083607 139.95751953 265.31030273 C139.63173967 267.24209837 139.63173967 267.24209837 139.2993784 269.21292019 C136.04091762 288.33630001 132.32963778 307.38027644 128.68702197 326.43321919 C127.61737149 332.0321847 126.55172773 337.63191288 125.48561096 343.23155212 C123.47104575 353.80960265 121.45300837 364.38698751 119.43365103 374.96412414 C117.14745996 386.93982145 114.86518644 398.91626427 112.58323944 410.89277089 C108.67672878 431.39521192 104.76742163 451.89711802 100.85462952 472.39836121 C100.68993483 473.26268418 100.52524014 474.12700716 100.3555547 475.01752174 C100.03268985 476.70658991 99.70783857 478.39527977 99.38085449 480.08355534 C98.51896951 484.54870475 97.70396204 489.01727324 96.94359016 493.50091362 C96.77562402 494.45936509 96.60765787 495.41781655 96.43460184 496.405312 C96.11338809 498.24285431 95.80445329 500.08260042 95.50991291 501.92460638 C94.6694793 506.6509377 94.03672187 509.72660128 89.9375 512.6875 C87.9375 513.25390625 87.9375 513.25390625 85.9375 513.25 C85.2775 513.27191406 84.6175 513.29382813 83.9375 513.31640625 C80.66392862 512.2870215 79.68327617 510.59791059 77.9375 507.6875 C77.76698857 504.60393981 78.34477278 501.72004486 78.9296875 498.69921875 C79.0815451 497.81900558 79.23340271 496.93879242 79.38986206 496.03190613 C79.87929691 493.24487314 80.40424858 490.46645456 80.9375 487.6875 C81.09786743 486.82787659 81.25823486 485.96825317 81.42346191 485.08258057 C82.40586845 479.82145218 83.43941599 474.57162284 84.49487305 469.32470703 C85.50075303 464.31910215 86.48939318 459.31010503 87.4765625 454.30078125 C87.68110046 453.26305573 87.88563843 452.2253302 88.09637451 451.15615845 C90.31392268 439.85221266 92.37901029 428.5212849 94.4375 417.1875 C97.71685491 399.15337604 101.1542291 381.15588627 104.69873047 363.17211914 C105.07004165 361.28793395 105.44129876 359.4037381 105.8125 357.51953125 C106.08358078 356.14360558 106.08358078 356.14360558 106.36013794 354.73988342 C108.86674465 341.99290936 111.26466647 329.22539562 113.66270447 316.4576416 C114.84794618 310.150976 116.0476759 303.84711364 117.24992371 297.54367065 C118.43698484 291.31474437 119.60757335 285.08282437 120.77204895 278.84963989 C121.57027685 274.59187877 122.40445117 270.34324323 123.265625 266.09765625 C130.14544652 231.29674397 124.55620988 195.58267696 104.9375 165.6875 C101.4298942 169.0538187 98.51096112 172.53327472 95.625 176.4375 C90.79601378 182.40129798 90.79601378 182.40129798 86.625 183.125 C82.9375 182.6875 82.9375 182.6875 80.4375 181.1875 C78.35939793 177.72399655 78.49123002 175.6956656 78.9375 171.6875 C80.37154013 169.03394985 82.2210501 166.83917864 84.1875 164.5625 C84.67863281 163.96824219 85.16976562 163.37398437 85.67578125 162.76171875 C87.85620227 160.12777016 90.06611982 157.54518839 92.359375 155.0078125 C94.17372892 152.88787927 94.17372892 152.88787927 93.70507812 150.78710938 C92.84199564 148.42626033 91.74838864 146.77923644 90.234375 144.7734375 C89.67298828 144.02191406 89.11160156 143.27039063 88.53320312 142.49609375 C87.92412109 141.69300781 87.31503906 140.88992187 86.6875 140.0625 C85.40023223 138.34175107 84.11379243 136.62038247 82.828125 134.8984375 C82.17521484 134.02670898 81.52230469 133.15498047 80.84960938 132.25683594 C78.00252618 128.43115878 75.2184399 124.56138196 72.4375 120.6875 C67.97815503 114.49034205 63.47489483 108.32772783 58.9375 102.1875 C51.65790486 92.3335488 44.48919487 82.40175404 37.33300781 72.45800781 C31.24511045 64.00156679 25.12861899 55.56875623 18.9375 47.1875 C14.24431227 40.83158291 9.57181525 34.46150242 4.9375 28.0625 C4.421875 27.35287109 3.90625 26.64324219 3.375 25.91210938 C0.7482259 22.27635303 -1.83766689 18.61282964 -4.375 14.9140625 C-4.86613281 14.20072754 -5.35726563 13.48739258 -5.86328125 12.75244141 C-7.07525506 10.665537 -7.7535076 9.07789953 -8.0625 6.6875 C-5.84055363 2.34460482 -4.85001992 0.50746349 0 0 Z " fill="#010000" transform="translate(319.0625,-0.6875)"/>
<path d="M0 0 C5.52351104 1.16226184 8.25627199 6.05319539 11.3515625 10.3359375 C13.38511296 12.9760727 15.67732141 15.22713933 18.07397461 17.53466797 C19.87468092 19.33560871 21.54075348 21.19317493 23.19921875 23.125 C26.86478732 27.34425495 30.66632798 31.41755156 34.51171875 35.47265625 C35.92472902 36.96851403 37.3374846 38.46461242 38.75 39.9609375 C39.45334473 40.70553223 40.15668945 41.45012695 40.88134766 42.21728516 C48.77940248 50.59276667 56.61121569 59.03022641 64.41113281 67.49707031 C68.24029123 71.65060482 72.09162273 75.78303387 75.94921875 79.91015625 C80.78882671 85.08790276 85.60827714 90.28335868 90.41015625 95.49609375 C94.23973332 99.64986782 98.09130844 103.78269762 101.94921875 107.91015625 C106.78316571 113.08184623 111.59879797 118.26957724 116.39257812 123.47851562 C119.13760294 126.4580953 121.89578194 129.42456343 124.66796875 132.37890625 C125.29703125 133.04986328 125.92609375 133.72082031 126.57421875 134.41210938 C127.79139406 135.70916181 129.01005872 137.00481881 130.23046875 138.29882812 C131.32766365 139.46840741 132.41793554 140.6445335 133.5 141.828125 C134.76425609 143.20824284 136.05753918 144.561658 137.35546875 145.91015625 C139.54032692 149.33738475 139.52489919 151.41581969 138.94921875 155.41015625 C137.19140625 158.18359375 137.19140625 158.18359375 134.82421875 160.78515625 C128.017389 168.57972786 122.52013564 174.98671298 122.67578125 185.6484375 C123.31309885 192.08534521 125.54133663 197.55142823 130.38671875 201.91015625 C135.48191206 205.7396646 139.50982547 206.95586755 145.94921875 206.41015625 C150.97127026 205.27182457 154.71840673 203.53969943 157.86328125 199.265625 C161.43782344 193.15804392 163.3758416 186.37209021 165.04296875 179.5390625 C166.18864896 176.84770165 167.44424469 175.87488969 169.94921875 174.41015625 C176.48874373 174.00977717 180.21116806 177.56721672 185.24609375 181.3984375 C190.43565045 185.26060758 195.16220857 188.17056232 201.87109375 187.80078125 C208.4064121 186.57233795 215.25387252 183.22265256 219.13671875 177.73046875 C222.20636655 172.4225361 222.88234214 167.45140871 221.94921875 161.41015625 C220.06073565 155.10776294 216.20669311 151.16808466 210.94921875 147.41015625 C207.92264421 145.801476 204.79384231 144.48968684 201.63671875 143.16015625 C193.28737689 139.42665212 187.82839058 135.51850405 181.94921875 128.41015625 C180.80414187 127.11781893 179.65834798 125.82611644 178.51171875 124.53515625 C177.96644531 123.89835937 177.42117188 123.2615625 176.859375 122.60546875 C174.4408849 119.82593617 171.94641185 117.11870525 169.44921875 114.41015625 C165.84881733 110.50059584 162.30503684 106.55148482 158.82421875 102.53515625 C156.403718 99.79192207 153.92721233 97.10131057 151.44921875 94.41015625 C147.84909119 90.5003403 144.3050427 86.55149157 140.82421875 82.53515625 C138.40371767 79.79192169 135.92719465 77.10132719 133.44921875 74.41015625 C129.82831741 70.47730784 126.2596295 66.50801613 122.7578125 62.46875 C120.51910625 59.92058975 118.23511663 57.41605032 115.94921875 54.91015625 C113.10397647 51.79108614 110.27722295 48.66260234 107.51171875 45.47265625 C104.55037744 42.0632633 101.5074403 38.73245248 98.44921875 35.41015625 C94.21221658 30.80108631 90.02145044 26.16558796 85.94921875 21.41015625 C85.14871094 20.51167969 84.34820312 19.61320312 83.5234375 18.6875 C82.69457031 17.72972656 81.86570312 16.77195312 81.01171875 15.78515625 C80.23957031 14.90601563 79.46742188 14.026875 78.671875 13.12109375 C76.6291393 9.90644846 76.53351898 8.15145414 76.94921875 4.41015625 C77.88671875 2.03515625 77.88671875 2.03515625 79.94921875 0.41015625 C83.17857864 -0.52845851 85.71885599 -0.5405684 88.94921875 0.41015625 C92.13050681 3.01728919 94.47227194 6.14509 96.94921875 9.41015625 C98.06227672 10.71212773 99.18688956 12.00433226 100.32421875 13.28515625 C100.88882813 13.93226562 101.4534375 14.579375 102.03515625 15.24609375 C105.16608388 18.78595887 108.3620527 22.26648099 111.546875 25.7578125 C113.51863719 27.93476621 115.46287212 30.12854299 117.38671875 32.34765625 C120.81690451 36.29682992 124.35925393 40.1403793 127.90209961 43.98803711 C131.01521174 47.37478244 134.06173957 50.80921874 137.07421875 54.28515625 C139.4947195 57.02839043 141.97122517 59.71900193 144.44921875 62.41015625 C148.04934631 66.3199722 151.5933948 70.26882093 155.07421875 74.28515625 C157.4947195 77.02839043 159.97122517 79.71900193 162.44921875 82.41015625 C166.04934631 86.3199722 169.5933948 90.26882093 173.07421875 94.28515625 C175.49472083 97.02839194 177.9712959 99.7189354 180.44921875 102.41015625 C183.566664 105.79740068 186.66956575 109.19379651 189.69921875 112.66015625 C190.53066406 113.59601563 190.53066406 113.59601563 191.37890625 114.55078125 C192.94921875 116.41015625 192.94921875 116.41015625 194.33203125 118.39453125 C198.16038222 123.56581162 202.38248657 125.80431452 208.13671875 128.34765625 C220.94804031 134.01044072 230.45412379 140.52548186 235.96875 153.87890625 C239.58616522 164.31820496 238.53177501 173.47862318 233.94921875 183.41015625 C229.50371167 191.80722517 221.64109283 197.85863781 212.94921875 201.41015625 C211.58796875 202.02890625 211.58796875 202.02890625 210.19921875 202.66015625 C199.86621536 205.04469549 190.28089949 203.26062683 181.2578125 197.7734375 C179.10904005 196.24066163 179.10904005 196.24066163 176.94921875 196.41015625 C176.60890625 197.18359375 176.26859375 197.95703125 175.91796875 198.75390625 C170.69116158 209.98598123 164.5786939 216.80187783 152.94921875 221.41015625 C143.8717075 224.24801548 134.2515598 222.71327299 125.94921875 218.41015625 C115.91194415 212.10599246 110.1471151 203.77093371 107.41796875 192.26953125 C105.09124 178.07648585 109.09904162 168.97132621 116.94921875 157.41015625 C117.76216469 156.18128448 118.5747661 154.95218455 119.38671875 153.72265625 C119.90234375 152.95953125 120.41796875 152.19640625 120.94921875 151.41015625 C120.38074219 150.85328125 119.81226563 150.29640625 119.2265625 149.72265625 C118.45441406 148.95953125 117.68226563 148.19640625 116.88671875 147.41015625 C115.75556641 146.29640625 115.75556641 146.29640625 114.6015625 145.16015625 C111.89855317 142.35762522 109.35460903 139.45579452 106.8034668 136.51611328 C103.74898956 133.0469993 100.56686675 129.7012382 97.38671875 126.34765625 C95.97370848 124.85179847 94.5609529 123.35570008 93.1484375 121.859375 C92.44509277 121.11478027 91.74174805 120.37018555 91.01708984 119.60302734 C83.11903502 111.22754583 75.28722181 102.79008609 67.48730469 94.32324219 C63.65814627 90.16970768 59.80681477 86.03727863 55.94921875 81.91015625 C51.10961079 76.73240974 46.29016036 71.53695382 41.48828125 66.32421875 C37.65870418 62.17044468 33.80712906 58.03761488 29.94921875 53.91015625 C25.11385632 48.73695191 20.2972749 43.54728572 15.50146484 38.33740234 C12.78004494 35.38398661 10.04701535 32.44209008 7.30078125 29.51171875 C6.68074219 28.84978516 6.06070313 28.18785156 5.421875 27.50585938 C4.2304668 26.23510792 3.03784826 24.96548962 1.84375 23.69726562 C-0.94494451 20.72244045 -3.70031662 17.72099633 -6.39453125 14.66015625 C-6.87857422 14.11101563 -7.36261719 13.561875 -7.86132812 12.99609375 C-9.7661909 10.45627671 -10.18745532 8.55365994 -10.05078125 5.41015625 C-7.6966139 0.70182156 -5.27358065 -0.3801657 0 0 Z " fill="#030202" transform="translate(140.05078125,-0.41015625)"/>
<path d="M0 0 C5.22558749 1.27692927 8.56547979 5.86053474 11.89282227 9.81811523 C17.75123328 16.54312153 24.17193082 22.74512662 30.48046875 29.04296875 C31.88634066 30.44951554 33.2920642 31.85621065 34.69764709 33.26304626 C37.63364268 36.20051014 40.57142369 39.13617332 43.51049805 42.07055664 C47.26047123 45.8148331 51.00593631 49.56358184 54.75006771 53.31369877 C57.64888672 56.2161469 60.55010255 59.11618985 63.45202827 62.01553154 C64.83333095 63.39617145 66.21390315 64.77754262 67.59370232 66.15968513 C69.52871414 68.09726229 71.46694716 70.03156177 73.40600586 71.96508789 C73.9646936 72.52579987 74.52338135 73.08651184 75.09899902 73.66421509 C77.98341895 76.53355575 80.930762 79.27827108 84.01026917 81.93797302 C88.13379719 85.50979825 91.99450894 89.29688937 95.8359375 93.16796875 C96.56552673 93.89901825 97.29511597 94.63006775 98.04681396 95.38327026 C99.61710985 96.95734636 101.1862504 98.53257573 102.7543335 100.1088562 C105.24153087 102.608917 107.73192592 105.10575322 110.22314453 107.60180664 C116.40715054 113.79912176 122.58568498 120.00188264 128.7644043 126.20446777 C133.99556469 131.45541247 139.22880407 136.70426861 144.46478271 141.95040894 C146.9084438 144.40051348 149.34905348 146.85362943 151.78955078 149.30688477 C153.29965515 150.82062445 154.80990167 152.33422235 156.3203125 153.84765625 C157.32430084 154.85939407 157.32430084 154.85939407 158.34857178 155.89157104 C162.19786973 159.74129372 166.16470672 163.38779172 170.28507614 166.94550133 C172.4830525 168.86063209 174.57887575 170.86107137 176.65478516 172.9074707 C177.8561058 174.0895385 177.8561058 174.0895385 179.08169556 175.29548645 C179.9184079 176.12481186 180.75512024 176.95413727 181.6171875 177.80859375 C182.50167572 178.68501022 183.38616394 179.5614267 184.29745483 180.46440125 C186.15615181 182.30934339 188.01335752 184.15578901 189.86914062 186.00366211 C191.75758474 187.88055561 193.65049498 189.75296621 195.54785156 191.62084961 C198.31007865 194.34026074 201.05867976 197.07281653 203.8046875 199.80859375 C204.6454483 200.63184647 205.48620911 201.45509918 206.35244751 202.30329895 C215.23677126 211.22033409 221.0255079 220.05989978 221.390625 232.8828125 C221.28972593 239.70791368 220.2724734 246.13106866 218.96728516 252.8034668 C207.35759565 313.30569604 207.41415378 378.37251623 214.078125 439.5078125 C214.23492308 440.99071633 214.39166091 442.47362654 214.54833984 443.95654297 C216.13549211 458.7493997 218.26544902 473.38847096 221.1796875 487.98046875 C222.04501565 492.31356716 222.87732065 496.64479252 223.578125 501.0078125 C223.7740625 502.1525 223.97 503.2971875 224.171875 504.4765625 C224.078125 507.5078125 224.078125 507.5078125 222.359375 510.37890625 C219.98156181 512.59792713 219.24794097 513.1755603 216.078125 513.0703125 C215.418125 513.07160156 214.758125 513.07289063 214.078125 513.07421875 C211.15358862 512.24598091 210.00911105 510.8431585 208.078125 508.5078125 C207.13671875 505.42456055 207.13671875 505.42456055 206.515625 501.76953125 C206.34055168 500.77329994 206.34055168 500.77329994 206.16194153 499.75694275 C205.78353927 497.57225491 205.42985101 495.38444192 205.078125 493.1953125 C204.82044008 491.65469566 204.56221288 490.11416944 204.3034668 488.57373047 C200.79839368 467.43541801 198.18773366 446.23177429 196.390625 424.8828125 C196.32968658 424.16329407 196.26874817 423.44377563 196.20596313 422.70245361 C194.54469801 402.79527902 193.86936488 382.91959324 193.890625 362.9453125 C193.89122925 361.88332642 193.8918335 360.82134033 193.89245605 359.72717285 C193.9498404 322.24400079 196.04859646 284.49167998 202.85888672 247.56762695 C204.66190182 237.45312987 205.83984992 228.45382081 200.078125 219.5078125 C197.87559806 216.81566818 195.4598163 214.39705714 192.96875 211.97265625 C192.28310974 211.29030411 191.59746948 210.60795197 190.89105225 209.90492249 C188.71264431 207.74215328 186.52047309 205.59393924 184.328125 203.4453125 C182.8715287 202.00022247 181.41579148 200.55426598 179.9609375 199.10742188 C178.5476418 197.70755875 177.13360307 196.30844531 175.71875 194.91015625 C175.07262756 194.27142075 174.42650513 193.63268524 173.76080322 192.97459412 C170.69355652 189.9701217 167.58708924 187.05556142 164.32659912 184.26124573 C160.15042367 180.62044383 156.2216307 176.77908754 152.3203125 172.84765625 C151.59072327 172.11660675 150.86113403 171.38555725 150.10943604 170.63235474 C148.53914015 169.05827864 146.9699996 167.48304927 145.4019165 165.9067688 C142.91471913 163.406708 140.42432408 160.90987178 137.93310547 158.41381836 C131.74909946 152.21650324 125.57056502 146.01374236 119.3918457 139.81115723 C114.16068531 134.56021253 108.92744593 129.31135639 103.69146729 124.06521606 C101.2478062 121.61511152 98.80719652 119.16199557 96.36669922 116.70874023 C94.85659485 115.19500055 93.34634833 113.68140265 91.8359375 112.16796875 C90.83194916 111.15623093 90.83194916 111.15623093 89.80767822 110.12405396 C86.01995233 106.33591014 82.1128236 102.76458835 78.05961609 99.26345825 C74.7069041 96.29287989 71.5661214 93.11815494 68.41210938 89.93945312 C67.69227371 89.2181572 66.97243805 88.49686127 66.23078918 87.75370789 C64.68177393 86.20091296 63.133914 84.6469648 61.58711243 83.09196472 C59.13352121 80.62550759 56.67673032 78.1622774 54.21911621 75.6998291 C48.11858508 69.5859904 42.02352659 63.46670524 35.92828369 57.34759521 C30.76758418 52.16710966 25.60480449 46.98871398 20.43928528 41.81303406 C18.02886225 39.39616865 15.62149143 36.97629163 13.2142334 34.55627441 C11.72435205 33.06275768 10.23432851 31.56938277 8.74414062 30.07617188 C8.0841658 29.41103073 7.42419098 28.74588959 6.74421692 28.06059265 C2.92344952 24.23939806 -1.00563769 20.63466003 -5.14841461 17.16361237 C-8.31671384 14.20551448 -9.81301136 12.37872162 -10.359375 8.0078125 C-9.921875 4.5078125 -9.921875 4.5078125 -8.421875 2.0703125 C-5.58171759 0.29521412 -3.35268046 -0.18626003 0 0 Z " fill="#020000" transform="translate(9.921875,-0.5078125)"/>
<path d="M0 0 C13.26793381 9.60070987 20.00635561 24.88085072 27.19140625 39.0859375 C29.25148418 43.14840872 31.37668187 47.15357713 33.62109375 51.1171875 C34.1200415 51.99874512 34.61898926 52.88030273 35.13305664 53.78857422 C36.05874131 55.41036 36.99334036 57.02710959 37.93920898 58.63720703 C45.72818376 72.3430513 44.950543 86.0209363 43.53515625 101.28515625 C43.43784714 102.38451508 43.34053802 103.4838739 43.24028015 104.61654663 C42.92104321 108.20583322 42.59350791 111.79430626 42.265625 115.3828125 C42.03735829 117.92533828 41.80950079 120.46790082 41.58203125 123.01049805 C40.99477399 129.553683 40.39974371 136.0961323 39.80133057 142.63830566 C39.46866711 146.27538725 39.13724205 149.91257955 38.80615234 153.54980469 C36.94322588 173.99124891 35.04128293 194.428803 33.0625 214.859375 C32.9480957 216.04192368 32.83369141 217.22447235 32.71582031 218.44285583 C32.16897138 224.09092603 31.61935041 229.7387011 31.06445312 235.38598633 C30.8658319 237.42528776 30.66726243 239.46459423 30.46875 241.50390625 C30.37335938 242.46514908 30.27796875 243.42639191 30.1796875 244.41676331 C29.77005829 248.64380425 29.4066286 252.8543263 29.23242188 257.09814453 C29.18598541 258.14313866 29.18598541 258.14313866 29.13861084 259.20924377 C29.06878773 261.00615309 29.02481212 262.80401821 28.98339844 264.60180664 C28.33381629 268.08508622 27.20283999 269.28041054 24.453125 271.4453125 C22.453125 272.01171875 22.453125 272.01171875 20.453125 272.0078125 C19.463125 272.04068359 19.463125 272.04068359 18.453125 272.07421875 C15.27117088 271.07364333 14.23021553 269.20543238 12.453125 266.4453125 C12.20420837 263.17030334 12.20420837 263.17030334 12.56225586 259.39086914 C12.65190219 258.34778548 12.65190219 258.34778548 12.74335957 257.28362942 C12.94735497 254.9718114 13.1825899 252.6642856 13.41796875 250.35546875 C13.56887606 248.71652498 13.71782176 247.07739956 13.8649292 245.43811035 C14.26520107 241.03809081 14.69230413 236.64105326 15.12447739 232.24406815 C15.56926096 227.67126154 15.98919378 223.09617882 16.41137695 218.52124023 C17.08886762 211.21081664 17.77988465 203.90180785 18.48242188 196.59375 C19.31579738 187.92147767 20.12064581 179.24704383 20.90625 170.5703125 C22.42040453 153.89696118 23.95857233 137.22688436 25.6484375 120.5703125 C25.83896796 118.67765495 26.02947946 116.78499548 26.2199707 114.89233398 C26.56621778 111.45593219 26.92239933 108.02079743 27.28588867 104.58618164 C29.90072806 86.40144956 29.90072806 86.40144956 25.390625 69.3203125 C24.65835944 68.00099569 23.92807372 66.68057905 23.19921875 65.359375 C22.77495605 64.61204102 22.35069336 63.86470703 21.91357422 63.09472656 C20.15413331 59.90290898 18.50519502 56.6594177 16.86328125 53.40625 C16.21445991 52.12637063 15.56545057 50.84658654 14.91625977 49.56689453 C13.94668446 47.65557719 12.97768695 45.74400293 12.01242065 43.83050537 C3.10742809 24.93892477 3.10742809 24.93892477 -11.859375 11.29296875 C-17.60296057 9.48140179 -24.2734882 9.32285929 -29.99609375 11.28515625 C-34.9849782 14.10743945 -38.63458349 18.01405533 -40.546875 23.4453125 C-41.80729641 30.96935484 -41.19583166 37.38802078 -36.875 43.75390625 C-32.04114843 49.34203332 -26.49311759 54.22962556 -20.94213867 59.09179688 C-19.546875 60.4453125 -19.546875 60.4453125 -18.546875 62.4453125 C-18.72905681 74.35557413 -20.24506843 86.30642879 -21.41549683 98.15054321 C-21.98236303 103.89651255 -22.53745293 109.6436244 -23.09375 115.390625 C-23.2709684 117.21914757 -23.2709684 117.21914757 -23.45176697 119.08460999 C-24.76281996 132.63447423 -26.03849816 146.18756004 -27.29691696 159.74240494 C-27.48432964 161.75732488 -27.67271686 163.77215158 -27.86135864 165.78695679 C-29.32297995 181.41278694 -30.69645455 197.04216175 -31.9240818 212.68823814 C-32.11970157 215.17371765 -32.31756507 217.65900759 -32.51628113 220.14424133 C-32.58114747 220.95600799 -32.64601381 221.76777464 -32.7128458 222.60414028 C-32.84287963 224.2311288 -32.97299784 225.85811058 -33.10320187 227.48508549 C-33.48254889 232.24654775 -33.84514234 237.00893035 -34.19562626 241.77259922 C-34.41642638 244.72548546 -34.65176835 247.67708628 -34.89086342 250.62854195 C-34.99879681 252.00050152 -35.10045391 253.3729715 -35.195364 254.74589348 C-35.32621556 256.62900986 -35.48115156 258.51040616 -35.63720703 260.39160156 C-35.75662155 261.97282806 -35.75662155 261.97282806 -35.87844849 263.58599854 C-36.69269434 267.0690808 -38.09169392 268.87996002 -40.546875 271.4453125 C-42.546875 272.07421875 -42.546875 272.07421875 -44.546875 272.0078125 C-45.206875 272.00910156 -45.866875 272.01039063 -46.546875 272.01171875 C-49.45951756 271.18684928 -50.65570591 269.78267728 -52.546875 267.4453125 C-52.86102295 264.79327393 -52.86102295 264.79327393 -52.59667969 261.73925781 C-52.46341278 260.0228006 -52.46341278 260.0228006 -52.32745361 258.27166748 C-52.14989532 256.41629364 -52.14989532 256.41629364 -51.96875 254.5234375 C-51.86149597 253.23028625 -51.75424194 251.93713501 -51.64373779 250.60479736 C-51.36073883 247.2104958 -51.05100181 243.81923331 -50.73214722 240.4281311 C-50.44508743 237.35596249 -50.17425934 234.28235304 -49.90039062 231.20898438 C-49.35072156 225.15315122 -48.76836806 219.10089321 -48.17474365 213.04922485 C-47.57589171 206.94148643 -46.98847299 200.83265028 -46.40018845 194.72388649 C-46.19489213 192.59329355 -45.98914689 190.46274429 -45.78335571 188.3321991 C-44.35209242 173.49840087 -42.97688313 158.65950898 -41.61156464 143.81951523 C-41.42257852 141.76545893 -41.23343143 139.71141751 -41.04425049 137.65737915 C-38.85862744 113.92183396 -36.69358757 90.1844078 -34.546875 66.4453125 C-35.16780029 66.14818359 -35.78872559 65.85105469 -36.4284668 65.54492188 C-45.40071899 60.88766431 -52.64020153 49.91470308 -55.95141602 40.59570312 C-58.31398831 32.06370773 -57.77434092 21.80338665 -54.046875 13.8203125 C-48.45870822 4.38048871 -41.15545355 -1.72744907 -30.69140625 -5.1640625 C-19.80656775 -7.14672889 -9.43949088 -5.7621432 0 0 Z " fill="#040202" transform="translate(329.546875,240.5546875)"/>
<path d="M0 0 C3.50384364 3.14567296 5.71308935 6.61998296 7.875 10.75 C8.21942139 11.40395752 8.56384277 12.05791504 8.91870117 12.73168945 C14.47460661 23.55650313 18.60933631 35.06251376 21 47 C21.20496094 47.99257812 21.40992188 48.98515625 21.62109375 50.0078125 C25.07117486 69.75655264 22.84651759 88.77893457 18.77832031 108.22167969 C17.5225219 114.31789557 16.38423442 120.43566488 15.2371521 126.55310059 C14.80568955 128.84873559 14.37074321 131.14368572 13.93481445 133.43847656 C12.14393673 142.87325096 10.38337135 152.31330783 8.64453125 161.7578125 C8.33810196 163.42179077 8.33810196 163.42179077 8.02548218 165.11938477 C7.81855743 166.24304443 7.61163269 167.3667041 7.3984375 168.52441406 C3.44997404 189.96359795 -0.59662876 211.37868266 -4.81152344 232.76708984 C-7.85884954 248.23281228 -10.8111899 263.71493707 -13.72065735 279.2071228 C-14.76565431 284.76742457 -15.82255619 290.32540237 -16.8828125 295.8828125 C-17.35387618 298.35632775 -17.82476492 300.82987623 -18.29559326 303.30343628 C-18.59084695 304.85249693 -18.88674951 306.4014341 -19.18341064 307.95022583 C-21.28823551 318.94244538 -23.19092987 329.95486402 -25 341 C-30.94 341 -36.88 341 -43 341 C-42.34090615 334.37319528 -41.33124967 327.89072346 -40.1015625 321.34765625 C-39.8159269 319.80702766 -39.8159269 319.80702766 -39.52452087 318.23527527 C-38.89467291 314.8437218 -38.25996177 311.4530995 -37.625 308.0625 C-37.17553662 305.65009551 -36.72623981 303.23765999 -36.27709961 300.82519531 C-30.76977553 271.28528352 -25.14543368 241.76736966 -19.52392578 212.24902344 C-18.29229321 205.78144384 -17.06214576 199.31358298 -15.83273315 192.84558105 C-15.15348478 189.27474563 -14.47242865 185.70425853 -13.79125977 182.13378906 C-11.35542075 169.3357803 -8.99406867 156.52735926 -6.74209595 143.69558716 C-5.41836841 136.18948128 -3.96289499 128.71753631 -2.4375 121.25 C-1.82123336 118.17567031 -1.20837137 115.10072651 -0.59960938 112.02490234 C-0.20150887 110.01656959 0.20080163 108.00906654 0.60742188 106.00244141 C6.51980154 76.39692717 5.66497957 47.58757954 -6.58398438 19.63354492 C-9.13055923 13.66575946 -9.13055923 13.66575946 -8.44921875 10.19140625 C-6.89714511 7.84447009 -5.27530744 5.76376183 -3.375 3.6875 C-2.74335938 2.99011719 -2.11171875 2.29273438 -1.4609375 1.57421875 C-0.97882813 1.05472656 -0.49671875 0.53523437 0 0 Z " fill="#E21F2C" transform="translate(423,164)"/>
<path d="M0 0 C9.5686012 -0.38331192 15.51068073 -0.31022825 22.8125 6.25 C33.04501337 17.00379235 39.23307477 31.88766605 45.890625 44.95703125 C47.72739634 48.56161091 49.60632633 52.12197959 51.609375 55.63671875 C52.17676392 56.66551147 52.17676392 56.66551147 52.75561523 57.71508789 C53.72047429 59.45869898 54.71238313 61.18727133 55.70703125 62.9140625 C60.55899827 74.92065194 56.16367871 92.76584082 54.9375 105.3125 C54.71488617 107.64633728 54.49298404 109.98024254 54.27172852 112.31420898 C53.78644597 117.42142414 53.29715059 122.52823861 52.8046875 127.63476562 C51.48330246 141.34281682 50.18955835 155.05351041 48.89190674 168.76382446 C48.58954948 171.95785429 48.28676185 175.15184287 47.98358154 178.34579468 C45.5590145 203.88886459 43.2197665 229.43821687 41 255 C35.06 255 29.12 255 23 255 C23.72200383 241.77055599 24.7064166 228.57748933 25.8125 215.375 C25.89959229 214.32787842 25.98668457 213.28075684 26.07641602 212.2019043 C27.30236592 197.50940046 28.68400489 182.84214602 30.24716187 168.18197632 C31.96448642 152.03083194 33.31608333 135.85448972 34.60546875 119.6640625 C35.372507 110.10096873 36.18641923 100.55915519 37.35684204 91.03556824 C39.33923983 74.45020946 37.54224481 62.0328241 29.5625 47.25 C29.0375293 46.26354492 28.51255859 45.27708984 27.97167969 44.26074219 C26.8729986 42.20145131 25.76992245 40.14449964 24.66259766 38.08984375 C23.03605257 35.06700166 21.42873723 32.0345786 19.82421875 29 C12.04157363 12.77953887 12.04157363 12.77953887 0 0 Z " fill="#CBDEE4" transform="translate(302,250)"/>
<path d="M0 0 C2.09567008 0.78275185 4.18550556 1.58128437 6.26953125 2.39453125 C7.85024414 2.97557617 7.85024414 2.97557617 9.46289062 3.56835938 C15.90898116 6.02575369 21.19385764 8.39989331 25.45703125 14.01953125 C27.21217407 20.16253111 26.27891044 24.63535829 23.41503906 30.10644531 C21.05696851 33.8223499 17.95587525 36.70274163 14.76953125 39.70703125 C13.41617704 41.01898761 12.06458855 42.33276806 10.71484375 43.6484375 C10.07836914 44.26605957 9.44189453 44.88368164 8.78613281 45.52001953 C6.80491149 47.48137187 4.95169216 49.52216786 3.14453125 51.64453125 C-8.25756006 64.96636242 -8.25756006 64.96636242 -15.91796875 66.20703125 C-21.98017859 66.43423503 -26.19406028 65.16193136 -30.91796875 61.20703125 C-35.47105481 56.14804674 -37.49005746 52.15770057 -37.34570312 45.37304688 C-36.49587491 39.08276588 -34.19031272 33.19181927 -32.01074219 27.25585938 C-31.16691586 24.95415928 -30.34936762 22.64435234 -29.53515625 20.33203125 C-29.00281766 18.84711205 -28.46901337 17.3627173 -27.93359375 15.87890625 C-27.69175354 15.19753601 -27.44991333 14.51616577 -27.20074463 13.81414795 C-22.13919371 0.14545371 -13.85627208 -4.67263233 0 0 Z " fill="#040202" transform="translate(399.91796875,205.79296875)"/>
<path d="M0 0 C5.94 0 11.88 0 18 0 C18.99 1.98 19.98 3.96 21 6 C22.37039434 7.83915502 22.37039434 7.83915502 23.890625 9.3671875 C24.43154785 9.93840332 24.9724707 10.50961914 25.52978516 11.09814453 C26.09745605 11.68450684 26.66512695 12.27086914 27.25 12.875 C28.43050405 14.11901731 29.61019953 15.36380245 30.7890625 16.609375 C31.35012695 17.19912109 31.91119141 17.78886719 32.48925781 18.39648438 C34.25009438 20.26545247 35.94925964 22.17950631 37.625 24.125 C40.51745062 27.47794027 43.50043328 30.7430978 46.5 34 C50.14422161 37.958548 53.73913904 41.95176975 57.265625 46.015625 C60.79500714 50.05374691 64.40634226 54.01914681 68 58 C69.50028679 59.66640851 71.00028872 61.33307353 72.5 63 C73.2425 63.825 73.985 64.65 74.75 65.5 C89 81.33333333 103.25 97.16666667 117.5 113 C118.23734375 113.81597656 118.9746875 114.63195312 119.734375 115.47265625 C121.29964245 117.21873908 122.8509116 118.97743604 124.390625 120.74609375 C125.16921875 121.63425781 125.9478125 122.52242188 126.75 123.4375 C127.44609375 124.24058594 128.1421875 125.04367188 128.859375 125.87109375 C132.2426721 129.23586915 136.16786326 131.09499485 140.3984375 133.19921875 C141.20796875 133.60462891 142.0175 134.01003906 142.8515625 134.42773438 C144.51984199 135.26058288 146.19431309 136.08115433 147.875 136.88867188 C154.70923844 140.35460708 159.46011093 144.80366153 163.4375 151.375 C164.8697141 158.05866582 164.7861432 164.17077759 161.32421875 170.18359375 C157.20318901 175.83633366 151.82790575 179.45821483 145 181 C142.18730685 181.31252146 139.85325741 181.24597047 137 181 C136.34 180.34 135.68 179.68 135 179 C135.721875 178.71125 136.44375 178.4225 137.1875 178.125 C142.2854131 174.27324343 144.56355672 169.07767765 145.453125 162.8046875 C145.77488625 153.08290111 143.499532 145.3119735 137 138 C132.46477568 134.47172234 127.47658316 131.5993934 122.21484375 129.30078125 C110.88177651 124.28869236 103.90778394 117.43360547 96 108 C94.77342313 106.60189035 93.54487943 105.2054976 92.3125 103.8125 C91.80332031 103.22082031 91.29414063 102.62914063 90.76953125 102.01953125 C88.3911558 99.30513807 85.94491095 96.65427613 83.5 94 C79.89979545 90.09025645 76.35582218 86.14133329 72.875 82.125 C70.45449892 79.38176544 67.9779759 76.69117094 65.5 74 C61.87909866 70.06715159 58.31041075 66.09785988 54.80859375 62.05859375 C52.5698875 59.5104335 50.28589788 57.00589407 48 54.5 C45.15475772 51.38092989 42.3280042 48.25244609 39.5625 45.0625 C36.13231424 41.11332633 32.58996482 37.26977695 29.04711914 33.42211914 C25.93400701 30.03537381 22.88747918 26.60093751 19.875 23.125 C17.45449559 20.38176167 14.97779884 17.69133747 12.5 15 C0 1.40654365 0 1.40654365 0 0 Z " fill="#CADDE3" transform="translate(199,7)"/>
<path d="M0 0 C5.94 0 11.88 0 18 0 C19.32 2.64 20.64 5.28 22 8 C22.95041457 9.46732264 23.94271497 10.90943959 24.99609375 12.3046875 C25.5478125 13.04332031 26.09953125 13.78195313 26.66796875 14.54296875 C27.54388672 15.69732422 27.54388672 15.69732422 28.4375 16.875 C29.6974235 18.55929103 30.95651916 20.2442016 32.21484375 21.9296875 C32.84890137 22.7762793 33.48295898 23.62287109 34.13623047 24.49511719 C36.96688569 28.29948221 39.73442314 32.14820503 42.5 36 C46.95939858 42.19711762 51.46249946 48.35985026 56 54.5 C61.08205078 61.3770356 66.11002797 68.29033083 71.10546875 75.23046875 C75.03392105 80.68083962 79.00714521 86.09667078 83 91.5 C90.33448182 101.42824802 97.55873706 111.43399611 104.765625 121.45507812 C105.95578694 123.10966195 107.14645417 124.76388244 108.33764648 126.41772461 C109.45552176 127.96977536 110.57229105 129.52262354 111.68774414 131.07641602 C112.19426514 131.77951904 112.70078613 132.48262207 113.22265625 133.20703125 C113.69590332 133.86654785 114.16915039 134.52606445 114.65673828 135.20556641 C115.83890131 136.78479183 117.12939625 138.2816744 118.43359375 139.76171875 C120 142 120 142 119.97265625 144.015625 C118.73626648 146.53805875 117.20379585 148.56621604 115.4375 150.75 C114.79683594 151.54921875 114.15617187 152.3484375 113.49609375 153.171875 C113.00238281 153.77515625 112.50867188 154.3784375 112 155 C108.65455476 150.93206424 105.63378169 146.69190416 102.625 142.375 C98.18469153 136.04302775 93.66338397 129.77871728 89.0625 123.5625 C81.75707373 113.69108919 74.56886149 103.7381076 67.39550781 93.77050781 C60.72765706 84.50847805 54.01322961 75.28415107 47.23071289 66.10571289 C42.74183637 60.02455095 38.31009187 53.90404491 33.89453125 47.76953125 C29.96607669 42.31915724 25.99262246 36.90350356 22 31.5 C17.22881998 25.03618707 12.47160291 18.56264391 7.75 12.0625 C7.20085937 11.31097656 6.65171875 10.55945312 6.0859375 9.78515625 C5.57804687 9.08390625 5.07015625 8.38265625 4.546875 7.66015625 C4.10182617 7.04793213 3.65677734 6.43570801 3.19824219 5.80493164 C2 4 2 4 0 0 Z " fill="#E21F2D" transform="translate(294,7)"/>
<path d="M0 0 C2.72009268 2.35741365 2.97887341 3.85475469 3.5 7.4375 C2.88903529 11.79062354 1.29251319 13.36496432 -2 16 C-5.2745718 18.22251933 -8.65224817 20.24368025 -12.0625 22.25 C-12.96033203 22.79140625 -13.85816406 23.3328125 -14.78320312 23.890625 C-22.41501041 28.42998992 -22.41501041 28.42998992 -26 29 C-28.89857312 28.22233404 -30.64457587 27.31988172 -32.875 25.3125 C-34.6332424 21.69833507 -34.2441479 19.79792517 -33 16 C-30.70214885 13.45990551 -27.8896256 11.80803389 -25 10 C-23.67157241 9.146304 -22.34347513 8.29209391 -21.015625 7.4375 C-18.18947355 5.63600879 -15.35920585 3.84182461 -12.51171875 2.07421875 C-11.60619263 1.51093872 -11.60619263 1.51093872 -10.68237305 0.9362793 C-6.80619697 -1.22090185 -4.20739176 -1.13950194 0 0 Z " fill="#000000" transform="translate(497,152)"/>
<path d="M0 0 C3.17990746 0.58545279 6.16446239 1.31854758 9.20703125 2.41015625 C9.95791016 2.67763672 10.70878906 2.94511719 11.48242188 3.22070312 C12.25134766 3.49849609 13.02027344 3.77628906 13.8125 4.0625 C14.60076172 4.34416016 15.38902344 4.62582031 16.20117188 4.91601562 C18.13522289 5.60758538 20.06776488 6.30337278 22 7 C20.57925676 10.245613 18.86237319 12.3626159 16.33203125 14.828125 C15.60306641 15.54613281 14.87410156 16.26414063 14.12304688 17.00390625 C13.36056641 17.74511719 12.59808594 18.48632812 11.8125 19.25 C6.28828749 24.64485107 1.02340112 30.13518152 -4 36 C-5 37 -5 37 -7.5625 37.0625 C-8.366875 37.041875 -9.17125 37.02125 -10 37 C-11.47720581 32.34112014 -10.30221723 28.93017039 -8.69140625 24.51171875 C-8.44583481 23.80852005 -8.20026337 23.10532135 -7.94725037 22.3808136 C-7.16370036 20.1455108 -6.36341086 17.91663378 -5.5625 15.6875 C-5.02687775 14.16901335 -4.49235987 12.65013667 -3.95898438 11.13085938 C-2.65207373 7.41593281 -1.33012253 3.70667565 0 0 Z " fill="#C8DAE0" transform="translate(389,219)"/>
<path d="M0 0 C0.67293091 -0.0038269 1.34586182 -0.00765381 2.03918457 -0.01159668 C3.4579417 -0.0143113 4.87674927 -0.00698134 6.29541016 0.00976562 C8.46240203 0.03118725 10.62607951 0.00995462 12.79296875 -0.015625 C14.17448646 -0.01298164 15.5560021 -0.00785647 16.9375 0 C18.18982422 0.00451172 19.44214844 0.00902344 20.73242188 0.01367188 C24.52822832 0.62072601 25.72777645 1.45437957 27.96875 4.53125 C28.51858691 8.38010834 28.70289989 10.52325769 26.37695312 13.71679688 C23.12390317 16.16779721 20.98530589 16.04791707 16.9375 16.0625 C16.26456909 16.0663269 15.59163818 16.07015381 14.89831543 16.07409668 C13.4795583 16.0768113 12.06075073 16.06948134 10.64208984 16.05273438 C8.47509797 16.03131275 6.31142049 16.05254538 4.14453125 16.078125 C2.76301354 16.07548164 1.3814979 16.07035647 0 16.0625 C-1.25232422 16.05798828 -2.50464844 16.05347656 -3.79492188 16.04882812 C-7.59072832 15.44177399 -8.79027645 14.60812043 -11.03125 11.53125 C-11.58108691 7.68239166 -11.76539989 5.53924231 -9.43945312 2.34570312 C-6.18640317 -0.10529721 -4.04780589 0.01458293 0 0 Z " fill="#000000" transform="translate(484.03125,210.46875)"/>
<path d="M0 0 C2.19140625 1.5234375 2.19140625 1.5234375 4 3 C3.26226157 5.54580229 2.51037917 8.08595609 1.75 10.625 C1.54503906 11.33785156 1.34007812 12.05070313 1.12890625 12.78515625 C-0.94029225 19.6197816 -3.92588182 24.95058788 -10 29 C-14.44615362 30.93311027 -18.17731511 31.1929074 -23 31 C-22.39285156 30.74347656 -21.78570312 30.48695313 -21.16015625 30.22265625 C-15.67122473 27.11590116 -13.39654126 20.05686764 -11.61328125 14.30859375 C-10.7916874 11.21584237 -10.16747569 8.09845247 -9.625 4.9453125 C-8.01211975 -0.07477727 -4.89253582 -0.59908602 0 0 Z " fill="#C9DBE1" transform="translate(302,176)"/>
<path d="M0 0 C4.75 0.875 4.75 0.875 7 2 C8.11837342 5.02424055 8.36410037 7.80400786 8 11 C6.15178323 14.17514163 3.66438589 16.49724046 1 19 C-0.48059591 20.49858926 -1.95980193 21.99855321 -3.4375 23.5 C-4.62247296 24.66923328 -5.80903249 25.83687329 -7 27 C-8.32856028 23.3417547 -7.64879015 21.18126502 -6.34765625 17.578125 C-5.98349609 16.55332031 -5.61933594 15.52851563 -5.24414062 14.47265625 C-4.85419922 13.40917969 -4.46425781 12.34570312 -4.0625 11.25 C-3.67642578 10.17105469 -3.29035156 9.09210938 -2.89257812 7.98046875 C-1.9378746 5.31672804 -0.97339357 2.65695582 0 0 Z " fill="#DFE5EA" transform="translate(389,219)"/>
</svg>
