<?xml version="1.0" encoding="UTF-8"?>
<svg version="1.1" xmlns="http://www.w3.org/2000/svg" width="512" height="512">
<path d="M0 0 C19.84623276 16.71349878 32.52474062 38.4979504 35.73535156 64.46142578 C36.38853341 72.44733687 36.61606384 80.45166652 36.73535156 88.46142578 C37.98832031 88.59419922 39.24128906 88.72697266 40.53222656 88.86376953 C44.86742613 89.32315796 47.40946822 90.51348373 50.73535156 93.46142578 C54.99640368 99.54864309 55.23965069 104.7304713 54.24804688 112.06665039 C53.01507153 118.90561812 53.01507153 118.90561812 52.39160156 122.22192383 C51.98749685 124.38742966 51.60318501 126.55585353 51.21972656 128.72509766 C48.1435822 145.57884294 48.1435822 145.57884294 41.92285156 151.33642578 C37.50371806 154.28251479 33.6607161 155.47029843 28.34472656 155.44580078 C24.31262788 156.580374 24.02192352 156.93021567 21.99707031 160.33642578 C21.11462442 162.03229758 20.25796064 163.74175002 19.42285156 165.46142578 C18.47355232 167.30387409 17.52168433 169.14500093 16.56738281 170.98486328 C16.09510254 171.91008789 15.62282227 172.8353125 15.13623047 173.78857422 C13.48472023 176.93962582 11.69956165 179.98577862 9.85522461 183.02685547 C8.5959089 185.11032032 7.38262645 187.21606852 6.17285156 189.32861328 C4.60077591 192.05939518 2.92346199 194.64349164 1.11035156 197.21923828 C-5.85077546 207.88728528 -6.12040477 218.45001419 -6.13964844 230.83642578 C-6.14910492 232.0927179 -6.14910492 232.0927179 -6.15875244 233.37438965 C-6.16342228 235.78816653 -6.12590196 238.19681253 -6.06933594 240.60986328 C-6.06649597 241.3414566 -6.06365601 242.07304993 -6.06072998 242.82681274 C-5.91415906 246.36932646 -5.57002077 248.12939396 -3.14208984 250.76928711 C0.03162001 252.63565254 3.14749815 254.04802793 6.57910156 255.38720703 C7.24799408 255.65136917 7.9168866 255.91553131 8.60604858 256.18769836 C10.0538792 256.75836758 11.50327237 257.32508517 12.95404053 257.88824463 C15.28028811 258.79137165 17.60226979 259.70474796 19.92333984 260.62109375 C22.36739713 261.58596328 24.81165222 262.55028291 27.2571106 263.51159668 C39.91761067 268.48988733 52.51247039 273.63216581 65.11051941 278.76597595 C69.42243918 280.52276681 73.73797409 282.27016758 78.05731201 284.00863647 C80.69168721 285.07090239 83.32292836 286.14076856 85.95343018 287.21258545 C87.71731165 287.92872635 89.48479908 288.63596635 91.25244141 289.34277344 C112.30698733 297.95899954 126.65316206 310.09541555 136.37597656 330.79736328 C140.47018181 341.83289352 141.46128861 352.70745636 142.23535156 364.33642578 C142.47578375 367.71835667 142.7241484 371.09968315 142.97363281 374.48095703 C143.03500931 375.32349533 143.0963858 376.16603363 143.15962219 377.03410339 C143.84255233 386.23746349 144.79377086 395.40922631 145.82128906 404.58007812 C147.57164722 420.89087535 147.57164722 420.89087535 146.73535156 427.46142578 C145.22314453 429.10351562 145.22314453 429.10351562 143.73535156 430.46142578 C143.67988639 433.13251152 143.76988087 435.51435401 144.04785156 438.14892578 C144.10908203 438.85082031 144.1703125 439.55271484 144.23339844 440.27587891 C144.3863778 442.00572248 144.55897758 443.73381075 144.73535156 445.46142578 C145.66347656 445.52330078 145.66347656 445.52330078 146.61035156 445.58642578 C147.31160156 445.87517578 148.01285156 446.16392578 148.73535156 446.46142578 C150.48985965 450.72469792 151.14116724 454.79502046 151.58691406 459.36376953 C151.71582031 460.66636719 151.84472656 461.96896484 151.97753906 463.31103516 C152.04038086 463.98287842 152.10322266 464.65472168 152.16796875 465.34692383 C152.35956213 467.39050546 152.56219601 469.43276185 152.76660156 471.47509766 C154.4110266 488.44791322 154.4110266 488.44791322 151.73535156 492.46142578 C149.04737854 492.84910583 149.04737854 492.84910583 145.58911133 492.86547852 C144.29759659 492.87816269 143.00608185 492.89084686 141.6754303 492.90391541 C140.25920452 492.90186396 138.84297983 492.89887593 137.42675781 492.89501953 C135.9794846 492.89957852 134.53221355 492.90488324 133.08494568 492.91090393 C130.04929825 492.91984802 127.01391371 492.91739774 123.97827148 492.9074707 C120.08616009 492.89598385 116.19495632 492.91618022 112.30296421 492.94538784 C109.31322963 492.96372735 106.3237134 492.96346191 103.33393669 492.95775032 C101.89899358 492.9575968 100.46403595 492.96366646 99.02914619 492.97604179 C97.02314334 492.9909031 95.01699157 492.97766996 93.01098633 492.96313477 C91.86896255 492.9629686 90.72693878 492.96280243 89.55030823 492.96263123 C86.73535156 492.46142578 86.73535156 492.46142578 84.92178345 490.88874817 C83.36602038 487.70581069 82.8953882 484.59848246 82.47680664 481.12255859 C82.37883286 480.3904567 82.28085907 479.6583548 82.17991638 478.90406799 C81.86005418 476.49224891 81.55740364 474.07860103 81.25488281 471.66455078 C81.03602632 469.98861065 80.81609674 468.31281033 80.59513855 466.637146 C80.01727625 462.23264133 79.45399779 457.82639023 78.89373779 453.4196167 C78.31914119 448.92068853 77.73076926 444.42356498 77.14355469 439.92626953 C75.99399925 431.10636642 74.859843 422.28455691 73.73535156 413.46142578 C72.74729187 418.08186543 71.76916641 422.7042658 70.79956055 427.32861328 C70.46949501 428.89622382 70.13688257 430.46330063 69.80151367 432.02978516 C67.29824116 443.73417443 65.70369109 455.09768543 65.52441406 467.09033203 C65.49605469 468.39164062 65.46769531 469.69294922 65.43847656 471.03369141 C65.3990381 473.04801076 65.35985787 475.06236504 65.33398438 477.0769043 C65.30648003 479.06077351 65.25949402 481.04434275 65.21191406 483.02783203 C65.19209473 484.19258057 65.17227539 485.3573291 65.15185547 486.55737305 C64.68354335 489.82265595 64.27502155 490.49366023 61.73535156 492.46142578 C59.81975836 492.83632261 59.81975836 492.83632261 57.60800838 492.83615589 C56.34165126 492.84696571 56.34165126 492.84696571 55.04971117 492.8579939 C54.12209539 492.85061962 53.19447962 492.84324533 52.23875427 492.83564758 C51.25346601 492.83962199 50.26817775 492.8435964 49.25303227 492.84769124 C45.93636568 492.85735092 42.62012173 492.84547384 39.3034668 492.83374023 C36.93191366 492.83616697 34.56036154 492.83988513 32.18881226 492.84480286 C26.40725547 492.85325105 20.6258356 492.84768321 14.84428792 492.83553991 C8.11581118 492.82193297 1.38736427 492.82355659 -5.34112274 492.82567324 C-17.34324483 492.82886442 -29.34530761 492.81718762 -41.34741211 492.79760742 C-53.0023784 492.77859846 -64.65727518 492.77152082 -76.31225586 492.77709961 C-88.9953617 492.78315255 -101.67843696 492.78298958 -114.36154026 492.77161378 C-115.71297546 492.77040645 -117.06441067 492.76920046 -118.41584587 492.76799583 C-119.08083006 492.7673923 -119.74581425 492.76678876 -120.43094947 492.76616693 C-125.12485872 492.7622821 -129.81875661 492.76268357 -134.5126667 492.76458168 C-140.82533631 492.76645933 -147.13791619 492.75840115 -153.45056534 492.74252129 C-155.7734191 492.73826313 -158.09628194 492.73743809 -160.41913795 492.74021149 C-163.57787014 492.74341188 -166.73633057 492.73440584 -169.89503479 492.72212219 C-170.82488129 492.72590152 -171.75472778 492.72968084 -172.71275145 492.73357469 C-173.55438178 492.72774249 -174.39601212 492.7219103 -175.2631464 492.71590137 C-175.99286154 492.7150346 -176.72257668 492.71416782 -177.47440439 492.71327478 C-179.26464844 492.46142578 -179.26464844 492.46142578 -181.26464844 490.46142578 C-181.55175781 487.85791016 -181.55175781 487.85791016 -181.60839844 484.55517578 C-181.63635498 483.34603516 -181.66431152 482.13689453 -181.69311523 480.89111328 C-181.71672119 479.59431641 -181.74032715 478.29751953 -181.76464844 476.96142578 C-182.33139326 455.45586338 -185.68418467 435.43331398 -190.26464844 414.46142578 C-191.89820371 422.83862889 -193.07687383 431.2370269 -194.13964844 439.70361328 C-194.31091817 441.04360522 -194.48263919 442.38353954 -194.65478516 443.72341919 C-195.37804697 449.35697219 -196.09546815 454.99124953 -196.80566406 460.62646484 C-197.24320811 464.09580548 -197.68724053 467.56426533 -198.13531494 471.03226089 C-198.38499015 472.97977767 -198.62737939 474.92822408 -198.86962891 476.87667847 C-199.02318848 478.06206207 -199.17674805 479.24744568 -199.33496094 480.46875 C-199.46660645 481.50812714 -199.59825195 482.54750427 -199.73388672 483.61837769 C-200.95326779 490.15004514 -200.95326779 490.15004514 -203.26464844 492.46142578 C-205.27870972 492.56603296 -207.29646755 492.59998406 -209.31323242 492.60668945 C-210.60805038 492.61306931 -211.90286835 492.61944916 -213.23692322 492.62602234 C-214.66152916 492.62755089 -216.08613561 492.62866492 -217.51074219 492.62939453 C-218.96183811 492.6326054 -220.4129337 492.63596934 -221.86402893 492.63948059 C-224.90976716 492.64547824 -227.95547698 492.64731985 -231.0012207 492.64672852 C-234.910007 492.64662687 -238.81861176 492.66027887 -242.727355 492.67750072 C-245.72557924 492.68860249 -248.72375934 492.69064829 -251.72200203 492.69011879 C-253.16334725 492.69130168 -254.60469352 492.69574064 -256.0460186 492.70345116 C-258.0595454 492.71321364 -260.07312512 492.70911849 -262.08666992 492.7043457 C-263.80756081 492.70648323 -263.80756081 492.70648323 -265.56321716 492.70866394 C-268.26464844 492.46142578 -268.26464844 492.46142578 -270.26464844 490.46142578 C-270.99689058 483.34688655 -270.06594186 476.02368255 -269.28662109 468.94238281 C-269.13050606 467.45902939 -269.13050606 467.45902939 -268.97123718 465.94570923 C-268.74623724 463.81487662 -268.51862377 461.68431864 -268.28862381 459.55401993 C-267.9214139 456.15162744 -267.56145331 452.74853261 -267.20321655 449.34518433 C-266.43839323 442.09158217 -265.66456146 434.83895598 -264.88964844 427.58642578 C-263.87534166 418.08970965 -262.86622122 408.59247104 -261.86621094 399.09423828 C-261.68523959 397.38136407 -261.68523959 397.38136407 -261.50061226 395.63388634 C-259.99965798 381.37560436 -258.60517894 367.13406363 -257.88137817 352.81240845 C-256.88653004 334.39015533 -249.24934188 319.49159976 -236.26464844 306.46142578 C-235.36166016 305.52363281 -235.36166016 305.52363281 -234.44042969 304.56689453 C-225.71872901 296.18573749 -213.75764065 291.47554947 -202.76464844 286.83642578 C-201.92836914 286.46912354 -201.09208984 286.10182129 -200.23046875 285.72338867 C-194.67414631 283.46731671 -192.08268825 283.58863663 -186.26464844 285.46142578 C-182.9835344 284.65352644 -182.9835344 284.65352644 -179.95214844 283.08642578 C-174.35823133 280.46142578 -174.35823133 280.46142578 -172.26464844 280.46142578 C-172.17183594 279.31673828 -172.17183594 279.31673828 -172.07714844 278.14892578 C-171.26464844 275.46142578 -171.26464844 275.46142578 -169.35571289 274.06274414 C-165.01145826 271.81221369 -160.52653406 269.99126666 -155.99511719 268.15283203 C-155.00014725 267.74483871 -154.00517731 267.3368454 -152.98005676 266.91648865 C-149.80564171 265.61513036 -146.62911893 264.31903183 -143.45214844 263.02392578 C-140.2860292 261.73206039 -137.12044318 260.43895626 -133.95637512 259.14207458 C-131.99087976 258.33654532 -130.0242138 257.53386438 -128.05619812 256.73451233 C-122.66742191 254.52700796 -117.3445505 252.31857395 -112.26464844 249.46142578 C-107.85049227 236.21895728 -108.98592618 215.30576176 -114.79931641 202.75854492 C-117.41896133 197.85539679 -120.29480566 193.15826307 -123.26464844 188.46142578 C-124.61582467 186.19323803 -125.9602359 183.92225685 -127.29589844 181.64501953 C-129.86071854 177.29447541 -132.46290205 172.97187879 -135.11230469 168.67236328 C-141.26464844 158.61199396 -141.26464844 158.61199396 -141.26464844 155.46142578 C-142.23402344 155.52330078 -143.20339844 155.58517578 -144.20214844 155.64892578 C-150.33960956 155.62407776 -155.45503901 153.56729821 -160.63964844 150.39892578 C-169.81914459 140.12663247 -172.33586109 115.31558237 -171.68652344 101.85986328 C-170.83464039 97.01675038 -168.3173814 94.54340133 -165.01464844 91.14892578 C-162.32087726 89.49592983 -161.12575868 89.1685402 -158.09277344 88.85595703 C-156.82949219 88.72576172 -155.56621094 88.59556641 -154.26464844 88.46142578 C-154.22500977 87.70224854 -154.18537109 86.94307129 -154.14453125 86.16088867 C-152.36155668 53.61175216 -146.26002297 27.05861318 -121.96777344 3.85205078 C-88.18568886 -26.0245905 -35.35086033 -28.65822172 0 0 Z " fill="#D74747" transform="translate(316.2646484375,19.53857421875)"/>
<path d="M0 0 C19.84623276 16.71349878 32.52474062 38.4979504 35.73535156 64.46142578 C36.38853341 72.44733687 36.61606384 80.45166652 36.73535156 88.46142578 C37.98832031 88.59419922 39.24128906 88.72697266 40.53222656 88.86376953 C44.86742613 89.32315796 47.40946822 90.51348373 50.73535156 93.46142578 C54.99640368 99.54864309 55.23965069 104.7304713 54.24804688 112.06665039 C53.01507153 118.90561812 53.01507153 118.90561812 52.39160156 122.22192383 C51.98749685 124.38742966 51.60318501 126.55585353 51.21972656 128.72509766 C48.1435822 145.57884294 48.1435822 145.57884294 41.92285156 151.33642578 C37.50371806 154.28251479 33.6607161 155.47029843 28.34472656 155.44580078 C24.31262788 156.580374 24.02192352 156.93021567 21.99707031 160.33642578 C21.11462442 162.03229758 20.25796064 163.74175002 19.42285156 165.46142578 C18.47355232 167.30387409 17.52168433 169.14500093 16.56738281 170.98486328 C16.09510254 171.91008789 15.62282227 172.8353125 15.13623047 173.78857422 C13.48472023 176.93962582 11.69956165 179.98577862 9.85522461 183.02685547 C8.5959089 185.11032032 7.38262645 187.21606852 6.17285156 189.32861328 C4.60077591 192.05939518 2.92346199 194.64349164 1.11035156 197.21923828 C-5.85077546 207.88728528 -6.12040477 218.45001419 -6.13964844 230.83642578 C-6.14910492 232.0927179 -6.14910492 232.0927179 -6.15875244 233.37438965 C-6.16342228 235.78816653 -6.12590196 238.19681253 -6.06933594 240.60986328 C-6.06649597 241.3414566 -6.06365601 242.07304993 -6.06072998 242.82681274 C-5.91415906 246.36932646 -5.57002077 248.12939396 -3.14208984 250.76928711 C0.03162001 252.63565254 3.14749815 254.04802793 6.57910156 255.38720703 C7.24799408 255.65136917 7.9168866 255.91553131 8.60604858 256.18769836 C10.0538792 256.75836758 11.50327237 257.32508517 12.95404053 257.88824463 C15.28028811 258.79137165 17.60226979 259.70474796 19.92333984 260.62109375 C22.36739713 261.58596328 24.81165222 262.55028291 27.2571106 263.51159668 C39.91761067 268.48988733 52.51247039 273.63216581 65.11051941 278.76597595 C69.42243918 280.52276681 73.73797409 282.27016758 78.05731201 284.00863647 C80.69168721 285.07090239 83.32292836 286.14076856 85.95343018 287.21258545 C87.71731165 287.92872635 89.48479908 288.63596635 91.25244141 289.34277344 C112.30698733 297.95899954 126.65316206 310.09541555 136.37597656 330.79736328 C140.47018181 341.83289352 141.46128861 352.70745636 142.23535156 364.33642578 C142.47578375 367.71835667 142.7241484 371.09968315 142.97363281 374.48095703 C143.03500931 375.32349533 143.0963858 376.16603363 143.15962219 377.03410339 C143.84255233 386.23746349 144.79377086 395.40922631 145.82128906 404.58007812 C146.63246683 412.13907742 147.44979152 419.86697961 146.73535156 427.46142578 C146.07535156 428.12142578 145.41535156 428.78142578 144.73535156 429.46142578 C139.16716974 428.89324396 139.16716974 428.89324396 137.73535156 427.46142578 C137.2364635 424.46174217 136.80906168 421.47663457 136.42285156 418.46142578 C136.29604004 417.47827393 136.16922852 416.49512207 136.03857422 415.48217773 C134.7197231 404.88961305 133.6582518 394.27111353 132.61035156 383.64892578 C132.52417572 382.78581787 132.43799988 381.92270996 132.34921265 381.03344727 C131.36898698 371.1663804 130.50253265 361.32322476 130.1491394 351.41081238 C129.48903239 336.15934302 121.05886878 322.35180814 110.29785156 311.89892578 C98.80815923 302.54615349 83.28192439 297.68432922 69.66815186 292.33746338 C65.29618786 290.61901081 60.93185012 288.88156081 56.56686401 287.14547729 C53.18974281 285.80257268 49.81174915 284.46188267 46.43359375 283.12158203 C36.93904412 279.35226958 27.44879622 275.57310572 17.9786377 271.74285889 C16.08388946 270.97893594 14.18734637 270.21944805 12.28894043 269.46466064 C9.64927808 268.41475354 7.01604171 267.35006174 4.38378906 266.28173828 C3.62135895 265.98247437 2.85892883 265.68321045 2.07339478 265.37487793 C-4.81959029 262.54306519 -11.06247592 258.75666093 -15.26464844 252.46142578 C-16.43339654 248.95518148 -16.38979111 245.81363918 -16.36230469 242.16845703 C-16.36018227 241.10941414 -16.36018227 241.10941414 -16.35801697 240.02897644 C-16.35242608 237.77724952 -16.33987531 235.52562257 -16.32714844 233.27392578 C-16.32213226 231.74593243 -16.31756956 230.21793751 -16.31347656 228.68994141 C-16.30245964 224.94706443 -16.28520131 221.20426205 -16.26464844 217.46142578 C-18.02723999 217.82494141 -18.02723999 217.82494141 -19.82543945 218.19580078 C-24.20555041 219.09725575 -28.5874666 219.98965352 -32.9699707 220.87939453 C-34.86272424 221.26496442 -36.75498649 221.65295456 -38.64672852 222.04345703 C-41.3735651 222.60589846 -44.10207821 223.15947298 -46.83105469 223.71142578 C-47.66987686 223.88641602 -48.50869904 224.06140625 -49.37294006 224.24169922 C-56.45106276 225.65825899 -62.62381815 225.79819929 -69.72167969 224.21923828 C-70.91728516 223.95755859 -72.11289063 223.69587891 -73.34472656 223.42626953 C-74.57642578 223.14912109 -75.808125 222.87197266 -77.07714844 222.58642578 C-79.5210309 222.04678348 -81.96503924 221.50771092 -84.40917969 220.96923828 C-85.5701416 220.71174805 -86.73110352 220.45425781 -87.92724609 220.18896484 C-92.36199066 219.22220999 -96.80895201 218.32589659 -101.26464844 217.46142578 C-101.22799072 218.44949219 -101.19133301 219.43755859 -101.15356445 220.45556641 C-101.02601146 224.15269866 -100.94620212 227.84964054 -100.88012695 231.54833984 C-100.84511507 233.1430745 -100.79748671 234.73758755 -100.73657227 236.33154297 C-100.18035852 251.26985503 -100.18035852 251.26985503 -104.29199219 256.30517578 C-109.7327918 261.60089798 -117.78042301 264.18620462 -124.71777344 266.95751953 C-125.49924744 267.27294205 -126.28072144 267.58836456 -127.08587646 267.91334534 C-129.56089272 268.91165372 -132.03767907 269.90547463 -134.51464844 270.89892578 C-136.97024046 271.88702192 -139.42544769 272.87606054 -141.88024902 273.86611938 C-143.46991629 274.50621899 -145.06048383 275.14408767 -146.65197754 275.77963257 C-152.07409137 277.95101824 -157.41701984 280.26515895 -162.71289062 282.73120117 C-165.87063353 283.6348377 -168.09824098 283.19869353 -171.26464844 282.46142578 C-171.95214844 279.64892578 -171.95214844 279.64892578 -172.26464844 276.46142578 C-169.82653501 272.80245851 -165.40229828 271.67459318 -161.47558594 270.13330078 C-160.69889557 269.82120667 -159.9222052 269.50911255 -159.12197876 269.18756104 C-156.63069932 268.18826115 -154.13536839 267.19957641 -151.63964844 266.21142578 C-150.01435861 265.56241152 -148.38935559 264.91267855 -146.76464844 264.26220703 C-144.34076424 263.29211719 -141.91678542 262.32227796 -139.49212646 261.35412598 C-133.90127767 259.12106331 -128.3155685 256.87599649 -122.74121094 254.60205078 C-122.03040375 254.31489197 -121.31959656 254.02773315 -120.58724976 253.73187256 C-117.58475942 252.50143799 -114.97555396 251.26869613 -112.26464844 249.46142578 C-107.85049227 236.21895728 -108.98592618 215.30576176 -114.79931641 202.75854492 C-117.41896133 197.85539679 -120.29480566 193.15826307 -123.26464844 188.46142578 C-124.61582467 186.19323803 -125.9602359 183.92225685 -127.29589844 181.64501953 C-129.86071854 177.29447541 -132.46290205 172.97187879 -135.11230469 168.67236328 C-141.26464844 158.61199396 -141.26464844 158.61199396 -141.26464844 155.46142578 C-142.23402344 155.52330078 -143.20339844 155.58517578 -144.20214844 155.64892578 C-150.33960956 155.62407776 -155.45503901 153.56729821 -160.63964844 150.39892578 C-169.81914459 140.12663247 -172.33586109 115.31558237 -171.68652344 101.85986328 C-170.83464039 97.01675038 -168.3173814 94.54340133 -165.01464844 91.14892578 C-162.32087726 89.49592983 -161.12575868 89.1685402 -158.09277344 88.85595703 C-156.82949219 88.72576172 -155.56621094 88.59556641 -154.26464844 88.46142578 C-154.22500977 87.70224854 -154.18537109 86.94307129 -154.14453125 86.16088867 C-152.36155668 53.61175216 -146.26002297 27.05861318 -121.96777344 3.85205078 C-88.18568886 -26.0245905 -35.35086033 -28.65822172 0 0 Z " fill="#70332D" transform="translate(316.2646484375,19.53857421875)"/>
<path d="M0 0 C0.83426514 -0.00637985 1.66853027 -0.0127597 2.52807617 -0.01933289 C3.43017822 -0.02044571 4.33228027 -0.02155853 5.26171875 -0.02270508 C6.18637939 -0.02603348 7.11104004 -0.02936188 8.0637207 -0.03279114 C10.0206655 -0.03785854 11.97761896 -0.04019952 13.93457031 -0.04003906 C16.93699269 -0.04222742 19.93904884 -0.06039018 22.94140625 -0.0793457 C24.83984249 -0.08227922 26.73828048 -0.0842643 28.63671875 -0.08520508 C29.5388208 -0.09239059 30.44092285 -0.09957611 31.37036133 -0.10697937 C32.62175903 -0.10236443 32.62175903 -0.10236443 33.8984375 -0.09765625 C34.63408936 -0.09908127 35.36974121 -0.10050629 36.12768555 -0.10197449 C37.94921875 0.14526367 37.94921875 0.14526367 39.94921875 2.14526367 C40.40820956 3.56981441 40.81964418 5.01002733 41.19921875 6.45776367 C42.26964534 9.92971729 43.18159153 11.70507207 46.13671875 13.83276367 C48.94921875 16.14526367 48.94921875 16.14526367 49.76171875 19.08276367 C48.70899795 23.0507113 46.87543111 24.07433787 43.703125 26.49682617 C40.76885178 29.25465089 40.09212717 32.33556893 38.94921875 36.14526367 C38.61921875 36.80526367 38.28921875 37.46526367 37.94921875 38.14526367 C38.73296875 38.86713867 39.51671875 39.58901367 40.32421875 40.33276367 C42.79334313 42.97825408 43.88182153 44.74899978 44.94921875 48.14526367 C43.83546875 49.16620117 43.83546875 49.16620117 42.69921875 50.20776367 C38.59321444 54.31376798 35.6035407 59.5807262 33.94921875 65.14526367 C33.87279166 67.25676012 33.87279166 67.25676012 34.94921875 69.14526367 C37.42583373 71.3937685 37.42583373 71.3937685 39.94921875 73.14526367 C39.72993893 76.8730206 38.75522464 78.53556775 36.07421875 80.95776367 C31.55895102 85.148192 30.36055947 90.31862768 28.94921875 96.14526367 C29.93921875 96.68151367 30.92921875 97.21776367 31.94921875 97.77026367 C34.94921875 100.14526367 34.94921875 100.14526367 35.69921875 103.08276367 C34.81344787 106.69966144 33.47802716 107.47319141 30.546875 109.58666992 C27.38761895 112.66868255 26.36054023 117.05605016 24.94921875 121.14526367 C24.61921875 121.80526367 24.28921875 122.46526367 23.94921875 123.14526367 C24.73296875 123.92901367 25.51671875 124.71276367 26.32421875 125.52026367 C27.86588542 127.06193034 29.40755208 128.60359701 30.94921875 130.14526367 C30.88671875 132.02026367 30.88671875 132.02026367 29.94921875 134.14526367 C28.3028191 135.50354338 26.63626068 136.83780618 24.94921875 138.14526367 C24.61921875 139.13526367 24.28921875 140.12526367 23.94921875 141.14526367 C24.60921875 141.80526367 25.26921875 142.46526367 25.94921875 143.14526367 C26.40820956 144.56981441 26.81964418 146.01002733 27.19921875 147.45776367 C28.27075635 150.92776886 29.20496852 152.73611586 32.13671875 154.89526367 C34.94921875 157.14526367 34.94921875 157.14526367 35.69921875 159.64526367 C34.54858791 163.48069979 32.14983726 164.81147934 28.94921875 167.14526367 C30.31834406 173.12332569 32.13201509 179.12181414 37.19921875 182.89526367 C39.94921875 185.14526367 39.94921875 185.14526367 40.69921875 187.64526367 C39.54858791 191.48069979 37.14983726 192.81147934 33.94921875 195.14526367 C35.65694889 202.52265787 37.58243146 208.67130504 43.94921875 213.14526367 C45.07421875 215.08276367 45.07421875 215.08276367 44.94921875 217.14526367 C42.63671875 219.64526367 42.63671875 219.64526367 39.94921875 222.14526367 C38.6540188 224.31146912 38.6540188 224.31146912 37.94921875 226.14526367 C38.60921875 226.80526367 39.26921875 227.46526367 39.94921875 228.14526367 C40.40448103 229.40278692 40.8169446 230.67616508 41.19921875 231.95776367 C42.3217064 235.18564266 43.36853578 236.77065856 46.13671875 238.77026367 C48.94921875 241.14526367 48.94921875 241.14526367 49.69921875 244.14526367 C48.61912952 248.4656206 46.50317927 249.53419064 42.94921875 252.14526367 C42.61921875 252.80526367 42.28921875 253.46526367 41.94921875 254.14526367 C70.98921875 254.14526367 100.02921875 254.14526367 129.94921875 254.14526367 C129.94921875 246.55526367 129.94921875 238.96526367 129.94921875 231.14526367 C130.20176716 227.06600556 130.47945571 223.17140328 131.01171875 219.14526367 C131.13748291 218.15107422 131.26324707 217.15688477 131.39282227 216.13256836 C132.63171561 207.13320301 134.44372349 198.26419101 136.38671875 189.39526367 C136.60426315 188.37843506 136.60426315 188.37843506 136.82620239 187.34106445 C137.24576662 185.40247996 137.68888798 183.46904024 138.1328125 181.53588867 C138.38603271 180.42246094 138.63925293 179.3090332 138.90014648 178.16186523 C140.27071175 174.22081232 142.13602281 171.05186164 145.94921875 169.14526367 C153.1596513 168.56377718 153.1596513 168.56377718 156.11328125 170.73901367 C158.47362816 173.83257473 158.84679718 176.10939957 159.44921875 179.95776367 C159.56394531 180.67351562 159.67867188 181.38926758 159.796875 182.12670898 C161.20300086 191.21102209 162.31858186 200.34320604 163.45996094 209.46411133 C164.209324 215.44854025 164.96964712 221.42756601 165.87109375 227.39135742 C166.01160156 228.32238281 166.15210938 229.2534082 166.296875 230.21264648 C166.55228969 231.87594167 166.8145136 233.53821677 167.0859375 235.19897461 C168.08375301 241.7156068 167.94921875 247.31749927 167.94921875 254.14526367 C184.77921875 254.14526367 201.60921875 254.14526367 218.94921875 254.14526367 C218.61921875 253.48526367 218.28921875 252.82526367 217.94921875 252.14526367 C217.65750461 250.18731794 217.41422343 248.2220549 217.1953125 246.25463867 C216.99711914 244.47766602 216.99711914 244.47766602 216.79492188 242.66479492 C216.66021484 241.42084961 216.52550781 240.1769043 216.38671875 238.89526367 C216.24814453 237.66678711 216.10957031 236.43831055 215.96679688 235.17260742 C214.31451538 220.14742689 214.31451538 220.14742689 216.13671875 217.27026367 C218.56679956 215.76193765 220.13937627 215.78502746 222.94921875 216.14526367 C225.42658413 218.62262905 225.36334569 219.77934304 225.765625 223.21166992 C225.88977783 224.24727051 226.01393066 225.28287109 226.1418457 226.34985352 C226.32493286 228.01201904 226.32493286 228.01201904 226.51171875 229.70776367 C226.63957764 230.83134277 226.76743652 231.95492187 226.89916992 233.11254883 C227.63204871 239.73921138 228.30372114 246.36853499 228.76171875 253.02026367 C228.81465088 253.70805908 228.86758301 254.39585449 228.92211914 255.10449219 C229.13190069 258.77214946 229.06121967 259.97726229 226.94921875 263.14526367 C224.26124573 263.53294373 224.26124573 263.53294373 220.80297852 263.54931641 C219.51146378 263.56200058 218.21994904 263.57468475 216.88929749 263.5877533 C215.4730717 263.58570185 214.05684702 263.58271382 212.640625 263.57885742 C211.19335178 263.58341641 209.74608074 263.58872113 208.29881287 263.59474182 C205.26316544 263.60368592 202.22778089 263.60123563 199.19213867 263.59130859 C195.30002727 263.57982174 191.40882351 263.60001811 187.5168314 263.62922573 C184.52709681 263.64756524 181.53758059 263.6472998 178.54780388 263.64158821 C177.11286077 263.64143469 175.67790314 263.64750435 174.24301338 263.65987968 C172.23701053 263.67474099 170.23085876 263.66150785 168.22485352 263.64697266 C167.08282974 263.64680649 165.94080597 263.64664032 164.76417542 263.64646912 C161.94921875 263.14526367 161.94921875 263.14526367 160.13565063 261.57258606 C158.57988757 258.38964858 158.10925538 255.28232035 157.69067383 251.80639648 C157.59270004 251.07429459 157.49472626 250.34219269 157.39378357 249.58790588 C157.07392137 247.1760868 156.77127083 244.76243892 156.46875 242.34838867 C156.24989351 240.67244854 156.02996393 238.99664822 155.80900574 237.32098389 C155.23114344 232.91647922 154.66786498 228.51022813 154.10760498 224.10345459 C153.53300838 219.60452642 152.94463645 215.10740287 152.35742188 210.61010742 C151.20786644 201.79020431 150.07371019 192.9683948 148.94921875 184.14526367 C147.96115906 188.76570332 146.9830336 193.38810369 146.01342773 198.01245117 C145.6833622 199.58006171 145.35074976 201.14713852 145.01538086 202.71362305 C142.51210835 214.41801232 140.91755828 225.78152332 140.73828125 237.77416992 C140.70992188 239.07547852 140.6815625 240.37678711 140.65234375 241.7175293 C140.61290529 243.73184865 140.57372506 245.74620293 140.54785156 247.76074219 C140.52034722 249.74461141 140.4733612 251.72818065 140.42578125 253.71166992 C140.40596191 254.87641846 140.38614258 256.04116699 140.36572266 257.24121094 C139.89741054 260.50649384 139.48888874 261.17749812 136.94921875 263.14526367 C135.03362554 263.5201605 135.03362554 263.5201605 132.82187557 263.51999378 C131.97763749 263.52720033 131.13339941 263.53440687 130.26357836 263.54183179 C128.87215469 263.53077036 128.87215469 263.53077036 127.45262146 263.51948547 C126.4673332 263.52345988 125.48204494 263.52743429 124.46689945 263.53152913 C121.15023286 263.54118881 117.83398892 263.52931173 114.51733398 263.51757812 C112.14578085 263.52000486 109.77422873 263.52372302 107.40267944 263.52864075 C101.62112266 263.53708894 95.83970279 263.5315211 90.05815511 263.51937781 C83.32967836 263.50577086 76.60123146 263.50739448 69.87274445 263.50951114 C57.87062236 263.51270231 45.86855958 263.50102551 33.86645508 263.48144531 C22.21148879 263.46243635 10.55659201 263.45535871 -1.09838867 263.4609375 C-13.78149452 263.46699044 -26.46456977 263.46682747 -39.14767307 263.45545167 C-40.49910827 263.45424434 -41.85054348 263.45303835 -43.20197868 263.45183372 C-43.86696287 263.45123019 -44.53194706 263.45062665 -45.21708228 263.45000482 C-49.91099153 263.44611999 -54.60488943 263.44652146 -59.29879951 263.44841957 C-65.61146912 263.45029722 -71.924049 263.44223904 -78.23669815 263.42635918 C-80.55955191 263.42210102 -82.88241476 263.42127598 -85.20527077 263.42404938 C-88.36400295 263.42724977 -91.52246338 263.41824373 -94.6811676 263.40596008 C-95.6110141 263.40973941 -96.5408606 263.41351873 -97.49888426 263.41741258 C-98.34051459 263.41158039 -99.18214493 263.40574819 -100.04927921 263.39973927 C-100.77899435 263.39887249 -101.50870949 263.39800571 -102.26053721 263.39711267 C-104.05078125 263.14526367 -104.05078125 263.14526367 -106.05078125 261.14526367 C-106.33789062 258.54174805 -106.33789062 258.54174805 -106.39453125 255.23901367 C-106.42248779 254.02987305 -106.45044434 252.82073242 -106.47924805 251.57495117 C-106.502854 250.2781543 -106.52645996 248.98135742 -106.55078125 247.64526367 C-107.11752607 226.13970127 -110.47031748 206.11715187 -115.05078125 185.14526367 C-116.68433653 193.52246678 -117.86300664 201.92086479 -118.92578125 210.38745117 C-119.09705098 211.72744311 -119.26877201 213.06737743 -119.44091797 214.40725708 C-120.16417978 220.04081008 -120.88160096 225.67508742 -121.59179688 231.31030273 C-122.02934092 234.77964337 -122.47337334 238.24810322 -122.92144775 241.71609879 C-123.17112296 243.66361556 -123.4135122 245.61206198 -123.65576172 247.56051636 C-123.80932129 248.74589996 -123.96288086 249.93128357 -124.12109375 251.15258789 C-124.25273926 252.19196503 -124.38438477 253.23134216 -124.52001953 254.30221558 C-125.73940061 260.83388303 -125.73940061 260.83388303 -128.05078125 263.14526367 C-130.06484254 263.24987085 -132.08260036 263.28382195 -134.09936523 263.29052734 C-135.3941832 263.2969072 -136.68900116 263.30328705 -138.02305603 263.30986023 C-139.44766198 263.31138878 -140.87226842 263.31250281 -142.296875 263.31323242 C-143.74797092 263.3164433 -145.19906652 263.31980723 -146.65016174 263.32331848 C-149.69589997 263.32931613 -152.7416098 263.33115774 -155.78735352 263.33056641 C-159.69613982 263.33046476 -163.60474457 263.34411676 -167.51348782 263.36133862 C-170.51171205 263.37244038 -173.50989215 263.37448618 -176.50813484 263.37395668 C-177.94948006 263.37513957 -179.39082633 263.37957853 -180.83215141 263.38728905 C-182.84567821 263.39705153 -184.85925793 263.39295638 -186.87280273 263.38818359 C-188.59369362 263.39032112 -188.59369362 263.39032112 -190.34934998 263.39250183 C-193.05078125 263.14526367 -193.05078125 263.14526367 -195.05078125 261.14526367 C-195.78302339 254.03072444 -194.85207467 246.70752044 -194.07275391 239.6262207 C-193.96867722 238.63731842 -193.86460052 237.64841614 -193.75737 236.62954712 C-193.53237005 234.49871451 -193.30475658 232.36815653 -193.07475662 230.23785782 C-192.70754672 226.83546533 -192.34758612 223.4323705 -191.98934937 220.02902222 C-191.22452604 212.77542006 -190.45069427 205.52279387 -189.67578125 198.27026367 C-188.66147447 188.77354754 -187.65235403 179.27630893 -186.65234375 169.77807617 C-186.53169619 168.63616003 -186.41104862 167.49424389 -186.28674507 166.31772423 C-184.7857908 152.05944225 -183.39131175 137.81790152 -182.66751099 123.49624634 C-181.67266286 105.07399322 -174.0354747 90.17543766 -161.05078125 77.14526367 C-160.44878906 76.52006836 -159.84679687 75.89487305 -159.2265625 75.25073242 C-150.46858345 66.83471351 -138.4772359 62.13645185 -127.42578125 57.52026367 C-126.57274414 57.15296143 -125.71970703 56.78565918 -124.84082031 56.40722656 C-118.78642142 53.96848192 -118.78642142 53.96848192 -115.02734375 54.87182617 C-113.05078125 56.14526367 -113.05078125 56.14526367 -112.05078125 57.14526367 C-111.67578125 59.52026367 -111.67578125 59.52026367 -112.05078125 62.14526367 C-115.45080673 64.52635893 -119.06684655 66.06771454 -122.91015625 67.59838867 C-124.02648437 68.05342773 -125.1428125 68.5084668 -126.29296875 68.97729492 C-128.61266479 69.91498942 -130.93555706 70.84481932 -133.26171875 71.76635742 C-140.42490061 74.70573205 -146.25329348 78.00481435 -152.05078125 83.14526367 C-152.69466797 83.71470703 -153.33855469 84.28415039 -154.00195312 84.87084961 C-166.6873486 96.42388481 -171.0471326 111.43280403 -172 127.92260742 C-172.83003358 140.75491711 -174.05310302 153.50604358 -175.48086548 166.28405762 C-176.15111691 172.28470944 -176.80431882 178.28721364 -177.45703125 184.28979492 C-177.59011185 185.51165497 -177.72319244 186.73351501 -177.86030579 187.99240112 C-179.53631531 203.48263577 -181.02017569 218.99192095 -182.48950195 234.50292969 C-182.58787354 235.52985428 -182.68624512 236.55677887 -182.78759766 237.61482239 C-182.97052082 239.52504057 -183.1509453 241.43550037 -183.32836914 243.34623718 C-183.44970215 244.60945549 -183.44970215 244.60945549 -183.57348633 245.89819336 C-183.67624626 246.99052277 -183.67624626 246.99052277 -183.78108215 248.10491943 C-184.05078125 250.14526367 -184.05078125 250.14526367 -185.05078125 254.14526367 C-168.55078125 254.14526367 -152.05078125 254.14526367 -135.05078125 254.14526367 C-134.72078125 249.52526367 -134.39078125 244.90526367 -134.05078125 240.14526367 C-133.78964286 237.67210351 -133.50712314 235.20088177 -133.18359375 232.73510742 C-133.02157471 231.48826172 -132.85955566 230.24141602 -132.69262695 228.95678711 C-132.52206787 227.67835938 -132.35150879 226.39993164 -132.17578125 225.08276367 C-131.99739449 223.72244428 -131.81925649 222.36209224 -131.64135742 221.00170898 C-130.49404457 212.27216314 -129.27668536 203.55337524 -127.98486328 194.84399414 C-127.34413765 190.46555421 -126.85160881 186.12579985 -126.55078125 181.70776367 C-126.22640804 177.62066126 -125.36704068 174.61965282 -123.05078125 171.14526367 C-119.33137742 168.66566112 -116.35936771 168.51288797 -112.05078125 169.14526367 C-109.23828125 170.45776367 -109.23828125 170.45776367 -107.05078125 173.14526367 C-97.97632675 199.03158391 -96.05078125 227.06483756 -96.05078125 254.14526367 C-52.98578125 253.65026367 -52.98578125 253.65026367 -9.05078125 253.14526367 C-11.36078125 251.16526367 -13.67078125 249.18526367 -16.05078125 247.14526367 C-16.86328125 244.58276367 -16.86328125 244.58276367 -16.05078125 242.14526367 C-14.1782515 240.1922527 -12.25602035 238.75325052 -10.05078125 237.14526367 C-11.77888114 229.96084839 -13.58055511 225.33496539 -19.05078125 220.14526367 C-20.36328125 217.33276367 -20.36328125 217.33276367 -21.05078125 215.14526367 C-20.26703125 214.40276367 -19.48328125 213.66026367 -18.67578125 212.89526367 C-16.48573594 210.60093049 -15.22346739 209.02367509 -14.05078125 206.14526367 C-14.71078125 205.48526367 -15.37078125 204.82526367 -16.05078125 204.14526367 C-16.50604353 202.88774042 -16.9185071 201.61436226 -17.30078125 200.33276367 C-18.4232689 197.10488469 -19.47009828 195.51986878 -22.23828125 193.52026367 C-25.05078125 191.14526367 -25.05078125 191.14526367 -25.80078125 188.14526367 C-24.72199149 183.83010464 -22.63546635 182.68441562 -19.05078125 180.14526367 C-19.48390625 179.37182617 -19.48390625 179.37182617 -19.92578125 178.58276367 C-21.05078125 176.14526367 -21.05078125 176.14526367 -21.86328125 172.70776367 C-23.21527268 168.65178938 -24.86908661 166.92924648 -28.05078125 164.14526367 C-30.05078125 162.14526367 -30.05078125 162.14526367 -30.55078125 159.83276367 C-29.80370314 155.81721881 -27.18712309 154.57752877 -24.05078125 152.14526367 C-23.72078125 151.15526367 -23.39078125 150.16526367 -23.05078125 149.14526367 C-23.71078125 149.14526367 -24.37078125 149.14526367 -25.05078125 149.14526367 C-25.20933594 148.3744043 -25.36789063 147.60354492 -25.53125 146.80932617 C-25.76457031 145.80643555 -25.99789062 144.80354492 -26.23828125 143.77026367 C-26.45871094 142.7725293 -26.67914063 141.77479492 -26.90625 140.74682617 C-27.81208721 137.93148844 -27.81208721 137.93148844 -30.5390625 136.91870117 C-31.36792969 136.6634668 -32.19679687 136.40823242 -33.05078125 136.14526367 C-35.05078125 134.14526367 -35.05078125 134.14526367 -35.41796875 131.72729492 C-35.05078125 129.14526367 -35.05078125 129.14526367 -33.37109375 127.40698242 C-32.64664063 126.88749023 -31.9221875 126.36799805 -31.17578125 125.83276367 C-26.69016384 122.2316342 -25.99584743 119.72115411 -25.05078125 114.14526367 C-24.39078125 113.48526367 -23.73078125 112.82526367 -23.05078125 112.14526367 C-23.55609375 111.77014648 -24.06140625 111.3950293 -24.58203125 111.00854492 C-29.81598798 106.88576551 -29.81598798 106.88576551 -30.86328125 103.58276367 C-29.64120332 99.91652987 -27.06981851 98.43973199 -24.05078125 96.14526367 C-21.06598931 91.66807576 -20.05078125 87.50702275 -20.05078125 82.14526367 C-20.87578125 81.52651367 -21.70078125 80.90776367 -22.55078125 80.27026367 C-25.05078125 78.14526367 -25.05078125 78.14526367 -25.73828125 75.20776367 C-24.92132395 71.56859026 -23.57839577 70.76524062 -20.65234375 68.62963867 C-17.65365737 65.85036837 -16.22435408 62.00424726 -15.05078125 58.14526367 C-15.05078125 56.82526367 -15.05078125 55.50526367 -15.05078125 54.14526367 C-16.70080953 52.79139432 -18.36821995 51.45848225 -20.05078125 50.14526367 C-21.17578125 48.20776367 -21.17578125 48.20776367 -21.05078125 46.14526367 C-18.80078125 43.64526367 -18.80078125 43.64526367 -16.05078125 41.14526367 C-13.03375811 37.79301574 -12.13816459 34.49479703 -11.05078125 30.14526367 C-10.84453125 29.34088867 -10.63828125 28.53651367 -10.42578125 27.70776367 C-10.24015625 26.93432617 -10.24015625 26.93432617 -10.05078125 26.14526367 C-11.04078125 25.42338867 -12.03078125 24.70151367 -13.05078125 23.95776367 C-15.17521956 22.15275165 -15.96369483 21.40652293 -16.86328125 18.70776367 C-15.75578739 15.21489842 -13.64087686 14.09222762 -10.80078125 11.89916992 C-8.20674183 9.29934024 -7.52984513 6.50097601 -6.65625 3.00073242 C-6.35654297 2.08227539 -6.35654297 2.08227539 -6.05078125 1.14526367 C-3.78093567 0.01034088 -2.52023025 0.01305863 0 0 Z " fill="#030202" transform="translate(241.05078125,248.854736328125)"/>
<path d="M0 0 C-0.27305329 6.55327899 -2.81211141 10.06930548 -7 15 C-6.030625 15.825 -5.06125 16.65 -4.0625 17.5 C-0.38987246 21.1121372 -0.17387578 23.95760232 0 29 C-0.62003906 29.07734375 -1.24007812 29.1546875 -1.87890625 29.234375 C-4.15440485 29.79787032 -4.15440485 29.79787032 -5.08984375 31.890625 C-5.50943359 33.05851562 -5.50943359 33.05851562 -5.9375 34.25 C-7.66441988 38.56385962 -9.49810709 40.98448111 -13 44 C-12.4225 44.226875 -11.845 44.45375 -11.25 44.6875 C-8.30928102 46.4029194 -6.82724314 48.12861793 -5 51 C-4.75 54.3125 -4.75 54.3125 -5 57 C-6.32 57 -7.64 57 -9 57 C-9.103125 57.721875 -9.20625 58.44375 -9.3125 59.1875 C-10.37984877 63.5539268 -12.51692764 67.12267935 -16 70 C-16.66 70 -17.32 70 -18 70 C-18 70.66 -18 71.32 -18 72 C-17.4225 72.226875 -16.845 72.45375 -16.25 72.6875 C-13.32504627 74.39372301 -11.86183486 76.17514711 -10 79 C-9.25 82.3125 -9.25 82.3125 -9 85 C-10.65 85 -12.3 85 -14 85 C-14.061875 86.03125 -14.12375 87.0625 -14.1875 88.125 C-15.19490082 92.92952697 -16.61779254 94.53529968 -20 98 C-20.99 98.495 -20.99 98.495 -22 99 C-21.25943359 99.76183594 -21.25943359 99.76183594 -20.50390625 100.5390625 C-14.14059754 107.37609842 -14.14059754 107.37609842 -14 113 C-12.35 113 -10.7 113 -9 113 C-9.47646147 118.00284542 -10.93288562 121.03079315 -14 125 C-14.99 125.66 -15.98 126.32 -17 127 C-16.50628906 127.49628906 -16.01257813 127.99257813 -15.50390625 128.50390625 C-11.27201535 132.99124328 -9.12980837 135.7691984 -9 142 C-7.68 142 -6.36 142 -5 142 C-5.26327654 148.45027515 -7.50664023 151.47915791 -12 156 C-11.4946875 156.50789062 -10.989375 157.01578125 -10.46875 157.5390625 C-5.09605489 163.23156089 -5.09605489 163.23156089 -4.5625 167.5 C-4.7790625 168.7375 -4.7790625 168.7375 -5 170 C-3.35 170 -1.7 170 0 170 C0.3077917 173.13837611 0.27813784 174.59343628 -1.53125 177.23828125 C-2.1809375 177.92277344 -2.830625 178.60726562 -3.5 179.3125 C-4.47453125 180.35857422 -4.47453125 180.35857422 -5.46875 181.42578125 C-5.9740625 181.94527344 -6.479375 182.46476563 -7 183 C-6.57847656 183.49628906 -6.15695313 183.99257813 -5.72265625 184.50390625 C-2.0402307 189.07011394 -0.24540645 192.11024529 0 198 C1.65 198 3.3 198 5 198 C4.74282219 203.27214518 2.82766483 205.87129938 -0.52734375 209.6796875 C-2 211 -2 211 -4 211 C-4 211.66 -4 212.32 -4 213 C-1.13026116 214.61635488 1.04464203 215.2733418 4.328125 215.4140625 C5.52695312 215.47207031 5.52695312 215.47207031 6.75 215.53125 C7.575 215.5621875 8.4 215.593125 9.25 215.625 C10.51070313 215.68300781 10.51070313 215.68300781 11.796875 215.7421875 C13.86423382 215.83615836 15.93208627 215.91915564 18 216 C18 216.33 18 216.66 18 217 C-11.04 217 -40.08 217 -70 217 C-70.33 209.41 -70.66 201.82 -71 194 C-71.91161779 181.8754834 -74.0249564 170.21053446 -76.4375 158.3125 C-76.58866272 157.55899261 -76.73982544 156.80548523 -76.89556885 156.02914429 C-77.3366128 153.84685406 -77.78924301 151.66731158 -78.24609375 149.48828125 C-78.51091553 148.21509033 -78.7757373 146.94189941 -79.04858398 145.63012695 C-80.89076407 138.26914345 -80.89076407 138.26914345 -86 133 C-91.63999548 132.3412646 -91.63999548 132.3412646 -96.4375 134.8125 C-98.6262139 137.87669945 -99.16421597 140.69152595 -99.61328125 144.34765625 C-99.72478516 145.24589111 -99.83628906 146.14412598 -99.95117188 147.06958008 C-100.07041016 148.05724365 -100.18964844 149.04490723 -100.3125 150.0625 C-100.44076172 151.10237061 -100.56902344 152.14224121 -100.70117188 153.21362305 C-101.4876103 159.63418464 -102.24082839 166.05829723 -102.98046875 172.484375 C-103.15126076 173.96085902 -103.32207791 175.43734013 -103.49291992 176.91381836 C-103.8221517 179.7604606 -104.14583682 182.60765476 -104.46606445 185.45532227 C-105.68534603 196.04747579 -107.33274239 206.44070181 -109 217 C-125.5 217 -142 217 -159 217 C-158.505 215.02 -158.505 215.02 -158 213 C-158 213.99 -158 214.98 -158 216 C-155.36 216 -152.72 216 -150 216 C-149.91024902 215.02506592 -149.82049805 214.05013184 -149.72802734 213.0456543 C-147.55390079 189.56792506 -145.03404518 166.14705255 -142.21679688 142.73779297 C-141.03072922 132.86403632 -139.86779447 122.99214916 -138.8671875 113.09765625 C-138.78084045 112.25365265 -138.69449341 111.40964905 -138.60552979 110.54006958 C-138.21194792 106.68384697 -137.8292689 102.82722548 -137.46875 98.96777344 C-135.74066513 81.35377033 -132.10978401 62.42974461 -118.02905273 50.30249023 C-110.340761 44.69709579 -102.00302357 41.31013801 -93.25 37.75 C-91.59443478 37.06604062 -89.93933536 36.38095283 -88.28466797 35.69482422 C-84.73978681 34.22745162 -81.19194443 32.76758386 -77.64160156 31.31347656 C-71.79439888 28.91810448 -65.95533713 26.50327504 -60.1171875 24.0859375 C-53.18888346 21.21815233 -46.25876069 18.35488264 -39.32550049 15.49909973 C-32.14907776 12.54306317 -24.97544022 9.5814887 -17.8203125 6.57421875 C-16.67933105 6.0951709 -15.53834961 5.61612305 -14.36279297 5.12255859 C-12.36310022 4.28096242 -10.36461872 3.43647919 -8.36767578 2.58837891 C-7.52962402 2.23565918 -6.69157227 1.88293945 -5.828125 1.51953125 C-4.7747998 1.07250854 -4.7747998 1.07250854 -3.70019531 0.61645508 C-2 0 -2 0 0 0 Z " fill="#D74848" transform="translate(215,286)"/>
<path d="M0 0 C19.84623276 16.71349878 32.52474062 38.4979504 35.73535156 64.46142578 C36.38853341 72.44733687 36.61606384 80.45166652 36.73535156 88.46142578 C37.98832031 88.59419922 39.24128906 88.72697266 40.53222656 88.86376953 C44.86742613 89.32315796 47.40946822 90.51348373 50.73535156 93.46142578 C54.99640368 99.54864309 55.23965069 104.7304713 54.24804688 112.06665039 C53.01507153 118.90561812 53.01507153 118.90561812 52.39160156 122.22192383 C51.98749685 124.38742966 51.60318501 126.55585353 51.21972656 128.72509766 C48.1435822 145.57884294 48.1435822 145.57884294 41.92285156 151.33642578 C37.50371806 154.28251479 33.6607161 155.47029843 28.34472656 155.44580078 C24.31262788 156.580374 24.02192352 156.93021567 21.99707031 160.33642578 C21.11462442 162.03229758 20.25796064 163.74175002 19.42285156 165.46142578 C18.47355232 167.30387409 17.52168433 169.14500093 16.56738281 170.98486328 C16.09510254 171.91008789 15.62282227 172.8353125 15.13623047 173.78857422 C13.48472023 176.93962582 11.69956165 179.98577862 9.85522461 183.02685547 C8.5959089 185.11032032 7.38262645 187.21606852 6.17285156 189.32861328 C4.60077591 192.05939518 2.92346199 194.64349164 1.11035156 197.21923828 C-5.85077546 207.88728528 -6.12040477 218.45001419 -6.13964844 230.83642578 C-6.14910492 232.0927179 -6.14910492 232.0927179 -6.15875244 233.37438965 C-6.16342228 235.78816653 -6.12590196 238.19681253 -6.06933594 240.60986328 C-6.06649597 241.3414566 -6.06365601 242.07304993 -6.06072998 242.82681274 C-5.91415906 246.36932646 -5.57002077 248.12939396 -3.14208984 250.76928711 C0.03162001 252.63565254 3.14749815 254.04802793 6.57910156 255.38720703 C7.24799408 255.65136917 7.9168866 255.91553131 8.60604858 256.18769836 C10.0538792 256.75836758 11.50327237 257.32508517 12.95404053 257.88824463 C15.28028811 258.79137165 17.60226979 259.70474796 19.92333984 260.62109375 C22.36739713 261.58596328 24.81165222 262.55028291 27.2571106 263.51159668 C39.91761067 268.48988733 52.51247039 273.63216581 65.11051941 278.76597595 C69.42243918 280.52276681 73.73797409 282.27016758 78.05731201 284.00863647 C80.69168721 285.07090239 83.32292836 286.14076856 85.95343018 287.21258545 C87.71731165 287.92872635 89.48479908 288.63596635 91.25244141 289.34277344 C112.30698733 297.95899954 126.65316206 310.09541555 136.37597656 330.79736328 C140.47018181 341.83289352 141.46128861 352.70745636 142.23535156 364.33642578 C142.47578375 367.71835667 142.7241484 371.09968315 142.97363281 374.48095703 C143.03500931 375.32349533 143.0963858 376.16603363 143.15962219 377.03410339 C143.84255233 386.23746349 144.79377086 395.40922631 145.82128906 404.58007812 C146.63246683 412.13907742 147.44979152 419.86697961 146.73535156 427.46142578 C146.07535156 428.12142578 145.41535156 428.78142578 144.73535156 429.46142578 C139.16716974 428.89324396 139.16716974 428.89324396 137.73535156 427.46142578 C137.2364635 424.46174217 136.80906168 421.47663457 136.42285156 418.46142578 C136.29604004 417.47827393 136.16922852 416.49512207 136.03857422 415.48217773 C134.7197231 404.88961305 133.6582518 394.27111353 132.61035156 383.64892578 C132.52417572 382.78581787 132.43799988 381.92270996 132.34921265 381.03344727 C131.36898698 371.1663804 130.50253265 361.32322476 130.1491394 351.41081238 C129.48903239 336.15934302 121.05886878 322.35180814 110.29785156 311.89892578 C98.80815923 302.54615349 83.28192439 297.68432922 69.66815186 292.33746338 C65.29618786 290.61901081 60.93185012 288.88156081 56.56686401 287.14547729 C53.18974281 285.80257268 49.81174915 284.46188267 46.43359375 283.12158203 C36.93904412 279.35226958 27.44879622 275.57310572 17.9786377 271.74285889 C16.08388946 270.97893594 14.18734637 270.21944805 12.28894043 269.46466064 C9.64927808 268.41475354 7.01604171 267.35006174 4.38378906 266.28173828 C3.62135895 265.98247437 2.85892883 265.68321045 2.07339478 265.37487793 C-4.81959029 262.54306519 -11.06247592 258.75666093 -15.26464844 252.46142578 C-16.43339654 248.95518148 -16.38979111 245.81363918 -16.36230469 242.16845703 C-16.36018227 241.10941414 -16.36018227 241.10941414 -16.35801697 240.02897644 C-16.35242608 237.77724952 -16.33987531 235.52562257 -16.32714844 233.27392578 C-16.32213226 231.74593243 -16.31756956 230.21793751 -16.31347656 228.68994141 C-16.30245964 224.94706443 -16.28520131 221.20426205 -16.26464844 217.46142578 C-18.02723999 217.82494141 -18.02723999 217.82494141 -19.82543945 218.19580078 C-24.20555041 219.09725575 -28.5874666 219.98965352 -32.9699707 220.87939453 C-34.86272424 221.26496442 -36.75498649 221.65295456 -38.64672852 222.04345703 C-41.3735651 222.60589846 -44.10207821 223.15947298 -46.83105469 223.71142578 C-47.66987686 223.88641602 -48.50869904 224.06140625 -49.37294006 224.24169922 C-56.45106276 225.65825899 -62.62381815 225.79819929 -69.72167969 224.21923828 C-70.91728516 223.95755859 -72.11289063 223.69587891 -73.34472656 223.42626953 C-74.57642578 223.14912109 -75.808125 222.87197266 -77.07714844 222.58642578 C-79.5210309 222.04678348 -81.96503924 221.50771092 -84.40917969 220.96923828 C-85.5701416 220.71174805 -86.73110352 220.45425781 -87.92724609 220.18896484 C-92.36199066 219.22220999 -96.80895201 218.32589659 -101.26464844 217.46142578 C-101.22799072 218.44949219 -101.19133301 219.43755859 -101.15356445 220.45556641 C-101.02601146 224.15269866 -100.94620212 227.84964054 -100.88012695 231.54833984 C-100.84511507 233.1430745 -100.79748671 234.73758755 -100.73657227 236.33154297 C-100.18035852 251.26985503 -100.18035852 251.26985503 -104.29199219 256.30517578 C-109.7327918 261.60089798 -117.78042301 264.18620462 -124.71777344 266.95751953 C-125.49924744 267.27294205 -126.28072144 267.58836456 -127.08587646 267.91334534 C-129.56089272 268.91165372 -132.03767907 269.90547463 -134.51464844 270.89892578 C-136.97024046 271.88702192 -139.42544769 272.87606054 -141.88024902 273.86611938 C-143.46991629 274.50621899 -145.06048383 275.14408767 -146.65197754 275.77963257 C-152.07409137 277.95101824 -157.41701984 280.26515895 -162.71289062 282.73120117 C-165.87063353 283.6348377 -168.09824098 283.19869353 -171.26464844 282.46142578 C-171.95214844 279.64892578 -171.95214844 279.64892578 -172.26464844 276.46142578 C-169.82653501 272.80245851 -165.40229828 271.67459318 -161.47558594 270.13330078 C-160.69889557 269.82120667 -159.9222052 269.50911255 -159.12197876 269.18756104 C-156.63069932 268.18826115 -154.13536839 267.19957641 -151.63964844 266.21142578 C-150.01435861 265.56241152 -148.38935559 264.91267855 -146.76464844 264.26220703 C-144.34076424 263.29211719 -141.91678542 262.32227796 -139.49212646 261.35412598 C-133.90127767 259.12106331 -128.3155685 256.87599649 -122.74121094 254.60205078 C-122.03040375 254.31489197 -121.31959656 254.02773315 -120.58724976 253.73187256 C-117.58475942 252.50143799 -114.97555396 251.26869613 -112.26464844 249.46142578 C-107.85049227 236.21895728 -108.98592618 215.30576176 -114.79931641 202.75854492 C-117.41896133 197.85539679 -120.29480566 193.15826307 -123.26464844 188.46142578 C-124.61582467 186.19323803 -125.9602359 183.92225685 -127.29589844 181.64501953 C-129.86071854 177.29447541 -132.46290205 172.97187879 -135.11230469 168.67236328 C-141.26464844 158.61199396 -141.26464844 158.61199396 -141.26464844 155.46142578 C-142.23402344 155.52330078 -143.20339844 155.58517578 -144.20214844 155.64892578 C-150.33960956 155.62407776 -155.45503901 153.56729821 -160.63964844 150.39892578 C-169.81914459 140.12663247 -172.33586109 115.31558237 -171.68652344 101.85986328 C-170.83464039 97.01675038 -168.3173814 94.54340133 -165.01464844 91.14892578 C-162.32087726 89.49592983 -161.12575868 89.1685402 -158.09277344 88.85595703 C-156.82949219 88.72576172 -155.56621094 88.59556641 -154.26464844 88.46142578 C-154.22500977 87.70224854 -154.18537109 86.94307129 -154.14453125 86.16088867 C-152.36155668 53.61175216 -146.26002297 27.05861318 -121.96777344 3.85205078 C-88.18568886 -26.0245905 -35.35086033 -28.65822172 0 0 Z M-61.81542969 -7.19482422 C-62.53279297 -5.87998047 -62.53279297 -5.87998047 -63.26464844 -4.53857422 C-67.19794389 -1.4816815 -71.41897228 -0.71910076 -76.20214844 0.21142578 C-94.96290931 4.29231026 -112.47408361 15.78288442 -123.01464844 31.96142578 C-124.1150387 33.78457237 -125.19994651 35.61720995 -126.26464844 37.46142578 C-126.86792969 38.48042969 -126.86792969 38.48042969 -127.48339844 39.52001953 C-130.57862315 45.15942517 -131.9257754 51.20844731 -133.26464844 57.46142578 C-133.52387085 58.46314819 -133.52387085 58.46314819 -133.78833008 59.48510742 C-135.55879097 66.93360521 -135.53540647 74.32481673 -135.47045898 81.93041992 C-135.45209778 84.15506391 -135.4499507 86.37929163 -135.45019531 88.60400391 C-135.42834077 94.98913685 -135.22730873 101.13651289 -134.26464844 107.46142578 C-134.17687922 108.84790752 -134.11337552 110.23644746 -134.08886719 111.62548828 C-133.81026263 121.2058557 -132.63591804 129.39887308 -129.26464844 138.46142578 C-128.9771875 139.34572266 -128.68972656 140.23001953 -128.39355469 141.14111328 C-124.19759712 153.71033728 -117.70241292 165.54015136 -110.26464844 176.46142578 C-109.52988281 177.54423828 -108.79511719 178.62705078 -108.03808594 179.74267578 C-105.8101202 183.00375194 -103.54290415 186.23528266 -101.26464844 189.46142578 C-100.68199219 190.29673828 -100.09933594 191.13205078 -99.49902344 191.99267578 C-98.98855469 192.70423828 -98.47808594 193.41580078 -97.95214844 194.14892578 C-97.52289063 194.75091797 -97.09363281 195.35291016 -96.65136719 195.97314453 C-94.06238987 198.75173708 -90.865799 199.68718393 -87.21777344 200.39111328 C-86.07308594 200.62507813 -86.07308594 200.62507813 -84.90527344 200.86376953 C-83.3280406 201.17560805 -81.74992095 201.48299855 -80.17089844 201.78564453 C-70.33135346 203.81628888 -64.86886038 207.05510787 -59.26464844 215.46142578 C-50.29015272 214.91587803 -41.61231415 213.27970859 -32.82714844 211.46142578 C-31.46592587 211.18486405 -30.10459814 210.90881939 -28.74316406 210.63330078 C-25.2475611 209.92126583 -21.75321873 209.20715155 -18.26464844 208.46142578 C-17.50684082 208.32994141 -16.7490332 208.19845703 -15.96826172 208.06298828 C-13.86930454 207.52386764 -13.86930454 207.52386764 -12.44042969 204.46142578 C-11.80624107 203.13427092 -11.18608095 201.80035686 -10.57714844 200.46142578 C-9.8771776 198.99569612 -9.17528878 197.53088117 -8.47167969 196.06689453 C-7.92954834 194.92679932 -7.92954834 194.92679932 -7.37646484 193.76367188 C-5.58674113 190.05767832 -3.68756789 186.41222857 -1.76464844 182.77392578 C-1.38808105 182.06051025 -1.01151367 181.34709473 -0.62353516 180.61206055 C1.69667011 176.26828134 4.16893554 172.06609207 6.79785156 167.89892578 C15.90332687 153.31565457 23.08890467 138.17889415 24.84863281 120.90283203 C24.97361397 119.68475861 24.97361397 119.68475861 25.10112 118.44207764 C25.98092601 109.03814744 26.07194916 99.63767543 26.05102539 90.19873047 C26.04783942 87.19999622 26.07153663 84.20222859 26.09667969 81.20361328 C26.18550722 54.90118637 19.18618667 34.39760188 1.73535156 14.46142578 C-14.94903541 -0.9158894 -34.90595118 -9.46014175 -57.62011719 -10.13232422 C-60.47239554 -9.81269251 -60.47239554 -9.81269251 -61.81542969 -7.19482422 Z " fill="#020101" transform="translate(316.2646484375,19.53857421875)"/>
<path d="M0 0 C3.3 0.33 6.6 0.66 10 1 C10 7.6 10 14.2 10 21 C12.31 21 14.62 21 17 21 C15.9269128 23.59329406 15.23698002 24.83968999 12.875 26.4375 C10.78908307 27.86864362 10.78908307 27.86864362 10.375 30.375 C11.32922021 34.3827249 13.717787 35.60671968 17 38 C15.27190011 45.18441528 13.47022614 49.81029828 8 55 C6.680982 57.66533035 6.680982 57.66533035 6 60 C7.175625 61.11375 7.175625 61.11375 8.375 62.25 C10.56504531 64.54433318 11.82731386 66.12158858 13 69 C12.34 69.66 11.68 70.32 11 71 C10.54473772 72.25752325 10.13227415 73.53090141 9.75 74.8125 C8.62751235 78.04037899 7.58068297 79.62539489 4.8125 81.625 C1.7550292 83.73731375 1.7550292 83.73731375 1.25 87 C2.32878976 91.31515903 4.4153149 92.46084805 8 95 C7.71125 95.515625 7.4225 96.03125 7.125 96.5625 C5.85621994 99.09908453 5.85621994 99.09908453 5.1875 102.4375 C3.83550857 106.49347429 2.18169464 108.21601719 -1 111 C-3.15899348 112.81599631 -3.15899348 112.81599631 -3.5625 115.25 C-2.67754559 119.57644376 0.56958299 121.45344043 4 124 C3.67 124.66 3.34 125.32 3 126 C2.34 126 1.68 126 1 126 C1 127.175625 1 128.35125 1 129.5625 C0.54330227 133.66553042 -0.88112604 135.14015647 -4.0625 137.6875 C-5.16271484 138.46673828 -5.16271484 138.46673828 -6.28515625 139.26171875 C-8.24115507 140.90921919 -8.24115507 140.90921919 -8.421875 143.5859375 C-8.28265625 144.38257813 -8.1434375 145.17921875 -8 146 C-6.02053408 147.36363208 -4.0180755 148.69418644 -2 150 C0.41096514 153.77717872 1.39499995 156.5233339 1 161 C1.66 161 2.32 161 3 161 C2.8125 162.75 2.8125 162.75 2 165 C1.154375 165.639375 0.30875 166.27875 -0.5625 166.9375 C-3.17776284 168.76046698 -3.17776284 168.76046698 -3.6875 171.4375 C-2.65777306 175.27557313 -0.09356251 176.64889249 3 179 C5.98479194 183.47718792 7 187.63824093 7 193 C6.175 193.61875 5.35 194.2375 4.5 194.875 C1.74150547 196.79318464 1.74150547 196.79318464 1.3125 199.9375 C2.12921431 203.57559103 3.46670902 204.38416185 6.40234375 206.5078125 C9.41243899 209.3191973 10.55321783 213.22352757 12 217 C12.33 217.66 12.66 218.32 13 219 C12.21625 219.721875 11.4325 220.44375 10.625 221.1875 C8.15587562 223.83299041 7.06739722 225.60373611 6 229 C6.7425 229.680625 7.485 230.36125 8.25 231.0625 C12.35600431 235.16850431 15.34567805 240.43546253 17 246 C16.9375 248.0625 16.9375 248.0625 16 250 C15.154375 250.639375 14.30875 251.27875 13.4375 251.9375 C10.82223716 253.76046698 10.82223716 253.76046698 10.3125 256.4375 C11.36017165 260.34245795 13.8027839 261.60208793 17 264 C17 264.33 17 264.66 17 265 C14.24940619 265.08107646 11.50120979 265.14052813 8.75 265.1875 C7.58404297 265.22520508 7.58404297 265.22520508 6.39453125 265.26367188 C2.85379229 265.30906596 0.6095341 265.33187823 -2.546875 263.61328125 C-4 262 -4 262 -4 260 C-3.071875 259.29875 -2.14375 258.5975 -1.1875 257.875 C2.65796988 254.8477152 3.5939155 251.60883253 5 247 C3.35 247 1.7 247 0 247 C-0.15855469 246.41992188 -0.31710938 245.83984375 -0.48046875 245.2421875 C-2.12851687 239.72441313 -4.03581766 236.17846247 -8 232 C-7.50628906 231.48050781 -7.01257813 230.96101562 -6.50390625 230.42578125 C-5.86324219 229.72839844 -5.22257813 229.03101563 -4.5625 228.3125 C-3.92441406 227.62800781 -3.28632813 226.94351563 -2.62890625 226.23828125 C-0.83778902 223.77710578 -0.37201442 221.99183426 0 219 C-1.65 219 -3.3 219 -5 219 C-5.185625 217.80375 -5.37125 216.6075 -5.5625 215.375 C-6.78609033 210.28123878 -9.84833955 207.93058385 -14 205 C-13.236875 204.278125 -12.47375 203.55625 -11.6875 202.8125 C-8.24721454 199.21220127 -5.91489981 195.94045896 -5 191 C-6.32 191 -7.64 191 -9 191 C-9.61875 189.1746875 -9.61875 189.1746875 -10.25 187.3125 C-11.98046399 182.6787931 -14.51577245 179.48422755 -18 176 C-17.2575 175.54625 -16.515 175.0925 -15.75 174.625 C-11.94895314 170.996728 -10.67441099 166.90162771 -9 162 C-10.65 162 -12.3 162 -14 162 C-14.34611328 161.11248047 -14.34611328 161.11248047 -14.69921875 160.20703125 C-16.81223931 155.08734113 -18.79588945 151.62020631 -23 148 C-22.236875 147.443125 -21.47375 146.88625 -20.6875 146.3125 C-16.53855422 142.74247688 -14.77115289 139.39807026 -14 134 C-12.35 134 -10.7 134 -9 134 C-11.17021036 128.32593047 -12.86947845 124.56286219 -18 121 C-18 120.34 -18 119.68 -18 119 C-17.071875 118.29875 -16.14375 117.5975 -15.1875 116.875 C-11.34203012 113.8477152 -10.4060845 110.60883253 -9 106 C-7.68 106 -6.36 106 -5 106 C-6.04738328 99.67856033 -6.04738328 99.67856033 -10.125 95 C-11.07375 94.34 -12.0225 93.68 -13 93 C-12 90 -12 90 -9.625 87.75 C-6.58232205 84.56243263 -5.52191679 82.08514506 -4 78 C-2.68 78 -1.36 78 0 78 C-1.63941527 71.3991964 -3.35157882 67.89113459 -9 64 C-8.236875 63.29875 -7.47375 62.5975 -6.6875 61.875 C-3.04017256 57.97320785 -1.19641117 54.15121477 0 49 C-1.45623779 49.62322144 -1.45623779 49.62322144 -2.94189453 50.2590332 C-22.26032328 58.52110936 -41.60891448 66.70428631 -61.03347778 74.71405029 C-63.99092583 75.93375764 -66.94754865 77.15544798 -69.90405273 78.37744141 C-77.87350036 81.66869777 -85.84464801 84.95120056 -93.85546875 88.140625 C-109.76691746 94.50216237 -122.61758384 100.5622331 -130 117 C-133.30089242 125.81740091 -134.89664188 134.55044335 -135.9375 143.875 C-136.09820278 145.2358479 -136.25969022 146.59660332 -136.421875 147.95727539 C-138.12911814 162.46576151 -139.61806066 177.00096384 -141.13769531 191.5300293 C-142.52534187 204.76533829 -144.04120739 217.97808025 -145.68481445 231.18383789 C-146.72131653 239.54831844 -147.65483441 247.9140476 -148.4050293 256.30932617 C-148.68698855 259.37996889 -149.0205098 262.0615294 -150 265 C-152.64 265 -155.28 265 -158 265 C-158.15959872 255.59750534 -157.73961922 246.41927405 -156.7578125 237.0703125 C-156.62937958 235.79630585 -156.50094666 234.52229919 -156.36862183 233.20968628 C-156.09876398 230.53533584 -155.82447454 227.86149529 -155.54638672 225.18798828 C-155.19517543 221.81128457 -154.85163843 218.43385993 -154.51095104 215.05607986 C-153.27966496 202.85441297 -152.01114701 190.66536762 -150.43359375 178.50341797 C-149.71290783 172.68030821 -149.16074986 166.84220248 -148.62231445 161 C-148.4374661 158.99963315 -148.24729736 156.99982068 -148.05664062 155 C-147.54584993 149.55712381 -147.04863266 144.12044785 -146.74731445 138.66162109 C-146.70764053 137.9478833 -146.66796661 137.23414551 -146.62709045 136.4987793 C-146.52205327 134.51956529 -146.42719814 132.53981845 -146.33300781 130.56005859 C-144.98657703 116.16588435 -136.82950977 105.02122006 -127 95 C-126.45859375 94.43410156 -125.9171875 93.86820312 -125.359375 93.28515625 C-118.74433055 86.9875003 -109.70565114 83.27872736 -101.1953125 80.24609375 C-100.38489502 79.953396 -99.57447754 79.66069824 -98.73950195 79.35913086 C-97.15282213 78.7974644 -95.55754025 78.25939126 -93.95385742 77.74829102 C-91.7829751 76.98447534 -89.92379764 76.26609619 -88 75 C-86.92925222 72.69827377 -85.92485993 70.36412321 -85 68 C-82.1875 66.22265625 -82.1875 66.22265625 -79 65.0625 C-77.948125 64.66160156 -76.89625 64.26070313 -75.8125 63.84765625 C-73 63 -73 63 -70 63 C-70 63.66 -70 64.32 -70 65 C-64.42309964 65.45963768 -60.49680391 63.88645151 -55.48046875 61.74609375 C-54.66363113 61.40755875 -53.84679352 61.06902374 -53.00520325 60.7202301 C-50.39505886 59.63585341 -47.79128466 58.53704756 -45.1875 57.4375 C-42.6316941 56.37078158 -40.07468316 55.30698979 -37.51760864 54.24331665 C-35.82603959 53.53677521 -34.13631078 52.82581175 -32.44845581 52.11044312 C-28.3892915 50.39198026 -24.32587827 48.72789164 -20.19384766 47.19189453 C-9.95897712 43.6235405 -9.95897712 43.6235405 -2.02294922 36.6328125 C0.44962724 30.26902622 -0.01191774 23.22674761 -0.0625 16.5 C-0.04937486 14.89840858 -0.03312693 13.29683954 -0.01367188 11.6953125 C0.02695029 7.79620255 0.02511727 3.89921806 0 0 Z " fill="#E59B7B" transform="translate(215,237)"/>
<path d="M0 0 C0.01458252 0.9379541 0.02916504 1.8759082 0.04418945 2.84228516 C0.10546717 6.34269379 0.17965932 9.84234449 0.26245117 13.34228516 C0.29557926 14.85324904 0.32364855 16.36433307 0.34643555 17.87548828 C0.38020681 20.05553082 0.43252896 22.23448439 0.48828125 24.4140625 C0.51446533 25.7232666 0.54064941 27.0324707 0.56762695 28.38134766 C1.14689318 33.22939057 2.60616788 36.60616788 6.0625 40.0625 C14.1875969 45.42160647 23.3403869 48.87906759 32.34375 52.46484375 C33.62810457 52.97996412 34.9122957 53.49549217 36.19633484 54.01139832 C38.90176367 55.09765343 41.60813416 56.18151275 44.3152771 57.26348877 C48.52803593 58.9476862 52.7376107 60.63973796 56.9465332 62.33349609 C58.34962016 62.89802137 59.75271158 63.46253556 61.1558075 64.02703857 C61.84616278 64.30478874 62.53651806 64.58253891 63.2477932 64.86870575 C66.66952003 66.24499809 70.09177195 67.61998215 73.51416016 68.99462891 C74.48662894 69.3852375 74.48662894 69.3852375 75.47874355 69.78373718 C79.33565594 71.33257912 83.19361236 72.87879203 87.05224609 74.42333984 C91.08008518 76.03618035 95.10396253 77.65842901 99.12402344 79.29055786 C100.47411123 79.83651519 101.82578627 80.37856779 103.17919922 80.91622925 C122.63842693 88.64950686 135.71833096 99.29372003 144.17578125 118.734375 C146.70238804 125.67955006 147.43879918 131.95383667 147.875 139.3125 C148.65100839 150.92138824 149.63849665 162.50203203 150.73590088 174.08480835 C150.91014258 175.92566163 151.08282455 177.76666329 151.25384521 179.6078186 C151.72456029 184.66717105 152.21986167 189.72267763 152.76318359 194.77478027 C152.91599885 196.21069229 153.06261713 197.64728375 153.20166016 199.08459473 C153.38225588 200.91558388 153.59617794 202.74319979 153.8125 204.5703125 C153.92207031 205.56047363 154.03164063 206.55063477 154.14453125 207.57080078 C155.29439991 210.83598148 157.04851582 211.35986667 160 213 C160.66244167 215.7108212 160.96627581 217.76931354 161.0625 220.5 C161.15047852 221.51513672 161.15047852 221.51513672 161.24023438 222.55078125 C161.34765625 224.53125 161.34765625 224.53125 161 228 C159.66914676 229.00329828 158.33585353 230.00336912 157 231 C156.69660752 234.39698229 156.69660752 234.39698229 157.1875 238.1875 C157.24993896 238.86586914 157.31237793 239.54423828 157.37670898 240.24316406 C157.69512012 243.58868936 158.10382476 246.92112967 158.5625 250.25 C159.13746673 255.17828626 159.08198146 260.04467643 159 265 C156.03 265 153.06 265 150 265 C149.85900879 263.59943359 149.71801758 262.19886719 149.57275391 260.75585938 C149.04163496 255.48499363 148.50798701 250.21438631 147.97363281 244.94384766 C147.74411775 242.67666317 147.5152593 240.40941211 147.28710938 238.14208984 C146.11218291 226.47012304 144.90825544 214.81113357 143.40673828 203.17626953 C142.91685486 199.35070935 142.50914936 195.52507375 142.125 191.6875 C140.38624331 141.2979401 140.38624331 141.2979401 116.72119141 99.98266602 C107.02476965 92.9178319 94.91796739 88.74188139 83.87561035 84.23403931 C80.32345384 82.78366421 76.77641966 81.32093933 73.22891235 79.85923767 C71.36113484 79.08981541 69.49311055 78.32099196 67.62484741 77.55274963 C57.92006345 73.56138923 48.23216283 69.52996929 38.55062866 65.48257446 C35.81890715 64.34128871 33.08588105 63.20317047 30.3527832 62.06518555 C-2.7083617 48.2677991 -2.7083617 48.2677991 -7.95703125 36.34106445 C-9.73967634 30.6305078 -9.6673218 24.95583187 -9.54199219 19.03540039 C-9.49942459 16.90875296 -9.50099594 14.78521277 -9.5078125 12.65820312 C-9.44946547 5.10209569 -9.44946547 5.10209569 -9 2 C-5.5647952 -0.29013653 -4.014669 -0.17842973 0 0 Z " fill="#FBE7D7" transform="translate(300,237)"/>
<path d="M0 0 C0 0.33 0 0.66 0 1 C-3.63 1 -7.26 1 -11 1 C-11.66 2.65 -12.32 4.3 -13 6 C-17.33129886 9.62875187 -21.56672594 10.8074404 -27 11.8125 C-45.27040531 15.70003075 -62.42076742 26.69084475 -72.6875 42.4375 C-73.80773492 44.28200313 -74.91330239 46.13554127 -76 48 C-76.60521484 49.0209375 -76.60521484 49.0209375 -77.22265625 50.0625 C-80.31294277 55.70256665 -81.66142543 61.74841546 -83 68 C-83.17281494 68.66781494 -83.34562988 69.33562988 -83.52368164 70.02368164 C-85.29414254 77.47217943 -85.27075803 84.86339095 -85.20581055 92.46899414 C-85.18744934 94.69363812 -85.18530227 96.91786585 -85.18554688 99.14257812 C-85.16369233 105.52771107 -84.96266029 111.6750871 -84 118 C-83.91223078 119.38648174 -83.84872709 120.77502168 -83.82421875 122.1640625 C-83.54561419 131.74442992 -82.3712696 139.9374473 -79 149 C-78.71253906 149.88429687 -78.42507812 150.76859375 -78.12890625 151.6796875 C-73.93354503 164.24712511 -67.44033954 176.08228072 -60 187 C-59.63729004 187.53254395 -59.27458008 188.06508789 -58.90087891 188.61376953 C-56.97578303 191.43309306 -55.03546915 194.24086072 -53.07421875 197.03515625 C-51.85229395 198.78174933 -50.64150135 200.53638659 -49.45703125 202.30859375 C-46.73971719 206.33021855 -44.70512297 208.27467472 -40.02050781 209.53076172 C-39.33827148 209.66240723 -38.65603516 209.79405273 -37.953125 209.9296875 C-36.8084375 210.16365234 -36.8084375 210.16365234 -35.640625 210.40234375 C-34.06339216 210.71418227 -32.48527251 211.02157277 -30.90625 211.32421875 C-22.37951469 213.0839309 -16.08196296 215.76205275 -11 223 C-10.67 223.99 -10.34 224.98 -10 226 C-13.00432871 225.69308787 -16.00104021 225.35484423 -19 225 C-20.24378418 224.85723633 -21.48756836 224.71447266 -22.76904297 224.56738281 C-51.47244431 221.07068487 -51.47244431 221.07068487 -57.1328125 213.87109375 C-59.40812682 209.94134001 -60.85834437 205.78617129 -62.17529297 201.45263672 C-63.48723401 197.55099087 -65.53056606 194.15071687 -67.625 190.625 C-68.36658841 189.31289707 -69.10749017 188.0004058 -69.84765625 186.6875 C-71.81773836 183.26619786 -73.93131121 179.94849128 -76.0625 176.625 C-80.57893668 169.4023217 -83.93782065 161.70277256 -87.2199707 153.85498047 C-87.82974071 152.40489205 -88.47300684 150.96887782 -89.12890625 149.5390625 C-90.43573546 145.72991907 -90.96822562 141.84940643 -91.5625 137.875 C-91.68818359 137.08351562 -91.81386719 136.29203125 -91.94335938 135.4765625 C-93.80805565 123.3706809 -94.24241952 111.39039684 -94.29516602 99.15966797 C-94.30665562 97.31388667 -94.32705935 95.46813781 -94.35668945 93.62255859 C-94.77959641 67.14716535 -87.74397432 44.03850701 -69.0625 24.625 C-64.38506162 20.16377603 -59.45781524 16.44875359 -54 13 C-53.06285156 12.3915625 -52.12570313 11.783125 -51.16015625 11.15625 C-44.05488712 6.74930252 -37.10270764 4.01052222 -29 2 C-28.13117188 1.77441406 -27.26234375 1.54882812 -26.3671875 1.31640625 C-17.69034098 -0.60735942 -8.83325803 -0.174916 0 0 Z " fill="#431815" transform="translate(267,9)"/>
<path d="M0 0 C4.86828786 1.385927 7.33400407 4.23716145 10.3125 8.125 C10.78888916 8.74173584 11.26527832 9.35847168 11.75610352 9.99389648 C23.24821834 25.37778639 29.14452837 42.90028724 29.16796875 62.078125 C29.17296135 63.52720245 29.17296135 63.52720245 29.17805481 65.0055542 C29.18310312 67.04959643 29.18546378 69.09364685 29.18530273 71.13769531 C29.18746379 74.1987147 29.20557113 77.25935798 29.22460938 80.3203125 C29.25230849 89.74818342 29.09067153 99.0888179 28.12109375 108.47265625 C28.04440964 109.21868103 27.96772552 109.96470581 27.88871765 110.7333374 C25.8649759 128.08350227 17.64433356 143.25361376 8.64868164 157.9206543 C5.15599676 163.64496295 1.905128 169.49237504 -1.3125 175.375 C-1.81620117 176.29039551 -2.31990234 177.20579102 -2.83886719 178.14892578 C-5.53595156 183.10619208 -7.92781632 187.99292054 -9.86108398 193.30102539 C-11 195 -11 195 -13.3449707 195.77294922 C-15.60602369 196.04516613 -17.72786109 196.12137494 -20 196 C-19.04779688 190.33329154 -16.66895267 185.64212847 -14.1875 180.5 C-13.70047607 179.48623291 -13.21345215 178.47246582 -12.71166992 177.42797852 C-7.27410096 166.2729466 -1.09016681 155.5757592 5.24072266 144.90966797 C22.6408539 115.58054281 23.66691062 74.11856934 15.59863281 41.24462891 C12.71047899 30.41522997 7.5989677 21.7134356 1.30078125 12.51953125 C-0.18163941 9.64817591 -0.31560259 7.89006484 -0.1875 4.6875 C-0.16042969 3.80449219 -0.13335937 2.92148437 -0.10546875 2.01171875 C-0.07066406 1.34785156 -0.03585937 0.68398438 0 0 Z " fill="#CC8269" transform="translate(313,32)"/>
<path d="M0 0 C0.66 0.66 1.32 1.32 2 2 C1.93409314 7.05475321 0.8524046 9.82943828 -2.74539185 13.39952087 C-3.52497757 14.12794945 -3.52497757 14.12794945 -4.3203125 14.87109375 C-4.85719696 15.39711685 -5.39408142 15.92313995 -5.94723511 16.46510315 C-7.65948344 18.13737639 -9.3910175 19.78780161 -11.125 21.4375 C-13.38261211 23.61855574 -15.63262319 25.80738435 -17.8828125 27.99609375 C-18.42972748 28.5253244 -18.97664246 29.05455505 -19.54013062 29.599823 C-22.94194061 32.9078258 -26.12593185 36.31869771 -29.19775391 39.93774414 C-32.84890075 44.11564137 -36.7548362 48.05674614 -40.65283203 52.00292969 C-41.64321205 53.01006241 -42.62816917 54.02255369 -43.60791016 55.04003906 C-45.04177288 56.52852061 -46.49127905 57.99999878 -47.9453125 59.46875 C-48.79625488 60.33951172 -49.64719727 61.21027344 -50.52392578 62.10742188 C-53 64 -53 64 -55.69091797 64.40820312 C-58 64 -58 64 -60 62 C-60.625 59.375 -60.625 59.375 -60 56 C-58.29037859 53.90517275 -56.4417691 52.12884469 -54.43359375 50.3203125 C-52.44816257 48.42730107 -50.71615865 46.54153445 -48.94140625 44.4609375 C-43.62617897 38.3108167 -37.75266059 32.69565078 -31.97021484 26.99072266 C-26.08460085 21.17690748 -20.36313879 15.30700757 -15 9 C-13.50206367 7.31272452 -11.98519445 5.64175323 -10.4375 4 C-9.38369141 2.8553125 -9.38369141 2.8553125 -8.30859375 1.6875 C-5.33951824 -0.4827887 -3.59964013 -0.47402668 0 0 Z " fill="#000000" transform="translate(473,161)"/>
<path d="M0 0 C5.0487786 0.85032061 7.37366917 3.91298524 10.77734375 7.5625 C11.7219043 8.53509766 11.7219043 8.53509766 12.68554688 9.52734375 C15.75770994 12.7163311 18.71481586 15.97995184 21.59375 19.34375 C26.38247922 24.86511098 31.6405246 29.93288127 36.83984375 35.0625 C48.72062213 46.78400845 48.72062213 46.78400845 54.01757812 53.02148438 C55.0715329 54.24980095 56.19538268 55.41803893 57.33984375 56.5625 C57.58984375 59.5625 57.58984375 59.5625 57.33984375 62.5625 C55.33984375 64.5625 55.33984375 64.5625 53.11279297 65.05273438 C48.96537534 64.31950541 46.78441514 61.64338442 43.97265625 58.71875 C43.37484344 58.11623413 42.77703064 57.51371826 42.16110229 56.89294434 C40.25036182 54.96086716 38.35789534 53.01189528 36.46484375 51.0625 C35.19901933 49.7801606 33.93210292 48.49889816 32.6640625 47.21875 C27.2782881 41.76017339 21.99681622 36.27080186 17.02197266 30.43212891 C14.95643385 28.13635297 12.7615341 26.01109419 10.53515625 23.87109375 C9.705 23.07123047 8.87484375 22.27136719 8.01953125 21.44726562 C6.30220583 19.8021519 4.57543813 18.16684399 2.83984375 16.54101562 C-4.1110753 9.79165144 -4.1110753 9.79165144 -4.85546875 5.59765625 C-4.60111632 1.64501944 -3.86308811 0.81686445 0 0 Z " fill="#000000" transform="translate(41.66015625,160.4375)"/>
<path d="M0 0 C8.29393045 7.75333121 12.29755478 17.57112169 15.078125 28.41796875 C15.80097861 31.22668383 16.61851939 33.93400373 17.50390625 36.69140625 C19.20561733 42.31193609 19.9914765 47.93078715 20.6875 53.75 C20.81705078 54.75160156 20.94660156 55.75320313 21.08007812 56.78515625 C21.68500233 61.61814856 22 66.09642814 22 71 C17.71 71 13.42 71 9 71 C8.95101562 69.62070312 8.90203125 68.24140625 8.8515625 66.8203125 C8.03514476 45.48064423 5.07999544 25.43422631 0.51904297 4.60351562 C0 2 0 2 0 0 Z " fill="#E79C7C" transform="translate(136,431)"/>
<path d="M0 0 C0.33 0 0.66 0 1 0 C0.62987196 6.13902023 -0.15360612 12.04505799 -1.4375 18.0625 C-4.70969326 33.89672302 -5.42733074 49.8748392 -6 66 C-10.62 66 -15.24 66 -20 66 C-19.59757502 45.27511374 -15.45644049 15.45644049 0 0 Z " fill="#E69B7B" transform="translate(377,436)"/>
<path d="M0 0 C9.9 0 19.8 0 30 0 C34 8 34 8 35 11 C34.34 11 33.68 11 33 11 C31.92474806 13.65228812 30.90543849 16.28368454 30 19 C25.05 19 20.1 19 15 19 C14.67 16.36 14.34 13.72 14 11 C11.36 11 8.72 11 6 11 C5.67 13.64 5.34 16.28 5 19 C3.02 19 1.04 19 -1 19 C-3.875 12.375 -3.875 12.375 -5 9 C-3.35 6.03 -1.7 3.06 0 0 Z " fill="#F9F8E4" transform="translate(243,258)"/>
<path d="M0 0 C9.9 0 19.8 0 30 0 C34 8 34 8 34 11 C32.82014323 13.75475488 31.3938224 16.34302604 30 19 C25.05 19 20.1 19 15 19 C14.67 16.69 14.34 14.38 14 12 C12.87465895 10.64381501 12.87465895 10.64381501 9.9375 10.9375 C8.4834375 10.9684375 8.4834375 10.9684375 7 11 C6.67 13.64 6.34 16.28 6 19 C4.02 19 2.04 19 0 19 C-1.66666667 15.66666667 -3.33333333 12.33333333 -5 9 C-3.35 6.03 -1.7 3.06 0 0 Z " fill="#F4F3DF" transform="translate(224,371)"/>
<path d="M0 0 C1.24112549 0.02618408 2.48225098 0.05236816 3.76098633 0.0793457 C4.42262283 0.08642044 5.08425934 0.09349518 5.76594543 0.1007843 C7.87612742 0.12874188 9.98364018 0.19146848 12.09301758 0.25512695 C13.52461983 0.28020872 14.95626375 0.30302212 16.38793945 0.32348633 C19.89466408 0.37856849 23.39983029 0.46484406 26.90551758 0.56762695 C27.57960066 1.83454203 28.24452254 3.10633444 28.90551758 4.38012695 C29.27676758 5.08782227 29.64801758 5.79551758 30.03051758 6.5246582 C30.90551758 8.56762695 30.90551758 8.56762695 30.90551758 11.56762695 C29.7256608 14.32238183 28.29933998 16.91065299 26.90551758 19.56762695 C21.62551758 19.56762695 16.34551758 19.56762695 10.90551758 19.56762695 C10.57551758 16.92762695 10.24551758 14.28762695 9.90551758 11.56762695 C7.92551758 11.56762695 5.94551758 11.56762695 3.90551758 11.56762695 C3.24551758 13.87762695 2.58551758 16.18762695 1.90551758 18.56762695 C-0.07448242 18.56762695 -2.05448242 18.56762695 -4.09448242 18.56762695 C-8.30227833 11.56042963 -8.30227833 11.56042963 -7.53198242 7.88012695 C-7.05760742 7.11700195 -6.58323242 6.35387695 -6.09448242 5.56762695 C-5.71122803 4.70500244 -5.32797363 3.84237793 -4.93310547 2.95361328 C-3.09448242 0.56762695 -3.09448242 0.56762695 0 0 Z " fill="#F1F0DD" transform="translate(232.094482421875,342.432373046875)"/>
<path d="M0 0 C9.9 0 19.8 0 30 0 C34 8 34 8 33 12 C32.07097847 14.36828288 31.02953585 16.67235373 30 19 C25.05 19 20.1 19 15 19 C14.67 16.36 14.34 13.72 14 11 C11.69 11 9.38 11 7 11 C6.34 13.64 5.68 16.28 5 19 C2.8125 19.5 2.8125 19.5 0 19 C-2.26663263 16.59900513 -3.79961239 14.07276254 -5 11 C-4.5 8.375 -4.5 8.375 -3 6 C-2.01 4.02 -1.02 2.04 0 0 Z " fill="#FAF9E4" transform="translate(229,399)"/>
<path d="M0 0 C6.87471539 -0.14060877 6.87471539 -0.14060877 9.75390625 -0.12207031 C11.84888307 -0.11794156 13.93417615 -0.18289702 16.02783203 -0.25268555 C25.70068211 -0.38357062 25.70068211 -0.38357062 29.06201172 2.43847656 C31.15242953 5.63354816 32.1946317 7.5670748 31.48486328 11.38208008 C30.98986328 12.14520508 30.49486328 12.90833008 29.98486328 13.69458008 C29.61748047 14.56083008 29.25009766 15.42708008 28.87158203 16.31958008 C26.98486328 18.69458008 26.98486328 18.69458008 23.41064453 19.18286133 C22.03869952 19.14972256 20.66718798 19.09021603 19.29736328 19.00708008 C18.59546875 18.98452148 17.89357422 18.96196289 17.17041016 18.9387207 C15.44097998 18.87989655 13.71264891 18.79021397 11.98486328 18.69458008 C11.65486328 16.05458008 11.32486328 13.41458008 10.98486328 10.69458008 C8.98531582 10.65203652 6.98444692 10.65377225 4.98486328 10.69458008 C3.01663442 12.66280894 3.32237947 16.04266717 2.98486328 18.69458008 C0.29736328 19.19458008 0.29736328 19.19458008 -3.01513672 18.69458008 C-5.35429974 16.32076279 -6.85179 13.81234927 -8.01513672 10.69458008 C-7.51513672 8.00708008 -7.51513672 8.00708008 -6.01513672 5.69458008 C-5.62696777 4.83775635 -5.23879883 3.98093262 -4.83886719 3.09814453 C-3.01513672 0.69458008 -3.01513672 0.69458008 0 0 Z " fill="#F9F8E4" transform="translate(241.01513671875,455.305419921875)"/>
<path d="M0 0 C10.23 0 20.46 0 31 0 C35 8 35 8 34.375 10.6875 C33.92125 11.450625 33.4675 12.21375 33 13 C32.34 14.65 31.68 16.3 31 18 C25.72 18 20.44 18 15 18 C14.67 15.69 14.34 13.38 14 11 C11.69 10.67 9.38 10.34 7 10 C6.67 12.64 6.34 15.28 6 18 C4.02 18 2.04 18 0 18 C-1.66666667 14.66666667 -3.33333333 11.33333333 -5 8 C-4.54625 7.608125 -4.0925 7.21625 -3.625 6.8125 C-1.55153895 4.70842582 -1.55153895 4.70842582 0 0 Z " fill="#F9F8E4" transform="translate(233,315)"/>
<path d="M0 0 C6.87471539 -0.14060877 6.87471539 -0.14060877 9.75390625 -0.12207031 C11.84888307 -0.11794156 13.93417615 -0.18289702 16.02783203 -0.25268555 C25.63159276 -0.3841273 25.63159276 -0.3841273 29.11474609 2.39233398 C30.60262278 4.56463395 31.53378504 6.09652557 31.98486328 8.69458008 C31.26171875 10.58203125 31.26171875 10.58203125 29.98486328 12.69458008 C28.99486328 14.67458008 28.00486328 16.65458008 26.98486328 18.69458008 C22.03486328 18.69458008 17.08486328 18.69458008 11.98486328 18.69458008 C11.65486328 16.05458008 11.32486328 13.41458008 10.98486328 10.69458008 C8.98531582 10.65203652 6.98444692 10.65377225 4.98486328 10.69458008 C3.01663442 12.66280894 3.32237947 16.04266717 2.98486328 18.69458008 C0.29736328 19.19458008 0.29736328 19.19458008 -3.01513672 18.69458008 C-5.35429974 16.32076279 -6.85179 13.81234927 -8.01513672 10.69458008 C-7.51513672 8.00708008 -7.51513672 8.00708008 -6.01513672 5.69458008 C-5.62696777 4.83775635 -5.23879883 3.98093262 -4.83886719 3.09814453 C-3.01513672 0.69458008 -3.01513672 0.69458008 0 0 Z " fill="#F9F8E4" transform="translate(241.01513671875,286.305419921875)"/>
<path d="M0 0 C10.23 0 20.46 0 31 0 C34 6 34 6 34 8 C34.66 8 35.32 8 36 8 C34.33333333 11.33333333 32.66666667 14.66666667 31 18 C26.05 18 21.1 18 16 18 C15.34 15.69 14.68 13.38 14 11 C11.525 10.505 11.525 10.505 9 10 C6.87491756 13.18762365 6.4979837 15.26512223 6 19 C4.35 19 2.7 19 1 19 C-4.20199501 10.98753117 -4.20199501 10.98753117 -3.4375 7.25 C-2.7259375 6.13625 -2.7259375 6.13625 -2 5 C-1.34 3.35 -0.68 1.7 0 0 Z " fill="#F9F8E4" transform="translate(242,484)"/>
<path d="M0 0 C10.23 0 20.46 0 31 0 C35 8 35 8 34.375 10.6875 C33.92125 11.450625 33.4675 12.21375 33 13 C32.34 14.65 31.68 16.3 31 18 C25.72 18 20.44 18 15 18 C14.67 15.69 14.34 13.38 14 11 C12.9404123 9.71677453 12.9404123 9.71677453 10.5 9.875 C8.0595877 9.71677453 8.0595877 9.71677453 7 11 C6.63239269 13.32817964 6.29758419 15.6618385 6 18 C4.02 18 2.04 18 0 18 C-3 12.25 -3 12.25 -3 10 C-3.66 10 -4.32 10 -5 10 C-3.33333333 6.66666667 -1.66666667 3.33333333 0 0 Z " fill="#F8F7E3" transform="translate(233,428)"/>
<path d="M0 0 C1.875 1.1875 1.875 1.1875 3 3 C2.86004424 5.79911528 2.51005861 7.40461665 0.67391968 9.5479126 C-1.06764412 11.05867975 -2.53445885 11.85535038 -4.65771484 12.73339844 C-5.38211761 13.03671082 -6.10652039 13.34002319 -6.85287476 13.65252686 C-7.63103546 13.96828674 -8.40919617 14.28404663 -9.2109375 14.609375 C-10.01608795 14.9404425 -10.8212384 15.27151001 -11.65078735 15.61260986 C-13.35216564 16.30901114 -15.05520601 17.00136364 -16.75976562 17.68994141 C-19.36450309 18.74574518 -21.95953027 19.82324253 -24.5546875 20.90234375 C-26.21039055 21.57686496 -27.86662399 22.25008601 -29.5234375 22.921875 C-30.29754974 23.24573181 -31.07166199 23.56958862 -31.86923218 23.90325928 C-38.77196624 26.64943568 -38.77196624 26.64943568 -43 25 C-43.66 24.34 -44.32 23.68 -45 23 C-44.70801378 19.20417911 -43.83736087 17.45573011 -41 15 C-38.34846211 13.72288312 -35.7233752 12.54830086 -33.0078125 11.42578125 C-32.22485809 11.09708542 -31.44190369 10.76838959 -30.63522339 10.42973328 C-28.98085953 9.73776704 -27.32490021 9.04960462 -25.66748047 8.36499023 C-23.13638269 7.317212 -20.61301545 6.25224761 -18.08984375 5.18554688 C-16.47960491 4.5145723 -14.86894123 3.84461622 -13.2578125 3.17578125 C-12.50557404 2.85708572 -11.75333557 2.5383902 -10.978302 2.21003723 C-7.22000857 0.67312001 -4.13822843 -0.53711378 0 0 Z " fill="#000000" transform="translate(437,252)"/>
<path d="M0 0 C5.44648642 0.32453488 10.00953487 1.95598272 14.98046875 4.01953125 C15.71574295 4.31937424 16.45101715 4.61921722 17.20857239 4.92814636 C18.75227337 5.56046343 20.29430585 6.19686788 21.8347168 6.8371582 C24.18594787 7.81185657 26.54451408 8.76692589 28.90429688 9.72070312 C30.40933547 10.3399774 31.91390962 10.96038188 33.41796875 11.58203125 C34.11907272 11.86448196 34.8201767 12.14693268 35.54252625 12.4379425 C39.42636063 14.07199097 42.38404069 15.64813169 45 19 C44.9375 21.625 44.9375 21.625 44 24 C41 26 41 26 38.30517578 25.8137207 C34.42692781 24.85891198 30.80074549 23.49832649 27.1171875 21.98046875 C26.38049835 21.68062576 25.6438092 21.38078278 24.88479614 21.07185364 C23.33545251 20.43873496 21.78744542 19.80233666 20.24072266 19.1628418 C17.88005953 18.18958595 15.51274766 17.234001 13.14453125 16.27929688 C11.63498029 15.65991665 10.12585065 15.03950836 8.6171875 14.41796875 C7.91294647 14.13551804 7.20870544 13.85306732 6.48312378 13.5620575 C2.58850092 11.93147083 -0.38415691 10.36521263 -3 7 C-2.83849795 3.60845705 -2.41703243 2.41703243 0 0 Z " fill="#000000" transform="translate(75,252)"/>
<path d="M0 0 C3.0625 0.4375 3.0625 0.4375 4.61035156 2.45751953 C6.3628362 6.05382542 7.39583271 9.69205146 8.359375 13.5546875 C8.55726624 14.33006866 8.75515747 15.10544983 8.95904541 15.90432739 C9.3732254 17.5388364 9.78311939 19.17443678 10.18896484 20.81103516 C10.80973555 23.30140975 11.45286328 25.78528312 12.09765625 28.26953125 C12.49877154 29.86423793 12.89855544 31.45928021 13.296875 33.0546875 C13.48948914 33.79032928 13.68210327 34.52597107 13.8805542 35.28390503 C15.03487338 40.04845318 15.04903745 43.6271434 14.0625 48.4375 C11.25 49.0625 11.25 49.0625 8.0625 49.4375 C3.96838542 46.70809028 3.70218529 43.46265452 2.58203125 38.921875 C2.36431564 38.07328918 2.14660004 37.22470337 1.92228699 36.35040283 C1.46385132 34.55288694 1.01114396 32.75390189 0.5637207 30.95361328 C-0.11971244 28.20873648 -0.8229593 25.46952998 -1.52929688 22.73046875 C-1.97254697 20.9820728 -2.41464183 19.23338348 -2.85546875 17.484375 C-3.16945869 16.26062164 -3.16945869 16.26062164 -3.48979187 15.012146 C-4.53670452 10.7596392 -5.37737508 6.85056255 -4.9375 2.4375 C-2.9375 0.4375 -2.9375 0.4375 0 0 Z " fill="#000000" transform="translate(135.9375,198.5625)"/>
<path d="M0 0 C3 0.25 3 0.25 5 2.25 C5.62550257 10.64625927 2.33134576 19.7892136 0.24414062 27.84814453 C-0.37993037 30.26912658 -0.98336343 32.69468324 -1.5859375 35.12109375 C-1.98053733 36.66437842 -2.37632722 38.2073594 -2.7734375 39.75 C-3.04080215 40.83583374 -3.04080215 40.83583374 -3.31356812 41.94360352 C-4.65624883 47.02083256 -4.65624883 47.02083256 -8 49.25 C-11.1875 48.875 -11.1875 48.875 -14 48.25 C-15.2705558 42.30835599 -14.54306638 37.92629768 -12.98046875 32.10546875 C-12.7618367 31.25447098 -12.54320465 30.40347321 -12.31794739 29.52668762 C-11.85581447 27.73923112 -11.38733133 25.95340561 -10.9128418 24.16918945 C-10.18613135 21.43234555 -9.48123953 18.69055462 -8.77929688 15.94726562 C-8.32678938 14.2080028 -7.87305622 12.46905829 -7.41796875 10.73046875 C-7.20641647 9.90967331 -6.9948642 9.08887787 -6.77690125 8.24320984 C-4.67076154 0.38923013 -4.67076154 0.38923013 0 0 Z " fill="#000000" transform="translate(376,198.75)"/>
<path d="M0 0 C2.9375 0.1875 2.9375 0.1875 6 1 C9.20111281 5.70261198 7.84639105 10.67553997 7 16 C6.09177731 20.59860936 5.04233651 25.16326979 3.97265625 29.7265625 C3.01251306 33.83991349 2.27768905 37.96937884 1.6875 42.15234375 C0.72794468 44.73114866 -0.67105724 45.61126006 -3 47 C-5.75 47.1875 -5.75 47.1875 -8 47 C-7.39762985 42.35491886 -6.56846379 37.81547704 -5.59106445 33.2355957 C-3.72445938 24.45780992 -2.37566257 15.7707747 -1.59594727 6.82910156 C-1.08844141 1.08844141 -1.08844141 1.08844141 0 0 Z " fill="#CE4444" transform="translate(353,118)"/>
<path d="M0 0 C1.3921875 0.3403125 1.3921875 0.3403125 2.8125 0.6875 C2.85737549 1.27015625 2.90225098 1.8528125 2.94848633 2.453125 C4.13495927 17.48867748 5.85952841 32.09191261 9.8125 46.6875 C3.38512787 46.08114414 3.38512787 46.08114414 1.18237305 44.56689453 C-0.80572325 41.83932988 -1.15769509 39.23397928 -1.79296875 35.9296875 C-1.92190018 35.26720001 -2.0508316 34.60471252 -2.18367004 33.92214966 C-2.45383339 32.51948338 -2.71824387 31.1156985 -2.97729492 29.7109375 C-3.37028394 27.58797656 -3.78416637 25.46992084 -4.20117188 23.3515625 C-6.86126506 9.54106721 -6.86126506 9.54106721 -6.1875 2.6875 C-4.03548133 -0.15883349 -3.71440261 -0.36415712 0 0 Z " fill="#CF4545" transform="translate(161.1875,118.3125)"/>
<path d="M0 0 C4.55555556 1.55555556 4.55555556 1.55555556 6 3 C6.36188523 6.0385492 6.32645678 7.52206413 4.57885742 10.08056641 C3.92763916 10.74749512 3.2764209 11.41442383 2.60546875 12.1015625 C1.89712891 12.83890625 1.18878906 13.57625 0.45898438 14.3359375 C-0.29060547 15.09132812 -1.04019531 15.84671875 -1.8125 16.625 C-2.55048828 17.388125 -3.28847656 18.15125 -4.04882812 18.9375 C-6.02007721 20.97118684 -8.00418524 22.99045072 -10 25 C-10.52166748 25.56638184 -11.04333496 26.13276367 -11.58081055 26.71630859 C-13 28 -13 28 -15.5 28.375 C-18 28 -18 28 -19.875 26.875 C-21 25 -21 25 -20.81811523 22.16333008 C-19.87240612 18.50664463 -18.71942531 17.1237179 -16.03515625 14.51171875 C-14.83536133 13.32932617 -14.83536133 13.32932617 -13.61132812 12.12304688 C-12.77021484 11.31931641 -11.92910156 10.51558594 -11.0625 9.6875 C-9.80663086 8.45290039 -9.80663086 8.45290039 -8.52539062 7.19335938 C-2.36678466 1.18339233 -2.36678466 1.18339233 0 0 Z " fill="#000000" transform="translate(398,234)"/>
<path d="M0 0 C4.57257521 2.26836598 7.79438121 5.96397519 11.36621094 9.54785156 C12.14609375 10.299375 12.92597656 11.05089844 13.72949219 11.82519531 C19.33569164 17.41189494 19.33569164 17.41189494 20.70214844 21.72753906 C20.61621094 24.29785156 20.61621094 24.29785156 19.49121094 26.17285156 C16.8943941 27.73094166 15.62566221 27.75097917 12.61621094 27.29785156 C10.43936357 25.5184123 8.63714741 23.83881076 6.74121094 21.79785156 C5.95665527 20.97788696 5.95665527 20.97788696 5.15625 20.14135742 C4.1127497 19.04445598 3.07549048 17.9415795 2.04492188 16.83251953 C0.80768864 15.50352976 -0.45391352 14.19730551 -1.71972656 12.89550781 C-6.30701629 8.0180018 -6.30701629 8.0180018 -6.66113281 4.69628906 C-6.38378906 2.29785156 -6.38378906 2.29785156 -4.69628906 0.36035156 C-2.38378906 -0.70214844 -2.38378906 -0.70214844 0 0 Z " fill="#000000" transform="translate(114.3837890625,234.7021484375)"/>
<path d="M0 0 C9.9 0 19.8 0 30 0 C30 0.33 30 0.66 30 1 C22.74 1 15.48 1 8 1 C6.53766488 4.6558378 5.21677946 8.2627488 4 12 C4.66 12.33 5.32 12.66 6 13 C5.67 14.98 5.34 16.96 5 19 C3.02 19 1.04 19 -1 19 C-3.875 12.375 -3.875 12.375 -5 9 C-3.35 6.03 -1.7 3.06 0 0 Z " fill="#D2CC87" transform="translate(243,258)"/>
<path d="M0 0 C9.9 0 19.8 0 30 0 C30 0.33 30 0.66 30 1 C22.74 1 15.48 1 8 1 C6.53766488 4.6558378 5.21677946 8.2627488 4 12 C4.66 12.33 5.32 12.66 6 13 C5.67 14.98 5.34 16.96 5 19 C2.8125 19.5 2.8125 19.5 0 19 C-2.26663263 16.59900513 -3.79961239 14.07276254 -5 11 C-4.5 8.375 -4.5 8.375 -3 6 C-2.01 4.02 -1.02 2.04 0 0 Z " fill="#CAC481" transform="translate(229,399)"/>
<path d="M0 0 C2.97 0 5.94 0 9 0 C8.54625 0.86625 8.0925 1.7325 7.625 2.625 C6.13733341 5.71476907 5.0123569 8.72930848 4 12 C4.66 12 5.32 12 6 12 C6 14.31 6 16.62 6 19 C4.02 19 2.04 19 0 19 C-1.66666667 15.66666667 -3.33333333 12.33333333 -5 9 C-4.00390625 6.8359375 -4.00390625 6.8359375 -2.5625 4.375 C-2.08941406 3.55773437 -1.61632812 2.74046875 -1.12890625 1.8984375 C-0.75636719 1.27195312 -0.38382813 0.64546875 0 0 Z " fill="#D2CC7F" transform="translate(224,371)"/>
<path d="M0 0 C3.3 0 6.6 0 10 0 C9.319375 1.03125 8.63875 2.0625 7.9375 3.125 C5.80725623 6.82685719 6.0206394 8.81545925 7 13 C6.5625 16.375 6.5625 16.375 6 19 C4.35 19 2.7 19 1 19 C-4.20199501 10.98753117 -4.20199501 10.98753117 -3.4375 7.25 C-2.7259375 6.13625 -2.7259375 6.13625 -2 5 C-1.62875 4.071875 -1.2575 3.14375 -0.875 2.1875 C-0.58625 1.465625 -0.2975 0.74375 0 0 Z " fill="#D5CF81" transform="translate(242,484)"/>
<path d="M0 0 C2.28883044 0 4.52661481 0.09758748 6.8046875 0.3125 C6.1240625 1.240625 5.4434375 2.16875 4.7421875 3.125 C1.84908364 8.05850342 2.90190367 12.88598416 3.8046875 18.3125 C1.1171875 18.8125 1.1171875 18.8125 -2.1953125 18.3125 C-4.53447552 15.93868272 -6.03196579 13.4302692 -7.1953125 10.3125 C-6.6953125 7.625 -6.6953125 7.625 -5.1953125 5.3125 C-4.8446875 4.384375 -4.4940625 3.45625 -4.1328125 2.5 C-2.1953125 0.3125 -2.1953125 0.3125 0 0 Z " fill="#D4CE80" transform="translate(240.1953125,455.6875)"/>
<path d="M0 0 C2.97 0 5.94 0 9 0 C7.125 4.875 7.125 4.875 6 6 C5.92755947 8.01964199 5.91622812 10.04167124 5.9375 12.0625 C5.94652344 13.16722656 5.95554688 14.27195312 5.96484375 15.41015625 C5.97644531 16.26480469 5.98804688 17.11945313 6 18 C4.02 18 2.04 18 0 18 C-1.66666667 14.66666667 -3.33333333 11.33333333 -5 8 C-4.54625 7.608125 -4.0925 7.21625 -3.625 6.8125 C-1.72357081 4.69167513 -0.93795972 2.66957765 0 0 Z " fill="#D7D082" transform="translate(233,315)"/>
<path d="M0 0 C2.97 0 5.94 0 9 0 C7.125 4.875 7.125 4.875 6 6 C5.92755947 8.01964199 5.91622812 10.04167124 5.9375 12.0625 C5.94652344 13.16722656 5.95554688 14.27195312 5.96484375 15.41015625 C5.97644531 16.26480469 5.98804688 17.11945313 6 18 C4.02 18 2.04 18 0 18 C-3 12.25 -3 12.25 -3 10 C-3.66 10 -4.32 10 -5 10 C-3.33333333 6.66666667 -1.66666667 3.33333333 0 0 Z " fill="#D7D082" transform="translate(233,428)"/>
<path d="M0 0 C2.28883044 0 4.52661481 0.09758748 6.8046875 0.3125 C6.1240625 1.240625 5.4434375 2.16875 4.7421875 3.125 C1.84908364 8.05850342 2.90190367 12.88598416 3.8046875 18.3125 C1.1171875 18.8125 1.1171875 18.8125 -2.1953125 18.3125 C-4.53447552 15.93868272 -6.03196579 13.4302692 -7.1953125 10.3125 C-6.6953125 7.625 -6.6953125 7.625 -5.1953125 5.3125 C-4.8446875 4.384375 -4.4940625 3.45625 -4.1328125 2.5 C-2.1953125 0.3125 -2.1953125 0.3125 0 0 Z " fill="#D6CF81" transform="translate(240.1953125,286.6875)"/>
<path d="M0 0 C2.01181314 0 4.02225505 0.14814847 6.02734375 0.3125 C5.41456763 3.27425123 4.77361853 4.69308783 3.02734375 7.3125 C2.64234484 8.96799531 2.2994124 10.6347433 2.02734375 12.3125 C2.68734375 12.6425 3.34734375 12.9725 4.02734375 13.3125 C3.69734375 14.9625 3.36734375 16.6125 3.02734375 18.3125 C1.04734375 18.3125 -0.93265625 18.3125 -2.97265625 18.3125 C-7.18045216 11.30530268 -7.18045216 11.30530268 -6.41015625 7.625 C-5.93578125 6.861875 -5.46140625 6.09875 -4.97265625 5.3125 C-4.60140625 4.384375 -4.23015625 3.45625 -3.84765625 2.5 C-1.97265625 0.3125 -1.97265625 0.3125 0 0 Z " fill="#D8D183" transform="translate(230.97265625,342.6875)"/>
<path d="M0 0 C2.97 0 5.94 0 9 0 C9.33 1.98 9.66 3.96 10 6 C9.01 6.33 8.02 6.66 7 7 C1.26229508 3.78688525 1.26229508 3.78688525 0 0 Z " fill="#FDFDFB" transform="translate(245,371)"/>
<path d="M0 0 C2.97 0 5.94 0 9 0 C9.33 2.31 9.66 4.62 10 7 C6.12697862 5.85569823 2.99736561 4.76679902 0 2 C0 1.34 0 0.68 0 0 Z " fill="#FBFBF9" transform="translate(264,484)"/>
<path d="M0 0 C2.97 0 5.94 0 9 0 C9.33 1.98 9.66 3.96 10 6 C3.52443609 5.38909774 3.52443609 5.38909774 1.0625 3.5625 C0 2 0 2 0 0 Z " fill="#F7F7F6" transform="translate(255,315)"/>
<path d="M0 0 C1.45742463 -0.08096803 2.91612807 -0.13917774 4.375 -0.1875 C5.18710937 -0.22230469 5.99921875 -0.25710938 6.8359375 -0.29296875 C7.55007813 -0.19628906 8.26421875 -0.09960938 9 0 C11 3 11 3 11 6 C4.6 5.63076923 4.6 5.63076923 1.5625 2.4375 C1.046875 1.633125 0.53125 0.82875 0 0 Z " fill="#F8F8F7" transform="translate(259,456)"/>
<path d="M0 0 C2.97 0 5.94 0 9 0 C9.33 1.98 9.66 3.96 10 6 C3.52443609 5.38909774 3.52443609 5.38909774 1.0625 3.5625 C0 2 0 2 0 0 Z " fill="#F9F9F9" transform="translate(250,343)"/>
<path d="M0 0 C2.97 0 5.94 0 9 0 C9.33 1.98 9.66 3.96 10 6 C5.8333396 5.52651586 3.07115285 4.95303159 0 2 C0 1.34 0 0.68 0 0 Z " fill="#F8F8F7" transform="translate(255,428)"/>
<path d="M0 0 C1.45742463 -0.08096803 2.91612807 -0.13917774 4.375 -0.1875 C5.18710937 -0.22230469 5.99921875 -0.25710938 6.8359375 -0.29296875 C7.55007813 -0.19628906 8.26421875 -0.09960938 9 0 C11 3 11 3 11 6 C8.35556973 6.3888868 6.61173798 6.39540909 4.33203125 4.921875 C2.83068266 3.68085526 1.40974295 2.34417351 0 1 C0 0.67 0 0.34 0 0 Z " fill="#FAF9F8" transform="translate(259,287)"/>
<path d="M0 0 C2.97 0 5.94 0 9 0 C9.66 1.98 10.32 3.96 11 6 C5.64951939 5.62671065 3.49087093 4.0042343 0 0 Z " fill="#F8F8F7" transform="translate(250,400)"/>
<path d="M0 0 C2.97 0 5.94 0 9 0 C9.66 1.98 10.32 3.96 11 6 C4.6 5.63076923 4.6 5.63076923 1.5625 2.4375 C1.046875 1.633125 0.53125 0.82875 0 0 Z " fill="#F6F6F6" transform="translate(264,259)"/>
</svg>
