<?xml version="1.0" encoding="UTF-8"?>
<svg version="1.1" xmlns="http://www.w3.org/2000/svg" width="512" height="512">
<path d="M0 0 C0.89496185 -0.00832352 1.78992371 -0.01664703 2.71200562 -0.02522278 C5.66571424 -0.04928487 8.61920185 -0.05809043 11.57299805 -0.06469727 C13.63177048 -0.07366669 15.69054225 -0.0827886 17.74931335 -0.09205627 C22.06417422 -0.10853868 26.37895756 -0.11624499 30.69384766 -0.11914062 C36.21192616 -0.12452263 41.72927201 -0.16219881 47.24714375 -0.20788479 C51.49977757 -0.2376867 55.75223567 -0.24486488 60.00496483 -0.24586678 C62.03867128 -0.25006307 64.07237855 -0.26247353 66.10598183 -0.28338432 C68.95661293 -0.31036248 71.80555471 -0.30545404 74.65625 -0.29296875 C75.48925125 -0.30780304 76.3222525 -0.32263733 77.18049622 -0.33792114 C83.27617458 -0.26222874 87.26264832 1.51403381 92.0222168 5.30639648 C97.35843605 10.92346938 98.43432314 16.10597604 98.2722168 23.65405273 C97.69632339 29.76392189 94.49090971 33.36969082 90.0222168 37.30639648 C85.67738921 40.30639648 85.67738921 40.30639648 82.0222168 40.30639648 C82.0222168 56.14639648 82.0222168 71.98639648 82.0222168 88.30639648 C91.4455768 88.10979441 91.4455768 88.10979441 100.86743164 87.85595703 C109.68552387 87.76366775 116.8765143 88.67095329 123.625 94.75024414 C130.27676054 102.19408372 131.15265886 110.08486161 131.13574219 119.71044922 C131.13588821 120.41372849 131.13603424 121.11700775 131.13618469 121.84159851 C131.13549406 124.14109499 131.12774189 126.44050809 131.11987305 128.73999023 C131.11800584 130.34424292 131.11658337 131.94849617 131.11558533 133.55274963 C131.11178395 137.75635376 131.1019742 141.95992282 131.09088135 146.16351318 C131.08061586 150.46048509 131.07607674 154.7574627 131.07104492 159.05444336 C131.06034961 167.47177887 131.04277229 175.88907927 131.0222168 184.30639648 C140.5922168 184.30639648 150.1622168 184.30639648 160.0222168 184.30639648 C160.6822168 181.00639648 161.3422168 177.70639648 162.0222168 174.30639648 C163.12730136 171.50790896 164.21714697 168.95806629 165.5847168 166.30639648 C165.93405273 165.6214209 166.28338867 164.93644531 166.64331055 164.23071289 C173.01153758 152.24794527 183.07605189 142.70598748 196.0222168 138.30639648 C207.80266347 134.97909475 220.03287947 135.81172782 231.0222168 141.30639648 C247.75833119 151.16210829 255.30363173 166.08571301 260.0222168 184.30639648 C261.57948486 184.28283081 261.57948486 184.28283081 263.16821289 184.25878906 C267.06331455 184.20400592 270.95838299 184.16987263 274.85375977 184.14160156 C276.53155263 184.12662414 278.20930708 184.10623495 279.88696289 184.08007812 C292.74250728 183.88483311 304.17953474 183.8249896 314.05737305 193.24780273 C321.73871734 201.26372463 323.47886379 208.89867981 323.42626953 219.80810547 C323.43656441 221.3221698 323.43656441 221.3221698 323.44706726 222.86682129 C323.46525774 226.17885704 323.46150882 229.49041561 323.45581055 232.80249023 C323.46037594 235.1197983 323.46568258 237.43710502 323.47169495 239.75440979 C323.48061077 244.60195429 323.4782201 249.4493339 323.46826172 254.296875 C323.45677225 260.49162904 323.47699164 266.68581302 323.50617886 272.88049221 C323.52457356 277.66335125 323.52424186 282.44607448 323.51854134 287.22896004 C323.51838853 289.51218529 323.52439871 291.79541998 323.53683281 294.07861137 C323.55180305 297.27786338 323.54102088 300.47607235 323.52392578 303.67529297 C323.53359375 304.60702835 323.54326172 305.53876373 323.55322266 306.49873352 C323.44951673 315.82334631 320.50041902 323.69685775 314.0925293 330.54858398 C307.61528843 336.04812811 300.32991333 338.42602377 291.97117615 338.4535675 C291.24879621 338.45724419 290.52641627 338.46092088 289.78214604 338.46470898 C287.35491963 338.47574592 284.92773603 338.47958972 282.50048828 338.48339844 C280.76259729 338.48966324 279.02470764 338.49631005 277.28681946 338.50331116 C271.57232598 338.52435736 265.85783223 338.53471614 260.14331055 338.54467773 C258.17506458 338.54872551 256.20681875 338.55284243 254.23857307 338.55702782 C244.98865849 338.5760831 235.73875189 338.59031172 226.48882145 338.59863979 C215.81945215 338.60840474 205.15029072 338.63470349 194.48099464 338.67514068 C186.23031358 338.70533514 177.97969198 338.72011195 169.72895676 338.7234208 C164.80344266 338.72576808 159.87815055 338.73468621 154.95269585 338.75988197 C150.31431285 338.78322505 145.676297 338.78737092 141.03787041 338.77712059 C139.34080786 338.77662658 137.64372687 338.78290698 135.94672012 338.79667664 C120.41622567 338.91558079 120.41622567 338.91558079 112.99147129 335.22438335 C109.79153981 333.7327046 106.91110209 333.69419591 103.3972168 333.55639648 C102.18807617 333.49967773 100.97893555 333.44295898 99.7331543 333.38452148 C98.83854492 333.35874023 97.94393555 333.33295898 97.0222168 333.30639648 C97.00803711 333.93545898 96.99385742 334.56452148 96.97924805 335.21264648 C96.62193405 341.62498408 95.59158358 346.59064266 91.0222168 351.30639648 C85.87227396 355.00033454 80.56849201 357.14845285 74.18237305 356.72045898 C67.81280576 355.49952927 63.20357172 352.28657322 59.2097168 347.23999023 C56.5248858 342.86830818 56.0222168 338.39959629 56.0222168 333.30639648 C43.1522168 333.30639648 30.2822168 333.30639648 17.0222168 333.30639648 C17.0222168 336.27639648 17.0222168 339.24639648 17.0222168 342.30639648 C14.9209081 348.61032256 10.26251525 352.43043422 4.6472168 355.68139648 C-3.48523194 357.6176938 -9.54418733 355.98717538 -16.6652832 351.68139648 C-20.88926176 347.34325634 -22.91526246 342.5548276 -23.08325195 336.51342773 C-23.04844727 335.45510742 -23.01364258 334.39678711 -22.9777832 333.30639648 C-23.88399414 333.35280273 -24.79020508 333.39920898 -25.72387695 333.44702148 C-33.46692132 333.67644502 -39.3117804 333.40306202 -45.9777832 329.30639648 C-46.8852832 328.74952148 -47.7927832 328.19264648 -48.7277832 327.61889648 C-55.68471868 320.4687128 -57.12923267 312.80536113 -57.1182251 303.14167786 C-57.12119622 302.32366737 -57.12416734 301.50565688 -57.1272285 300.66285819 C-57.13589454 297.92399141 -57.13742198 295.18516846 -57.13891602 292.44628906 C-57.1435457 290.4815054 -57.14857056 288.51672264 -57.15396118 286.55194092 C-57.16707335 281.21495924 -57.17352792 275.87799014 -57.17797184 270.54099488 C-57.18090468 267.20493225 -57.18500991 263.86887303 -57.18947601 260.53281212 C-57.20314829 250.09008895 -57.21281607 239.64737362 -57.2166779 229.20464212 C-57.22115709 217.15942483 -57.23869969 205.11432111 -57.2676785 193.06913835 C-57.28931272 183.75260779 -57.29938313 174.43610915 -57.30071902 165.11955374 C-57.30176587 159.55807514 -57.30764802 153.99670334 -57.32553864 148.43525124 C-57.34204918 143.20100969 -57.34416029 137.96695488 -57.33539963 132.73269653 C-57.33463083 130.81633185 -57.33895109 128.89995701 -57.34885788 126.98361778 C-57.46433414 103.24562434 -57.46433414 103.24562434 -50.8527832 95.93139648 C-50.33458008 95.32553711 -49.81637695 94.71967773 -49.2824707 94.09545898 C-40.93483972 87.61543358 -32.67700205 87.80462984 -22.4152832 88.05639648 C-17.6509082 88.13889648 -12.8865332 88.22139648 -7.9777832 88.30639648 C-7.9777832 72.46639648 -7.9777832 56.62639648 -7.9777832 40.30639648 C-9.6277832 39.97639648 -11.2777832 39.64639648 -12.9777832 39.30639648 C-18.42799103 35.77274526 -22.2555969 31.65695848 -23.9777832 25.30639648 C-24.86213028 18.47789376 -24.05984153 12.94591707 -19.9777832 7.30639648 C-14.09354904 0.97076901 -8.21266059 0.00650566 0 0 Z M5.0222168 41.30639648 C5.0222168 56.81639648 5.0222168 72.32639648 5.0222168 88.30639648 C26.1422168 88.30639648 47.2622168 88.30639648 69.0222168 88.30639648 C69.0222168 72.79639648 69.0222168 57.28639648 69.0222168 41.30639648 C47.9022168 41.30639648 26.7822168 41.30639648 5.0222168 41.30639648 Z M181.84643555 164.87670898 C177.30251989 170.92877651 175.09589761 177.04851365 173.0222168 184.30639648 C197.1122168 184.30639648 221.2022168 184.30639648 246.0222168 184.30639648 C244.08545752 172.68584085 238.09718201 162.54502519 228.5690918 155.48999023 C211.05561737 144.34261004 194.63309614 149.95475143 181.84643555 164.87670898 Z " fill="#010101" transform="translate(83.977783203125,128.693603515625)"/>
<path d="M0 0 C9.64089711 6.51778959 16.84884631 15.48243824 24.2109375 24.375 C28.10057609 22.85068217 29.93283627 20.51470627 32.4609375 17.25 C41.43277082 6.05350328 51.6206186 -3.99358212 66.5378418 -5.92651367 C68.89607726 -6.06068187 71.22418127 -6.09294621 73.5859375 -6.0625 C74.41593262 -6.05492676 75.24592773 -6.04735352 76.10107422 -6.03955078 C89.5929685 -5.6786077 100.15160247 0.54679876 109.36328125 10.1796875 C119.95704221 22.76677768 124.53976289 39.08617267 123.2109375 55.375 C121.05530762 73.09035828 113.58860887 84.77482563 101.88525391 97.53125 C99.26001452 100.42215228 96.73836008 103.39869642 94.2109375 106.375 C89.5239798 111.85794374 84.80483153 117.31240411 80.07519531 122.75854492 C76.35014472 127.05105753 72.65096059 131.3648678 68.9609375 135.6875 C65.53652801 139.69847501 62.07367022 143.66155105 58.5234375 147.5625 C55.5317559 150.85442205 52.68569327 154.22091307 49.8984375 157.6875 C46.36049432 162.03997843 42.72024077 166.27621869 38.9609375 170.4375 C38.21783325 171.27825073 38.21783325 171.27825073 37.4597168 172.13598633 C34.61771324 175.2417844 32.30382073 177.26495014 28.2109375 178.375 C24.8984375 178.5 24.8984375 178.5 22.2109375 178.375 C22.17355469 179.02726563 22.13617188 179.67953125 22.09765625 180.3515625 C22.03191406 181.22554687 21.96617187 182.09953125 21.8984375 183 C21.84042969 183.85851562 21.78242188 184.71703125 21.72265625 185.6015625 C20.81360689 190.52847123 19.41347033 193.51925902 15.28515625 196.45703125 C14.16753906 197.02808594 13.04992187 197.59914062 11.8984375 198.1875 C10.78855469 198.77144531 9.67867187 199.35539063 8.53515625 199.95703125 C3.6605751 202.03631792 0.61381553 202.82677428 -4.4765625 201.1875 C-9.22547668 198.58903753 -9.22547668 198.58903753 -10.7890625 195.375 C-12.01407649 188.48129382 -11.70186109 181.84503074 -11.3515625 174.875 C-11.25201961 172.56127831 -11.15436077 170.2474748 -11.05859375 167.93359375 C-11.0117041 166.81452637 -10.96481445 165.69545898 -10.91650391 164.54248047 C-10.7474481 160.34069878 -10.60263399 156.1422285 -10.5390625 151.9375 C-10.51328125 150.72191406 -10.4875 149.50632813 -10.4609375 148.25390625 C-10.83326677 144.98716014 -11.43582754 144.4746603 -13.7890625 142.375 C-27.34173296 150.0913175 -40.88714541 157.81785098 -54.3515625 165.6875 C-55.32182373 166.2544458 -56.29208496 166.8213916 -57.29174805 167.40551758 C-61.06812159 169.61311104 -64.84383822 171.82182527 -68.61914062 174.03125 C-71.27837355 175.58605098 -73.93970222 177.13720266 -76.6015625 178.6875 C-77.39054932 179.15003174 -78.17953613 179.61256348 -78.99243164 180.08911133 C-79.71551514 180.5095874 -80.43859863 180.93006348 -81.18359375 181.36328125 C-81.81112549 181.72977783 -82.43865723 182.09627441 -83.08520508 182.47387695 C-89.15932199 185.68630933 -97.06376581 185.40775552 -103.55078125 183.609375 C-110.59194415 180.47014382 -115.02075276 175.27821827 -119.7890625 169.375 C-120.48386719 168.52808594 -121.17867187 167.68117187 -121.89453125 166.80859375 C-123.35688689 165.02127019 -124.81369747 163.22939885 -126.265625 161.43359375 C-129.25129632 157.81473827 -132.32833875 154.28344587 -135.4140625 150.75 C-137.05419518 148.85883386 -138.69167266 146.96543993 -140.32666016 145.06982422 C-141.60641453 143.5866765 -142.89072226 142.10746021 -144.17578125 140.62890625 C-146.78611662 137.48909109 -148.56807062 135.12637241 -149.7265625 131.1875 C-148.20809328 126.63209233 -144.7278797 124.85937763 -140.7890625 122.375 C-140.20382813 121.94574219 -139.61859375 121.51648438 -139.015625 121.07421875 C-134.19193929 117.77916584 -130.22876272 118.36894478 -124.7890625 119.375 C-119.00606442 120.77330929 -113.2849496 122.39731842 -107.5625 124.0234375 C-106.4075 124.33796875 -105.2525 124.6525 -104.0625 124.9765625 C-103.02528809 125.26869629 -101.98807617 125.56083008 -100.91943359 125.86181641 C-94.65489204 126.88880645 -90.1357847 125.38131771 -84.76953125 122.20703125 C-83.66416016 121.56056641 -82.55878906 120.91410156 -81.41992188 120.24804688 C-80.27198997 119.56144102 -79.12420412 118.87459094 -77.9765625 118.1875 C-76.85185547 117.52685547 -75.72714844 116.86621094 -74.56835938 116.18554688 C-72.35403517 114.88217069 -70.14409969 113.57130511 -67.93896484 112.25244141 C-65.88074309 111.02567615 -63.81361461 109.81370004 -61.73681641 108.61865234 C-60.36468994 107.82322021 -60.36468994 107.82322021 -58.96484375 107.01171875 C-58.15571533 106.54854248 -57.34658691 106.08536621 -56.51293945 105.6081543 C-55.94406006 105.20121338 -55.37518066 104.79427246 -54.7890625 104.375 C-54.7890625 103.715 -54.7890625 103.055 -54.7890625 102.375 C-55.74776245 101.83927368 -55.74776245 101.83927368 -56.72583008 101.29272461 C-59.6862622 99.63593963 -62.64391173 97.97424471 -65.6015625 96.3125 C-66.60638672 95.75111328 -67.61121094 95.18972656 -68.64648438 94.61132812 C-87.57471989 83.96039174 -87.57471989 83.96039174 -91.0390625 79.4375 C-91.99285299 75.54285551 -92.13322375 72.18712945 -90.7890625 68.375 C-87.997724 64.24980511 -84.81365635 61.76942179 -80.6640625 59.0625 C-79.60960937 58.36511719 -78.55515625 57.66773438 -77.46875 56.94921875 C-74.7890625 55.375 -74.7890625 55.375 -72.7890625 55.375 C-72.84126953 54.08529297 -72.84126953 54.08529297 -72.89453125 52.76953125 C-73.30645078 34.7823785 -68.25592955 19.59886847 -55.7890625 6.375 C-40.87993689 -7.55447054 -17.58960606 -10.24828588 0 0 Z " fill="#020202" transform="translate(357.7890625,29.625)"/>
<path d="M0 0 C53.46 0 106.92 0 162 0 C162 41.91 162 83.82 162 127 C108.54 127 55.08 127 0 127 C0 85.09 0 43.18 0 0 Z " fill="#BAABD2" transform="translate(40,274)"/>
<path d="M0 0 C34.32 0 68.64 0 104 0 C104 42.57 104 85.14 104 129 C69.68 129 35.36 129 0 129 C0 86.43 0 43.86 0 0 Z " fill="#F8F5C8" transform="translate(242,326)"/>
<path d="M0 0 C0.67160156 0.40992188 1.34320313 0.81984375 2.03515625 1.2421875 C2.67582031 1.63148437 3.31648438 2.02078125 3.9765625 2.421875 C13.58125521 8.98023083 21.04571535 19.06368078 28.2578125 28.0625 C30.00160809 30.27607709 30.00160809 30.27607709 32.03515625 32.2421875 C35.33038386 32.2618958 37.89451186 32.15125318 40.55273438 30.03271484 C42.05931843 28.39254979 43.42746649 26.69503261 44.78515625 24.9296875 C45.82652481 23.65103884 46.86952742 22.37371947 47.9140625 21.09765625 C48.43371582 20.45231934 48.95336914 19.80698242 49.48876953 19.14208984 C57.66814755 9.09284455 66.43350029 -1.60077898 80.11328125 -3.09375 C90.82003891 -3.22560662 98.64361977 -0.73253531 106.93359375 6.13671875 C115.83516879 15.05483947 120.37372637 26.42975576 120.41015625 38.8671875 C120.064428 59.06035975 110.28826516 70.77889058 97.62744141 85.39990234 C95.60109167 87.74440328 93.58674748 90.09902274 91.57299805 92.4543457 C84.22094516 101.05222056 76.80564417 109.59499638 69.38964844 118.13769531 C67.75030767 120.02639511 66.11138059 121.91545285 64.47265625 123.8046875 C63.93608398 124.42303467 63.39951172 125.04138184 62.84667969 125.6784668 C59.66925572 129.34402373 56.50986439 133.02421966 53.36303711 136.71606445 C49.09095197 141.72322079 44.79601356 146.70914685 40.41015625 151.6171875 C39.61351562 152.51179687 38.816875 153.40640625 37.99609375 154.328125 C36.03515625 156.2421875 36.03515625 156.2421875 34.03515625 156.2421875 C34.65408104 147.16504407 35.99584238 138.22377398 37.4543457 129.2512207 C37.71838396 127.60880769 37.97512538 125.96520632 38.22485352 124.32055664 C38.58982475 121.91792841 38.97600546 119.51957657 39.3671875 117.12109375 C39.47464798 116.38879044 39.58210846 115.65648712 39.69282532 114.9019928 C40.45326555 110.43475535 41.44097763 108.03424415 45.03515625 105.2421875 C46.94433594 103.92456055 46.94433594 103.92456055 48.95703125 102.75390625 C49.72345947 102.30233154 50.4898877 101.85075684 51.27954102 101.38549805 C52.10639404 100.90508057 52.93324707 100.42466309 53.78515625 99.9296875 C61.79203656 95.2037913 69.71955207 90.3673812 77.59765625 85.4296875 C78.5712207 84.82020264 79.54478516 84.21071777 80.54785156 83.58276367 C83.3796171 81.80675945 86.20823543 80.02589216 89.03515625 78.2421875 C90.06624512 77.5920166 91.09733398 76.9418457 92.15966797 76.27197266 C93.15885254 75.63952637 94.15803711 75.00708008 95.1875 74.35546875 C96.09363037 73.78223877 96.99976074 73.20900879 97.93334961 72.6184082 C99.93627191 71.40914623 99.93627191 71.40914623 101.03515625 70.2421875 C101.74959856 66.05759681 100.97041965 63.67374934 98.59765625 60.3046875 C91.40373872 51.5214161 80.36506078 44.1978183 69.03515625 42.2421875 C49.72074677 40.71965522 36.7962433 49.46004186 20.82763672 59.19824219 C17.92804588 60.96527269 15.0158511 62.7100709 12.09674072 64.44464111 C10.37038856 65.47857286 8.6574667 66.53482272 6.94482422 67.59130859 C5.8776416 68.22375488 4.81045898 68.85620117 3.7109375 69.5078125 C2.76130127 70.08305664 1.81166504 70.65830078 0.83325195 71.25097656 C-3.73668639 72.8698536 -6.66093244 70.82653415 -10.88647461 68.93286133 C-11.89073486 68.44325928 -12.89499512 67.95365723 -13.9296875 67.44921875 C-15.615177 66.63167114 -15.615177 66.63167114 -17.3347168 65.79760742 C-19.10069214 64.93486206 -19.10069214 64.93486206 -20.90234375 64.0546875 C-23.32342923 62.87857846 -25.74573289 61.70498756 -28.16796875 60.53125 C-29.33392578 59.96567383 -30.49988281 59.40009766 -31.70117188 58.81738281 C-37.75879927 55.8936985 -43.85564686 53.05630667 -49.96484375 50.2421875 C-50.68824971 34.54761697 -50.52438084 21.74462769 -39.83984375 9.171875 C-29.44087293 -1.53039913 -14.09363736 -7.41770387 0 0 Z " fill="#F192BC" transform="translate(347.96484375,38.7578125)"/>
<path d="M0 0 C25.41 0 50.82 0 77 0 C77 41.25 77 82.5 77 125 C50.93 125 24.86 125 -2 125 C5.45141972 100.16193427 5.45141972 100.16193427 11.0625 94.375 C15.52067597 89.6538479 19.68181639 84.78666931 23.7421875 79.71484375 C26.11625948 76.86020702 28.63017566 74.19091591 31.1875 71.5 C39.21077906 62.60054382 42.87660453 55.58481701 42.64111328 43.57104492 C42.22635872 36.16884982 40.52986084 30.38752774 35.0625 25.140625 C29.47636562 20.69710902 24.70765903 18.71987821 17.5 18.8125 C16.3965625 18.81894531 15.293125 18.82539063 14.15625 18.83203125 C11.32773917 18.98255844 8.75307445 19.35795838 6 20 C2.7173758 13.27843616 1.78908824 7.75271572 0 0 Z " fill="#D5CBE4" transform="translate(125,275)"/>
<path d="M0 0 C-6.48230768 15.39114765 -29.49059941 23.57703249 -43.8828125 29.63671875 C-46.81499223 30.69348497 -46.81499223 30.69348497 -48 32 C-48.25005386 34.95817107 -48.25005386 34.95817107 -48 38 C-47.34 38.66 -46.68 39.32 -46 40 C-40.16464419 39.71198888 -35.52227384 38.29879326 -30.25 35.875 C-29.55898193 35.56369141 -28.86796387 35.25238281 -28.15600586 34.93164062 C-18.28057473 30.39498965 -9.36437382 24.94065061 -1 18 C-0.38511719 17.51917969 0.22976563 17.03835937 0.86328125 16.54296875 C5.71562227 12.63742598 9.33483141 8.01314852 13 3 C16.79635796 3.55183487 19.23697668 4.52468133 22.3125 6.8125 C23.35857422 7.56466797 23.35857422 7.56466797 24.42578125 8.33203125 C26 10 26 10 26 14 C24.54492188 15.31762695 24.54492188 15.31762695 22.46875 16.48828125 C21.68927002 16.93993652 20.90979004 17.3915918 20.10668945 17.85693359 C19.24648193 18.33727051 18.38627441 18.81760742 17.5 19.3125 C15.6691898 20.37130994 13.83982596 21.43262372 12.01171875 22.49609375 C11.0376709 23.05925293 10.06362305 23.62241211 9.06005859 24.20263672 C3.74673575 27.32348264 -1.46810414 30.60028409 -6.6875 33.875 C-7.6775 34.49286377 -8.6675 35.11072754 -9.6875 35.74731445 C-11.5775322 36.93066259 -13.46237812 38.12234468 -15.34130859 39.32324219 C-17.07310536 40.41543504 -18.82575439 41.47544844 -20.60009766 42.49707031 C-21.39851074 42.97499023 -22.19692383 43.45291016 -23.01953125 43.9453125 C-23.71796143 44.34508301 -24.4163916 44.74485352 -25.13598633 45.15673828 C-30.90837674 50.86486501 -31.22533362 61.02872669 -32.4453125 68.625 C-32.66065643 69.92646973 -32.87600037 71.22793945 -33.09786987 72.56884766 C-33.66700322 76.01030655 -34.22612073 79.45332113 -34.7833252 82.89672852 C-35.23786345 85.69476141 -35.69963791 88.49157689 -36.16179085 91.2883606 C-37.12093926 97.09461826 -38.07440346 102.90182635 -39.01611328 108.7109375 C-39.19378235 109.80245117 -39.37145142 110.89396484 -39.55450439 112.01855469 C-39.93863271 114.58930413 -40.21586175 117.13939122 -40.45263672 119.7265625 C-40.6332666 120.80679688 -40.81389648 121.88703125 -41 123 C-43.76217341 124.8806287 -45.62963578 126 -49 126 C-49.12998774 116.43867959 -48.90915202 106.9277489 -48.5 97.375 C-48.1374922 88.72732275 -47.8921939 80.09319434 -47.875 71.4375 C-47.87048828 70.4976123 -47.86597656 69.55772461 -47.86132812 68.58935547 C-47.45129226 64.46978202 -47.45129226 64.46978202 -49 61 C-56.30254111 59.85803884 -61.30739294 63.51126844 -67.4375 67.125 C-68.53715088 67.75736572 -69.63680176 68.38973145 -70.76977539 69.04125977 C-74.18882438 71.01248231 -77.59511807 73.00442678 -81 75 C-83.02037084 76.17397338 -85.04118605 77.34718244 -87.0625 78.51953125 C-90.99689063 80.80584574 -94.92600947 83.10089081 -98.8515625 85.40234375 C-105.49122626 89.29251952 -112.14911545 93.15066856 -118.8125 97 C-119.86751709 97.61093506 -120.92253418 98.22187012 -122.00952148 98.85131836 C-124.02472089 100.01464165 -126.04310162 101.17247502 -128.06494141 102.32421875 C-130.04989044 103.45753186 -132.02599293 104.60645871 -133.99365234 105.76953125 C-135.42572021 106.59517578 -135.42572021 106.59517578 -136.88671875 107.4375 C-138.14875122 108.17806641 -138.14875122 108.17806641 -139.4362793 108.93359375 C-142.50574795 110.21037111 -144.70317992 110.29902239 -148 110 C-152.93646943 107.38507433 -156.14628068 103.86765717 -159.625 99.625 C-160.67033828 98.37740753 -161.71591854 97.13001778 -162.76171875 95.8828125 C-163.2932959 95.24375977 -163.82487305 94.60470703 -164.37255859 93.94628906 C-167.02862488 90.76984736 -169.73530331 87.63718857 -172.4375 84.5 C-173.84671465 82.86069032 -175.25422439 81.22009803 -176.65576172 79.57421875 C-177.58329181 78.48800116 -178.51765868 77.4075973 -179.45751953 76.33203125 C-183 72.22091236 -183 72.22091236 -183 70 C-178.997829 68.44580158 -175.89676981 69.57352294 -171.85546875 70.65234375 C-171.16745682 70.83132706 -170.47944489 71.01031036 -169.77058411 71.19471741 C-167.57374501 71.76666107 -165.38041014 72.35068524 -163.1875 72.9375 C-160.30848761 73.70653162 -157.42671175 74.46377377 -154.54296875 75.21484375 C-153.89168503 75.39297104 -153.24040131 75.57109833 -152.56938171 75.75462341 C-147.23714852 77.14368465 -142.43561312 78.00186361 -137.23120117 75.86108398 C-136.34408447 75.32813721 -135.45696777 74.79519043 -134.54296875 74.24609375 C-133.52638184 73.64659912 -132.50979492 73.04710449 -131.46240234 72.42944336 C-130.38168457 71.77210205 -129.3009668 71.11476074 -128.1875 70.4375 C-127.03692409 69.75303241 -125.88537421 69.07019968 -124.73291016 68.38891602 C-122.33979763 66.97255757 -119.95101915 65.5492687 -117.56494141 64.12109375 C-112.04182033 60.82390954 -106.45450676 57.63795127 -100.875 54.4375 C-92.60808513 49.67452086 -84.36026403 44.8799586 -76.125 40.0625 C-66.86155797 34.64462246 -57.55692397 29.30159555 -48.23068237 23.99285889 C-41.84468936 20.35765479 -35.47237246 16.70288141 -29.13671875 12.98046875 C-28.04939453 12.34173828 -26.96207031 11.70300781 -25.84179688 11.04492188 C-23.80053687 9.84291676 -21.76133017 8.63741495 -19.72460938 7.42773438 C-6.16311277 -0.56028298 -6.16311277 -0.56028298 0 0 Z " fill="#D1E4F3" transform="translate(408,92)"/>
<path d="M0 0 C53.46 0 106.92 0 162 0 C162 27 162 27 158 34 C153.94647126 36.70139781 150.75545596 37.37633524 145.93470764 37.38768005 C144.7417659 37.39758469 143.54882416 37.40748932 142.31973267 37.41769409 C140.37687881 37.41094162 140.37687881 37.41094162 138.39477539 37.40405273 C137.00624544 37.40975984 135.61772018 37.41672541 134.22920227 37.42485046 C130.46880897 37.44275971 126.70864931 37.44161776 122.94822621 37.43590808 C119.80462771 37.43281295 116.66107388 37.43891228 113.51748174 37.44494683 C106.09926303 37.45898312 98.68115949 37.45743828 91.26293945 37.44604492 C83.61931217 37.43456453 75.97603579 37.44863989 68.33245474 37.4754414 C61.76070378 37.49761873 55.1890628 37.50423121 48.61727709 37.49836498 C44.69627918 37.49499904 40.77550618 37.49738613 36.85453987 37.51461601 C33.16651309 37.5301157 29.47900498 37.52609673 25.79099846 37.50731087 C23.799256 37.50188506 21.80749009 37.51611608 19.8157959 37.53100586 C13.0705168 37.47553159 8.30046031 37.39095396 3 33 C0 27 0 27 0 0 Z " fill="#BBACD3" transform="translate(40,413)"/>
<path d="M0 0 C3.2890148 2.44387181 6.09066627 5.31439161 8.82421875 8.35546875 C11.53391132 7.11186248 13.0060694 6.16870321 15.13671875 3.98046875 C20.32729238 -1.08939387 23.92459943 -2.90193572 31.13671875 -3.20703125 C38.50693275 -2.95288594 44.14163489 -0.92920881 49.66796875 4 C56.83471818 11.78154411 57.63983497 19.78609798 57.28125 29.9140625 C56.45548088 40.74005491 48.99625971 47.72609514 41.84375 55.16015625 C39.13869358 57.98319286 36.64650661 60.92896595 34.19921875 63.98046875 C30.34496417 68.78249086 26.27101468 73.33235559 22.0859375 77.84765625 C20.54978465 79.55095526 19.07378948 81.31006886 17.65625 83.11328125 C15.10026843 86.2414975 14.23647254 86.30655728 10.13671875 86.79296875 C5.8054188 86.69948746 3.72903404 85.33669344 0.66015625 82.37890625 C-2.29447362 79.12252694 -5.04906128 75.7190444 -7.7890625 72.28125 C-10.1600741 69.3747235 -12.63242637 66.61175567 -15.17578125 63.85546875 C-20.06992514 58.52814753 -24.66812858 53.01162297 -29.17578125 47.35546875 C-30.06136719 46.29005859 -30.06136719 46.29005859 -30.96484375 45.203125 C-36.61985125 38.1691871 -38.82268678 31.16523363 -38.51953125 22.12109375 C-37.46064663 13.60188565 -33.36427011 7.15369254 -27.17578125 1.35546875 C-19.51327259 -4.1686654 -8.20727199 -4.7660678 0 0 Z " fill="#040304" transform="translate(111.17578125,295.64453125)"/>
<path d="M0 0 C3.56699614 2.12485576 6.34691506 4.98024783 9.1171875 8.046875 C10.46842225 9.66861407 10.46842225 9.66861407 12.5625 9.4375 C13.7589259 7.97520168 14.95337836 6.51119365 16.1328125 5.03515625 C19.71516641 1.0319247 24.02974848 -1.31384277 29.34765625 -1.8359375 C37.19443412 -2.07910344 43.17284826 -1.36631426 49.5625 3.4375 C51.95743006 5.90854012 53.83717069 8.46520371 55.5625 11.4375 C56.10003906 12.34113281 56.63757813 13.24476563 57.19140625 14.17578125 C60.09260387 21.07749068 59.65031442 30.04393844 57.859375 37.27734375 C54.26824148 45.33059467 47.42331067 51.96727302 41.5625 58.4375 C40.74910156 59.33855469 39.93570313 60.23960937 39.09765625 61.16796875 C37.64068399 62.77857604 36.1823967 64.38799493 34.72265625 65.99609375 C30.30855194 70.98490965 26.16032099 76.19991712 21.9921875 81.39453125 C18.84688293 85.26495094 16.91988733 87.25651502 11.8125 87.9375 C7.5411465 87.78967538 5.42617998 86.37907844 2.3984375 83.4609375 C-0.55619237 80.20455819 -3.31078003 76.80107565 -6.05078125 73.36328125 C-8.42179285 70.45675475 -10.89414512 67.69378692 -13.4375 64.9375 C-18.33164389 59.61017878 -22.92984733 54.09365422 -27.4375 48.4375 C-28.32308594 47.37208984 -28.32308594 47.37208984 -29.2265625 46.28515625 C-34.88157 39.25121835 -37.08440553 32.24726488 -36.78125 23.203125 C-35.52964455 13.13339024 -30.03340122 6.1892561 -22.375 -0.0625 C-15.95638361 -3.31537347 -6.47137472 -2.91970227 0 0 Z " fill="#040303" transform="translate(282.4375,351.5625)"/>
<path d="M0 0 C1.20005173 -0.00708481 2.40010345 -0.01416962 3.63652039 -0.02146912 C4.94986862 -0.0189917 6.26321686 -0.01651428 7.61636353 -0.01396179 C9.01607027 -0.01830991 10.41577464 -0.0234934 11.81547546 -0.02944946 C15.61513388 -0.04284115 19.41469283 -0.04341787 23.21437025 -0.04088616 C26.38777772 -0.0398164 29.56116508 -0.04470005 32.73456824 -0.04949158 C40.22268848 -0.06058771 47.71075857 -0.06102382 55.19888306 -0.05497742 C62.91968032 -0.04893889 70.64029529 -0.06124525 78.36106145 -0.08254749 C84.99303993 -0.10017177 91.62496043 -0.10616348 98.25696146 -0.10290974 C102.21648719 -0.10109779 106.17588293 -0.10372406 110.13538742 -0.11762428 C113.86023586 -0.13021125 117.58480056 -0.12825049 121.3096447 -0.11521339 C123.32426062 -0.11172477 125.33888524 -0.12301967 127.35346985 -0.13478088 C128.55916122 -0.12776657 129.7648526 -0.12075226 131.00708008 -0.11352539 C132.05088522 -0.11369313 133.09469036 -0.11386087 134.17012596 -0.1140337 C137.80165216 0.34564853 140.05176806 1.2725234 143.13052368 3.26069641 C147.13052368 9.26069641 147.13052368 9.26069641 147.13052368 33.26069641 C93.67052368 33.26069641 40.21052368 33.26069641 -14.86947632 33.26069641 C-14.86947632 8.26069641 -14.86947632 8.26069641 -9.86947632 2.26069641 C-6.64730145 0.0105628 -3.87875525 0.00763393 0 0 Z " fill="#BBACD3" transform="translate(54.869476318359375,228.7393035888672)"/>
<path d="M0 0 C24 0 24 0 32 5 C35.31086392 9.24469733 37.11501207 12.67352653 37.14717102 18.05862427 C37.15432632 18.88274307 37.16148163 19.70686188 37.16885376 20.55595398 C37.17154266 21.45675186 37.17423157 22.35754974 37.17700195 23.28564453 C37.18685875 24.71302193 37.18685875 24.71302193 37.19691467 26.16923523 C37.21665119 29.32376178 37.22831261 32.47824066 37.23828125 35.6328125 C37.24235678 36.7110516 37.2464323 37.7892907 37.25063133 38.9002037 C37.27149602 44.60989948 37.28579465 50.31957121 37.29516602 56.02929688 C37.3062164 61.91712322 37.34059965 67.80457018 37.38033772 73.69226265 C37.40653095 78.2271493 37.4148604 82.76194606 37.41844749 87.2969017 C37.42330835 89.46653676 37.43490796 91.63616794 37.45348549 93.80572891 C37.47792842 96.85011736 37.47690198 99.893531 37.4699707 102.93798828 C37.48278076 103.82664078 37.49559082 104.71529327 37.50878906 105.63087463 C37.45403854 112.26227884 36.10899641 118.58513114 31.51721668 123.62866402 C22.11341941 131.79200477 14.26885773 128 0 128 C0 85.76 0 43.52 0 0 Z " fill="#F7F4C7" transform="translate(358,326)"/>
<path d="M0 0 C34.32 0 68.64 0 104 0 C104 42.57 104 85.14 104 129 C69.68 129 35.36 129 0 129 C0 128.67 0 128.34 0 128 C33.99 128 67.98 128 103 128 C103 94.34 103 60.68 103 26 C99.04 27.65 95.08 29.3 91 31 C87.47835531 29.35978192 85.77891163 28.34366041 83 26 C76.90961248 23.96987083 69.60494252 24.10011077 63.5625 26.1875 C59.45240829 29.09463804 55.83221409 31.75167886 53 36 C48.99844759 34.21757131 46.26357375 31.62705131 43.09765625 28.65625 C37.73533753 24.42231492 32.13400372 24.46070016 25.5234375 24.55078125 C19.01917275 25.38003895 15.23989601 28.82064172 10.6875 33.25 C5.41352737 41.84462207 3.52221776 49.75678563 5.5546875 59.71875 C8.04335881 67.96691775 13.29986275 73.76683465 19 80 C17.95392578 81.03060547 17.95392578 81.03060547 16.88671875 82.08203125 C13.76928446 85.19946554 10.79030759 88.43730951 7.8125 91.6875 C2.22466216 97.77533784 2.22466216 97.77533784 0 100 C0 67 0 34 0 0 Z " fill="#F3EEA4" transform="translate(242,326)"/>
<path d="M0 0 C2.81356676 0.65742748 3.39917814 2.0877302 4.97265625 4.4609375 C6.47396991 7.71243388 7.63842594 11.09106525 8.84765625 14.4609375 C9.19916748 15.4391748 9.55067871 16.41741211 9.9128418 17.42529297 C13.26744884 26.97402753 15.87735768 36.56511848 17.97265625 46.4609375 C18.21822266 47.53456543 18.21822266 47.53456543 18.46875 48.62988281 C23.9135262 73.05262893 23.49610259 103.10112289 17.97265625 127.4609375 C17.76334473 128.39099609 17.5540332 129.32105469 17.33837891 130.27929688 C13.86939621 145.25508911 9.06965196 159.36051083 2.97265625 173.4609375 C4.69162109 172.91953125 4.69162109 172.91953125 6.4453125 172.3671875 C7.97510373 171.89792639 9.50506058 171.42920499 11.03515625 170.9609375 C11.78732422 170.72246094 12.53949219 170.48398437 13.31445312 170.23828125 C17.99069705 168.82123764 22.02987566 168.10157718 26.97265625 168.4609375 C28.91015625 169.5234375 28.91015625 169.5234375 29.97265625 171.4609375 C30.41015625 174.9609375 30.41015625 174.9609375 29.97265625 178.4609375 C26.79102589 181.66788193 22.82078809 182.59387491 18.57421875 183.72265625 C17.8616391 183.91817581 17.14905945 184.11369537 16.41488647 184.31513977 C14.91155365 184.72524337 13.40701073 185.13093355 11.90136719 185.5324707 C9.60908031 186.14538293 7.32210508 186.77570039 5.03515625 187.40820312 C3.56929565 187.80574077 2.10315813 188.20225895 0.63671875 188.59765625 C-0.04160004 188.7851091 -0.71991882 188.97256195 -1.41879272 189.16569519 C-5.37349557 190.20736012 -8.95053799 191.00008159 -13.02734375 190.4609375 C-17.96143199 186.69973391 -20.67962972 180.7176508 -23.73779297 175.43530273 C-24.77348916 173.65506308 -25.83138327 171.8893509 -26.890625 170.12304688 C-27.54933594 168.99060547 -28.20804687 167.85816406 -28.88671875 166.69140625 C-29.48967773 165.66426514 -30.09263672 164.63712402 -30.71386719 163.57885742 C-32.23848961 159.95972118 -32.34836336 157.35227142 -32.02734375 153.4609375 C-30.90234375 151.5234375 -30.90234375 151.5234375 -29.02734375 150.4609375 C-26.15234375 149.8984375 -26.15234375 149.8984375 -23.02734375 150.4609375 C-17.71044895 155.36884039 -14.53851465 162.20761296 -11.02734375 168.4609375 C-7.34945152 161.53856833 -4.42557231 154.58759301 -1.96484375 147.1484375 C-1.62122803 146.11460937 -1.2776123 145.08078125 -0.92358398 144.015625 C3.90488757 129.00440524 7.07716614 113.09526933 7.17578125 97.2890625 C7.18279556 96.53299713 7.18980988 95.77693176 7.19703674 94.99795532 C7.21445415 92.56888815 7.22088981 90.14006484 7.22265625 87.7109375 C7.22333099 86.88080139 7.22400574 86.05066528 7.22470093 85.19537354 C7.20858142 72.72128633 6.77078645 60.66624495 3.97265625 48.4609375 C3.71524658 47.30102295 3.71524658 47.30102295 3.45263672 46.11767578 C1.17191815 36.08781333 -1.88647731 26.47132162 -5.79199219 16.95288086 C-7.79992776 11.88122784 -8.52321963 7.92752096 -8.02734375 2.4609375 C-5.44743574 -0.11897051 -3.52489914 0.14494912 0 0 Z " fill="#000000" transform="translate(451.02734375,159.5390625)"/>
<path d="M0 0 C2.79248047 2.00024414 2.79248047 2.00024414 5.6171875 4.78515625 C6.37021652 5.52601723 6.37021652 5.52601723 7.13845825 6.28184509 C8.19286451 7.32780928 9.23970343 8.38145063 10.27929688 9.44213867 C11.86888219 11.05628765 13.49005756 12.63279453 15.1171875 14.20898438 C16.14011673 15.23228414 17.1610218 16.25761218 18.1796875 17.28515625 C19.10507324 18.21207275 20.03045898 19.13898926 20.98388672 20.09399414 C23.52647445 23.7588551 23.60979269 25.61741991 23 30 C21.74658203 32.96606445 21.74658203 32.96606445 20.0078125 35.86328125 C19.38519531 36.91451172 18.76257813 37.96574219 18.12109375 39.04882812 C17.46238281 40.12583984 16.80367187 41.20285156 16.125 42.3125 C15.14853516 43.95702148 15.14853516 43.95702148 14.15234375 45.63476562 C9.36508737 53.63491263 9.36508737 53.63491263 7 56 C3.42157414 56.4667512 1.62756672 56.40228636 -1.4375 54.4375 C-3.14047195 51.78086376 -3.45109201 50.30936464 -2.828125 47.21484375 C-0.92962071 42.1372403 2.12459048 37.57212636 5 33 C1.70731524 33.52794102 -1.58094997 34.07967836 -4.86816406 34.640625 C-6.3797304 34.89543783 -7.89220365 35.14489706 -9.40527344 35.390625 C-29.74284501 38.70728446 -48.45566619 43.94433632 -67 53 C-67.7125293 53.34401855 -68.42505859 53.68803711 -69.15917969 54.04248047 C-87.68896628 63.08808635 -104.90048105 75.31916136 -119.16796875 90.265625 C-119.65990723 90.77923584 -120.1518457 91.29284668 -120.65869141 91.82202148 C-121.96975968 93.21403397 -123.25359895 94.63155271 -124.53515625 96.05078125 C-127 98 -127 98 -130.12109375 98.41796875 C-133 98 -133 98 -136 96 C-137.03391012 92.65932154 -137.42874171 90.85603984 -135.83984375 87.68359375 C-101.6922059 47.36554085 -50.86334239 25.04688095 1 20 C0.278125 19.35933594 -0.44375 18.71867187 -1.1875 18.05859375 C-2.115625 17.19363281 -3.04375 16.32867187 -4 15.4375 C-5.3921875 14.16712891 -5.3921875 14.16712891 -6.8125 12.87109375 C-9.52871295 9.30606425 -9.51126947 7.38230978 -9 3 C-6.82361778 -0.74821383 -4.03782253 -0.45633552 0 0 Z " fill="#000000" transform="translate(251,22)"/>
<path d="M0 0 C5.93630266 1.58234214 9.74718453 6.87331446 13.42578125 11.48828125 C15.40081868 13.8306437 16.36750317 14.64451279 19.23828125 15.98828125 C25.18502024 15.26010913 28.42911478 9.69463487 32.05078125 5.30078125 C34.37041912 2.53010268 35.9524438 0.80981857 39.60546875 0.27734375 C43.73400277 0.21460007 46.54075606 0.20901253 50.23828125 2.17578125 C54.70886124 7.45919397 55.91547992 12.34231284 55.62890625 19.1484375 C54.52512448 27.43994101 48.6841677 32.72104107 43.1640625 38.5390625 C40.56680962 41.28985607 38.16653009 44.15929215 35.80078125 47.11328125 C30.90428427 53.20057786 25.6293733 58.90620977 20.30078125 64.61328125 C12.17424364 56.57444009 4.59081177 48.12758768 -2.5625 39.21484375 C-4.65748537 36.66409374 -6.84232856 34.23187476 -9.07421875 31.80078125 C-14.17578542 26.04881564 -16.25894277 21.74706966 -15.98046875 14.0078125 C-15.39982239 9.06425387 -13.36798202 6.34573626 -10.07421875 2.73828125 C-6.37202264 0.40726889 -4.30165668 -0.25303863 0 0 Z " fill="#E27CB1" transform="translate(273.69921875,361.38671875)"/>
<path d="M0 0 C4.55245936 2.8008779 7.82565153 6.73581738 11.125 10.875 C13.16681984 13.3207571 13.98991749 13.99588469 17.0625 15.25 C20.13244298 15.26173434 20.13244298 15.26173434 22.4375 13.0625 C23.283125 12.051875 24.12875 11.04125 25 10 C26.20434137 8.6007209 27.41287706 7.20504376 28.625 5.8125 C29.19476563 5.13832031 29.76453125 4.46414063 30.3515625 3.76953125 C32.45232777 1.51444436 34.18789453 0.13278833 37.26953125 -0.37109375 C44.98271423 -0.57251327 44.98271423 -0.57251327 48.5 2.25 C53.34227129 7.57649842 53.45048498 11.74484153 53.30078125 18.8203125 C52.57767093 26.46462162 47.4123945 30.94194402 42.421875 36.33203125 C40.0330117 38.96363389 37.79014584 41.66874161 35.5625 44.4375 C31.57680254 49.37050232 27.37991334 54.0432232 23.06640625 58.6875 C20.88630363 61.01802691 20.88630363 61.01802691 19 64 C15.25111602 62.75037201 14.35380681 61.22103014 11.9375 58.125 C8.74225639 54.11670413 5.48070027 50.26849608 2 46.5 C-2.89558785 41.17738268 -7.48138432 35.64387406 -12 30 C-12.71800781 29.12472656 -13.43601562 28.24945313 -14.17578125 27.34765625 C-17.5108601 23.05561688 -18.20261441 19.32972719 -17.875 14 C-17.16965935 8.48174664 -15.00022326 5.22247029 -11.3125 1.125 C-7.51554336 -0.7221681 -4.11306583 -0.94187175 0 0 Z " fill="#E27CB1" transform="translate(103,305)"/>
<path d="M0 0 C25.41 0 50.82 0 77 0 C72.49940401 13.50178797 63.1585334 24.31504437 54 35 C102.51 35.495 102.51 35.495 152 36 C152 36.33 152 36.66 152 37 C133.60643566 37.09349648 115.21293311 37.1640052 96.8191824 37.20724869 C88.27838122 37.22786228 79.73772781 37.25595978 71.19702148 37.30175781 C63.75177967 37.34166254 56.30664489 37.36744157 48.8612991 37.37635398 C44.92004174 37.38156261 40.97909055 37.39377939 37.03793144 37.42292023 C33.32542693 37.45014702 29.61335361 37.4584305 25.90075874 37.45243073 C23.89459854 37.45404931 21.8884849 37.47553403 19.88244629 37.49768066 C13.11125866 37.46676782 8.31642678 37.41906767 3 33 C0 27 0 27 0 0 Z " fill="#9B87BC" transform="translate(40,413)"/>
<path d="M0 0 C1.20872269 -0.00274933 2.41744537 -0.00549866 3.66279602 -0.0083313 C4.99893288 -0.00125355 6.33506873 0.00601606 7.67120361 0.01345825 C9.08064262 0.0140225 10.49008221 0.01370553 11.89952087 0.01257324 C15.72359373 0.01199927 19.54754119 0.02376071 23.37158489 0.03772116 C27.36876986 0.05022115 31.36595768 0.05139844 35.36315918 0.05377197 C42.93144591 0.05998889 50.49967489 0.07640258 58.06793618 0.09647095 C66.6845437 0.11882335 75.30115397 0.12982172 83.91778326 0.13986182 C101.6419379 0.16076862 119.36603877 0.19594872 137.09014893 0.24050903 C137.09014893 0.57050903 137.09014893 0.90050903 137.09014893 1.24050903 C107.06014893 1.57050903 77.03014893 1.90050903 46.09014893 2.24050903 C49.06014893 6.20050903 52.03014893 10.16050903 55.09014893 14.24050903 C56.88778192 17.28341591 58.56904116 20.22713881 60.15264893 23.36550903 C60.54130127 24.10543091 60.92995361 24.84535278 61.3303833 25.60769653 C64.09014893 30.94226995 64.09014893 30.94226995 64.09014893 33.24050903 C38.02014893 33.24050903 11.95014893 33.24050903 -14.90985107 33.24050903 C-14.90985107 8.24050903 -14.90985107 8.24050903 -9.90985107 2.24050903 C-6.67501333 -0.02350143 -3.89551252 -0.00683423 0 0 Z " fill="#9E8ABF" transform="translate(54.90985107421875,228.75949096679688)"/>
<path d="M0 0 C5.28 0 10.56 0 16 0 C16 42.57 16 85.14 16 129 C8.41 129 0.82 129 -7 129 C-5 125 -5 125 -3.94887924 123.05090427 C-0.79134754 116.7601421 -0.42081471 111.29328442 -0.45410156 104.32983398 C-0.44376389 103.19710556 -0.43342621 102.06437714 -0.42277527 100.89732361 C-0.39344716 97.18010016 -0.39185014 93.46342359 -0.390625 89.74609375 C-0.3756367 87.15819771 -0.3589082 84.57031121 -0.34051514 81.98243713 C-0.30135239 75.88408523 -0.27964643 69.7859037 -0.26654124 63.68744761 C-0.25062519 56.73927117 -0.21219048 49.7912749 -0.17194796 42.84320343 C-0.08973395 28.56219694 -0.03632525 14.28119208 0 0 Z " fill="#F7F1A6" transform="translate(214,326)"/>
<path d="M0 0 C-6.06765672 14.40662879 -26.53708864 22.07811805 -40 28 C-40.63711914 28.21575684 -41.27423828 28.43151367 -41.93066406 28.65380859 C-44.08924618 29.36870974 -44.08924618 29.36870974 -47 31 C-47.29310059 31.95567871 -47.58620117 32.91135742 -47.88818359 33.89599609 C-49.25854451 37.72181266 -50.45720838 38.41153159 -53.96875 40.33984375 C-55.00128906 40.91992188 -56.03382813 41.5 -57.09765625 42.09765625 C-58.22042969 42.70480469 -59.34320313 43.31195313 -60.5 43.9375 C-61.67687187 44.59179215 -62.85263694 45.24807865 -64.02734375 45.90625 C-66.46843957 47.27193008 -68.91407234 48.62890827 -71.36328125 49.97998047 C-76.95456226 53.07361741 -82.47323895 56.29302529 -88 59.5 C-90.14808949 60.7401863 -92.29652905 61.97976646 -94.4453125 63.21875 C-95.51555664 63.83621094 -96.58580078 64.45367187 -97.68847656 65.08984375 C-100.53639191 66.73258112 -103.38453768 68.37491736 -106.23284912 70.01696777 C-107.98341241 71.02619104 -109.73390411 72.03553836 -111.484375 73.04492188 C-113.66392165 74.3016766 -115.84359832 75.55820586 -118.0234375 76.81445312 C-119.52390625 77.67973633 -119.52390625 77.67973633 -121.0546875 78.5625 C-122.0329248 79.12098633 -123.01116211 79.67947266 -124.01904297 80.25488281 C-126.09399091 81.46960254 -128.14383202 82.72781308 -130.17236328 84.01855469 C-138.0487708 88.9494234 -138.0487708 88.9494234 -142.8203125 89.203125 C-144.45613281 88.73132813 -144.45613281 88.73132813 -146.125 88.25 C-147.3728125 87.91613281 -148.620625 87.58226562 -149.90625 87.23828125 C-150.56109375 87.03928223 -151.2159375 86.8402832 -151.890625 86.63525391 C-154.1754231 85.94717003 -156.47294803 85.33482586 -158.78125 84.73046875 C-176.62505909 79.99734395 -176.62505909 79.99734395 -180.3125 75.5 C-180.82425781 74.8915625 -181.33601562 74.283125 -181.86328125 73.65625 C-183 72 -183 72 -183 70 C-178.997829 68.44580158 -175.89676981 69.57352294 -171.85546875 70.65234375 C-171.16745682 70.83132706 -170.47944489 71.01031036 -169.77058411 71.19471741 C-167.57374501 71.76666107 -165.38041014 72.35068524 -163.1875 72.9375 C-160.30848761 73.70653162 -157.42671175 74.46377377 -154.54296875 75.21484375 C-153.89168503 75.39297104 -153.24040131 75.57109833 -152.56938171 75.75462341 C-147.23714852 77.14368465 -142.43561312 78.00186361 -137.23120117 75.86108398 C-136.34408447 75.32813721 -135.45696777 74.79519043 -134.54296875 74.24609375 C-133.52638184 73.64659912 -132.50979492 73.04710449 -131.46240234 72.42944336 C-130.38168457 71.77210205 -129.3009668 71.11476074 -128.1875 70.4375 C-127.03692409 69.75303241 -125.88537421 69.07019968 -124.73291016 68.38891602 C-122.33979763 66.97255757 -119.95101915 65.5492687 -117.56494141 64.12109375 C-112.04182033 60.82390954 -106.45450676 57.63795127 -100.875 54.4375 C-92.60808513 49.67452086 -84.36026403 44.8799586 -76.125 40.0625 C-66.86155797 34.64462246 -57.55692397 29.30159555 -48.23068237 23.99285889 C-41.84468936 20.35765479 -35.47237246 16.70288141 -29.13671875 12.98046875 C-28.04939453 12.34173828 -26.96207031 11.70300781 -25.84179688 11.04492188 C-23.80053687 9.84291676 -21.76133017 8.63741495 -19.72460938 7.42773438 C-6.16311277 -0.56028298 -6.16311277 -0.56028298 0 0 Z " fill="#AECAE7" transform="translate(408,92)"/>
<path d="M0 0 C1.24725861 -0.01051392 1.24725861 -0.01051392 2.51971436 -0.02124023 C5.26088117 -0.03880655 8.00101068 -0.02720259 10.7421875 -0.01367188 C12.65120644 -0.01636719 14.56022404 -0.02024994 16.46923828 -0.02526855 C20.46725555 -0.03116175 24.46491499 -0.02260639 28.46289062 -0.00390625 C33.58440636 0.01888317 38.70508362 0.00575914 43.8265686 -0.01819611 C47.76772363 -0.0326589 51.70868027 -0.02804588 55.64984131 -0.01768494 C57.5380666 -0.01501898 59.42630998 -0.01828279 61.31451416 -0.02760315 C63.9549522 -0.0377767 66.59403756 -0.02225704 69.234375 0 C70.01270691 -0.00809692 70.79103882 -0.01619385 71.59295654 -0.02453613 C75.24862977 0.032474 77.43103426 0.40302879 80.57080078 2.33508301 C82.6171875 4.51757812 82.6171875 4.51757812 83.7421875 7.95507812 C83.6171875 11.51757812 83.6171875 11.51757812 81.64576721 14.20079041 C77.77507241 17.1617751 74.71683084 17.21722863 70.03491211 17.14868164 C69.18229294 17.15583694 68.32967377 17.16299225 67.45121765 17.17036438 C64.64010628 17.18723825 61.83059248 17.16785862 59.01953125 17.14648438 C57.06327686 17.14731312 55.10702253 17.14977271 53.15077209 17.15379333 C49.05432127 17.15665033 44.95841751 17.14195822 40.86206055 17.11450195 C35.61038972 17.08039689 30.35969564 17.08644584 25.10797787 17.10516453 C21.06990918 17.11573017 17.03206799 17.10680102 12.99402046 17.09177971 C11.05752805 17.08659576 9.12101191 17.08708228 7.18452263 17.09332466 C4.4791842 17.0987725 1.77524711 17.07841705 -0.92993164 17.05102539 C-1.7305603 17.05755127 -2.53118896 17.06407715 -3.3560791 17.07080078 C-6.95116068 17.00887534 -8.97935809 16.82642603 -11.87571716 14.60923767 C-13.49923527 12.3559979 -13.95068036 11.26592493 -13.9453125 8.51757812 C-13.96722656 7.85757813 -13.98914063 7.19757813 -14.01171875 6.51757812 C-11.9895954 0.08697467 -5.73440941 -0.0596546 0 0 Z " fill="#9D89BE" transform="translate(86.3828125,140.482421875)"/>
<path d="M0 0 C0 2.60707558 -0.07853689 5.19220327 -0.17578125 7.796875 C-0.81324773 30.82559537 5.41119004 44.17833161 21 61 C22.36122331 62.49359916 23.71605268 63.99306703 25.0625 65.5 C25.91521484 66.44359375 25.91521484 66.44359375 26.78515625 67.40625 C28 69 28 69 28 71 C25.07685211 72.2609481 23.97560185 71.99081738 20.93823242 70.84765625 C19.73802766 70.26469874 18.5440928 69.66872092 17.35546875 69.0625 C16.70862625 68.74474609 16.06178375 68.42699219 15.39533997 68.09960938 C13.32036284 67.07747677 11.25389661 66.03935332 9.1875 65 C7.16708104 63.99695513 5.14501096 62.99729622 3.12283325 61.99780273 C1.77956023 61.33341041 0.43700723 60.66756031 -0.90481567 60.00024414 C-7.8776138 56.53997446 -14.93094176 53.25804107 -22 50 C-22.72485319 34.27403121 -22.52070681 21.58098968 -11.90625 8.94140625 C-8.39505741 5.36545805 -4.49329159 2.24664579 0 0 Z " fill="#CD5A8E" transform="translate(320,39)"/>
<path d="M0 0 C3.28376775 2.41961834 5.53828425 4.16631823 7 8 C7.69731513 14.20286138 8.17865035 20.93829861 4.453125 26.27734375 C1.84883582 29.36468657 -0.83405274 32.36825385 -3.578125 35.33203125 C-5.9669883 37.96363389 -8.20985416 40.66874161 -10.4375 43.4375 C-14.42319746 48.37050232 -18.62008666 53.0432232 -22.93359375 57.6875 C-25.11369637 60.01802691 -25.11369637 60.01802691 -27 63 C-30.99996286 61.66667905 -31.83782337 59.5042173 -34 56 C-33.31035156 55.26136719 -32.62070313 54.52273438 -31.91015625 53.76171875 C-26.45658602 47.88639014 -21.21952942 41.91917131 -16.19921875 35.6640625 C-13.94767408 32.93661408 -11.59015324 30.34470872 -9.1875 27.75 C-2.89593332 20.83257067 0.16514571 15.1934055 0.0625 5.75 C0.05347656 4.67234375 0.04445312 3.5946875 0.03515625 2.484375 C0.02355469 1.66453125 0.01195312 0.8446875 0 0 Z " fill="#DF3F94" transform="translate(149,306)"/>
<path d="M0 0 C4.10549385 3.78968663 5.67178194 5.83619309 6.23828125 11.296875 C6.53032706 20.9497574 3.27486378 25.85439022 -3.1875 32.8125 C-4.16975348 33.85103606 -5.15283078 34.88879354 -6.13671875 35.92578125 C-8.73397163 38.67657482 -11.13425116 41.5460109 -13.5 44.5 C-18.39649698 50.58729661 -23.67140795 56.29292852 -29 62 C-31.5 59.6875 -31.5 59.6875 -34 57 C-34 53.04217714 -32.75270073 52.33275838 -30.0625 49.5 C-26.76040554 45.94508894 -23.60150779 42.34497933 -20.5625 38.5625 C-17.4158668 34.65405035 -14.12774117 30.96460353 -10.6875 27.3125 C-4.61342814 20.71967977 -1.18113819 14.34239231 -0.4375 5.3125 C-0.35371094 4.31863281 -0.26992188 3.32476562 -0.18359375 2.30078125 C-0.09271484 1.16189453 -0.09271484 1.16189453 0 0 Z " fill="#E03F94" transform="translate(323,364)"/>
<path d="M0 0 C1.5894104 0.7662145 3.1605584 1.57108109 4.71484375 2.40625 C5.55885742 2.82318115 6.40287109 3.2401123 7.27246094 3.66967773 C9.09821973 4.57307915 10.91687889 5.49093941 12.72900391 6.42138672 C16.86989572 8.52468587 21.068891 10.49913186 25.26733398 12.484375 C29.74005 14.60213167 34.19664053 16.75298351 38.65234375 18.90625 C38.65234375 19.89625 38.65234375 20.88625 38.65234375 21.90625 C36.95934491 22.97265852 35.24710704 24.0085641 33.52734375 25.03125 C32.57601562 25.61132812 31.6246875 26.19140625 30.64453125 26.7890625 C26.76088704 28.23909154 25.45084998 27.42699082 21.65234375 25.90625 C19.62784644 24.85669117 17.63096904 23.75266535 15.66015625 22.60546875 C13.98373047 21.63383789 13.98373047 21.63383789 12.2734375 20.64257812 C11.10806528 19.95964845 9.94270074 19.27670566 8.77734375 18.59375 C7.62006781 17.92205005 6.46251769 17.25082226 5.3046875 16.58007812 C2.07840701 14.70334074 -1.13690236 12.80940269 -4.34765625 10.90625 C-5.20649414 10.40303223 -6.06533203 9.89981445 -6.95019531 9.38134766 C-8.78509859 8.28048649 -10.57362707 7.10273897 -12.34765625 5.90625 C-12.34765625 5.24625 -12.34765625 4.58625 -12.34765625 3.90625 C-8.6308655 0.23954051 -5.09075141 -1.94020139 0 0 Z " fill="#ADC8E6" transform="translate(292.34765625,98.09375)"/>
<path d="M0 0 C3.83453439 -0.1356557 7.66421501 -0.23444624 11.5 -0.3125 C12.57765625 -0.35439453 13.6553125 -0.39628906 14.765625 -0.43945312 C21.78836334 -0.54650706 26.66417453 0.21552082 32 5 C34.09152097 7.42541735 36 9.67142714 36 13 C35.11441406 13.17015625 34.22882813 13.3403125 33.31640625 13.515625 C22.13455244 15.70312606 11.05381019 18.23654745 0 21 C0 14.07 0 7.14 0 0 Z " fill="#F9F3A6" transform="translate(358,326)"/>
<path d="M0 0 C0.60827637 0.76223877 1.21655273 1.52447754 1.84326172 2.30981445 C4.23781948 5.29664171 6.67471599 8.2464321 9.125 11.1875 C9.56714844 11.72052734 10.00929688 12.25355469 10.46484375 12.80273438 C12.24908597 14.94544218 14.02719619 17.02719619 16 19 C15.21496094 19.845625 14.42992187 20.69125 13.62109375 21.5625 C12.55973253 22.70818207 11.49854619 23.85402616 10.4375 25 C9.61584351 25.88606934 9.61584351 25.88606934 8.77758789 26.79003906 C5.21416091 30.64563652 1.74572447 34.55988588 -1.59765625 38.609375 C-3 40 -3 40 -6 41 C-5.37623997 32.00815005 -3.96327756 23.18579371 -2.4375 14.3125 C-2.20078918 12.91738259 -1.96445859 11.5222006 -1.72851562 10.12695312 C-1.15671441 6.75054824 -0.57981045 3.3750399 0 0 Z " fill="#C7578A" transform="translate(388,154)"/>
<path d="M0 0 C4.95 0 9.9 0 15 0 C15 6 15 6 13.4375 8.375 C10.06489221 10.62340519 7.97487617 10.56783945 4 10 C1.5625 8.375 1.5625 8.375 0 6 C0 4.02 0 2.04 0 0 Z " fill="#9C88BD" transform="translate(153,462)"/>
<path d="M0 0 C4.95 0 9.9 0 15 0 C14 7 14 7 12.9375 8.9375 C9.74271947 10.68947642 6.54310374 10.65695049 3 10 C1 8.375 1 8.375 0 6 C0 4.02 0 2.04 0 0 Z " fill="#9C88BE" transform="translate(74,462)"/>
<path d="M0 0 C5.17048998 0.32315562 9.51071428 3.30291562 13 7 C13 8.32 13 9.64 13 11 C11.02 11.99 11.02 11.99 9 13 C9 12.34 9 11.68 9 11 C8.28457031 10.85691406 7.56914062 10.71382812 6.83203125 10.56640625 C2.5546875 9.7109375 -1.72265625 8.85546875 -6 8 C-4.02 5.36 -2.04 2.72 0 0 Z " fill="#ABC6E3" transform="translate(421,95)"/>
<path d="M0 0 C0.33 0 0.66 0 1 0 C1 3.3 1 6.6 1 10 C-0.98 10 -2.96 10 -5 10 C-3.66654496 6.40992874 -2.1056769 3.20429093 0 0 Z " fill="#FAF6C8" transform="translate(228,444)"/>
</svg>
