<?xml version="1.0" encoding="UTF-8"?>
<svg version="1.1" xmlns="http://www.w3.org/2000/svg" width="512" height="512">
<path d="M0 0 C1.74753067 -0.01073296 1.74753067 -0.01073296 3.53036499 -0.02168274 C4.80990555 -0.02437164 6.08944611 -0.02706055 7.40776062 -0.02983093 C8.76791049 -0.03609692 10.12805866 -0.04274384 11.48820496 -0.04974365 C15.95576285 -0.0707688 20.42332103 -0.08114394 24.89091492 -0.09111023 C26.42958786 -0.09515823 27.96826063 -0.09927517 29.50693321 -0.10346031 C36.7353572 -0.12250785 43.963771 -0.13674032 51.19221526 -0.14507228 C59.5337496 -0.15484632 67.8750187 -0.18117182 76.21645957 -0.22157317 C82.66581965 -0.2517376 89.11510369 -0.26654142 95.56453294 -0.26985329 C99.41571365 -0.27220325 103.26661085 -0.28115631 107.11771584 -0.30631447 C110.74163775 -0.3296065 114.3650897 -0.33382422 117.98906708 -0.32355309 C119.94885787 -0.32282223 121.90862486 -0.34190512 123.86831665 -0.36161804 C134.58318834 -0.29821507 134.58318834 -0.29821507 139.40263367 4.14717102 C142.52327233 7.6982426 143.51848768 10.73295065 143.57963562 15.41572571 C143.59888847 16.70286469 143.59888847 16.70286469 143.61853027 18.01600647 C143.62591721 18.94100952 143.63330414 19.86601257 143.64091492 20.81904602 C143.64898666 21.77482544 143.65705841 22.73060486 143.66537476 23.71534729 C143.67920688 25.73947846 143.68993293 27.76363287 143.69779968 29.78779602 C143.71499102 32.87158367 143.75888266 35.9542931 143.80302429 39.03779602 C143.81315355 41.00653816 143.82166892 42.97528939 143.82841492 44.94404602 C143.845923 45.86095215 143.86343109 46.77785828 143.88146973 47.72254944 C143.86127512 53.73282679 142.88379728 57.21346753 139.40263367 62.14717102 C135.02012045 66.13127395 131.18600695 66.25629127 125.40263367 66.14717102 C125.51353834 69.98104629 125.64391941 73.81402885 125.77763367 77.64717102 C125.80857117 78.72482727 125.83950867 79.80248352 125.87138367 80.91279602 C125.91005554 81.96982727 125.94872742 83.02685852 125.98857117 84.11592102 C126.01999207 85.07949524 126.05141296 86.04306946 126.08378601 87.0358429 C127.04832012 96.44780509 129.68887155 100.26539529 136.48075867 106.70576477 C137.28495239 107.49435379 138.08914612 108.28294281 138.91770935 109.09542847 C141.48211764 111.60659403 144.0656718 114.09676275 146.65263367 116.58467102 C149.22269708 119.07144758 151.78807418 121.56262162 154.3447113 124.0632019 C155.93239566 125.61458486 157.52803071 127.15788869 159.13291931 128.69146729 C167.36102032 136.69989256 173.27171942 144.48273361 173.6431427 156.33613586 C173.64884928 157.84345596 173.64383242 159.35084402 173.62968445 160.85810852 C173.6299765 161.68833023 173.63026855 162.51855194 173.63056946 163.37393188 C173.62918752 166.09012175 173.61368037 168.80602968 173.59794617 171.52217102 C173.59421199 173.41645661 173.59136693 175.31074413 173.58937073 177.20503235 C173.58176613 182.16982944 173.56214512 187.13450791 173.53996277 192.09925842 C173.51943573 197.17380672 173.51035439 202.24837434 173.50028992 207.32295227 C173.47889605 217.26441039 173.44479872 227.20578081 173.40263367 237.14717102 C174.49841736 237.2966217 175.59420105 237.44607239 176.72319031 237.60005188 C179.9140684 238.07452324 182.7725312 238.74316614 185.84013367 239.70967102 C187.13757507 240.11379211 187.13757507 240.11379211 188.46122742 240.52607727 C189.42222351 240.83351868 189.42222351 240.83351868 190.40263367 241.14717102 C190.21392197 240.14317261 190.02521027 239.13917419 189.83078003 238.10475159 C189.383404 233.96942116 189.73915821 230.89229176 190.55229187 226.82588196 C190.68988828 226.13683651 190.82748468 225.44779106 190.96925068 224.73786545 C192.66179016 216.50743566 194.8262895 208.39915914 197.00810242 200.28779602 C197.45591558 198.60665929 197.90327736 196.92540226 198.35021973 195.24403381 C199.2837598 191.7369752 200.22113652 188.23097459 201.16166687 184.7257843 C202.34269614 180.32397677 203.51645569 175.92027425 204.68772697 171.51586151 C207.35810146 161.47639402 210.05583106 151.44459232 212.78409576 141.42070007 C213.18923128 139.93156356 213.59372045 138.44225101 213.99748993 136.95274353 C215.23654539 132.38246209 216.49520731 127.8181315 217.76591492 123.25654602 C218.21296028 121.6112088 218.21296028 121.6112088 218.66903687 119.93263245 C222.80886943 105.27823273 229.86843974 93.4252853 243.34013367 85.64717102 C256.23775809 78.6636214 270.17585883 76.75933581 284.34013367 80.83467102 C298.4268045 85.83092866 309.70584793 94.52267589 316.40263367 108.14717102 C324.41708477 127.71955457 319.26637178 145.7891341 313.84013367 165.27217102 C313.16206386 167.76411349 312.48582594 170.25655509 311.81132507 172.74946594 C310.40669273 177.92771614 308.98973252 183.10233806 307.5632782 188.27461243 C305.76694353 194.79274786 304.00880989 201.32056728 302.26611328 207.85322571 C300.93067225 212.85888511 299.58749461 217.86244819 298.24275208 222.86561584 C297.60524081 225.23967757 296.96952507 227.61422226 296.33570862 229.98927307 C290.28440462 252.6093225 290.28440462 252.6093225 285.40263367 263.14717102 C285.07263367 264.13717102 284.74263367 265.12717102 284.40263367 266.14717102 C285.29402039 266.44107727 285.29402039 266.44107727 286.20341492 266.74092102 C299.84223591 271.66192642 310.03720096 280.65637785 316.27763367 293.77217102 C321.89202756 306.53215713 322.40661371 321.02106264 317.72294617 334.15498352 C311.18201608 348.97851148 301.1547863 358.0816504 286.40263367 364.14717102 C268.00998745 370.25492303 249.43436377 364.18532079 231.52763367 359.14717102 C228.9932134 358.4539368 226.45813287 357.76311207 223.92240906 357.07466125 C218.9765439 355.72842858 214.03441749 354.36976086 209.09550476 352.99824524 C201.32407942 350.84246797 193.53245706 348.76713986 185.73435974 346.71040344 C181.28721787 345.53481614 176.84530819 344.33950862 172.40263367 343.14717102 C172.27372742 343.89998352 172.14482117 344.65279602 172.01200867 345.42842102 C170.24549274 353.30979977 164.88334678 358.66273954 158.27763367 362.89717102 C153.55687656 365.79942636 149.96486271 366.27700519 144.42752075 366.30107117 C143.71330792 366.30545342 142.99909509 366.30983567 142.26323944 366.31435072 C139.8636566 366.32773333 137.46411047 366.33391644 135.0644989 366.34004211 C133.34631179 366.34794369 131.62812634 366.35621268 129.90994263 366.36482239 C124.26038701 366.39104247 118.610824 366.40635293 112.96122742 366.42060852 C111.01526955 366.42596876 109.06931173 366.43134627 107.12335396 366.43674088 C99.02614579 366.45837217 90.92893961 366.47710717 82.83170986 366.48836327 C71.2353502 366.50459021 59.63932626 366.53773469 48.04309314 366.59476411 C39.88583133 366.63350938 31.72865912 366.65300156 23.57130772 366.65828383 C18.70162614 366.66193183 13.83230263 366.67389391 8.96272087 366.70638657 C4.37681035 366.73654687 -0.20852696 366.74275075 -4.79451561 366.73100281 C-6.4722368 366.73078272 -8.14998519 366.73903407 -9.82761383 366.75665665 C-21.12074646 366.86876917 -29.77808799 365.7565087 -38.47236633 357.89717102 C-46.8521112 348.58048618 -46.17652051 338.05251956 -46.1308136 326.20014954 C-46.13787797 324.27417847 -46.14662517 322.34821296 -46.15692139 320.42225647 C-46.17936675 315.20938283 -46.17648697 309.99681351 -46.16759992 304.78391004 C-46.16247916 300.42511445 -46.16979142 296.0663755 -46.17707199 291.70758575 C-46.19405557 281.42169048 -46.19052061 271.13594361 -46.17378235 260.85005188 C-46.15686057 250.2531762 -46.1727 239.65671245 -46.20500523 229.05988175 C-46.23172963 219.94706195 -46.23896947 210.83437016 -46.23049015 201.72151512 C-46.22556953 196.28524407 -46.22772992 190.84922082 -46.24827766 185.41298103 C-46.26667957 180.30001046 -46.26062081 175.1876309 -46.23607826 170.07469177 C-46.23108478 168.20348338 -46.23452194 166.33222959 -46.24722672 164.46105766 C-46.31835391 153.08097506 -45.82829863 144.89623806 -38.61834717 135.59379578 C-37.98421402 134.98283051 -37.35008087 134.37186523 -36.69673157 133.74238586 C-35.96925217 133.02819489 -35.24177277 132.31400391 -34.49224854 131.57817078 C-33.33578575 130.47923996 -33.33578575 130.47923996 -32.15596008 129.35810852 C-31.35126785 128.56997772 -30.54657562 127.78184692 -29.71749878 126.96983337 C-27.16843676 124.47478837 -24.6035912 121.99695643 -22.03486633 119.52217102 C-19.4635216 117.03936025 -16.89643266 114.55281034 -14.34152222 112.05308533 C-12.75866583 110.50472875 -11.16645388 108.96585858 -9.5635376 107.4382782 C-3.15821531 101.17834217 0.83496547 95.66591727 1.01200867 86.45967102 C1.04423523 85.26728821 1.07646179 84.0749054 1.10966492 82.84638977 C1.1238446 81.62564758 1.13802429 80.4049054 1.15263367 79.14717102 C1.1822821 77.89549133 1.21193054 76.64381165 1.24247742 75.35420227 C1.31276155 72.28512861 1.36566559 69.2167965 1.40263367 66.14717102 C0.32497742 66.18197571 -0.75267883 66.2167804 -1.86299133 66.25263977 C-6.87708668 66.11102829 -8.5504557 65.02670359 -12.59736633 62.14717102 C-15.67175175 58.04799047 -16.70750019 54.20907943 -16.75849915 49.14814758 C-16.76810669 48.37344116 -16.77771423 47.59873474 -16.78761292 46.80055237 C-16.79186279 45.97134277 -16.79611267 45.14213318 -16.80049133 44.28779602 C-16.80619141 43.4245874 -16.81189148 42.56137878 -16.81776428 41.67201233 C-16.82719928 39.84636149 -16.8337423 38.02069373 -16.83760071 36.19502258 C-16.84728333 33.42095191 -16.87831117 30.64762974 -16.90986633 27.87373352 C-16.91639941 26.09509206 -16.92164869 24.31644533 -16.92549133 22.53779602 C-16.93783813 21.71668335 -16.95018494 20.89557068 -16.96290588 20.04957581 C-16.94148668 14.43041283 -15.94852179 10.27198808 -13.59736633 5.14717102 C-9.27560971 0.93345832 -5.90736698 0.0248848 0 0 Z " fill="#010101" transform="translate(54.59736633300781,136.8528289794922)"/>
<path d="M0 0 C0.80717972 -0.00832352 1.61435944 -0.01664703 2.44599915 -0.02522278 C5.1075222 -0.04926621 7.76879987 -0.05808815 10.43041992 -0.06469727 C12.28741019 -0.07366826 14.14439973 -0.08279019 16.00138855 -0.09205627 C19.8925451 -0.1085337 23.78361575 -0.11624405 27.67480469 -0.11914062 C32.64811021 -0.12452156 37.62060242 -0.16219495 42.59367847 -0.20788479 C46.42940684 -0.23770493 50.26494058 -0.24486527 54.10077477 -0.24586678 C55.93352672 -0.25005962 57.76627975 -0.26245623 59.59891701 -0.28338432 C62.16940841 -0.31040098 64.73803038 -0.30544358 67.30859375 -0.29296875 C68.05743835 -0.30780304 68.80628296 -0.32263733 69.57781982 -0.33792114 C76.33841548 -0.24502541 81.21428752 2.62231238 85.90698242 7.40405273 C86.36202148 8.05245117 86.81706055 8.70084961 87.28588867 9.36889648 C87.75897461 10.01987305 88.23206055 10.67084961 88.71948242 11.34155273 C91.53994089 16.25051678 91.30863374 21.80050172 90.84838867 27.30639648 C89.15608252 32.85339998 86.20480171 37.47199372 81.84838867 41.30639648 C75.84838867 44.30639648 75.84838867 44.30639648 55.84838867 44.30639648 C55.84838867 62.12639648 55.84838867 79.94639648 55.84838867 98.30639648 C67.33608039 98.14869503 67.33608039 98.14869503 78.82299805 97.94604492 C80.27936623 97.93434592 81.73574764 97.92415697 83.19213867 97.91577148 C84.2967041 97.88507568 84.2967041 97.88507568 85.42358398 97.85375977 C91.85538193 97.8495003 97.01957029 99.81616254 101.87182617 104.08764648 C102.54084961 104.93842773 102.54084961 104.93842773 103.22338867 105.80639648 C103.91561523 106.65717773 103.91561523 106.65717773 104.62182617 107.52514648 C108.9027258 113.74199435 108.49331402 119.93109637 107.84838867 127.30639648 C106.36883729 133.26205901 102.9085365 136.55430555 98.04370117 140.07983398 C92.8943097 142.95689612 88.32200055 143.54174765 82.47338867 143.43139648 C81.2281543 143.41334961 79.98291992 143.39530273 78.69995117 143.37670898 C77.75893555 143.35350586 76.81791992 143.33030273 75.84838867 143.30639648 C75.85023226 144.29515903 75.85207584 145.28392159 75.8539753 146.30264664 C75.89842713 170.39109791 75.93126522 194.47954384 75.95201302 218.5680275 C75.96231386 230.21716014 75.9763514 241.86626564 75.99926758 253.51538086 C76.01923795 263.67190118 76.03211377 273.82840184 76.03656566 283.98494124 C76.03916686 289.35986119 76.04525596 294.7347249 76.05984879 300.10962677 C76.07349034 305.17551341 76.07759808 310.241321 76.07460403 315.30722427 C76.07515127 317.15985418 76.07908934 319.01248692 76.08679962 320.86510086 C76.1534914 337.72614319 75.59478305 353.74250096 63.43041992 366.83764648 C56.46275037 373.30639648 56.46275037 373.30639648 52.84838867 373.30639648 C52.86933594 374.10335938 52.8902832 374.90032227 52.91186523 375.72143555 C52.99502189 379.33296083 53.04704901 382.94428472 53.09838867 386.55639648 C53.1319043 387.8106543 53.16541992 389.06491211 53.19995117 390.35717773 C53.21928711 392.16508789 53.21928711 392.16508789 53.23901367 394.00952148 C53.27043457 395.6748291 53.27043457 395.6748291 53.30249023 397.3737793 C52.84838867 400.30639648 52.84838867 400.30639648 51.32397461 402.69995117 C47.75109045 405.01844997 45.07166511 404.41666917 40.84838867 404.30639648 C40.85838142 405.90919464 40.85838142 405.90919464 40.86857605 407.54437256 C40.92936247 417.60893703 40.97434945 427.67346431 41.00382519 437.73817062 C41.01948834 442.91268305 41.04073857 448.08704741 41.07470703 453.26147461 C41.10727716 458.25407621 41.12523679 463.24653529 41.1330204 468.23923492 C41.13856812 470.14505507 41.14940133 472.05086733 41.16557884 473.95662689 C41.18732193 476.62384463 41.19035691 479.29047172 41.18896484 481.95776367 C41.19975067 482.74754608 41.2105365 483.53732849 41.22164917 484.3510437 C41.20355947 487.54927663 41.04306086 489.92618811 39.57319641 492.79693604 C37.19729333 494.87620067 34.95490389 494.79030376 31.88354492 494.83764648 C28.82972028 494.04048689 27.76570696 492.81610204 25.84838867 490.30639648 C25.47438689 487.39387122 25.34133207 484.86595184 25.39428711 481.95776367 C25.393703 481.1183725 25.3931189 480.27898132 25.39251709 479.41415405 C25.39530081 476.6434372 25.42640591 473.87380008 25.45776367 471.10327148 C25.46522505 469.18085315 25.47091847 467.2584272 25.47491455 465.33599854 C25.490179 460.27892009 25.52946792 455.22230198 25.57373047 450.16540527 C25.61466561 445.00413236 25.63292182 439.84278498 25.65307617 434.68139648 C25.69596128 424.55619435 25.76422254 414.43133371 25.84838867 404.30639648 C24.57943756 404.35017929 23.31048645 404.3939621 22.00308228 404.43907166 C18.57676828 404.55729027 18.12940177 404.54741137 15.37329102 402.18359375 C13.63450543 398.90283996 13.38859683 396.96368194 13.44995117 393.27124023 C13.4422168 391.56291016 13.4422168 391.56291016 13.43432617 389.82006836 C13.46041157 387.43195003 13.49429218 385.04390438 13.53588867 382.65600586 C13.5140592 379.44525428 13.4488695 376.46151407 12.84838867 373.30639648 C10.21181746 370.5739079 10.21181746 370.5739079 6.84838867 369.30639648 C-0.97083792 362.98202203 -6.60468295 354.35174291 -8.15161133 344.30639648 C-8.24183794 341.55347878 -8.28231161 338.82678312 -8.27186584 336.0743866 C-8.27272027 335.24932045 -8.27357469 334.4242543 -8.27445501 333.57418615 C-8.27610098 330.81196783 -8.27060288 328.04981037 -8.26513672 325.28759766 C-8.26485463 323.30658978 -8.265013 321.32558179 -8.26557922 319.34457397 C-8.26586635 313.96693324 -8.2599832 308.58931477 -8.25300527 303.21167922 C-8.24675774 297.59158551 -8.24616682 291.9714913 -8.24497986 286.35139465 C-8.24187068 275.70905807 -8.23366284 265.06673174 -8.22363037 254.42439967 C-8.21245642 242.3084334 -8.20695555 230.19246663 -8.20193493 218.07649648 C-8.1914799 193.15312412 -8.17388843 168.22976088 -8.15161133 143.30639648 C-9.10350342 143.32089844 -10.05539551 143.33540039 -11.03613281 143.3503418 C-12.28982666 143.36162109 -13.54352051 143.37290039 -14.83520508 143.38452148 C-16.07584717 143.39902344 -17.31648926 143.41352539 -18.59472656 143.4284668 C-24.4545021 143.22736255 -28.86118065 141.60777755 -33.90161133 138.74389648 C-38.90031046 133.3286391 -41.45216181 127.57211509 -41.71411133 120.18139648 C-41.35345903 112.77853344 -39.19435267 107.90908294 -33.71411133 102.93139648 C-28.46579851 98.57200904 -23.45415974 98.02035354 -16.78833008 98.11108398 C-15.73434021 98.11410522 -15.73434021 98.11410522 -14.65905762 98.1171875 C-12.05234176 98.12759467 -9.44571949 98.15551706 -6.83911133 98.18139648 C1.91620117 98.24327148 1.91620117 98.24327148 10.84838867 98.30639648 C10.84838867 80.48639648 10.84838867 62.66639648 10.84838867 44.30639648 C4.57838867 44.30639648 -1.69161133 44.30639648 -8.15161133 44.30639648 C-15.77693426 40.49373502 -19.70910837 38.11682014 -22.96411133 30.43139648 C-25.33759778 23.22909277 -24.45340876 17.47853596 -21.48754883 10.64233398 C-16.69438259 2.26130062 -9.1907655 0.00809208 0 0 Z " fill="#010101" transform="translate(395.151611328125,8.693603515625)"/>
<path d="M0 0 C62.7 0 125.4 0 190 0 C190 18.48 190 36.96 190 56 C186.37 56.66 182.74 57.32 179 58 C166.59903689 62.41341161 156.25173259 71.43270798 150 83 C144.18232874 96.0085492 144.23410051 106.87280405 146 121 C97.82 121 49.64 121 0 121 C0 81.07 0 41.14 0 0 Z " fill="#F56B81" transform="translate(23,318)"/>
<path d="M0 0 C4.38845321 3.27394445 8.21956366 7.05312936 12 11 C12.61359375 11.6290625 13.2271875 12.258125 13.859375 12.90625 C27.77429537 28.11224546 30.84073726 47.41470017 30.17041016 67.27685547 C29.10279188 84.33733432 19.96388826 100.07501235 7.65478516 111.56152344 C-8.09780127 125.25497862 -27.10147493 130.11164469 -47.53320312 129.19091797 C-66.47870599 127.72462905 -83.63244642 117.00410184 -95.83203125 102.8828125 C-108.43376078 86.1259181 -112.55881855 66.40595651 -109.68652344 45.74511719 C-107.3380239 33.04159668 -101.50130173 21.64065144 -93 12 C-92.34386719 11.24976562 -91.68773437 10.49953125 -91.01171875 9.7265625 C-67.67514854 -15.27385824 -28.20572698 -18.0358758 0 0 Z " fill="#F1F3F5" transform="translate(296,20)"/>
<path d="M0 0 C31.68 0 63.36 0 96 0 C96.33 10.23 96.66 20.46 97 31 C101.59785372 40.19570745 104.77961337 45.62585807 111.828125 52.34375 C112.65834167 53.16073364 113.48855835 53.97771729 114.34393311 54.81945801 C116.96526784 57.39446458 119.60624195 59.94803911 122.25 62.5 C124.90429767 65.08404251 127.55416737 67.67241798 130.19891357 70.26623535 C131.83746807 71.87096364 133.48214896 73.4694661 135.13360596 75.06091309 C135.87487732 75.78266724 136.61614868 76.50442139 137.37988281 77.24804688 C138.03241028 77.87803589 138.68493774 78.5080249 139.35723877 79.15710449 C145.43807924 85.97876146 143 90.53363129 143 101 C80.3 101 17.6 101 -47 101 C-47 83.18272035 -47 83.18272035 -42.05258179 77.93972778 C-41.0365538 76.97956253 -41.0365538 76.97956253 -40 76 C-39.05056015 75.0066011 -39.05056015 75.0066011 -38.0819397 73.99313354 C-36.10254137 71.93722135 -34.07094724 69.94875559 -32.01953125 67.96484375 C-30.51080337 66.48138859 -29.00234783 64.9976564 -27.49414062 63.51367188 C-25.14776802 61.21698658 -22.79827429 58.92367601 -20.44360352 56.63549805 C-18.14748589 54.40002447 -15.86417358 52.15207031 -13.58203125 49.90234375 C-12.88092728 49.22815903 -12.1798233 48.5539743 -11.45747375 47.85935974 C2.74877439 33.7990487 -0.70391411 21.82133752 0 0 Z " fill="#FACB55" transform="translate(70,203)"/>
<path d="M0 0 C18.15 0 36.3 0 55 0 C55 7.26 55 14.52 55 22 C53.24171875 22.02578125 51.4834375 22.0515625 49.671875 22.078125 C47.36455834 22.13440102 45.05726763 22.19174846 42.75 22.25 C41.59113281 22.26417969 40.43226563 22.27835938 39.23828125 22.29296875 C38.12324219 22.32519531 37.00820313 22.35742188 35.859375 22.390625 C34.83295898 22.41157227 33.80654297 22.43251953 32.74902344 22.45410156 C29.30926772 23.13716495 28.07288383 24.20503051 26 27 C25.9872962 30.66364808 25.9872962 30.66364808 27 34 C29.6821281 35.34106405 31.88398032 35.21450419 34.8828125 35.31640625 C36.63271484 35.37924805 36.63271484 35.37924805 38.41796875 35.44335938 C40.25294922 35.50233398 40.25294922 35.50233398 42.125 35.5625 C43.35605469 35.60568359 44.58710938 35.64886719 45.85546875 35.69335938 C48.90350512 35.79968623 51.95173739 35.90036972 55 36 C55 41.61 55 47.22 55 53 C52.751875 53.12375 50.50375 53.2475 48.1875 53.375 C42.74711543 53.59428843 42.74711543 53.59428843 38 56 C37.56172799 57.90457929 37.56172799 57.90457929 37.6875 60 C37.69330078 61.051875 37.69330078 61.051875 37.69921875 62.125 C37.85087054 64.2416577 37.85087054 64.2416577 40 66 C42.57685678 66.30690654 45.04103303 66.51014493 47.625 66.625 C50.05875 66.74875 52.4925 66.8725 55 67 C55 72.61 55 78.22 55 84 C52.23689453 84.05607422 52.23689453 84.05607422 49.41796875 84.11328125 C47.0077917 84.1789281 44.59763636 84.24537587 42.1875 84.3125 C40.97255859 84.33505859 39.75761719 84.35761719 38.50585938 84.38085938 C37.34248047 84.41630859 36.17910156 84.45175781 34.98046875 84.48828125 C33.37014771 84.52755737 33.37014771 84.52755737 31.72729492 84.56762695 C29.00042436 84.79695006 29.00042436 84.79695006 27.1184082 86.30932617 C25.6603658 88.15786308 25.6603658 88.15786308 26.125 91.5625 C26.65633933 95.25442394 26.65633933 95.25442394 30 97 C32.71075544 97.36798693 32.71075544 97.36798693 35.76171875 97.4140625 C36.87998047 97.45273438 37.99824219 97.49140625 39.15039062 97.53125 C40.31763672 97.5621875 41.48488281 97.593125 42.6875 97.625 C43.86634766 97.66367188 45.04519531 97.70234375 46.25976562 97.7421875 C49.17291668 97.83654057 52.08643703 97.91936242 55 98 C55 103.28 55 108.56 55 114 C51.45182292 114.22786458 47.90364583 114.45572917 44.35546875 114.68359375 C41.00818107 114.87184547 41.00818107 114.87184547 38 116 C37.94600264 117.45792884 37.90720823 118.91642712 37.875 120.375 C37.85179687 121.18710937 37.82859375 121.99921875 37.8046875 122.8359375 C37.78629949 125.21342243 37.78629949 125.21342243 40 127 C42.57685678 127.30690654 45.04103303 127.51014493 47.625 127.625 C50.05875 127.74875 52.4925 127.8725 55 128 C55 133.61 55 139.22 55 145 C52.23689453 145.05607422 52.23689453 145.05607422 49.41796875 145.11328125 C47.0077917 145.1789281 44.59763636 145.24537587 42.1875 145.3125 C40.97255859 145.33505859 39.75761719 145.35761719 38.50585938 145.38085938 C37.34248047 145.41630859 36.17910156 145.45175781 34.98046875 145.48828125 C33.37014771 145.52755737 33.37014771 145.52755737 31.72729492 145.56762695 C28.995816 145.78915777 28.995816 145.78915777 27.1496582 147.34448242 C25.35087141 149.93475068 25.61766961 151.94135691 26 155 C27.09533431 156.77116326 27.09533431 156.77116326 29 158 C31.8028729 158.5060736 31.8028729 158.5060736 34.98046875 158.51171875 C36.14384766 158.54716797 37.30722656 158.58261719 38.50585938 158.61914062 C40.32827148 158.65297852 40.32827148 158.65297852 42.1875 158.6875 C43.41404297 158.72166016 44.64058594 158.75582031 45.90429688 158.79101562 C48.93587377 158.87358776 51.96792309 158.9384673 55 159 C55 164.61 55 170.22 55 176 C47.625 176.375 47.625 176.375 45.30712891 176.47802734 C41.20221481 176.62219908 41.20221481 176.62219908 38 179 C37.48856285 183.54581389 37.48856285 183.54581389 39.0703125 187.6796875 C41.99647843 189.68180103 44.6866998 189.52691283 48.1875 189.6875 C49.45980469 189.75324219 50.73210937 189.81898438 52.04296875 189.88671875 C53.01878906 189.92410156 53.99460937 189.96148437 55 190 C55.67955177 199.04181377 53.89073096 205.55579127 48.3125 212.75 C43.67178285 217.67789024 39.19497967 220.63927649 32.3671875 221.41015625 C22.59213411 221.63364157 15.01051151 220.64003225 7.60546875 213.87890625 C1.53970766 206.78004716 -0.15501227 199.05606734 -0.12025452 190.00213623 C-0.12110894 189.19017516 -0.12196337 188.3782141 -0.12284368 187.54164815 C-0.12449231 184.81778213 -0.11898717 182.09397754 -0.11352539 179.37011719 C-0.11324336 177.41881308 -0.11340156 175.46750888 -0.1139679 173.51620483 C-0.11425525 168.21494861 -0.10836848 162.91371493 -0.10139394 157.61246395 C-0.09515013 152.07377677 -0.09455579 146.53508909 -0.09336853 140.99639893 C-0.09025825 130.50631763 -0.08204893 120.01624673 -0.07201904 109.52617002 C-0.06084851 97.58434697 -0.05534508 85.64252343 -0.05032361 73.70069647 C-0.03986608 49.13379055 -0.02152435 24.56689889 0 0 Z " fill="#C7CDD4" transform="translate(401,151)"/>
<path d="M0 0 C19.92340031 -0.23383945 39.84652131 -0.41005875 59.7710104 -0.51812172 C69.02285637 -0.56963646 78.2738486 -0.63983792 87.52514648 -0.75439453 C95.59081305 -0.85422194 103.65586125 -0.91861806 111.72212845 -0.94088495 C115.99161706 -0.95389739 120.25933705 -0.98436362 124.52825737 -1.05730057 C128.55156226 -1.12548031 132.57238083 -1.14605905 136.59620857 -1.13107681 C138.06805595 -1.13381494 139.53999142 -1.15353771 141.01133728 -1.19205475 C152.13241324 -1.46875986 152.13241324 -1.46875986 156.81221199 2.21165848 C159.05296087 4.71218207 161.00503311 7.30412428 163 10 C165.17452013 11.83809937 167.22219227 12.9901484 169.75 14.375 C170.62519287 14.85549805 170.62519287 14.85549805 171.51806641 15.34570312 C177.40344983 18.45042863 183.55317331 20.3722298 190 22 C189.31910287 26.88762794 188.55078396 29.44921604 185 33 C180.49467059 35.69994121 177.17164759 36.37731159 171.94764709 36.38768005 C171.26142271 36.39306559 170.57519832 36.39845113 169.86817926 36.40399987 C167.58128638 36.41824507 165.29497516 36.41118457 163.00805664 36.40405273 C161.36337317 36.40975812 159.71869367 36.41672303 158.07402039 36.42485046 C153.61531298 36.44277838 149.15680242 36.4416142 144.69806981 36.43590808 C140.97290712 36.43281571 137.24778222 36.43890921 133.52262491 36.44494683 C124.73323159 36.45898922 115.94393547 36.45743312 107.15454102 36.44604492 C98.09311353 36.43456355 89.031982 36.44864031 79.97059351 36.4754414 C72.18441913 36.49760678 64.3983376 36.5042339 56.61213392 36.49836498 C51.9645618 36.49499626 47.3171794 36.49740487 42.66963387 36.51461601 C38.29874948 36.53009648 33.92830314 36.52611752 29.55743599 36.50731087 C27.95587751 36.50362803 26.3542865 36.50672458 24.75275803 36.51719666 C22.56111536 36.53043026 20.37091796 36.51884045 18.17933655 36.50120544 C16.95469224 36.50099616 15.73004793 36.50078688 14.46829319 36.50057125 C9.58976464 35.79646378 5.84524851 34.02547127 2.45019531 30.29882812 C-0.59403652 24.12854859 -0.46071327 18.27524205 -0.25 11.5 C-0.23195313 10.39140625 -0.21390625 9.2828125 -0.1953125 8.140625 C-0.1485115 5.42616704 -0.08296375 2.71355284 0 0 Z " fill="#FCCC55" transform="translate(23,453)"/>
<path d="M0 0 C4.38845321 3.27394445 8.21956366 7.05312936 12 11 C12.61359375 11.6290625 13.2271875 12.258125 13.859375 12.90625 C27.77429537 28.11224546 30.84073726 47.41470017 30.17041016 67.27685547 C29.10279188 84.33733432 19.96388826 100.07501235 7.65478516 111.56152344 C-8.09780127 125.25497862 -27.10147493 130.11164469 -47.53320312 129.19091797 C-66.47870599 127.72462905 -83.63244642 117.00410184 -95.83203125 102.8828125 C-108.43376078 86.1259181 -112.55881855 66.40595651 -109.68652344 45.74511719 C-107.3380239 33.04159668 -101.50130173 21.64065144 -93 12 C-92.34386719 11.24976562 -91.68773437 10.49953125 -91.01171875 9.7265625 C-67.67514854 -15.27385824 -28.20572698 -18.0358758 0 0 Z M-71 12 C-71.81082031 12.54140625 -72.62164062 13.0828125 -73.45703125 13.640625 C-85.04430671 22.11304146 -92.75542154 34.89447126 -95.59765625 48.95703125 C-97.60268148 64.12125123 -94.96441412 78.53741151 -86.0625 91.1875 C-84.74377214 92.82092428 -83.39200604 94.42855568 -82 96 C-81.4225 96.66257812 -80.845 97.32515625 -80.25 98.0078125 C-70.93222055 107.97265997 -57.73937405 114.25040611 -44.08984375 115.203125 C-27.3562146 115.4519522 -12.25512881 110.03024367 -0.11328125 98.24609375 C5.93832349 91.81416635 9.73859868 85.21132957 13 77 C13.32226562 76.20851563 13.64453125 75.41703125 13.9765625 74.6015625 C18.77663036 61.09856786 16.23803948 46.54951906 10.3125 33.875 C3.14675024 20.46980472 -7.18000307 11.07134536 -21.48828125 5.75390625 C-38.70675836 0.58568528 -55.70891189 1.78763954 -71 12 Z " fill="#010101" transform="translate(296,20)"/>
<path d="M0 0 C8.85649166 6.32974877 16.10982231 15.03696939 18 26 C19.67058876 37.93859773 15.23297451 49.65719112 12 61 C11.44478446 62.98162296 10.89008668 64.96339107 10.3359375 66.9453125 C6.26134127 81.41864357 6.26134127 81.41864357 4 88 C-9.1089538 85.04440034 -22.05697467 81.60857287 -35 78 C-36.0916748 77.69594238 -37.18334961 77.39188477 -38.30810547 77.07861328 C-47.87904407 74.41049295 -57.44942006 71.74025078 -67 69 C-64.91131484 59.67676287 -62.6461738 50.46370287 -59.85449219 41.32421875 C-58.58124345 37.11763819 -57.49484259 32.91279117 -56.53198242 28.625 C-54.11171059 17.99241737 -49.83700061 8.7963625 -41 2 C-28.75544207 -5.28617435 -12.81992315 -7.35114604 0 0 Z " fill="#C4E892" transform="translate(343,235)"/>
<path d="M0 0 C5.88421298 0.62398154 11.46009901 1.71670342 17.1875 3.1875 C18.05117188 3.40599609 18.91484375 3.62449219 19.8046875 3.84960938 C26.94440001 5.67832362 34.02412359 7.69607733 41.09960938 9.75732422 C48.28331752 11.83575663 55.51266766 13.68251417 62.78125 15.43945312 C68.808855 16.9044275 68.808855 16.9044275 71 18 C69.78740451 26.32846976 67.97495105 34.29802423 65.625 42.375 C64.99335285 44.57157527 64.36184143 46.76818957 63.73046875 48.96484375 C63.42931152 50.00624512 63.1281543 51.04764648 62.81787109 52.12060547 C62.13253827 54.53338614 61.48211875 56.94846716 60.86328125 59.37890625 C57.83790836 71.00808223 53.07079291 80.02295468 43 87 C33.79778717 91.66191399 24.30560985 93.62564509 14.0859375 91.3515625 C4.33232734 88.13699239 -3.92286628 82.02773018 -9 73 C-14.49873406 60.92334109 -13.73750493 49.86947091 -10.3125 37.3125 C-10.04211914 36.27738281 -9.77173828 35.24226563 -9.49316406 34.17578125 C-7.5008288 26.62686266 -5.35746578 19.12325745 -3.078125 11.65625 C-1.93819662 7.79040591 -0.95290759 3.91558391 0 0 Z " fill="#65D2EF" transform="translate(272,318)"/>
<path d="M0 0 C1.10927856 -0.00574036 1.10927856 -0.00574036 2.2409668 -0.01159668 C3.8009579 -0.01431271 5.36099478 -0.00697292 6.92089844 0.00976562 C9.30507186 0.03118327 11.68623249 0.00995737 14.0703125 -0.015625 C15.5885483 -0.01298166 17.10678223 -0.00785656 18.625 0 C19.33551514 -0.00809692 20.04603027 -0.01619385 20.77807617 -0.02453613 C24.12026786 0.0385964 26.02537571 0.32518267 28.76855469 2.29394531 C30.4832274 4.77864816 30.78818843 5.88215496 30.703125 8.859375 C30.69023437 9.65859375 30.67734375 10.4578125 30.6640625 11.28125 C30.63054687 12.10625 30.59703125 12.93125 30.5625 13.78125 C30.54445313 14.62171875 30.52640625 15.4621875 30.5078125 16.328125 C30.46080798 18.39632395 30.38906724 20.46393441 30.3125 22.53125 C31.56546875 22.48484375 32.8184375 22.4384375 34.109375 22.390625 C35.76039281 22.35310187 37.41143642 22.31670229 39.0625 22.28125 C40.3 22.23097656 40.3 22.23097656 41.5625 22.1796875 C42.76132813 22.16035156 42.76132813 22.16035156 43.984375 22.140625 C44.7175293 22.11967773 45.45068359 22.09873047 46.20605469 22.07714844 C49.37204327 22.75966336 50.43998887 23.90204806 52.3125 26.53125 C52.69835898 29.31487988 52.85103189 31.69409012 52.80859375 34.47265625 C52.81004898 35.23674301 52.81150421 36.00082977 52.81300354 36.78807068 C52.81134707 38.3993614 52.79981383 40.01066835 52.77905273 41.62182617 C52.75005511 44.089061 52.75845572 46.55415184 52.77148438 49.02148438 C52.76524786 50.58855211 52.75685759 52.15561307 52.74609375 53.72265625 C52.74902939 54.46020645 52.75196503 55.19775665 52.75498962 55.95765686 C52.70147664 58.85851109 52.64019486 61.01447085 51.06347656 63.50097656 C48.84313009 64.80742694 47.43317796 64.87596164 44.86328125 64.82421875 C44.01572266 64.81455078 43.16816406 64.80488281 42.29492188 64.79492188 C41.41384766 64.76978516 40.53277344 64.74464844 39.625 64.71875 C38.73232422 64.70521484 37.83964844 64.69167969 36.91992188 64.67773438 C34.71683834 64.64239079 32.51497418 64.59305493 30.3125 64.53125 C30.33868408 65.08586914 30.36486816 65.64048828 30.3918457 66.21191406 C30.49604003 68.73473569 30.56088891 71.25710489 30.625 73.78125 C30.66689453 74.65394531 30.70878906 75.52664063 30.75195312 76.42578125 C30.77612305 77.69228516 30.77612305 77.69228516 30.80078125 78.984375 C30.82696533 79.75942383 30.85314941 80.53447266 30.88012695 81.33300781 C29.99554175 84.75873046 28.29820515 85.74460922 25.3125 87.53125 C21.88671875 88.06469727 21.88671875 88.06469727 18 88.09765625 C17.30865967 88.10385483 16.61731934 88.11005341 15.9050293 88.11643982 C14.44939577 88.12351547 12.99368093 88.12040328 11.53808594 88.10766602 C9.31814013 88.09378527 7.10240355 88.12790789 4.8828125 88.16601562 C3.46354064 88.16696685 2.04426354 88.16510779 0.625 88.16015625 C-0.65761719 88.16088135 -1.94023438 88.16160645 -3.26171875 88.16235352 C-7.57992183 87.36684646 -9.06156484 85.99786781 -11.6875 82.53125 C-12.25512695 80.3112793 -12.25512695 80.3112793 -12.17578125 78.10546875 C-12.15966797 77.30947266 -12.14355469 76.51347656 -12.12695312 75.69335938 C-12.08505859 74.87673828 -12.04316406 74.06011719 -12 73.21875 C-11.97744141 72.38279297 -11.95488281 71.54683594 -11.93164062 70.68554688 C-11.8730061 68.63333851 -11.78333215 66.58205798 -11.6875 64.53125 C-12.52728394 64.5626709 -12.52728394 64.5626709 -13.3840332 64.59472656 C-15.92250586 64.67791202 -18.460692 64.72991381 -21 64.78125 C-21.88107422 64.81476563 -22.76214844 64.84828125 -23.66992188 64.8828125 C-24.94125977 64.90214844 -24.94125977 64.90214844 -26.23828125 64.921875 C-27.40870972 64.9532959 -27.40870972 64.9532959 -28.6027832 64.98535156 C-30.6875 64.53125 -30.6875 64.53125 -32.43847656 62.98730469 C-34.14469638 59.63222819 -34.13630257 56.52475314 -34.12109375 52.84375 C-34.1263356 52.10423096 -34.13157745 51.36471191 -34.13697815 50.6027832 C-34.14338747 49.04281874 -34.14207542 47.48280587 -34.13354492 45.92285156 C-34.12502711 43.53883769 -34.15381892 41.15721523 -34.18554688 38.7734375 C-34.1871589 37.25520905 -34.18658133 35.73697637 -34.18359375 34.21875 C-34.19482773 33.50823486 -34.20606171 32.79771973 -34.21763611 32.06567383 C-34.17061271 28.71976813 -33.89657734 26.82293188 -31.92700195 24.07519531 C-29.44102038 22.36132335 -28.3371146 22.05554673 -25.359375 22.140625 C-24.56015625 22.15351563 -23.7609375 22.16640625 -22.9375 22.1796875 C-22.1125 22.21320313 -21.2875 22.24671875 -20.4375 22.28125 C-19.59703125 22.29929687 -18.7565625 22.31734375 -17.890625 22.3359375 C-15.82242605 22.38294202 -13.75481559 22.45468276 -11.6875 22.53125 C-11.73390625 21.27828125 -11.7803125 20.0253125 -11.828125 18.734375 C-11.86564813 17.08335719 -11.90204771 15.43231358 -11.9375 13.78125 C-11.97101563 12.95625 -12.00453125 12.13125 -12.0390625 11.28125 C-12.05195312 10.48203125 -12.06484375 9.6828125 -12.078125 8.859375 C-12.09907227 8.1262207 -12.12001953 7.39306641 -12.14160156 6.63769531 C-10.75552928 0.20810838 -5.62505627 -0.0641023 0 0 Z " fill="#030202" transform="translate(108.6875,334.46875)"/>
<path d="M0 0 C1.50566528 0.36520752 1.50566528 0.36520752 3.04174805 0.73779297 C11.38643467 2.96801442 14.97108833 6.55997789 19.75 13.6875 C23.50287657 18.98020188 27.6527803 22.68579775 33 26.3125 C32.22665133 33.25228674 30.45905733 39.92739897 28.75 46.6875 C28.43788574 47.92943115 28.12577148 49.1713623 27.80419922 50.45092773 C25.17260577 60.82690551 22.38611484 71.15415547 19 81.3125 C11.65535001 80.73810089 4.99287462 79.07491982 -2.0625 77 C-8.66710445 75.08815355 -15.24444566 73.2001999 -21.95507812 71.69726562 C-32.40351645 69.33993323 -41.35134619 64.94557345 -48 56.3125 C-53.58605299 46.96774645 -56.19965006 38.23302585 -55 27.3125 C-52.0464056 16.82914134 -46.75612411 8.33623571 -37.40625 2.6328125 C-24.40684579 -4.49997747 -13.99813928 -3.47903454 0 0 Z " fill="#C4E892" transform="translate(236,389.6875)"/>
<path d="M0 0 C10.14002759 0.5293326 19.91484932 5.11620527 26.83203125 12.5625 C29.95035732 16.48039686 32.3192698 20.49501666 34.20703125 25.125 C34.61953125 26.053125 35.03203125 26.98125 35.45703125 27.9375 C37.92545455 38.42829904 35.64470266 48.0028098 30.58203125 57.3125 C25.18002445 65.80898971 16.80955789 70.86270969 7.27734375 73.69921875 C-9.15547457 77.07879837 -26.70128171 69.42054145 -42.24682617 64.75048828 C-47.06263527 63.30878636 -51.8650973 62.11057429 -56.79296875 61.125 C-54.33927358 50.04527088 -51.46215259 39.12062918 -48.34350586 28.20922852 C-46.34942107 21.21392742 -44.51555605 14.19208524 -42.79296875 7.125 C-42.03991455 7.28653564 -41.28686035 7.44807129 -40.51098633 7.61450195 C-26.78303739 10.19288525 -15.15979796 6.80384797 -2.79296875 1.125 C-1.79296875 0.125 -1.79296875 0.125 0 0 Z " fill="#4EBEE6" transform="translate(324.79296875,414.875)"/>
<path d="M0 0 C43.23 0 86.46 0 131 0 C131 12.21 131 24.42 131 37 C130 38 130 38 127.84669399 38.12304783 C126.88895108 38.12212604 125.93120817 38.12120424 124.94444275 38.12025452 C123.30162071 38.12231651 123.30162071 38.12231651 121.62561035 38.12442017 C120.41360962 38.12082489 119.20160889 38.11722961 117.95288086 38.11352539 C116.05071556 38.11374443 116.05071556 38.11374443 114.11012268 38.1139679 C110.62267578 38.11425585 107.13526299 38.10835945 103.64782405 38.10139394 C100.00696277 38.09516007 96.36610078 38.09455658 92.72523499 38.09336853 C85.82623028 38.09025531 78.92724135 38.08204205 72.0282436 38.07201904 C64.17589315 38.06085761 56.32354197 38.05534738 48.47118556 38.05032361 C32.31411301 38.03985943 16.15706219 38.02151406 0 38 C0 25.46 0 12.92 0 0 Z " fill="#EDEFF1" transform="translate(53,151)"/>
<path d="M0 0 C1.58134735 -0.01292336 1.58134735 -0.01292336 3.19464111 -0.02610779 C6.67761831 -0.04880026 10.15979304 -0.04202227 13.64282227 -0.03295898 C16.06511169 -0.03819323 18.48739907 -0.04446898 20.90968323 -0.05174255 C25.9862731 -0.06215299 31.06258278 -0.05757598 36.13916016 -0.04296875 C42.64393262 -0.02578403 49.14782153 -0.0492702 55.65249538 -0.08445835 C60.65482942 -0.1064221 65.65695174 -0.10499317 70.65931892 -0.09669304 C73.05749543 -0.0958729 75.45568739 -0.10274819 77.85381889 -0.11746407 C81.20778528 -0.13488912 84.56016007 -0.12038216 87.9140625 -0.09765625 C88.90386612 -0.10934845 89.89366974 -0.12104065 90.91346741 -0.13308716 C95.37342611 -0.07162092 98.55528357 0.06707137 102.14173889 2.88539124 C104.52172852 5.53344727 104.52172852 5.53344727 105.20922852 8.53344727 C104.25640526 12.69122146 102.93664664 13.96171839 99.52172852 16.53344727 C95.96571851 17.27711999 92.46632185 17.21664374 88.84399414 17.18041992 C87.76864914 17.18918152 86.69330414 17.19794312 85.58537292 17.20697021 C82.0324971 17.22896807 78.48086689 17.21440879 74.92797852 17.19750977 C72.45845297 17.20087775 69.98892905 17.20573022 67.51940918 17.21200562 C62.34440322 17.21937753 57.16982884 17.20866038 51.99487305 17.18530273 C45.35994362 17.15681573 38.72602543 17.17321786 32.09113312 17.20316505 C26.99188613 17.22122884 21.89287907 17.21548401 16.79362488 17.20252609 C14.34718201 17.19918959 11.90071739 17.20328768 9.45429993 17.21492386 C6.0354336 17.22761649 2.61820701 17.20827485 -0.80053711 17.18041992 C-1.81263748 17.19054108 -2.82473785 17.20066223 -3.86750793 17.21109009 C-8.54285888 17.14048488 -10.77929244 17.04620428 -14.63781738 14.21566772 C-16.47827148 11.53344727 -16.47827148 11.53344727 -16.60327148 7.97094727 C-13.86878123 -0.38443964 -7.6092873 -0.05006644 0 0 Z " fill="#DFE3E6" transform="translate(384.478271484375,120.466552734375)"/>
<path d="M0 0 C2.5 1.5625 2.5 1.5625 4 4 C4.08203125 7.30078125 4.08203125 7.30078125 3 11 C0.69480558 13.352816 -1.99876145 14.93781301 -4.8125 16.625 C-5.61421631 17.131521 -6.41593262 17.63804199 -7.24194336 18.15991211 C-8.94827909 19.23765865 -10.66013691 20.30670391 -12.37695312 21.36767578 C-15.80500066 23.50095257 -19.18062559 25.70983879 -22.55786133 27.92236328 C-25.05310195 29.55634579 -27.55464065 31.18018691 -30.05859375 32.80078125 C-33.36524945 34.94099668 -36.66993349 37.08418897 -39.97265625 39.23046875 C-41.52339022 40.237052 -43.07416937 41.24356566 -44.625 42.25 C-45.34179932 42.71607666 -46.05859863 43.18215332 -46.79711914 43.66235352 C-54.84258942 48.8757867 -54.84258942 48.8757867 -60 48 C-62.81471479 45.74678842 -64.83823378 42.86513501 -67 40 C-67.46277344 39.39397949 -67.92554688 38.78795898 -68.40234375 38.16357422 C-71.98054159 33.47572534 -75.510543 28.75421299 -79 24 C-79.72255981 23.02994019 -79.72255981 23.02994019 -80.4597168 22.0402832 C-83.93554904 17.30793234 -83.93554904 17.30793234 -84.5625 14.3125 C-83.78175154 11.10275633 -82.68566846 9.90823812 -80 8 C-77.0625 7.4375 -77.0625 7.4375 -74 8 C-69.93345068 11.63813359 -66.63884129 15.82564731 -63.3125 20.125 C-62.82716797 20.74503906 -62.34183594 21.36507812 -61.84179688 22.00390625 C-59.80218232 24.62023941 -57.84088596 27.23867106 -56 30 C-50.66058315 29.55855215 -47.01568711 26.58729544 -42.75 23.625 C-41.14267414 22.53015246 -39.53458191 21.43642928 -37.92578125 20.34375 C-37.10932129 19.786875 -36.29286133 19.23 -35.45166016 18.65625 C-30.94550619 15.61206074 -26.36753756 12.67928623 -21.78662109 9.74926758 C-18.06984447 7.36594062 -14.4550013 4.89906609 -10.875 2.3125 C-7.17464922 -0.1567863 -4.49594666 -0.88155817 0 0 Z " fill="#040404" transform="translate(296,55)"/>
<path d="M0 0 C4.62 0 9.24 0 14 0 C14.05607422 1.77117187 14.05607422 1.77117187 14.11328125 3.578125 C14.17895149 5.13544788 14.24539847 6.69273814 14.3125 8.25 C14.34633789 9.41595703 14.34633789 9.41595703 14.38085938 10.60546875 C14.53133656 13.80652889 14.80823714 16.48863236 15.9375 19.5 C19.45595084 22.05887334 23.45105221 21.68182015 27.6875 21.75 C29.02651367 21.79447266 29.02651367 21.79447266 30.39257812 21.83984375 C32.59456583 21.91049576 34.79728876 21.95751762 37 22 C37 26.62 37 31.24 37 36 C35.74703125 36.02578125 34.4940625 36.0515625 33.203125 36.078125 C31.55204877 36.13441169 29.90100845 36.1917589 28.25 36.25 C27.425 36.26417969 26.6 36.27835937 25.75 36.29296875 C22.12472754 36.43914909 19.63992419 36.62868596 16.46875 38.46875 C14.25357319 42.28639514 14.32467546 45.90524584 14.25 50.25 C14.20552734 51.51070313 14.20552734 51.51070313 14.16015625 52.796875 C14.08968364 54.8640715 14.04255061 56.93204033 14 59 C9.38 59 4.76 59 0 59 C-0.02578125 57.66324219 -0.0515625 56.32648438 -0.078125 54.94921875 C-0.13440112 53.19527962 -0.19174857 51.44137464 -0.25 49.6875 C-0.26417969 48.80642578 -0.27835938 47.92535156 -0.29296875 47.01757812 C-0.40028205 42.1605948 -0.40028205 42.1605948 -2.5 37.9375 C-6.22116743 36.54206221 -9.80273091 36.4270559 -13.75 36.3125 C-14.54277344 36.27833984 -15.33554688 36.24417969 -16.15234375 36.20898438 C-18.10107504 36.12680896 -20.05051362 36.06171955 -22 36 C-22 31.38 -22 26.76 -22 22 C-12.1 21.505 -12.1 21.505 -2 21 C-1.11360611 18.34081834 -0.82010975 16.51935359 -0.68359375 13.76953125 C-0.64169922 12.96708984 -0.59980469 12.16464844 -0.55664062 11.33789062 C-0.51732422 10.50451172 -0.47800781 9.67113281 -0.4375 8.8125 C-0.39431641 7.96751953 -0.35113281 7.12253906 -0.30664062 6.25195312 C-0.20068482 4.16815567 -0.0998498 2.08409897 0 0 Z " fill="#F0F2F4" transform="translate(111,349)"/>
<path d="M0 0 C0.72421646 -0.00700928 1.44843292 -0.01401855 2.19459534 -0.02124023 C4.57869275 -0.03878626 6.96159451 -0.02721062 9.34570312 -0.01367188 C11.00809964 -0.01636779 12.67049461 -0.02025104 14.33288574 -0.02526855 C17.81305997 -0.03115897 21.29282289 -0.02261569 24.77294922 -0.00390625 C29.2286325 0.01888341 33.683352 0.00575782 38.13899994 -0.01819611 C41.57060985 -0.03266666 45.00199215 -0.02804241 48.43360901 -0.01768494 C50.07621882 -0.01502111 51.71884945 -0.01827533 53.36143494 -0.02760315 C55.65948026 -0.03778998 57.95597603 -0.02224035 60.25390625 0 C62.21318054 0.00477356 62.21318054 0.00477356 64.21203613 0.00964355 C68.18988663 0.60130882 69.83774958 1.66789791 72.62695312 4.51757812 C73.68945312 7.45507812 73.68945312 7.45507812 73.62695312 10.51757812 C71.85655863 13.26474199 70.56403469 15.04903734 67.62695312 16.51757812 C65.28488638 16.63559591 62.93940826 16.68747871 60.59448242 16.71044922 C59.87070404 16.71862671 59.14692566 16.7268042 58.4012146 16.73522949 C56.0012088 16.76008226 53.60126214 16.77659918 51.20117188 16.79101562 C50.3818046 16.7963393 49.56243732 16.80166298 48.71824074 16.80714798 C44.3812618 16.83387919 40.04431165 16.85325406 35.70727539 16.86767578 C31.22795984 16.88432298 26.74938015 16.92910069 22.27034283 16.98004723 C18.82592424 17.01370612 15.38168061 17.02525165 11.93711281 17.03090286 C10.2860737 17.03761926 8.63504626 17.05285159 6.9841671 17.07679367 C4.67137096 17.10842116 2.36056311 17.10848682 0.04760742 17.10107422 C-1.26762405 17.10916107 -2.58285553 17.11724792 -3.9379425 17.12557983 C-8.25613894 16.36127385 -9.72247485 14.94842258 -12.37304688 11.51757812 C-12.99804688 7.95507812 -12.99804688 7.95507812 -12.37304688 4.51757812 C-8.47088619 0.4196791 -5.54315943 0.01350531 0 0 Z " fill="#E3E6E9" transform="translate(398.373046875,22.482421875)"/>
<path d="M0 0 C5.28 0 10.56 0 16 0 C16 17.82 16 35.64 16 54 C10.72 54 5.44 54 0 54 C0 36.18 0 18.36 0 0 Z " fill="#C5CBD2" transform="translate(421,53)"/>
<path d="M0 0 C3.63 0 7.26 0 11 0 C11 4.29 11 8.58 11 13 C7.37 13 3.74 13 0 13 C0 8.71 0 4.42 0 0 Z " fill="#C3C6C9" transform="translate(423,386)"/>
</svg>
