<?xml version="1.0" encoding="UTF-8"?>
<svg version="1.1" xmlns="http://www.w3.org/2000/svg" width="512" height="512">
<path d="M0 0 C1.61525142 -0.00913666 1.61525142 -0.00913666 3.26313418 -0.01845789 C6.87195634 -0.03510871 10.48042647 -0.03030894 14.08927917 -0.0255127 C16.67651741 -0.03285183 19.26375236 -0.0414376 21.85098267 -0.05117798 C28.1498082 -0.07221856 34.44854165 -0.0767736 40.74739818 -0.07499009 C45.86875703 -0.07368165 50.9900872 -0.07749079 56.11144066 -0.08491516 C57.58755117 -0.0870144 59.06366169 -0.089112 60.53977221 -0.09120798 C61.27451766 -0.09225151 62.00926312 -0.09329504 62.76627358 -0.09437019 C76.6584811 -0.11326738 90.5506358 -0.1122241 104.44285085 -0.10540086 C117.14319679 -0.09982706 129.84334091 -0.12064471 142.5436397 -0.15376133 C155.59214367 -0.1875211 168.64055104 -0.20266373 181.68909949 -0.1980443 C189.01169812 -0.19580175 196.33411026 -0.20101112 203.65667152 -0.22593689 C210.54404873 -0.24918206 217.43099953 -0.24633944 224.31838417 -0.22600937 C226.84471462 -0.22259631 229.37107325 -0.22770099 231.89736557 -0.24199295 C235.34946607 -0.2601732 238.8001397 -0.2474431 242.25219727 -0.22705078 C243.74755035 -0.24582755 243.74755035 -0.24582755 245.2731126 -0.26498365 C253.23762097 -0.16429815 258.74853109 2.33202832 264.7696991 7.49987793 C274.11900014 18.3328724 277.70255378 28.56732189 277.34977722 42.70715332 C277.31068547 45.02705602 277.27209378 47.34696718 277.2339325 49.66688538 C277.21054306 50.89040773 277.18715363 52.11393009 277.16305542 53.37452888 C277.05139461 59.88786416 277.01502296 66.40182677 276.96891785 72.91589355 C276.9102074 81.19043474 276.82837266 89.46223889 276.64128113 97.73498535 C276.49000278 104.43549612 276.43471399 111.13091609 276.43447876 117.83340263 C276.41851021 120.37608581 276.370677 122.91878928 276.28936768 125.46022224 C275.4726583 138.77881301 275.4726583 138.77881301 280.08958244 150.82811928 C284.30369865 155.07303366 289.04565753 158.24700014 294.22950363 161.19069862 C296.86469333 162.71053502 299.24019141 164.49349001 301.63298035 166.36706543 C303.04678251 167.39915702 304.46209799 168.42917949 305.8790741 169.45690918 C313.99508617 175.39394663 321.99732342 181.46555589 329.96842957 187.59509277 C332.63206156 189.63615826 335.3037687 191.66635916 337.97673035 193.69519043 C338.93595398 194.42367187 339.89517761 195.15215332 340.88346863 195.90270996 C342.76774559 197.33314508 344.65281151 198.76254164 346.53874207 200.1907959 C347.39226257 200.83935547 348.24578308 201.48791504 349.12516785 202.15612793 C349.88627869 202.7332251 350.64738953 203.31032227 351.43156433 203.90490723 C355.25907182 206.92933712 355.25907182 206.92933712 355.56957376 209.44064242 C355.57168703 210.71715887 355.57168703 210.71715887 355.573843 212.01946354 C355.58029189 213.0002129 355.58674079 213.98096226 355.5933851 214.9914313 C355.58873929 216.61935528 355.58873929 216.61935528 355.58399963 218.28016663 C355.58853075 219.42708715 355.59306186 220.57400767 355.59773028 221.75568336 C355.60823519 224.94907593 355.6096942 228.14232765 355.60734153 231.3357321 C355.60693454 234.77627226 355.61796149 238.21677841 355.62745667 241.65730286 C355.64409617 248.40317271 355.64956763 255.14900762 355.65068142 261.89489628 C355.65163093 267.37961688 355.65573639 272.86432594 355.66208267 278.34904289 C355.67970665 293.8968245 355.68892027 309.44457847 355.68742172 324.99237014 C355.68734181 325.83120757 355.6872619 326.67004501 355.68717957 327.53430176 C355.6870978 328.37416333 355.68701604 329.2140249 355.6869318 330.07933681 C355.68611959 343.67874891 355.705238 357.27805007 355.7334563 370.87743009 C355.76219714 384.83884798 355.77599579 398.80021181 355.77426875 412.76166004 C355.77360504 420.60072727 355.77908826 428.43967836 355.80062485 436.27871895 C355.81885293 442.9564656 355.82317106 449.63404352 355.809606 456.3118043 C355.80308316 459.71752443 355.8029336 463.12292103 355.8203125 466.52861023 C355.83574207 470.22595099 355.82647028 473.92244381 355.81105042 477.61976624 C355.82133754 478.68943384 355.83162467 479.75910145 355.84222353 480.86118323 C355.75317262 490.53351655 352.81729285 497.52589285 346.25016785 504.60144043 C339.70294509 510.67250153 334.09048666 512.51624532 325.26178551 512.52863026 C324.5476724 512.53098249 323.83355929 512.53333472 323.09780639 512.53575823 C320.69255418 512.54244252 318.28735606 512.54199018 315.88209534 512.5415802 C314.14510345 512.54487918 312.40811233 512.54860482 310.67112219 512.55272168 C305.88800042 512.5627459 301.1048912 512.56645915 296.32176042 512.56911099 C291.16684831 512.57301277 286.01194616 512.58259118 280.85704041 512.59132385 C268.4032323 512.61109151 255.94942338 512.62115472 243.4956035 512.63005164 C237.63228295 512.63443393 231.7689633 512.63980088 225.90564346 512.64504051 C206.41718674 512.66205286 186.92873058 512.67654745 167.44026756 512.68378925 C162.38227208 512.68569918 157.3242766 512.68761951 152.26628113 512.6895752 C150.38054964 512.69030081 150.38054964 512.69030081 148.45672257 512.69104107 C128.08767955 512.69934293 107.71869523 512.72468245 87.34967785 512.75715587 C66.44201231 512.79021658 45.53437661 512.80823711 24.62668478 512.81143349 C12.88585052 512.81359947 1.14510186 512.82236104 -10.59570694 512.84789467 C-20.59387207 512.8695881 -30.59193081 512.87765873 -40.59011681 512.86792789 C-45.69108785 512.86337932 -50.7918393 512.8653019 -55.8927803 512.88468933 C-60.56497047 512.90229378 -65.2367804 512.90134528 -69.90897445 512.88579204 C-71.59677861 512.88341185 -73.28460891 512.88776083 -74.97237308 512.89962069 C-85.03093956 512.96590857 -93.8032117 512.6224786 -102.2693634 506.53503418 C-108.24049103 500.22493424 -112.78727312 493.58374688 -112.82882023 484.64072037 C-112.83574487 483.65674656 -112.84266951 482.67277276 -112.84980398 481.65898156 C-112.8523481 480.5752475 -112.85489222 479.49151345 -112.85751343 478.37493896 C-112.86401238 477.22575289 -112.87051133 476.07656681 -112.87720722 474.89255691 C-112.89409753 471.69760775 -112.90645143 468.50267858 -112.9167639 465.30770254 C-112.9264011 462.56858169 -112.939712 459.82948359 -112.95303286 457.09037855 C-113.0006123 447.2802979 -113.03326485 437.47018498 -113.06233215 427.66003418 C-113.06463973 426.88591733 -113.06694731 426.11180049 -113.06932482 425.31422555 C-113.1147607 409.94483568 -113.1532807 394.57543153 -113.18005466 379.20599747 C-113.18604381 375.82706942 -113.19212946 372.44814156 -113.19831848 369.06921387 C-113.19985146 368.22939318 -113.20138445 367.38957249 -113.20296388 366.52430269 C-113.22868233 352.91702801 -113.28556929 339.31006269 -113.35478378 325.70294717 C-113.42524861 311.73474007 -113.46548762 297.766693 -113.4768042 283.798311 C-113.48396559 275.95466037 -113.50473647 268.11154757 -113.55983162 260.26807404 C-113.60671646 253.58872872 -113.62655607 246.91000216 -113.61095012 240.23049811 C-113.60383916 236.82260049 -113.60968704 233.41602789 -113.65052795 230.00833893 C-113.68803262 226.3117381 -113.67631751 222.61845158 -113.65219116 218.92181396 C-113.67481177 217.84700279 -113.69743239 216.77219162 -113.72073847 215.66481042 C-113.60221304 208.54110881 -113.60221304 208.54110881 -110.92087352 205.19464159 C-108.91893818 203.42127782 -106.90166476 201.88389773 -104.6834259 200.39440918 C-103.51190979 199.4748645 -103.51190979 199.4748645 -102.31672668 198.53674316 C-101.67719055 198.07598389 -101.03765442 197.61522461 -100.3787384 197.14050293 C-99.64010559 196.6036084 -98.90147278 196.06671387 -98.14045715 195.5135498 C-97.37088684 194.9586084 -96.60131653 194.40366699 -95.8084259 193.83190918 C-89.3465988 189.12458443 -82.97062225 184.3325113 -76.6834259 179.39440918 C-69.77415647 173.97336032 -62.76556194 168.70808572 -55.66584778 163.53894043 C-54.21452107 162.47989917 -52.77960679 161.39796591 -51.36277771 160.29319763 C-48.6834259 158.39440918 -48.6834259 158.39440918 -45.41899109 156.77088928 C-40.57188918 153.99014645 -36.59488875 151.49086895 -34.9519062 145.9092598 C-33.78376275 138.15568468 -34.1488242 130.31314147 -34.33576965 122.49987793 C-34.3477518 119.94458646 -34.35339155 117.38925813 -34.35299683 114.8339386 C-34.36491578 108.80286208 -34.43150919 102.77499076 -34.52796322 96.74488193 C-34.7082717 85.32779781 -34.7603393 73.90983218 -34.80891609 62.49154091 C-34.83526196 58.75929983 -34.89280294 55.02858263 -34.95562744 51.29679871 C-35.16760962 34.29732813 -34.39796771 20.38846078 -21.8865509 7.55065918 C-15.00150751 1.33584125 -9.09589518 -0.04828869 0 0 Z " fill="#020201" transform="translate(134.6834259033203,-0.3944091796875)"/>
<path d="M0 0 C1.05292939 -0.00965766 2.10585877 -0.01931532 3.19069511 -0.02926564 C6.70138224 -0.05172065 10.20912684 -0.01724423 13.71968079 0.01727295 C16.2432687 0.01297902 18.76685275 0.00522035 21.29042053 -0.0057373 C27.42176931 -0.02309078 33.55203431 -0.00342039 39.68326529 0.0336639 C46.82697407 0.0753112 53.97049812 0.07491628 61.11430547 0.07297358 C73.86071332 0.07097366 86.60671886 0.10755058 99.35298157 0.16571045 C111.7156863 0.22209078 124.07803714 0.25039182 136.44087219 0.2477417 C137.20277313 0.24758187 137.96467406 0.24742205 138.7496629 0.24725738 C139.51026049 0.24709596 140.27085809 0.24693455 141.0545041 0.24676824 C155.14101221 0.24400789 169.22737032 0.26756991 183.31382978 0.3033811 C188.29146642 0.31543649 193.26907546 0.31969811 198.24672508 0.32151031 C204.94539067 0.32452609 211.64363334 0.34992606 218.3421936 0.39017487 C220.80203282 0.40186576 223.26191486 0.40677816 225.72178078 0.40446472 C229.07614747 0.40250366 232.42947011 0.42510397 235.78369141 0.45410156 C236.76004899 0.44790715 237.73640658 0.44171275 238.74235076 0.43533063 C245.64349446 0.53405139 248.92718854 1.92876974 253.99433899 6.66473389 C254.68463196 7.47490967 254.68463196 7.47490967 255.38887024 8.30145264 C255.85679993 8.83383545 256.32472961 9.36621826 256.80683899 9.91473389 C260.89314348 15.99268258 261.66216928 21.25614211 261.73709106 28.4100647 C261.76845304 29.80374447 261.76845304 29.80374447 261.8004486 31.22557938 C261.86609438 34.32873517 261.91057627 37.43180611 261.95454407 40.53533936 C261.99627893 42.76493491 262.03893014 44.99451346 262.08242798 47.22407532 C262.45861394 67.56582328 262.64797067 87.91216712 262.79488087 108.25674248 C262.81488421 110.97867975 262.83522434 113.70061423 262.85591125 116.42254639 C262.86103482 117.09897938 262.86615839 117.77541238 262.87143721 118.47234334 C262.95716111 129.41352468 263.14347167 140.35066186 263.36974946 151.2897421 C263.60068673 162.54816634 263.72975339 173.80459526 263.76968211 185.06559384 C263.79490044 191.37895752 263.86386231 197.68457779 264.0420475 203.99563217 C265.1090246 243.48600596 265.1090246 243.48600596 258.64960861 251.73685455 C252.98844405 257.69185003 245.87085533 261.02747917 238.2243042 263.81501675 C235.44305624 264.89509552 233.31331972 266.09924079 230.88171387 267.79930115 C226.91916711 270.42112243 223.65656418 270.69346369 218.9811554 270.61663818 C217.81379349 270.62754486 217.81379349 270.62754486 216.62284851 270.63867188 C214.07823314 270.65711407 211.53504614 270.64126425 208.99043274 270.62567139 C207.21302543 270.63371743 205.43562775 270.64423895 203.6582489 270.65711975 C198.9999294 270.68557264 194.34205593 270.68625753 189.68367004 270.67926025 C182.20708618 270.67191367 174.73064407 270.70318653 167.25417709 270.74170876 C164.64269142 270.7505788 162.03151388 270.74525229 159.42002869 270.73814392 C157.82842422 270.74152639 156.23682048 270.74527506 154.6452179 270.74945068 C153.91691772 270.74375565 153.18861755 270.73806061 152.43824768 270.73219299 C148.36953774 270.63516116 148.36953774 270.63516116 145.20137024 272.98895264 C145.20137024 275.62895264 145.20137024 278.26895264 145.20137024 280.98895264 C175.89137024 281.48395264 175.89137024 281.48395264 207.20137024 281.98895264 C204.02520786 285.16511502 201.58188416 287.19221216 197.86933899 289.52801514 C196.31219177 290.5145105 196.31219177 290.5145105 194.72358704 291.52093506 C193.62313049 292.21163086 192.52267395 292.90232666 191.38887024 293.61395264 C189.10603993 295.05807917 186.82561279 296.50598186 184.54512024 297.95379639 C183.44554993 298.65101807 182.34597961 299.34823975 181.21308899 300.06658936 C177.57286283 302.39012541 173.97049414 304.76388057 170.38887024 307.17645264 C161.39559633 313.22052561 152.31100112 319.1220094 143.20137024 324.98895264 C142.42422668 325.49088135 141.64708313 325.99281006 140.84638977 326.50994873 C138.67789469 327.90655114 136.50345883 329.29329467 134.32637024 330.67645264 C133.69094299 331.08637451 133.05551575 331.49629639 132.40083313 331.91864014 C126.51751186 335.62526695 121.63284408 337.67575588 114.72895813 336.57073975 C105.97854774 334.55661554 98.28458136 328.5729867 90.9934845 323.60467529 C88.02590364 321.58314304 85.04498566 319.58145854 82.06465149 317.57879639 C81.17953384 316.98323441 81.17953384 316.98323441 80.27653503 316.37564087 C75.22599652 312.9856594 70.1101451 309.71103205 64.95137024 306.48895264 C57.51967258 301.84256039 50.20248286 297.05127906 42.93574524 292.15155029 C41.1665279 290.96559689 39.38867555 289.79375979 37.60762024 288.62567139 C37.0429303 288.25409912 36.47824036 287.88252686 35.8964386 287.49969482 C34.36513997 286.49302684 32.83214246 285.48894446 31.29902649 284.48504639 C30.26068665 283.74447998 30.26068665 283.74447998 29.20137024 282.98895264 C29.20137024 282.65895264 29.20137024 282.32895264 29.20137024 281.98895264 C74.24637024 281.49395264 74.24637024 281.49395264 120.20137024 280.98895264 C120.20137024 278.34895264 120.20137024 275.70895264 120.20137024 272.98895264 C117.06356898 270.89708513 116.44086675 270.74594092 112.8885498 270.8046875 C112.00749069 270.81375626 111.12643158 270.82282501 110.21867371 270.83216858 C109.25414276 270.85200302 108.28961182 270.87183746 107.29585266 270.89227295 C105.18372878 270.91807602 103.07160195 270.9436382 100.95947266 270.96899414 C99.27448449 270.99434612 99.27448449 270.99434612 97.55545616 271.02021027 C91.57765058 271.10028877 85.59953475 271.1155625 79.62129211 271.14129639 C72.02619279 271.17677116 64.4329263 271.23081378 56.83882141 271.36248779 C50.69435618 271.46731056 44.55281867 271.50157809 38.40751076 271.491539 C36.08374079 271.5001024 33.75990628 271.53323466 31.43689537 271.59323883 C14.35002791 272.01628159 3.34068374 268.4829935 -10.16512203 257.85214424 C-12.7952716 255.86837752 -12.7952716 255.86837752 -16.04725742 254.50709343 C-19.77801751 252.67274048 -22.10552717 251.17686771 -24.79862976 247.98895264 C-27.07788947 241.08473182 -26.36464837 233.38428609 -26.24028015 226.21795654 C-26.24508327 223.97685612 -26.25509953 221.73576171 -26.26992798 219.4947052 C-26.29471065 213.41723469 -26.24475788 207.34244651 -26.18001485 201.26535463 C-26.12351302 194.89994477 -26.1312216 188.53459093 -26.13076782 182.16897583 C-26.12057676 171.4772692 -26.06498013 160.78668293 -25.9785614 150.09539795 C-25.88983155 139.11121361 -25.8402016 128.1277968 -25.83500671 117.14324951 C-25.83468105 116.46698334 -25.83435538 115.79071718 -25.83401985 115.09395809 C-25.83354347 114.08126123 -25.83354347 114.08126123 -25.83305746 113.04810584 C-25.83240162 111.68855261 -25.83172676 110.32899939 -25.83103275 108.96944618 C-25.8306922 108.29885246 -25.83035164 107.62825874 -25.83000076 106.93734399 C-25.82255224 95.81425373 -25.77276309 84.69129668 -25.72337031 73.56832838 C-25.70880422 69.78274805 -25.70080674 65.99719905 -25.69406319 62.21159744 C-25.68122055 56.25394297 -25.64237379 50.29698664 -25.58368874 44.33961296 C-25.5659436 42.15723172 -25.55651483 39.97476406 -25.55615616 37.79231071 C-25.54091504 15.44561436 -25.54091504 15.44561436 -17.91507363 6.87107027 C-12.07683431 1.1752812 -8.04883317 -0.17077924 0 0 Z " fill="#D7EBFD" transform="translate(137.7986297607422,11.01104736328125)"/>
<path d="M0 0 C0.7933374 0.41185547 1.5866748 0.82371094 2.40405273 1.24804688 C3.89291992 1.97701172 3.89291992 1.97701172 5.41186523 2.72070312 C6.44053711 3.24535156 7.46920898 3.77 8.52905273 4.31054688 C16.87243821 8.5654654 24.98085869 9.86041755 34.26733398 7.52929688 C39.14401837 5.64839839 43.35781739 3.16384378 47.51733398 0.00585938 C49.40405273 -0.75195312 49.40405273 -0.75195312 51.69702148 -0.00708008 C54.53761447 1.30997336 57.00483364 2.82575916 59.60327148 4.57226562 C61.14253296 5.60226685 61.14253296 5.60226685 62.71289062 6.65307617 C63.83919813 7.41377123 64.96541584 8.17459926 66.09155273 8.93554688 C67.28590403 9.73772681 68.48049024 10.53955706 69.67529297 11.34106445 C73.58962844 13.96970511 77.49700012 16.60859901 81.40405273 19.24804688 C82.75264885 20.1582575 84.10128183 21.06841351 85.44995117 21.97851562 C93.25527933 27.24694164 101.05409744 32.52494108 108.84983826 37.80754089 C115.99255675 42.64755242 123.13909551 47.48190617 130.28610229 52.31558228 C133.82558462 54.70949246 137.36480524 57.10378952 140.90405273 59.49804688 C142.32071815 60.45638206 143.73738482 61.41471539 145.15405273 62.37304688 C153.65405271 68.12304686 153.65405271 68.12304686 155.77896118 69.56048584 C157.19593191 70.51902427 158.61290376 71.47756105 160.02987671 72.43609619 C163.56690028 74.82877816 167.10390468 77.22148846 170.64086914 79.61425781 C179.1954449 85.40140506 179.1954449 85.40140506 187.75073242 91.1875 C188.47072922 91.67439301 189.19072601 92.16128601 189.93254089 92.66293335 C191.38633782 93.64596837 192.84020531 94.62889904 194.29414368 95.61172485 C197.86591098 98.02644996 201.43625179 100.44322817 205.00341797 102.86474609 C211.20635861 107.07322662 217.41553068 111.26889718 223.67730713 115.38952637 C226.32208315 117.1313022 228.95982452 118.8835625 231.59698486 120.63684082 C232.83097018 121.45278345 234.0685117 122.26337637 235.30975342 123.0682373 C237.00751789 124.16944277 238.69248937 125.29029747 240.37670898 126.41210938 C241.32811768 127.03553223 242.27952637 127.65895508 243.25976562 128.30126953 C245.40405273 130.24804688 245.40405273 130.24804688 246.28857422 132.76904297 C246.51907976 137.71735846 244.1880142 141.31576838 241.09155273 144.99804688 C235.97178654 149.28436276 231.84087589 150.62291987 225.19128609 150.62836361 C224.13095147 150.63535349 224.13095147 150.63535349 223.04919595 150.64248458 C220.68040438 150.65443586 218.31218625 150.64503891 215.94338989 150.63572693 C214.2279926 150.6398998 212.51259807 150.64537706 210.79720867 150.65204674 C206.08310006 150.66652631 201.36916591 150.66224877 196.65504766 150.65487993 C191.57109123 150.65015675 186.48717301 150.66265059 181.40322876 150.67289734 C171.44308411 150.69010759 161.48300249 150.6909207 151.52284683 150.68568444 C143.42808558 150.68164552 135.33334297 150.68308299 127.23858261 150.68843269 C126.08715506 150.68918112 124.9357275 150.68992954 123.74940821 150.69070064 C121.41039126 150.69223209 119.07137431 150.69377044 116.73235737 150.69531561 C94.7892754 150.70904879 72.84622908 150.70359729 50.90314792 150.69213039 C30.82386727 150.68219793 10.74467876 150.69513748 -9.33458768 150.71906459 C-29.94625205 150.74344127 -50.55787347 150.75306693 -71.16955197 150.74641186 C-82.74372672 150.74291636 -94.3178306 150.74517349 -105.89199448 150.76266289 C-115.74525357 150.777367 -125.59839189 150.77804378 -135.45164858 150.76059198 C-140.4794686 150.75206472 -145.50707269 150.74997453 -150.53488159 150.76524353 C-155.13782113 150.77904924 -159.74035892 150.77438056 -164.34327497 150.75500429 C-166.00809789 150.7512313 -167.67295268 150.75420357 -169.33774732 150.76461595 C-184.937112 150.85524075 -184.937112 150.85524075 -191.59594727 146.24804688 C-196.17595953 141.46908754 -196.9548273 137.75372739 -197.59594727 131.24804688 C-189.17825279 125.10808149 -180.61829052 119.21943498 -171.93457031 113.46264648 C-162.82951425 107.42020736 -153.7733428 101.30650297 -144.72094727 95.18554688 C-143.92287659 94.64600372 -143.12480591 94.10646057 -142.30255127 93.55056763 C-130.23786603 85.39349669 -118.17901256 77.22781285 -106.12304688 69.05786133 C-95.2591918 61.69585003 -84.3904941 54.34101334 -73.51953125 46.98950195 C-72.09317644 46.02490811 -70.66682553 45.06030849 -69.24047852 44.09570312 C-68.53191208 43.61651932 -67.82334564 43.13733551 -67.0933075 42.64363098 C-61.23456733 38.68104271 -55.37831828 34.71478394 -49.52322388 30.74681091 C-45.92061608 28.305929 -42.31617072 25.86785721 -38.70727539 23.4362793 C-37.31986068 22.50120597 -35.9324903 21.56606687 -34.54516602 20.63085938 C-33.87234589 20.17735611 -33.19952576 19.72385284 -32.50631714 19.25660706 C-28.6703787 16.66579822 -24.85474947 14.04856743 -21.05822754 11.40034485 C-19.3561508 10.21477128 -17.64920321 9.03662402 -15.94018555 7.86108398 C-13.89578306 6.45213808 -11.86086906 5.02928227 -9.83764648 3.59008789 C-8.94706543 2.98092529 -8.05648437 2.3717627 -7.13891602 1.74414062 C-5.99459106 0.94254517 -5.99459106 0.94254517 -4.82714844 0.12475586 C-2.59594727 -0.75195312 -2.59594727 -0.75195312 0 0 Z " fill="#FA8B24" transform="translate(231.595947265625,349.751953125)"/>
<path d="M0 0 C3.2224599 1.28898396 5.63914554 2.25778897 8.4609375 4.03125 C9.0890332 4.42417236 9.71712891 4.81709473 10.36425781 5.22192383 C11.02780273 5.64368896 11.69134766 6.0654541 12.375 6.5 C13.07979492 6.94432373 13.78458984 7.38864746 14.51074219 7.84643555 C19.75830183 11.17102379 24.93952822 14.58873513 30.09594727 18.05249023 C35.13749812 21.43705958 40.21749799 24.75901373 45.3125 28.0625 C53.15690592 33.14983803 60.98872337 38.25598832 68.8125 43.375 C79.9263494 50.64562852 91.04770568 57.90464716 102.17333984 65.15722656 C106.94932799 68.27081773 111.72462586 71.38546724 116.5 74.5 C118.41666343 75.75000496 120.33333009 77.00000497 122.25 78.25 C128 82 128 82 133.75 85.75 C134.69979736 86.36939453 135.64959473 86.98878906 136.62817383 87.62695312 C138.53440371 88.87022403 140.44049223 90.11371171 142.34643555 91.35742188 C147.29661564 94.58721846 152.24959565 97.81259909 157.20703125 101.03125 C158.74037109 102.02801758 158.74037109 102.02801758 160.3046875 103.04492188 C162.23996372 104.30285142 164.17609369 105.559469 166.11328125 106.81445312 C170.65972291 109.77162266 175.18332389 112.76234281 179.66796875 115.8125 C180.49965576 116.37582031 181.33134277 116.93914062 182.18823242 117.51953125 C182.78611572 118.00808594 183.38399902 118.49664062 184 119 C184 119.66 184 120.32 184 121 C181.8644645 122.5730781 179.73047344 124.02127941 177.5 125.44921875 C176.11028625 126.35666086 174.720976 127.26472114 173.33203125 128.17333984 C172.61225098 128.64157166 171.8924707 129.10980347 171.15087891 129.59222412 C167.80527567 131.78196131 164.49628285 134.02470019 161.1875 136.26953125 C159.84834058 137.17583044 158.50914729 138.08207958 157.16992188 138.98828125 C155.77993931 139.92967479 154.38996558 140.87108137 153 141.8125 C151.5110955 142.82035356 150.0221626 143.82816516 148.53320312 144.8359375 C144.02159068 147.88982089 139.5106771 150.9447353 135 154 C134.32227539 154.45904724 133.64455078 154.91809448 132.94628906 155.39105225 C127.19088285 159.28950481 121.43577098 163.18839176 115.6809082 167.08764648 C101.89179795 176.43019724 88.09507472 185.76148784 74.29833984 195.09277344 C69.31904539 198.46050908 64.33991513 201.82848749 59.36112976 205.19697571 C55.84837282 207.57353801 52.33519298 209.94946969 48.82104492 212.32397461 C42.14082349 216.83878992 35.46556034 221.36054699 28.80395508 225.90280151 C25.63504355 228.06301401 22.46385805 230.21987489 19.29248047 232.37646484 C17.77212798 233.41172936 16.25290827 234.44865955 14.73486328 235.48730469 C12.63853235 236.92146494 10.53847152 238.34999397 8.4375 239.77734375 C7.49946533 240.42237099 7.49946533 240.42237099 6.54248047 241.08042908 C2.22773215 244 2.22773215 244 0 244 C0 163.48 0 82.96 0 0 Z " fill="#FEBE60" transform="translate(34,222)"/>
<path d="M0 0 C0 80.52 0 161.04 0 244 C-3.64555958 242.54177617 -6.01227433 241.47990964 -9.10546875 239.33203125 C-9.9056543 238.78095703 -10.70583984 238.22988281 -11.53027344 237.66210938 C-12.4071582 237.05173828 -13.28404297 236.44136719 -14.1875 235.8125 C-16.17522068 234.44319633 -18.16354195 233.07476422 -20.15234375 231.70703125 C-20.68896637 231.33724152 -21.22558899 230.96745178 -21.7784729 230.5864563 C-28.19117553 226.17057491 -34.64378821 221.81384267 -41.09561157 217.45541382 C-43.2752765 215.98292426 -45.45447944 214.50975342 -47.63354492 213.03637695 C-50.60777844 211.02535845 -53.58214834 209.01454198 -56.55664062 207.00390625 C-63.00122446 202.64738167 -69.44411326 198.28835163 -75.88708496 193.92944336 C-79.42464958 191.53618658 -82.96233085 189.14310225 -86.5 186.75 C-87.91666722 185.79166749 -89.33333389 184.83333415 -90.75 183.875 C-91.45125 183.400625 -92.1525 182.92625 -92.875 182.4375 C-95 181 -97.125 179.5625 -99.25 178.125 C-99.95118454 177.65067032 -100.65236908 177.17634064 -101.37480164 176.68763733 C-102.7921334 175.72885198 -104.20946128 174.77006088 -105.62678528 173.81126404 C-109.15824408 171.4222995 -112.68976942 169.03343343 -116.22143555 166.64477539 C-122.71817197 162.25053295 -129.21431262 157.85541903 -135.70812988 153.4568634 C-151.76693401 142.57960158 -167.8330868 131.71633765 -184 121 C-182.12468158 116.7475096 -179.47451106 115.15320291 -175.5625 112.875 C-167.78283044 108.18510886 -160.22514846 103.19090028 -152.6875 98.125 C-145.02083957 92.98127288 -137.33659165 87.88305887 -129.5 83 C-121.12863487 77.78275516 -112.93402751 72.31437811 -104.74255371 66.8215332 C-96.71540916 61.44169214 -88.62886754 56.17638494 -80.43530273 51.05249023 C-75.14493255 47.73987172 -69.93342723 44.32782495 -64.75292969 40.84643555 C-58.01653801 36.32427118 -51.20558144 31.91853268 -44.3984375 27.50390625 C-39.62846361 24.41036808 -34.86640494 21.3048352 -30.10620117 18.19628906 C-26.26900288 15.69115887 -22.42921185 13.19001811 -18.58935547 10.68896484 C-16.22498831 9.14675364 -13.86406638 7.59941887 -11.50390625 6.05078125 C-10.23191797 5.22112854 -8.95979519 4.39168198 -7.6875 3.5625 C-6.61886719 2.86253906 -5.55023438 2.16257813 -4.44921875 1.44140625 C-2 0 -2 0 0 0 Z " fill="#FEBE60" transform="translate(478,222)"/>
<path d="M0 0 C1.00500046 -0.00623996 2.01000092 -0.01247993 3.04545593 -0.01890898 C6.42897679 -0.03492398 9.8117857 -0.02220119 13.1953125 -0.00964355 C15.61450625 -0.01506087 18.0336967 -0.02218133 20.45288086 -0.03088379 C26.35109513 -0.04726563 32.24912302 -0.04481841 38.14733219 -0.03323323 C42.93987258 -0.02420859 47.7323559 -0.02297068 52.52490234 -0.02732849 C53.20636857 -0.02794142 53.8878348 -0.02855436 54.58995152 -0.02918586 C55.97423174 -0.03046473 57.35851194 -0.03176158 58.74279213 -0.03307623 C71.73064414 -0.04448908 84.71838331 -0.03135732 97.70621681 -0.00987476 C108.8562844 0.0079969 120.00618542 0.00489299 131.15625 -0.0135498 C144.09684493 -0.03494413 157.03734091 -0.04339038 169.97795105 -0.03110075 C171.35720824 -0.02982652 172.73646544 -0.02856904 174.11572266 -0.02732849 C174.79438668 -0.02671139 175.47305071 -0.02609429 176.17228031 -0.02545848 C180.96041802 -0.02200125 185.74849309 -0.02784193 190.53662109 -0.0372467 C196.97820862 -0.04962077 203.41955507 -0.04084172 209.8611145 -0.01766968 C212.23031082 -0.01236432 214.59953354 -0.01392733 216.96871948 -0.02272034 C220.19305101 -0.03358705 223.41635937 -0.02001919 226.640625 0 C227.5870134 -0.00892289 228.53340179 -0.01784577 229.50846863 -0.02703905 C235.80533804 0.04924393 235.80533804 0.04924393 238.40003967 2.36035919 C240.48625797 7.22881876 239.78765521 12.80445099 239.7578125 18.00793457 C239.77779297 19.24414551 239.79777344 20.48035645 239.81835938 21.75402832 C239.81739258 23.53486816 239.81739258 23.53486816 239.81640625 25.35168457 C239.81825928 26.43643066 239.8201123 27.52117676 239.82202148 28.63879395 C239.16767122 32.38084956 238.40967648 33.28632248 235.3203125 35.50793457 C232.08600462 36.11144943 228.88504846 36.04718972 225.60302734 36.01586914 C224.60604513 36.0221091 223.60906292 36.02834907 222.58186913 36.03477812 C219.23142425 36.05076996 215.88170065 36.0380793 212.53125 36.0255127 C210.13323542 36.03093104 207.73522416 36.03805207 205.33721924 36.04675293 C199.49428548 36.06312451 193.65153997 36.06069294 187.80861139 36.04910237 C183.06043975 36.04007297 178.31232571 36.03884189 173.56414795 36.04319763 C172.88865666 36.04381056 172.21316537 36.0444235 171.51720464 36.045055 C170.14500569 36.04633389 168.77280675 36.04763074 167.40060782 36.04894537 C154.53003636 36.06035466 141.65957881 36.04723203 128.78902602 36.0257439 C117.74275717 36.00787256 106.69665645 36.01097657 95.65039062 36.02941895 C82.82624098 36.05081954 70.00219121 36.059256 57.1780262 36.04696989 C55.81084317 36.04569568 54.44366012 36.0444382 53.07647705 36.04319763 C52.40377694 36.04258053 51.73107684 36.04196343 51.03799188 36.04132763 C46.29489584 36.03787228 41.55186309 36.04370702 36.80877686 36.05311584 C30.42626805 36.06549833 24.04400241 36.05669684 17.66152191 36.03353882 C15.31532063 36.02823755 12.96909268 36.02978957 10.62290192 36.03858948 C7.42743548 36.04947219 4.232998 36.03586867 1.03759766 36.01586914 C-0.36491965 36.02925347 -0.36491965 36.02925347 -1.79577065 36.04290819 C-8.04166343 35.9667481 -8.04166343 35.9667481 -11.25566101 33.65550995 C-13.16844084 30.7708453 -13.18166986 28.798826 -13.17578125 25.35168457 C-13.17642578 24.16445801 -13.17707031 22.97723145 -13.17773438 21.75402832 C-13.15775391 20.51781738 -13.13777344 19.28160645 -13.1171875 18.00793457 C-13.12427734 16.77172363 -13.13136719 15.5355127 -13.13867188 14.26184082 C-13.07636641 5.43363599 -13.07636641 5.43363599 -11.75941467 2.36035919 C-8.31816515 -0.704781 -4.44859239 -0.04194291 0 0 Z " fill="#050301" transform="translate(142.6796875,453.4920654296875)"/>
<path d="M0 0 C0.93106567 -0.00945648 1.86213135 -0.01891296 2.82141113 -0.02865601 C4.32617004 -0.01954697 4.32617004 -0.01954697 5.86132812 -0.01025391 C7.4091095 -0.01455917 7.4091095 -0.01455917 8.98815918 -0.01895142 C11.17033436 -0.02099342 13.35252778 -0.01545411 15.53466797 -0.00292969 C18.87964713 0.01312154 22.22341791 -0.00277432 25.56835938 -0.02197266 C27.68685163 -0.01999025 29.80534314 -0.01614663 31.92382812 -0.01025391 C32.92700073 -0.0163266 33.93017334 -0.02239929 34.96374512 -0.02865601 C36.36034363 -0.01447128 36.36034363 -0.01447128 37.78515625 0 C38.60439575 0.00238678 39.42363525 0.00477356 40.2677002 0.00723267 C43.01154467 0.49915274 43.72531489 1.16219522 45.39257812 3.38818359 C45.77289486 6.11999416 45.77289486 6.11999416 45.78025818 9.49253845 C45.79016281 10.76983322 45.80006744 12.04712799 45.81027222 13.36312866 C45.80603393 14.78155613 45.80147605 16.19998268 45.79663086 17.6184082 C45.80233212 19.10988376 45.80929543 20.60135494 45.81742859 22.09281921 C45.83540268 26.14656255 45.83418365 30.20008994 45.8284862 34.25386119 C45.82540034 37.63618236 45.8314801 41.01846169 45.83752495 44.40077692 C45.85158264 52.37928042 45.8499987 60.35767687 45.83862305 68.33618164 C45.82714133 76.57112325 45.84121543 84.80573922 45.86801952 93.04063791 C45.89016137 100.10739245 45.89681731 107.17404466 45.89094311 114.24083143 C45.88756858 118.46302654 45.89002126 122.68501289 45.90719414 126.90717888 C45.92263714 130.87749125 45.91873763 134.84732051 45.89988899 138.8176136 C45.89619566 140.27529939 45.89933329 141.73302076 45.90977478 143.19067383 C45.92293324 145.17936119 45.90906101 147.16817288 45.89378357 149.15684509 C45.89357429 150.27016173 45.893365 151.38347837 45.89314938 152.53053188 C45.27763218 156.04438485 44.17180154 157.2221031 41.39257812 159.38818359 C39.18540955 159.88938904 39.18540955 159.88938904 36.76342773 159.88989258 C35.85245834 159.89927353 34.94148895 159.90865448 34.00291443 159.9183197 C33.02677689 159.90708572 32.05063934 159.89585175 31.04492188 159.88427734 C30.03667862 159.88573257 29.02843536 159.88718781 27.98963928 159.88868713 C25.86049507 159.88702858 23.73133881 159.8754722 21.60229492 159.85473633 C18.33851389 159.82575849 15.07635456 159.83413321 11.8125 159.84716797 C9.74413271 159.84093128 7.67577056 159.83254089 5.60742188 159.82177734 C4.14017921 159.8261808 4.14017921 159.8261808 2.64329529 159.83067322 C1.73547806 159.81798904 0.82766083 159.80530487 -0.10766602 159.79223633 C-1.30535362 159.78413185 -1.30535362 159.78413185 -2.52723694 159.77586365 C-5.23585036 159.27106459 -5.95767535 158.58984398 -7.60742188 156.38818359 C-7.9849453 153.63796234 -7.9849453 153.63796234 -7.9883728 150.23913574 C-7.99683228 148.95198166 -8.00529175 147.66482758 -8.01400757 146.33866882 C-8.00817445 144.90920895 -8.00202993 143.47975031 -7.99560547 142.05029297 C-7.99966982 140.54734414 -8.00501093 139.04439829 -8.01153564 137.54145813 C-8.0252314 133.45677958 -8.01990136 129.37232794 -8.01039839 125.28764534 C-8.00281345 121.01691187 -8.00984415 116.74619808 -8.01455688 112.47546387 C-8.02001785 105.30294296 -8.01281392 98.13051467 -7.99853516 90.95800781 C-7.98220796 82.66060957 -7.98749623 74.36343245 -8.00401437 66.06603956 C-8.01761957 58.9475005 -8.01955365 51.82902808 -8.01169837 44.71048021 C-8.00701651 40.45650132 -8.00641101 36.20262643 -8.01630783 31.94865417 C-8.0249612 27.94967971 -8.01898567 23.95099089 -8.00162506 19.95204735 C-7.99765146 18.48265749 -7.99880917 17.01324368 -8.00541306 15.5438633 C-8.01358333 13.54166129 -8.00153156 11.53940688 -7.9883728 9.53723145 C-7.98667619 7.85481228 -7.98667619 7.85481228 -7.9849453 6.13840485 C-7.60742188 3.38818359 -7.60742188 3.38818359 -6.21641731 1.52767754 C-4.05768426 -0.00114174 -2.63406096 0.0076741 0 0 Z " fill="#000201" transform="translate(311.607421875,39.61181640625)"/>
<path d="M0 0 C1.29659546 -0.0236412 1.29659546 -0.0236412 2.61938477 -0.04776001 C3.54033936 -0.03763885 4.46129395 -0.0275177 5.41015625 -0.01708984 C6.36784912 -0.02187347 7.32554199 -0.0266571 8.31225586 -0.03158569 C10.3328618 -0.03498136 12.35352293 -0.0258023 14.37402344 -0.00488281 C17.46283736 0.02188756 20.54801755 -0.00464187 23.63671875 -0.03662109 C25.60287259 -0.03331694 27.56902416 -0.02691058 29.53515625 -0.01708984 C30.45611084 -0.027211 31.37706543 -0.03733215 32.32592773 -0.04776001 C33.19032471 -0.03199921 34.05472168 -0.0162384 34.9453125 0 C35.70078369 0.00397797 36.45625488 0.00795593 37.23461914 0.01205444 C40.88570476 1.04784636 42.2492873 2.58192262 44.47265625 5.64697266 C45.2000125 9.12059346 45.14573579 12.52672594 45.10375977 16.06518555 C45.11091507 17.11287613 45.11807037 18.16056671 45.1254425 19.24000549 C45.14234032 22.70032455 45.12292054 26.15935021 45.1015625 29.61962891 C45.10239103 32.024288 45.1048498 34.42894703 45.10887146 36.83360291 C45.11173014 41.87158264 45.09701943 46.90911797 45.06958008 51.94702148 C45.0354796 58.40931747 45.04152133 64.87081962 45.06024265 71.33315372 C45.07080293 76.29766982 45.06188384 81.26200069 45.04685783 86.22649956 C45.04166969 88.60956714 45.04216545 90.99265401 45.04840279 93.37571907 C45.05384372 96.70362186 45.03351494 100.03038168 45.00610352 103.3581543 C45.01262939 104.34579773 45.01915527 105.33344116 45.02587891 106.35101318 C44.93318892 112.95797171 44.93318892 112.95797171 42.72764587 116.25767517 C40.18974783 117.82127233 38.82153539 118.15271173 35.859375 118.16455078 C34.9516333 118.17715942 34.0438916 118.18976807 33.10864258 118.20275879 C32.13564209 118.19466187 31.1626416 118.18656494 30.16015625 118.17822266 C29.15428467 118.18204956 28.14841309 118.18587646 27.11206055 118.18981934 C24.98713174 118.19253917 22.86216949 118.18517306 20.73730469 118.16845703 C17.48426693 118.14704907 14.2334378 118.16825698 10.98046875 118.19384766 C8.91535971 118.19120439 6.85025204 118.18607945 4.78515625 118.17822266 C3.81215576 118.18631958 2.83915527 118.1944165 1.83666992 118.20275879 C0.92892822 118.19015015 0.02118652 118.1775415 -0.9140625 118.16455078 C-1.71030029 118.16136841 -2.50653809 118.15818604 -3.3269043 118.15490723 C-6.63089712 117.39223586 -7.62830059 116.48812295 -9.52734375 113.64697266 C-10.12953268 110.22058021 -10.08372922 106.82968191 -10.06079102 103.3581543 C-10.06940659 102.31221603 -10.07802216 101.26627777 -10.0868988 100.18864441 C-10.1096192 96.72788819 -10.10280818 93.26793776 -10.09375 89.80712891 C-10.09898305 87.40343484 -10.10525835 84.99974283 -10.11253357 82.59605408 C-10.12294918 77.55636946 -10.11835965 72.51696699 -10.10375977 67.47729492 C-10.08657496 61.01611207 -10.11005855 54.55581871 -10.14524937 48.09473515 C-10.16720123 43.13018388 -10.16578707 38.16584614 -10.15748405 33.20126152 C-10.15666325 30.81900495 -10.16355125 28.4367329 -10.17825508 26.05452156 C-10.19565811 22.72418553 -10.18119167 19.39545665 -10.15844727 16.06518555 C-10.17013947 15.07956635 -10.18183167 14.09394714 -10.19387817 13.07846069 C-10.13036548 8.51189056 -10.0141754 6.31809986 -7.27085876 2.53627014 C-4.49603141 0.62540969 -3.30155386 0.01738447 0 0 Z " fill="#060707" transform="translate(238.52734375,81.35302734375)"/>
<path d="M0 0 C0.93106567 -0.00945648 1.86213135 -0.01891296 2.82141113 -0.02865601 C4.32617004 -0.01954697 4.32617004 -0.01954697 5.86132812 -0.01025391 C7.4091095 -0.01455917 7.4091095 -0.01455917 8.98815918 -0.01895142 C11.17033436 -0.02099342 13.35252778 -0.01545411 15.53466797 -0.00292969 C18.87964713 0.01312154 22.22341791 -0.00277432 25.56835938 -0.02197266 C27.68685163 -0.01999025 29.80534314 -0.01614663 31.92382812 -0.01025391 C32.92700073 -0.0163266 33.93017334 -0.02239929 34.96374512 -0.02865601 C36.36034363 -0.01447128 36.36034363 -0.01447128 37.78515625 0 C38.60439575 0.00238678 39.42363525 0.00477356 40.2677002 0.00723267 C42.39257812 0.38818359 42.39257812 0.38818359 44.15628052 1.43515015 C46.07143663 4.4606061 45.80952003 7.55573394 45.78076172 11.02490234 C45.78601868 11.80080719 45.79127563 12.57671204 45.79669189 13.37612915 C45.80990397 15.94285162 45.80114979 18.50895473 45.79101562 21.07568359 C45.79303602 22.85782999 45.79594717 24.63997558 45.79971313 26.42211914 C45.80413812 30.15795764 45.79769988 33.89358102 45.78369141 37.62939453 C45.76659936 42.42147443 45.77643962 47.21305029 45.7944088 52.00511169 C45.80524197 55.68538216 45.80180246 59.36553284 45.79402542 63.04580688 C45.79202212 64.81287699 45.79448725 66.57995792 45.80146408 68.34701538 C45.80907098 70.81545884 45.79748565 73.28308255 45.78076172 75.75146484 C45.78683441 76.48402496 45.7929071 77.21658508 45.79916382 77.97134399 C45.76334785 80.82037676 45.70289777 82.89820702 44.15628052 85.34022522 C41.89919394 86.68134308 40.40844311 86.77493543 37.78515625 86.79223633 C36.85409058 86.8049205 35.9230249 86.81760468 34.96374512 86.83067322 C33.45898621 86.82626976 33.45898621 86.82626976 31.92382812 86.82177734 C30.89197388 86.8270192 29.86011963 86.83226105 28.79699707 86.83766174 C26.61483663 86.84408678 24.43264158 86.84273875 22.25048828 86.83422852 C18.90529979 86.82571597 15.56181668 86.85447863 12.21679688 86.88623047 C10.0983078 86.88784242 7.9798157 86.88726506 5.86132812 86.88427734 C4.85815552 86.89551132 3.85498291 86.9067453 2.82141113 86.9183197 C1.89034546 86.90893875 0.95927979 86.8995578 0 86.88989258 C-1.22885925 86.88964333 -1.22885925 86.88964333 -2.48254395 86.88938904 C-4.60742188 86.38818359 -4.60742188 86.38818359 -6.37112427 84.83547974 C-8.06407839 81.48421539 -8.02657738 78.39990773 -7.99560547 74.72973633 C-8.00086243 73.96343903 -8.00611938 73.19714172 -8.01153564 72.40762329 C-8.02472217 69.87879966 -8.01600347 67.35060719 -8.00585938 64.82177734 C-8.0078803 63.06348042 -8.01079188 61.30518431 -8.01455688 59.54689026 C-8.01897822 55.86410533 -8.01255457 52.18153883 -7.99853516 48.4987793 C-7.98143073 43.77510697 -7.99129349 39.05194554 -8.00925255 34.32829189 C-8.02008482 30.69863524 -8.01664684 27.06910005 -8.00886917 23.43943977 C-8.00686627 21.69748944 -8.00932959 19.95552813 -8.01630783 18.21359062 C-8.02391465 15.78117454 -8.01233017 13.34959033 -7.99560547 10.91723633 C-8.00167816 10.19559799 -8.00775085 9.47395966 -8.01400757 8.73045349 C-7.97795251 5.90442366 -7.90795183 3.86130814 -6.37112427 1.44187927 C-4.11110521 0.09166717 -2.63007808 0.00766249 0 0 Z " fill="#050101" transform="translate(162.607421875,112.61181640625)"/>
<path d="M0 0 C9.57 0 19.14 0 29 0 C29 44.88 29 89.76 29 136 C19.43 136 9.86 136 0 136 C0 91.12 0 46.24 0 0 Z " fill="#24A652" transform="translate(316,51)"/>
<path d="M0 0 C9.9 0 19.8 0 30 0 C30 30.69 30 61.38 30 93 C20.1 93 10.2 93 0 93 C0 62.31 0 31.62 0 0 Z " fill="#FDB600" transform="translate(241,94)"/>
<path d="M0 0 C75.24 0 150.48 0 228 0 C228 3.63 228 7.26 228 11 C152.76 11 77.52 11 0 11 C0 7.37 0 3.74 0 0 Z " fill="#FEBE60" transform="translate(142,466)"/>
<path d="M0 0 C1.2113562 -0.00701431 2.4227124 -0.01402863 3.67077637 -0.02125549 C5.01001143 -0.01382807 6.34924483 -0.00609693 7.68847656 0.00190735 C9.10128039 -0.00052108 10.51408251 -0.00424091 11.92687988 -0.00915527 C15.76159182 -0.01856095 19.59604837 -0.00914167 23.43074036 0.00417686 C27.44341063 0.01549312 31.45606836 0.01138371 35.46875 0.00942993 C42.20739921 0.00854701 48.94594782 0.01962691 55.68457031 0.03804016 C63.47581434 0.05920777 71.26691099 0.06271765 79.05817795 0.0564782 C86.55251766 0.05078376 94.04680546 0.05643115 101.5411377 0.06765175 C104.73084472 0.07229667 107.92052 0.07317205 111.11022949 0.0710659 C114.86622657 0.06918242 118.62207362 0.07729146 122.3780365 0.0931263 C123.75670247 0.09736922 125.13538366 0.09821963 126.51405334 0.0954361 C128.39544351 0.09221382 130.27684238 0.10252195 132.15820312 0.11352539 C133.2112262 0.11557826 134.26424927 0.11763113 135.34918213 0.11974621 C138.13719508 0.37963712 139.7803877 0.79041943 142.07910156 2.3742218 C143.01660156 5.2492218 143.01660156 5.2492218 143.07910156 8.3742218 C141.95266628 10.53778839 141.95266628 10.53778839 140.07910156 12.3742218 C137.42537785 12.87758636 137.42537785 12.87758636 134.16456604 12.88215637 C132.92934204 12.89343567 131.69411804 12.90471497 130.42146301 12.91633606 C129.05026012 12.90855857 127.67905953 12.90036588 126.30786133 12.89179993 C124.86564425 12.89721933 123.42343271 12.90434096 121.98123169 12.91304016 C118.06170663 12.93130013 114.14260199 12.9241948 110.22306943 12.91152382 C106.1236311 12.90140792 102.02422915 12.91078574 97.92478943 12.91706848 C91.03890511 12.92434985 84.15319228 12.91474531 77.26733398 12.89570618 C69.30503318 12.87394502 61.34314217 12.88098115 53.38085133 12.9030118 C46.54762817 12.92116226 39.71452842 12.92372563 32.88128895 12.91325712 C28.79883319 12.90701909 24.71657006 12.90619477 20.63412666 12.91940308 C16.79511077 12.93095562 12.95662314 12.92294736 9.11766434 12.89982605 C7.70836324 12.89453531 6.29901771 12.89605907 4.88973427 12.90487671 C2.96671253 12.91579961 1.04359368 12.89967577 -0.87937927 12.88215637 C-1.95582419 12.88064827 -3.03226912 12.87914017 -4.14133358 12.87758636 C-7.60076402 12.25110172 -8.81226247 11.14051163 -10.92089844 8.3742218 C-10.92089844 5.8117218 -10.92089844 5.8117218 -9.92089844 3.3742218 C-6.71522869 0.28880694 -4.37397504 -0.00069675 0 0 Z " fill="#060607" transform="translate(230.9208984375,232.6257781982422)"/>
<path d="M0 0 C9.57 0 19.14 0 29 0 C29 20.46 29 40.92 29 62 C19.43 62 9.86 62 0 62 C0 41.54 0 21.08 0 0 Z " fill="#FA3C48" transform="translate(167,125)"/>
<path d="M0 0 C6.019439 4.01295933 11.73562768 8.02337164 17.375 12.5 C25.36383585 18.78020183 33.49338652 24.84556661 41.6953125 30.84375 C43.13043586 31.89552295 44.5653319 32.94760615 46 34 C46.76924805 34.56203125 47.53849609 35.1240625 48.33105469 35.703125 C49.06485352 36.24453125 49.79865234 36.7859375 50.5546875 37.34375 C51.21710449 37.83037109 51.87952148 38.31699219 52.56201172 38.81835938 C53.03654785 39.20830078 53.51108398 39.59824219 54 40 C54 40.33 54 40.66 54 41 C36.18 41 18.36 41 0 41 C0 27.47 0 13.94 0 0 Z " fill="#F88A24" transform="translate(411,163)"/>
<path d="M0 0 C0 13.53 0 27.06 0 41 C-17.82 41 -35.64 41 -54 41 C-48.38095238 35.38095238 -48.38095238 35.38095238 -45.09375 33.01171875 C-44.36003174 32.47804687 -43.62631348 31.944375 -42.87036133 31.39453125 C-42.08814209 30.83121094 -41.30592285 30.26789063 -40.5 29.6875 C-31.47156643 23.11428329 -22.57612851 16.37982198 -13.70703125 9.59375 C-12.13829818 8.39547015 -10.56929607 7.19754242 -9 6 C-8.22317871 5.40574219 -7.44635742 4.81148437 -6.64599609 4.19921875 C-5.92105957 3.64878906 -5.19612305 3.09835938 -4.44921875 2.53125 C-3.80686279 2.04205078 -3.16450684 1.55285156 -2.50268555 1.04882812 C-1 0 -1 0 0 0 Z " fill="#F88A24" transform="translate(101,163)"/>
<path d="M0 0 C17.16 0 34.32 0 52 0 C48.82383762 3.17616238 46.38051392 5.20325952 42.66796875 7.5390625 C41.62874268 8.19745117 40.5895166 8.85583984 39.51879883 9.53417969 C38.41947021 10.22415039 37.3201416 10.91412109 36.1875 11.625 C33.92289615 13.05740339 31.66068578 14.49356762 29.3984375 15.9296875 C28.30112305 16.62545898 27.20380859 17.32123047 26.07324219 18.03808594 C18.86701364 22.63843966 11.75756313 27.39619281 4.73046875 32.265625 C2 34 2 34 0 34 C0 22.78 0 11.56 0 0 Z " fill="#F68924" transform="translate(411,216)"/>
<path d="M0 0 C17.16 0 34.32 0 52 0 C52 11.22 52 22.44 52 34 C47.81425577 32.32570231 44.84559733 30.71165701 41.16796875 28.21875 C40.34369888 27.66376328 40.34369888 27.66376328 39.5027771 27.0975647 C37.72835354 25.90227309 35.95799699 24.70109798 34.1875 23.5 C31.75483682 21.85864686 29.31950226 20.22130607 26.8828125 18.5859375 C25.98801933 17.98505814 25.98801933 17.98505814 25.07514954 17.37203979 C19.69341828 13.7703277 14.22883638 10.31656925 8.6706543 6.99414062 C5.20234696 4.89053363 2.94900863 2.94900863 0 0 Z " fill="#F68924" transform="translate(49,216)"/>
<path d="M0 0 C1.0046933 -0.0159874 2.0093866 -0.03197479 3.04452515 -0.04844666 C4.67111557 -0.05649071 4.67111557 -0.05649071 6.33056641 -0.06469727 C7.44646149 -0.07372574 8.56235657 -0.08275421 9.71206665 -0.09205627 C12.07413036 -0.10657221 14.43623441 -0.11544883 16.79833984 -0.11914062 C20.41133423 -0.13103506 24.02262019 -0.18020894 27.63525391 -0.23071289 C29.9295164 -0.24017709 32.22378939 -0.24741214 34.51806641 -0.25219727 C36.13858414 -0.28149574 36.13858414 -0.28149574 37.7918396 -0.31138611 C45.27762695 -0.26638444 45.27762695 -0.26638444 49.27832031 2.67333984 C51.05712891 5.30639648 51.05712891 5.30639648 51.05712891 7.99389648 C50.05712891 10.30639648 50.05712891 10.30639648 47.05712891 12.30639648 C44.70446777 12.57382202 44.70446777 12.57382202 41.89892578 12.59692383 C40.8477356 12.60968353 39.79654541 12.62244324 38.71350098 12.6355896 C37.01187805 12.63892807 37.01187805 12.63892807 35.27587891 12.64233398 C33.52833313 12.65231918 33.52833313 12.65231918 31.7454834 12.6625061 C29.28085918 12.67263679 26.81620752 12.677323 24.3515625 12.67700195 C20.5719718 12.68137929 16.79354448 12.71770816 13.01416016 12.75561523 C10.62223708 12.76148231 8.23030844 12.76545243 5.83837891 12.76733398 C4.70396362 12.78170502 3.56954834 12.79607605 2.40075684 12.81088257 C1.34956665 12.80472931 0.29837646 12.79857605 -0.78466797 12.79223633 C-1.71049683 12.79508636 -2.63632568 12.7979364 -3.59020996 12.8008728 C-5.94287109 12.30639648 -5.94287109 12.30639648 -7.77307129 10.47134399 C-8.94287109 8.30639648 -8.94287109 8.30639648 -8.81787109 5.18139648 C-7.34569475 0.34424564 -4.56869165 0.05497207 0 0 Z " fill="#060707" transform="translate(146.94287109375,232.693603515625)"/>
</svg>
