<?xml version="1.0" encoding="UTF-8"?>
<svg version="1.1" xmlns="http://www.w3.org/2000/svg" width="512" height="512">
<path d="M0 0 C6.89861217 4.11129412 12.23452023 10.22477727 14.4375 18 C14.4375 21.96 14.4375 25.92 14.4375 30 C24.9975 30 35.5575 30 46.4375 30 C46.4375 26.04 46.4375 22.08 46.4375 18 C49.74116319 9.22464465 54.30774664 3.60471348 62.70703125 -0.66015625 C70.53857595 -3.47295189 80.34799149 -3.47391797 88 0 C94.89861217 4.11129412 100.23452023 10.22477727 102.4375 18 C102.4375 21.96 102.4375 25.92 102.4375 30 C112.9975 30 123.5575 30 134.4375 30 C134.4375 26.04 134.4375 22.08 134.4375 18 C137.74116319 9.22464465 142.30774664 3.60471348 150.70703125 -0.66015625 C158.53857595 -3.47295189 168.34799149 -3.47391797 176 0 C182.89861217 4.11129412 188.23452023 10.22477727 190.4375 18 C190.5095472 20.07699367 190.52784106 22.15626995 190.50390625 24.234375 C190.48952515 25.85424316 190.48952515 25.85424316 190.47485352 27.50683594 C190.46252686 28.32958008 190.4502002 29.15232422 190.4375 30 C191.18030212 29.99111755 191.92310425 29.98223511 192.68841553 29.9730835 C199.69199905 29.89290256 206.69542335 29.83201814 213.69933701 29.79275131 C217.30008286 29.77188487 220.90044916 29.74358579 224.50097656 29.69824219 C227.97637913 29.65474875 231.45141688 29.63085579 234.92707062 29.62049103 C236.89695784 29.60951385 238.86669847 29.578293 240.83636475 29.54681396 C242.63777924 29.54636078 242.63777924 29.54636078 244.47558594 29.54589844 C245.53259705 29.53701599 246.58960815 29.52813354 247.6786499 29.51898193 C251.26905529 30.14498545 252.23183377 31.11752328 254.4375 34 C254.82987686 36.59302592 254.9758101 38.76193243 254.94086456 41.35266113 C254.94667833 42.09896255 254.95249209 42.84526396 254.95848203 43.61418056 C254.97314608 46.12917888 254.95916757 48.643211 254.94543457 51.15820312 C254.95004097 52.97372183 254.95639212 54.78923682 254.96434355 56.60474396 C254.98109592 61.60477746 254.97276374 66.60450695 254.96039867 71.60454178 C254.95137461 76.99248603 254.96530474 82.38037681 254.97631836 87.76831055 C254.99413649 98.32765589 254.99024894 108.88688772 254.9786678 119.44623756 C254.96964669 128.02544718 254.96840374 136.6046249 254.97276306 145.18383789 C254.97337599 146.40329998 254.97398893 147.62276208 254.97462043 148.87917757 C254.97589929 151.35622852 254.97719614 153.83327946 254.9785108 156.31033039 C254.98992625 179.55616631 254.97678776 202.8019392 254.95530933 226.04776478 C254.93743749 246.00843726 254.94054133 265.9690167 254.95898438 285.9296875 C254.98037405 309.09041629 254.98882752 332.2510898 254.97653532 355.41182709 C254.97526108 357.87993875 254.9740036 360.34805043 254.97276306 362.81616211 C254.97183741 364.63786069 254.97183741 364.63786069 254.97089306 366.49636126 C254.96743444 375.06863255 254.9732795 383.64086888 254.98268127 392.21313477 C254.99388151 402.65505304 254.99090287 413.09685099 254.9695583 423.53875542 C254.95902126 428.86984762 254.95497114 434.20073896 254.96815491 439.53182983 C254.9800298 444.40726822 254.97359764 449.28231859 254.9522447 454.15772152 C254.94775775 455.92616356 254.95009147 457.69463805 254.95974785 459.46305943 C254.97182873 461.85829204 254.95952311 464.25217782 254.94086456 466.64733887 C254.95022923 467.34159942 254.95959389 468.03585997 254.96924233 468.75115871 C254.91984324 471.90168587 254.58338921 473.77904126 252.83434629 476.42808104 C249.60593344 478.54536465 247.43750959 478.50133974 243.58459473 478.50336456 C242.89232127 478.50917833 242.20004782 478.51499209 241.48679638 478.52098203 C239.15556094 478.53563769 236.82536925 478.52167187 234.49414062 478.50793457 C232.81061513 478.51254131 231.12709365 478.5188927 229.44358063 478.52684355 C224.8083895 478.54359126 220.17352643 478.5352659 215.53833389 478.52289867 C210.54302969 478.51387269 205.5477831 478.5278057 200.55249023 478.53881836 C190.76317301 478.55663444 180.97397823 478.55274986 171.18465614 478.5411678 C163.23092262 478.53214588 155.27722349 478.53090409 147.32348633 478.53526306 C146.19283579 478.53587599 145.06218526 478.53648893 143.89727259 478.53712043 C141.60060564 478.53839929 139.3039387 478.53969614 137.00727177 478.5410108 C115.45535788 478.55242564 93.90351197 478.5392887 72.35160923 478.51780933 C53.84635126 478.49993754 35.34119365 478.5030414 16.8359375 478.52148438 C-4.63718571 478.54287511 -26.11024928 478.55132692 -47.58338165 478.53903532 C-49.87174987 478.53776108 -52.16011809 478.5365036 -54.44848633 478.53526306 C-56.13750761 478.53433741 -56.13750761 478.53433741 -57.86065054 478.53339306 C-65.80774965 478.52993476 -73.75481103 478.53577881 -81.7019043 478.54518127 C-91.3825918 478.55638269 -101.06314952 478.55340039 -110.7438221 478.5320583 C-115.68606843 478.52152283 -120.62809813 478.51746843 -125.57034302 478.53065491 C-130.09051125 478.54253312 -134.6102611 478.53609225 -139.13039112 478.5147447 C-140.76962779 478.51025915 -142.40889947 478.51258841 -144.04811382 478.52224785 C-146.26911662 478.5343364 -148.48866888 478.52201606 -150.70959473 478.50336456 C-151.94531471 478.50271515 -153.1810347 478.50206574 -154.45420074 478.50139666 C-157.5625 478 -157.5625 478 -159.95934629 476.42808104 C-162.10013221 473.18572089 -162.11656862 470.40634461 -162.06586456 466.64733887 C-162.07167833 465.90103745 -162.07749209 465.15473604 -162.08348203 464.38581944 C-162.09814608 461.87082112 -162.08416757 459.356789 -162.07043457 456.84179688 C-162.07504097 455.02627817 -162.08139212 453.21076318 -162.08934355 451.39525604 C-162.10609592 446.39522254 -162.09776374 441.39549305 -162.08539867 436.39545822 C-162.07637461 431.00751397 -162.09030474 425.61962319 -162.10131836 420.23168945 C-162.11913649 409.67234411 -162.11524894 399.11311228 -162.1036678 388.55376244 C-162.09464669 379.97455282 -162.09340374 371.3953751 -162.09776306 362.81616211 C-162.09837599 361.59670002 -162.09898893 360.37723792 -162.09962043 359.12082243 C-162.10089929 356.64377148 -162.10219614 354.16672054 -162.1035108 351.68966961 C-162.11492625 328.44383369 -162.10178776 305.1980608 -162.08030933 281.95223522 C-162.06243749 261.99156274 -162.06554133 242.0309833 -162.08398438 222.0703125 C-162.10537405 198.90958371 -162.11382752 175.7489102 -162.10153532 152.58817291 C-162.10026108 150.12006125 -162.0990036 147.65194957 -162.09776306 145.18383789 C-162.09714596 143.96937217 -162.09652886 142.75490645 -162.09589306 141.50363874 C-162.09243444 132.93136745 -162.0982795 124.35913112 -162.10768127 115.78686523 C-162.11888151 105.34494696 -162.11590287 94.90314901 -162.0945583 84.46124458 C-162.08402126 79.13015238 -162.07997114 73.79926104 -162.09315491 68.46817017 C-162.1050298 63.59273178 -162.09859764 58.71768141 -162.0772447 53.84227848 C-162.07275775 52.07383644 -162.07509147 50.30536195 -162.08474785 48.53694057 C-162.09682873 46.14170796 -162.08452311 43.74782218 -162.06586456 41.35266113 C-162.07522923 40.65840058 -162.08459389 39.96414003 -162.09424233 39.24884129 C-162.04179446 35.90387219 -161.7537699 34.24612407 -159.67502761 31.57122064 C-157.12404088 29.67389017 -155.83243347 29.50532496 -152.67767334 29.51898193 C-151.20536255 29.51073395 -151.20536255 29.51073395 -149.70330811 29.50231934 C-148.63300354 29.51670044 -147.56269897 29.53108154 -146.45996094 29.54589844 C-145.32796265 29.54531433 -144.19596436 29.54473022 -143.02966309 29.54412842 C-139.28508932 29.54691687 -135.54130985 29.57804648 -131.796875 29.609375 C-129.20184769 29.61683464 -126.60681474 29.62252888 -124.01177979 29.62652588 C-117.87771684 29.640242 -111.74398208 29.6717725 -105.61004281 29.71192384 C-98.62584278 29.7566475 -91.64162905 29.77863002 -84.65732145 29.79870558 C-70.29222772 29.84050565 -55.927374 29.91085393 -41.5625 30 C-41.58570313 29.1953833 -41.60890625 28.3907666 -41.6328125 27.56176758 C-41.65085937 26.49595459 -41.66890625 25.4301416 -41.6875 24.33203125 C-41.71070313 23.27991455 -41.73390625 22.22779785 -41.7578125 21.14379883 C-41.32002944 14.09713325 -37.75554069 8.77558065 -32.6875 4.0625 C-23.90268227 -3.41745987 -10.46364874 -4.75036814 0 0 Z M-23.5625 20 C-25.21745754 23.68604178 -25.5625 25.92821055 -25.5625 30 C-17.6425 30 -9.7225 30 -1.5625 30 C-2.5160354 21.44452572 -2.5160354 21.44452572 -7.5625 16 C-13.97172073 12.79538963 -19.0581898 15.06670787 -23.5625 20 Z M64.4375 20 C62.78254246 23.68604178 62.4375 25.92821055 62.4375 30 C70.3575 30 78.2775 30 86.4375 30 C85.4839646 21.44452572 85.4839646 21.44452572 80.4375 16 C74.02827927 12.79538963 68.9418102 15.06670787 64.4375 20 Z M152.4375 20 C150.78254246 23.68604178 150.4375 25.92821055 150.4375 30 C158.3575 30 166.2775 30 174.4375 30 C173.4839646 21.44452572 173.4839646 21.44452572 168.4375 16 C162.02827927 12.79538963 156.9418102 15.06670787 152.4375 20 Z " fill="#F6BF49" transform="translate(209.5625,18)"/>
<path d="M0 0 C6.89861217 4.11129412 12.23452023 10.22477727 14.4375 18 C14.4375 21.96 14.4375 25.92 14.4375 30 C24.9975 30 35.5575 30 46.4375 30 C46.4375 26.04 46.4375 22.08 46.4375 18 C49.74116319 9.22464465 54.30774664 3.60471348 62.70703125 -0.66015625 C70.53857595 -3.47295189 80.34799149 -3.47391797 88 0 C94.89861217 4.11129412 100.23452023 10.22477727 102.4375 18 C102.4375 21.96 102.4375 25.92 102.4375 30 C112.9975 30 123.5575 30 134.4375 30 C134.4375 26.04 134.4375 22.08 134.4375 18 C137.74116319 9.22464465 142.30774664 3.60471348 150.70703125 -0.66015625 C158.53857595 -3.47295189 168.34799149 -3.47391797 176 0 C182.89861217 4.11129412 188.23452023 10.22477727 190.4375 18 C190.5095472 20.07699367 190.52784106 22.15626995 190.50390625 24.234375 C190.48952515 25.85424316 190.48952515 25.85424316 190.47485352 27.50683594 C190.46252686 28.32958008 190.4502002 29.15232422 190.4375 30 C191.18030212 29.99111755 191.92310425 29.98223511 192.68841553 29.9730835 C199.69199905 29.89290256 206.69542335 29.83201814 213.69933701 29.79275131 C217.30008286 29.77188487 220.90044916 29.74358579 224.50097656 29.69824219 C227.97637913 29.65474875 231.45141688 29.63085579 234.92707062 29.62049103 C236.89695784 29.60951385 238.86669847 29.578293 240.83636475 29.54681396 C242.63777924 29.54636078 242.63777924 29.54636078 244.47558594 29.54589844 C245.53259705 29.53701599 246.58960815 29.52813354 247.6786499 29.51898193 C251.26905529 30.14498545 252.23183377 31.11752328 254.4375 34 C254.82987686 36.59302592 254.9758101 38.76193243 254.94086456 41.35266113 C254.94667833 42.09896255 254.95249209 42.84526396 254.95848203 43.61418056 C254.97314608 46.12917888 254.95916757 48.643211 254.94543457 51.15820312 C254.95004097 52.97372183 254.95639212 54.78923682 254.96434355 56.60474396 C254.98109592 61.60477746 254.97276374 66.60450695 254.96039867 71.60454178 C254.95137461 76.99248603 254.96530474 82.38037681 254.97631836 87.76831055 C254.99413649 98.32765589 254.99024894 108.88688772 254.9786678 119.44623756 C254.96964669 128.02544718 254.96840374 136.6046249 254.97276306 145.18383789 C254.97337599 146.40329998 254.97398893 147.62276208 254.97462043 148.87917757 C254.97589929 151.35622852 254.97719614 153.83327946 254.9785108 156.31033039 C254.98992625 179.55616631 254.97678776 202.8019392 254.95530933 226.04776478 C254.93743749 246.00843726 254.94054133 265.9690167 254.95898438 285.9296875 C254.98037405 309.09041629 254.98882752 332.2510898 254.97653532 355.41182709 C254.97526108 357.87993875 254.9740036 360.34805043 254.97276306 362.81616211 C254.97183741 364.63786069 254.97183741 364.63786069 254.97089306 366.49636126 C254.96743444 375.06863255 254.9732795 383.64086888 254.98268127 392.21313477 C254.99388151 402.65505304 254.99090287 413.09685099 254.9695583 423.53875542 C254.95902126 428.86984762 254.95497114 434.20073896 254.96815491 439.53182983 C254.9800298 444.40726822 254.97359764 449.28231859 254.9522447 454.15772152 C254.94775775 455.92616356 254.95009147 457.69463805 254.95974785 459.46305943 C254.97182873 461.85829204 254.95952311 464.25217782 254.94086456 466.64733887 C254.95022923 467.34159942 254.95959389 468.03585997 254.96924233 468.75115871 C254.91984324 471.90168587 254.58338921 473.77904126 252.83434629 476.42808104 C249.60593344 478.54536465 247.43750959 478.50133974 243.58459473 478.50336456 C242.89232127 478.50917833 242.20004782 478.51499209 241.48679638 478.52098203 C239.15556094 478.53563769 236.82536925 478.52167187 234.49414062 478.50793457 C232.81061513 478.51254131 231.12709365 478.5188927 229.44358063 478.52684355 C224.8083895 478.54359126 220.17352643 478.5352659 215.53833389 478.52289867 C210.54302969 478.51387269 205.5477831 478.5278057 200.55249023 478.53881836 C190.76317301 478.55663444 180.97397823 478.55274986 171.18465614 478.5411678 C163.23092262 478.53214588 155.27722349 478.53090409 147.32348633 478.53526306 C146.19283579 478.53587599 145.06218526 478.53648893 143.89727259 478.53712043 C141.60060564 478.53839929 139.3039387 478.53969614 137.00727177 478.5410108 C115.45535788 478.55242564 93.90351197 478.5392887 72.35160923 478.51780933 C53.84635126 478.49993754 35.34119365 478.5030414 16.8359375 478.52148438 C-4.63718571 478.54287511 -26.11024928 478.55132692 -47.58338165 478.53903532 C-49.87174987 478.53776108 -52.16011809 478.5365036 -54.44848633 478.53526306 C-56.13750761 478.53433741 -56.13750761 478.53433741 -57.86065054 478.53339306 C-65.80774965 478.52993476 -73.75481103 478.53577881 -81.7019043 478.54518127 C-91.3825918 478.55638269 -101.06314952 478.55340039 -110.7438221 478.5320583 C-115.68606843 478.52152283 -120.62809813 478.51746843 -125.57034302 478.53065491 C-130.09051125 478.54253312 -134.6102611 478.53609225 -139.13039112 478.5147447 C-140.76962779 478.51025915 -142.40889947 478.51258841 -144.04811382 478.52224785 C-146.26911662 478.5343364 -148.48866888 478.52201606 -150.70959473 478.50336456 C-151.94531471 478.50271515 -153.1810347 478.50206574 -154.45420074 478.50139666 C-157.5625 478 -157.5625 478 -159.95934629 476.42808104 C-162.10013221 473.18572089 -162.11656862 470.40634461 -162.06586456 466.64733887 C-162.07167833 465.90103745 -162.07749209 465.15473604 -162.08348203 464.38581944 C-162.09814608 461.87082112 -162.08416757 459.356789 -162.07043457 456.84179688 C-162.07504097 455.02627817 -162.08139212 453.21076318 -162.08934355 451.39525604 C-162.10609592 446.39522254 -162.09776374 441.39549305 -162.08539867 436.39545822 C-162.07637461 431.00751397 -162.09030474 425.61962319 -162.10131836 420.23168945 C-162.11913649 409.67234411 -162.11524894 399.11311228 -162.1036678 388.55376244 C-162.09464669 379.97455282 -162.09340374 371.3953751 -162.09776306 362.81616211 C-162.09837599 361.59670002 -162.09898893 360.37723792 -162.09962043 359.12082243 C-162.10089929 356.64377148 -162.10219614 354.16672054 -162.1035108 351.68966961 C-162.11492625 328.44383369 -162.10178776 305.1980608 -162.08030933 281.95223522 C-162.06243749 261.99156274 -162.06554133 242.0309833 -162.08398438 222.0703125 C-162.10537405 198.90958371 -162.11382752 175.7489102 -162.10153532 152.58817291 C-162.10026108 150.12006125 -162.0990036 147.65194957 -162.09776306 145.18383789 C-162.09714596 143.96937217 -162.09652886 142.75490645 -162.09589306 141.50363874 C-162.09243444 132.93136745 -162.0982795 124.35913112 -162.10768127 115.78686523 C-162.11888151 105.34494696 -162.11590287 94.90314901 -162.0945583 84.46124458 C-162.08402126 79.13015238 -162.07997114 73.79926104 -162.09315491 68.46817017 C-162.1050298 63.59273178 -162.09859764 58.71768141 -162.0772447 53.84227848 C-162.07275775 52.07383644 -162.07509147 50.30536195 -162.08474785 48.53694057 C-162.09682873 46.14170796 -162.08452311 43.74782218 -162.06586456 41.35266113 C-162.07522923 40.65840058 -162.08459389 39.96414003 -162.09424233 39.24884129 C-162.04179446 35.90387219 -161.7537699 34.24612407 -159.67502761 31.57122064 C-157.12404088 29.67389017 -155.83243347 29.50532496 -152.67767334 29.51898193 C-151.20536255 29.51073395 -151.20536255 29.51073395 -149.70330811 29.50231934 C-148.63300354 29.51670044 -147.56269897 29.53108154 -146.45996094 29.54589844 C-145.32796265 29.54531433 -144.19596436 29.54473022 -143.02966309 29.54412842 C-139.28508932 29.54691687 -135.54130985 29.57804648 -131.796875 29.609375 C-129.20184769 29.61683464 -126.60681474 29.62252888 -124.01177979 29.62652588 C-117.87771684 29.640242 -111.74398208 29.6717725 -105.61004281 29.71192384 C-98.62584278 29.7566475 -91.64162905 29.77863002 -84.65732145 29.79870558 C-70.29222772 29.84050565 -55.927374 29.91085393 -41.5625 30 C-41.58570313 29.1953833 -41.60890625 28.3907666 -41.6328125 27.56176758 C-41.65085937 26.49595459 -41.66890625 25.4301416 -41.6875 24.33203125 C-41.71070313 23.27991455 -41.73390625 22.22779785 -41.7578125 21.14379883 C-41.32002944 14.09713325 -37.75554069 8.77558065 -32.6875 4.0625 C-23.90268227 -3.41745987 -10.46364874 -4.75036814 0 0 Z M-23.5625 20 C-25.21745754 23.68604178 -25.5625 25.92821055 -25.5625 30 C-17.6425 30 -9.7225 30 -1.5625 30 C-2.5160354 21.44452572 -2.5160354 21.44452572 -7.5625 16 C-13.97172073 12.79538963 -19.0581898 15.06670787 -23.5625 20 Z M64.4375 20 C62.78254246 23.68604178 62.4375 25.92821055 62.4375 30 C70.3575 30 78.2775 30 86.4375 30 C85.4839646 21.44452572 85.4839646 21.44452572 80.4375 16 C74.02827927 12.79538963 68.9418102 15.06670787 64.4375 20 Z M152.4375 20 C150.78254246 23.68604178 150.4375 25.92821055 150.4375 30 C158.3575 30 166.2775 30 174.4375 30 C173.4839646 21.44452572 173.4839646 21.44452572 168.4375 16 C162.02827927 12.79538963 156.9418102 15.06670787 152.4375 20 Z M-81.5625 118 C-81.5625 231.52 -81.5625 345.04 -81.5625 462 C-7.6425 462 66.2775 462 142.4375 462 C142.9325 416.955 142.9325 416.955 143.4375 371 C165.86020675 348.57729325 206.7289185 366.34844595 238.4375 366 C238.4375 284.16 238.4375 202.32 238.4375 118 C132.8375 118 27.2375 118 -81.5625 118 Z " fill="#000000" transform="translate(209.5625,18)"/>
<path d="M0 0 C105.6 0 211.2 0 320 0 C320 81.84 320 163.68 320 248 C289.97 248.33 259.94 248.66 229 249 C206.57729325 271.42270675 224.34844595 312.2914185 224 344 C150.08 344 76.16 344 0 344 C0 230.48 0 116.96 0 0 Z M153.73495483 25.6993103 C150.90613358 31.08104186 151.38969539 36.41429126 151.51171875 42.39453125 C151.51879349 43.69702316 151.52586823 44.99951508 151.53315735 46.34147644 C151.55218487 49.79263884 151.60124561 53.24273739 151.65667725 56.69348145 C151.70796351 60.21933604 151.73069117 63.74536373 151.75585938 67.27148438 C151.80937102 74.18142469 151.89463028 81.09066117 152 88 C151.37069989 87.99539104 150.74139978 87.99078207 150.09302998 87.98603344 C134.77788535 87.8755921 119.46287931 87.79286217 104.14743519 87.74093914 C96.74096688 87.71516182 89.33476445 87.68002082 81.9284668 87.62280273 C75.47280804 87.5729527 69.01734184 87.54070554 62.56149596 87.52955753 C59.14333775 87.52304127 55.72573038 87.50773759 52.30774879 87.47134972 C48.49104547 87.4351422 44.67548954 87.43005152 40.85864258 87.43237305 C39.16039589 87.40540848 39.16039589 87.40540848 37.42784119 87.37789917 C35.86511978 87.38820915 35.86511978 87.38820915 34.27082825 87.39872742 C33.36839292 87.39411845 32.46595758 87.38950949 31.53617573 87.38476086 C27.74935727 88.30338764 26.31050516 89.89899564 24 93 C23.51127075 95.88235993 23.3304483 98.17072025 23.37854004 101.04650879 C23.37215122 101.8517129 23.3657624 102.65691701 23.35917997 103.48652124 C23.34392997 106.18227641 23.36439051 108.87656185 23.38476562 111.57226562 C23.38126442 113.50575752 23.37560586 115.43924653 23.36795044 117.37272644 C23.35369274 122.62278969 23.37077382 127.87232981 23.39423561 133.12234306 C23.41432954 138.6146412 23.40846581 144.10691731 23.40612793 149.59924316 C23.40618152 158.82292315 23.4259479 168.04639839 23.45800781 177.27001953 C23.49490123 187.9361304 23.5036835 198.60197302 23.4967103 209.26813936 C23.49040659 219.52561347 23.50115717 229.78299552 23.52067566 240.04045105 C23.52885367 244.40717378 23.53155846 248.77384948 23.52998352 253.14057922 C23.52910503 258.28210837 23.54331134 263.42338231 23.56921005 268.56484413 C23.57637653 270.45265274 23.57845317 272.3404885 23.57509232 274.22830772 C23.57138181 276.80364641 23.58610988 279.37823856 23.60559082 281.95349121 C23.60026289 282.70203322 23.59493497 283.45057523 23.58944559 284.22180033 C23.64721308 288.64272106 24.26899671 291.4852952 27 295 C29.30820508 296.15410254 30.60784276 296.1210297 33.17431641 296.11352539 C34.03505768 296.11344986 34.89579895 296.11337433 35.78262329 296.11329651 C36.71287323 296.10813522 37.64312317 296.10297394 38.6015625 296.09765625 C39.55316254 296.0962413 40.50476257 296.09482635 41.48519897 296.09336853 C44.53183097 296.08776012 47.57839013 296.07520619 50.625 296.0625 C52.68749894 296.05748608 54.74999903 296.05292299 56.8125 296.04882812 C61.87502817 296.03778796 66.93750173 296.02051767 72 296 C72 290.72 72 285.44 72 280 C61.44 280 50.88 280 40 280 C40 264.16 40 248.32 40 232 C55.84 232 71.68 232 88 232 C88 239.92 88 247.84 88 256 C93.28 256 98.56 256 104 256 C104 248.08 104 240.16 104 232 C110.27 232.33 116.54 232.66 123 233 C122.01 234.32 121.02 235.64 120 237 C119.44808762 239.75393013 119.03212552 242.40445694 118.6953125 245.18359375 C115.43630951 267.72928891 111.46402225 281.47059969 92.80078125 295.69116211 C92.20652344 296.12307861 91.61226563 296.55499512 91 297 C92.60535287 300.41059403 94.40518901 302.61792484 97.125 305.25 C97.84945312 305.95640625 98.57390625 306.6628125 99.3203125 307.390625 C99.87460938 307.92171875 100.42890625 308.4528125 101 309 C104.47247042 307.57691764 105.9127926 306.01030652 107.95703125 302.90234375 C113.20573441 295.87937143 118.49256619 289.48314453 127.58203125 288.10644531 C136.9764592 287.16706535 146.53608032 287.4120834 155.9473877 288.03286743 C161.56997399 288.32511972 164.41210434 287.3123591 168.59638882 283.57358074 C170.48634101 281.76032279 172.33513098 279.91213121 174.17700195 278.05004883 C174.87998917 277.34735367 175.58297638 276.64465851 176.30726624 275.92066956 C178.62237862 273.60416736 180.9303322 271.28066857 183.23828125 268.95703125 C184.84495598 267.34662517 186.45207376 265.73666099 188.05961609 264.12712097 C192.28411058 259.89499974 196.50256374 255.65690616 200.7197876 251.4175415 C205.02635651 247.0904936 209.33861091 242.76912003 213.65039062 238.44726562 C222.10583509 229.97038816 230.55490823 221.48719051 239 213 C241 214 243 215 245 216 C248.04831925 216.58063224 250.09935295 216.58702888 252.75 214.859375 C254.92872587 212.98930196 256.96255267 211.02397661 259 209 C260.0480008 207.97768384 261.09619042 206.95556122 262.14453125 205.93359375 C268.82449214 200.07514265 268.82449214 200.07514265 272.5 192.375 C271.33312573 184.4985987 262.04498599 177.91727802 256.5625 172.5 C255.83095703 171.77296875 255.09941406 171.0459375 254.34570312 170.296875 C252.56610176 168.52890501 250.78419082 166.76333622 249 165 C250.28174718 162.18121988 251.61007615 160.14758504 253.8203125 157.984375 C254.35527344 157.45585937 254.89023437 156.92734375 255.44140625 156.3828125 C256.27478516 155.57457031 256.27478516 155.57457031 257.125 154.75 C257.68832031 154.19570313 258.25164062 153.64140625 258.83203125 153.0703125 C260.21686028 151.70895515 261.60783204 150.35385141 263 149 C266.24095065 150.41920753 268.35835505 152.13308248 270.8203125 154.66015625 C271.87025391 155.7265332 271.87025391 155.7265332 272.94140625 156.81445312 C273.66199219 157.55630859 274.38257813 158.29816406 275.125 159.0625 C276.56287561 160.53473193 278.00287708 162.00489156 279.4453125 163.47265625 C280.07969238 164.12500244 280.71407227 164.77734863 281.36767578 165.44946289 C283.46703568 167.443635 284.76712939 167.95564369 287.625 168.5 C292.83455179 167.72821455 295.34705039 164.62879787 299 161 C300.0480008 159.97768384 301.09619042 158.95556122 302.14453125 157.93359375 C308.82449214 152.07514265 308.82449214 152.07514265 312.5 144.375 C311.73581005 139.21671786 308.58939755 136.60152389 305 133 C304.03753105 132.39818405 304.03753105 132.39818405 303.05561829 131.78421021 C299.76836058 129.36704359 297.45179566 127.03652282 296.54214096 122.93614578 C295.80250176 116.43615548 296.01223522 109.88901634 296.10546875 103.359375 C296.10556743 101.2280443 296.10170775 99.09671008 296.09407043 96.96539307 C296.0826506 91.37040702 296.11623982 85.77666204 296.1619873 80.18188477 C296.22865581 71.21385402 296.23106898 62.2457026 296.22530556 53.27747345 C296.23040865 50.14625137 296.25730563 47.01577689 296.28715515 43.88470459 C296.29379349 41.9696877 296.29991015 40.05466891 296.30541992 38.13964844 C296.32642509 36.83356628 296.32642509 36.83356628 296.34785461 35.50109863 C296.34241007 30.80856649 296.34241007 30.80856649 294.66841125 26.49127197 C291.59902472 23.74776967 288.54877074 23.86861257 284.62368774 23.84609985 C283.50770706 23.83749939 282.39172638 23.82889893 281.2419281 23.82003784 C280.01692093 23.81577789 278.79191376 23.81151794 277.52978516 23.80712891 C276.24015366 23.79895142 274.95052216 23.79077393 273.62181091 23.78234863 C269.34424929 23.75616033 265.06667802 23.74082685 260.7890625 23.7265625 C259.31599293 23.72120201 257.84292342 23.7158245 256.36985397 23.71043015 C250.24308686 23.68880847 244.11632235 23.67007099 237.98952675 23.65880775 C229.21027164 23.64256141 220.43145856 23.6093595 211.6523701 23.55240691 C205.47818481 23.51371826 199.30411783 23.49417653 193.12981451 23.48888719 C189.44234607 23.48523294 185.75534945 23.47320457 182.06801224 23.44078445 C177.95474142 23.40513621 173.84242244 23.40907182 169.72900391 23.41650391 C168.5080452 23.40009857 167.28708649 23.38369324 166.02912903 23.36679077 C161.30918937 23.40179614 157.95615866 23.50236209 153.73495483 25.6993103 Z " fill="#79B7F4" transform="translate(128,136)"/>
<path d="M0 0 C1.28992355 -0.00554901 2.57984711 -0.01109802 3.90885925 -0.01681519 C7.44006301 -0.03104557 10.97048642 -0.01401989 14.50161552 0.00946999 C18.20017049 0.02960069 21.89869375 0.02369828 25.59729004 0.0213623 C31.80799199 0.02141585 38.01838947 0.0411583 44.22900391 0.07324219 C51.40512854 0.11013413 58.5808544 0.11891753 65.75706148 0.11194468 C72.66570695 0.10563518 79.57421594 0.11640218 86.48283386 0.13591003 C89.42052661 0.14407593 92.35814952 0.14679508 95.29585266 0.1452179 C99.3992621 0.14417419 103.50214772 0.1683704 107.60546875 0.1953125 C109.43219368 0.1909166 109.43219368 0.1909166 111.29582214 0.18643188 C112.41455215 0.19778168 113.53328217 0.20913147 114.68591309 0.2208252 C115.65559776 0.22455391 116.62528244 0.22828262 117.6243515 0.23212433 C120.81111338 0.6879518 122.7085672 1.73792472 125.30273438 3.61523438 C126.54450958 6.09878479 126.42310118 7.7463106 126.41625977 10.52392578 C126.41618423 11.54483307 126.4161087 12.56574036 126.41603088 13.61758423 C126.4108696 14.7228244 126.40570831 15.82806458 126.40039062 16.96679688 C126.3982682 18.66054947 126.3982682 18.66054947 126.39610291 20.38851929 C126.39049181 24.00578426 126.3779374 27.62298802 126.36523438 31.24023438 C126.36022081 33.68815015 126.35565765 36.13606689 126.3515625 38.58398438 C126.34051877 44.59442474 126.32324666 50.60481917 126.30273438 56.61523438 C121.02273438 56.61523438 115.74273437 56.61523438 110.30273438 56.61523438 C110.30273438 43.41523438 110.30273438 30.21523437 110.30273438 16.61523438 C73.34273437 16.61523438 36.38273437 16.61523438 -1.69726562 16.61523438 C-1.69726562 32.45523438 -1.69726562 48.29523438 -1.69726562 64.61523438 C11.50273437 64.61523438 24.70273437 64.61523438 38.30273438 64.61523438 C38.30273438 69.89523438 38.30273438 75.17523438 38.30273438 80.61523438 C3.98273438 80.61523438 -30.33726562 80.61523438 -65.69726562 80.61523438 C-65.69726562 96.45523438 -65.69726562 112.29523438 -65.69726562 128.61523438 C-47.21726562 128.61523438 -28.73726562 128.61523438 -9.69726562 128.61523438 C-9.69726562 133.89523437 -9.69726562 139.17523438 -9.69726562 144.61523438 C-49.29726562 144.61523438 -88.89726562 144.61523438 -129.69726562 144.61523438 C-129.69726562 160.45523438 -129.69726562 176.29523438 -129.69726562 192.61523438 C-108.57726562 192.61523438 -87.45726562 192.61523438 -65.69726562 192.61523438 C-65.69726562 205.81523437 -65.69726562 219.01523437 -65.69726562 232.61523438 C-70.97726563 232.61523438 -76.25726563 232.61523438 -81.69726562 232.61523438 C-81.69726562 224.69523438 -81.69726562 216.77523437 -81.69726562 208.61523438 C-97.53726563 208.61523438 -113.37726563 208.61523438 -129.69726562 208.61523438 C-129.69726562 224.45523438 -129.69726562 240.29523438 -129.69726562 256.61523438 C-119.13726562 256.61523438 -108.57726562 256.61523438 -97.69726562 256.61523438 C-97.69726562 261.89523437 -97.69726562 267.17523438 -97.69726562 272.61523438 C-103.74785683 272.68940242 -109.79818328 272.74384525 -115.84912109 272.7800293 C-117.90743621 272.79511388 -119.9657192 272.81558425 -122.02392578 272.84155273 C-124.98282806 272.87795023 -127.9413053 272.89496404 -130.90039062 272.90820312 C-132.28028168 272.93142891 -132.28028168 272.93142891 -133.68804932 272.9551239 C-140.04283868 272.95679711 -140.04283868 272.95679711 -143.24707031 271.28442383 C-146.4007013 267.65456271 -145.84817665 263.33935318 -145.85116577 258.80923462 C-145.85554803 258.00573936 -145.85993028 257.2022441 -145.86444533 256.3744005 C-145.87783599 253.67293782 -145.88401273 250.97150777 -145.89013672 248.27001953 C-145.89803731 246.33682609 -145.90630623 244.40363413 -145.91491699 242.47044373 C-145.94113623 236.11507577 -145.95644185 229.75970122 -145.97070312 223.40429688 C-145.97606234 221.21801118 -145.98143984 219.03172552 -145.98683548 216.84543991 C-146.00846165 207.75398899 -146.02720009 198.66253985 -146.03845787 189.57106972 C-146.05470948 176.53184071 -146.08791976 163.4929091 -146.14485872 150.45379221 C-146.18351368 141.29024738 -146.20308514 132.12678226 -146.20837843 122.96315801 C-146.21203721 117.48723214 -146.22411487 112.01162348 -146.25648117 106.53578568 C-146.28648448 101.38603553 -146.29290127 96.23679583 -146.28109741 91.08697701 C-146.28087605 89.19591307 -146.28923295 87.30482596 -146.30675125 85.41384315 C-146.32935532 82.83367701 -146.3211898 80.25537568 -146.30526733 77.67520142 C-146.31914942 76.92529517 -146.33303151 76.17538892 -146.34733427 75.40275824 C-146.28906201 71.57560737 -145.79711079 69.74932889 -143.48869228 66.64906597 C-140.42889106 64.41969684 -139.15074072 63.99494084 -135.42643738 64.01396179 C-134.38462311 64.00708847 -133.34280884 64.00021515 -132.26942444 63.99313354 C-130.57117775 64.02009811 -130.57117775 64.02009811 -128.83862305 64.04760742 C-127.63820374 64.04687729 -126.43778442 64.04614716 -125.20098877 64.0453949 C-121.91790341 64.04827736 -118.63588975 64.07331519 -115.35301757 64.10826468 C-111.91909318 64.13956509 -108.48514672 64.14246179 -105.05110168 64.14839172 C-98.55223585 64.16391951 -92.05379159 64.20493297 -85.55511123 64.25513917 C-78.15495391 64.31106626 -70.75477624 64.3385275 -63.35446012 64.36361635 C-48.13515131 64.41585025 -32.91626287 64.50377114 -17.69726562 64.61523438 C-17.70836868 63.88718094 -17.71947174 63.1591275 -17.73091125 62.40901184 C-17.83121425 55.53827311 -17.90728169 48.66764419 -17.95632648 41.79636097 C-17.98238951 38.26390593 -18.01772428 34.73205724 -18.07446289 31.19995117 C-18.13932627 27.13649776 -18.16347294 23.07367839 -18.18554688 19.00976562 C-18.2113533 17.74501907 -18.23715973 16.48027252 -18.26374817 15.17720032 C-18.26646053 6.69622067 -18.26646053 6.69622067 -15.96032715 2.31652832 C-10.766877 -0.39123101 -5.77170518 -0.06285966 0 0 Z " fill="#000000" transform="translate(297.697265625,159.384765625)"/>
<path d="M0 0 C15.84 0 31.68 0 48 0 C48 113.52 48 227.04 48 344 C32.16 344 16.32 344 0 344 C0 230.48 0 116.96 0 0 Z " fill="#4E96ED" transform="translate(64,136)"/>
<path d="M0 0 C26.4 0 52.8 0 80 0 C80 10.56 80 21.12 80 32 C85.28 32 90.56 32 96 32 C96 21.44 96 10.88 96 0 C119.76 0 143.52 0 168 0 C168 10.56 168 21.12 168 32 C173.28 32 178.56 32 184 32 C184 21.44 184 10.88 184 0 C207.76 0 231.52 0 256 0 C256 10.56 256 21.12 256 32 C261.28 32 266.56 32 272 32 C272 21.44 272 10.88 272 0 C287.84 0 303.68 0 320 0 C320 18.48 320 36.96 320 56 C214.4 56 108.8 56 0 56 C0 37.52 0 19.04 0 0 Z " fill="#4E96ED" transform="translate(128,64)"/>
<path d="M0 0 C6.76754296 4.81482866 12.52556046 11.37985856 18.37109375 17.23828125 C19.34360956 18.21012184 20.31627364 19.18181408 21.28907776 20.15336609 C23.31014804 22.17297388 25.329428 24.19434967 27.34741211 26.21704102 C29.93538459 28.81075611 32.52788364 31.39989333 35.12170315 33.98775959 C37.12316918 35.98561979 39.12225709 37.98584582 41.12062263 39.98680687 C42.54020078 41.40737545 43.96179148 42.82593196 45.38340759 44.24446106 C46.23842361 45.10262924 47.09343964 45.96079742 47.97436523 46.8449707 C49.10732277 47.97912163 49.10732277 47.97912163 50.26316833 49.13618469 C52.34938905 51.37493366 52.92639792 52.61358906 53.5 55.625 C52.72821455 60.83455179 49.62879787 63.34705039 46 67 C44.97768384 68.0480008 43.95556122 69.09619042 42.93359375 70.14453125 C33.53132832 79.70831841 33.53132832 79.70831841 29.375 80.5 C24.1675903 79.7285319 21.64892105 76.63085708 18 73 C17.49500977 72.50193848 16.99001953 72.00387695 16.46972656 71.49072266 C12.95253467 68.02038501 9.46771952 64.51973531 6 61 C1.67495164 62.65863505 -1.09418825 65.871041 -4.25 69.125 C-5.08144531 69.96998047 -5.08144531 69.96998047 -5.9296875 70.83203125 C-7.29104485 72.21686028 -8.64614859 73.60783204 -10 75 C-8.46728453 78.65031725 -6.27846123 80.93939751 -3.46484375 83.6953125 C-2.57345703 84.57574219 -1.68207031 85.45617187 -0.76367188 86.36328125 C0.16896484 87.27464844 1.10160156 88.18601562 2.0625 89.125 C3.90972167 90.93789615 5.75488421 92.75289358 7.59765625 94.5703125 C8.41758057 95.37227051 9.23750488 96.17422852 10.08227539 97.00048828 C12.30524378 99.31826182 12.90063338 100.47832525 13.5 103.625 C12.72821455 108.83455179 9.62879787 111.34705039 6 115 C4.97768384 116.0480008 3.95556122 117.09619042 2.93359375 118.14453125 C-6.63908531 127.88165959 -6.63908531 127.88165959 -10.875 128.25 C-14.29533822 127.97637294 -15.52307741 127.28639008 -18 125 C-20.89903946 126.31163524 -22.95759383 127.71156334 -25.19422913 129.96717834 C-25.8012114 130.57430161 -26.40819366 131.18142487 -27.03356934 131.8069458 C-27.68772827 132.47143738 -28.34188721 133.13592896 -29.01586914 133.82055664 C-29.71389145 134.52149948 -30.41191376 135.22244232 -31.13108826 135.94462585 C-32.64472862 137.46587255 -34.15605411 138.98942526 -35.66533089 140.5150013 C-38.05192771 142.92710697 -40.44470152 145.33292522 -42.83921814 147.73716736 C-47.91924658 152.84005995 -52.99141346 157.95072318 -58.0625 163.0625 C-63.94141387 168.98855054 -69.8234716 174.91140537 -75.71401787 180.82589531 C-78.07517408 183.20005031 -80.43024353 185.58013386 -82.78517151 187.96046448 C-84.22766069 189.41021631 -85.67043005 190.85968943 -87.11352539 192.30883789 C-87.76970856 192.9753537 -88.42589172 193.64186951 -89.10195923 194.32858276 C-89.70612167 194.9328862 -90.31028412 195.53718964 -90.93275452 196.1598053 C-91.45574662 196.68723863 -91.97873873 197.21467196 -92.51757908 197.75808811 C-95.71355771 200.43554888 -98.83184828 199.99622628 -102.77490234 199.75518799 C-124.07672209 197.78665716 -124.07672209 197.78665716 -143.03125 205.515625 C-147.96905525 210.19103684 -152.22191873 215.34993062 -156 221 C-159.41059403 219.39464713 -161.61792484 217.59481099 -164.25 214.875 C-164.95640625 214.15054688 -165.6628125 213.42609375 -166.390625 212.6796875 C-167.18726563 211.84824219 -167.18726563 211.84824219 -168 211 C-166.57244027 207.55076514 -164.94012898 205.98316554 -161.9296875 203.82421875 C-147.12212198 192.05617836 -144.06355762 180.6817447 -141.49560547 162.61010742 C-141.37069733 161.77542938 -141.24578918 160.94075134 -141.11709595 160.08078003 C-140.89098895 158.51350139 -140.692219 156.94190671 -140.52767944 155.36697388 C-139.62847453 148.8351896 -136.58176303 145.55781146 -132 141 C-130.96472965 139.9456287 -129.93041559 138.89031798 -128.89682007 137.83430481 C-125.06325645 133.93570763 -121.19005889 130.07744523 -117.31640625 126.21875 C-115.89129587 124.79550756 -114.46640824 123.37204206 -113.04173279 121.94836426 C-109.31382991 118.22425698 -105.58293244 114.50316416 -101.85137939 110.78271484 C-98.0351557 106.97676924 -94.22180483 103.16794755 -90.40820312 99.359375 C-82.94159322 91.90345019 -75.471813 84.45071037 -68 77 C-69.30951023 74.14844969 -70.44462544 72.51302928 -72.625 70.125 C-75 67 -75 67 -75.75 64.125 C-74.5709402 59.21225082 -71.50149272 56.52479716 -68 53 C-66.97768384 51.9519992 -65.95556122 50.90380958 -64.93359375 49.85546875 C-55.53132832 40.29168159 -55.53132832 40.29168159 -51.375 39.5 C-43.4985987 40.66687427 -36.91727802 49.95501401 -31.5 55.4375 C-30.77296875 56.16904297 -30.0459375 56.90058594 -29.296875 57.65429688 C-27.52890501 59.43389824 -25.76333622 61.21580918 -24 63 C-21.18121988 61.71825282 -19.14758504 60.38992385 -16.984375 58.1796875 C-16.45585937 57.64472656 -15.92734375 57.10976563 -15.3828125 56.55859375 C-14.84398437 56.00300781 -14.30515625 55.44742188 -13.75 54.875 C-13.19570313 54.31167969 -12.64140625 53.74835938 -12.0703125 53.16796875 C-10.70895515 51.78313972 -9.35385141 50.39216796 -8 49 C-9.41920753 45.75904935 -11.13308248 43.64164495 -13.66015625 41.1796875 C-14.37107422 40.47972656 -15.08199219 39.77976562 -15.81445312 39.05859375 C-16.55630859 38.33800781 -17.29816406 37.61742187 -18.0625 36.875 C-19.53473193 35.43712439 -21.00489156 33.99712292 -22.47265625 32.5546875 C-23.12500244 31.92030762 -23.77734863 31.28592773 -24.44946289 30.63232422 C-26.443635 28.53296432 -26.95564369 27.23287061 -27.5 24.375 C-26.72821455 19.16544821 -23.62879787 16.65294961 -20 13 C-18.97768384 11.9519992 -17.95556122 10.90380958 -16.93359375 9.85546875 C-6.32356971 -0.93682514 -6.32356971 -0.93682514 0 0 Z " fill="#030302" transform="translate(387,224)"/>
<path d="M0 0 C5.28 0 10.56 0 16 0 C16 81.84 16 163.68 16 248 C10.72 248 5.44 248 0 248 C0 166.16 0 84.32 0 0 Z " fill="#000000" transform="translate(80,216)"/>
<path d="M0 0 C3.24095065 1.41920753 5.35835505 3.13308248 7.8203125 5.66015625 C8.52027344 6.37107422 9.22023438 7.08199219 9.94140625 7.81445312 C10.66199219 8.55630859 11.38257813 9.29816406 12.125 10.0625 C13.56287561 11.53473193 15.00287708 13.00489156 16.4453125 14.47265625 C17.07969238 15.12500244 17.71407227 15.77734863 18.36767578 16.44946289 C20.60388113 18.57362385 21.70587383 18.97385545 24.8125 19.25 C28.38289746 18.96996883 30.03699009 17.9116193 33 16 C33.06958568 23.99740886 33.12285447 31.99469069 33.15543652 39.99232769 C33.17107623 43.70617574 33.19228309 47.41981628 33.22631836 51.13354492 C33.25897295 54.71916041 33.27686576 58.30457662 33.28463173 61.89032936 C33.29016435 63.25665231 33.30096836 64.62296465 33.31719017 65.9892025 C33.33904275 67.90634857 33.34022607 69.82369622 33.34057617 71.7409668 C33.35056892 73.37644722 33.35056892 73.37644722 33.36076355 75.04496765 C32.94701737 78.43398336 32.07041471 80.30195937 30 83 C26.54428603 84.15190466 23.87950974 84.12007093 20.23364258 84.11352539 C19.55045456 84.11367142 18.86726654 84.11381744 18.16337585 84.1139679 C15.90706193 84.11327169 13.65083074 84.10549296 11.39453125 84.09765625 C9.82940211 84.09579103 8.26427239 84.09436762 6.69914246 84.09336853 C2.58096707 84.08955152 -1.53717302 84.07972818 -5.65533447 84.06866455 C-9.85810875 84.05843291 -14.06088873 84.05386715 -18.26367188 84.04882812 C-26.50913078 84.03810519 -34.754561 84.02103854 -43 84 C-36.74442981 76.61438461 -36.74442981 76.61438461 -33.5703125 73.47265625 C-33.003125 72.90869141 -32.4359375 72.34472656 -31.8515625 71.76367188 C-31.28179687 71.20228516 -30.71203125 70.64089844 -30.125 70.0625 C-29.23554688 69.17981445 -29.23554688 69.17981445 -28.328125 68.27929688 C-26.88773534 66.85052326 -25.4442033 65.42491868 -24 64 C-21 65.5 -21 65.5 -18 67 C-14.92098643 67.58647877 -12.88090593 67.58020281 -10.21484375 65.82421875 C-8.0513067 63.96277722 -6.02534762 62.01156974 -4 60 C-3.02630016 59.05181781 -2.05232646 58.10391679 -1.078125 57.15625 C5.14284651 51.64795648 5.14284651 51.64795648 8.5 44.375 C7.33312573 36.4985987 -1.95501401 29.91727802 -7.4375 24.5 C-8.53481445 23.40945313 -8.53481445 23.40945313 -9.65429688 22.296875 C-11.43389824 20.52890501 -13.21580918 18.76333622 -15 17 C-13.67879172 14.06769807 -12.25361803 12.01335101 -9.9609375 9.765625 C-9.38085938 9.19199219 -8.80078125 8.61835938 -8.203125 8.02734375 C-7.59984375 7.44082031 -6.9965625 6.85429687 -6.375 6.25 C-5.76398438 5.64800781 -5.15296875 5.04601562 -4.5234375 4.42578125 C-3.02011376 2.94594695 -1.51065144 1.47235324 0 0 Z " fill="#F6DEA0" transform="translate(391,284)"/>
<path d="M0 0 C15.84 0 31.68 0 48 0 C48 18.48 48 36.96 48 56 C32.16 56 16.32 56 0 56 C0 37.52 0 19.04 0 0 Z " fill="#407DE6" transform="translate(64,64)"/>
<path d="M0 0 C0 22.44 0 44.88 0 68 C-22.44 68 -44.88 68 -68 68 C-64.01264575 63.34808671 -60.05778968 58.91240598 -55.73510742 54.60571289 C-55.14086975 54.0097229 -54.54663208 53.41373291 -53.93438721 52.79968262 C-51.99390092 50.85483861 -50.04983234 48.91362332 -48.10546875 46.97265625 C-46.74865861 45.61517186 -45.3919969 44.25753911 -44.03547668 42.89976501 C-41.20536679 40.06818687 -38.37347085 37.23841064 -35.5402832 34.40991211 C-31.90055409 30.7759126 -28.26537666 27.13739805 -24.63149548 23.49755192 C-21.83760037 20.70005548 -19.04134311 17.90492998 -16.24434853 15.11053276 C-14.90191461 13.76876761 -13.56022778 12.4262546 -12.21928978 11.08299446 C-10.35456721 9.21574888 -8.48669832 7.35171057 -6.61791992 5.48852539 C-6.06054642 4.92912766 -5.50317291 4.36972992 -4.9289093 3.79338074 C-1.11426905 0 -1.11426905 0 0 0 Z " fill="#4D95EC" transform="translate(448,412)"/>
<path d="M0 0 C22.44 0 44.88 0 68 0 C64.01264575 4.65191329 60.05778968 9.08759402 55.73510742 13.39428711 C55.14086975 13.9902771 54.54663208 14.58626709 53.93438721 15.20031738 C51.99390092 17.14516139 50.04983234 19.08637668 48.10546875 21.02734375 C46.74865861 22.38482814 45.3919969 23.74246089 44.03547668 25.10023499 C41.20536679 27.93181313 38.37347085 30.76158936 35.5402832 33.59008789 C31.90055409 37.2240874 28.26537666 40.86260195 24.63149548 44.50244808 C21.83760037 47.29994452 19.04134311 50.09507002 16.24434853 52.88946724 C14.90191461 54.23123239 13.56022778 55.5737454 12.21928978 56.91700554 C10.35456721 58.78425112 8.48669832 60.64828943 6.61791992 62.51147461 C6.06054642 63.07087234 5.50317291 63.63027008 4.9289093 64.20661926 C1.11426905 68 1.11426905 68 0 68 C0 45.56 0 23.12 0 0 Z " fill="#C3E8FE" transform="translate(368,400)"/>
<path d="M0 0 C15.84 0 31.68 0 48 0 C48 15.84 48 31.68 48 48 C32.16 48 16.32 48 0 48 C0 32.16 0 16.32 0 0 Z " fill="#F7C04A" transform="translate(168,368)"/>
<path d="M0 0 C15.84 0 31.68 0 48 0 C48 15.84 48 31.68 48 48 C32.16 48 16.32 48 0 48 C0 32.16 0 16.32 0 0 Z " fill="#F7C04A" transform="translate(168,240)"/>
<path d="M0 0 C6.6 0 13.2 0 20 0 C19.01 1.65 18.02 3.3 17 5 C16.44728743 7.79455606 16.01388221 10.49852319 15.66015625 13.31640625 C12.8909458 32.21540529 10.42030399 48.44107776 -5.43359375 60.91796875 C-13.82896316 66.27681076 -22.53315716 65.71087521 -32 64 C-32 58.72 -32 53.44 -32 48 C-26.72 48 -21.44 48 -16 48 C-16 40.08 -16 32.16 -16 24 C-10.72 24 -5.44 24 0 24 C0 16.08 0 8.16 0 0 Z " fill="#F6DEA0" transform="translate(232,368)"/>
<path d="M0 0 C3.76603869 1.56282982 6.13639151 3.9063475 8.984375 6.7890625 C9.44483215 7.25234955 9.90528931 7.7156366 10.37969971 8.19296265 C11.84125078 9.66565898 13.29567168 11.14517403 14.75 12.625 C15.74302611 13.62806322 16.73651089 14.63067257 17.73046875 15.6328125 C20.15897941 18.08330835 22.58114675 20.5399667 25 23 C23.67879172 25.93230193 22.25361803 27.98664899 19.9609375 30.234375 C19.38085938 30.80800781 18.80078125 31.38164062 18.203125 31.97265625 C17.59984375 32.55917969 16.9965625 33.14570313 16.375 33.75 C15.76398438 34.35199219 15.15296875 34.95398438 14.5234375 35.57421875 C13.02011376 37.05405305 11.51065144 38.52764676 10 40 C6.23396131 38.43717018 3.86360849 36.0936525 1.015625 33.2109375 C0.55516785 32.74765045 0.09471069 32.2843634 -0.37969971 31.80703735 C-1.84125078 30.33434102 -3.29567168 28.85482597 -4.75 27.375 C-5.74302611 26.37193678 -6.73651089 25.36932743 -7.73046875 24.3671875 C-10.15897941 21.91669165 -12.58114675 19.4600333 -15 17 C-13.67879172 14.06769807 -12.25361803 12.01335101 -9.9609375 9.765625 C-9.38085938 9.19199219 -8.80078125 8.61835938 -8.203125 8.02734375 C-7.59984375 7.44082031 -6.9965625 6.85429687 -6.375 6.25 C-5.76398438 5.64800781 -5.15296875 5.04601562 -4.5234375 4.42578125 C-3.02011376 2.94594695 -1.51065144 1.47235324 0 0 Z " fill="#E2E7F0" transform="translate(331,312)"/>
<path d="M0 0 C9.24 0 18.48 0 28 0 C28 15.84 28 31.68 28 48 C18.43 48 8.86 48 -1 48 C1.83311804 45.16688196 4.66637239 42.33604812 7.515625 39.51953125 C8.76045512 38.28389291 10.00524615 37.04821518 11.25 35.8125 C11.88679688 35.18408203 12.52359375 34.55566406 13.1796875 33.90820312 C14.08847656 33.00424805 14.08847656 33.00424805 15.015625 32.08203125 C15.56508789 31.53780518 16.11455078 30.9935791 16.68066406 30.43286133 C18.51614434 28.4394428 18.99003159 27.05233415 19.5 24.375 C18.32971814 16.47559744 9.44801895 10.36405125 3.91308594 4.94873047 C2.59125161 3.65003455 1.29321799 2.32719416 0 1 C0 0.67 0 0.34 0 0 Z " fill="#F6BF49" transform="translate(380,304)"/>
<path d="M0 0 C5.28 0 10.56 0 16 0 C16 14.52 16 29.04 16 44 C8.12501793 37.25001537 8.12501793 37.25001537 5.66674805 34.78027344 C5.11315109 34.22660095 4.55955414 33.67292847 3.98918152 33.10247803 C3.4191188 32.52725403 2.84905609 31.95203003 2.26171875 31.359375 C1.65487747 30.75111877 1.04803619 30.14286255 0.42280579 29.51617432 C-1.49135197 27.59647892 -3.40198225 25.67331733 -5.3125 23.75 C-6.61239647 22.44507962 -7.9125247 21.14039006 -9.21289062 19.8359375 C-11.58126676 17.4594284 -13.94838271 15.08168142 -16.3137207 12.70214844 C-17.8738459 11.13280683 -19.43525981 9.56474019 -21 8 C-14.07 8 -7.14 8 0 8 C0 5.36 0 2.72 0 0 Z " fill="#F6DE9F" transform="translate(408,216)"/>
<path d="M0 0 C2.36443755 2.27743532 3.82020334 4.31668834 5.3125 7.25 C9.76809287 15.40756914 15.07355691 20.19129119 23 25 C21.6415798 28.04332765 20.11536976 30.12309151 17.7421875 32.453125 C17.11699219 33.071875 16.49179687 33.690625 15.84765625 34.328125 C15.19667969 34.96234375 14.54570312 35.5965625 13.875 36.25 C12.88693359 37.22453125 12.88693359 37.22453125 11.87890625 38.21875 C10.25703357 39.81711727 8.6306719 41.41061897 7 43 C2.76580059 38.9478316 -0.89932984 34.56947808 -4.5625 30 C-5.12646484 29.30132812 -5.69042969 28.60265625 -6.27148438 27.8828125 C-9.19102975 24.26325917 -12.09760395 20.6333173 -15 17 C-13.67879172 14.06769807 -12.25361803 12.01335101 -9.9609375 9.765625 C-9.38085938 9.19199219 -8.80078125 8.61835938 -8.203125 8.02734375 C-7.59984375 7.44082031 -6.9965625 6.85429687 -6.375 6.25 C-5.76398438 5.64800781 -5.15296875 5.04601562 -4.5234375 4.42578125 C-3.02011376 2.94594695 -1.51065144 1.47235324 0 0 Z " fill="#E96243" transform="translate(282,361)"/>
<path d="M0 0 C6.6 0 13.2 0 20 0 C19.01 1.65 18.02 3.3 17 5 C16.35116248 7.00253006 16.35116248 7.00253006 16.05200195 9.02075195 C15.91788406 9.77536209 15.78376617 10.52997223 15.64558411 11.30744934 C15.51117416 12.10962387 15.37676422 12.9117984 15.23828125 13.73828125 C14.92118922 15.46312409 14.60278822 17.18772672 14.28320312 18.91210938 C13.79362357 21.60883798 13.31358615 24.30607561 12.85668945 27.00854492 C9.74949096 45.18457549 9.74949096 45.18457549 2.69604492 50.94213867 C1 52 1 52 0 52 C0 34.84 0 17.68 0 0 Z " fill="#78B6F2" transform="translate(232,368)"/>
<path d="M0 0 C14.85 0 29.7 0 45 0 C43.35 1.65 41.7 3.3 40 5 C39.38125 5.95519531 38.7625 6.91039062 38.125 7.89453125 C35.43042866 11.59461359 33.27761134 14.19880782 29 16 C19.44723587 17.42503648 9.59570409 16.62293423 0 16 C0 10.72 0 5.44 0 0 Z " fill="#F6DEA0" transform="translate(336,224)"/>
<path d="M0 0 C3.76603869 1.56282982 6.13639151 3.9063475 8.984375 6.7890625 C9.44483215 7.25234955 9.90528931 7.7156366 10.37969971 8.19296265 C11.84125078 9.66565898 13.29567168 11.14517403 14.75 12.625 C15.74302611 13.62806322 16.73651089 14.63067257 17.73046875 15.6328125 C20.15897941 18.08330835 22.58114675 20.5399667 25 23 C23.39464713 26.41059403 21.59481099 28.61792484 18.875 31.25 C18.15054687 31.95640625 17.42609375 32.6628125 16.6796875 33.390625 C16.12539063 33.92171875 15.57109375 34.4528125 15 35 C7.57943183 32.94474059 1.9915714 28.20739721 -2.4609375 21.9453125 C-3.5046861 19.99122677 -4.28059426 18.09391279 -5 16 C-5.30292969 15.25621094 -5.60585938 14.51242187 -5.91796875 13.74609375 C-6.730481 11.30855699 -7.18800914 9.56792973 -7 7 C-5.06055295 4.14076098 -2.74173436 2.07970582 0 0 Z " fill="#A3B9E0" transform="translate(303,340)"/>
<path d="M0 0 C11.88 0 23.76 0 36 0 C34.02 2.31 32.04 4.62 30 7 C29.40058594 7.87527344 28.80117188 8.75054687 28.18359375 9.65234375 C25.45150195 13.22790013 23.14099084 15.65591219 18.5390625 16.39550781 C12.33696425 16.78422475 6.19013371 16.4579003 0 16 C0 10.72 0 5.44 0 0 Z " fill="#F6DEA0" transform="translate(232,352)"/>
<path d="M0 0 C7.92 0 15.84 0 24 0 C24.99 1.98 25.98 3.96 27 6 C29.56197123 8.81356892 29.56197123 8.81356892 32 11 C30.125 14.875 30.125 14.875 29 16 C26.85441173 16.08775605 24.70595579 16.10695219 22.55859375 16.09765625 C21.25341797 16.09443359 19.94824219 16.09121094 18.60351562 16.08789062 C17.2148431 16.07953401 15.82617123 16.07106905 14.4375 16.0625 C13.04492344 16.05748666 11.65234519 16.05292347 10.25976562 16.04882812 C6.83982549 16.03699442 3.4199075 16.01905831 0 16 C0 10.72 0 5.44 0 0 Z " fill="#F6DEA0" transform="translate(288,288)"/>
<path d="M0 0 C3.40353022 1.47122616 5.61255749 3.36942513 8.21777344 5.99072266 C9.03832214 6.81142242 9.85887085 7.63212219 10.70428467 8.47769165 C11.58046448 9.36419403 12.45664429 10.25069641 13.359375 11.1640625 C14.26375305 12.07127045 15.1681311 12.97847839 16.09991455 13.91317749 C18.49796458 16.31884419 20.88994618 18.73045736 23.28070068 21.14337158 C25.72385171 23.60702344 28.17271206 26.06498577 30.62109375 28.5234375 C35.41933788 33.34373573 40.21182732 38.16969843 45 43 C44.34 44.32 43.68 45.64 43 47 C39 47 39 47 36.92449951 45.40551758 C35.81863495 44.28632935 35.81863495 44.28632935 34.69042969 43.14453125 C33.84986023 42.30365967 33.00929077 41.46278809 32.14324951 40.59643555 C31.24519592 39.67773682 30.34714233 38.75903809 29.421875 37.8125 C28.4953009 36.88026611 27.56872681 35.94803223 26.61407471 34.98754883 C24.15234825 32.51055916 21.70286984 30.02179297 19.2557373 27.53039551 C16.75589362 24.98961397 14.24466991 22.46013618 11.734375 19.9296875 C6.81170925 14.96413889 1.90188846 9.98605825 -3 5 C-1.125 1.125 -1.125 1.125 0 0 Z " fill="#C7D5EA" transform="translate(335,284)"/>
<path d="M0 0 C7.92 0 15.84 0 24 0 C24 5.28 24 10.56 24 16 C16.08 16 8.16 16 0 16 C0 10.72 0 5.44 0 0 Z " fill="#000000" transform="translate(232,184)"/>
<path d="M0 0 C7.92 0 15.84 0 24 0 C24 5.28 24 10.56 24 16 C16.08 16 8.16 16 0 16 C0 10.72 0 5.44 0 0 Z " fill="#000000" transform="translate(176,184)"/>
<path d="M0 0 C3.04581486 1.36113013 5.13839026 2.89330096 7.48339844 5.25634766 C8.14378113 5.91688141 8.80416382 6.57741516 9.48455811 7.25796509 C10.18574768 7.96947723 10.88693726 8.68098938 11.609375 9.4140625 C12.69958954 10.50852188 12.69958954 10.50852188 13.81182861 11.62509155 C16.12929198 13.9537388 18.4396995 16.28924826 20.75 18.625 C22.32115444 20.20618653 23.89276371 21.78692125 25.46484375 23.3671875 C29.31518653 27.2395669 33.15976117 31.11760171 37 35 C36.34 36.32 35.68 37.64 35 39 C31 39 31 39 29.22821045 37.70922852 C28.63308655 37.10522217 28.03796265 36.50121582 27.42480469 35.87890625 C26.74440125 35.19820068 26.0639978 34.51749512 25.36297607 33.81616211 C24.63991272 33.07245361 23.91684937 32.32874512 23.171875 31.5625 C22.42286926 30.80783447 21.67386353 30.05316895 20.90216064 29.27563477 C18.50857548 26.85963296 16.12925767 24.43010471 13.75 22 C12.13112811 20.36107014 10.51134739 18.72303744 8.890625 17.0859375 C4.91647335 13.06764823 0.9539529 9.03816081 -3 5 C-1.125 1.125 -1.125 1.125 0 0 Z " fill="#C7D5EA" transform="translate(383,244)"/>
<path d="M0 0 C5.28 0 10.56 0 16 0 C16 5.28 16 10.56 16 16 C10.72 16 5.44 16 0 16 C0 10.72 0 5.44 0 0 Z " fill="#000000" transform="translate(80,184)"/>
<path d="M0 0 C5.12314706 3.4656583 7.74308855 7.84953537 11 13 C6.71 13 2.42 13 -2 13 C-1.125 3.375 -1.125 3.375 0 0 Z " fill="#D23C2C" transform="translate(260,395)"/>
<path d="M0 0 C4 2 4 2 6 4 C4.845 4.00902344 3.69 4.01804687 2.5 4.02734375 C-3.27895713 4.74971339 -6.21850734 8.43894389 -10 12.5625 C-10.67933594 13.27341797 -11.35867188 13.98433594 -12.05859375 14.71679688 C-13.72278374 16.4630244 -15.36838646 18.22338955 -17 20 C-17.66 19.67 -18.32 19.34 -19 19 C-12.73 12.73 -6.46 6.46 0 0 Z " fill="#F0D99D" transform="translate(367,348)"/>
<path d="M0 0 C3.875 1.75 3.875 1.75 5 4 C3.97777344 4.03996094 2.95554687 4.07992188 1.90234375 4.12109375 C-2.90071036 4.80724434 -5.28097993 7.59706077 -8.4375 11.0625 C-8.97826172 11.63033203 -9.51902344 12.19816406 -10.07617188 12.78320312 C-11.39826737 14.17549838 -12.70115676 15.5859884 -14 17 C-14 14 -14 14 -12.71484375 12.37426758 C-12.12832031 11.80345459 -11.54179687 11.2326416 -10.9375 10.64453125 C-10.30585938 10.02255859 -9.67421875 9.40058594 -9.0234375 8.75976562 C-8.35570312 8.11716797 -7.68796875 7.47457031 -7 6.8125 C-6.33226562 6.15830078 -5.66453125 5.50410156 -4.9765625 4.83007812 C-3.32421559 3.21313865 -1.66528399 1.60359509 0 0 Z " fill="#F0D99C" transform="translate(391,284)"/>
<path d="M0 0 C2.46800047 1.15173355 4.04783565 2.04783565 6 4 C3.03 4 0.06 4 -3 4 C-2.01 2.68 -1.02 1.36 0 0 Z " fill="#F1BB48" transform="translate(367,348)"/>
<path d="M0 0 C3.875 1.75 3.875 1.75 5 4 C2.36 4 -0.28 4 -3 4 C-2.01 2.68 -1.02 1.36 0 0 Z " fill="#F2BC48" transform="translate(391,284)"/>
</svg>
