<?xml version="1.0" encoding="UTF-8"?>
<svg version="1.1" xmlns="http://www.w3.org/2000/svg" width="512" height="512">
<path d="M0 0 C1.42055186 -0.00389404 2.84109982 -0.00953532 4.26163858 -0.0167709 C8.16070968 -0.03152877 12.05937707 -0.02134257 15.95843518 -0.00703418 C20.16502885 0.0040698 24.37156562 -0.00786504 28.57815552 -0.01687622 C36.81679165 -0.03081425 45.05527458 -0.02324854 53.29390342 -0.00820064 C62.88546016 0.0086522 72.47697866 0.00545015 82.06854563 0.00170528 C99.1801224 -0.00417425 116.2916256 0.01000235 133.40318298 0.03465271 C150.01291155 0.05857751 166.62254184 0.06565563 183.23228455 0.05516052 C201.31446876 0.04375553 219.39660751 0.04181579 237.47879118 0.05625862 C239.40625504 0.05778448 241.33371891 0.05930484 243.26118279 0.06081963 C244.20956323 0.06157744 245.15794368 0.06233525 246.13506292 0.06311603 C252.82334616 0.0678618 259.51160911 0.06600537 266.19989204 0.06175423 C274.34814236 0.05683154 282.49629969 0.06279427 290.64452869 0.08264852 C294.80310671 0.09253128 298.96154302 0.09761505 303.12012863 0.08975601 C306.92534517 0.08271181 310.73027547 0.08947403 314.53545421 0.10735964 C316.56748557 0.11333543 318.59954368 0.10456624 320.63156277 0.09531313 C321.8361059 0.10375307 323.04064902 0.11219301 324.28169346 0.12088871 C325.32153277 0.12191784 326.36137208 0.12294697 327.43272167 0.12400728 C331.98389043 0.73280093 335.16574141 2.96440734 338.00254822 6.50120544 C344.05685094 14.57360908 341.22387429 25.92674818 339.94004822 35.31370544 C339.82242126 36.20879822 339.70479431 37.10389099 339.58360291 38.02610779 C338.81362743 43.30861218 337.70185195 47.74111902 335.25254822 52.50120544 C332.63074733 54.38562484 331.51910897 54.50120544 328.25254822 54.50120544 C327.47180333 57.22480396 326.72799608 59.95036365 326.00254822 62.68870544 C325.66610291 63.84209412 325.66610291 63.84209412 325.32286072 65.01878357 C324.75252281 67.23359579 324.3044877 69.21304561 324.25254822 71.50120544 C326.09834744 74.14179437 326.09834744 74.14179437 328.25254822 76.50120544 C329.23530722 82.83110202 326.85537831 87.72676042 324.31504822 93.37620544 C323.90971863 94.30094666 323.50438904 95.22568787 323.08677673 96.17845154 C320.51298407 101.95842324 317.71615615 107.57172212 314.69004822 113.12620544 C301.47266511 137.40209414 291.28012417 165.4569217 293.25254822 193.50120544 C293.33375916 194.81862732 293.41497009 196.13604919 293.49864197 197.49339294 C296.36357991 235.2392613 310.43610397 272.44914663 323.44908142 307.6728363 C334.34548816 337.17620332 343.77997253 366.85596546 349.06504822 397.93870544 C349.26009949 399.0854071 349.45515076 400.23210876 349.65611267 401.41355896 C352.596627 419.78950358 353.6043054 438.04408748 353.56822205 456.64305115 C353.56502241 460.09152264 353.58877692 463.53916478 353.61387634 466.98753357 C353.61614666 469.22255855 353.61685408 471.45758579 353.61582947 473.69261169 C353.62503922 474.70223465 353.63424896 475.7118576 353.64373779 476.7520752 C353.57811172 486.99711758 352.10062041 496.60857187 345.29161072 504.59104919 C339.62158869 509.90262155 333.22657795 512.62099649 325.50772762 512.63821983 C324.3026666 512.64329438 323.09760557 512.64836892 321.85602754 512.65359724 C320.5118777 512.65419892 319.1677278 512.654698 317.82357788 512.65510559 C316.40093349 512.65912002 314.97829025 512.66355821 313.55564839 512.66838515 C309.63678885 512.68035889 305.71794163 512.68600096 301.79906738 512.6905663 C297.57597728 512.69651944 293.35290193 512.70813008 289.12982178 512.71885681 C278.92552722 512.74338859 268.72122777 512.7580097 258.51691279 512.77091688 C255.63490706 512.77462844 252.75290182 512.7786017 249.87089658 512.78266954 C231.97589647 512.80790718 214.0808956 512.82996139 196.18588161 512.84239769 C192.04005366 512.84532742 187.89422572 512.84828907 183.74839783 512.8513031 C182.71796472 512.85204915 181.68753162 512.8527952 180.62587328 512.85356386 C163.93619621 512.86621548 147.24662573 512.89943536 130.55699848 512.94110493 C113.42360649 512.98353188 96.29026904 513.00709366 79.15682465 513.01231825 C69.53645779 513.01573165 59.91625746 513.02747836 50.29594231 513.06042099 C42.10200092 513.08843318 33.90826018 513.09941573 25.71427464 513.08822553 C21.5347296 513.08304173 17.35560466 513.08590718 13.17612076 513.11069107 C9.34572249 513.13321489 5.51604532 513.13242005 1.68563414 513.1134872 C-0.34785451 513.10937255 -2.38134774 513.12980979 -4.41472727 513.15127409 C-13.23854056 513.07501833 -20.13956803 511.61723355 -26.85314375 505.62027967 C-39.08375171 493.13206353 -36.96013341 474.45073968 -36.93495178 458.25120544 C-36.9340152 457.46541107 -36.93307861 456.6796167 -36.93211365 455.87001038 C-36.79008439 400.47090393 -22.69947135 349.67662419 -3.12245178 298.31370544 C6.55424929 272.91736706 14.64034306 247.12431405 20.25254822 220.50120544 C20.42898865 219.68651794 20.60542908 218.87183044 20.78721619 218.03245544 C28.57549295 180.98217947 20.14890744 145.1357341 2.06114197 112.50901794 C-13.5247045 84.36535456 -23.74021527 50.62805299 -24.24745178 18.31370544 C-24.26598206 17.60182068 -24.28451233 16.88993591 -24.30360413 16.15647888 C-24.24165954 11.154757 -22.9610996 8.28795379 -19.74745178 4.50120544 C-13.98464606 -0.89378508 -7.54889131 -0.05502977 0 0 Z " fill="#020101" transform="translate(103.74745178222656,-0.5012054443359375)"/>
<path d="M0 0 C32.41997095 -0.23128989 64.27735373 0.4096383 96.52832031 4.04150391 C97.6159668 4.16283691 98.70361328 4.28416992 99.82421875 4.40917969 C114.49539247 6.07105929 129.01006361 8.36029651 143.52832031 11.04150391 C143.35703613 11.64510742 143.18575195 12.24871094 143.00927734 12.87060547 C142.21735494 15.67575397 141.43532147 18.48357416 140.65332031 21.29150391 C140.24919922 22.71462891 140.24919922 22.71462891 139.83691406 24.16650391 C136.70209519 35.48243544 135.20719541 46.171578 135.34082031 57.91650391 C135.34146484 58.98513672 135.34210938 60.05376953 135.34277344 61.15478516 C135.55356165 100.17402624 148.61110472 137.2352987 161.81982422 173.51879883 C162.06844711 174.2056778 162.31707001 174.89255676 162.57322693 175.60025024 C163.24487617 177.45213605 163.92287025 179.30171722 164.60131836 181.15112305 C165.52832031 184.04150391 165.52832031 184.04150391 165.52832031 187.04150391 C153.78715642 190.17881895 141.78747331 191.78393726 129.78271484 193.55566406 C126.50531127 194.04493886 123.23176301 194.55578556 119.95800781 195.06884766 C86.1758491 200.27604359 52.24185319 202.25254304 18.09082031 202.22900391 C17.00056549 202.229729 15.91031067 202.2304541 14.78701782 202.23120117 C-2.8178321 202.22992162 -20.3428492 201.68484394 -37.91352844 200.61247253 C-40.75680493 200.44259801 -43.60063853 200.28879289 -46.44537354 200.14550781 C-47.80957665 200.07548757 -49.17348638 199.99952699 -50.53704834 199.91796875 C-52.48661439 199.80797253 -54.43823199 199.73636666 -56.38964844 199.66650391 C-58.04710083 199.59302734 -58.04710083 199.59302734 -59.73803711 199.51806641 C-62.70964067 199.7681516 -62.70964067 199.7681516 -64.35180664 202.56494141 C-64.72136475 203.38220703 -65.09092285 204.19947266 -65.47167969 205.04150391 C-68.69107308 204.81396783 -71.90781881 204.57269791 -75.12402344 204.30322266 C-77.00902214 204.15585403 -78.89766061 204.03360207 -80.78808594 203.99853516 C-82.59667969 203.91650391 -82.59667969 203.91650391 -85.47167969 203.04150391 C-86.15230469 201.33994141 -86.15230469 201.33994141 -86.84667969 199.60400391 C-87.38292969 198.42837891 -87.91917969 197.25275391 -88.47167969 196.04150391 C-91.51727607 195.15320496 -94.35254795 194.55504197 -97.47167969 194.04150391 C-98.60557129 193.84758057 -99.73946289 193.65365723 -100.90771484 193.45385742 C-105.47523494 192.68706697 -110.0469899 191.948101 -114.62060547 191.21875 C-116.5949832 190.90286874 -118.5684985 190.58161202 -120.54199219 190.26025391 C-121.7048877 190.07398438 -122.8677832 189.88771484 -124.06591797 189.69580078 C-127.62943263 189.01119725 -130.99966567 188.08736452 -134.47167969 187.04150391 C-132.79938596 180.9509129 -130.77802507 175.02094049 -128.58105469 169.10400391 C-128.31400726 168.3839769 -128.04695984 167.66394989 -127.77182007 166.92210388 C-127.21067379 165.40963979 -126.6495059 163.89718371 -126.08831787 162.38473511 C-120.64835148 147.67606057 -115.91133205 133.02079811 -112.15991211 117.77905273 C-111.44360387 114.9298281 -110.67319705 112.09948783 -109.88964844 109.26806641 C-101.79324438 79.78864968 -100.81762178 49.74848783 -109.52685547 20.36401367 C-109.79095215 19.4583667 -110.05504883 18.55271973 -110.32714844 17.61962891 C-110.69296021 16.40388184 -110.69296021 16.40388184 -111.06616211 15.16357422 C-111.47167969 13.04150391 -111.47167969 13.04150391 -110.47167969 10.04150391 C-76.62182142 4.41814433 -42.11030138 0.21989534 -7.77233887 0.05328369 C-5.1815156 0.04001821 -2.59077965 0.02002346 0 0 Z " fill="#FEEFDB" transform="translate(246.4716796875,125.95849609375)"/>
<path d="M0 0 C110.22 0 220.44 0 334 0 C334 12.26388889 334 12.26388889 333 18.6875 C331.79424018 26.33223492 331.79424018 26.33223492 332 34 C334.33830958 36.5404226 334.33830958 36.5404226 337 38 C334.84671533 51.7810219 334.84671533 51.7810219 332 57 C330.75476563 57.16113281 329.50953125 57.32226562 328.2265625 57.48828125 C325.18770576 58.14376792 324.24618692 58.64579228 322.44482422 61.23754883 C320.98846632 64.32474335 319.7211485 67.43740761 318.5 70.625 C317.5642877 72.90751909 316.62547958 75.18877149 315.68359375 77.46875 C315.00466064 79.14324219 315.00466064 79.14324219 314.31201172 80.8515625 C312.56838847 85.03573917 310.62176603 89.08864058 308.5625 93.125 C308.25699219 93.73166504 307.95148438 94.33833008 307.63671875 94.96337891 C305.5522071 99.0528495 303.29882272 103.02884691 301 107 C293.93599372 107.24724496 287.48264854 106.54947346 280.5625 105.1875 C268.67368756 103.0049428 256.78765399 101.52987363 244.75830078 100.37207031 C242.26020757 100.12476006 239.76367026 99.86117381 237.26904297 99.58105469 C214.43308006 97.02610291 191.60255725 96.67746382 168.64768219 96.63119125 C166.29696853 96.62512128 163.9463299 96.61388692 161.59564209 96.60147095 C139.56275156 96.50011621 117.91059653 97.71404321 96 100 C94.02029109 100.1973833 92.04048475 100.39379392 90.06054688 100.58886719 C86.13335966 100.98055828 82.20912466 101.39383938 78.28613281 101.82543945 C76.0402489 102.07179658 73.79361943 102.31045751 71.546875 102.54882812 C64.17406008 103.34338965 56.86687008 104.30079016 49.56005859 105.58276367 C46.11806353 106.14373731 42.73117064 106.41612976 39.25 106.625 C37.46335937 106.73714844 37.46335937 106.73714844 35.640625 106.8515625 C34.76921875 106.90054688 33.8978125 106.94953125 33 107 C30.70086672 102.45811546 28.42600917 97.90498259 26.16748047 93.34277344 C25.06468791 91.1298087 23.94158639 88.9282005 22.81640625 86.7265625 C18.00727996 77.14057871 14.13962045 67.31217897 10.625 57.1875 C10.20814941 55.99616455 9.79129883 54.8048291 9.36181641 53.57739258 C5.43278757 41.98331381 2.99650965 30.23514588 1.3125 18.125 C1.18294922 17.25359375 1.05339844 16.3821875 0.91992188 15.484375 C0.73719727 14.19660156 0.73719727 14.19660156 0.55078125 12.8828125 C0.44419189 12.13402832 0.33760254 11.38524414 0.2277832 10.61376953 C-0.07944414 7.08839341 0 3.53873783 0 0 Z " fill="#F94853" transform="translate(95,15)"/>
<path d="M0 0 C1.823525 0.24467261 3.63631399 0.56976156 5.44140625 0.92578125 C6.57545898 1.14468018 7.70951172 1.3635791 8.87792969 1.58911133 C10.09383789 1.82782959 11.30974609 2.06654785 12.5625 2.3125 C27.70122203 5.20476591 27.70122203 5.20476591 43 7 C44.21171875 7.11730469 45.4234375 7.23460937 46.671875 7.35546875 C50.18372742 7.37524076 50.18372742 7.37524076 52.04296875 4.4921875 C52.68878906 3.66976563 53.33460938 2.84734375 54 2 C56.98828125 1.6953125 56.98828125 1.6953125 60.3125 2.125 C61.4571875 2.26035156 62.601875 2.39570313 63.78125 2.53515625 C65.37453125 2.76525391 65.37453125 2.76525391 67 3 C68.19109375 3.15275391 68.19109375 3.15275391 69.40625 3.30859375 C70.94119071 3.51304282 72.47162238 3.75119434 74 4 C74.2475 4.94875 74.495 5.8975 74.75 6.875 C75.66433014 9.9980657 75.66433014 9.9980657 77.68261719 11.15795898 C80.61121009 12.22208845 83.21599827 12.41245306 86.328125 12.59765625 C87.58874756 12.6764502 88.84937012 12.75524414 90.14819336 12.83642578 C91.51542875 12.91238903 92.8826988 12.98773058 94.25 13.0625 C95.67523243 13.14531261 97.10044386 13.22848745 98.52563477 13.31201172 C101.38217483 13.47714017 104.23897461 13.63561434 107.09619141 13.78857422 C110.29822651 13.96199276 113.4985466 14.15131397 116.69921875 14.34765625 C177.03053492 17.7375622 237.23820813 12.87053806 296.63183594 2.16821289 C301.50882241 1.30995977 306.04717984 0.81731401 311 1 C319.09531304 20.74765757 329 45.4302328 329 67 C328.10917725 67.10546143 327.21835449 67.21092285 326.30053711 67.31958008 C322.91712437 67.72305013 319.53444812 68.13192711 316.15209961 68.54418945 C314.70280666 68.71977902 313.25326879 68.89336155 311.8034668 69.06469727 C301.74647444 70.25505978 291.90495282 71.8803506 282 74 C280.58858266 74.28405791 279.17713346 74.56795771 277.765625 74.8515625 C240.96577625 82.94752922 206.41139959 99.2887725 174.953125 119.73828125 C174.12619141 120.27533691 173.29925781 120.81239258 172.44726562 121.36572266 C170.78837785 122.47352341 169.15178131 123.61531169 167.53710938 124.78662109 C166.75658203 125.34559082 165.97605469 125.90456055 165.171875 126.48046875 C164.14465332 127.24266724 164.14465332 127.24266724 163.09667969 128.02026367 C160.26543005 129.34324979 158.93945781 128.97803317 156 128 C153.60668945 126.66821289 153.60668945 126.66821289 151.11328125 124.97265625 C150.18394775 124.35011963 149.25461426 123.72758301 148.29711914 123.08618164 C147.31219482 122.4183667 146.32727051 121.75055176 145.3125 121.0625 C135.45535797 114.50944527 125.48445255 108.48702835 115 103 C114.00226563 102.4733374 114.00226563 102.4733374 112.984375 101.93603516 C102.94227914 96.66541742 92.63485968 92.1335256 82.13037109 87.86669922 C80.29739416 87.12098891 78.47035302 86.36071797 76.64453125 85.59765625 C60.74876783 79.16120871 44.15198314 75.36539952 27.30444336 72.43701172 C25.17061729 72.03235565 23.0928259 71.52537609 20.98828125 70.9921875 C13.61075554 69.31496199 5.96330035 68.98922379 -1.5625 68.375 C-3.15955255 68.24014283 -4.75655835 68.10473081 -6.35351562 67.96875 C-10.2351674 67.63943077 -14.11737557 67.31763744 -18 67 C-18.16686006 59.92391784 -16.79598544 53.77675477 -15.125 46.9375 C-14.82126465 45.68356445 -14.5175293 44.42962891 -14.20458984 43.13769531 C-11.78276291 33.3628958 -8.83276791 23.79318921 -5.625 14.25 C-5.40249573 13.58749237 -5.17999146 12.92498474 -4.95074463 12.24240112 C-1.23153118 1.23153118 -1.23153118 1.23153118 0 0 Z " fill="#F94853" transform="translate(107,327)"/>
<path d="M0 0 C5.87740224 -0.08794837 11.48646051 0.15285711 17.3046875 0.953125 C18.06143768 1.05289642 18.81818787 1.15266785 19.59786987 1.25546265 C22.02477543 1.57878676 24.45000666 1.91264658 26.875 2.25 C27.70890259 2.36559265 28.54280518 2.4811853 29.40197754 2.60028076 C34.93883628 3.37250374 40.47086933 4.17434066 46 5 C47.50771973 5.22381348 47.50771973 5.22381348 49.04589844 5.45214844 C85.97068861 11.24513947 123.76920383 28.62709736 154.578125 49.2265625 C157.9802723 51.46638389 161.29416341 53.09124735 165.14746094 54.40380859 C168.50296677 56.20685086 171.0339679 57.71505596 173 61 C173.73571189 65.79566971 173.54599592 70.50642075 173.36328125 75.34375 C173.33705688 76.6544043 173.31083252 77.96505859 173.28381348 79.31542969 C173.21542366 82.5451939 173.11992057 85.77180576 173 89 C151.45995469 89.0934387 129.9199428 89.16397697 108.37973595 89.20724869 C98.37825114 89.22787448 88.37689226 89.25599545 78.37548828 89.30175781 C69.65832518 89.341625 60.94125327 89.36743269 52.22400153 89.37635398 C47.60818736 89.38156892 42.99263409 89.39382631 38.37690353 89.42292023 C34.03160049 89.45008746 29.68666561 89.45844237 25.34128571 89.45243073 C23.74735386 89.45353038 22.1534096 89.46147664 20.55955124 89.4768219 C18.38042698 89.49677132 16.2026864 89.49192253 14.02352905 89.48101807 C12.19561357 89.48654882 12.19561357 89.48654882 10.33077049 89.49219131 C5.75133161 88.81548301 2.50909353 86.82472458 -0.44473267 83.25309753 C-3.34831178 77.44520208 -3.55244212 72.22152656 -3.4609375 65.80078125 C-3.46002106 64.72990768 -3.45910461 63.65903412 -3.4581604 62.55570984 C-3.45213668 60.29059413 -3.43642787 58.02548593 -3.41162109 55.76049805 C-3.3755896 52.36801254 -3.3705993 48.97663957 -3.37109375 45.58398438 C-3.26934279 14.48087692 -3.26934279 14.48087692 0 0 Z " fill="#FEEFDB" transform="translate(86,408)"/>
<path d="M0 0 C2.17388889 17.45278171 3.30924991 34.72139815 3.3125 52.3125 C3.31572266 53.17157959 3.31894531 54.03065918 3.32226562 54.91577148 C3.37528628 77.99963839 3.37528628 77.99963839 -1.375 84 C-5.90250427 87.44952707 -8.6986535 88.24968266 -14.44134521 88.24050903 C-15.08588063 88.24221788 -15.73041605 88.24392673 -16.39448285 88.24568737 C-18.55183904 88.24897876 -20.70888345 88.2379846 -22.86621094 88.22705078 C-24.41357923 88.22648659 -25.96094806 88.22680338 -27.50831604 88.22793579 C-31.70840531 88.22851 -35.90838052 88.21674468 -40.10844326 88.20278788 C-44.49800985 88.19029187 -48.88757901 88.18911091 -53.27716064 88.18673706 C-61.5891802 88.18051897 -69.90114719 88.16410369 -78.21314359 88.14403808 C-87.67616863 88.12168932 -97.13919618 88.11068822 -106.60224104 88.10064721 C-126.0681905 88.07973776 -145.53409103 88.04455538 -165 88 C-165.3016173 83.51320009 -165.48330332 79.0290183 -165.64453125 74.53515625 C-165.73093872 73.27143188 -165.81734619 72.00770752 -165.90637207 70.70568848 C-166.15583535 61.43019033 -166.15583535 61.43019033 -162.77969742 57.25267506 C-160.17449167 55.06842682 -157.59061778 53.20154877 -154.6875 51.4375 C-154.06962994 51.05622546 -153.45175987 50.67495092 -152.81516647 50.28212261 C-151.35073704 49.45697711 -149.82436822 48.74452638 -148.296875 48.04296875 C-143.59221462 45.79072262 -139.14677863 43.3610127 -134.70605469 40.63085938 C-109.75812313 25.44516191 -82.79744581 14.21815136 -54.375 7.55664062 C-52.34981788 7.08198857 -50.33045638 6.58261409 -48.3125 6.078125 C-32.40768891 2.18144628 -16.37243409 -0.08941256 0 0 Z " fill="#FEEFDB" transform="translate(439,409)"/>
<path d="M0 0 C9.52149445 0.52296087 18.67490566 2.1184137 28 4 C27.82871582 4.60360352 27.65743164 5.20720703 27.48095703 5.82910156 C26.68903463 8.63425007 25.90700116 11.44207025 25.125 14.25 C24.85558594 15.19875 24.58617187 16.1475 24.30859375 17.125 C21.17377488 28.44093153 19.67887509 39.13007409 19.8125 50.875 C19.81314453 51.94363281 19.81378906 53.01226562 19.81445312 54.11328125 C20.02524134 93.13252233 33.08278441 130.19379479 46.29150391 166.47729492 C46.5401268 167.16417389 46.78874969 167.85105286 47.04490662 168.55874634 C47.71655586 170.41063215 48.39454994 172.26021331 49.07299805 174.10961914 C50 177 50 177 50 180 C48.12705987 180.46667944 46.25145952 180.92267921 44.375 181.375 C43.33085937 181.63023437 42.28671875 181.88546875 41.2109375 182.1484375 C35.20983712 183.47244423 29.08501561 184.1743203 23 185 C20.5572215 178.16060685 18.12300091 171.3182077 15.6940918 164.47387695 C14.87076034 162.15680757 14.04563081 159.84037614 13.21850586 157.5246582 C-5.37213063 105.45957475 -20.06173669 54.03863543 0 0 Z " fill="#FDE2BE" transform="translate(362,133)"/>
<path d="M0 0 C9.57 0 19.14 0 29 0 C29 12.26388889 29 12.26388889 28 18.6875 C26.79424018 26.33223492 26.79424018 26.33223492 27 34 C29.33830958 36.5404226 29.33830958 36.5404226 32 38 C29.84671533 51.7810219 29.84671533 51.7810219 27 57 C25.75476563 57.16113281 24.50953125 57.32226562 23.2265625 57.48828125 C20.18770576 58.14376792 19.24618692 58.64579228 17.44482422 61.23754883 C15.98846632 64.32474335 14.7211485 67.43740761 13.5 70.625 C12.5642877 72.90751909 11.62547958 75.18877149 10.68359375 77.46875 C10.23097168 78.58507812 9.77834961 79.70140625 9.31201172 80.8515625 C7.56838847 85.03573917 5.62176603 89.08864058 3.5625 93.125 C3.25699219 93.73166504 2.95148438 94.33833008 2.63671875 94.96337891 C0.5522071 99.0528495 -1.70117728 103.02884691 -4 107 C-13.86943894 107.48538224 -23.3113851 105.67113686 -33 104 C-31.515 103.505 -31.515 103.505 -30 103 C-29.25800737 101.02670545 -28.60150432 99.02055364 -28 97 C-27.17614344 95.21170097 -26.31675949 93.43941573 -25.42578125 91.68359375 C-18.78634427 78.37687699 -13.18811825 65.2697147 -9 51 C-8.79971191 50.34451172 -8.59942383 49.68902344 -8.39306641 49.01367188 C-5.92423747 40.90886532 -4.29916585 32.70597688 -2.8125 24.375 C-2.64532471 23.44510254 -2.47814941 22.51520508 -2.3059082 21.55712891 C-1.07373131 14.31896255 -0.5692027 7.39963513 0 0 Z " fill="#F82A3B" transform="translate(400,15)"/>
<path d="M0 0 C2.17388889 17.45278171 3.30924991 34.72139815 3.3125 52.3125 C3.31572266 53.17157959 3.31894531 54.03065918 3.32226562 54.91577148 C3.37528628 77.99963839 3.37528628 77.99963839 -1.375 84 C-5.6147721 87.23030255 -8.27224986 88.25242287 -13.640625 88.1953125 C-14.71054687 88.18886719 -15.78046875 88.18242187 -16.8828125 88.17578125 C-18.54957031 88.15064453 -18.54957031 88.15064453 -20.25 88.125 C-21.93996094 88.11146484 -21.93996094 88.11146484 -23.6640625 88.09765625 C-26.44292365 88.07410658 -29.2213539 88.0412168 -32 88 C-31.57428459 87.2366761 -31.57428459 87.2366761 -31.13996887 86.45793152 C-27.78969403 79.83961774 -27.45619092 74.19509412 -27.57421875 66.86328125 C-27.57750687 65.70741013 -27.58079498 64.551539 -27.58418274 63.36064148 C-27.59984273 59.67753904 -27.64373411 55.9953636 -27.6875 52.3125 C-27.69900879 49.88998161 -27.70878877 47.46745436 -27.71679688 45.04492188 C-27.79087031 30.67577018 -28.21907246 16.34759349 -29 2 C-26.80419914 1.75258582 -24.60839205 1.5052304 -22.41253662 1.25830078 C-20.73972602 1.06941275 -19.06726652 0.8774081 -17.39501953 0.68359375 C-11.57631675 0.0506073 -5.85058365 -0.11230126 0 0 Z " fill="#FCE1BE" transform="translate(439,409)"/>
<path d="M0 0 C2.19843906 1.91703886 3.99124478 3.6893113 5.875 5.875 C6.39022217 6.45781738 6.90544434 7.04063477 7.4362793 7.64111328 C8.97971005 9.40977291 10.49359983 11.19975385 12 13 C12.44327637 13.52078125 12.88655273 14.0415625 13.34326172 14.578125 C20.02137399 22.53012708 20.02137399 22.53012708 19.94921875 27.4921875 C18.90046295 31.36783651 17.64213052 33.25925503 15 36.25 C14.19433594 37.18070313 13.38867188 38.11140625 12.55859375 39.0703125 C11.71425781 40.03710938 10.86992188 41.00390625 10 42 C8.33780469 44.02880916 6.70261627 46.07817743 5.0625 48.125 C0.47589425 53.83601175 0.47589425 53.83601175 -3.8125 54.3125 C-7.8794044 53.91378388 -9.35296205 53.11416229 -12 50 C-12.84158416 44.78217822 -12.84158416 44.78217822 -12 42 C-10.42168479 39.91998302 -8.70227205 37.98220875 -7 36 C-7.69046921 35.99635437 -8.38093842 35.99270874 -9.09233093 35.98895264 C-16.27893734 35.94714191 -23.46490426 35.87780555 -30.65112305 35.79248047 C-33.33310425 35.76204491 -36.01489752 35.74136468 -38.69702148 35.72900391 C-42.55235559 35.70759728 -46.40668486 35.66095492 -50.26171875 35.609375 C-52.06040657 35.60753204 -52.06040657 35.60753204 -53.89543152 35.60565186 C-62.19865968 35.45956822 -62.19865968 35.45956822 -66.23364258 33.14550781 C-68.53748987 30.3471374 -69 28.61896692 -69 25 C-66.86956522 20.43478261 -66.86956522 20.43478261 -64 19 C-62.1514292 18.90898388 -60.29953621 18.88246854 -58.44873047 18.88647461 C-57.28767792 18.88655014 -56.12662537 18.88662567 -54.9303894 18.88670349 C-53.67203278 18.89186478 -52.41367615 18.89702606 -51.1171875 18.90234375 C-49.83264679 18.9037587 -48.54810608 18.90517365 -47.22463989 18.90663147 C-43.80843158 18.91045089 -40.39226574 18.92027627 -36.97607422 18.93133545 C-33.49056574 18.94156193 -30.0050504 18.94613174 -26.51953125 18.95117188 C-19.67967005 18.96189904 -12.83983706 18.97896858 -6 19 C-6.63989868 18.19900879 -6.63989868 18.19900879 -7.29272461 17.38183594 C-7.84452393 16.67317383 -8.39632324 15.96451172 -8.96484375 15.234375 C-9.51519287 14.53538086 -10.06554199 13.83638672 -10.63256836 13.11621094 C-12.67663455 9.95285336 -12.63161685 7.64934181 -12 4 C-9.11056721 -1.22849743 -5.5010284 -1.6084088 0 0 Z " fill="#000000" transform="translate(85,141)"/>
<path d="M0 0 C8.09531304 19.74765757 18 44.4302328 18 66 C8.43 66.99 -1.14 67.98 -11 69 C-11.845625 64.71 -12.69125 60.42 -13.5625 56 C-16.12655358 43.34043384 -19.38597121 31.03576098 -23.19287109 18.69042969 C-24.55428386 14.15238714 -25.77913986 9.57753531 -27 5 C-28.32 4.67 -29.64 4.34 -31 4 C-27.14744143 3.3238128 -23.29273043 2.66076908 -19.4375 2 C-18.35146484 1.80921875 -17.26542969 1.6184375 -16.14648438 1.421875 C-10.69086726 0.49325932 -5.53547904 -0.25413964 0 0 Z " fill="#F6293A" transform="translate(418,328)"/>
<path d="M0 0 C2.63357152 2.28242865 2.96679422 3.8081444 3.5625 7.25 C2.97858991 11.14273394 2.31554762 12.24876429 -0.03515625 15.234375 C-0.58695557 15.94303711 -1.13875488 16.65169922 -1.70727539 17.38183594 C-2.34717407 18.18282715 -2.34717407 18.18282715 -3 19 C-2.09251007 18.99000725 -2.09251007 18.99000725 -1.16668701 18.97981262 C5.1272653 18.91346761 11.42111836 18.86820284 17.71533203 18.83520508 C20.06465693 18.8201141 22.41395363 18.79963908 24.76318359 18.77368164 C28.13906815 18.7373128 31.51458037 18.72027662 34.890625 18.70703125 C35.94179504 18.69154739 36.99296509 18.67606354 38.07598877 18.66011047 C39.05670349 18.65988388 40.03741821 18.65965729 41.04785156 18.65942383 C42.3402475 18.64943108 42.3402475 18.64943108 43.65875244 18.63923645 C46.54428387 19.08386887 47.8946067 20.00376286 50 22 C51.17407634 25.60050078 51.32759676 27.27928713 49.75 30.75 C47.74874602 33.32304084 46.16734886 34.84845449 42.85493469 35.2784729 C42.02664658 35.29179657 41.19835846 35.30512024 40.3449707 35.31884766 C39.40422195 35.33871735 38.46347321 35.35858704 37.49421692 35.37905884 C36.48163315 35.39061005 35.46904938 35.40216125 34.42578125 35.4140625 C32.86732735 35.44311172 32.86732735 35.44311172 31.27738953 35.4727478 C27.95584344 35.53257299 24.63426276 35.57894104 21.3125 35.625 C19.06183376 35.66317705 16.81118218 35.70222861 14.56054688 35.7421875 C9.04049456 35.83827689 3.52035414 35.92331581 -2 36 C-1.18789063 36.91652344 -0.37578125 37.83304688 0.4609375 38.77734375 C2.68598757 41.28847168 3.00737293 42.04202573 3.625 45.5625 C2.82760832 49.94815425 1.60142761 51.41636715 -2 54 C-5 54.625 -5 54.625 -8 54 C-9.72791804 52.39692333 -11.38705595 50.71871087 -13 49 C-14.22009766 47.70642578 -14.22009766 47.70642578 -15.46484375 46.38671875 C-28.44595329 32.21618685 -28.44595329 32.21618685 -29.75 27 C-28.60428961 22.41715845 -26.0234526 19.56376542 -23 16 C-22.08544688 14.90144993 -21.17142297 13.80245916 -20.2578125 12.703125 C-7.85980373 -2.12869684 -7.85980373 -2.12869684 0 0 Z " fill="#000000" transform="translate(445,141)"/>
<path d="M0 0 C3.80302918 1.29202011 5.80557478 4.15832085 8.18457031 7.26220703 C8.69737549 7.899729 9.21018066 8.53725098 9.73852539 9.1940918 C10.74568735 10.45292417 11.74355349 11.71926292 12.73095703 12.99365234 C13.83178977 14.40721706 14.97385898 15.78855743 16.12597656 17.16064453 C19.42355379 21.18130496 21.25983138 24.29265833 21.05957031 29.69970703 C18.22701984 34.4974241 14.70556589 38.62820222 11.05957031 42.82470703 C10.53878906 43.43185547 10.01800781 44.03900391 9.48144531 44.66455078 C1.92458542 53.42363838 1.92458542 53.42363838 -1.87792969 54.63720703 C-5.5391565 54.71192595 -7.07089708 53.91334647 -9.94042969 51.69970703 C-11.54170042 48.49716556 -11.34744576 46.24656139 -10.94042969 42.69970703 C-9.58520508 40.79614258 -9.58520508 40.79614258 -7.91308594 38.96142578 C-7.36015869 38.34614014 -6.80723145 37.73085449 -6.23754883 37.09692383 C-5.80949951 36.63584229 -5.3814502 36.17476074 -4.94042969 35.69970703 C-6.77988159 35.67783325 -6.77988159 35.67783325 -8.65649414 35.65551758 C-13.20220235 35.5975862 -17.7474125 35.52035323 -22.29272461 35.43725586 C-24.2607414 35.40398217 -26.22885418 35.37595788 -28.19702148 35.35327148 C-31.02466781 35.31977025 -33.85143251 35.2674574 -36.67871094 35.21142578 C-37.56005203 35.20503586 -38.44139313 35.19864594 -39.34944153 35.19206238 C-40.17006577 35.17226822 -40.99069 35.15247406 -41.83618164 35.13208008 C-42.5578804 35.12097702 -43.27957916 35.10987396 -44.02314758 35.09843445 C-46.50739575 34.58179798 -47.38839254 33.67555939 -48.94042969 31.69970703 C-50.01498497 28.16902539 -50.22270903 26.3897232 -48.81542969 22.94970703 C-46.56022547 20.24346197 -45.30156841 19.72377972 -41.94042969 18.69970703 C-39.12399897 18.46780119 -36.3954892 18.3283876 -33.57714844 18.28564453 C-32.78516556 18.26627838 -31.99318268 18.24691223 -31.17720032 18.22695923 C-28.6608845 18.16743471 -26.14452225 18.12088745 -23.62792969 18.07470703 C-21.91632179 18.03650222 -20.2047326 17.99744904 -18.49316406 17.95751953 C-14.3090722 17.86175573 -10.12489038 17.77762523 -5.94042969 17.69970703 C-7.15859375 16.32492187 -7.15859375 16.32492187 -8.40136719 14.92236328 C-10.62641725 12.41123535 -10.94780262 11.6576813 -11.56542969 8.13720703 C-10.94042969 4.69970703 -10.94042969 4.69970703 -8.94042969 1.69970703 C-5.59742382 -0.52896355 -3.91715038 -0.61524516 0 0 Z " fill="#000000" transform="translate(65.9404296875,240.30029296875)"/>
<path d="M0 0 C3.25455145 2.40553803 4.75854542 3.88930891 5.625 7.875 C4.99740935 11.01295323 4.31996001 12.19891084 2.4609375 14.6953125 C2.00251465 15.31680176 1.5440918 15.93829102 1.07177734 16.57861328 C0.71809082 17.0476709 0.3644043 17.51672852 0 18 C0.79172607 18.01981934 1.58345215 18.03963867 2.39916992 18.06005859 C5.9956076 18.1554716 9.59147751 18.26508591 13.1875 18.375 C15.05631836 18.42140625 15.05631836 18.42140625 16.96289062 18.46875 C18.16494141 18.50742187 19.36699219 18.54609375 20.60546875 18.5859375 C21.71043701 18.6173584 22.81540527 18.6487793 23.95385742 18.68115234 C28.26565675 19.13247958 31.06742447 19.88090936 33.875 23.25 C35.28227934 26.69001617 35.07455528 28.46931836 34 32 C32.90112305 33.64770508 32.90112305 33.64770508 31 35 C28.49271968 35.3307063 26.21862613 35.4882718 23.70703125 35.51171875 C23.00100266 35.52966995 22.29497406 35.54762115 21.56755066 35.56611633 C19.31592759 35.62023178 17.06451657 35.65411722 14.8125 35.6875 C13.28447569 35.72067219 11.75647937 35.75516177 10.22851562 35.79101562 C6.48583011 35.87595825 2.74320759 35.94276248 -1 36 C-0.57340088 36.46253174 -0.14680176 36.92506348 0.29272461 37.40161133 C0.84452393 38.0180249 1.39632324 38.63443848 1.96484375 39.26953125 C2.51519287 39.87643799 3.06554199 40.48334473 3.63256836 41.10864258 C5 43 5 43 5.5625 46.6875 C4.70617459 51.73030518 4.70617459 51.73030518 2 54 C-1.71219261 55.03116461 -3.93118392 55.51316766 -7.45703125 53.8203125 C-10.29363065 51.78981277 -12.15660377 49.67671002 -14.3125 46.9375 C-16.61740517 44.00996105 -18.90691482 41.10649314 -21.359375 38.30078125 C-22.08640625 37.45902344 -22.8134375 36.61726563 -23.5625 35.75 C-24.22378906 35.00234375 -24.88507813 34.2546875 -25.56640625 33.484375 C-27.53450923 30.07371153 -27.50274959 27.88019558 -27 24 C-25.3828125 21.33203125 -25.3828125 21.33203125 -23.125 18.8125 C-22.31160156 17.88308594 -21.49820312 16.95367187 -20.66015625 15.99609375 C-20.22719238 15.51253418 -19.79422852 15.02897461 -19.34814453 14.53076172 C-17.94322697 12.9355366 -16.59056341 11.30657198 -15.24609375 9.66015625 C-14.7979834 9.11190186 -14.34987305 8.56364746 -13.88818359 7.9987793 C-13.45070801 7.46293213 -13.01323242 6.92708496 -12.5625 6.375 C-6.68091561 -0.78599007 -6.68091561 -0.78599007 0 0 Z " fill="#000000" transform="translate(461,240)"/>
</svg>
