<?xml version="1.0" encoding="UTF-8"?>
<svg version="1.1" xmlns="http://www.w3.org/2000/svg" width="1000" height="1000">
<path d="M0 0 C330 0 660 0 1000 0 C1000 330 1000 660 1000 1000 C670 1000 340 1000 0 1000 C0 670 0 340 0 0 Z " fill="#FEFEFE" transform="translate(0,0)"/>
<path d="M0 0 C1.66322042 1.00572144 3.32882555 2.00755164 5 3 C5.825 2.40832031 6.65 1.81664062 7.5 1.20703125 C23.84457419 -10.14796968 40.40773928 -13.41332234 60.19970703 -10.69824219 C73.66119061 -8.21046614 84.48224041 -0.46792839 94 9 C94.62519531 9.59039062 95.25039063 10.18078125 95.89453125 10.7890625 C106.81843619 21.98421565 111.96348328 38.2425031 112.3125 53.5625 C111.92974806 69.14050388 111.92974806 69.14050388 109 75 C109.61488281 74.96519531 110.22976563 74.93039062 110.86328125 74.89453125 C111.67152344 74.86746094 112.47976563 74.84039063 113.3125 74.8125 C114.51326172 74.76029297 114.51326172 74.76029297 115.73828125 74.70703125 C118 75 118 75 119.765625 76.29296875 C121.8384379 79.15948532 121.4248241 81.60140717 121 85 C117.92454365 88.13072945 115.41808939 88.39205748 111.13330078 88.45166016 C109.95172394 88.4740274 108.77014709 88.49639465 107.55276489 88.5194397 C105.64332596 88.52915298 105.64332596 88.52915298 103.6953125 88.5390625 C102.38343964 88.55141937 101.07156677 88.56377625 99.71994019 88.57650757 C96.9442528 88.59895958 94.16883947 88.60853501 91.39306641 88.61083984 C87.84594797 88.61612101 84.30112577 88.66744196 80.75462532 88.73035622 C77.35985251 88.78118947 73.96545542 88.78185347 70.5703125 88.7890625 C69.30140167 88.81578033 68.03249084 88.84249817 66.72512817 88.87002563 C58.11298277 88.80365649 58.11298277 88.80365649 54.91107178 86.49163818 C53.38451044 84.73138703 52.1908033 82.99745125 51 81 C49.824375 79.5459375 49.824375 79.5459375 48.625 78.0625 C48.08875 77.381875 47.5525 76.70125 47 76 C46.52373169 76.75676025 46.52373169 76.75676025 46.0378418 77.52880859 C44.59406297 79.81494533 43.14092 82.09498173 41.6875 84.375 C41.18798828 85.1690625 40.68847656 85.963125 40.17382812 86.78125 C39.68720703 87.54179688 39.20058594 88.30234375 38.69921875 89.0859375 C38.03152466 90.1385376 38.03152466 90.1385376 37.3503418 91.21240234 C36 93 36 93 33 95 C29.625 95.25 29.625 95.25 26 94 C23.72885982 90.93140891 22.4157934 87.52795423 21 84 C20.29810547 82.35064453 20.29810547 82.35064453 19.58203125 80.66796875 C18.36251443 77.78826937 17.17086109 74.8997496 16 72 C13.62908868 78.8207868 11.72460521 85.67379406 9.96875 92.67578125 C9.40008812 94.9069899 8.8310672 97.13810707 8.26171875 99.36914062 C7.37571729 102.85521369 6.49259914 106.34194202 5.61572266 109.83032227 C4.76245634 113.21845906 3.89772997 116.60350336 3.03125 119.98828125 C2.77178589 121.03309158 2.51232178 122.07790192 2.24499512 123.15437317 C1.99463501 124.12605942 1.7442749 125.09774567 1.48632812 126.09887695 C1.27109497 126.95109329 1.05586182 127.80330963 0.83410645 128.68135071 C-0.09750071 131.27103249 -1.12666208 132.9848191 -3 135 C-6.375 135.75 -6.375 135.75 -10 135 C-14.77083915 128.42240326 -18.17764027 120.95061903 -21.78588867 113.68896484 C-22.82195612 111.60598881 -23.86663251 109.52748525 -24.91210938 107.44921875 C-25.57343067 106.12525662 -26.23425649 104.80104686 -26.89453125 103.4765625 C-27.20695267 102.85576813 -27.51937408 102.23497375 -27.84126282 101.59536743 C-30 97.23000188 -30 97.23000188 -30 95 C-33.22393892 97.7875105 -34.69487739 100.48362873 -36.43579102 104.33154297 C-38.14484137 107.82250155 -39.77214095 110.72838678 -43 113 C-50.13222332 114.79288823 -57.77304924 113.8555386 -65 113 C-59.68009232 119.90751935 -54.06072604 126.29559481 -47.875 132.4375 C-46.62831543 133.67681274 -46.62831543 133.67681274 -45.35644531 134.94116211 C-34.25467433 145.83453442 -22.09867331 154.67064211 -9 163 C-8.42378906 163.37237793 -7.84757812 163.74475586 -7.25390625 164.12841797 C-5.63883665 165.16581111 -4.00724595 166.17734779 -2.375 167.1875 C-1.45460938 167.75855469 -0.53421875 168.32960938 0.4140625 168.91796875 C3.57926178 170.24237993 4.77947195 170.10967659 8 169 C23.63580056 161.54840027 37.90354694 150.5479555 50.30078125 138.55859375 C53 136 53 136 55.640625 133.8984375 C57.8473674 132.12281365 59.60858081 130.34097559 61.4375 128.1875 C62.03433594 127.49914062 62.63117188 126.81078125 63.24609375 126.1015625 C64.37551005 124.74827527 65.47497274 123.36912017 66.53515625 121.9609375 C69.14940457 118.57287167 70.43832497 117.18399699 74.625 115.8125 C78 116 78 116 80.5 117.5625 C82 120 82 120 81.8125 122.8828125 C80.90981965 126.34598036 79.94520239 127.74033518 77.5 130.3125 C76.28376953 131.59253906 76.28376953 131.59253906 75.04296875 132.8984375 C74.02873638 133.93238049 73.01440342 134.96622482 72 136 C71.38463379 136.63969727 70.76926758 137.27939453 70.13525391 137.93847656 C60.98586404 147.44359011 51.68853677 156.25477544 41 164 C39.94554687 164.77601563 38.89109375 165.55203125 37.8046875 166.3515625 C30.12099183 171.84531051 22.09335724 176.60133203 13.76611328 181.04980469 C12.10702922 181.94241668 10.47234316 182.87996055 8.83984375 183.8203125 C5.46100726 185.2239007 4.41490713 185.22287165 1 184 C-1.75055534 182.75643378 -4.40697622 181.37161319 -7.0625 179.9375 C-8.19413574 179.33023071 -8.19413574 179.33023071 -9.34863281 178.71069336 C-24.38296317 170.52686338 -37.83174829 160.21683813 -50.28125 148.53125 C-52.57912963 146.39184482 -54.91658807 144.3398101 -57.3125 142.3125 C-61.281916 138.84636374 -64.65675238 135.06730313 -68 131 C-68.48645996 130.40993164 -68.97291992 129.81986328 -69.47412109 129.21191406 C-71.13626683 127.18908121 -72.78849101 125.15855288 -74.4375 123.125 C-74.98245117 122.45791016 -75.52740234 121.79082031 -76.08886719 121.10351562 C-80 116.23267208 -80 116.23267208 -80 114 C-80.58491211 114.01047363 -81.16982422 114.02094727 -81.77246094 114.03173828 C-84.43159663 114.07340264 -87.09066353 114.09935901 -89.75 114.125 C-90.67039063 114.14175781 -91.59078125 114.15851563 -92.5390625 114.17578125 C-93.42851562 114.18222656 -94.31796875 114.18867187 -95.234375 114.1953125 C-96.05131836 114.20578613 -96.86826172 114.21625977 -97.70996094 114.22705078 C-100.29344598 113.97090568 -101.8529414 113.45850273 -104 112 C-105.10242049 108.27933084 -105.58930123 106.11967234 -103.75 102.625 C-100.68013598 100.81098944 -98.84678268 100.66156293 -95.328125 100.3984375 C-94.33200195 100.32028809 -93.33587891 100.24213867 -92.30957031 100.16162109 C-91.54741211 100.10828613 -90.78525391 100.05495117 -90 100 C-90.25692627 99.42668945 -90.51385254 98.85337891 -90.77856445 98.26269531 C-100.29265309 76.90899469 -100.29265309 76.90899469 -102 67 C-102.12761719 66.29230469 -102.25523437 65.58460938 -102.38671875 64.85546875 C-102.68139186 62.91521854 -102.84224609 60.95614847 -103 59 C-103.06445312 58.31421875 -103.12890625 57.6284375 -103.1953125 56.921875 C-104.08290387 39.5250842 -97.08135753 23.27584127 -86.01171875 10.203125 C-63.41009955 -14.54893952 -27.73851685 -18.05936671 0 0 Z " fill="#DEB8BA" transform="translate(273,447)"/>
<path d="M0 0 C1.66322042 1.00572144 3.32882555 2.00755164 5 3 C5.825 2.40832031 6.65 1.81664062 7.5 1.20703125 C23.84457419 -10.14796968 40.40773928 -13.41332234 60.19970703 -10.69824219 C73.66119061 -8.21046614 84.48224041 -0.46792839 94 9 C94.62519531 9.59039062 95.25039063 10.18078125 95.89453125 10.7890625 C106.81843619 21.98421565 111.96348328 38.2425031 112.3125 53.5625 C111.92974806 69.14050388 111.92974806 69.14050388 109 75 C109.61488281 74.96519531 110.22976563 74.93039062 110.86328125 74.89453125 C111.67152344 74.86746094 112.47976563 74.84039063 113.3125 74.8125 C114.51326172 74.76029297 114.51326172 74.76029297 115.73828125 74.70703125 C118 75 118 75 119.765625 76.29296875 C121.8384379 79.15948532 121.4248241 81.60140717 121 85 C117.92454365 88.13072945 115.41808939 88.39205748 111.13330078 88.45166016 C109.95172394 88.4740274 108.77014709 88.49639465 107.55276489 88.5194397 C105.64332596 88.52915298 105.64332596 88.52915298 103.6953125 88.5390625 C102.38343964 88.55141937 101.07156677 88.56377625 99.71994019 88.57650757 C96.9442528 88.59895958 94.16883947 88.60853501 91.39306641 88.61083984 C87.84594797 88.61612101 84.30112577 88.66744196 80.75462532 88.73035622 C77.35985251 88.78118947 73.96545542 88.78185347 70.5703125 88.7890625 C69.30140167 88.81578033 68.03249084 88.84249817 66.72512817 88.87002563 C58.11298277 88.80365649 58.11298277 88.80365649 54.91107178 86.49163818 C53.38451044 84.73138703 52.1908033 82.99745125 51 81 C49.824375 79.5459375 49.824375 79.5459375 48.625 78.0625 C48.08875 77.381875 47.5525 76.70125 47 76 C46.52373169 76.75676025 46.52373169 76.75676025 46.0378418 77.52880859 C44.59406297 79.81494533 43.14092 82.09498173 41.6875 84.375 C41.18798828 85.1690625 40.68847656 85.963125 40.17382812 86.78125 C39.68720703 87.54179688 39.20058594 88.30234375 38.69921875 89.0859375 C38.03152466 90.1385376 38.03152466 90.1385376 37.3503418 91.21240234 C36 93 36 93 33 95 C29.625 95.25 29.625 95.25 26 94 C23.72885982 90.93140891 22.4157934 87.52795423 21 84 C20.29810547 82.35064453 20.29810547 82.35064453 19.58203125 80.66796875 C18.36251443 77.78826937 17.17086109 74.8997496 16 72 C13.62908868 78.8207868 11.72460521 85.67379406 9.96875 92.67578125 C9.40008812 94.9069899 8.8310672 97.13810707 8.26171875 99.36914062 C7.37571729 102.85521369 6.49259914 106.34194202 5.61572266 109.83032227 C4.76245634 113.21845906 3.89772997 116.60350336 3.03125 119.98828125 C2.77178589 121.03309158 2.51232178 122.07790192 2.24499512 123.15437317 C1.99463501 124.12605942 1.7442749 125.09774567 1.48632812 126.09887695 C1.27109497 126.95109329 1.05586182 127.80330963 0.83410645 128.68135071 C-0.09750071 131.27103249 -1.12666208 132.9848191 -3 135 C-6.375 135.75 -6.375 135.75 -10 135 C-14.77083915 128.42240326 -18.17764027 120.95061903 -21.78588867 113.68896484 C-22.82195612 111.60598881 -23.86663251 109.52748525 -24.91210938 107.44921875 C-25.57343067 106.12525662 -26.23425649 104.80104686 -26.89453125 103.4765625 C-27.20695267 102.85576813 -27.51937408 102.23497375 -27.84126282 101.59536743 C-30 97.23000188 -30 97.23000188 -30 95 C-33.22393892 97.7875105 -34.69487739 100.48362873 -36.43579102 104.33154297 C-38.14484137 107.82250155 -39.77214095 110.72838678 -43 113 C-50.13222332 114.79288823 -57.77304924 113.8555386 -65 113 C-59.68009232 119.90751935 -54.06072604 126.29559481 -47.875 132.4375 C-46.62831543 133.67681274 -46.62831543 133.67681274 -45.35644531 134.94116211 C-34.25467433 145.83453442 -22.09867331 154.67064211 -9 163 C-8.42378906 163.37237793 -7.84757812 163.74475586 -7.25390625 164.12841797 C-5.63883665 165.16581111 -4.00724595 166.17734779 -2.375 167.1875 C-1.45460938 167.75855469 -0.53421875 168.32960938 0.4140625 168.91796875 C3.57926178 170.24237993 4.77947195 170.10967659 8 169 C23.63580056 161.54840027 37.90354694 150.5479555 50.30078125 138.55859375 C53 136 53 136 55.640625 133.8984375 C57.8473674 132.12281365 59.60858081 130.34097559 61.4375 128.1875 C62.03433594 127.49914062 62.63117188 126.81078125 63.24609375 126.1015625 C64.37551005 124.74827527 65.47497274 123.36912017 66.53515625 121.9609375 C69.14940457 118.57287167 70.43832497 117.18399699 74.625 115.8125 C78 116 78 116 80.5 117.5625 C82 120 82 120 81.8125 122.8828125 C80.90981965 126.34598036 79.94520239 127.74033518 77.5 130.3125 C76.28376953 131.59253906 76.28376953 131.59253906 75.04296875 132.8984375 C74.02873638 133.93238049 73.01440342 134.96622482 72 136 C71.38463379 136.63969727 70.76926758 137.27939453 70.13525391 137.93847656 C60.98586404 147.44359011 51.68853677 156.25477544 41 164 C39.94554687 164.77601563 38.89109375 165.55203125 37.8046875 166.3515625 C30.12099183 171.84531051 22.09335724 176.60133203 13.76611328 181.04980469 C12.10702922 181.94241668 10.47234316 182.87996055 8.83984375 183.8203125 C5.46100726 185.2239007 4.41490713 185.22287165 1 184 C-1.75055534 182.75643378 -4.40697622 181.37161319 -7.0625 179.9375 C-8.19413574 179.33023071 -8.19413574 179.33023071 -9.34863281 178.71069336 C-24.38296317 170.52686338 -37.83174829 160.21683813 -50.28125 148.53125 C-52.57912963 146.39184482 -54.91658807 144.3398101 -57.3125 142.3125 C-61.281916 138.84636374 -64.65675238 135.06730313 -68 131 C-68.48645996 130.40993164 -68.97291992 129.81986328 -69.47412109 129.21191406 C-71.13626683 127.18908121 -72.78849101 125.15855288 -74.4375 123.125 C-74.98245117 122.45791016 -75.52740234 121.79082031 -76.08886719 121.10351562 C-80 116.23267208 -80 116.23267208 -80 114 C-80.58491211 114.01047363 -81.16982422 114.02094727 -81.77246094 114.03173828 C-84.43159663 114.07340264 -87.09066353 114.09935901 -89.75 114.125 C-90.67039063 114.14175781 -91.59078125 114.15851563 -92.5390625 114.17578125 C-93.42851562 114.18222656 -94.31796875 114.18867187 -95.234375 114.1953125 C-96.05131836 114.20578613 -96.86826172 114.21625977 -97.70996094 114.22705078 C-100.29344598 113.97090568 -101.8529414 113.45850273 -104 112 C-105.10242049 108.27933084 -105.58930123 106.11967234 -103.75 102.625 C-100.68013598 100.81098944 -98.84678268 100.66156293 -95.328125 100.3984375 C-94.33200195 100.32028809 -93.33587891 100.24213867 -92.30957031 100.16162109 C-91.54741211 100.10828613 -90.78525391 100.05495117 -90 100 C-90.25692627 99.42668945 -90.51385254 98.85337891 -90.77856445 98.26269531 C-100.29265309 76.90899469 -100.29265309 76.90899469 -102 67 C-102.12761719 66.29230469 -102.25523437 65.58460938 -102.38671875 64.85546875 C-102.68139186 62.91521854 -102.84224609 60.95614847 -103 59 C-103.06445312 58.31421875 -103.12890625 57.6284375 -103.1953125 56.921875 C-104.08290387 39.5250842 -97.08135753 23.27584127 -86.01171875 10.203125 C-63.41009955 -14.54893952 -27.73851685 -18.05936671 0 0 Z M11.76171875 13.8203125 C6.68890742 17.92823881 6.68890742 17.92823881 3 18.3125 C-0.59847105 16.73816892 -2.80913955 14.57355216 -5.66015625 11.9140625 C-18.02647237 1.79804431 -32.75358355 0.82070251 -48 2 C-60.00284319 4.14382333 -71.45302879 11.4661731 -79 21 C-88.71525514 35.36244398 -92.29815816 49.82683875 -89.01928711 67.0769043 C-86.51411556 78.65210904 -81.57369965 90.13945052 -75 100 C-67.29786168 102.05470461 -57.63593121 102.28656626 -50 100 C-44.83450624 96.00146935 -42.50440203 90.05326201 -40.02709961 84.1796875 C-38.46371199 80.86190174 -36.59227855 78.59639982 -34 76 C-30.4375 75.25 -30.4375 75.25 -27 76 C-22.78168348 81.25299793 -20.21805531 87.55880177 -17.375 93.625 C-16.40383646 95.67977761 -15.43248965 97.73446861 -14.4609375 99.7890625 C-14.03603027 100.69350098 -13.61112305 101.59793945 -13.17333984 102.52978516 C-12.14203544 104.70097491 -11.08416204 106.85482306 -10 109 C-9.34 109 -8.68 109 -8 109 C-7.72478012 107.92671196 -7.72478012 107.92671196 -7.44400024 106.83174133 C-5.711456 100.07772633 -3.97569669 93.32454491 -2.23635292 86.57227802 C-1.34232504 83.10112649 -0.4495286 79.62966806 0.44042969 76.1574707 C1.29986816 72.80453746 2.16257248 69.45245994 3.02751541 66.10094261 C3.51607185 64.20437458 4.00127172 62.30694292 4.48641968 60.40950012 C4.7865799 59.24867416 5.08674011 58.08784821 5.39599609 56.8918457 C5.65802826 55.87258499 5.92006042 54.85332428 6.19003296 53.80317688 C6.96720632 51.1134941 7.91202479 48.57771857 9 46 C12.25 45.25 12.25 45.25 16 45 C19.1745799 47.5500299 20.74234208 50.10585381 22.25390625 53.84375 C22.63353516 54.76027344 23.01316406 55.67679688 23.40429688 56.62109375 C23.78650391 57.57113281 24.16871094 58.52117187 24.5625 59.5 C25.32953579 61.38749708 26.10150255 63.27299946 26.87890625 65.15625 C27.2147876 65.98962891 27.55066895 66.82300781 27.89672852 67.68164062 C29.02496318 70.05245638 30.35647356 71.96004359 32 74 C32.68707031 72.94039062 33.37414062 71.88078125 34.08203125 70.7890625 C34.99187981 69.40083996 35.90205303 68.01283016 36.8125 66.625 C37.49022461 65.57699219 37.49022461 65.57699219 38.18164062 64.5078125 C38.84389648 63.50234375 38.84389648 63.50234375 39.51953125 62.4765625 C40.12438354 61.549646 40.12438354 61.549646 40.74145508 60.60400391 C42 59 42 59 45 57 C47.92578125 57.046875 47.92578125 57.046875 51 58 C53.23046875 60.328125 53.23046875 60.328125 55.1875 63.25 C55.84105469 64.20390625 56.49460937 65.1578125 57.16796875 66.140625 C59 69 59 69 60.13134766 71.64819336 C61.86967084 74.37673736 61.86967084 74.37673736 65.46166992 74.56762695 C66.88484843 74.56683711 68.30818281 74.53868344 69.73046875 74.48828125 C70.48088943 74.48120651 71.23131012 74.47413177 72.00447083 74.46684265 C74.39983095 74.43886657 76.79284747 74.37613009 79.1875 74.3125 C80.81181518 74.28742092 82.43616703 74.26460706 84.06054688 74.24414062 C88.04126671 74.18903043 92.02023615 74.10274233 96 74 C96.49522858 71.4315423 96.9869042 68.86248902 97.4765625 66.29296875 C97.61650635 65.56911987 97.7564502 64.845271 97.90063477 64.0994873 C100.76651403 48.99983212 97.37346565 35.9469248 89 23 C80.25178194 11.05741186 68.01319564 3.79559059 53.4765625 1.3203125 C37.82013302 -0.70465157 23.88354861 3.96207041 11.76171875 13.8203125 Z " fill="#9A252B" transform="translate(273,447)"/>
<path d="M0 0 C116.82 0 233.64 0 354 0 C354 2.31 354 4.62 354 7 C237.18 7 120.36 7 0 7 C0 4.69 0 2.38 0 0 Z " fill="#000000" transform="translate(402,527)"/>
<path d="M0 0 C1.91503906 0.11694336 1.91503906 0.11694336 4 1 C5.28027344 3.22485352 5.28027344 3.22485352 6.359375 6.12890625 C6.94912109 7.68061523 6.94912109 7.68061523 7.55078125 9.26367188 C7.94652344 10.35228516 8.34226562 11.44089844 8.75 12.5625 C9.16121094 13.65498047 9.57242188 14.74746094 9.99609375 15.87304688 C11.01158808 18.57709574 12.01209004 21.28577746 13 24 C14.40369382 21.33872175 15.45718989 18.78028776 16.2890625 15.890625 C16.61777344 14.75947266 16.61777344 14.75947266 16.953125 13.60546875 C17.28570312 12.43951172 17.28570312 12.43951172 17.625 11.25 C17.96917969 10.06083984 17.96917969 10.06083984 18.3203125 8.84765625 C18.88365481 6.89943077 19.44229292 4.94984612 20 3 C18.68 2.34 17.36 1.68 16 1 C19.96 1 23.92 1 28 1 C27.01 1.99 26.02 2.98 25 4 C24.03924396 6.64112219 23.20870597 9.21792646 22.44140625 11.9140625 C21.96848402 13.49490691 21.49516481 15.07563261 21.02148438 16.65625 C20.28701667 19.14767482 19.55802273 21.64048746 18.83666992 24.13574219 C18.1360541 26.54557609 17.41506457 28.9485652 16.69140625 31.3515625 C16.48085098 32.10257233 16.27029572 32.85358215 16.05335999 33.62734985 C15.41625977 35.72119141 15.41625977 35.72119141 14 39 C11.83178711 39.97802734 11.83178711 39.97802734 10 40 C0 18.76595745 0 18.76595745 0 14 C-0.66 14 -1.32 14 -2 14 C-2.12979248 14.72541992 -2.25958496 15.45083984 -2.39331055 16.19824219 C-3.37500306 20.73180486 -5.12542389 24.93892348 -6.8125 29.25 C-7.15603516 30.17296875 -7.49957031 31.0959375 -7.85351562 32.046875 C-8.19705078 32.9234375 -8.54058594 33.8 -8.89453125 34.703125 C-9.20237549 35.50395508 -9.51021973 36.30478516 -9.82739258 37.12988281 C-11 39 -11 39 -13.1315918 39.76855469 C-13.7481665 39.84493164 -14.36474121 39.92130859 -15 40 C-16.92109705 35.12053625 -18.58170674 30.2130455 -20.12109375 25.19921875 C-20.49943359 23.97525391 -20.87777344 22.75128906 -21.26757812 21.49023438 C-21.85581517 19.57821849 -22.44390348 17.66611825 -23.01782227 15.74975586 C-23.58108202 13.87484093 -24.16334561 12.00566823 -24.74609375 10.13671875 C-25.08310303 9.03030029 -25.4201123 7.92388184 -25.76733398 6.78393555 C-26.93143772 3.54248276 -26.93143772 3.54248276 -31 1 C-25.06 1 -19.12 1 -13 1 C-14.98 1.99 -14.98 1.99 -17 3 C-15.02 9.93 -13.04 16.86 -11 24 C-9.26586519 21.39879779 -8.21385371 19.24790753 -7.08984375 16.3671875 C-6.73986328 15.47902344 -6.38988281 14.59085937 -6.02929688 13.67578125 C-5.66900391 12.75152344 -5.30871094 11.82726562 -4.9375 10.875 C-4.21978158 9.03814895 -3.49984802 7.20216137 -2.77734375 5.3671875 C-2.46015381 4.55362793 -2.14296387 3.74006836 -1.81616211 2.90185547 C-1 1 -1 1 0 0 Z " fill="#040404" transform="translate(433,480)"/>
<path d="M0 0 C4.15449338 -0.63266397 7.85851706 -0.79528477 12 0 C15.74232727 2.77144048 18.25453852 6.27012981 21 10 C22.61696016 11.98574055 24.24182862 13.9650708 25.875 15.9375 C26.59429688 16.83339844 27.31359375 17.72929687 28.0546875 18.65234375 C30.09184697 21.18515961 30.09184697 21.18515961 33 24 C33 17.07 33 10.14 33 3 C31.02 2.34 29.04 1.68 27 1 C27 0.67 27 0.34 27 0 C31.95 0 36.9 0 42 0 C40.02 0.99 40.02 0.99 38 2 C38 13.88 38 25.76 38 38 C36.02 38.495 36.02 38.495 34 39 C17.27044025 21.08805031 17.27044025 21.08805031 10 12 C10 19.59 10 27.18 10 35 C11.65 35.66 13.3 36.32 15 37 C15 37.33 15 37.66 15 38 C10.05 38 5.1 38 0 38 C0.99 37.01 1.98 36.02 3 35 C3.66 35 4.32 35 5 35 C4.9558708 30.49691954 4.88606785 25.99524458 4.79248047 21.49291992 C4.76426122 19.96145822 4.74305131 18.42985061 4.72900391 16.89819336 C4.70758574 14.69569151 4.66094862 12.49494541 4.609375 10.29296875 C4.60814636 9.60849167 4.60691772 8.92401459 4.60565186 8.21879578 C4.50354022 4.90233205 4.40822725 3.39174754 1.96191406 1.04418945 C1.31448242 0.69960693 0.66705078 0.35502441 0 0 Z " fill="#020202" transform="translate(581,481)"/>
<path d="M0 0 C10.23 0 20.46 0 31 0 C31 2.97 31 5.94 31 9 C29.62437146 7.71034824 28.29233607 6.37310707 27 5 C27 4.34 27 3.68 27 3 C22.38 3 17.76 3 13 3 C13 7.62 13 12.24 13 17 C19.61958004 16.83040075 19.61958004 16.83040075 25.0625 13.4375 C25.701875 12.633125 26.34125 11.82875 27 11 C27 15.62 27 20.24 27 25 C26.34 25 25.68 25 25 25 C24.34 23.35 23.68 21.7 23 20 C19.7 20 16.4 20 13 20 C13 24.95 13 29.9 13 35 C17.95 35 22.9 35 28 35 C28.66 33.02 29.32 31.04 30 29 C31.485 27.515 31.485 27.515 33 26 C33 29.96 33 33.92 33 38 C21.78 38 10.56 38 -1 38 C0.32 37.01 1.64 36.02 3 35 C3.42677963 32.36545652 3.60478396 30.12769564 3.609375 27.48828125 C3.62591125 26.76005661 3.64244751 26.03183197 3.65948486 25.28153992 C3.70802197 22.95844135 3.72934669 20.6359975 3.75 18.3125 C3.77815518 16.73629508 3.80808199 15.16012074 3.83984375 13.58398438 C3.91378144 9.72271017 3.96332032 5.86180061 4 2 C2.68 1.34 1.36 0.68 0 0 Z " fill="#040404" transform="translate(629,481)"/>
<path d="M0 0 C10.23 0 20.46 0 31 0 C31 3.3 31 6.6 31 10 C27 5.25 27 5.25 27 3 C22.38 3 17.76 3 13 3 C13 7.62 13 12.24 13 17 C15.10375 16.87625 15.10375 16.87625 17.25 16.75 C18.03890625 16.70359375 18.8278125 16.6571875 19.640625 16.609375 C22.62567392 16.0514094 22.62567392 16.0514094 26 12 C26 16.29 26 20.58 26 25 C25.01 24.01 24.02 23.02 23 22 C23 21.34 23 20.68 23 20 C19.7 20 16.4 20 13 20 C13 24.95 13 29.9 13 35 C17.95 35 22.9 35 28 35 C28.66 33.02 29.32 31.04 30 29 C31.485 27.515 31.485 27.515 33 26 C33 29.96 33 33.92 33 38 C21.78 38 10.56 38 -1 38 C0.32 37.01 1.64 36.02 3 35 C3.42677963 32.36545652 3.60478396 30.12769564 3.609375 27.48828125 C3.62591125 26.76005661 3.64244751 26.03183197 3.65948486 25.28153992 C3.70802197 22.95844135 3.72934669 20.6359975 3.75 18.3125 C3.77815518 16.73629508 3.80808199 15.16012074 3.83984375 13.58398438 C3.91378144 9.72271017 3.96332032 5.86180061 4 2 C2.68 1.67 1.36 1.34 0 1 C0 0.67 0 0.34 0 0 Z " fill="#010101" transform="translate(466,481)"/>
<path d="M0 0 C0.33 3.3 0.66 6.6 1 10 C0.34 10 -0.32 10 -1 10 C-4 5.61538462 -4 5.61538462 -4 3 C-5.45817797 2.83197949 -6.9165484 2.66562857 -8.375 2.5 C-9.18710937 2.4071875 -9.99921875 2.314375 -10.8359375 2.21875 C-12.96912825 1.96647649 -12.96912825 1.96647649 -15 2 C-15 4.97 -15 7.94 -15 11 C-14.360625 11.226875 -13.72125 11.45375 -13.0625 11.6875 C-2.51724138 16.20689655 -2.51724138 16.20689655 1.0625 20.4375 C2.22524601 23.61567244 2.48067611 25.6352672 2 29 C0.08835933 32.89974696 -1.43378441 34.66693201 -5.1875 36.875 C-12.95322733 39.1665261 -18.66785012 38.19948358 -26 35 C-26 31.7 -26 28.4 -26 25 C-23.7955562 27.2044438 -21.66490614 29.38800341 -19.625 31.75 C-17.17135352 34.2623676 -17.17135352 34.2623676 -13.875 34.4375 C-10.80919458 34.17844932 -10.80919458 34.17844932 -8 32 C-7.08171206 29.13128132 -7.08171206 29.13128132 -8 26 C-10.42887378 23.90697049 -13.17616947 22.49586698 -16 21 C-20.18414739 18.47372233 -23.16555979 16.64005466 -25 12 C-25 7.58690078 -24.50603566 5.61544877 -21.6875 2.1875 C-14.9279274 -3.3144777 -7.98680392 -3.27663751 0 0 Z " fill="#050505" transform="translate(728,482)"/>
<path d="M0 0 C0 2.97 0 5.94 0 9 C-2.03890755 6.96109245 -4.0274601 4.96704788 -5.875 2.75 C-7.95159264 0.729286 -7.95159264 0.729286 -11.125 0.5625 C-12.548125 0.7790625 -12.548125 0.7790625 -14 1 C-16.23073444 3.74089777 -16.23073444 3.74089777 -15.98828125 6.46484375 C-14.58285991 10.07005502 -12.57399836 10.79758973 -9.1875 12.5625 C-5.21473042 14.65776094 -1.82875413 16.45229886 1 20 C2.04928898 24.31288634 1.540493 28.00549288 -0.5625 31.875 C-5.16071867 35.88370345 -9.8060824 37.52052939 -15.93359375 37.3046875 C-19.54147881 36.77271201 -22.65647925 35.43293746 -26 34 C-26 30.7 -26 27.4 -26 24 C-25.401875 24.763125 -24.80375 25.52625 -24.1875 26.3125 C-21.06382051 30.23237271 -21.06382051 30.23237271 -17 33 C-12.94857881 33.25860135 -11.45662331 33.30441554 -8 31 C-7.24939151 28.08617271 -7.24939151 28.08617271 -8 25 C-11.11788513 22.34979764 -14.52523673 20.74651372 -18.1875 19 C-21.3535485 17.4260562 -23.51052807 16.35131183 -25 13 C-25.83103559 6.55947419 -25.83103559 6.55947419 -24.05078125 3.21875 C-17.88238074 -4.72039008 -8.20105544 -5.04680335 0 0 Z " fill="#030303" transform="translate(695,483)"/>
<path d="M0 0 C6.27 0 12.54 0 19 0 C17.68 0.99 16.36 1.98 15 3 C14.57285919 5.56494618 14.3952377 7.72322205 14.390625 10.29296875 C14.37408875 10.99899734 14.35755249 11.70502594 14.34051514 12.43244934 C14.29198712 14.68422092 14.27065562 16.93531709 14.25 19.1875 C14.22184401 20.71552886 14.19191709 22.24352619 14.16015625 23.77148438 C14.08622806 27.51426728 14.03668377 31.25667424 14 35 C20.435 34.505 20.435 34.505 27 34 C28.32 30.7 29.64 27.4 31 24 C31.66 24 32.32 24 33 24 C33 28.62 33 33.24 33 38 C22.11 38 11.22 38 0 38 C1.32 37.01 2.64 36.02 4 35 C4.62002853 31.6636021 4.62002853 31.6636021 4.53125 27.8125 C4.5350769 27.11358643 4.53890381 26.41467285 4.54284668 25.69458008 C4.54556568 24.21857257 4.53820498 22.74251687 4.52148438 21.26660156 C4.50006987 19.00737079 4.52128135 16.75131939 4.546875 14.4921875 C4.54423172 13.05728465 4.53910671 11.62238378 4.53125 10.1875 C4.52673828 8.88167969 4.52222656 7.57585937 4.51757812 6.23046875 C4.30438911 2.50432763 4.30438911 2.50432763 0 0 Z " fill="#030303" transform="translate(505,481)"/>
<path d="M0 0 C6.27 0 12.54 0 19 0 C17.68 0.99 16.36 1.98 15 3 C14.57285919 5.56494618 14.3952377 7.72322205 14.390625 10.29296875 C14.37408875 10.99899734 14.35755249 11.70502594 14.34051514 12.43244934 C14.29198712 14.68422092 14.27065562 16.93531709 14.25 19.1875 C14.22184401 20.71552886 14.19191709 22.24352619 14.16015625 23.77148438 C14.08622806 27.51426728 14.03668377 31.25667424 14 35 C18.29 35 22.58 35 27 35 C27.45375 33.55625 27.9075 32.1125 28.375 30.625 C29.30760631 27.65761628 29.77174356 26.22825644 32 24 C32 28.62 32 33.24 32 38 C21.44 38 10.88 38 0 38 C1.32 37.01 2.64 36.02 4 35 C4.62002853 31.6636021 4.62002853 31.6636021 4.53125 27.8125 C4.5350769 27.11358643 4.53890381 26.41467285 4.54284668 25.69458008 C4.54556568 24.21857257 4.53820498 22.74251687 4.52148438 21.26660156 C4.50006987 19.00737079 4.52128135 16.75131939 4.546875 14.4921875 C4.54423172 13.05728465 4.53910671 11.62238378 4.53125 10.1875 C4.52673828 8.88167969 4.52222656 7.57585937 4.51757812 6.23046875 C4.30438911 2.50432763 4.30438911 2.50432763 0 0 Z " fill="#000000" transform="translate(543,481)"/>
<path d="M0 0 C2.37570543 -0.0816082 4.74855841 -0.14077222 7.125 -0.1875 C7.79015625 -0.21263672 8.4553125 -0.23777344 9.140625 -0.26367188 C13.87014242 -0.3332236 17.01285346 0.46218714 21 3 C23.10084207 6.1512631 23.53653031 8.10309204 23.453125 11.86328125 C22.62539414 15.76646038 20.07806691 18.56437366 17 21 C13.51077097 22.34671998 9.94916156 22.09949162 6.25 22.0625 C5.07953125 22.05347656 3.9090625 22.04445313 2.703125 22.03515625 C1.81109375 22.02355469 0.9190625 22.01195312 0 22 C0.66 21.34 1.32 20.68 2 20 C2.30903289 18.09771695 2.30903289 18.09771695 2.265625 15.9375 C2.26820313 15.14085937 2.27078125 14.34421875 2.2734375 13.5234375 C2.26570313 12.69070313 2.25796875 11.85796875 2.25 11 C2.25773437 10.16726563 2.26546875 9.33453125 2.2734375 8.4765625 C2.27085937 7.67992187 2.26828125 6.88328125 2.265625 6.0625 C2.26336914 5.33160156 2.26111328 4.60070312 2.25878906 3.84765625 C2.15448561 1.75302636 2.15448561 1.75302636 0 0 Z " fill="#040404" transform="translate(469,540)"/>
<path d="M0 0 C3.58552881 1.63687185 4.79315055 2.68972583 7 6 C7.68343706 9.77688904 7.85107095 13.47186889 5.94921875 16.88671875 C4.17977487 19.04241292 2.5083344 20.7458328 0 22 C-4.98109259 22.37593152 -8.05673864 22.1765161 -12 19 C-14.32380221 16.11528002 -14.96448964 14.24413376 -15.5 10.5625 C-14.83624442 5.83324149 -13.34318209 4.34318209 -10 1 C-6.80876226 -0.59561887 -3.47254909 -0.3799142 0 0 Z " fill="#070707" transform="translate(624,540)"/>
<path d="M0 0 C2.64 0 5.28 0 8 0 C8.33773438 0.68707031 8.67546875 1.37414062 9.0234375 2.08203125 C9.46945312 2.98308594 9.91546875 3.88414062 10.375 4.8125 C10.81585938 5.70582031 11.25671875 6.59914063 11.7109375 7.51953125 C13.01866905 10.14556381 13.01866905 10.14556381 15 13 C16.98 8.71 18.96 4.42 21 0 C23.64 0 26.28 0 29 0 C28.34 0.66 27.68 1.32 27 2 C26.67862097 5.1520018 26.67862097 5.1520018 26.75 8.75 C26.74484375 9.96171875 26.7396875 11.1734375 26.734375 12.421875 C26.99594322 15.94535279 27.73145486 18.71789116 29 22 C25.7 22 22.4 22 19 22 C19.66 21.34 20.32 20.68 21 20 C21.24360073 16.87185486 21.24360073 16.87185486 21.125 13.375 C21.08375 11.27125 21.0425 9.1675 21 7 C18.69 11.95 16.38 16.9 14 22 C13.34 22 12.68 22 12 22 C10.02 17.38 8.04 12.76 6 8 C4.90910511 12.36357958 4.78355007 15.5267014 5 20 C5.66 20.66 6.32 21.32 7 22 C4.69 22 2.38 22 0 22 C0.33 21.34 0.66 20.68 1 20 C1.21691392 18.62793479 1.38923163 17.24860728 1.53515625 15.8671875 C1.62216797 15.06152344 1.70917969 14.25585938 1.79882812 13.42578125 C1.88583984 12.58402344 1.97285156 11.74226562 2.0625 10.875 C2.19881836 9.60076172 2.19881836 9.60076172 2.33789062 8.30078125 C2.5620368 6.2008855 2.78146448 4.10048707 3 2 C2.01 1.67 1.02 1.34 0 1 C0 0.67 0 0.34 0 0 Z " fill="#070707" transform="translate(415,540)"/>
<path d="M0 0 C2.24940295 -0.08119503 4.49964871 -0.13927819 6.75 -0.1875 C8.00296875 -0.22230469 9.2559375 -0.25710938 10.546875 -0.29296875 C14.14921951 0.01266003 15.54484418 0.39753483 18 3 C18.25 5.6875 18.25 5.6875 18 8 C16.02 8.99 16.02 8.99 14 10 C14.49371094 10.69867187 14.98742187 11.39734375 15.49609375 12.1171875 C16.13675781 13.02726563 16.77742187 13.93734375 17.4375 14.875 C18.07558594 15.77992188 18.71367188 16.68484375 19.37109375 17.6171875 C21 20 21 20 22 22 C18.8125 22.5 18.8125 22.5 15 22 C12.44648935 19.23158994 10 15.86112137 10 12 C9.01 12 8.02 12 7 12 C7.12375 13.27875 7.2475 14.5575 7.375 15.875 C7.44460938 16.59429688 7.51421875 17.31359375 7.5859375 18.0546875 C7.86374749 20.22668245 7.86374749 20.22668245 10 22 C6.7 22 3.4 22 0 22 C0.33 21.34 0.66 20.68 1 20 C1.09465345 18.64842019 1.13072162 17.29238852 1.1328125 15.9375 C1.13410156 15.14085937 1.13539063 14.34421875 1.13671875 13.5234375 C1.13285156 12.69070313 1.12898437 11.85796875 1.125 11 C1.12886719 10.16726563 1.13273438 9.33453125 1.13671875 8.4765625 C1.13542969 7.67992187 1.13414062 6.88328125 1.1328125 6.0625 C1.13168457 5.33160156 1.13055664 4.60070312 1.12939453 3.84765625 C1.11201795 1.90433947 1.11201795 1.90433947 0 0 Z " fill="#0C0C0C" transform="translate(662,540)"/>
<path d="M0 0 C2.64 0 5.28 0 8 0 C9.98 4.29 11.96 8.58 14 13 C16.36543716 10.63456284 17.27541323 8.42932795 18.625 5.375 C19.07101562 4.37210938 19.51703125 3.36921875 19.9765625 2.3359375 C20.31429687 1.56507813 20.65203125 0.79421875 21 0 C23.64 0 26.28 0 29 0 C28.01 0.33 27.02 0.66 26 1 C26.33 7.6 26.66 14.2 27 21 C27.66 21.33 28.32 21.66 29 22 C25.7 22 22.4 22 19 22 C19.66 21.34 20.32 20.68 21 20 C21.24377883 16.64255888 21.24377883 16.64255888 21.125 12.875 C21.08375 10.60625 21.0425 8.3375 21 6 C18.69 11.28 16.38 16.56 14 22 C13.34 22 12.68 22 12 22 C9.69 16.72 7.38 11.44 5 6 C4.95875 8.26875 4.9175 10.5375 4.875 12.875 C4.85179687 14.15117188 4.82859375 15.42734375 4.8046875 16.7421875 C4.64358476 20.08593338 4.64358476 20.08593338 7 22 C4.36 22 1.72 22 -1 22 C-0.34 21.34 0.32 20.68 1 20 C1.28157757 17.4948305 1.46559811 15.07485882 1.5625 12.5625 C1.88318777 5.35043668 1.88318777 5.35043668 3 2 C2.01 1.67 1.02 1.34 0 1 C0 0.67 0 0.34 0 0 Z " fill="#050505" transform="translate(718,540)"/>
<path d="M0 0 C0.99 0 1.98 0 3 0 C3.26216309 0.59538574 3.52432617 1.19077148 3.79443359 1.80419922 C4.98317313 4.49660751 6.17899078 7.18581363 7.375 9.875 C7.7875 10.81214844 8.2 11.74929688 8.625 12.71484375 C9.02460937 13.61074219 9.42421875 14.50664063 9.8359375 15.4296875 C10.20251465 16.25710449 10.5690918 17.08452148 10.94677734 17.93701172 C11.94137141 20.14687595 11.94137141 20.14687595 14 22 C10.37 22 6.74 22 3 22 C3.66 20.68 4.32 19.36 5 18 C4.70194993 15.80252869 4.70194993 15.80252869 4 14 C1.36 14 -1.28 14 -4 14 C-4.67801034 16.90073181 -4.67801034 16.90073181 -5 20 C-4.34 20.66 -3.68 21.32 -3 22 C-5.31 22 -7.62 22 -10 22 C-8.5247255 18.51917004 -7.04413293 15.04062769 -5.5625 11.5625 C-5.14162109 10.56927734 -4.72074219 9.57605469 -4.28710938 8.55273438 C-3.88427734 7.60849609 -3.48144531 6.66425781 -3.06640625 5.69140625 C-2.69459229 4.81685791 -2.32277832 3.94230957 -1.93969727 3.04125977 C-1 1 -1 1 0 0 Z " fill="#040404" transform="translate(541,540)"/>
<path d="M0 0 C3.16842693 0.25689948 4.60962957 0.58270747 6.8125 2.9375 C8.47155968 7.2161276 8.783968 11.46528314 8 16 C6.18083306 18.37011465 5.49432697 18.92585095 2.5 19.375 C0 19 0 19 -1.75 17.75 C-4.50971 13.88640599 -4.40592217 9.62751277 -4 5 C-2 2.0625 -2 2.0625 0 0 Z " fill="#FBFBFB" transform="translate(618,541)"/>
<path d="M0 0 C3.63 0 7.26 0 11 0 C10.34 0.66 9.68 1.32 9 2 C8.71770215 5.28869945 8.71770215 5.28869945 8.8125 9 C8.81894531 10.258125 8.82539062 11.51625 8.83203125 12.8125 C8.7816996 15.89633791 8.7816996 15.89633791 10 18 C12.32024404 19.01453953 12.32024404 19.01453953 15 19 C18.02018132 16.76406466 18.90686156 15.49435016 19.609375 11.765625 C19.65578125 10.60546875 19.7021875 9.4453125 19.75 8.25 C19.80671875 7.07953125 19.8634375 5.9090625 19.921875 4.703125 C19.94765625 3.81109375 19.9734375 2.9190625 20 2 C19.01 1.67 18.02 1.34 17 1 C17 0.67 17 0.34 17 0 C19.31 0 21.62 0 24 0 C23.67 0.66 23.34 1.32 23 2 C22.80005143 5.50576489 22.68147212 9.00975718 22.57421875 12.51953125 C21.91881298 16.49209276 20.79624613 18.16178394 18 21 C14.93570224 22.53214888 12.3834358 22.22938548 9 22 C4.4 19.8 4.4 19.8 3 17 C2.76901279 13.80284373 2.60514258 10.61286733 2.48242188 7.41015625 C2.38638447 3.25225443 2.38638447 3.25225443 0 0 Z " fill="#040404" transform="translate(634,540)"/>
<path d="M0 0 C5.61 0 11.22 0 17 0 C17 1.65 17 3.3 17 5 C16.34 4.34 15.68 3.68 15 3 C12.34462628 2.43479997 9.70855287 2.26211802 7 2 C7 4.64 7 7.28 7 10 C8.98 10 10.96 10 13 10 C13.33 9.01 13.66 8.02 14 7 C14.33 7 14.66 7 15 7 C15 9.31 15 11.62 15 14 C14.34 13.67 13.68 13.34 13 13 C13 12.34 13 11.68 13 11 C11.02 11 9.04 11 7 11 C7 13.97 7 16.94 7 20 C9.97 20 12.94 20 16 20 C16.66 18.68 17.32 17.36 18 16 C18 17.98 18 19.96 18 22 C12.06 22 6.12 22 0 22 C0.66 21.34 1.32 20.68 2 20 C2.30903289 18.09771695 2.30903289 18.09771695 2.265625 15.9375 C2.26820313 15.14085937 2.27078125 14.34421875 2.2734375 13.5234375 C2.26570313 12.69070313 2.25796875 11.85796875 2.25 11 C2.25773437 10.16726563 2.26546875 9.33453125 2.2734375 8.4765625 C2.27085937 7.67992187 2.26828125 6.88328125 2.265625 6.0625 C2.26336914 5.33160156 2.26111328 4.60070312 2.25878906 3.84765625 C2.15448561 1.75302636 2.15448561 1.75302636 0 0 Z " fill="#000000" transform="translate(447,540)"/>
<path d="M0 0 C0.66 0.33 1.32 0.66 2 1 C2 2.98 2 4.96 2 7 C0 6 0 6 -1 3 C-2.65 2.67 -4.3 2.34 -6 2 C-6.33 3.65 -6.66 5.3 -7 7 C-6.2575 7.268125 -5.515 7.53625 -4.75 7.8125 C-2.00946954 8.99591088 -0.07380865 9.84938363 2 12 C2.4375 15 2.4375 15 2 18 C0.45493534 20.03667615 -0.72146156 20.86073078 -3 22 C-6.67329964 22.13357453 -9.49852959 22.1671568 -13 21 C-13 19.02 -13 17.04 -13 15 C-12.46375 15.66 -11.9275 16.32 -11.375 17 C-9.10041408 19.31024799 -9.10041408 19.31024799 -5.75 19.25 C-4.8425 19.1675 -3.935 19.085 -3 19 C-3 17.35 -3 15.7 -3 14 C-3.928125 13.731875 -4.85625 13.46375 -5.8125 13.1875 C-10.58823529 11.4083045 -10.58823529 11.4083045 -12 9 C-11.875 5.4375 -11.875 5.4375 -11 2 C-6.94641576 -0.70238949 -4.81689896 -0.22937614 0 0 Z " fill="#090909" transform="translate(712,540)"/>
<path d="M0 0 C6.6 0 13.2 0 20 0 C20 2.31 20 4.62 20 7 C19.34 6.34 18.68 5.68 18 5 C18 4.01 18 3.02 18 2 C16.02 2 14.04 2 12 2 C12 7.94 12 13.88 12 20 C13.32 20.66 14.64 21.32 16 22 C12.04 22 8.08 22 4 22 C4.66 21.34 5.32 20.68 6 20 C6.36831081 18.06742145 6.36831081 18.06742145 6.4140625 15.8671875 C6.47207031 14.65869141 6.47207031 14.65869141 6.53125 13.42578125 C6.5621875 12.58402344 6.593125 11.74226562 6.625 10.875 C6.66367187 10.02550781 6.70234375 9.17601562 6.7421875 8.30078125 C6.83656494 6.20088316 6.91937586 4.10047109 7 2 C5.35 2 3.7 2 2 2 C1.67 3.65 1.34 5.3 1 7 C0.67 7 0.34 7 0 7 C0 4.69 0 2.38 0 0 Z " fill="#090909" transform="translate(586,540)"/>
<path d="M0 0 C6 0 6 0 8.375 2 C10.44370773 5.81915273 10.99456251 8.74738791 10 13 C7.8125 16 7.8125 16 5 18 C3.35 18 1.7 18 0 18 C0 12.06 0 6.12 0 0 Z " fill="#FDFDFD" transform="translate(477,542)"/>
<path d="M0 0 C2 1.1875 2 1.1875 3 3 C3.1875 5.6875 3.1875 5.6875 3 8 C0.24616077 6.62308038 -0.51483101 4.63279958 -2 2 C-4.94091587 2.18415432 -4.94091587 2.18415432 -8 3 C-9.90237344 5.84096166 -10.27285926 8.18504445 -10.25 11.5625 C-10.25515625 12.32691406 -10.2603125 13.09132813 -10.265625 13.87890625 C-10.1229561 16.29982762 -10.1229561 16.29982762 -8 19 C-4.58461856 19.58369443 -4.58461856 19.58369443 -1 19 C1.44098818 17.14579161 1.44098818 17.14579161 3 15 C3 16.65 3 18.3 3 20 C-0.73020155 22.48680103 -4.67208217 22.55927368 -9 22 C-11.84124653 20.76467542 -13.42097859 19.7444561 -15.3125 17.3125 C-16.34362581 13.84416773 -16.57917512 10.55274495 -16 7 C-11.87190014 0.21812166 -7.48972148 -0.59442234 0 0 Z " fill="#070707" transform="translate(525,540)"/>
<path d="M0 0 C3.3 0 6.6 0 10 0 C9.34 0.66 8.68 1.32 8 2 C7.63168919 3.93257855 7.63168919 3.93257855 7.5859375 6.1328125 C7.54726563 6.93847656 7.50859375 7.74414062 7.46875 8.57421875 C7.4378125 9.41597656 7.406875 10.25773438 7.375 11.125 C7.33632813 11.97449219 7.29765625 12.82398438 7.2578125 13.69921875 C7.16343506 15.79911684 7.08062414 17.89952891 7 20 C9.64 20 12.28 20 15 20 C15.33 18.35 15.66 16.7 16 15 C16.33 15 16.66 15 17 15 C17 17.31 17 19.62 17 22 C11.39 22 5.78 22 0 22 C0.33 21.34 0.66 20.68 1 20 C1.09465345 18.64842019 1.13072162 17.29238852 1.1328125 15.9375 C1.13410156 15.14085937 1.13539063 14.34421875 1.13671875 13.5234375 C1.13285156 12.69070313 1.12898437 11.85796875 1.125 11 C1.12886719 10.16726563 1.13273438 9.33453125 1.13671875 8.4765625 C1.13542969 7.67992187 1.13414062 6.88328125 1.1328125 6.0625 C1.13168457 5.33160156 1.13055664 4.60070312 1.12939453 3.84765625 C1.11201795 1.90433947 1.11201795 1.90433947 0 0 Z " fill="#010101" transform="translate(557,540)"/>
<path d="M0 0 C0.495 1.485 0.495 1.485 1 3 C-2.61837478 10.04334661 -9.46096056 15.80584095 -15 21.3125 C-15.92611084 22.23659668 -16.85222168 23.16069336 -17.80639648 24.11279297 C-24.8066888 31.01168457 -32.03967364 37.25023909 -40 43 C-41.11181641 43.87785156 -41.11181641 43.87785156 -42.24609375 44.7734375 C-44 46 -44 46 -46 46 C-44.6297538 42.76815668 -43.24964688 41.17455671 -40.375 39.1875 C-25.72689154 28.62723576 -10.30182035 14.82654144 0 0 Z " fill="#8E1B1E" transform="translate(354,568)"/>
<path d="M0 0 C2.24940295 -0.08119503 4.49964871 -0.13927819 6.75 -0.1875 C8.00296875 -0.22230469 9.2559375 -0.25710938 10.546875 -0.29296875 C14.14921951 0.01266003 15.54484418 0.39753483 18 3 C18.25 5.6875 18.25 5.6875 18 8 C16.02 8.99 16.02 8.99 14 10 C14.49371094 10.69867187 14.98742187 11.39734375 15.49609375 12.1171875 C16.13675781 13.02726563 16.77742187 13.93734375 17.4375 14.875 C18.07558594 15.77992188 18.71367188 16.68484375 19.37109375 17.6171875 C21 20 21 20 22 22 C18.8125 22.5 18.8125 22.5 15 22 C12.44648935 19.23158994 10 15.86112137 10 12 C9.01 11.67 8.02 11.34 7 11 C8.65 10.01 10.3 9.02 12 8 C11.67 6.35 11.34 4.7 11 3 C10.28972656 2.95101562 9.57945312 2.90203125 8.84765625 2.8515625 C7.92855469 2.77679687 7.00945313 2.70203125 6.0625 2.625 C5.14597656 2.55539062 4.22945312 2.48578125 3.28515625 2.4140625 C2.15400391 2.20910156 2.15400391 2.20910156 1 2 C0.67 1.34 0.34 0.68 0 0 Z " fill="#060706" transform="translate(662,540)"/>
<path d="M0 0 C2.64 0 5.28 0 8 0 C7.34 0.66 6.68 1.32 6 2 C5.67862097 5.1520018 5.67862097 5.1520018 5.75 8.75 C5.74484375 9.96171875 5.7396875 11.1734375 5.734375 12.421875 C5.99594322 15.94535279 6.73145486 18.71789116 8 22 C4.7 22 1.4 22 -2 22 C-1.34 21.34 -0.68 20.68 0 20 C0.24360073 16.87185486 0.24360073 16.87185486 0.125 13.375 C0.09792969 11.59222656 0.09792969 11.59222656 0.0703125 9.7734375 C0.04710937 8.85820313 0.02390625 7.94296875 0 7 C-0.99 8.98 -1.98 10.96 -3 13 C-3.66 13 -4.32 13 -5 13 C-4.54554036 11.58208592 -4.08625056 10.16571954 -3.625 8.75 C-3.24214844 7.56664062 -3.24214844 7.56664062 -2.8515625 6.359375 C-2.04826333 4.13372042 -1.10288338 2.09068328 0 0 Z " fill="#040403" transform="translate(436,540)"/>
<path d="M0 0 C3.63 0 7.26 0 11 0 C10.34 0.66 9.68 1.32 9 2 C8.69096711 3.90228305 8.69096711 3.90228305 8.734375 6.0625 C8.73179687 6.85914063 8.72921875 7.65578125 8.7265625 8.4765625 C8.73429688 9.30929687 8.74203125 10.14203125 8.75 11 C8.74226562 11.83273437 8.73453125 12.66546875 8.7265625 13.5234375 C8.72914063 14.32007813 8.73171875 15.11671875 8.734375 15.9375 C8.73663086 16.66839844 8.73888672 17.39929688 8.74121094 18.15234375 C8.84551439 20.24697364 8.84551439 20.24697364 11 22 C7.7 22 4.4 22 1 22 C1.33 21.34 1.66 20.68 2 20 C2.23542471 17.00555594 2.18517593 14.00270151 2.1875 11 C2.19974609 10.16726563 2.21199219 9.33453125 2.22460938 8.4765625 C2.22654297 7.67992187 2.22847656 6.88328125 2.23046875 6.0625 C2.23457764 5.33160156 2.23868652 4.60070312 2.24291992 3.84765625 C2.15817335 1.75223993 2.15817335 1.75223993 0 0 Z " fill="#010101" transform="translate(685,540)"/>
<path d="M0 0 C3.3 0 6.6 0 10 0 C9.67 0.66 9.34 1.32 9 2 C8.90534655 3.35157981 8.86927838 4.70761148 8.8671875 6.0625 C8.86589844 6.85914063 8.86460937 7.65578125 8.86328125 8.4765625 C8.86714844 9.30929687 8.87101562 10.14203125 8.875 11 C8.87113281 11.83273437 8.86726563 12.66546875 8.86328125 13.5234375 C8.86521484 14.71839844 8.86521484 14.71839844 8.8671875 15.9375 C8.86831543 16.66839844 8.86944336 17.39929688 8.87060547 18.15234375 C8.88798205 20.09566053 8.88798205 20.09566053 10 22 C6.7 22 3.4 22 0 22 C0.66 21.34 1.32 20.68 2 20 C2.36831081 18.06742145 2.36831081 18.06742145 2.4140625 15.8671875 C2.45273437 15.06152344 2.49140625 14.25585938 2.53125 13.42578125 C2.5621875 12.58402344 2.593125 11.74226562 2.625 10.875 C2.66367187 10.02550781 2.70234375 9.17601562 2.7421875 8.30078125 C2.83656494 6.20088316 2.91937586 4.10047109 3 2 C2.01 1.67 1.02 1.34 0 1 C0 0.67 0 0.34 0 0 Z " fill="#010101" transform="translate(495,540)"/>
<path d="M0 0 C2.05078125 0.03255208 4.1015625 0.06510417 6.15234375 0.09765625 C5.16234375 0.42765625 4.17234375 0.75765625 3.15234375 1.09765625 C3.48234375 7.69765625 3.81234375 14.29765625 4.15234375 21.09765625 C4.81234375 21.42765625 5.47234375 21.75765625 6.15234375 22.09765625 C2.85234375 22.09765625 -0.44765625 22.09765625 -3.84765625 22.09765625 C-3.18765625 21.43765625 -2.52765625 20.77765625 -1.84765625 20.09765625 C-1.60387742 16.74021513 -1.60387742 16.74021513 -1.72265625 12.97265625 C-1.74070312 11.69132813 -1.75875 10.41 -1.77734375 9.08984375 C-1.80054688 8.10242188 -1.82375 7.115 -1.84765625 6.09765625 C-2.17765625 6.75765625 -2.50765625 7.41765625 -2.84765625 8.09765625 C-3.50765625 8.09765625 -4.16765625 8.09765625 -4.84765625 8.09765625 C-2.67780446 0.14153301 -2.67780446 0.14153301 0 0 Z " fill="#020201" transform="translate(740.84765625,539.90234375)"/>
<path d="M0 0 C6.58768549 12.3173111 3.66986599 25.04797152 1 38 C0.67 38 0.34 38 0 38 C0.00523682 37.23445801 0.01047363 36.46891602 0.01586914 35.68017578 C0.03684667 32.16179243 0.04972565 28.64342232 0.0625 25.125 C0.07087891 23.92101562 0.07925781 22.71703125 0.08789062 21.4765625 C0.10501039 15.1764878 -0.05848589 9.03893656 -0.88110352 2.78857422 C-0.92033936 2.19834473 -0.9595752 1.60811523 -1 1 C-0.67 0.67 -0.34 0.34 0 0 Z " fill="#C5AFB1" transform="translate(368,483)"/>
<path d="M0 0 C0.2578125 0.52207031 0.515625 1.04414062 0.78125 1.58203125 C2.32040162 4.63566859 3.90201993 7.66420296 5.5 10.6875 C6.1084375 11.84636719 6.716875 13.00523437 7.34375 14.19921875 C8.70464241 17.07825835 8.70464241 17.07825835 11 18 C14.09604595 18.34160786 17.20005768 18.37039158 20.3125 18.4375 C21.16779297 18.48326172 22.02308594 18.52902344 22.90429688 18.57617188 C27.64620161 18.73818572 27.64620161 18.73818572 31.72021484 16.63330078 C33.28809252 14.82545209 33.28809252 14.82545209 35 12 C35.66 12.33 36.32 12.66 37 13 C35.68 15.31 34.36 17.62 33 20 C24.75 20 16.5 20 8 20 C6.494375 17.256875 4.98875 14.51375 3.4375 11.6875 C2.71904907 10.39718872 2.71904907 10.39718872 1.98608398 9.08081055 C1.61813721 8.39801025 1.25019043 7.71520996 0.87109375 7.01171875 C0.48880615 6.31522217 0.10651855 5.61872559 -0.28735352 4.90112305 C-1 3 -1 3 0 0 Z " fill="#E3D1CF" transform="translate(190,527)"/>
<path d="M0 0 C0.66 0.33 1.32 0.66 2 1 C-13 16 -13 16 -14.65039062 17.59570312 C-16.29599403 19.307988 -17.17018958 21.04764016 -18.1875 23.1875 C-18.53167969 23.90292969 -18.87585938 24.61835938 -19.23046875 25.35546875 C-19.48441406 25.89816406 -19.73835937 26.44085938 -20 27 C-20.66 26.34 -21.32 25.68 -22 25 C-16.53440429 14.61361072 -10.2345687 6.03577129 0 0 Z " fill="#E2C9C6" transform="translate(209,455)"/>
<path d="M0 0 C0 0.66 0 1.32 0 2 C-0.67804688 2.32871094 -1.35609375 2.65742188 -2.0546875 2.99609375 C-9.39871432 6.74948142 -15.11995167 11.24685919 -21 17 C-21.57234375 17.556875 -22.1446875 18.11375 -22.734375 18.6875 C-23.83693365 19.77767035 -24.92173635 20.88579423 -26 22 C-24.03977226 13.07007364 -16.53058064 8.43748201 -9.4296875 3.48046875 C-6.43147893 1.65358604 -3.56856546 0 0 0 Z " fill="#98191B" transform="translate(217,450)"/>
<path d="M0 0 C0.99 0.33 1.98 0.66 3 1 C4.1875 4.5625 4.1875 4.5625 5 8 C2.69 8.33 0.38 8.66 -2 9 C-2.67801034 11.90073181 -2.67801034 11.90073181 -3 15 C-2.34 15.66 -1.68 16.32 -1 17 C-3.31 17 -5.62 17 -8 17 C-6.85700498 14.35290709 -5.71075628 11.70730948 -4.5625 9.0625 C-4.23701172 8.30775391 -3.91152344 7.55300781 -3.57617188 6.77539062 C-1.11328125 1.11328125 -1.11328125 1.11328125 0 0 Z " fill="#0A0A0A" transform="translate(539,545)"/>
<path d="M0 0 C2.31 0 4.62 0 7 0 C6.67 0.66 6.34 1.32 6 2 C5.80005143 5.50576489 5.68147212 9.00975718 5.57421875 12.51953125 C4.91611668 16.50843565 3.85502293 18.18658032 1 21 C0.01 21.33 -0.98 21.66 -2 22 C-2 21.01 -2 20.02 -2 19 C-1.03320312 18.12601563 -1.03320312 18.12601563 -0.046875 17.234375 C2.68762281 14.24938884 2.59035212 12.24119699 2.75 8.25 C2.80671875 7.07953125 2.8634375 5.9090625 2.921875 4.703125 C2.94765625 3.81109375 2.9734375 2.9190625 3 2 C2.01 1.67 1.02 1.34 0 1 C0 0.67 0 0.34 0 0 Z " fill="#151515" transform="translate(651,540)"/>
<path d="M0 0 C0.33 0.66 0.66 1.32 1 2 C-0.91575126 3.12655813 -2.83263719 4.25118687 -4.75 5.375 C-5.81734375 6.00148438 -6.8846875 6.62796875 -7.984375 7.2734375 C-11 9 -11 9 -13.265625 9.9765625 C-15.51257582 11.30246591 -15.91615801 12.6589013 -17 15 C-18.7265625 16.921875 -18.7265625 16.921875 -20.625 18.75 C-21.57246094 19.67039062 -21.57246094 19.67039062 -22.5390625 20.609375 C-23.02117187 21.06828125 -23.50328125 21.5271875 -24 22 C-24 17.77354965 -22.16849502 16.3222076 -19.40625 13.265625 C-13.80214334 7.98903107 -6.98733047 3.23015277 0 0 Z " fill="#89222D" transform="translate(209,441)"/>
<path d="M0 0 C1.134375 0.020625 2.26875 0.04125 3.4375 0.0625 C4.0975 1.3825 4.7575 2.7025 5.4375 4.0625 C3.4575 3.4025 1.4775 2.7425 -0.5625 2.0625 C-1.09359375 2.59359375 -1.6246875 3.1246875 -2.171875 3.671875 C-5.63541667 7.13541667 -9.09895833 10.59895833 -12.5625 14.0625 C-10.73238601 8.20613522 -6.51860051 0.11436141 0 0 Z " fill="#911821" transform="translate(242.5625,521.9375)"/>
<path d="M0 0 C0.66 0 1.32 0 2 0 C1.39496146 5.6555181 0.37814297 11.00213991 -1.0625 16.5 C-1.24876953 17.22703125 -1.43503906 17.9540625 -1.62695312 18.703125 C-2.08026455 20.46987724 -2.5395002 22.23510775 -3 24 C-3.66 24 -4.32 24 -5 24 C-5.33 22.68 -5.66 21.36 -6 20 C-5.34 20 -4.68 20 -4 20 C-4.020625 19.0925 -4.04125 18.185 -4.0625 17.25 C-4.0110245 14.57327412 -3.7784983 12.53011948 -3 10 C-2.34 10 -1.68 10 -1 10 C-0.67 6.7 -0.34 3.4 0 0 Z " fill="#DED7D5" transform="translate(268,532)"/>
<path d="M0 0 C0.66 0.33 1.32 0.66 2 1 C-1.3 5.95 -4.6 10.9 -8 16 C-10.71843438 12.37542083 -11.41789544 11.19115285 -12 7 C-10.68 8.32 -9.36 9.64 -8 11 C-5.36 7.37 -2.72 3.74 0 0 Z " fill="#E1D5D3" transform="translate(313,505)"/>
<path d="M0 0 C0.66 0.33 1.32 0.66 2 1 C1.97679687 1.98742187 1.95359375 2.97484375 1.9296875 3.9921875 C1.91164063 5.27351562 1.89359375 6.55484375 1.875 7.875 C1.85179687 9.15117188 1.82859375 10.42734375 1.8046875 11.7421875 C1.64358476 15.08593338 1.64358476 15.08593338 4 17 C1.69 17 -0.62 17 -3 17 C-2.67 16.34 -2.34 15.68 -2 15 C-1.6087065 12.45802036 -1.25520881 9.92608411 -0.9375 7.375 C-0.84662109 6.66859375 -0.75574219 5.9621875 -0.66210938 5.234375 C-0.43816881 3.4899959 -0.21866182 1.74504866 0 0 Z " fill="#242423" transform="translate(418,545)"/>
<path d="M0 0 C2.475 0.495 2.475 0.495 5 1 C5.625 3.375 5.625 3.375 6 6 C5.34 6.66 4.68 7.32 4 8 C2.68 8 1.36 8 0 8 C0 5.36 0 2.72 0 0 Z " fill="#FBFBFB" transform="translate(669,542)"/>
<path d="M0 0 C0.66 0.33 1.32 0.66 2 1 C0.57512189 3.34193802 -0.86369923 5.67293396 -2.3125 8 C-2.71662109 8.66773438 -3.12074219 9.33546875 -3.53710938 10.0234375 C-4.6113438 11.73522569 -5.79941276 13.37433438 -7 15 C-7.99 15 -8.98 15 -10 15 C-7.52468799 9.32134304 -3.8873914 4.79267433 0 0 Z " fill="#911821" transform="translate(239,542)"/>
<path d="M0 0 C-1.73638246 1.1575883 -3.49757682 2.28240847 -5.3125 3.3125 C-8.47952134 5.30109479 -11.16643372 7.56181506 -14 10 C-11.29808774 2.11942257 -8.34214049 -1.63215792 0 0 Z " fill="#951922" transform="translate(324,504)"/>
<path d="M0 0 C0 0.99 0 1.98 0 3 C-0.7425 2.7525 -1.485 2.505 -2.25 2.25 C-3.61125 2.12625 -3.61125 2.12625 -5 2 C-7.2085766 3.87508162 -7.2085766 3.87508162 -9 6 C-9.66 6 -10.32 6 -11 6 C-10.6875 3.625 -10.6875 3.625 -10 1 C-6.1496895 -1.56687367 -4.41430237 -0.83288724 0 0 Z " fill="#8D1922" transform="translate(291,492)"/>
<path d="M0 0 C-0.886875 0.53625 -1.77375 1.0725 -2.6875 1.625 C-6.18288216 3.93311458 -8.44874658 6.69837793 -11 10 C-11.99 9.67 -12.98 9.34 -14 9 C-12.7121669 7.51749445 -11.41960936 6.03909182 -10.125 4.5625 C-9.40570313 3.73878906 -8.68640625 2.91507813 -7.9453125 2.06640625 C-5.04014285 -1.01960729 -3.93008249 -1.17902475 0 0 Z " fill="#841B22" transform="translate(350,564)"/>
<path d="M0 0 C0.66 0 1.32 0 2 0 C2.99 1.98 3.98 3.96 5 6 C9.31392226 5.5206753 11.16569547 4.2542015 14 1 C13.25 5.75 13.25 5.75 11 8 C7.625 8.5 7.625 8.5 4 8 C0 3.28205128 0 3.28205128 0 0 Z " fill="#851C1F" transform="translate(259,574)"/>
<path d="M0 0 C0.33 0 0.66 0 1 0 C1.12117187 1.05960938 1.24234375 2.11921875 1.3671875 3.2109375 C1.53600752 4.59901324 1.70530308 5.98703119 1.875 7.375 C1.95363281 8.07367187 2.03226563 8.77234375 2.11328125 9.4921875 C2.55220445 13.69072159 2.55220445 13.69072159 5 17 C2.36 17 -0.28 17 -3 17 C-2.34 16.34 -1.68 15.68 -1 15 C-0.69400937 12.43083343 -0.48912913 9.95241616 -0.375 7.375 C-0.33632813 6.66859375 -0.29765625 5.9621875 -0.2578125 5.234375 C-0.16352276 3.49001476 -0.08067109 1.74504309 0 0 Z " fill="#181818" transform="translate(720,545)"/>
<path d="M0 0 C0.66 0.66 1.32 1.32 2 2 C0.35 5.3 -1.3 8.6 -3 12 C-3.33 12 -3.66 12 -4 12 C-4.50423019 6.70558305 -3.18923033 4.18586481 0 0 Z " fill="#97161B" transform="translate(189,472)"/>
<path d="M0 0 C0.66 0 1.32 0 2 0 C2.66 2.31 3.32 4.62 4 7 C2.02 7 0.04 7 -2 7 C-1.34 4.69 -0.68 2.38 0 0 Z " fill="#F9F9F8" transform="translate(540,546)"/>
<path d="M0 0 C-1.625 1.5625 -1.625 1.5625 -4 3 C-7.1875 2.8125 -7.1875 2.8125 -10 2 C-10.33 1.34 -10.66 0.68 -11 0 C-9.54263913 -0.19491452 -8.08405407 -0.38069358 -6.625 -0.5625 C-5.81289063 -0.66691406 -5.00078125 -0.77132813 -4.1640625 -0.87890625 C-2 -1 -2 -1 0 0 Z " fill="#9A1A1E" transform="translate(283,463)"/>
<path d="M0 0 C0.66 0.33 1.32 0.66 2 1 C2 1.66 2 2.32 2 3 C-1.96 4.98 -1.96 4.98 -6 7 C-5 3 -5 3 -2.5625 1.1875 C-1.716875 0.795625 -0.87125 0.40375 0 0 Z " fill="#911B1C" transform="translate(299,617)"/>
<path d="M0 0 C1.32 0.33 2.64 0.66 4 1 C4.33 3.31 4.66 5.62 5 8 C2.2175651 6.60878255 1.44789935 4.69835788 0 2 C0 1.34 0 0.68 0 0 Z " fill="#131313" transform="translate(523,540)"/>
<path d="M0 0 C0.66 0.33 1.32 0.66 2 1 C0.68 3.31 -0.64 5.62 -2 8 C-2.99 7.34 -3.98 6.68 -5 6 C-3.35 4.02 -1.7 2.04 0 0 Z " fill="#E2C8C6" transform="translate(225,539)"/>
<path d="M0 0 C2.0625 0.4375 2.0625 0.4375 4 1 C4 2.98 4 4.96 4 7 C2 6 2 6 1 3 C0.34 2.34 -0.32 1.68 -1 1 C-0.67 0.67 -0.34 0.34 0 0 Z " fill="#393838" transform="translate(710,540)"/>
<path d="M0 0 C0.433125 0.61875 0.86625 1.2375 1.3125 1.875 C2.99740483 4.2197245 2.99740483 4.2197245 6 6 C5.01 6.99 4.02 7.98 3 9 C0 3.375 0 3.375 0 0 Z " fill="#E9E3E4" transform="translate(301,512)"/>
</svg>
