<?xml version="1.0" encoding="UTF-8"?>
<svg version="1.1" xmlns="http://www.w3.org/2000/svg" width="512" height="512">
<path d="M0 0 C1.16866608 -0.03520248 2.33733215 -0.07040497 3.54141235 -0.10667419 C5.43202896 -0.12746788 5.43202896 -0.12746788 7.36083984 -0.14868164 C9.3144191 -0.17932457 9.3144191 -0.17932457 11.3074646 -0.21058655 C14.06638675 -0.24805366 16.82483444 -0.26746495 19.58398438 -0.27734375 C23.09621435 -0.29363687 26.60301487 -0.37916198 30.11362648 -0.48203182 C33.4876137 -0.56577825 36.86086045 -0.57050104 40.23583984 -0.58618164 C41.48410553 -0.63040756 42.73237122 -0.67463348 44.01846313 -0.72019958 C49.43322202 -0.66512124 52.85294548 -0.44898624 57.16436768 3.00843811 C59.70731337 5.77764379 61.97883701 8.59553384 64.19677734 11.62866211 C65.34936742 13.06520004 66.50476781 14.49949847 67.66552734 15.92944336 C68.68209708 17.26201138 69.69252557 18.59928658 70.69677734 19.94116211 C71.24519287 20.66843506 71.7936084 21.39570801 72.35864258 22.14501953 C73.97835698 24.30110378 75.58827063 26.46421047 77.19677734 28.62866211 C77.86990967 29.52391602 77.86990967 29.52391602 78.55664062 30.43725586 C91.80176818 48.09063095 102.28029544 67.36279629 111.19677734 87.50366211 C111.65177612 88.53088379 111.65177612 88.53088379 112.1159668 89.57885742 C114.19677734 94.38006942 114.19677734 94.38006942 114.19677734 96.62866211 C115.38013672 96.35151367 116.56349609 96.07436523 117.78271484 95.78881836 C134.53193721 91.9225218 134.53193721 91.9225218 142.19677734 91.62866211 C143.68564453 91.55131836 143.68564453 91.55131836 145.20458984 91.47241211 C150.79932155 91.31664232 155.79436304 91.471989 161.25927734 92.65209961 C170.34094811 95.08649847 170.34094811 95.08649847 178.93505859 92.95288086 C180.99876081 90.29364133 182.57380139 87.57492782 184.19677734 84.62866211 C203.01552496 61.04201682 230.7723979 47.51983008 260.48193359 44.08056641 C270.12429296 43.13744686 278.32374751 43.48231287 286.19677734 49.62866211 C290.75778375 54.31233617 293.09511172 59.63978153 293.26318359 66.23413086 C292.91274979 73.93305523 290.82294438 78.85979868 285.50927734 84.38256836 C279.94920132 89.18971742 274.29231593 89.7489813 267.19677734 90.62866211 C246.82845174 93.95498464 232.17810635 101.67377828 218.19677734 116.62866211 C231.12097707 127.48874283 246.3299066 130.79443778 262.81054688 129.85327148 C271.39469031 129.04526944 280.01037233 126.91439841 288.07177734 123.87866211 C294.56379553 121.57010554 302.13657602 121.34986793 308.50927734 124.12866211 C313.88987114 127.29636033 317.90763806 131.99433401 320.63427734 137.56616211 C322.26743281 146.45778629 321.04316334 153.22970194 316.13427734 160.81616211 C304.60685664 173.32392065 278.48430485 176.24483271 262.38427734 177.12866211 C258.74012663 177.01537245 258.19014805 176.62362384 255.07177734 174.25366211 C253.19677734 171.62866211 253.19677734 171.62866211 253.19677734 169.62866211 C250.3236967 169.15583856 247.45405421 168.72504325 244.57177734 168.31616211 C243.76353516 168.17887695 242.95529297 168.0415918 242.12255859 167.90014648 C237.584701 167.21113794 237.584701 167.21113794 233.39941406 168.69702148 C231.96217042 169.9675826 230.5765111 171.29587196 229.19677734 172.62866211 C215.19378126 173.11152404 200.24176072 162.31924313 189.19677734 154.62866211 C188.99831864 161.91057007 189.73154315 168.80801178 190.82177734 176.00366211 C191.08800903 177.76564941 191.08800903 177.76564941 191.35961914 179.56323242 C194.51907199 199.69686913 199.28756306 219.25040818 205.64941406 238.60522461 C206.19677734 240.62866211 206.19677734 240.62866211 206.19677734 243.62866211 C206.86580078 243.3747168 207.53482422 243.12077148 208.22412109 242.85913086 C237.90540112 232.22167882 270.34538873 234.60207052 298.82958984 247.70288086 C307.78295702 252.05119215 315.86251539 256.72517343 320.36083984 266.03881836 C322.4943001 272.64855738 322.03848762 279.66897938 319.25927734 286.00366211 C316.12726379 291.56074901 311.30197343 295.30623728 305.22021484 297.26538086 C302.91588304 297.67909294 300.72578678 297.83441311 298.38427734 297.87866211 C297.57345703 297.90444336 296.76263672 297.93022461 295.92724609 297.95678711 C290.02755181 297.24781097 284.91644897 293.9709581 279.75927734 291.19116211 C263.64332249 282.97028757 245.65491291 280.86042731 228.18896484 285.97241211 C227.53154297 286.18897461 226.87412109 286.40553711 226.19677734 286.62866211 C231.99678972 298.50634703 238.05015967 310.14035578 245.13427734 321.31616211 C248.99744971 327.52065106 248.78897014 333.488509 248.19677734 340.62866211 C246.51692211 346.90282021 242.4523039 351.00972497 237.19677734 354.62866211 C231.05122046 358.0817648 224.9609517 358.08550945 218.29443359 356.34741211 C206.61096948 352.34413949 200.91281085 339.67695938 195.19677734 329.62866211 C194.72933105 328.80881836 194.26188477 327.98897461 193.78027344 327.14428711 C186.13060575 313.63922463 179.39356902 299.85632943 173.19677734 285.62866211 C172.53677734 285.62866211 171.87677734 285.62866211 171.19677734 285.62866211 C169.56814229 287.5713251 168.0929037 289.49975173 166.63427734 291.56616211 C165.97262573 292.50310913 165.97262573 292.50310913 165.29760742 293.45898438 C156.25237617 306.57998358 149.8769185 320.38765755 146.14990234 335.90991211 C145.89237183 336.98196899 145.89237183 336.98196899 145.62963867 338.07568359 C145.16278511 340.06941752 144.7237799 342.06961356 144.28662109 344.07006836 C142.29477718 350.57390279 138.68752341 354.7217851 133.19677734 358.62866211 C127.3138221 361.67998745 121.56140126 362.74613539 115.09130859 361.08959961 C107.63645692 358.5440405 103.91954331 354.69858402 100.21240234 347.84741211 C96.69044267 340.15328483 98.38768562 332.59454775 100.32177734 324.69116211 C100.659552 323.30344604 100.659552 323.30344604 101.00415039 321.88769531 C107.22025987 297.19160593 119.35651798 273.75587028 136.19677734 254.62866211 C136.93798828 253.77788086 137.67919922 252.92709961 138.44287109 252.05053711 C141.45326697 248.64884194 144.42031004 245.3281822 147.79833984 242.28491211 C148.63107422 241.53209961 149.46380859 240.77928711 150.32177734 240.00366211 C151.08748047 239.35139648 151.85318359 238.69913086 152.64208984 238.02709961 C154.53064118 235.11360584 154.34242474 233.37960012 153.72998047 230.02514648 C153.46604492 228.83888672 153.46604492 228.83888672 153.19677734 227.62866211 C153.00019531 226.71407227 152.80361328 225.79948242 152.60107422 224.85717773 C151.88498564 221.62959009 151.13511094 218.41083446 150.38427734 215.19116211 C144.64533432 189.91879986 140.74942715 164.57497309 141.19677734 138.62866211 C135.91677734 139.61866211 130.63677734 140.60866211 125.19677734 141.62866211 C125.23158203 143.95799805 125.26638672 146.28733398 125.30224609 148.68725586 C125.32581219 151.00763735 125.34393086 153.32800422 125.36157227 155.6484375 C125.37642375 157.22988094 125.3967104 158.81128506 125.4230957 160.39257812 C126.06060786 199.65582711 109.28419635 232.25257114 88.49365234 264.49584961 C84.22898736 271.11217271 80.12835842 277.80946833 76.19677734 284.62866211 C75.85453125 285.21599121 75.51228516 285.80332031 75.15966797 286.40844727 C53.59616121 323.74001548 50.80560871 367.09587275 61.31738281 408.38696289 C69.12383476 437.16377271 80.84600729 464.98124605 97.04052734 490.07397461 C97.50571777 490.79762207 97.9709082 491.52126953 98.45019531 492.2668457 C99.33599671 493.63070866 100.23522156 494.98598902 101.15039062 496.33032227 C103.71636601 500.24190798 105.05292823 502.95177817 104.19677734 507.62866211 C102.88842773 510.26586914 102.88842773 510.26586914 100.19677734 512.62866211 C96.34327036 513.40290197 92.52633157 513.32875096 88.60693359 513.29272461 C86.90191933 513.29990005 86.90191933 513.29990005 85.16246033 513.30722046 C82.75925309 513.31062206 80.35599975 513.30140169 77.95288086 513.28051758 C74.27596636 513.25378345 70.60211175 513.28024712 66.92529297 513.31225586 C64.58999977 513.30895133 62.25470848 513.3025442 59.91943359 513.29272461 C58.82035172 513.30284576 57.72126984 513.31296692 56.58888245 513.32339478 C48.99489189 513.20694364 48.99489189 513.20694364 45.16186523 510.4296875 C43.26047483 507.71945615 41.56462112 505.08338218 40.03271484 502.14819336 C39.47342285 501.07996338 38.91413086 500.0117334 38.33789062 498.91113281 C37.46366455 497.19349731 37.46366455 497.19349731 36.57177734 495.44116211 C36.26786072 494.84830414 35.96394409 494.25544617 35.65081787 493.6446228 C25.27155378 473.35529238 16.87158271 452.41885649 10.19677734 430.62866211 C9.95813965 429.8586084 9.71950195 429.08855469 9.47363281 428.29516602 C4.36996036 411.58567401 4.36996036 411.58567401 6.19677734 405.62866211 C8.73193359 403.35913086 8.73193359 403.35913086 11.19677734 401.62866211 C10.98021484 400.32541992 10.98021484 400.32541992 10.75927734 398.99584961 C10.57365234 397.84342773 10.38802734 396.69100586 10.19677734 395.50366211 C10.01115234 394.36670898 9.82552734 393.22975586 9.63427734 392.05834961 C9.22721685 388.86728609 9.11867833 385.8404842 9.19677734 382.62866211 C8.24802734 382.52553711 7.29927734 382.42241211 6.32177734 382.31616211 C3.19677734 381.62866211 3.19677734 381.62866211 1.19677734 378.62866211 C-6.61907568 338.90222445 8.60298342 295.43187228 26.19677734 260.62866211 C23.74967042 261.43924709 21.31677798 262.27607833 18.88427734 263.12866211 C18.21332031 263.34780273 17.54236328 263.56694336 16.85107422 263.79272461 C4.88965128 268.06065016 -3.77145027 277.2335687 -12.36572266 286.19116211 C-25.53511272 299.91523817 -25.53511272 299.91523817 -33.80322266 304.62866211 C-34.46322266 304.62866211 -35.12322266 304.62866211 -35.80322266 304.62866211 C-35.78751221 305.42747803 -35.77180176 306.22629395 -35.75561523 307.04931641 C-35.07573084 347.04200981 -41.39882508 391.18000322 -68.80322266 422.62866211 C-72.88061539 426.81233759 -76.9834345 429.31816047 -82.85400391 429.96459961 C-90.8631564 430.0605176 -96.41483789 429.49605143 -102.51416016 424.12084961 C-107.13741665 419.2720684 -109.4435409 413.91663284 -110.00244141 407.25366211 C-109.76710182 399.52461466 -105.85295804 393.98363148 -101.80322266 387.62866211 C-88.88423483 366.56077427 -83.86575419 345.10765483 -81.80322266 320.62866211 C-82.49134033 320.64437256 -83.17945801 320.66008301 -83.88842773 320.67626953 C-107.13410391 321.13464587 -107.13410391 321.13464587 -118.42822266 319.44116211 C-119.16532471 319.3402124 -119.90242676 319.2392627 -120.66186523 319.13525391 C-127.22052466 318.01404446 -132.48092865 315.01372082 -137.11572266 310.25366211 C-141.32075831 303.71249554 -142.83711355 298.38878571 -141.80322266 290.62866211 C-139.9289758 283.40279216 -135.88003745 278.81464803 -129.80322266 274.62866211 C-123.69556391 271.50696986 -116.21569275 272.10811582 -109.57666016 273.12084961 C-92.62308842 275.40238618 -73.44822475 274.39199684 -58.80322266 264.62866211 C-57.43732712 263.32870636 -56.09519562 262.00211084 -54.80322266 260.62866211 C-76.30196917 239.68635374 -102.80605816 228.93287388 -132.25097656 225.14697266 C-140.05754596 224.06631882 -144.856616 222.37283981 -150.05322266 216.19116211 C-150.53275391 215.63557617 -151.01228516 215.07999023 -151.50634766 214.50756836 C-155.54933525 208.65010742 -155.50974996 202.5061241 -154.80322266 195.62866211 C-153.07023363 189.39197707 -149.14241373 185.13352987 -143.80322266 181.62866211 C-130.12429627 174.09245526 -109.43602617 180.33595004 -95.36572266 184.25366211 C-66.51100783 192.70640569 -41.53027188 207.96928115 -19.80322266 228.62866211 C-17.01891558 227.57020829 -14.36811053 226.41110605 -11.70166016 225.07788086 C5.53756849 216.45826653 22.52594419 213.43952551 41.69677734 213.56616211 C42.99615234 213.57067383 44.29552734 213.57518555 45.63427734 213.57983398 C48.8218256 213.59155291 52.00927689 213.60795992 55.19677734 213.62866211 C69.19627407 187.1928879 75.59762688 158.19851627 67.19677734 128.62866211 C66.87410889 127.46753906 66.87410889 127.46753906 66.54492188 126.28295898 C58.88472392 99.5112692 44.66389679 75.1733707 27.19677734 53.62866211 C26.45943359 52.69924805 25.72208984 51.76983398 24.96240234 50.81225586 C20.12648929 44.78451317 15.01333473 39.06983457 9.75927734 33.40991211 C7.65019844 31.12078989 5.59699022 28.80391047 3.57177734 26.44116211 C0.25007815 22.59540843 -3.34198086 19.05366684 -6.98291016 15.51147461 C-9.49822467 12.90979736 -9.77483254 11.93527541 -10.11572266 8.25366211 C-9.80322266 4.62866211 -9.80322266 4.62866211 -8.14639282 2.44139099 C-5.23590209 0.18977023 -3.65332235 0.08643959 0 0 Z " fill="#010101" transform="translate(172.80322265625,-0.628662109375)"/>
<path d="M0 0 C5.03587109 1.06528042 7.66366977 4.12511855 11.25 7.6875 C12.22764401 8.63954947 13.2055229 9.59135779 14.18359375 10.54296875 C19.79758921 16.04749174 25.17852778 21.67605663 30.25 27.6875 C31.03375 28.58210938 31.8175 29.47671875 32.625 30.3984375 C66.53718009 69.32717499 92.5182309 115.90492695 90.25 168.6875 C88.04039343 198.16493257 72.6921692 222.80530778 56.95068359 247.05273438 C43.16283524 268.413409 31.26171152 290.63089895 25.125 315.4375 C24.87363281 316.406875 24.62226563 317.37625 24.36328125 318.375 C20.62741236 333.31847558 19.91451336 347.95374993 19.79370117 363.25610352 C19.7721078 365.56042515 19.73277426 367.86392982 19.69140625 370.16796875 C19.69129044 370.86585007 19.69117462 371.56373138 19.6910553 372.28276062 C19.60792633 376.34616354 19.18028636 378.78373817 16.25 381.6875 C13.59574524 382.7339413 11.08689743 382.91628205 8.25 382.6875 C5.8125 381.1875 5.8125 381.1875 4.25 378.6875 C-3.32685706 338.78271951 11.56274857 295.67558338 29.25 260.6875 C26.80289307 261.49808498 24.37000064 262.33491622 21.9375 263.1875 C21.26654297 263.40664063 20.59558594 263.62578125 19.90429688 263.8515625 C7.94287394 268.11948805 -0.71822761 277.29240659 -9.3125 286.25 C-22.48189006 299.97407606 -22.48189006 299.97407606 -30.75 304.6875 C-31.41 304.6875 -32.07 304.6875 -32.75 304.6875 C-32.73428955 305.48631592 -32.7185791 306.28513184 -32.70239258 307.1081543 C-32.02250818 347.1008477 -38.34560243 391.23884111 -65.75 422.6875 C-69.82739273 426.87117548 -73.93021184 429.37699836 -79.80078125 430.0234375 C-87.80993374 430.11935549 -93.36161523 429.55488932 -99.4609375 424.1796875 C-104.084194 419.3309063 -106.39031824 413.97547073 -106.94921875 407.3125 C-106.71387916 399.58345255 -102.79973538 394.04246937 -98.75 387.6875 C-85.83101217 366.61961216 -80.81253154 345.16649272 -78.75 320.6875 C-79.43811768 320.70321045 -80.12623535 320.7189209 -80.83520508 320.73510742 C-104.08088126 321.19348376 -104.08088126 321.19348376 -115.375 319.5 C-116.11210205 319.39905029 -116.8492041 319.29810059 -117.60864258 319.1940918 C-124.167302 318.07288235 -129.42770599 315.07255871 -134.0625 310.3125 C-138.26753565 303.77133343 -139.78389089 298.4476236 -138.75 290.6875 C-136.87575314 283.46163005 -132.82681479 278.87348592 -126.75 274.6875 C-120.64234125 271.56580775 -113.16247009 272.16695371 -106.5234375 273.1796875 C-89.56986576 275.46122407 -70.39500209 274.45083473 -55.75 264.6875 C-54.38410447 263.38754425 -53.04197296 262.06094873 -51.75 260.6875 C-73.24874652 239.74519163 -99.7528355 228.99171177 -129.19775391 225.20581055 C-137.0043233 224.12515671 -141.80339334 222.4316777 -147 216.25 C-147.47953125 215.69441406 -147.9590625 215.13882813 -148.453125 214.56640625 C-152.49611259 208.70894531 -152.4565273 202.56496199 -151.75 195.6875 C-150.01701098 189.45081496 -146.08919107 185.19236776 -140.75 181.6875 C-127.07107361 174.15129315 -106.38280351 180.39478793 -92.3125 184.3125 C-63.45778518 192.76524358 -38.47704922 208.02811904 -16.75 228.6875 C-13.96569292 227.62904619 -11.31488788 226.46994394 -8.6484375 225.13671875 C8.59079115 216.51710443 25.57916685 213.4983634 44.75 213.625 C46.049375 213.62951172 47.34875 213.63402344 48.6875 213.63867188 C51.87504825 213.6503908 55.06249955 213.66679781 58.25 213.6875 C72.24949672 187.25172579 78.65084954 158.25735416 70.25 128.6875 C69.92733154 127.52637695 69.92733154 127.52637695 69.59814453 126.34179688 C61.93794658 99.57010709 47.71711945 75.23220859 30.25 53.6875 C29.51265625 52.75808594 28.7753125 51.82867187 28.015625 50.87109375 C23.17971195 44.84335106 18.06655739 39.12867246 12.8125 33.46875 C10.7034211 31.17962778 8.65021288 28.86274836 6.625 26.5 C3.30330081 22.65424632 -0.28875821 19.11250473 -3.9296875 15.5703125 C-6.44500202 12.96863525 -6.72160988 11.9941133 -7.0625 8.3125 C-6.75 4.6875 -6.75 4.6875 -5.125 2.25 C-2.75 0.6875 -2.75 0.6875 0 0 Z " fill="#010001" transform="translate(169.75,-0.6875)"/>
<path d="M0 0 C14.19 0 28.38 0 43 0 C44 3 44 3 43.0625 6.0625 C42.96250578 12.36213557 46.97132877 15.43703853 51 20 C63.83888916 35.28328749 75.10904688 51.66819011 85 69 C85.99580078 70.70929688 85.99580078 70.70929688 87.01171875 72.453125 C107.24670548 108.06372956 116.89179976 152.64998744 105.96484375 192.82421875 C102.10692677 205.52254468 97.28698599 217.31131459 91 229 C90.66129883 229.63728027 90.32259766 230.27456055 89.97363281 230.93115234 C85.07277705 240.10222194 79.58556918 248.81186073 73.87939453 257.50024414 C58.91862372 280.33545051 46.70438662 303.83503579 42 331 C41.83153564 331.919021 41.66307129 332.83804199 41.48950195 333.78491211 C40.04695769 342.20564375 39.65001448 350.40258353 39.6875 358.9375 C39.68965515 359.61186096 39.6918103 360.28622192 39.69403076 360.98101807 C39.87985165 397.48247004 50.33030587 432.25862375 66 465 C66.32436035 465.68578125 66.6487207 466.3715625 66.98291016 467.078125 C73.22799037 480.2215771 80.10213341 493.49814502 88.359375 505.4921875 C90 508 90 508 90 510 C90.99 510.33 91.98 510.66 93 511 C93 511.33 93 511.66 93 512 C86.68307984 512.1269082 80.36648906 512.21439585 74.04858398 512.2746582 C71.90002151 512.29978285 69.75154435 512.33388861 67.60327148 512.37719727 C64.51264388 512.43793792 61.42314737 512.46623044 58.33203125 512.48828125 C57.37351761 512.51408768 56.41500397 512.5398941 55.42744446 512.56648254 C50.94884144 512.56836068 48.72889901 512.54098492 45.05200195 509.81201172 C43.07747441 507.10616898 41.38543283 504.48842133 39.8359375 501.51953125 C38.99699951 499.91718628 38.99699951 499.91718628 38.14111328 498.2824707 C37.26688721 496.56483521 37.26688721 496.56483521 36.375 494.8125 C36.07108337 494.21964203 35.76716675 493.62678406 35.45404053 493.01596069 C25.07477644 472.72663027 16.67480537 451.79019438 10 430 C9.7613623 429.22994629 9.52272461 428.45989258 9.27685547 427.66650391 C4.17318302 410.9570119 4.17318302 410.9570119 6 405 C8.53515625 402.73046875 8.53515625 402.73046875 11 401 C10.855625 400.13117188 10.71125 399.26234375 10.5625 398.3671875 C10.376875 397.21476562 10.19125 396.06234375 10 394.875 C9.814375 393.73804688 9.62875 392.60109375 9.4375 391.4296875 C9.02606526 388.204333 8.74004431 385.24235639 9 382 C11.4375 380.25 11.4375 380.25 14 379 C15.46918985 376.06162031 15.17759627 373.07500905 15.2109375 369.8515625 C15.23642308 368.36611561 15.26274165 366.88068284 15.28979492 365.39526367 C15.30303802 364.61621674 15.31628113 363.8371698 15.32992554 363.03451538 C16.19364924 316.8630158 31.06028863 279.52488334 56 241 C76.68498747 208.98398893 92.18956783 175.26488217 84.8125 136.1875 C84.23344037 133.78547488 83.6278145 131.38974552 83 129 C82.6533786 127.50066092 82.30979918 126.00061638 81.96875 124.5 C79.26487018 113.00262254 75.21835819 102.57708002 70 92 C69.62214355 91.2265625 69.24428711 90.453125 68.85498047 89.65625 C56.85374162 65.32360067 40.67872821 43.4756887 22.33203125 23.55078125 C20.36500972 21.39924849 18.45446871 19.21708027 16.5625 17 C11.99101365 11.72857316 6.96789994 6.89375218 2 2 C1.34 1.34 0.68 0.68 0 0 Z " fill="#D3707D" transform="translate(173,0)"/>
<path d="M0 0 C2.1328125 2.15625 2.1328125 2.15625 2.7578125 5.09375 C1.91023861 9.24686205 0.43764666 10.53055061 -2.8671875 13.15625 C-5.79011562 13.71857685 -8.30546485 14.02237963 -11.2421875 14.15625 C-28.91795745 15.57196236 -44.31148221 22.79805162 -57.8671875 34.15625 C-58.66640625 34.74792969 -59.465625 35.33960938 -60.2890625 35.94921875 C-63.38865205 38.60265526 -65.68796845 41.5228963 -68.1171875 44.78125 C-68.78621094 45.65910156 -68.78621094 45.65910156 -69.46875 46.5546875 C-73.28256048 51.50957597 -73.28256048 51.50957597 -73.7421875 57.46875 C-73.69835937 58.22800781 -73.65453125 58.98726562 -73.609375 59.76953125 C-71.84616172 65.43965396 -66.10022837 68.61291316 -61.3046875 71.65625 C-60.69407471 72.04498291 -60.08346191 72.43371582 -59.4543457 72.83422852 C-46.1190497 81.11327519 -33.76895066 83.54959402 -18.2421875 83.53125 C-17.57588318 83.53170319 -16.90957886 83.53215637 -16.2230835 83.53262329 C-4.19315296 83.50854967 5.47975663 81.85509844 16.6328125 77.34375 C20.67915119 75.97088509 23.03268085 76.03072366 27.1328125 77.15625 C29.0703125 78.28125 29.0703125 78.28125 30.1328125 80.15625 C30.59619877 83.79714208 30.86459885 86.11570996 28.70703125 89.18359375 C24.97253855 92.04538254 21.0002967 93.03076471 16.5078125 94.28125 C15.65574219 94.53261719 14.80367187 94.78398437 13.92578125 95.04296875 C4.90327205 97.65007807 -3.8109344 99.33073041 -13.203125 99.71484375 C-16.31665479 100.23072185 -17.64511649 100.92928456 -19.8671875 103.15625 C-20.5271875 104.80625 -21.1871875 106.45625 -21.8671875 108.15625 C-27.8071875 107.49625 -33.7471875 106.83625 -39.8671875 106.15625 C-40.8571875 103.51625 -41.8471875 100.87625 -42.8671875 98.15625 C-44.57283682 96.53212949 -44.57283682 96.53212949 -46.67578125 95.87109375 C-47.41683105 95.57211182 -48.15788086 95.27312988 -48.92138672 94.96508789 C-49.70787598 94.67754639 -50.49436523 94.39000488 -51.3046875 94.09375 C-52.94348607 93.42958815 -54.5802129 92.76029177 -56.21484375 92.0859375 C-57.01293457 91.76206055 -57.81102539 91.43818359 -58.63330078 91.10449219 C-67.38505659 87.38953923 -74.93869053 81.80009225 -82.37109375 75.9765625 C-86.05019538 73.29352438 -89.15926668 72.97241964 -93.63671875 72.6328125 C-97.24315301 73.47915609 -99.73950724 75.18908548 -101.8671875 78.15625 C-102.6961157 81.4888562 -102.57433451 84.67858928 -102.4296875 88.09375 C-102.40672607 89.06594482 -102.38376465 90.03813965 -102.36010742 91.03979492 C-101.7193119 110.02355356 -97.86696653 128.64221256 -93.8671875 147.15625 C-93.66867187 148.08356934 -93.47015625 149.01088867 -93.265625 149.96630859 C-88.7361731 176.2873086 -88.7361731 176.2873086 -76.8671875 199.15625 C-70.7892118 199.98506487 -66.27987608 197.94121792 -60.734375 195.54296875 C-50.49503915 191.61945827 -40.24686884 190.66852434 -29.39160156 190.76513672 C-27.23699189 190.78128895 -25.08424252 190.76515628 -22.9296875 190.74609375 C-14.84252107 190.73304694 -7.55830392 191.46965965 0.1328125 194.15625 C1.20523193 194.50864746 1.20523193 194.50864746 2.29931641 194.86816406 C26.82236701 203.15113694 26.82236701 203.15113694 31.1328125 211.15625 C31.7578125 213.65625 31.7578125 213.65625 31.1328125 216.15625 C28.5078125 219.03125 28.5078125 219.03125 25.1328125 221.15625 C20.01553409 220.92364644 16.11567952 218.76370551 11.7578125 216.28125 C-6.77336449 206.10841532 -30.00269046 203.34514367 -50.64794922 208.75366211 C-56.11789715 210.40876408 -60.57363603 212.20270352 -64.8671875 216.15625 C-66.6492275 219.72033001 -66.43140642 223.31605689 -65.8671875 227.15625 C-64.2982297 231.34135884 -62.20929472 235.18389385 -60.0546875 239.09375 C-59.18239502 240.732229 -59.18239502 240.732229 -58.29248047 242.40380859 C-54.22388201 249.9559855 -49.88656405 257.33298564 -45.03198242 264.40991211 C-42.67110944 268.01288781 -41.85146708 269.57925222 -41.97265625 274.02734375 C-42.8671875 277.15625 -42.8671875 277.15625 -44.5546875 279.09375 C-47.74747351 280.56070573 -49.38554518 280.85257846 -52.8671875 280.15625 C-57.98626677 275.62868135 -61.2760297 269.42622162 -64.5546875 263.53125 C-65.07015137 262.6139209 -65.58561523 261.6965918 -66.11669922 260.75146484 C-67.71328708 257.8934116 -69.29328828 255.02685278 -70.8671875 252.15625 C-71.59010986 250.84237305 -71.59010986 250.84237305 -72.32763672 249.50195312 C-78.379498 238.43305904 -83.78310099 227.22839435 -88.52001953 215.52978516 C-88.9014209 214.60987793 -89.28282227 213.6899707 -89.67578125 212.7421875 C-90.00376709 211.9279834 -90.33175293 211.1137793 -90.66967773 210.27490234 C-92.43773267 207.14683288 -94.59537952 205.54241715 -98.015625 204.50390625 C-98.75039063 204.40980469 -99.48515625 204.31570313 -100.2421875 204.21875 C-100.97179687 204.10660156 -101.70140625 203.99445313 -102.453125 203.87890625 C-108.1291609 204.53100746 -111.79042944 208.87211545 -115.2043457 213.078125 C-115.6912085 213.70203125 -116.17807129 214.3259375 -116.6796875 214.96875 C-117.19813232 215.62746094 -117.71657715 216.28617188 -118.25073242 216.96484375 C-131.45107834 234.07467145 -139.44622175 252.75118665 -144.734375 273.5703125 C-145.10949219 275.03597656 -145.10949219 275.03597656 -145.4921875 276.53125 C-145.69070313 277.36398437 -145.88921875 278.19671875 -146.09375 279.0546875 C-146.98019471 281.46330999 -147.82898644 282.60682617 -149.8671875 284.15625 C-153.69258984 284.64311939 -155.95196073 284.69599912 -159.3046875 282.71875 C-162.31366389 277.78402872 -161.17274598 271.82146372 -159.87109375 266.38671875 C-159.40830854 264.70077508 -158.92700578 263.01983196 -158.4296875 261.34375 C-158.16309326 260.4372168 -157.89649902 259.53068359 -157.62182617 258.59667969 C-148.65926516 229.35122769 -130.51549076 202.57496956 -107.19140625 182.73046875 C-104.74879591 180.61812685 -103.90601657 179.3633384 -103.3046875 176.15625 C-103.55456664 172.67895992 -104.64230866 169.5418736 -105.71484375 166.23828125 C-113.33585713 141.81906455 -116.9699814 115.42613596 -118.37890625 89.8984375 C-118.41716522 89.23177063 -118.45542419 88.56510376 -118.49484253 87.87823486 C-118.67285387 84.70790981 -118.8202361 81.54101181 -118.92089844 78.3671875 C-119.1330745 71.40176031 -119.1330745 71.40176031 -122.30859375 65.4140625 C-126.44146799 61.7670376 -129.13334901 61.89337054 -134.4921875 61.921875 C-140.72760208 62.3548899 -146.78228257 63.77667641 -152.8671875 65.15625 C-154.16938562 61.50374307 -155.14100303 58.14427916 -155.4921875 54.28125 C-155.56695312 53.50007813 -155.64171875 52.71890625 -155.71875 51.9140625 C-155.76773437 51.33398438 -155.81671875 50.75390625 -155.8671875 50.15625 C-154.39151955 49.6664145 -152.91136647 49.1900908 -151.4296875 48.71875 C-150.60597656 48.45191406 -149.78226562 48.18507812 -148.93359375 47.91015625 C-141.41362385 46.06129741 -133.76436357 45.96271214 -126.0546875 45.96875 C-125.09143555 45.96883057 -124.12818359 45.96891113 -123.13574219 45.96899414 C-106.98310458 46.09829146 -106.98310458 46.09829146 -100.8671875 49.15625 C-96.42388214 49.5834909 -93.12067345 49.48409133 -89.453125 46.73828125 C-86.55551981 43.84781302 -84.34089657 40.43911151 -81.99609375 37.09765625 C-67.20361587 16.65960883 -44.5957975 3.72769996 -20.109375 -1.37109375 C-5.45450184 -3.50752707 -5.45450184 -3.50752707 0 0 Z " fill="#D78692" transform="translate(447.8671875,60.84375)"/>
<path d="M0 0 C14.73342003 -1.05477893 14.73342003 -1.05477893 19.59375 1.20703125 C21.64198165 2.99923394 23.29615232 4.8788835 25 7 C25.64066406 7.65613281 26.28132813 8.31226563 26.94140625 8.98828125 C63.89619827 47.30420741 93.54434403 103.4319447 93.3125 157.25 C93.31067719 157.92531769 93.30885437 158.60063538 93.30697632 159.29641724 C93.23082114 176.11480386 90.70443759 191.2078785 85 207 C84.76861328 207.65226563 84.53722656 208.30453125 84.29882812 208.9765625 C78.00034011 226.38701717 68.23987855 242.30621195 58.10131836 257.71875 C29.94428256 300.53504576 15.73347486 346.18068259 26.0703125 397.5078125 C34.10053794 435.18560431 49.70236075 471.88256769 71.78833008 503.48779297 C73.24645294 506.51098142 73.05291371 507.86414088 72 511 C69.51289113 513.48710887 63.08585866 512.33062945 59.75 512.375 C58.69941406 512.41238281 57.64882812 512.44976563 56.56640625 512.48828125 C48.92129103 512.57548789 48.92129103 512.57548789 45.1796875 510.23828125 C41.84797382 505.28847723 39.07988075 500.12691389 36.375 494.8125 C36.07108337 494.21964203 35.76716675 493.62678406 35.45404053 493.01596069 C25.07477644 472.72663027 16.67480537 451.79019438 10 430 C9.7613623 429.22994629 9.52272461 428.45989258 9.27685547 427.66650391 C4.17318302 410.9570119 4.17318302 410.9570119 6 405 C8.53515625 402.73046875 8.53515625 402.73046875 11 401 C10.855625 400.13117188 10.71125 399.26234375 10.5625 398.3671875 C10.376875 397.21476562 10.19125 396.06234375 10 394.875 C9.814375 393.73804688 9.62875 392.60109375 9.4375 391.4296875 C9.02606526 388.204333 8.74004431 385.24235639 9 382 C11.4375 380.25 11.4375 380.25 14 379 C15.46918985 376.06162031 15.17759627 373.07500905 15.2109375 369.8515625 C15.23642308 368.36611561 15.26274165 366.88068284 15.28979492 365.39526367 C15.30303802 364.61621674 15.31628113 363.8371698 15.32992554 363.03451538 C16.19364924 316.8630158 31.06028863 279.52488334 56 241 C76.68498747 208.98398893 92.18956783 175.26488217 84.8125 136.1875 C84.23344037 133.78547488 83.6278145 131.38974552 83 129 C82.6533786 127.50066092 82.30979918 126.00061638 81.96875 124.5 C79.26487018 113.00262254 75.21835819 102.57708002 70 92 C69.62214355 91.2265625 69.24428711 90.453125 68.85498047 89.65625 C56.85374162 65.32360067 40.67872821 43.4756887 22.33203125 23.55078125 C20.36500972 21.39924849 18.45446871 19.21708027 16.5625 17 C11.99101365 11.72857316 6.96789994 6.89375218 2 2 C1.34 1.34 0.68 0.68 0 0 Z " fill="#D88692" transform="translate(173,0)"/>
<path d="M0 0 C32.5372973 7.42971845 58.68913169 22.77827048 82.75390625 45.6015625 C86.46467701 49.05602284 86.46467701 49.05602284 91.2109375 50.38671875 C95.14676466 49.95262017 97.13624579 48.63210826 100.3984375 46.41015625 C117.67355668 35.25949227 136.93519538 30.90354839 157.3984375 32.03515625 C155.45234249 38.25538517 153.4665523 43.71699613 148.3984375 48.03515625 C143.70825933 49.30100004 139.15711108 49.60781952 134.32421875 49.88427734 C115.22195117 51.38087995 101.25898746 64.86103243 88.7109375 77.91015625 C81.42015079 85.40750592 74.14370187 92.00245263 65.1015625 97.328125 C62.18590766 98.91267366 62.18590766 98.91267366 60.3984375 102.03515625 C60.15385105 105.04026409 60.15385105 105.04026409 60.2734375 108.4765625 C60.29059814 109.77368164 60.30775879 111.07080078 60.32543945 112.40722656 C60.34412582 113.43378357 60.34412582 113.43378357 60.3631897 114.4810791 C60.68662283 133.90274896 59.05549991 151.39708496 53.3984375 170.03515625 C53.18735352 170.74494629 52.97626953 171.45473633 52.75878906 172.18603516 C50.00980595 181.23988941 46.30383335 189.63179325 41.9609375 198.03515625 C41.29747314 199.32558838 41.29747314 199.32558838 40.62060547 200.64208984 C32.77683087 215.34595956 32.77683087 215.34595956 27.3984375 218.03515625 C24.5234375 218.41015625 24.5234375 218.41015625 21.3984375 218.03515625 C18.9609375 215.97265625 18.9609375 215.97265625 17.3984375 213.03515625 C17.611596 206.97851487 19.71675759 203.41483963 23.0234375 198.59765625 C37.65210906 176.1957871 43.49483421 151.12796346 43.8984375 124.59765625 C43.9291333 123.41776123 43.9598291 122.23786621 43.99145508 121.0222168 C43.99169678 119.91402588 43.99193848 118.80583496 43.9921875 117.6640625 C43.99927734 116.6747876 44.00636719 115.6855127 44.01367188 114.66625977 C43.57381529 111.88208361 43.57381529 111.88208361 41.41894531 109.70336914 C37.30653513 107.43210348 34.09248885 107.56347869 29.4765625 107.71484375 C28.6171405 107.72524689 27.75771851 107.73565002 26.87225342 107.74636841 C24.13028298 107.78189002 21.38982959 107.84412764 18.6484375 107.91015625 C15.92147117 107.96571988 13.19474731 108.01520516 10.46746826 108.05252075 C8.77427438 108.07667876 7.08118504 108.11152046 5.38848877 108.15914917 C-1.03595717 108.26618201 -7.67819708 107.96029933 -13.1640625 104.34765625 C-15.19746057 101.07653761 -15.08190834 98.80930217 -14.6015625 95.03515625 C-13.08584471 93.02108081 -12.22210092 92.14971789 -9.72033691 91.68785095 C-9.01405151 91.7005452 -8.30776611 91.71323944 -7.58007812 91.72631836 C-6.37236755 91.73634132 -6.37236755 91.73634132 -5.14025879 91.74656677 C-4.27155151 91.76832474 -3.40284424 91.7900827 -2.5078125 91.8125 C-1.60591187 91.82148819 -0.70401123 91.83047638 0.22521973 91.83973694 C3.11668107 91.86978486 6.00731546 91.91948232 8.8984375 91.97265625 C29.72382269 92.54235807 29.72382269 92.54235807 49.5234375 86.78515625 C50.20792969 86.47578125 50.89242187 86.16640625 51.59765625 85.84765625 C56.9041985 83.39073726 61.76462318 80.6208459 66.3984375 77.03515625 C67.15125 76.49117188 67.9040625 75.9471875 68.6796875 75.38671875 C72.1661441 72.67366626 74.79193248 70.4841712 75.7109375 66.03515625 C75.80198951 62.09715665 74.49829219 59.72765756 72.02734375 56.73828125 C69.00577115 53.57903508 65.80219417 50.77691811 62.3984375 48.03515625 C60.97337891 46.87306641 60.97337891 46.87306641 59.51953125 45.6875 C37.95856846 28.41374916 12.820017 16.71928568 -14.79760742 14.19799805 C-20.15891186 13.64858043 -23.802694 13.2334934 -27.6015625 9.03515625 C-28.7265625 6.09765625 -28.7265625 6.09765625 -28.6015625 3.03515625 C-23.08687369 -6.3602395 -8.83218323 -1.88189543 0 0 Z " fill="#D06E7C" transform="translate(61.6015625,195.96484375)"/>
<path d="M0 0 C2.1328125 2.15625 2.1328125 2.15625 2.7578125 5.09375 C1.91023861 9.24686205 0.43764666 10.53055061 -2.8671875 13.15625 C-5.79011562 13.71857685 -8.30546485 14.02237963 -11.2421875 14.15625 C-28.91795745 15.57196236 -44.31148221 22.79805162 -57.8671875 34.15625 C-58.66640625 34.74792969 -59.465625 35.33960938 -60.2890625 35.94921875 C-63.38865205 38.60265526 -65.68796845 41.5228963 -68.1171875 44.78125 C-68.78621094 45.65910156 -68.78621094 45.65910156 -69.46875 46.5546875 C-73.28256048 51.50957597 -73.28256048 51.50957597 -73.7421875 57.46875 C-73.69835937 58.22800781 -73.65453125 58.98726562 -73.609375 59.76953125 C-71.84616172 65.43965396 -66.10022837 68.61291316 -61.3046875 71.65625 C-60.69407471 72.04498291 -60.08346191 72.43371582 -59.4543457 72.83422852 C-46.1190497 81.11327519 -33.76895066 83.54959402 -18.2421875 83.53125 C-17.57588318 83.53170319 -16.90957886 83.53215637 -16.2230835 83.53262329 C-4.19315296 83.50854967 5.47975663 81.85509844 16.6328125 77.34375 C20.67915119 75.97088509 23.03268085 76.03072366 27.1328125 77.15625 C29.0703125 78.28125 29.0703125 78.28125 30.1328125 80.15625 C30.59619877 83.79714208 30.86459885 86.11570996 28.70703125 89.18359375 C24.97253855 92.04538254 21.0002967 93.03076471 16.5078125 94.28125 C15.65574219 94.53261719 14.80367187 94.78398437 13.92578125 95.04296875 C4.90327205 97.65007807 -3.8109344 99.33073041 -13.203125 99.71484375 C-16.31665479 100.23072185 -17.64511649 100.92928456 -19.8671875 103.15625 C-20.5271875 104.80625 -21.1871875 106.45625 -21.8671875 108.15625 C-27.8071875 107.49625 -33.7471875 106.83625 -39.8671875 106.15625 C-40.8571875 103.51625 -41.8471875 100.87625 -42.8671875 98.15625 C-44.57283682 96.53212949 -44.57283682 96.53212949 -46.67578125 95.87109375 C-47.41683105 95.57211182 -48.15788086 95.27312988 -48.92138672 94.96508789 C-49.70787598 94.67754639 -50.49436523 94.39000488 -51.3046875 94.09375 C-52.94348607 93.42958815 -54.5802129 92.76029177 -56.21484375 92.0859375 C-57.01293457 91.76206055 -57.81102539 91.43818359 -58.63330078 91.10449219 C-67.38505659 87.38953923 -74.93869053 81.80009225 -82.37109375 75.9765625 C-86.04882911 73.29452075 -89.26405348 72.74566055 -93.80078125 72.8125 C-97.52013 73.43121964 -99.3956632 75.44934243 -101.8671875 78.15625 C-103.28309122 81.31126165 -103.28309122 81.31126165 -103.8671875 84.15625 C-106.78236042 83.08223892 -108.64528926 82.37814824 -110.8671875 80.15625 C-113.48299229 80.4832256 -115.50796887 80.97664068 -117.8671875 82.15625 C-117.95355469 81.28742188 -118.03992188 80.41859375 -118.12890625 79.5234375 C-118.98022332 72.54107548 -119.5476043 67.94387488 -124.8671875 63.15625 C-132.78467592 59.19750579 -144.66047816 63.29561954 -152.8671875 65.15625 C-154.16938562 61.50374307 -155.14100303 58.14427916 -155.4921875 54.28125 C-155.56695312 53.50007813 -155.64171875 52.71890625 -155.71875 51.9140625 C-155.76773437 51.33398438 -155.81671875 50.75390625 -155.8671875 50.15625 C-154.39151955 49.6664145 -152.91136647 49.1900908 -151.4296875 48.71875 C-150.60597656 48.45191406 -149.78226562 48.18507812 -148.93359375 47.91015625 C-141.41362385 46.06129741 -133.76436357 45.96271214 -126.0546875 45.96875 C-125.09143555 45.96883057 -124.12818359 45.96891113 -123.13574219 45.96899414 C-106.98310458 46.09829146 -106.98310458 46.09829146 -100.8671875 49.15625 C-96.42388214 49.5834909 -93.12067345 49.48409133 -89.453125 46.73828125 C-86.55551981 43.84781302 -84.34089657 40.43911151 -81.99609375 37.09765625 C-67.20361587 16.65960883 -44.5957975 3.72769996 -20.109375 -1.37109375 C-5.45450184 -3.50752707 -5.45450184 -3.50752707 0 0 Z " fill="#D88692" transform="translate(447.8671875,60.84375)"/>
<path d="M0 0 C-0.99531738 0.66829834 -0.99531738 0.66829834 -2.01074219 1.35009766 C-9.02658028 6.23265865 -14.91423839 11.68664567 -20.80532837 17.86437988 C-28.67117287 26.08929597 -36.4458873 33.54245115 -46.33203125 39.328125 C-49.21812481 40.88247048 -49.21812481 40.88247048 -51 44 C-51.24458645 47.00510784 -51.24458645 47.00510784 -51.125 50.44140625 C-51.10783936 51.73852539 -51.09067871 53.03564453 -51.07299805 54.37207031 C-51.05431168 55.39862732 -51.05431168 55.39862732 -51.0352478 56.44592285 C-50.71181467 75.86759271 -52.34293759 93.36192871 -58 112 C-58.31662598 113.06468506 -58.31662598 113.06468506 -58.63964844 114.15087891 C-61.38863155 123.20473316 -65.09460415 131.596637 -69.4375 140 C-70.10096436 141.29043213 -70.10096436 141.29043213 -70.77783203 142.60693359 C-78.62160663 157.31080331 -78.62160663 157.31080331 -84 160 C-86.875 160.375 -86.875 160.375 -90 160 C-92.4375 157.9375 -92.4375 157.9375 -94 155 C-93.7868415 148.94335862 -91.68167991 145.37968338 -88.375 140.5625 C-73.44484646 117.6989512 -67.63026848 91.97309809 -67.55371094 64.89086914 C-67.43016803 57.40986138 -66.55826022 49.096541 -61.45068359 43.21630859 C-59.71329541 41.67626169 -57.89359772 40.34338253 -56 39 C-47.38179263 32.49800725 -39.95616719 25.08056172 -32.52075195 17.27099609 C-25.55544899 10.10577531 -11.0079933 -3.6693311 0 0 Z " fill="#C85466" transform="translate(173,254)"/>
<path d="M0 0 C2.86405043 1.56976199 4.58527067 2.9455798 5.79980469 6.03344727 C6.51337913 8.67501403 7.11055624 11.32526349 7.6875 14 C14.33920867 41.71102719 25.23580463 69.01125859 40.0546875 93.39697266 C42.4456505 97.43766054 43.58909987 100.16096537 43 105 C42 107.875 42 107.875 40 110 C34.73 110.85 34.73 110.85 32 110 C26.27927137 105.66178079 23.56797156 99.08589021 20.375 92.8125 C19.91912506 91.92321304 19.91912506 91.92321304 19.45404053 91.01596069 C9.07477644 70.72663027 0.67480537 49.79019438 -6 28 C-6.2386377 27.22994629 -6.47727539 26.45989258 -6.72314453 25.66650391 C-11.53474419 9.91326213 -11.53474419 9.91326213 -10 3 C-7.15608491 -0.75531814 -4.5530921 -0.54951112 0 0 Z " fill="#020101" transform="translate(189,402)"/>
<path d="M0 0 C0.66 1.32 1.32 2.64 2 4 C2.66 3.34 3.32 2.68 4 2 C8.50046315 2.25002573 11.41788227 4.41754304 15 7 C15.33 6.01 15.66 5.02 16 4 C16.03440186 4.69109863 16.06880371 5.38219727 16.10424805 6.09423828 C17.10718368 25.0489442 19.45113048 43.34316619 23 62 C23.16757812 62.88896973 23.33515625 63.77793945 23.5078125 64.69384766 C25.68500279 75.97418424 28.96933438 86.86845936 32.4140625 97.8203125 C33.77709659 102.18234269 34.94347741 106.55423664 36 111 C31.36212237 111.46378776 27.98074653 111.49037327 23.75 109.375 C19.23471992 105.07413266 17.76823544 97.7819734 16 92 C15.01 92.495 15.01 92.495 14 93 C6.08069981 62.932748 -0.47068411 31.23630912 0 0 Z " fill="#D1707E" transform="translate(329,138)"/>
<path d="M0 0 C0.495 0.99 0.495 0.99 1 2 C0.38253906 2.86238281 -0.23492187 3.72476562 -0.87109375 4.61328125 C-12.14436934 20.71283689 -19.061498 37.42501484 -23.859375 56.3984375 C-24.11203125 57.38070312 -24.3646875 58.36296875 -24.625 59.375 C-24.82351563 60.20773437 -25.02203125 61.04046875 -25.2265625 61.8984375 C-26.11300721 64.30705999 -26.96179894 65.45057617 -29 67 C-32.82540234 67.48686939 -35.08477323 67.53974912 -38.4375 65.5625 C-41.06676654 61.25050287 -40.47873142 56.43993039 -39.52514648 51.57983398 C-38.90507332 49.17903787 -38.22232215 46.80944975 -37.5 44.4375 C-37.26152344 43.61958984 -37.02304687 42.80167969 -36.77734375 41.95898438 C-36.19561999 39.96948911 -35.59934441 37.98425811 -35 36 C-34.34 36.33 -33.68 36.66 -33 37 C-32.70867187 36.42145264 -32.41734375 35.84290527 -32.1171875 35.24682617 C-13.67771097 -1.17911301 -13.67771097 -1.17911301 0 0 Z " fill="#D1707D" transform="translate(327,278)"/>
<path d="M0 0 C-0.33 0.66 -0.66 1.32 -1 2 C-1.92116234 10.39187338 0.81187578 15.67777066 4.8125 22.9375 C5.39402832 24.02981934 5.97555664 25.12213867 6.57470703 26.24755859 C10.64330549 33.7997355 14.98062345 41.17673564 19.83520508 48.25366211 C22.19607806 51.85663781 23.01572042 53.42300222 22.89453125 57.87109375 C22 61 22 61 20.3125 62.9375 C17.23180105 64.35295627 15.35279749 64.55879958 12 64 C9.6875 62.0625 9.6875 62.0625 8 59 C7.94585937 57.70191406 7.89171875 56.40382813 7.8359375 55.06640625 C7.18902753 48.40680133 3.4632016 43.39903408 -0.0625 37.875 C-1.4320463 35.65900815 -2.79924575 33.44156413 -4.1640625 31.22265625 C-4.82438477 30.1567627 -5.48470703 29.09086914 -6.16503906 27.99267578 C-8.52104166 24.15022237 -10.7799752 20.26942003 -12.9375 16.3125 C-13.54464844 15.21550781 -14.15179688 14.11851562 -14.77734375 12.98828125 C-16.0993887 9.75708512 -16.25393977 7.45669028 -16 4 C-5.23282443 -1.74427481 -5.23282443 -1.74427481 0 0 Z " fill="#D16F7D" transform="translate(383,277)"/>
<path d="M0 0 C-2.48834033 2.00586141 -4.98350747 3.98766227 -7.54296875 5.90234375 C-15.23112597 11.81893151 -22.59895047 19.19790093 -27 28 C-27.12306022 32.47411791 -26.74908748 35.98510728 -24.0625 39.625 C-19.81895432 42.91591298 -15.45293348 45.99967395 -11 49 C-14 50 -14 50 -17.4765625 48.55859375 C-18.86551339 47.86369878 -20.24806388 47.15590832 -21.625 46.4375 C-22.34196045 46.07052002 -23.0589209 45.70354004 -23.79760742 45.32543945 C-29.093694 42.57291147 -34.28060913 39.67787013 -39 36 C-39.88751953 35.32904297 -39.88751953 35.32904297 -40.79296875 34.64453125 C-42 33 -42 33 -42.00390625 30.6796875 C-40.68226438 27.1518808 -38.50976605 24.79033725 -35.9375 22.125 C-35.43726318 21.59688721 -34.93702637 21.06877441 -34.42163086 20.5246582 C-25.77305322 11.49071359 -13.4069877 -0.76611358 0 0 Z " fill="#D16F7D" transform="translate(401,86)"/>
<path d="M0 0 C5.0992888 0.57096284 9.63852961 1.71632556 14.4375 3.5625 C15.12706787 3.82643555 15.81663574 4.09037109 16.52709961 4.36230469 C31.13044571 10.09300419 58.60374149 21.20748297 66 36 C64.29076788 35.91180119 62.58256287 35.80361428 60.875 35.6875 C59.92367187 35.62949219 58.97234375 35.57148438 57.9921875 35.51171875 C50.9114206 34.3007782 45.4486624 29.59920219 39.75 25.5 C27.01845486 16.46690593 13.84357747 8.22671335 0 1 C0 0.67 0 0.34 0 0 Z " fill="#C95566" transform="translate(70,199)"/>
<path d="M0 0 C6.24804043 0.87691796 11.27438911 2.90655575 16.8125 5.8125 C17.45840088 6.14378906 18.10430176 6.47507812 18.76977539 6.81640625 C22.78726946 8.99283226 25.47090589 11.19082386 28 15 C28.625 17.5 28.625 17.5 28 20 C25.375 22.875 25.375 22.875 22 25 C18.73344791 25 16.90777078 24.54466247 14.125 22.875 C12.42351216 20.03918694 13 17.26798252 13 14 C11.27384237 8.71364225 8.25560675 6.35583931 3.83984375 3.296875 C2 2 2 2 0 0 Z " fill="#CD6D7A" transform="translate(451,257)"/>
<path d="M0 0 C1.9375 1.125 1.9375 1.125 3 3 C3.76469471 9.00831561 3.76469471 9.00831561 1.39453125 12.08203125 C-1.54071984 14.43310513 -4.13845005 15.23876601 -7.75 16.25 C-8.92046875 16.58515625 -10.0909375 16.9203125 -11.296875 17.265625 C-12.63492187 17.62914062 -12.63492187 17.62914062 -14 18 C-13.42415568 15.61435923 -12.77772405 13.33317216 -12 11 C-11.93197033 9.27204648 -11.91504355 7.54164635 -11.9375 5.8125 C-11.94652344 4.91144531 -11.95554687 4.01039063 -11.96484375 3.08203125 C-11.97644531 2.39496094 -11.98804688 1.70789063 -12 1 C-7.67899104 -1.22597431 -4.69682975 -1.13071827 0 0 Z " fill="#D06E7C" transform="translate(475,138)"/>
<path d="M0 0 C2.22808159 -0.10853983 4.45769932 -0.18583307 6.6875 -0.25 C7.92886719 -0.29640625 9.17023438 -0.3428125 10.44921875 -0.390625 C14.5782247 0.06361108 16.15060695 1.03299598 19 4 C19.83747593 7.93613687 19.3310976 9.47481071 17.1875 12.875 C12.56130904 15.95912731 8.40469637 15.42593929 3 15 C3.24556641 14.17242187 3.24556641 14.17242187 3.49609375 13.328125 C4.05760414 10.73385993 4.09739008 8.40164589 4.0625 5.75 C4.05347656 4.85796875 4.04445313 3.9659375 4.03515625 3.046875 C4.02355469 2.37140625 4.01195312 1.6959375 4 1 C2.68 0.67 1.36 0.34 0 0 Z " fill="#CF6E7B" transform="translate(431,59)"/>
<path d="M0 0 C1.48368366 4.62337865 -0.09207913 8.06158831 -1.75 12.4375 C-2.05711914 13.25992187 -2.36423828 14.08234375 -2.68066406 14.9296875 C-12.4102333 40.03216487 -12.4102333 40.03216487 -20 47 C-20.33 46.67 -20.66 46.34 -21 46 C-20.70904634 39.9282566 -18.69643666 36.39748737 -15.375 31.5625 C-10.22516594 23.7255551 -6.52359464 15.66411732 -3 7 C-2.0090985 4.66264821 -1.005125 2.33128992 0 0 Z " fill="#CD6B79" transform="translate(100,363)"/>
<path d="M0 0 C1.6852084 4.07679159 0.16939007 6.83075593 -1.4375 10.75 C-1.91058594 11.92046875 -2.38367188 13.0909375 -2.87109375 14.296875 C-3.24363281 15.18890625 -3.61617188 16.0809375 -4 17 C-4.66 17 -5.32 17 -6 17 C-5.34496718 12.94180817 -4.05440879 9.46028718 -2.4375 5.6875 C-1.75494141 4.08455078 -1.75494141 4.08455078 -1.05859375 2.44921875 C-0.53458984 1.23685547 -0.53458984 1.23685547 0 0 Z " fill="#C46573" transform="translate(100,363)"/>
<path d="M0 0 C1.2077558 3.62326739 0.54311128 4.64146369 -1 8 C-1.66 7.67 -2.32 7.34 -3 7 C-2.625 4.0625 -2.625 4.0625 -2 1 C-1.34 0.67 -0.68 0.34 0 0 Z " fill="#CE7F8A" transform="translate(296,308)"/>
</svg>
