<?xml version="1.0" encoding="UTF-8"?>
<svg version="1.1" xmlns="http://www.w3.org/2000/svg" width="512" height="512">
<path d="M0 0 C1.42052254 -0.01147664 1.42052254 -0.01147664 2.86974251 -0.02318513 C6.03335413 -0.04377252 9.19623483 -0.03587531 12.3598938 -0.02792358 C14.63201569 -0.03662063 16.9041317 -0.04698787 19.17623901 -0.05889893 C25.34158758 -0.08567181 31.50669088 -0.0868371 37.67208624 -0.08177233 C42.82120935 -0.07963237 47.97028289 -0.08940102 53.11939538 -0.09898317 C65.96275211 -0.12243949 78.80593276 -0.12072487 91.64929189 -0.10786955 C102.79119806 -0.09753337 113.9327544 -0.1200386 125.07459138 -0.15806599 C136.52758269 -0.1968543 147.98034414 -0.21274694 159.43341362 -0.20581949 C165.85843183 -0.20219464 172.28312964 -0.20745747 178.70809555 -0.23524857 C184.75100485 -0.26040917 190.79321436 -0.25651426 196.83611298 -0.23042679 C199.05121981 -0.22569686 201.26637592 -0.2311591 203.48142624 -0.24767303 C206.51121293 -0.26862869 209.53865583 -0.25239723 212.56835938 -0.22705078 C213.44006897 -0.24179935 214.31177856 -0.25654792 215.2099036 -0.27174342 C223.19557871 -0.1316787 228.18519307 3.61949263 233.97756958 8.82998657 C234.63628052 9.53252563 235.29499146 10.2350647 235.97366333 10.95889282 C239.23997242 14.41621414 242.68610465 17.53470907 246.27664185 20.64517212 C249.80161003 23.74358005 253.19463547 26.9789031 256.59866333 30.20889282 C261.71968055 35.04881739 266.8501579 39.87611227 272.03616333 44.64639282 C276.67984113 48.91828594 281.30186475 53.21242014 285.91116333 57.52139282 C290.56372857 61.87019456 295.22710823 66.20652433 299.91116333 70.52139282 C305.23757003 75.42798422 310.53459408 80.36533421 315.82522583 85.31045532 C319.84086284 89.06168825 323.86947086 92.79825739 327.91116333 96.52139282 C333.23757003 101.42798422 338.53459408 106.36533421 343.82522583 111.31045532 C347.84086284 115.06168825 351.86947086 118.79825739 355.91116333 122.52139282 C361.23757003 127.42798422 366.53459408 132.36533421 371.82522583 137.31045532 C375.84086284 141.06168825 379.86947086 144.79825739 383.91116333 148.52139282 C389.23757003 153.42798422 394.53459408 158.36533421 399.82522583 163.31045532 C403.84086284 167.06168825 407.86947086 170.79825739 411.91116333 174.52139282 C417.23757003 179.42798422 422.53459408 184.36533421 427.82522583 189.31045532 C431.84086284 193.06168825 435.86947086 196.79825739 439.91116333 200.52139282 C444.59521908 204.83626191 449.25852042 209.17267351 453.91116333 213.52139282 C458.60709906 217.90994948 463.31269493 222.2874826 468.03616333 226.64639282 C468.55742798 227.12930786 469.07869263 227.6122229 469.61575317 228.10977173 C472.38892566 230.67510657 475.18185366 233.2141196 478.00491333 235.72451782 C478.59578735 236.25545044 479.18666138 236.78638306 479.79544067 237.33340454 C480.91930094 238.34251442 482.04944053 239.34469438 483.18704224 240.33828735 C487.45095242 244.18699541 490.00522611 247.74565995 490.84475708 253.48623657 C490.85639176 262.34022767 489.23263242 266.72762738 483.16116333 273.02139282 C480.72308117 275.3328744 478.23123958 277.56431836 475.68850708 279.75967407 C471.43242022 283.47234722 467.32016958 287.32182914 463.22366333 291.20889282 C458.10264611 296.04881739 452.97216876 300.87611227 447.78616333 305.64639282 C443.14248553 309.91828594 438.52046191 314.21242014 433.91116333 318.52139282 C428.73345999 323.36104667 423.53796056 328.18045153 418.32522583 332.98233032 C414.17145176 336.81190739 410.03862196 340.66348251 405.91116333 344.52139282 C400.73341682 349.36100079 395.5379609 354.18045122 390.32522583 358.98233032 C386.17145176 362.81190739 382.03862196 366.66348251 377.91116333 370.52139282 C372.73341682 375.36100079 367.5379609 380.18045122 362.32522583 384.98233032 C358.17145176 388.81190739 354.03862196 392.66348251 349.91116333 396.52139282 C344.73341682 401.36100079 339.5379609 406.18045122 334.32522583 410.98233032 C330.17145176 414.81190739 326.03862196 418.66348251 321.91116333 422.52139282 C316.73341682 427.36100079 311.5379609 432.18045122 306.32522583 436.98233032 C302.17145176 440.81190739 298.03862196 444.66348251 293.91116333 448.52139282 C288.73341682 453.36100079 283.5379609 458.18045122 278.32522583 462.98233032 C274.17145176 466.81190739 270.03862196 470.66348251 265.91116333 474.52139282 C260.73796076 479.35675359 255.55307875 484.17868918 250.33621216 488.96694946 C247.37947943 491.68533102 244.45129908 494.42965092 241.54788208 497.20498657 C240.89046021 497.82953735 240.23303833 498.45408813 239.55569458 499.0975647 C238.293846 500.29770611 237.0369331 501.50306898 235.78616333 502.7147522 C235.20221802 503.26840454 234.61827271 503.82205688 234.01663208 504.39248657 C233.51285034 504.87644897 233.0090686 505.36041138 232.49002075 505.85903931 C225.91718443 511.11499263 221.17524099 513.2645352 212.69534302 513.15631104 C211.746768 513.16411099 210.79819298 513.17191094 209.82087326 513.17994726 C206.65786078 513.1998131 203.49605869 513.18412343 200.33303833 513.16836548 C198.05914612 513.17514397 195.7852594 513.1840484 193.51138306 513.19491577 C187.34608979 513.21768774 181.1812154 513.20888109 175.01591492 513.19302034 C168.5600879 513.18035066 162.10429646 513.19210444 155.64846802 513.19995117 C144.11342368 513.20962683 132.57859328 513.19410059 121.04358244 513.16865449 C110.59440056 513.14631697 100.14549645 513.15019753 89.69631958 513.17324829 C77.54887017 513.20003305 65.40163867 513.20995162 53.25415421 513.19518697 C46.82868024 513.18739674 40.40339743 513.18633938 33.97793579 513.20286942 C27.93670125 513.21732573 21.89599064 513.2072703 15.85481262 513.17839813 C13.63929616 513.17179366 11.42373551 513.17367399 9.20823669 513.18471146 C6.18055957 513.19840309 3.1545546 513.18120618 0.12698364 513.15631104 C-0.74695667 513.16746464 -1.62089699 513.17861825 -2.52132034 513.19010985 C-8.66767118 513.09227505 -12.83826222 511.46111781 -17.58883667 507.52139282 C-21.81906533 502.33936271 -22.03109121 498.07709509 -22.02243042 491.48623657 C-21.07373521 484.99921257 -17.48965734 480.98706057 -12.90133667 476.58389282 C-12.16367065 475.85396118 -12.16367065 475.85396118 -11.41110229 475.10928345 C-7.94456547 471.71394635 -4.32105653 468.52472874 -0.65744019 465.34487915 C2.84183108 462.26025068 6.21520168 459.04436782 9.59866333 455.83389282 C14.71968055 450.99396825 19.8501579 446.16667338 25.03616333 441.39639282 C29.67984113 437.1244997 34.30186475 432.83036551 38.91116333 428.52139282 C44.08886667 423.68173897 49.2843661 418.86233412 54.49710083 414.06045532 C58.6508749 410.23087826 62.7837047 406.37930314 66.91116333 402.52139282 C72.08890984 397.68178486 77.28436576 392.86233443 82.49710083 388.06045532 C86.6508749 384.23087826 90.7837047 380.37930314 94.91116333 376.52139282 C100.08890984 371.68178486 105.28436576 366.86233443 110.49710083 362.06045532 C114.6508749 358.23087826 118.7837047 354.37930314 122.91116333 350.52139282 C128.08890984 345.68178486 133.28436576 340.86233443 138.49710083 336.06045532 C142.6508749 332.23087826 146.7837047 328.37930314 150.91116333 324.52139282 C156.08890984 319.68178486 161.28436576 314.86233443 166.49710083 310.06045532 C170.6508749 306.23087826 174.7837047 302.37930314 178.91116333 298.52139282 C184.08588188 293.68461508 189.2774806 288.86708088 194.48831177 284.06924438 C198.73248173 280.15774666 202.94788771 276.21611614 207.16116333 272.27139282 C212.50505478 267.27066202 217.89616341 262.33394018 223.41116333 257.52139282 C221.84635508 253.59580449 219.35374646 251.42587285 216.22366333 248.64639282 C215.13437628 247.66935863 214.04587129 246.691452 212.95803833 245.71279907 C212.38118286 245.19604614 211.80432739 244.67929321 211.20999146 244.1468811 C208.094682 241.33177112 205.03682469 238.45548316 201.97366333 235.58389282 C197.30109872 231.21333905 192.6171451 226.85594517 187.91116333 222.52139282 C182.58472455 217.61483651 177.28773229 212.67745116 171.99710083 207.73233032 C167.98146382 203.98109739 163.9528558 200.24452825 159.91116333 196.52139282 C154.58475663 191.61480143 149.28773258 186.67745143 143.99710083 181.73233032 C139.98146382 177.98109739 135.9528558 174.24452825 131.91116333 170.52139282 C126.58475663 165.61480143 121.28773258 160.67745143 115.99710083 155.73233032 C111.98146382 151.98109739 107.9528558 148.24452825 103.91116333 144.52139282 C98.58475663 139.61480143 93.28773258 134.67745143 87.99710083 129.73233032 C83.98146382 125.98109739 79.9528558 122.24452825 75.91116333 118.52139282 C70.58475663 113.61480143 65.28773258 108.67745143 59.99710083 103.73233032 C55.98146382 99.98109739 51.9528558 96.24452825 47.91116333 92.52139282 C42.58475663 87.61480143 37.28773258 82.67745143 31.99710083 77.73233032 C27.98146382 73.98109739 23.9528558 70.24452825 19.91116333 66.52139282 C14.5908866 61.62044825 9.29711399 56.69176678 4.01687622 51.74771118 C0.95539389 48.88389749 -2.11597057 46.03297535 -5.21774292 43.21279907 C-21.1545003 28.7096364 -21.1545003 28.7096364 -21.86227417 21.88467407 C-22.06632505 15.75529951 -21.74310519 11.4249162 -18.36618042 6.24014282 C-12.70324866 0.76390112 -7.55695084 -0.06519312 0 0 Z " fill="#F34235" transform="translate(21.588836669921875,-0.521392822265625)"/>
<path d="M0 0 C1.42052254 -0.01147664 1.42052254 -0.01147664 2.86974251 -0.02318513 C6.03335413 -0.04377252 9.19623483 -0.03587531 12.3598938 -0.02792358 C14.63201569 -0.03662063 16.9041317 -0.04698787 19.17623901 -0.05889893 C25.34158758 -0.08567181 31.50669088 -0.0868371 37.67208624 -0.08177233 C42.82120935 -0.07963237 47.97028289 -0.08940102 53.11939538 -0.09898317 C65.96275211 -0.12243949 78.80593276 -0.12072487 91.64929189 -0.10786955 C102.79119806 -0.09753337 113.9327544 -0.1200386 125.07459138 -0.15806599 C136.52758269 -0.1968543 147.98034414 -0.21274694 159.43341362 -0.20581949 C165.85843183 -0.20219464 172.28312964 -0.20745747 178.70809555 -0.23524857 C184.75100485 -0.26040917 190.79321436 -0.25651426 196.83611298 -0.23042679 C199.05121981 -0.22569686 201.26637592 -0.2311591 203.48142624 -0.24767303 C206.51121293 -0.26862869 209.53865583 -0.25239723 212.56835938 -0.22705078 C213.44006897 -0.24179935 214.31177856 -0.25654792 215.2099036 -0.27174342 C223.19557871 -0.1316787 228.18519307 3.61949263 233.97756958 8.82998657 C234.63628052 9.53252563 235.29499146 10.2350647 235.97366333 10.95889282 C239.23997242 14.41621414 242.68610465 17.53470907 246.27664185 20.64517212 C249.80161003 23.74358005 253.19463547 26.9789031 256.59866333 30.20889282 C261.71968055 35.04881739 266.8501579 39.87611227 272.03616333 44.64639282 C276.67984113 48.91828594 281.30186475 53.21242014 285.91116333 57.52139282 C290.56372857 61.87019456 295.22710823 66.20652433 299.91116333 70.52139282 C305.23757003 75.42798422 310.53459408 80.36533421 315.82522583 85.31045532 C319.84086284 89.06168825 323.86947086 92.79825739 327.91116333 96.52139282 C333.23757003 101.42798422 338.53459408 106.36533421 343.82522583 111.31045532 C347.84086284 115.06168825 351.86947086 118.79825739 355.91116333 122.52139282 C361.23757003 127.42798422 366.53459408 132.36533421 371.82522583 137.31045532 C375.84086284 141.06168825 379.86947086 144.79825739 383.91116333 148.52139282 C389.23757003 153.42798422 394.53459408 158.36533421 399.82522583 163.31045532 C403.84086284 167.06168825 407.86947086 170.79825739 411.91116333 174.52139282 C417.23757003 179.42798422 422.53459408 184.36533421 427.82522583 189.31045532 C431.84086284 193.06168825 435.86947086 196.79825739 439.91116333 200.52139282 C444.59521908 204.83626191 449.25852042 209.17267351 453.91116333 213.52139282 C458.60709906 217.90994948 463.31269493 222.2874826 468.03616333 226.64639282 C468.55742798 227.12930786 469.07869263 227.6122229 469.61575317 228.10977173 C472.38892566 230.67510657 475.18185366 233.2141196 478.00491333 235.72451782 C478.59578735 236.25545044 479.18666138 236.78638306 479.79544067 237.33340454 C480.91930094 238.34251442 482.04944053 239.34469438 483.18704224 240.33828735 C487.45095242 244.18699541 490.00522611 247.74565995 490.84475708 253.48623657 C490.85639176 262.34022767 489.23263242 266.72762738 483.16116333 273.02139282 C480.72308117 275.3328744 478.23123958 277.56431836 475.68850708 279.75967407 C471.43242022 283.47234722 467.32016958 287.32182914 463.22366333 291.20889282 C458.10264611 296.04881739 452.97216876 300.87611227 447.78616333 305.64639282 C443.14248553 309.91828594 438.52046191 314.21242014 433.91116333 318.52139282 C428.73345999 323.36104667 423.53796056 328.18045153 418.32522583 332.98233032 C414.17145176 336.81190739 410.03862196 340.66348251 405.91116333 344.52139282 C400.73341682 349.36100079 395.5379609 354.18045122 390.32522583 358.98233032 C386.17145176 362.81190739 382.03862196 366.66348251 377.91116333 370.52139282 C372.73341682 375.36100079 367.5379609 380.18045122 362.32522583 384.98233032 C358.17145176 388.81190739 354.03862196 392.66348251 349.91116333 396.52139282 C344.73341682 401.36100079 339.5379609 406.18045122 334.32522583 410.98233032 C330.17145176 414.81190739 326.03862196 418.66348251 321.91116333 422.52139282 C316.73341682 427.36100079 311.5379609 432.18045122 306.32522583 436.98233032 C302.17145176 440.81190739 298.03862196 444.66348251 293.91116333 448.52139282 C288.73341682 453.36100079 283.5379609 458.18045122 278.32522583 462.98233032 C274.17145176 466.81190739 270.03862196 470.66348251 265.91116333 474.52139282 C260.73796076 479.35675359 255.55307875 484.17868918 250.33621216 488.96694946 C247.37947943 491.68533102 244.45129908 494.42965092 241.54788208 497.20498657 C240.89046021 497.82953735 240.23303833 498.45408813 239.55569458 499.0975647 C238.293846 500.29770611 237.0369331 501.50306898 235.78616333 502.7147522 C235.20221802 503.26840454 234.61827271 503.82205688 234.01663208 504.39248657 C233.51285034 504.87644897 233.0090686 505.36041138 232.49002075 505.85903931 C225.91718443 511.11499263 221.17524099 513.2645352 212.69534302 513.15631104 C211.746768 513.16411099 210.79819298 513.17191094 209.82087326 513.17994726 C206.65786078 513.1998131 203.49605869 513.18412343 200.33303833 513.16836548 C198.05914612 513.17514397 195.7852594 513.1840484 193.51138306 513.19491577 C187.34608979 513.21768774 181.1812154 513.20888109 175.01591492 513.19302034 C168.5600879 513.18035066 162.10429646 513.19210444 155.64846802 513.19995117 C144.11342368 513.20962683 132.57859328 513.19410059 121.04358244 513.16865449 C110.59440056 513.14631697 100.14549645 513.15019753 89.69631958 513.17324829 C77.54887017 513.20003305 65.40163867 513.20995162 53.25415421 513.19518697 C46.82868024 513.18739674 40.40339743 513.18633938 33.97793579 513.20286942 C27.93670125 513.21732573 21.89599064 513.2072703 15.85481262 513.17839813 C13.63929616 513.17179366 11.42373551 513.17367399 9.20823669 513.18471146 C6.18055957 513.19840309 3.1545546 513.18120618 0.12698364 513.15631104 C-0.74695667 513.16746464 -1.62089699 513.17861825 -2.52132034 513.19010985 C-8.66767118 513.09227505 -12.83826222 511.46111781 -17.58883667 507.52139282 C-21.81906533 502.33936271 -22.03109121 498.07709509 -22.02243042 491.48623657 C-21.07373521 484.99921257 -17.48965734 480.98706057 -12.90133667 476.58389282 C-12.16367065 475.85396118 -12.16367065 475.85396118 -11.41110229 475.10928345 C-7.94456547 471.71394635 -4.32105653 468.52472874 -0.65744019 465.34487915 C2.84183108 462.26025068 6.21520168 459.04436782 9.59866333 455.83389282 C14.71968055 450.99396825 19.8501579 446.16667338 25.03616333 441.39639282 C29.67984113 437.1244997 34.30186475 432.83036551 38.91116333 428.52139282 C44.08886667 423.68173897 49.2843661 418.86233412 54.49710083 414.06045532 C58.6508749 410.23087826 62.7837047 406.37930314 66.91116333 402.52139282 C72.08890984 397.68178486 77.28436576 392.86233443 82.49710083 388.06045532 C86.6508749 384.23087826 90.7837047 380.37930314 94.91116333 376.52139282 C100.08890984 371.68178486 105.28436576 366.86233443 110.49710083 362.06045532 C114.6508749 358.23087826 118.7837047 354.37930314 122.91116333 350.52139282 C128.08890984 345.68178486 133.28436576 340.86233443 138.49710083 336.06045532 C142.6508749 332.23087826 146.7837047 328.37930314 150.91116333 324.52139282 C156.08890984 319.68178486 161.28436576 314.86233443 166.49710083 310.06045532 C170.6508749 306.23087826 174.7837047 302.37930314 178.91116333 298.52139282 C184.08588188 293.68461508 189.2774806 288.86708088 194.48831177 284.06924438 C198.73248173 280.15774666 202.94788771 276.21611614 207.16116333 272.27139282 C212.50505478 267.27066202 217.89616341 262.33394018 223.41116333 257.52139282 C221.84635508 253.59580449 219.35374646 251.42587285 216.22366333 248.64639282 C215.13437628 247.66935863 214.04587129 246.691452 212.95803833 245.71279907 C212.38118286 245.19604614 211.80432739 244.67929321 211.20999146 244.1468811 C208.094682 241.33177112 205.03682469 238.45548316 201.97366333 235.58389282 C197.30109872 231.21333905 192.6171451 226.85594517 187.91116333 222.52139282 C182.58472455 217.61483651 177.28773229 212.67745116 171.99710083 207.73233032 C167.98146382 203.98109739 163.9528558 200.24452825 159.91116333 196.52139282 C154.58475663 191.61480143 149.28773258 186.67745143 143.99710083 181.73233032 C139.98146382 177.98109739 135.9528558 174.24452825 131.91116333 170.52139282 C126.58475663 165.61480143 121.28773258 160.67745143 115.99710083 155.73233032 C111.98146382 151.98109739 107.9528558 148.24452825 103.91116333 144.52139282 C98.58475663 139.61480143 93.28773258 134.67745143 87.99710083 129.73233032 C83.98146382 125.98109739 79.9528558 122.24452825 75.91116333 118.52139282 C70.58475663 113.61480143 65.28773258 108.67745143 59.99710083 103.73233032 C55.98146382 99.98109739 51.9528558 96.24452825 47.91116333 92.52139282 C42.58475663 87.61480143 37.28773258 82.67745143 31.99710083 77.73233032 C27.98146382 73.98109739 23.9528558 70.24452825 19.91116333 66.52139282 C14.5908866 61.62044825 9.29711399 56.69176678 4.01687622 51.74771118 C0.95539389 48.88389749 -2.11597057 46.03297535 -5.21774292 43.21279907 C-21.1545003 28.7096364 -21.1545003 28.7096364 -21.86227417 21.88467407 C-22.06632505 15.75529951 -21.74310519 11.4249162 -18.36618042 6.24014282 C-12.70324866 0.76390112 -7.55695084 -0.06519312 0 0 Z M44.41116333 37.52139282 C45.35357003 38.63536941 46.29807265 39.74757307 47.24343872 40.85903931 C47.76917984 41.47858994 48.29492096 42.09814056 48.83659363 42.73646545 C51.01600374 45.20703805 53.39501399 47.38778965 55.84866333 49.58389282 C56.90142179 50.53366586 57.95347081 51.48422569 59.00491333 52.43545532 C59.55663208 52.93335571 60.10835083 53.4312561 60.67678833 53.94424438 C63.76335481 56.75100388 66.80378279 59.60707749 69.84866333 62.45889282 C74.5214483 66.82921297 79.20517965 71.18683872 83.91116333 75.52139282 C89.23760211 80.42794913 94.53459437 85.36533448 99.82522583 90.31045532 C103.84086284 94.06168825 107.86947086 97.79825739 111.91116333 101.52139282 C117.23757003 106.42798422 122.53459408 111.36533421 127.82522583 116.31045532 C131.84086284 120.06168825 135.86947086 123.79825739 139.91116333 127.52139282 C145.23757003 132.42798422 150.53459408 137.36533421 155.82522583 142.31045532 C159.84086284 146.06168825 163.86947086 149.79825739 167.91116333 153.52139282 C173.23757003 158.42798422 178.53459408 163.36533421 183.82522583 168.31045532 C187.84086284 172.06168825 191.86947086 175.79825739 195.91116333 179.52139282 C201.23757003 184.42798422 206.53459408 189.36533421 211.82522583 194.31045532 C215.84086284 198.06168825 219.86947086 201.79825739 223.91116333 205.52139282 C228.59522004 209.8362628 233.25840378 214.17279733 237.91116333 218.52139282 C242.73716668 223.02930738 247.56580817 227.53427379 252.41116333 232.02139282 C252.94862183 232.52050171 253.48608032 233.0196106 254.03982544 233.53384399 C256.78036555 236.06612199 259.56717672 238.49512759 262.47366333 240.83389282 C266.56931552 244.58097887 268.98046069 247.55531689 269.79006958 253.13076782 C270.06023877 259.44052561 269.31503193 264.46271493 265.41116333 269.52139282 C262.75795563 272.22293831 259.91061455 274.65630403 257.02883911 277.10928345 C253.80190896 279.92615093 250.71219994 282.89306338 247.59866333 285.83389282 C242.70253972 290.43985457 237.79455631 295.03139695 232.84866333 299.58389282 C228.18478831 303.87726295 223.54211223 308.19252646 218.91116333 312.52139282 C213.73343841 317.36102373 208.53796073 322.18045137 203.32522583 326.98233032 C199.17145176 330.81190739 195.03862196 334.66348251 190.91116333 338.52139282 C185.73341682 343.36100079 180.5379609 348.18045122 175.32522583 352.98233032 C171.17145176 356.81190739 167.03862196 360.66348251 162.91116333 364.52139282 C157.73341682 369.36100079 152.5379609 374.18045122 147.32522583 378.98233032 C143.17145176 382.81190739 139.03862196 386.66348251 134.91116333 390.52139282 C129.73341682 395.36100079 124.5379609 400.18045122 119.32522583 404.98233032 C115.17145176 408.81190739 111.03862196 412.66348251 106.91116333 416.52139282 C101.73341682 421.36100079 96.5379609 426.18045122 91.32522583 430.98233032 C87.17145162 434.81190752 83.0386392 438.66350078 78.91116333 442.52139282 C74.23689728 446.89004986 69.55264333 451.24724245 64.84866333 455.58389282 C64.3321521 456.06060425 63.81564087 456.53731567 63.28347778 457.0284729 C61.02010296 459.11717537 58.75585133 461.20487476 56.48733521 463.28799438 C54.52229647 465.0926414 52.56031677 466.90056745 50.59866333 468.70889282 C49.98112183 469.27422729 49.36358032 469.83956177 48.72732544 470.42202759 C47.26962711 471.76821938 45.83754285 473.1420603 44.41116333 474.52139282 C44.41116333 474.85139282 44.41116333 475.18139282 44.41116333 475.52139282 C65.75156579 475.73187055 87.0917965 475.89045744 108.43302727 475.98770237 C118.34275945 476.03406039 128.25184577 476.09723339 138.16116333 476.2003479 C146.80072698 476.29020654 155.43982279 476.34815282 164.07984078 476.36818928 C168.65266171 476.37989749 173.22414456 476.40730353 177.79653549 476.47296333 C182.10613481 476.53434434 186.4138534 476.55284039 190.72384834 476.53936195 C192.30005833 476.54182522 193.8763353 476.55955994 195.4521656 476.5942421 C203.22122701 476.75675152 209.10654902 476.60142842 215.17755127 471.19117737 C216.61536173 469.6591247 218.02878351 468.10364133 219.41116333 466.52139282 C220.73728562 465.26070627 222.07482016 464.01174311 223.43069458 462.78311157 C224.69585455 461.59259424 225.96016863 460.40117737 227.22366333 459.20889282 C232.12008611 454.60324383 237.02776638 450.01139234 241.97366333 445.45889282 C246.63753835 441.16552269 251.28021443 436.85025919 255.91116333 432.52139282 C261.08888825 427.68176191 266.28436593 422.86233427 271.49710083 418.06045532 C275.6508749 414.23087826 279.7837047 410.37930314 283.91116333 406.52139282 C289.08890984 401.68178486 294.28436576 396.86233443 299.49710083 392.06045532 C303.6508749 388.23087826 307.7837047 384.37930314 311.91116333 380.52139282 C317.08890984 375.68178486 322.28436576 370.86233443 327.49710083 366.06045532 C331.6508749 362.23087826 335.7837047 358.37930314 339.91116333 354.52139282 C345.08890984 349.68178486 350.28436576 344.86233443 355.49710083 340.06045532 C359.6508749 336.23087826 363.7837047 332.37930314 367.91116333 328.52139282 C373.08890984 323.68178486 378.28436576 318.86233443 383.49710083 314.06045532 C387.6508749 310.23087826 391.7837047 306.37930314 395.91116333 302.52139282 C401.08890984 297.68178486 406.28436576 292.86233443 411.49710083 288.06045532 C416.28191665 283.64908854 421.03782856 279.20714974 425.79226685 274.76309204 C431.97357274 268.98871607 438.18836248 263.25098686 444.41116333 257.52139282 C443.03056156 254.38096451 441.4648749 252.37678742 438.95413208 250.05264282 C438.26045532 249.40537231 437.56677856 248.75810181 436.8520813 248.09121704 C436.10845337 247.40817505 435.36482544 246.72513306 434.59866333 246.02139282 C433.83183228 245.30870239 433.06500122 244.59601196 432.27493286 243.86172485 C429.99221571 241.74256835 427.70259062 239.63112329 425.41116333 237.52139282 C424.24813696 236.44615959 423.08534887 235.37066851 421.92288208 234.29483032 C419.83564559 232.36489745 417.74534302 230.438356 415.65335083 228.51358032 C412.05652087 225.20006989 408.4836485 221.86110726 404.91116333 218.52139282 C400.25859809 214.17259109 395.59521843 209.83626132 390.91116333 205.52139282 C385.58475663 200.61480143 380.28773258 195.67745143 374.99710083 190.73233032 C370.98146382 186.98109739 366.9528558 183.24452825 362.91116333 179.52139282 C357.58475663 174.61480143 352.28773258 169.67745143 346.99710083 164.73233032 C342.98146382 160.98109739 338.9528558 157.24452825 334.91116333 153.52139282 C329.58475663 148.61480143 324.28773258 143.67745143 318.99710083 138.73233032 C314.98146382 134.98109739 310.9528558 131.24452825 306.91116333 127.52139282 C301.58475663 122.61480143 296.28773258 117.67745143 290.99710083 112.73233032 C286.98146382 108.98109739 282.9528558 105.24452825 278.91116333 101.52139282 C273.58475663 96.61480143 268.28773258 91.67745143 262.99710083 86.73233032 C258.98146382 82.98109739 254.9528558 79.24452825 250.91116333 75.52139282 C246.22710662 71.20652285 241.56392288 66.86998832 236.91116333 62.52139282 C232.0851588 58.01347716 227.2563334 53.50871329 222.41116333 49.02139282 C221.90778442 48.55346313 221.40440552 48.08553345 220.88577271 47.60342407 C219.93069344 46.72045013 218.9650017 45.84876387 217.98719883 44.99102211 C216.41116333 43.52139282 216.41116333 43.52139282 215.14737606 41.96733665 C212.39140715 38.92966077 210.22712993 37.65684508 206.14116096 36.97856522 C201.90563164 36.78124431 197.70795854 36.77851174 193.47000122 36.84024048 C191.84337426 36.8419343 190.21674271 36.84098023 188.59011841 36.83758545 C184.18737606 36.83586758 179.78561929 36.87108307 175.38310552 36.91302919 C170.77739189 36.95059834 166.17165437 36.95406642 161.56581116 36.96118164 C152.84995738 36.97981236 144.13455645 37.02902525 135.41890186 37.08927858 C125.49396222 37.15639902 115.56900069 37.18934662 105.6438905 37.21945119 C85.23272893 37.28212596 64.82197468 37.3876264 44.41116333 37.52139282 Z " fill="#010000" transform="translate(21.588836669921875,-0.521392822265625)"/>
</svg>
