<?xml version="1.0" encoding="UTF-8"?>
<svg version="1.1" xmlns="http://www.w3.org/2000/svg" width="512" height="512">
<path d="M0 0 C5.28 0 10.56 0 16 0 C17.18009796 2.36019593 17.29767685 4.16095717 17.53515625 6.7890625 C17.62216797 7.73007813 17.70917969 8.67109375 17.79882812 9.640625 C17.88583984 10.62546875 17.97285156 11.6103125 18.0625 12.625 C18.19881836 14.11386719 18.19881836 14.11386719 18.33789062 15.6328125 C18.56218436 18.08823868 18.78273107 20.54394389 19 23 C19.69859131 22.85900879 20.39718262 22.71801758 21.11694336 22.57275391 C24.38910951 21.91654714 27.66326034 21.27077802 30.9375 20.625 C32.03513672 20.40328125 33.13277344 20.1815625 34.26367188 19.953125 C50.28521241 16.81345712 65.79585024 15.64875721 82.09960938 15.68432617 C85.10063476 15.68747444 88.10065872 15.66396591 91.1015625 15.63867188 C108.90079064 15.58037488 126.45721707 17.46472782 143.875 21.1875 C144.85146484 21.39544189 145.82792969 21.60338379 146.83398438 21.81762695 C193.37341567 32.18073327 234.28129778 54.91059752 270 86 C270.85207031 86.73992187 271.70414062 87.47984375 272.58203125 88.2421875 C274.39350813 89.82207452 276.20020855 91.40683113 278 93 C276.57849991 96.13152248 274.86435776 98.58143518 272.625 101.1875 C272.03976562 101.88230469 271.45453125 102.57710938 270.8515625 103.29296875 C268.82332998 105.16287932 267.75788158 105.88485981 265 106 C263.46484375 104.8828125 263.46484375 104.8828125 261.9375 103.125 C257.36618953 98.22370109 252.24222636 94.16093163 247 90 C246.03320312 89.21625 245.06640625 88.4325 244.0703125 87.625 C191.8901801 46.19955137 123.15175364 27.28123836 57.10546875 34.6328125 C46.92356934 35.84676085 36.91177818 37.3175418 27 40 C32.42983609 49.71252371 39.65472055 58.7698137 49 65 C52.22705729 65.03072241 52.22705729 65.03072241 55.94921875 64.64453125 C88.4606641 62.10011267 120.66068827 63.45194151 152 73 C152.64791504 73.19174805 153.29583008 73.38349609 153.96337891 73.58105469 C181.04426018 81.66843172 206.09287726 95.69527337 228.0625 113.3125 C228.63830811 113.77245361 229.21411621 114.23240723 229.80737305 114.70629883 C240.25869949 123.28485247 249.93153437 132.82794155 259.41015625 142.453125 C260.11932693 143.17243698 260.82849762 143.89174896 261.55915833 144.63285828 C264.45959255 147.57854172 267.35782297 150.5261368 270.24145508 153.48828125 C281.30956235 164.84095084 292.48949398 175.47599061 307 182.3125 C307.65299072 182.63387939 308.30598145 182.95525879 308.97875977 183.28637695 C314.61506278 185.99003575 320.40819823 187.94895529 326.40234375 189.69921875 C329 191 329 191 329.96875 193.25 C330.00573121 196.50434679 329.42428361 199.17560766 328.5625 202.3125 C328.27503906 203.38113281 327.98757813 204.44976562 327.69140625 205.55078125 C327.34916016 206.76314453 327.34916016 206.76314453 327 208 C321.33171945 207.40531984 316.39677846 205.90757199 311.0625 203.9375 C310.28326172 203.65583984 309.50402344 203.37417969 308.70117188 203.08398438 C306.79859875 202.39532294 304.89898275 201.69850097 303 201 C301.11536363 205.0500847 299.24615183 209.10682504 297.39086914 213.17041016 C296.7576888 214.55157024 296.1203449 215.93082952 295.47875977 217.30810547 C294.55682767 219.28908117 293.65012433 221.27642804 292.74609375 223.265625 C291.92129517 225.05661621 291.92129517 225.05661621 291.07983398 226.88378906 C290.01555019 229.95512488 289.67692546 231.09603823 291 234 C292.47890069 235.73026102 292.47890069 235.73026102 294 237 C291.78719197 241.99493075 288.14967638 244.57096207 284 248 C283.46068848 248.45552246 282.92137695 248.91104492 282.36572266 249.38037109 C266.67854923 262.62836727 249.89483352 273.95654601 232 284 C231.35482422 284.37044434 230.70964844 284.74088867 230.04492188 285.12255859 C201.46161535 301.4836894 169.33149728 311.38659065 137 317 C136.09894531 317.16371094 135.19789063 317.32742188 134.26953125 317.49609375 C103.77266365 322.82094365 69.22117208 322.70849172 39 316 C38.00613281 315.78037598 37.01226562 315.56075195 35.98828125 315.33447266 C29.25106991 313.7950678 22.61609111 311.99372353 16 310 C15.1754834 309.75443359 14.3509668 309.50886719 13.50146484 309.25585938 C-14.36233515 300.75826919 -40.47191278 286.38968051 -63 268 C-64.00675781 267.19691406 -65.01351562 266.39382813 -66.05078125 265.56640625 C-80.67802917 253.70870622 -93.87998542 240.18676277 -105 225 C-106.25850357 223.30293213 -107.5176631 221.60635059 -108.77734375 219.91015625 C-112.20297186 215.28658036 -115.60806868 210.64834026 -119 206 C-117.63016497 202.83884224 -117.0109362 202.0072908 -114 200 C-114.6352387 194.40989947 -115.93707124 189.1080759 -117.37890625 183.671875 C-118 181 -118 181 -118 178 C-118.99257812 178.50789062 -119.98515625 179.01578125 -121.0078125 179.5390625 C-129.87698023 184.0438972 -138.80276102 188.20613892 -148 192 C-150.68872443 189.64350301 -151.9193851 187.36421235 -153.25 184.0625 C-153.78367188 182.78052734 -153.78367188 182.78052734 -154.328125 181.47265625 C-155.07655622 178.71825532 -155.03673229 177.62486945 -154 175 C-152.36791992 173.89428711 -152.36791992 173.89428711 -150.23046875 173.02734375 C-149.43382812 172.69081787 -148.6371875 172.35429199 -147.81640625 172.00756836 C-146.94886719 171.6544458 -146.08132812 171.30132324 -145.1875 170.9375 C-129.97706924 164.42168776 -115.50804981 156.58192964 -102 147 C-104.85090554 144.10970371 -107.71699977 141.31378757 -110.8125 138.6875 C-112.21107783 137.461457 -113.60689714 136.23226045 -115 135 C-115.64066406 134.43925781 -116.28132813 133.87851563 -116.94140625 133.30078125 C-132.8031506 118.52853045 -143.41452509 95.42034611 -144.23828125 73.75 C-144.24811277 70.49904445 -144.13821409 67.24803102 -144 64 C-138.39 64 -132.78 64 -127 64 C-126.773125 66.475 -126.54625 68.95 -126.3125 71.5 C-125.32348908 80.84624457 -123.23285398 90.53429204 -119 99 C-115.05155845 97.30091513 -111.88482457 94.6697087 -108.5625 92 C-107.32209838 91.01371416 -106.08120027 90.02805247 -104.83984375 89.04296875 C-104.20804199 88.54071777 -103.57624023 88.0384668 -102.92529297 87.52099609 C-99.84731115 85.08936704 -96.73768064 82.69945309 -93.625 80.3125 C-93.05982666 79.87873047 -92.49465332 79.44496094 -91.91235352 78.99804688 C-90.60873075 77.99805219 -89.30444646 76.99891997 -88 76 C-88.40992187 74.81664062 -88.81984375 73.63328125 -89.2421875 72.4140625 C-94.06854098 58.34042767 -96.25250039 46.89752284 -96 32 C-90.72 32 -85.44 32 -80 32 C-78.70010756 34.59978489 -78.65931738 37.1079111 -78.40380859 39.96923828 C-77.64134729 48.44925377 -76.21207254 56.04778158 -73 64 C-67.6196099 60.88398264 -62.24340119 57.76626436 -56.93359375 54.53125 C-55.92147827 53.91624634 -55.92147827 53.91624634 -54.88891602 53.28881836 C-53.55771996 52.4782234 -52.2287316 51.66399048 -50.90209961 50.84594727 C-46.22153387 48 -46.22153387 48 -44 48 C-44.28875 47.030625 -44.5775 46.06125 -44.875 45.0625 C-47.70076724 35.04890772 -48.37185459 26.41192841 -48 16 C-42.72 16 -37.44 16 -32 16 C-30.81990204 18.36019593 -30.70232315 20.16095717 -30.46484375 22.7890625 C-30.37783203 23.73007813 -30.29082031 24.67109375 -30.20117188 25.640625 C-30.11416016 26.62546875 -30.02714844 27.6103125 -29.9375 28.625 C-29.80118164 30.11386719 -29.80118164 30.11386719 -29.66210938 31.6328125 C-29.43781564 34.08823868 -29.21726893 36.54394389 -29 39 C-28.00742188 38.62488281 -27.01484375 38.24976563 -25.9921875 37.86328125 C-19.05047392 35.24574478 -12.10259578 32.6455616 -5.125 30.125 C-3.99320313 29.71507813 -2.86140625 29.30515625 -1.6953125 28.8828125 C1 28 1 28 3 28 C2.7834375 27.319375 2.566875 26.63875 2.34375 25.9375 C-0.22234706 17.0036806 -0.2387589 9.23201076 0 0 Z M-1.5 47.25 C-2.37398437 47.55035156 -3.24796875 47.85070312 -4.1484375 48.16015625 C-9.90391617 50.16688843 -15.47226781 52.43186557 -21 55 C-20.16544932 61.45919364 -16.17270349 65.24680584 -12 70 C-11.16082031 70.9590625 -10.32164062 71.918125 -9.45703125 72.90625 C-8.60496094 73.8240625 -7.75289062 74.741875 -6.875 75.6875 C-6.08867187 76.53699219 -5.30234375 77.38648438 -4.4921875 78.26171875 C-2.12057466 80.31722593 -2.12057466 80.31722593 0.79101562 79.72412109 C3.8890857 79.02502829 6.82874073 78.1709104 9.8359375 77.15234375 C10.89941406 76.79462891 11.96289062 76.43691406 13.05859375 76.06835938 C14.70021484 75.50858398 14.70021484 75.50858398 16.375 74.9375 C17.49261719 74.56044922 18.61023438 74.18339844 19.76171875 73.79492188 C22.50921766 72.86734746 25.25522228 71.93558963 28 71 C27.61400635 70.48630859 27.2280127 69.97261719 26.83032227 69.44335938 C14.81553168 53.44100549 14.81553168 53.44100549 11.0625 47.3125 C10.0415625 45.6728125 10.0415625 45.6728125 9 44 C5.58918599 44 1.68719606 46.13765949 -1.5 47.25 Z M-45.4375 67.5 C-46.0577002 67.85513672 -46.67790039 68.21027344 -47.31689453 68.57617188 C-53.17943929 71.9948631 -58.61481103 75.86769173 -64 80 C-59.33033671 88.563635 -50.8695259 96.87108277 -42 101 C-36.92408619 99.64087554 -32.24501729 96.44332466 -27.6875 93.875 C-26.85154297 93.40707031 -26.01558594 92.93914062 -25.15429688 92.45703125 C-23.10133767 91.3073741 -21.04997798 90.15496198 -19 89 C-20.52590683 85.80016922 -22.17570662 83.57614921 -24.625 81 C-28.79077271 76.44653676 -32.0637471 71.52975812 -35.3359375 66.30859375 C-35.88507813 65.54675781 -36.43421875 64.78492188 -37 64 C-40.22383773 64 -42.70745917 65.92673158 -45.4375 67.5 Z M-85.0625 95.6875 C-85.67432129 96.17065674 -86.28614258 96.65381348 -86.91650391 97.15161133 C-94.33599452 103.02872232 -101.66985075 109.01212484 -109 115 C-105.1933864 120.51299648 -101.26374031 124.88078609 -95.9375 128.9375 C-95.33873047 129.41767578 -94.73996094 129.89785156 -94.12304688 130.39257812 C-89.55765674 134.07912818 -89.55765674 134.07912818 -84 135 C-81.22008049 133.33910739 -78.86343697 131.25930221 -76.4375 129.125 C-75.02111195 127.92391471 -73.60312692 126.72471026 -72.18359375 125.52734375 C-71.48218262 124.93034668 -70.78077148 124.33334961 -70.05810547 123.71826172 C-67.11884618 121.26434632 -64.07928787 118.96171138 -61 116.6875 C-60.030625 115.96949219 -59.06125 115.25148438 -58.0625 114.51171875 C-57.381875 114.01285156 -56.70125 113.51398438 -56 113 C-58.82262879 110.1335718 -61.65688273 107.3834885 -64.75 104.8125 C-68.96161052 101.1865039 -72.57414214 97.13164773 -76.21484375 92.94140625 C-76.80394531 92.30074219 -77.39304687 91.66007812 -78 91 C-80.40321405 91 -83.17469724 94.18863256 -85.0625 95.6875 Z " fill="#010202" transform="translate(168,72)"/>
<path d="M0 0 C0.99 0.495 0.99 0.495 2 1 C1.23816406 2.31097656 1.23816406 2.31097656 0.4609375 3.6484375 C-11.37237484 24.56232384 -16.00551667 46.08599271 -15 70 C-14.97341309 70.76183594 -14.94682617 71.52367187 -14.91943359 72.30859375 C-13.55309086 103.75549722 2.81377268 131.65054759 25.0625 153 C39.51572119 165.84058842 57.33894971 174.38811572 76 179 C77.00289062 179.2990625 78.00578125 179.598125 79.0390625 179.90625 C95.58622854 184.34072626 115.60915582 183.8450923 132 179 C132.79567383 178.76893555 133.59134766 178.53787109 134.41113281 178.29980469 C166.56790896 168.79975376 192.58407884 149.66946791 209 120 C224.31467778 91.18325124 226.84977587 58.87913951 218.140625 27.6171875 C216.44691863 22.24605016 214.30518924 17.13288805 212 12 C211.39331801 10.58440869 210.78870132 9.16792764 210.1875 7.75 C209.795625 6.8425 209.40375 5.935 209 5 C213.90532624 6.62554671 217.76683211 9.41173094 221.9375 12.375 C222.94393555 13.06916016 222.94393555 13.06916016 223.97070312 13.77734375 C240.66357723 25.56235901 254.59306699 40.43308435 268.84399414 54.96044922 C283.52221164 70.0182472 283.52221164 70.0182472 300 83 C300.69730225 83.47695313 301.39460449 83.95390625 302.11303711 84.4453125 C303.69449759 85.4845148 305.3137247 86.46574258 306.9375 87.4375 C308.46697266 88.36369141 308.46697266 88.36369141 310.02734375 89.30859375 C312.97108227 90.98354615 315.95588944 92.51650648 319 94 C316.48761837 102.13174189 313.02209886 109.61620823 309.3203125 117.26757812 C308.87945312 118.20666016 308.43859375 119.14574219 307.984375 120.11328125 C307.57928711 120.95673096 307.17419922 121.80018066 306.75683594 122.66918945 C305.9024748 125.30034615 305.98323909 126.4584417 307 129 C308.47890069 130.73026102 308.47890069 130.73026102 310 132 C307.78719197 136.99493075 304.14967638 139.57096207 300 143 C299.46068848 143.45552246 298.92137695 143.91104492 298.36572266 144.38037109 C282.67854923 157.62836727 265.89483352 168.95654601 248 179 C247.35482422 179.37044434 246.70964844 179.74088867 246.04492188 180.12255859 C217.46161535 196.4836894 185.33149728 206.38659065 153 212 C152.09894531 212.16371094 151.19789063 212.32742188 150.26953125 212.49609375 C119.77266365 217.82094365 85.22117208 217.70849172 55 211 C54.00613281 210.78037598 53.01226562 210.56075195 51.98828125 210.33447266 C45.25106991 208.7950678 38.61609111 206.99372353 32 205 C31.1754834 204.75443359 30.3509668 204.50886719 29.50146484 204.25585938 C1.63766485 195.75826919 -24.47191278 181.38968051 -47 163 C-48.00675781 162.19691406 -49.01351562 161.39382813 -50.05078125 160.56640625 C-64.67802917 148.70870622 -77.87998542 135.18676277 -89 120 C-90.25850357 118.30293213 -91.5176631 116.60635059 -92.77734375 114.91015625 C-96.20297186 110.28658036 -99.60806868 105.64834026 -103 101 C-101.63016497 97.83884224 -101.0109362 97.0072908 -98 95 C-98.63097286 89.44743886 -99.95439497 84.24365079 -101.4765625 78.8671875 C-102.04558046 75.75032795 -101.93725469 74.01049512 -101 71 C-99.3203125 69.52124023 -99.3203125 69.52124023 -97.125 68.30859375 C-96.31321289 67.84525635 -95.50142578 67.38191895 -94.66503906 66.90454102 C-93.78557617 66.42041748 -92.90611328 65.93629395 -92 65.4375 C-90.15849245 64.37753194 -88.31999412 63.31232057 -86.484375 62.2421875 C-85.55947266 61.70303711 -84.63457031 61.16388672 -83.68164062 60.60839844 C-71.6181951 53.37296698 -60.70842384 44.49115295 -49.88916016 35.55078125 C-44.67151418 31.26769941 -39.33863153 27.13048321 -34 23 C-33.36594238 22.50612793 -32.73188477 22.01225586 -32.07861328 21.50341797 C-23.69585274 14.99267642 -15.20776568 9.05174195 -6.01171875 3.7421875 C-3.96851611 2.56025705 -1.96399768 1.30933179 0 0 Z " fill="#CACFD7" transform="translate(152,177)"/>
<path d="M0 0 C5.28 0 10.56 0 16 0 C17.18009796 2.36019593 17.29767685 4.16095717 17.53515625 6.7890625 C17.62216797 7.73007813 17.70917969 8.67109375 17.79882812 9.640625 C17.88583984 10.62546875 17.97285156 11.6103125 18.0625 12.625 C18.19881836 14.11386719 18.19881836 14.11386719 18.33789062 15.6328125 C18.56218436 18.08823868 18.78273107 20.54394389 19 23 C19.69859131 22.85900879 20.39718262 22.71801758 21.11694336 22.57275391 C24.38910951 21.91654714 27.66326034 21.27077802 30.9375 20.625 C32.03513672 20.40328125 33.13277344 20.1815625 34.26367188 19.953125 C50.28521241 16.81345712 65.79585024 15.64875721 82.09960938 15.68432617 C85.10063476 15.68747444 88.10065872 15.66396591 91.1015625 15.63867188 C108.90079064 15.58037488 126.45721707 17.46472782 143.875 21.1875 C144.85146484 21.39544189 145.82792969 21.60338379 146.83398438 21.81762695 C193.37341567 32.18073327 234.28129778 54.91059752 270 86 C270.85207031 86.73992187 271.70414062 87.47984375 272.58203125 88.2421875 C274.39350813 89.82207452 276.20020855 91.40683113 278 93 C276.57849991 96.13152248 274.86435776 98.58143518 272.625 101.1875 C272.03976562 101.88230469 271.45453125 102.57710938 270.8515625 103.29296875 C268.82332998 105.16287932 267.75788158 105.88485981 265 106 C263.46484375 104.8828125 263.46484375 104.8828125 261.9375 103.125 C257.36618953 98.22370109 252.24222636 94.16093163 247 90 C246.03320312 89.21625 245.06640625 88.4325 244.0703125 87.625 C191.8901801 46.19955137 123.15175364 27.28123836 57.10546875 34.6328125 C46.92356934 35.84676085 36.91177818 37.3175418 27 40 C32.42983609 49.71252371 39.65472055 58.7698137 49 65 C52.22705729 65.03072241 52.22705729 65.03072241 55.94921875 64.64453125 C88.4606641 62.10011267 120.66068827 63.45194151 152 73 C152.64791504 73.19174805 153.29583008 73.38349609 153.96337891 73.58105469 C181.04426018 81.66843172 206.09287726 95.69527337 228.0625 113.3125 C228.63830811 113.77245361 229.21411621 114.23240723 229.80737305 114.70629883 C240.25869949 123.28485247 249.93153437 132.82794155 259.41015625 142.453125 C260.11932693 143.17243698 260.82849762 143.89174896 261.55915833 144.63285828 C264.45959255 147.57854172 267.35782297 150.5261368 270.24145508 153.48828125 C281.30956235 164.84095084 292.48949398 175.47599061 307 182.3125 C307.65299072 182.63387939 308.30598145 182.95525879 308.97875977 183.28637695 C314.61506278 185.99003575 320.40819823 187.94895529 326.40234375 189.69921875 C329 191 329 191 329.96875 193.25 C330.00573121 196.50434679 329.42428361 199.17560766 328.5625 202.3125 C328.27503906 203.38113281 327.98757813 204.44976562 327.69140625 205.55078125 C327.34916016 206.76314453 327.34916016 206.76314453 327 208 C297.69399039 204.64751304 273.77703177 181.96719664 254.0078125 162 C253.20787369 161.19227646 252.40793488 160.38455292 251.58375549 159.55235291 C248.26156643 156.19348232 244.94196967 152.83217283 241.63232422 149.4609375 C229.26114206 136.87297345 216.80988719 125.64639152 202.125 115.8125 C201.42503906 115.33748047 200.72507812 114.86246094 200.00390625 114.37304688 C198.33902992 113.24412388 196.67002036 112.12129939 195 111 C195.75367925 114.2206125 196.85243748 116.90063114 198.3125 119.875 C211.69050101 148.79622762 210.84117755 181.861181 200.2109375 211.3359375 C189.11532659 240.57739413 166.60079778 263.61378437 138.6875 277.25 C133.37546262 279.5756681 127.94934866 281.46366713 122.4375 283.25 C121.30477661 283.6197998 121.30477661 283.6197998 120.14916992 283.99707031 C90.50733292 293.18410199 58.5375139 288.34299573 31.375 274.1875 C20.78100248 268.46895011 11.75004559 261.23711188 3 253 C2.39671875 252.46117187 1.7934375 251.92234375 1.171875 251.3671875 C-19.278028 232.35068892 -30.806679 202.42908844 -32 175 C-32.04237793 174.17145508 -32.08475586 173.34291016 -32.12841797 172.48925781 C-33.2208348 148.29290483 -27.06382349 126.84400271 -15 106 C-30.94649516 114.28715497 -44.88992057 124.98594715 -58.75 136.3125 C-85.60687025 158.22290172 -115.61793175 181.24984243 -149 192 C-154.55580866 181.62642369 -154.55580866 181.62642369 -155 176 C-150.31174231 173.60163681 -145.60424231 171.26254836 -140.80859375 169.0859375 C-131.95415878 165.04201666 -123.42128219 160.68607931 -115.0625 155.6875 C-114.2163916 155.18404053 -113.3702832 154.68058105 -112.49853516 154.16186523 C-108.56394552 151.76486233 -105.05925467 149.50939023 -102 146 C-102.89138672 145.32517578 -102.89138672 145.32517578 -103.80078125 144.63671875 C-125.58671447 127.72975035 -140.42879281 105.72204114 -144 78 C-144.34516106 73.3100577 -144.20010988 68.70258209 -144 64 C-138.39 64 -132.78 64 -127 64 C-126.773125 66.475 -126.54625 68.95 -126.3125 71.5 C-125.32348908 80.84624457 -123.23285398 90.53429204 -119 99 C-115.05155845 97.30091513 -111.88482457 94.6697087 -108.5625 92 C-107.32209838 91.01371416 -106.08120027 90.02805247 -104.83984375 89.04296875 C-104.20804199 88.54071777 -103.57624023 88.0384668 -102.92529297 87.52099609 C-99.84731115 85.08936704 -96.73768064 82.69945309 -93.625 80.3125 C-93.05982666 79.87873047 -92.49465332 79.44496094 -91.91235352 78.99804688 C-90.60873075 77.99805219 -89.30444646 76.99891997 -88 76 C-88.40992187 74.81664062 -88.81984375 73.63328125 -89.2421875 72.4140625 C-94.06854098 58.34042767 -96.25250039 46.89752284 -96 32 C-90.72 32 -85.44 32 -80 32 C-78.70010756 34.59978489 -78.65931738 37.1079111 -78.40380859 39.96923828 C-77.64134729 48.44925377 -76.21207254 56.04778158 -73 64 C-67.6196099 60.88398264 -62.24340119 57.76626436 -56.93359375 54.53125 C-55.92147827 53.91624634 -55.92147827 53.91624634 -54.88891602 53.28881836 C-53.55771996 52.4782234 -52.2287316 51.66399048 -50.90209961 50.84594727 C-46.22153387 48 -46.22153387 48 -44 48 C-44.28875 47.030625 -44.5775 46.06125 -44.875 45.0625 C-47.70076724 35.04890772 -48.37185459 26.41192841 -48 16 C-42.72 16 -37.44 16 -32 16 C-30.81990204 18.36019593 -30.70232315 20.16095717 -30.46484375 22.7890625 C-30.37783203 23.73007813 -30.29082031 24.67109375 -30.20117188 25.640625 C-30.11416016 26.62546875 -30.02714844 27.6103125 -29.9375 28.625 C-29.80118164 30.11386719 -29.80118164 30.11386719 -29.66210938 31.6328125 C-29.43781564 34.08823868 -29.21726893 36.54394389 -29 39 C-28.00742188 38.62488281 -27.01484375 38.24976563 -25.9921875 37.86328125 C-19.05047392 35.24574478 -12.10259578 32.6455616 -5.125 30.125 C-3.99320313 29.71507813 -2.86140625 29.30515625 -1.6953125 28.8828125 C1 28 1 28 3 28 C2.7834375 27.319375 2.566875 26.63875 2.34375 25.9375 C-0.22234706 17.0036806 -0.2387589 9.23201076 0 0 Z M-1.5 47.25 C-2.37398437 47.55035156 -3.24796875 47.85070312 -4.1484375 48.16015625 C-9.90391617 50.16688843 -15.47226781 52.43186557 -21 55 C-20.16544932 61.45919364 -16.17270349 65.24680584 -12 70 C-11.16082031 70.9590625 -10.32164062 71.918125 -9.45703125 72.90625 C-8.60496094 73.8240625 -7.75289062 74.741875 -6.875 75.6875 C-6.08867187 76.53699219 -5.30234375 77.38648438 -4.4921875 78.26171875 C-2.12057466 80.31722593 -2.12057466 80.31722593 0.79101562 79.72412109 C3.8890857 79.02502829 6.82874073 78.1709104 9.8359375 77.15234375 C10.89941406 76.79462891 11.96289062 76.43691406 13.05859375 76.06835938 C14.70021484 75.50858398 14.70021484 75.50858398 16.375 74.9375 C17.49261719 74.56044922 18.61023438 74.18339844 19.76171875 73.79492188 C22.50921766 72.86734746 25.25522228 71.93558963 28 71 C27.61400635 70.48630859 27.2280127 69.97261719 26.83032227 69.44335938 C14.81553168 53.44100549 14.81553168 53.44100549 11.0625 47.3125 C10.0415625 45.6728125 10.0415625 45.6728125 9 44 C5.58918599 44 1.68719606 46.13765949 -1.5 47.25 Z M-45.4375 67.5 C-46.0577002 67.85513672 -46.67790039 68.21027344 -47.31689453 68.57617188 C-53.17943929 71.9948631 -58.61481103 75.86769173 -64 80 C-59.33033671 88.563635 -50.8695259 96.87108277 -42 101 C-36.92408619 99.64087554 -32.24501729 96.44332466 -27.6875 93.875 C-26.85154297 93.40707031 -26.01558594 92.93914062 -25.15429688 92.45703125 C-23.10133767 91.3073741 -21.04997798 90.15496198 -19 89 C-20.52590683 85.80016922 -22.17570662 83.57614921 -24.625 81 C-28.79077271 76.44653676 -32.0637471 71.52975812 -35.3359375 66.30859375 C-35.88507813 65.54675781 -36.43421875 64.78492188 -37 64 C-40.22383773 64 -42.70745917 65.92673158 -45.4375 67.5 Z M41 84 C39.41445312 84.28955566 39.41445312 84.28955566 37.796875 84.58496094 C24.17887774 87.21610317 15.47403856 90.86716075 7 102 C6.03320312 103.18916016 6.03320312 103.18916016 5.046875 104.40234375 C-3.35768409 115.47591822 -9.62448916 128.56614879 -13 142 C-13.44472656 143.46179688 -13.44472656 143.46179688 -13.8984375 144.953125 C-20.88852428 169.96352724 -14.56644238 197.71192585 -2.54003906 220.07080078 C0.98514868 226.32187762 5.23052647 231.63776208 10 237 C10.96099609 238.24910156 10.96099609 238.24910156 11.94140625 239.5234375 C23.92697528 253.94250916 43.17820349 264.02004134 61 269 C62.00675781 269.2990625 63.01351562 269.598125 64.05078125 269.90625 C91.03553 276.8867359 119.05878741 269.99393844 143 257 C165.77050834 242.96123654 182.112894 219.81883125 189.2578125 194.2109375 C195.58770747 166.82581292 192.2102431 139.09949983 178.08984375 114.69921875 C166.62540847 96.761822 154.91716401 89.87059374 134.53417969 85.20703125 C103.12301085 78.71704939 72.56660362 78.09512304 41 84 Z M-85.0625 95.6875 C-85.67432129 96.17065674 -86.28614258 96.65381348 -86.91650391 97.15161133 C-94.33599452 103.02872232 -101.66985075 109.01212484 -109 115 C-105.1933864 120.51299648 -101.26374031 124.88078609 -95.9375 128.9375 C-95.33873047 129.41767578 -94.73996094 129.89785156 -94.12304688 130.39257812 C-89.55765674 134.07912818 -89.55765674 134.07912818 -84 135 C-81.22008049 133.33910739 -78.86343697 131.25930221 -76.4375 129.125 C-75.02111195 127.92391471 -73.60312692 126.72471026 -72.18359375 125.52734375 C-71.48218262 124.93034668 -70.78077148 124.33334961 -70.05810547 123.71826172 C-67.11884618 121.26434632 -64.07928787 118.96171138 -61 116.6875 C-60.030625 115.96949219 -59.06125 115.25148438 -58.0625 114.51171875 C-57.381875 114.01285156 -56.70125 113.51398438 -56 113 C-58.82262879 110.1335718 -61.65688273 107.3834885 -64.75 104.8125 C-68.96161052 101.1865039 -72.57414214 97.13164773 -76.21484375 92.94140625 C-76.80394531 92.30074219 -77.39304687 91.66007812 -78 91 C-80.40321405 91 -83.17469724 94.18863256 -85.0625 95.6875 Z " fill="#000101" transform="translate(168,72)"/>
<path d="M0 0 C0.8132373 0.13921875 1.62647461 0.2784375 2.46435547 0.421875 C37.0348903 6.40403845 37.0348903 6.40403845 47 20 C47.39977051 20.53125488 47.79954102 21.06250977 48.21142578 21.60986328 C65.77076209 45.21911071 71.49690577 71.98636497 68.25 101 C65.21360835 120.08589038 56.98374232 138.61427803 44 153 C43.47776855 153.58120605 42.95553711 154.16241211 42.41748047 154.76123047 C24.371821 174.50443664 -0.51083433 187.6271297 -27.52587891 189.14160156 C-55.5136603 190.31370995 -81.33095617 183.10160676 -102.5625 164.25 C-104.05253238 162.84476621 -105.53356647 161.42984306 -107 160 C-107.86625 159.175 -108.7325 158.35 -109.625 157.5 C-110.40875 156.675 -111.1925 155.85 -112 155 C-112.88751953 154.10474609 -112.88751953 154.10474609 -113.79296875 153.19140625 C-132.85947263 133.09228708 -140.03269025 104.50904982 -139.3671875 77.46875 C-138.09821709 52.23333846 -126.12763041 30.00519451 -109 12 C-107.92105469 10.71222656 -107.92105469 10.71222656 -106.8203125 9.3984375 C-102.99585951 6.14606335 -99.30955914 5.16313534 -94.5 3.9375 C-93.54150146 3.6885498 -92.58300293 3.43959961 -91.59545898 3.18310547 C-61.58695435 -4.22410241 -30.41931573 -5.56677677 0 0 Z M-83 31 C-83.74765625 31.65484375 -84.4953125 32.3096875 -85.265625 32.984375 C-93.72959689 40.87256649 -100.10377927 51.10187535 -104 62 C-104.29777344 62.81855469 -104.59554687 63.63710937 -104.90234375 64.48046875 C-110.74462601 83.56884719 -106.99560247 103.56735109 -97.8515625 120.84375 C-95.25886059 125.26337688 -92.40566053 129.17792683 -89 133 C-88.43023437 133.66257812 -87.86046875 134.32515625 -87.2734375 135.0078125 C-75.86226201 147.39015186 -58.05260089 156.55702431 -41.15234375 157.3359375 C-20.77952063 157.69144686 -2.50827877 152.87582838 13 139 C13.74765625 138.34515625 14.4953125 137.6903125 15.265625 137.015625 C27.86578653 125.27261731 36.54173951 107.45942993 37.3359375 90.1171875 C37.68321432 70.09468613 32.64067204 52.24545698 19 37 C18.01773438 35.87851563 18.01773438 35.87851563 17.015625 34.734375 C5.27261731 22.13421347 -12.54057007 13.45826049 -29.8828125 12.6640625 C-49.90531387 12.31678568 -67.75454302 17.35932796 -83 31 Z " fill="#68D4F2" transform="translate(291,155)"/>
<path d="M0 0 C2.76903451 2.19100544 4.57803747 4.90479601 6.52734375 7.8046875 C7.41811 9.08505034 8.31141668 10.36364886 9.20703125 11.640625 C9.66432617 12.29385742 10.12162109 12.94708984 10.59277344 13.62011719 C22.29912839 30.12566108 36.09055447 44.99747982 51.96484375 57.5546875 C52.54137695 58.01149902 53.11791016 58.46831055 53.71191406 58.93896484 C84.12602176 82.73214227 119.9683775 98.01656988 157.96484375 104.5546875 C158.70379883 104.68456055 159.44275391 104.81443359 160.20410156 104.94824219 C203.02744036 112.01617189 249.75601441 104.82823462 289.96484375 89.5546875 C290.80966309 89.2359668 291.65448242 88.91724609 292.52490234 88.58886719 C327.98764195 75.10805316 358.99441102 55.21953142 386.96484375 29.5546875 C391.14908267 33.06366019 395.16072541 36.63529285 398.96484375 40.5546875 C396.75203572 45.54961825 393.11452013 48.12564957 388.96484375 51.5546875 C388.15587646 52.23797119 388.15587646 52.23797119 387.33056641 52.93505859 C371.64339298 66.18305477 354.85967727 77.51123351 336.96484375 87.5546875 C336.31966797 87.92513184 335.67449219 88.29557617 335.00976562 88.67724609 C306.4264591 105.0383769 274.29634103 114.94127815 241.96484375 120.5546875 C241.06378906 120.71839844 240.16273438 120.88210938 239.234375 121.05078125 C208.7375074 126.37563115 174.18601583 126.26317922 143.96484375 119.5546875 C142.97097656 119.33506348 141.97710937 119.11543945 140.953125 118.88916016 C134.21591366 117.3497553 127.58093486 115.54841103 120.96484375 113.5546875 C120.14032715 113.30912109 119.31581055 113.06355469 118.46630859 112.81054688 C90.6025086 104.31295669 64.49293097 89.94436801 41.96484375 71.5546875 C40.45470703 70.35005859 40.45470703 70.35005859 38.9140625 69.12109375 C24.28681458 57.26339372 11.08485833 43.74145027 -0.03515625 28.5546875 C-1.29365982 26.85761963 -2.55281935 25.16103809 -3.8125 23.46484375 C-7.23812811 18.84126786 -10.64322493 14.20302776 -14.03515625 9.5546875 C-12.33379971 5.816727 -10.69870676 4.33221822 -7.16015625 2.1796875 C-6.29648437 1.63570313 -5.4328125 1.09171875 -4.54296875 0.53125 C-2.03515625 -0.4453125 -2.03515625 -0.4453125 0 0 Z " fill="#010101" transform="translate(63.03515625,268.4453125)"/>
<path d="M0 0 C5.28 0 10.56 0 16 0 C16.33 27.06 16.66 54.12 17 82 C22.28 76.72 27.56 71.44 33 66 C36.84281736 67.92140868 38.80431927 69.5926816 41.75 72.625 C42.54921875 73.44226563 43.3484375 74.25953125 44.171875 75.1015625 C44.77515625 75.72804688 45.3784375 76.35453125 46 77 C44.60919475 80.13738154 42.98977796 82.25475281 40.56005859 84.66699219 C39.85948334 85.36741638 39.15890808 86.06784058 38.43710327 86.78948975 C37.68184357 87.53442688 36.92658386 88.27936401 36.1484375 89.046875 C35.37440582 89.81807678 34.60037415 90.58927856 33.80288696 91.3838501 C31.33158077 93.84396856 28.85340817 96.29703848 26.375 98.75 C24.69745948 100.41750894 23.02037055 102.08547232 21.34375 103.75390625 C17.23439081 107.8412237 13.11937353 111.92277696 9 116 C5.86261846 114.60919475 3.74524719 112.98977796 1.33300781 110.56005859 C0.63258362 109.85948334 -0.06784058 109.15890808 -0.78948975 108.43710327 C-1.90689545 107.30421371 -1.90689545 107.30421371 -3.046875 106.1484375 C-3.81807678 105.37440582 -4.58927856 104.60037415 -5.3838501 103.80288696 C-7.84396856 101.33158077 -10.29703848 98.85340817 -12.75 96.375 C-14.41750894 94.69745948 -16.08547232 93.02037055 -17.75390625 91.34375 C-21.8412237 87.23439081 -25.92277696 83.11937353 -30 79 C-28.30413874 75.36696916 -26.26199512 73.05450954 -23.375 70.25 C-22.55773437 69.45078125 -21.74046875 68.6515625 -20.8984375 67.828125 C-20.27195312 67.22484375 -19.64546875 66.6215625 -19 66 C-11.81978026 69.59010987 -6.67646212 76.32353788 -1 82 C-0.67 54.94 -0.34 27.88 0 0 Z " fill="#000000" transform="translate(456,392)"/>
<path d="M0 0 C3.13738154 1.39080525 5.25475281 3.01022204 7.66699219 5.43994141 C8.71762848 6.49080429 8.71762848 6.49080429 9.78948975 7.56289673 C10.53442688 8.31815643 11.27936401 9.07341614 12.046875 9.8515625 C12.81807678 10.62559418 13.58927856 11.39962585 14.3838501 12.19711304 C16.84396856 14.66841923 19.29703848 17.14659183 21.75 19.625 C23.41750894 21.30254052 25.08547232 22.97962945 26.75390625 24.65625 C30.8412237 28.76560919 34.92277696 32.88062647 39 37 C37.30413874 40.63303084 35.26199512 42.94549046 32.375 45.75 C31.55773437 46.54921875 30.74046875 47.3484375 29.8984375 48.171875 C29.27195312 48.77515625 28.64546875 49.3784375 28 50 C20.81978026 46.40989013 15.67646212 39.67646212 10 34 C9.67 61.06 9.34 88.12 9 116 C3.72 116 -1.56 116 -7 116 C-7.33 88.94 -7.66 61.88 -8 34 C-13.28 39.28 -18.56 44.56 -24 50 C-27.84281736 48.07859132 -29.80431927 46.4073184 -32.75 43.375 C-33.54921875 42.55773438 -34.3484375 41.74046875 -35.171875 40.8984375 C-35.77515625 40.27195313 -36.3784375 39.64546875 -37 39 C-35.60919475 35.86261846 -33.98977796 33.74524719 -31.56005859 31.33300781 C-30.85948334 30.63258362 -30.15890808 29.93215942 -29.43710327 29.21051025 C-28.68184357 28.46557312 -27.92658386 27.72063599 -27.1484375 26.953125 C-26.37440582 26.18192322 -25.60037415 25.41072144 -24.80288696 24.6161499 C-22.33158077 22.15603144 -19.85340817 19.70296152 -17.375 17.25 C-15.69745948 15.58249106 -14.02037055 13.91452768 -12.34375 12.24609375 C-8.23439081 8.1587763 -4.11937353 4.07722304 0 0 Z " fill="#000000" transform="translate(47,4)"/>
<path d="M0 0 C4.92908146 3.87792288 8.5423711 7.76116833 12 13 C5.73171024 19.54688041 -0.86703762 25.41722927 -8 31 C-8.62970703 31.4954834 -9.25941406 31.9909668 -9.90820312 32.50146484 C-19.64506993 40.13890693 -29.56478988 47.34709487 -40 54 C-40.6202002 54.39654785 -41.24040039 54.7930957 -41.87939453 55.20166016 C-52.5625 62 -52.5625 62 -55 62 C-56.17441535 59.89983377 -57.33964012 57.79541245 -58.5 55.6875 C-58.83386719 55.09259766 -59.16773438 54.49769531 -59.51171875 53.88476562 C-61.06825114 51.04171156 -62 49.29339012 -62 46 C-59.87763987 44.54493214 -57.80854901 43.29987439 -55.5625 42.0625 C-35.80809751 30.68954389 -16.1521138 16.1521138 0 0 Z " fill="#000000" transform="translate(482,333)"/>
<path d="M0 0 C5.67476113 1.96434039 9.31400331 5.62800662 12 11 C12.59057744 16.67862925 12.29370905 21.16922672 9 26 C4.99653611 30.03627917 1.41408246 32.12458106 -4.3125 32.3125 C-8.94226662 32.25237316 -11.4369151 31.06591027 -15 28 C-19.3022759 23.23261319 -20.36282503 19.56252705 -20.28125 13.28125 C-19.69180611 8.50020514 -16.85179203 5.75038822 -13.375 2.6875 C-8.92314854 -0.47565762 -5.3540278 -0.48837416 0 0 Z " fill="#39ABD5" transform="translate(268,200)"/>
<path d="M0 0 C3.0746802 1.34517259 4.87571902 2.72906454 7 5.3125 C13.98072476 13.53924659 21.09021361 21.8034229 29.4765625 28.6328125 C31 30 31 30 33 33 C32.36191406 33.69867188 31.72382812 34.39734375 31.06640625 35.1171875 C30.24011719 36.02726562 29.41382813 36.93734375 28.5625 37.875 C27.73878906 38.77992188 26.91507813 39.68484375 26.06640625 40.6171875 C23.99092058 42.81137927 23.99092058 42.81137927 23 45 C10.56810991 39.48721616 -4.14465621 22.98566876 -12 12 C-12 11.34 -12 10.68 -12 10 C-10.23947136 8.41929472 -8.41580202 6.90833714 -6.5625 5.4375 C-5.55316406 4.63183594 -4.54382812 3.82617188 -3.50390625 2.99609375 C-2.67761719 2.33738281 -1.85132813 1.67867188 -1 1 C-0.67 0.67 -0.34 0.34 0 0 Z " fill="#000000" transform="translate(45,325)"/>
<path d="M0 0 C2.51082253 2.51082253 5.02032607 5.02083422 7.5 7.5625 C13.96765834 13.86846688 19.723103 17.11597573 28.8125 17.375 C34.85180515 17.23651912 40.28713435 15.88929415 46 14 C43.60369403 22.1776036 39.97558541 27.08761591 33 32 C27.31420988 34.96649919 19.95961045 35.04421585 13.79296875 33.41796875 C7.01460193 30.49003515 1.86851123 24.58131319 -1.5 18.125 C-2.48551116 11.96555525 -3.27586988 5.53778003 0 0 Z " fill="#39ABD5" transform="translate(234,230)"/>
<path d="M0 0 C4.93554159 2.74971123 9.64206577 5.69956829 14.3125 8.875 C20.10051125 12.77594521 25.95693984 16.50213459 32 20 C31.42176904 24.06225548 30.10882263 26.84762346 27.9375 30.3125 C27.38964844 31.19550781 26.84179688 32.07851563 26.27734375 32.98828125 C25.85582031 33.65214844 25.43429688 34.31601562 25 35 C12.4765431 32.72576449 0.03643813 21.29039089 -10 14 C-6.84577733 9.17403931 -3.71080883 4.42442592 0 0 Z " fill="#000000" transform="translate(92,369)"/>
<path d="M0 0 C3.93235904 4.49412462 8 9.84759838 8 16 C-20.82837529 30 -20.82837529 30 -26 30 C-26.86772029 27.92227529 -27.71873619 25.83756823 -28.5625 23.75 C-29.03816406 22.58984375 -29.51382812 21.4296875 -30.00390625 20.234375 C-31.30241487 16.01804112 -31.30241487 16.01804112 -30 13 C-28.1015625 11.78320312 -28.1015625 11.78320312 -25.625 10.78125 C-24.72136719 10.40613281 -23.81773437 10.03101563 -22.88671875 9.64453125 C-21.93410156 9.26683594 -20.98148437 8.88914062 -20 8.5 C-18.14562368 7.74009474 -16.29145515 6.97968222 -14.4375 6.21875 C-13.53257812 5.85265625 -12.62765625 5.4865625 -11.6953125 5.109375 C-7.75939633 3.48937472 -3.87660381 1.75643654 0 0 Z " fill="#000000" transform="translate(404,388)"/>
<path d="M0 0 C2.97318667 1.13989666 5.94488316 2.28328255 8.9140625 3.43359375 C11.87840753 4.57786929 14.85424642 5.68691772 17.8359375 6.78515625 C19.47399692 7.39833444 21.11201808 8.01161483 22.75 8.625 C23.54841309 8.91383057 24.34682617 9.20266113 25.16943359 9.50024414 C27.14747981 10.24785385 29.07940429 11.11518407 31 12 C32.3274855 15.98245651 30.99907829 18.44789543 29.5625 22.1875 C29.31951172 22.84169922 29.07652344 23.49589844 28.82617188 24.16992188 C28.2256707 25.78303286 27.61390797 27.3919435 27 29 C19.30147349 27.11612966 12.17591615 24.58746816 4.9375 21.375 C4.00228516 20.96765625 3.06707031 20.5603125 2.10351562 20.140625 C-4.39473214 17.30263393 -4.39473214 17.30263393 -7 16 C-5.35433477 10.31497465 -2.70967216 5.23318364 0 0 Z " fill="#000000" transform="translate(139,397)"/>
<path d="M0 0 C0.67220351 1.93558599 1.33758077 3.87354372 2 5.8125 C2.37125 6.89144531 2.7425 7.97039062 3.125 9.08203125 C4 12 4 12 4 15 C0.21045974 16.1322462 -3.5819896 17.2544389 -7.375 18.375 C-8.43589844 18.69210937 -9.49679687 19.00921875 -10.58984375 19.3359375 C-17.01519767 21.22806626 -23.40416348 22.82711952 -30 24 C-30.50546036 21.91798472 -31.00416835 19.83432933 -31.5 17.75 C-31.7784375 16.58984375 -32.056875 15.4296875 -32.34375 14.234375 C-33 11 -33 11 -33 7 C-28.69335938 5.76953125 -24.38671875 4.5390625 -20.08007812 3.30859375 C-19.15517578 3.04433594 -18.23027344 2.78007812 -17.27734375 2.5078125 C-16.36968262 2.25161133 -15.46202148 1.99541016 -14.52685547 1.73144531 C-12.98753436 1.28586019 -11.4533408 0.82126217 -9.93017578 0.32324219 C-6.24395802 -0.86586032 -3.73097609 -1.13059881 0 0 Z " fill="#000000" transform="translate(359,409)"/>
<path d="M0 0 C2.20729623 0.32800631 4.40248554 0.73786305 6.58984375 1.1796875 C7.2495668 1.31190704 7.90928986 1.44412659 8.58900452 1.58035278 C9.98754107 1.86187658 11.38551413 2.14621175 12.78295898 2.43310547 C14.92368804 2.87216718 17.06610471 3.30204072 19.20898438 3.73046875 C29.70502008 5.85251004 29.70502008 5.85251004 32 7 C31.7186941 9.45993028 31.42547269 11.91740248 31.125 14.375 C31.04636719 15.07367188 30.96773437 15.77234375 30.88671875 16.4921875 C30.2265625 21.7734375 30.2265625 21.7734375 28 24 C25.49731445 23.79980469 25.49731445 23.79980469 22.36328125 23.171875 C20.66075195 22.83736328 20.66075195 22.83736328 18.92382812 22.49609375 C17.73208984 22.24988281 16.54035156 22.00367188 15.3125 21.75 C14.14009766 21.51925781 12.96769531 21.28851563 11.75976562 21.05078125 C6.09538145 19.9185441 0.51809993 18.71279237 -5 17 C-4.35841048 14.35307023 -3.71195217 11.70750071 -3.0625 9.0625 C-2.88009766 8.30775391 -2.69769531 7.55300781 -2.50976562 6.77539062 C-1.11328125 1.11328125 -1.11328125 1.11328125 0 0 Z " fill="#000000" transform="translate(186,414)"/>
<path d="M0 0 C1.5485193 5.67790408 2.41302543 11.1484244 3 17 C-8.32525321 18.7073811 -19.56087761 20.31089624 -31 21 C-31.33 15.39 -31.66 9.78 -32 4 C-29.41281372 2.70640686 -27.13588021 2.57519817 -24.2578125 2.24609375 C-22.53498047 2.04790039 -22.53498047 2.04790039 -20.77734375 1.84570312 C-19.57207031 1.71099609 -18.36679687 1.57628906 -17.125 1.4375 C-15.92746094 1.29892578 -14.72992188 1.16035156 -13.49609375 1.01757812 C-4.54341133 0 -4.54341133 0 0 0 Z " fill="#000000" transform="translate(311,419)"/>
<path d="M0 0 C10.56 0 21.12 0 32 0 C32.495 8.415 32.495 8.415 33 17 C28.31854289 17.02291088 23.63727898 17.04283732 18.95581055 17.05493164 C17.36205386 17.05997157 15.76830181 17.0668035 14.17456055 17.07543945 C11.88849747 17.08751999 9.60249533 17.09323155 7.31640625 17.09765625 C6.59973282 17.10281754 5.88305939 17.10797882 5.14466858 17.11329651 C3.42936328 17.11349263 1.71418734 17.06192007 0 17 C-0.33 16.67 -0.66 16.34 -1 16 C-0.90900324 13.29651552 -0.76251399 10.6328265 -0.5625 7.9375 C-0.376875 5.318125 -0.19125 2.69875 0 0 Z " fill="#000000" transform="translate(232,423)"/>
<path d="M0 0 C10.68896933 4.52225625 18.12162337 16.47297725 22.359375 26.85546875 C23.46362299 30.55200621 23.75593781 34.15602049 24 38 C18.72 38 13.44 38 8 38 C7 31 7 31 8 28 C9.27690431 16.7664747 6.15193206 9.22789809 0 0 Z " fill="#4CBBE2" transform="translate(287,194)"/>
<path d="M0 0 C5.28 0 10.56 0 16 0 C15.43914064 9.72156221 12.24240198 18.3530304 5 25 C3.29490284 23.45672226 1.6113326 21.8896325 -0.0625 20.3125 C-1.00222656 19.44238281 -1.94195312 18.57226562 -2.91015625 17.67578125 C-5 15 -5 15 -4.9375 12.5 C-4.4734375 11.2625 -4.4734375 11.2625 -4 10 C-3.67902344 9.11699219 -3.35804688 8.23398437 -3.02734375 7.32421875 C-1.51367188 3.66210938 -1.51367188 3.66210938 0 0 Z " fill="#4DBDE4" transform="translate(295,248)"/>
<path d="M0 0 C5.28 0 10.56 0 16 0 C21.02183555 11.26850904 21.02183555 11.26850904 20.9375 14.09375 C19.58089865 16.85217275 17.64980598 18.63117174 15.4375 20.75 C14.61121094 21.54921875 13.78492188 22.3484375 12.93359375 23.171875 C12.29550781 23.77515625 11.65742188 24.3784375 11 25 C4.45755617 19.76604494 1.22533098 11.45032648 0.1875 3.25 C0.125625 2.1775 0.06375 1.105 0 0 Z " fill="#4DBDE4" transform="translate(201,248)"/>
<path d="M0 0 C1.73417089 1.46137997 3.45911765 2.93149032 5.171875 4.41796875 C6.59806059 5.65216782 8.04513751 6.86223844 9.5 8.0625 C11 10 11 10 10.72265625 12.2890625 C9.54701848 16.69929285 7.74262201 20.78397901 6 25 C0.72 25 -4.56 25 -10 25 C-9.85085893 16.349818 -6.25228652 6.25228652 0 0 Z " fill="#4DBDE5" transform="translate(211,207)"/>
<path d="M0 0 C-2.24353987 2.24353987 -3.85419177 2.80167078 -6.8125 3.875 C-14.50723068 6.92198087 -17.65519211 10.62163452 -21.66796875 17.7578125 C-23 20 -23 20 -25 22 C-28.3 18.7 -31.6 15.4 -35 12 C-25.1948969 2.1948969 -13.52234631 -0.50814663 0 0 Z " fill="#4BB7DD" transform="translate(258,184)"/>
<path d="M0 0 C4.0743356 0.84881992 5.54405875 2.30225596 8 5.625 C8.625 8.625 8.625 8.625 8 11.625 C5.54405875 14.94774404 4.0743356 16.40118008 0 17.25 C-4.0743356 16.40118008 -5.54405875 14.94774404 -8 11.625 C-8.625 8.625 -8.625 8.625 -8 5.625 C-5.54405875 2.30225596 -4.0743356 0.84881992 0 0 Z " fill="#38A6CF" transform="translate(256,279.375)"/>
<path d="M0 0 C-0.28875 0.78375 -0.5775 1.5675 -0.875 2.375 C-2.26760284 6.8622758 -3.14271981 11.385279 -4 16 C-7.97243168 14.67585611 -10.13488574 13.0120432 -13 10 C-11.40517782 8.32438946 -9.79883156 6.65974066 -8.1875 5 C-7.29417969 4.071875 -6.40085938 3.14375 -5.48046875 2.1875 C-3 0 -3 0 0 0 Z " fill="#4CBBE2" transform="translate(236,274)"/>
<path d="M0 0 C4.10447392 0.51776621 5.95699523 2.64627444 8.75 5.5625 C9.94882812 6.80193359 9.94882812 6.80193359 11.171875 8.06640625 C11.77515625 8.70449219 12.3784375 9.34257812 13 10 C8.17857143 15.22321429 8.17857143 15.22321429 4 16 C3.87882812 15.34773438 3.75765625 14.69546875 3.6328125 14.0234375 C2.71056011 9.21353658 1.69832723 4.60974535 0 0 Z " fill="#4CBBE2" transform="translate(276,274)"/>
</svg>
