<?xml version="1.0" encoding="UTF-8"?>
<svg version="1.1" xmlns="http://www.w3.org/2000/svg" width="512" height="512">
<path d="M0 0 C1.09016922 0.00273422 1.09016922 0.00273422 2.20236206 0.00552368 C12.99291225 0.05107722 23.27342197 0.50143542 33.75 3.3125 C34.40097656 3.48410645 35.05195313 3.65571289 35.72265625 3.83251953 C56.51476797 9.43617392 75.45120676 19.17947486 91.75 33.3125 C92.57886719 34.02019531 93.40773438 34.72789063 94.26171875 35.45703125 C118.89187249 56.99427135 134.5782044 86.0882351 139.75 118.3125 C139.92128418 119.22362549 140.09256836 120.13475098 140.26904297 121.07348633 C141.17990391 127.20769552 140.99482715 133.43362438 141 139.625 C141.00067474 140.34591827 141.00134949 141.06683655 141.00204468 141.80960083 C140.98595529 152.61309537 140.49658763 162.8095489 137.75 173.3125 C137.57307617 174.00794922 137.39615234 174.70339844 137.21386719 175.41992188 C127.68424555 212.32046024 104.45852283 242.74164031 71.83642578 262.46972656 C63.66604849 267.24798306 55.29616455 271.0888979 46.375 274.25 C45.18185181 274.67369873 45.18185181 274.67369873 43.96459961 275.10595703 C37.84311864 277.16900806 32.25280952 278.130171 25.75 279.3125 C25.75 290.5325 25.75 301.7525 25.75 313.3125 C31.03 313.3125 36.31 313.3125 41.75 313.3125 C41.86592956 334.87928956 41.95506738 356.4460036 42.00906086 378.01304245 C42.03480152 388.0278461 42.06987266 398.04245213 42.12719727 408.05712891 C42.17715922 416.78973219 42.20932107 425.5221923 42.22044247 434.25493455 C42.22693964 438.87547683 42.24212278 443.49560964 42.27865028 448.1160202 C42.31281234 452.47288687 42.32301259 456.82917887 42.31553841 461.18616676 C42.31690399 462.77758987 42.32671564 464.36903398 42.34602737 465.9603405 C42.50555844 479.79481142 39.54061079 491.03031042 29.75 501.3125 C20.63999335 509.94925955 10.0731205 513.07816061 -2.23925781 512.90185547 C-13.79475045 512.36863158 -23.157799 507.54470448 -31.25 499.3125 C-40.46366549 487.69980463 -41.69613955 476.42000552 -41.59057617 462.03076172 C-41.58972859 460.40369177 -41.5902076 458.77662068 -41.59190369 457.14955139 C-41.59275994 452.75968558 -41.57519445 448.37006865 -41.55418181 443.98026037 C-41.53535302 439.38253403 -41.5336597 434.78480119 -41.53010559 430.18704224 C-41.52080328 421.49270062 -41.49621418 412.79847297 -41.46605712 404.10418141 C-41.43245648 394.20088922 -41.41601289 384.29759141 -41.40097082 374.39425635 C-41.36966292 354.03360572 -41.31632938 333.67306408 -41.25 313.3125 C-35.97 313.3125 -30.69 313.3125 -25.25 313.3125 C-25.25 302.0925 -25.25 290.8725 -25.25 279.3125 C-28.9625 278.508125 -28.9625 278.508125 -32.75 277.6875 C-68.42748719 269.47015573 -100.14883014 246.60885202 -119.73046875 215.58984375 C-127.94089904 201.98720132 -133.77666751 187.78788619 -137.25 172.3125 C-137.72566406 170.40984375 -137.72566406 170.40984375 -138.2109375 168.46875 C-146.07272298 132.40551386 -137.47743792 94.47482391 -118.12109375 63.50634766 C-106.93687987 46.34616187 -92.35417433 32.51508135 -75.25 21.3125 C-73.96802734 20.46751953 -73.96802734 20.46751953 -72.66015625 19.60546875 C-50.77269568 6.00638736 -25.56186745 -0.13325832 0 0 Z " fill="#38C1FA" transform="translate(371.25,-0.3125)"/>
<path d="M0 0 C38.61 0 77.22 0 117 0 C117.03867187 13.89867187 117.03867187 13.89867187 117.078125 28.078125 C117.10328345 33.93882339 117.12944484 39.79948868 117.16015625 45.66015625 C117.20874393 54.96793407 117.25316867 64.27560174 117.27099609 73.58349609 C117.28399764 80.36191201 117.31092366 87.14010463 117.35461307 93.9183948 C117.37726198 97.5079311 117.39290866 101.09719163 117.39188385 104.68680573 C117.39100093 108.69288792 117.42120328 112.69815438 117.45410156 116.70410156 C117.4490712 117.89596573 117.44404083 119.0878299 117.43885803 120.31581116 C117.45277084 121.40673569 117.46668365 122.49766022 117.48101807 123.62164307 C117.48470524 124.56924625 117.48839241 125.51684944 117.49219131 126.49316788 C118.1567143 129.7736308 119.41910851 130.92808169 122 133 C124.54812783 134.07437619 127.01155991 135.00558136 129.625 135.875 C147.69420453 142.31548838 160.64630157 153.96156749 169.3125 171.1875 C176.60930403 187.88863184 176.82105779 206.42294005 170.74609375 223.53125 C162.65318647 242.05452553 149.49491517 254.39534326 131 262 C113.57481753 268.58589574 94.7640332 266.47691622 78 259 C71.41058319 255.42097665 65.42143111 251.18047861 60 246 C60 245.34 60 244.68 60 244 C59.15179688 244.71285156 58.30359375 245.42570313 57.4296875 246.16015625 C41.32890162 259.41908157 24.03507268 267.17946373 2.71484375 265.78515625 C-15.50231163 263.46097482 -31.87347404 255.33549403 -43.453125 240.953125 C-55.79356952 224.28066501 -59.33966601 206.03867496 -56.6953125 185.65087891 C-53.77549454 169.63284697 -44.19871067 154.55768704 -31 145 C-23.1850131 139.88982933 -15.77030269 136.19347972 -6.64453125 133.88671875 C-3.80077785 132.93320025 -2.79968223 132.35024993 -1 130 C-0.54075085 127.52890984 -0.54075085 127.52890984 -0.60127258 124.70393372 C-0.58873444 123.6059697 -0.57619629 122.50800568 -0.5632782 121.37677002 C-0.56471329 120.17195984 -0.56614838 118.96714966 -0.56762695 117.72583008 C-0.5574353 116.45742783 -0.54724365 115.18902557 -0.53674316 113.88218689 C-0.50912604 110.40311398 -0.49988236 106.92420451 -0.49388909 103.44503617 C-0.48451759 99.80945732 -0.45831526 96.17400115 -0.43388367 92.53849792 C-0.39018114 85.65375807 -0.36165731 78.76904197 -0.33856028 71.88420552 C-0.30647537 62.58102078 -0.25099692 53.27797763 -0.19681454 43.97490025 C-0.11206081 29.31664219 -0.05860951 14.65843988 0 0 Z " fill="#E9E9EA" transform="translate(57,0)"/>
<path d="M0 0 C3.5076342 3.19091779 5.87051686 6.79605931 8.3125 10.8125 C16.29783934 23.50018991 25.7726133 30.50327877 40.484375 34.30859375 C53.3489055 36.83861808 64.99017111 34.07055645 76.33203125 27.79296875 C83.00531266 23.30828915 87.54801953 18.33975159 91.9375 11.625 C92.67709961 10.52091797 92.67709961 10.52091797 93.43164062 9.39453125 C94.63024595 7.60244173 95.81645458 5.80207097 97 4 C108.91885254 15.25669406 115.98768489 31.73064997 117 48 C117.39770719 68.54157639 110.77201675 85.29805733 96.82421875 100.34765625 C87.78975808 109.19990931 76.01120441 114.40589592 64.0390625 118.11328125 C61.65449086 118.93129628 61.65449086 118.93129628 60 122 C59.68799236 124.54414819 59.68799236 124.54414819 59.7215271 127.44792175 C59.71036362 128.57954239 59.69920013 129.71116302 59.68769836 130.8770752 C59.68445808 132.7403949 59.68445808 132.7403949 59.68115234 134.64135742 C59.67110672 135.94877396 59.6610611 137.25619049 59.65071106 138.60322571 C59.62337828 142.18969804 59.60825201 145.77613102 59.59528303 149.3626802 C59.57966678 153.1103478 59.55287179 156.85793488 59.5272522 160.60554504 C59.48043767 167.70277473 59.44370654 174.80001953 59.41057932 181.89732486 C59.36523539 191.48749058 59.30435326 201.07755675 59.24433136 210.66763973 C59.15016758 225.77837663 59.07679719 240.88914176 59 256 C20.39 256 -18.22 256 -58 256 C-58.02578125 246.37328125 -58.0515625 236.7465625 -58.078125 226.828125 C-58.10328309 220.73956281 -58.12944418 214.65103251 -58.16015625 208.5625 C-58.20874622 198.89258017 -58.25317006 189.2227664 -58.27099609 179.55273438 C-58.28399655 172.51063423 -58.31091982 165.46874906 -58.35461307 158.42676997 C-58.37726438 154.69750774 -58.39290851 150.96851102 -58.39188385 147.23917389 C-58.39100111 143.07743833 -58.42119963 138.91648837 -58.45410156 134.75488281 C-58.4490712 133.51626495 -58.44404083 132.27764709 -58.43885803 131.00149536 C-58.45277084 129.86850006 -58.46668365 128.73550476 -58.48101807 127.56817627 C-58.48470524 126.58370136 -58.48839241 125.59922646 -58.49219131 124.58491898 C-59.14827889 121.24521 -60.36826397 120.09847108 -63 118 C-65.54812703 116.92562414 -68.01162692 115.99459982 -70.625 115.125 C-89.0490725 108.54601115 -101.78162383 96.70334009 -110.375 79.19921875 C-117.28156728 62.87229683 -117.63874008 42.44849848 -111 26 C-107.27073395 18.10382879 -102.53606763 10.75232491 -97 4 C-93.97784646 6.85536802 -91.65060675 9.8188161 -89.3125 13.25 C-81.46839917 24.09883927 -70.83192698 32.39446501 -57.33203125 34.75390625 C-42.58099371 36.3105484 -29.14970187 33.33373051 -17.44140625 23.94921875 C-10.0069298 17.04826167 -5.06471274 8.68544354 0 0 Z " fill="#EAEAEA" transform="translate(115,256)"/>
<path d="M0 0 C1.09016922 0.00273422 1.09016922 0.00273422 2.20236206 0.00552368 C12.99291225 0.05107722 23.27342197 0.50143542 33.75 3.3125 C34.40097656 3.48410645 35.05195313 3.65571289 35.72265625 3.83251953 C56.51476797 9.43617392 75.45120676 19.17947486 91.75 33.3125 C92.57886719 34.02019531 93.40773438 34.72789063 94.26171875 35.45703125 C118.89187249 56.99427135 134.5782044 86.0882351 139.75 118.3125 C139.92128418 119.22362549 140.09256836 120.13475098 140.26904297 121.07348633 C141.17990391 127.20769552 140.99482715 133.43362438 141 139.625 C141.00067474 140.34591827 141.00134949 141.06683655 141.00204468 141.80960083 C140.98595529 152.61309537 140.49658763 162.8095489 137.75 173.3125 C137.57307617 174.00794922 137.39615234 174.70339844 137.21386719 175.41992188 C127.68424555 212.32046024 104.45852283 242.74164031 71.83642578 262.46972656 C63.66604849 267.24798306 55.29616455 271.0888979 46.375 274.25 C45.18185181 274.67369873 45.18185181 274.67369873 43.96459961 275.10595703 C37.84311864 277.16900806 32.25280952 278.130171 25.75 279.3125 C25.75 290.5325 25.75 301.7525 25.75 313.3125 C31.03 313.3125 36.31 313.3125 41.75 313.3125 C41.86592956 334.87928956 41.95506738 356.4460036 42.00906086 378.01304245 C42.03480152 388.0278461 42.06987266 398.04245213 42.12719727 408.05712891 C42.17715922 416.78973219 42.20932107 425.5221923 42.22044247 434.25493455 C42.22693964 438.87547683 42.24212278 443.49560964 42.27865028 448.1160202 C42.31281234 452.47288687 42.32301259 456.82917887 42.31553841 461.18616676 C42.31690399 462.77758987 42.32671564 464.36903398 42.34602737 465.9603405 C42.50555844 479.79481142 39.54061079 491.03031042 29.75 501.3125 C20.63999335 509.94925955 10.0731205 513.07816061 -2.23925781 512.90185547 C-13.79475045 512.36863158 -23.157799 507.54470448 -31.25 499.3125 C-40.46366549 487.69980463 -41.69613955 476.42000552 -41.59057617 462.03076172 C-41.58972859 460.40369177 -41.5902076 458.77662068 -41.59190369 457.14955139 C-41.59275994 452.75968558 -41.57519445 448.37006865 -41.55418181 443.98026037 C-41.53535302 439.38253403 -41.5336597 434.78480119 -41.53010559 430.18704224 C-41.52080328 421.49270062 -41.49621418 412.79847297 -41.46605712 404.10418141 C-41.43245648 394.20088922 -41.41601289 384.29759141 -41.40097082 374.39425635 C-41.36966292 354.03360572 -41.31632938 333.67306408 -41.25 313.3125 C-35.97 313.3125 -30.69 313.3125 -25.25 313.3125 C-25.25 302.0925 -25.25 290.8725 -25.25 279.3125 C-28.9625 278.508125 -28.9625 278.508125 -32.75 277.6875 C-68.42748719 269.47015573 -100.14883014 246.60885202 -119.73046875 215.58984375 C-127.94089904 201.98720132 -133.77666751 187.78788619 -137.25 172.3125 C-137.72566406 170.40984375 -137.72566406 170.40984375 -138.2109375 168.46875 C-146.07272298 132.40551386 -137.47743792 94.47482391 -118.12109375 63.50634766 C-106.93687987 46.34616187 -92.35417433 32.51508135 -75.25 21.3125 C-73.96802734 20.46751953 -73.96802734 20.46751953 -72.66015625 19.60546875 C-50.77269568 6.00638736 -25.56186745 -0.13325832 0 0 Z M-31.25 20.3125 C-31.90468262 20.50054199 -32.55936523 20.68858398 -33.23388672 20.88232422 C-50.6168072 26.02478857 -66.44154028 34.61205444 -80.25 46.3125 C-81.06726563 46.97894531 -81.88453125 47.64539063 -82.7265625 48.33203125 C-88.69311881 53.3656724 -93.51424773 59.12631437 -98.25 65.3125 C-98.84554687 66.08078125 -99.44109375 66.8490625 -100.0546875 67.640625 C-107.62339849 77.89500763 -113.55331374 89.37324441 -117.625 101.4375 C-117.96446655 102.43716797 -117.96446655 102.43716797 -118.31079102 103.45703125 C-122.19720116 115.71607938 -123.79094378 127.73789516 -123.6875 140.5625 C-123.68379395 141.23503815 -123.68008789 141.90757629 -123.67626953 142.60049438 C-123.40968111 176.76167994 -108.95258582 207.23533287 -84.84301758 231.20947266 C-78.2653409 237.49917233 -71.00238748 242.57908031 -63.25 247.3125 C-62.63012207 247.69132324 -62.01024414 248.07014648 -61.37158203 248.46044922 C-54.29823311 252.69016518 -47.05084989 255.9686256 -39.25 258.625 C-38.57533691 258.85550049 -37.90067383 259.08600098 -37.20556641 259.32348633 C-25.00439201 263.22207796 -12.96258794 264.87588784 -0.1875 264.8125 C0.81156372 264.81035492 0.81156372 264.81035492 1.83081055 264.8081665 C34.39839335 264.63654384 65.51756225 251.17022101 88.75 228.3125 C102.43424191 214.38389663 112.40861645 197.00875849 118.6875 178.625 C118.97004639 177.80700928 119.25259277 176.98901855 119.54370117 176.14624023 C123.34646376 164.34613147 124.11946557 152.26352798 124.0625 139.9375 C124.05758545 138.66890137 124.0526709 137.40030273 124.04760742 136.09326172 C123.93151913 126.79786355 123.24894963 118.28050473 120.75 109.3125 C120.4096875 108.08273438 120.069375 106.85296875 119.71875 105.5859375 C110.50153747 75.50543985 90.07476782 48.86326533 62.625 33.3125 C42.68822803 22.78092837 23.20076241 16.90264346 0.5 17 C-0.5258017 17.00323273 -0.5258017 17.00323273 -1.57232666 17.00653076 C-11.7657834 17.05807155 -21.39856173 17.44325497 -31.25 20.3125 Z " fill="#020101" transform="translate(371.25,-0.3125)"/>
<path d="M0 0 C3.5076342 3.19091779 5.87051686 6.79605931 8.3125 10.8125 C16.29783934 23.50018991 25.7726133 30.50327877 40.484375 34.30859375 C53.3489055 36.83861808 64.99017111 34.07055645 76.33203125 27.79296875 C83.00531266 23.30828915 87.54801953 18.33975159 91.9375 11.625 C92.67709961 10.52091797 92.67709961 10.52091797 93.43164062 9.39453125 C94.63024595 7.60244173 95.81645458 5.80207097 97 4 C108.91885254 15.25669406 115.98768489 31.73064997 117 48 C117.39770719 68.54157639 110.77201675 85.29805733 96.82421875 100.34765625 C87.78975808 109.19990931 76.01120441 114.40589592 64.0390625 118.11328125 C61.65449086 118.93129628 61.65449086 118.93129628 60 122 C59.68799236 124.54414819 59.68799236 124.54414819 59.7215271 127.44792175 C59.71036362 128.57954239 59.69920013 129.71116302 59.68769836 130.8770752 C59.68445808 132.7403949 59.68445808 132.7403949 59.68115234 134.64135742 C59.67110672 135.94877396 59.6610611 137.25619049 59.65071106 138.60322571 C59.62337828 142.18969804 59.60825201 145.77613102 59.59528303 149.3626802 C59.57966678 153.1103478 59.55287179 156.85793488 59.5272522 160.60554504 C59.48043767 167.70277473 59.44370654 174.80001953 59.41057932 181.89732486 C59.36523539 191.48749058 59.30435326 201.07755675 59.24433136 210.66763973 C59.15016758 225.77837663 59.07679719 240.88914176 59 256 C20.39 256 -18.22 256 -58 256 C-58.02578125 246.37328125 -58.0515625 236.7465625 -58.078125 226.828125 C-58.10328309 220.73956281 -58.12944418 214.65103251 -58.16015625 208.5625 C-58.20874622 198.89258017 -58.25317006 189.2227664 -58.27099609 179.55273438 C-58.28399655 172.51063423 -58.31091982 165.46874906 -58.35461307 158.42676997 C-58.37726438 154.69750774 -58.39290851 150.96851102 -58.39188385 147.23917389 C-58.39100111 143.07743833 -58.42119963 138.91648837 -58.45410156 134.75488281 C-58.4490712 133.51626495 -58.44404083 132.27764709 -58.43885803 131.00149536 C-58.45277084 129.86850006 -58.46668365 128.73550476 -58.48101807 127.56817627 C-58.48470524 126.58370136 -58.48839241 125.59922646 -58.49219131 124.58491898 C-59.14827889 121.24521 -60.36826397 120.09847108 -63 118 C-65.54812703 116.92562414 -68.01162692 115.99459982 -70.625 115.125 C-89.0490725 108.54601115 -101.78162383 96.70334009 -110.375 79.19921875 C-117.28156728 62.87229683 -117.63874008 42.44849848 -111 26 C-107.27073395 18.10382879 -102.53606763 10.75232491 -97 4 C-93.97784646 6.85536802 -91.65060675 9.8188161 -89.3125 13.25 C-81.46839917 24.09883927 -70.83192698 32.39446501 -57.33203125 34.75390625 C-42.58099371 36.3105484 -29.14970187 33.33373051 -17.44140625 23.94921875 C-10.0069298 17.04826167 -5.06471274 8.68544354 0 0 Z M-1.8203125 32.6875 C-2.96113281 33.8321875 -2.96113281 33.8321875 -4.125 35 C-17.59516646 47.39489918 -35.48855988 52.59704676 -53.48046875 52.2734375 C-68.71162119 51.6186827 -82.3977437 44.56923254 -94 35 C-96.70056089 37.46572951 -97.84283835 39.31976288 -98.19287109 43.06201172 C-98.7818658 60.37131661 -96.56572317 73.47770451 -84.5 86.75 C-83.675 87.4925 -82.85 88.235 -82 89 C-81.113125 89.825 -80.22625 90.65 -79.3125 91.5 C-72.27174701 97.20390116 -63.56692015 100.00549392 -55.1015625 102.88671875 C-48.20998133 105.36039713 -48.20998133 105.36039713 -46 110 C-45.65313015 110.56594124 -45.3062603 111.13188248 -44.94887924 111.71497345 C-41.43403046 117.72645362 -41.42316854 123.26927305 -41.45410156 130.10742188 C-41.44376389 131.2985257 -41.43342621 132.48962952 -41.42277527 133.71682739 C-41.39845051 136.960207 -41.39150712 140.20304836 -41.39249516 143.44650078 C-41.38935272 146.84450589 -41.36370704 150.24234203 -41.34051514 153.64025879 C-41.30005291 160.06444668 -41.27963757 166.48853331 -41.26654124 172.91282892 C-41.24907582 180.94979485 -41.20464326 188.98658349 -41.16015625 197.0234375 C-41.0809775 211.34895343 -41.04238396 225.67422309 -41 240 C-13.61 240 13.78 240 42 240 C42.02578125 231.2859375 42.0515625 222.571875 42.078125 213.59375 C42.10649558 207.36769659 42.13736015 201.14169465 42.1718235 194.91567612 C42.2161218 186.85296302 42.25455952 178.79036228 42.27099609 170.72753906 C42.28402993 164.34314607 42.31103837 157.95898874 42.35461307 151.57472849 C42.37718943 148.19633063 42.39291301 144.81822302 42.39188385 141.43974304 C42.39425118 137.6619439 42.42131514 133.88506268 42.45410156 130.10742188 C42.44655602 128.43938004 42.44655602 128.43938004 42.43885803 126.73764038 C42.54156558 119.07840083 43.98047534 114.23694574 48.47265625 107.93359375 C53.18910345 103.49526628 58.29565671 101.63148236 64.3125 99.5625 C77.45390114 95.03795527 87.4873858 88.07080563 94.30859375 75.609375 C95.32482779 73.42056322 96.2171525 71.28265931 97 69 C97.35835937 67.97261719 97.71671875 66.94523437 98.0859375 65.88671875 C99.23120079 61.01690261 99.29228373 56.4824329 99.25 51.5 C99.25773438 50.58863281 99.26546875 49.67726563 99.2734375 48.73828125 C99.25813288 43.43523089 98.73631534 39.01602209 97 34 C96.01 34.825 95.02 35.65 94 36.5 C77.38778228 48.88578777 58.25179335 54.13573884 37.75 51.59765625 C26.41983371 49.24233636 10.40448405 42.45631049 3.42578125 32.828125 C2.95527344 32.22484375 2.48476562 31.6215625 2 31 C-0.16924462 30.77338425 -0.16924462 30.77338425 -1.8203125 32.6875 Z " fill="#010101" transform="translate(115,256)"/>
<path d="M0 0 C38.61 0 77.22 0 117 0 C117.03867187 13.89867187 117.03867187 13.89867187 117.078125 28.078125 C117.10328345 33.93882339 117.12944484 39.79948868 117.16015625 45.66015625 C117.20874393 54.96793407 117.25316867 64.27560174 117.27099609 73.58349609 C117.28399764 80.36191201 117.31092366 87.14010463 117.35461307 93.9183948 C117.37726198 97.5079311 117.39290866 101.09719163 117.39188385 104.68680573 C117.39100093 108.69288792 117.42120328 112.69815438 117.45410156 116.70410156 C117.4490712 117.89596573 117.44404083 119.0878299 117.43885803 120.31581116 C117.45277084 121.40673569 117.46668365 122.49766022 117.48101807 123.62164307 C117.48470524 124.56924625 117.48839241 125.51684944 117.49219131 126.49316788 C118.1567143 129.7736308 119.41910851 130.92808169 122 133 C124.54812783 134.07437619 127.01155991 135.00558136 129.625 135.875 C147.69420453 142.31548838 160.64630157 153.96156749 169.3125 171.1875 C176.60930403 187.88863184 176.82105779 206.42294005 170.74609375 223.53125 C162.65318647 242.05452553 149.49491517 254.39534326 131 262 C113.57481753 268.58589574 94.7640332 266.47691622 78 259 C71.41058319 255.42097665 65.42143111 251.18047861 60 246 C60 245.34 60 244.68 60 244 C59.15179688 244.71285156 58.30359375 245.42570313 57.4296875 246.16015625 C41.32890162 259.41908157 24.03507268 267.17946373 2.71484375 265.78515625 C-15.50231163 263.46097482 -31.87347404 255.33549403 -43.453125 240.953125 C-55.79356952 224.28066501 -59.33966601 206.03867496 -56.6953125 185.65087891 C-53.77549454 169.63284697 -44.19871067 154.55768704 -31 145 C-23.1850131 139.88982933 -15.77030269 136.19347972 -6.64453125 133.88671875 C-3.80077785 132.93320025 -2.79968223 132.35024993 -1 130 C-0.54075085 127.52890984 -0.54075085 127.52890984 -0.60127258 124.70393372 C-0.58873444 123.6059697 -0.57619629 122.50800568 -0.5632782 121.37677002 C-0.56471329 120.17195984 -0.56614838 118.96714966 -0.56762695 117.72583008 C-0.5574353 116.45742783 -0.54724365 115.18902557 -0.53674316 113.88218689 C-0.50912604 110.40311398 -0.49988236 106.92420451 -0.49388909 103.44503617 C-0.48451759 99.80945732 -0.45831526 96.17400115 -0.43388367 92.53849792 C-0.39018114 85.65375807 -0.36165731 78.76904197 -0.33856028 71.88420552 C-0.30647537 62.58102078 -0.25099692 53.27797763 -0.19681454 43.97490025 C-0.11206081 29.31664219 -0.05860951 14.65843988 0 0 Z M17 16 C16.96261719 24.2809375 16.92523438 32.561875 16.88671875 41.09375 C16.85258646 47.01161818 16.81659529 52.92945221 16.77792263 58.84729004 C16.7280936 66.51015458 16.6826272 74.17296303 16.65356445 81.8359375 C16.6280722 88.55337746 16.5871285 95.27056184 16.53681374 101.98786926 C16.5201451 104.54902848 16.50863083 107.11022665 16.50238609 109.6714325 C16.49274539 113.26231432 16.46468466 116.85261977 16.43237305 120.44335938 C16.43380814 121.49928284 16.43524323 122.5552063 16.4367218 123.64312744 C16.34257544 131.05460166 15.58793194 137.01392469 10.5625 142.8125 C9.2940625 143.8953125 9.2940625 143.8953125 8 145 C7.18402344 145.72316406 7.18402344 145.72316406 6.3515625 146.4609375 C3.0528525 148.61989388 -0.451781 149.61515417 -4.1875 150.8125 C-10.85876252 153.05462063 -16.43585888 155.60458259 -22 160 C-22.86625 160.5775 -23.7325 161.155 -24.625 161.75 C-33.02517438 169.70805994 -39.87160325 181.7974368 -40.2734375 193.52734375 C-40.73569979 210.8903665 -37.42805797 221.89850932 -25.375 234.8125 C-13.59832023 245.65944189 -1.84138369 248.61314472 13.77734375 248.30859375 C24.60250431 247.84264203 32.71580381 243.80738702 41 237 C41.68707031 236.43796875 42.37414062 235.8759375 43.08203125 235.296875 C49.65047254 229.33734247 53.69818468 221.64767168 58 214 C60.71999646 217.28051633 63.01828898 220.58644361 65.1875 224.25 C72.32869874 235.53917162 82.38857021 244.40234752 95.625 247.5234375 C111.3026275 249.73717657 124.44510315 248.31540525 137.8125 239.3125 C145.42332481 233.42132219 151.42995942 225.97812186 155 217 C155.53367188 215.74509766 155.53367188 215.74509766 156.078125 214.46484375 C159.08854712 203.15024875 158.89401274 187.2693228 153 177 C151.14895898 173.87203764 149.16582373 170.91735272 147 168 C146.38125 167.113125 145.7625 166.22625 145.125 165.3125 C139.09209733 158.74728239 131.56923686 154.50714426 123.18359375 151.703125 C113.40953012 148.39356361 107.46285861 145.52417258 102.44816589 136.07627869 C100.32833733 131.03593129 100.56032453 125.94822617 100.56762695 120.55688477 C100.55233948 118.85823021 100.55233948 118.85823021 100.53674316 117.1252594 C100.50664656 113.3972578 100.49735199 109.66951331 100.48828125 105.94140625 C100.47143216 103.35065357 100.45328161 100.75990905 100.43388367 98.16917419 C100.39125095 92.05662285 100.36170512 85.94413772 100.33856028 79.83148569 C100.30880113 72.1850973 100.25891674 64.53885683 100.20898438 56.89257812 C100.12005972 43.26176376 100.06144875 29.63102738 100 16 C72.61 16 45.22 16 17 16 Z " fill="#000001" transform="translate(57,0)"/>
<path d="M0 0 C7.29522266 6.18677703 13.66385741 12.97098432 19.37451172 20.65917969 C19.97344238 21.45437012 19.97344238 21.45437012 20.58447266 22.265625 C40.88654795 49.57278794 46.98077541 82.73103038 42.65625 116.15405273 C39.10151953 138.15052319 28.56547409 158.70097965 14.37451172 175.65917969 C13.74544922 176.42875 13.11638672 177.19832031 12.46826172 177.99121094 C-0.54964619 193.46476965 -18.81334935 204.65814271 -37.62548828 211.65917969 C-38.57810547 212.01753906 -39.53072266 212.37589844 -40.51220703 212.74511719 C-53.5076529 217.36032226 -66.12526522 219.20673693 -79.87548828 219.09667969 C-80.54736176 219.09330597 -81.21923523 219.08993225 -81.91146851 219.0864563 C-116.11737404 218.83895052 -146.56695034 204.36744124 -170.52294922 180.24975586 C-183.07823767 167.10538875 -191.7449808 151.0830472 -197.93798828 134.09667969 C-198.16848877 133.47349854 -198.39898926 132.85031738 -198.63647461 132.20825195 C-202.79484369 120.14852347 -204.16382794 108.10617372 -204.06298828 95.40917969 C-204.0599469 94.73797089 -204.05690552 94.06676208 -204.05377197 93.37521362 C-203.97844263 82.07530964 -202.98864924 71.47026032 -199.62548828 60.65917969 C-199.41649902 59.97936035 -199.20750977 59.29954102 -198.9921875 58.59912109 C-193.80180504 42.31259516 -185.56596526 27.73304968 -174.62548828 14.65917969 C-173.99642578 13.88960937 -173.36736328 13.12003906 -172.71923828 12.32714844 C-157.44540661 -5.8278833 -134.41020828 -19.2813164 -111.62548828 -25.34082031 C-110.50529297 -25.65792969 -109.38509766 -25.97503906 -108.23095703 -26.30175781 C-70.39248391 -35.23868862 -29.6855505 -24.48678933 0 0 Z M-105.62548828 -9.34082031 C-106.89263672 -8.98890625 -108.15978516 -8.63699219 -109.46533203 -8.27441406 C-138.39117821 -0.07933639 -160.1006948 18.23508223 -174.83862305 44.14941406 C-179.1575012 52.00007084 -182.22969376 60.02317617 -184.62548828 68.65917969 C-184.81240234 69.28953125 -184.99931641 69.91988281 -185.19189453 70.56933594 C-186.9668409 77.27888498 -186.92934615 83.96185261 -186.88623047 90.86865234 C-186.8755809 92.89158619 -186.88613814 94.91361775 -186.89892578 96.93652344 C-186.87579322 108.74569563 -185.82247426 119.89750169 -181.56298828 130.97167969 C-181.25772217 131.77436279 -180.95245605 132.5770459 -180.63793945 133.40405273 C-169.81848809 160.90179557 -149.16297892 182.38885599 -122.06298828 194.31152344 C-94.8359617 204.98575545 -64.53704968 204.99924221 -37.41845703 193.89746094 C-33.7479141 192.27010134 -30.17407045 190.53784084 -26.62548828 188.65917969 C-26.93486328 187.89605469 -27.24423828 187.13292969 -27.56298828 186.34667969 C-28.30442421 184.47128292 -28.98777045 182.57233317 -29.62548828 180.65917969 C-28.97064453 180.28148437 -28.31580078 179.90378906 -27.64111328 179.51464844 C-21.9354461 176.07351866 -16.84273101 172.3328509 -11.93798828 167.84667969 C-11.40915039 167.36674561 -10.8803125 166.88681152 -10.33544922 166.39233398 C-9.05469852 165.19338306 -7.8339743 163.93093722 -6.62548828 162.65917969 C-6.62548828 161.99917969 -6.62548828 161.33917969 -6.62548828 160.65917969 C-5.16064453 161.9938151 -3.69580078 163.32845052 -2.23095703 164.66308594 C-1.70115234 164.99179688 -1.17134766 165.32050781 -0.62548828 165.65917969 C3.3043484 164.34923413 4.75725873 161.91224711 7.06201172 158.65917969 C7.5004541 158.04196045 7.93889648 157.42474121 8.390625 156.78881836 C13.36868752 149.54004483 16.95413925 141.73326211 20.37451172 133.65917969 C20.79603516 132.69367188 21.21755859 131.72816406 21.65185547 130.73339844 C31.08316735 107.27968324 29.70321065 79.13723284 20.62451172 55.84667969 C11.74441177 35.17095824 -2.4237843 16.71098089 -21.62548828 4.65917969 C-22.36669922 4.16160156 -23.10791016 3.66402344 -23.87158203 3.15136719 C-47.13148355 -11.8322456 -79.01526413 -17.8030755 -105.62548828 -9.34082031 Z " fill="#E8E8E8" transform="translate(451.62548828125,45.3408203125)"/>
<path d="M0 0 C4.43566492 3.58456395 8.66912723 7.31155439 12.7890625 11.25390625 C13.47484375 11.87652344 14.160625 12.49914062 14.8671875 13.140625 C32.60547303 29.7964561 44.24556648 56.52105368 45.08984375 80.76171875 C45.3994519 110.30978405 37.32593213 134.92519277 18.7890625 158.25390625 C15.31131071 156.73837221 12.8332641 154.67656065 10.0390625 152.12890625 C8.84023438 151.04222656 8.84023438 151.04222656 7.6171875 149.93359375 C7.01390625 149.37929687 6.410625 148.825 5.7890625 148.25390625 C7.81055268 144.83996965 9.92533045 141.50828407 12.1015625 138.19140625 C25.8136743 116.65208476 30.36719845 92.64103321 25.59765625 67.37890625 C19.3392921 43.19199168 5.26463027 23.19639185 -16.18652344 10.10888672 C-31.37826057 1.18363664 -46.50531045 -1.8674078 -63.9609375 -1.99609375 C-64.931521 -2.00552002 -65.90210449 -2.01494629 -66.90209961 -2.0246582 C-72.94326651 -1.99728521 -78.38577065 -1.32746364 -84.2109375 0.25390625 C-84.8620752 0.42019531 -85.51321289 0.58648437 -86.18408203 0.7578125 C-109.37104365 6.86369267 -127.96363258 21.02251584 -140.22265625 41.63671875 C-151.98563752 62.60626245 -156.23310514 86.66663319 -150.11572266 110.24462891 C-146.33990253 123.30070199 -140.43623373 134.47540469 -132.2109375 145.25390625 C-131.74429688 145.90488281 -131.27765625 146.55585938 -130.796875 147.2265625 C-118.52826048 163.14565435 -97.30674443 173.23956546 -77.95703125 176.86328125 C-55.48212048 179.20685902 -37.61027437 175.24173289 -17.2109375 166.25390625 C-15.87215178 168.37564255 -14.53978274 170.50095813 -13.2109375 172.62890625 C-12.829375 173.2321875 -12.4478125 173.83546875 -12.0546875 174.45703125 C-9.2109375 179.02734375 -9.2109375 179.02734375 -9.2109375 181.25390625 C-18.66372018 185.9670584 -27.87168145 189.8272288 -38.2109375 192.25390625 C-38.90952881 192.43195801 -39.60812012 192.61000977 -40.32788086 192.79345703 C-47.91893916 194.55794557 -55.38469417 194.55018788 -63.1484375 194.50390625 C-64.44201172 194.51164063 -65.73558594 194.519375 -67.06835938 194.52734375 C-77.71707327 194.50577673 -87.43884893 193.25217323 -97.4609375 189.62890625 C-98.17838135 189.37093262 -98.8958252 189.11295898 -99.63500977 188.84716797 C-111.37908539 184.469772 -121.78365857 178.57209354 -131.2109375 170.25390625 C-132.43876953 169.22330078 -132.43876953 169.22330078 -133.69140625 168.171875 C-153.04432706 151.51936174 -167.11389177 127.01511448 -169.2109375 101.25390625 C-170.81352138 68.43308738 -164.88770285 41.05831874 -142.5859375 15.87890625 C-141.13336172 14.33181355 -139.6755727 12.78958719 -138.2109375 11.25390625 C-137.685 10.65320313 -137.1590625 10.0525 -136.6171875 9.43359375 C-102.70514841 -27.76583688 -38.89017111 -28.89127699 0 0 Z " fill="#020303" transform="translate(434.2109375,52.74609375)"/>
<path d="M0 0 C16.17 0 32.34 0 49 0 C49.06777149 18.76748924 49.1230135 37.5348791 49.15543652 56.30245972 C49.17089253 65.01695137 49.1919578 73.73136147 49.22631836 82.44580078 C49.25625953 90.04303894 49.27558421 97.64021802 49.28226548 105.23751354 C49.28616976 109.25866701 49.29531885 113.27965152 49.31719017 117.30075073 C49.33762996 121.08953952 49.34381876 124.87809056 49.33932304 128.66692924 C49.34014491 130.05360648 49.34606593 131.44029209 49.35761642 132.82692146 C49.43089865 142.08238108 49.26352027 150.40179346 42.625 157.61328125 C36.36852877 162.95233722 29.96526484 164.73523689 21.83203125 164.359375 C15.66844413 163.57723705 10.39903323 161.51792601 6 157 C2.209752 151.0837772 -0.12639404 146.23790135 -0.12025452 139.13447571 C-0.12162918 137.91029938 -0.12300385 136.68612305 -0.12442017 135.42485046 C-0.12088104 134.06619238 -0.11724623 132.70753455 -0.11352539 131.34887695 C-0.11324335 129.91988121 -0.11340158 128.49088531 -0.1139679 127.06188965 C-0.11425523 123.17994704 -0.10836884 119.29803523 -0.10139394 115.41609979 C-0.09514975 111.36018037 -0.09455576 107.30426027 -0.09336853 103.24833679 C-0.09025837 95.56670657 -0.0820492 87.88509056 -0.07201904 80.20346659 C-0.06084815 71.45870442 -0.05534499 62.71394156 -0.05032361 53.96917403 C-0.03986634 35.97943966 -0.02152475 17.98972477 0 0 Z " fill="#E9BC8B" transform="translate(347,331)"/>
<path d="M0 0 C6.52974971 3.73870361 10.58861258 8.9963065 12.96484375 16.125 C13.08438144 18.10154185 13.14010571 20.08238456 13.15234375 22.0625 C13.16652344 23.10277344 13.18070312 24.14304687 13.1953125 25.21484375 C12.96441779 28.13037863 12.29441083 29.58917246 10.96484375 32.125 C11.36654407 36.78529854 11.36654407 36.78529854 12.96484375 41.125 C13.94520214 49.19194907 12.66645613 55.46343836 7.96484375 62.125 C3.0043418 67.62535123 -1.67337176 70.60508842 -9.1484375 71.49609375 C-17.57201975 71.67094222 -23.29253686 70.462471 -29.58984375 64.703125 C-35.90605968 57.75155007 -36.36587429 51.55827672 -36.3359375 42.52734375 C-36.03515625 39.125 -36.03515625 39.125 -34.890625 35.94140625 C-33.73543832 33.23888479 -33.73543832 33.23888479 -34.8828125 31.203125 C-35.26308594 30.51734375 -35.64335937 29.8315625 -36.03515625 29.125 C-36.85490503 21.63508481 -37.3879877 13.98799991 -32.5859375 7.765625 C-23.30276122 -2.05536754 -12.72711511 -6.44184385 0 0 Z " fill="#020203" transform="translate(433.03515625,101.875)"/>
<path d="M0 0 C1 2 1 2 0.1015625 5.16796875 C-0.37754181 6.51254633 -0.87077718 7.85213894 -1.375 9.1875 C-1.64103027 9.89495361 -1.90706055 10.60240723 -2.18115234 11.33129883 C-5.98411428 20.99528359 -11.35530205 30.01734251 -18 38 C-17.319375 38.7425 -16.63875 39.485 -15.9375 40.25 C-14 43 -14 43 -14.07421875 44.87109375 C-17.74158101 53.30447953 -29.39262186 59.55623173 -37 64 C-39 62 -41 60 -43 58 C-43.64324219 58.31453125 -44.28648437 58.6290625 -44.94921875 58.953125 C-52.12539363 62.35182694 -59.35032156 64.88688014 -67 67 C-68.2065625 67.36222656 -69.413125 67.72445312 -70.65625 68.09765625 C-75.99926961 69.41063627 -81.34006846 69.2911719 -86.8125 69.25 C-87.82892578 69.25773437 -88.84535156 69.26546875 -89.89257812 69.2734375 C-99.71173791 69.24840459 -108.84707538 67.84117827 -118 64.25 C-118.68078613 63.98687012 -119.36157227 63.72374023 -120.06298828 63.45263672 C-130.26150482 59.41316768 -138.64688466 54.09536311 -147 47 C-147.97582031 46.22398437 -148.95164062 45.44796875 -149.95703125 44.6484375 C-162.15852045 34.45113255 -171.06136924 18.22937227 -175 3 C-174.67 2.34 -174.34 1.68 -174 1 C-173.25556641 2.14275391 -173.25556641 2.14275391 -172.49609375 3.30859375 C-166.14936539 12.95513913 -160.1098461 21.79611461 -151 29 C-150.21109375 29.63679688 -149.4221875 30.27359375 -148.609375 30.9296875 C-133.19265966 42.7922499 -115.22565029 49.62379603 -96 52 C-96 46.72 -96 41.44 -96 36 C-90.39 36 -84.78 36 -79 36 C-79 41.28 -79 46.56 -79 52 C-52.19453447 47.97918017 -26.93165748 37.06891083 -10 15 C-6.52036894 10.09544929 -3.23632642 5.06731693 0 0 Z " fill="#148BDE" transform="translate(459,162)"/>
<path d="M0 0 C2.95110344 2.86167606 5.67367899 5.78422995 8.3125 8.9375 C17.01316577 18.91326334 29.85412529 26.13897744 43.18066406 27.16845703 C52.37736162 27.61758059 61.46742041 27.8464327 70 24 C71.14210937 23.48953125 72.28421875 22.9790625 73.4609375 22.453125 C83.46161576 17.80045233 90.06447117 12.66127908 96.6171875 3.7578125 C97.07351562 3.17773438 97.52984375 2.59765625 98 2 C98.33 2 98.66 2 99 2 C97.97885442 13.7431742 92.31625273 23.86017891 83.90234375 32.0390625 C70.59807285 43.00120223 57.65134118 45.17833171 41 44 C31.97890079 42.48277359 24.99645884 38.8013342 18 33 C17.39929688 32.52304688 16.79859375 32.04609375 16.1796875 31.5546875 C9.60804989 25.71662804 5.45645922 17.46927673 1 10 C-1.71999646 13.28051633 -4.01828898 16.58644361 -6.1875 20.25 C-14.00590232 32.58348816 -24.79555717 40.45738477 -39 44 C-42.42853373 44.43936525 -45.79588843 44.52481082 -49.25 44.5 C-50.1680542 44.49500488 -51.0861084 44.49000977 -52.03198242 44.48486328 C-64.89496647 44.15687019 -74.12984479 39.19989616 -83.5625 30.6875 C-84.366875 29.800625 -85.17125 28.91375 -86 28 C-86.55558594 27.38769531 -87.11117187 26.77539062 -87.68359375 26.14453125 C-93.53558797 19.23540259 -98.56882456 10.30803819 -98 1 C-97.43539062 1.72316406 -96.87078125 2.44632813 -96.2890625 3.19140625 C-85.98838166 15.82995493 -73.25828546 25.17484147 -56.7265625 27.29101562 C-40.76518164 28.60345475 -25.72160151 25.08468727 -13 15 C-7.91315913 10.50191386 -3.45622228 5.86055083 0 0 Z " fill="#B4BFCC" transform="translate(115,204)"/>
<path d="M0 0 C-0.48210937 0.51949219 -0.96421875 1.03898437 -1.4609375 1.57421875 C-2.40839844 2.62029297 -2.40839844 2.62029297 -3.375 3.6875 C-4.00148438 4.37199219 -4.62796875 5.05648438 -5.2734375 5.76171875 C-8.31623108 9.70633577 -9.24799154 13.29996412 -9.2784729 18.23286438 C-9.28963638 19.2662645 -9.30079987 20.29966461 -9.31230164 21.36437988 C-9.31446182 22.4871936 -9.31662201 23.61000732 -9.31884766 24.7668457 C-9.32889328 25.95751144 -9.3389389 27.14817719 -9.34928894 28.37492371 C-9.37484672 31.63073039 -9.39172269 34.8864423 -9.40471697 38.14231896 C-9.42037048 41.54831391 -9.4471536 44.95422106 -9.4727478 48.3601532 C-9.51949636 54.80565965 -9.55625939 61.25118269 -9.58942068 67.6967718 C-9.6314235 75.75689281 -9.68678057 83.81691501 -9.7421875 91.87695312 C-9.84094148 106.25124784 -9.91951842 120.62556558 -10 135 C-37.39 135 -64.78 135 -93 135 C-93 96.06 -93 57.12 -93 17 C-92.67 17 -92.34 17 -92 17 C-92 55.61 -92 94.22 -92 134 C-70.55 134 -49.1 134 -27 134 C-27.04640625 125.646875 -27.0928125 117.29375 -27.140625 108.6875 C-27.16366619 102.71828458 -27.18417041 96.74910264 -27.20101547 90.77987099 C-27.22316575 83.05025 -27.25126996 75.32080202 -27.30175781 67.59130859 C-27.3459943 60.81562596 -27.36914603 54.04013071 -27.37950897 47.26431274 C-27.38689299 44.68076633 -27.40131222 42.09723003 -27.42292023 39.51376343 C-27.45200644 35.89176383 -27.45595364 32.27053532 -27.45410156 28.6484375 C-27.46848267 27.5831633 -27.48286377 26.5178891 -27.49768066 25.42033386 C-27.45545643 17.77623953 -25.91992503 12.91323286 -21.2890625 6.70703125 C-17.93167612 4.20331479 -14.32210618 3.00872095 -10.375 1.6875 C-9.21097656 1.27274414 -9.21097656 1.27274414 -8.0234375 0.84960938 C-2.26778488 -1.13389244 -2.26778488 -1.13389244 0 0 Z " fill="#B2BCC7" transform="translate(167,361)"/>
<path d="M0 0 C5.28 0 10.56 0 16 0 C16.06800261 9.34530229 16.12294628 18.69043798 16.15543652 28.03593254 C16.17103675 32.37626271 16.1921708 36.7164136 16.22631836 41.05664062 C16.25911455 45.25175849 16.27689536 49.44670481 16.28463173 53.64194107 C16.29013912 55.23578717 16.30089293 56.82962477 16.31719017 58.42339706 C16.49293677 76.33637799 11.93932966 90.56737453 -0.73828125 103.84765625 C-3.95750088 106.91119686 -7.28455268 109.56653553 -11 112 C-11.56203125 112.37769531 -12.1240625 112.75539063 -12.703125 113.14453125 C-18.11478595 116.52049731 -24.58667769 119 -31 119 C-32.65 114.05 -34.3 109.1 -36 104 C-31.96222211 102.26952376 -28.21798261 100.72506134 -24.125 99.3125 C-15.54015079 95.87594697 -8.96395059 89.31805381 -5 81 C-3.83530938 78.03933686 -2.85249538 75.06437527 -2 72 C-1.82731094 71.43524963 -1.65462189 70.87049927 -1.47669983 70.28863525 C-0.84782692 67.26941725 -0.83466023 64.38807492 -0.79467773 61.30371094 C-0.78477814 60.63988403 -0.77487854 59.97605713 -0.76467896 59.29211426 C-0.7331874 57.10623698 -0.70835563 54.920338 -0.68359375 52.734375 C-0.66301355 51.21550951 -0.64201679 49.69664962 -0.62062073 48.17779541 C-0.56551016 44.18628475 -0.51605247 40.19472335 -0.46777344 36.203125 C-0.41747783 32.1275584 -0.36183389 28.0520652 -0.30664062 23.9765625 C-0.19919381 15.98443546 -0.09821355 7.99224584 0 0 Z " fill="#020202" transform="translate(91,64)"/>
<path d="M0 0 C7.40494975 4.50104789 12.96966531 9.30034255 15.1875 17.9375 C16.42137358 25.96355384 14.81995117 32.28637364 10.1875 38.9375 C5.650254 44.04594324 0.30381369 47.41275746 -6.5703125 48.2890625 C-14.00566701 48.65037129 -19.79151582 47.42984053 -25.8125 42.9375 C-31.59521495 37.10114205 -34.73761459 31.42409553 -35.25 23.1875 C-35.07499636 16.34176957 -32.48208642 10.8492868 -27.875 5.82421875 C-19.7045407 -1.64989459 -10.70333709 -2.98289722 0 0 Z " fill="#040203" transform="translate(331.8125,117.0625)"/>
<path d="M0 0 C16.17 0 32.34 0 49 0 C49 7.92 49 15.84 49 24 C32.83 24 16.66 24 0 24 C0 16.08 0 8.16 0 0 Z " fill="#D3A06C" transform="translate(347,331)"/>
<path d="M0 0 C5.28 0 10.56 0 16 0 C16 21.78 16 43.56 16 66 C10.72 66 5.44 66 0 66 C0 44.22 0 22.44 0 0 Z " fill="#010101" transform="translate(91,405)"/>
<path d="M0 0 C5.54019275 8.31028913 4.04448108 22.29414908 2.31640625 31.734375 C0.29421689 38.2120936 -2.90394532 43.62460015 -7 49 C-7.7425 50.03125 -8.485 51.0625 -9.25 52.125 C-16.65800218 59.86972956 -25.65652854 64.41749477 -36 67 C-36.99 66.67 -37.98 66.34 -39 66 C-38.3709375 65.55011719 -37.741875 65.10023438 -37.09375 64.63671875 C-25.00918837 55.55509788 -17.39247689 43.45872764 -14.234375 28.62109375 C-13.9736892 25.70575759 -14.15636151 22.88954228 -14.32861328 19.97265625 C-14.78310491 10.95619462 -14.78310491 10.95619462 -12.1796875 7.77734375 C-9.84803044 6.27292475 -7.53218875 5.12635821 -5 4 C-3.31337481 2.69200496 -1.63533988 1.37157538 0 0 Z " fill="#B4BECB" transform="translate(211,290)"/>
<path d="M0 0 C0.985267 2.22664317 1.96331444 4.45601317 2.9375 6.6875 C3.35418945 7.62625977 3.35418945 7.62625977 3.77929688 8.58398438 C6.81036577 15.55909473 7.13510702 21.32280695 7.0625 28.8125 C7.05798828 29.69615234 7.05347656 30.57980469 7.04882812 31.49023438 C7.03709866 33.66018559 7.01916495 35.83010172 7 38 C1.72 38 -3.56 38 -9 38 C-9.103125 35.73125 -9.20625 33.4625 -9.3125 31.125 C-9.79473345 22.798797 -11.87433753 15.71267362 -15 8 C-12.8782637 6.66121428 -10.75294812 5.32884524 -8.625 4 C-8.02171875 3.6184375 -7.4184375 3.236875 -6.796875 2.84375 C-2.2265625 0 -2.2265625 0 0 0 Z " fill="#050505" transform="translate(100,351)"/>
<path d="M0 0 C5.61 0 11.22 0 17 0 C17 11.22 17 22.44 17 34 C11.39 34 5.78 34 0 34 C0 22.78 0 11.56 0 0 Z " fill="#ADB7C3" transform="translate(363,280)"/>
<path d="M0 0 C1.90625 0.4140625 1.90625 0.4140625 4.40625 1.9765625 C6.50873778 5.39310514 6.45156303 7.46054302 5.90625 11.4140625 C4.57291667 13.4140625 3.23958333 15.4140625 1.90625 17.4140625 C1.23948122 20.95656301 1.23948122 20.95656301 1.90625 24.4140625 C2.56625 25.2390625 3.22625 26.0640625 3.90625 26.9140625 C5.90625 29.4140625 5.90625 29.4140625 6.40625 32.9765625 C5.90625 36.4140625 5.90625 36.4140625 4.34375 38.7890625 C1.05132816 40.9840104 -1.13544355 41.48350647 -5.09375 41.4140625 C-8.03125 39.4140625 -8.03125 39.4140625 -10.09375 36.4140625 C-10.65625 32.9140625 -10.65625 32.9140625 -10.09375 29.4140625 C-9.43375 28.6096875 -8.77375 27.8053125 -8.09375 26.9765625 C-5.67120106 23.87267167 -5.51508244 22.16441564 -5.6875 18.328125 C-6.30626637 15.41278345 -8.2039194 13.65823634 -10.09375 11.4140625 C-10.7214957 7.6475883 -10.36114304 5.92656583 -8.59375 2.5390625 C-5.55206021 -0.04637382 -3.89367767 -0.27604431 0 0 Z " fill="#F35665" transform="translate(423.09375,115.5859375)"/>
<path d="M0 0 C5.61 0 11.22 0 17 0 C17 5.61 17 11.22 17 17 C11.39 17 5.78 17 0 17 C0 11.39 0 5.78 0 0 Z " fill="#0C0A07" transform="translate(363,462)"/>
<path d="M0 0 C5.61 0 11.22 0 17 0 C17 5.61 17 11.22 17 17 C11.39 17 5.78 17 0 17 C0 11.39 0 5.78 0 0 Z " fill="#020A0D" transform="translate(363,198)"/>
<path d="M0 0 C5.61 0 11.22 0 17 0 C17 5.61 17 11.22 17 17 C11.39 17 5.78 17 0 17 C0 11.39 0 5.78 0 0 Z " fill="#030C0F" transform="translate(363,124)"/>
<path d="M0 0 C5.61 0 11.22 0 17 0 C17 5.61 17 11.22 17 17 C11.39 17 5.78 17 0 17 C0 11.39 0 5.78 0 0 Z " fill="#030A0D" transform="translate(330,74)"/>
<path d="M0 0 C5.28 0 10.56 0 16 0 C16 4.95 16 9.9 16 15 C10.72 15 5.44 15 0 15 C0 10.05 0 5.1 0 0 Z " fill="#000000" transform="translate(91,33)"/>
<path d="M0 0 C3.74225404 1.1566967 5.28964665 1.79776291 7.4375 5.0625 C7.99552097 8.96864682 8.02142818 11.11361671 5.9375 14.5 C2.41623756 16.70078902 -0.51689643 16.86664661 -4.5625 16.0625 C-7.0625 14.5 -7.0625 14.5 -8.5625 12.0625 C-9.28718526 7.63386786 -9.05704049 5.78183162 -6.5 2.0625 C-3.5625 0.0625 -3.5625 0.0625 0 0 Z " fill="#F35664" transform="translate(322.5625,131.9375)"/>
</svg>
