<?xml version="1.0" encoding="UTF-8"?>
<svg version="1.1" xmlns="http://www.w3.org/2000/svg" width="512" height="512">
<path d="M0 0 C3.74892212 0.02387848 4.36850236 0.07934365 7.25 2.75 C8.6875 5.375 8.6875 5.375 8.6875 7.375 C55.8775 7.375 103.0675 7.375 151.6875 7.375 C152.3475 5.725 153.0075 4.075 153.6875 2.375 C156.10236943 -0.03986943 156.81457789 0.0788075 160.125 0.0625 C161.29869141 0.03736328 161.29869141 0.03736328 162.49609375 0.01171875 C164.6875 0.375 164.6875 0.375 166.41015625 1.51953125 C168.24005692 4.17764384 168.53749569 6.15780228 168.6875 9.375 C167.7109375 12.21484375 167.7109375 12.21484375 166.0625 15.3125 C165.60629272 16.18237549 165.60629272 16.18237549 165.14086914 17.06982422 C161.414128 24.08077272 157.44422651 30.97050782 153.48388672 37.85131836 C152.40873866 39.72639871 151.35014323 41.61106769 150.30834961 43.50488281 C149.19556832 45.47533873 148.01167158 47.40678596 146.77172852 49.29980469 C144.20199096 53.53804483 142.39456978 56.54281892 143.19750977 61.56494141 C144.48258778 65.00647709 146.00882988 68.14068221 147.75 71.375 C148.61214111 73.08683472 148.61214111 73.08683472 149.49169922 74.83325195 C157.6670553 90.70045086 167.18880637 102.54210212 184.6875 108.375 C192.01588735 110.09531353 199.12317965 110.62155757 206.625 110.75 C232.36566059 111.58041136 262.11841101 119.00438271 281.3515625 137.31640625 C283.41956411 140.50306371 282.79876395 143.17336912 282.44140625 146.83203125 C282.88117136 151.37627074 285.84239822 153.79380974 289.10546875 156.73828125 C292.47035875 158.8712448 294.68801569 159.00823879 298.546875 158.30078125 C301.93945793 158.4184073 303.29712405 160.04792061 305.6875 162.375 C307.27805637 164.61189553 308.69210999 166.76331624 310.0625 169.125 C310.44825195 169.7840332 310.83400391 170.44306641 311.23144531 171.12207031 C320.26249591 186.89471442 326.13473049 203.6651169 327.76986694 221.826828 C327.85231734 222.72443696 327.93476773 223.62204592 328.01971662 224.54685515 C329.02845537 236.32998743 329.2696583 248.14010762 329.55712891 259.95825195 C329.62577104 262.55918995 329.6950492 265.16011123 329.76490784 267.76101685 C329.9322958 274.03522839 330.09214003 280.30960936 330.24936534 286.58408288 C330.43318542 293.90615001 330.6251598 301.227997 330.81750648 308.54984429 C331.16045069 321.613081 331.49682355 334.67647819 331.82910156 347.73999023 C332.15100173 360.39504237 332.4765604 373.04999248 332.80664062 385.70483398 C332.82702415 386.48634739 332.84740767 387.2678608 332.86840887 388.07305644 C332.95037241 391.21514844 333.03235188 394.35724004 333.11435477 397.49933102 C333.48717576 411.78726028 333.8571916 426.07526242 334.2265625 440.36328125 C334.24526809 441.08653769 334.26397368 441.80979413 334.2832461 442.55496743 C334.51687157 451.58924307 334.74919531 460.62355039 334.97927666 469.65791702 C335.04343071 472.17178541 335.10792622 474.68564511 335.17278862 477.19949532 C335.26124098 480.63092301 335.34840302 484.06238108 335.43521118 487.49385071 C335.46108358 488.48732476 335.48695598 489.48079881 335.51361239 490.50437814 C335.57919403 493.12782126 335.63482109 495.75127129 335.6875 498.375 C335.72011559 499.53616571 335.72011559 499.53616571 335.75339007 500.72078931 C335.83649755 505.22055135 335.44503734 507.73505072 332.6875 511.375 C331.6875 512.375 331.6875 512.375 327.875 512.6875 C324.68298109 512.6531156 323.87638197 512.51193943 321.1875 510.5625 C319.6875 508.375 319.6875 508.375 319.6875 505.375 C299.2275 505.375 278.7675 505.375 257.6875 505.375 C257.3575 507.025 257.0275 508.675 256.6875 510.375 C254.27263057 512.78986943 253.56042211 512.6711925 250.25 512.6875 C249.46753906 512.70425781 248.68507813 512.72101562 247.87890625 512.73828125 C245.09255205 512.27637226 244.42306797 511.5815452 242.6875 509.375 C242.00374031 506.84701157 242.00374031 506.84701157 241.58303833 503.88079834 C241.42685154 502.8067852 241.27066475 501.73277206 241.10974503 500.62621307 C240.97040417 499.55331276 240.83106331 498.48041245 240.6875 497.375 C240.56722317 496.45475288 240.44694633 495.53450577 240.32302475 494.58637238 C239.98060059 491.82034213 239.66575406 489.05241943 239.35888672 486.28222656 C239.18288437 484.72878036 239.18288437 484.72878036 239.00332642 483.14395142 C238.62160489 479.76817412 238.24435455 476.39191392 237.8671875 473.015625 C237.60128082 470.65619833 237.33509185 468.29680346 237.06863403 465.93743896 C236.37208671 459.76309047 235.67934649 453.58832071 234.98742676 447.41345215 C234.2790949 441.09829004 233.56712392 434.78353831 232.85546875 428.46875 C231.46260516 416.10456325 230.07376748 403.73992792 228.6875 391.375 C228.52640747 392.62652863 228.36531494 393.87805725 228.19934082 395.16751099 C228.063419 396.22348826 228.063419 396.22348826 227.92475128 397.30079842 C227.59586536 400.17612834 227.48832096 403.03755943 227.40625 405.9296875 C227.36886719 407.12207031 227.33148438 408.31445312 227.29296875 409.54296875 C227.24076172 411.37794922 227.24076172 411.37794922 227.1875 413.25 C226.53306787 436.1066482 226.53306787 436.1066482 223.9375 440 C221.6875 441.375 221.6875 441.375 216.6875 441.375 C217.0175 446.655 217.3475 451.935 217.6875 457.375 C219.9975 458.035 222.3075 458.695 224.6875 459.375 C227.08244143 462.96741215 227.12644055 465.80388368 227.3203125 469.97265625 C227.36187469 470.72155624 227.40343689 471.47045624 227.44625854 472.24205017 C227.5327161 473.82967928 227.61480908 475.41755119 227.69287109 477.00561523 C227.81088701 479.40471029 227.94126767 481.80286286 228.07421875 484.20117188 C229.26207615 506.17796635 229.26207615 506.17796635 227.1875 510.5 C224.14367152 512.78287136 222.32331411 513.0410711 218.58984375 512.8046875 C215.673339 512.14592873 214.39363314 510.76358639 212.6875 508.375 C212.3575 507.385 212.0275 506.395 211.6875 505.375 C124.8975 505.375 38.1075 505.375 -51.3125 505.375 C-51.6425 507.025 -51.9725 508.675 -52.3125 510.375 C-55.5034164 512.5022776 -57.51409774 512.70881412 -61.27734375 512.93359375 C-64.54336008 512.03716316 -65.58632571 510.20035254 -67.3125 507.375 C-67.58984375 504.58984375 -67.58984375 504.58984375 -67.25 501.3125 C-67.12496094 500.00152344 -66.99992187 498.69054687 -66.87109375 497.33984375 C-66.6862619 495.68474271 -66.49988911 494.02981346 -66.3125 492.375 C-66.07314377 490.14725065 -65.83495295 487.91937592 -65.59765625 485.69140625 C-65.21358321 482.08990676 -64.8254474 478.48928466 -64.41772461 474.89038086 C-62.64500654 459.05238232 -61.9444715 443.24966101 -61.74267578 427.32055664 C-61.7056817 425.05229539 -61.65078992 422.78426013 -61.57861328 420.5168457 C-61.47515496 417.19926615 -61.43079565 413.88534927 -61.3984375 410.56640625 C-61.35512299 409.56106339 -61.31180847 408.55572052 -61.2671814 407.51991272 C-61.27916917 403.04072465 -61.44151929 400.41735894 -64.37823486 396.90280151 C-66.61061512 394.90709108 -68.86124197 393.09204717 -71.3125 391.375 C-72.66059588 404.85541817 -73.79791835 418.33546631 -74.72863579 431.85092163 C-75.0871565 437.03143368 -75.46011831 442.21091964 -75.83007812 447.390625 C-76.29554265 453.92335441 -76.7567934 460.45631842 -77.20532227 466.99023438 C-77.57239572 472.33207391 -77.95217159 477.67287726 -78.34047127 483.01321411 C-78.4850997 485.03507552 -78.62501842 487.05727972 -78.76006889 489.07980347 C-78.94835094 491.89145286 -79.15281919 494.70148896 -79.36108398 497.51171875 C-79.41261124 498.33971985 -79.46413849 499.16772095 -79.51722717 500.02081299 C-79.90253572 504.9383851 -80.66640723 508.72890723 -84.3125 512.375 C-86.2734375 512.578125 -86.2734375 512.578125 -88.6875 512.625 C-89.47898437 512.65078125 -90.27046875 512.6765625 -91.0859375 512.703125 C-93.3125 512.375 -93.3125 512.375 -95.1015625 511.109375 C-96.3125 509.375 -96.3125 509.375 -96.3125 505.375 C-116.7725 505.375 -137.2325 505.375 -158.3125 505.375 C-158.6425 507.025 -158.9725 508.675 -159.3125 510.375 C-163.10497686 512.90331791 -165.86199712 512.98822169 -170.3125 512.375 C-172.98681489 510.56336733 -173.27170359 509.49738923 -174.3125 506.375 C-174.35825338 504.2452488 -174.33710885 502.11387684 -174.28210449 499.98434448 C-174.26670105 499.33091879 -174.2512976 498.67749309 -174.23542738 498.00426662 C-174.1822338 495.80330393 -174.12134807 493.60262019 -174.06054688 491.40185547 C-174.02073822 489.81872326 -173.98140854 488.23557894 -173.94252014 486.65242386 C-173.83444574 482.30755288 -173.71971591 477.96287917 -173.60390663 473.61820841 C-173.48108591 468.96780886 -173.36431633 464.31725732 -173.24694824 459.66671753 C-173.04509745 451.69614809 -172.83967824 443.72567706 -172.63232422 435.75524902 C-172.31452025 423.52488798 -172.00978336 411.29421803 -171.70703125 399.06347656 C-171.2466246 380.48741015 -170.77565231 361.91163508 -170.29629517 343.33604813 C-170.02325498 332.74968683 -169.75313641 322.16326635 -169.48974609 311.57666016 C-169.25350672 302.08145512 -169.01209882 292.58639795 -168.76450109 283.09148204 C-168.635615 278.14295077 -168.50904547 273.19438943 -168.3888092 268.2456398 C-167.27844808 222.71647303 -164.51918496 183.3608199 -132.3125 148.375 C-131.69761719 147.68921875 -131.08273438 147.0034375 -130.44921875 146.296875 C-108.64084381 123.13562321 -76.64785608 111.75850017 -45.4375 110.8125 C-44.46167969 110.78325439 -43.48585937 110.75400879 -42.48046875 110.72387695 C-26.64672703 110.20012478 -13.33666277 106.2454931 -1.3125 95.375 C5.00820591 88.03446388 9.25601981 79.6130832 13.3125 70.875 C13.76270508 69.91924072 14.21291016 68.96348145 14.67675781 67.97875977 C15.08506836 67.06795654 15.49337891 66.15715332 15.9140625 65.21875 C16.28096191 64.40599609 16.64786133 63.59324219 17.02587891 62.75585938 C18.49118311 57.48292706 15.9124559 53.58547134 13.37109375 49.03515625 C12.86897118 48.13004555 12.86897118 48.13004555 12.35670471 47.20664978 C11.28576231 45.28001397 10.20549855 43.35878945 9.125 41.4375 C8.4258296 40.18197606 7.72725686 38.9261191 7.02929688 37.66992188 C2.78947951 30.0566804 2.78947951 30.0566804 -1.58935547 22.52294922 C-2.13993874 21.58702187 -2.13993874 21.58702187 -2.7016449 20.63218689 C-3.71445982 18.91519859 -4.73763215 17.20433196 -5.76147461 15.49389648 C-7.33675386 12.32622886 -8.06748369 9.89412805 -8.3125 6.375 C-6.04875643 1.74461543 -5.08113435 0.21621848 0 0 Z " fill="#FEF2DF" transform="translate(175.3125,-0.375)"/>
<path d="M0 0 C3.74892212 0.02387848 4.36850236 0.07934365 7.25 2.75 C8.6875 5.375 8.6875 5.375 8.6875 7.375 C55.8775 7.375 103.0675 7.375 151.6875 7.375 C152.3475 5.725 153.0075 4.075 153.6875 2.375 C156.10236943 -0.03986943 156.81457789 0.0788075 160.125 0.0625 C161.29869141 0.03736328 161.29869141 0.03736328 162.49609375 0.01171875 C164.6875 0.375 164.6875 0.375 166.41015625 1.51953125 C168.24005692 4.17764384 168.53749569 6.15780228 168.6875 9.375 C167.7109375 12.21484375 167.7109375 12.21484375 166.0625 15.3125 C165.60629272 16.18237549 165.60629272 16.18237549 165.14086914 17.06982422 C161.414128 24.08077272 157.44422651 30.97050782 153.48388672 37.85131836 C152.40873866 39.72639871 151.35014323 41.61106769 150.30834961 43.50488281 C149.19556832 45.47533873 148.01167158 47.40678596 146.77172852 49.29980469 C144.20199096 53.53804483 142.39456978 56.54281892 143.19750977 61.56494141 C144.48258778 65.00647709 146.00882988 68.14068221 147.75 71.375 C148.61214111 73.08683472 148.61214111 73.08683472 149.49169922 74.83325195 C157.6670553 90.70045086 167.18880637 102.54210212 184.6875 108.375 C192.01588735 110.09531353 199.12317965 110.62155757 206.625 110.75 C232.40476089 111.58167277 262.18602315 118.97332439 281.3046875 137.4921875 C282.6875 139.375 282.6875 139.375 283.4375 143.1875 C282.68764245 146.37439459 282.33244771 147.54388236 279.6875 149.375 C276.78857181 150.8244641 274.91807892 150.71485996 271.6875 150.375 C269.23568057 148.93462854 267.07686438 147.49950742 264.8125 145.8125 C246.2945381 132.79014664 225.02920929 127.74304593 202.625 126.875 C180.88207961 126.01571862 164.19887145 120.2639891 148.6875 104.375 C142.5771972 97.15964244 138.63425919 88.67219581 134.57226562 80.20898438 C133.30563558 77.58345323 131.99760818 74.97904218 130.6875 72.375 C129.5428125 73.1484375 129.5428125 73.1484375 128.375 73.9375 C127.82199219 74.30230469 127.26898438 74.66710937 126.69921875 75.04296875 C125.23520616 76.01234407 123.78067828 76.99609016 122.33203125 77.98828125 C105.17201207 89.41984499 86.17061375 94.11398507 65.76171875 90.72265625 C53.73439962 87.81261953 42.80191367 82.73601169 33.359375 74.66015625 C31.77468015 73.17185261 31.77468015 73.17185261 29.6875 73.375 C29.19121094 74.55835937 28.69492188 75.74171875 28.18359375 76.9609375 C24.44262786 85.72789848 20.76729595 93.93966455 14.6875 101.375 C14.07261719 102.15101562 13.45773438 102.92703125 12.82421875 103.7265625 C6.18420545 111.68393314 -1.61243487 116.75379874 -10.875 121.1875 C-11.47578369 121.4777002 -12.07656738 121.76790039 -12.69555664 122.06689453 C-21.56065106 126.12422815 -30.16343651 126.63907028 -39.8125 126.8125 C-67.43513912 127.64332887 -92.17208385 134.87249166 -113.3125 153.375 C-114.42818359 154.27605469 -114.42818359 154.27605469 -115.56640625 155.1953125 C-136.27338627 172.40911502 -147.80673027 199.50947084 -150.56903052 225.8182559 C-150.99807545 231.4824539 -151.10665135 237.15183393 -151.2097168 242.82958984 C-151.25643983 244.67863259 -151.30471668 246.52763661 -151.35440063 248.37660217 C-151.48334745 253.33307089 -151.59109248 258.28978855 -151.69478965 263.24684095 C-151.80812568 268.47783811 -151.94202357 273.70831104 -152.07368469 278.93887329 C-152.31991502 288.83879938 -152.54881886 298.73904238 -152.77094728 308.63953555 C-153.09664369 323.11865662 -153.450087 337.59710603 -153.80168629 352.07561684 C-153.85395885 354.23031191 -153.90621366 356.38500742 -153.95845032 358.53970337 C-153.98401798 359.59354583 -154.00958563 360.6473883 -154.03592807 361.73316538 C-154.18554204 367.92295859 -154.33070136 374.11283594 -154.47175586 380.30282998 C-155.27391049 415.50353534 -155.27391049 415.50353534 -156.10221863 431.89266968 C-156.43286162 438.56250341 -156.54875517 445.23652931 -156.66636086 451.91290665 C-156.73839101 455.84451744 -156.82877139 459.77573385 -156.91601562 463.70703125 C-157.02504458 468.64455096 -157.12833352 473.58198387 -157.21118164 478.52001953 C-157.27976661 482.57884535 -157.36723228 486.63687369 -157.46756554 490.69503403 C-157.50198011 492.2266841 -157.52947056 493.7585067 -157.54975319 495.29040909 C-157.57875039 497.41466272 -157.63186539 499.53703669 -157.69067383 501.66064453 C-157.71430496 502.86447784 -157.7379361 504.06831116 -157.76228333 505.30862427 C-158.41456087 508.9437886 -159.42379651 510.14607528 -162.3125 512.375 C-165.22034881 513.08382303 -167.255039 512.71471789 -170.3125 512.375 C-172.98681489 510.56336733 -173.27170359 509.49738923 -174.3125 506.375 C-174.35825338 504.2452488 -174.33710885 502.11387684 -174.28210449 499.98434448 C-174.26670105 499.33091879 -174.2512976 498.67749309 -174.23542738 498.00426662 C-174.1822338 495.80330393 -174.12134807 493.60262019 -174.06054688 491.40185547 C-174.02073822 489.81872326 -173.98140854 488.23557894 -173.94252014 486.65242386 C-173.83444574 482.30755288 -173.71971591 477.96287917 -173.60390663 473.61820841 C-173.48108591 468.96780886 -173.36431633 464.31725732 -173.24694824 459.66671753 C-173.04509745 451.69614809 -172.83967824 443.72567706 -172.63232422 435.75524902 C-172.31452025 423.52488798 -172.00978336 411.29421803 -171.70703125 399.06347656 C-171.2466246 380.48741015 -170.77565231 361.91163508 -170.29629517 343.33604813 C-170.02325498 332.74968683 -169.75313641 322.16326635 -169.48974609 311.57666016 C-169.25350672 302.08145512 -169.01209882 292.58639795 -168.76450109 283.09148204 C-168.635615 278.14295077 -168.50904547 273.19438943 -168.3888092 268.2456398 C-167.27844808 222.71647303 -164.51918496 183.3608199 -132.3125 148.375 C-131.69761719 147.68921875 -131.08273438 147.0034375 -130.44921875 146.296875 C-108.64084381 123.13562321 -76.64785608 111.75850017 -45.4375 110.8125 C-44.46167969 110.78325439 -43.48585937 110.75400879 -42.48046875 110.72387695 C-26.64672703 110.20012478 -13.33666277 106.2454931 -1.3125 95.375 C5.00820591 88.03446388 9.25601981 79.6130832 13.3125 70.875 C13.76270508 69.91924072 14.21291016 68.96348145 14.67675781 67.97875977 C15.08506836 67.06795654 15.49337891 66.15715332 15.9140625 65.21875 C16.28096191 64.40599609 16.64786133 63.59324219 17.02587891 62.75585938 C18.49118311 57.48292706 15.9124559 53.58547134 13.37109375 49.03515625 C12.86897118 48.13004555 12.86897118 48.13004555 12.35670471 47.20664978 C11.28576231 45.28001397 10.20549855 43.35878945 9.125 41.4375 C8.4258296 40.18197606 7.72725686 38.9261191 7.02929688 37.66992188 C2.78947951 30.0566804 2.78947951 30.0566804 -1.58935547 22.52294922 C-2.13993874 21.58702187 -2.13993874 21.58702187 -2.7016449 20.63218689 C-3.71445982 18.91519859 -4.73763215 17.20433196 -5.76147461 15.49389648 C-7.33675386 12.32622886 -8.06748369 9.89412805 -8.3125 6.375 C-6.04875643 1.74461543 -5.08113435 0.21621848 0 0 Z " fill="#020201" transform="translate(175.3125,-0.375)"/>
<path d="M0 0 C3.6941887 2.46279247 4.59947 5.16472766 6.1875 9.125 C6.59645508 10.11306641 6.59645508 10.11306641 7.01367188 11.12109375 C7.68401132 12.74402083 8.34310641 14.37158417 9 16 C-8.73799479 30.29676123 -27.15507008 37.17578667 -49.9375 37.1875 C-51.81211914 37.20586914 -51.81211914 37.20586914 -53.72460938 37.22460938 C-59.90375435 37.234454 -65.17011376 37.06841169 -71 35 C-74.62642666 34.49929679 -74.62642666 34.49929679 -78 35 C-80.99248347 37.54533077 -82.82730656 40.19509378 -84.6875 43.625 C-92.95194877 57.65390179 -104.77764582 65.72233566 -120 71 C-123.48287593 71.81333792 -126.75188417 72.14173205 -130.32421875 72.2109375 C-161.96345802 73.01848189 -190.13355855 79.31308755 -215 100 C-215.93328125 100.76957031 -216.8665625 101.53914063 -217.828125 102.33203125 C-240.61347452 122.03053873 -253.4909584 151.30090691 -256 181 C-256.41423184 188.80452531 -256.46395128 196.6239944 -256.5625 204.4375 C-256.62194342 208.51960639 -256.68650623 212.60161136 -256.75390625 216.68359375 C-256.77055328 217.71746216 -256.78720032 218.75133057 -256.80435181 219.81652832 C-256.92193156 226.43538263 -257.15495011 233.04001528 -257.46484375 239.65234375 C-258.00009073 251.32932471 -258.25580757 263.00941386 -258.5 274.6953125 C-258.52057402 275.67628717 -258.54114803 276.65726185 -258.5623455 277.66796303 C-258.73326572 285.85875759 -258.89818719 294.04967125 -259.0625 302.24060059 C-259.18574131 308.37594757 -259.31126664 314.51123994 -259.43969727 320.64648056 C-259.49778719 323.46302232 -259.55269731 326.27961311 -259.60742188 329.09622192 C-259.81090546 339.09880537 -260.15343592 349.08500343 -260.63113308 359.07829666 C-261.02427406 367.31848735 -261.30004542 375.55869415 -261.53515625 383.8046875 C-261.57841432 385.27540531 -261.62182932 386.74611851 -261.66539001 388.21682739 C-261.77706671 392.00093272 -261.88668106 395.78509475 -261.99578857 399.5692749 C-262.10851763 403.46549239 -262.22330379 407.36164929 -262.33789062 411.2578125 C-262.56054927 418.83848572 -262.78082685 426.41922506 -263 434 C-271.25 434 -279.5 434 -288 434 C-288.10886995 417.13725441 -288.01169818 400.29514086 -287.5625 383.4375 C-287.5330278 382.29749542 -287.5330278 382.29749542 -287.50296021 381.13446045 C-287.29625885 373.27130724 -287.0310081 365.41371161 -286.65137577 357.5568943 C-286.0386921 344.8357768 -285.6501214 332.11386889 -285.31640625 319.3828125 C-285.25633619 317.14252334 -285.19611581 314.9022382 -285.13575745 312.66195679 C-285.00858348 307.92871998 -284.88270059 303.19545102 -284.75762939 298.4621582 C-284.5942248 292.29254277 -284.42624616 286.12306145 -284.25679398 279.95360947 C-283.62188252 256.81959199 -283.00138322 233.68663651 -282.58684349 210.54748154 C-282.53580645 207.74661959 -282.48182808 204.94583208 -282.42658997 202.14505005 C-282.40890029 201.24804068 -282.39121061 200.3510313 -282.37298489 199.42683983 C-282.33802397 197.66056195 -282.30290936 195.89428711 -282.26763248 194.12801552 C-282.18569701 189.94856683 -282.11263994 185.76935143 -282.06057739 181.5894165 C-281.58954702 144.21853339 -274.99569122 111.53507169 -247.484375 84.51123047 C-224.87310936 63.27748196 -197.31275686 55.06529402 -166.81835938 54.5703125 C-156.34613999 54.27618346 -147.25008156 52.11370595 -137.9375 47.3125 C-136.91462891 46.78922119 -136.91462891 46.78922119 -135.87109375 46.25537109 C-120.47088062 38.13598789 -112.18227134 26.37094132 -104.95117188 10.99902344 C-103.35282703 7.63987365 -101.67247567 4.32275033 -100 1 C-96.61660971 2.05730947 -94.1728972 3.56853501 -91.4375 5.75 C-77.05520064 16.7513857 -60.66465522 20.15023628 -43 19 C-41.87722656 18.92910156 -40.75445312 18.85820313 -39.59765625 18.78515625 C-26.38593969 17.33170412 -14.35744542 11.10931773 -4 3 C-2.66777001 1.99853056 -1.33477495 0.99807496 0 0 Z " fill="#FDE4C5" transform="translate(305,71)"/>
<path d="M0 0 C12.83452707 8.85468114 21.6964034 21.17641474 24.67578125 36.6015625 C26.97775272 52.7353799 23.18637807 67.80620339 13.53271484 80.91162109 C9.98021539 85.60561726 6.34174127 90.22859667 2.65551758 94.81811523 C2.15044678 95.45563721 1.64537598 96.09315918 1.125 96.75 C0.55652344 97.44512695 -0.01195312 98.14025391 -0.59765625 98.85644531 C-2.15710518 100.69038997 -2.15710518 100.69038997 -1.45703125 102.98828125 C0.80881873 106.94372801 3.58610139 110.38953559 6.4375 113.9375 C7.69871243 115.53871442 8.95776778 117.14162985 10.21484375 118.74609375 C10.85921387 119.56835449 11.50358398 120.39061523 12.16748047 121.23779297 C15.32569906 125.29093207 18.43660359 129.37476329 21.5 133.5 C22.06501221 134.23758545 22.63002441 134.9751709 23.2121582 135.73510742 C25.61049997 138.99827735 27.03164754 141.0168834 27.55078125 145.09375 C27.02982784 148.34373457 26.19206537 150.18398781 24.125 152.75 C21.78964232 154.0177656 19.82165565 154.70142839 17.1640625 154.88671875 C14.72546434 155.16321408 13.21897561 155.43795199 11.125 156.75 C9.75007178 159.76696033 8.94114976 162.67143713 8.20703125 165.90234375 C7.125 168.75 7.125 168.75 4.72265625 170.6171875 C0.92720184 172.27234807 -0.93466592 172.0407991 -4.875 170.75 C-10.38390602 165.60323979 -14.71601011 159.07906182 -19.125 153 C-20.3384841 151.33849962 -21.55202375 149.67703981 -22.765625 148.015625 C-23.29188477 147.29149414 -23.81814453 146.56736328 -24.36035156 145.82128906 C-25.84926629 143.78519098 -27.3573927 141.76477409 -28.875 139.75 C-32.86756825 141.08085608 -34.17184001 143.66099298 -36.4375 147 C-37.32630038 148.27471167 -38.21697579 149.5481177 -39.109375 150.8203125 C-39.56505859 151.47161133 -40.02074219 152.12291016 -40.49023438 152.79394531 C-42.66474226 155.86555271 -44.91022849 158.87906891 -47.1875 161.875 C-47.96738281 162.90882813 -48.74726563 163.94265625 -49.55078125 165.0078125 C-52.61652822 168.62487867 -55.13019108 171.42284833 -59.875 172.3125 C-64.09645322 171.52097752 -65.3209925 170.20136148 -67.875 166.75 C-68.28388795 165.04945937 -68.65650923 163.33994661 -69 161.625 C-69.55687635 158.97644196 -69.55687635 158.97644196 -70.875 156.75 C-73.65441601 155.40174325 -76.14040323 154.84036329 -79.18359375 154.34765625 C-82.35930286 153.64245524 -83.74044255 153.23464433 -85.875 150.75 C-87.08061244 147.64011923 -87.34317802 145.05354105 -86.875 141.75 C-84.98648793 138.03100277 -82.42835928 134.99290178 -79.75 131.8125 C-78.27646918 129.97830903 -76.80515367 128.14233639 -75.3359375 126.3046875 C-74.59053711 125.38526367 -73.84513672 124.46583984 -73.07714844 123.51855469 C-69.69354842 119.26467174 -66.52902056 114.86287059 -63.375 110.4375 C-62.81796387 109.66092041 -62.26092773 108.88434082 -61.68701172 108.08422852 C-60.41358114 106.30812797 -59.14382355 104.52939467 -57.875 102.75 C-59.26572455 99.76527508 -60.89475833 97.2435055 -62.88671875 94.625 C-63.77170044 93.4501001 -63.77170044 93.4501001 -64.67456055 92.25146484 C-65.29758057 91.42598145 -65.92060059 90.60049805 -66.5625 89.75 C-78.48814504 73.72866354 -86.70993038 59.33921879 -84.875 38.75 C-82.01535355 23.09547828 -73.75385908 10.25416911 -60.875 0.875 C-41.80016056 -11.67423648 -19.50139516 -11.60346536 0 0 Z " fill="#030303" transform="translate(285.875,122.25)"/>
<path d="M0 0 C2.5 1.5625 2.5 1.5625 4 4 C4 8.13566471 2.94238003 11.27392574 1.1875 14.9375 C-6.76752703 32.18796155 -7.53745494 51.20574394 -1 69 C7.62586674 89.9166095 22.4272838 102.30711253 42.66796875 111.16796875 C59.94917634 117.0199516 80.40074751 113.01075413 96.375 105.3125 C103.19157405 101.82708756 108.69633522 97.55011761 114 92 C114.63164062 91.38769531 115.26328125 90.77539062 115.9140625 90.14453125 C121.52159446 84.35172841 124.80975605 77.30899175 128 70 C128.41507813 69.04996094 128.83015625 68.09992188 129.2578125 67.12109375 C132.48403508 58.33859896 132.76297739 49.30766577 133.1418457 40.02441406 C133.56851127 31.75967613 133.56851127 31.75967613 135.84375 27.75390625 C138 26 138 26 141.5 25.4375 C145.57749148 26.09281113 146.52215891 26.78202456 149 30 C149.76641627 34.63097286 149.2906669 39.3279571 149 44 C148.94199219 45.10698242 148.94199219 45.10698242 148.8828125 46.23632812 C147.49910594 70.30875253 138.1627617 91.61481582 120.5625 108.3125 C100.4801233 125.22397511 77.36361117 130.63700162 51.60620117 128.83227539 C47.07677711 128.39802524 43.00265535 127.57709095 38.6875 126.0625 C37.20830078 125.55396484 37.20830078 125.55396484 35.69921875 125.03515625 C33.37178062 124.14257868 31.21601437 123.13178923 29 122 C29.01665459 122.85822105 29.01665459 122.85822105 29.03364563 123.73377991 C29.52069097 150.1365158 29.55477797 176.34014169 26.75 202.625 C26.64748932 203.63636017 26.54497864 204.64772034 26.43936157 205.68972778 C26.14398037 208.5385108 25.82090317 211.38237688 25.484375 214.2265625 C25.39562607 215.06264542 25.30687714 215.89872833 25.21543884 216.76014709 C24.73272946 220.47719207 24.3858027 222.50731176 22.03222656 225.51293945 C19.81322351 227.13667175 18.72386254 227.56782004 16 227.5625 C15.01 227.59537109 15.01 227.59537109 14 227.62890625 C10.80300114 226.62359997 9.71988043 224.80105807 8 222 C7.72265625 219.21484375 7.72265625 219.21484375 8.0625 215.9375 C8.18753906 214.62652344 8.31257813 213.31554687 8.44140625 211.96484375 C8.6262381 210.30974271 8.81261089 208.65481346 9 207 C9.23935623 204.77225065 9.47754705 202.54437592 9.71484375 200.31640625 C10.09891679 196.71490676 10.4870526 193.11428466 10.89477539 189.51538086 C12.66749346 173.67738232 13.3680285 157.87466101 13.56982422 141.94555664 C13.6068183 139.67729539 13.66171008 137.40926013 13.73388672 135.1418457 C13.83734504 131.82426615 13.88170435 128.51034927 13.9140625 125.19140625 C13.95737701 124.18606339 14.00069153 123.18072052 14.0453186 122.14491272 C14.03333083 117.66572465 13.87098071 115.04235894 10.93426514 111.52780151 C8.70188488 109.53209108 6.45125803 107.71704717 4 106 C2.65190412 119.48041817 1.51458165 132.96046631 0.58386421 146.47592163 C0.2253435 151.65643368 -0.14761831 156.83591964 -0.51757812 162.015625 C-0.98304265 168.54835441 -1.4442934 175.08131842 -1.89282227 181.61523438 C-2.25989572 186.95707391 -2.63967159 192.29787726 -3.02797127 197.63821411 C-3.1725997 199.66007552 -3.31251842 201.68227972 -3.44756889 203.70480347 C-3.63585094 206.51645286 -3.84031919 209.32648896 -4.04858398 212.13671875 C-4.10011124 212.96471985 -4.15163849 213.79272095 -4.20472717 214.64581299 C-4.59003572 219.5633851 -5.35390723 223.35390723 -9 227 C-10.9609375 227.203125 -10.9609375 227.203125 -13.375 227.25 C-14.56222656 227.28867187 -14.56222656 227.28867187 -15.7734375 227.328125 C-18.61011056 226.91008897 -19.29627105 226.28774366 -21 224 C-21.32249451 221.31330872 -21.32249451 221.31330872 -21.23999023 218.11254883 C-21.21258759 216.94760895 -21.18518494 215.78266907 -21.1569519 214.58242798 C-20.91729011 209.11214627 -20.58304336 203.65833215 -20.16015625 198.19921875 C-20.07374374 197.03800003 -19.98733124 195.87678131 -19.89830017 194.68037415 C-19.71645079 192.24922909 -19.53230939 189.81825446 -19.34594727 187.38745117 C-19.06191809 183.67990412 -18.7852536 179.97186243 -18.50976562 176.26367188 C-18.33115734 173.8879886 -18.15213532 171.51233639 -17.97265625 169.13671875 C-17.89032242 168.03760666 -17.80798859 166.93849457 -17.72315979 165.80607605 C-17.38482232 161.41420486 -17.03559844 157.03730573 -16.46826172 152.66845703 C-16.02076367 149.16266681 -15.74119821 145.69539706 -15.53515625 142.16796875 C-15.4582959 140.88720459 -15.38143555 139.60644043 -15.30224609 138.28686523 C-15.26315125 137.61807343 -15.2240564 136.94928162 -15.18377686 136.26022339 C-14.97602586 132.7095842 -14.76030382 129.15943904 -14.54296875 125.609375 C-14.47695465 124.53072426 -14.47695465 124.53072426 -14.40960693 123.43028259 C-13.89539235 115.14465942 -13.26617631 106.86804888 -12.60961914 98.5925293 C-11.55810521 87.24456744 -11.55810521 87.24456744 -14.8125 76.5 C-23.42787093 57.55985915 -23.50042272 35.69809137 -16.81347656 16.13769531 C-10.33346298 -0.89081577 -10.33346298 -0.89081577 0 0 Z " fill="#030302" transform="translate(100,285)"/>
<path d="M0 0 C47.19 0 94.38 0 143 0 C138.28553766 9.42892468 133.63302285 18.72985223 128.4375 27.875 C127.91220703 28.81601562 127.38691406 29.75703125 126.84570312 30.7265625 C116.96906651 48.18855251 106.09090471 61.43625071 86.38110352 67.50854492 C71.42575104 71.60058021 56.4286617 69.21812117 42.8125 61.9375 C30.96724607 54.46539426 24.10640045 44.8715102 17.56201172 32.86035156 C16.03132167 30.05735616 14.48061379 27.26643909 12.92430115 24.47763062 C9.64939254 18.60871222 6.38647875 12.73309502 3.1484375 6.84375 C2.23843994 5.19149414 2.23843994 5.19149414 1.31005859 3.50585938 C0 1 0 1 0 0 Z " fill="#FDF1DF" transform="translate(184,7)"/>
<path d="M0 0 C4.20614359 0.66412793 5.48032476 1.67856574 8.5625 4.5625 C10.15305637 6.79939553 11.56710999 8.95081624 12.9375 11.3125 C13.32325195 11.9715332 13.70900391 12.63056641 14.10644531 13.30957031 C23.13749591 29.08221442 29.00973049 45.8526169 30.64486694 64.014328 C30.72731734 64.91193696 30.80976773 65.80954592 30.89471662 66.73435515 C31.90345537 78.51748743 32.1446583 90.32760762 32.43212891 102.14575195 C32.50077104 104.74668995 32.5700492 107.34761123 32.63990784 109.94851685 C32.8072958 116.22272839 32.96714003 122.49710936 33.12436534 128.77158288 C33.30818542 136.09365001 33.5001598 143.415497 33.69250648 150.73734429 C34.03545069 163.800581 34.37182355 176.86397819 34.70410156 189.92749023 C35.02600173 202.58254237 35.3515604 215.23749248 35.68164062 227.89233398 C35.70202415 228.67384739 35.72240767 229.4553608 35.74340887 230.26055644 C35.82537241 233.40264844 35.90735188 236.54474004 35.98935477 239.68683102 C36.36217576 253.97476028 36.7321916 268.26276242 37.1015625 282.55078125 C37.12026809 283.27403769 37.13897368 283.99729413 37.1582461 284.74246743 C37.39187157 293.77674307 37.62419531 302.81105039 37.85427666 311.84541702 C37.91843071 314.35928541 37.98292622 316.87314511 38.04778862 319.38699532 C38.13624098 322.81842301 38.22340302 326.24988108 38.31021118 329.68135071 C38.33608358 330.67482476 38.36195598 331.66829881 38.38861239 332.69187814 C38.45419403 335.31532126 38.50982109 337.93877129 38.5625 340.5625 C38.58424372 341.33661047 38.60598745 342.11072095 38.62839007 342.90828931 C38.71149755 347.40805135 38.32003734 349.92255072 35.5625 353.5625 C33.7121801 355.4128199 31.13777918 354.85390132 28.66796875 354.98828125 C25.41127111 354.32969119 24.52852604 353.27217618 22.5625 350.5625 C21.87337546 347.01219083 21.84822801 343.46829053 21.78244019 339.85945129 C21.74742378 338.77310548 21.71240736 337.68675966 21.67632985 336.56749427 C21.56496096 332.9643013 21.48134657 329.36102053 21.39794922 325.75708008 C21.32533479 323.21633037 21.25110577 320.67562635 21.17533684 318.13496876 C20.98411696 311.5531778 20.81658645 304.97102025 20.65669537 298.38840151 C20.53964173 293.63407337 20.41209418 288.8800629 20.28397501 284.1260224 C19.94806287 271.62708581 19.65021305 259.1274116 19.3621254 246.62729454 C19.1906197 239.20334746 19.01062692 231.77961854 18.82907104 224.35591125 C18.79798252 223.08331898 18.766894 221.8107267 18.7348634 220.49957103 C18.67151219 217.90688218 18.6081435 215.31419376 18.5447576 212.72150576 C18.10879724 194.87512191 17.68030914 177.02860723 17.27200772 159.18157079 C17.01826865 148.1041219 16.75068231 137.02706424 16.47171104 125.95022231 C16.31694238 119.7852456 16.16835711 113.62026895 16.03546524 107.45477867 C15.91112458 101.68922153 15.77008867 95.92430522 15.61675262 90.15944862 C15.56387281 88.06314145 15.51688901 85.96667473 15.47665787 83.87008667 C14.96621804 57.70249056 9.25612127 35.17682095 -5.6484375 13.3203125 C-7.61687297 10.28599931 -8.16000886 9.0847307 -7.4375 5.5625 C-5.32804076 1.76547337 -4.33883176 0.70999065 0 0 Z " fill="#020202" transform="translate(472.4375,157.4375)"/>
<path d="M0 0 C2.875 1.3125 2.875 1.3125 5 4 C5.79376226 9.61947603 4.99516039 15.13096673 4.23120117 20.71459961 C2.9669623 33.21147403 4.69542797 45.59199088 6.27728271 57.97390747 C6.84543664 62.42475653 7.39219859 66.87817192 7.9407959 71.33146667 C8.22272438 73.61789972 8.5056854 75.90420569 8.78967285 78.19038391 C10.04591971 88.30770989 11.23022991 98.43201854 12.375 108.5625 C12.51760254 109.81930573 12.51760254 109.81930573 12.66308594 111.10150146 C14.14945585 124.21495064 15.58664483 137.33374903 17.01953125 150.453125 C17.19933857 152.0985059 17.37914815 153.74388656 17.55895996 155.38926697 C18.36727483 162.78820525 19.17444034 170.18726135 19.97634983 177.5868969 C20.31314696 180.69189788 20.65138017 183.79674148 20.98987389 186.90155792 C21.14696169 188.34562346 21.30341448 189.78975826 21.4591465 191.23397064 C22.37568738 199.73164419 23.39969909 208.20402804 24.5941925 216.66691589 C26.14041188 229.36672872 26.14041188 229.36672872 23.76171875 232.7734375 C21.53793354 234.32170481 20.19298517 234.40192985 17.5 234.375 C16.7265625 234.38273438 15.953125 234.39046875 15.15625 234.3984375 C12.41439994 233.89179129 11.71816877 233.17844571 10 231 C9.31624031 228.47201157 9.31624031 228.47201157 8.89553833 225.50579834 C8.66125814 223.89477863 8.66125814 223.89477863 8.42224503 222.25121307 C8.28290417 221.17831276 8.14356331 220.10541245 8 219 C7.81958475 217.61962933 7.81958475 217.61962933 7.63552475 216.21137238 C7.29310059 213.44534213 6.97825406 210.67741943 6.67138672 207.90722656 C6.55405182 206.87159576 6.43671692 205.83596497 6.31582642 204.76895142 C5.93410489 201.39317412 5.55685455 198.01691392 5.1796875 194.640625 C4.91378082 192.28119833 4.64759185 189.92180346 4.38113403 187.56243896 C3.68458671 181.38809047 2.99184649 175.21332071 2.29992676 169.03845215 C1.5915949 162.72329004 0.87962392 156.40853831 0.16796875 150.09375 C-1.22489484 137.72956325 -2.61373252 125.36492792 -4 113 C-4.16109253 114.25152863 -4.32218506 115.50305725 -4.48815918 116.79251099 C-4.57877373 117.49649584 -4.66938828 118.20048069 -4.76274872 118.92579842 C-5.09163464 121.80112834 -5.19917904 124.66255943 -5.28125 127.5546875 C-5.31863281 128.74707031 -5.35601562 129.93945312 -5.39453125 131.16796875 C-5.42933594 132.39128906 -5.46414063 133.61460937 -5.5 134.875 C-6.15302442 157.68248243 -6.15302442 157.68248243 -8.6875 161.625 C-11.79828269 163.47465457 -13.43603879 163.65460512 -17 163 C-20.34069537 160.37041696 -21.84194719 158.92486388 -22.56762695 154.6784668 C-22.54144287 153.44781494 -22.51525879 152.21716309 -22.48828125 150.94921875 C-22.48120651 150.29041214 -22.47413177 149.63160553 -22.46684265 148.95283508 C-22.43900979 146.86319966 -22.37630819 144.77631524 -22.3125 142.6875 C-22.28740205 141.26501286 -22.26459148 139.84248341 -22.24414062 138.41992188 C-22.18922446 134.94573139 -22.10303685 131.4731345 -22 128 C-22.91394531 128.49628906 -23.82789063 128.99257813 -24.76953125 129.50390625 C-28.76483114 131.35420837 -30.7985084 131.1891014 -35 130 C-37.5881216 127.74582958 -37.94242643 126.39479021 -38.4375 123 C-37.88502791 119.21161998 -36.91063762 118.42950112 -34 116 C-30.66391629 114.4925844 -27.30529456 113.09758775 -23.8984375 111.7578125 C-21.50371362 110.12617036 -21.04690949 109.19127605 -20.34660339 106.33573914 C-20.21184097 105.23969864 -20.07707855 104.14365814 -19.93823242 103.0144043 C-19.78102722 101.75366089 -19.62382202 100.49291748 -19.46185303 99.19396973 C-19.30518809 97.79628135 -19.15132163 96.39827696 -19 95 C-18.92252281 94.28890076 -18.84504562 93.57780151 -18.76522064 92.84515381 C-18.16476605 87.2379906 -17.62524275 81.62539973 -17.08984375 76.01171875 C-16.9160319 74.21479983 -16.74191817 72.41791009 -16.56752014 70.62104797 C-16.11307342 65.93136465 -15.66230059 61.24133593 -15.21246338 56.5512085 C-14.57709826 49.93396183 -13.93662323 43.3172074 -13.29676819 36.70039368 C-12.95712684 33.18797403 -12.61885032 29.6754273 -12.28172302 26.1627655 C-12.12654062 24.55081133 -11.97135388 22.93885757 -11.81616211 21.3269043 C-11.74809357 20.61449585 -11.68002502 19.9020874 -11.6098938 19.16809082 C-11.4787449 17.80851622 -11.34477475 16.4492103 -11.20774651 15.09021568 C-11.05815416 13.58511085 -10.91889817 12.07896577 -10.78622627 10.57227516 C-10.70974295 9.76953352 -10.63325962 8.96679188 -10.55445862 8.13972473 C-10.48858834 7.40927854 -10.42271807 6.67883234 -10.35485172 5.92625141 C-10 4 -10 4 -8.3125 1.4375 C-5.23312814 -0.47670413 -3.57100733 -0.5830216 0 0 Z " fill="#020202" transform="translate(408,278)"/>
<path d="M0 0 C14.78419674 19.71226232 19.99957545 44.50983773 16.62280273 68.70239258 C12.33485013 91.6480828 -0.9249644 110.55196789 -19.890625 124.05859375 C-33.61637864 132.90446262 -47.77234859 138.93142026 -64 141 C-65.41925781 141.19335938 -65.41925781 141.19335938 -66.8671875 141.390625 C-82.2075934 143.20662321 -97.19237994 141.07209552 -112 137 C-112 142.61 -112 148.22 -112 154 C-112.33 154 -112.66 154 -113 154 C-113 141.79 -113 129.58 -113 117 C-110.03 117.99 -107.06 118.98 -104 120 C-82.08271463 127.04484173 -58.01361647 123.49642141 -37.80078125 113.40234375 C-19.34574793 103.19779592 -7.81743041 89.24130206 0 70 C0.41121094 69.02675781 0.82242188 68.05351562 1.24609375 67.05078125 C5.90698639 54.80953574 7.75925831 38.01472815 6 25 C4.18154479 22.53509973 3.31891017 22.08158167 0.3125 21.3125 C-0.450625 21.209375 -1.21375 21.10625 -2 21 C-1.01 20.505 -1.01 20.505 0 20 C0 13.4 0 6.8 0 0 Z " fill="#FBE2C3" transform="translate(242,290)"/>
<path d="M0 0 C2.20935588 2.20935588 2.43299059 3.06578824 3.09350586 6.03016663 C3.28384903 6.87205504 3.4741922 7.71394346 3.67030334 8.58134365 C3.87062668 9.507198 4.07095001 10.43305235 4.27734375 11.38696289 C4.49349838 12.36324929 4.70965302 13.33953569 4.93235779 14.34540653 C7.38426794 25.54224684 9.61106235 36.78504729 11.82052612 48.03176689 C12.58391313 51.91759176 13.35114572 55.80264769 14.11938477 59.68751526 C15.61238509 67.24064394 17.10075812 74.7946805 18.58857727 82.34883118 C20.48157815 91.95902438 22.37683646 101.5687705 24.27611828 111.17772442 C25.15425189 115.62133752 26.02882356 120.0656426 26.90258789 124.51011658 C29.30604377 136.69792041 31.77782458 148.86177089 34.50547791 160.98179531 C34.80066063 162.30656431 34.80066063 162.30656431 35.10180664 163.65809631 C35.2758754 164.42812013 35.44994415 165.19814394 35.62928772 165.99150181 C36 168 36 168 36 171 C30.39 171 24.78 171 19 171 C15.86057506 146.92625299 13.05444143 122.82298114 10.4375 98.6875 C10.32438288 97.64468872 10.32438288 97.64468872 10.20898056 96.58081055 C9.61164543 91.07358393 9.01470646 85.56631426 8.41858482 80.05895615 C7.22534859 69.03587901 6.01067201 58.01557135 4.75 47 C4.63366714 45.98048248 4.63366714 45.98048248 4.51498413 44.94036865 C3.74904565 38.24251366 2.95119527 31.55006082 2.09375 24.86328125 C1.95098633 23.74888672 1.80822266 22.63449219 1.66113281 21.48632812 C1.40027727 19.47259771 1.13457828 17.45948403 0.86230469 15.44726562 C0.18080977 10.24486779 -0.1221778 5.24753635 0 0 Z " fill="#FCE3C4" transform="translate(414,334)"/>
<path d="M0 0 C0.99 0.495 0.99 0.495 2 1 C2.84122162 17.3882434 -3.58452402 28.28032636 -13.4375 40.875 C-14.87499212 42.73598019 -16.31116519 44.59797993 -17.74609375 46.4609375 C-18.46265137 47.3900293 -19.17920898 48.31912109 -19.91748047 49.27636719 C-23.00152048 53.3098432 -26.00420444 57.40078624 -29 61.5 C-33.94118983 68.25013185 -38.97375154 74.92297002 -44.0625 81.5625 C-51.22582651 90.91220589 -58.16202756 100.41044618 -65 110 C-65.70576172 109.36771484 -65.70576172 109.36771484 -66.42578125 108.72265625 C-67.04839844 108.17480469 -67.67101562 107.62695312 -68.3125 107.0625 C-68.92738281 106.51722656 -69.54226562 105.97195313 -70.17578125 105.41015625 C-72.05241958 103.79918441 -72.05241958 103.79918441 -75 103 C-74.38485225 99.52070861 -73.05602284 97.45280643 -70.89453125 94.68359375 C-70.24806641 93.84699219 -69.60160156 93.01039063 -68.93554688 92.1484375 C-68.23494141 91.25382812 -67.53433594 90.35921875 -66.8125 89.4375 C-65.33854225 87.5309534 -63.86591038 85.6233811 -62.39453125 83.71484375 C-61.28198975 82.27407471 -61.28198975 82.27407471 -60.14697266 80.80419922 C-57.03934218 76.74526771 -54.01535993 72.62768687 -51 68.5 C-46.07528136 61.77436209 -41.06643355 55.11950057 -36 48.5 C-30.26519845 41.00600187 -24.61441809 33.45736098 -19.03417969 25.84765625 C-14.6427089 19.86044015 -10.20209029 13.91194624 -5.72949219 7.98510742 C-3.75174481 5.35994065 -1.82376793 2.7356519 0 0 Z " fill="#F9BFE0" transform="translate(294,162)"/>
<path d="M0 0 C1 3 1 3 0.578125 5.0703125 C-2.36636805 19.99173 -0.4101027 37.27545405 6.25 50.8125 C9.73291016 58.55421615 9.19185189 65.10262237 8.28515625 73.27246094 C7.72733705 78.60803979 7.38678699 83.96232139 7 89.3125 C6.91169922 90.46967529 6.82339844 91.62685059 6.73242188 92.8190918 C6.14165212 100.6199876 5.67563057 108.41580155 5.4296875 116.2355957 C5.21967866 121.76920938 4.6724975 127.23718599 4.06640625 132.73828125 C2.88286948 143.53531413 2.14720716 154.35063727 1.4375 165.1875 C1.24888458 168.04481777 1.05916022 170.90204704 0.86671448 173.7591095 C0.74861186 175.51423386 0.63267576 177.26950601 0.51939392 179.02494812 C0.18285842 184.04778236 -0.32992291 189.01037631 -1 194 C-1.66 194 -2.32 194 -3 194 C-3.04669853 169.5742071 -3.08197832 145.14842088 -3.10362434 120.72259235 C-3.11394162 109.38153403 -3.12801061 98.04050342 -3.15087891 86.69946289 C-3.17079893 76.81585442 -3.18371315 66.93226603 -3.18817699 57.04863805 C-3.19078672 51.81422802 -3.19693014 46.57987542 -3.21146011 41.34548378 C-3.22502207 36.41997102 -3.22922543 31.49453943 -3.22621536 26.56900978 C-3.22676615 24.76020365 -3.23075183 22.95139483 -3.23841095 21.14260483 C-3.24835048 18.67446306 -3.24597251 16.20662838 -3.24050903 13.73847961 C-3.24633472 13.02154554 -3.2521604 12.30461147 -3.25816262 11.56595212 C-3.23334821 7.42304674 -3.09937474 3.09937474 0 0 Z " fill="#FBE3C3" transform="translate(80,310)"/>
<path d="M0 0 C4.1210918 0.5887274 5.02735349 1.2316206 7.5 4.5 C10.75751847 24.9172024 2.08872201 48.97658134 -9.5 65.5 C-13.77642718 69.51447146 -13.77642718 69.51447146 -17.625 69.4375 C-21.99189189 68.01351351 -21.99189189 68.01351351 -23.5 65.5 C-24.1860371 59.16612255 -22.32638363 55.53065538 -19.25 50.25 C-11.48764354 36.22124442 -8.47624795 23.35384509 -8.0390625 7.27734375 C-7.09382476 2.40731451 -4.7917573 0.68453676 0 0 Z " fill="#040403" transform="translate(128.5,202.5)"/>
<path d="M0 0 C3.5 1.25 3.5 1.25 5.5 4.25 C5.80948751 6.80851599 6.01339194 9.27979028 6.1328125 11.84765625 C6.17437469 12.59655624 6.21593689 13.34545624 6.25875854 14.11705017 C6.3452161 15.70467928 6.42730908 17.29255119 6.50537109 18.88061523 C6.62338701 21.27971029 6.75376767 23.67786286 6.88671875 26.07617188 C8.07457615 48.05296635 8.07457615 48.05296635 6 52.375 C2.97461826 54.64403631 1.18913955 54.8092009 -2.5 54.81640625 C-5.52545799 53.95958709 -6.64893381 52.79320398 -8.5 50.25 C-8.97579456 47.4409821 -9.19933125 45.00865315 -9.25 42.1875 C-9.27602295 41.37982178 -9.3020459 40.57214355 -9.32885742 39.73999023 C-9.37954859 37.93077018 -9.41881055 36.12120618 -9.44873047 34.31152344 C-9.48518184 32.13485596 -9.53509992 29.95839583 -9.59423828 27.78222656 C-9.69159578 24.12569401 -9.75670315 20.46988589 -9.8125 16.8125 C-9.85745605 15.04410767 -9.85745605 15.04410767 -9.90332031 13.23999023 C-9.91073242 12.13083252 -9.91814453 11.0216748 -9.92578125 9.87890625 C-9.94036377 8.88963135 -9.95494629 7.90035645 -9.9699707 6.88110352 C-9.36948871 3.51934018 -8.10862628 2.37666019 -5.5 0.25 C-3.5 -0.75 -3.5 -0.75 0 0 Z " fill="#010101" transform="translate(396.5,457.75)"/>
<path d="M0 0 C3.59159187 2.37366389 6.95183814 4.95183814 10 8 C9.91062197 9.52519276 9.75462854 11.04681929 9.5625 12.5625 C9.40974609 13.80193359 9.40974609 13.80193359 9.25390625 15.06640625 C9.17011719 15.70449219 9.08632813 16.34257812 9 17 C5.29753981 16.35492527 1.95016783 15.32885348 -1.5625 14 C-13.12391936 9.63841045 -26.3305443 8.9988047 -37.8359375 13.9296875 C-39.27040397 14.63915287 -40.6928604 15.37347493 -42.1015625 16.1328125 C-44 17 -44 17 -47 17 C-47.8098871 13.93740173 -48.28005845 11.16880951 -48 8 C-38.16532706 -6.5616609 -14.03842085 -6.92909217 0 0 Z " fill="#E896CA" transform="translate(275,133)"/>
<path d="M0 0 C1.02018654 0.97939748 2.02331786 1.97721361 3 3 C2.39526855 3.77077881 2.39526855 3.77077881 1.77832031 4.55712891 C-0.0666888 6.91134358 -1.90836471 9.26814531 -3.75 11.625 C-4.38421875 12.43324219 -5.0184375 13.24148437 -5.671875 14.07421875 C-8.35254412 17.50882606 -10.99460972 20.90383223 -13.328125 24.5859375 C-14.15570313 25.78089844 -14.15570313 25.78089844 -15 27 C-15.66 27 -16.32 27 -17 27 C-18.46459961 25.31933594 -18.46459961 25.31933594 -20.15234375 22.984375 C-20.76400391 22.14519531 -21.37566406 21.30601562 -22.00585938 20.44140625 C-22.64330078 19.55324219 -23.28074219 18.66507813 -23.9375 17.75 C-24.57107422 16.87730469 -25.20464844 16.00460938 -25.85742188 15.10546875 C-27.04330589 13.47191663 -28.22645129 11.83637052 -29.40600586 10.19824219 C-30.91619514 8.11557343 -32.45050118 6.05353154 -34 4 C-33.5 2.1875 -33.5 2.1875 -32 0 C-22.55638457 -5.08502369 -9.63057163 -4.59769922 0 0 Z " fill="#FAEEDB" transform="translate(272,161)"/>
<path d="M0 0 C4.54411022 4.22866542 8.06493816 8.97433673 11.6875 14 C16.80166953 21.07776274 16.80166953 21.07776274 22.171875 27.9609375 C22.64278564 28.54488281 23.11369629 29.12882812 23.59887695 29.73046875 C24.85576669 31.27458863 26.12853151 32.80574784 27.40234375 34.3359375 C29 37 29 37 28.9140625 39.61328125 C27.99659044 42.00890273 26.99205976 43.77961416 25.4375 45.8125 C24.98246094 46.41707031 24.52742188 47.02164063 24.05859375 47.64453125 C23.70925781 48.09183594 23.35992187 48.53914063 23 49 C19.93426749 47.66730467 18.19995757 46.3568633 16.1953125 43.69140625 C15.69692871 43.03205078 15.19854492 42.37269531 14.68505859 41.69335938 C14.17023926 40.99017578 13.65541992 40.28699219 13.125 39.5625 C12.59342285 38.84255859 12.0618457 38.12261719 11.51416016 37.38085938 C3.3899026 26.20969382 -2.13211202 16.1645643 -1 2 C-0.67 1.34 -0.34 0.68 0 0 Z " fill="#EAACD6" transform="translate(217,162)"/>
<path d="M0 0 C4.74294916 4.39899483 8.44280008 9.41182168 12.25 14.625 C12.88679688 15.48351562 13.52359375 16.34203125 14.1796875 17.2265625 C18.87205763 23.61617289 18.87205763 23.61617289 20 27 C18.88625 27.433125 17.7725 27.86625 16.625 28.3125 C12.82487666 29.69911119 12.82487666 29.69911119 11 33 C5.61662518 30.77407519 3.03398956 26.19054378 -0.3125 21.625 C-0.97056641 20.76132812 -1.62863281 19.89765625 -2.30664062 19.0078125 C-2.92345703 18.1725 -3.54027344 17.3371875 -4.17578125 16.4765625 C-5.02523315 15.3330835 -5.02523315 15.3330835 -5.8918457 14.16650391 C-7 12 -7 12 -6.76464844 9.85400391 C-5.799362 7.51352332 -4.49725987 5.74118281 -2.9375 3.75 C-2.38964844 3.04359375 -1.84179688 2.3371875 -1.27734375 1.609375 C-0.85582031 1.07828125 -0.43429687 0.5471875 0 0 Z " fill="#ECADD8" transform="translate(273,237)"/>
<path d="M0 0 C0.75539063 -0.01546875 1.51078125 -0.0309375 2.2890625 -0.046875 C6.18182098 -0.01965291 8.22508054 0.25869619 11.62890625 2.3125 C13.625 4.5 13.625 4.5 14.1875 8 C13.53294382 12.07279404 12.8293549 13.01608731 9.625 15.5 C3.31433829 16.55029349 -3.45957937 15.94332591 -9.375 13.5 C-11.70079101 10.01131349 -11.79365457 8.60281481 -11.375 4.5 C-9.0192693 -0.60870227 -5.00279422 -0.10140799 0 0 Z " fill="#040404" transform="translate(341.375,398.5)"/>
<path d="M0 0 C9.24079916 5.48159832 9.24079916 5.48159832 11 9 C11.54564863 13.09236475 11.35323174 14.53575256 8.8125 17.875 C5.62804206 20.28103489 4.85157926 20.53338197 1 20 C-1.82421875 18.35546875 -1.82421875 18.35546875 -4.6875 16.1875 C-6.11642578 15.12595703 -6.11642578 15.12595703 -7.57421875 14.04296875 C-10 12 -10 12 -12 9 C-11.8684799 5.31743715 -11.73329557 2.90251763 -9.375 0 C-5.92626782 -1.45209776 -3.41888341 -1.29172099 0 0 Z " fill="#060606" transform="translate(304,383)"/>
<path d="M0 0 C1.6875 1.5 1.6875 1.5 3 4 C3.54333984 4.99966797 3.54333984 4.99966797 4.09765625 6.01953125 C6.59250626 10.98385991 7.76779895 14.47562828 6 20 C4.375 22 4.375 22 2 23 C-4.03499611 22.78824575 -4.03499611 22.78824575 -6.578125 20.7109375 C-10.06278058 16.51786292 -11.77590539 11.51886346 -12.5625 6.1875 C-12 3 -12 3 -9.9375 0.5 C-6.08739354 -1.46601181 -4.10799908 -1.21718491 0 0 Z " fill="#080807" transform="translate(281,351)"/>
<path d="M0 0 C3.01511549 2.83775576 3.93097678 4.49509789 4.49609375 8.62890625 C4.47675781 9.92699219 4.45742188 11.22507812 4.4375 12.5625 C4.43621094 13.86316406 4.43492187 15.16382813 4.43359375 16.50390625 C3.98975179 20.08263195 3.64062059 21.58743301 1 24 C-4.47087379 24.7815534 -4.47087379 24.7815534 -7 24 C-10.03749008 21.18138003 -10.92721266 19.49720178 -11.53125 15.37109375 C-11.5209375 14.07300781 -11.510625 12.77492188 -11.5 11.4375 C-11.5103125 10.13683594 -11.520625 8.83617187 -11.53125 7.49609375 C-11 4 -11 4 -9.1875 1.5703125 C-5.96304092 -0.74438848 -3.86397883 -0.6209966 0 0 Z " fill="#050404" transform="translate(274,311)"/>
<path d="M0 0 C2.4375 1.375 2.4375 1.375 4 4 C4.74524166 8.62510803 4.86729658 12.54294174 2.4375 16.625 C-0.89465675 18.50467817 -3.23373911 18.41086482 -7 18 C-10 16 -10 16 -11 13 C-11.48289318 8.70145906 -11.72907776 5.19568752 -9.4375 1.4375 C-6.04481874 -0.56331202 -3.87285839 -0.55326548 0 0 Z " fill="#050504" transform="translate(153,337)"/>
</svg>
