<?xml version="1.0" encoding="UTF-8"?>
<svg version="1.1" xmlns="http://www.w3.org/2000/svg" width="512" height="512">
<path d="M0 0 C3.63999141 0.12085909 5.47227379 0.24630475 8.5 2.44140625 C10 4.62890625 10 4.62890625 10 7.62890625 C36.4 7.62890625 62.8 7.62890625 90 7.62890625 C90.33 6.30890625 90.66 4.98890625 91 3.62890625 C92.0625 1.87890625 92.0625 1.87890625 94 0.62890625 C99.57392317 -0.07889352 99.57392317 -0.07889352 102 0.62890625 C104.8119232 3.4228127 105.91957695 5.07855412 106.49829102 9.03881836 C106.50014404 10.3150708 106.50199707 11.59132324 106.50390625 12.90625 C106.5180381 13.93970299 106.5180381 13.93970299 106.53245544 14.99403381 C106.56099944 17.18513019 106.56418837 19.37513949 106.5625 21.56640625 C106.56612055 23.7539434 106.57579511 25.9406927 106.60325623 28.12806702 C106.6276348 30.11511669 106.62997549 32.10240072 106.63110352 34.08959961 C107.10621073 38.64792479 108.34176419 42.19963187 111.8671875 45.23828125 C118.19077479 49.24569767 118.19077479 49.24569767 125.3125 50.44140625 C127.57931117 49.75609125 129.68418442 48.95286342 131.875 48.06640625 C139.69170013 45.15145871 145.46350862 47.14104353 152.96484375 50.20703125 C159.07679677 53.07028852 162.35526318 56.28153788 165 62.62890625 C165.28786377 63.8523877 165.28786377 63.8523877 165.58154297 65.10058594 C167.71008605 68.89459492 171.03631813 69.69194183 174.9453125 71.08203125 C175.74798553 71.38655212 176.55065857 71.691073 177.37765503 72.00482178 C179.95389775 72.98046133 182.538178 73.93170767 185.125 74.87890625 C201.87511693 81.05203365 217.43361267 87.70903773 231 99.62890625 C231.80566406 100.29148437 232.61132812 100.9540625 233.44140625 101.63671875 C255.42179325 120.28048988 268.34827398 148.18074594 271 176.62890625 C271.17788802 179.73454892 271.22998199 182.8311081 271.25 185.94140625 C271.2809375 187.07932617 271.2809375 187.07932617 271.3125 188.24023438 C271.34471899 193.27042341 270.80321776 198.03621278 269.92109108 202.97398281 C268.22497821 212.57356845 267.58951158 221.85525454 267.65044022 231.59040642 C267.66453156 234.05064499 267.65754645 236.5101088 267.64559937 238.97035217 C267.61507881 245.94701087 267.61970639 252.9234626 267.63964844 259.90014648 C267.65054892 264.20812575 267.63744318 268.51550151 267.60975266 272.82339668 C267.60432285 274.4528726 267.6083486 276.08240935 267.62215042 277.71183586 C267.64115435 279.97515644 267.6298404 282.2364711 267.61181641 284.49975586 C267.61420319 285.78369736 267.61658997 287.06763885 267.61904907 288.39048767 C267 291.62890625 267 291.62890625 264.68832397 294.0783844 C262 295.62890625 262 295.62890625 258.375 295.56640625 C253.81643836 294.30013913 253.81643836 294.30013913 252 291.62890625 C252 290.96890625 252 290.30890625 252 289.62890625 C251.22914063 290.13421875 250.45828125 290.63953125 249.6640625 291.16015625 C248.66117187 291.80984375 247.65828125 292.45953125 246.625 293.12890625 C245.62726563 293.77859375 244.62953125 294.42828125 243.6015625 295.09765625 C241 296.62890625 241 296.62890625 239 296.62890625 C238.98582031 297.17675781 238.97164063 297.72460938 238.95703125 298.2890625 C237.82229765 317.15017502 227.65148262 335.98936217 215 349.62890625 C214.23042969 350.47839844 213.46085937 351.32789063 212.66796875 352.203125 C203.44571811 361.93192899 192.36373627 369.41774468 180 374.62890625 C179.34 374.62890625 178.68 374.62890625 178 374.62890625 C177.69461428 395.15082635 177.5075436 415.19583891 180.71582031 435.52124023 C181.30766906 439.91078509 181.72958797 443.94396249 179 447.62890625 C177.68 447.95890625 176.36 448.28890625 175 448.62890625 C176.98 454.56890625 178.96 460.50890625 181 466.62890625 C182.98 466.95890625 184.96 467.28890625 187 467.62890625 C189.74276442 469.64318385 190.79879573 472.02717782 192.0859375 475.12890625 C192.45726807 476.01118896 192.82859863 476.89347168 193.21118164 477.80249023 C193.5952417 478.73520752 193.97930176 479.6679248 194.375 480.62890625 C195.17195665 482.53696854 195.97012279 484.44452613 196.76953125 486.3515625 C197.15189941 487.26566895 197.53426758 488.17977539 197.92822266 489.12158203 C199.5593893 492.93754591 201.35953405 496.66757501 203.22265625 500.375 C204.21393286 503.24920405 204.22658144 505.60919363 204 508.62890625 C202.5 511.00390625 202.5 511.00390625 200 512.62890625 C197.21975517 513.1872341 194.7789661 513.19953584 192 512.62890625 C189.33864658 510.71819097 188.28153787 509.47351986 187.25 506.37890625 C187.1675 505.80140625 187.085 505.22390625 187 504.62890625 C186.34 504.95890625 185.68 505.28890625 185 505.62890625 C183.52186503 505.72291407 182.0395396 505.75445246 180.55841827 505.75474739 C179.14874511 505.75865901 179.14874511 505.75865901 177.7105937 505.76264966 C176.67111853 505.76041893 175.63164336 505.75818821 174.56066895 505.75588989 C173.46189564 505.75744988 172.36312234 505.75900987 171.23105288 505.76061714 C167.52446459 505.76462719 163.81791677 505.76143745 160.11132812 505.75830078 C157.46406432 505.75965482 154.81680336 505.76139839 152.16954041 505.76361084 C145.71077226 505.76806655 139.25201571 505.76709295 132.7932471 505.7641982 C127.54588467 505.76194339 122.2985255 505.76163198 117.05116272 505.76272202 C116.30543897 505.76287525 115.55971522 505.76302848 114.79139379 505.76318636 C113.27665532 505.76350607 111.76191685 505.76383028 110.24717838 505.76415895 C96.0304491 505.76701316 81.81372626 505.76372764 67.59699804 505.75835858 C55.38806708 505.7538906 43.17914563 505.75466655 30.97021484 505.75927734 C16.80570872 505.76462414 2.64120825 505.76673847 -11.52329874 505.76366508 C-13.03258673 505.76334652 -14.54187473 505.76303215 -16.05116272 505.76272202 C-16.79383698 505.76256774 -17.53651124 505.76241346 -18.30169079 505.76225451 C-23.54511762 505.76138968 -28.78854088 505.76285152 -34.03196716 505.76520157 C-40.41854851 505.76800094 -46.80511755 505.7672584 -53.19169748 505.76192082 C-56.45264634 505.75928567 -59.71357033 505.75881042 -62.97451973 505.76156998 C-66.50325695 505.76428186 -70.03193551 505.76089984 -73.56066895 505.75588989 C-74.60014411 505.75812061 -75.63961928 505.76035134 -76.7105937 505.76264966 C-77.65037581 505.76004191 -78.59015792 505.75743416 -79.55841827 505.75474739 C-80.78139012 505.75450386 -80.78139012 505.75450386 -82.02906847 505.75425541 C-84 505.62890625 -84 505.62890625 -86 504.62890625 C-86.268125 505.39203125 -86.53625 506.15515625 -86.8125 506.94140625 C-88.67491927 511.15635512 -88.67491927 511.15635512 -91 512.62890625 C-95.35125111 513.1123786 -97.75103555 513.32954484 -101.5625 511.19140625 C-103.75721857 507.27908185 -102.94725753 503.91487899 -102 499.62890625 C-100.73595106 496.37574121 -99.12670826 493.33854196 -97.5 490.25390625 C-82.08260421 459.41353068 -76.53410017 427.07963002 -76.875 392.94140625 C-76.88507191 391.14909367 -76.89419016 389.35677546 -76.90234375 387.56445312 C-76.92397331 383.2524604 -76.95825902 378.94074922 -77 374.62890625 C-78.08265137 374.33483887 -79.16530273 374.04077148 -80.28076172 373.73779297 C-84.25180769 372.55383007 -87.60299847 370.88181144 -91.125 368.75390625 C-91.77025635 368.36460937 -92.4155127 367.9753125 -93.08032227 367.57421875 C-100.18930965 363.11750081 -106.14648628 357.6023436 -112 351.62890625 C-113.15822266 350.45134766 -113.15822266 350.45134766 -114.33984375 349.25 C-126.39465027 336.31595615 -137.58084887 316.36626001 -138.09765625 298.1953125 C-138.06542969 297.34839844 -138.03320312 296.50148438 -138 295.62890625 C-139.2684375 295.25765625 -139.2684375 295.25765625 -140.5625 294.87890625 C-144.38427474 293.48916998 -147.51868063 291.71769787 -151 289.62890625 C-151.2475 290.24765625 -151.495 290.86640625 -151.75 291.50390625 C-153.2908453 294.12334326 -154.08980346 294.76371268 -157 295.62890625 C-162.9564595 295.31540838 -162.9564595 295.31540838 -165.6907959 293.51660156 C-167.70368541 290.61428703 -167.37917623 288.11246259 -167.38476562 284.61328125 C-167.39282478 283.54649643 -167.39282478 283.54649643 -167.40104675 282.4581604 C-167.41083449 280.9113232 -167.41376588 279.36443103 -167.41069031 277.81756592 C-167.40619788 275.35028298 -167.42026188 272.88371231 -167.43908691 270.41650391 C-167.4759066 265.15398338 -167.4895368 259.89153644 -167.5 254.62890625 C-167.51217027 248.57930258 -167.5343969 242.53004247 -167.58000183 236.48059082 C-167.59330405 234.08424316 -167.58944612 231.68836046 -167.58459473 229.29199219 C-167.62053829 219.55428179 -168.61612862 210.27346847 -170.31912231 200.68580627 C-171.14969569 195.9727179 -171.46699581 191.34965635 -171.375 186.56640625 C-171.36557373 185.74825439 -171.35614746 184.93010254 -171.34643555 184.0871582 C-170.60187906 153.26963891 -157.36277987 124.74554186 -135.578125 103.12939453 C-121.18603083 89.44532727 -103.44340969 81.59813413 -85.125 74.62890625 C-83.38367496 73.95686717 -81.64278688 73.28369476 -79.90234375 72.609375 C-77.47304171 71.66829905 -75.04325939 70.72886124 -72.6098938 69.79833984 C-68.7513131 68.33828343 -68.7513131 68.33828343 -65 66.62890625 C-64.566875 65.41203125 -64.13375 64.19515625 -63.6875 62.94140625 C-61.15269002 56.01704729 -58.04228219 52.89453377 -51.4375 49.81640625 C-44.42305572 46.81021584 -38.21938635 45.23882394 -30.8125 48.06640625 C-30.17957031 48.33324219 -29.54664063 48.60007813 -28.89453125 48.875 C-28.26933594 49.12378906 -27.64414063 49.37257812 -27 49.62890625 C-26.38640625 49.8815625 -25.7728125 50.13421875 -25.140625 50.39453125 C-21.86981892 50.7526487 -19.83000885 49.42171128 -16.9375 47.94140625 C-15.37322266 47.16216797 -15.37322266 47.16216797 -13.77734375 46.3671875 C-9.93708977 43.96365301 -8.42104792 41.89205002 -7 37.62890625 C-6.89486882 35.25811679 -6.84477023 32.88474906 -6.82421875 30.51171875 C-6.80102053 29.08592274 -6.77690319 27.66014143 -6.75195312 26.234375 C-6.716861 23.99387754 -6.6875001 21.75392232 -6.67407227 19.51318359 C-6.65855033 17.34536668 -6.61832309 15.17911843 -6.57421875 13.01171875 C-6.55963623 11.71637207 -6.54505371 10.42102539 -6.5300293 9.08642578 C-5.87853799 4.83657784 -4.34416885 1.36603747 0 0 Z " fill="#030202" transform="translate(206,-0.62890625)"/>
<path d="M0 0 C26.4 0 52.8 0 80 0 C80.33 10.23 80.66 20.46 81 31 C86.07720729 44.96232006 89.98909115 49.57692472 102.6953125 55.5546875 C105.44645034 56.75790381 108.20941808 57.89315433 111 59 C111.13575439 60.28165039 111.27150879 61.56330078 111.41137695 62.88378906 C111.91866691 67.64124624 112.44254346 72.39675543 112.97143555 77.15185547 C113.19796914 79.20963022 113.42000923 81.26790485 113.63745117 83.32666016 C113.95089823 86.28691416 114.28049505 89.24499052 114.61328125 92.203125 C114.70716629 93.12305237 114.80105133 94.04297974 114.89778137 94.99078369 C115.47223033 101.14611815 115.47223033 101.14611815 119 106 C123.60020796 106.6220664 123.60020796 106.6220664 127.70117188 104.81005859 C132.16012585 98.59602011 128.47668266 85.51974165 127.5 78.375 C125.42449478 63.07983537 125.42449478 63.07983537 126 56 C126.33 55.67 126.66 55.34 127 55 C131.96139266 55.38912884 135.82738243 56.24766484 140 59 C140.95751953 62.03369141 140.95751953 62.03369141 141.2578125 65.7265625 C141.38822093 67.0888792 141.51875852 68.45118354 141.64941406 69.81347656 C141.70601196 70.51041626 141.76260986 71.20735596 141.82092285 71.92541504 C142.0980917 75.13637929 142.52103331 78.32690932 142.9296875 81.5234375 C143.16410422 83.46497397 143.39850028 85.40651322 143.63162231 87.34820557 C143.88426291 89.45213945 144.13816566 91.55591812 144.39233398 93.65966797 C145.10505749 99.56129879 145.81524991 105.46323358 146.52490234 111.36523438 C146.65353165 112.43449661 146.65353165 112.43449661 146.78475952 113.52536011 C146.95643734 114.95253218 147.12800775 116.37971718 147.29946899 117.80691528 C147.71919904 121.29559821 148.14270896 124.78374927 148.57421875 128.27099609 C149.33946804 134.4650368 150.0791517 140.65744963 150.70703125 146.8671875 C150.82103271 147.91245605 150.93503418 148.95772461 151.05249023 150.03466797 C151.25806825 151.92486522 151.44570873 153.81716039 151.60961914 155.71142578 C152.37589793 162.4466471 154.91686409 166.67457552 159 172 C159.55091309 172.74991211 160.10182617 173.49982422 160.66943359 174.27246094 C162.42635794 176.6556008 164.21001901 179.01660621 166 181.375 C167.33269104 183.14142949 168.66470639 184.90836895 169.99609375 186.67578125 C170.66495605 187.56346191 171.33381836 188.45114258 172.02294922 189.36572266 C175.64440485 194.19105067 179.22233048 199.04836643 182.78564453 203.91674805 C185.72162616 207.92538038 188.68405336 211.9079972 191.70703125 215.8515625 C206.29653546 234.99197429 214.26006411 251.98390167 214.4375 276.375 C214.45296875 278.15825684 214.45296875 278.15825684 214.46875 279.97753906 C214.39651491 287.13483278 213.51803789 293.2871508 211 300 C210.34 300 209.68 300 209 300 C208.77054687 300.70640625 208.54109375 301.4128125 208.3046875 302.140625 C201.32258006 317.44272874 182.08712035 329.00200925 166.86865234 334.81396484 C146.99279569 341.77923804 125.07421945 342.80498057 105 336 C103.32046591 335.45005211 101.64076786 334.90060477 99.9609375 334.3515625 C96.37144358 333.1673827 92.78962748 331.96249415 89.2109375 330.74609375 C84.39463969 329.11896611 79.55816715 327.58102148 74.6875 326.125 C74.02500244 325.92205322 73.36250488 325.71910645 72.67993164 325.51000977 C68.11550733 324.16630181 63.71456417 323.49186352 59 323 C59.36949915 320.4461088 59.62829661 319.30048919 61.671875 317.6484375 C62.35765625 317.22820312 63.0434375 316.80796875 63.75 316.375 C69.37954734 312.364145 72.17165337 306.91126025 73.59667969 300.18261719 C73.98247206 297.18639772 74.25904431 294.19873746 74.5 291.1875 C79.25326442 244.33735804 100.96389615 204.00227189 134.5390625 171.5234375 C136.90082281 169.06063932 137.00058524 168.12714343 136.984375 164.60546875 C136.57799522 155.90593125 135.80581497 147.26179774 134.6875 138.625 C134.58211914 137.7280542 134.47673828 136.8311084 134.36816406 135.90698242 C133.82569986 132.01795997 133.45727108 129.60297469 131.05078125 126.4296875 C129.05999193 124.83870738 129.05999193 124.83870738 126.5 124.5 C123.11975927 125.17604815 122.07999337 126.26502999 120 129 C119.65834925 132.36143173 119.65834925 132.36143173 120.125 136.125 C120.19956421 137.17083252 120.19956421 137.17083252 120.27563477 138.23779297 C120.58064099 142.10292103 121.13784122 145.78683015 122.01953125 149.5625 C124.38242617 160.58777005 124.38242617 160.58777005 121.89355469 164.93066406 C118.66667478 168.87416001 114.76939392 172.062406 110.87890625 175.32763672 C108.00157424 177.88867158 105.6514783 180.76250338 103.3125 183.8125 C102.87212402 184.38621338 102.43174805 184.95992676 101.97802734 185.55102539 C79.87172444 214.96791433 64.73400759 249.21723868 61 286 C60.34 286 59.68 286 59 286 C57.71538825 283.88237397 56.44775939 281.75706754 55.1875 279.625 C54.83107422 279.04105469 54.47464844 278.45710938 54.10742188 277.85546875 C49.21749156 269.511184 47.44950235 261.2395872 47.5625 251.625 C47.57079834 250.7067041 47.57909668 249.7884082 47.58764648 248.84228516 C47.94826577 234.31227952 53.68633595 222.97308758 64.13305664 212.99389648 C65.31208469 211.89526759 66.511404 210.8179167 67.73217773 209.76586914 C70.93708036 206.85680441 70.93708036 206.85680441 72.4128418 202.89819336 C72.45690205 199.96205806 72.29367209 197.57006936 70.9375 194.9375 C67.68741562 193.36487852 65.44784954 194.13539085 62 195 C59.34823063 196.83015618 57.20619242 199.0372681 55 201.375 C54.3905957 201.99971191 53.78119141 202.62442383 53.15332031 203.26806641 C48.78500584 207.8619252 45.33290593 212.5437198 42.234375 218.0859375 C41.82703125 218.71757812 41.4196875 219.34921875 41 220 C40.34 220 39.68 220 39 220 C38.02791958 218.49266011 37.12526148 216.94054502 36.25 215.375 C33.0099818 210.14740761 29.29202044 205.77483163 25 201.375 C24.41895508 200.75931152 23.83791016 200.14362305 23.23925781 199.50927734 C20.21066898 196.48664026 18.44303679 195.12037053 14.21875 193.97265625 C10.87368187 193.66318333 10.87368187 193.66318333 8.5 196.0625 C6.60608247 199.77142183 6.7950293 201.04150188 8 205 C9.97205683 207.20372283 11.87525936 209.10407183 14.0625 211.0625 C24.13577728 220.61512667 31.68675762 231.89225572 32.43359375 246.1484375 C32.45675735 247.89047149 32.4576554 249.63292861 32.4375 251.375 C32.43065186 252.2918457 32.42380371 253.20869141 32.41674805 254.15332031 C32.16853188 264.66578609 29.1709515 274.37227471 23 283 C22.01 283.66 21.02 284.32 20 285 C19.86948242 284.32122803 19.73896484 283.64245605 19.60449219 282.94311523 C16.30437726 265.87181143 12.97263868 249.49016595 6.5 233.3125 C6.12004883 232.35448486 5.74009766 231.39646973 5.34863281 230.40942383 C2.79341115 223.90387805 2.79341115 223.90387805 -2 219 C-7.05692899 219.14281508 -7.05692899 219.14281508 -11 222 C-11.73268501 228.23578653 -9.79128064 232.55172733 -7.25 238.0625 C-3.78925753 245.92032319 -1.10567005 253.66307105 1 262 C1.33644531 263.17949219 1.67289062 264.35898437 2.01953125 265.57421875 C4.56066634 274.83460993 5.90776641 284.02055477 6.87329102 293.57568359 C7.76835317 301.89158726 9.22184265 310.33376509 16 316 C19.57336696 318.19744428 23.23986187 320.14297907 27 322 C27 322.33 27 322.66 27 323 C26.04367676 323.22929199 25.08735352 323.45858398 24.10205078 323.69482422 C13.91549076 326.17034305 3.8931972 329.04440436 -6.125 332.125 C-7.59103957 332.57196328 -9.05718519 333.01857887 -10.5234375 333.46484375 C-17.90020417 335.70236953 -17.90020417 335.70236953 -25.22509766 338.10205078 C-39.6768042 342.77857521 -61.02775771 342.12676823 -74.68359375 335.74609375 C-89.48673464 327.67365288 -97.38063929 311.01099561 -102.0703125 295.421875 C-102.37710938 294.29265625 -102.68390625 293.1634375 -103 292 C-103.36738281 290.70835937 -103.36738281 290.70835937 -103.7421875 289.390625 C-109.00709398 266.74431495 -103.86226397 242.6348809 -92 223 C-88.10806639 216.87753634 -83.88579418 211.01010163 -79.5625 205.1875 C-78.96920898 204.38505859 -78.37591797 203.58261719 -77.76464844 202.75585938 C-72.47692951 195.61536791 -67.14611186 188.5070412 -61.79907227 181.41088867 C-61.20022217 180.61529541 -60.60137207 179.81970215 -59.984375 179 C-59.45553711 178.29875 -58.92669922 177.5975 -58.38183594 176.875 C-57.20851205 175.28292801 -56.09704248 173.64556372 -55 172 C-51.14982389 173.58536663 -48.45910657 176.15871651 -45.5625 179.0625 C-45.04896973 179.57401611 -44.53543945 180.08553223 -44.00634766 180.61254883 C-38.90129549 185.84765131 -34.52195924 191.59495167 -30.18969727 197.47485352 C-29.41130493 198.52950806 -29.41130493 198.52950806 -28.6171875 199.60546875 C-28.15940918 200.23606201 -27.70163086 200.86665527 -27.22998047 201.51635742 C-26.04943519 203.14326181 -26.04943519 203.14326181 -24 204 C-20.62177584 204.14375422 -18.22609045 204.07536348 -15 203 C-14.1534397 198.00529421 -14.1982262 195.33799195 -16.83984375 190.9296875 C-19.38248519 187.47001057 -22.16066532 184.21785002 -25 181 C-25.48065918 180.45311523 -25.96131836 179.90623047 -26.45654297 179.34277344 C-31.71828154 173.21174337 -31.71828154 173.21174337 -37.58850098 167.71299744 C-39.32971129 166.23921465 -40.70086974 164.87990696 -42 163 C-42.16855192 159.82024849 -42.05137887 157.67203951 -41.484375 154.625 C-41.24345967 153.01051813 -41.00323795 151.39593263 -40.76367188 149.78125 C-40.56680786 148.57275391 -40.56680786 148.57275391 -40.3659668 147.33984375 C-39.83476075 143.94352705 -39.48993036 140.54506443 -39.140625 137.125 C-38.68260099 132.9166619 -38.21869426 128.70937965 -37.73510742 124.50390625 C-37.55107255 122.89846007 -37.36724067 121.29299061 -37.18359375 119.6875 C-37.08922531 118.86306396 -36.99485687 118.03862793 -36.89762878 117.18920898 C-36.21965674 111.17636508 -35.62397858 105.15827561 -35.0541687 99.13427734 C-34.61357008 94.55331714 -34.13800276 89.97632577 -33.65734863 85.39941406 C-33.42812821 83.13982807 -33.21391818 80.87866718 -33.01501465 78.61621094 C-32.73245603 75.42634405 -32.39747842 72.24594491 -32.05078125 69.0625 C-31.97867935 68.1036792 -31.90657745 67.1448584 -31.83229065 66.15698242 C-31.50993199 63.48011978 -31.18445927 61.42467055 -30 59 C-27.1785146 56.97607043 -24.3061722 55.98188968 -21 55 C-12.87368513 51.24188442 -6.44869141 46.33087638 -3.125 37.75 C0.9294142 24.23528601 -0.61997633 18.59928979 0 0 Z " fill="#FDE4C1" transform="translate(216,7)"/>
<path d="M0 0 C6.71476513 2.30030324 13.48081181 4.37781613 20.32617188 6.25341797 C22.09224218 6.73767772 23.85301794 7.24113342 25.61328125 7.74609375 C39.62800233 11.3161945 54.95641729 10.50267859 69.22265625 8.7734375 C69.22265625 13.7234375 69.22265625 18.6734375 69.22265625 23.7734375 C62.62182264 25.05931418 56.25555177 26.02922273 49.53515625 26.33203125 C46.77688171 26.85852622 45.85152428 27.50878549 44.22265625 29.7734375 C43.65715802 34.35582858 43.65715802 34.35582858 45.36328125 38.4765625 C48.05441832 40.35357407 50.09753886 40.10027243 53.34765625 40.0234375 C54.96027344 40.00023437 54.96027344 40.00023437 56.60546875 39.9765625 C60.8353395 39.73903196 65.01832708 39.28456601 69.22265625 38.7734375 C69.26753174 39.36656738 69.31240723 39.95969727 69.35864258 40.57080078 C70.32788494 57.93255919 70.32788494 57.93255919 74.22265625 74.7734375 C77.34050738 77.12699089 77.34050738 77.12699089 82.22265625 77.7734375 C84.20265625 83.7134375 86.18265625 89.6534375 88.22265625 95.7734375 C90.20265625 96.1034375 92.18265625 96.4334375 94.22265625 96.7734375 C96.96542067 98.7877151 98.02145198 101.17170907 99.30859375 104.2734375 C99.67992432 105.15572021 100.05125488 106.03800293 100.43383789 106.94702148 C100.81789795 107.87973877 101.20195801 108.81245605 101.59765625 109.7734375 C102.3946129 111.68149979 103.19277904 113.58905738 103.9921875 115.49609375 C104.37455566 116.4102002 104.75692383 117.32430664 105.15087891 118.26611328 C106.78204555 122.08207716 108.5821903 125.81210626 110.4453125 129.51953125 C111.43658911 132.3937353 111.44923769 134.75372488 111.22265625 137.7734375 C109.72265625 140.1484375 109.72265625 140.1484375 107.22265625 141.7734375 C104.44241142 142.33176535 102.00162235 142.34406709 99.22265625 141.7734375 C96.56130283 139.86272222 95.50419412 138.61805111 94.47265625 135.5234375 C94.39015625 134.9459375 94.30765625 134.3684375 94.22265625 133.7734375 C93.56265625 134.1034375 92.90265625 134.4334375 92.22265625 134.7734375 C90.74452128 134.86744532 89.26219585 134.89898371 87.78107452 134.89927864 C86.37140136 134.90319026 86.37140136 134.90319026 84.93324995 134.90718091 C83.89377478 134.90495018 82.85429961 134.90271946 81.7833252 134.90042114 C80.68455189 134.90198113 79.58577859 134.90354112 78.45370913 134.90514839 C74.74712084 134.90915844 71.04057302 134.9059687 67.33398438 134.90283203 C64.68672057 134.90418607 62.03945961 134.90592964 59.39219666 134.90814209 C52.93342851 134.9125978 46.47467196 134.9116242 40.01590335 134.90872945 C34.76854092 134.90647464 29.52118175 134.90616323 24.27381897 134.90725327 C23.15523335 134.90748311 23.15523335 134.90748311 22.01405004 134.90771761 C20.49931157 134.90803732 18.9845731 134.90836153 17.46983463 134.9086902 C3.25310535 134.91154441 -10.96361749 134.90825889 -25.18034571 134.90288983 C-37.38927667 134.89842185 -49.59819812 134.8991978 -61.80712891 134.90380859 C-75.97163503 134.90915539 -90.1361355 134.91126972 -104.30064249 134.90819633 C-105.80993048 134.90787777 -107.31921848 134.9075634 -108.82850647 134.90725327 C-109.57118073 134.90709899 -110.31385499 134.90694471 -111.07903454 134.90678576 C-116.32246137 134.90592093 -121.56588463 134.90738277 -126.80931091 134.90973282 C-133.19589226 134.91253219 -139.5824613 134.91178965 -145.96904123 134.90645207 C-149.22999009 134.90381692 -152.49091408 134.90334167 -155.75186348 134.90610123 C-159.2806007 134.90881311 -162.80927926 134.90543109 -166.3380127 134.90042114 C-167.37748786 134.90265186 -168.41696303 134.90488259 -169.48793745 134.90718091 C-170.42771956 134.90457316 -171.36750167 134.90196541 -172.33576202 134.89927864 C-173.55873387 134.89903511 -173.55873387 134.89903511 -174.80641222 134.89878666 C-176.77734375 134.7734375 -176.77734375 134.7734375 -178.77734375 133.7734375 C-177.30965788 128.97305058 -175.38272361 124.43451194 -173.40087891 119.83154297 C-162.01614139 93.27563569 -156.01267622 67.5386369 -153.77734375 38.7734375 C-152.25173828 39.01126953 -152.25173828 39.01126953 -150.6953125 39.25390625 C-147.12849538 39.72687402 -143.6846621 40.00510726 -140.08984375 40.0859375 C-138.99285156 40.12332031 -137.89585937 40.16070312 -136.765625 40.19921875 C-133.10218374 39.67723823 -131.97813927 38.69382488 -129.77734375 35.7734375 C-129.11054007 32.73064378 -129.11054007 32.73064378 -129.77734375 29.7734375 C-133.34985533 25.73111617 -138.43375119 26.0294111 -143.46484375 25.6484375 C-145.19822721 25.50367141 -146.93132468 25.35542424 -148.6640625 25.203125 C-149.42936279 25.14366699 -150.19466309 25.08420898 -150.9831543 25.02294922 C-152.77734375 24.7734375 -152.77734375 24.7734375 -153.77734375 23.7734375 C-153.85047942 21.24294348 -153.86981902 18.74038913 -153.83984375 16.2109375 C-153.83533203 15.50001953 -153.83082031 14.78910156 -153.82617188 14.05664062 C-153.81435239 12.29553737 -153.79641638 10.53447714 -153.77734375 8.7734375 C-152.49214844 8.93457031 -151.20695312 9.09570312 -149.8828125 9.26171875 C-144.94030269 9.8074522 -140.05923725 9.95700913 -135.08984375 9.9609375 C-133.89584961 9.97930664 -133.89584961 9.97930664 -132.67773438 9.99804688 C-116.80309347 10.03563482 -102.68293679 5.54397356 -87.71484375 0.7734375 C-56.38347567 -9.19484202 -31.42725743 -10.79697214 0 0 Z " fill="#FEE4C1" transform="translate(298.77734375,370.2265625)"/>
<path d="M0 0 C1 1 1 1 1.13885498 2.88154602 C1.13051277 9.48346362 0.59788156 15.92696183 -0.171875 22.48046875 C-0.29434097 23.55953491 -0.41680695 24.63860107 -0.54298401 25.75036621 C-0.93968736 29.23008328 -1.34469056 32.70877583 -1.75 36.1875 C-2.0252846 38.5889141 -2.30026692 40.99036286 -2.57495117 43.3918457 C-4.04489762 56.17252512 -5.60484374 68.9365633 -7.3125 81.6875 C-8.37463567 89.67646818 -9.36283203 97.64209178 -9.875 105.6875 C-9.92438721 106.39543701 -9.97377441 107.10337402 -10.0246582 107.83276367 C-10.20269132 111.54421405 -9.77906492 113.77834357 -8 117 C-15.85673542 127.70523707 -23.74864076 138.38143329 -31.76000977 148.97167969 C-40.78020478 160.87891457 -40.78020478 160.87891457 -48.1875 173.8125 C-48.52281738 174.4919165 -48.85813477 175.17133301 -49.20361328 175.87133789 C-52.16954769 182.04784217 -54.33951587 188.34984327 -56 195 C-56.17587646 195.66193359 -56.35175293 196.32386719 -56.53295898 197.00585938 C-58.00202865 202.91610499 -58.3499442 208.54780619 -58.3125 214.625 C-58.30686035 215.58994385 -58.3012207 216.5548877 -58.29541016 217.54907227 C-57.97231432 236.754081 -51.6845882 253.27551171 -41 269 C-40.58105469 269.63679688 -40.16210938 270.27359375 -39.73046875 270.9296875 C-34.67195235 277.82928937 -26.01496132 281.74687862 -17.8671875 283.53515625 C-12.57228589 284.17161412 -7.32964833 284.28385918 -2 284.3125 C-1.00339355 284.31813965 -0.00678711 284.3237793 1.02001953 284.32958984 C12.52269554 284.21838914 22.89013152 281.9842325 33.75 278.3125 C46.08571652 274.24786497 58.51174909 270.56469603 71 267 C70.31800537 266.60893066 69.63601074 266.21786133 68.93334961 265.81494141 C68.03624268 265.29077637 67.13913574 264.76661133 66.21484375 264.2265625 C65.32659912 263.71174316 64.43835449 263.19692383 63.52319336 262.66650391 C56.90446192 258.2950031 54.28710159 252.39042108 52.6328125 244.83203125 C51.98617045 240.91625438 51.49868704 237.00465825 51.03515625 233.06396484 C48.60787015 212.54453359 43.28174731 192.56349461 34 174 C33.625 170.625 33.625 170.625 34 167 C36.0625 164.5 36.0625 164.5 39 163 C42.5625 162.875 42.5625 162.875 46 164 C59.4185432 180.86748602 63.65772588 208.17911598 67 229 C76.75727337 214.68400054 79.36929153 199.38792444 76.3515625 182.3359375 C72.83980455 170.96024295 66.05840651 162.44737013 57.35571289 154.59008789 C54.59257631 152.01546703 53.15896347 150.50030363 51.9921875 146.828125 C52 144 52 144 54 140.5625 C57 138 57 138 60.21484375 137.90234375 C65.3687254 139.39691624 67.94392033 142.15920662 71.5625 146 C72.54875366 147.01743286 72.54875366 147.01743286 73.55493164 148.05541992 C85 160.06995162 85 160.06995162 85 165 C85.66 165 86.32 165 87 165 C87.27070313 164.25878906 87.54140625 163.51757812 87.8203125 162.75390625 C90.8555998 155.668219 96.72973301 150.01656425 102 144.5 C102.72872314 143.70710571 102.72872314 143.70710571 103.47216797 142.89819336 C107.0977555 139.20676294 109.84841828 138.10438247 115 138 C117.4375 139.4375 117.4375 139.4375 119 142 C119.84231657 148.72460999 119.84231657 148.72460999 117.90405273 151.65942383 C116.33952002 153.26875421 114.70657286 154.72983156 113 156.1875 C102.80722011 165.62448873 95.31347344 176.88784519 94.56640625 191.1484375 C94.5430762 192.89046927 94.54218526 194.63293046 94.5625 196.375 C94.57007324 197.2925708 94.57764648 198.2101416 94.58544922 199.15551758 C94.84653216 209.93709948 97.9509742 218.04876746 103.828125 227.0390625 C105 229 105 229 105 231 C105.66 231 106.32 231 107 231 C106.99097656 230.21882812 106.98195313 229.43765625 106.97265625 228.6328125 C108.06462609 185.99851187 133.2609626 143.9719251 162 114 C162.55502197 113.54270508 163.11004395 113.08541016 163.68188477 112.61425781 C165.38620531 111.15616914 166.74398515 109.86101634 168 108 C168.14711441 104.82608495 168.01355184 102.66496322 167.4375 99.625 C167.20301604 98.03034451 166.97130295 96.43527942 166.7421875 94.83984375 C166.55414551 93.63497314 166.55414551 93.63497314 166.36230469 92.40576172 C165.8004377 88.67487402 165.39086736 84.94543298 165.0625 81.1875 C164.92972656 79.92292969 164.79695312 78.65835938 164.66015625 77.35546875 C165 74 165 74 167.26953125 71.0546875 C170 69 170 69 173.625 68.9375 C177.50318014 70.15840856 178.0893783 70.51687224 180 74 C180.79167622 77.17715223 181.2152877 80.37906452 181.625 83.625 C181.74472168 84.55272217 181.86444336 85.48044434 181.98779297 86.4362793 C182.22582534 88.35180318 182.45510623 90.26843413 182.67578125 92.18603516 C182.8844495 93.99711217 183.10487354 95.80689339 183.33984375 97.61474609 C185.01090099 110.76916426 185.01090099 110.76916426 182.84765625 115.54296875 C181.05423891 117.65709131 179.17071279 119.27721207 177 121 C175.39856443 122.52285412 173.81639371 124.06612498 172.25 125.625 C170.97576172 126.88957031 170.97576172 126.88957031 169.67578125 128.1796875 C141.38009544 158.00375342 124.50905054 198.58321836 121.25097656 239.29956055 C120.42232671 248.08855349 117.99500999 255.57262298 111.3125 261.625 C108.35359116 264 108.35359116 264 106 264 C105.67 265.32 105.34 266.64 105 268 C106.10730469 267.93554688 107.21460938 267.87109375 108.35546875 267.8046875 C113.69728759 267.81172392 118.2994531 269.41173084 123.3125 271.125 C125.2655657 271.76840921 127.21869182 272.41163503 129.171875 273.0546875 C130.14705078 273.38049805 131.12222656 273.70630859 132.12695312 274.04199219 C138.72075657 276.24067376 145.33802717 278.3602764 151.98828125 280.38183594 C153.71754289 280.91320614 155.43790966 281.47337125 157.15625 282.0390625 C180.69393415 288.80931036 205.96579306 283.36146432 226.9375 271.875 C237.63023909 265.41451151 249.30655047 256.38689905 255 245 C255.66 245 256.32 245 257 245 C253.50128922 257.14258448 247.36968974 267.57394165 239 277 C238.11248047 278.02867187 238.11248047 278.02867187 237.20703125 279.078125 C224.98879326 292.31237852 208.13288494 298.96407791 191 303 C190.20722656 303.19464844 189.41445313 303.38929688 188.59765625 303.58984375 C184.83255759 304.18433301 181.119528 304.26549965 177.3125 304.3125 C176.57966797 304.34150391 175.84683594 304.37050781 175.09179688 304.40039062 C158.73876839 304.57681334 142.46566633 298.11634941 127.15185547 293.05810547 C98.86917877 283.75363636 71.11219318 282.84909593 43.0703125 293.89453125 C38.5659683 295.51632439 33.9773886 296.81179254 29.375 298.125 C28.49134766 298.37886475 27.60769531 298.63272949 26.69726562 298.89428711 C1.79058065 305.93829627 -21.52725706 306.47090004 -44.7890625 293.9453125 C-63.87652126 282.38137763 -76.47457811 266.91198967 -84 246 C-84.3403125 245.05769531 -84.680625 244.11539063 -85.03125 243.14453125 C-91.12754599 222.23084919 -87.8332538 198.10373503 -77.51171875 179.18359375 C-73.26285447 171.85538898 -68.04636874 165.17660807 -62.89404297 158.47070312 C-59.72758412 154.3401845 -56.61835881 150.16687045 -53.5 146 C-52.25138023 144.3371809 -51.00268232 142.67442047 -49.75390625 141.01171875 C-45.96443235 135.95809773 -42.19326126 130.89122213 -38.4375 125.8125 C-37.87804687 125.05904297 -37.31859375 124.30558594 -36.7421875 123.52929688 C-35.7035369 122.12148733 -34.67272268 120.7078419 -33.65205383 119.28694153 C-32.60188241 117.83318707 -31.5344297 116.39164525 -30.44450378 114.967453 C-26.32700493 109.31616519 -24.91451491 104.68051047 -24.2421875 97.78125 C-24.07129105 96.33560921 -24.07129105 96.33560921 -23.89694214 94.86076355 C-23.53353541 91.74262382 -23.20407391 88.62193191 -22.875 85.5 C-22.62896949 83.33542589 -22.38057795 81.1711189 -22.12988281 79.00708008 C-21.63244228 74.68774724 -21.1472321 70.367335 -20.67285156 66.04541016 C-20.08860356 60.74788782 -19.46235814 55.45683694 -18.8046875 50.16796875 C-18.71374817 49.43581146 -18.62280884 48.70365417 -18.52911377 47.9493103 C-18.35374163 46.53954806 -18.17819038 45.12980809 -18.00244141 43.72009277 C-16.75370501 33.665591 -15.5498875 23.60627287 -14.68261719 13.51049805 C-14.32422544 9.69730171 -13.83580198 6.39156637 -12 3 C-7.97571235 0.79803128 -4.61180839 -0.54256569 0 0 Z " fill="#FB91D1" transform="translate(170,62)"/>
<path d="M0 0 C4.96139266 0.38912884 8.82738243 1.24766484 13 4 C13.95751953 7.03369141 13.95751953 7.03369141 14.2578125 10.7265625 C14.38822093 12.0888792 14.51875852 13.45118354 14.64941406 14.81347656 C14.70601196 15.51041626 14.76260986 16.20735596 14.82092285 16.92541504 C15.0980917 20.13637929 15.52103331 23.32690932 15.9296875 26.5234375 C16.16410422 28.46497397 16.39850028 30.40651322 16.63162231 32.34820557 C16.88426291 34.45213945 17.13816566 36.55591812 17.39233398 38.65966797 C18.10505749 44.56129879 18.81524991 50.46323358 19.52490234 56.36523438 C19.61065521 57.07807587 19.69640808 57.79091736 19.78475952 58.52536011 C19.95643734 59.95253218 20.12800775 61.37971718 20.29946899 62.80691528 C20.71919904 66.29559821 21.14270896 69.78374927 21.57421875 73.27099609 C22.33946804 79.4650368 23.0791517 85.65744963 23.70703125 91.8671875 C23.82103271 92.91245605 23.93503418 93.95772461 24.05249023 95.03466797 C24.25806825 96.92486522 24.44570873 98.81716039 24.60961914 100.71142578 C25.37589793 107.4466471 27.91686409 111.67457552 32 117 C32.55091309 117.74991211 33.10182617 118.49982422 33.66943359 119.27246094 C35.42635794 121.6556008 37.21001901 124.01660621 39 126.375 C40.33269104 128.14142949 41.66470639 129.90836895 42.99609375 131.67578125 C43.66495605 132.56346191 44.33381836 133.45114258 45.02294922 134.36572266 C48.64440485 139.19105067 52.22233048 144.04836643 55.78564453 148.91674805 C58.72162616 152.92538038 61.68405336 156.9079972 64.70703125 160.8515625 C79.29653546 179.99197429 87.26006411 196.98390167 87.4375 221.375 C87.45296875 223.15825684 87.45296875 223.15825684 87.46875 224.97753906 C87.39651491 232.13483278 86.51803789 238.2871508 84 245 C83.34 245 82.68 245 82 245 C81.77054688 245.70640625 81.54109375 246.4128125 81.3046875 247.140625 C74.32258006 262.44272874 55.08712035 274.00200925 39.86865234 279.81396484 C19.99279569 286.77923804 -1.92578055 287.80498057 -22 281 C-23.67953409 280.45005211 -25.35923214 279.90060477 -27.0390625 279.3515625 C-30.62855642 278.1673827 -34.21037252 276.96249415 -37.7890625 275.74609375 C-42.60536031 274.11896611 -47.44183285 272.58102148 -52.3125 271.125 C-52.97499756 270.92205322 -53.63749512 270.71910645 -54.32006836 270.51000977 C-58.88449267 269.16630181 -63.28543583 268.49186352 -68 268 C-67.63050085 265.4461088 -67.37170339 264.30048919 -65.328125 262.6484375 C-64.64234375 262.22820312 -63.9565625 261.80796875 -63.25 261.375 C-57.62045266 257.364145 -54.82834663 251.91126025 -53.40332031 245.18261719 C-53.01752794 242.18639772 -52.74095569 239.19873746 -52.5 236.1875 C-47.74673558 189.33735804 -26.03610385 149.00227189 7.5390625 116.5234375 C9.90082281 114.06063932 10.00058524 113.12714343 9.984375 109.60546875 C9.57799522 100.90593125 8.80581497 92.26179774 7.6875 83.625 C7.58211914 82.7280542 7.47673828 81.8311084 7.36816406 80.90698242 C6.82976131 77.0470772 6.46324039 74.61325102 4.08203125 71.4609375 C1.97072584 69.83132223 1.97072584 69.83132223 -1 69 C-3.03581546 63.92679142 -3.2295747 58.39500547 -3 53 C-4.485 52.505 -4.485 52.505 -6 52 C-4.865625 51.71125 -3.73125 51.4225 -2.5625 51.125 C-1.386875 50.75375 -0.21125 50.3825 1 50 C4.60801235 42.7839753 1.55240732 31.07369136 0.5 23.375 C-1.57550522 8.07983537 -1.57550522 8.07983537 -1 1 C-0.67 0.67 -0.34 0.34 0 0 Z " fill="#FDADE0" transform="translate(343,62)"/>
<path d="M0 0 C3.85017611 1.58536663 6.54089343 4.15871651 9.4375 7.0625 C9.95103027 7.57401611 10.46456055 8.08553223 10.99365234 8.61254883 C16.09870451 13.84765131 20.47804076 19.59495167 24.81030273 25.47485352 C25.32923096 26.17795654 25.84815918 26.88105957 26.3828125 27.60546875 C27.06947998 28.55135864 27.06947998 28.55135864 27.77001953 29.51635742 C28.95056481 31.14326181 28.95056481 31.14326181 31 32 C35.14503661 32.24787017 35.14503661 32.24787017 39 31 C39.98163422 32.93625098 40.96022454 34.87404539 41.9375 36.8125 C42.48277344 37.89144531 43.02804688 38.97039062 43.58984375 40.08203125 C45 43 45 43 46 46 C46.66 46.33 47.32 46.66 48 47 C47.34 47.350625 46.68 47.70125 46 48.0625 C43.68603727 49.89576406 43.68603727 49.89576406 43.640625 53.0546875 C44.08821461 57.96844305 45.70211988 61.62166744 47.75 66.0625 C51.21074247 73.92032319 53.89432995 81.66307105 56 90 C56.33644531 91.17949219 56.67289062 92.35898437 57.01953125 93.57421875 C59.56066634 102.83460993 60.90776641 112.02055477 61.87329102 121.57568359 C62.76835317 129.89158726 64.22184265 138.33376509 71 144 C74.57336696 146.19744428 78.23986187 148.14297907 82 150 C82 150.33 82 150.66 82 151 C81.04367676 151.22929199 80.08735352 151.45858398 79.10205078 151.69482422 C68.91549076 154.17034305 58.8931972 157.04440436 48.875 160.125 C47.40896043 160.57196328 45.94281481 161.01857887 44.4765625 161.46484375 C37.09979583 163.70236953 37.09979583 163.70236953 29.77490234 166.10205078 C15.3231958 170.77857521 -6.02775771 170.12676823 -19.68359375 163.74609375 C-34.48673464 155.67365288 -42.38063929 139.01099561 -47.0703125 123.421875 C-47.37710938 122.29265625 -47.68390625 121.1634375 -48 120 C-48.24492188 119.13890625 -48.48984375 118.2778125 -48.7421875 117.390625 C-54.00709398 94.74431495 -48.86226397 70.6348809 -37 51 C-33.10806639 44.87753634 -28.88579418 39.01010163 -24.5625 33.1875 C-23.96920898 32.38505859 -23.37591797 31.58261719 -22.76464844 30.75585938 C-17.47692951 23.61536791 -12.14611186 16.5070412 -6.79907227 9.41088867 C-6.20022217 8.61529541 -5.60137207 7.81970215 -4.984375 7 C-4.45553711 6.29875 -3.92669922 5.5975 -3.38183594 4.875 C-2.20851205 3.28292801 -1.09704248 1.64556372 0 0 Z " fill="#FDADE0" transform="translate(161,179)"/>
<path d="M0 0 C0.2490347 8.1114161 -0.72089095 15.96538347 -1.75 24 C-1.93134059 25.44378322 -2.11215792 26.88763225 -2.29248047 28.33154297 C-2.57345322 30.58108625 -2.85482436 32.83057094 -3.13827515 35.07980347 C-3.81596813 40.46930159 -4.45889193 45.86220737 -5.0859375 51.2578125 C-5.34788991 53.49271054 -5.6102467 55.7275608 -5.87268066 57.96240234 C-6.03946359 59.39187807 -6.20445311 60.82156429 -6.36755371 62.25146484 C-6.59648781 64.25419589 -6.83325887 66.25602629 -7.0703125 68.2578125 C-7.20195801 69.3936377 -7.33360352 70.52946289 -7.46923828 71.69970703 C-8.33644693 77.09203755 -9.42086079 81.78671424 -12.765625 86.171875 C-13.31879395 86.90881592 -13.87196289 87.64575684 -14.44189453 88.4050293 C-15.03856934 89.17886963 -15.63524414 89.95270996 -16.25 90.75 C-17.52374053 92.43857354 -18.79716923 94.12738234 -20.0703125 95.81640625 C-20.72290039 96.67508301 -21.37548828 97.53375977 -22.04785156 98.41845703 C-25.11658568 102.47658542 -28.1178639 106.58364862 -31.125 110.6875 C-34.46446047 115.23335511 -37.81367504 119.76967784 -41.23046875 124.2578125 C-58.92170791 147.49712619 -71.31881843 169.45159348 -71.0625 199.5 C-71.05798828 200.51320313 -71.05347656 201.52640625 -71.04882812 202.5703125 C-71.03714593 205.04693827 -71.02076582 207.52343657 -71 210 C-74.65522057 208.88327066 -77.733824 207.77947117 -80.8125 205.5 C-81.39644531 205.0771875 -81.98039062 204.654375 -82.58203125 204.21875 C-84 203 -84 203 -85 201 C-85.11164038 198.60162063 -85.16462978 196.23080451 -85.17358398 193.83154297 C-85.1836145 192.723843 -85.1836145 192.723843 -85.19384766 191.59376526 C-85.2079137 189.98685237 -85.21980279 188.37991931 -85.22979546 186.77297592 C-85.24620463 184.22497066 -85.26944604 181.67711299 -85.29469299 179.12918091 C-85.36544541 171.88339613 -85.42539286 164.63754876 -85.47680664 157.39160156 C-85.50872687 152.96068584 -85.55004296 148.52993602 -85.59700203 144.09915543 C-85.61295376 142.41439955 -85.62530661 140.72960542 -85.63390923 139.04479599 C-85.64616138 136.67796915 -85.67035406 134.31152659 -85.69702148 131.94482422 C-85.6979052 130.91267036 -85.6979052 130.91267036 -85.69880676 129.85966492 C-85.77188716 124.92666266 -86.72466797 120.72730487 -88 116 C-88.25878906 112.91137695 -88.25878906 112.91137695 -88.265625 109.98828125 C-88.26981445 108.90691895 -88.27400391 107.82555664 -88.27832031 106.71142578 C-88.26897461 105.58978027 -88.25962891 104.46813477 -88.25 103.3125 C-88.24323242 102.15218262 -88.23646484 100.99186523 -88.22949219 99.79638672 C-87.94038365 75.89114441 -80.1111351 55.46285303 -65 37 C-64.24976563 36.02160156 -64.24976563 36.02160156 -63.484375 35.0234375 C-51.28380811 19.66755159 -20.41220315 0 0 0 Z " fill="#FCD0A3" transform="translate(139,85)"/>
<path d="M0 0 C7.55971887 2.12079241 14.75771187 4.78415744 22 7.8125 C23.01578125 8.22564453 24.0315625 8.63878906 25.078125 9.06445312 C35.45818292 13.38282337 44.29495483 18.93136836 53 26 C53.99 26.7425 54.98 27.485 56 28.25 C72.45487209 42.25703988 84.74515097 65.95381122 86.83447266 87.46044922 C87.17328557 92.65857894 87.18452605 97.85512095 87.1875 103.0625 C87.19974609 104.19494141 87.21199219 105.32738281 87.22460938 106.49414062 C87.22654297 107.60080078 87.22847656 108.70746094 87.23046875 109.84765625 C87.23457764 110.83773682 87.23868652 111.82781738 87.24291992 112.84790039 C87 116 87 116 85.99780273 119.69294739 C84.94025261 123.82837355 84.73856491 127.81040332 84.79223633 132.06494141 C84.79343475 132.82700394 84.79463318 133.58906647 84.79586792 134.3742218 C84.7989964 136.01380271 84.80625764 137.65338008 84.8173008 139.29292679 C84.83226036 141.89135752 84.83052342 144.48927804 84.82365417 147.08773804 C84.80489887 154.47011701 84.79849441 161.85209 84.84545898 169.234375 C84.8730704 173.76325213 84.86672076 178.29100792 84.83844566 182.81986618 C84.83419292 184.53981486 84.8426281 186.25984489 84.8641758 187.97966385 C85.0251792 201.37249528 85.0251792 201.37249528 82.50692749 205.37030029 C79.13626791 208.3731978 75.39194517 209.92879386 71 211 C71.02618408 210.38817871 71.05236816 209.77635742 71.0793457 209.14599609 C72.26129368 177.00299579 63.44991552 153.23649706 44 128 C42.65267726 126.23250874 41.30635628 124.4642535 39.9609375 122.6953125 C37.8932967 119.97931061 35.82385249 117.26481407 33.74755859 114.55541992 C29.51570966 109.02774045 25.34699081 103.46817216 21.38964844 97.73974609 C19.54302359 95.0789923 17.65221669 92.60820036 15.5 90.18359375 C10.37399676 84.27718937 8.37335806 79.92492861 7.4453125 72.26953125 C7.32890915 71.40933884 7.2125058 70.54914642 7.09257507 69.66288757 C6.70922781 66.77737604 6.35251618 63.88943274 6 61 C5.8060817 59.45034546 5.8060817 59.45034546 5.60824585 57.86938477 C4.77262184 51.17324006 3.97929243 44.47289177 3.21020508 37.76879883 C2.80853558 34.27804679 2.39766017 30.78845328 1.98632812 27.29882812 C1.72600962 25.04954308 1.46622434 22.80019625 1.20703125 20.55078125 C1.08519974 19.52253738 0.96336823 18.49429352 0.83784485 17.43489075 C0.175102 11.57898524 -0.1176776 5.89340102 0 0 Z " fill="#FDE3C0" transform="translate(374,85)"/>
<path d="M0 0 C6.71476513 2.30030324 13.48081181 4.37781613 20.32617188 6.25341797 C22.09224218 6.73767772 23.85301794 7.24113342 25.61328125 7.74609375 C39.62800233 11.3161945 54.95641729 10.50267859 69.22265625 8.7734375 C69.22265625 13.7234375 69.22265625 18.6734375 69.22265625 23.7734375 C57.97265625 26.05022321 57.97265625 26.05022321 54.22265625 24.7734375 C54.55265625 24.4434375 54.88265625 24.1134375 55.22265625 23.7734375 C53.92972656 23.72445313 52.63679687 23.67546875 51.3046875 23.625 C49.54816099 23.54985448 47.79165142 23.47431202 46.03515625 23.3984375 C45.19017578 23.3675 44.34519531 23.3365625 43.47460938 23.3046875 C30.91537736 22.74022763 19.32836621 20.18844219 7.34765625 16.4609375 C6.01403745 16.05394095 4.68021398 15.64761448 3.34619141 15.24194336 C-3.27701321 13.21853347 -9.85868418 11.10313905 -16.40234375 8.8359375 C-35.60256168 2.34635335 -54.47626091 3.8456808 -73.28442383 10.65283203 C-78.15141077 12.38319604 -82.62836467 13.30164191 -87.77734375 13.7734375 C-87.77734375 14.4334375 -87.77734375 15.0934375 -87.77734375 15.7734375 C-87.101875 15.71542969 -86.42640625 15.65742188 -85.73046875 15.59765625 C-78.4312947 15.22847837 -78.4312947 15.22847837 -75.15234375 17.9609375 C-73.66574063 21.00171661 -73.0978017 22.46067 -73.77734375 25.7734375 C-77.07530297 30.00398159 -81.06123915 31.34171134 -85.96484375 33.0234375 C-86.68220703 33.2915625 -87.39957031 33.5596875 -88.13867188 33.8359375 C-93.37552321 35.6737582 -98.23211286 36.35460982 -103.77734375 35.7734375 C-104.43734375 35.4434375 -105.09734375 35.1134375 -105.77734375 34.7734375 C-105.77734375 34.1134375 -105.77734375 33.4534375 -105.77734375 32.7734375 C-106.43734375 32.7734375 -107.09734375 32.7734375 -107.77734375 32.7734375 C-107.53951172 34.39572266 -107.53951172 34.39572266 -107.296875 36.05078125 C-105.37760548 51.6197047 -106.53756822 67.46234575 -108.52734375 82.9609375 C-108.76263794 84.83664429 -108.76263794 84.83664429 -109.00268555 86.75024414 C-111.28369594 103.29057803 -116.6337808 118.95025922 -121.77734375 134.7734375 C-129.57356069 134.79872569 -137.36976711 134.81627818 -145.16601562 134.82836914 C-147.819991 134.83340792 -150.47396359 134.84023901 -153.12792969 134.84887695 C-156.93555386 134.86096239 -160.74314144 134.86667025 -164.55078125 134.87109375 C-165.74351654 134.87625504 -166.93625183 134.88141632 -168.16513062 134.88673401 C-169.26612091 134.88680954 -170.36711121 134.88688507 -171.50146484 134.88696289 C-172.96040665 134.89029381 -172.96040665 134.89029381 -174.44882202 134.89369202 C-176.77734375 134.7734375 -176.77734375 134.7734375 -178.77734375 133.7734375 C-177.30965788 128.97305058 -175.38272361 124.43451194 -173.40087891 119.83154297 C-162.01614139 93.27563569 -156.01267622 67.5386369 -153.77734375 38.7734375 C-152.25173828 39.01126953 -152.25173828 39.01126953 -150.6953125 39.25390625 C-147.12849538 39.72687402 -143.6846621 40.00510726 -140.08984375 40.0859375 C-138.99285156 40.12332031 -137.89585937 40.16070312 -136.765625 40.19921875 C-133.10218374 39.67723823 -131.97813927 38.69382488 -129.77734375 35.7734375 C-129.11054007 32.73064378 -129.11054007 32.73064378 -129.77734375 29.7734375 C-133.34985533 25.73111617 -138.43375119 26.0294111 -143.46484375 25.6484375 C-145.19822721 25.50367141 -146.93132468 25.35542424 -148.6640625 25.203125 C-149.42936279 25.14366699 -150.19466309 25.08420898 -150.9831543 25.02294922 C-152.77734375 24.7734375 -152.77734375 24.7734375 -153.77734375 23.7734375 C-153.85047942 21.24294348 -153.86981902 18.74038913 -153.83984375 16.2109375 C-153.83533203 15.50001953 -153.83082031 14.78910156 -153.82617188 14.05664062 C-153.81435239 12.29553737 -153.79641638 10.53447714 -153.77734375 8.7734375 C-152.49214844 8.93457031 -151.20695312 9.09570312 -149.8828125 9.26171875 C-144.94030269 9.8074522 -140.05923725 9.95700913 -135.08984375 9.9609375 C-133.89584961 9.97930664 -133.89584961 9.97930664 -132.67773438 9.99804688 C-116.80309347 10.03563482 -102.68293679 5.54397356 -87.71484375 0.7734375 C-56.38347567 -9.19484202 -31.42725743 -10.79697214 0 0 Z " fill="#FCD0A3" transform="translate(298.77734375,370.2265625)"/>
<path d="M0 0 C3.87818014 1.22090856 4.4643783 1.57937224 6.375 5.0625 C7.16667622 8.23965223 7.5902877 11.44156452 8 14.6875 C8.11972168 15.61522217 8.23944336 16.54294434 8.36279297 17.4987793 C8.60082534 19.41430318 8.83010623 21.33093413 9.05078125 23.24853516 C9.2594495 25.05961217 9.47987354 26.86939339 9.71484375 28.67724609 C11.38590099 41.83166426 11.38590099 41.83166426 9.22265625 46.60546875 C7.42923891 48.71959131 5.54571279 50.33971207 3.375 52.0625 C1.77356443 53.58535412 0.19139371 55.12862498 -1.375 56.6875 C-2.64923828 57.95207031 -2.64923828 57.95207031 -3.94921875 59.2421875 C-32.24490456 89.06625342 -49.11594946 129.64571836 -52.37402344 170.36206055 C-53.16774541 178.78059438 -55.49575872 186.48847307 -61.8125 192.4375 C-69.5707515 198.35092173 -77.95119621 199.79002016 -87.5 199.6875 C-88.55558105 199.67984619 -89.61116211 199.67219238 -90.69873047 199.66430664 C-100.76196208 199.37747422 -108.0424922 197.1409254 -115.1875 189.6875 C-121.0353033 182.58269225 -121.42373137 173.17410311 -122.4375 164.4375 C-125.08602906 143.78959852 -130.2687712 123.7749576 -139.625 105.0625 C-140 101.6875 -140 101.6875 -139.625 98.0625 C-137.5625 95.5625 -137.5625 95.5625 -134.625 94.0625 C-131.0625 93.9375 -131.0625 93.9375 -127.625 95.0625 C-114.2064568 111.92998602 -109.96727412 139.24161598 -106.625 160.0625 C-96.86772663 145.74650054 -94.25570847 130.45042444 -97.2734375 113.3984375 C-100.78519545 102.02274295 -107.56659349 93.50987013 -116.26928711 85.65258789 C-119.03242369 83.07796703 -120.46603653 81.56280363 -121.6328125 77.890625 C-121.625 75.0625 -121.625 75.0625 -119.625 71.625 C-116.625 69.0625 -116.625 69.0625 -113.41015625 68.96484375 C-108.2562746 70.45941624 -105.68107967 73.22170662 -102.0625 77.0625 C-101.40499756 77.74078857 -100.74749512 78.41907715 -100.07006836 79.11791992 C-88.625 91.13245162 -88.625 91.13245162 -88.625 96.0625 C-87.965 96.0625 -87.305 96.0625 -86.625 96.0625 C-86.35429687 95.32128906 -86.08359375 94.58007812 -85.8046875 93.81640625 C-82.7694002 86.730719 -76.89526699 81.07906425 -71.625 75.5625 C-71.13918457 75.03390381 -70.65336914 74.50530762 -70.15283203 73.96069336 C-66.5272445 70.26926294 -63.77658172 69.16688247 -58.625 69.0625 C-56.1875 70.5 -56.1875 70.5 -54.625 73.0625 C-53.78268343 79.78710999 -53.78268343 79.78710999 -55.72094727 82.72192383 C-57.28547998 84.33125421 -58.91842714 85.79233156 -60.625 87.25 C-70.81777989 96.68698873 -78.31152656 107.95034519 -79.05859375 122.2109375 C-79.0819238 123.95296927 -79.08281474 125.69543046 -79.0625 127.4375 C-79.05492676 128.3550708 -79.04735352 129.2726416 -79.03955078 130.21801758 C-78.77846784 140.99959948 -75.6740258 149.11126746 -69.796875 158.1015625 C-68.625 160.0625 -68.625 160.0625 -68.625 162.0625 C-67.965 162.0625 -67.305 162.0625 -66.625 162.0625 C-66.63402344 161.28132812 -66.64304687 160.50015625 -66.65234375 159.6953125 C-65.56037391 117.06101187 -40.3640374 75.0344251 -11.625 45.0625 C-11.06997803 44.60520508 -10.51495605 44.14791016 -9.94311523 43.67675781 C-8.23879469 42.21866914 -6.88101485 40.92351634 -5.625 39.0625 C-5.47788559 35.88858495 -5.61144816 33.72746322 -6.1875 30.6875 C-6.42198396 29.09284451 -6.65369705 27.49777942 -6.8828125 25.90234375 C-7.07085449 24.69747314 -7.07085449 24.69747314 -7.26269531 23.46826172 C-7.8245623 19.73737402 -8.23413264 16.00793298 -8.5625 12.25 C-8.69527344 10.98542969 -8.82804688 9.72085938 -8.96484375 8.41796875 C-8.625 5.0625 -8.625 5.0625 -6.35546875 2.1171875 C-3.625 0.0625 -3.625 0.0625 0 0 Z " fill="#040303" transform="translate(343.625,130.9375)"/>
<path d="M0 0 C26.4 0 52.8 0 80 0 C80 6.27 80 12.54 80 19 C76.80376953 19.05607422 76.80376953 19.05607422 73.54296875 19.11328125 C71.4776792 19.15950257 69.41257047 19.21073366 67.34741211 19.26245117 C65.91295372 19.29569001 64.47836487 19.32372535 63.04370117 19.34643555 C60.98039193 19.38000271 58.91827697 19.43231413 56.85546875 19.48828125 C54.99378052 19.52755737 54.99378052 19.52755737 53.09448242 19.56762695 C50.07779277 19.78204255 50.07779277 19.78204255 48.0925293 21.15283203 C46.50636583 23.83460025 46.64806789 25.96459467 46.6640625 29.06640625 C46.65117187 30.27490234 46.63828125 31.48339844 46.625 32.72851562 C46.625 35.25717353 46.63264192 37.78584456 46.6484375 40.31445312 C46.55035469 48.03438728 46.04170155 54.83504189 41 61 C35.92007847 65.51667161 30.58647307 68.36040798 24.27734375 70.76953125 C23.46203186 71.09229538 22.64671997 71.41505951 21.80670166 71.74760437 C19.18809442 72.78104334 16.5631477 73.79709887 13.9375 74.8125 C12.13346497 75.5198 10.32983662 76.22813814 8.52661133 76.9375 C4.97790597 78.33149038 1.42669373 79.71875492 -2.12695312 81.10009766 C-6.30695086 82.72636342 -10.47593899 84.37789131 -14.640625 86.04296875 C-16.69784448 86.86216047 -18.75512888 87.6811892 -20.8125 88.5 C-22.18643921 89.05071167 -22.18643921 89.05071167 -23.58813477 89.61254883 C-24.41112061 89.93634521 -25.23410645 90.2601416 -26.08203125 90.59375 C-26.77530518 90.86896484 -27.4685791 91.14417969 -28.18286133 91.42773438 C-30 92 -30 92 -33 92 C-32.31571262 80.96136418 -31.20697296 69.9916567 -30 59 C-29.4016333 58.74468506 -28.8032666 58.48937012 -28.18676758 58.22631836 C-13.64314725 51.97169235 -13.64314725 51.97169235 -3.9375 39.84765625 C1.22998446 26.50660262 -0.53254532 15.97635948 0 0 Z " fill="#FDD1A3" transform="translate(216,7)"/>
<path d="M0 0 C0.1694421 7.3168179 -0.4785216 14.36697293 -1.375 21.625 C-1.56449219 23.2646875 -1.56449219 23.2646875 -1.7578125 24.9375 C-2.9827641 35.05560018 -5.02270268 41.67371067 -11.25 49.75 C-12.51069664 51.42166389 -13.7711044 53.09354568 -15.03125 54.765625 C-15.68222656 55.62220703 -16.33320312 56.47878906 -17.00390625 57.36132812 C-20.29390382 61.7104345 -23.51971483 66.10647303 -26.75 70.5 C-27.34586914 71.30663086 -27.94173828 72.11326172 -28.55566406 72.94433594 C-29.10963867 73.69489258 -29.66361328 74.44544922 -30.234375 75.21875 C-30.72131836 75.87810547 -31.20826172 76.53746094 -31.70996094 77.21679688 C-32.84422897 78.78467986 -33.92656969 80.38985454 -35 82 C-35.66 82 -36.32 82 -37 82 C-37.97526707 55.45106306 -28.27804642 29.1249379 -10.49804688 9.32763672 C-1.73278326 0 -1.73278326 0 0 0 Z " fill="#FCE2BF" transform="translate(134,126)"/>
<path d="M0 0 C3.60231228 1.28082214 5.14024298 2.70559583 6.89990234 6.09375 C7.39417725 7.28484375 7.39417725 7.28484375 7.8984375 8.5 C8.26976807 9.38228271 8.64109863 10.26456543 9.02368164 11.17358398 C9.59977173 12.57265991 9.59977173 12.57265991 10.1875 14 C10.98445665 15.90806229 11.78262279 17.81561988 12.58203125 19.72265625 C12.96439941 20.6367627 13.34676758 21.55086914 13.74072266 22.49267578 C15.3718893 26.30863966 17.17203405 30.03866876 19.03515625 33.74609375 C20.02643286 36.6202978 20.03908144 38.98028738 19.8125 42 C18.3125 44.375 18.3125 44.375 15.8125 46 C13.03640279 46.55749493 10.55778833 46.72921721 7.8125 46 C3.6600933 42.86580797 2.23721997 38.82482219 0.4375 34.125 C-0.1640378 32.59973649 -0.76692479 31.07500445 -1.37109375 29.55078125 C-1.67128418 28.78846191 -1.97147461 28.02614258 -2.28076172 27.24072266 C-3.13440939 25.13119699 -4.0364323 23.05446126 -4.97265625 20.98046875 C-5.25125488 20.35962402 -5.52985352 19.7387793 -5.81689453 19.09912109 C-6.57921297 17.41372946 -7.34989021 15.73212579 -8.12109375 14.05078125 C-9.27034405 10.76299927 -9.58904665 8.45426873 -9.1875 5 C-6.18700068 1.64229838 -4.58860423 0 0 0 Z " fill="#010101" transform="translate(390.1875,466)"/>
<path d="M0 0 C2.4375 1.5 2.4375 1.5 4 4 C4.66737986 7.39251426 4.94426872 8.82653993 4 12 C0.28649896 17.10328437 -5.71618591 20.20449487 -11.0625 23.375 C-11.6395166 23.72111328 -12.2165332 24.06722656 -12.81103516 24.42382812 C-16.85192996 26.70806093 -20.37040766 27.73847255 -25 28 C-27.9375 26.5625 -27.9375 26.5625 -30 24 C-30.65099763 21.20756282 -30.78328316 18.76579986 -30 16 C-27.21634517 12.61148559 -23.99221015 10.67731321 -20.1875 8.5625 C-16.65215742 6.57172456 -13.35453591 4.59612873 -10.1875 2.0625 C-6.38958298 -0.39497572 -4.43984058 -0.75393519 0 0 Z " fill="#000000" transform="translate(424,370)"/>
<path d="M0 0 C2.74463023 1.28470535 5.11839435 2.96882986 7.5625 4.75 C8.19607422 5.1934375 8.82964844 5.636875 9.48242188 6.09375 C10.73267435 6.96931301 11.97842148 7.85134996 13.21923828 8.74023438 C14.90410071 9.93215789 16.61269001 11.07369113 18.33984375 12.203125 C21 14 21 14 23 16 C23.3397122 19.00887945 23.54965117 21.09715473 23 24 C20.9375 26.5625 20.9375 26.5625 18 28 C12.62953352 27.69662028 8.61182122 26.10383049 4.0625 23.375 C3.45712402 23.01599609 2.85174805 22.65699219 2.22802734 22.28710938 C-10.17824483 14.76172149 -10.17824483 14.76172149 -11.6171875 9.92578125 C-11.82748721 6.57954176 -11.20159926 4.32255881 -9.4375 1.5 C-6.02434777 -0.60040137 -3.97862842 -0.40681272 0 0 Z " fill="#000000" transform="translate(95,370)"/>
<path d="M0 0 C2.51353232 2.18920557 2.94467087 3.42962175 3.265625 6.73828125 C2.76645505 12.86779464 -0.88356562 17.82343848 -4 23 C-4.41636719 23.71800781 -4.83273437 24.43601562 -5.26171875 25.17578125 C-6.89491569 27.57686727 -8.3392024 28.86409127 -11.203125 29.453125 C-17.04071357 29.71675803 -17.04071357 29.71675803 -19.73046875 27.70703125 C-21.58644531 25.21145661 -21.70600694 22.7879839 -21.62109375 19.74609375 C-19.94924845 12.35422429 -14.54858484 5.00072037 -9 0 C-5.8168485 -1.59157575 -3.38676935 -0.77242108 0 0 Z " fill="#000000" transform="translate(459,330)"/>
<path d="M0 0 C5.59044176 4.83068598 10.97196129 12.45464645 12.62109375 19.74609375 C12.70600015 22.78774066 12.59542817 25.20973753 10.72265625 27.6953125 C7.97941452 29.77296043 5.70997411 29.78428479 2.34375 29.6640625 C-3.28490171 28.06927785 -5.75528005 22.10814593 -8.54296875 17.38671875 C-10.95007708 12.94334511 -12.98344089 9.16306466 -12 4 C-9.021468 -1.24788972 -5.57948166 -1.48027065 0 0 Z " fill="#000000" transform="translate(62,330)"/>
<path d="M0 0 C2.76386182 2.4183791 3.79835577 3.96657334 4.5 7.5625 C3.81401751 10.90666463 2.63630149 11.82038066 0 14 C-2.6532139 15.31858679 -5.38765626 16.28977363 -8.1875 17.25 C-8.90486328 17.518125 -9.62222656 17.78625 -10.36132812 18.0625 C-15.54417251 19.8813675 -20.5072586 20.73470684 -26 20 C-28.5625 18.375 -28.5625 18.375 -30 16 C-30.625 13.0625 -30.625 13.0625 -30 10 C-25.73600573 5.78832468 -21.82658815 3.84367561 -16.125 2.1875 C-15.45597656 1.97158203 -14.78695312 1.75566406 -14.09765625 1.53320312 C-9.26532192 0.06674328 -5.0487164 -0.37838346 0 0 Z " fill="#060504" transform="translate(221,386)"/>
<path d="M0 0 C2.48871621 0.69094621 4.94280731 1.45343237 7.40039062 2.24780273 C8.24150391 2.50045898 9.08261719 2.75311523 9.94921875 3.01342773 C14.41133447 4.42884906 17.84702502 5.57365252 20.71289062 9.49780273 C21.30741796 13.06496676 21.15200019 14.77231737 19.27539062 17.87280273 C15.39872489 20.33117613 12.18283221 20.19071161 7.71289062 19.49780273 C3.94991601 18.38246123 0.3533239 16.95623718 -3.28710938 15.49780273 C-4.42148437 15.16780273 -5.55585938 14.83780273 -6.72460938 14.49780273 C-9.85203084 13.27734558 -11.39776849 12.29402725 -13.28710938 9.49780273 C-13.22624016 6.02825728 -12.91451228 3.57832996 -11.16210938 0.56030273 C-7.67939767 -1.4132339 -3.81574526 -0.83785098 0 0 Z " fill="#060504" transform="translate(300.287109375,386.502197265625)"/>
<path d="M0 0 C0.66 0 1.32 0 2 0 C3.1053347 1.62514074 4.13353881 3.30298735 5.125 5 C8.09535154 9.84636304 11.30820838 13.61906685 15.49609375 17.44140625 C17 19 17 19 17 21 C11.60239539 24.36127602 7.09194494 24.45603878 0.9375 24.375 C0.05255859 24.38660156 -0.83238281 24.39820313 -1.74414062 24.41015625 C-6.65875343 24.38803496 -9.98295082 24.15684946 -14 21 C-13.45490617 16.98108786 -11.44478409 15.05308985 -8.6875 12.1875 C-5.07692126 8.30670279 -2.36433139 4.72866278 0 0 Z " fill="#F5DCBA" transform="translate(255,291)"/>
<path d="M0 0 C-2.38275666 2.79033346 -4.5022843 3.72983292 -8 4.75 C-8.86625 5.01296875 -9.7325 5.2759375 -10.625 5.546875 C-13 6 -13 6 -16 5 C-12.04440305 2.32040206 -4.70297318 -2.35148659 0 0 Z " fill="#F8DEBB" transform="translate(210,386)"/>
<path d="M0 0 C0.33 0.66 0.66 1.32 1 2 C-2.63 2.33 -6.26 2.66 -10 3 C-8 0 -8 0 -6.125 -0.75 C-3.75971013 -1.0282694 -2.22305077 -0.84322615 0 0 Z " fill="#E7CEAD" transform="translate(363,393)"/>
<path d="M0 0 C0.66 0.66 1.32 1.32 2 2 C-2.455 2.495 -2.455 2.495 -7 3 C-6.67 2.01 -6.34 1.02 -6 0 C-3 -1 -3 -1 0 0 Z " fill="#F3D8B6" transform="translate(217,384)"/>
</svg>
