<?xml version="1.0" encoding="UTF-8"?>
<svg version="1.1" xmlns="http://www.w3.org/2000/svg" width="512" height="512">
<path d="M0 0 C38.28 0 76.56 0 116 0 C116.33 15.51 116.66 31.02 117 47 C120.4764633 60.90585319 123.91008479 70.92867178 136.30986023 78.57296753 C145.76650589 83.58941336 157.27582807 85.40802029 167.63998985 87.94344711 C170.20516992 88.57144548 172.76896534 89.20484441 175.33247375 89.83963013 C182.61195896 91.64138757 189.89340868 93.43510003 197.17651367 95.22216797 C201.66051814 96.32281352 206.14267393 97.43074805 210.62384987 98.54285049 C212.30806237 98.95932242 213.99293475 99.37313713 215.67853355 99.78396225 C224.44661401 101.92146596 233.10847378 104.23775326 241.68286133 107.06298828 C242.76302411 107.41628362 242.76302411 107.41628362 243.86500835 107.77671623 C270.23470631 116.71127578 291.69148584 137.00927008 303.97412109 161.72973633 C311.1415348 176.80849854 314.32114706 191.73173161 314.24050903 208.35734558 C314.24222107 209.65810532 314.24393311 210.95886505 314.24569702 212.29904175 C314.25015058 215.88704258 314.24220074 219.47492243 314.23214546 223.06290792 C314.22336915 226.99997528 314.2263375 230.93703766 314.2277813 234.87411213 C314.22884169 242.50560757 314.2196356 250.13705569 314.20677864 257.768539 C314.19234436 266.60176009 314.19078726 275.434953 314.18920898 284.26818848 C314.17872035 307.57463312 314.15079799 330.88106728 314.125 354.1875 C314.08375 406.265625 314.0425 458.34375 314 512 C145.04 512 -23.92 512 -198 512 C-198.0825 460.06625 -198.165 408.1325 -198.25 354.625 C-198.28641602 338.23924316 -198.32283203 321.85348633 -198.36035156 304.97119141 C-198.37841797 284.93041992 -198.37841797 284.93041992 -198.3817749 275.54232788 C-198.38549479 268.99889335 -198.4001238 262.45559649 -198.42230225 255.91220093 C-198.44788237 248.3539328 -198.45931622 240.79579603 -198.4537798 233.23748436 C-198.45138473 229.37648439 -198.45500567 225.51577746 -198.47686052 221.65483212 C-198.66474588 186.75612277 -191.46362951 157.62403954 -166.375 131.875 C-152.88117904 118.47262538 -136.69085374 109.93691378 -118.42578125 104.89453125 C-117.3616954 104.59870148 -116.29760956 104.3028717 -115.20127869 103.99807739 C-105.27046689 101.27706483 -95.28347607 98.79471989 -85.28515625 96.3359375 C-84.46675514 96.13447554 -83.64835403 95.93301357 -82.80515289 95.7254467 C-75.15652093 93.84355324 -67.50661924 91.96695932 -59.85180664 90.11035156 C-55.61235053 89.08160187 -51.37591491 88.04112685 -47.14114189 86.99327469 C-45.55119834 86.60222107 -43.9601888 86.2154718 -42.36805916 85.83341599 C-27.43044107 82.24651556 -14.81359767 77.87623871 -6.28515625 64.3671875 C3.8902664 45.6246157 -0.38277966 17.99064389 0 0 Z M-115 321 C-115 340.14 -115 359.28 -115 379 C-105.76 379 -96.52 379 -87 379 C-84.48043012 369.50561723 -84.48043012 369.50561723 -83 360 C-82.81953125 359.24332031 -82.6390625 358.48664063 -82.453125 357.70703125 C-81.98231787 354.67032528 -81.96933272 352.91656911 -83 350 C-86.16246208 347.13959653 -89.52894311 344.94436625 -93.10546875 342.64453125 C-101.50547429 337.1698801 -108.51275961 329.32546819 -114 321 C-114.33 321 -114.66 321 -115 321 Z M230 321 C228.82840929 322.43772228 227.68901396 323.90169201 226.5625 325.375 C220.69618173 332.74950293 214.72708504 339.43332681 206.66088867 344.39086914 C201.44057335 347.44799188 201.44057335 347.44799188 198.0703125 352.2578125 C197.9883346 355.01773517 198.39131678 357.30284084 199 360 C199.22558594 361.26328125 199.45117188 362.5265625 199.68359375 363.828125 C200.6134457 368.92878113 201.74253542 373.97014169 203 379 C212.24 379 221.48 379 231 379 C231 359.86 231 340.72 231 321 C230.67 321 230.34 321 230 321 Z M-115 397 C-115 405.58 -115 414.16 -115 423 C-107.97931895 415.97931895 -99.17694107 406.53082322 -96 397 C-102.27 397 -108.54 397 -115 397 Z M212 397 C214.94554076 402.89108152 216.876358 406.41047027 221 411.125 C223.60248898 414.11627544 226.090722 417.0444718 228.25 420.3671875 C228.8275 421.23601562 229.405 422.10484375 230 423 C230.33 423 230.66 423 231 423 C231 414.42 231 405.84 231 397 C224.73 397 218.46 397 212 397 Z " fill="#030302" transform="translate(198,0)"/>
<path d="M0 0 C27.06 0 54.12 0 82 0 C82.33 10.89 82.66 21.78 83 33 C87.22056491 49.88225965 92.4128112 63.59794535 107 74 C116.15249764 79.26406909 125.0950003 82.51544227 135.3828125 84.9375 C136.73098504 85.26796965 138.0787857 85.59995951 139.42623901 85.93334961 C142.94643025 86.80020018 146.47107553 87.64725037 149.99719238 88.48962402 C153.49184634 89.32785179 156.98208957 90.18400431 160.47265625 91.0390625 C165.96624533 92.38256663 171.46140368 93.71942404 176.95800781 95.05053711 C179.63871607 95.70017586 182.3193616 96.35007306 185 97 C185.66027695 97.15997089 186.32055389 97.31994179 187.00083923 97.48476028 C191.45850077 98.5655637 195.91330943 99.65759227 200.3671875 100.75390625 C201.48360626 101.02392456 202.60002502 101.29394287 203.75027466 101.57214355 C229.96107925 108.05754827 252.27392594 120.98269678 267.125 144.1875 C277.62675134 161.97239126 280.48095408 178.78477975 280.34057617 199.06445312 C280.33972749 200.81063319 280.34020974 202.55681432 280.34190369 204.30299377 C280.34275565 208.99000998 280.32526113 213.6767904 280.30418181 218.36375237 C280.28528004 223.28175499 280.28365403 228.19976451 280.28010559 233.11779785 C280.27082444 242.4069247 280.24626452 251.69594416 280.21605712 260.98502398 C280.18238992 271.57042631 280.16599629 282.15583409 280.15097082 292.74127674 C280.11971096 314.49424416 280.06702788 336.24711528 280 358 C278.88203814 357.05006481 277.7652572 356.09873971 276.64897156 355.14683533 C276.0269369 354.61721663 275.40490225 354.08759794 274.76401806 353.5419302 C272.5605761 351.61589907 270.53379768 349.5635505 268.51953125 347.44140625 C267.74802734 346.64412109 266.97652344 345.84683594 266.18164062 345.02539062 C264.58290325 343.36338912 262.99190689 341.69391119 261.40820312 340.01757812 C260.64056641 339.22931641 259.87292969 338.44105469 259.08203125 337.62890625 C258.39343018 336.90775635 257.7048291 336.18660645 256.99536133 335.44360352 C255.12209916 333.76175438 255.12209916 333.76175438 252.87866211 334.15771484 C250.27650891 335.32437222 248.70967227 337.00484412 246.75 339.0625 C246.04359375 339.79597656 245.3371875 340.52945312 244.609375 341.28515625 C244.07828125 341.85105469 243.5471875 342.41695313 243 343 C244.39138561 346.15123236 246.01354939 348.24082034 248.4765625 350.63671875 C249.146875 351.29607422 249.8171875 351.95542969 250.5078125 352.63476562 C251.20648438 353.31216797 251.90515625 353.98957031 252.625 354.6875 C254.01514489 356.04339862 255.40328536 357.40135644 256.7890625 358.76171875 C257.40475098 359.35944092 258.02043945 359.95716309 258.65478516 360.57299805 C260 362 260 362 260 363 C250.43 363 240.86 363 231 363 C230.99589111 359.20218018 230.99178223 355.40436035 230.98754883 351.49145508 C230.97026557 338.87069721 230.92586899 326.25015277 230.86790943 313.62952137 C230.83345574 305.98597425 230.80792997 298.3426038 230.80444336 290.69897461 C230.80137583 284.02620693 230.78051717 277.35375545 230.73947543 270.68110961 C230.71839253 267.15748036 230.70541427 263.6342977 230.71384621 260.11060524 C230.77814637 227.70859316 224.59330002 200.20024407 201.75 176.25 C194.33872045 169.11321228 185.87338048 163.18444702 177 158 C176.773125 158.680625 176.54625 159.36125 176.3125 160.0625 C174.8903229 163.24546779 173.09760437 165.64748977 170.92578125 168.3515625 C170.62027344 168.89554688 170.31476563 169.43953125 170 170 C171.30647497 173.9194249 172.89144582 174.41774107 176.375 176.5625 C194.65658412 188.49751522 206.96437648 205.12892237 212.45703125 226.3671875 C217.19904992 249.36086075 213.65715001 273.22877583 200.70410156 292.97558594 C190.18802295 307.92588108 176.87559206 317.99650008 160 325 C159.31292969 325.29777344 158.62585938 325.59554688 157.91796875 325.90234375 C139.57258749 333.41236744 117.73320774 331.53210581 99.72900391 324.05712891 C76.76289008 313.74264632 61.99865563 296.47063349 52.9453125 273.30078125 C49.83706972 264.58290031 49.90535987 256.18009276 50 247 C44.06 247 38.12 247 32 247 C32.04125 248.918125 32.0825 250.83625 32.125 252.8125 C32.01485416 273.25556843 22.7843869 291.52792298 8.859375 306.296875 C-8.53981037 322.74528521 -30.76969305 330.5833665 -54.58984375 330.2109375 C-72.00464861 329.60068477 -87.49178744 322.54557586 -101 312 C-102.32644531 310.96746094 -102.32644531 310.96746094 -103.6796875 309.9140625 C-118.24794253 297.70577401 -129.0445407 278.77522689 -132 260 C-133.99645142 236.02249795 -129.93581869 213.62462932 -114.75 194.375 C-106.94243785 185.21186779 -98.11249605 178.37678015 -88 172 C-89.20416237 168.73075543 -90.50344318 166.07300521 -92.625 163.3125 C-95 160.21676301 -95 160.21676301 -95 158 C-104.87324546 164.21798655 -113.74143643 170.74143643 -122 179 C-122.66515625 179.66515625 -123.3303125 180.3303125 -124.015625 181.015625 C-140.89089324 199.10712879 -148.08651812 223.35790022 -148.20532227 247.54467773 C-148.21522186 248.79415695 -148.22512146 250.04363617 -148.23532104 251.33097839 C-148.26140658 254.73954086 -148.28331037 258.14808118 -148.30332303 261.55668139 C-148.32527559 265.12546407 -148.35261868 268.69420544 -148.37937927 272.26295471 C-148.42918137 279.0129823 -148.47416621 285.76303296 -148.51740164 292.51310545 C-148.56688108 300.20117779 -148.62175931 307.88920866 -148.67708123 315.57724082 C-148.79070951 331.38479028 -148.89687726 347.19237799 -149 363 C-158.57 363 -168.14 363 -178 363 C-174.13609192 358.49210724 -170.33926648 354.20232971 -166.125 350.0625 C-165.62742188 349.56943359 -165.12984375 349.07636719 -164.6171875 348.56835938 C-163.41379715 347.37654008 -162.20724635 346.18791322 -161 345 C-162.3904499 341.89557969 -164.01571598 339.6343557 -166.375 337.1875 C-166.96023437 336.56230469 -167.54546875 335.93710937 -168.1484375 335.29296875 C-169.86766428 333.80914273 -169.86766428 333.80914273 -171.77905273 334.09863281 C-174.97925015 335.3974268 -177.03416586 337.68495897 -179.38671875 340.12890625 C-179.88919632 340.63800034 -180.39167389 341.14709442 -180.90937805 341.6716156 C-182.50935066 343.29495728 -184.09879514 344.92813579 -185.6875 346.5625 C-187.28862823 348.19863868 -188.89186244 349.83263541 -190.49775696 351.46409607 C-191.49588001 352.47926042 -192.49090634 353.49748016 -193.48258972 354.51893616 C-194.6363695 355.69787685 -195.81565153 356.85177195 -197 358 C-197.33 358 -197.66 358 -198 358 C-198.07025926 335.19842015 -198.12307077 312.39685831 -198.15543652 289.59519196 C-198.17086775 279.00662098 -198.19188525 268.41811749 -198.22631836 257.82958984 C-198.2563358 248.59447573 -198.27560217 239.35941053 -198.28226548 230.12424898 C-198.28615693 225.23989077 -198.29522328 220.3556724 -198.31719017 215.47135925 C-198.33775093 210.8617809 -198.34379478 206.25239826 -198.33932304 201.6427784 C-198.34013958 199.96275324 -198.3459874 198.28272063 -198.35761642 196.60273552 C-198.44675924 183.04469161 -197.73273501 169.12475142 -191.75 156.6875 C-191.44481445 156.02782227 -191.13962891 155.36814453 -190.82519531 154.68847656 C-179.64443013 131.09740675 -160.39518191 114.68295757 -136.03976822 105.70753098 C-130.11114195 103.65107834 -124.00802277 102.210842 -117.91796875 100.72265625 C-116.40960943 100.34542184 -114.90150244 99.96717724 -113.39363098 99.58799744 C-109.45552531 98.6001835 -105.51453414 97.62445378 -101.57263184 96.6519165 C-97.64388145 95.68103922 -93.71742563 94.7009953 -89.79101562 93.72070312 C-89.02262423 93.52892675 -88.25423283 93.33715038 -87.46255684 93.13956261 C-79.99228823 91.27424012 -72.52403192 89.40100383 -65.05815887 87.51816559 C-63.06615061 87.01665419 -61.07345128 86.51797346 -59.08062744 86.01971436 C-55.54586835 85.13075424 -52.01652712 84.22301403 -48.48828125 83.30859375 C-47.48798386 83.05989029 -46.48768646 82.81118683 -45.45707703 82.5549469 C-30.27946305 78.5549089 -18.40508313 71.09118259 -9.625 57.9375 C0.95824329 39.03109002 -0.67108619 22.81693047 0 0 Z " fill="#EECFB3" transform="translate(215,17)"/>
<path d="M0 0 C4.72309219 0.76852843 6.6401144 3.3439649 9.4375 7.0625 C10.18824553 8.16566975 10.93166438 9.27385837 11.66796875 10.38671875 C23.01920302 27.36334346 40.80483192 39.02242882 59.875 45.6875 C60.99390625 46.08066406 62.1128125 46.47382813 63.265625 46.87890625 C81.18084926 52.25722148 100.83378591 50.81793217 118.875 46.6875 C120.54081266 46.34992472 122.20712264 46.01472165 123.875 45.6875 C125.61744847 53.03067571 126.71754224 60.16402453 127.875 67.6875 C104.775 67.6875 81.675 67.6875 57.875 67.6875 C57.875 72.9675 57.875 78.2475 57.875 83.6875 C60.12489746 83.59847412 62.37479492 83.50944824 64.69287109 83.41772461 C72.15531178 83.13510569 79.6179999 82.94791409 87.08438683 82.80669308 C91.60912026 82.71821557 96.12834286 82.59845897 100.64990234 82.4050293 C129.86346167 81.18753271 129.86346167 81.18753271 136.4078064 85.26593018 C140.09448753 89.15157008 141.76255768 93.56296605 143.21191406 98.64944458 C144.13303816 101.48060394 145.67022223 103.44558201 147.59765625 105.6875 C148.15138916 106.3573291 148.70512207 107.0271582 149.27563477 107.71728516 C149.82405029 108.36745605 150.37246582 109.01762695 150.9375 109.6875 C169.26419965 132.45454556 172.875 153.07079086 172.875 182.6875 C58.695 182.6875 -55.485 182.6875 -173.125 182.6875 C-173.125 149.71249469 -167.95553292 131.43042728 -148.76953125 106.64453125 C-143.0213962 99.15513671 -138.93103464 92.09806063 -134.125 83.6875 C-109.045 83.6875 -83.965 83.6875 -58.125 83.6875 C-58.125 78.4075 -58.125 73.1275 -58.125 67.6875 C-81.225 67.6875 -104.325 67.6875 -128.125 67.6875 C-126.89601624 60.31359742 -125.6455335 52.99900152 -124.125 45.6875 C-123.29097656 45.89246094 -122.45695312 46.09742188 -121.59765625 46.30859375 C-120.47230469 46.57800781 -119.34695312 46.84742188 -118.1875 47.125 C-117.08535156 47.39183594 -115.98320312 47.65867187 -114.84765625 47.93359375 C-88.42464195 53.28473935 -59.95273403 49.4468108 -37.125 34.6875 C-28.27489693 28.53678656 -19.53953162 21.92537642 -13.546875 12.85546875 C-5.43251064 0.64953932 -5.43251064 0.64953932 0 0 Z " fill="#EECEB2" transform="translate(256.125,312.3125)"/>
<path d="M0 0 C9.57 0 19.14 0 29 0 C29 0.66 29 1.32 29 2 C27.56640625 3.41015625 27.56640625 3.41015625 25.5625 5.0625 C20.77658299 9.12068366 16.3885623 13.52000931 12 18 C13.47721422 21.45201639 15.43794001 23.64961936 18.125 26.25 C19.21167969 27.30960937 19.21167969 27.30960937 20.3203125 28.390625 C20.87460937 28.92171875 21.42890625 29.4528125 22 30 C27.9895832 25.0492605 33.4247848 19.65855182 38.875 14.125 C40.57845612 12.39619483 42.28406079 10.66950309 43.9921875 8.9453125 C44.73839355 8.18750488 45.48459961 7.42969727 46.25341797 6.64892578 C48 5 48 5 49 5 C49 36.02 49 67.04 49 99 C32.83 99 16.66 99 0 99 C0 66.33 0 33.66 0 0 Z " fill="#EFCFB3" transform="translate(446,396)"/>
<path d="M0 0 C9.57 0 19.14 0 29 0 C29 32.67 29 65.34 29 99 C12.83 99 -3.34 99 -20 99 C-20 67.98 -20 36.96 -20 5 C-15.85561068 8.5523337 -11.96953969 11.90653245 -8.16015625 15.7421875 C-7.32548828 16.58007812 -6.49082031 17.41796875 -5.63085938 18.28125 C-4.78330078 19.1371875 -3.93574219 19.993125 -3.0625 20.875 C-2.18787109 21.75414062 -1.31324219 22.63328125 -0.41210938 23.5390625 C1.72757048 25.6904346 3.86486597 27.84411792 6 30 C7.11677492 29.05052441 8.23244654 28.09975103 9.34765625 27.1484375 C9.96906494 26.61911621 10.59047363 26.08979492 11.23071289 25.54443359 C13.2481965 23.78334607 15.14412108 21.93011408 17 20 C15.68904236 17.10261071 14.28539071 15.03715911 12.03125 12.80078125 C11.46019531 12.23166016 10.88914062 11.66253906 10.30078125 11.07617188 C9.70652344 10.49416016 9.11226562 9.91214844 8.5 9.3125 C7.60861328 8.42208008 7.60861328 8.42208008 6.69921875 7.51367188 C3.63576084 4.37072395 3.63576084 4.37072395 0 2 C0 1.34 0 0.68 0 0 Z " fill="#EFCFB3" transform="translate(37,396)"/>
<path d="M0 0 C6.14831001 3.44636211 10.50828405 8.27485215 12.7421875 14.9765625 C13.55747806 23.93311162 13.3453478 31.63169695 7.7421875 38.9765625 C1.87575728 44.75867031 -3.94914179 47.02339525 -12.1328125 47.3515625 C-18.88941828 47.20123011 -23.23728786 45.78394528 -28.1953125 41.17578125 C-34.17533151 34.75971919 -36.95505709 28.65536705 -36.6640625 19.81640625 C-35.5292628 11.88371992 -31.32863458 6.39080037 -25.3203125 1.3515625 C-17.91538849 -3.58505351 -8.04542258 -3.57203409 0 0 Z " fill="#030202" transform="translate(358.2578125,250.0234375)"/>
<path d="M0 0 C6.48903566 3.33816266 10.57732893 8.1337764 14.17578125 14.37109375 C16.29181376 21.42453544 16.32506533 27.66915604 13.23828125 34.43359375 C10.65510281 39.03077573 7.63636119 42.16235339 3.30078125 45.12109375 C2.41390625 45.73984375 1.52703125 46.35859375 0.61328125 46.99609375 C-6.27038744 49.33394349 -14.21210287 49.15143061 -20.890625 46.15234375 C-26.62193987 42.8843802 -30.60979275 39.02764468 -33.0390625 32.8125 C-34.88831515 25.27323918 -35.15782874 16.606459 -31.03125 9.796875 C-23.2983101 0.06833771 -12.10531131 -3.94167156 0 0 Z " fill="#030202" transform="translate(174.69921875,248.87890625)"/>
<path d="M0 0 C1.07926758 0.00273926 2.15853516 0.00547852 3.27050781 0.00830078 C14.37664588 0.1509394 26.7355529 0.66521096 37 5.3125 C36.52229477 7.25036085 36.04278429 9.18777674 35.5625 11.125 C35.29566406 12.20394531 35.02882813 13.28289062 34.75390625 14.39453125 C34.23922588 16.3865843 33.65062825 18.36061524 33 20.3125 C31.24967156 20.17066304 29.49974466 20.02386571 27.75 19.875 C26.77546875 19.79378906 25.8009375 19.71257812 24.796875 19.62890625 C22 19.3125 22 19.3125 20.21972656 18.80322266 C14.96767878 17.64213422 9.35352413 18.12766344 4 18.125 C2.73542969 18.11275391 1.47085938 18.10050781 0.16796875 18.08789062 C-7.76875979 18.07562997 -15.22925018 18.70109805 -23 20.3125 C-24.27230469 20.57289063 -25.54460937 20.83328125 -26.85546875 21.1015625 C-36.27848629 23.46560207 -44.56806601 27.14374069 -53.23535156 31.46191406 C-55.44743224 32.52816878 -57.70315608 33.44559782 -60 34.3125 C-61.15330947 32.73460402 -62.29737927 31.1499518 -63.4375 29.5625 C-64.07558594 28.68078125 -64.71367187 27.7990625 -65.37109375 26.890625 C-66.8275081 24.58550875 -67.55931821 22.96900428 -68 20.3125 C-54.07107888 11.17164551 -39.18475363 5.84079618 -23 2.3125 C-22.14229004 2.12486084 -21.28458008 1.93722168 -20.40087891 1.74389648 C-13.56456107 0.36769095 -6.96474438 -0.03612646 0 0 Z " fill="#040403" transform="translate(345,131.6875)"/>
<path d="M0 0 C-1.3255581 3.62276315 -2.94346955 6.63505348 -5.125 9.8125 C-5.66382813 10.60269531 -6.20265625 11.39289063 -6.7578125 12.20703125 C-7.16773438 12.79871094 -7.57765625 13.39039063 -8 14 C-12.04323098 12.45718818 -15.86897335 10.59835482 -19.75 8.6875 C-42.57363358 -2.17913918 -68.4539117 -4.93664996 -93.29296875 -0.4375 C-95.91535575 -0.01367988 -98.34927207 0.077535 -101 0 C-101.48212214 -1.56159059 -101.96055873 -3.12431928 -102.4375 -4.6875 C-102.70433594 -5.55761719 -102.97117188 -6.42773438 -103.24609375 -7.32421875 C-103.96344529 -9.87025921 -104.517541 -12.4003423 -105 -15 C-74.79800098 -26.86507105 -25.46363297 -20.9815139 0 0 Z " fill="#040303" transform="translate(235,152)"/>
<path d="M0 0 C2.31 4.95 4.62 9.9 7 15 C-3.28430567 21.97863599 -3.28430567 21.97863599 -6.09375 22.0625 C-8.99208661 20.44703369 -10.38055088 18.14820123 -12.25 15.4375 C-13.30960937 13.91962891 -13.30960937 13.91962891 -14.390625 12.37109375 C-14.92171875 11.58863281 -15.4528125 10.80617187 -16 10 C-13.19680829 7.00123678 -10.40565083 4.83677273 -6.875 2.75 C-6.00617188 2.22921875 -5.13734375 1.7084375 -4.2421875 1.171875 C-2 0 -2 0 0 0 Z " fill="#070605" transform="translate(304,175)"/>
<path d="M0 0 C0 5.28 0 10.56 0 16 C-9.57142857 18.28571429 -9.57142857 18.28571429 -14 18 C-16.62875405 12.62819824 -17.6083965 7.95507399 -18 2 C-11.78234718 0.1577325 -6.48722238 -0.18020062 0 0 Z " fill="#090807" transform="translate(339,166)"/>
<path d="M0 0 C11.5 5.5 11.5 5.5 16 10 C13.03 13.96 10.06 17.92 7 22 C1.58369945 20.64592486 -2.25213429 17.93618011 -7 15 C-3.535 7.575 -3.535 7.575 0 0 Z " fill="#070605" transform="translate(208,175)"/>
<path d="M0 0 C5.28 0 10.56 0 16 0 C16 5.61 16 11.22 16 17 C10.72 17 5.44 17 0 17 C0 11.39 0 5.78 0 0 Z " fill="#060505" transform="translate(248,363)"/>
<path d="M0 0 C5.28 0 10.56 0 16 0 C16 5.61 16 11.22 16 17 C10.72 17 5.44 17 0 17 C0 11.39 0 5.78 0 0 Z " fill="#060505" transform="translate(248,330)"/>
<path d="M0 0 C5.28 0 10.56 0 16 0 C16 5.61 16 11.22 16 17 C10.72 17 5.44 17 0 17 C0 11.39 0 5.78 0 0 Z " fill="#060505" transform="translate(248,231)"/>
<path d="M0 0 C5.28 0 10.56 0 16 0 C16 5.61 16 11.22 16 17 C10.72 17 5.44 17 0 17 C0 11.39 0 5.78 0 0 Z " fill="#060505" transform="translate(248,198)"/>
<path d="M0 0 C5.28 0 10.56 0 16 0 C16 5.61 16 11.22 16 17 C10.72 17 5.44 17 0 17 C0 11.39 0 5.78 0 0 Z " fill="#060505" transform="translate(248,165)"/>
<path d="M0 0 C5.28 0 10.56 0 16 0 C16 5.61 16 11.22 16 17 C10.72 17 5.44 17 0 17 C0 11.39 0 5.78 0 0 Z " fill="#060505" transform="translate(248,132)"/>
<path d="M0 0 C0.91657981 5.38490641 1.11138159 10.54230189 1 16 C-0.56116819 16.33951619 -2.12401338 16.67132544 -3.6875 17 C-4.55761719 17.185625 -5.42773438 17.37125 -6.32421875 17.5625 C-8.93712964 17.98972047 -11.35813038 18.07616201 -14 18 C-14.69821417 15.89936424 -15.38324472 13.79434263 -16.0625 11.6875 C-16.44535156 10.51574219 -16.82820312 9.34398437 -17.22265625 8.13671875 C-18 5 -18 5 -17 2 C-11.25642463 0.05128693 -6.02685217 -0.25111884 0 0 Z " fill="#070605" transform="translate(156,166)"/>
<path d="M0 0 C5.91260345 -0.25706972 11.23918159 0.7017874 17 2 C18.31225809 5.93677426 17.3393954 7.7794262 16.0625 11.6875 C15.68222656 12.86699219 15.30195313 14.04648438 14.91015625 15.26171875 C14.60980469 16.16535156 14.30945313 17.06898438 14 18 C11.87465341 17.85930804 9.74972471 17.71229079 7.625 17.5625 C6.44164062 17.48128906 5.25828125 17.40007812 4.0390625 17.31640625 C1 17 1 17 -1 16 C-1.11138159 10.54230189 -0.91657981 5.38490641 0 0 Z " fill="#060504" transform="translate(356,166)"/>
<path d="M0 0 C9 0 9 0 13 1 C13.763125 1.185625 14.52625 1.37125 15.3125 1.5625 C16.1478125 1.7790625 16.1478125 1.7790625 17 2 C18.31534494 5.65857532 17.65468309 8.08026481 16.5625 11.75 C16.27503906 12.73484375 15.98757812 13.7196875 15.69140625 14.734375 C15.46324219 15.48203125 15.23507813 16.2296875 15 17 C9.50501181 18.41582579 5.46932937 17.23971466 0 16 C0 10.72 0 5.44 0 0 Z " fill="#060505" transform="translate(173,166)"/>
<path d="M0 0 C5.28 0 10.56 0 16 0 C16 5.28 16 10.56 16 16 C10.72 16 5.44 16 0 16 C0 10.72 0 5.44 0 0 Z " fill="#000000" transform="translate(248,463)"/>
<path d="M0 0 C5.28 0 10.56 0 16 0 C16 5.28 16 10.56 16 16 C10.72 16 5.44 16 0 16 C0 10.72 0 5.44 0 0 Z " fill="#000000" transform="translate(248,430)"/>
<path d="M0 0 C5.28 0 10.56 0 16 0 C16 5.28 16 10.56 16 16 C10.72 16 5.44 16 0 16 C0 10.72 0 5.44 0 0 Z " fill="#010101" transform="translate(248,397)"/>
<path d="M0 0 C5.28 0 10.56 0 16 0 C16 5.28 16 10.56 16 16 C10.72 16 5.44 16 0 16 C0 10.72 0 5.44 0 0 Z " fill="#010101" transform="translate(248,99)"/>
<path d="M0 0 C5.28 0 10.56 0 16 0 C16 5.28 16 10.56 16 16 C10.72 16 5.44 16 0 16 C0 10.72 0 5.44 0 0 Z " fill="#000000" transform="translate(248,66)"/>
<path d="M0 0 C5.28 0 10.56 0 16 0 C16 5.28 16 10.56 16 16 C10.72 16 5.44 16 0 16 C0 10.72 0 5.44 0 0 Z " fill="#000000" transform="translate(248,33)"/>
<path d="M0 0 C3.71317907 1.14770989 5.2692056 1.85342428 7.4375 5.0625 C8.07674557 8.8180677 7.72758409 10.54034863 5.875 13.875 C2.65216844 16.76728473 0.74942698 17.21379568 -3.5625 17.0625 C-6.5 15.0625 -6.5 15.0625 -8.5625 12.0625 C-9.36035988 7.59448469 -9.07984028 5.81499495 -6.5 2.0625 C-3.5625 0.0625 -3.5625 0.0625 0 0 Z " fill="#C79871" transform="translate(347.5625,263.9375)"/>
<path d="M0 0 C3.70114011 0.94901028 5.17604576 2.58819002 7.4375 5.625 C8.0625 9.125 8.0625 9.125 7.4375 12.625 C4.99554571 16.00064269 3.5144435 17.37820045 -0.5625 18.3125 C-4.91571372 17.31488852 -6.22195491 15.34233632 -8.5625 11.625 C-9.25 8.5625 -9.25 8.5625 -8.5625 5.625 C-5.86086991 2.73488409 -3.87821714 0.94590662 0 0 Z " fill="#C79871" transform="translate(165.5625,263.375)"/>
</svg>
