<?xml version="1.0" encoding="UTF-8"?>
<svg version="1.1" xmlns="http://www.w3.org/2000/svg" width="512" height="512">
<path d="M0 0 C1.22176941 -0.01283524 2.44353882 -0.02567047 3.70233154 -0.03889465 C5.04276118 -0.04706329 6.3831954 -0.05450679 7.72363281 -0.0612793 C8.39832863 -0.06535482 9.07302444 -0.06943035 9.76816559 -0.07362938 C13.34120884 -0.09449245 16.91421369 -0.1087915 20.48730469 -0.11816406 C24.1705452 -0.12921237 27.85317887 -0.1635922 31.53620529 -0.20333576 C34.37417693 -0.22953961 37.21200502 -0.23785931 40.05008698 -0.24144554 C42.06527826 -0.24865989 44.08037128 -0.27508576 46.09539795 -0.30183411 C51.14578225 -0.28986432 55.12125237 -0.2669095 59.80664062 1.70361328 C66.72465489 8.92306141 66.77659981 16.17147325 66.78613281 25.86450195 C66.80266907 27.16274902 66.81920532 28.46099609 66.83624268 29.79858398 C66.87966289 33.22455788 66.89985817 36.65027699 66.91497803 40.07647705 C66.93464152 43.58279328 66.97660054 47.08883796 67.01660156 50.5949707 C67.09162811 57.45554478 67.14208555 64.31610833 67.17675781 71.17700195 C67.67653641 70.8377066 68.176315 70.49841125 68.6912384 70.14883423 C71.00244809 68.58346884 73.31807185 67.02475311 75.63378906 65.46606445 C76.41951294 64.93247314 77.20523682 64.39888184 78.01477051 63.84912109 C87.46398475 57.5043366 97.16831691 52.21545298 108.17675781 49.17700195 C108.15581055 47.9967041 108.13486328 46.81640625 108.11328125 45.6003418 C108.04068012 41.20593478 107.9948851 36.81158042 107.95703125 32.41674805 C107.93696152 30.5175687 107.9096993 28.61845081 107.875 26.71948242 C107.82627672 23.98381356 107.80374274 21.24896425 107.78613281 18.51293945 C107.76548767 17.66895599 107.74484253 16.82497253 107.72357178 15.95541382 C107.72153206 10.55187093 108.47424222 7.39072702 112.17675781 3.17700195 C117.72219388 -1.31453423 124.55498838 -0.30762858 131.32348633 -0.26904297 C133.60427184 -0.2605353 135.88254764 -0.2893127 138.16308594 -0.32104492 C139.62467373 -0.32265737 141.08626593 -0.32207857 142.54785156 -0.3190918 C144.52676392 -0.32187134 144.52676392 -0.32187134 146.5456543 -0.32470703 C150.75384923 0.25673858 152.89204448 1.53408371 156.17675781 4.17700195 C159.90872306 9.19585177 160.30577861 14.01794669 160.27441406 20.1340332 C160.27119141 21.24584961 160.26796875 22.35766602 160.26464844 23.50317383 C160.25626953 24.65366211 160.24789063 25.80415039 160.23925781 26.98950195 C160.23474609 28.15932617 160.23023438 29.32915039 160.22558594 30.53442383 C160.21382724 33.41530518 160.19589256 36.29616015 160.17675781 39.17700195 C167.10675781 39.17700195 174.03675781 39.17700195 181.17675781 39.17700195 C181.15355469 37.45352539 181.13035156 35.73004883 181.10644531 33.9543457 C181.08768034 31.67440213 181.06948093 29.39445386 181.05175781 27.11450195 C181.035 25.98077148 181.01824219 24.84704102 181.00097656 23.67895508 C180.91993906 9.78102359 180.91993906 9.78102359 185.61425781 4.36450195 C190.04700362 0.58045065 192.82417515 -0.14063464 198.47753906 -0.15893555 C199.19153366 -0.16559235 199.90552826 -0.17224915 200.64115906 -0.17910767 C202.15161568 -0.18922622 203.66211694 -0.19392493 205.17260742 -0.19360352 C207.47097609 -0.19796337 209.76740247 -0.23424918 212.06542969 -0.2722168 C213.53612628 -0.27808808 215.00683195 -0.28205539 216.47753906 -0.28393555 C217.1589949 -0.29830658 217.84045074 -0.31267761 218.54255676 -0.32748413 C223.54525467 -0.28016576 226.37649739 0.97017868 230.17675781 4.17700195 C233.35790113 8.1336666 233.5335398 11.2290797 233.46972656 16.2277832 C233.46548172 16.88658981 233.46123688 17.54539642 233.4568634 18.22416687 C233.44016977 20.3130408 233.40253839 22.40092334 233.36425781 24.48950195 C233.34919878 25.91201399 233.33551251 27.33454126 233.32324219 28.75708008 C233.29029785 32.23070546 233.23858189 35.70375682 233.17675781 39.17700195 C234.11358398 39.12201538 234.11358398 39.12201538 235.06933594 39.06591797 C237.93796155 38.91914244 240.80579668 38.8289912 243.67675781 38.73950195 C244.65902344 38.68084961 245.64128906 38.62219727 246.65332031 38.56176758 C252.20770191 38.43216534 255.51438601 38.85276502 259.83300781 42.5168457 C262.85368689 45.4595242 264.10295326 47.53430053 264.29701233 51.8535614 C264.29479172 52.93055801 264.29257111 54.00755463 264.2902832 55.1171875 C264.29020767 56.33822678 264.29013214 57.55926605 264.29005432 58.81730652 C264.28489304 60.1361232 264.27973175 61.45493988 264.27441406 62.8137207 C264.27254862 64.17706755 264.27112531 65.54041506 264.27012634 66.90376282 C264.26631114 70.48928686 264.25648936 74.0747703 264.24542236 77.66027832 C264.23518682 81.32014415 264.23062413 84.98001655 264.22558594 88.63989258 C264.2148662 95.81894753 264.19780174 102.99796905 264.17675781 110.17700195 C264.8420752 110.1612915 265.50739258 110.14558105 266.19287109 110.12939453 C269.22907901 110.06674598 272.26515053 110.02791686 275.30175781 109.98950195 C276.87183594 109.95179687 276.87183594 109.95179687 278.47363281 109.91333008 C284.11593788 109.85976389 288.35773508 109.87029042 293.17675781 113.17700195 C297.16340798 117.59464133 298.29919168 120.02648231 298.35375977 125.90844727 C298.366595 127.11019592 298.37943024 128.31194458 298.39265442 129.55010986 C298.40373482 131.50784332 298.40373482 131.50784332 298.41503906 133.50512695 C298.41911459 134.16879021 298.42319012 134.83245346 298.42738914 135.51622772 C298.44825178 139.03091623 298.46255096 142.5455657 298.47192383 146.06030273 C298.48297146 149.68301371 298.51735056 153.30510758 298.55709553 156.92760086 C298.58330224 159.71924952 298.59161933 162.51075228 298.59520531 165.30251312 C298.60241838 167.28446715 298.62884312 169.26632129 298.65559387 171.24810791 C298.62810441 182.65855428 298.62810441 182.65855428 294.17675781 187.17700195 C289.09375689 191.70131708 284.67106371 191.7776154 278.18457031 191.78637695 C277.23863007 191.80291321 276.29268982 191.81944946 275.31808472 191.83648682 C272.31257569 191.88486511 269.30757229 191.90631533 266.30175781 191.92700195 C264.25746168 191.95517011 262.213189 191.98509872 260.16894531 192.0168457 C255.17159112 192.09062152 250.17451594 192.14025839 245.17675781 192.17700195 C245.65750763 192.65299332 246.13825745 193.12898468 246.63357544 193.61940002 C247.26415863 194.2462822 247.89474182 194.87316437 248.54443359 195.51904297 C249.48212082 196.44959251 249.48212082 196.44959251 250.43875122 197.39894104 C274.40182647 221.91427237 283.0136039 261.58667549 283.67285156 294.6809082 C283.02304967 297.95038387 281.79050105 299.16824811 279.17675781 301.17700195 C278.18675781 301.17700195 277.19675781 301.17700195 276.17675781 301.17700195 C276.34175781 302.06387695 276.50675781 302.95075195 276.67675781 303.86450195 C277.51737555 309.59491022 277.25492591 315.40124777 277.17675781 321.17700195 C277.77488281 321.25950195 278.37300781 321.34200195 278.98925781 321.42700195 C281.92873553 322.43482289 282.72337567 323.43828498 284.17675781 326.17700195 C288.04331068 372.75688099 257.79479448 425.0742102 229.17675781 459.17700195 C226.88566295 461.80642864 224.56631267 464.40042919 222.20410156 466.96606445 C220.41532441 468.91683106 218.69832662 470.9068059 216.98925781 472.92700195 C201.34024067 490.82715382 183.40897926 507.92659214 159.17675781 512.17700195 C134.38288362 513.72529952 115.67564449 508.67300676 96.17675781 493.17700195 C95.33757812 492.52860352 94.49839844 491.88020508 93.63378906 491.2121582 C88.35188097 487.07671078 83.33898458 482.69924645 78.40332031 478.1574707 C74.03678122 474.27354909 70.37057517 472.44223309 64.73925781 470.86450195 C57.19598453 468.62478419 50.21002625 465.73017263 43.17675781 462.17700195 C42.26667969 461.72711914 41.35660156 461.27723633 40.41894531 460.8137207 C27.83126791 454.2996894 16.99885113 445.66233254 6.88037109 435.8293457 C5.7134389 434.69753184 4.53955728 433.5728516 3.35986328 432.4543457 C-6.48911188 423.11590611 -14.9053191 413.19134994 -22.82324219 402.17700195 C-23.24831055 401.59176758 -23.67337891 401.0065332 -24.11132812 400.40356445 C-55.55501649 356.94854015 -76.37247576 306.2890265 -68.82324219 252.17700195 C-68.50481171 250.84003115 -68.17535827 249.50549853 -67.82324219 248.17700195 C-68.520625 247.93208008 -69.21800781 247.6871582 -69.93652344 247.43481445 C-73.26918463 245.98269415 -76.02456011 244.12192692 -79.01074219 242.05200195 C-82.60722417 239.20970861 -82.60722417 239.20970861 -86.82324219 238.17700195 C-88.55291482 240.40940539 -88.55291482 240.40940539 -90.34277344 243.28637695 C-91.03564453 244.35114258 -91.72851562 245.4159082 -92.44238281 246.51293945 C-93.89596686 248.77140062 -95.34462427 251.03298631 -96.79394531 253.29418945 C-97.49068359 254.36411133 -98.18742187 255.4340332 -98.90527344 256.53637695 C-99.53667236 257.52089844 -100.16807129 258.50541992 -100.81860352 259.51977539 C-103.33811325 262.85948359 -106.07324086 265.30200129 -109.82324219 267.17700195 C-114.97230403 267.69022544 -119.42878565 267.79676041 -124.19824219 265.67700195 C-129.84514241 260.29900174 -133.1257161 252.88827267 -136.61352539 245.99804688 C-137.06291977 245.11721939 -137.51231415 244.23639191 -137.97532654 243.32887268 C-139.44647776 240.44087331 -140.91119544 237.54969426 -142.37402344 234.6574707 C-142.87693594 233.6635412 -143.37984844 232.6696117 -143.89800072 231.64556313 C-146.55527803 226.39009431 -149.2064763 221.13160291 -151.85375977 215.87109375 C-154.03865457 211.53251111 -156.23601118 207.20060135 -158.44458008 202.87402344 C-161.12188916 197.62907283 -163.77731787 192.37358889 -166.41756248 187.10988808 C-167.42315303 185.11393658 -168.43622564 183.12173558 -169.45705605 181.13353539 C-170.88568059 178.34709059 -172.28567373 175.54790442 -173.67993164 172.74414062 C-174.10221039 171.93598907 -174.52448914 171.12783752 -174.95956421 170.29519653 C-177.89361009 164.2879699 -178.68065858 158.83758649 -177.82324219 152.17700195 C-175.68677693 147.74581476 -173.44746697 144.94798166 -168.82324219 143.17700195 C-162.8537038 141.74812308 -158.1402663 142.61737882 -152.85766602 145.74707031 C-150.07697303 147.52355269 -147.35213752 149.37301233 -144.63720703 151.24829102 C-141.15684464 153.63375543 -137.64191361 155.96456824 -134.12402344 158.29418945 C-126.67471042 163.23178878 -119.24483976 168.19786374 -111.82324219 173.17700195 C-106.95561542 166.59112468 -102.28872973 159.98676746 -98.07128906 152.96801758 C-95.36130971 148.60934404 -92.44090836 145.48583504 -87.82324219 143.17700195 C-82.72603761 142.66894725 -78.24881484 142.55835722 -73.51074219 144.61450195 C-67.43453405 150.40809576 -63.68197405 158.02400502 -60.08105469 165.5168457 C-59.66781952 166.36501358 -59.25458435 167.21318146 -58.8288269 168.08705139 C-57.96706341 169.8594124 -57.10845639 171.63331146 -56.25292969 173.40869141 C-54.93807779 176.13558205 -53.6118962 178.85674609 -52.28417969 181.57739258 C-51.44497208 183.30688731 -50.60640661 185.03669381 -49.76855469 186.7668457 C-49.37177521 187.58136703 -48.97499573 188.39588837 -48.56619263 189.23509216 C-48.20516449 189.9867012 -47.84413635 190.73831024 -47.47216797 191.51269531 C-47.15273224 192.17393906 -46.83329651 192.8351828 -46.50418091 193.51646423 C-45.82324219 195.17700195 -45.82324219 195.17700195 -45.82324219 197.17700195 C-45.18386719 196.53762695 -44.54449219 195.89825195 -43.88574219 195.23950195 C-43.42167969 194.7805957 -42.95761719 194.32168945 -42.47949219 193.84887695 C-41.29211358 192.65029666 -40.12788599 191.42861011 -38.97949219 190.19262695 C-34.46279223 185.43997998 -29.70376002 181.42028722 -24.38574219 177.61450195 C-23.77029541 177.17275635 -23.15484863 176.73101074 -22.52075195 176.27587891 C-18.08841512 173.17700195 -18.08841512 173.17700195 -15.82324219 173.17700195 C-15.82768341 172.27355545 -15.83212463 171.37010895 -15.83670044 170.43928528 C-15.87679432 161.92020669 -15.90723535 153.40115985 -15.92686653 144.88200855 C-15.93729843 140.50235274 -15.9514468 136.12277497 -15.97412109 131.74316406 C-15.99587063 127.5156598 -16.00781529 123.28823056 -16.01299667 119.06067467 C-16.01668863 117.44875597 -16.02389812 115.83684132 -16.0347023 114.22495461 C-16.04924534 111.96514679 -16.05121897 109.70564796 -16.05029297 107.44580078 C-16.05473419 106.16006668 -16.05917542 104.87433258 -16.06375122 103.54963684 C-15.82351433 100.18081824 -15.61750102 98.03912062 -13.82324219 95.17700195 C-11.84324219 94.51700195 -9.86324219 93.85700195 -7.82324219 93.17700195 C-7.82324219 86.90700195 -7.82324219 80.63700195 -7.82324219 74.17700195 C-9.47324219 73.84700195 -11.12324219 73.51700195 -12.82324219 73.17700195 C-15.59579007 69.73595666 -16.20039154 67.04167068 -16.21142578 62.6875 C-16.22088226 61.61255783 -16.23033875 60.53761566 -16.24008179 59.43009949 C-16.23097275 57.70186699 -16.23097275 57.70186699 -16.22167969 55.9387207 C-16.22598495 54.14661919 -16.22598495 54.14661919 -16.2303772 52.3183136 C-16.23241714 49.79244513 -16.22689224 47.26656084 -16.21435547 44.74072266 C-16.1983442 40.88904117 -16.21418576 37.03841584 -16.23339844 33.18676758 C-16.23141517 30.72908298 -16.22756976 28.27139904 -16.22167969 25.8137207 C-16.22775238 24.6676384 -16.23382507 23.52155609 -16.24008179 22.34074402 C-16.18405555 15.91607436 -15.64825548 10.9860357 -12.82324219 5.17700195 C-8.49627894 1.06111009 -5.86885414 0.05354994 0 0 Z " fill="#020101" transform="translate(195.8232421875,-0.177001953125)"/>
<path d="M0 0 C0.83615341 -0.00960754 1.67230682 -0.01921509 2.53379822 -0.02911377 C3.8929409 -0.03548859 3.8929409 -0.03548859 5.27954102 -0.04199219 C6.22668472 -0.04769226 7.17382843 -0.05339233 8.14967346 -0.05926514 C10.16633997 -0.06872554 12.18302201 -0.07525323 14.19970703 -0.07910156 C17.21294542 -0.08864392 20.22545202 -0.11958528 23.23852539 -0.15136719 C50.04383188 -0.29761938 79.0571322 3.63475553 99.84594727 22.16113281 C100.5046582 22.67933594 101.16336914 23.19753906 101.84204102 23.73144531 C121.03010886 39.2165527 129.60422205 64.76047424 133.84594727 88.16113281 C134.11858398 89.59585938 134.11858398 89.59585938 134.39672852 91.05957031 C135.21689569 95.62996756 135.86476471 100.18392379 136.30688477 104.80566406 C136.42664673 106.02334473 136.42664673 106.02334473 136.54882812 107.265625 C136.70277022 108.87841271 136.84462501 110.49240946 136.97314453 112.10742188 C137.27133378 116.2908975 137.27133378 116.2908975 139.25048828 119.85620117 C141.08691912 121.35822456 142.52887294 121.76163724 144.84594727 122.16113281 C146.08434325 128.81751124 145.93733863 135.40832641 145.84594727 142.16113281 C144.71157227 142.61488281 143.57719727 143.06863281 142.40844727 143.53613281 C138.79873035 144.73209087 138.79873035 144.73209087 137.84594727 147.16113281 C137.65150992 149.21540566 137.46237281 151.27034814 137.30297852 153.32763672 C133.51528432 200.59341495 110.03378738 244.33384346 78.10766602 278.71582031 C76.15545847 280.82649721 74.27288448 282.97340838 72.40844727 285.16113281 C61.6560032 297.47482169 50.06896295 308.72538634 34.84594727 315.16113281 C34.05961914 315.50144531 33.27329102 315.84175781 32.46313477 316.19238281 C20.09870248 320.71902243 5.14633412 319.1246582 -6.61035156 313.81958008 C-20.7986544 307.07882266 -32.73907889 296.80854807 -44.15405273 286.16113281 C-45.88254639 284.63953461 -47.61172093 283.11870956 -49.34155273 281.59863281 C-53.65371814 277.70097013 -57.47708081 273.65683407 -61.15405273 269.16113281 C-61.58443848 268.64309082 -62.01482422 268.12504883 -62.45825195 267.59130859 C-84.84857714 240.59098757 -100.66906003 209.97877987 -110.15405273 176.16113281 C-110.68772461 174.29134766 -110.68772461 174.29134766 -111.23217773 172.38378906 C-121.83130018 134.06084259 -125.09770645 90.30690198 -105.08349609 54.38500977 C-92.16615781 32.2801264 -70.90911956 13.78649882 -45.90795898 6.93847656 C-38.37271472 5.02581789 -30.92500286 3.65452647 -23.15405273 3.16113281 C5.95320579 49.44975922 5.95320579 49.44975922 2.84594727 67.16113281 C1.29755581 69.42907088 -0.20160385 71.32786509 -2.02905273 73.34863281 C-2.55426514 73.94377686 -3.07947754 74.5389209 -3.62060547 75.15209961 C-13.60438155 86.29382829 -24.1259929 97.28234379 -35.98999023 106.43457031 C-40.64148812 109.96135285 -40.64148812 109.96135285 -42.65405273 115.16113281 C-42.36782256 118.22689119 -42.36782256 118.22689119 -40.46655273 120.53613281 C-37.63616104 122.52505671 -36.55545599 122.60242274 -33.15405273 122.16113281 C-30.50507017 120.52187551 -30.50507017 120.52187551 -27.96655273 118.22363281 C-26.99459961 117.38832031 -26.02264648 116.55300781 -25.02124023 115.69238281 C-24.07506836 114.85707031 -23.12889648 114.02175781 -22.15405273 113.16113281 C-21.01323242 112.18660156 -21.01323242 112.18660156 -19.84936523 111.19238281 C-10.83664016 103.33353604 -2.55944917 94.65583144 5.84594727 86.16113281 C12.16927242 92.48445797 9.48225334 111.26153515 9.71557617 119.68505859 C9.83593876 122.89427672 10.0475981 126.08073526 10.29516602 129.28222656 C11.12951588 142.34314158 11.12951588 142.34314158 7.74438477 147.13769531 C4.90491934 149.46525712 2.00186723 151.29170252 -1.15405273 153.16113281 C-2.83766336 154.55419738 -4.48494661 155.99242034 -6.09155273 157.47363281 C-6.89850586 158.20839844 -7.70545898 158.94316406 -8.53686523 159.70019531 C-11.55737576 162.54037685 -14.52543088 165.42652976 -17.46655273 168.34863281 C-18.2040979 169.0791687 -18.2040979 169.0791687 -18.95654297 169.82446289 C-19.430354 170.30036865 -19.90416504 170.77627441 -20.39233398 171.26660156 C-20.86268066 171.73565918 -21.33302734 172.2047168 -21.81762695 172.68798828 C-23.19704215 174.13253281 -23.19704215 174.13253281 -24.26000977 175.84130859 C-25.94515439 178.35158789 -27.37413576 179.98337469 -30.36816406 180.66577148 C-33.07157983 180.82640886 -35.69885794 180.78254408 -38.40405273 180.66113281 C-39.30768555 180.65082031 -40.21131836 180.64050781 -41.14233398 180.62988281 C-46.33525265 180.51033361 -51.14809839 179.89984062 -56.17871094 178.60546875 C-59.22169721 177.92097549 -62.05950343 177.90851654 -65.15405273 178.16113281 C-67.74741178 180.75449186 -67.43131837 182.64860313 -67.51733398 186.18847656 C-67.03529429 188.80600395 -66.28437579 189.58057055 -64.15405273 191.16113281 C-56.13109346 194.14108911 -47.63420894 194.76448034 -39.15405273 195.16113281 C-40.09590226 198.06304756 -41.05419581 200.92060154 -42.22436523 203.73925781 C-44.71183288 210.04084251 -45.52767203 215.70366394 -45.52905273 222.41113281 C-45.53122803 223.5272998 -45.53122803 223.5272998 -45.53344727 224.66601562 C-45.43266456 229.76403535 -44.73498987 234.30160792 -43.15405273 239.16113281 C-40.25943372 241.52252583 -40.25943372 241.52252583 -36.59155273 240.97363281 C-32.89579521 240.51273519 -32.89579521 240.51273519 -31.15405273 237.16113281 C-30.92728761 234.98461541 -30.92728761 234.98461541 -31.06420898 232.59082031 C-31.08418945 231.69363281 -31.10416992 230.79644531 -31.12475586 229.87207031 C-31.18520019 228.00472616 -31.25018716 226.13752263 -31.32006836 224.27050781 C-31.71955683 204.9297555 -18.2889418 189.75618617 -5.66577148 176.42285156 C-4.54205442 175.26803973 -3.413343 174.11806106 -2.27905273 172.97363281 C-1.76850342 172.45752441 -1.2579541 171.94141602 -0.73193359 171.40966797 C2.86276037 167.883084 6.69263551 165.00807708 10.84594727 162.16113281 C11.12224369 165.68155606 11.39075625 169.20254544 11.65844727 172.72363281 C11.74755371 173.87428223 11.83666016 175.02493164 11.9284668 176.21044922 C12.47622864 183.49447686 12.94652247 190.77763012 13.33628845 198.07194519 C13.56410743 202.32636071 13.80509675 206.58000321 14.04574585 210.83370972 C14.16242511 212.96643417 14.27248634 215.09953111 14.37588501 217.23294067 C14.5237356 220.27005909 14.69439294 223.30516148 14.86938477 226.34082031 C14.92733971 227.71588493 14.92733971 227.71588493 14.98646545 229.11872864 C15.30845665 234.27286629 15.79897197 237.53341785 19.84594727 241.16113281 C23.34821479 241.5899819 25.50116565 241.27606002 28.84594727 240.16113281 C28.87539758 236.84865203 28.89289528 233.5362057 28.90844727 230.22363281 C28.91682617 229.29744141 28.92520508 228.37125 28.93383789 227.41699219 C28.95178783 222.30126011 28.70852416 217.35848379 28.07080078 212.28442383 C27.70996675 208.87706926 27.75257687 205.52524662 27.78344727 202.09863281 C27.7924707 200.78765625 27.80149414 199.47667969 27.81079102 198.12597656 C27.82819336 196.65837891 27.82819336 196.65837891 27.84594727 195.16113281 C46.13776117 200.12162472 62.08937852 213.79112887 72.37329102 229.49316406 C73.70829629 231.32985382 73.70829629 231.32985382 75.81860352 231.62207031 C80.30477096 231.609081 80.30477096 231.609081 83.84594727 229.16113281 C84.49814541 223.50077098 84.02863336 220.44948198 80.49511719 215.98803711 C80.01276611 215.42640869 79.53041504 214.86478027 79.03344727 214.28613281 C78.53498291 213.68389893 78.03651855 213.08166504 77.52294922 212.46118164 C64.11062067 196.60142489 47.9171667 187.61202011 29.12890625 179.56689453 C27.50384155 178.87104248 27.50384155 178.87104248 25.84594727 178.16113281 C25.81280426 177.13764236 25.77966125 176.11415192 25.74551392 175.05964661 C25.43056481 165.3654721 25.1073036 155.67160482 24.77611732 145.97797108 C24.60615499 140.99561188 24.43901774 136.01319279 24.27856445 131.03051758 C24.12331224 126.21270476 23.96034188 121.39520679 23.79224777 116.57782555 C23.72975953 114.74933555 23.66994915 112.92075181 23.61299515 111.09208107 C23.32434894 101.87928501 22.91898559 92.89356194 21.25350952 83.80253601 C20.85332649 81.20895745 20.77388679 78.78052569 20.84594727 76.16113281 C23.95014202 77.61334274 26.81504989 79.36787067 29.72021484 81.17993164 C30.33920654 81.56560303 30.95819824 81.95127441 31.59594727 82.34863281 C32.24265381 82.75299561 32.88936035 83.1573584 33.55566406 83.57397461 C37.76157784 86.12596234 41.8942066 88.01148518 46.51538086 89.68164062 C55.23242018 92.90311198 55.23242018 92.90311198 57.08422852 96.70019531 C57.47094727 99.59863281 57.47094727 99.59863281 57.58813477 102.71191406 C57.90329317 106.92835147 59.08198571 110.365396 60.59594727 114.28613281 C60.98943359 115.30839966 60.98943359 115.30839966 61.39086914 116.35131836 C63.99518025 122.87549603 66.96092542 129.32781386 72.02563477 134.30175781 C73.84594727 136.16113281 73.84594727 136.16113281 73.84594727 138.16113281 C74.65032227 138.53238281 74.65032227 138.53238281 75.47094727 138.91113281 C77.84594727 140.16113281 77.84594727 140.16113281 80.72094727 142.34863281 C83.71319936 144.45623821 83.71319936 144.45623821 87.09594727 144.03613281 C89.95506021 143.35830182 89.95506021 143.35830182 91.84594727 141.16113281 C92.23329559 138.10643468 92.45457459 136.10248056 91.84594727 133.16113281 C89.94084113 130.95522044 88.42407798 129.50378166 86.15844727 127.78613281 C80.63131488 123.18193409 77.42552655 118.97212723 74.84594727 112.16113281 C74.53141602 111.42636719 74.21688477 110.69160156 73.89282227 109.93457031 C72.34539613 106.17854506 71.71423228 103.18883834 71.84594727 99.16113281 C72.46638916 99.18208008 73.08683105 99.20302734 73.72607422 99.22460938 C76.53670045 99.30774687 79.34706823 99.35978342 82.15844727 99.41113281 C83.13491211 99.44464844 84.11137695 99.47816406 85.11743164 99.51269531 C86.05522461 99.52558594 86.99301758 99.53847656 87.95922852 99.55175781 C88.82330322 99.57270508 89.68737793 99.59365234 90.57763672 99.61523438 C92.98945565 99.3490566 92.98945565 99.3490566 94.65917969 97.36328125 C96.45148035 94.03751453 95.77086971 91.72869081 94.84594727 88.16113281 C91.15608219 85.70122276 88.00697956 85.6824808 83.72094727 85.34863281 C62.77794769 83.31045655 44.43703645 74.96289916 27.84594727 62.16113281 C27.28746094 61.74976074 26.72897461 61.33838867 26.15356445 60.91455078 C15.8362428 53.19265293 11.92669303 44.72580655 7.77416992 32.73486328 C6.28399273 28.6029727 4.51980482 24.6038451 2.72094727 20.59863281 C2.39118896 19.85935547 2.06143066 19.12007812 1.72167969 18.35839844 C-0.94616393 12.4562193 -3.89669653 6.76279841 -7.15405273 1.16113281 C-4.43290771 0.25408447 -2.80163521 0.0261178 0 0 Z " fill="#F07081" transform="translate(327.154052734375,178.8388671875)"/>
<path d="M0 0 C1.96027958 2.38149668 3.33069212 5.02089167 4.75 7.75 C5.17829102 8.55058838 5.60658203 9.35117676 6.04785156 10.17602539 C12.67404658 22.81284727 18.20431039 35.9143344 22.5625 49.5 C22.81418945 50.2830249 23.06587891 51.0660498 23.32519531 51.87280273 C25.67014371 59.54618243 25.67014371 59.54618243 25 63 C23.45160855 65.26793807 21.95244888 67.16673228 20.125 69.1875 C19.5997876 69.78264404 19.0745752 70.37778809 18.53344727 70.9909668 C8.54967119 82.13269548 -1.97194016 93.12121098 -13.8359375 102.2734375 C-18.48743539 105.80022004 -18.48743539 105.80022004 -20.5 111 C-20.21376982 114.06575838 -20.21376982 114.06575838 -18.3125 116.375 C-15.4821083 118.3639239 -14.40140325 118.44128993 -11 118 C-8.35101744 116.3607427 -8.35101744 116.3607427 -5.8125 114.0625 C-4.84054687 113.2271875 -3.86859375 112.391875 -2.8671875 111.53125 C-1.92101562 110.6959375 -0.97484375 109.860625 0 109 C1.14082031 108.02546875 1.14082031 108.02546875 2.3046875 107.03125 C11.31741257 99.17240322 19.59460356 90.49469863 28 82 C34.32332516 88.32332516 31.63630607 107.10040234 31.86962891 115.52392578 C31.98999149 118.73314391 32.20165083 121.91960245 32.44921875 125.12109375 C33.28356861 138.18200877 33.28356861 138.18200877 29.8984375 142.9765625 C27.05897207 145.3041243 24.15591996 147.1305697 21 149 C19.31638938 150.39306457 17.66910612 151.83128753 16.0625 153.3125 C15.25554687 154.04726563 14.44859375 154.78203125 13.6171875 155.5390625 C10.59667697 158.37924404 7.62862185 161.26539695 4.6875 164.1875 C3.94995483 164.91803589 3.94995483 164.91803589 3.19750977 165.66333008 C2.72369873 166.13923584 2.2498877 166.6151416 1.76171875 167.10546875 C1.29137207 167.57452637 0.82102539 168.04358398 0.33642578 168.52685547 C-1.04298941 169.9714 -1.04298941 169.9714 -2.10595703 171.68017578 C-3.79110166 174.19045508 -5.22008302 175.82224188 -8.21411133 176.50463867 C-10.9175271 176.66527605 -13.54480521 176.62141127 -16.25 176.5 C-17.15363281 176.4896875 -18.05726563 176.479375 -18.98828125 176.46875 C-24.18119991 176.34920079 -28.99404565 175.73870781 -34.0246582 174.44433594 C-37.06764447 173.75984267 -39.9054507 173.74738373 -43 174 C-45.59335905 176.59335905 -45.27726563 178.48747032 -45.36328125 182.02734375 C-44.88124155 184.64487114 -44.13032305 185.41943773 -42 187 C-33.97704073 189.9799563 -25.48015621 190.60334753 -17 191 C-17.94184952 193.90191474 -18.90014308 196.75946872 -20.0703125 199.578125 C-22.55778014 205.8797097 -23.37361929 211.54253113 -23.375 218.25 C-23.37717529 219.36616699 -23.37717529 219.36616699 -23.37939453 220.50488281 C-23.2109918 229.19135849 -23.2109918 229.19135849 -19.5 236.6875 C-19.005 237.120625 -18.51 237.55375 -18 238 C-17.73316406 238.72574219 -17.46632813 239.45148438 -17.19140625 240.19921875 C-15.74985655 243.58804213 -13.70996772 246.26615828 -11.4375 249.125 C-10.98552246 249.69919678 -10.53354492 250.27339355 -10.06787109 250.86499023 C-9.14375169 252.03594125 -8.21701169 253.20482906 -7.28759766 254.37158203 C-6.18733912 255.7630732 -5.11244115 257.17455392 -4.04296875 258.58984375 C7.47615616 273.44036527 21.6115382 287.19267119 37 298 C37.64904297 298.45616699 38.29808594 298.91233398 38.96679688 299.38232422 C47.52698883 305.52657858 47.52698883 305.52657858 57 310 C51.23244042 313.84503972 45.34960677 314.3406383 38.625 314.25 C37.86968994 314.24033203 37.11437988 314.23066406 36.33618164 314.22070312 C12.85661138 313.71385865 -5.59316247 297.30361915 -22 282 C-23.72849365 280.4784018 -25.4576682 278.95757675 -27.1875 277.4375 C-31.4996654 273.53983732 -35.32302807 269.49570126 -39 265 C-39.43038574 264.48195801 -39.86077148 263.96391602 -40.30419922 263.43017578 C-62.6945244 236.42985476 -78.5150073 205.81764705 -88 172 C-88.53367188 170.13021484 -88.53367188 170.13021484 -89.078125 168.22265625 C-99.67724745 129.89970978 -102.94365372 86.14576917 -82.92944336 50.22387695 C-70.03107051 28.15144831 -48.66688318 9.40806332 -23.61328125 2.77734375 C-19.42768089 1.74569428 -15.22878668 0.83717097 -11 0 C-9.94683594 -0.22042969 -8.89367187 -0.44085938 -7.80859375 -0.66796875 C-2.89039577 -1.24939688 -2.89039577 -1.24939688 0 0 Z " fill="#EB5368" transform="translate(305,183)"/>
<path d="M0 0 C6.93 0 13.86 0 21 0 C21.02578125 2.02382813 21.0515625 4.04765625 21.078125 6.1328125 C21.11987024 8.10875373 21.161756 10.08469462 21.20751953 12.06054688 C21.23561623 13.42598164 21.25688677 14.79157564 21.27099609 16.15722656 C21.29257982 18.12854038 21.3413546 20.09949631 21.390625 22.0703125 C21.4220459 23.84559326 21.4220459 23.84559326 21.45410156 25.65673828 C22.12203633 29.74739066 23.32412443 31.84608983 26 35 C32.15040163 39.07496411 38.7047638 38.48802195 45.79492188 38.44604492 C47.994438 38.43752155 50.19136394 38.46635511 52.390625 38.49804688 C53.80208256 38.499659 55.21354468 38.49908114 56.625 38.49609375 C57.89601563 38.49794678 59.16703125 38.4997998 60.4765625 38.50170898 C65.62708094 37.76831684 68.62999647 35.72679608 71.84301758 31.67700195 C73.2700321 28.37520533 73.43256617 25.76149592 73.51171875 22.16796875 C73.54716797 20.87568359 73.58261719 19.58339844 73.61914062 18.25195312 C73.64223681 16.89714066 73.66501935 15.54232282 73.6875 14.1875 C73.72069761 12.81311883 73.75518953 11.43876829 73.79101562 10.06445312 C73.87340757 6.70992393 73.93838234 3.35497509 74 0 C80.93 0 87.86 0 95 0 C95.05607422 2.92746094 95.05607422 2.92746094 95.11328125 5.9140625 C95.17894665 8.48439403 95.24539379 11.05470568 95.3125 13.625 C95.33505859 14.91019531 95.35761719 16.19539063 95.38085938 17.51953125 C95.41630859 18.76347656 95.45175781 20.00742187 95.48828125 21.2890625 C95.51446533 22.43068848 95.54064941 23.57231445 95.56762695 24.74853516 C96.06757935 28.50819973 96.92917074 30.81955299 99 34 C106.71498585 39.88648444 106.71498585 39.88648444 126 39 C126 57.48 126 75.96 126 95 C116.19087891 95.05607422 116.19087891 95.05607422 106.18359375 95.11328125 C102.01364671 95.1435962 97.84374053 95.17476712 93.67382812 95.20898438 C87.07106721 95.2630846 80.46838712 95.31420223 73.86547852 95.34643555 C68.53553173 95.3726544 63.20586011 95.41318493 57.87608528 95.46318626 C55.85381586 95.47973034 53.83149898 95.49132147 51.80917168 95.49761391 C26.29663873 95.58494311 3.69699135 100.67305314 -16 118 C-16.76183594 118.66644531 -17.52367187 119.33289063 -18.30859375 120.01953125 C-28.24358946 129.30022915 -34.23694236 140.28522356 -38.515625 153.015625 C-40 156 -40 156 -42.421875 157.484375 C-47.57049931 158.51409986 -50.81733773 156.10876964 -55.3125 153.6875 C-68.50394194 146.92558764 -81.40332798 145.33440257 -96 145 C-92.02096205 120.68365697 -76.52306562 98.50551817 -60 81 C-59.37738281 80.32453125 -58.75476563 79.6490625 -58.11328125 78.953125 C-45.21889364 65.43699543 -28.57068629 55.06474745 -11.17651367 48.41918945 C-6.87211089 46.70244968 -4.52245928 44.89057279 -2 41 C-0.71225554 37.13676662 -0.76617207 33.42509463 -0.68359375 29.39453125 C-0.6524221 28.13572395 -0.6524221 28.13572395 -0.62062073 26.85148621 C-0.55525982 24.17190706 -0.49630286 21.49223031 -0.4375 18.8125 C-0.39430198 16.99543263 -0.35068727 15.17837512 -0.30664062 13.36132812 C-0.19880832 8.90765066 -0.09963505 4.45389861 0 0 Z " fill="#F17081" transform="translate(319,15)"/>
<path d="M0 0 C1.95482902 2.38675701 3.33027928 5.02009786 4.75 7.75 C5.17829102 8.55058838 5.60658203 9.35117676 6.04785156 10.17602539 C12.67404658 22.81284727 18.20431039 35.9143344 22.5625 49.5 C22.81418945 50.2830249 23.06587891 51.0660498 23.32519531 51.87280273 C25.67014371 59.54618243 25.67014371 59.54618243 25 63 C23.45160855 65.26793807 21.95244888 67.16673228 20.125 69.1875 C19.5997876 69.78264404 19.0745752 70.37778809 18.53344727 70.9909668 C8.54967119 82.13269548 -1.97194016 93.12121098 -13.8359375 102.2734375 C-18.48743539 105.80022004 -18.48743539 105.80022004 -20.5 111 C-20.21376982 114.06575838 -20.21376982 114.06575838 -18.3125 116.375 C-15.4821083 118.3639239 -14.40140325 118.44128993 -11 118 C-8.35101744 116.3607427 -8.35101744 116.3607427 -5.8125 114.0625 C-4.84054687 113.2271875 -3.86859375 112.391875 -2.8671875 111.53125 C-1.92101562 110.6959375 -0.97484375 109.860625 0 109 C0.76054687 108.3503125 1.52109375 107.700625 2.3046875 107.03125 C11.31741257 99.17240322 19.59460356 90.49469863 28 82 C34.32332516 88.32332516 31.63630607 107.10040234 31.86962891 115.52392578 C31.98999149 118.73314391 32.20165083 121.91960245 32.44921875 125.12109375 C33.28356861 138.18200877 33.28356861 138.18200877 29.8984375 142.9765625 C27.05897207 145.3041243 24.15591996 147.1305697 21 149 C19.31638938 150.39306457 17.66910612 151.83128753 16.0625 153.3125 C15.25554687 154.04726563 14.44859375 154.78203125 13.6171875 155.5390625 C10.59667697 158.37924404 7.62862185 161.26539695 4.6875 164.1875 C3.94995483 164.91803589 3.94995483 164.91803589 3.19750977 165.66333008 C2.72369873 166.13923584 2.2498877 166.6151416 1.76171875 167.10546875 C1.05619873 167.80905518 1.05619873 167.80905518 0.33642578 168.52685547 C-1.04298941 169.9714 -1.04298941 169.9714 -2.10595703 171.68017578 C-3.79110166 174.19045508 -5.22008302 175.82224188 -8.21411133 176.50463867 C-10.9175271 176.66527605 -13.54480521 176.62141127 -16.25 176.5 C-17.15363281 176.4896875 -18.05726563 176.479375 -18.98828125 176.46875 C-24.18146448 176.3491947 -28.99842323 175.73863858 -34.03076172 174.45043945 C-37.10367385 173.74754795 -39.87496868 173.68749687 -43 174 C-44.81476003 175.39585785 -44.81476003 175.39585785 -46 177 C-46.66 177 -47.32 177 -48 177 C-50.95126002 168.70679446 -52.88729412 160.30327313 -54.625 151.6875 C-54.83084717 150.68146729 -55.03669434 149.67543457 -55.2487793 148.63891602 C-58.03718872 134.46196035 -59.38689638 120.6150983 -59.3125 106.1875 C-59.31067719 105.44709473 -59.30885437 104.70668945 -59.30697632 103.94384766 C-59.25926285 92.39314707 -58.63247645 81.27519743 -56 70 C-55.84966309 69.29166016 -55.69932617 68.58332031 -55.54443359 67.85351562 C-50.46424308 44.28311976 -38.40168895 23.47666416 -21.93359375 6.109375 C-19.96145677 4.15184781 -19.96145677 4.15184781 -19 2 C-16.015625 1.11328125 -16.015625 1.11328125 -12.25 0.3125 C-11.01765625 0.04050781 -9.7853125 -0.23148438 -8.515625 -0.51171875 C-2.85313377 -1.29817587 -2.85313377 -1.29817587 0 0 Z " fill="#F07081" transform="translate(305,183)"/>
<path d="M0 0 C0.91652344 0.36351562 1.83304687 0.72703125 2.77734375 1.1015625 C3.87755859 1.54628906 3.87755859 1.54628906 5 2 C2.09261942 5.1199485 -0.88606302 7.31350427 -4.5 9.5625 C-30.42996992 26.58595163 -46.61444024 53.49500462 -53.1171875 83.50390625 C-59.2683121 113.75673033 -56.45008427 145.47289945 -48 175 C-47.78617676 175.81299561 -47.57235352 176.62599121 -47.35205078 177.46362305 C-38.52032842 210.92100206 -23.28150475 241.1564909 -3 269 C-16.09793228 269 -33.58308169 249.71237191 -42.1875 241.1875 C-49.42915769 233.88596885 -55.95357344 226.30720138 -62 218 C-62.85649066 216.85005169 -63.71326433 215.70031411 -64.5703125 214.55078125 C-88.70701718 181.82795151 -109.25915307 141.0383324 -109.13037109 99.74389648 C-109.12496708 97.67489447 -109.13036539 95.60610517 -109.13671875 93.53710938 C-109.13542969 92.22935547 -109.13414062 90.92160156 -109.1328125 89.57421875 C-109.13168457 88.38401123 -109.13055664 87.19380371 -109.12939453 85.9675293 C-109 83 -109 83 -108 80 C-104.38018422 81.3221313 -101.43473053 82.97062346 -98.25 85.125 C-93.40199983 88.06842868 -89.60659362 89.24590969 -84 88 C-80.25473434 86.19672394 -78.45874584 84.67282723 -76.125 81.25 C-74.30990747 76.00639935 -74.17157573 71.27111934 -76.48461914 66.23364258 C-77.15252203 64.94572308 -77.83678327 63.66618612 -78.53515625 62.39453125 C-78.89266464 61.70743576 -79.25017303 61.02034027 -79.61851501 60.31242371 C-80.75126011 58.13734346 -81.90433313 55.97413798 -83.0625 53.8125 C-84.22338551 51.63978273 -85.37889482 49.46508313 -86.51719666 47.28044128 C-87.22267594 45.92662127 -87.94105961 44.57942629 -88.67384338 43.2401886 C-90.16214588 40.38598128 -91.03079627 38.44530473 -90.80615234 35.19702148 C-85.49062466 20.71051828 -67.83836197 10.22051076 -54.75 3.8125 C-37.98688953 -3.51767609 -17.55814299 -7.04912554 0 0 Z " fill="#E4374F" transform="translate(250,178)"/>
<path d="M0 0 C1.24016373 -0.00029205 2.48032745 -0.00058411 3.7580719 -0.00088501 C7.1273055 0.00026191 10.49628788 0.01022741 13.86547709 0.02426291 C17.39817456 0.03684498 20.9308761 0.03794662 24.46359253 0.04031372 C31.1392011 0.04650667 37.81474342 0.06288761 44.49032295 0.0830127 C52.09620489 0.10544009 59.70209016 0.11638226 67.30799699 0.12640357 C82.94089043 0.14725603 98.57369274 0.18390462 114.20654297 0.22705078 C114.20654297 17.05705078 114.20654297 33.88705078 114.20654297 51.22705078 C98.94736928 51.54792126 98.94736928 51.54792126 92.27294922 51.61767578 C87.77719441 51.66488954 83.28278165 51.71973111 78.78808594 51.83056641 C60.33255001 52.27352604 45.19888299 50.89848761 27.75793457 44.14459229 C14.38214292 39.33433737 -0.29428744 39.75334611 -14.30517578 39.8359375 C-17.52566324 39.85196224 -20.74488328 39.83602882 -23.96533203 39.81689453 C-37.0976667 39.80561547 -49.76451365 40.79898195 -62.72052002 42.95761108 C-64.79345703 43.22705078 -64.79345703 43.22705078 -68.79345703 43.22705078 C-64.16411543 28.05432832 -52.60220198 16.74726731 -39.12548828 8.94580078 C-26.27760621 2.31852281 -14.34225939 -0.08955328 0 0 Z " fill="#00CEF8" transform="translate(364.79345703125,124.77294921875)"/>
<path d="M0 0 C16.5 0 33 0 50 0 C50.36097928 18.06679034 50.36097928 18.06679034 50.43945312 25.81640625 C50.4930911 31.08824004 50.5562741 36.35865639 50.67895508 41.62939453 C50.77733276 45.88300621 50.83067734 50.13509689 50.85389519 54.38975906 C50.87042205 56.00614986 50.90269732 57.62246485 50.95157051 59.23820114 C51.18582655 67.30964465 51.30683581 73.51791928 45.60107422 79.87353516 C44.08657692 81.27012933 42.55519198 82.64886891 41 84 C28.77258026 98.4891085 17.75263621 118.70339173 14.0703125 137.359375 C13.85544189 138.39155151 13.85544189 138.39155151 13.63623047 139.44458008 C13.27530295 141.30693872 12.98640822 143.18285417 12.703125 145.05859375 C11 148 11 148 8.4274292 148.9434967 C6.92566132 149.30996559 6.92566132 149.30996559 5.39355469 149.68383789 C4.38798523 149.9357338 3.38241577 150.1876297 2.34637451 150.44715881 C1.57207092 150.62959641 0.79776733 150.812034 0 151 C-0.00586624 150.15475266 -0.01173248 149.30950531 -0.01777649 148.43864441 C-0.07564942 140.47795735 -0.14769474 132.51755248 -0.23571491 124.5571394 C-0.28046719 120.46446382 -0.31971232 116.3718889 -0.34643555 112.27905273 C-0.37242049 108.33016285 -0.412788 104.38165934 -0.46318626 100.43300819 C-0.47988771 98.92555861 -0.49138156 97.41804214 -0.49761391 95.91051292 C-0.5072199 93.80084989 -0.53523419 91.69218261 -0.56762695 89.58276367 C-0.57873001 88.38141281 -0.58983307 87.18006195 -0.60127258 85.94230652 C-0.76905598 83.03606578 -0.76905598 83.03606578 -2.27702332 81.15107727 C-4.2363604 79.70202186 -4.2363604 79.70202186 -8 79 C-8 72.4 -8 65.8 -8 59 C-6.02 58.34 -4.04 57.68 -2 57 C-0.99871302 55.20613298 -0.99871302 55.20613298 -1 53 C-0.94778793 52.177276 -0.89557587 51.354552 -0.84178162 50.50689697 C-0.81846519 49.10791168 -0.81846519 49.10791168 -0.79467773 47.68066406 C-0.77473251 46.61986633 -0.75478729 45.5590686 -0.73423767 44.46612549 C-0.70916893 42.75812775 -0.70916893 42.75812775 -0.68359375 41.015625 C-0.66281265 39.84489441 -0.64203156 38.67416382 -0.62062073 37.46795654 C-0.55524372 33.72869731 -0.49629509 29.98936795 -0.4375 26.25 C-0.39430353 23.7148365 -0.35068888 21.17968009 -0.30664062 18.64453125 C-0.19878766 12.42975834 -0.09962545 6.21493207 0 0 Z " fill="#00C1FA" transform="translate(196,15)"/>
<path d="M0 0 C3.09320753 2.63162516 4.6642881 5.91870092 6.42651367 9.49658203 C6.75547638 10.15246307 7.08443909 10.80834412 7.42337036 11.48410034 C8.5107315 13.65581348 9.58942451 15.83170887 10.66796875 18.0078125 C11.42875637 19.53245015 12.1900202 21.05685026 12.95173645 22.58102417 C14.55164292 25.78544389 16.14760326 28.99178652 17.74047852 32.19970703 C19.75765502 36.26202608 21.78151618 40.32096287 23.80808544 44.37860298 C25.76388198 48.29542667 27.71596813 52.21409611 29.66796875 56.1328125 C30.02965841 56.85807255 30.39134808 57.5833326 30.76399803 58.33057022 C33.19592221 63.21073158 35.60637652 68.1009465 38 73 C38.38089909 73.77602318 38.76179817 74.55204636 39.15423965 75.35158539 C40.30620209 77.70656788 41.44632013 80.0669296 42.58325195 82.42919922 C43.12001069 83.52269275 43.12001069 83.52269275 43.66761303 84.63827705 C44.50642586 86.39755845 45.26166537 88.19624282 46 90 C45.67 90.66 45.34 91.32 45 92 C42.96748279 90.67886381 40.93498825 89.3576929 38.90258789 88.03637695 C37.11829081 86.87678913 35.33361611 85.71778218 33.54858398 84.55932617 C28.82163704 81.49043403 24.10130232 78.41226269 19.39453125 75.3125 C18.50024414 74.72557373 17.60595703 74.13864746 16.68457031 73.53393555 C14.96673437 72.40614586 13.251148 71.27492045 11.53808594 70.13989258 C5.29988627 66.05303918 0.69651035 63.33650773 -7 64 C-13.20827927 65.97245901 -15.63049847 68.43938595 -18.9375 73.9375 C-19.78751013 75.28140834 -20.63777442 76.62515595 -21.48828125 77.96875 C-21.9054541 78.64164062 -22.32262695 79.31453125 -22.75244141 80.0078125 C-24.64466815 83.02945051 -26.63520068 85.97921428 -28.625 88.9375 C-29.27726562 89.91589844 -29.92953125 90.89429688 -30.6015625 91.90234375 C-31.06304687 92.59457031 -31.52453125 93.28679687 -32 94 C-35.12161803 90.24652091 -37.13601061 86.02350717 -39.30371094 81.68310547 C-39.72515884 80.84692688 -40.14660675 80.01074829 -40.58082581 79.14923096 C-41.96959295 76.39066306 -43.35232863 73.62912799 -44.734375 70.8671875 C-45.69643423 68.94949458 -46.65861444 67.03186235 -47.62091064 65.11428833 C-49.63440698 61.09926266 -51.64459526 57.08260017 -53.65283203 53.06494141 C-56.23297073 47.9044601 -58.82409919 42.74958294 -61.41805649 37.59603691 C-63.40683184 33.64065639 -65.38837883 29.68168848 -67.36786652 25.72165298 C-68.32063814 23.81847765 -69.27601869 21.91660617 -70.23400116 20.01604843 C-71.56820525 17.36711219 -72.8922933 14.71336025 -74.21386719 12.05810547 C-74.61483109 11.26741669 -75.01579498 10.47672791 -75.4289093 9.66207886 C-76.34724362 7.80377608 -77.18290522 5.90498905 -78 4 C-77.67 3.34 -77.34 2.68 -77 2 C-76.30140869 2.45737549 -75.60281738 2.91475098 -74.88305664 3.38598633 C-73.90199951 4.02818115 -72.92094238 4.67037598 -71.91015625 5.33203125 C-70.82347656 6.04367432 -69.73679687 6.75531738 -68.6171875 7.48852539 C-66.23832353 9.04519698 -63.85660957 10.59737488 -61.47265625 12.14624023 C-56.21860411 15.5631261 -50.97670687 18.98573918 -45.83984375 22.578125 C-45.09404053 23.09012451 -44.3482373 23.60212402 -43.57983398 24.12963867 C-42.24208455 25.05125522 -40.9161027 25.9903201 -39.60571289 26.95043945 C-34.6513374 30.32031643 -29.91628416 31.05837029 -24 30 C-19.08616852 28.08762599 -16.82287585 25.96268762 -13.984375 21.5625 C-12.94410156 19.97308594 -12.94410156 19.97308594 -11.8828125 18.3515625 C-11.17898437 17.24554688 -10.47515625 16.13953125 -9.75 15 C-9.03070313 13.89398438 -8.31140625 12.78796875 -7.5703125 11.6484375 C-6.24072286 9.60176581 -4.91685535 7.55135735 -3.60058594 5.49609375 C-2.41835473 3.65241898 -1.214883 1.8223245 0 0 Z " fill="#FBDC2E" transform="translate(113,158)"/>
<path d="M0 0 C6.93 0 13.86 0 21 0 C21.02578125 2.01222656 21.0515625 4.02445313 21.078125 6.09765625 C21.11987799 8.06700562 21.16177213 10.0363546 21.20751953 12.00561523 C21.23557843 13.36421422 21.25686744 14.72297186 21.27099609 16.08178711 C21.30738025 26.75197751 21.30738025 26.75197751 26 36 C25.45214844 36.18433594 24.90429688 36.36867187 24.33984375 36.55859375 C10.80380013 41.51080483 -0.93863304 49.91955758 -12 59 C-12.87269531 59.70640625 -13.74539063 60.4128125 -14.64453125 61.140625 C-25.99634438 70.79413538 -34.17484998 82.87586792 -41 96 C-41.81597656 97.51787109 -41.81597656 97.51787109 -42.6484375 99.06640625 C-51.17503056 116.01138687 -52.96740842 134.32145811 -54 153 C-54.56920166 152.80809082 -55.13840332 152.61618164 -55.72485352 152.41845703 C-69.40114991 147.8297466 -81.61233256 145.32961437 -96 145 C-92.02096205 120.68365697 -76.52306562 98.50551817 -60 81 C-59.37738281 80.32453125 -58.75476563 79.6490625 -58.11328125 78.953125 C-45.21889364 65.43699543 -28.57068629 55.06474745 -11.17651367 48.41918945 C-6.87211089 46.70244968 -4.52245928 44.89057279 -2 41 C-0.71225554 37.13676662 -0.76617207 33.42509463 -0.68359375 29.39453125 C-0.6524221 28.13572395 -0.6524221 28.13572395 -0.62062073 26.85148621 C-0.55525982 24.17190706 -0.49630286 21.49223031 -0.4375 18.8125 C-0.39430198 16.99543263 -0.35068727 15.17837512 -0.30664062 13.36132812 C-0.19880832 8.90765066 -0.09963505 4.45389861 0 0 Z " fill="#EB5368" transform="translate(319,15)"/>
<path d="M0 0 C6.05569735 3.24918264 11.81782045 6.76385169 17.5 10.625 C19.07272543 11.67606745 20.64564711 12.72684132 22.21875 13.77734375 C25.36408279 15.88725245 28.48465983 18.02853188 31.59375 20.19140625 C33.0622202 21.19051554 34.53095959 22.18922931 36 23.1875 C36.65677734 23.65687988 37.31355469 24.12625977 37.99023438 24.60986328 C41.95436455 27.27282836 44.19354398 28.10331414 48.9921875 27.8671875 C51.54199219 28.01342773 51.54199219 28.01342773 54 29 C57.54506072 33.58238042 59.77358796 38.67069511 62.125 43.9375 C62.79862724 45.36296649 63.47567899 46.78682001 64.15625 48.20898438 C69 58.45302769 69 58.45302769 69 61 C69.66 61.33 70.32 61.66 71 62 C69.42025391 62.52787109 69.42025391 62.52787109 67.80859375 63.06640625 C63.35038489 64.98667574 61.50504539 67.87660285 59.0625 71.9375 C58.21248987 73.28140834 57.36222558 74.62515595 56.51171875 75.96875 C56.0945459 76.64164062 55.67737305 77.31453125 55.24755859 78.0078125 C53.35533185 81.02945051 51.36479932 83.97921428 49.375 86.9375 C48.72273438 87.91589844 48.07046875 88.89429688 47.3984375 89.90234375 C46.93695313 90.59457031 46.47546875 91.28679687 46 92 C42.87732733 88.24827553 40.87237551 84.02589031 38.7121582 79.68310547 C38.29231659 78.84692688 37.87247498 78.01074829 37.43991089 77.14923096 C36.05617441 74.39054613 34.67829712 71.62898313 33.30078125 68.8671875 C32.34123255 66.94943723 31.38144636 65.03180578 30.4214325 63.11428833 C28.41238259 59.09913553 26.40623113 55.08255133 24.40209961 51.06494141 C21.82827123 45.90586896 19.24725445 40.75043226 16.6640749 35.59603691 C14.68213352 31.63936572 12.70399166 27.68080469 10.72701073 23.72165298 C9.77644624 21.81918669 8.8246859 19.91731743 7.8717289 18.01604843 C6.54383298 15.36531248 5.22106159 12.71208257 3.8996582 10.05810547 C3.50228958 9.26741669 3.10492096 8.47672791 2.69551086 7.66207886 C0 2.2285316 0 2.2285316 0 0 Z " fill="#F9C500" transform="translate(35,160)"/>
<path d="M0 0 C1.28970703 0.30744141 1.28970703 0.30744141 2.60546875 0.62109375 C10.77310032 2.48263682 18.61994382 3.59630959 27 4 C26.06947853 6.86667377 25.12912194 9.69156911 23.96484375 12.47265625 C20.05148955 22.33787995 20.17070078 32.52839013 20 43 C17.00435036 39.48393173 14.8634959 36.04871737 12.87109375 31.88671875 C12.31099609 30.72076172 11.75089844 29.55480469 11.17382812 28.35351562 C10.88838135 27.75063721 10.60293457 27.14775879 10.30883789 26.52661133 C9.44322719 24.69958824 8.56722337 22.87784787 7.68945312 21.05664062 C0 4.95934256 0 4.95934256 0 0 Z " fill="#EE6F7F" transform="translate(261,370)"/>
</svg>
