<?xml version="1.0" encoding="UTF-8"?>
<svg version="1.1" xmlns="http://www.w3.org/2000/svg" width="512" height="512">
<path d="M0 0 C6.04788579 4.00160865 10.48033496 9.94849797 12.453125 16.9765625 C12.99648462 20.99515965 13.19570345 25.01388348 13.390625 29.0625 C13.43380859 29.89845703 13.47699219 30.73441406 13.52148438 31.59570312 C13.62697807 33.64696935 13.72799815 35.6984648 13.828125 37.75 C14.3128125 37.1209375 14.7975 36.491875 15.296875 35.84375 C26.65980817 21.33415842 26.65980817 21.33415842 31.828125 18.75 C35.50142464 18.61642547 38.32665459 18.5828432 41.828125 19.75 C44.12380188 18.51296647 46.22889031 17.25127831 48.390625 15.8125 C54.59628026 11.75 54.59628026 11.75 56.828125 11.75 C56.725 10.863125 56.621875 9.97625 56.515625 9.0625 C56.83481275 5.6791099 57.33624759 4.16700675 59.890625 1.91015625 C70.47696097 -4.42883928 84.68260222 -5.56029555 96.72265625 -5.5859375 C98.38647591 -5.5959227 98.38647591 -5.5959227 100.08390808 -5.60610962 C102.41765702 -5.61617927 104.75143443 -5.62092841 107.08520508 -5.62060547 C110.62044582 -5.62497506 114.15443282 -5.66134792 117.68945312 -5.69921875 C139.46592942 -5.80739868 139.46592942 -5.80739868 149.828125 -1.25 C150.72080078 -0.89260742 151.61347656 -0.53521484 152.53320312 -0.16699219 C166.6299652 5.69011318 176.29578836 18.87631045 182.05078125 32.53515625 C183.33640737 36.19822162 184.14249297 39.93391649 184.828125 43.75 C186.42140625 43.89695312 186.42140625 43.89695312 188.046875 44.046875 C197.94344319 45.05092555 205.50822636 45.94098888 212.578125 53.5 C216.6687096 58.51728454 219.828125 63.17377574 219.828125 69.75 C220.49755127 69.73952637 221.16697754 69.72905273 221.85668945 69.71826172 C224.95129493 69.67615099 228.04583978 69.65050147 231.140625 69.625 C232.19314453 69.60824219 233.24566406 69.59148437 234.33007812 69.57421875 C247.08665294 69.49571675 259.51643313 71.24752012 269.38671875 80.10546875 C276.20482811 87.88439569 279.6712054 95.91110194 280.703125 106.125 C281.5588802 113.34207452 282.84455905 118.76643405 288.140625 124.0625 C295.08633821 128.42376178 300.67415709 129.24392421 308.765625 129.4375 C309.73564453 129.47166016 310.70566406 129.50582031 311.70507812 129.54101562 C314.07931137 129.62288574 316.45320377 129.69223078 318.828125 129.75 C318.80733887 128.9979126 318.78655273 128.2458252 318.76513672 127.47094727 C318.59486057 120.17119547 318.73140781 113.37893359 322.453125 106.9375 C330.17099032 99.82893984 338.38388831 100.15594891 348.28125 100.21875 C349.78806813 100.21604949 351.29488455 100.21216244 352.80169678 100.20715332 C355.9521146 100.20127721 359.10207685 100.2097546 362.25244141 100.22851562 C366.25786572 100.25122591 370.26221293 100.2382215 374.2675972 100.21422577 C377.37866057 100.19964855 380.48947622 100.20442902 383.60054779 100.21473694 C385.07548912 100.21737559 386.55045412 100.21423716 388.02536774 100.20481873 C401.45790219 100.13788598 412.90128187 102.09945071 422.828125 111.75 C432.52249739 122.18175195 433.43735533 133.4088507 433.359375 147.0078125 C433.3620769 148.68155136 433.36596509 150.35528867 433.37097168 152.02902222 C433.37684373 155.52731352 433.36838503 159.02519426 433.34960938 162.5234375 C433.32692752 166.96108158 433.33988855 171.39775188 433.36389923 175.83535957 C433.37851124 179.29142281 433.37367992 182.74726404 433.36338806 186.20333481 C433.36075746 187.83685298 433.36385809 189.47039268 433.37330627 191.10388565 C433.48631803 216.14692483 425.16702982 238.19464631 407.99609375 256.66796875 C397.54278706 266.70691013 397.54278706 266.70691013 390.890625 266.8125 C389.23614075 266.23849526 387.58363731 265.65768307 385.9453125 265.0390625 C382.97944785 264.63412895 381.49094991 265.6401343 378.890625 267.0625 C376.29056918 268.46500306 373.85966842 269.7387249 371.07421875 270.734375 C370.33300781 271.06953125 369.59179688 271.4046875 368.828125 271.75 C368.14873326 273.74571323 367.48250941 275.74594773 366.828125 277.75 C361.2684262 282.49209603 352.92630811 281.91186751 345.953125 281.98828125 C345.22552979 281.996353 344.49793457 282.00442474 343.74829102 282.01274109 C342.21551823 282.02647631 340.68271621 282.03724491 339.14990234 282.04516602 C337.61627932 282.05661578 336.0826939 282.07695501 334.54931641 282.10668945 C315.28153614 282.47858213 297.40765629 278.67362826 282.9909668 265.06030273 C271.56825708 253.76681349 264.69761398 239.64566765 264.44775391 223.52832031 C264.46582606 213.54920783 264.66173483 204.97835954 268.828125 195.75 C269.25222656 194.80253906 269.67632812 193.85507812 270.11328125 192.87890625 C277.34503947 178.35495728 289.87732363 167.73757822 304.828125 161.75 C309.15028177 160.52169476 313.41126535 159.61416819 317.828125 158.75 C318.158125 154.46 318.488125 150.17 318.828125 145.75 C317.39082031 145.79640625 315.95351563 145.8428125 314.47265625 145.890625 C300.42550927 146.21184921 287.97123989 146.33327768 276.7578125 136.66015625 C268.74476977 128.72821719 265.10846447 120.36033914 263.890625 109.1875 C262.96453308 101.21505655 261.15521437 95.63347745 255.015625 90.3125 C247.36960049 86.56444877 240.18527355 86.48902637 231.828125 86.625 C230.23677734 86.63853516 230.23677734 86.63853516 228.61328125 86.65234375 C226.01798862 86.67572476 223.42318035 86.70849444 220.828125 86.75 C220.57417969 87.42039307 220.32023437 88.09078613 220.05859375 88.78149414 C219.71441406 89.66957764 219.37023437 90.55766113 219.015625 91.47265625 C218.67917969 92.34929932 218.34273438 93.22594238 217.99609375 94.12915039 C215.47053553 99.79634677 211.88232986 104.1880927 206.828125 107.75 C206.97229858 108.57854492 206.97229858 108.57854492 207.11938477 109.42382812 C211.37872458 134.51729072 209.51897195 157.65136948 194.5546875 178.9921875 C191.25242551 183.15100892 188.14721174 186.62149296 183.765625 189.625 C181.56853598 191.4516791 180.91077017 192.32218969 180.36328125 195.15625 C180.33003628 197.9636027 180.46276133 200.71939995 180.68115234 203.51757812 C180.85122623 206.10089304 180.91511024 208.67737255 180.97265625 211.265625 C181.43398415 229.71125184 183.46970423 246.38519007 189.828125 263.75 C190.76290092 266.45235221 191.67169725 269.163032 192.578125 271.875 C192.98546875 273.07382812 193.3928125 274.27265625 193.8125 275.5078125 C199.25101446 292.86922404 196.59278934 312.91433743 189.015625 329.125 C185.04409937 336.5766251 180.01390552 343.00606094 173.828125 348.75 C172.96380859 349.63945313 172.96380859 349.63945313 172.08203125 350.546875 C165.28890677 357.17306069 157.47948158 361.09086701 148.828125 364.75 C147.74660156 365.20890625 146.66507813 365.6678125 145.55078125 366.140625 C119.36246391 374.98424227 84.87238791 368.27851908 59.828125 358.75 C59.00715332 358.44425049 58.18618164 358.13850098 57.34033203 357.82348633 C56.5254834 357.49630615 55.71063477 357.16912598 54.87109375 356.83203125 C54.12754639 356.5378833 53.38399902 356.24373535 52.61791992 355.94067383 C50.828125 354.75 50.828125 354.75 49.98510742 352.61083984 C49.85080322 351.8936377 49.71649902 351.17643555 49.578125 350.4375 C48.72646276 346.8209343 47.98804532 345.87069867 44.9453125 343.57421875 C38.89796776 339.87145898 38.89796776 339.87145898 32.11328125 339.0390625 C30.98212891 339.39097656 30.98212891 339.39097656 29.828125 339.75 C24.80111264 340.53855096 22.15375321 339.60924646 18.078125 336.8125 C16.31335259 335.47764207 14.56369684 334.12260983 12.828125 332.75 C11.98378906 332.10933594 11.13945313 331.46867187 10.26953125 330.80859375 C-17.05684823 309.41037386 -36.37454643 280.21244873 -47.00073242 247.31494141 C-50.63527352 236.6212592 -55.82843847 226.54181267 -60.83813477 216.43920898 C-61.53147975 215.01549486 -62.22476047 213.59174944 -62.91796875 212.16796875 C-63.2457431 211.52386047 -63.57351746 210.8797522 -63.91122437 210.21612549 C-65.9988201 205.89813454 -66.63260923 202.52345485 -66.171875 197.75 C-65.34236328 196.51636719 -65.34236328 196.51636719 -64.49609375 195.2578125 C-62.75813736 192.67369066 -62.75813736 192.67369066 -64.19140625 189.3046875 C-64.76745805 188.06783145 -65.3660068 186.84125216 -65.984375 185.625 C-69.171875 179.03064516 -69.171875 179.03064516 -69.171875 175.75 C-70.1 175.811875 -71.028125 175.87375 -71.984375 175.9375 C-75.171875 175.75 -75.171875 175.75 -76.984375 174.5 C-82.67352225 166.11599353 -80.22021999 147.55190509 -78.453125 138.0859375 C-77.54163251 134.53552723 -76.48518657 131.1706187 -75.171875 127.75 C-74.79804687 126.77417969 -74.42421875 125.79835937 -74.0390625 124.79296875 C-71.03507499 117.68087911 -67.1780092 109.19041743 -61.24589539 104.09599304 C-56.97059339 100.18877486 -54.75110215 96.97881541 -54.27854633 91.08669758 C-54.14455002 87.30241058 -54.17894222 83.53147322 -54.2421875 79.74609375 C-54.23974203 78.09659357 -54.23348047 76.44709509 -54.22360229 74.79762268 C-54.20656937 70.47488253 -54.23523697 66.15371634 -54.27557373 61.83117676 C-54.33132715 54.91168247 -54.3122187 47.9918678 -54.30230331 41.07222176 C-54.30464182 38.66806107 -54.32350917 36.26450818 -54.34573364 33.86045837 C-54.35194197 32.37368855 -54.35796362 30.88691793 -54.36376953 29.40014648 C-54.3745755 28.11269028 -54.38538147 26.82523407 -54.39651489 25.49876404 C-53.82185559 15.9089174 -50.45423546 8.63842634 -43.546875 2 C-30.87321461 -8.29440444 -13.65832372 -7.86090574 0 0 Z " fill="#020102" transform="translate(79.171875,74.25)"/>
<path d="M0 0 C29.25753293 0 54.81867726 10.81222749 75.59375 31.4375 C92.68374554 49.02120652 104.73338844 72.93353342 105.24609375 97.76953125 C105.27759521 99.0627832 105.30909668 100.35603516 105.34155273 101.68847656 C105.35693085 102.36269653 105.37230896 103.0369165 105.38815308 103.73156738 C105.66909993 115.57894168 106.15847595 127.27382479 108 139 C108.23203125 140.51980469 108.23203125 140.51980469 108.46875 142.0703125 C110.2909006 152.97284691 113.67779951 163.13889394 117.57495117 173.45117188 C117.87248291 174.23943359 118.17001465 175.02769531 118.4765625 175.83984375 C118.74549316 176.54488037 119.01442383 177.24991699 119.29150391 177.97631836 C123.98970627 191.39582195 120.90369651 206.47306237 115.40625 219.08203125 C108.26918277 233.89144574 96.59930688 243.03286617 81.76171875 249.38671875 C57.91438494 257.52622789 24.59953546 251.40900573 2.10546875 241.3046875 C-1.52627867 239.77889676 -3.27533962 239.81488079 -7 241 C-8.85801239 242.43691955 -8.85801239 242.43691955 -10 244 C-16.16356805 242.3341708 -21.48259656 239.12194714 -27 236 C-26.83723958 234.07942708 -26.67447917 232.15885417 -26.51171875 230.23828125 C-27.62169466 225.15015169 -33.28915465 221.85946305 -37.1875 218.75 C-59.06108412 201.02739214 -74.84365064 181.13561259 -86.4375 155.5 C-86.93310425 154.40570679 -86.93310425 154.40570679 -87.4387207 153.28930664 C-88.34755289 151.21010612 -89.18939038 149.11926542 -90 147 C-90.41596436 145.97144897 -90.41596436 145.97144897 -90.84033203 144.92211914 C-91.53515625 142.87890625 -91.53515625 142.87890625 -92 139 C-90.39583863 136.28984456 -89.14804846 134.61662148 -87 132.4375 C-86.48397217 131.87595215 -85.96794434 131.3144043 -85.4362793 130.73583984 C-84.42044339 129.63117631 -83.39553976 128.53476825 -82.36083984 127.44775391 C-80.75653615 125.74098661 -79.28191566 123.94839254 -77.8125 122.125 C-74.552535 118.34787342 -70.82176377 115.19326773 -67 112 C-65.99710938 111.15566406 -64.99421875 110.31132812 -63.9609375 109.44140625 C-51.51745824 99 -51.51745824 99 -49 99 C-48.81937012 99.54301758 -48.63874023 100.08603516 -48.45263672 100.64550781 C-45.2256057 110.27971412 -41.94655048 119.53607708 -37.22265625 128.54296875 C-32.55858141 137.91582202 -32.81417208 149.16244344 -36 159 C-36.68453574 160.59376641 -37.39318719 162.17738098 -38.125 163.75 C-40.21989166 168.18848234 -40.21989166 168.18848234 -40 173 C-38.56338689 175.52006844 -38.56338689 175.52006844 -36 177 C-32.44336774 177.32548832 -32.44336774 177.32548832 -29 176 C-22.10309888 168.90604456 -20.61785021 156.43036372 -19 147 C1.51653489 156.11845995 14.2172613 176.19434789 23.08227539 195.77905273 C23.43539795 196.55837158 23.78852051 197.33769043 24.15234375 198.140625 C24.6162854 199.18524902 24.6162854 199.18524902 25.08959961 200.25097656 C25.9852783 202.18577273 25.9852783 202.18577273 28 204 C32.6422434 204.44869173 32.6422434 204.44869173 36.9375 202.9375 C38.63278894 199.84609076 38.27927981 197.50306531 38 194 C36.90933011 190.73505197 35.48083727 187.66675516 34 184.5625 C33.6184375 183.73556641 33.236875 182.90863281 32.84375 182.05664062 C31.90748463 180.03196676 30.95950056 178.01373903 30 176 C31.17175781 176.03480469 32.34351563 176.06960938 33.55078125 176.10546875 C48.27844862 176.85979241 48.27844862 176.85979241 61.2578125 171.08203125 C63.25898513 169.04991938 63.25898513 169.04991938 63.5 165.9375 C63.25586477 162.96762752 63.25586477 162.96762752 61.375 161.125 C57.26940874 159.18024625 54.07607636 159.66240742 49.8125 161 C38.36680434 164.00214968 27.5146232 161.36790774 17.23828125 156.02734375 C12.19123685 152.8676139 7.88319592 148.98119593 3.453125 145.0234375 C0.34027965 142.25317904 -2.88542156 139.7712304 -6.25 137.3125 C-20.36973548 126.84020617 -28.27139187 116.71380425 -34 100 C-34.37511719 98.98550781 -34.75023437 97.97101563 -35.13671875 96.92578125 C-36.58283241 92.02469922 -36.58283241 92.02469922 -36 89 C-33.796875 87.1484375 -33.796875 87.1484375 -30.75 85.375 C-15.59911118 75.82296384 -6.47993485 64.2907261 -1 47 C16.9159394 50.25744353 33.46245718 70.10702164 43.5 84.0625 C61 110.05199212 61 110.05199212 61 122 C62.43655854 122.08131463 63.8744483 122.13933559 65.3125 122.1875 C66.11300781 122.22230469 66.91351563 122.25710938 67.73828125 122.29296875 C70.01940989 122.15060206 70.01940989 122.15060206 71.79296875 120.92578125 C73.69774287 117.8867727 73.31715344 115.52514229 73 112 C72.28667245 109.40684456 71.53550102 107.04950935 70.5625 104.5625 C70.30315674 103.8823584 70.04381348 103.2022168 69.77661133 102.50146484 C66.62689338 94.57859403 62.33467555 87.31875746 58 80 C57.67 79.34 57.34 78.68 57 78 C57.59014893 77.98541748 58.18029785 77.97083496 58.78833008 77.95581055 C61.46371229 77.88131156 64.13784892 77.78466005 66.8125 77.6875 C67.74126953 77.66494141 68.67003906 77.64238281 69.62695312 77.61914062 C70.51962891 77.58369141 71.41230469 77.54824219 72.33203125 77.51171875 C73.15421143 77.48553467 73.9763916 77.45935059 74.82348633 77.43237305 C77.49255269 76.90215246 78.40545299 76.18369183 80 74 C80.57876676 69.41338583 80.57876676 69.41338583 78.82836914 65.31811523 C76.31393838 63.50540169 74.45446043 63.54027998 71.37109375 63.41015625 C70.25283203 63.34763672 69.13457031 63.28511719 67.98242188 63.22070312 C65.64660247 63.11645994 63.31066459 63.01483353 60.97460938 62.91601562 C51.43252469 62.37589762 43.11056232 60.86400503 36.1875 53.8125 C26.59037965 44.69448707 15.8659213 38.584873 4 33 C2.68 32.34 1.36 31.68 0 31 C0 20.77 0 10.54 0 0 Z " fill="#FD8EB2" transform="translate(139,176)"/>
<path d="M0 0 C0.77303467 0.00547852 1.54606934 0.01095703 2.3425293 0.01660156 C11.73622216 0.35637966 19.16570873 4.45653728 26.125 10.625 C28.07421875 13.2109375 28.07421875 13.2109375 29.8125 16 C30.39386719 16.91523438 30.97523437 17.83046875 31.57421875 18.7734375 C35.57867806 26.13680096 35.49741023 33.24478403 35.49560547 41.40771484 C35.49993388 43.59164129 35.53617068 45.77346756 35.57421875 47.95703125 C35.67159904 59.99454967 34.43312137 72.09941313 26.21533203 81.56518555 C18.72376234 88.94738287 10.11195198 94.8108768 1.3125 100.5 C-16.222998 112.04177538 -34.89929631 125.01092998 -46.875 142.625 C-49.875 141.625 -49.875 141.625 -51.26611328 138.97290039 C-51.73774902 137.81781982 -52.20938477 136.66273926 -52.6953125 135.47265625 C-53.23559049 134.20839003 -53.77730353 132.94473628 -54.3203125 131.68164062 C-55.16469905 129.68811362 -55.99810954 127.69219584 -56.80664062 125.68383789 C-59.53583379 117.87851531 -59.53583379 117.87851531 -65.18847656 112.50244141 C-67.56197548 112.0727297 -67.56197548 112.0727297 -69.89013672 111.93334961 C-71.875 111.625 -71.875 111.625 -74.03125 109.015625 C-74.4746875 107.97921875 -74.918125 106.9428125 -75.375 105.875 C-75.8390625 104.84890625 -76.303125 103.8228125 -76.78125 102.765625 C-78.84047919 96.85269546 -78.84047919 96.85269546 -78.875 93.625 C-78.07191406 92.92246094 -77.26882812 92.21992188 -76.44140625 91.49609375 C-72.4215089 86.99894832 -73.51169967 82.47982369 -73.8125 76.6875 C-74.06287125 66.81763892 -73.74165544 58.83532524 -69.875 49.625 C-69.22144531 48.06458984 -69.22144531 48.06458984 -68.5546875 46.47265625 C-60.93261155 29.95815836 -48.4332562 19.27017868 -32.375 11.3125 C-31.21613281 10.71888672 -30.05726562 10.12527344 -28.86328125 9.51367188 C-9.807495 -0.14341302 -9.807495 -0.14341302 0 0 Z " fill="#FEC5DB" transform="translate(88.875,156.375)"/>
<path d="M0 0 C2.8830901 0.021543 5.76371091 0.00002548 8.64672852 -0.02539062 C24.84485094 -0.05075081 38.41947143 1.83709383 50.67993164 13.40039062 C56.70997669 19.80569599 60.34368142 26.85131232 61.68774414 35.52148438 C60.32829933 35.52695282 60.32829933 35.52695282 58.94139099 35.53253174 C50.33690624 35.570637 41.73279187 35.62774139 33.1285696 35.70538712 C28.70663051 35.74464273 24.28488403 35.77693727 19.86279297 35.79248047 C15.58312351 35.80779327 11.3039844 35.84249141 7.0245533 35.8897934 C5.40421257 35.9044583 3.78379607 35.91251667 2.16338921 35.91336823 C-11.80713662 35.9280729 -25.4673661 37.36850831 -37.31225586 45.52148438 C-38.12049805 46.05128906 -38.92874023 46.58109375 -39.76147461 47.12695312 C-49.29749441 53.97594744 -54.95208227 63.79190359 -59.31225586 74.52148438 C-59.79694336 74.14636719 -60.28163086 73.77125 -60.78100586 73.38476562 C-70.36923276 66.06452316 -79.33400485 60.83021756 -91.31225586 58.52148438 C-87.96980741 45.59735039 -79.77971406 35.49191812 -70.69506836 26.04492188 C-66.69845634 22.11498572 -66.69845634 22.11498572 -65.12475586 17.02148438 C-65.18663086 16.19648437 -65.24850586 15.37148437 -65.31225586 14.52148438 C-65.31225586 13.20148438 -65.31225586 11.88148437 -65.31225586 10.52148438 C-63.21206087 8.90664115 -61.28388631 7.62775859 -58.99975586 6.33398438 C-58.10740234 5.8012793 -58.10740234 5.8012793 -57.19702148 5.2578125 C-54.59873409 3.72787121 -52.17993399 2.47737709 -49.31225586 1.52148438 C-48.83788086 2.20210938 -48.36350586 2.88273437 -47.87475586 3.58398438 C-45.35744845 5.89214467 -45.35744845 5.89214467 -41.62475586 5.52148438 C-38.62390825 5.05916383 -35.78392622 4.37554273 -32.85473633 3.56640625 C-21.85572204 0.5350342 -11.37726051 -0.10096724 0 0 Z " fill="#FD8EB2" transform="translate(186.312255859375,83.478515625)"/>
<path d="M0 0 C2.75203933 2.75203933 3.68559473 6.05808115 5.0625 9.625 C12.81280331 28.97095731 24.15618972 45.65224685 38.62744141 60.57617188 C39.83635861 61.83024607 41.01990572 63.10867193 42.19921875 64.390625 C69.60252504 93.41203128 111.64438535 109.61309341 151 111 C151.79100098 111.02868164 152.58200195 111.05736328 153.39697266 111.08691406 C163.15914074 111.3922838 171.66012101 111.16245026 181 108 C182.66194453 107.64386903 184.32779 107.30430677 186 107 C179.3798998 115.53644499 171.1304023 121.27862773 161 125 C160.26265625 125.2990625 159.5253125 125.598125 158.765625 125.90625 C135.96746817 133.74765426 102.52665777 126.92706986 81.10546875 117.3046875 C77.47372133 115.77889676 75.72466038 115.81488079 72 117 C70.14198761 118.43691955 70.14198761 118.43691955 69 120 C62.83643195 118.3341708 57.51740344 115.12194714 52 112 C52.16276042 110.07942708 52.32552083 108.15885417 52.48828125 106.23828125 C51.37830534 101.15015169 45.71084535 97.85946305 41.8125 94.75 C19.93891588 77.02739214 4.15634936 57.13561259 -7.4375 31.5 C-7.76790283 30.77047119 -8.09830566 30.04094238 -8.4387207 29.28930664 C-9.34751087 27.21020224 -10.18813876 25.11866197 -11 23 C-11.28020996 22.3179248 -11.56041992 21.63584961 -11.84912109 20.93310547 C-12.80276539 18.16773611 -13.4291023 15.91775752 -12.15209961 13.18652344 C-10.79390452 11.35712828 -9.34331708 9.75303828 -7.75 8.125 C-7.23308594 7.5578125 -6.71617188 6.990625 -6.18359375 6.40625 C-4.17584485 4.21692174 -2.10031705 2.10031705 0 0 Z " fill="#FA6C95" transform="translate(60,300)"/>
<path d="M0 0 C2.17859881 0.00747401 4.3572044 0.01316145 6.53581238 0.01715088 C12.22896366 0.03231583 17.92169716 0.0715177 23.61468506 0.1159668 C29.44033154 0.15711801 35.26604649 0.17520404 41.09179688 0.1953125 C52.49236957 0.23802176 63.89263422 0.3061607 75.29296875 0.390625 C75.34292295 4.35583585 75.37894662 8.32092131 75.40283203 12.28637695 C75.4176712 14.28798877 75.44310236 16.28951312 75.46875 18.29101562 C75.50421836 25.33148534 75.18665849 31.59869055 73.29296875 38.390625 C68.29463365 38.66383115 63.30068492 38.86266872 58.29663086 38.99487305 C56.59761859 39.04999275 54.89912364 39.12492177 53.2019043 39.22045898 C41.82192713 39.84470531 41.82192713 39.84470531 37.29296875 38.390625 C33.77166552 35.15426047 32.03585003 31.79750705 30.29296875 27.390625 C29.07917736 25.97870325 29.07917736 25.97870325 25.54296875 25.828125 C23.34117042 25.76902171 23.34117042 25.76902171 21.29296875 26.390625 C19.86370668 27.87141118 19.86370668 27.87141118 18.828125 29.86328125 C18.40966309 30.589104 17.99120117 31.31492676 17.56005859 32.06274414 C17.14191895 32.83094482 16.7237793 33.59914551 16.29296875 34.390625 C15.88385254 35.13368896 15.47473633 35.87675293 15.05322266 36.64233398 C13.84103018 38.88121896 12.65647071 41.13254469 11.48046875 43.390625 C11.07376953 44.16535156 10.66707031 44.94007813 10.24804688 45.73828125 C9.26023406 47.62093626 8.27619579 49.50557098 7.29296875 51.390625 C4.65256083 48.20719888 3.19972629 45.04214114 1.69921875 41.19921875 C1.22613281 40.00748047 0.75304687 38.81574219 0.265625 37.58789062 C-0.47384891 35.70378196 -1.21071106 33.81868471 -1.94580078 31.93286133 C-2.66178105 30.10241943 -3.38741106 28.27576132 -4.11328125 26.44921875 C-4.53931641 25.35923584 -4.96535156 24.26925293 -5.40429688 23.14624023 C-6.61562771 20.58396679 -7.41765917 19.03404658 -9.70703125 17.390625 C-13.24727267 17.31295371 -13.24727267 17.31295371 -16.70703125 18.390625 C-21.11944047 23.95572711 -21.11944047 23.95572711 -26.70703125 38.390625 C-38.25703125 38.390625 -49.80703125 38.390625 -61.70703125 38.390625 C-59.93273435 25.97054673 -53.95962776 17.15522678 -44.13671875 9.34765625 C-30.13685872 -0.22367663 -16.31219506 -0.16548846 0 0 Z " fill="#ECEEED" transform="translate(421.70703125,247.609375)"/>
<path d="M0 0 C3.09303499 2.58564587 4.19734773 5.4566083 5.6640625 9.1640625 C6.38722656 10.97003906 6.38722656 10.97003906 7.125 12.8125 C7.62540909 14.0831723 8.12540425 15.35400769 8.625 16.625 C9.61361514 19.11863333 10.60716463 21.61022161 11.6015625 24.1015625 C12.03807129 25.20838379 12.47458008 26.31520508 12.92431641 27.45556641 C13.76622043 29.89153863 13.76622043 29.89153863 15 31 C16.68608966 31.07205511 18.37500659 31.08386068 20.0625 31.0625 C20.98160156 31.05347656 21.90070313 31.04445313 22.84765625 31.03515625 C23.55792969 31.02355469 24.26820313 31.01195312 25 31 C25.27634277 30.27981689 25.55268555 29.55963379 25.83740234 28.81762695 C26.96249936 26.09088511 28.22558291 23.52593007 29.6015625 20.91796875 C30.09140625 19.98662109 30.58125 19.05527344 31.0859375 18.09570312 C31.84777344 16.65614258 31.84777344 16.65614258 32.625 15.1875 C33.140625 14.20845703 33.65625 13.22941406 34.1875 12.22070312 C35.4561409 9.81263475 36.72703966 7.405787 38 5 C41 5 41 5 42.67089844 6.46801758 C46.04079353 8.68458904 49.35851704 8.47916037 53.265625 8.51171875 C54.05902283 8.52966995 54.85242065 8.54762115 55.66986084 8.56611633 C58.19652031 8.62016926 60.72299144 8.65409812 63.25 8.6875 C64.96617201 8.7206776 66.68231919 8.75516767 68.3984375 8.79101562 C72.59882232 8.87589255 76.79915177 8.94272721 81 9 C75.57424984 19.28900657 68.61890782 26.89231421 59.75 34.40625 C57.73867475 36.23799264 57.03919527 37.21923031 56.90234375 39.9453125 C56.91394531 40.66460937 56.92554688 41.38390625 56.9375 42.125 C56.958125 43.40375 56.97875 44.6825 57 46 C55.13032395 46.98929461 53.25398622 47.96600469 51.375 48.9375 C50.33085937 49.48277344 49.28671875 50.02804687 48.2109375 50.58984375 C44.92864703 52.03133628 42.59359591 53.00481715 39 53 C37.99356445 51.77313477 37.99356445 51.77313477 36.96679688 50.52148438 C32.64280801 46.84652083 29.10583227 47.43481418 23.6171875 47.65234375 C22.60713654 47.66890518 21.59708557 47.68546661 20.556427 47.70252991 C17.32826192 47.75690991 14.1022476 47.84381348 10.875 47.9375 C7.66925186 48.02617271 4.46435685 48.10682796 1.25784302 48.16175842 C-0.7339162 48.19610795 -2.72547766 48.24925641 -4.71609497 48.32493591 C-17.74927722 48.5568317 -27.68259184 42.75134451 -37.0703125 34.08984375 C-43.96367388 26.82346498 -46.87360671 18.75459084 -48 9 C-46.12296387 8.98598145 -46.12296387 8.98598145 -44.20800781 8.97167969 C-39.5634405 8.93179518 -34.91953665 8.86604059 -30.27539062 8.79248047 C-28.26571173 8.76426193 -26.25592166 8.74305179 -24.24609375 8.72900391 C-21.35619151 8.70758665 -18.4676271 8.66094297 -15.578125 8.609375 C-14.23104462 8.60753204 -14.23104462 8.60753204 -12.85675049 8.60565186 C-7.80123811 8.52643424 -7.80123811 8.52643424 -3.47949219 6.10253906 C-2.08690306 4.12349986 -0.9529066 2.22344873 0 0 Z " fill="#EFF1F0" transform="translate(408,292)"/>
<path d="M0 0 C1.57897257 0.00373658 3.15794748 0.0065805 4.73692322 0.00857544 C8.8649247 0.0161612 12.99278234 0.03576539 17.12072754 0.0579834 C21.34413712 0.07855162 25.56757025 0.08760049 29.79101562 0.09765625 C38.0573572 0.11901676 46.32358251 0.15309056 54.58984375 0.1953125 C54.27193375 1.20192177 54.27193375 1.20192177 53.94760132 2.22886658 C53.67275909 3.11747879 53.39791687 4.006091 53.11474609 4.92163086 C52.70402359 6.23761513 52.70402359 6.23761513 52.28500366 7.58018494 C51.28436377 11.34450005 51.1493731 14.88413256 51.21484375 18.7578125 C51.20324219 19.44810547 51.19164062 20.13839844 51.1796875 20.84960938 C51.20200365 24.84791883 51.79654892 28.17649443 53.11474609 31.96069336 C53.38958832 32.7576915 53.66443054 33.55468964 53.94760132 34.37583923 C54.15954132 34.97626541 54.37148132 35.57669159 54.58984375 36.1953125 C46.704021 36.33595138 38.81850613 36.44174606 30.93173504 36.50618553 C27.26726361 36.5371547 23.60366593 36.57897016 19.93969727 36.64794922 C3.94355334 36.94122067 -10.4203859 36.78788769 -25.53799438 30.86199951 C-30.06328446 29.25051913 -34.84630342 28.81574683 -39.59765625 28.3203125 C-40.56123047 28.20429688 -41.52480469 28.08828125 -42.51757812 27.96875 C-44.81376426 27.69457852 -47.11031794 27.43650629 -49.41015625 27.1953125 C-46.22070562 17.18321096 -39.83401071 9.25576999 -30.47265625 4.3203125 C-20.75392587 -0.44736656 -10.54310494 -0.07370992 0 0 Z " fill="#6996FB" transform="translate(191.41015625,133.8046875)"/>
<path d="M0 0 C0.33 0 0.66 0 1 0 C1.01417969 0.95777344 1.02835938 1.91554687 1.04296875 2.90234375 C1.63251098 22.66580626 7.51923025 39.08159024 22 53 C33.17855382 62.29737324 44.94136549 65.83034875 59 68 C55.40411818 70.90309725 51.74779288 73.71163212 48.0625 76.5 C35.51396748 86.09198645 23.18818369 96.04230505 14 109 C11 108 11 108 9.60888672 105.34790039 C8.90143311 103.61527954 8.90143311 103.61527954 8.1796875 101.84765625 C7.63940951 100.58339003 7.09769647 99.31973628 6.5546875 98.05664062 C5.71030095 96.06311362 4.87689046 94.06719584 4.06835938 92.05883789 C1.33916621 84.25351531 1.33916621 84.25351531 -4.31347656 78.87744141 C-6.68697548 78.4477297 -6.68697548 78.4477297 -9.01513672 78.30834961 C-11 78 -11 78 -13.15625 75.390625 C-13.5996875 74.35421875 -14.043125 73.3178125 -14.5 72.25 C-14.9640625 71.22390625 -15.428125 70.1978125 -15.90625 69.140625 C-17.96547919 63.22769546 -17.96547919 63.22769546 -18 60 C-17.19691406 59.29746094 -16.39382812 58.59492188 -15.56640625 57.87109375 C-11.5465089 53.37394832 -12.63669967 48.85482369 -12.9375 43.0625 C-13.3363397 27.33987831 -10.37718764 12.52317828 0 0 Z " fill="#FDB4D2" transform="translate(28,190)"/>
<path d="M0 0 C19.14 0 38.28 0 58 0 C62.42447438 20.64754713 62.14409116 37.82857606 51 56 C48.79165424 59.11478949 46.47849177 62.09620491 44 65 C43.01 64.505 43.01 64.505 42 64 C41.3918635 62.16655876 40.86558064 60.3058328 40.375 58.4375 C33.72682916 36.03978789 19.28633609 17.73703971 1.80078125 2.64453125 C1.20652344 2.10183594 0.61226562 1.55914062 0 1 C0 0.67 0 0.34 0 0 Z " fill="#EF4C7B" transform="translate(212,185)"/>
<path d="M0 0 C6.1565625 -0.0928125 6.1565625 -0.0928125 12.4375 -0.1875 C13.71294678 -0.21481201 14.98839355 -0.24212402 16.30249023 -0.27026367 C24.79377735 -0.33183792 33.15009749 0.27820079 39.66235352 6.38745117 C45.96041602 13.97984082 46.67009687 21.58697363 46.3125 31.125 C46.209375 35.04375 46.10625 38.9625 46 43 C30.82 43 15.64 43 0 43 C0 28.81 0 14.62 0 0 Z " fill="#DDE3E3" transform="translate(451,190)"/>
<path d="M0 0 C0.639375 0.680625 1.27875 1.36125 1.9375 2.0625 C6.27238486 4.80497818 9.13483812 4.08363821 14 3 C16.85797038 2.222663 19.69417429 1.41222223 22.51953125 0.5234375 C25.11296688 -0.02383868 26.52687679 0.13527161 29 1 C28.07960938 1.51046875 27.15921875 2.0209375 26.2109375 2.546875 C4.09228206 15.11877824 -12.32574087 32.73783955 -21 57 C-21.37593066 58.9924325 -21.71979545 60.9918674 -22 63 C-22.92619141 62.60167969 -22.92619141 62.60167969 -23.87109375 62.1953125 C-29.54720486 59.82810634 -34.9624927 58.1685498 -41 57 C-37.65755156 44.07586601 -29.4674582 33.97043374 -20.3828125 24.5234375 C-16.38620048 20.59350134 -16.38620048 20.59350134 -14.8125 15.5 C-14.874375 14.675 -14.93625 13.85 -15 13 C-15 11.68 -15 10.36 -15 9 C-12.87917368 7.38996424 -10.92553628 6.10594498 -8.625 4.8125 C-8.02171875 4.45736328 -7.4184375 4.10222656 -6.796875 3.73632812 C-4.56132276 2.42728809 -2.31745388 1.15872694 0 0 Z " fill="#F86B94" transform="translate(136,85)"/>
<path d="M0 0 C2.97 0.99 5.94 1.98 9 3 C13.0013933 3.46664228 13.0013933 3.46664228 16.9375 3.375 C18.22527344 3.38273437 19.51304688 3.39046875 20.83984375 3.3984375 C26.06496823 3.03425337 26.06496823 3.03425337 35 0 C35 6.93 35 13.86 35 21 C30.545 22.485 30.545 22.485 26 24 C23.87579637 24.92808216 21.76910536 25.89792137 19.6875 26.91796875 C18.04587891 27.71557617 18.04587891 27.71557617 16.37109375 28.52929688 C15.25863281 29.07650391 14.14617188 29.62371094 13 30.1875 C10.75077949 31.28675264 8.50082149 32.384498 6.25 33.48046875 C5.26515625 33.96410889 4.2803125 34.44774902 3.265625 34.94604492 C1 36 1 36 0 36 C0 24.12 0 12.24 0 0 Z " fill="#467BF8" transform="translate(41,123)"/>
<path d="M0 0 C3.96931119 2.270446 6.34010935 4.4589277 8.75 8.375 C9.53752834 12.22934545 9.12331406 15.46245452 7.625 19.125 C4.03410198 23.43407762 -0.28458196 26.06747517 -5.88671875 26.6484375 C-13.03259024 26.88632823 -17.85168982 26.272715 -23.25 21.375 C-26.14354642 18.02933695 -26.91187363 14.88948411 -26.7265625 10.43359375 C-25.80591067 6.45667971 -23.31523438 3.93840397 -20.25 1.375 C-13.69805034 -2.45727244 -6.95102089 -3.12861392 0 0 Z " fill="#80A9F8" transform="translate(67.25,85.625)"/>
<path d="M0 0 C1.57897257 0.00373658 3.15794748 0.0065805 4.73692322 0.00857544 C8.8649247 0.0161612 12.99278234 0.03576539 17.12072754 0.0579834 C21.34413712 0.07855162 25.56757025 0.08760049 29.79101562 0.09765625 C38.0573572 0.11901676 46.32358251 0.15309056 54.58984375 0.1953125 C54.58984375 0.5253125 54.58984375 0.8553125 54.58984375 1.1953125 C53.75569946 1.1922963 52.92155518 1.18928009 52.06213379 1.18617249 C44.17643344 1.16386826 36.29163886 1.17522104 28.40604401 1.22377872 C24.35246884 1.24756875 20.29971347 1.25863369 16.24609375 1.23999023 C12.32925986 1.22245453 8.41389394 1.23916443 4.49723816 1.27898979 C3.00785346 1.28823844 1.51834049 1.28543134 0.02900696 1.27000618 C-9.8022382 1.05946429 -9.8022382 1.05946429 -18.24853516 5.58325195 C-19.98471886 7.37701784 -19.98471886 7.37701784 -21.41015625 9.1953125 C-22.15007812 10.08476562 -22.89 10.97421875 -23.65234375 11.890625 C-24.19117188 12.69242188 -24.73 13.49421875 -25.28515625 14.3203125 C-25.83945313 15.12726563 -26.39375 15.93421875 -26.96484375 16.765625 C-29.63868116 21.26056249 -30.41015625 23.84607021 -30.41015625 29.1953125 C-36.68015625 28.5353125 -42.95015625 27.8753125 -49.41015625 27.1953125 C-46.06305105 17.1539969 -39.92742574 9.3050199 -30.47265625 4.3203125 C-20.75392587 -0.44736656 -10.54310494 -0.07370992 0 0 Z " fill="#4474E6" transform="translate(191.41015625,133.8046875)"/>
<path d="M0 0 C1.18613892 0.00785522 1.18613892 0.00785522 2.39624023 0.01586914 C3.67724609 0.02070313 3.67724609 0.02070313 4.98413086 0.02563477 C5.88196289 0.03401367 6.77979492 0.04239258 7.70483398 0.05102539 C8.6065332 0.05553711 9.50823242 0.06004883 10.43725586 0.06469727 C12.67234712 0.07652315 14.90730835 0.09300319 17.14233398 0.11352539 C17.86215831 10.67094878 16.45832223 22.72673533 11.14233398 32.11352539 C8.14347331 28.49807654 6.23972179 24.49870823 4.20483398 20.30102539 C2.20904813 16.20562666 0.20485023 12.16874617 -2.12329102 8.25024414 C-3.85766602 5.11352539 -3.85766602 5.11352539 -3.67016602 2.73852539 C-2.37342552 0.1450444 -2.37342552 0.1450444 0 0 Z " fill="#FA6B94" transform="translate(255.857666015625,200.886474609375)"/>
<path d="M0 0 C3.96 0 7.92 0 12 0 C12.43699219 1.55847656 12.43699219 1.55847656 12.8828125 3.1484375 C15.29957887 11.48107981 17.88879013 18.87156597 23 26 C23.41121094 26.58136719 23.82242187 27.16273438 24.24609375 27.76171875 C27.28521298 31.71755591 30.89590216 34.26393478 35 37 C32.29461024 38.06420545 31.13534466 38.04564409 28.3359375 37.1015625 C15.2582216 30.57995747 6.08160283 22.05830749 1.125 8.125 C0.15496745 5.10340434 0 3.3057604 0 0 Z " fill="#DDE3E3" transform="translate(360,301)"/>
<path d="M0 0 C-1.09682018 2.96141448 -2.13696318 4.10511128 -4.6875 6.0625 C-13.50324726 13.16228672 -17.15489001 24.77763441 -21 35 C-13.41 35 -5.82 35 2 35 C2 35.33 2 35.66 2 36 C-9.55 36 -21.1 36 -33 36 C-31.37047954 24.59335679 -26.47969114 16.78827017 -18 9 C-5.85582255 0 -5.85582255 0 0 0 Z " fill="#D8DEDE" transform="translate(393,250)"/>
<path d="M0 0 C0 6.93 0 13.86 0 21 C-4.455 22.485 -4.455 22.485 -9 24 C-10.98 24.99 -10.98 24.99 -13 26 C-13.99 26 -14.98 26 -16 26 C-16 19.07 -16 12.14 -16 5 C-13.545625 4.175 -11.09125 3.35 -8.5625 2.5 C-7.78849854 2.23896484 -7.01449707 1.97792969 -6.21704102 1.70898438 C-1.11111111 0 -1.11111111 0 0 0 Z " fill="#6794F8" transform="translate(76,123)"/>
<path d="M0 0 C7.59 0 15.18 0 23 0 C23 4.62 23 9.24 23 14 C15.41 14 7.82 14 0 14 C0 9.38 0 4.76 0 0 Z " fill="#C6CFCF" transform="translate(414,219)"/>
<path d="M0 0 C7.26 0 14.52 0 22 0 C22 4.62 22 9.24 22 14 C14.41 14 6.82 14 -1 14 C-1.125 2.25 -1.125 2.25 0 0 Z " fill="#C6CFCF" transform="translate(415,190)"/>
<path d="M0 0 C4.82380969 2.66849046 5.38261247 4.76522493 8 10 C-0.58 10 -9.16 10 -18 10 C-13.56891897 1.13783794 -9.79711346 -1.58174155 0 0 Z " fill="#7DA6F3" transform="translate(276,135)"/>
<path d="M0 0 C8.25 0 16.5 0 25 0 C23.0875017 4.78124576 21.54649723 7.64969211 17 10 C12.48732639 10.92160236 9.1439725 10.64659315 5.125 8.375 C3 6 3 6 0 0 Z " fill="#7FA8F7" transform="translate(258,160)"/>
</svg>
