<?xml version="1.0" encoding="UTF-8"?>
<svg version="1.1" xmlns="http://www.w3.org/2000/svg" width="512" height="512">
<path d="M0 0 C9.40176362 6.89566438 17.09632112 16.67536799 19.421875 28.35546875 C19.5691546 30.52490955 19.6691297 32.69775928 19.73828125 34.87109375 C19.78017578 36.12148438 19.82207031 37.371875 19.86523438 38.66015625 C19.90455078 39.96210937 19.94386719 41.2640625 19.984375 42.60546875 C20.02755859 43.92289063 20.07074219 45.2403125 20.11523438 46.59765625 C20.22129417 49.85015663 20.32335524 53.10273267 20.421875 56.35546875 C21.42263062 56.56526367 21.42263062 56.56526367 22.44360352 56.77929688 C81.4670543 69.327391 137.15921352 99.92107954 174.421875 148.35546875 C175.58009766 149.78826172 175.58009766 149.78826172 176.76171875 151.25 C193.88164927 172.75133454 207.19147933 197.50436063 216.421875 223.35546875 C216.72963867 224.21430664 217.03740234 225.07314453 217.35449219 225.95800781 C222.45972787 240.46285192 225.931459 255.18826733 228.421875 270.35546875 C228.68239655 271.90408852 228.68239655 271.90408852 228.94818115 273.48399353 C230.93679589 287.04165515 230.769309 300.62768633 230.79296875 314.3046875 C230.79714121 315.6452474 230.80159515 316.98580646 230.8063221 318.32636452 C230.83068599 325.34673756 230.8438406 332.36703805 230.84741211 339.38745117 C230.85104053 345.86433461 230.88091975 352.34074235 230.92281669 358.81748074 C230.9578428 364.435086 230.97296602 370.05253593 230.97365814 375.67024928 C230.9744399 379.00043455 230.98514607 382.32975019 231.01165581 385.65988731 C231.24500998 417.50231252 224.31514944 444.66341714 203.421875 469.35546875 C202.94234375 469.9690625 202.4628125 470.58265625 201.96875 471.21484375 C187.13049238 489.80530445 161.66163776 502.31493919 138.421875 505.35546875 C122.84463361 506.39616007 107.30016594 506.39337106 92.421875 501.35546875 C91.47731445 501.04198486 91.47731445 501.04198486 90.51367188 500.72216797 C74.85086394 495.4043021 62.12318036 486.91809197 50.421875 475.35546875 C49.70644531 474.71222656 48.99101562 474.06898438 48.25390625 473.40625 C32.08546027 458.52869791 20.47385665 433.07348708 19.24487305 411.20605469 C18.70135802 381.34954007 23.35143236 358.79639306 40.484375 333.85546875 C53.02299267 315.1809318 58.83181638 291.30848186 54.73828125 268.984375 C53.86444803 265.03697649 52.68719939 261.19284905 51.421875 257.35546875 C51.10041504 256.32848877 51.10041504 256.32848877 50.77246094 255.28076172 C48.10193774 246.85520274 45.16985053 240.0373331 39.15625 233.37109375 C37.421875 231.35546875 37.421875 231.35546875 36.4375 229.21484375 C35.12892363 226.8191424 33.87557688 226.47766997 31.421875 225.35546875 C29.92265743 224.12958919 28.44532248 222.87671479 26.984375 221.60546875 C9.80709143 207.72280326 -14.25844217 204.01365907 -35.77734375 205.88671875 C-51.48969438 207.8245215 -66.13560154 212.29829953 -78.578125 222.35546875 C-79.33480469 222.938125 -80.09148437 223.52078125 -80.87109375 224.12109375 C-92.25054022 233.44401375 -98.46171045 245.50121786 -102.578125 259.35546875 C-102.84592773 260.25499268 -103.11373047 261.1545166 -103.38964844 262.08129883 C-105.41113023 269.42870012 -106.12415412 276.31050651 -106.078125 283.91796875 C-106.07167969 285.0476709 -106.06523437 286.17737305 -106.05859375 287.34130859 C-105.59000617 309.10905126 -96.68717727 325.90447085 -85.45043945 343.98535156 C-74.99026547 360.90562596 -70.17548494 378.71859439 -70.265625 398.54296875 C-70.27126465 399.83291748 -70.2769043 401.12286621 -70.28271484 402.4519043 C-70.65375183 431.52687649 -82.85002563 457.29142407 -103.50512695 477.69995117 C-123.07110866 496.36926445 -148.46342647 505.79590459 -175.328125 505.66796875 C-177.18473755 505.65950928 -177.18473755 505.65950928 -179.07885742 505.65087891 C-207.92111282 505.26790805 -232.00683001 492.5646667 -252.13598633 472.28295898 C-270.69809521 452.90619708 -281.70977354 426.29774532 -281.73925781 399.49853516 C-281.74422272 398.41454941 -281.74918762 397.33056366 -281.75430298 396.21372986 C-281.76889901 392.62815712 -281.7757272 389.04262883 -281.78125 385.45703125 C-281.78407738 384.22374462 -281.78690475 382.99045799 -281.78981781 381.71979904 C-281.80326686 375.84967743 -281.81315314 369.97957175 -281.8170197 364.10943568 C-281.82190414 356.73889432 -281.84486353 349.36864637 -281.87633133 341.99816322 C-281.89515881 336.79871074 -281.90017417 331.59930589 -281.90169525 326.39982224 C-281.9046841 323.93558001 -281.91258152 321.47133783 -281.92588043 319.00712967 C-282.02794469 298.61693636 -280.77328684 278.42377855 -275.953125 258.54296875 C-275.70151611 257.48513184 -275.44990723 256.42729492 -275.19067383 255.33740234 C-270.32599494 235.62074435 -263.56466496 216.56324348 -254.578125 198.35546875 C-253.99659668 197.1658252 -253.99659668 197.1658252 -253.40332031 195.95214844 C-247.39335334 183.76978295 -240.41384656 172.44437714 -232.578125 161.35546875 C-232.1773877 160.78747559 -231.77665039 160.21948242 -231.36376953 159.63427734 C-216.27546798 138.45828797 -197.7028269 118.56095843 -176.578125 103.35546875 C-175.43147628 102.50370074 -174.28565775 101.65081412 -173.140625 100.796875 C-164.94938068 94.75024737 -156.43222539 89.3747002 -147.578125 84.35546875 C-146.91973633 83.98035156 -146.26134766 83.60523437 -145.58300781 83.21875 C-126.17445336 72.26698023 -104.93686243 64.17124051 -83.265625 58.98046875 C-82.56606689 58.81256836 -81.86650879 58.64466797 -81.14575195 58.47167969 C-77.54183136 57.65423193 -74.26168227 57.28831543 -70.578125 57.35546875 C-70.60430908 56.54505127 -70.63049316 55.73463379 -70.6574707 54.8996582 C-70.74385563 51.82632316 -70.80592653 48.75361623 -70.8527832 45.67944336 C-70.88961945 43.72141836 -70.95322537 41.76395448 -71.01757812 39.80664062 C-71.1994351 25.5126826 -66.73464443 14.97519792 -56.99609375 4.68359375 C-41.74951 -9.70977485 -17.37512065 -11.0832209 0 0 Z M-37.578125 29.35546875 C-42.01930015 36.69926909 -40.578125 44.98006702 -40.578125 53.35546875 C-30.678125 53.35546875 -20.778125 53.35546875 -10.578125 53.35546875 C-9.66288253 39.93215623 -9.66288253 39.93215623 -15.015625 28.54296875 C-19.57901131 24.64739507 -22.14614176 23.83435459 -28.00390625 23.98828125 C-32.20439228 24.58744011 -34.8361507 26.13364895 -37.578125 29.35546875 Z " fill="#738AFF" transform="translate(281.578125,6.64453125)"/>
<path d="M0 0 C0 49.83 0 99.66 0 151 C-2.5704699 152.28523495 -5.03456 152.34003331 -7.86425781 152.59448242 C-29.91387383 154.6094545 -49.08668063 162.25509257 -63.8125 179.3125 C-78.43303994 198.12895247 -81.52725916 220.85140825 -80 244 C-77.73766826 261.39883929 -68.96256712 276.00288191 -59.87231445 290.62988281 C-49.41214047 307.55015721 -44.59735994 325.36312564 -44.6875 345.1875 C-44.69313965 346.47744873 -44.6987793 347.76739746 -44.70458984 349.09643555 C-45.07562683 378.17140774 -57.27190063 403.93595532 -77.92700195 424.34448242 C-97.49298366 443.0137957 -122.88530147 452.44043584 -149.75 452.3125 C-150.9877417 452.30686035 -152.2254834 452.3012207 -153.50073242 452.29541016 C-182.34298782 451.9124393 -206.42870501 439.20919795 -226.55786133 418.92749023 C-245.11997021 399.55072833 -256.13164854 372.94227657 -256.16113281 346.14306641 C-256.16609772 345.05908066 -256.17106262 343.97509491 -256.17617798 342.85826111 C-256.19077401 339.27268837 -256.1976022 335.68716008 -256.203125 332.1015625 C-256.20595238 330.86827587 -256.20877975 329.63498924 -256.21169281 328.36433029 C-256.22514186 322.49420868 -256.23502814 316.624103 -256.2388947 310.75396693 C-256.24377914 303.38342557 -256.26673853 296.01317762 -256.29820633 288.64269447 C-256.31703381 283.44324199 -256.32204917 278.24383714 -256.32357025 273.04435349 C-256.3265591 270.58011126 -256.33445652 268.11586908 -256.34775543 265.65166092 C-256.44981969 245.26146761 -255.19516184 225.0683098 -250.375 205.1875 C-250.12339111 204.12966309 -249.87178223 203.07182617 -249.61254883 201.98193359 C-244.74786994 182.2652756 -237.98653996 163.20777473 -229 145 C-228.41847168 143.81035645 -228.41847168 143.81035645 -227.82519531 142.59667969 C-221.81522834 130.4143142 -214.83572156 119.08890839 -207 108 C-206.5992627 107.43200684 -206.19852539 106.86401367 -205.78564453 106.27880859 C-190.69734298 85.10281922 -172.1247019 65.20548968 -151 50 C-149.85335128 49.14823199 -148.70753275 48.29534537 -147.5625 47.44140625 C-139.37125568 41.39477862 -130.85410039 36.01923145 -122 31 C-121.34161133 30.62488281 -120.68322266 30.24976562 -120.00488281 29.86328125 C-90.70738747 13.33142543 -59.26960712 4.52476135 -26 1 C-25.12698242 0.89993652 -24.25396484 0.79987305 -23.35449219 0.69677734 C-15.45278016 -0.13659494 -8.08957895 0 0 0 Z " fill="#8CB1FF" transform="translate(256,60)"/>
<path d="M0 0 C9.36384982 6.86785674 17.17107073 16.69232615 19.421875 28.35546875 C19.50335098 30.52605907 19.52940442 32.69899726 19.51953125 34.87109375 C19.51469727 36.74667969 19.51469727 36.74667969 19.50976562 38.66015625 C19.49719727 40.61308594 19.49719727 40.61308594 19.484375 42.60546875 C19.47986328 43.92289063 19.47535156 45.2403125 19.47070312 46.59765625 C19.45891816 49.85030616 19.44246511 53.10286459 19.421875 56.35546875 C11.96276763 55.81776459 4.53141951 55.21305691 -2.890625 54.29296875 C-3.64279297 54.20208984 -4.39496094 54.11121094 -5.16992188 54.01757812 C-6.97296068 53.79937598 -8.7755928 53.57781703 -10.578125 53.35546875 C-10.62710938 52.35386719 -10.67609375 51.35226563 -10.7265625 50.3203125 C-10.80166579 48.97784116 -10.87721026 47.63539445 -10.953125 46.29296875 C-11.05753906 44.32650391 -11.05753906 44.32650391 -11.1640625 42.3203125 C-11.89853021 35.28743771 -13.11079523 31.00269905 -18.578125 26.35546875 C-22.30075376 24.49415437 -26.51545549 24.93110389 -30.578125 25.35546875 C-33.94255499 26.7624122 -35.7232913 27.88475092 -37.5703125 31.0625 C-40.50696406 38.37616078 -40.25254792 46.60673426 -40.578125 54.35546875 C-50.478125 55.34546875 -60.378125 56.33546875 -70.578125 57.35546875 C-70.68125 52.83859375 -70.784375 48.32171875 -70.890625 43.66796875 C-70.93614502 42.27231689 -70.98166504 40.87666504 -71.02856445 39.4387207 C-71.18268825 25.30606541 -66.60971699 14.84317584 -56.99609375 4.68359375 C-41.74951 -9.70977485 -17.37512065 -11.0832209 0 0 Z " fill="#728AFF" transform="translate(281.578125,6.64453125)"/>
<path d="M0 0 C6.73874059 4.08190156 12.03680839 9.65780943 17.52502441 15.23200989 C18.58910179 16.30169309 19.65385132 17.37070804 20.71923828 18.43908691 C23.5009034 21.23212319 26.27343429 24.03405354 29.04406738 26.83802795 C31.88114535 29.70597473 34.72689727 32.56528694 37.57189941 35.42536926 C43.13764607 41.02314341 48.69375886 46.6303574 54.24377441 52.24372864 C53.83398849 52.78456589 53.42420258 53.32540314 53.0019989 53.88262939 C52.46327652 54.59661392 51.92455414 55.31059845 51.36950684 56.04621887 C50.83597092 56.75205612 50.302435 57.45789337 49.75273132 58.18511963 C45.02355288 64.63694691 41.12535566 71.78551835 38.24377441 79.24372864 C31.78402281 73.91065164 25.87526944 68.05688124 19.94689941 62.14997864 C19.41646782 61.62237442 18.88603622 61.0947702 18.33953094 60.55117798 C15.538807 57.76534907 12.74089636 54.97673209 9.94543457 52.18562317 C7.06844821 49.31414339 4.18228139 46.45207828 1.29390335 43.5920639 C-0.93824987 41.37856585 -3.1636363 39.15835752 -5.38724518 36.9362793 C-6.44844383 35.87809525 -7.51212881 34.82239825 -8.57839203 33.76931763 C-10.06903599 32.29581359 -11.54983364 30.81303817 -13.02868652 29.32771301 C-14.29274323 28.06912476 -14.29274323 28.06912476 -15.58233643 26.78511047 C-19.33583767 22.39708552 -21.41872689 18.21705502 -21.17028809 12.33357239 C-20.13092442 7.08772745 -17.23176456 3.2930008 -12.94372559 0.24372864 C-8.43171018 -1.17180561 -4.41469993 -1.90107191 0 0 Z " fill="#738AFF" transform="translate(141.7562255859375,181.7562713623047)"/>
<path d="M0 0 C4.41834116 1.90177208 7.20443138 4.04151222 9.2890625 8.42578125 C10.41166466 11.8493692 10.66355454 14.85994526 9.91796875 18.34375 C5.80179254 26.34248916 -0.55836569 32.23940347 -6.875 38.5 C-8.02942686 39.65390749 -9.18333391 40.80833523 -10.33674622 41.96325684 C-12.74186184 44.36828322 -15.15201774 46.76810001 -17.56616211 49.1640625 C-20.66512809 52.24020208 -23.75274617 55.32744573 -26.83695507 58.41837311 C-29.21196178 60.79671217 -31.59190977 63.17005392 -33.97350502 65.54179382 C-35.11476321 66.67919756 -36.25466966 67.81795926 -37.39320946 68.95808411 C-38.97756295 70.54280665 -40.56822555 72.12090054 -42.16088867 73.69726562 C-43.51726692 75.04673279 -43.51726692 75.04673279 -44.90104675 76.42346191 C-47.08203125 78.34375 -47.08203125 78.34375 -49.08203125 78.34375 C-49.35015625 77.59351563 -49.61828125 76.84328125 -49.89453125 76.0703125 C-53.18369594 67.47953367 -57.58145116 60.84433009 -64.08203125 54.34375 C-63.86485235 50.32020214 -61.38971062 48.27108008 -58.6574707 45.53100586 C-58.19879105 45.06706924 -57.74011139 44.60313263 -57.26753235 44.12513733 C-55.75091362 42.59532868 -54.22359816 41.0767407 -52.6953125 39.55859375 C-51.63450441 38.49576395 -50.57414192 37.43248921 -49.51420593 36.36878967 C-47.29044164 34.14060281 -45.06134352 31.91793038 -42.82836914 29.69897461 C-39.97461989 26.86227539 -37.13449525 24.01237739 -34.29827595 21.15816402 C-32.1100335 18.95904642 -29.91465262 16.76716703 -27.71709251 14.57736397 C-26.66757492 13.52984023 -25.62026083 12.48010378 -24.57525063 11.42808342 C-23.10852052 9.9536821 -21.63242104 8.48932461 -20.15356445 7.02709961 C-19.31718948 6.19311142 -18.48081451 5.35912323 -17.61909485 4.49986267 C-12.22412017 -0.08503353 -6.98310713 -2.2010544 0 0 Z " fill="#6666FF" transform="translate(381.08203125,181.65625)"/>
<path d="M0 0 C0.73239395 -0.00043808 1.4647879 -0.00087616 2.21937561 -0.00132751 C4.62195196 0.0007499 7.02381623 0.02403037 9.42626953 0.04760742 C11.09920877 0.05320713 12.77215295 0.05747546 14.44509888 0.06047058 C18.83461237 0.07188992 23.22382505 0.1013318 27.61322021 0.13458252 C32.09773693 0.16534637 36.58230256 0.17898938 41.06689453 0.1940918 C49.85609462 0.22620452 58.64505084 0.27736532 67.43408203 0.34057617 C67.27560791 1.37770752 67.11713379 2.41483887 66.95385742 3.48339844 C66.52013367 6.70199945 66.24583768 9.81475474 66.11767578 13.05541992 C66.07578125 14.07055664 66.03388672 15.08569336 65.99072266 16.1315918 C65.95140625 17.16993164 65.91208984 18.20827148 65.87158203 19.27807617 C65.80680664 20.87619141 65.80680664 20.87619141 65.74072266 22.5065918 C65.63533714 25.1178106 65.53321115 27.72911363 65.43408203 30.34057617 C56.03702581 30.43342195 46.64012848 30.50441479 37.24271297 30.54782486 C32.87868437 30.56866384 28.51497053 30.59691347 24.15112305 30.64233398 C19.93655381 30.68592422 15.72228657 30.70974102 11.50750923 30.72008514 C9.90278942 30.72745297 8.29808539 30.74184069 6.6934948 30.7634964 C4.43861576 30.79270703 2.18497066 30.79652503 -0.07006836 30.79467773 C-1.35136124 30.80356018 -2.63265411 30.81244263 -3.95277405 30.82159424 C-8.88312812 30.16521591 -12.87913827 28.39092242 -16.12451172 24.44604492 C-18.19969066 19.91754333 -19.37964674 16.40377744 -18.56591797 11.34057617 C-14.8004758 2.68807075 -9.43379952 -0.04764545 0 0 Z " fill="#738AFF" transform="translate(109.56591796875,270.659423828125)"/>
<path d="M0 0 C9.37978532 -0.09290462 18.75941091 -0.1638683 28.13955688 -0.20724869 C32.49571041 -0.22807492 36.85154787 -0.25630099 41.20751953 -0.30175781 C45.41560957 -0.34539387 49.62339663 -0.3691744 53.83169556 -0.37950897 C55.43279791 -0.38686863 57.0338847 -0.4012402 58.63485718 -0.42292023 C74.40704928 -0.62790354 74.40704928 -0.62790354 81 4 C83.7438391 7.17374194 84.89310648 10.26510706 85.5 14.4375 C84.88537524 18.81670139 83.83895714 22.54913731 81 26 C75.96405346 29.35770626 72.77645887 30.4975498 66.59594727 30.45410156 C65.54102837 30.45497772 65.54102837 30.45497772 64.46479797 30.45587158 C62.16481305 30.45310846 59.86616171 30.42210413 57.56640625 30.390625 C55.96216032 30.38315622 54.3579052 30.3774663 52.75364685 30.37347412 C48.54979869 30.35826774 44.34651129 30.31903 40.1428833 30.2746582 C35.84598372 30.23359693 31.54899273 30.21544003 27.25195312 30.1953125 C18.83437929 30.15253003 10.41725958 30.08434042 2 30 C1.96241577 29.11646851 1.96241577 29.11646851 1.92407227 28.21508789 C1.80667639 25.49741329 1.68461285 22.77996658 1.5625 20.0625 C1.52318359 19.13630859 1.48386719 18.21011719 1.44335938 17.25585938 C1.17920879 11.46486581 0.70235691 5.75460497 0 0 Z " fill="#6666FF" transform="translate(336,271)"/>
<path d="M0 0 C14.23497185 0 23.45591785 3.91506245 33.671875 13.58203125 C40.91615263 21.25573771 45.14523361 31.04860659 45.09765625 41.515625 C45.09443359 42.76601563 45.09121094 44.01640625 45.08789062 45.3046875 C45.07532227 47.25761719 45.07532227 47.25761719 45.0625 49.25 C45.05798828 50.56742188 45.05347656 51.88484375 45.04882812 53.2421875 C45.03704316 56.49483741 45.02059011 59.74739584 45 63 C37.54089263 62.46229584 30.10954451 61.85758816 22.6875 60.9375 C21.93533203 60.84662109 21.18316406 60.75574219 20.40820312 60.66210938 C18.60516432 60.44390723 16.8025322 60.22234828 15 60 C14.95101563 58.99839844 14.90203125 57.99679688 14.8515625 56.96484375 C14.77645921 55.62237241 14.70091474 54.2799257 14.625 52.9375 C14.55539062 51.62652344 14.48578125 50.31554688 14.4140625 48.96484375 C13.86321401 43.69020965 13.14835572 39.44364719 9.8125 35.25 C6.56060295 32.44354433 6.56060295 32.44354433 0 30 C0 20.1 0 10.2 0 0 Z " fill="#6666FF" transform="translate(256,0)"/>
</svg>
