<?xml version="1.0" encoding="UTF-8"?>
<svg version="1.1" xmlns="http://www.w3.org/2000/svg" width="512" height="512">
<path d="M0 0 C1.01790619 0.00215515 2.03581238 0.0043103 3.08456421 0.00653076 C17.69363523 0.05620146 32.02575853 0.30709809 46.375 3.3125 C47.34985352 3.51117676 48.32470703 3.70985352 49.32910156 3.91455078 C88.47564494 12.10330594 124.69815091 27.79453981 156.375 52.3125 C157.261875 52.98667969 158.14875 53.66085938 159.0625 54.35546875 C174.64283588 66.46518494 189.26608284 80.75013716 201.375 96.3125 C202.15101563 97.2715625 202.92703125 98.230625 203.7265625 99.21875 C238.25804162 142.62975232 256.81395322 197.76040062 256.69067383 253.03979492 C256.6875221 255.97938487 256.71104926 258.9179558 256.73632812 261.85742188 C256.78098737 275.23056192 255.57551542 288.12666711 253.375 301.3125 C253.09281616 303.01805054 253.09281616 303.01805054 252.80493164 304.75805664 C245.77946967 343.86954746 228.79665906 381.05202178 204.375 412.3125 C203.61574219 413.28445313 202.85648437 414.25640625 202.07421875 415.2578125 C189.73986402 430.63741644 175.93895499 445.19015196 160.375 457.3125 C159.43914062 458.07691406 158.50328125 458.84132813 157.5390625 459.62890625 C125.58628299 485.2157721 86.41988322 501.72551276 46.375 509.3125 C45.56562988 509.47621094 44.75625977 509.63992188 43.92236328 509.80859375 C13.88110013 515.67977137 -20.7615176 514.58512909 -50.625 508.3125 C-52.14794678 507.99901611 -52.14794678 507.99901611 -53.70166016 507.67919922 C-90.84546555 499.78695344 -125.70945445 483.68345578 -155.625 460.3125 C-156.59695312 459.55324219 -157.56890625 458.79398437 -158.5703125 458.01171875 C-173.94991644 445.67736402 -188.50265196 431.87645499 -200.625 416.3125 C-201.77162109 414.90871094 -201.77162109 414.90871094 -202.94140625 413.4765625 C-228.5282721 381.52378299 -245.03801276 342.35738322 -252.625 302.3125 C-252.78871094 301.50312988 -252.95242187 300.69375977 -253.12109375 299.85986328 C-258.59069558 271.87335724 -258.46977511 238.21828161 -252.625 210.3125 C-252.42632324 209.33764648 -252.22764648 208.36279297 -252.02294922 207.35839844 C-241.93598313 159.13741149 -219.89911449 114.53770064 -185.40722656 79.14160156 C-183.63301167 77.32072238 -181.87518486 75.48496071 -180.1171875 73.6484375 C-173.01832106 66.31138736 -165.60682072 59.74213624 -157.41796875 53.64794922 C-155.58092428 52.27967127 -153.75911069 50.89264471 -151.9375 49.50390625 C-143.51077324 43.13790222 -134.81596417 37.50688619 -125.625 32.3125 C-124.99464844 31.94946777 -124.36429688 31.58643555 -123.71484375 31.21240234 C-85.96656579 9.60246645 -43.19754839 -0.16448837 0 0 Z " fill="#FDBF43" transform="translate(255.625,-0.3125)"/>
<path d="M0 0 C1.01790619 0.00215515 2.03581238 0.0043103 3.08456421 0.00653076 C17.69363523 0.05620146 32.02575853 0.30709809 46.375 3.3125 C47.34985352 3.51117676 48.32470703 3.70985352 49.32910156 3.91455078 C88.47564494 12.10330594 124.69815091 27.79453981 156.375 52.3125 C157.261875 52.98667969 158.14875 53.66085938 159.0625 54.35546875 C174.64283588 66.46518494 189.26608284 80.75013716 201.375 96.3125 C202.15101563 97.2715625 202.92703125 98.230625 203.7265625 99.21875 C238.25804162 142.62975232 256.81395322 197.76040062 256.69067383 253.03979492 C256.6875221 255.97938487 256.71104926 258.9179558 256.73632812 261.85742188 C256.78098737 275.23056192 255.57551542 288.12666711 253.375 301.3125 C253.09281616 303.01805054 253.09281616 303.01805054 252.80493164 304.75805664 C245.77946967 343.86954746 228.79665906 381.05202178 204.375 412.3125 C203.61574219 413.28445313 202.85648437 414.25640625 202.07421875 415.2578125 C189.73986402 430.63741644 175.93895499 445.19015196 160.375 457.3125 C159.43914062 458.07691406 158.50328125 458.84132813 157.5390625 459.62890625 C125.58628299 485.2157721 86.41988322 501.72551276 46.375 509.3125 C45.56562988 509.47621094 44.75625977 509.63992188 43.92236328 509.80859375 C13.88110013 515.67977137 -20.7615176 514.58512909 -50.625 508.3125 C-52.14794678 507.99901611 -52.14794678 507.99901611 -53.70166016 507.67919922 C-90.84546555 499.78695344 -125.70945445 483.68345578 -155.625 460.3125 C-156.59695312 459.55324219 -157.56890625 458.79398437 -158.5703125 458.01171875 C-173.94991644 445.67736402 -188.50265196 431.87645499 -200.625 416.3125 C-201.77162109 414.90871094 -201.77162109 414.90871094 -202.94140625 413.4765625 C-228.5282721 381.52378299 -245.03801276 342.35738322 -252.625 302.3125 C-252.78871094 301.50312988 -252.95242187 300.69375977 -253.12109375 299.85986328 C-258.59069558 271.87335724 -258.46977511 238.21828161 -252.625 210.3125 C-252.42632324 209.33764648 -252.22764648 208.36279297 -252.02294922 207.35839844 C-241.93598313 159.13741149 -219.89911449 114.53770064 -185.40722656 79.14160156 C-183.63301167 77.32072238 -181.87518486 75.48496071 -180.1171875 73.6484375 C-173.01832106 66.31138736 -165.60682072 59.74213624 -157.41796875 53.64794922 C-155.58092428 52.27967127 -153.75911069 50.89264471 -151.9375 49.50390625 C-143.51077324 43.13790222 -134.81596417 37.50688619 -125.625 32.3125 C-124.99464844 31.94946777 -124.36429688 31.58643555 -123.71484375 31.21240234 C-85.96656579 9.60246645 -43.19754839 -0.16448837 0 0 Z M-33.40722656 68.82519531 C-35.78298878 69.3472144 -38.16699705 69.80924157 -40.5546875 70.2734375 C-59.28242902 74.12403434 -90.20780918 81.65885325 -101.625 98.3125 C-101.75350237 100.51259059 -101.75350237 100.51259059 -101.125 102.5625 C-100.953125 104.8671875 -100.953125 104.8671875 -101.625 107.3125 C-105.59173595 111.2225683 -110.00628067 114.22219745 -114.625 117.3125 C-115.37652344 117.90933594 -116.12804687 118.50617188 -116.90234375 119.12109375 C-118.625 120.3125 -118.625 120.3125 -120.9375 120 C-121.824375 119.773125 -122.71125 119.54625 -123.625 119.3125 C-127.86489626 118.93393783 -129.89323982 118.8352651 -133.5 121.1875 C-136.26422361 123.95172361 -136.60085014 124.67252858 -136.75 128.625 C-136.76939711 132.14387983 -136.76939711 132.14387983 -135.96533203 134.7800293 C-135.42647768 138.78973958 -137.42549531 140.65919216 -139.71875 143.79492188 C-140.3065625 144.56384766 -140.894375 145.33277344 -141.5 146.125 C-142.04914063 146.91326172 -142.59828125 147.70152344 -143.1640625 148.51367188 C-147.40512864 154.13113906 -147.40512864 154.13113906 -150.86816406 154.64599609 C-152.41121 154.55696176 -153.95300732 154.44237614 -155.4921875 154.30151367 C-158.47572789 154.31688218 -160.21294715 155.6229102 -162.30175781 157.67578125 C-164.83927492 160.8144371 -166.68612346 164.21875479 -168.5 167.8125 C-169.13844849 169.05894287 -169.13844849 169.05894287 -169.78979492 170.33056641 C-177.80144975 186.34789387 -183.06273519 202.79803135 -186.625 220.3125 C-186.87056641 221.41899902 -186.87056641 221.41899902 -187.12109375 222.54785156 C-197.39925621 269.24553595 -184.66555267 319.72897418 -159.47314453 359.51660156 C-151.94935296 371.12375742 -143.16235732 381.32488118 -133.625 391.3125 C-133.02300781 391.96734375 -132.42101562 392.6221875 -131.80078125 393.296875 C-109.49344152 416.8965795 -76.78694861 433.56961256 -45.625 441.3125 C-44.46226562 441.60640625 -43.29953125 441.9003125 -42.1015625 442.203125 C6.10333563 453.45461152 57.67298046 444.32896792 99.875 418.875 C112.49409423 411.00781375 123.62707569 401.54112489 134.375 391.3125 C135.43267578 390.33410156 135.43267578 390.33410156 136.51171875 389.3359375 C142.8640478 383.27996457 148.10778343 376.3056854 153.375 369.3125 C154.0040625 368.47847656 154.633125 367.64445312 155.28125 366.78515625 C157.05559525 364.33706198 158.72927257 361.84906684 160.375 359.3125 C160.73916016 358.75353027 161.10332031 358.19456055 161.47851562 357.61865234 C169.44688385 345.21942798 175.12167068 332.05292975 180.375 318.3125 C180.65214844 317.60335449 180.92929687 316.89420898 181.21484375 316.16357422 C190.16062345 292.8138803 191.52302582 267.00822923 190.375 242.3125 C190.33487793 241.43706543 190.29475586 240.56163086 190.25341797 239.65966797 C187.69828061 194.26119416 164.91321036 153.73919697 134.375 121.3125 C133.75753906 120.6525 133.14007813 119.9925 132.50390625 119.3125 C123.88350956 110.38201709 113.75440492 103.05361772 103.375 96.3125 C102.76479004 95.91417969 102.15458008 95.51585938 101.52587891 95.10546875 C62.96389614 70.29663634 11.82938132 58.85711043 -33.40722656 68.82519531 Z " fill="#DBB8A2" transform="translate(255.625,-0.3125)"/>
<path d="M0 0 C0.62245605 0.39767578 1.24491211 0.79535156 1.88623047 1.20507812 C12.35321351 7.9513255 21.85719702 15.55580772 31 24 C31.50901855 24.46905762 32.01803711 24.93811523 32.54248047 25.42138672 C40.24924007 32.6103929 46.71949182 40.57788234 53 49 C53.62519531 49.83015625 54.25039063 50.6603125 54.89453125 51.515625 C68.92846639 70.84104389 79.24296712 92.83030209 85 116 C85.29390625 117.16273438 85.5878125 118.32546875 85.890625 119.5234375 C93.71416366 153.04193157 92.65433309 191.75984643 80 224 C79.64776367 224.90943359 79.29552734 225.81886719 78.93261719 226.75585938 C68.3692187 253.74061973 53.85787967 275.91016915 34 297 C33.34386719 297.71027344 32.68773437 298.42054688 32.01171875 299.15234375 C0.61509392 332.0280387 -47.69005975 350.9264891 -92.5390625 352.3125 C-147.57862992 353.16687528 -195.09250384 333.58333801 -235 296 C-235.66 295.38253906 -236.32 294.76507813 -237 294.12890625 C-265.75760042 266.36983362 -283.3467103 226.0966508 -289 187 C-289.15142456 185.98558838 -289.15142456 185.98558838 -289.3059082 184.95068359 C-294.54672901 144.91363284 -286.65019921 97.40830986 -263 64 C-260.52734375 61.59375 -260.52734375 61.59375 -258 60 C-255.89453125 60.06640625 -255.89453125 60.06640625 -253.8125 60.5625 C-251.4259152 60.84037012 -251.4259152 60.84037012 -249 60 C-245.08971749 56.03312874 -242.09045519 51.61894747 -239 47 C-238.40316406 46.24847656 -237.80632812 45.49695313 -237.19140625 44.72265625 C-235.73202497 43.02607012 -235.73202497 43.02607012 -236.3125 40.6875 C-236.6528125 39.3571875 -236.6528125 39.3571875 -237 38 C-237.37856217 33.76010374 -237.4772349 31.73176018 -235.125 28.125 C-232.36077639 25.36077639 -231.63997142 25.02414986 -227.6875 24.875 C-224 25 -224 25 -221.5324707 25.65966797 C-217.52276042 26.19852232 -215.65330784 24.19950469 -212.51757812 21.90625 C-211.74865234 21.3184375 -210.97972656 20.730625 -210.1875 20.125 C-209.39923828 19.57585937 -208.61097656 19.02671875 -207.79882812 18.4609375 C-203.52851542 15.40655011 -203.52851542 15.40655011 -201.66650391 10.75683594 C-201.75550248 9.2144098 -201.87152008 7.67328907 -202.01538086 6.13500977 C-201.99372069 3.12837198 -200.63118939 1.38877451 -198.56542969 -0.71240234 C-195.78295856 -3.00104126 -192.83387494 -4.69058168 -189.625 -6.3125 C-188.89313477 -6.68858398 -188.16126953 -7.06466797 -187.40722656 -7.45214844 C-171.78534793 -15.26633016 -155.57701165 -21.103549 -138.4453125 -24.51220703 C-136.8849061 -24.8234782 -135.32715302 -25.14858704 -133.7734375 -25.49169922 C-89.29630726 -35.28677631 -38.00731638 -24.46239672 0 0 Z M-132.12890625 22.12890625 C-136.43411905 24.93461636 -140.4701521 24.50466198 -145.5 24.5 C-163.65316077 24.92337568 -177.28078539 30.72498777 -190 44 C-193.62765944 48.47388211 -196.60917994 52.87503432 -198.6875 58.25 C-200.93012018 63.0501615 -205.07693778 64.16960254 -209.69921875 66.2578125 C-222.77376154 73.15869544 -231.59865416 86.13339428 -236 100 C-236.78513588 103.38678422 -237.10327126 106.47677772 -237.0703125 109.94921875 C-237.17823369 127.91887849 -237.17823369 127.91887849 -243.21484375 134.69921875 C-246.63516259 139.10746338 -247.6552583 144.66441197 -249 150 C-249.19207031 150.65742188 -249.38414062 151.31484375 -249.58203125 151.9921875 C-252.47670442 165.89743993 -248.36265597 180.96352784 -241.3671875 192.9609375 C-240.02679756 195.10221513 -240.02679756 195.10221513 -238 197 C-237.76049805 199.00854492 -237.76049805 199.00854492 -237.76171875 201.48046875 C-237.74310791 202.84498169 -237.74310791 202.84498169 -237.72412109 204.23706055 C-237.70599365 205.69752808 -237.70599365 205.69752808 -237.6875 207.1875 C-237.16837747 224.30605133 -231.93301257 239.12815735 -219.2421875 251.15234375 C-214.2520464 255.26442866 -208.7772502 258.80828228 -202.83203125 261.359375 C-199.38283217 263.35753171 -198.77341742 264.78277968 -197.3125 268.4375 C-190.71042067 282.63884773 -178.66914842 291.78763734 -164.19140625 297.2734375 C-160.31122749 298.55991388 -156.9982643 299.11256411 -152.89453125 299.10546875 C-151.91033203 299.12029297 -150.92613281 299.13511719 -149.91210938 299.15039062 C-147.86537443 299.1748947 -145.81831492 299.18047621 -143.77148438 299.16601562 C-137.19909385 299.30712746 -133.21910386 300.45268932 -127.99291992 304.49633789 C-118.26959525 311.83260601 -105.74654041 312.9608622 -94 312 C-83.79640083 310.4583424 -72.48435891 307.48435891 -65 300 C-62.99145508 299.76049805 -62.99145508 299.76049805 -60.51953125 299.76171875 C-59.60985596 299.74931152 -58.70018066 299.7369043 -57.76293945 299.72412109 C-56.78929443 299.71203613 -55.81564941 299.69995117 -54.8125 299.6875 C-37.69394867 299.16837747 -22.87184265 293.93301257 -10.84765625 281.2421875 C-6.73557134 276.2520464 -3.19171772 270.7772502 -0.640625 264.83203125 C1.35753171 261.38283217 2.78277968 260.77341742 6.4375 259.3125 C20.3058999 252.86520513 29.40221668 241.31131191 34.875 227.1875 C37.24010595 219.77277876 37.55428003 212.61098052 37.37255859 204.85229492 C37.36858027 197.55140819 39.6848634 193.73425684 44 188 C50.76004086 174.80272923 52.11545416 159.28951893 48.125 145.03515625 C45.82149853 138.82050124 42.72497148 131.72497148 38 127 C37.74462891 124.85205078 37.74462891 124.85205078 37.7265625 122.1953125 C37.70891846 121.22489014 37.69127441 120.25446777 37.6730957 119.25463867 C37.65722412 118.22185791 37.64135254 117.18907715 37.625 116.125 C37.07253753 98.03011447 31.18198924 84.63008631 18 72 C13.52611789 68.37234056 9.12496568 65.39082006 3.75 63.3125 C-1.0501615 61.06987982 -2.16960254 56.92306222 -4.2578125 52.30078125 C-11.36871297 38.8283353 -24.4150597 30.44151685 -38.62109375 25.91015625 C-44.66379427 24.4260588 -50.95518618 24.48240222 -57.14770508 24.62744141 C-64.44859181 24.63141973 -68.26574316 22.3151366 -74 18 C-90.82236937 9.3830741 -117.76127721 7.76127721 -132.12890625 22.12890625 Z " fill="#C38863" transform="translate(356,94)"/>
<path d="M0 0 C1.01790619 0.00215515 2.03581238 0.0043103 3.08456421 0.00653076 C17.69363523 0.05620146 32.02575853 0.30709809 46.375 3.3125 C47.34985352 3.51117676 48.32470703 3.70985352 49.32910156 3.91455078 C88.47564494 12.10330594 124.69815091 27.79453981 156.375 52.3125 C157.261875 52.98667969 158.14875 53.66085938 159.0625 54.35546875 C174.64283588 66.46518494 189.26608284 80.75013716 201.375 96.3125 C202.15101563 97.2715625 202.92703125 98.230625 203.7265625 99.21875 C238.25804162 142.62975232 256.81395322 197.76040062 256.69067383 253.03979492 C256.6875221 255.97938487 256.71104926 258.9179558 256.73632812 261.85742188 C256.78098737 275.23056192 255.57551542 288.12666711 253.375 301.3125 C253.09281616 303.01805054 253.09281616 303.01805054 252.80493164 304.75805664 C245.77946967 343.86954746 228.79665906 381.05202178 204.375 412.3125 C203.61574219 413.28445313 202.85648437 414.25640625 202.07421875 415.2578125 C189.73986402 430.63741644 175.93895499 445.19015196 160.375 457.3125 C159.43914062 458.07691406 158.50328125 458.84132813 157.5390625 459.62890625 C125.58628299 485.2157721 86.41988322 501.72551276 46.375 509.3125 C45.56562988 509.47621094 44.75625977 509.63992188 43.92236328 509.80859375 C13.88110013 515.67977137 -20.7615176 514.58512909 -50.625 508.3125 C-52.14794678 507.99901611 -52.14794678 507.99901611 -53.70166016 507.67919922 C-90.84546555 499.78695344 -125.70945445 483.68345578 -155.625 460.3125 C-156.59695312 459.55324219 -157.56890625 458.79398437 -158.5703125 458.01171875 C-173.94991644 445.67736402 -188.50265196 431.87645499 -200.625 416.3125 C-201.77162109 414.90871094 -201.77162109 414.90871094 -202.94140625 413.4765625 C-228.5282721 381.52378299 -245.03801276 342.35738322 -252.625 302.3125 C-252.78871094 301.50312988 -252.95242187 300.69375977 -253.12109375 299.85986328 C-258.59069558 271.87335724 -258.46977511 238.21828161 -252.625 210.3125 C-252.42632324 209.33764648 -252.22764648 208.36279297 -252.02294922 207.35839844 C-241.93598313 159.13741149 -219.89911449 114.53770064 -185.40722656 79.14160156 C-183.63301167 77.32072238 -181.87518486 75.48496071 -180.1171875 73.6484375 C-173.01832106 66.31138736 -165.60682072 59.74213624 -157.41796875 53.64794922 C-155.58092428 52.27967127 -153.75911069 50.89264471 -151.9375 49.50390625 C-143.51077324 43.13790222 -134.81596417 37.50688619 -125.625 32.3125 C-124.99464844 31.94946777 -124.36429688 31.58643555 -123.71484375 31.21240234 C-85.96656579 9.60246645 -43.19754839 -0.16448837 0 0 Z M-154.625 78.3125 C-155.4809375 79.05886719 -156.336875 79.80523437 -157.21875 80.57421875 C-168.59959514 90.60448891 -178.58953843 101.14603713 -187.625 113.3125 C-188.05554688 113.88758301 -188.48609375 114.46266602 -188.9296875 115.05517578 C-212.55338957 146.75925776 -226.76636811 182.51772101 -233.625 221.3125 C-233.82633545 222.37936035 -233.82633545 222.37936035 -234.03173828 223.46777344 C-244.33199558 278.89503705 -227.55422815 341.64831993 -196.1875 387.5625 C-187.53178174 399.94868519 -178.08211037 411.41087909 -167.625 422.3125 C-166.84253906 423.13621094 -166.06007813 423.95992188 -165.25390625 424.80859375 C-159.75276833 430.46662687 -153.81624774 435.42902919 -147.625 440.3125 C-146.66078125 441.09367187 -145.6965625 441.87484375 -144.703125 442.6796875 C-130.79441471 453.72899289 -115.71498669 462.82561956 -99.625 470.3125 C-98.93647949 470.6420166 -98.24795898 470.9715332 -97.53857422 471.31103516 C-68.06400886 485.39819314 -35.36467497 492.79764877 -2.6875 492.625 C-1.97944214 492.62350952 -1.27138428 492.62201904 -0.54187012 492.6204834 C12.92855154 492.57002674 26.06287671 491.41232897 39.375 489.3125 C40.24382812 489.1892334 41.11265625 489.0659668 42.0078125 488.93896484 C100.22942794 480.62636035 154.60632636 444.33489493 189.51367188 397.8581543 C204.05189275 378.2470117 215.50430562 356.66673879 223.56396484 333.62548828 C224.29810683 331.53179135 225.05989441 329.45099388 225.83203125 327.37109375 C245.98405248 270.93325786 238.17451704 205.88612304 212.97265625 152.5703125 C184.74851373 94.52065768 133.30606695 52.3159704 72.9140625 31.39453125 C60.91238485 27.36145865 48.88709869 24.26346152 36.375 22.3125 C35.63266113 22.19535645 34.89032227 22.07821289 34.12548828 21.95751953 C-33.24335556 11.96430113 -103.91041903 32.96196125 -154.625 78.3125 Z " fill="#010100" transform="translate(255.625,-0.3125)"/>
<path d="M0 0 C0.62245605 0.39767578 1.24491211 0.79535156 1.88623047 1.20507812 C12.35321351 7.9513255 21.85719702 15.55580772 31 24 C31.50901855 24.46905762 32.01803711 24.93811523 32.54248047 25.42138672 C40.24924007 32.6103929 46.71949182 40.57788234 53 49 C53.62519531 49.83015625 54.25039063 50.6603125 54.89453125 51.515625 C68.92846639 70.84104389 79.24296712 92.83030209 85 116 C85.29390625 117.16273438 85.5878125 118.32546875 85.890625 119.5234375 C93.71416366 153.04193157 92.65433309 191.75984643 80 224 C79.64776367 224.90943359 79.29552734 225.81886719 78.93261719 226.75585938 C68.3692187 253.74061973 53.85787967 275.91016915 34 297 C33.34386719 297.71027344 32.68773437 298.42054688 32.01171875 299.15234375 C0.61509392 332.0280387 -47.69005975 350.9264891 -92.5390625 352.3125 C-147.57862992 353.16687528 -195.09250384 333.58333801 -235 296 C-235.66 295.38253906 -236.32 294.76507813 -237 294.12890625 C-265.75760042 266.36983362 -283.3467103 226.0966508 -289 187 C-289.15142456 185.98558838 -289.15142456 185.98558838 -289.3059082 184.95068359 C-294.54672901 144.91363284 -286.65019921 97.40830986 -263 64 C-260.23109508 61.46431066 -258.7599196 60.14551652 -255.0625 59.4375 C-250.77990245 60.22409955 -249.10330106 61.96886873 -246 65 C-244.23369875 68.53260251 -245.17473695 72.24259129 -246 76 C-247.30441017 79.17688101 -248.9696283 82.09300495 -250.6875 85.0625 C-271.11846566 122.31170503 -274.41547753 168.49641781 -262.875 209.125 C-255.93047679 232.28643632 -244.74823699 253.63243534 -229 272 C-228.28457031 272.8350708 -228.28457031 272.8350708 -227.5546875 273.68701172 C-199.27939629 306.28108906 -158.74113993 326.39655404 -116 331 C-110.95432145 331.28114629 -105.92777491 331.33502163 -100.875 331.3125 C-99.86286942 331.30876877 -99.86286942 331.30876877 -98.83029175 331.30496216 C-61.40930943 331.09284069 -24.19190184 318.74223871 5 295 C5.55397461 294.55285645 6.10794922 294.10571289 6.67871094 293.64501953 C40.58113477 266.10520899 63.75555087 225.42892318 68.5625 181.73828125 C70.26414389 162.17286344 69.58344779 143.1030693 65 124 C64.75975098 122.9483667 64.75975098 122.9483667 64.51464844 121.87548828 C56.45751014 86.90134976 35.96083295 52.77209072 7.4375 30.625 C6.83671631 30.15731201 6.23593262 29.68962402 5.61694336 29.20776367 C-29.9923254 1.8898574 -74.36699979 -11.56628052 -119.25878906 -6.64257812 C-125.5778314 -5.74470346 -131.79532633 -4.48827846 -138 -3 C-139.65322266 -2.60748047 -139.65322266 -2.60748047 -141.33984375 -2.20703125 C-143.91838902 -1.53742337 -146.45349646 -0.78135959 -149 0 C-149.92425781 0.23847656 -150.84851563 0.47695312 -151.80078125 0.72265625 C-163.99325614 4.05351025 -175.25051876 9.997714 -186.44140625 15.77734375 C-189.65004863 17.31063393 -191.48392447 17.58601259 -195 17 C-197.92021272 15.16210388 -200.43207849 13.13584301 -202 10 C-202.54681452 5.99002688 -202.29601944 4.4210428 -199.9375 1.06640625 C-196.95532789 -2.32782489 -193.62507328 -4.29067234 -189.625 -6.3125 C-188.89313477 -6.68858398 -188.16126953 -7.06466797 -187.40722656 -7.45214844 C-171.78534793 -15.26633016 -155.57701165 -21.103549 -138.4453125 -24.51220703 C-136.8849061 -24.8234782 -135.32715302 -25.14858704 -133.7734375 -25.49169922 C-89.29630726 -35.28677631 -38.00731638 -24.46239672 0 0 Z " fill="#020201" transform="translate(356,94)"/>
<path d="M0 0 C2.0390625 1.3671875 2.0390625 1.3671875 4.0390625 3.3671875 C6.11956779 3.65563637 6.11956779 3.65563637 8.51953125 3.60546875 C9.42920654 3.61787598 10.33888184 3.6302832 11.27612305 3.64306641 C12.24976807 3.65515137 13.22341309 3.66723633 14.2265625 3.6796875 C31.34511383 4.19881003 46.16721985 9.43417493 58.19140625 22.125 C62.30349116 27.1151411 65.84734478 32.5899373 68.3984375 38.53515625 C70.39659421 41.98435533 71.82184218 42.59377008 75.4765625 44.0546875 C89.67791023 50.65676683 98.82669984 62.69803908 104.3125 77.17578125 C105.59897638 81.05596001 106.15162661 84.3689232 106.14453125 88.47265625 C106.16676758 89.94895508 106.16676758 89.94895508 106.18945312 91.45507812 C106.2139572 93.50181307 106.21953871 95.54887258 106.20507812 97.59570312 C106.34618996 104.16809365 107.49175182 108.14808364 111.53540039 113.37426758 C118.87166851 123.09759225 119.9999247 135.62064709 119.0390625 147.3671875 C117.4974049 157.57078667 114.52342141 168.88282859 107.0390625 176.3671875 C106.75061363 178.44769279 106.75061363 178.44769279 106.80078125 180.84765625 C106.78837402 181.75733154 106.7759668 182.66700684 106.76318359 183.60424805 C106.75109863 184.57789307 106.73901367 185.55153809 106.7265625 186.5546875 C106.20743997 203.67323883 100.97207507 218.49534485 88.28125 230.51953125 C83.2911089 234.63161616 77.8163127 238.17546978 71.87109375 240.7265625 C68.42189467 242.72471921 67.81247992 244.14996718 66.3515625 247.8046875 C59.90426763 261.6730874 48.35037441 270.76940418 34.2265625 276.2421875 C26.81184126 278.60729345 19.65004302 278.92146753 11.89135742 278.73974609 C4.59047069 278.73576777 0.77331934 281.0520509 -4.9609375 285.3671875 C-18.15820827 292.12722836 -33.67141857 293.48264166 -47.92578125 289.4921875 C-54.14043626 287.18868603 -61.23596602 284.09215898 -65.9609375 279.3671875 C-68.18808555 279.06199131 -68.18808555 279.06199131 -70.765625 279.09375 C-72.22125854 279.06728394 -72.22125854 279.06728394 -73.70629883 279.0402832 C-74.73907959 279.02441162 -75.77186035 279.00854004 -76.8359375 278.9921875 C-94.93082303 278.43972503 -108.33085119 272.54917674 -120.9609375 259.3671875 C-124.58859694 254.89330539 -127.57011744 250.49215318 -129.6484375 245.1171875 C-131.89105768 240.317026 -136.03787528 239.19758496 -140.66015625 237.109375 C-154.1326022 229.99847453 -162.51942065 216.9521278 -167.05078125 202.74609375 C-168.5348787 196.70339323 -168.47853528 190.41200132 -168.33349609 184.21948242 C-168.32951777 176.91859569 -170.6458009 173.10144434 -174.9609375 167.3671875 C-181.79469331 154.02600692 -183.01476019 138.56884174 -178.9453125 124.19140625 C-177.05631824 118.77179178 -174.93350264 113.33975264 -170.83203125 109.23828125 C-168.02619161 104.93286969 -168.45669994 100.89716915 -168.4609375 95.8671875 C-168.0780319 79.92841612 -163.90495397 66.38950634 -152.7109375 54.5546875 C-147.16173844 49.32800599 -140.82329416 45.01633731 -133.8046875 42.01953125 C-130.32689177 39.99877906 -129.65869624 38.48204768 -128.1484375 34.8046875 C-121.6512741 20.85093503 -109.76693525 11.87496289 -95.6875 6.27734375 C-91.41258473 4.85033049 -87.51252978 4.25415544 -83.01171875 4.296875 C-69.5978863 4.51474176 -69.5978863 4.51474176 -58.26171875 -1.84765625 C-53.85347412 -5.26797509 -48.29652553 -6.2880708 -42.9609375 -7.6328125 C-42.30351562 -7.82488281 -41.64609375 -8.01695313 -40.96875 -8.21484375 C-27.06349757 -11.10951692 -11.99740966 -6.99546847 0 0 Z M-58 22.6015625 C-62.87507294 25.50859808 -67.9881094 24.51240207 -73.5234375 24.2421875 C-83.58708832 23.99829977 -90.76582547 24.00891093 -98.9609375 30.3671875 C-99.70859375 30.88539063 -100.45625 31.40359375 -101.2265625 31.9375 C-107.17516637 36.4980963 -111.48740134 43.13855187 -113.52636719 50.37353516 C-115.1102928 55.74430321 -115.1102928 55.74430321 -117.55297852 57.53295898 C-119.53539734 58.44339748 -121.5186991 59.17131129 -123.5859375 59.8671875 C-133.80279064 63.8727428 -140.66277211 69.02230996 -145.93847656 78.96704102 C-148.68275884 85.30522098 -148.07136411 91.59464301 -147.7734375 98.3671875 C-147.30565213 109.01307723 -148.52210676 114.60268957 -155.53515625 122.546875 C-160.96676998 128.86189129 -161.50271905 136.3444969 -161.234375 144.42578125 C-160.26070775 154.899659 -155.37176102 162.95636398 -147.9609375 170.3671875 C-147.82910156 172.88232422 -147.82910156 172.88232422 -147.9765625 176.046875 C-148.01007813 177.20445312 -148.04359375 178.36203125 -148.078125 179.5546875 C-148.16528397 181.97463076 -148.26890863 184.3940486 -148.390625 186.8125 C-148.65368165 197.66956536 -145.1950957 206.83726818 -137.7109375 214.84765625 C-132.6104708 219.2764097 -126.8672516 222.11908147 -120.5234375 224.3046875 C-116.88000835 225.6950927 -116.18805936 225.97559808 -114.1484375 229.4921875 C-113.74958315 230.7829245 -113.35408898 232.07470202 -112.9609375 233.3671875 C-107.72732725 245.3352227 -101.51946357 251.84069348 -89.66210938 257.45581055 C-86.59993727 258.48898919 -84.48870145 258.45532902 -81.27734375 258.2109375 C-68.33914943 257.51699726 -59.70782768 257.18293793 -49.78125 265.94140625 C-43.46623371 271.37301998 -35.9836281 271.90896905 -27.90234375 271.640625 C-17.428466 270.66695775 -9.37176102 265.77801102 -1.9609375 258.3671875 C0.55419922 258.23535156 0.55419922 258.23535156 3.71875 258.3828125 C4.87632812 258.41632813 6.03390625 258.44984375 7.2265625 258.484375 C9.64650576 258.57153397 12.0659236 258.67515863 14.484375 258.796875 C25.34509687 259.06002024 34.49467703 255.59817592 42.515625 248.125 C46.63126035 243.37618999 49.60992119 237.91164849 51.6640625 231.9921875 C53.08211346 228.25368951 53.81424516 226.65850508 57.0390625 224.3671875 C58.423069 223.87429182 59.82105907 223.41994941 61.2265625 222.9921875 C71.34652652 219.86812636 77.76883872 213.47723875 83.13305664 204.5456543 C87.26103882 196.69662327 86.17862509 188.83705389 85.61914062 180.22851562 C85.40966353 174.28668107 85.28034047 170.41717368 89.37109375 165.8515625 C90.5895646 164.68571408 91.81172625 163.52369928 93.0390625 162.3671875 C94.78029381 159.69556049 94.78029381 159.69556049 95.9140625 157.1796875 C96.30335938 156.38175781 96.69265625 155.58382812 97.09375 154.76171875 C100.3970111 146.39436729 100.06231191 136.34511327 97.23046875 127.890625 C94.87587196 122.90351179 91.42490196 118.6875474 88.0390625 114.3671875 C85.72992406 110.90347984 85.85730044 109.85339443 86.0546875 105.80859375 C87.10298369 88.54963527 87.10298369 88.54963527 80.0390625 73.3671875 C79.53246094 72.61953125 79.02585937 71.871875 78.50390625 71.1015625 C73.28665337 64.1794088 65.46245302 60.80384425 57.3828125 58.1796875 C52.90725123 55.75368233 52.16926428 53.31489634 50.5390625 48.6796875 C45.8215694 36.79240109 39.35186684 30.79770634 27.76928711 25.28735352 C24.60184813 24.21983339 22.25719372 24.24405186 18.92578125 24.41796875 C17.75982422 24.45599609 16.59386719 24.49402344 15.39257812 24.53320312 C12.95940667 24.63042628 10.5269412 24.74744449 8.09570312 24.88476562 C2.10822194 25.04641112 -1.89494042 25.14815574 -6.4921875 21.02734375 C-7.65307851 19.81170679 -8.80992407 18.59218107 -9.9609375 17.3671875 C-12.63256451 15.62595619 -12.63256451 15.62595619 -15.1484375 14.4921875 C-15.94636719 14.10289062 -16.74429688 13.71359375 -17.56640625 13.3125 C-31.22708974 7.91953849 -48.14240298 11.7997512 -58 22.6015625 Z " fill="#020100" transform="translate(286.9609375,114.6328125)"/>
<path d="M0 0 C7.79019951 6.60724328 13.0148928 13.73703105 13.91015625 24.11328125 C14.14852226 33.50992027 12.36207089 40.47500973 6.234375 47.7265625 C5.06505739 48.9524997 3.87946972 50.1633114 2.671875 51.3515625 C1.929375 52.0940625 1.186875 52.8365625 0.421875 53.6015625 C-7.96903277 58.94123108 -17.04636505 60.94552255 -26.80859375 58.80859375 C-35.62604409 56.13529641 -43.25369192 50.68933451 -47.8828125 42.65234375 C-51.90702012 33.95596287 -52.86336012 25.71425896 -50.078125 16.4765625 C-46.53617496 7.35932073 -40.12262171 0.27839703 -31.3203125 -3.921875 C-20.91331473 -7.7173683 -9.0526107 -6.40973442 0 0 Z " fill="#020201" transform="translate(305.328125,280.6484375)"/>
<path d="M0 0 C7.79019951 6.60724328 13.0148928 13.73703105 13.91015625 24.11328125 C14.14852226 33.50992027 12.36207089 40.47500973 6.234375 47.7265625 C5.06505739 48.9524997 3.87946972 50.1633114 2.671875 51.3515625 C1.929375 52.0940625 1.186875 52.8365625 0.421875 53.6015625 C-7.96903277 58.94123108 -17.04636505 60.94552255 -26.80859375 58.80859375 C-35.62604409 56.13529641 -43.25369192 50.68933451 -47.8828125 42.65234375 C-51.90702012 33.95596287 -52.86336012 25.71425896 -50.078125 16.4765625 C-46.53617496 7.35932073 -40.12262171 0.27839703 -31.3203125 -3.921875 C-20.91331473 -7.7173683 -9.0526107 -6.40973442 0 0 Z " fill="#020201" transform="translate(219.328125,236.6484375)"/>
<path d="M0 0 C8.48421298 5.21194236 14.26253807 11.75155884 17.23828125 21.375 C18.63037173 31.74553449 17.50167564 40.60392193 11.25 49.06640625 C5.90066751 55.41354169 0.55831619 59.76887152 -7.76171875 61.375 C-17.51857151 62.12884072 -25.42963167 62.14214249 -33.76171875 56.375 C-34.63376953 55.79878906 -34.63376953 55.79878906 -35.5234375 55.2109375 C-42.63528557 49.94422885 -46.07523284 41.82030347 -47.76171875 33.375 C-49.14400016 23.89649888 -45.70434101 15.96202882 -40.63671875 8.0625 C-29.57532809 -2.27749562 -14.24509756 -6.89510605 0 0 Z " fill="#020201" transform="translate(303.76171875,181.625)"/>
<path d="M0 0 C3.56322101 2.19858317 5.44603084 4.14671902 7 8 C7.23974502 12.46724889 6.53895094 16.09533235 4.25 19.9375 C0.9767995 22.93793379 -1.56882422 23.81729671 -5.9375 24.375 C-9.95422287 23.88315638 -11.91865639 22.6020235 -15 20 C-17.64201025 15.94891762 -18.70236884 12.8162435 -18 8 C-13.70401532 -0.11463772 -8.70805474 -2.33900563 0 0 Z " fill="#85DB8B" transform="translate(292,296)"/>
<path d="M0 0 C3.56322101 2.19858317 5.44603084 4.14671902 7 8 C7.23974502 12.46724889 6.53895094 16.09533235 4.25 19.9375 C0.9767995 22.93793379 -1.56882422 23.81729671 -5.9375 24.375 C-9.95422287 23.88315638 -11.91865639 22.6020235 -15 20 C-17.64201025 15.94891762 -18.70236884 12.8162435 -18 8 C-13.70401532 -0.11463772 -8.70805474 -2.33900563 0 0 Z " fill="#85DB8B" transform="translate(206,252)"/>
<path d="M0 0 C3.8026029 2.0050088 5.61790841 3.42686262 8 7 C8.77286121 11.7180481 8.42364132 15.19654232 6.1875 19.4375 C3.90277746 22.11388926 2.2738156 23.7917169 -1.26953125 24.37109375 C-8.98271423 24.57251327 -8.98271423 24.57251327 -12.5 21.75 C-15.5835382 18.35810798 -16.78565335 16.64332434 -17.375 12.125 C-16.80558393 7.37986605 -14.44116002 4.60128892 -11.3125 1.125 C-7.59900857 -0.6815634 -4.04163279 -0.64441979 0 0 Z " fill="#85DA8B" transform="translate(293,199)"/>
<path d="M0 0 C2.48889186 1.8666689 3.53588734 3.43697001 4.75 6.3125 C4.75 10.62219005 4.19480711 12.71070214 1.625 16.1875 C-1.90394764 18.7958526 -3.85918772 19.46656359 -8.25 19.3125 C-11.27727138 17.5855331 -13.66976665 15.47296671 -15.25 12.3125 C-15.64447548 8.13105989 -15.70035186 6.00303952 -13.375 2.4375 C-9.49067016 -1.44682984 -5.22975062 -1.59797936 0 0 Z " fill="#040302" transform="translate(134.25,119.6875)"/>
<path d="M0 0 C3.0625 1.9375 3.0625 1.9375 5 5 C6.03945854 9.75058323 5.669717 12.94141507 3.0625 17.0625 C-1.05858493 19.669717 -4.24941677 20.03945854 -9 19 C-12.0625 17.0625 -12.0625 17.0625 -14 14 C-15.03945854 9.24941677 -14.669717 6.05858493 -12.0625 1.9375 C-7.94141507 -0.669717 -4.75058323 -1.03945854 0 0 Z " fill="#040301" transform="translate(226,324)"/>
<path d="M0 0 C3.0625 1.9375 3.0625 1.9375 5 5 C6.03945854 9.75058323 5.669717 12.94141507 3.0625 17.0625 C-1.05858493 19.669717 -4.24941677 20.03945854 -9 19 C-12.0625 17.0625 -12.0625 17.0625 -14 14 C-15.03945854 9.24941677 -14.669717 6.05858493 -12.0625 1.9375 C-7.94141507 -0.669717 -4.75058323 -1.03945854 0 0 Z " fill="#040301" transform="translate(351,249)"/>
<path d="M0 0 C3.0625 1.9375 3.0625 1.9375 5 5 C6.03945854 9.75058323 5.669717 12.94141507 3.0625 17.0625 C-1.05858493 19.669717 -4.24941677 20.03945854 -9 19 C-12.0625 17.0625 -12.0625 17.0625 -14 14 C-15.03945854 9.24941677 -14.669717 6.05858493 -12.0625 1.9375 C-7.94141507 -0.669717 -4.75058323 -1.03945854 0 0 Z " fill="#040301" transform="translate(218,181)"/>
</svg>
