<?xml version="1.0" encoding="UTF-8"?>
<svg version="1.1" xmlns="http://www.w3.org/2000/svg" width="512" height="512">
<path d="M0 0 C1.23330048 -0.00671722 2.46660095 -0.01343445 3.73727417 -0.02035522 C7.10279915 -0.03604794 10.46807733 -0.04270697 13.83362174 -0.0439868 C15.93779088 -0.04541217 18.04193442 -0.04968882 20.14609718 -0.05498123 C27.49048117 -0.07344817 34.83479278 -0.0816551 42.17919922 -0.08007812 C49.02140538 -0.07887417 55.86329741 -0.10003435 62.70542401 -0.13156545 C68.58754734 -0.15770528 74.46956779 -0.16844656 80.35174876 -0.16716731 C83.86186191 -0.16665745 87.37169494 -0.17235457 90.88175011 -0.19352341 C94.79108412 -0.21646112 98.69998458 -0.207399 102.609375 -0.1953125 C104.35262306 -0.21217102 104.35262306 -0.21217102 106.13108826 -0.22937012 C107.19506836 -0.22098114 108.25904846 -0.21259216 109.35527039 -0.20394897 C110.27903316 -0.20503851 111.20279593 -0.20612804 112.15455151 -0.2072506 C115.41643841 0.45385124 116.60463698 1.6764581 118.6105957 4.29052734 C119.10278702 6.21951675 119.10278702 6.21951675 119.09161377 8.26422119 C119.09986176 9.43362244 119.09986176 9.43362244 119.10827637 10.62664795 C119.08670471 11.89547821 119.08670471 11.89547821 119.06469727 13.18994141 C119.06528137 14.087854 119.06586548 14.9857666 119.06646729 15.91088867 C119.06368238 18.87637093 119.03257104 21.84084586 119.0012207 24.80615234 C118.99375976 26.86309256 118.98806614 28.92003988 118.98406982 30.97698975 C118.96880198 36.38915656 118.92950996 41.80089356 118.88525391 47.21289062 C118.84432619 52.73610622 118.82606413 58.2593913 118.8059082 63.78271484 C118.76301706 74.61884112 118.69475157 85.45464848 118.6105957 96.29052734 C120.50636353 96.26998291 120.50636353 96.26998291 122.44042969 96.24902344 C129.98976966 96.16721125 136.61007625 99.47931106 142.0793457 104.58740234 C149.47300861 112.81096619 151.19249637 121.52498369 150.9230957 132.30224609 C150.44876936 140.68794065 146.83590047 147.69346434 140.6105957 153.29052734 C133.58161108 158.57632378 127.36396758 160.59236775 118.6105957 160.29052734 C118.60672852 161.16837891 118.60672852 161.16837891 118.6027832 162.06396484 C117.81676708 179.51352273 109.73091808 196.13343014 98.6105957 209.29052734 C97.94672852 210.07685547 97.28286133 210.86318359 96.59887695 211.67333984 C92.85090923 215.99956544 89.01797957 219.65602003 84.6105957 223.29052734 C85.65862617 223.29272718 85.65862617 223.29272718 86.72782898 223.29497147 C103.74662751 223.33206052 120.76520897 223.39110296 137.78384399 223.47443008 C146.01402097 223.51420026 154.2441026 223.54660298 162.47436523 223.56152344 C169.64981052 223.57455048 176.82504585 223.60154185 184.00037289 223.64514041 C187.79794839 223.66773178 191.59526516 223.68343944 195.39291382 223.68241119 C198.97176115 223.68166318 202.55003708 223.69966941 206.1287365 223.73169518 C208.0594626 223.74419665 209.99028477 223.73714108 211.92103577 223.72938538 C220.01859769 223.82619411 225.59056084 224.76774418 231.8527832 230.25537109 C232.39161133 230.90634766 232.93043945 231.55732422 233.4855957 232.22802734 C234.03989258 232.87642578 234.59418945 233.52482422 235.1652832 234.19287109 C238.77692547 239.43463298 238.90062858 244.10704233 238.87802124 250.26594543 C238.88255235 251.17112166 238.88708347 252.07629788 238.89175189 253.00890368 C238.9044144 256.04269012 238.90277431 259.07629747 238.90112305 262.11010742 C238.90710715 264.28503144 238.91391242 266.45995334 238.92147827 268.63487244 C238.93915777 274.5440273 238.94383449 280.45312426 238.94510984 286.36230302 C238.94700863 291.29518264 238.95436597 296.22804876 238.96145403 301.16092318 C238.9777431 312.79959051 238.98262252 324.43822689 238.98120117 336.0769043 C238.97999968 348.08239888 239.001102 360.08768866 239.0326885 372.09314042 C239.05884139 382.40072056 239.06956887 392.70824195 239.06829035 403.01585501 C239.06778042 409.17197371 239.07348108 415.32793268 239.09464645 421.48401833 C239.11401195 427.27478344 239.11416461 433.06523621 239.09961319 438.85601234 C239.0975219 440.97962398 239.102245 443.10325508 239.11433411 445.22683334 C239.12978698 448.12964162 239.12047782 451.03137298 239.10507202 453.93415833 C239.11535915 454.77123552 239.12564627 455.60831271 239.13624513 456.47075588 C239.05718179 463.22864793 237.12150274 468.42519804 232.64575195 473.53271484 C231.99477539 474.07154297 231.34379883 474.61037109 230.6730957 475.16552734 C230.02469727 475.71982422 229.37629883 476.27412109 228.70825195 476.84521484 C224.24602549 479.91974705 220.42118257 480.54124225 215.05186749 480.54779625 C214.07937069 480.55305536 214.07937069 480.55305536 213.08722749 480.55842072 C210.9117191 480.56773496 208.73647839 480.56281143 206.56095886 480.55795288 C204.98666917 480.56168913 203.41238133 480.56629055 201.83809644 480.57168353 C197.50941566 480.58393205 193.18081206 480.58365088 188.8521179 480.58129478 C184.18464868 480.58088708 179.51720436 480.59192126 174.8497467 480.60140991 C165.70429411 480.61803102 156.55886729 480.62351996 147.41340085 480.62463467 C139.98032718 480.62558461 132.54726203 480.62969222 125.11419106 480.63603592 C104.04531693 480.65365133 82.97646319 480.66287432 61.90758165 480.66137497 C60.20342639 480.6612551 60.20342639 480.6612551 58.46484375 480.66113281 C57.3273549 480.66105105 56.18986605 480.66096929 55.01790784 480.66088505 C36.58106168 480.66007206 18.1442972 480.67921231 -0.29252533 480.70740955 C-19.21817577 480.73612627 -38.14378636 480.74995051 -57.06945914 480.74822199 C-67.69685704 480.74755767 -78.32416932 480.75306832 -88.95154762 480.77457809 C-97.99967628 480.79277393 -107.0476805 480.79715036 -116.09581951 480.78355925 C-120.71251495 480.77702154 -125.32897154 480.77694132 -129.94564438 480.79426575 C-134.17299272 480.80996608 -138.39991223 480.80716408 -142.62724992 480.78969748 C-144.15549838 480.78662087 -145.68377861 480.79028488 -147.21198962 480.80141763 C-156.38952139 480.86383971 -163.41879677 480.64630362 -170.6315918 474.32568359 C-171.17041992 473.67470703 -171.70924805 473.02373047 -172.2644043 472.35302734 C-172.81870117 471.70462891 -173.37299805 471.05623047 -173.9440918 470.38818359 C-177.55573406 465.14642171 -177.67943717 460.47401235 -177.65682983 454.31510925 C-177.66136095 453.40993303 -177.66589206 452.50475681 -177.67056048 451.57215101 C-177.68322299 448.53836456 -177.6815829 445.50475722 -177.67993164 442.47094727 C-177.68591574 440.29602324 -177.69272101 438.12110135 -177.70028687 435.94618225 C-177.71796637 430.03702738 -177.72264308 424.12793043 -177.72391844 418.21875167 C-177.72581723 413.28587205 -177.73317456 408.35300593 -177.74026263 403.4201315 C-177.7565517 391.78146418 -177.76143112 380.1428278 -177.76000977 368.50415039 C-177.75880827 356.49865581 -177.7799106 344.49336602 -177.81149709 332.48791426 C-177.83764998 322.18033413 -177.84837747 311.87281274 -177.84709895 301.56519967 C-177.84658901 295.40908098 -177.85228968 289.25312201 -177.87345505 283.09703636 C-177.89282055 277.30627125 -177.89297321 271.51581848 -177.87842178 265.72504234 C-177.87633049 263.6014307 -177.88105359 261.4777996 -177.8931427 259.35422134 C-177.90859557 256.45141307 -177.89928641 253.54968171 -177.88388062 250.64689636 C-177.89416774 249.80981917 -177.90445487 248.97274198 -177.91505373 248.11029881 C-177.83599039 241.35240676 -175.90031133 236.15585664 -171.42456055 231.04833984 C-170.77358398 230.50951172 -170.12260742 229.97068359 -169.4519043 229.41552734 C-168.80350586 228.86123047 -168.15510742 228.30693359 -167.48706055 227.73583984 C-163.29865739 224.84997547 -159.63160289 224.039797 -154.58708191 224.01205444 C-152.84766327 223.99530922 -152.84766327 223.99530922 -151.07310486 223.97822571 C-149.17849266 223.97498543 -149.17849266 223.97498543 -147.24560547 223.97167969 C-145.89512535 223.96237633 -144.54465097 223.95220705 -143.19418335 223.9412384 C-139.53551734 223.91397013 -135.87688977 223.89879846 -132.21814895 223.88581038 C-128.39175118 223.87016592 -124.56543174 223.84337989 -120.73908997 223.81777954 C-113.49672066 223.77101501 -106.25433658 223.73425967 -99.01189357 223.70110667 C-90.76521138 223.66286883 -82.5186079 223.61346303 -74.27199209 223.56312251 C-57.31118645 223.45983726 -40.35033524 223.3705658 -23.3894043 223.29052734 C-24.60611816 222.19840942 -24.60611816 222.19840942 -25.84741211 221.08422852 C-26.92929773 220.10501642 -28.01099333 219.12559437 -29.0925293 218.14599609 C-29.62507324 217.66900269 -30.15761719 217.19200928 -30.70629883 216.70056152 C-45.7356788 203.04638133 -56.03699717 182.54137728 -57.3112793 162.23974609 C-57.33706055 161.59650391 -57.3628418 160.95326172 -57.3894043 160.29052734 C-58.5031543 160.37302734 -59.6169043 160.45552734 -60.7644043 160.54052734 C-68.41723402 160.51343768 -75.32087665 157.16526071 -80.8581543 151.99365234 C-88.25181721 143.7700885 -89.97130496 135.056071 -89.7019043 124.27880859 C-89.22757795 115.89311404 -85.61470906 108.88759035 -79.3894043 103.29052734 C-72.27383329 97.93961795 -66.18917163 96.19134964 -57.3894043 96.29052734 C-57.39828674 95.6782428 -57.40716919 95.06595825 -57.4163208 94.43511963 C-57.50543763 88.01022768 -57.5654031 81.58551387 -57.60913086 75.16015625 C-57.62913407 72.76848203 -57.65634554 70.37685601 -57.69116211 67.98535156 C-57.74017896 64.52966348 -57.76248691 61.07462702 -57.7800293 57.61865234 C-57.80067444 56.56502502 -57.82131958 55.51139771 -57.84259033 54.42584229 C-57.84659148 40.91557556 -52.42246323 26.98707181 -43.2019043 16.97412109 C-30.56413463 5.23515832 -16.97920181 -0.01331163 0 0 Z " fill="#000000" transform="translate(225.389404296875,15.70947265625)"/>
<path d="M0 0 C1.23330048 -0.00671722 2.46660095 -0.01343445 3.73727417 -0.02035522 C7.10279915 -0.03604794 10.46807733 -0.04270697 13.83362174 -0.0439868 C15.93779088 -0.04541217 18.04193442 -0.04968882 20.14609718 -0.05498123 C27.49048117 -0.07344817 34.83479278 -0.0816551 42.17919922 -0.08007812 C49.02140538 -0.07887417 55.86329741 -0.10003435 62.70542401 -0.13156545 C68.58754734 -0.15770528 74.46956779 -0.16844656 80.35174876 -0.16716731 C83.86186191 -0.16665745 87.37169494 -0.17235457 90.88175011 -0.19352341 C94.79108412 -0.21646112 98.69998458 -0.207399 102.609375 -0.1953125 C104.35262306 -0.21217102 104.35262306 -0.21217102 106.13108826 -0.22937012 C107.19506836 -0.22098114 108.25904846 -0.21259216 109.35527039 -0.20394897 C110.27903316 -0.20503851 111.20279593 -0.20612804 112.15455151 -0.2072506 C115.41643841 0.45385124 116.60463698 1.6764581 118.6105957 4.29052734 C119.10278702 6.21951675 119.10278702 6.21951675 119.09161377 8.26422119 C119.09986176 9.43362244 119.09986176 9.43362244 119.10827637 10.62664795 C119.08670471 11.89547821 119.08670471 11.89547821 119.06469727 13.18994141 C119.06528137 14.087854 119.06586548 14.9857666 119.06646729 15.91088867 C119.06368238 18.87637093 119.03257104 21.84084586 119.0012207 24.80615234 C118.99375976 26.86309256 118.98806614 28.92003988 118.98406982 30.97698975 C118.96880198 36.38915656 118.92950996 41.80089356 118.88525391 47.21289062 C118.84432619 52.73610622 118.82606413 58.2593913 118.8059082 63.78271484 C118.76301706 74.61884112 118.69475157 85.45464848 118.6105957 96.29052734 C120.50636353 96.26998291 120.50636353 96.26998291 122.44042969 96.24902344 C129.98976966 96.16721125 136.61007625 99.47931106 142.0793457 104.58740234 C149.47300861 112.81096619 151.19249637 121.52498369 150.9230957 132.30224609 C150.44876936 140.68794065 146.83590047 147.69346434 140.6105957 153.29052734 C133.58161108 158.57632378 127.36396758 160.59236775 118.6105957 160.29052734 C118.60672852 161.16837891 118.60672852 161.16837891 118.6027832 162.06396484 C117.81676708 179.51352273 109.73091808 196.13343014 98.6105957 209.29052734 C97.94672852 210.07685547 97.28286133 210.86318359 96.59887695 211.67333984 C92.85090923 215.99956544 89.01797957 219.65602003 84.6105957 223.29052734 C85.65862617 223.29272718 85.65862617 223.29272718 86.72782898 223.29497147 C103.74662751 223.33206052 120.76520897 223.39110296 137.78384399 223.47443008 C146.01402097 223.51420026 154.2441026 223.54660298 162.47436523 223.56152344 C169.64981052 223.57455048 176.82504585 223.60154185 184.00037289 223.64514041 C187.79794839 223.66773178 191.59526516 223.68343944 195.39291382 223.68241119 C198.97176115 223.68166318 202.55003708 223.69966941 206.1287365 223.73169518 C208.0594626 223.74419665 209.99028477 223.73714108 211.92103577 223.72938538 C220.01859769 223.82619411 225.59056084 224.76774418 231.8527832 230.25537109 C232.39161133 230.90634766 232.93043945 231.55732422 233.4855957 232.22802734 C234.03989258 232.87642578 234.59418945 233.52482422 235.1652832 234.19287109 C238.77692547 239.43463298 238.90062858 244.10704233 238.87802124 250.26594543 C238.88255235 251.17112166 238.88708347 252.07629788 238.89175189 253.00890368 C238.9044144 256.04269012 238.90277431 259.07629747 238.90112305 262.11010742 C238.90710715 264.28503144 238.91391242 266.45995334 238.92147827 268.63487244 C238.93915777 274.5440273 238.94383449 280.45312426 238.94510984 286.36230302 C238.94700863 291.29518264 238.95436597 296.22804876 238.96145403 301.16092318 C238.9777431 312.79959051 238.98262252 324.43822689 238.98120117 336.0769043 C238.97999968 348.08239888 239.001102 360.08768866 239.0326885 372.09314042 C239.05884139 382.40072056 239.06956887 392.70824195 239.06829035 403.01585501 C239.06778042 409.17197371 239.07348108 415.32793268 239.09464645 421.48401833 C239.11401195 427.27478344 239.11416461 433.06523621 239.09961319 438.85601234 C239.0975219 440.97962398 239.102245 443.10325508 239.11433411 445.22683334 C239.12978698 448.12964162 239.12047782 451.03137298 239.10507202 453.93415833 C239.11535915 454.77123552 239.12564627 455.60831271 239.13624513 456.47075588 C239.05718179 463.22864793 237.12150274 468.42519804 232.64575195 473.53271484 C231.99477539 474.07154297 231.34379883 474.61037109 230.6730957 475.16552734 C230.02469727 475.71982422 229.37629883 476.27412109 228.70825195 476.84521484 C224.24602549 479.91974705 220.42118257 480.54124225 215.05186749 480.54779625 C214.07937069 480.55305536 214.07937069 480.55305536 213.08722749 480.55842072 C210.9117191 480.56773496 208.73647839 480.56281143 206.56095886 480.55795288 C204.98666917 480.56168913 203.41238133 480.56629055 201.83809644 480.57168353 C197.50941566 480.58393205 193.18081206 480.58365088 188.8521179 480.58129478 C184.18464868 480.58088708 179.51720436 480.59192126 174.8497467 480.60140991 C165.70429411 480.61803102 156.55886729 480.62351996 147.41340085 480.62463467 C139.98032718 480.62558461 132.54726203 480.62969222 125.11419106 480.63603592 C104.04531693 480.65365133 82.97646319 480.66287432 61.90758165 480.66137497 C60.20342639 480.6612551 60.20342639 480.6612551 58.46484375 480.66113281 C57.3273549 480.66105105 56.18986605 480.66096929 55.01790784 480.66088505 C36.58106168 480.66007206 18.1442972 480.67921231 -0.29252533 480.70740955 C-19.21817577 480.73612627 -38.14378636 480.74995051 -57.06945914 480.74822199 C-67.69685704 480.74755767 -78.32416932 480.75306832 -88.95154762 480.77457809 C-97.99967628 480.79277393 -107.0476805 480.79715036 -116.09581951 480.78355925 C-120.71251495 480.77702154 -125.32897154 480.77694132 -129.94564438 480.79426575 C-134.17299272 480.80996608 -138.39991223 480.80716408 -142.62724992 480.78969748 C-144.15549838 480.78662087 -145.68377861 480.79028488 -147.21198962 480.80141763 C-156.38952139 480.86383971 -163.41879677 480.64630362 -170.6315918 474.32568359 C-171.17041992 473.67470703 -171.70924805 473.02373047 -172.2644043 472.35302734 C-172.81870117 471.70462891 -173.37299805 471.05623047 -173.9440918 470.38818359 C-177.55573406 465.14642171 -177.67943717 460.47401235 -177.65682983 454.31510925 C-177.66136095 453.40993303 -177.66589206 452.50475681 -177.67056048 451.57215101 C-177.68322299 448.53836456 -177.6815829 445.50475722 -177.67993164 442.47094727 C-177.68591574 440.29602324 -177.69272101 438.12110135 -177.70028687 435.94618225 C-177.71796637 430.03702738 -177.72264308 424.12793043 -177.72391844 418.21875167 C-177.72581723 413.28587205 -177.73317456 408.35300593 -177.74026263 403.4201315 C-177.7565517 391.78146418 -177.76143112 380.1428278 -177.76000977 368.50415039 C-177.75880827 356.49865581 -177.7799106 344.49336602 -177.81149709 332.48791426 C-177.83764998 322.18033413 -177.84837747 311.87281274 -177.84709895 301.56519967 C-177.84658901 295.40908098 -177.85228968 289.25312201 -177.87345505 283.09703636 C-177.89282055 277.30627125 -177.89297321 271.51581848 -177.87842178 265.72504234 C-177.87633049 263.6014307 -177.88105359 261.4777996 -177.8931427 259.35422134 C-177.90859557 256.45141307 -177.89928641 253.54968171 -177.88388062 250.64689636 C-177.89416774 249.80981917 -177.90445487 248.97274198 -177.91505373 248.11029881 C-177.83599039 241.35240676 -175.90031133 236.15585664 -171.42456055 231.04833984 C-170.77358398 230.50951172 -170.12260742 229.97068359 -169.4519043 229.41552734 C-168.80350586 228.86123047 -168.15510742 228.30693359 -167.48706055 227.73583984 C-163.29865739 224.84997547 -159.63160289 224.039797 -154.58708191 224.01205444 C-152.84766327 223.99530922 -152.84766327 223.99530922 -151.07310486 223.97822571 C-149.17849266 223.97498543 -149.17849266 223.97498543 -147.24560547 223.97167969 C-145.89512535 223.96237633 -144.54465097 223.95220705 -143.19418335 223.9412384 C-139.53551734 223.91397013 -135.87688977 223.89879846 -132.21814895 223.88581038 C-128.39175118 223.87016592 -124.56543174 223.84337989 -120.73908997 223.81777954 C-113.49672066 223.77101501 -106.25433658 223.73425967 -99.01189357 223.70110667 C-90.76521138 223.66286883 -82.5186079 223.61346303 -74.27199209 223.56312251 C-57.31118645 223.45983726 -40.35033524 223.3705658 -23.3894043 223.29052734 C-24.60611816 222.19840942 -24.60611816 222.19840942 -25.84741211 221.08422852 C-26.92929773 220.10501642 -28.01099333 219.12559437 -29.0925293 218.14599609 C-29.62507324 217.66900269 -30.15761719 217.19200928 -30.70629883 216.70056152 C-45.7356788 203.04638133 -56.03699717 182.54137728 -57.3112793 162.23974609 C-57.33706055 161.59650391 -57.3628418 160.95326172 -57.3894043 160.29052734 C-58.5031543 160.37302734 -59.6169043 160.45552734 -60.7644043 160.54052734 C-68.41723402 160.51343768 -75.32087665 157.16526071 -80.8581543 151.99365234 C-88.25181721 143.7700885 -89.97130496 135.056071 -89.7019043 124.27880859 C-89.22757795 115.89311404 -85.61470906 108.88759035 -79.3894043 103.29052734 C-72.27383329 97.93961795 -66.18917163 96.19134964 -57.3894043 96.29052734 C-57.39828674 95.6782428 -57.40716919 95.06595825 -57.4163208 94.43511963 C-57.50543763 88.01022768 -57.5654031 81.58551387 -57.60913086 75.16015625 C-57.62913407 72.76848203 -57.65634554 70.37685601 -57.69116211 67.98535156 C-57.74017896 64.52966348 -57.76248691 61.07462702 -57.7800293 57.61865234 C-57.80067444 56.56502502 -57.82131958 55.51139771 -57.84259033 54.42584229 C-57.84659148 40.91557556 -52.42246323 26.98707181 -43.2019043 16.97412109 C-30.56413463 5.23515832 -16.97920181 -0.01331163 0 0 Z M-161.3894043 245.29052734 C-161.87725647 248.36319206 -162.05822702 250.87671092 -162.01086426 253.94445801 C-162.01725308 254.81499896 -162.0236419 255.6855399 -162.03022432 256.58246088 C-162.04548399 259.49928941 -162.02500662 262.41476175 -162.00463867 265.33154297 C-162.00813957 267.42266795 -162.01379779 269.51379028 -162.02145386 271.60490417 C-162.03571584 277.28469124 -162.01862615 282.96399501 -161.99516869 288.64373589 C-161.97508046 294.58446967 -161.98093819 300.52518299 -161.98327637 306.46594238 C-161.98322277 316.44287093 -161.96345268 326.41961022 -161.93139648 336.39648438 C-161.89450283 347.93509507 -161.88572073 359.4734578 -161.892694 371.01211977 C-161.8989968 382.10680271 -161.88824879 393.20140052 -161.86872864 404.29606628 C-161.86054874 409.02004712 -161.85784618 413.74398448 -161.85942078 418.4679718 C-161.860299 424.0297301 -161.84610008 429.59125234 -161.82019424 435.15294838 C-161.81302524 437.19556344 -161.81095234 439.2382036 -161.81431198 441.28082848 C-161.81801993 444.0663416 -161.80330293 446.85116324 -161.78381348 449.63659668 C-161.7891414 450.44739386 -161.79446933 451.25819104 -161.79995871 452.09355783 C-161.7447779 456.65610223 -161.25212748 459.67421389 -158.3894043 463.29052734 C-155.631784 464.66933749 -153.42000225 464.41854758 -150.33199596 464.42195511 C-149.03179081 464.42579625 -147.73158566 464.4296374 -146.39198035 464.43359494 C-144.93532632 464.4328146 -143.47867235 464.4319358 -142.02201843 464.43096924 C-140.48530449 464.43355132 -138.94859122 464.43656404 -137.41187888 464.43997264 C-133.17326026 464.44806436 -128.93465855 464.44983342 -124.69603312 464.45057011 C-120.13082651 464.4524169 -115.56562876 464.45996232 -111.00042725 464.46670532 C-101.01086033 464.48030455 -91.02129742 464.48631583 -81.03172278 464.49071598 C-74.79796561 464.4934757 -68.56420999 464.49771255 -62.33045387 464.50222015 C-45.08187679 464.51441486 -27.83330096 464.5247138 -10.58471966 464.52809525 C-9.48012871 464.52831481 -8.37553777 464.52853438 -7.23747437 464.5287606 C-5.57655122 464.52908801 -5.57655122 464.52908801 -3.88207406 464.52942204 C-1.63817958 464.52986552 0.6057149 464.53031208 2.84960938 464.53076172 C4.51919451 464.53109386 4.51919451 464.53109386 6.22250863 464.53143272 C24.26386438 464.53538194 42.30517977 464.55283885 60.34651992 464.57612124 C78.85508211 464.59981442 97.36362402 464.61229617 115.87220162 464.61346316 C126.26982233 464.61438107 136.66739046 464.62016232 147.06499672 464.63828278 C155.91783293 464.65365635 164.77060032 464.65882049 173.62344734 464.65054467 C178.14250216 464.64662842 182.66141826 464.64761511 187.18045616 464.66160202 C191.31518103 464.67428271 195.44966212 464.67319511 199.58438637 464.66101131 C201.0823891 464.65904414 202.58040876 464.66217949 204.07838766 464.67085567 C206.11078509 464.68188444 208.14326238 464.67270338 210.17566395 464.66246414 C211.30576667 464.66306123 212.43586939 464.66365832 213.60021764 464.6642735 C217.01450328 464.24038118 218.8955025 463.38216717 221.6105957 461.29052734 C222.88692824 457.46152972 222.7552675 453.86021162 222.7510376 449.87037659 C222.75400872 449.00083892 222.75697984 448.13130126 222.760041 447.23541397 C222.7687394 444.31049745 222.7702372 441.3856218 222.77172852 438.46069336 C222.7763558 436.36824455 222.78138034 434.27579659 222.78677368 432.18334961 C222.7999064 426.49129177 222.80634408 420.79924573 222.81078434 415.10717511 C222.81371303 411.55374253 222.8178174 408.0003132 222.82228851 404.44688225 C222.83596435 393.33674464 222.84563118 382.22661441 222.8494904 371.11646897 C222.85397465 358.27652752 222.8715392 345.43669234 222.900491 332.59678322 C222.9220766 322.6808165 222.93219298 312.76487975 222.93353152 302.84888977 C222.93458159 296.92204612 222.94053236 290.99530234 222.95835114 285.06848335 C222.97477837 279.49613069 222.97701341 273.92395357 222.96821213 268.35158539 C222.96743894 266.3036979 222.97182135 264.25580119 222.98167038 262.20793724 C222.99430576 259.41763378 222.98855912 256.62796006 222.97808838 253.83766174 C222.98614478 253.02258748 222.99420119 252.20751322 223.00250173 251.36773974 C222.97378179 248.10746024 222.84042733 245.71590164 221.27512741 242.81883144 C218.02786694 239.83733132 214.62060113 240.1621617 210.43013954 240.15351295 C208.47684524 240.14590114 208.47684524 240.14590114 206.48409045 240.13813555 C205.03037878 240.13753386 203.57666706 240.13703478 202.12295532 240.1366272 C200.58537795 240.13261307 199.04780164 240.12817493 197.51022661 240.12334764 C193.27387145 240.11137118 189.03752768 240.10573123 184.80115891 240.10116649 C180.23664857 240.09521465 175.67215189 240.08360395 171.10765076 240.07287598 C160.08023822 240.04834534 149.05282116 240.03372539 138.02538973 240.02081591 C134.91233212 240.01710495 131.79927495 240.01313166 128.68621778 240.00906324 C109.36540959 239.98383158 90.04460071 239.96177283 70.72377968 239.9493351 C66.24790062 239.94640529 61.77202158 239.94344364 57.29614258 239.94042969 C56.18365132 239.93968364 55.07116007 239.93893759 53.92495696 239.93816893 C35.89010183 239.92550642 17.85534508 239.89227135 -0.17946403 239.85062785 C-18.68353688 239.80824992 -37.18755929 239.784645 -55.69168055 239.77941453 C-66.08597774 239.77599609 -76.48012106 239.76418972 -86.87437057 239.7313118 C-95.72355166 239.70336722 -104.57254734 239.69228738 -113.42176913 239.70350726 C-117.93890195 239.70870795 -122.45564617 239.70571604 -126.97272301 239.68104172 C-131.10569581 239.65865331 -135.23799853 239.65920714 -139.37098224 239.67824559 C-140.86828897 239.68106029 -142.36564013 239.67536593 -143.86287503 239.66043265 C-145.89425351 239.64140618 -147.92586468 239.65606865 -149.95726585 239.67249489 C-151.0868265 239.67113836 -152.21638715 239.66978183 -153.3801769 239.66838419 C-157.38514206 240.49639129 -158.8856308 242.11904202 -161.3894043 245.29052734 Z " fill="#000000" transform="translate(225.389404296875,15.70947265625)"/>
<path d="M0 0 C1.3061783 -0.01180534 2.6123566 -0.02361068 3.95811605 -0.03577375 C5.40594711 -0.02358184 6.85377428 -0.01092068 8.3015976 0.00215912 C9.84090739 -0.00216935 11.38021232 -0.00868487 12.91950464 -0.01720095 C17.15154884 -0.03422108 21.38300294 -0.01999158 25.61501622 -0.00068617 C30.17814395 0.01471851 34.74119831 0.00134475 39.30432892 -0.00843048 C48.24431409 -0.02297118 57.18407249 -0.0107088 66.12403619 0.01068276 C76.5304664 0.03467105 86.9368444 0.03297973 97.34329611 0.03037685 C115.90850464 0.026685 134.47360619 0.04752669 153.03878021 0.08162689 C171.0619197 0.1147193 189.08494689 0.12888537 207.10811615 0.12264252 C226.72445048 0.11588126 246.34073773 0.11833122 265.95706511 0.13800192 C266.99400073 0.1390414 268.03093636 0.14008089 269.09929428 0.14115188 C271.18204511 0.1432428 273.26479593 0.14535378 275.34754673 0.14748505 C282.60488344 0.15438595 289.86220567 0.15504907 297.11954498 0.1536026 C305.96135049 0.15216413 314.80306433 0.16183107 323.64483941 0.18554896 C328.15782507 0.19742381 332.67068282 0.20452425 337.1836834 0.1987114 C341.31276145 0.19355012 345.44156897 0.20219029 349.57060069 0.221986 C351.06648515 0.22673657 352.56239586 0.22641204 354.05827647 0.22057563 C356.0878147 0.21342062 358.11739431 0.22643709 360.14689636 0.24050903 C361.83961111 0.24286584 361.83961111 0.24286584 363.56652212 0.24527025 C366.95533279 0.67167001 368.84463209 1.60172698 371.57344818 3.62361908 C373.18606236 6.84884744 372.71763642 10.3734169 372.71389008 13.91678619 C372.71834676 15.2187527 372.71834676 15.2187527 372.72289348 16.54702157 C372.7316061 19.47271016 372.73309088 22.39835797 372.73458099 25.32405853 C372.73920736 27.41473733 372.74423177 29.50541527 372.74962616 31.59609222 C372.76276972 37.28827642 372.76919893 42.9804488 372.77363682 48.67264581 C372.77656441 52.2262483 372.78066861 55.77984755 372.78514099 59.33344841 C372.7988211 70.44412545 372.80848523 81.55479508 372.81234288 92.66547996 C372.81682499 105.50542145 372.83437788 118.34525656 372.86334348 131.1851657 C372.88493709 141.10027865 372.89504592 151.01536161 372.896384 160.93049783 C372.8974337 166.85682934 372.90337645 172.78306092 372.92120361 178.70936775 C372.93764417 184.2833518 372.93985933 189.85716037 372.93106461 195.43115997 C372.93029207 197.47862657 372.93466526 199.52610244 372.94452286 201.57354546 C372.95717916 204.36574141 372.95139997 207.15730994 372.94094086 209.94950104 C372.95302546 211.16876635 372.95302546 211.16876635 372.9653542 212.41266328 C372.92536926 216.96756636 372.5114673 220.05752378 369.57344818 223.62361908 C366.27996044 224.72144833 363.85882049 224.75121987 360.39019871 224.75504684 C359.08738581 224.75888799 357.78457291 224.76272913 356.44228083 224.76668668 C354.98788006 224.76590639 353.53347933 224.76502759 352.07907867 224.76406097 C350.54078898 224.76664377 349.00249997 224.76965669 347.46421188 224.77306437 C343.22592199 224.78114747 338.98764902 224.78292467 334.74935234 224.78366184 C330.1828191 224.78551008 325.61629469 224.79305617 321.04976654 224.79979706 C311.06032598 224.81338934 301.07088943 224.81940625 291.08144116 224.82380772 C284.8478539 224.82656815 278.6142682 224.83080509 272.38068199 224.83531189 C255.13206231 224.84750482 237.88344388 224.85780468 220.63481998 224.86118698 C219.5305126 224.86140655 218.42620521 224.86162611 217.28843397 224.86185233 C215.62794977 224.86217975 215.62794977 224.86217975 213.93392044 224.86251378 C211.69063477 224.86295725 209.44734909 224.86340381 207.20406342 224.86385345 C205.53493307 224.8641856 205.53493307 224.8641856 203.83208292 224.86452445 C185.79011519 224.86847485 167.74818779 224.88593614 149.70623565 224.90921298 C131.19651663 224.93290123 112.68681787 224.94538765 94.17708343 224.9465549 C83.77895057 224.94747299 73.38087027 224.95325902 62.98275185 224.97137451 C54.13100922 224.98674132 45.2793354 224.99191619 36.42758197 224.98363641 C31.90864411 224.97971797 27.38984497 224.98071742 22.870924 224.99469376 C18.73752489 225.00736127 14.60436976 225.00629866 10.47097134 224.99410304 C8.97234335 224.99213358 7.47369849 224.9952816 5.97509427 225.00394741 C3.94427033 225.01495123 1.91336667 225.00580762 -0.1174612 224.99555588 C-1.24740157 224.99615297 -2.37734194 224.99675005 -3.54152292 224.99736524 C-6.7748431 224.57849907 -8.1348013 223.90997346 -10.42655182 221.62361908 C-11.70175404 217.7980124 -11.57802194 214.19691056 -11.58045197 210.21019745 C-11.58483422 209.34136535 -11.58921647 208.47253325 -11.59373152 207.57737291 C-11.60712747 204.65479785 -11.61330012 201.73225295 -11.61942291 198.80965424 C-11.62732308 196.71882745 -11.63559198 194.62800202 -11.64420319 192.53717804 C-11.67042724 185.66235915 -11.68572852 178.78753413 -11.69998932 171.91268158 C-11.70534833 169.54809185 -11.71072584 167.18350216 -11.71612167 164.81891251 C-11.73774854 154.9862909 -11.75648713 145.15367094 -11.76774406 135.32103157 C-11.7839965 121.21680281 -11.81720808 107.11284896 -11.87414491 93.00872386 C-11.91279464 83.09783914 -11.93237071 73.18702812 -11.93766463 63.27607 C-11.94132411 57.35302353 -11.95340941 51.43027024 -11.98576736 45.50730515 C-12.01576136 39.93732887 -12.02219071 34.36782453 -12.01038361 28.79778481 C-12.01016216 26.75191683 -12.01852533 24.70602749 -12.03603745 22.66023445 C-12.05862556 19.86991922 -12.05048257 17.08133041 -12.03455353 14.291008 C-12.05537666 13.07276586 -12.05537666 13.07276586 -12.07662046 11.82991278 C-12.02246557 7.98767895 -11.69673881 5.96586013 -9.28958428 2.91676033 C-5.86548566 0.17423404 -4.33468314 -0.00104628 0 0 Z M6.26686668 18.69667625 C4.2126448 22.24723981 3.87907389 25.06520207 3.95198822 29.06270599 C3.9455994 29.80257327 3.93921058 30.54244054 3.93262815 31.30472803 C3.91738948 33.779417 3.93783019 36.25250196 3.95821381 38.7271347 C3.95471225 40.50299357 3.94905327 42.27884931 3.94139862 44.05469513 C3.92714595 48.87503718 3.94421688 53.69480911 3.96768379 58.51509666 C3.98778446 63.55895912 3.98191364 68.60279771 3.97957611 73.64669037 C3.97962969 82.11712298 3.99939169 90.58733259 4.03145599 99.05770111 C4.06834913 108.85131311 4.07713162 118.64463296 4.07015848 128.43830538 C4.06385372 137.85857114 4.0746073 147.27873669 4.09412384 156.69898224 C4.10229962 160.70844704 4.10500705 164.71786063 4.1034317 168.72733307 C4.1025529 173.44863448 4.1167679 178.16965816 4.14265823 182.89088631 C4.14982173 184.62388831 4.15190277 186.35691985 4.1485405 188.0899334 C4.14482698 190.45510119 4.15956806 192.81945788 4.179039 195.18453217 C4.17371108 195.870819 4.16838315 196.55710584 4.16289377 197.26418924 C4.22356013 201.53362011 4.97625254 204.21950871 7.57344818 207.62361908 C10.21162244 208.94270621 12.17509189 208.75147785 15.13110065 208.75504684 C16.31983715 208.75888799 17.50857364 208.76272913 18.73333246 208.76668668 C20.70969809 208.76538695 20.70969809 208.76538695 22.7259903 208.76406097 C24.1307107 208.76664319 25.53543037 208.76965595 26.94014901 208.77306437 C30.81391759 208.7811545 34.68766766 208.78292506 38.56144369 208.78366184 C42.73400903 208.78550891 46.90656468 208.79305449 51.07912445 208.79979706 C60.20921453 208.8133952 69.33930022 208.81940741 78.46939874 208.82380772 C84.16712491 208.82656765 89.86484937 208.83080454 95.56257439 208.83531189 C111.32881088 208.84750651 127.09504601 208.85780543 142.86128712 208.86118698 C144.37572819 208.86151633 144.37572819 208.86151633 145.92076404 208.86185233 C147.43888969 208.86217975 147.43888969 208.86217975 148.98768455 208.86251378 C151.03865198 208.86295725 153.08961942 208.86340381 155.14058685 208.86385345 C156.15794394 208.86407488 157.17530102 208.86429631 158.2234871 208.86452445 C174.71287826 208.8684735 191.20222525 208.8859299 207.69159935 208.90921298 C224.60910422 208.93290834 241.52658692 208.945388 258.44410866 208.9465549 C267.9474698 208.94747269 277.45077341 208.95325098 286.95411873 208.97137451 C295.04572248 208.98675104 303.13725092 208.99191048 311.2288665 208.98363641 C315.35907504 208.97972118 319.48913181 208.98070181 323.61932182 208.99469376 C327.39877312 209.00738066 331.17795779 209.00628139 334.95740845 208.99410304 C336.97572741 208.99120401 338.99405076 209.00312119 341.01233369 209.0155251 C342.8071733 209.00564034 342.8071733 209.00564034 344.63827229 208.99555588 C346.18761376 208.99645151 346.18761376 208.99645151 347.76825505 208.99736524 C351.06044683 208.55873447 352.93798216 207.62497963 355.57344818 205.62361908 C356.73270583 202.14584613 356.71841384 199.03528279 356.71389008 195.41831207 C356.7168612 194.67944808 356.71983232 193.9405841 356.72289348 193.17933029 C356.73158442 190.69663716 356.73308904 188.21399224 356.73458099 185.7312851 C356.7392088 183.95410306 356.74423341 182.17692201 356.74962616 180.39974213 C356.76275375 175.56716107 356.76919555 170.73459391 356.77363682 165.9019978 C356.77656632 162.88459603 356.78067084 159.86719806 356.78514099 156.8497982 C356.79881544 147.41408384 356.80848296 137.97837816 356.81234288 128.54265457 C356.81682688 117.64064233 356.83439084 106.73875526 356.86334348 95.83678108 C356.88493411 87.41549374 356.89504572 78.99424168 356.896384 70.57292694 C356.8974337 65.54033756 356.90337667 60.50786586 356.92120361 55.47530556 C356.93763959 50.74341788 356.93986166 46.01173692 356.93106461 41.27983093 C356.93029189 39.5415536 356.93466774 37.80326536 356.94452286 36.06501579 C356.95717336 33.69506522 356.95140374 31.32585448 356.94094086 28.95590973 C356.94899726 28.26534581 356.95705367 27.5747819 356.9653542 26.8632918 C356.93438745 23.87176353 356.70633798 21.86201721 355.23797989 19.22785091 C352.15310427 16.25472901 348.9570916 16.49578326 344.89274788 16.48660469 C343.10665657 16.47899288 343.10665657 16.47899288 341.2844826 16.47122729 C339.96981835 16.47072953 338.65515411 16.47023177 337.30065155 16.46971893 C335.89506769 16.46570449 334.48948498 16.4612663 333.08390367 16.45643938 C329.21239894 16.44446648 325.34090667 16.4388238 321.46938705 16.43425822 C317.29751771 16.42830504 313.1256633 16.41669468 308.95380402 16.40596771 C298.87560333 16.38144026 288.7973977 16.36681764 278.71917635 16.35390764 C275.87392826 16.35019647 273.02868066 16.3462232 270.18343306 16.34215498 C252.52345293 16.31692323 234.86347204 16.29486523 217.20347786 16.28242683 C213.11260856 16.27949704 209.02173929 16.27653539 204.93087006 16.27352142 C203.40568269 16.27240235 203.40568269 16.27240235 201.84968345 16.27126066 C185.36679012 16.25859855 168.88400446 16.22536383 152.40116151 16.18371959 C135.48814605 16.14133778 118.57518579 16.1177363 101.66211736 16.11250627 C92.16207552 16.10908828 82.66220204 16.09728724 73.16221237 16.06440353 C65.07426103 16.03645363 56.98651257 16.02538145 48.89851667 16.036599 C44.77022103 16.04179834 40.64235061 16.03881674 36.51411629 16.01413345 C32.7364041 15.99173392 28.95942485 15.99230727 25.18170063 16.01133732 C23.16439889 16.01548539 21.14709336 15.99492335 19.12990057 15.97355044 C12.33550799 15.98125023 12.33550799 15.98125023 6.26686668 18.69667625 Z " fill="#77757F" transform="translate(75.42655181884766,255.37638092041016)"/>
<path d="M0 0 C2.09407169 -0.00082981 4.1881433 -0.00329341 6.2822113 -0.00730896 C10.65733596 -0.01015808 15.03194617 0.00444909 19.40698242 0.03198242 C24.99766198 0.06608435 30.58742364 0.06003122 36.17814732 0.04131985 C40.49777292 0.03072151 44.81718715 0.03971311 49.13679314 0.05470467 C51.19754342 0.05986469 53.25831598 0.05943132 55.31906319 0.05315971 C58.20480505 0.04767235 61.08925871 0.0681943 63.97485352 0.09545898 C64.81510574 0.08893311 65.65535797 0.08240723 66.52107239 0.07568359 C74.46581654 0.20248278 81.86961404 2.92963905 87.55859375 8.62890625 C89.4375 11.73046875 89.4375 11.73046875 91.12109375 15.25390625 C91.95833984 16.97480469 91.95833984 16.97480469 92.8125 18.73046875 C93.39802152 20.028379 93.97983042 21.32796833 94.55859375 22.62890625 C94.89785889 23.34897858 95.23712402 24.0690509 95.58666992 24.8109436 C98.42404059 31.22875478 99.13674901 36.64154741 99.0546875 43.61328125 C99.05614273 44.6313385 99.05759796 45.64939575 99.05909729 46.69830322 C99.05744744 48.83958819 99.04598958 50.98088615 99.02514648 53.12207031 C98.99629231 56.35664704 99.00453915 59.58956939 99.01757812 62.82421875 C98.99372284 87.23193253 94.00941651 106.56700908 76.87109375 124.81640625 C67.57516627 133.75752734 56.83173075 138.9853187 44.55859375 142.62890625 C43.35203125 142.99822266 43.35203125 142.99822266 42.12109375 143.375 C23.18226181 148.1425879 3.99769454 143.42095144 -12.55908203 133.83544922 C-17.81523209 130.46633202 -22.12824701 126.10107596 -26.44140625 121.62890625 C-27.10527344 120.99597656 -27.76914063 120.36304688 -28.453125 119.7109375 C-32.42011247 115.6726334 -35.04086145 111.05276176 -37.62890625 106.06640625 C-37.95020508 105.46030518 -38.27150391 104.8542041 -38.60253906 104.22973633 C-45.4215175 90.3855177 -46.21378945 76.46063652 -46.23754883 61.28857422 C-46.25378463 58.02832852 -46.33946095 54.77461092 -46.42773438 51.515625 C-46.6387085 35.30452636 -43.30775091 21.95735772 -34.26879883 8.36083984 C-24.35387621 -1.2193332 -12.96781984 -0.09308447 0 0 Z " fill="#FDC276" transform="translate(229.44140625,95.37109375)"/>
<path d="M0 0 C1.09327606 -0.00029205 2.18655212 -0.00058411 3.31295776 -0.00088501 C6.91656507 0.00050522 10.51996409 0.01605226 14.12353516 0.03173828 C16.62602628 0.03546949 19.12851886 0.03831596 21.63101196 0.04031372 C27.53822905 0.04716251 33.44537961 0.06291588 39.35256255 0.0830127 C47.92241454 0.11153248 56.49229202 0.12197273 65.06217957 0.1346283 C77.05404719 0.15400774 89.04572045 0.19233644 101.03759766 0.22705078 C101.03759766 20.35705078 101.03759766 40.48705078 101.03759766 61.22705078 C98.39759766 59.24705078 95.75759766 57.26705078 93.03759766 55.22705078 C90.34751579 53.59404086 90.34751579 53.59404086 87.85009766 52.41455078 C87.05216797 52.01623047 86.25423828 51.61791016 85.43212891 51.20751953 C79.92098522 48.95091747 74.45203046 49.06233049 68.58837891 49.03417969 C67.17020119 49.02191345 67.17020119 49.02191345 65.72337341 49.00939941 C62.59895446 48.98461989 59.47458085 48.96804491 56.35009766 48.95361328 C55.2786853 48.9482896 54.20727295 48.94296593 53.10339355 48.93748093 C47.42798581 48.91077666 41.7525998 48.89139641 36.07714844 48.87695312 C31.39823752 48.86363932 26.71976533 48.83582933 22.04101562 48.79492188 C16.3747233 48.74538937 10.70882743 48.72080649 5.04232788 48.71372604 C2.89272735 48.70704703 0.7431345 48.69191336 -1.40634155 48.66783524 C-15.36446086 48.52044685 -27.56714346 48.46435563 -38.71240234 58.03955078 C-39.32599609 58.64412109 -39.93958984 59.24869141 -40.57177734 59.87158203 C-41.96240234 61.22705078 -41.96240234 61.22705078 -42.96240234 61.22705078 C-43.08792299 57.31698614 -43.17762036 53.4077335 -43.23706055 49.49609375 C-43.27396456 47.52708606 -43.33756414 45.55863583 -43.40185547 43.59033203 C-43.55664537 31.39288749 -40.26841508 21.30666274 -31.96240234 12.22705078 C-27.54571682 7.74786499 -22.7766087 4.61793938 -16.96240234 2.22705078 C-16.15539886 1.88400909 -15.34839539 1.54096741 -14.51693726 1.18753052 C-9.6365165 -0.13122014 -5.03311288 -0.03528368 0 0 Z " fill="#56555B" transform="translate(226.96240234375,31.77294921875)"/>
<path d="M0 0 C0.77013931 -0.00807175 1.54027863 -0.01614349 2.33375549 -0.02445984 C3.97044625 -0.03830901 5.60716599 -0.04902743 7.24389648 -0.05688477 C8.90121041 -0.06833008 10.55848969 -0.08866183 12.21557617 -0.1184082 C26.93070432 -0.3825221 39.18448609 1.52227032 50.2890625 12.12109375 C54.23488791 16.39364355 57.15097961 20.84010868 59.31640625 26.23828125 C59.65708633 27.08693756 59.99776642 27.93559387 60.34877014 28.80996704 C61.53625211 33.01719047 61.61926465 36.79825623 61.62280273 41.14599609 C61.63112625 42.02159683 61.63944977 42.89719757 61.64802551 43.79933167 C61.67204428 46.6826731 61.6808872 49.56578801 61.6875 52.44921875 C61.6964717 54.46172145 61.70559364 56.47422348 61.71485901 58.48672485 C61.73132891 62.70145282 61.73904563 66.91610153 61.74194336 71.13085938 C61.74732854 76.52000084 61.78502313 81.90839327 61.83068752 87.29732323 C61.86049033 91.45302017 61.8676676 95.60853731 61.86866951 99.76433182 C61.87286449 101.75059061 61.88526969 103.7368503 61.90618706 105.72300339 C61.93317153 108.50648255 61.92825546 111.28823233 61.91577148 114.07177734 C61.93060577 114.88450607 61.94544006 115.6972348 61.96072388 116.53459167 C61.88538895 122.46048559 60.22847472 126.73099196 56.31640625 131.23828125 C51.30265903 134.80944961 47.50084187 135.53961742 41.31640625 135.23828125 C38.57510522 134.52152623 35.99199333 133.75403149 33.328125 132.82421875 C32.5848848 132.57209625 31.84164459 132.31997375 31.07588196 132.06021118 C29.51011234 131.52574939 27.94617727 130.98588571 26.3840332 130.44091797 C24.0263179 129.62107441 21.66149144 128.82511644 19.29492188 128.03125 C4.89837494 123.12015686 -7.59239548 117.31193839 -15.12109375 103.36328125 C-17.6391805 97.99955174 -18.65746018 93.14446868 -18.68359375 87.23828125 C-15.61571279 88.6881702 -12.86233052 90.39255238 -10.05859375 92.30078125 C-5.43008715 95.44539786 -3.6086164 96.24604919 2.08129883 95.76660156 C11.86059011 95.11402533 11.86059011 95.11402533 16.30078125 98.54296875 C18.51772475 101.34762546 20.41273629 104.2160469 22.31640625 107.23828125 C24.11404517 109.802624 25.29841158 111.04342932 28.41333008 111.63964844 C30.97032358 111.85674445 33.50067499 111.94659285 36.06640625 111.98828125 C36.95457031 112.01792969 37.84273438 112.04757812 38.7578125 112.078125 C40.94352522 112.14863186 43.12997036 112.19574359 45.31640625 112.23828125 C45.31640625 106.95828125 45.31640625 101.67828125 45.31640625 96.23828125 C42.59390625 96.54765625 42.59390625 96.54765625 39.81640625 96.86328125 C35.75821725 96.88735117 33.92805278 96.71827293 30.703125 94.1875 C28.53023913 91.58235264 26.73538259 89.32399169 25.31640625 86.23828125 C25.59375 83.86328125 25.59375 83.86328125 26.31640625 81.23828125 C27.25872611 69.7954114 27.25872611 69.7954114 22.60546875 59.65625 C21.54186922 58.48629051 20.43445123 57.35632623 19.31640625 56.23828125 C19.80177408 50.25896265 23.42851659 45.3381715 26.31640625 40.23828125 C32.58640625 40.23828125 38.85640625 40.23828125 45.31640625 40.23828125 C45.31640625 34.95828125 45.31640625 29.67828125 45.31640625 24.23828125 C43.9396875 24.3775 42.56296875 24.51671875 41.14453125 24.66015625 C25.55031693 25.74763074 25.55031693 25.74763074 20.25 21.56640625 C17.25357926 18.71439133 14.72779304 15.59325417 12.31640625 12.23828125 C9.1011632 13.64672843 6.99456757 15.34172911 4.56640625 17.86328125 C3.64601563 18.81074219 3.64601563 18.81074219 2.70703125 19.77734375 C2.248125 20.25945312 1.78921875 20.7415625 1.31640625 21.23828125 C2.79362047 24.69029764 4.75434626 26.88790061 7.44140625 29.48828125 C8.52808594 30.54789062 8.52808594 30.54789062 9.63671875 31.62890625 C10.19101562 32.16 10.7453125 32.69109375 11.31640625 33.23828125 C10.09113596 37.29109837 8.61760131 40.68188889 6.31640625 44.23828125 C1.8132371 42.27087725 -1.85573294 39.1452428 -5.66674805 36.10620117 C-8.16438507 34.12759939 -10.52173378 32.32847068 -13.3125 30.7734375 C-15.72432735 29.42298677 -17.11602811 28.52793253 -18.68359375 26.23828125 C-19.8246693 19.8295991 -20.09191365 13.72475476 -16.80078125 7.9140625 C-11.76895986 1.55465723 -7.80958205 0.07768226 0 0 Z " fill="#AAA9AE" transform="translate(314.68359375,311.76171875)"/>
<path d="M0 0 C0.77396622 -0.0066568 1.54793243 -0.0133136 2.34535217 -0.02017212 C3.97492105 -0.03025279 5.60453083 -0.03499057 7.23413086 -0.03466797 C9.71212366 -0.0390439 12.18833695 -0.07541656 14.66601562 -0.11328125 C16.25650439 -0.1191501 17.84700152 -0.12311904 19.4375 -0.125 C20.5362571 -0.14655655 20.5362571 -0.14655655 21.6572113 -0.16854858 C27.11398005 -0.12063989 30.27110993 1.25326012 34.78515625 4.3359375 C39.69167825 9.7589355 41.24812344 14.88196621 40.92578125 22.22265625 C40.15582181 26.85437555 37.57031431 28.9648945 33.99560547 31.79174805 C31.00408119 33.92984668 27.96847182 35.97464432 24.86230469 37.94238281 C22.89256401 39.26387785 21.17974871 40.68252897 19.41796875 42.265625 C18.11472656 43.29042969 18.11472656 43.29042969 16.78515625 44.3359375 C13.30782508 43.17682711 13.06953614 42.65332209 11.47265625 39.5234375 C11.10527344 38.83636719 10.73789063 38.14929688 10.359375 37.44140625 C9.78515625 35.3359375 9.78515625 35.3359375 10.421875 33.32421875 C12.55826212 30.20839914 15.32481393 27.8692031 18.10546875 25.3359375 C20.2139042 23.26072355 20.2139042 23.26072355 19.78515625 19.3359375 C18.46515625 18.6759375 17.14515625 18.0159375 15.78515625 17.3359375 C15.78515625 16.6759375 15.78515625 16.0159375 15.78515625 15.3359375 C12.6970593 13.57131067 11.55203489 13.3359375 7.78515625 13.3359375 C6.2538011 15.1259086 4.78357413 16.96853691 3.34765625 18.8359375 C0.66197459 21.95779295 -1.66789453 24.02165821 -5.77929688 24.85693359 C-11.95261248 25.31449275 -18.06098656 24.9016124 -24.21484375 24.3359375 C-24.21484375 29.6159375 -24.21484375 34.8959375 -24.21484375 40.3359375 C-17.94484375 40.3359375 -11.67484375 40.3359375 -5.21484375 40.3359375 C-4.03921875 42.3984375 -2.86359375 44.4609375 -1.65234375 46.5859375 C-1.27779053 47.22821289 -0.9032373 47.87048828 -0.51733398 48.53222656 C1.82646898 52.76542843 1.82646898 52.76542843 1.62109375 55.6015625 C0.39005958 58.15567078 -1.41593953 60.15544753 -3.21484375 62.3359375 C-5.66042433 66.0385123 -5.44983365 69.41731859 -5.40234375 73.7734375 C-5.39267578 75.72056641 -5.39267578 75.72056641 -5.3828125 77.70703125 C-5.35117503 81.20657893 -5.35117503 81.20657893 -4.50390625 83.9765625 C-4.07929192 87.44233349 -5.35482999 88.88981118 -7.40234375 91.6484375 C-10.03129447 94.80037664 -11.36179523 96.16449657 -15.421875 96.98046875 C-18.71484375 96.9609375 -18.71484375 96.9609375 -24.21484375 96.3359375 C-24.21484375 101.6159375 -24.21484375 106.8959375 -24.21484375 112.3359375 C-21.29737302 112.22188 -18.3813988 112.09513482 -15.46484375 111.9609375 C-14.63984375 111.93 -13.81484375 111.8990625 -12.96484375 111.8671875 C-12.165625 111.82851563 -11.36640625 111.78984375 -10.54296875 111.75 C-9.80981445 111.7185791 -9.07666016 111.6871582 -8.32128906 111.65478516 C-4.30893079 111.04744395 -2.51054685 109.70133839 0.0390625 106.55078125 C0.81675324 105.46412679 1.58610268 104.37146162 2.34765625 103.2734375 C6.38577369 97.46906502 6.38577369 97.46906502 9.78515625 96.3359375 C11.973503 96.39285159 14.16111836 96.48033084 16.34765625 96.5859375 C25.66906163 96.66297391 31.84125834 93.38384858 38.78515625 87.3359375 C39.11515625 87.3359375 39.44515625 87.3359375 39.78515625 87.3359375 C39.73862343 97.85235435 35.77867052 106.50999933 28.66015625 114.2109375 C19.79292985 122.22318919 8.33062137 125.82119094 -2.8347168 129.48828125 C-5.04663219 130.21729467 -7.25074643 130.96715697 -9.45507812 131.71875 C-10.88109234 132.19396474 -12.30751111 132.6679676 -13.734375 133.140625 C-14.38243607 133.36241425 -15.03049713 133.58420349 -15.69819641 133.81271362 C-20.64522533 135.41173627 -25.52149079 136.33160631 -30.5078125 134.48828125 C-31.13300781 134.08738281 -31.75820312 133.68648437 -32.40234375 133.2734375 C-33.03527344 132.89058594 -33.66820312 132.50773438 -34.3203125 132.11328125 C-38.2041508 128.46968037 -40.38973953 124.40054719 -40.72950745 119.12019348 C-40.75603959 117.53973055 -40.76107458 115.95880775 -40.74829102 114.37817383 C-40.75690659 113.50885223 -40.76552216 112.63953064 -40.7743988 111.74386597 C-40.79700211 108.88492592 -40.79032736 106.0269712 -40.78125 103.16796875 C-40.78649012 101.16647554 -40.79276802 99.16498481 -40.80003357 97.16349792 C-40.810429 92.97142916 -40.80589162 88.77969997 -40.79125977 84.58764648 C-40.7741216 79.24256709 -40.79751051 73.89856772 -40.83274937 68.55360889 C-40.85482862 64.41915398 -40.8532557 60.28495295 -40.84498405 56.15045738 C-40.84416936 54.18148303 -40.85093965 52.21248911 -40.86575508 50.24357033 C-40.9651149 34.64222161 -38.95662303 22.21557215 -27.55859375 10.65625 C-19.73426682 3.50766039 -10.57078918 0.03202984 0 0 Z " fill="#AAA9AF" transform="translate(176.21484375,311.6640625)"/>
<path d="M0 0 C44.88 0 89.76 0 136 0 C136 12.21 136 24.42 136 37 C135.67 37 135.34 37 135 37 C134.85304687 36.31035156 134.70609375 35.62070312 134.5546875 34.91015625 C132.34219363 25.64056986 129.29271778 18.72518445 121 13.5625 C114.46287901 9.88536944 108.73037952 8.68511477 101.33984375 8.6640625 C100.51351944 8.6574057 99.68719513 8.6507489 98.83583069 8.64389038 C97.09020193 8.63379784 95.34453486 8.62907231 93.59887695 8.62939453 C90.96954008 8.62505291 88.34192757 8.58878667 85.71289062 8.55078125 C68.83944227 8.43717451 53.57648833 12.15413358 40.83984375 24.03125 C30.37437417 35.22996904 24.6657983 48.97182464 24.74121094 64.2265625 C24.7377063 65.11220886 24.73420166 65.99785522 24.73059082 66.91033936 C24.72184414 69.81530781 24.72759761 72.7200294 24.734375 75.625 C24.73302632 77.65706427 24.7310841 79.68912823 24.72857666 81.72119141 C24.72563496 85.97106003 24.72989233 90.22084434 24.73925781 94.47070312 C24.75065172 99.90437533 24.74408714 105.33784992 24.73211288 110.77151489 C24.72486852 114.96494014 24.72719405 119.15831892 24.73236847 123.35174561 C24.73369784 125.35471622 24.73208235 127.35769113 24.72740936 129.36065674 C24.72230171 132.16502985 24.73011369 134.96908772 24.74121094 137.7734375 C24.73716248 138.59237488 24.73311401 139.41131226 24.72894287 140.25506592 C24.78144572 147.45639481 26.30558932 153.2639733 29 160 C19.43 160 9.86 160 0 160 C0 107.2 0 54.4 0 0 Z " fill="#88878F" transform="translate(96,288)"/>
<path d="M0 0 C44.88 0 89.76 0 136 0 C136 52.8 136 105.6 136 160 C126.43 160 116.86 160 107 160 C107.99 157.69 108.98 155.38 110 153 C111.29802556 148.4303972 111.16174663 143.81742966 111.17700195 139.1015625 C111.18357315 138.21463211 111.19014435 137.32770172 111.19691467 136.41389465 C111.21659097 133.48426212 111.22830043 130.55468084 111.23828125 127.625 C111.24235678 126.61978302 111.2464323 125.61456604 111.25063133 124.57888794 C111.27147241 119.25360319 111.28578011 113.92834402 111.29516602 108.60302734 C111.30619931 103.13041008 111.34056941 97.65820288 111.38033772 92.18572998 C111.40661806 87.95435892 111.41486817 83.72308366 111.41844749 79.49163818 C111.42328749 77.47602585 111.43482663 75.46041704 111.45348549 73.44488525 C111.60825978 55.61138439 109.29588835 39.27969873 96.609375 25.546875 C82.60740145 12.08866741 65.90500545 8.43879102 47.16674805 8.4440918 C44.56995796 8.43751888 41.97697828 8.38285998 39.38085938 8.32617188 C27.60260453 8.20816049 19.48953027 9.75314574 10.0625 17.375 C5.11736634 23.66880648 2.2377311 29.01940543 1 37 C0.67 37 0.34 37 0 37 C0 24.79 0 12.58 0 0 Z " fill="#88878F" transform="translate(280,288)"/>
<path d="M0 0 C4.12005329 1.7482112 7.35798742 4.53041661 10.8125 7.3125 C12.00524062 8.26851347 13.19925044 9.22294562 14.39453125 10.17578125 C15.27709595 10.89290283 15.27709595 10.89290283 16.17749023 11.62451172 C17.9748937 13.03924719 17.9748937 13.03924719 19.98071289 14.14501953 C24.67302164 16.91560234 24.67302164 16.91560234 25.61108398 20.02661133 C25.844624 22.45929831 25.87175601 24.80712326 25.8125 27.25 C25.79956773 43.46707207 30.65389925 58.42190384 42.203125 70.2578125 C46.497256 74.21600808 50.80270216 77.34606068 56 80 C56 80.33 56 80.66 56 81 C19.7 81 -16.6 81 -54 81 C-49 77 -49 77 -46.75390625 75.32421875 C-35.46823233 66.89516817 -27.14848122 54.83410955 -24.359375 40.76953125 C-24.08514054 37.89305025 -24.01730775 35.37159076 -24.140625 32.51171875 C-24.54360417 20.29554968 -24.54360417 20.29554968 -21.84228516 16.27832031 C-18.86810862 13.28307878 -15.36943455 11.15786332 -11.73339844 9.05419922 C-9.02078963 7.4044746 -6.63070754 5.39467156 -4.1875 3.375 C-3.37667969 2.72273438 -2.56585938 2.07046875 -1.73046875 1.3984375 C-1.15941406 0.93695313 -0.58835938 0.47546875 0 0 Z " fill="#88878F" transform="translate(255,367)"/>
<path d="M0 0 C5.28 0 10.56 0 16 0 C16.00410889 1.27117676 16.00821777 2.54235352 16.01245117 3.85205078 C16.03427433 8.58243991 16.08859746 13.31200102 16.15258789 18.04199219 C16.17574007 20.08650762 16.19015706 22.13114186 16.19555664 24.17578125 C16.20486644 27.12054231 16.24590158 30.06344209 16.29296875 33.0078125 C16.2890361 33.9174173 16.28510345 34.82702209 16.28105164 35.76419067 C16.422199 41.94695899 17.51406105 44.69913827 22 49 C23.93038899 50.62237644 25.91318995 52.18394562 27.9375 53.6875 C29.09434427 54.55650112 30.25057333 55.42632171 31.40625 56.296875 C32.29570312 56.96299805 32.29570312 56.96299805 33.203125 57.64257812 C36.14694136 59.8664394 39.04161353 62.15178767 41.9375 64.4375 C43.11325069 65.36332006 44.28903208 66.28910113 45.46484375 67.21484375 C46.04862793 67.67487793 46.63241211 68.13491211 47.23388672 68.60888672 C49.5727488 70.45113667 51.91385586 72.29051848 54.25537109 74.12939453 C55.41109611 75.03734866 56.56637563 75.94587017 57.72119141 76.85498047 C60.79080369 79.27059793 63.86828465 81.67528905 66.95703125 84.06640625 C67.60220703 84.56785156 68.24738281 85.06929688 68.91210938 85.5859375 C70.15451307 86.55125836 71.3992167 87.51362828 72.64648438 88.47265625 C76.8875378 91.7750756 76.8875378 91.7750756 78 94 C78.35173852 97.79877599 78.52701444 100.14360153 76.5 103.4375 C73.7669801 105.14563744 71.63869581 105.93393435 68.38671875 105.765625 C63.28966444 104.13056339 59.51290014 99.93626861 55.60302734 96.40673828 C53.043301 94.16044782 50.34128511 92.11432858 47.625 90.0625 C46.52946793 89.22849471 45.43442073 88.39385214 44.33984375 87.55859375 C43.79054199 87.1394873 43.24124023 86.72038086 42.67529297 86.28857422 C40.40588642 84.54302952 38.1602579 82.76831595 35.91552734 80.99121094 C33.58297454 79.14705079 31.23984866 77.31658271 28.89599609 75.48681641 C27.56690742 74.44456171 26.24205979 73.39688674 24.92041016 72.34521484 C22.7908608 70.65366134 20.64700571 68.98181491 18.5 67.3125 C17.84153076 66.78285645 17.18306152 66.25321289 16.50463867 65.70751953 C13.54970215 63.43553691 11.5884205 62.10738674 7.875 61.4296875 C4.24620287 62.14953041 2.38352111 63.50001327 -0.5 65.8125 C-1.01062988 66.21484863 -1.52125977 66.61719727 -2.04736328 67.03173828 C-3.14219728 67.89642898 -4.23208794 68.76740933 -5.31738281 69.64404297 C-6.9988524 70.99907519 -8.69533898 72.33244051 -10.3984375 73.66015625 C-14.52242165 76.87753976 -18.62651081 80.119869 -22.7265625 83.36767578 C-26.18092814 86.10336775 -29.64684722 88.82328379 -33.12451172 91.52929688 C-34.44183718 92.56230502 -35.75283416 93.60340988 -37.05908203 94.65039062 C-39.1734141 96.34495491 -41.3038836 98.01731479 -43.4375 99.6875 C-44.0876709 100.21722412 -44.7378418 100.74694824 -45.40771484 101.29272461 C-48.75375907 103.87853865 -50.50728188 104.94458181 -54.8203125 105.4296875 C-58 105 -58 105 -60.4375 103.4375 C-62.63021887 100.01685857 -62.63007693 97.99048721 -62 94 C-58.33387596 89.86615282 -54.04223006 86.45657465 -49.75 83 C-49.05326172 82.43603516 -48.35652344 81.87207031 -47.63867188 81.29101562 C-41.9641497 76.72198571 -36.18747082 72.29589624 -30.38256836 67.89453125 C-23.36673201 62.55774679 -16.51678268 57.02313242 -9.71728516 51.4140625 C-8.56543042 50.46559184 -7.40876946 49.52293017 -6.24755859 48.5859375 C-3.17661362 46.17482345 -3.17661362 46.17482345 -1 43 C-0.88273341 41.61182327 -0.82318594 40.21851286 -0.79467773 38.82568359 C-0.77473251 37.96494232 -0.75478729 37.10420105 -0.73423767 36.21737671 C-0.71752518 35.28712677 -0.70081268 34.35687683 -0.68359375 33.3984375 C-0.66281265 32.44683746 -0.64203156 31.49523743 -0.62062073 30.51480103 C-0.55511867 27.46827568 -0.4962372 24.42166257 -0.4375 21.375 C-0.39431541 19.31249084 -0.35070114 17.24999063 -0.30664062 15.1875 C-0.1994366 10.12509046 -0.09817098 5.06259245 0 0 Z " fill="#C3C2C7" transform="translate(248,288)"/>
<path d="M0 0 C5.28 0 10.56 0 16 0 C16.350625 1.65 16.70125 3.3 17.0625 5 C19.11686827 12.45908478 23.06579384 17.56084771 29.75 21.5 C36.21193888 24.29975688 43.23663082 23.98551055 49.75 21.5 C55.62422462 18.47866942 59.79056611 14.26676271 62.09765625 8.03515625 C62.83168459 5.38241198 63.42788412 2.69231001 64 0 C69.28 0 74.56 0 80 0 C79.47795542 11.83301047 75.82207497 21.20986562 67.53125 29.8046875 C58.25906053 37.84630862 47.93982862 40.55796436 35.859375 40.37890625 C25.14552184 39.3270401 16.13822442 33.51600876 8.8125 25.875 C2.73537606 18.35331382 0.41831111 9.48171852 0 0 Z " fill="#030201" transform="translate(216,176)"/>
<path d="M0 0 C3.2826932 1.49076434 5.93077441 3.38620321 8.75 5.625 C9.54921875 6.25664062 10.3484375 6.88828125 11.171875 7.5390625 C11.77515625 8.02117187 12.3784375 8.50328125 13 9 C9.42938894 12.85736998 5.34214886 15.83847593 1.125 18.9375 C-4.74341912 23.26304411 -4.74341912 23.26304411 -10.3828125 27.87890625 C-13 30 -13 30 -15 30 C-14.98428955 30.60360352 -14.9685791 31.20720703 -14.95239258 31.82910156 C-14.61127159 46.93054189 -14.53896691 60.83606017 -23 74 C-23.34740234 74.60513428 -23.69480469 75.21026855 -24.05273438 75.83374023 C-26.28195411 79.119846 -27.84802519 80.77219039 -31.82836914 81.55932617 C-35.20299628 81.68930614 -38.50252898 81.61069123 -41.875 81.4375 C-43.0403125 81.40591797 -44.205625 81.37433594 -45.40625 81.34179688 C-48.27342891 81.25954174 -51.13540386 81.14466052 -54 81 C-51.60954988 79.07167556 -49.21570391 77.16093387 -46.75390625 75.32421875 C-35.46823233 66.89516817 -27.14848122 54.83410955 -24.359375 40.76953125 C-24.08514054 37.89305025 -24.01730775 35.37159076 -24.140625 32.51171875 C-24.54360417 20.29554968 -24.54360417 20.29554968 -21.84228516 16.27832031 C-18.86810862 13.28307878 -15.36943455 11.15786332 -11.73339844 9.05419922 C-9.02078963 7.4044746 -6.63070754 5.39467156 -4.1875 3.375 C-3.37667969 2.72273438 -2.56585938 2.07046875 -1.73046875 1.3984375 C-1.15941406 0.93695313 -0.58835938 0.47546875 0 0 Z " fill="#76747E" transform="translate(255,367)"/>
<path d="M0 0 C5.67476113 1.96434039 9.31400331 5.62800662 12 11 C12.59057744 16.67862925 12.29370905 21.16922672 9 26 C4.99653611 30.03627917 1.41408246 32.12458106 -4.3125 32.3125 C-8.94226662 32.25237316 -11.4369151 31.06591027 -15 28 C-19.3022759 23.23261319 -20.36282503 19.56252705 -20.28125 13.28125 C-19.69180611 8.50020514 -16.85179203 5.75038822 -13.375 2.6875 C-8.92314854 -0.47565762 -5.3540278 -0.48837416 0 0 Z " fill="#050402" transform="translate(292,120)"/>
<path d="M0 0 C5.67476113 1.96434039 9.31400331 5.62800662 12 11 C12.59057744 16.67862925 12.29370905 21.16922672 9 26 C4.99653611 30.03627917 1.41408246 32.12458106 -4.3125 32.3125 C-8.94226662 32.25237316 -11.4369151 31.06591027 -15 28 C-19.3022759 23.23261319 -20.36282503 19.56252705 -20.28125 13.28125 C-19.69180611 8.50020514 -16.85179203 5.75038822 -13.375 2.6875 C-8.92314854 -0.47565762 -5.3540278 -0.48837416 0 0 Z " fill="#050402" transform="translate(228,120)"/>
<path d="M0 0 C2.85992492 2.68876349 4.12769486 5.16109635 5.625 8.8125 C6.05039062 9.82957031 6.47578125 10.84664063 6.9140625 11.89453125 C8.96034474 17.7463096 9.14177007 23.42760032 9.11352539 29.57568359 C9.11367142 30.41536682 9.11381744 31.25505005 9.1139679 32.12017822 C9.11327445 34.87962479 9.10550874 37.63900281 9.09765625 40.3984375 C9.09579005 42.31800296 9.0943671 44.2375689 9.09336853 46.15713501 C9.08955925 51.1975436 9.07974257 56.23792316 9.06866455 61.27832031 C9.05841623 66.4264283 9.05386359 71.57454099 9.04882812 76.72265625 C9.03811884 86.81511689 9.02106154 96.90755603 9 107 C4.71 107 0.42 107 -4 107 C-3.25130208 105.33984375 -2.50260417 103.6796875 -1.75390625 102.01953125 C0.25079682 96.64941991 0.13686764 91.36235872 0.11352539 85.71166992 C0.11367142 84.78435059 0.11381744 83.85703125 0.1139679 82.90161133 C0.11327269 79.84453979 0.10549864 76.78752961 0.09765625 73.73046875 C0.09579068 71.60769179 0.09436743 69.48491439 0.09336853 67.36213684 C0.08955433 61.78084113 0.07973339 56.19957154 0.06866455 50.61828613 C0.05842686 44.92065789 0.05386586 39.22302542 0.04882812 33.52539062 C0.03811015 22.35024896 0.02104687 11.17512665 0 0 Z " fill="#77757F" transform="translate(391,341)"/>
<path d="M0 0 C0 10.56 0 21.12 0 32 C-6.94235526 31.00823496 -8.39157458 30.71316237 -13 26 C-16.25748422 21.22235648 -16.91033792 16.63398025 -16 11 C-12.44947467 4.03045028 -7.82609187 0 0 0 Z " fill="#F8B152" transform="translate(168,128)"/>
<path d="M0 0 C7.91317365 1.13045338 7.91317365 1.13045338 10.8125 3.8125 C11.37582031 4.31394531 11.93914062 4.81539062 12.51953125 5.33203125 C15.95391382 9.2013752 16.44048894 12.65801504 16.31640625 17.6875 C15.64389752 22.60262553 13.12234243 25.84732399 9.6875 29.375 C7 31 7 31 0 32 C0 21.44 0 10.88 0 0 Z " fill="#FAB253" transform="translate(344,128)"/>
<path d="M0 0 C2.64 0 5.28 0 8 0 C8.14700056 3.16616599 8.23462106 6.33143982 8.3125 9.5 C8.3753418 10.8303125 8.3753418 10.8303125 8.43945312 12.1875 C8.54780446 18.08181273 7.61146016 21.47266048 4.18676758 26.27148438 C2.69963407 28.4374801 2.13032238 30.42357888 1.6875 33 C1.54699219 33.763125 1.40648437 34.52625 1.26171875 35.3125 C1.17535156 35.869375 1.08898437 36.42625 1 37 C0.67 37 0.34 37 0 37 C0 24.79 0 12.58 0 0 Z " fill="#76747D" transform="translate(280,288)"/>
</svg>
