<?xml version="1.0" encoding="UTF-8"?>
<svg version="1.1" xmlns="http://www.w3.org/2000/svg" width="512" height="512">
<path d="M0 0 C0.76171509 -0.00619858 1.52343018 -0.01239716 2.30822754 -0.01878357 C3.91527023 -0.02587298 5.52238649 -0.02272293 7.12939453 -0.01000977 C9.58633629 0.00386439 12.03947322 -0.03022837 14.49609375 -0.06835938 C16.05989676 -0.06931057 17.62370454 -0.06745173 19.1875 -0.0625 C19.91988892 -0.07575821 20.65227783 -0.08901642 21.40686035 -0.10267639 C25.02791513 -0.03666592 26.78470533 0.29951935 29.55639648 2.69311523 C31.38484739 6.11046297 31.59143655 8.30256176 31.59765625 12.16796875 C31.6140918 13.45372803 31.63052734 14.7394873 31.64746094 16.06420898 C31.64838745 16.73829803 31.64931396 17.41238708 31.65026855 18.10690308 C31.6603471 21.61922553 31.74465862 25.12949328 31.83203125 28.640625 C31.85709244 29.67706902 31.85709244 29.67706902 31.88265991 30.73445129 C32.30282695 45.70141918 35.39576782 60.44300515 41.23046875 74.2578125 C42.58601049 77.88281325 42.33908613 80.70236223 42.09375 84.56640625 C41.48853516 85.50613281 41.48853516 85.50613281 40.87109375 86.46484375 C40.61457031 87.15835938 40.35804687 87.851875 40.09375 88.56640625 C41.3628941 91.37586228 41.3628941 91.37586228 43.40625 94.12890625 C47.03045886 99.37653283 47.03045886 99.37653283 48.09375 102.56640625 C49.29 102.31890625 50.48625 102.07140625 51.71875 101.81640625 C55.02489737 101.42710594 56.01236874 101.52820688 59.15625 103.00390625 C61.44502956 105.00050119 63.24662703 106.83849076 65.1875 109.1328125 C69.40999556 114.00791087 73.94880379 118.53196311 78.53125 123.06640625 C79.77165039 124.30003906 79.77165039 124.30003906 81.03710938 125.55859375 C83.05369959 127.56352738 85.07260236 129.56606878 87.09375 131.56640625 C91.46452637 128.37556569 95.6168131 125.1939472 99.46875 121.37890625 C138.7013762 85.69103494 201.38730311 80.57738079 251.77734375 82.86328125 C294.55101879 85.21006862 339.33548743 92.75135716 372.76171875 121.73046875 C373.39682373 122.28105957 374.03192871 122.83165039 374.6862793 123.39892578 C375.93683865 124.49214482 377.17954308 125.59442958 378.41333008 126.70654297 C381.73489721 129.84590786 381.73489721 129.84590786 386.09375 130.56640625 C388.53642353 128.57594714 388.53642353 128.57594714 391.1015625 125.921875 C391.58648163 125.43745438 392.07140076 124.95303375 392.5710144 124.45393372 C393.60173063 123.42087293 394.62874503 122.38410769 395.65234375 121.34399414 C397.1835909 119.7895969 398.72723265 118.24848602 400.2734375 116.70898438 C428.48041455 88.42434526 440.3624096 58.13907939 440.47460938 18.36425781 C440.4841271 16.34554908 440.51906838 14.32701066 440.5546875 12.30859375 C440.56290527 11.13151855 440.57112305 9.95444336 440.57958984 8.74169922 C441.21937555 4.79058199 442.05519166 3.18195433 445.09375 0.56640625 C447.93309195 0.06913667 450.16578553 -0.1138069 453 -0.0625 C453.76171509 -0.06491196 454.52343018 -0.06732391 455.30822754 -0.06980896 C456.91533627 -0.06883142 458.52247906 -0.05545969 460.12939453 -0.03051758 C462.58612708 0.00379977 465.03926255 -0.0098607 467.49609375 -0.02929688 C469.05991111 -0.02239815 470.6237192 -0.01272552 472.1875 0 C472.91988892 -0.00495987 473.65227783 -0.00991974 474.40686035 -0.01502991 C477.61385142 0.05884062 479.79493519 0.38564832 482.55688477 2.05639648 C484.78609087 5.69713802 484.64659417 9.15204483 484.58984375 13.29296875 C484.59129898 14.15465668 484.59275421 15.0163446 484.59425354 15.90414429 C484.59259334 17.73495854 484.58101853 19.56578657 484.56030273 21.39648438 C484.5318524 24.13345417 484.5395898 26.86842112 484.55273438 29.60546875 C484.53527109 44.27146461 482.92743861 58.55637522 478.84375 72.69140625 C478.63468018 73.42528564 478.42561035 74.15916504 478.21020508 74.9152832 C475.8724568 82.78415236 472.68918907 90.19836695 469.09375 97.56640625 C468.78566406 98.20175293 468.47757812 98.83709961 468.16015625 99.49169922 C459.08628775 117.94534983 446.2605386 133.79254544 431.54296875 148.06640625 C430.90696747 148.68442612 430.27096619 149.30244598 429.61569214 149.93919373 C427.00433142 152.46853609 424.38767491 154.9915303 421.74926758 157.49267578 C419.78975039 159.35583879 417.85273424 161.24010015 415.91796875 163.12890625 C415.31611252 163.68835938 414.71425629 164.2478125 414.09416199 164.82421875 C412.21976303 166.59646397 412.21976303 166.59646397 410.09375 169.56640625 C410.0069891 172.75031686 410.0069891 172.75031686 411.09375 175.56640625 C411.44050781 176.64535156 411.78726562 177.72429687 412.14453125 178.8359375 C412.76908203 180.58970703 412.76908203 180.58970703 413.40625 182.37890625 C416.23658562 190.66261514 418.4262835 198.97267835 420.09375 207.56640625 C420.24618164 208.34258301 420.39861328 209.11875977 420.55566406 209.91845703 C425.20147271 234.91852667 426.9076008 266.08419639 419.09375 290.56640625 C418.87944336 291.25943848 418.66513672 291.9524707 418.44433594 292.66650391 C405.85307206 332.20893741 374.97849356 360.46180255 339.09667969 379.15795898 C331.30745036 383.11088394 323.34917579 386.51822696 315.18725586 389.62524414 C309.25504179 391.91405991 304.83876893 393.82477913 301.30859375 399.37109375 C298.7907452 406.01114628 299.6520721 413.71851409 299.65795898 420.72558594 C299.6321269 434.97800683 296.14487754 446.1046082 289.6796875 458.66796875 C284.80707414 469.60341937 285.74135604 482.20057688 285.71289062 493.9152832 C285.70338758 496.24614283 285.66969834 498.5756856 285.6328125 500.90625 C285.63785797 501.61667953 285.64290344 502.32710907 285.64810181 503.05906677 C285.58662658 506.14097332 285.35670264 508.18099008 283.60238647 510.75233459 C280.02971205 513.33584459 276.68663383 513.125857 272.44140625 513.08398438 C271.13343582 513.09449829 271.13343582 513.09449829 269.79904175 513.10522461 C266.91778686 513.12282431 264.03751481 513.1111749 261.15625 513.09765625 C259.1537253 513.1003506 257.15120186 513.10423254 255.14868164 513.10925293 C250.95218447 513.11515066 246.75602789 513.10657609 242.55957031 513.08789062 C237.17898956 513.06510104 231.79920687 513.07822263 226.4186554 513.10218048 C222.28367087 513.11663097 218.14887571 513.11203588 214.0138855 513.10166931 C212.02993679 513.09899996 210.04597091 513.1022791 208.06204224 513.11158752 C205.28959579 513.1217407 202.51844372 513.10626948 199.74609375 513.08398438 C198.92519257 513.0920813 198.10429138 513.10017822 197.2585144 513.10852051 C193.68224465 513.05523353 191.52226489 512.87627845 188.58511353 510.75233459 C186.4308223 507.59473675 186.52846772 504.59813626 186.5546875 500.90625 C186.54289459 500.16113663 186.53110168 499.41602325 186.51895142 498.64833069 C186.48372568 496.26664481 186.47453781 493.88583086 186.46875 491.50390625 C186.36962686 477.33075535 185.90652225 465.30498557 179.59375 452.31640625 C178.78713024 450.62585494 177.98494454 448.93317988 177.1875 447.23828125 C176.83365234 446.50706055 176.47980469 445.77583984 176.11523438 445.02246094 C173.75978357 439.35902044 172.84943004 434.28386159 172.8203125 428.1640625 C172.8000272 426.76496591 172.77917648 425.36587741 172.7578125 423.96679688 C172.73525778 421.79688598 172.71874566 419.62729807 172.71289062 417.45727539 C173.05390018 405.7368389 173.05390018 405.7368389 168.09375 395.56640625 C163.07800408 391.32887988 156.99136741 389.18832185 150.90625 386.94140625 C110.23381122 371.21528826 76.1740274 343.7934225 58.09375 303.56640625 C57.61164063 302.51324219 57.12953125 301.46007812 56.6328125 300.375 C55.26994804 297.14129432 54.14283457 293.91526341 53.09375 290.56640625 C52.89765137 289.9513623 52.70155273 289.33631836 52.49951172 288.70263672 C42.11973281 254.21936467 47.95905231 208.16857868 61.2734375 175.28125 C62.16743334 172.32254948 62.1172661 171.40278583 61.09375 168.56640625 C59.8300463 166.88553082 59.8300463 166.88553082 58.18554688 165.34936523 C57.57400757 164.7445079 56.96246826 164.13965057 56.33239746 163.51646423 C55.33254822 162.54925194 55.33254822 162.54925194 54.3125 161.5625 C53.28122986 160.54471214 53.28122986 160.54471214 52.22912598 159.50636292 C50.0243436 157.33161034 47.81001282 155.16695372 45.59375 153.00390625 C14.16327784 122.26624135 -11.39699878 84.12330536 -12.12214661 38.51153564 C-12.12953354 37.66854919 -12.13692047 36.82556274 -12.14453125 35.95703125 C-12.152603 35.06779968 -12.16067474 34.17856812 -12.16899109 33.26239014 C-12.18273256 31.3967885 -12.19349846 29.53116278 -12.20141602 27.66552734 C-12.21301603 25.75887682 -12.23359184 23.85226072 -12.26293945 21.94580078 C-12.30545867 19.17848861 -12.32175326 16.4121287 -12.33203125 13.64453125 C-12.34953934 12.79344788 -12.36704742 11.9423645 -12.38508606 11.06549072 C-12.37165025 7.4156681 -12.28917916 5.19909038 -10.3737793 2.03442383 C-6.96438974 0.00606137 -3.8586017 -0.02613114 0 0 Z " fill="#020101" transform="translate(19.90625,-0.56640625)"/>
<path d="M0 0 C4.29 0 8.58 0 13 0 C13.03738281 1.91941406 13.07476562 3.83882812 13.11328125 5.81640625 C13.5229982 23.11959079 15.08799662 38.47762054 20.4375 55.0625 C20.7257666 55.95646484 21.0140332 56.85042969 21.31103516 57.77148438 C22.97899003 62.69601147 24.62689342 66.99812016 28 71 C29.2375 71.04125 30.475 71.0825 31.75 71.125 C33.8359375 71.2109375 33.8359375 71.2109375 36 72 C40.40783086 77.02647379 43.70104086 82.73011143 46 89 C45.34 89.66 44.68 90.32 44 91 C43.85949223 98.02538849 47.35839706 101.10060936 52 106 C55.94022303 110.07232999 59.94020005 114.08442788 63.95385742 118.08422852 C65.82914563 119.95409753 67.69895465 121.82932899 69.56835938 123.70507812 C70.76009565 124.89615461 71.95214155 126.0869214 73.14453125 127.27734375 C73.98199638 128.11784523 73.98199638 128.11784523 74.83638 128.97532654 C78.24142315 132.35964175 79.81374083 133.83637805 84.625 134.5 C89.37524141 134.414564 91.57562313 132.37190203 94.90625 129.17578125 C96.31777677 127.70895213 97.71341625 126.22668873 99.09375 124.73046875 C126.96140371 95.19266456 172.49407573 84.26788935 211.6875 83.0703125 C218.9785642 82.91554934 226.2700043 82.88904771 233.5625 82.875 C234.33820343 82.87232117 235.11390686 82.86964233 235.91311646 82.86688232 C251.96905799 82.82491487 267.86007759 83.18661981 283.6875 86.125 C284.87520996 86.34309326 286.06291992 86.56118652 287.28662109 86.78588867 C317.10152508 92.51584717 345.24680525 103.31135479 367 125 C367.80695313 125.804375 368.61390625 126.60875 369.4453125 127.4375 C370.79840484 128.79544213 372.14372491 130.16123461 373.4765625 131.5390625 C375.89837147 133.8615152 377.1901341 134.02622539 380.625 134.5 C384.21538093 134.42299772 385.84535627 133.67325604 388.47265625 131.25390625 C389.16584961 130.61662598 389.85904297 129.9793457 390.57324219 129.32275391 C395.125318 124.96576706 399.6442881 120.58055753 404.10766602 116.13256836 C405.79189926 114.45798274 407.48654177 112.79443525 409.18164062 111.13085938 C419.05149262 101.35815691 428.31714839 90.85825505 435.25 78.75 C435.65492676 78.04875 436.05985352 77.3475 436.47705078 76.625 C445.67699409 60.19835014 451.73179448 40.94492095 452.31640625 22.0703125 C452.35830078 20.78125 452.40019531 19.4921875 452.44335938 18.1640625 C452.48316028 16.81771091 452.52287273 15.47135671 452.5625 14.125 C452.60575183 12.75519667 452.64936812 11.38540479 452.69335938 10.015625 C452.79915469 6.67719492 452.90005434 3.33861033 453 0 C457.29 0 461.58 0 466 0 C467.19538475 43.63154353 455.43074745 81.04356731 425.375 113.375 C416.97753225 122.24026458 408.25222473 130.80501623 399.57177734 139.39208984 C399.01347229 139.94602417 398.45516724 140.4999585 397.87994385 141.07067871 C396.82016549 142.12188377 395.7583593 143.17104947 394.6942749 144.21789551 C390.83911221 148.02131883 390.83911221 148.02131883 389.765625 153.1875 C390.02401223 157.39059892 391.04973696 160.16178245 392.75 164 C395.93542739 171.50080474 398.11381901 179.06619833 400 187 C400.41572266 188.65902344 400.41572266 188.65902344 400.83984375 190.3515625 C406.66317884 215.09349368 408.97715016 245.58894916 401 270 C400.67854004 271.0202124 400.67854004 271.0202124 400.35058594 272.06103516 C395.36773177 287.53544471 387.24596421 300.48276293 377 313 C376.36964844 313.7734375 375.73929687 314.546875 375.08984375 315.34375 C371.11340168 320.05388639 366.77494377 324.10989556 362 328 C360.57880859 329.16015625 360.57880859 329.16015625 359.12890625 330.34375 C343.19827874 343.0922328 325.0534109 353.07609878 305.64550781 359.39111328 C296.12961812 362.63060863 288.58033236 368.68453977 283.89453125 377.703125 C280.95976928 384.45444571 281.43171964 391.71287713 281.4375 398.9375 C281.41359339 412.84636677 279.2035664 423.21395483 272.87304688 435.65429688 C267.85765216 445.84626156 267.61952559 455.90474634 267.375 467.0625 C267.33673804 468.51499527 267.29768181 469.96746984 267.2578125 471.41992188 C267.16124916 474.94649556 267.08098482 478.47289811 267 482 C262.71 482 258.42 482 254 482 C253.93050179 467.37028607 253.87698992 452.74060734 253.84456348 438.11076164 C253.82910597 431.31759897 253.80803794 424.52454086 253.77368164 417.73144531 C253.74054435 411.17624427 253.72314836 404.62111109 253.71536827 398.06583023 C253.7098235 395.56437596 253.69899603 393.06292767 253.68280983 390.56151962 C253.66104584 387.05894858 253.65803272 383.55682696 253.65942383 380.05419922 C253.648638 379.01913742 253.63785217 377.98407562 253.6267395 376.91764832 C253.65384251 370.61475899 254.4113693 366.30969774 258.40234375 361.20703125 C263.65762941 356.4331458 269.18745687 355.42126483 276 354 C304.61204193 346.95950878 331.36688496 336.34235518 354 317 C354.87011719 316.28714844 355.74023438 315.57429688 356.63671875 314.83984375 C369.39948293 303.93414369 378.34309224 290.30836311 385 275 C385.64582031 273.51886719 385.64582031 273.51886719 386.3046875 272.0078125 C391.16409898 259.7706084 391.37007962 246.90954141 391.3125 233.9375 C391.3117598 232.79003296 391.3117598 232.79003296 391.31100464 231.61938477 C391.2855518 218.71563774 391.12047961 205.36143883 387 193 C383.37 193 379.74 193 376 193 C374.77771886 196.66684341 375.08905983 199.33503585 375.375 203.1875 C375.46523438 204.45980469 375.55546875 205.73210937 375.6484375 207.04296875 C375.87117916 209.55004984 376.15557586 212.05303958 376.5234375 214.54296875 C377.27188245 220.36145622 377.22340896 226.22105219 377.24023438 232.07910156 C377.24988085 234.10003791 377.28095742 236.11992858 377.3125 238.140625 C377.41054286 263.19057601 367.33603544 284.27969525 350 302 C346.48757624 305.23487529 342.83958036 308.16452981 339 311 C337.83791016 311.88365234 337.83791016 311.88365234 336.65234375 312.78515625 C325.96353655 320.61885635 314.4776656 326.6910313 302.125 331.4375 C301.26994873 331.76741943 300.41489746 332.09733887 299.53393555 332.43725586 C293.77187477 334.56733051 288.05300575 335.96803594 282 337 C281.38664934 332.84966053 281.19993243 329.13454271 282 325 C285.50275166 320.28940294 290.03098913 318.38587607 295.6875 317.27734375 C298.27316303 316.96716845 300.86195155 316.68203298 303.453125 316.421875 C313.11212511 315.27300715 317.05347958 310.9812174 323.18359375 303.73828125 C326.34942798 300.66026489 329.25766201 299.11929143 333.25 297.375 C339.81958971 294.40762832 342.845343 291.40638037 346 285 C347.83803799 281.6435828 349.65366025 279.33330892 352.4375 276.75 C358.70051928 270.60615022 360.18816567 264.30345001 360.65234375 255.7578125 C361.02355106 252.81317924 361.84859543 250.63600562 363.0625 247.9375 C365.4898169 242.34758408 366.30240648 236.78688842 364.28125 230.91015625 C363.86359375 229.93369141 363.86359375 229.93369141 363.4375 228.9375 C361.82298198 225.15017269 362.05915273 222.5501642 362.64453125 218.53515625 C364.08866389 208.23579268 362.99258119 202.12006964 357.60546875 193.1953125 C355.49174598 188.98843846 355.43206393 185.47832783 355.2734375 180.84765625 C354.4589921 172.36578913 349.42669853 166.94788889 343.12890625 161.71875 C342.42636719 161.1515625 341.72382813 160.584375 341 160 C336.63801588 156.0635753 333.57202637 151.60188226 330.35546875 146.71875 C324.76916572 140.27087784 318.65411791 138.35684638 310.4375 137.1875 C302.00003366 135.76729364 295.37902447 133.18254628 288.06640625 128.8046875 C280.85208543 124.55880697 274.80870543 124.2875992 266.625 125.5 C258.9715844 126.55564353 252.25784636 126.69046496 244.9375 124 C234.87872529 120.34700789 227.39078352 122.00406641 217.36328125 125.10546875 C211.45889827 126.67585632 205.98874447 126.29929458 200 125.5 C199.02546875 125.37818359 199.02546875 125.37818359 198.03125 125.25390625 C196.63197659 125.07899707 195.23593355 124.87680813 193.84375 124.65234375 C184.86502799 123.82929423 177.59443539 128.81402889 170 133 C164.5064479 135.95508535 158.6839861 136.92261646 152.5 137.3125 C144.68859532 138.1547732 139.56467088 141.94038617 134.6875 147.9375 C132.667478 150.61373267 130.85125124 153.2479146 129.125 156.125 C126.39719055 159.81556573 123.10124478 162.24160259 119.4375 164.97265625 C114.96271495 168.69447266 112.339191 172.33419194 111 178 C110.90848382 179.91629339 110.82608963 181.8330321 110.75 183.75 C110.37494328 189.54174134 108.61908579 193.19225182 105.375 197.94140625 C101.16135136 204.24990862 102.54716737 213.63216379 103.6875 220.8125 C104.22681433 224.82091735 103.28211059 227.25507709 101.71875 230.91015625 C99.30504031 237.92827954 101.13594368 243.88405233 104.0625 250.3671875 C105.12075596 253.33912298 105.3087788 255.85437561 105.4375 259 C105.79429356 265.1606354 107.3504241 269.9806604 111 275 C112.68033272 276.31214793 114.41255203 277.36000957 116.23828125 278.45703125 C119.4554434 281.27472316 120.79536613 285.28912823 122.4453125 289.16015625 C125.00935219 293.84371619 128.63130369 296.07995075 133.5 298 C139.03993848 300.3768713 142.4982076 303.37142046 146.3125 308 C152.98557861 315.65483218 159.4965475 316.27937053 169.3515625 317.37109375 C175.19644138 318.3786157 179.81888019 320.81888019 184 325 C184.1953125 327.8203125 184.1953125 327.8203125 184.125 331.125 C184.10695312 332.22070312 184.08890625 333.31640625 184.0703125 334.4453125 C184.04710937 335.28835938 184.02390625 336.13140625 184 337 C161.51705402 334.93734441 138.98985201 321.18570168 122 307 C121.20464844 306.36835938 120.40929687 305.73671875 119.58984375 305.0859375 C104.7281543 292.76672402 94.73884658 275.55378915 90 257 C89.8249292 256.44465576 89.6498584 255.88931152 89.46948242 255.31713867 C88.79009754 251.96402276 88.81752946 248.62631083 88.796875 245.21875 C88.78986069 244.45697952 88.78284637 243.69520905 88.77561951 242.91035461 C88.75806959 240.44017675 88.75175975 237.97023807 88.75 235.5 C88.74932526 234.66020599 88.74865051 233.82041199 88.74795532 232.95516968 C88.76401789 220.41090227 89.16145371 208.27056625 92 196 C92.16628906 195.24847656 92.33257812 194.49695313 92.50390625 193.72265625 C98.02205221 169.48368917 110.34789131 147.18077644 131.625 133.3125 C162.26045782 114.27589437 196.20820459 110.64257253 231.5625 110.625 C233.15401382 110.62200897 233.15401382 110.62200897 234.77767944 110.61895752 C272.19123972 110.626915 315.06936226 114.42185356 344 141 C344.82757813 141.73605469 345.65515625 142.47210938 346.5078125 143.23046875 C352.44814466 148.79839477 356.79100608 154.79927274 360.9921875 161.703125 C361.65476562 162.79109375 362.31734375 163.8790625 363 165 C363.66 166.11890625 364.32 167.2378125 365 168.390625 C366.6978658 171.12172126 366.6978658 171.12172126 369.0703125 171.65625 C373.50179391 171.46334118 373.50179391 171.46334118 377 169 C377.60793363 162.8487576 376.5639083 159.02643331 373.1875 153.8125 C372.78297607 153.16958008 372.37845215 152.52666016 371.96166992 151.86425781 C356.58919257 128.05755703 334.51841485 114.72803298 308 106 C306.26363281 105.41605469 306.26363281 105.41605469 304.4921875 104.8203125 C297.22205096 102.56043873 289.86365735 101.14134602 282.375 99.8125 C281.43301758 99.64532471 280.49103516 99.47814941 279.52050781 99.3059082 C268.62055225 97.46746419 257.74576208 96.83850536 246.703125 96.7265625 C245.56312546 96.71398911 244.42312592 96.70141571 243.24858093 96.6884613 C194.5997408 96.2555781 145.0107261 99.67414762 107.52099609 134.49511719 C91.70677211 150.14180685 82.20479908 172.42065377 78 194 C77.58427734 195.918125 77.58427734 195.918125 77.16015625 197.875 C74.88817294 209.51746305 74.70428797 221.11891413 74.6875 232.9375 C74.68400543 233.73259979 74.68051086 234.52769958 74.6769104 235.34689331 C74.64524771 248.34451314 75.15791611 260.8876693 80.1875 273.0625 C80.49719727 273.82852539 80.80689453 274.59455078 81.12597656 275.38378906 C92.78535422 303.48678748 115.31752383 323.39882547 142 337 C142.9885498 337.51554443 142.9885498 337.51554443 143.99707031 338.04150391 C159.48170549 346.05455819 176.08237693 351.38448667 193.19116211 354.67089844 C199.29708144 355.87861496 204.30708519 357.57690255 208.3125 362.5 C208.80363281 363.0878125 209.29476562 363.675625 209.80078125 364.28125 C212.19496463 367.71265289 212.13309149 370.84426985 212.15771484 374.89257812 C212.16797699 376.10393433 212.17823914 377.31529053 212.18881226 378.56335449 C212.19611359 379.87276001 212.20341492 381.18216553 212.2109375 382.53125 C212.22390123 383.88741878 212.23771732 385.24357965 212.25234985 386.59973145 C212.31391915 392.35857123 212.3680647 398.1173866 212.40136719 403.87646484 C212.4222952 407.40087479 212.45757737 410.92489434 212.50212479 414.44908142 C212.52318531 416.44485204 212.52833646 418.44076993 212.53329468 420.43664551 C212.54986115 421.64800171 212.56642761 422.85935791 212.58349609 424.10742188 C212.59158295 425.17536987 212.5996698 426.24331787 212.60800171 427.34362793 C212.7926456 430.01358599 212.7926456 430.01358599 214.33853149 431.84484863 C216.93218305 433.6481089 218.93562595 433.38304676 222 433 C224.03667615 431.45493534 224.86073078 430.27853844 226 428 C226.11664077 426.12377899 226.16969449 424.24346983 226.19287109 422.36376953 C226.20893402 421.18138702 226.22499695 419.99900452 226.24154663 418.78079224 C226.2860929 413.3359598 226.32755434 407.89126089 226.35009766 402.44628906 C226.36335773 399.58300256 226.39105611 396.72044223 226.43212891 393.85742188 C226.48192046 390.38609555 226.50627638 386.91542033 226.51332474 383.44375229 C226.52316798 381.49857341 226.55730926 379.55356515 226.59213257 377.6086731 C226.56956287 367.9956559 224.55605481 359.38184061 218.6875 351.5625 C212.79801672 345.94694617 206.66458157 343.42218057 199 341 C198.9906543 340.39526855 198.98130859 339.79053711 198.97167969 339.16748047 C198.91768278 336.4025212 198.83409606 333.63920094 198.75 330.875 C198.73582031 329.92367188 198.72164062 328.97234375 198.70703125 327.9921875 C198.50596748 322.201551 198.0030607 318.4932314 194 314 C186.19440006 307.23032845 177.95024136 304.84521338 167.89257812 303.36669922 C160.7280374 302.26500335 157.18198598 299.71011618 152.6875 294 C148.4905473 289.08226629 143.85621403 287.1432208 137.96484375 284.78515625 C134.27701912 282.5646874 133.40268369 280.63022328 131.625 276.75 C129.41342849 272.26761845 127.70946087 269.38829733 123.625 266.5 C120.82004275 264.34648196 120.09447018 263.46581524 119.37890625 259.9375 C119.25214641 257.66099666 119.17207069 255.38137536 119.140625 253.1015625 C118.95772688 249.06764285 117.78546954 246.57093908 116 243 C116 242.01 116 241.02 116 240 C117.175625 240.165 118.35125 240.33 119.5625 240.5 C136.27100438 242.25740941 148.84707644 239.54694905 163.53295898 231.73046875 C172.816553 226.82230554 184.41599075 226.33425284 194.58203125 228.90625 C200.0061614 230.95259656 205.09777014 233.54316513 210.25 236.1875 C221.92675612 242.10189861 236.26915883 243.21064211 248.8671875 239.26171875 C255.73053536 236.49755247 262.36203756 233.20111982 268.97631836 229.89208984 C277.4485815 226.15730283 289.82751061 226.8504407 298.44921875 229.87890625 C302.29998856 231.57135791 306.01913794 233.51381065 309.75830078 235.43603516 C322.84518485 242.06288966 335.68847321 241.84664862 350 240 C349.55315886 242.60657333 349.05363735 244.87875083 347.98046875 247.3046875 C346.88516692 250.3156766 346.76558719 252.74414497 346.6875 255.9375 C346.17878978 263.22008847 343.8462618 265.43836438 338.5 270.25 C336.07152551 272.92132194 335.14443575 274.80085747 333.75 278.0625 C331.92874682 281.92766741 330.66661729 283.63241715 326.6875 285.25 C325.91019531 285.5284375 325.13289063 285.806875 324.33203125 286.09375 C318.52616336 288.34996667 314.2814126 292.52118474 310.375 297.25 C307.45294723 300.68963611 305.57793312 302.20766542 301 303 C300.20851563 303.03738281 299.41703125 303.07476562 298.6015625 303.11328125 C287.91907122 303.64893626 277.70157275 308.45640823 270 316 C268.16768792 319.05301679 267.7153885 321.4460476 267.5859375 324.984375 C267.54726563 325.91894531 267.50859375 326.85351562 267.46875 327.81640625 C267.4378125 328.78449219 267.406875 329.75257813 267.375 330.75 C267.33632813 331.73355469 267.29765625 332.71710938 267.2578125 333.73046875 C267.16371574 336.15346037 267.07807672 338.57644796 267 341 C266.31035156 341.20753906 265.62070312 341.41507812 264.91015625 341.62890625 C255.00691673 344.87564733 247.81077218 349.24060631 242.97265625 358.69140625 C242.65167969 359.45324219 242.33070313 360.21507812 242 361 C241.6565152 361.80583527 241.3130304 362.61167053 240.95913696 363.44192505 C239.62336247 368.39719833 239.6916304 373.12647898 239.68115234 378.23779297 C239.67110672 379.36032974 239.6610611 380.48286652 239.65071106 381.63941956 C239.61988338 385.34033712 239.60284478 389.04118235 239.5859375 392.7421875 C239.56722555 395.31194684 239.54765212 397.88170004 239.5272522 400.45144653 C239.48117048 406.51797564 239.44376124 412.58450113 239.41057932 418.65111268 C239.37230194 425.56048853 239.32290658 432.46977106 239.27259517 439.37906814 C239.16939292 453.585976 239.08048896 467.7929465 239 482 C235.04 482 231.08 482 227 482 C226.96132813 479.57914062 226.96132813 479.57914062 226.921875 477.109375 C226.86559662 474.98955619 226.80824923 472.86976557 226.75 470.75 C226.73582031 469.68652344 226.72164062 468.62304688 226.70703125 467.52734375 C226.67480469 466.50253906 226.64257812 465.47773438 226.609375 464.421875 C226.58842773 463.47924805 226.56748047 462.53662109 226.54589844 461.56542969 C225.84527136 458.27285844 224.62136023 457.05547929 222 455 C218.87740379 454.55391483 216.96828061 454.30767579 214.34838867 456.1809082 C212.4991599 458.67567619 212.56994338 460.45614032 212.48828125 463.54296875 C212.45283203 464.61611328 212.41738281 465.68925781 212.38085938 466.79492188 C212.35830078 467.91447266 212.33574219 469.03402344 212.3125 470.1875 C212.27833984 471.31865234 212.24417969 472.44980469 212.20898438 473.61523438 C212.1264443 476.40980557 212.06154765 479.20488768 212 482 C207.71 482 203.42 482 199 482 C198.96261719 479.88980469 198.92523438 477.77960938 198.88671875 475.60546875 C198.84028473 473.52342342 198.78913173 471.44154255 198.73754883 469.35961914 C198.70463914 467.93133851 198.67650589 466.50293841 198.65356445 465.07446289 C198.44992844 452.72198871 196.57975908 442.39812591 190.9375 431.3125 C185.15502698 419.88548451 184.65036056 409.76317656 184.77001953 397.13769531 C184.84774368 386.36161861 183.40781998 377.30853828 176.11938477 368.80615234 C171.0020307 363.69094693 164.63184315 361.54857218 158 359 C137.06580723 350.51153222 117.76955174 340.58768985 101.18359375 325.0078125 C99.00184678 322.94487267 99.00184678 322.94487267 96.4921875 321.05859375 C91.97390413 317.3264067 88.59656294 312.5982902 85 308 C84.31421875 307.14148438 83.6284375 306.28296875 82.921875 305.3984375 C75.09909761 295.20418823 69.75028276 283.87204418 65.625 271.75 C65.3863623 271.05447021 65.14772461 270.35894043 64.90185547 269.64233398 C61.43263442 258.87721314 60.63658888 248.13004581 60.6875 236.875 C60.69487183 234.92134521 60.69487183 234.92134521 60.70239258 232.92822266 C60.94033113 207.29750543 64.38730763 180.22538473 76 157 C76.51606675 153.77458283 76.80740702 151.22789266 74.94287109 148.39233398 C67.66861111 140.34419209 59.84420146 132.81168199 52.11181641 125.20776367 C44.24786537 117.46581628 36.75406487 109.74760037 30 101 C29.52353027 100.40920654 29.04706055 99.81841309 28.55615234 99.2097168 C17.10185546 84.95633551 8.40385803 66.73087307 4 49 C3.80825195 48.22994629 3.61650391 47.45989258 3.41894531 46.66650391 C-0.27425991 31.107446 -0.43631285 15.92541903 0 0 Z " fill="#EE7979" transform="translate(23,15)"/>
<path d="M0 0 C11.67675612 5.91439861 26.01915883 7.02314211 38.6171875 3.07421875 C45.48053536 0.31005247 52.11203756 -2.98638018 58.72631836 -6.29541016 C67.1985815 -10.03019717 79.57751061 -9.3370593 88.19921875 -6.30859375 C92.04998856 -4.61614209 95.76913794 -2.67368935 99.50830078 -0.75146484 C112.59518485 5.87538966 125.43847321 5.65914862 139.75 3.8125 C139.30315886 6.41907333 138.80363735 8.69125083 137.73046875 11.1171875 C136.63516692 14.1281766 136.51558719 16.55664497 136.4375 19.75 C135.92878978 27.03258847 133.5962618 29.25086438 128.25 34.0625 C125.82152551 36.73382194 124.89443575 38.61335747 123.5 41.875 C121.67874682 45.74016741 120.41661729 47.44491715 116.4375 49.0625 C115.66019531 49.3409375 114.88289062 49.619375 114.08203125 49.90625 C108.27616336 52.16246667 104.0314126 56.33368474 100.125 61.0625 C97.20294723 64.50213611 95.32793312 66.02016542 90.75 66.8125 C89.95851563 66.84988281 89.16703125 66.88726562 88.3515625 66.92578125 C77.66907122 67.46143626 67.45157275 72.26890823 59.75 79.8125 C57.91768792 82.86551679 57.4653885 85.2585476 57.3359375 88.796875 C57.27792969 90.19873047 57.27792969 90.19873047 57.21875 91.62890625 C57.1878125 92.59699219 57.156875 93.56507813 57.125 94.5625 C57.06699219 96.03783203 57.06699219 96.03783203 57.0078125 97.54296875 C56.91371574 99.96596037 56.82807672 102.38894796 56.75 104.8125 C56.06035156 105.02003906 55.37070312 105.22757812 54.66015625 105.44140625 C44.75691673 108.68814733 37.56077218 113.05310631 32.72265625 122.50390625 C32.40167969 123.26574219 32.08070313 124.02757812 31.75 124.8125 C31.4065152 125.61833527 31.0630304 126.42417053 30.70913696 127.25442505 C29.37336247 132.20969833 29.4416304 136.93897898 29.43115234 142.05029297 C29.42110672 143.17282974 29.4110611 144.29536652 29.40071106 145.45191956 C29.36988338 149.15283712 29.35284478 152.85368235 29.3359375 156.5546875 C29.31722555 159.12444684 29.29765212 161.69420004 29.2772522 164.26394653 C29.23117048 170.33047564 29.19376124 176.39700113 29.16057932 182.46361268 C29.12230194 189.37298853 29.07290658 196.28227106 29.02259517 203.19156814 C28.91939292 217.398476 28.83048896 231.6054465 28.75 245.8125 C24.79 245.8125 20.83 245.8125 16.75 245.8125 C16.72421875 244.19859375 16.6984375 242.5846875 16.671875 240.921875 C16.61559662 238.80205619 16.55824923 236.68226557 16.5 234.5625 C16.48582031 233.49902344 16.47164063 232.43554688 16.45703125 231.33984375 C16.42480469 230.31503906 16.39257812 229.29023438 16.359375 228.234375 C16.3279541 226.82043457 16.3279541 226.82043457 16.29589844 225.37792969 C15.59558934 222.08685275 14.34571382 220.89402426 11.75 218.8125 C10.76 218.4825 9.77 218.1525 8.75 217.8125 C8.75 211.2125 8.75 204.6125 8.75 197.8125 C10.4 197.1525 12.05 196.4925 13.75 195.8125 C16.04493993 192.69211165 16.01754828 189.74130385 16.05639648 185.94921875 C16.07238388 184.7669873 16.08837128 183.58475586 16.10484314 182.36669922 C16.11288719 180.45268311 16.11288719 180.45268311 16.12109375 178.5 C16.13012222 177.18016113 16.1391507 175.86032227 16.14845276 174.50048828 C16.16493532 171.70293745 16.17264017 168.90550606 16.17553711 166.10791016 C16.18088783 162.55513548 16.21842988 159.00351589 16.26428127 155.45106506 C16.29432085 152.69346237 16.30126657 149.93612716 16.30226326 147.17837524 C16.30842015 145.24209446 16.33776577 143.30593094 16.36778259 141.36987305 C16.31955202 131.78801311 14.28804826 123.16804254 8.4375 115.375 C2.54801672 109.75944617 -3.58541843 107.23468057 -11.25 104.8125 C-11.2593457 104.20776855 -11.26869141 103.60303711 -11.27832031 102.97998047 C-11.33231722 100.2150212 -11.41590394 97.45170094 -11.5 94.6875 C-11.51417969 93.73617187 -11.52835937 92.78484375 -11.54296875 91.8046875 C-11.74403252 86.014051 -12.2469393 82.3057314 -16.25 77.8125 C-24.05559994 71.04282845 -32.29975864 68.65771338 -42.35742188 67.17919922 C-49.5219626 66.07750335 -53.06801402 63.52261618 -57.5625 57.8125 C-61.7594527 52.89476629 -66.39378597 50.9557208 -72.28515625 48.59765625 C-75.97298088 46.3771874 -76.84731631 44.44272328 -78.625 40.5625 C-80.83657151 36.08011845 -82.54053913 33.20079733 -86.625 30.3125 C-89.42995725 28.15898196 -90.15552982 27.27831524 -90.87109375 23.75 C-90.99785359 21.47349666 -91.07792931 19.19387536 -91.109375 16.9140625 C-91.29227312 12.88014285 -92.46453046 10.38343908 -94.25 6.8125 C-94.25 5.8225 -94.25 4.8325 -94.25 3.8125 C-93.074375 3.9775 -91.89875 4.1425 -90.6875 4.3125 C-73.97899562 6.06990941 -61.40292356 3.35944905 -46.71704102 -4.45703125 C-30.88942453 -12.82496772 -14.8780425 -7.63601929 0 0 Z " fill="#FBB240" transform="translate(233.25,251.1875)"/>
<path d="M0 0 C8.29849103 2.69320294 16.64455198 2.91623328 25.2421875 1.4453125 C33.68875266 0.07616852 38.06630359 2.22260944 45.11376953 6.45776367 C51.79836889 10.3069028 58.35265466 11.62678984 65.95703125 12.59448242 C73.29185415 13.62261743 75.85200192 16.19053231 80.359375 22.0859375 C81.15671669 23.1819523 81.95357926 24.2783158 82.75 25.375 C86.40444275 30.29050235 90.10108383 34.1268185 95.1875 37.6328125 C97 39 97 39 99 42 C99.17248979 44.01615112 99.26668718 46.03950241 99.3125 48.0625 C99.79212522 56.01184389 102.65638062 61.48457093 107 68 C107.46708462 74.53918474 106.31644211 80.6058526 105 87 C95.71327433 90.51237734 86.05871815 90.11863146 76.921875 86.34765625 C74.69879005 85.3223029 72.4804172 84.28910636 70.265625 83.24609375 C69.61134521 82.93808838 68.95706543 82.63008301 68.28295898 82.31274414 C67.00918678 81.70655419 65.74004782 81.09048693 64.47680664 80.46264648 C52.98474819 74.86850498 39.26808322 74.2207082 26.78515625 76.6171875 C24.05990568 77.56619617 21.58018905 78.70455239 19 80 C17.57062215 80.67400162 16.13946637 81.34423926 14.70703125 82.01171875 C12.40909012 83.08376876 10.11583733 84.16159129 7.83496094 85.26953125 C7.13790039 85.60726562 6.44083984 85.945 5.72265625 86.29296875 C5.10140869 86.5974292 4.48016113 86.90188965 3.84008789 87.21557617 C-3.78408902 90.46573942 -13.58913932 90.18896146 -21.3125 87.5 C-24.68074723 86.11160047 -27.95975567 84.55013359 -31.25 82.98828125 C-32.00240967 82.63121094 -32.75481934 82.27414063 -33.5300293 81.90625 C-35.02107267 81.19174852 -36.50721287 80.46689809 -37.98754883 79.73046875 C-49.1469733 74.27758294 -65.44963228 73.78569521 -77.3125 77.5 C-82.85539715 79.71236673 -88.20892168 82.48017878 -93.48364258 85.26953125 C-101.69179895 89.57760581 -111.23048197 90.59541233 -120.25 88 C-121.1575 87.67 -122.065 87.34 -123 87 C-126.50942123 69.95423976 -126.50942123 69.95423976 -122.625 63.8125 C-122.18414062 63.20019531 -121.74328125 62.58789062 -121.2890625 61.95703125 C-118.37576827 57.53412092 -117.80481688 53.80471221 -117.6875 48.5625 C-117.20374016 41.40285433 -117.20374016 41.40285433 -114.9375 38.5625 C-112 36 -112 36 -110.2421875 34.80859375 C-104.58992058 30.97557874 -101.17670585 26.46258447 -97.41333008 20.84960938 C-95.42810625 17.90191327 -93.9973035 15.99820233 -91 14 C-89.05250122 13.69719401 -87.10320114 13.40184748 -85.14672852 13.16381836 C-73.39275219 11.70947739 -63.84075305 7.56050203 -54 1 C-50.91796875 1.0234375 -50.91796875 1.0234375 -47.1875 1.375 C-45.83097052 1.48352895 -44.47418744 1.58892742 -43.1171875 1.69140625 C-42.42979492 1.74441895 -41.74240234 1.79743164 -41.03417969 1.85205078 C-31.73903108 2.52810216 -24.36631132 2.13824627 -15.59375 -1.09375 C-9.76330675 -3.13089282 -5.64355804 -1.92004405 0 0 Z " fill="#F17B7B" transform="translate(265,153)"/>
<path d="M0 0 C1.59151382 -0.00299103 1.59151382 -0.00299103 3.21517944 -0.00604248 C40.62873972 0.001915 83.50686226 3.79685356 112.4375 30.375 C113.67886719 31.47908203 113.67886719 31.47908203 114.9453125 32.60546875 C120.88564466 38.17339477 125.22850608 44.17427274 129.4296875 51.078125 C130.09226562 52.16609375 130.75484375 53.2540625 131.4375 54.375 C132.10007812 55.47972656 132.76265625 56.58445313 133.4453125 57.72265625 C135.54213909 60.51431361 136.13161063 61.01367071 139.4375 61.5625 C142.39904261 62.48350115 143.23177726 63.01806226 144.80859375 65.75390625 C146.70946124 70.87162641 147.95451568 75.94142645 148.4375 81.375 C147.798125 81.478125 147.15875 81.58125 146.5 81.6875 C145.4790625 82.0278125 145.4790625 82.0278125 144.4375 82.375 C143.21521886 86.04184341 143.52655983 88.71003585 143.8125 92.5625 C143.90273438 93.83480469 143.99296875 95.10710937 144.0859375 96.41796875 C144.30867916 98.92504984 144.59307586 101.42803958 144.9609375 103.91796875 C145.70938245 109.73645622 145.66090896 115.59605219 145.67773438 121.45410156 C145.68738085 123.47503791 145.71845742 125.49492858 145.75 127.515625 C145.84804286 152.56557601 135.77353544 173.65469525 118.4375 191.375 C114.92507624 194.60987529 111.27708036 197.53952981 107.4375 200.375 C106.66277344 200.96410156 105.88804687 201.55320312 105.08984375 202.16015625 C94.40103655 209.99385635 82.9151656 216.0660313 70.5625 220.8125 C69.70744873 221.14241943 68.85239746 221.47233887 67.97143555 221.81225586 C62.20937477 223.94233051 56.49050575 225.34303594 50.4375 226.375 C49.82414934 222.22466053 49.63743243 218.50954271 50.4375 214.375 C53.94025166 209.66440294 58.46848913 207.76087607 64.125 206.65234375 C66.71066303 206.34216845 69.29945155 206.05703298 71.890625 205.796875 C81.54962511 204.64800715 85.49097958 200.3562174 91.62109375 193.11328125 C94.78692798 190.03526489 97.69516201 188.49429143 101.6875 186.75 C108.25708971 183.78262832 111.282843 180.78138037 114.4375 174.375 C116.27553799 171.0185828 118.09116025 168.70830892 120.875 166.125 C127.13801928 159.98115022 128.62566567 153.67845001 129.08984375 145.1328125 C129.46105106 142.18817924 130.28609543 140.01100562 131.5 137.3125 C133.9273169 131.72258408 134.73990648 126.16188842 132.71875 120.28515625 C132.4403125 119.63417969 132.161875 118.98320312 131.875 118.3125 C130.26048198 114.52517269 130.49665273 111.9251642 131.08203125 107.91015625 C132.52616389 97.61079268 131.43008119 91.49506964 126.04296875 82.5703125 C123.92924598 78.36343846 123.86956393 74.85332783 123.7109375 70.22265625 C122.8964921 61.74078913 117.86419853 56.32288889 111.56640625 51.09375 C110.86386719 50.5265625 110.16132813 49.959375 109.4375 49.375 C105.07551588 45.4385753 102.00952637 40.97688226 98.79296875 36.09375 C93.20666572 29.64587784 87.09161791 27.73184638 78.875 26.5625 C70.43753366 25.14229364 63.81652447 22.55754628 56.50390625 18.1796875 C49.28958543 13.93380697 43.24620543 13.6625992 35.0625 14.875 C27.4090844 15.93064353 20.69534636 16.06546496 13.375 13.375 C3.31622529 9.72200789 -4.17171648 11.37906641 -14.19921875 14.48046875 C-20.10360173 16.05085632 -25.57375553 15.67429458 -31.5625 14.875 C-32.2121875 14.79378906 -32.861875 14.71257812 -33.53125 14.62890625 C-34.93052341 14.45399707 -36.32656645 14.25180813 -37.71875 14.02734375 C-46.69747201 13.20429423 -53.96806461 18.18902889 -61.5625 22.375 C-67.0560521 25.33008535 -72.8785139 26.29761646 -79.0625 26.6875 C-86.87390468 27.5297732 -91.99782912 31.31538617 -96.875 37.3125 C-98.895022 39.98873267 -100.71124876 42.6229146 -102.4375 45.5 C-105.16530945 49.19056573 -108.46125522 51.61660259 -112.125 54.34765625 C-116.59978505 58.06947266 -119.223309 61.70919194 -120.5625 67.375 C-120.65401618 69.29129339 -120.73641037 71.2080321 -120.8125 73.125 C-121.18755672 78.91674134 -122.94341421 82.56725182 -126.1875 87.31640625 C-130.40114864 93.62490862 -129.01533263 103.00716379 -127.875 110.1875 C-127.33568567 114.19591735 -128.28038941 116.63007709 -129.84375 120.28515625 C-132.25745969 127.30327954 -130.42655632 133.25905233 -127.5 139.7421875 C-126.44174404 142.71412298 -126.2537212 145.22937561 -126.125 148.375 C-125.76820644 154.5356354 -124.2120759 159.3556604 -120.5625 164.375 C-118.88216728 165.68714793 -117.14994797 166.73500957 -115.32421875 167.83203125 C-112.1070566 170.64972316 -110.76713387 174.66412823 -109.1171875 178.53515625 C-106.55314781 183.21871619 -102.93119631 185.45495075 -98.0625 187.375 C-92.52256152 189.7518713 -89.0642924 192.74642046 -85.25 197.375 C-78.57692139 205.02983218 -72.0659525 205.65437053 -62.2109375 206.74609375 C-56.36605862 207.7536157 -51.74361981 210.19388019 -47.5625 214.375 C-47.3671875 217.1953125 -47.3671875 217.1953125 -47.4375 220.5 C-47.45554687 221.59570312 -47.47359375 222.69140625 -47.4921875 223.8203125 C-47.51539063 224.66335938 -47.53859375 225.50640625 -47.5625 226.375 C-70.04544598 224.31234441 -92.57264799 210.56070168 -109.5625 196.375 C-110.35785156 195.74335938 -111.15320313 195.11171875 -111.97265625 194.4609375 C-126.8343457 182.14172402 -136.82365342 164.92878915 -141.5625 146.375 C-141.7375708 145.81965576 -141.9126416 145.26431152 -142.09301758 144.69213867 C-142.77240246 141.33902276 -142.74497054 138.00131083 -142.765625 134.59375 C-142.77263931 133.83197952 -142.77965363 133.07020905 -142.78688049 132.28535461 C-142.80443041 129.81517675 -142.81074025 127.34523807 -142.8125 124.875 C-142.81317474 124.03520599 -142.81384949 123.19541199 -142.81454468 122.33016968 C-142.79848211 109.78590227 -142.40104629 97.64556625 -139.5625 85.375 C-139.39621094 84.62347656 -139.22992188 83.87195313 -139.05859375 83.09765625 C-133.54044779 58.85868917 -121.21460869 36.55577644 -99.9375 22.6875 C-69.30204218 3.65089437 -35.35429541 0.01757253 0 0 Z " fill="#F4AEAE" transform="translate(254.5625,125.625)"/>
<path d="M0 0 C1.16402344 0.32484375 1.16402344 0.32484375 2.3515625 0.65625 C14.01345604 3.6621796 25.11569463 3.53345876 37 2 C36.55315886 4.60657333 36.05363735 6.87875083 34.98046875 9.3046875 C33.88516692 12.3156766 33.76558719 14.74414497 33.6875 17.9375 C33.17878978 25.22008847 30.8462618 27.43836438 25.5 32.25 C23.07152551 34.92132194 22.14443575 36.80085747 20.75 40.0625 C18.92874682 43.92766741 17.66661729 45.63241715 13.6875 47.25 C12.52154297 47.66765625 12.52154297 47.66765625 11.33203125 48.09375 C5.52616336 50.34996667 1.2814126 54.52118474 -2.625 59.25 C-5.54705277 62.68963611 -7.42206688 64.20766542 -12 65 C-12.79148437 65.03738281 -13.58296875 65.07476562 -14.3984375 65.11328125 C-25.08092878 65.64893626 -35.29842725 70.45640823 -43 78 C-44.83231208 81.05301679 -45.2846115 83.4460476 -45.4140625 86.984375 C-45.45273437 87.91894531 -45.49140625 88.85351562 -45.53125 89.81640625 C-45.5621875 90.78449219 -45.593125 91.75257813 -45.625 92.75 C-45.66367187 93.73355469 -45.70234375 94.71710938 -45.7421875 95.73046875 C-45.83628426 98.15346037 -45.92192328 100.57644796 -46 103 C-46.68964844 103.20753906 -47.37929688 103.41507812 -48.08984375 103.62890625 C-57.99308327 106.87564733 -65.18922782 111.24060631 -70.02734375 120.69140625 C-70.34832031 121.45324219 -70.66929687 122.21507812 -71 123 C-71.3434848 123.80583527 -71.6869696 124.61167053 -72.04086304 125.44192505 C-73.37663753 130.39719833 -73.3083696 135.12647898 -73.31884766 140.23779297 C-73.32889328 141.36032974 -73.3389389 142.48286652 -73.34928894 143.63941956 C-73.38011662 147.34033712 -73.39715522 151.04118235 -73.4140625 154.7421875 C-73.43277445 157.31194684 -73.45234788 159.88170004 -73.4727478 162.45144653 C-73.51882952 168.51797564 -73.55623876 174.58450113 -73.58942068 180.65111268 C-73.62769806 187.56048853 -73.67709342 194.46977106 -73.72740483 201.37906814 C-73.83060708 215.585976 -73.91951104 229.7929465 -74 244 C-77.96 244 -81.92 244 -86 244 C-86.02578125 242.38609375 -86.0515625 240.7721875 -86.078125 239.109375 C-86.13440338 236.98955619 -86.19175077 234.86976557 -86.25 232.75 C-86.26417969 231.68652344 -86.27835938 230.62304688 -86.29296875 229.52734375 C-86.32519531 228.50253906 -86.35742188 227.47773438 -86.390625 226.421875 C-86.41157227 225.47924805 -86.43251953 224.53662109 -86.45410156 223.56542969 C-87.15441066 220.27435275 -88.40428618 219.08152426 -91 217 C-91.99 216.67 -92.98 216.34 -94 216 C-94 209.4 -94 202.8 -94 196 C-91.525 195.01 -91.525 195.01 -89 194 C-86.70506007 190.87961165 -86.73245172 187.92880385 -86.69360352 184.13671875 C-86.67761612 182.9544873 -86.66162872 181.77225586 -86.64515686 180.55419922 C-86.63979416 179.27818848 -86.63443146 178.00217773 -86.62890625 176.6875 C-86.61987778 175.36766113 -86.6108493 174.04782227 -86.60154724 172.68798828 C-86.58506468 169.89043745 -86.57735983 167.09300606 -86.57446289 164.29541016 C-86.56911217 160.74263548 -86.53157012 157.19101589 -86.48571873 153.63856506 C-86.45567915 150.88096237 -86.44873343 148.12362716 -86.44773674 145.36587524 C-86.44157985 143.42959446 -86.41223423 141.49343094 -86.38221741 139.55737305 C-86.43044798 129.97551311 -88.46195174 121.35554254 -94.3125 113.5625 C-97.58326912 110.44385968 -101.07132199 108.20317923 -105 106 C-99.96909525 97.02896188 -95.29193337 93.05667627 -85.48828125 89.9921875 C-82.84607188 88.93862207 -81.73420338 88.22195781 -80 86 C-79.60907294 83.68225723 -79.60907294 83.68225723 -79.734375 81.10546875 C-79.73050781 80.14962891 -79.72664063 79.19378906 -79.72265625 78.20898438 C-79.74078121 76.20617609 -79.77445659 74.2034439 -79.82421875 72.20117188 C-79.75672441 65.02266672 -79.75672441 65.02266672 -77.56616211 62.06225586 C-75.78875031 60.50031707 -74.01909951 59.22972749 -72 58 C-71.14535156 57.45730469 -70.29070312 56.91460937 -69.41015625 56.35546875 C-64.16341401 53.74519266 -59.86525706 52.32584761 -54 52 C-53.9175 51.2575 -53.835 50.515 -53.75 49.75 C-52.8158115 46.32464216 -51.93482579 45.0080387 -49 43 C-45.5 43.25 -45.5 43.25 -42 44 C-38.09456789 44.4458569 -38.09456789 44.4458569 -36.2109375 42.390625 C-35.60507812 41.68421875 -34.99921875 40.9778125 -34.375 40.25 C-31.3559114 37.03340093 -28.97795963 35.32763421 -24.8125 33.875 C-18.26163925 31.56116386 -15.71171673 27.39922475 -12.5625 21.4375 C-10.96983396 18.43303851 -9.57777772 16.38129282 -6.875 14.3125 C-1.92976669 10.33481233 -0.91911777 6.06280436 0 0 Z " fill="#FCA613" transform="translate(336,253)"/>
<path d="M0 0 C1.91193058 0.20484971 3.82328304 0.42150738 5.7265625 0.6953125 C7.7661297 0.96865656 9.82146676 1.11751398 11.875 1.25 C17.49902584 2.65877965 20.4543166 8.25062816 23.60546875 12.73828125 C27.41350884 18.10500825 32.33971515 22.22032243 37.328125 26.44921875 C39.6067592 28.56281169 39.97715236 29.56335614 40.140625 32.6875 C40.19476563 34.3271875 40.19476563 34.3271875 40.25 36 C40.78812478 43.95718937 43.64829783 49.47244674 48 56 C48.46708462 62.53918474 47.31644211 68.6058526 46 75 C36.34073008 78.6790239 26.43566087 77.90441139 17 74 C16.95101563 73.27554688 16.90203125 72.55109375 16.8515625 71.8046875 C16.41754089 65.77058103 16.41754089 65.77058103 14.9375 59.9375 C13.17040034 54.40058773 13.50921248 48.57325181 15 43 C15.59920903 36.76822608 13.90526006 33.26886146 11 28 C7.86589287 22.070313 6.67263082 17.21676518 6.26953125 10.5234375 C5.91168889 7.17320319 4.86068495 4.79102743 3 2 C2.01 1.34 1.02 0.68 0 0 Z " fill="#EB5F5F" transform="translate(324,165)"/>
<path d="M0 0 C2.875 1.625 2.875 1.625 5 4 C5.625 6.9375 5.625 6.9375 5 10 C2.9375 12.9375 2.9375 12.9375 0 15 C-3.85210127 15.06641554 -5.99848005 14.87229157 -8.9375 12.3125 C-10.33817538 9.26397123 -10.4842732 7.32073048 -10 4 C-7.20900702 -0.07914358 -4.82277608 -0.78739201 0 0 Z " fill="#0A0702" transform="translate(224,297)"/>
<path d="M0 0 C2.875 1.625 2.875 1.625 5 4 C5.625 6.9375 5.625 6.9375 5 10 C2.9375 12.9375 2.9375 12.9375 0 15 C-3.85210127 15.06641554 -5.99848005 14.87229157 -8.9375 12.3125 C-10.33817538 9.26397123 -10.4842732 7.32073048 -10 4 C-7.20900702 -0.07914358 -4.82277608 -0.78739201 0 0 Z " fill="#0A0702" transform="translate(197,270)"/>
<path d="M0 0 C3.4375 0.9375 3.4375 0.9375 5.375 2.0625 C7.1087306 5.12202459 6.85895216 7.50567525 6.4375 10.9375 C4.8125 13.375 4.8125 13.375 2.4375 14.9375 C-0.87373632 15.42038863 -2.859049 15.23368989 -5.9375 13.9375 C-8.04380516 11.34512442 -8.12924997 9.16704793 -7.94140625 5.8828125 C-7.5625 3.9375 -7.5625 3.9375 -6 1.375 C-3.5625 -0.0625 -3.5625 -0.0625 0 0 Z " fill="#070501" transform="translate(290.5625,296.0625)"/>
<path d="M0 0 C2.69500656 2.41859563 3.80636871 4.00763965 4.5 7.5625 C3.80243877 10.96311101 2.88228706 12.05445623 0 14 C-2.96206805 14.59002965 -4.90225794 14.39336407 -8 14 C-10.6923481 11.81246717 -10.93936827 10.41576045 -11.4375 7 C-11 4 -11 4 -9.4375 1.625 C-6.04129157 -0.63913895 -3.99900698 -0.64269755 0 0 Z " fill="#070501" transform="translate(266,284)"/>
<path d="M0 0 C2.375 1.5625 2.375 1.5625 4 4 C4.56783945 7.97487617 4.62340519 10.06489221 2.375 13.4375 C-0.71685231 15.47161336 -2.36367425 15.60605429 -6 15 C-8.375 13.4375 -8.375 13.4375 -10 11 C-10.56783945 7.02512383 -10.62340519 4.93510779 -8.375 1.5625 C-5.28314769 -0.47161336 -3.63632575 -0.60605429 0 0 Z " fill="#070501" transform="translate(308,256)"/>
</svg>
