<?xml version="1.0" encoding="UTF-8"?>
<svg version="1.1" xmlns="http://www.w3.org/2000/svg" width="512" height="512">
<path d="M0 0 C6.74801692 5.3473637 13.6917187 11.46050772 18 19 C18 19.66 18 20.32 18 21 C18.66 21 19.32 21 20 21 C20.24363281 20.27683594 20.48726563 19.55367187 20.73828125 18.80859375 C25.67719922 7.81453178 38.12871738 -1.43249709 49 -6 C52.13190866 -6.69951259 53.73354162 -6.56318248 57 -6 C58.678298 -4.68133728 60.34614767 -3.34919532 62 -2 C64.72687532 -2.21546654 64.72687532 -2.21546654 68 -3 C70.04230717 -2.93420755 72.08404253 -2.84919599 74.125 -2.75 C77.23237585 -2.63829991 77.23237585 -2.63829991 80 -3 C82.20142332 -5.4390706 82.20142332 -5.4390706 84 -8 C93.15328625 -9.98321202 101.33771323 -4.55134492 109 0 C120.64491696 7.5618465 129.47807837 18.49103298 133 32 C134.57974609 32.03867188 134.57974609 32.03867188 136.19140625 32.078125 C161.55137165 32.96638999 182.68881904 42.31821333 200.12109375 60.73828125 C204.08941386 65.11538847 207.18155611 69.81554663 210 75 C210.53109375 75.93199219 211.0621875 76.86398438 211.609375 77.82421875 C221.25792551 95.71224928 222.27244028 115.11614754 220 135 C220.89460938 135.4846875 221.78921875 135.969375 222.7109375 136.46875 C240.32287759 146.16350808 253.91025529 158.59825406 264 176 C264.73863281 177.24523437 264.73863281 177.24523437 265.4921875 178.515625 C275.95170297 197.61560978 278.84356345 224.05358416 273.3125 245 C265.31211695 271.35915678 249.82774985 292.07179958 226 306 C224.01322051 307.02601523 222.01759931 308.03600155 220 309 C220.0721875 309.63164062 220.144375 310.26328125 220.21875 310.9140625 C222.69592704 334.79129678 219.23128526 357.12219042 205 377 C202.15381811 380.49771751 199.13801204 383.76428429 196 387 C195.19175781 387.91845703 195.19175781 387.91845703 194.3671875 388.85546875 C184.9199776 399.22841027 172.09860827 404.82322036 159 409 C157.80503906 409.38285156 157.80503906 409.38285156 156.5859375 409.7734375 C148.99613236 411.79543192 140.80727796 411.65938397 133 412 C132.86464844 412.53367187 132.72929687 413.06734375 132.58984375 413.6171875 C130.63129253 420.39588574 127.28463459 425.44755776 123 431 C122.53722656 431.6290625 122.07445312 432.258125 121.59765625 432.90625 C112.4488618 444.5742777 98.20938687 451.0306755 84 454 C79.67487942 454.40388152 75.38159758 454.42098892 71.03979492 454.40405273 C69.16917137 454.41434761 69.16917137 454.41434761 67.26075745 454.42485046 C63.87195942 454.43991306 60.48371633 454.44164073 57.0949266 454.43590808 C54.24997492 454.43279421 51.4050718 454.43893311 48.56012708 454.44494683 C41.83911503 454.45894418 35.11823021 454.45747183 28.3972168 454.44604492 C21.50057886 454.43457735 14.60433044 454.44862716 7.70774382 454.4754414 C1.75318482 454.49771242 -4.20125296 454.50421005 -10.15585059 454.49836498 C-13.69750442 454.49502018 -17.23890895 454.49724253 -20.78052711 454.51461601 C-24.73770605 454.53318444 -28.69441892 454.51878155 -32.65161133 454.50170898 C-33.79959198 454.51137695 -34.94757263 454.52104492 -36.13034058 454.53100586 C-53.91779619 454.37157631 -69.28403276 447.27216262 -82 435 C-95 419.85178876 -95 419.85178876 -95 412 C-96.05316406 411.97421875 -97.10632813 411.9484375 -98.19140625 411.921875 C-123.55137165 411.03361001 -144.68881904 401.68178667 -162.12109375 383.26171875 C-166.08941386 378.88461153 -169.18155611 374.18445337 -172 369 C-172.79664063 367.60201172 -172.79664063 367.60201172 -173.609375 366.17578125 C-183.25792551 348.28775072 -184.27244028 328.88385246 -182 309 C-182.65484375 308.67128906 -183.3096875 308.34257812 -183.984375 308.00390625 C-208.54640349 295.20251005 -225.35260941 275.47133181 -234.10546875 249.25 C-239.24933777 230.56135796 -239.17870427 209.43448939 -233 191 C-232.649375 189.94425781 -232.29875 188.88851562 -231.9375 187.80078125 C-227.21495759 175.25652797 -219.28276092 164.54013876 -210 155 C-209.41605469 154.36578125 -208.83210938 153.7315625 -208.23046875 153.078125 C-200.77941687 145.19082886 -191.55386887 139.95856692 -182 135 C-182.0721875 134.36835938 -182.144375 133.73671875 -182.21875 133.0859375 C-184.69592704 109.20870322 -181.23128526 86.87780958 -167 67 C-164.15381811 63.50228249 -161.13801204 60.23571571 -158 57 C-157.46117187 56.38769531 -156.92234375 55.77539062 -156.3671875 55.14453125 C-146.9199776 44.77158973 -134.09860827 39.17677964 -121 35 C-120.20335938 34.74476562 -119.40671875 34.48953125 -118.5859375 34.2265625 C-110.99613236 32.20456808 -102.80727796 32.34061603 -95 32 C-94.79697266 31.19949219 -94.79697266 31.19949219 -94.58984375 30.3828125 C-92.63129253 23.60411426 -89.28463459 18.55244224 -85 13 C-84.30583984 12.05640625 -84.30583984 12.05640625 -83.59765625 11.09375 C-76.82732744 2.45912774 -67.12200476 -3.1550946 -57 -7 C-56.19691406 -7.3196875 -55.39382812 -7.639375 -54.56640625 -7.96875 C-37.09277205 -13.85690131 -14.96107343 -10.51611683 0 0 Z " fill="#030303" transform="translate(237,34)"/>
<path d="M0 0 C0.40729228 2.32156597 0.74438677 4.6568787 1 7 C2.258125 7.37125 3.51625 7.7425 4.8125 8.125 C20.19655689 13.26919568 29.24055102 22.39415364 37.2421875 36.1328125 C41.68065569 45.89744251 39.31424648 58.44296832 35.875 68.1875 C34.88181138 71.379892 34.56682126 73.67896301 35 77 C36.97886061 79.78506308 38.15932233 80.81084752 41.5 81.5625 C44.12565102 81.18147022 44.12565102 81.18147022 46.0625 79.1875 C51.61561741 70.05172619 52.92923307 60.43997753 54 50 C70.08603941 48.62903073 86.40147488 54.91366601 98.78125 65.0703125 C111.53009193 76.15821376 121.03550512 90.08398633 124 107 C124.24638429 110.58874542 124.23554189 114.15444381 124.1875 117.75 C124.1865332 119.14798828 124.1865332 119.14798828 124.18554688 120.57421875 C124.15978599 124.56429338 124.10639019 128.14391289 123 132 C119.33538185 131.56024582 115.69202719 131.12023284 112.0546875 130.48828125 C104.81240648 129.28123441 97.83520444 128.81317 90.5 128.8125 C89.65147461 128.8117749 88.80294922 128.8110498 87.92871094 128.81030273 C84.34444319 128.84196211 81.18730326 128.95845033 77.671875 129.73828125 C75 130 75 130 72.796875 128.5234375 C72.12140625 127.81445312 71.4459375 127.10546875 70.75 126.375 C64.98183054 120.81109961 57.87680932 116.79018394 50 115 C46.79320551 115.06129214 46.79320551 115.06129214 44 116 C41.6848563 119.47271555 41.74546237 120.92739797 42 125 C42.33 125.99 42.66 126.98 43 128 C45.0320461 128.81264756 45.0320461 128.81264756 47.5 129.3125 C56.54361435 131.81529769 63.73087451 137.22632915 69 145 C73.13540815 153.34623408 74.14436463 160.53722387 74.42578125 169.78515625 C74.70378811 173.04553974 74.70378811 173.04553974 76.84765625 174.9453125 C79.8954243 176.43877416 81.7931014 175.90629743 85 175 C87.39843528 172.60156472 87.25596555 172.0516635 87.265625 168.78125 C87.26949219 167.93530273 87.27335938 167.08935547 87.27734375 166.21777344 C87.26832031 165.3209082 87.25929688 164.42404297 87.25 163.5 C87.24613281 162.59540039 87.24226562 161.69080078 87.23828125 160.75878906 C87.15856708 154.6097269 86.59001245 148.9625467 85 143 C111.03584686 142.04227811 133.89550096 148.22793265 153.921875 165.5234375 C169.5365668 180.23230464 178.58839205 199.66317586 179.45556641 221.14794922 C179.81954536 241.95074656 173.00830136 261.46846587 159 277 C158.40832031 277.68449219 157.81664062 278.36898438 157.20703125 279.07421875 C143.36941519 294.09201528 120.62029566 303.94362736 100.35302734 305.15869141 C94.89352263 305.31865892 89.45638826 305.21777159 84 305 C84.20496094 304.27554687 84.40992188 303.55109375 84.62109375 302.8046875 C86.99405201 294.28928703 89.18969563 285.90919792 88 277 C86.12083474 273.61699519 86.12083474 273.61699519 83 272 C79.24529849 272.0736216 77.67158839 272.32841161 75 275 C74.7960915 276.95169561 74.6861457 278.91363424 74.625 280.875 C73.84014288 292.92721275 69.74323333 303.66449925 61 312.1875 C56.57386086 315.78248631 51.17053382 317.64480149 45.9140625 319.703125 C42.89725775 320.67604848 42.89725775 320.67604848 42 323 C41.74139865 327.05142119 41.69558446 328.54337669 44 332 C50.62985599 333.58602158 57.21607592 331.11372438 63 328 C66.74588347 325.45256766 70.58429222 322.82477915 73.37890625 319.22265625 C75 318 75 318 77.50390625 318.296875 C78.65761719 318.52890625 79.81132812 318.7609375 81 319 C92.88483776 319.70665295 104.55348612 319.48974745 116.13671875 316.65625 C119 316 119 316 123 316 C126.97041914 332.19931009 123.34269811 349.78495652 115.28125 364.0390625 C103.83088433 382.20009329 88.00671101 392.62811265 67.42578125 397.625 C64.64509653 398.0548643 61.99989618 398.09638429 59.1875 398.0625 C58.21167969 398.05347656 57.23585938 398.04445313 56.23046875 398.03515625 C55.12638672 398.01775391 55.12638672 398.01775391 54 398 C53.82984375 396.73285156 53.6596875 395.46570313 53.484375 394.16015625 C52.25891963 385.5029624 51.12309267 377.81965852 47 370 C47 369.34 47 368.68 47 368 C41.65154398 366.88548885 41.65154398 366.88548885 36.5 368 C34.75925022 370.3209997 34.44991803 371.9337738 34.59375 374.81640625 C35.09056642 377.48679449 36.02613221 379.83946566 37 382.375 C40.27207665 391.72211501 40.90806138 402.61488169 37 411.875 C36.05600726 413.61490818 35.05327377 415.32398773 34 417 C33.41863281 417.94617188 32.83726562 418.89234375 32.23828125 419.8671875 C25.52775281 429.91256272 16.56076283 435.7280945 5.2421875 439.6015625 C1.82947327 440.20800301 -1.53571383 440.02235023 -5 440 C-5.18685497 413.00120252 -5.32794249 386.0025019 -5.41449738 359.00318813 C-5.45575404 346.46699348 -5.51200456 333.93120051 -5.60351562 321.39526367 C-5.68323583 310.46933112 -5.73486172 299.54368945 -5.75270796 288.61747414 C-5.76314065 282.8315706 -5.78766969 277.04649924 -5.84584045 271.26086235 C-5.9001544 265.81468306 -5.91689002 260.36967842 -5.90486145 254.92325401 C-5.90706181 252.92494573 -5.92296921 250.92659806 -5.9536438 248.92852402 C-6.17441662 233.80568697 -6.17441662 233.80568697 -3.24349976 229.29934883 C-1.23538316 227.51633087 0.63990934 226.25864988 3 225 C18.96158666 210.83185004 30.84783023 188.68896608 32.17480469 167.16455078 C32.60443369 154.07788111 32.74616591 140.8028531 28.4375 128.3125 C28.04377197 127.15911133 28.04377197 127.15911133 27.64208984 125.98242188 C21.39361079 108.38658881 10.1888979 90.95988155 -5.5 80.3125 C-10.42505126 78.46560578 -14.80586623 78.23223965 -20 79 C-25.077739 81.35752168 -26.92626745 83.8878056 -29 89 C-29.31575472 92.62699589 -29.31575472 92.62699589 -29.06738281 96.54321289 C-29.01196358 98.05752534 -28.95699152 99.57185421 -28.90240479 101.0861969 C-28.86840828 101.88180086 -28.83441177 102.67740482 -28.79938507 103.497118 C-28.63396844 107.75116854 -28.57323296 112.00726692 -28.49609375 116.26367188 C-28.39467098 121.6635679 -28.2624939 127.05609402 -28.00244141 132.45092773 C-26.64044964 161.73765638 -26.64044964 161.73765638 -32.32739258 168.95281982 C-37.80946205 173.48435231 -46.55341706 179 -54 179 C-54.0936391 161.58820218 -54.16407475 144.17648348 -54.20724869 126.76449108 C-54.22783219 118.67892706 -54.25587166 110.59351993 -54.30175781 102.50805664 C-54.34175521 95.4568441 -54.3674634 88.40574524 -54.37635398 81.35442239 C-54.38154704 77.6242984 -54.39366332 73.89449951 -54.42292023 70.16448021 C-54.45539491 65.98996223 -54.45595119 61.81600148 -54.45410156 57.64135742 C-54.47567322 55.80715492 -54.47567322 55.80715492 -54.49768066 53.93589783 C-54.43458809 40.72874984 -50.01079676 30.44223041 -40.96875 20.84375 C-36.79365343 16.91068802 -32.55846612 14.13774882 -27.5 11.4375 C-23.55372315 9.41891563 -23.55372315 9.41891563 -21.015625 6.0078125 C-20.65409176 3.8812363 -20.65409176 3.8812363 -21 1 C-14.74473275 -0.88838257 -6.13626374 -3.06813187 0 0 Z " fill="#FDDDCE" transform="translate(318,32)"/>
<path d="M0 0 C8.87268804 7.03602811 16.28835266 16.71894041 18.56640625 28.03515625 C18.65467938 29.889548 18.68839905 31.74684178 18.68666077 33.60333252 C18.68872276 35.30282547 18.68872276 35.30282547 18.69082642 37.03665161 C18.68723114 38.27526947 18.68363586 39.51388733 18.67993164 40.79003906 C18.68007767 42.09760162 18.68022369 43.40516418 18.68037415 44.75234985 C18.68066104 48.33465712 18.67478175 51.9169309 18.66780019 55.49923038 C18.66154868 59.24417514 18.66096143 62.98912066 18.65977478 66.73406982 C18.65666677 73.82422067 18.64846051 80.9143561 18.63842529 88.00450015 C18.62724771 96.07698858 18.62174955 104.14947775 18.61672986 112.22197199 C18.60627747 128.82637577 18.58868828 145.43076404 18.56640625 162.03515625 C9.39480359 160.21332818 0.13545796 158.24145493 -5.43359375 150.03515625 C-8.61010031 138.51209043 -7.38935402 125.8743582 -6.91033936 114.05187988 C-6.64371509 106.96546435 -6.55341436 99.87412264 -6.44685745 92.78386497 C-6.39550833 90.32031448 -6.30279451 87.8612121 -6.20199585 85.39924622 C-5.77435557 75.30779749 -5.77435557 75.30779749 -10.06045532 66.37443542 C-13.40713912 63.11027515 -16.35638723 62.15057123 -20.93359375 61.66015625 C-31.90163103 62.8353031 -40.40100896 73.46220221 -47.2734375 81.31640625 C-64.31910661 102.76990661 -69.13907114 127.34699104 -67.43359375 154.03515625 C-66.7341742 159.57478653 -65.22776098 164.74767277 -63.43359375 170.03515625 C-63.12010986 170.9772998 -63.12010986 170.9772998 -62.80029297 171.93847656 C-57.73974703 186.82065137 -48.67206602 202.94243601 -35.66109413 212.31151688 C-30.8298837 215.85947675 -30.8298837 215.85947675 -29.79049981 218.94303298 C-29.55238901 221.19408539 -29.5332523 223.35221079 -29.59181213 225.61520386 C-29.58583116 226.46562575 -29.57985019 227.31604763 -29.57368797 228.19223988 C-29.56217838 231.03530534 -29.60061541 233.87546388 -29.63891602 236.71826172 C-29.64089099 238.75852897 -29.63978132 240.79880119 -29.63581848 242.83906555 C-29.6338098 248.37409381 -29.67496808 253.9080605 -29.72383618 259.44284201 C-29.76759147 265.22837029 -29.77170702 271.01392285 -29.78001404 276.79959106 C-29.80177197 287.75378469 -29.85921713 298.70748937 -29.92946047 309.66146767 C-30.0076987 322.13288443 -30.04618921 334.60432452 -30.08132851 347.07592559 C-30.15449916 372.72927357 -30.2776262 398.38218751 -30.43359375 424.03515625 C-31.87625624 424.0531472 -33.31898351 424.06599381 -34.76171875 424.07666016 C-35.56512695 424.08436432 -36.36853516 424.09206848 -37.19628906 424.1000061 C-46.08981298 423.84222104 -54.84620934 417.2964148 -61.18359375 411.53515625 C-61.92609375 410.71015625 -62.66859375 409.88515625 -63.43359375 409.03515625 C-64.27921875 408.10703125 -65.12484375 407.17890625 -65.99609375 406.22265625 C-68.78975989 402.81403215 -70.66134954 399.05172718 -72.43359375 395.03515625 C-72.79324219 394.29523438 -73.15289062 393.5553125 -73.5234375 392.79296875 C-74.7153993 389.18127335 -74.81531718 385.7369353 -74.80859375 381.97265625 C-74.80988281 381.22258301 -74.81117188 380.47250977 -74.8125 379.69970703 C-74.70271558 373.85992452 -73.43822415 369.02578326 -71.33984375 363.5625 C-70.08136287 360.0528572 -69.80798982 357.71057932 -70.43359375 354.03515625 C-72.56012736 351.59358063 -73.78593836 351.09834214 -76.99609375 350.78515625 C-79.57046522 350.95978872 -79.57046522 350.95978872 -82.43359375 352.03515625 C-83.53562262 354.66694353 -83.53562262 354.66694353 -84.43359375 358.03515625 C-84.67078125 358.65261719 -84.90796875 359.27007812 -85.15234375 359.90625 C-87.85648789 367.05871124 -88.58843626 374.48839703 -89.43359375 382.03515625 C-107.18269049 382.99552822 -123.21148791 376.86546148 -136.43359375 365.03515625 C-137.18125 364.3803125 -137.92890625 363.72546875 -138.69921875 363.05078125 C-150.12267582 352.4044301 -157.8802599 337.64939758 -159.43359375 322.03515625 C-159.54134558 318.38784502 -159.52851344 314.74611823 -159.49609375 311.09765625 C-159.49158203 310.12763672 -159.48707031 309.15761719 -159.48242188 308.15820312 C-159.47072525 305.78378865 -159.45433461 303.40950604 -159.43359375 301.03515625 C-155.33833041 299.81868093 -152.61152299 300.50950658 -148.43359375 301.47265625 C-141.91926718 302.84184648 -135.64923903 303.31568098 -128.99609375 303.28515625 C-128.18076172 303.28185303 -127.36542969 303.2785498 -126.52539062 303.27514648 C-122.47071826 303.21287477 -118.61278781 302.92416113 -114.60546875 302.296875 C-110.76511889 301.83816305 -110.76511889 301.83816305 -108.0078125 303.4765625 C-107.07388672 304.52650391 -107.07388672 304.52650391 -106.12109375 305.59765625 C-99.93548152 311.72938684 -92.71890867 316.30193151 -83.80859375 316.59765625 C-81.44698725 316.63104178 -81.44698725 316.63104178 -79.43359375 316.03515625 C-77.11845005 312.5624407 -77.17905612 311.10775828 -77.43359375 307.03515625 C-77.76359375 306.04515625 -78.09359375 305.05515625 -78.43359375 304.03515625 C-80.46563985 303.22250869 -80.46563985 303.22250869 -82.93359375 302.72265625 C-92.82941078 299.98401359 -100.44590937 293.73945062 -105.68359375 284.93359375 C-108.63644802 278.61535409 -109.16966554 272.07398764 -109.57543945 265.19189453 C-109.88127584 260.67436468 -109.88127584 260.67436468 -112.3046875 256.99609375 C-115.40436253 255.59697438 -117.23382541 256.01395359 -120.43359375 257.03515625 C-124.15365023 260.92191338 -123.91310589 264.28834379 -123.8046875 269.44140625 C-123.11268159 276.14293718 -121.27164709 282.56914716 -119.43359375 289.03515625 C-132.17699004 289.50519956 -143.26294133 288.90532187 -155.43359375 285.03515625 C-156.6246875 284.68453125 -157.81578125 284.33390625 -159.04296875 283.97265625 C-172.48492671 279.6712297 -183.49115858 271.95967712 -193.43359375 262.03515625 C-194.05621094 261.42414063 -194.67882812 260.813125 -195.3203125 260.18359375 C-210.21677369 244.45025271 -215.11680072 224.01903529 -214.6796875 202.9765625 C-213.88744253 182.35848565 -204.11708709 163.56549434 -189.28515625 149.4453125 C-168.71834849 132.06213388 -145.90336143 126.04046769 -119.43359375 127.03515625 C-119.63855469 127.69902344 -119.84351562 128.36289063 -120.0546875 129.046875 C-120.32410156 129.92988281 -120.59351562 130.81289062 -120.87109375 131.72265625 C-121.13792969 132.59277344 -121.40476562 133.46289062 -121.6796875 134.359375 C-123.60868805 141.20582772 -124.2318742 147.9413459 -123.43359375 155.03515625 C-121.5940003 158.54885573 -121.5940003 158.54885573 -118.43359375 160.03515625 C-114.67889224 159.96153465 -113.10518214 159.70674464 -110.43359375 157.03515625 C-110.2292972 154.91630918 -110.11965637 152.78795355 -110.05859375 150.66015625 C-109.41474124 140.00930796 -106.78090731 130.95175319 -99.43359375 123.03515625 C-98.93214844 122.49246094 -98.43070312 121.94976562 -97.9140625 121.390625 C-93.11745592 116.78074763 -85.22395116 112.03515625 -78.43359375 112.03515625 C-77.15237792 106.04839063 -77.15237792 106.04839063 -78.87109375 100.41015625 C-81.81031307 98.83301418 -83.76199067 98.68979887 -87.03125 99.3046875 C-95.52680862 101.88788988 -102.24698106 106.14823333 -108.30078125 112.59375 C-110.43359375 114.03515625 -110.43359375 114.03515625 -113.01171875 113.7734375 C-114.1409375 113.52980469 -115.27015625 113.28617187 -116.43359375 113.03515625 C-128.62351084 112.29284563 -140.53015928 112.70824562 -152.44921875 115.37890625 C-155.43359375 116.03515625 -155.43359375 116.03515625 -158.43359375 116.03515625 C-162.90335496 100.08140796 -158.9071916 82.8290875 -151.18359375 68.66015625 C-140.82127164 52.09392763 -125.40811733 39.97809937 -106.43359375 35.03515625 C-102.41552733 34.23049112 -98.65309188 33.92272335 -94.55859375 33.97265625 C-93.59179688 33.98167969 -92.625 33.99070313 -91.62890625 34 C-90.90445313 34.01160156 -90.18 34.02320313 -89.43359375 34.03515625 C-89.27503906 35.29070312 -89.11648437 36.54625 -88.953125 37.83984375 C-87.18550847 52.65702184 -87.18550847 52.65702184 -79.43359375 65.03515625 C-75.90464427 64.94771934 -75.90464427 64.94771934 -72.43359375 64.03515625 C-69.92105346 60.26634582 -70.37727517 58.77150297 -70.94140625 54.46484375 C-71.40996816 52.15178418 -72.10617522 50.21333779 -72.99609375 48.03515625 C-75.91487332 39.81344549 -75.88709853 28.86433618 -72.93359375 20.66015625 C-66.72114624 7.93221501 -56.77111152 -1.8659939 -43.43359375 -6.96484375 C-28.46233506 -11.96484185 -12.83532771 -8.79976616 0 0 Z " fill="#FEDDCE" transform="translate(229.43359375,47.96484375)"/>
<path d="M0 0 C0 65.67 0 131.34 0 199 C-5.61 199 -11.22 199 -17 199 C-17.0093457 197.44571289 -17.01869141 195.89142578 -17.02832031 194.29003906 C-17.06817025 188.52737693 -17.133916 182.76525146 -17.20751953 177.00292969 C-17.23575799 174.50820811 -17.25695812 172.01339658 -17.27099609 169.51855469 C-17.29238499 165.93377534 -17.33901708 162.35008082 -17.390625 158.765625 C-17.39185364 157.64883362 -17.39308228 156.53204224 -17.39434814 155.38140869 C-17.41406677 154.34063171 -17.4337854 153.29985474 -17.45410156 152.22753906 C-17.46298401 151.31264709 -17.47186646 150.39775513 -17.48101807 149.45513916 C-18.16289277 146.22940589 -19.4402059 145.01792455 -22 143 C-25.13545056 142.55207849 -27.03843353 142.302303 -29.65657043 144.20198059 C-31.46399164 146.62099718 -31.39668171 148.20059969 -31.43237305 151.20581055 C-31.45216721 152.26668381 -31.47196136 153.32755707 -31.49235535 154.420578 C-31.50194023 156.13631767 -31.50194023 156.13631767 -31.51171875 157.88671875 C-31.52966995 159.05886429 -31.54762115 160.23100983 -31.56611633 161.43867493 C-31.62036654 165.18824651 -31.65416302 168.93768974 -31.6875 172.6875 C-31.72065999 175.22723146 -31.7551484 177.76694595 -31.79101562 180.30664062 C-31.87610185 186.53766801 -31.9428433 192.76865634 -32 199 C-38.6 199 -45.2 199 -52 199 C-52 158.74 -52 118.48 -52 77 C-45.4 77 -38.8 77 -32 77 C-31.97421875 79.92488281 -31.9484375 82.84976563 -31.921875 85.86328125 C-31.8834729 88.69305081 -31.8383068 91.52263702 -31.79248047 94.35229492 C-31.76423851 96.32030498 -31.74304006 98.28842915 -31.72900391 100.2565918 C-31.70761879 103.0844173 -31.6609926 105.91086615 -31.609375 108.73828125 C-31.60814636 109.61962234 -31.60691772 110.50096344 -31.60565186 111.40901184 C-31.6072644 116.2021731 -31.6072644 116.2021731 -29.09570312 120.07421875 C-26.64617506 121.15630291 -25.36556195 121.16701969 -22.75 120.6875 C-21.5125 120.460625 -20.275 120.23375 -19 120 C-18.16197416 117.07048531 -17.86506306 114.44581078 -17.83886719 111.40258789 C-17.82925964 110.49807388 -17.8196521 109.59355988 -17.80975342 108.66163635 C-17.80550354 107.69177292 -17.80125366 106.72190948 -17.796875 105.72265625 C-17.79117493 104.71915634 -17.78547485 103.71565643 -17.77960205 102.68174744 C-17.77016435 100.56103568 -17.76362296 98.44030933 -17.75976562 96.31958008 C-17.75004656 93.07802811 -17.71900578 89.83710673 -17.6875 86.59570312 C-17.6809709 84.53385793 -17.67572006 82.4720082 -17.671875 80.41015625 C-17.6533548 78.95839745 -17.6533548 78.95839745 -17.63446045 77.47731018 C-17.62951648 70.71942922 -17.62951648 70.71942922 -21 65 C-24.50925176 62.33155385 -28.63668857 62.66004481 -32.87109375 62.62890625 C-34.01010887 62.61536354 -34.01010887 62.61536354 -35.1721344 62.60154724 C-36.77495393 62.58706867 -38.37783224 62.57816395 -39.98071289 62.57446289 C-42.42630855 62.56255449 -44.86938876 62.51334238 -47.31445312 62.46289062 C-48.87498774 62.45342677 -50.43553778 62.44619155 -51.99609375 62.44140625 C-52.72332138 62.42187393 -53.45054901 62.40234161 -54.19981384 62.38221741 C-58.17262451 62.41734155 -59.82542921 62.85679479 -62.93774414 65.40991211 C-65.7851601 68.98612093 -66.12767703 70.6439063 -66.15821838 75.1378479 C-66.17290161 76.7701107 -66.17290161 76.7701107 -66.18788147 78.43534851 C-66.19363693 79.63440323 -66.1993924 80.83345795 -66.20532227 82.06884766 C-66.22017166 83.95660164 -66.22017166 83.95660164 -66.23532104 85.88249207 C-66.26239767 89.33885454 -66.28339226 92.79523072 -66.30332303 96.2516408 C-66.32516561 99.86182696 -66.35256273 103.47197078 -66.37937927 107.0821228 C-66.42932958 113.92085634 -66.47425971 120.75961334 -66.51740164 127.59839284 C-66.56675406 135.38308322 -66.62167957 143.16773111 -66.67708123 150.95238042 C-66.79093716 166.96821473 -66.89757062 182.98408849 -67 199 C-72.61 199 -78.22 199 -84 199 C-84 133.66 -84 68.32 -84 1 C-78.92576387 2.01484723 -74.13852717 3.49425033 -69.234375 5.09570312 C-60.32900218 7.947135 -52.19419555 9.367222 -42.8125 9.3125 C-41.28967407 9.30404053 -41.28967407 9.30404053 -39.73608398 9.29541016 C-26.92922475 9.08929227 -15.94465251 5.89426703 -4.10546875 1.20703125 C-1 0 -1 0 0 0 Z " fill="#B3DAFC" transform="translate(298,274)"/>
<path d="M0 0 C0.00546844 1.44579941 0.00546844 1.44579941 0.01104736 2.92080688 C0.04802248 12.01371579 0.10582258 21.10628682 0.18390274 30.19893837 C0.22337647 34.87336232 0.25556543 39.54759791 0.27099609 44.22216797 C0.28616341 48.73520815 0.32061012 53.24773052 0.36830902 57.76054001 C0.38312207 59.48042673 0.39104097 61.20038738 0.39188385 62.92033768 C0.39425556 65.33368082 0.42134944 67.74559529 0.45410156 70.15869141 C0.4490712 70.86647736 0.44404083 71.57426331 0.43885803 72.30349731 C0.54346486 77.30009181 1.91458186 80.12186451 5 84 C11.99828802 90.26995941 21.67151966 94.349238 29.88818359 98.83105469 C31.72967731 99.85036936 33.54866552 100.91013328 35.36328125 101.9765625 C36.29527344 102.52054687 37.22726563 103.06453125 38.1875 103.625 C38.96480469 104.09164062 39.74210937 104.55828125 40.54296875 105.0390625 C45.15757008 106.84381914 48.83132738 106.44310497 53.41015625 104.70703125 C54.63624763 104.09247062 55.85335302 103.45976224 57.0625 102.8125 C57.72862305 102.46662842 58.39474609 102.12075684 59.08105469 101.7644043 C65.38778146 98.43331627 71.57967449 94.88837448 77.75 91.3125 C78.70269775 90.76634033 79.65539551 90.22018066 80.63696289 89.6574707 C86.01073373 86.48602546 90.13446219 83.73107561 93 78 C93.12203618 75.55977066 93.18560857 73.14613824 93.20532227 70.70458984 C93.21522186 69.95327286 93.22512146 69.20195587 93.23532104 68.4278717 C93.26696523 65.93892594 93.29170495 63.44996107 93.31640625 60.9609375 C93.33697326 59.23743182 93.35796967 57.51393121 93.37937927 55.79043579 C93.43462607 51.2497976 93.48402383 46.7091137 93.53222656 42.168396 C93.58242256 37.53670168 93.63811854 32.90507391 93.69335938 28.2734375 C93.80097284 19.18234849 93.90241072 10.09120175 94 1 C106.65140234 5.69607377 115.30922522 19.99694954 120.8203125 31.76953125 C128.96456418 50.26749358 129.91021286 73.23105333 122.81396484 92.22558594 C115.65171213 110.30079752 103.23551754 125.71382781 86 135 C85.02804687 135.53238281 84.05609375 136.06476563 83.0546875 136.61328125 C64.6265236 145.91973495 42.48666801 148.1581665 22.69140625 141.96484375 C0.39872954 133.79873956 -16.19429309 119.56495648 -26.2734375 97.94140625 C-34.12985589 80.37724661 -36.21391411 59.14645164 -30.390625 40.58984375 C-26.3437038 30.14287582 -13.26424401 0 0 0 Z " fill="#D8EAFC" transform="translate(209,124)"/>
<path d="M0 0 C-0.66 2.64 -1.32 5.28 -2 8 C-2.99 7.01 -2.99 7.01 -4 6 C-18.28738572 15.12549152 -28.83742231 25.0022541 -37 40 C-37.40734375 40.71800781 -37.8146875 41.43601563 -38.234375 42.17578125 C-49.17423172 62.49866893 -49.46354603 86.31601565 -43 108 C-36.22728989 128.20135945 -22.52345834 145.36616281 -4 156 C-3.34 155.34 -2.68 154.68 -2 154 C-1.34 156.64 -0.68 159.28 0 162 C-12.74339629 162.47004331 -23.82934758 161.87016562 -36 158 C-37.19109375 157.649375 -38.3821875 157.29875 -39.609375 156.9375 C-53.05133296 152.63607345 -64.05756483 144.92452087 -74 135 C-74.62261719 134.38898438 -75.24523437 133.77796875 -75.88671875 133.1484375 C-90.78317994 117.41509646 -95.68320697 96.98387904 -95.24609375 75.94140625 C-94.45384878 55.3233294 -84.68349334 36.53033809 -69.8515625 22.41015625 C-49.28475474 5.02697763 -26.46976768 -0.99468856 0 0 Z " fill="#FDCCBC" transform="translate(110,175)"/>
<path d="M0 0 C0.40729228 2.32156597 0.74438677 4.6568787 1 7 C3.97 7.99 6.94 8.98 10 10 C8.88080862 13.35757415 8.13691878 13.88695203 5.4375 16 C-3.8514321 23.94053873 -10.54593953 34.96397243 -13 47 C-13.14819068 49.31536932 -13.24761977 51.63403811 -13.31640625 53.953125 C-13.33718735 54.61334656 -13.35796844 55.27356812 -13.37937927 55.95379639 C-13.44450147 58.05243015 -13.50358502 60.15118372 -13.5625 62.25 C-13.60572079 63.67709547 -13.6493362 65.10417905 -13.69335938 66.53125 C-13.80014411 70.02070722 -13.90151566 73.51029753 -14 77 C-12.68 77.33 -11.36 77.66 -10 78 C-10.65226562 78.02578125 -11.30453125 78.0515625 -11.9765625 78.078125 C-17.69246061 78.44906824 -21.59064329 79.02082443 -26 83 C-28.91557819 87.70642193 -29.31037702 91.05793147 -29.06738281 96.54321289 C-29.01196358 98.05752534 -28.95699152 99.57185421 -28.90240479 101.0861969 C-28.86840828 101.88180086 -28.83441177 102.67740482 -28.79938507 103.497118 C-28.63396844 107.75116854 -28.57323296 112.00726692 -28.49609375 116.26367188 C-28.39467098 121.6635679 -28.2624939 127.05609402 -28.00244141 132.45092773 C-26.64044964 161.73765638 -26.64044964 161.73765638 -32.32739258 168.95281982 C-37.80946205 173.48435231 -46.55341706 179 -54 179 C-54.0936391 161.58820218 -54.16407475 144.17648348 -54.20724869 126.76449108 C-54.22783219 118.67892706 -54.25587166 110.59351993 -54.30175781 102.50805664 C-54.34175521 95.4568441 -54.3674634 88.40574524 -54.37635398 81.35442239 C-54.38154704 77.6242984 -54.39366332 73.89449951 -54.42292023 70.16448021 C-54.45539491 65.98996223 -54.45595119 61.81600148 -54.45410156 57.64135742 C-54.47567322 55.80715492 -54.47567322 55.80715492 -54.49768066 53.93589783 C-54.43458809 40.72874984 -50.01079676 30.44223041 -40.96875 20.84375 C-36.79365343 16.91068802 -32.55846612 14.13774882 -27.5 11.4375 C-23.55372315 9.41891563 -23.55372315 9.41891563 -21.015625 6.0078125 C-20.65409176 3.8812363 -20.65409176 3.8812363 -21 1 C-14.74473275 -0.88838257 -6.13626374 -3.06813187 0 0 Z " fill="#FDCDBD" transform="translate(318,32)"/>
<path d="M0 0 C5.07423613 1.01484723 9.86147283 2.49425033 14.765625 4.09570312 C19.84503272 5.7220904 24.73766264 6.8305917 30 8 C29.67 25.49 29.34 42.98 29 61 C27.02 61.66 25.04 62.32 23 63 C20.78700114 64.91394496 19.30537239 66.38925521 18 69 C17.89510182 70.71021381 17.853426 72.42445965 17.84178162 74.1378479 C17.82709839 75.7701107 17.82709839 75.7701107 17.81211853 77.43534851 C17.80636307 78.63440323 17.8006076 79.83345795 17.79467773 81.06884766 C17.77982834 82.95660164 17.77982834 82.95660164 17.76467896 84.88249207 C17.73760233 88.33885454 17.71660774 91.79523072 17.69667697 95.2516408 C17.67483439 98.86182696 17.64743727 102.47197078 17.62062073 106.0821228 C17.57067042 112.92085634 17.52574029 119.75961334 17.48259836 126.59839284 C17.43324594 134.38308322 17.37832043 142.16773111 17.32291877 149.95238042 C17.20906284 165.96821473 17.10242938 181.98408849 17 198 C11.39 198 5.78 198 0 198 C0 132.66 0 67.32 0 0 Z " fill="#89C7FC" transform="translate(214,275)"/>
<path d="M0 0 C0.00546844 1.44579941 0.00546844 1.44579941 0.01104736 2.92080688 C0.04802248 12.01371579 0.10582258 21.10628682 0.18390274 30.19893837 C0.22337647 34.87336232 0.25556543 39.54759791 0.27099609 44.22216797 C0.28616341 48.73520815 0.32061012 53.24773052 0.36830902 57.76054001 C0.38312207 59.48042673 0.39104097 61.20038738 0.39188385 62.92033768 C0.39425556 65.33368082 0.42134944 67.74559529 0.45410156 70.15869141 C0.4490712 70.86647736 0.44404083 71.57426331 0.43885803 72.30349731 C0.5435029 77.3019088 1.89419696 80.13219525 5 84 C7.22637577 85.89317852 7.22637577 85.89317852 9.625 87.3125 C10.40101563 87.80363281 11.17703125 88.29476562 11.9765625 88.80078125 C13.9699697 90.01469312 13.9699697 90.01469312 16 91 C16.2126828 93.30608917 16.31581307 95.62238053 16.375 97.9375 C16.93347766 110.60976119 19.54582747 122.8641592 24.8515625 134.421875 C26.10248573 137.23007002 27.06698311 140.07255252 28 143 C8.54377868 139.11684564 -9.01160845 126.39934193 -20 110 C-31.74340967 90.06987642 -37.0321748 67.00919443 -31.5 44.125 C-27.99458393 32.95457203 -14.11649501 0 0 0 Z " fill="#B2D8FB" transform="translate(209,124)"/>
<path d="M0 0 C0.96679688 0.00902344 1.93359375 0.01804687 2.9296875 0.02734375 C3.65414062 0.03894531 4.37859375 0.05054687 5.125 0.0625 C7.15028391 12.3333378 7.15028391 12.3333378 4.87890625 16.1640625 C3.67618291 17.25160298 2.43468009 18.29730542 1.1640625 19.3046875 C-2.84369065 22.75964711 -5.23999028 27.53179983 -7.875 32.0625 C-8.34035156 32.83207031 -8.80570313 33.60164063 -9.28515625 34.39453125 C-16.91447759 48.08997966 -17.55852488 63.76092806 -17.875 79.0625 C-16.885 79.5575 -16.885 79.5575 -15.875 80.0625 C-16.64070313 79.90265625 -17.40640625 79.7428125 -18.1953125 79.578125 C-31.35025463 77.73475731 -44.96798302 78.51072026 -57.890625 81.40625 C-60.875 82.0625 -60.875 82.0625 -63.875 82.0625 C-68.34476121 66.10875171 -64.34859785 48.85643125 -56.625 34.6875 C-46.26267789 18.12127138 -30.84952358 6.00544312 -11.875 1.0625 C-7.85693358 0.25783487 -4.09449813 -0.0499329 0 0 Z " fill="#FDCCBC" transform="translate(134.875,81.9375)"/>
<path d="M0 0 C1.88334994 0.23170551 3.75783606 0.53677924 5.625 0.875 C7.74913257 1.25488265 9.87418783 1.62963177 12 2 C13.49853516 2.28037109 13.49853516 2.28037109 15.02734375 2.56640625 C20.99556782 3.21780534 26.93924436 3.10339005 32.9375 3.0625 C34.19369141 3.05798828 35.44988281 3.05347656 36.74414062 3.04882812 C39.82947663 3.03709681 42.91471316 3.020681 46 3 C46.01401855 3.82854492 46.01401855 3.82854492 46.02832031 4.67382812 C46.50597701 27.28291163 50.303477 46.71764271 66 64 C66.74378906 64.60070312 67.48757812 65.20140625 68.25390625 65.8203125 C70 68 70 68 70.171875 71.453125 C69.96304688 73.33257812 69.96304688 73.33257812 69.75 75.25 C69.62109375 76.51328125 69.4921875 77.7765625 69.359375 79.078125 C69.18148437 80.52445313 69.18148437 80.52445313 69 82 C51.25090326 82.96037197 35.22210584 76.83030523 22 65 C21.25234375 64.34515625 20.5046875 63.6903125 19.734375 63.015625 C7.80573029 51.89845272 -0.49516983 35.95834996 -1.09057617 19.49560547 C-1.13363417 16.70455131 -1.13650278 13.9163406 -1.125 11.125 C-1.12886719 10.16335938 -1.13273437 9.20171875 -1.13671875 8.2109375 C-1.13542969 7.29828125 -1.13414063 6.385625 -1.1328125 5.4453125 C-1.13168457 4.61531738 -1.13055664 3.78532227 -1.12939453 2.93017578 C-1 1 -1 1 0 0 Z " fill="#FDCCBC" transform="translate(71,348)"/>
<path d="M0 0 C6.6 0 13.2 0 20 0 C20.00257813 2.91328125 20.00515625 5.8265625 20.0078125 8.828125 C20.03063106 11.65133973 20.06364869 14.4742638 20.09765625 17.29736328 C20.11581845 19.2585565 20.12338434 21.21987775 20.12011719 23.18115234 C20.11726065 26.00198462 20.15256677 28.82016055 20.1953125 31.640625 C20.18621857 32.51680481 20.17712463 33.39298462 20.16775513 34.29571533 C20.22460617 36.67971373 20.32221432 38.71245978 21 41 C23.91187508 43.32443345 23.91187508 43.32443345 27 45 C27.77294922 47.29003906 27.77294922 47.29003906 27.8046875 49.765625 C27.83046875 50.65507812 27.85625 51.54453125 27.8828125 52.4609375 C27.88023437 53.38132812 27.87765625 54.30171875 27.875 55.25 C27.895625 56.18585938 27.91625 57.12171875 27.9375 58.0859375 C27.98455259 60.39151439 28.00444675 62.69404162 28 65 C27.030625 65.28875 26.06125 65.5775 25.0625 65.875 C21.89335797 66.64214682 21.89335797 66.64214682 21 69 C20.88097188 70.69463258 20.82285313 72.39371122 20.79467773 74.09228516 C20.77473251 75.15323395 20.75478729 76.21418274 20.73423767 77.30728149 C20.71752518 78.45626923 20.70081268 79.60525696 20.68359375 80.7890625 C20.66281265 81.96262299 20.64203156 83.13618347 20.62062073 84.3453064 C20.55508017 88.10514304 20.49621924 91.86505122 20.4375 95.625 C20.39431908 98.16927832 20.35070493 100.71354933 20.30664062 103.2578125 C20.19939414 109.50513447 20.09813939 115.7525286 20 122 C13.4 122 6.8 122 0 122 C0 81.74 0 41.48 0 0 Z " fill="#8E808E" transform="translate(246,351)"/>
<path d="M0 0 C0 0.66 0 1.32 0 2 C-0.845625 2.639375 -1.69125 3.27875 -2.5625 3.9375 C-9.88063291 9.8264446 -13.85454789 19.38192048 -17.8359375 27.6640625 C-19 30 -19 30 -20 31 C-21.44449362 31.16740137 -22.89588157 31.27609646 -24.34765625 31.359375 C-45.39752506 32.73755523 -45.39752506 32.73755523 -64 42 C-64.9688059 45.13265479 -64.9688059 45.13265479 -65 48 C-65.33 48 -65.66 48 -66 48 C-66.64814962 32.48041738 -64.76449962 22.0224545 -54 10 C-37.67330702 -4.1878249 -20.44226339 -7.49438134 0 0 Z " fill="#FCCBBC" transform="translate(221,43)"/>
<path d="M0 0 C0.33 0 0.66 0 1 0 C0.9175 1.051875 0.835 2.10375 0.75 3.1875 C0.91776607 5.18246724 0.91776607 5.18246724 2 7 C5.76573644 9.32353951 9.81136626 10.62409728 14 12 C14.76441406 12.29777344 15.52882812 12.59554688 16.31640625 12.90234375 C25.09149781 16.05760923 34.8070898 16.20328112 44 17 C44 28.22 44 39.44 44 51 C31.34051739 51 22.59276605 46.99342368 13.25 38.5 C12.5075 37.675 11.765 36.85 11 36 C9.7315625 34.6078125 9.7315625 34.6078125 8.4375 33.1875 C5.64383386 29.7788759 3.77224421 26.01657093 2 22 C1.63519531 21.27554687 1.27039063 20.55109375 0.89453125 19.8046875 C-0.35182658 15.89689307 -0.21374462 12.25951298 -0.125 8.1875 C-0.11597656 7.39923828 -0.10695312 6.61097656 -0.09765625 5.79882812 C-0.07422504 3.86575334 -0.03835838 1.9328362 0 0 Z " fill="#FDCCBC" transform="translate(155,421)"/>
<path d="M0 0 C5 5 5 5 6.9140625 6.94921875 C7.47867187 7.52285156 8.04328125 8.09648437 8.625 8.6875 C9.19476563 9.26886719 9.76453125 9.85023438 10.3515625 10.44921875 C12.12382974 12.20251898 12.12382974 12.20251898 15 14 C15 14.66 15 15.32 15 16 C9.34289852 17.88570049 6.52530629 18 0 18 C0 12.06 0 6.12 0 0 Z " fill="#FDCCBC" transform="translate(313,454)"/>
</svg>
