<?xml version="1.0" encoding="UTF-8"?>
<svg version="1.1" xmlns="http://www.w3.org/2000/svg" width="512" height="512">
<path d="M0 0 C0.66644531 0.52980469 1.33289063 1.05960938 2.01953125 1.60546875 C2.63441406 2.08371094 3.24929687 2.56195313 3.8828125 3.0546875 C12.87409196 10.96940578 16.62343649 22.16713535 17.6328125 33.7421875 C17.83284886 36.80031606 17.83284886 36.80031606 20.01953125 39.60546875 C23.10318996 39.85568445 23.10318996 39.85568445 26.01953125 39.60546875 C26.42171875 37.74921875 26.42171875 37.74921875 26.83203125 35.85546875 C27.11240234 34.62376953 27.11240234 34.62376953 27.3984375 33.3671875 C27.82317426 31.47857814 28.22583025 29.5849035 28.609375 27.6875 C30.2068232 20.38082866 32.70012778 14.70782008 37.01953125 8.60546875 C37.47199219 7.95707031 37.92445313 7.30867188 38.390625 6.640625 C44.54611861 -1.32838514 55.14925887 -6.81024037 65.01953125 -8.39453125 C79.47851452 -9.25380797 90.87567301 -6.98505455 102.25 2.45703125 C107.01756726 6.94731036 110.29708585 11.66558788 113.01953125 17.60546875 C113.33921875 18.24484375 113.65890625 18.88421875 113.98828125 19.54296875 C118.5304063 30.30948738 117.01946644 44.04313482 112.89453125 54.61328125 C112.60578125 55.27070312 112.31703125 55.928125 112.01953125 56.60546875 C111.06691406 56.25613281 110.11429687 55.90679687 109.1328125 55.546875 C107.86595346 55.08705209 106.59902255 54.62742713 105.33203125 54.16796875 C104.70619141 53.93787109 104.08035156 53.70777344 103.43554688 53.47070312 C96.78451743 51.06797521 91.08450249 50.42368505 84.08203125 50.41796875 C83.29634766 50.40572266 82.51066406 50.39347656 81.70117188 50.38085938 C77.07028216 50.36923371 73.37745559 50.83571777 69.01953125 52.60546875 C68.34152091 55.50620056 68.34152091 55.50620056 68.01953125 58.60546875 C69.80335894 60.82354442 69.80335894 60.82354442 72.16748047 60.76904297 C73.48256592 60.71514404 73.48256592 60.71514404 74.82421875 60.66015625 C75.79456055 60.63244141 76.76490234 60.60472656 77.76464844 60.57617188 C79.31394043 60.52879883 79.31394043 60.52879883 80.89453125 60.48046875 C95.06747869 60.29747957 105.30648843 62.79752171 116.01953125 72.60546875 C124.71666103 82.25270515 128.02690766 92.35565521 129.625 105.05078125 C129.75086335 107.53376763 129.75086335 107.53376763 131.01953125 108.60546875 C134.01953125 108.77213542 134.01953125 108.77213542 137.01953125 108.60546875 C138.81071568 106.81428432 138.27691337 104.28065545 138.33203125 101.85546875 C138.15817666 85.96515887 130.64729432 73.87929645 120.01953125 62.60546875 C120.35726563 61.84105469 120.695 61.07664062 121.04296875 60.2890625 C124.63723336 51.65659461 126.15908148 43.89062075 127.01953125 34.60546875 C136.21101409 30.90519385 148.7961869 31.04805365 158.14453125 34.23046875 C170.1955546 39.57613135 178.97231872 47.62348694 184.0546875 59.91015625 C188.55082205 72.47020823 187.80065924 84.45508639 182.39453125 96.73046875 C179.20475444 102.65079381 174.15763519 107.68402677 169.265625 112.23828125 C167.77341873 113.61941996 167.77341873 113.61941996 167.64453125 116.16796875 C167.76828125 116.97234375 167.89203125 117.77671875 168.01953125 118.60546875 C170.75342861 120.8498426 170.75342861 120.8498426 173.4296875 120.51953125 C177.62863573 119.03754952 179.79740847 115.74747198 182.640625 112.44140625 C185.01953125 110.60546875 185.01953125 110.60546875 187.97265625 110.671875 C202.19989267 115.03124616 212.03498968 125.11243052 219.09179688 137.828125 C225.50596122 150.11631353 226.15089902 165.34770013 222.39453125 178.60546875 C221.65554756 180.62552796 220.86524561 182.62771666 220.01953125 184.60546875 C219.61863281 185.54648438 219.21773438 186.4875 218.8046875 187.45703125 C212.36385586 200.71207607 200.81006522 209.94304615 187.14453125 214.98046875 C171.90262518 219.26838086 155.55778997 217.57183372 141.76953125 209.85546875 C129.85113587 202.10947759 120.81181807 191.53448431 117.01953125 177.60546875 C116.33643094 173.64563562 115.74968313 169.66912082 115.32128906 165.67358398 C115.03785398 163.11163205 115.03785398 163.11163205 114.01953125 159.60546875 C111.56370865 157.96330725 111.56370865 157.96330725 109.01953125 157.60546875 C106.33074908 159.79535579 105.10260797 160.8671244 104.70703125 164.3828125 C106.51431238 182.6589429 113.12987708 199.15202372 127.01953125 211.60546875 C144.08036046 224.8224544 162.35186977 228.74818403 183.5625 226.17578125 C190.572006 224.64333864 196.51406566 221.4657348 202.6953125 217.93359375 C207.41834515 216.04660068 210.74486546 216.85813039 215.46875 218.41015625 C229.19213885 224.97247483 239.09153741 236.38284689 244.39453125 250.54296875 C249.35757302 265.1947312 248.73384058 281.62013601 242.01953125 295.60546875 C239.94090792 299.18746848 237.6251456 302.39266372 235.01953125 305.60546875 C234.59414063 306.21519531 234.16875 306.82492187 233.73046875 307.453125 C227.00036028 316.51606248 214.55803722 323.34001155 203.515625 324.9765625 C201.01953125 324.60546875 201.01953125 324.60546875 199.02734375 322.48046875 C198.40601563 321.53171875 197.7846875 320.58296875 197.14453125 319.60546875 C185.33283389 302.41680468 170.99000776 294.37175581 151.01953125 289.60546875 C151.07753906 288.62964844 151.13554687 287.65382813 151.1953125 286.6484375 C151.26298828 284.73998047 151.26298828 284.73998047 151.33203125 282.79296875 C151.39003906 281.52839844 151.44804687 280.26382812 151.5078125 278.9609375 C151.37353107 275.46665365 151.37353107 275.46665365 148.6875 273.59375 C145.97515733 272.272443 145.97515733 272.272443 143.01953125 273.60546875 C142.87257813 274.46205078 142.87257813 274.46205078 142.72265625 275.3359375 C139.81346185 291.11079333 135.46047069 304.87162712 122.01953125 314.60546875 C112.53794722 320.46437209 103.45779207 321.94031452 92.45703125 321.73046875 C91.54373047 321.72144531 90.63042969 321.71242188 89.68945312 321.703125 C87.46602944 321.67984308 85.24274323 321.64398445 83.01953125 321.60546875 C83.01953125 324.57546875 83.01953125 327.54546875 83.01953125 330.60546875 C99.85743321 333.81268817 114.64458495 330.77664758 129.01953125 321.60546875 C135.42029403 317.01129455 139.55127568 311.80593542 143.51171875 305.0234375 C146.122177 300.83723631 146.122177 300.83723631 148.01953125 299.60546875 C162.40038822 300.50310352 174.93108975 307.82850029 184.47265625 318.296875 C194.35279358 330.58161529 197.99954364 344.20682714 196.76171875 359.8671875 C194.72883036 374.30069508 187.83172639 386.35378164 176.6328125 395.75390625 C163.9500154 404.73992393 151.44677665 407.44094929 136.01953125 406.60546875 C134.68092578 406.29398154 133.34604578 405.96497965 132.01953125 405.60546875 C131.93912598 405.02055664 131.8587207 404.43564453 131.77587891 403.83300781 C131.40601911 401.17276086 131.02539092 398.51416222 130.64453125 395.85546875 C130.45503906 394.47488281 130.45503906 394.47488281 130.26171875 393.06640625 C130.1328125 392.17695313 130.00390625 391.2875 129.87109375 390.37109375 C129.75588379 389.55415039 129.64067383 388.73720703 129.52197266 387.89550781 C128.9981476 385.50800584 128.27994354 383.69593685 127.01953125 381.60546875 C125.18619792 380.43880208 125.18619792 380.43880208 123.01953125 380.60546875 C120.72205529 382.18873687 120.72205529 382.18873687 119.01953125 384.60546875 C118.97223684 387.37828128 118.97223684 387.37828128 119.76953125 390.29296875 C122.58438181 404.13265065 120.57011385 416.51160197 113.01953125 428.60546875 C104.39635158 440.14700942 93.94468166 446.81606865 80.08203125 450.35546875 C64.33982748 451.64054661 50.88877873 448.77661432 38.26953125 438.85546875 C34.77703786 435.68961143 32.26066094 431.90333333 29.6953125 427.97265625 C27.99780993 425.57478549 26.15058964 423.62045642 24.01953125 421.60546875 C19.47048862 422.97018154 17.8332985 424.79716772 15.26953125 428.73046875 C7.09372108 440.42769529 -3.00571673 446.98995519 -16.91015625 450.1015625 C-30.7021457 452.36513329 -43.37647737 449.28329763 -54.98046875 441.60546875 C-65.79004552 433.71880154 -72.60570731 422.79540878 -74.98046875 409.60546875 C-75.70823655 400.90071539 -75.04251745 392.25357963 -73.98046875 383.60546875 C-74.77650359 381.4486649 -74.77650359 381.4486649 -76.79296875 380.91796875 C-79.17929706 380.57706471 -80.68399091 380.96515103 -82.98046875 381.60546875 C-84.62780634 389.5862596 -85.48924422 397.47441014 -85.98046875 405.60546875 C-100.1958029 408.90023779 -114.6019886 406.06115399 -126.98046875 398.60546875 C-139.54625176 390.66133813 -146.96208812 378.46478362 -150.5859375 364.2265625 C-152.92950257 348.65693715 -149.98573113 333.66698077 -140.98046875 320.60546875 C-130.69311111 308.09530705 -118.47784232 302.58288778 -102.98046875 299.60546875 C-102.32046875 299.60546875 -101.66046875 299.60546875 -100.98046875 299.60546875 C-100.72394531 300.13914062 -100.46742188 300.6728125 -100.203125 301.22265625 C-92.91086571 315.41432584 -81.82942211 324.1665723 -67.05859375 329.66015625 C-57.84209773 332.490603 -47.074835 333.11920117 -37.98046875 329.60546875 C-36.7157481 328.55117189 -36.7157481 328.55117189 -36.73046875 326.16796875 C-36.81296875 325.32234375 -36.89546875 324.47671875 -36.98046875 323.60546875 C-40.85701799 321.02110259 -43.89447111 321.54995268 -48.35546875 321.73046875 C-62.30775089 321.97742414 -72.92858443 318.10449482 -83.19921875 308.5390625 C-91.33812031 300.05091703 -94.38142764 291.27864402 -95.328125 279.671875 C-96.08342338 276.12152036 -97.21318285 274.87163648 -99.98046875 272.60546875 C-101.63046875 273.26546875 -103.28046875 273.92546875 -104.98046875 274.60546875 C-104.98046875 279.55546875 -104.98046875 284.50546875 -104.98046875 289.60546875 C-107.16671875 290.12109375 -109.35296875 290.63671875 -111.60546875 291.16796875 C-128.31668388 295.48302815 -142.86086624 304.93214258 -152.296875 319.66015625 C-153.23335536 321.28512914 -154.11410679 322.9420538 -154.98046875 324.60546875 C-167.04890487 324.39739227 -177.38846043 318.07053655 -185.8671875 309.85546875 C-197.06547663 297.93270621 -202.78623785 283.53464467 -202.328125 267.0625 C-200.79107287 251.77832993 -195.33600017 238.27523095 -183.98046875 227.60546875 C-177.60647906 222.40536407 -170.14076024 216.80019673 -161.66796875 216.48046875 C-158.22681462 217.53031238 -155.41892096 218.83905191 -152.23046875 220.48046875 C-137.84300263 227.84232103 -120.3117952 229.41106542 -104.67578125 224.64453125 C-95.80468874 221.2246608 -88.13333587 216.87261499 -80.98046875 210.60546875 C-80.30371094 210.03441406 -79.62695312 209.46335938 -78.9296875 208.875 C-68.29808946 199.19302042 -60.5251567 183.18809789 -59.84765625 168.78125 C-59.85023438 167.83636719 -59.8528125 166.89148438 -59.85546875 165.91796875 C-59.85289062 164.96535156 -59.8503125 164.01273438 -59.84765625 163.03125 C-59.81976466 160.59550377 -59.81976466 160.59550377 -60.98046875 158.60546875 C-62.7970369 157.67155872 -62.7970369 157.67155872 -64.98046875 157.60546875 C-67.18971182 158.58695048 -67.18971182 158.58695048 -68.98046875 160.60546875 C-69.7579904 163.87453497 -69.7579904 163.87453497 -69.98046875 167.60546875 C-71.58053653 182.93330699 -78.14096 195.6403895 -89.98046875 205.60546875 C-103.64501294 215.39076435 -117.52636552 217.85700365 -133.98046875 216.60546875 C-147.60626467 214.14466969 -160.56867506 206.3563288 -168.80078125 195.12109375 C-170.31991837 192.66299248 -171.68028302 190.18539703 -172.98046875 187.60546875 C-173.56441406 186.49365234 -173.56441406 186.49365234 -174.16015625 185.359375 C-180.6933465 171.98302562 -180.07833572 157.60651423 -175.98046875 143.60546875 C-170.13139947 128.19542083 -159.03982991 118.2739621 -144.49609375 111.29296875 C-141.98046875 110.60546875 -141.98046875 110.60546875 -139.8984375 111.2578125 C-137.03854637 113.2673083 -134.59973285 115.63555616 -132.078125 118.046875 C-129.69443989 119.81799299 -127.89842715 120.2350149 -124.98046875 120.60546875 C-123.24398927 118.93058347 -123.24398927 118.93058347 -121.98046875 116.60546875 C-122.5758392 112.83478925 -124.38354932 111.14565727 -127.23046875 108.85546875 C-135.20456881 102.30709137 -139.02368721 93.6104817 -140.98046875 83.60546875 C-142.21398913 70.0644641 -139.78492425 59.69809586 -131.98046875 48.60546875 C-129.48046875 45.79296875 -129.48046875 45.79296875 -126.98046875 43.60546875 C-126.05234375 42.75984375 -125.12421875 41.91421875 -124.16796875 41.04296875 C-116.28295446 34.59712159 -107.49085632 32.26205922 -97.48046875 32.35546875 C-96.23716797 32.34386719 -96.23716797 32.34386719 -94.96875 32.33203125 C-90.242968 32.34705758 -86.42096171 32.78890345 -81.98046875 34.60546875 C-81.8103125 35.72824219 -81.64015625 36.85101563 -81.46484375 38.0078125 C-79.8171282 48.8082776 -79.8171282 48.8082776 -75.65234375 58.84375 C-74.7449514 61.22301715 -75.00676495 62.26405076 -75.98046875 64.60546875 C-77.6171875 66.54296875 -77.6171875 66.54296875 -79.66796875 68.60546875 C-88.16670438 77.91143196 -92.94985818 90.11610954 -93.29296875 102.73046875 C-93.40073102 106.61719204 -93.40073102 106.61719204 -90.98046875 108.60546875 C-88.48046875 108.93880208 -88.48046875 108.93880208 -85.98046875 108.60546875 C-83.25251686 105.87751686 -83.51095764 103.91209912 -83.10546875 100.10546875 C-81.31420389 86.71884055 -75.66263647 76.89843767 -65.296875 68.17578125 C-58.17758054 63.34954791 -49.91352967 60.46220779 -41.33984375 60.5078125 C-39.73496094 60.51264648 -39.73496094 60.51264648 -38.09765625 60.51757812 C-36.98648438 60.52595703 -35.8753125 60.53433594 -34.73046875 60.54296875 C-33.04050781 60.54973633 -33.04050781 60.54973633 -31.31640625 60.55664062 C-28.53770658 60.56841478 -25.75911466 60.58486035 -22.98046875 60.60546875 C-22.81369593 57.18890851 -22.81369593 57.18890851 -22.98046875 53.60546875 C-27.43970978 49.14622772 -34.9260095 50.31246898 -40.88354492 50.27978516 C-49.95151233 50.4023129 -57.65724358 53.239793 -65.98046875 56.60546875 C-66.631818 55.04526008 -67.27629839 53.48218296 -67.91796875 51.91796875 C-68.45744141 50.61279297 -68.45744141 50.61279297 -69.0078125 49.28125 C-73.19970511 37.74933659 -71.16237886 25.5459419 -66.35546875 14.54296875 C-60.56546867 3.86217314 -51.26744822 -3.58069859 -39.79296875 -7.26953125 C-25.63741052 -10.60848354 -11.80776415 -8.61647654 0 0 Z M13.01953125 131.60546875 C11.33962617 134.40494224 9.88703613 137.3034342 8.43457031 140.22607422 C7.99507553 141.09484192 7.55558075 141.96360962 7.10276794 142.85870361 C5.65527556 145.72593314 4.21971165 148.59893463 2.78515625 151.47265625 C1.78231454 153.47056473 0.77911525 155.46829377 -0.22442627 157.46585083 C-2.32451756 161.65111752 -4.41838807 165.83942714 -6.50830078 170.02978516 C-9.18708006 175.39894149 -11.88394636 180.75877861 -14.58590317 186.11630058 C-16.66173969 190.23851302 -18.72646916 194.36621245 -20.78803253 198.49557877 C-21.77785588 200.47419866 -22.771463 202.45093037 -23.76891327 204.4257164 C-25.16184705 207.18691346 -26.53930085 209.95531145 -27.91308594 212.72607422 C-28.53483452 213.94664017 -28.53483452 213.94664017 -29.16914368 215.19186401 C-31.25963738 219.45150573 -32.69810194 222.7418377 -31.98046875 227.60546875 C-30.09818506 229.92199367 -30.09818506 229.92199367 -26.99951172 229.83251953 C-25.12996826 229.81680908 -25.12996826 229.81680908 -23.22265625 229.80078125 C-22.5596048 229.79795135 -21.89655334 229.79512146 -21.21340942 229.79220581 C-19.09391292 229.7810031 -16.97483771 229.75589926 -14.85546875 229.73046875 C-13.41927693 229.72043903 -11.9830785 229.71131316 -10.546875 229.703125 C-7.02460247 229.68106375 -3.50257672 229.64653369 0.01953125 229.60546875 C-0.386604 230.59313232 -0.79273926 231.5807959 -1.21118164 232.59838867 C-3.87860983 239.0868874 -6.54542475 245.57562431 -9.203125 252.06811523 C-9.56679169 252.95649582 -9.93045837 253.8448764 -10.30514526 254.76017761 C-11.05580031 256.59398278 -11.80638926 258.427815 -12.55691528 260.26167297 C-14.79323647 265.72157051 -17.04303079 271.17563954 -19.30552673 276.6247406 C-20.70392991 279.99704312 -22.09396296 283.37275633 -23.48239136 286.74917603 C-24.14509125 288.35519746 -24.81150736 289.95969073 -25.48171997 291.56259155 C-26.4181064 293.80348055 -27.34129142 296.04939315 -28.26171875 298.296875 C-28.53906357 298.95150726 -28.81640839 299.60613953 -29.10215759 300.28060913 C-30.68408132 304.18925224 -31.44614167 307.39243949 -30.98046875 311.60546875 C-29.10771997 313.88066632 -29.10771997 313.88066632 -26.125 314 C-22.10920361 313.49615474 -21.21440653 312.37650829 -18.66796875 309.29296875 C-17.51361328 307.92205078 -17.51361328 307.92205078 -16.3359375 306.5234375 C-15.55863281 305.56050781 -14.78132813 304.59757813 -13.98046875 303.60546875 C-13.23410156 302.69410156 -12.48773438 301.78273438 -11.71875 300.84375 C-10.21797473 299.00772301 -8.72192474 297.16782407 -7.23046875 295.32421875 C-4.33688986 291.82781093 -1.28697692 288.49038743 1.76953125 285.13671875 C4.09815178 282.51702065 6.31516072 279.83031565 8.51953125 277.10546875 C11.42766505 273.51069225 14.40494457 270.02286247 17.51953125 266.60546875 C20.54235546 263.28557389 23.44465286 259.90782763 26.26953125 256.41796875 C31.4847164 249.97834882 36.93284877 243.75091472 42.37304688 237.50195312 C46.4499065 232.80606855 50.48431333 228.07355752 54.52685547 223.34814453 C56.55496675 220.98035612 58.58840619 218.61716984 60.62207031 216.25415039 C62.12048624 214.50848141 63.61119624 212.75644824 65.1015625 211.00390625 C67.04324139 208.72547862 69.02090581 206.48752585 71.03125 204.26953125 C71.96487087 203.21486776 72.89846584 202.16018133 73.83203125 201.10546875 C74.66347656 200.18765625 75.49492187 199.26984375 76.3515625 198.32421875 C78.3084851 195.67968797 78.3084851 195.67968797 77.96875 192.38671875 C77.23296724 189.30844284 77.23296724 189.30844284 74.01953125 187.60546875 C71.54896302 187.43434873 69.19449204 187.37293751 66.7265625 187.41015625 C65.66751961 187.41440109 65.66751961 187.41440109 64.58708191 187.41873169 C62.33522492 187.42991411 60.08376773 187.45501455 57.83203125 187.48046875 C56.30404221 187.49050108 54.77604692 187.49962649 53.24804688 187.5078125 C49.50505462 187.52984703 45.76236069 187.56436308 42.01953125 187.60546875 C46.12137924 180.49925969 50.29399915 173.46020027 54.70703125 166.54296875 C55.20887939 165.75003418 55.71072754 164.95709961 56.2277832 164.14013672 C58.9394144 159.85825936 61.67246855 155.59112872 64.42578125 151.3359375 C64.97532471 150.4807251 65.52486816 149.6255127 66.09106445 148.74438477 C67.14556106 147.1039328 68.20632518 145.46748788 69.27416992 143.83569336 C72.80674493 138.62535522 72.80674493 138.62535522 74.01953125 132.60546875 C73.01577817 130.38120733 73.01577817 130.38120733 71.01953125 128.60546875 C67.88398768 127.95809225 67.88398768 127.95809225 64.24609375 127.99609375 C63.57397354 127.9793309 62.90185333 127.96256805 62.20936584 127.94529724 C60.02096461 127.8957741 57.83339231 127.87463242 55.64453125 127.85546875 C54.14426526 127.83046126 52.64402011 127.80417093 51.14379883 127.77661133 C48.15823233 127.72526669 45.17287061 127.6862538 42.18701172 127.65673828 C38.55789688 127.61834535 34.932373 127.52531376 31.3046875 127.4140625 C29.43883564 127.37217539 27.57295171 127.33167938 25.70703125 127.29296875 C24.44850342 127.2480127 24.44850342 127.2480127 23.16455078 127.20214844 C18.07271906 127.15286919 16.20945166 127.69169019 13.01953125 131.60546875 Z " fill="#004877" transform="translate(238.98046875,35.39453125)"/>
<path d="M0 0 C1.51830386 0.04233866 3.0364555 0.09036263 4.55444336 0.14282227 C5.75090736 0.17823875 5.75090736 0.17823875 6.97154236 0.21437073 C9.52929684 0.29119112 12.08676238 0.37513567 14.64428711 0.45922852 C16.37409049 0.51243084 18.10390814 0.56517135 19.83374023 0.61743164 C24.08327355 0.74683094 28.33256093 0.88262164 32.58178711 1.02172852 C31.30519805 4.44112324 29.83265482 7.41657355 27.85131836 10.47875977 C27.30233887 11.33284424 26.75335938 12.18692871 26.18774414 13.06689453 C25.59590332 13.98011475 25.0040625 14.89333496 24.39428711 15.83422852 C23.13727948 17.79745192 21.88078831 19.76100607 20.62475586 21.72485352 C18.57224076 24.92470291 16.51673554 28.12252484 14.45532227 31.31665039 C12.3620383 34.56595558 10.28343722 37.82427495 8.20678711 41.08422852 C7.21642456 42.60850464 7.21642456 42.60850464 6.20605469 44.16357422 C5.60043701 45.1183667 4.99481934 46.07315918 4.37084961 47.05688477 C3.83153809 47.89614502 3.29222656 48.73540527 2.73657227 49.60009766 C1.43117821 52.33756143 1.1943983 54.02594278 1.58178711 57.02172852 C4.44724306 59.88718447 6.54993467 59.3380248 10.55834961 59.43579102 C11.24359711 59.45515717 11.9288446 59.47452332 12.63485718 59.49447632 C14.82537354 59.55429682 17.01594241 59.60066608 19.20678711 59.64672852 C20.69118513 59.68490615 22.17556095 59.72395775 23.65991211 59.76391602 C27.30033396 59.85999936 30.94092147 59.94402134 34.58178711 60.02172852 C33.31241764 62.75535605 31.95770045 64.94453273 29.96459961 67.20141602 C29.44631592 67.79317627 28.92803223 68.38493652 28.39404297 68.99462891 C27.83724854 69.62232178 27.2804541 70.25001465 26.70678711 70.89672852 C25.52281847 72.24666022 24.33923312 73.59692818 23.15600586 74.94750977 C22.5570752 75.62894043 21.95814453 76.31037109 21.34106445 77.01245117 C18.71066012 80.01664596 16.11355091 83.04882786 13.51928711 86.08422852 C12.52842875 87.24180376 11.53754332 88.39935583 10.54663086 89.55688477 C10.05791504 90.12810059 9.56919922 90.69931641 9.06567383 91.2878418 C6.57283184 94.20066901 4.07712611 97.1110405 1.58178711 100.02172852 C0.84025391 100.88701172 0.84025391 100.88701172 0.08374023 101.76977539 C-2.42734325 104.69991844 -4.93942157 107.62919847 -7.45336914 110.55688477 C-12.47653116 116.4082181 -17.49063119 122.26714323 -22.48071289 128.14672852 C-23.16049194 128.94542358 -23.16049194 128.94542358 -23.85400391 129.76025391 C-26.13392094 132.45194878 -28.33877492 135.17187582 -30.41821289 138.02172852 C-31.07821289 137.69172852 -31.73821289 137.36172852 -32.41821289 137.02172852 C-30.05310669 131.16804304 -27.68685485 125.31482162 -25.31982422 119.46191406 C-24.51552676 117.47276176 -23.71148695 115.48350526 -22.90771484 113.49414062 C-21.74913964 110.62675667 -20.58962364 107.75975469 -19.42993164 104.89282227 C-19.07356125 104.01025253 -18.71719086 103.1276828 -18.35002136 102.21836853 C-18.00989517 101.37802567 -17.66976898 100.5376828 -17.31933594 99.671875 C-16.99838959 98.87820526 -16.67744324 98.08453552 -16.34677124 97.26681519 C-15.48654519 95.18694369 -14.57959482 93.13451474 -13.65966797 91.08056641 C-12.31035833 87.7559842 -12.09372409 86.33295052 -13.41821289 83.02172852 C-16.90500225 80.69720228 -18.48788861 80.72399117 -22.61743164 80.60766602 C-24.43017578 80.5496582 -24.43017578 80.5496582 -26.27954102 80.49047852 C-27.54217773 80.45954102 -28.80481445 80.42860352 -30.10571289 80.39672852 C-31.37995117 80.35805664 -32.65418945 80.31938477 -33.96704102 80.27954102 C-37.11728581 80.18515166 -40.2675228 80.09957021 -43.41821289 80.02172852 C-36.22060087 64.54291336 -28.62052565 49.27012095 -20.97680664 34.00854492 C-19.23793282 30.53659491 -17.50276767 27.06280569 -15.76857758 23.58851433 C-14.42320847 20.89417868 -13.0759519 18.20079042 -11.72810364 15.50769424 C-11.08638302 14.22491938 -10.44525499 12.94184789 -9.80473328 11.65847397 C-8.91935923 9.88520214 -8.03116531 8.11333907 -7.14282227 6.34155273 C-6.63924194 5.33518768 -6.13566162 4.32882263 -5.61682129 3.29196167 C-3.89183533 0.02473919 -3.89183533 0.02473919 0 0 Z " fill="#076EB6" transform="translate(264.418212890625,173.978271484375)"/>
</svg>
