<?xml version="1.0" encoding="UTF-8"?>
<svg version="1.1" xmlns="http://www.w3.org/2000/svg" width="512" height="512">
<path d="M0 0 C0.62543701 0.30228516 1.25087402 0.60457031 1.89526367 0.91601562 C5.77406705 2.95032802 8.44797925 5.226408 11.46679688 8.40161133 C17.21553189 13.54584704 22.45867563 13.43303254 29.91015625 13.3125 C31.16259628 13.32337646 32.41503632 13.33425293 33.70542908 13.34545898 C37.00567473 13.36709715 40.30340654 13.35475416 43.60351562 13.32537842 C46.98254629 13.30385138 50.36123856 13.32777292 53.74023438 13.34765625 C60.34828288 13.37743446 66.95455946 13.35814414 73.5625 13.3125 C73.5625 17.6025 73.5625 21.8925 73.5625 26.3125 C59.0425 26.6425 44.5225 26.9725 29.5625 27.3125 C32.5325 32.9225 35.5025 38.5325 38.5625 44.3125 C48.1954406 71.36671616 48.22238688 97.98139181 36.5625 124.3125 C34.2525 128.9325 31.9425 133.5525 29.5625 138.3125 C38.1425 146.8925 46.7225 155.4725 55.5625 164.3125 C61.48936791 159.23693487 61.48936791 159.23693487 67.0684967 153.87965393 C67.89088837 153.04852081 68.71328003 152.2173877 69.56059265 151.36106873 C70.87843498 150.02133751 70.87843498 150.02133751 72.22290039 148.65454102 C73.1762955 147.68938069 74.12997801 146.7245042 75.08392334 145.7598877 C77.12681219 143.69363248 79.16837057 141.62607484 81.20909309 139.55768013 C84.44672163 136.27757647 87.69163973 133.00474983 90.93833923 129.73362732 C91.48857586 129.17920238 92.0388125 128.62477743 92.60572296 128.05355173 C93.73035671 126.92041527 94.85501429 125.78730248 95.9796952 124.65421283 C103.52804311 117.04916207 111.07229291 109.44024857 118.59350586 101.80834961 C123.68098068 96.6461129 128.78105422 91.49669107 133.89569086 86.36136001 C136.59388956 83.65126512 139.28554407 80.93535644 141.96183968 78.20361519 C144.48374523 75.62967986 147.02216315 73.07318834 149.57330322 70.52823639 C150.93268587 69.16374476 152.27466681 67.78198243 153.6157074 66.39945984 C164.47637641 55.64425313 176.03433973 51 191.14257812 51 C204.81353009 51.22802194 213.6649527 56.66193385 223.9375 65.3125 C225.5625 67.3125 225.5625 67.3125 225.48003483 69.09897995 C224.16402145 72.2738153 221.91810551 74.35955418 219.50694275 76.7288208 C218.97522652 77.26310031 218.44351029 77.79737981 217.89568144 78.34784961 C216.10930438 80.13917439 214.31240392 81.9195553 212.51538086 83.70019531 C211.23381724 84.98091288 209.95291353 86.26229109 208.67262268 87.54428101 C205.19187615 91.02588974 201.70194449 94.4981589 198.21032405 97.96885777 C194.56411316 101.59633958 190.92637251 105.23229503 187.28773499 108.86737061 C180.39472972 115.75104433 173.49411143 122.62703377 166.5907436 129.50031352 C158.73248895 137.32505871 150.88273141 145.15830438 143.03368556 152.99228525 C126.88607867 169.108518 110.72779944 185.21401512 94.5625 201.3125 C96.14361922 205.18760608 98.77437136 207.79923956 101.7003479 210.69085693 C102.228835 211.22105289 102.75732211 211.75124884 103.30182397 212.29751134 C105.07361331 214.07259449 106.85245544 215.8404356 108.63134766 217.60839844 C109.90299201 218.87947865 111.17419614 220.15099941 112.44499207 221.42292786 C115.89691069 224.8754209 119.35496626 228.32170767 122.8141408 231.76692867 C126.42787078 235.36816619 130.03594742 238.9750586 133.6446228 242.58135986 C140.47938022 249.40989816 147.31922045 256.23332169 154.16089284 263.05493093 C161.94949406 270.82118662 169.73242503 278.59311406 177.51488042 286.36552763 C193.52444384 302.35417925 209.54112938 318.33568038 225.5625 334.3125 C221.55358783 342.79942888 213.07035291 347.97157843 204.5625 351.3125 C193.03826 355.26425914 180.62456558 354.11762489 169.5625 349.3125 C161.44535739 345.15167708 155.32857864 339.63377133 148.97216797 333.17626953 C147.95678813 332.15975873 146.94052141 331.14413318 145.92344666 330.12931824 C143.18989394 327.39690393 140.46877255 324.65241597 137.7498641 321.90543985 C134.89705164 319.02746677 132.03275714 316.16096575 129.16970825 313.29318237 C123.7610276 307.87211478 118.36261674 302.44094067 112.9679023 297.00597847 C106.82098491 290.81420952 100.66258103 284.63391889 94.5032289 278.45452332 C81.84357769 265.75316487 69.19828269 253.03760177 56.5625 240.3125 C55.44981738 241.25909708 54.33815357 242.20689181 53.22691345 243.15518188 C52.6077452 243.68285471 51.98857695 244.21052753 51.35064602 244.75419044 C48.96723056 246.83125745 46.73173328 249.03104951 44.50390625 251.2734375 C43.62412109 252.15644531 42.74433594 253.03945313 41.83789062 253.94921875 C40.94263672 254.85285156 40.04738281 255.75648438 39.125 256.6875 C38.20267578 257.61433594 37.28035156 258.54117187 36.33007812 259.49609375 C34.07191375 261.76595846 31.81613058 264.03813538 29.5625 266.3125 C30.09359375 267.35148437 30.6246875 268.39046875 31.171875 269.4609375 C45.38795685 297.43928917 49.63354725 324.55031824 40.4375 354.875 C37.5625 362.3125 37.5625 362.3125 28.5625 378.3125 C42.7525 378.3125 56.9425 378.3125 71.5625 378.3125 C71.5625 382.6025 71.5625 386.8925 71.5625 391.3125 C69.12617188 391.30295288 69.12617188 391.30295288 66.640625 391.29321289 C60.59451551 391.2787454 54.5493528 391.3101735 48.50341797 391.35522461 C45.89049505 391.36833617 43.27747928 391.36912461 40.66455078 391.35717773 C36.9004428 391.34213277 33.1388983 391.37190487 29.375 391.41015625 C28.21323242 391.39590103 27.05146484 391.38164581 25.85449219 391.36695862 C20.06891266 391.46942924 16.43237158 391.81178707 12.00292969 395.72338867 C11.42081726 396.33792404 10.83870483 396.95245941 10.23895264 397.58561707 C7.5365207 400.36934235 4.27981564 401.90533973 0.8125 403.5625 C0.11350586 403.89894531 -0.58548828 404.23539062 -1.30566406 404.58203125 C-16.97766765 411.90472647 -34.52587373 412.7215108 -51.05078125 407.55859375 C-62.3440944 403.40338395 -70.08526658 397.74971254 -78.4375 389.3125 C-79.118125 388.65378906 -79.79875 387.99507813 -80.5 387.31640625 C-91.37121011 376.03267254 -96.03827174 360.21070679 -95.8125 344.875 C-95.80162354 343.8651001 -95.79074707 342.8552002 -95.77954102 341.81469727 C-95.13923179 311.86997172 -74.48613619 295.20235931 -54.74469018 275.51829624 C-52.19378637 272.97372171 -49.64578902 270.42623988 -47.09745789 267.87908936 C-42.29034859 263.07506553 -37.48070026 258.27359236 -32.67009181 253.47307277 C-27.18546674 247.99969619 -21.70374315 242.52341752 -16.22223914 237.04691553 C-4.96384273 225.79892036 6.29811952 214.55450258 17.5625 203.3125 C16.11231864 199.98077976 14.2968971 197.80539142 11.7245636 195.25424194 C10.9241716 194.4554361 10.1237796 193.65663025 9.2991333 192.83361816 C8.41965027 191.96603882 7.54016724 191.09845947 6.6340332 190.20458984 C5.21343889 188.79094479 3.79284583 187.37729849 2.37229955 185.96360517 C0.84544366 184.44600249 -0.6838462 182.93089096 -2.21381187 181.4164238 C-5.41008815 178.25202876 -8.59813397 175.07942827 -11.78486633 171.90542603 C-19.70593509 164.01841391 -27.63616291 156.14062797 -35.57147217 148.26794434 C-41.73104537 142.15696985 -47.88730881 136.04274903 -54.03305751 129.9178673 C-57.19263441 126.76974056 -60.35899655 123.62866002 -63.53080881 120.49286342 C-65.98064885 118.0669371 -68.4205254 115.63106094 -70.86206055 113.19677734 C-71.73142242 112.34134338 -72.6007843 111.48590942 -73.49649048 110.60455322 C-86.58285675 97.49836562 -95.77082615 81.63284631 -95.84765625 62.70703125 C-95.83605469 61.75183594 -95.82445313 60.79664062 -95.8125 59.8125 C-95.82410156 58.85730469 -95.83570312 57.90210937 -95.84765625 56.91796875 C-95.7816866 40.66744494 -88.84150306 24.96298748 -77.64868164 13.2734375 C-57.1314891 -7.07068869 -26.0463325 -12.75839852 0 0 Z M-41.4375 48.3125 C-44.12736583 52.97493411 -45.02583029 56.68617303 -44.12503052 61.93481445 C-42.05702005 69.08661133 -35.23344695 74.79422565 -30.0703125 79.875 C-29.39072479 80.55175781 -28.71113708 81.22851562 -28.01095581 81.92578125 C-25.86617167 84.05948323 -23.71449728 86.18607578 -21.5625 88.3125 C-20.09589035 89.76906438 -18.62974011 91.2260915 -17.1640625 92.68359375 C-13.5938256 96.23192926 -10.01739706 99.77391189 -6.4375 103.3125 C0.34369633 96.69669871 2.47925877 87.85156085 2.59765625 78.55078125 C1.94205253 67.34155669 -1.99557379 58.61612293 -9.4375 50.3125 C-10.01886719 49.64992188 -10.60023437 48.98734375 -11.19921875 48.3046875 C-15.71005888 43.45933563 -19.71546663 40.77775417 -26.4375 39.9375 C-32.86233843 40.7406048 -37.36116452 43.33031219 -41.4375 48.3125 Z M-6.4375 301.3125 C-11.38486246 306.13265495 -16.31217193 310.97264768 -21.22631836 315.82666016 C-22.89889231 317.4741544 -24.57593491 319.11712513 -26.25756836 320.75537109 C-28.67982744 323.11669735 -31.08532758 325.49404982 -33.48828125 327.875 C-34.23837967 328.59929199 -34.98847809 329.32358398 -35.76130676 330.06982422 C-40.52729428 334.83324229 -44.21870421 339.30915889 -44.52729797 346.3659668 C-44.06832543 352.60883955 -41.41299062 356.52974017 -36.875 360.625 C-32.0784807 363.94566721 -27.08370187 364.13436345 -21.4375 363.3125 C-11.69445317 359.34371298 -4.63904483 349.60902161 -0.4375 340.3125 C3.40336611 330.01259954 3.57861862 319.67302789 -0.6171875 309.43359375 C-2.65125894 304.57709576 -2.65125894 304.57709576 -6.4375 301.3125 Z " fill="#132537" transform="translate(95.4375,54.6875)"/>
<path d="M0 0 C1.63113785 1.40959525 3.25709498 2.82523589 4.875 4.25 C5.95576847 5.10740965 7.03864219 5.96218329 8.125 6.8125 C27.53483083 24.01666823 39.67265861 49.73829673 42.875 75.25 C43.75327701 91.44058242 43.91316022 107.70608711 38.875 123.25 C38.66069336 123.9315918 38.44638672 124.61318359 38.22558594 125.31542969 C33.83601958 138.94417064 27.22302164 151.35060455 17.875 162.25 C17.18664062 163.05953125 16.49828125 163.8690625 15.7890625 164.703125 C-4.44408907 187.84701065 -31.53100945 201.52955735 -62.23046875 203.99609375 C-92.01535378 205.84170029 -121.50053186 196.87288033 -144.125 177.25 C-144.93324219 176.58613281 -145.74148438 175.92226563 -146.57421875 175.23828125 C-167.50278819 157.46378193 -181.15481091 130.43003227 -184.125 103.25 C-185.89678213 69.63544129 -178.41303278 39.19903688 -155.68359375 13.62841797 C-116.02288581 -29.56980197 -46.41231077 -37.74532987 0 0 Z " fill="#4DA2D9" transform="translate(469.125,166.75)"/>
<path d="M0 0 C2.94083934 1.5336289 4.92570714 3.5945308 7.26217651 5.94801331 C7.76994629 6.455345 8.27771606 6.9626767 8.8008728 7.48538208 C10.4745467 9.16114309 12.13734873 10.8472731 13.80026245 12.53370667 C14.95974272 13.69878315 16.11988787 14.86319828 17.28067017 16.02697754 C20.33196532 19.08971938 23.3741437 22.16136372 26.41452026 25.23493958 C29.51942305 28.37054685 32.63285055 31.49766409 35.74557495 34.62550354 C41.85031177 40.76240144 47.94544489 46.90872898 54.03463745 53.06105042 C50.58749862 57.15597958 47.09339209 61.12598587 43.29244995 64.90089417 C42.03561401 66.15289612 42.03561401 66.15289612 40.75338745 67.43019104 C39.4694812 68.70152893 39.4694812 68.70152893 38.15963745 69.99855042 C37.28049683 70.87317932 36.4013562 71.74780823 35.49557495 72.64894104 C33.34420285 74.7886209 31.19051953 76.92591639 29.03463745 79.06105042 C27.92911855 78.12514538 26.82528292 77.18725184 25.72213745 76.24855042 C25.10725464 75.7264801 24.49237183 75.20440979 23.8588562 74.66651917 C22.18994334 73.1977329 20.60667486 71.63308782 19.03463745 70.06105042 C18.70463745 73.69105042 18.37463745 77.32105042 18.03463745 81.06105042 C19.68463745 81.39105042 21.33463745 81.72105042 23.03463745 82.06105042 C35.86717245 89.40762875 43.42687787 100.23777167 48.03463745 114.06105042 C48.29168105 117.59812614 48.26605066 121.1406192 48.28463745 124.68605042 C48.30526245 125.64640198 48.32588745 126.60675354 48.34713745 127.59620667 C48.42157215 141.31079925 42.70306514 151.92182208 33.40182495 161.77198792 C24.54915933 170.33248636 12.68900321 175.23509478 0.34713745 175.56105042 C-13.63923035 174.91052168 -25.65292595 169.91582981 -35.89505005 160.33448792 C-46.89849717 148.2514573 -49.888184 135.10234974 -49.14016724 119.09034729 C-48.05326615 106.47257941 -41.09683696 96.47578547 -32.23098755 87.88917542 C-28.18386075 84.62356275 -23.62803874 82.32381974 -18.96536255 80.06105042 C-18.96536255 76.43105042 -18.96536255 72.80105042 -18.96536255 69.06105042 C-22.26536255 72.36105042 -25.56536255 75.66105042 -28.96536255 79.06105042 C-34.96037252 74.09910187 -40.42963292 68.71338802 -45.90286255 63.18605042 C-46.77749146 62.30690979 -47.65212036 61.42776917 -48.55325317 60.52198792 C-50.69293303 58.37061582 -52.83022852 56.21693249 -54.96536255 54.06105042 C-49.72292034 47.73188104 -44.01676477 41.89594844 -38.23880005 36.06105042 C-37.73076466 35.54769135 -37.22272926 35.03433228 -36.69929886 34.50541687 C-34.02000484 31.79960074 -31.33718964 29.09732751 -28.65188599 26.3974762 C-26.43356625 24.16572153 -24.22278095 21.9268806 -22.01809692 19.68165588 C-19.34433221 16.95875473 -16.6586677 14.24816484 -13.96379471 11.54615784 C-12.94125437 10.51689182 -11.92298409 9.48336546 -10.90909958 8.4455719 C-9.49738233 7.00242569 -8.06843031 5.57619926 -6.63870239 4.15089417 C-5.83073212 3.33483704 -5.02276184 2.51877991 -4.19030762 1.67799377 C-1.96536255 0.06105042 -1.96536255 0.06105042 0 0 Z " fill="#152738" transform="translate(398.9653625488281,168.93894958496094)"/>
<path d="M0 0 C18.0785157 8.65199189 31.2408063 31.58497671 38.3203125 49.3046875 C43.85899886 66.38553144 42.89170319 87.10734922 37 104 C36.76394043 104.67708008 36.52788086 105.35416016 36.28466797 106.05175781 C32.52128541 116.39317397 27.19478331 124.72200842 20 133 C19.34128906 133.77085937 18.68257813 134.54171875 18.00390625 135.3359375 C8.56352691 145.58100614 -4.43601182 151.2112567 -18.19140625 152.23828125 C-33.31364121 152.57121574 -47.8365014 147.61441021 -59.0234375 137.1640625 C-70.56900511 124.52326318 -75.37633968 110.66239297 -75.21484375 93.59765625 C-73.95116259 72.43674087 -58.56776569 58.25062958 -44.43359375 44.23828125 C-43.14564239 42.95406985 -41.85813912 41.66940889 -40.57106018 40.38432312 C-37.21694857 37.03777066 -33.85687123 33.69727357 -30.49542236 30.35809326 C-27.05249798 26.93579559 -23.61537823 23.50767851 -20.17773438 20.08007812 C-13.45742283 13.38107991 -6.73078079 6.6884781 0 0 Z M2 55 C-2.94736246 59.82015495 -7.87467193 64.66014768 -12.78881836 69.51416016 C-14.46139231 71.1616544 -16.13843491 72.80462513 -17.82006836 74.44287109 C-20.24232744 76.80419735 -22.64782758 79.18154982 -25.05078125 81.5625 C-25.80087967 82.28679199 -26.55097809 83.01108398 -27.32380676 83.75732422 C-32.08979428 88.52074229 -35.78120421 92.99665889 -36.08979797 100.0534668 C-35.63082543 106.29633955 -32.97549062 110.21724017 -28.4375 114.3125 C-23.6409807 117.63316721 -18.64620187 117.82186345 -13 117 C-3.25695317 113.03121298 3.79845517 103.29652161 8 94 C11.84086611 83.70009954 12.01611862 73.36052789 7.8203125 63.12109375 C5.78624106 58.26459576 5.78624106 58.26459576 2 55 Z " fill="#FBCA34" transform="translate(87,301)"/>
<path d="M0 0 C0.79937988 0.00749268 1.59875977 0.01498535 2.42236328 0.02270508 C7.88920613 0.12266063 12.92865645 0.4351006 18.125 2.25 C19.053125 2.55679688 19.98125 2.86359375 20.9375 3.1796875 C37.49047748 9.30260009 49.08372239 23.0245292 56.5625 38.625 C65.43412004 58.40754042 68.12503739 82.34705626 60.86328125 103.18359375 C55.31602001 116.81617823 48.48714289 127.77275771 38.125 138.25 C37.54218262 138.84119629 36.95936523 139.43239258 36.35888672 140.04150391 C32.6399929 143.80402111 28.89260863 147.53629992 25.125 151.25 C20.98428388 149.61193418 18.18194291 146.60963292 15.09057617 143.52197266 C14.49651474 142.93623474 13.90245331 142.35049683 13.29039001 141.74700928 C11.32743047 139.80814581 9.37221306 137.86170775 7.41796875 135.9140625 C6.05047315 134.55553934 4.68290304 133.19709118 3.31526184 131.8387146 C0.4459367 128.98588506 -2.41895866 126.12868425 -5.28149414 123.26904297 C-8.92765139 119.62824459 -12.58963635 116.00383484 -16.25594044 112.38334084 C-19.08972343 109.57950582 -21.91198436 106.76428028 -24.73132896 103.9459343 C-26.07506725 102.60636955 -27.42287805 101.27087588 -28.77500343 99.93977737 C-42.4657393 86.44497178 -52.00470958 73.11685629 -52.1875 53.125 C-52.20145608 38.70526348 -46.51602146 25.81054068 -36.5 15.375 C-26.12977752 5.6396891 -14.38477624 -0.17734656 0 0 Z M-9.875 42.25 C-12.56486583 46.91243411 -13.46333029 50.62367303 -12.56253052 55.87231445 C-10.49452005 63.02411133 -3.67094695 68.73172565 1.4921875 73.8125 C2.17177521 74.48925781 2.85136292 75.16601562 3.55154419 75.86328125 C5.69632833 77.99698323 7.84800272 80.12357578 10 82.25 C11.46660965 83.70656438 12.93275989 85.1635915 14.3984375 86.62109375 C17.9686744 90.16942926 21.54510294 93.71141189 25.125 97.25 C31.90619633 90.63419871 34.04175877 81.78906085 34.16015625 72.48828125 C33.50455253 61.27905669 29.56692621 52.55362293 22.125 44.25 C21.54363281 43.58742188 20.96226563 42.92484375 20.36328125 42.2421875 C15.85244112 37.39683563 11.84703337 34.71525417 5.125 33.875 C-1.29983843 34.6781048 -5.79866452 37.26781219 -9.875 42.25 Z " fill="#FDCB34" transform="translate(63.875,60.75)"/>
<path d="M0 0 C1.63113785 1.40959525 3.25709498 2.82523589 4.875 4.25 C5.95576847 5.10740965 7.03864219 5.96218329 8.125 6.8125 C27.53483083 24.01666823 39.67265861 49.73829673 42.875 75.25 C43.75327701 91.44058242 43.91316022 107.70608711 38.875 123.25 C38.66069336 123.9315918 38.44638672 124.61318359 38.22558594 125.31542969 C33.83601958 138.94417064 27.22302164 151.35060455 17.875 162.25 C17.18664062 163.05953125 16.49828125 163.8690625 15.7890625 164.703125 C-4.44408907 187.84701065 -31.53100945 201.52955735 -62.23046875 203.99609375 C-92.01535378 205.84170029 -121.50053186 196.87288033 -144.125 177.25 C-144.93324219 176.58613281 -145.74148438 175.92226563 -146.57421875 175.23828125 C-167.50278819 157.46378193 -181.15481091 130.43003227 -184.125 103.25 C-185.89678213 69.63544129 -178.41303278 39.19903688 -155.68359375 13.62841797 C-116.02288581 -29.56980197 -46.41231077 -37.74532987 0 0 Z M-150.125 26.25 C-162.61789799 41.77435392 -171.46104284 62.19296087 -172.125 82.25 C-172.15078125 82.88244629 -172.1765625 83.51489258 -172.203125 84.16650391 C-173.14095801 109.78692954 -166.07853639 134.49451931 -149.125 154.25 C-148.44695312 155.06082031 -147.76890625 155.87164062 -147.0703125 156.70703125 C-131.04261522 175.27292258 -107.83617491 188.89555818 -83.125 191.25 C-55.11882735 193.24512341 -27.75138479 187.24291568 -6.03515625 168.6484375 C-2.96779911 165.94288108 -0.0372894 163.12184094 2.875 160.25 C3.679375 159.45851563 4.48375 158.66703125 5.3125 157.8515625 C23.4066602 138.94065202 31.49058063 112.58568949 31.36083984 86.81201172 C30.69209923 64.07092008 22.64920423 42.55764163 7.875 25.25 C7.10542969 24.31929687 6.33585938 23.38859375 5.54296875 22.4296875 C-11.06474208 3.16581613 -35.3439765 -8.90852193 -60.62890625 -11.50390625 C-95.86459268 -13.98418362 -127.02267646 -0.34720136 -150.125 26.25 Z " fill="#122537" transform="translate(469.125,166.75)"/>
<path d="M0 0 C0 4 0 4 -1.18622541 5.6830194 C-1.7482115 6.24348661 -2.31019759 6.80395381 -2.88921356 7.38140488 C-3.53364174 8.03379725 -4.17806993 8.68618963 -4.84202623 9.35835147 C-5.56185167 10.06652554 -6.2816771 10.77469961 -7.02331543 11.5043335 C-8.15650121 12.64264583 -8.15650121 12.64264583 -9.31257963 13.80395436 C-11.85976814 16.35775901 -14.42104302 18.89695719 -16.98242188 21.43652344 C-18.80591757 23.25889147 -20.62853416 25.08213951 -22.45033264 26.90620422 C-26.38078972 30.83876072 -30.31851575 34.7639157 -34.26124573 38.68416595 C-39.96177961 44.35221895 -45.651262 50.03125921 -51.3380906 55.71305886 C-60.56443202 64.93064148 -69.79967441 74.13925244 -79.04052734 83.34228516 C-88.01818792 92.28324077 -96.99164601 101.22837968 -105.95947266 110.17919922 C-106.78836393 111.00651415 -106.78836393 111.00651415 -107.63400048 111.85054252 C-110.40612237 114.61744433 -113.17816172 117.38442883 -115.95016003 120.15145445 C-138.95399013 143.11380431 -161.97226896 166.06161881 -185 189 C-188.22314687 187.46712414 -190.37735598 185.85849312 -192.890625 183.3046875 C-193.95410156 182.23154297 -193.95410156 182.23154297 -195.0390625 181.13671875 C-195.76867187 180.39035156 -196.49828125 179.64398438 -197.25 178.875 C-197.99507813 178.12089844 -198.74015625 177.36679687 -199.5078125 176.58984375 C-201.3431342 174.73099228 -203.1736191 172.86762995 -205 171 C-203.726394 168.21280438 -202.41116668 166.16054344 -200.24903011 163.99455452 C-199.68628822 163.42598044 -199.12354633 162.85740635 -198.54375166 162.27160275 C-197.92538279 161.65701321 -197.30701393 161.04242367 -196.66990662 160.40921021 C-196.01301238 159.74849042 -195.35611814 159.08777063 -194.67931801 158.40702903 C-192.47252368 156.18989975 -190.25862761 153.98000188 -188.04467773 151.77001953 C-186.46253785 150.18353331 -184.88081677 148.59662934 -183.29948425 147.00933838 C-178.99814528 142.69458599 -174.69039767 138.38628603 -170.38108325 134.07950068 C-166.78359089 130.48307699 -163.18907731 126.88368342 -159.59451729 123.2843293 C-150.62550219 114.3035744 -141.65019596 105.32914234 -132.6720999 96.35746871 C-124.88583245 88.57636382 -117.10779297 80.78709366 -109.33362805 72.99389865 C-101.34440306 64.98526795 -93.34946062 56.98239296 -85.34879452 48.98518836 C-80.85988687 44.49809224 -76.37322435 40.00880833 -71.89217949 35.5138588 C-67.67427072 31.28335337 -63.44913609 27.06019886 -59.21841621 22.84250641 C-57.66990903 21.29636098 -56.1239364 19.74767216 -54.58074951 18.19621658 C-52.46705759 16.07202136 -50.34423927 13.95736927 -48.21897888 11.84475708 C-47.61622507 11.23462898 -47.01347126 10.62450089 -46.39245218 9.99588406 C-32.74519149 -3.48209913 -18.12791363 -8.13758047 0 0 Z " fill="#4DA2D8" transform="translate(302,122)"/>
<path d="M0 0 C2.39245204 1.08851662 3.81175221 2.36415868 5.66125488 4.23376465 C6.36167908 4.93441544 7.06210327 5.63506622 7.78375244 6.35694885 C8.52868958 7.11736984 9.27362671 7.87779083 10.0411377 8.66125488 C10.81233948 9.43670151 11.58354126 10.21214813 12.37811279 11.01109314 C14.8406198 13.49039805 17.29249403 15.97992855 19.7442627 18.46984863 C21.41154178 20.15217303 23.07950239 21.8338223 24.74816895 23.51477051 C28.83814172 27.63782738 32.91943191 31.76932922 36.9942627 35.90734863 C36.06152161 37.0362974 35.12286147 38.16035739 34.1817627 39.28234863 C33.65969238 39.90883301 33.13762207 40.53531738 32.59973145 41.18078613 C30.9942627 42.90734863 30.9942627 42.90734863 27.9942627 44.90734863 C21.0642627 37.97734863 14.1342627 31.04734863 6.9942627 23.90734863 C6.9942627 39.74734863 6.9942627 55.58734863 6.9942627 71.90734863 C10.6242627 73.22734863 14.2542627 74.54734863 17.9942627 75.90734863 C27.54347428 82.23215111 33.48777959 90.24858881 36.6817627 101.28234863 C37.89866567 111.50433359 36.34522632 121.69765938 30.2442627 130.28234863 C29.19435358 131.51983456 28.11016078 132.72902269 26.9942627 133.90734863 C26.43094238 134.52223145 25.86762207 135.13711426 25.28723145 135.77062988 C18.24157783 142.69761986 9.18793729 146.11959865 -0.6307373 146.46984863 C-12.04017563 145.94748881 -21.01658153 141.33766989 -28.7557373 133.02844238 C-36.66428768 123.24161129 -38.16842078 113.13388325 -37.0057373 100.90734863 C-34.82787007 89.38340215 -26.95900378 81.49449877 -17.5369873 75.06359863 C-15.0057373 73.90734863 -15.0057373 73.90734863 -6.0057373 71.90734863 C-6.3357373 55.73734863 -6.6657373 39.56734863 -7.0057373 22.90734863 C-14.2657373 30.16734863 -21.5257373 37.42734863 -29.0057373 44.90734863 C-36.0057373 38.90734863 -36.0057373 38.90734863 -38.0057373 35.90734863 C-32.96955333 30.74469223 -27.91410495 25.60150138 -22.84460449 20.47155762 C-21.12132094 18.72308461 -19.40254554 16.9701567 -17.68835449 15.21276855 C-15.22766824 12.69163192 -12.75136614 10.18681044 -10.2713623 7.68469238 C-9.12114594 6.49576637 -9.12114594 6.49576637 -7.94769287 5.28282166 C-7.22724792 4.56199905 -6.50680298 3.84117645 -5.76452637 3.09851074 C-5.13387268 2.456754 -4.50321899 1.81499725 -3.85345459 1.15379333 C-2.0057373 -0.09265137 -2.0057373 -0.09265137 0 0 Z " fill="#F9C834" transform="translate(399.0057373046875,186.0926513671875)"/>
<path d="M0 0 C3.79247167 1.57272655 6.1918788 3.94538892 9.074646 6.83413696 C9.57217353 7.32995565 10.06970107 7.82577433 10.58230519 8.33661783 C12.24683353 9.99785409 13.90411658 11.66613352 15.56152344 13.33447266 C16.7537869 14.52730029 17.94649099 15.71968764 19.13960266 16.91166687 C22.3772274 20.14871734 25.60864481 23.39190117 28.83899593 26.63620806 C32.21601437 30.02572142 35.59869012 33.40957912 38.98077393 36.79403687 C45.38432149 43.20380283 51.78275334 49.6186504 58.17937016 56.03533208 C65.46195784 63.34026753 72.75021929 70.63953083 80.03896666 77.93831944 C95.03230674 92.95256969 110.01849505 107.97394102 125 123 C120.54103344 127.6669864 116.02776008 129.40661855 109.66015625 129.55664062 C108.90605469 129.55857422 108.15195312 129.56050781 107.375 129.5625 C106.27865234 129.61760742 106.27865234 129.61760742 105.16015625 129.67382812 C95.59092673 129.74820038 87.4428033 124.68705429 80.60870361 118.33023071 C78.75231689 116.49101761 76.91632077 114.6409286 75.09082031 112.77197266 C74.06572408 111.74517934 73.03929566 110.71971459 72.01165771 109.69546509 C69.25506348 106.94057596 66.51722566 104.16773125 63.78264713 101.39101076 C60.91080626 98.48138553 58.02169651 95.5890061 55.13446045 92.69467163 C49.68281451 87.22445772 44.2466307 81.7391467 38.81598163 76.24809587 C32.6270847 69.99188205 26.42092028 63.7529173 20.21332407 57.5152657 C7.45638898 44.6957981 -5.27895455 31.85507755 -18 19 C-17.03770644 17.87235462 -16.07471216 16.74530718 -15.11141968 15.61851501 C-14.57522696 14.99082686 -14.03903423 14.36313871 -13.48659325 13.71642971 C-11.9788742 11.97560802 -10.42654513 10.31069463 -8.7890625 8.69140625 C-8.26699219 8.17255859 -7.74492187 7.65371094 -7.20703125 7.11914062 C-6.68496094 6.60544922 -6.16289062 6.09175781 -5.625 5.5625 C-5.07972656 5.02173828 -4.53445312 4.48097656 -3.97265625 3.92382812 C-2.65076536 2.61353277 -1.32572382 1.30641716 0 0 Z " fill="#4DA2D9" transform="translate(178,266)"/>
<path d="M0 0 C13.43419803 7.73593417 23.03414824 21.21886046 27.0625 36.109375 C29.14241743 47.80891057 28.14142564 58.56002097 23.6875 69.625 C23.27177734 70.70974609 23.27177734 70.70974609 22.84765625 71.81640625 C19.65299167 79.10377475 13.99438364 87.26866389 6.6875 90.625 C1.15836787 85.16568187 -4.36240867 79.69806107 -9.87295055 74.21998596 C-12.43256218 71.67596451 -14.99486002 69.13478212 -17.5637207 66.60009766 C-20.04728108 64.14936956 -22.52322838 61.6911745 -24.99428749 59.22784424 C-26.38774898 57.8425428 -27.78879162 56.46488047 -29.18998718 55.08740234 C-37.54210389 46.73748494 -43.51489291 39.10056853 -43.75 26.875 C-43.60365087 18.19466696 -40.91370129 12.20476257 -35.125 5.8125 C-25.1136745 -3.23413675 -12.55012352 -5.66936082 0 0 Z M-28.3125 17.625 C-31.00236583 22.28743411 -31.90083029 25.99867303 -31.00003052 31.24731445 C-28.93202005 38.39911133 -22.10844695 44.10672565 -16.9453125 49.1875 C-16.26572479 49.86425781 -15.58613708 50.54101562 -14.88595581 51.23828125 C-12.74117167 53.37198323 -10.58949728 55.49857578 -8.4375 57.625 C-6.97089035 59.08156438 -5.50474011 60.5385915 -4.0390625 61.99609375 C-0.4688256 65.54442926 3.10760294 69.08641189 6.6875 72.625 C13.46869633 66.00919871 15.60425877 57.16406085 15.72265625 47.86328125 C15.06705253 36.65405669 11.12942621 27.92862293 3.6875 19.625 C3.10613281 18.96242188 2.52476563 18.29984375 1.92578125 17.6171875 C-2.58505888 12.77183563 -6.59046663 10.09025417 -13.3125 9.25 C-19.73733843 10.0531048 -24.23616452 12.64281219 -28.3125 17.625 Z " fill="#152636" transform="translate(82.3125,85.375)"/>
<path d="M0 0 C10.57288439 5.03196314 16.03019301 16.86932841 19.87890625 27.40625 C23.67182545 41.62306602 20.46455032 56.17405708 14 69 C7.46091349 79.30907006 -1.55837882 89.01843542 -13.375 92.75 C-23.79291701 93.74218257 -31.89594967 92.5545512 -40.3125 85.875 C-46.6648046 79.93418072 -50.09344468 71.66388295 -50.4375 63.0625 C-50.49808594 62.02222656 -50.55867188 60.98195313 -50.62109375 59.91015625 C-48.83835248 48.68673477 -41.68902199 40.84044434 -33.7890625 33.203125 C-32.80982802 32.23511751 -31.83193663 31.26574967 -30.85531616 30.29510498 C-28.31378211 27.77619414 -25.75475525 25.27585285 -23.19128418 22.77929688 C-20.56565024 20.21566645 -17.95747377 17.63440007 -15.34765625 15.0546875 C-10.24843535 10.01930938 -5.13055232 5.00347238 0 0 Z M0 18 C-4.94736246 22.82015495 -9.87467193 27.66014768 -14.78881836 32.51416016 C-16.46139231 34.1616544 -18.13843491 35.80462513 -19.82006836 37.44287109 C-22.24232744 39.80419735 -24.64782758 42.18154982 -27.05078125 44.5625 C-27.80087967 45.28679199 -28.55097809 46.01108398 -29.32380676 46.75732422 C-34.08979428 51.52074229 -37.78120421 55.99665889 -38.08979797 63.0534668 C-37.63082543 69.29633955 -34.97549062 73.21724017 -30.4375 77.3125 C-25.6409807 80.63316721 -20.64620187 80.82186345 -15 80 C-5.25695317 76.03121298 1.79845517 66.29652161 6 57 C9.84086611 46.70009954 10.01611862 36.36052789 5.8203125 26.12109375 C3.78624106 21.26459576 3.78624106 21.26459576 0 18 Z " fill="#142536" transform="translate(89,338)"/>
<path d="M0 0 C0 0.33 0 0.66 0 1 C-0.99257813 0.99097656 -1.98515625 0.98195313 -3.0078125 0.97265625 C-4.38024535 1.00085692 -5.75264103 1.03090794 -7.125 1.0625 C-8.09373047 1.04606445 -8.09373047 1.04606445 -9.08203125 1.02929688 C-22.7544486 1.48504412 -33.2417931 11.22263104 -42.23779297 20.44311523 C-43.3811939 21.58849644 -44.52614982 22.73232707 -45.67251587 23.8747406 C-48.74530491 26.94554168 -51.79620079 30.03725654 -54.84328985 33.13353229 C-58.04427971 36.37862674 -61.26543941 39.60357999 -64.48440552 42.83082581 C-70.56133949 48.92941585 -76.62022553 55.04560776 -82.6726476 61.16851431 C-89.570571 68.14499491 -96.4886586 75.10133391 -103.4084146 82.05614936 C-117.62797471 96.34864912 -131.82234128 110.6659424 -146 125 C-145.5676001 125.46253174 -145.1352002 125.92506348 -144.68969727 126.40161133 C-144.13338623 127.0180249 -143.5770752 127.63443848 -143.00390625 128.26953125 C-142.44775635 128.87643799 -141.89160645 129.48334473 -141.31860352 130.10864258 C-140 132 -140 132 -139.9375 135.6875 C-141.67783094 141.11323764 -141.67783094 141.11323764 -144 143 C-147.04364376 143.90486706 -149.83175213 144.24968679 -153 144 C-156.0625 142.1875 -156.0625 142.1875 -158 140 C-158 139.34 -158 138.68 -158 138 C-163.40566376 142.62141346 -168.55484616 147.41660251 -173.5625 152.46484375 C-174.23925781 153.14301651 -174.91601562 153.82118927 -175.61328125 154.51991272 C-177.74457675 156.65674305 -179.87234218 158.79704823 -182 160.9375 C-183.45679779 162.39932123 -184.91382701 163.86091187 -186.37109375 165.32226562 C-189.91673973 168.878854 -193.45922739 172.43856016 -197 176 C-199.8605891 174.64062915 -201.85927699 173.35479531 -204 171 C-202.726394 168.21280438 -201.41116668 166.16054344 -199.24903011 163.99455452 C-198.68628822 163.42598044 -198.12354633 162.85740635 -197.54375166 162.27160275 C-196.92538279 161.65701321 -196.30701393 161.04242367 -195.66990662 160.40921021 C-195.01301238 159.74849042 -194.35611814 159.08777063 -193.67931801 158.40702903 C-191.47252368 156.18989975 -189.25862761 153.98000188 -187.04467773 151.77001953 C-185.46253785 150.18353331 -183.88081677 148.59662934 -182.29948425 147.00933838 C-177.99814528 142.69458599 -173.69039767 138.38628603 -169.38108325 134.07950068 C-165.78359089 130.48307699 -162.18907731 126.88368342 -158.59451729 123.2843293 C-149.62550219 114.3035744 -140.65019596 105.32914234 -131.6720999 96.35746871 C-123.88583245 88.57636382 -116.10779297 80.78709366 -108.33362805 72.99389865 C-100.34440306 64.98526795 -92.34946062 56.98239296 -84.34879452 48.98518836 C-79.85988687 44.49809224 -75.37322435 40.00880833 -70.89217949 35.5138588 C-66.67427072 31.28335337 -62.44913609 27.06019886 -58.21841621 22.84250641 C-56.66990903 21.29636098 -55.1239364 19.74767216 -53.58074951 18.19621658 C-51.46705759 16.07202136 -49.34423927 13.95736927 -47.21897888 11.84475708 C-46.61622507 11.23462898 -46.01347126 10.62450089 -45.39245218 9.99588406 C-32.35561805 -2.87924416 -17.33133062 -8.76347192 0 0 Z " fill="#F3F5F7" transform="translate(301,122)"/>
<path d="M0 0 C6.17868739 5.26249866 9.33968912 10.83807049 10.4453125 18.92578125 C10.89278991 25.46583575 8.82716821 30.48104609 5.16015625 35.83984375 C-0.47304455 42.12121619 -6.60388788 45.87159968 -15.15234375 46.33984375 C-22.22239535 46.10708485 -27.70847659 43.66387302 -32.94921875 38.9375 C-39.28821026 32.11391616 -40.43823046 25.57634957 -40.2734375 16.38671875 C-39.46728619 9.79225578 -36.62127038 5.18892428 -31.578125 0.9296875 C-21.90378691 -5.83435385 -9.99197604 -6.9050241 0 0 Z " fill="#162737" transform="translate(413.83984375,274.16015625)"/>
<path d="M0 0 C3.79247167 1.57272655 6.1918788 3.94538892 9.074646 6.83413696 C9.57217353 7.32995565 10.06970107 7.82577433 10.58230519 8.33661783 C12.24683353 9.99785409 13.90411658 11.66613352 15.56152344 13.33447266 C16.7537869 14.52730029 17.94649099 15.71968764 19.13960266 16.91166687 C22.3772274 20.14871734 25.60864481 23.39190117 28.83899593 26.63620806 C32.21601437 30.02572142 35.59869012 33.40957912 38.98077393 36.79403687 C45.38432149 43.20380283 51.78275334 49.6186504 58.17937016 56.03533208 C65.46195784 63.34026753 72.75021929 70.63953083 80.03896666 77.93831944 C95.03230674 92.95256969 110.01849505 107.97394102 125 123 C122.78379454 125.27881013 121.04032685 126.92694347 118 128 C113.24907939 127.6646595 111.17528885 125.67022143 107.88102722 122.36204529 C107.39081237 121.87524813 106.90059751 121.38845098 106.39552766 120.88690239 C104.75687971 119.2548381 103.13292955 117.60889838 101.50854492 115.96264648 C100.33626781 114.78924101 99.16310905 113.61671578 97.98913574 112.44500732 C94.80489458 109.26191463 91.63314379 106.06663247 88.46346831 102.86904407 C85.14875826 99.52934287 81.82273061 96.2009525 78.49787903 92.87135315 C72.20366329 86.56470095 65.91971409 80.24792089 59.63937598 73.92745215 C52.48888686 66.73226632 45.32704748 59.54842415 38.16422498 52.3655194 C23.43013863 37.58961354 8.71038758 22.79949724 -6 8 C-4.44805246 4.67240077 -2.69378051 2.51419515 0 0 Z " fill="#FAFCFD" transform="translate(178,266)"/>
<path d="M0 0 C12.08562087 10.63962326 22.94625833 23.61097898 27.6875 39.25 C25.21766743 36.95024572 23.42739787 34.49385597 21.5625 31.6875 C5.84940002 9.00913931 -17.50579578 -5.81422978 -44.3125 -11.75 C-72.37138501 -16.28049812 -101.68272518 -11.98858968 -125.30078125 4.3125 C-139.11790664 14.42516103 -149.90006278 25.27331253 -158.3125 40.25 C-159.3125 37.25 -159.3125 37.25 -157.72265625 33.80859375 C-156.9540022 32.42707115 -156.17047368 31.05375596 -155.375 29.6875 C-154.95895508 28.9658667 -154.54291016 28.2442334 -154.11425781 27.50073242 C-150.65876231 21.62467943 -146.91457174 16.29564492 -142.3125 11.25 C-141.8592334 10.74903809 -141.4059668 10.24807617 -140.93896484 9.73193359 C-104.35469642 -30.20978981 -41.77689624 -35.16579535 0 0 Z " fill="#F5F7F9" transform="translate(464.3125,178.75)"/>
<path d="M0 0 C18.03729563 8.020739 31.41986814 32.03316109 38.3203125 49.3046875 C46.09251358 73.27350342 40.52557381 98.03229961 30 120 C28.85960435 116.57881305 29.42641592 114.8548069 30.3359375 111.45483398 C36.57239623 87.94915532 33.3666691 63.86223112 21.15234375 42.81640625 C13.17418125 30.36539718 2.46215466 20.32821527 -8 10 C-5.95933017 5.73384496 -3.41446998 3.26601476 0 0 Z " fill="#FBFBF9" transform="translate(87,301)"/>
<path d="M0 0 C3.84612073 1.57859826 6.24153346 4.02655255 9.1328125 6.97265625 C9.61072235 7.45576767 10.0886322 7.93887909 10.58102417 8.43663025 C12.10053614 9.97389041 13.6131639 11.51769326 15.125 13.0625 C16.64484559 14.60997477 18.16613419 16.15595926 19.69039917 17.69908142 C21.06918742 19.09570801 22.44316065 20.49708323 23.81689453 21.89868164 C25.81680452 24.03259545 25.81680452 24.03259545 28 25 C26.5735422 28.2586636 24.83295838 30.4024854 22.3046875 32.890625 C21.58925781 33.59960938 20.87382812 34.30859375 20.13671875 35.0390625 C19.39035156 35.76867187 18.64398438 36.49828125 17.875 37.25 C17.12089844 37.99507812 16.36679688 38.74015625 15.58984375 39.5078125 C13.73099228 41.3431342 11.86762995 43.1736191 10 45 C5.99482604 43.39626852 3.3228902 40.57886014 0.359375 37.5546875 C-0.16767029 37.02481232 -0.69471558 36.49493713 -1.23773193 35.94900513 C-2.91325675 34.26232175 -4.58167722 32.56880436 -6.25 30.875 C-7.38755851 29.72740612 -8.52557436 28.58026539 -9.6640625 27.43359375 C-12.44803465 24.62761863 -15.2256576 21.81549536 -18 19 C-17.59515381 18.53021729 -17.19030762 18.06043457 -16.77319336 17.57641602 C-16.23831299 16.95436279 -15.70343262 16.33230957 -15.15234375 15.69140625 C-14.62374756 15.07724854 -14.09515137 14.46309082 -13.55053711 13.83032227 C-12.19050544 12.22488101 -10.87280331 10.58377852 -9.5625 8.9375 C-6.63577218 5.58247055 -3.44724346 2.80150621 0 0 Z " fill="#4DA1D7" transform="translate(115,203)"/>
<path d="M0 0 C0.79937988 0.00749268 1.59875977 0.01498535 2.42236328 0.02270508 C12.76391438 0.21178962 20.67562278 3.06093599 30.125 7.25 C26.67911825 8.39862725 25.61747115 7.95903392 22.125 7.25 C2.90171028 5.88292245 -12.35197797 9.95197264 -27.234375 22.64453125 C-36.85292303 32.13502169 -44.5602486 45.47357339 -44.875 59.25 C-44.90207031 60.34441406 -44.92914063 61.43882813 -44.95703125 62.56640625 C-45.03080712 68.89101079 -44.87455554 75.00277789 -43.875 81.25 C-46.15478255 78.42306964 -47.66519506 75.74879831 -49 72.375 C-49.49886719 71.14136719 -49.49886719 71.14136719 -50.0078125 69.8828125 C-54.49085912 56.2721214 -52.52264861 41.76202694 -46.3671875 29.1640625 C-38.85724904 15.29687382 -27.55277166 6.18113105 -12.71875 1.1875 C-8.36028425 0.12445957 -4.46165597 -0.05500672 0 0 Z " fill="#FAF9F7" transform="translate(63.875,60.75)"/>
<path d="M0 0 C0.33 0 0.66 0 1 0 C1.08636719 0.82242187 1.17273437 1.64484375 1.26171875 2.4921875 C2.41321237 11.64075146 4.2768145 19.83918659 11.1875 26.375 C18.00882059 31.59826718 25.56916571 33.45607521 34 34 C30.28101687 38.14809656 26.89811725 40.69794271 21.2265625 41.2890625 C12.84055766 41.52142032 6.55633975 40.62136878 0.25 34.875 C-4.33944198 29.87597395 -7.13089357 24.3344223 -7.5 17.5 C-7.19847712 11.12334943 -4.30314429 4.71296756 0 0 Z " fill="#FDFCF9" transform="translate(38,397)"/>
<path d="M0 0 C4.4125235 2.1661479 7.09058512 4.43862 9 9 C9.53491853 13.20293133 9.30685774 15.39808674 7.375 19.1875 C3.83812594 23.37590349 1.00696671 25.71329047 -4.5 26.5 C-9.37954973 25.80292147 -12.34296662 23.81447123 -15.64453125 20.19921875 C-18.14234334 16.14657262 -17.6268069 11.59204183 -17 7 C-12.82169146 -0.05990063 -7.67075831 -0.96780595 0 0 Z " fill="#4CA0D6" transform="translate(403,282)"/>
<path d="M0 0 C7.59112827 9.4399704 7.82875116 20.07797575 6.75 31.69140625 C5.2890874 41.1721203 0.55227225 50.06229997 -6 57 C-9.36591866 55.55746343 -11.51047079 53.66735273 -14 51 C-12.93378574 47.58811436 -11.42756709 45.21802485 -9.1875 42.5 C-3.28475824 34.90456024 0.15972071 24.75670931 0.09765625 15.13671875 C0.09443359 14.25048828 0.09121094 13.36425781 0.08789062 12.45117188 C0.07951172 11.53916016 0.07113281 10.62714844 0.0625 9.6875 C0.05798828 8.75615234 0.05347656 7.82480469 0.04882812 6.86523438 C0.03709234 4.57675627 0.02067363 2.28841192 0 0 Z " fill="#FCFBF7" transform="translate(109,122)"/>
<path d="M0 0 C3.84612073 1.57859826 6.24153346 4.02655255 9.1328125 6.97265625 C9.61072235 7.45576767 10.0886322 7.93887909 10.58102417 8.43663025 C12.10053614 9.97389041 13.6131639 11.51769326 15.125 13.0625 C16.64484559 14.60997477 18.16613419 16.15595926 19.69039917 17.69908142 C21.06918742 19.09570801 22.44316065 20.49708323 23.81689453 21.89868164 C25.81680452 24.03259545 25.81680452 24.03259545 28 25 C26.56036361 28.35915158 24.87583411 30.71624938 22 33 C17.67005476 32.8533329 15.18609059 29.56584546 12.359375 26.65234375 C11.83232971 26.12105362 11.30528442 25.58976349 10.76226807 25.04237366 C9.08432813 23.34767175 7.41713272 21.64282783 5.75 19.9375 C4.61267255 18.78512255 3.47465934 17.63342148 2.3359375 16.48242188 C-0.45071992 13.66272816 -3.22778792 10.83389412 -6 8 C-4.44805246 4.67240077 -2.69378051 2.51419515 0 0 Z " fill="#F9FBFC" transform="translate(115,203)"/>
<path d="M0 0 C4.29 0 8.58 0 13 0 C13 4.29 13 8.58 13 13 C8.71 13 4.42 13 0 13 C0 8.71 0 4.42 0 0 Z " fill="#112435" transform="translate(392,433)"/>
<path d="M0 0 C4.29 0 8.58 0 13 0 C13 4.29 13 8.58 13 13 C8.71 13 4.42 13 0 13 C0 8.71 0 4.42 0 0 Z " fill="#112436" transform="translate(366,433)"/>
<path d="M0 0 C4.29 0 8.58 0 13 0 C13 4.29 13 8.58 13 13 C8.71 13 4.42 13 0 13 C0 8.71 0 4.42 0 0 Z " fill="#112435" transform="translate(339,433)"/>
<path d="M0 0 C4.29 0 8.58 0 13 0 C13 4.29 13 8.58 13 13 C8.71 13 4.42 13 0 13 C0 8.71 0 4.42 0 0 Z " fill="#112435" transform="translate(313,433)"/>
<path d="M0 0 C4.29 0 8.58 0 13 0 C13 4.29 13 8.58 13 13 C8.71 13 4.42 13 0 13 C0 8.71 0 4.42 0 0 Z " fill="#112336" transform="translate(286,433)"/>
<path d="M0 0 C4.29 0 8.58 0 13 0 C13 4.29 13 8.58 13 13 C8.71 13 4.42 13 0 13 C0 8.71 0 4.42 0 0 Z " fill="#112436" transform="translate(260,433)"/>
<path d="M0 0 C4.29 0 8.58 0 13 0 C13 4.29 13 8.58 13 13 C8.71 13 4.42 13 0 13 C0 8.71 0 4.42 0 0 Z " fill="#112435" transform="translate(233,433)"/>
<path d="M0 0 C4.29 0 8.58 0 13 0 C13 4.29 13 8.58 13 13 C8.71 13 4.42 13 0 13 C0 8.71 0 4.42 0 0 Z " fill="#112436" transform="translate(207,433)"/>
<path d="M0 0 C4.29 0 8.58 0 13 0 C13 4.29 13 8.58 13 13 C8.71 13 4.42 13 0 13 C0 8.71 0 4.42 0 0 Z " fill="#112435" transform="translate(180,433)"/>
<path d="M0 0 C4.29 0 8.58 0 13 0 C13 4.29 13 8.58 13 13 C8.71 13 4.42 13 0 13 C0 8.71 0 4.42 0 0 Z " fill="#112436" transform="translate(392,120)"/>
<path d="M0 0 C4.29 0 8.58 0 13 0 C13 4.29 13 8.58 13 13 C8.71 13 4.42 13 0 13 C0 8.71 0 4.42 0 0 Z " fill="#112335" transform="translate(392,94)"/>
<path d="M0 0 C4.29 0 8.58 0 13 0 C13 4.29 13 8.58 13 13 C8.71 13 4.42 13 0 13 C0 8.71 0 4.42 0 0 Z " fill="#122336" transform="translate(392,68)"/>
<path d="M0 0 C4.29 0 8.58 0 13 0 C13 4.29 13 8.58 13 13 C8.71 13 4.42 13 0 13 C0 8.71 0 4.42 0 0 Z " fill="#112336" transform="translate(366,68)"/>
<path d="M0 0 C4.29 0 8.58 0 13 0 C13 4.29 13 8.58 13 13 C8.71 13 4.42 13 0 13 C0 8.71 0 4.42 0 0 Z " fill="#122336" transform="translate(340,68)"/>
<path d="M0 0 C4.29 0 8.58 0 13 0 C13 4.29 13 8.58 13 13 C8.71 13 4.42 13 0 13 C0 8.71 0 4.42 0 0 Z " fill="#112435" transform="translate(313,68)"/>
<path d="M0 0 C4.29 0 8.58 0 13 0 C13 4.29 13 8.58 13 13 C8.71 13 4.42 13 0 13 C0 8.71 0 4.42 0 0 Z " fill="#122336" transform="translate(287,68)"/>
<path d="M0 0 C4.29 0 8.58 0 13 0 C13 4.29 13 8.58 13 13 C8.71 13 4.42 13 0 13 C0 8.71 0 4.42 0 0 Z " fill="#112335" transform="translate(261,68)"/>
<path d="M0 0 C4.29 0 8.58 0 13 0 C13 4.29 13 8.58 13 13 C8.71 13 4.42 13 0 13 C0 8.71 0 4.42 0 0 Z " fill="#122336" transform="translate(235,68)"/>
<path d="M0 0 C4.29 0 8.58 0 13 0 C13 4.29 13 8.58 13 13 C8.71 13 4.42 13 0 13 C0 8.71 0 4.42 0 0 Z " fill="#112435" transform="translate(208,68)"/>
<path d="M0 0 C4.29 0 8.58 0 13 0 C13 4.29 13 8.58 13 13 C8.71 13 4.42 13 0 13 C0 8.71 0 4.42 0 0 Z " fill="#122336" transform="translate(182,68)"/>
<path d="M0 0 C4.29 0 8.58 0 13 0 C13 3.96 13 7.92 13 12 C8.71 12 4.42 12 0 12 C0 8.04 0 4.08 0 0 Z " fill="#112436" transform="translate(392,407)"/>
<path d="M0 0 C4.29 0 8.58 0 13 0 C13 3.96 13 7.92 13 12 C8.71 12 4.42 12 0 12 C0 8.04 0 4.08 0 0 Z " fill="#122336" transform="translate(392,381)"/>
<path d="M0 0 C0.33 0.66 0.66 1.32 1 2 C1.66 2.33 2.32 2.66 3 3 C1.68 5.64 0.36 8.28 -1 11 C-2.41687119 6.74938644 -1.19320039 4.28148375 0 0 Z " fill="#E2DCC6" transform="translate(118,410)"/>
<path d="M0 0 C0.66 0.99 1.32 1.98 2 3 C0.35 5.64 -1.3 8.28 -3 11 C-4 8 -4 8 -3.22265625 5.95703125 C-2.83980469 5.24933594 -2.45695312 4.54164063 -2.0625 3.8125 C-1.68222656 3.09707031 -1.30195313 2.38164062 -0.91015625 1.64453125 C-0.60980469 1.10183594 -0.30945313 0.55914062 0 0 Z " fill="#C5D3DD" transform="translate(309,208)"/>
</svg>
