<?xml version="1.0" encoding="UTF-8"?>
<svg version="1.1" xmlns="http://www.w3.org/2000/svg" width="512" height="512">
<path d="M0 0 C4.83677094 0.14452999 9.26670706 1.65765997 13.8671875 3.046875 C49.22684481 13.03447412 86.41683461 14.02324706 121.48950195 2.22802734 C126.13138664 0.68750217 130.0278576 -0.16127428 134.9921875 0.296875 C137.89935823 2.51550529 138.83200393 3.81632429 139.9921875 7.296875 C140.09275772 8.72248294 140.14042839 10.15220605 140.15332031 11.58129883 C140.16292786 12.44261917 140.1725354 13.30393951 140.18243408 14.19136047 C140.1888089 15.58357063 140.1888089 15.58357063 140.1953125 17.00390625 C140.20101257 17.96205734 140.20671265 18.92020844 140.21258545 19.90739441 C140.22203295 21.93572893 140.22856844 23.96407878 140.23242188 25.99243164 C140.24211748 29.08702569 140.27313927 32.18095272 140.3046875 35.27539062 C140.3112188 37.2473919 140.31646877 39.21939791 140.3203125 41.19140625 C140.3326593 42.11347366 140.3450061 43.03554108 140.35772705 43.98554993 C140.33997265 49.13703655 140.02832974 52.91966993 136.9921875 57.296875 C133.7838951 59.72506741 130.58353889 59.56221288 126.65234375 59.60546875 C125.42451172 59.63060547 124.19667969 59.65574219 122.93164062 59.68164062 C120.35096098 59.71674307 117.77022619 59.74800496 115.18945312 59.77539062 C113.96033203 59.80181641 112.73121094 59.82824219 111.46484375 59.85546875 C109.78273804 59.87565063 109.78273804 59.87565063 108.06665039 59.89624023 C104.67082786 60.33875153 102.81527133 61.42485537 99.9921875 63.296875 C99.3321875 63.296875 98.6721875 63.296875 97.9921875 63.296875 C96.32856291 67.40048233 94.89413418 70.97168993 94.74609375 75.421875 C94.69678711 76.60523438 94.69678711 76.60523438 94.64648438 77.8125 C94.58529161 79.46861046 94.52799899 81.12486963 94.47460938 82.78125 C94.44044922 83.57015625 94.40628906 84.3590625 94.37109375 85.171875 C94.33350952 86.25082031 94.33350952 86.25082031 94.29516602 87.3515625 C93.9921875 89.296875 93.9921875 89.296875 91.9921875 92.296875 C89.79101562 92.67782593 89.79101562 92.67782593 87.0234375 92.68505859 C85.98896484 92.69451508 84.95449219 92.70397156 83.88867188 92.7137146 C82.76783203 92.70764191 81.64699219 92.70156921 80.4921875 92.6953125 C78.77225586 92.69961777 78.77225586 92.69961777 77.01757812 92.70401001 C74.58983874 92.70605433 72.16208301 92.70049893 69.734375 92.68798828 C66.00743966 92.67194067 62.28158891 92.68782549 58.5546875 92.70703125 C56.20051843 92.70504888 53.84635003 92.70120535 51.4921875 92.6953125 C50.37134766 92.70138519 49.25050781 92.70745789 48.09570312 92.7137146 C46.54399414 92.69952988 46.54399414 92.69952988 44.9609375 92.68505859 C43.59098633 92.68147842 43.59098633 92.68147842 42.19335938 92.67782593 C41.46697266 92.55211212 40.74058594 92.42639832 39.9921875 92.296875 C37.98476224 89.28573711 37.74306997 88.65582607 37.68359375 85.27734375 C37.65845703 84.50197266 37.63332031 83.72660156 37.60742188 82.92773438 C37.57252016 81.31062156 37.54121636 79.69342673 37.51367188 78.07617188 C37.34325135 73.05084481 36.54938593 69.74980987 33.9921875 65.296875 C33.9921875 64.636875 33.9921875 63.976875 33.9921875 63.296875 C33.2084375 62.9875 32.4246875 62.678125 31.6171875 62.359375 C28.9921875 61.296875 28.9921875 61.296875 26.9921875 60.296875 C24.94624531 60.17815779 22.89679269 60.11776591 20.84765625 60.0859375 C19.61337891 60.05757813 18.37910156 60.02921875 17.10742188 60 C14.50079073 59.94815254 11.89399885 59.90381214 9.28710938 59.8671875 C8.04896484 59.83625 6.81082031 59.8053125 5.53515625 59.7734375 C4.40102295 59.75361816 3.26688965 59.73379883 2.09838867 59.71337891 C-1.40642472 59.24342594 -3.25706477 58.50971624 -6.0078125 56.296875 C-8.82620954 51.79509871 -8.31368133 46.50025247 -8.30859375 41.359375 C-8.31287888 40.40168213 -8.317164 39.44398926 -8.32157898 38.45727539 C-8.32731038 36.43669423 -8.32783133 34.41609243 -8.32348633 32.39550781 C-8.32032347 29.30758473 -8.34381059 26.22061744 -8.36914062 23.1328125 C-8.37141347 21.16666787 -8.37211718 19.20052067 -8.37109375 17.234375 C-8.3803035 16.31342041 -8.38951324 15.39246582 -8.39900208 14.44360352 C-8.35417973 8.22340679 -7.46458907 0.73676464 0 0 Z " fill="#393A54" transform="translate(190.0078125,209.703125)"/>
<path d="M0 0 C9.48439547 2.70247038 18.85671828 4.8005836 28.625 6.1875 C29.27090088 6.2817627 29.91680176 6.37602539 30.58227539 6.47314453 C37.8411153 7.41778229 45.12741322 7.43101046 52.4375 7.4375 C53.46586975 7.43851212 53.46586975 7.43851212 54.51501465 7.43954468 C73.95848338 7.40927212 92.50358538 4.34090664 110.9375 -1.94140625 C114.37263759 -3.05483021 117.03713662 -3.21115149 120.625 -2.8125 C123.53217073 -0.59386971 124.46481643 0.70694929 125.625 4.1875 C125.72557022 5.61310794 125.77324089 7.04283105 125.78613281 8.47192383 C125.79574036 9.33324417 125.8053479 10.19456451 125.81524658 11.08198547 C125.8216214 12.47419563 125.8216214 12.47419563 125.828125 13.89453125 C125.83382507 14.85268234 125.83952515 15.81083344 125.84539795 16.79801941 C125.85484545 18.82635393 125.86138094 20.85470378 125.86523438 22.88305664 C125.87492998 25.97765069 125.90595177 29.07157772 125.9375 32.16601562 C125.9440313 34.1380169 125.94928127 36.11002291 125.953125 38.08203125 C125.9654718 39.00409866 125.9778186 39.92616608 125.99053955 40.87617493 C125.97286536 46.00438873 125.72498379 49.87413018 122.625 54.1875 C118.97646958 56.33713283 115.61872549 56.44782475 111.44140625 56.49609375 C110.26642578 56.52123047 109.09144531 56.54636719 107.88085938 56.57226562 C105.42257799 56.60736536 102.96423877 56.63862784 100.50585938 56.66601562 C99.32958984 56.69244141 98.15332031 56.71886719 96.94140625 56.74609375 C95.87349854 56.75954834 94.80559082 56.77300293 93.70532227 56.78686523 C89.46454891 57.3384313 85.98932933 58.56090648 83.18603516 61.90307617 C80.6871481 67.16815093 80.03841593 71.7039973 80 77.5 C79.86536868 85.82694698 79.86536868 85.82694698 77.625 89.1875 C75.42382812 89.56845093 75.42382812 89.56845093 72.65625 89.57568359 C71.62177734 89.58514008 70.58730469 89.59459656 69.52148438 89.6043396 C68.40064453 89.59826691 67.27980469 89.59219421 66.125 89.5859375 C64.40506836 89.59024277 64.40506836 89.59024277 62.65039062 89.59463501 C60.22265124 89.59667933 57.79489551 89.59112393 55.3671875 89.57861328 C51.64025216 89.56256567 47.91440141 89.57845049 44.1875 89.59765625 C41.83333093 89.59567388 39.47916253 89.59183035 37.125 89.5859375 C36.00416016 89.59201019 34.88332031 89.59808289 33.72851562 89.6043396 C32.17680664 89.59015488 32.17680664 89.59015488 30.59375 89.57568359 C29.22379883 89.57210342 29.22379883 89.57210342 27.82617188 89.56845093 C27.09978516 89.44273712 26.37339844 89.31702332 25.625 89.1875 C22.7190284 84.8285426 23.26813172 80.23562356 23.234375 75.14257812 C23.0691816 69.64072019 22.2610133 64.52246191 18.625 60.1875 C14.42183629 57.59040808 11.21416012 56.81381808 6.30859375 56.78125 C4.54418945 56.74837891 4.54418945 56.74837891 2.74414062 56.71484375 C0.28580751 56.69658557 -2.17252583 56.6783565 -4.63085938 56.66015625 C-5.80583984 56.63824219 -6.98082031 56.61632812 -8.19140625 56.59375 C-9.25818604 56.58666016 -10.32496582 56.57957031 -11.42407227 56.57226562 C-15.82771884 55.99808287 -18.27708116 54.45800892 -21.16259766 51.11889648 C-22.93230888 46.84001557 -22.8037915 42.87281338 -22.7734375 38.28515625 C-22.77630768 37.32983505 -22.77917786 36.37451385 -22.78213501 35.39024353 C-22.78417258 33.37384446 -22.77866425 31.35742549 -22.76611328 29.34106445 C-22.75007315 26.264033 -22.76596351 23.18831854 -22.78515625 20.11132812 C-22.78317342 18.14843461 -22.77932892 16.18554192 -22.7734375 14.22265625 C-22.77951019 13.30686295 -22.78558289 12.39106964 -22.7918396 11.44752502 C-22.73548067 6.29632491 -22.29207945 2.62721125 -19.375 -1.8125 C-13.2998133 -4.85009335 -6.04617328 -1.79429037 0 0 Z " fill="#393A53" transform="translate(204.375,107.8125)"/>
<path d="M0 0 C2.59974245 0.67626563 5.08383511 1.4057957 7.625 2.25 C14.34953124 4.35593519 21.07519414 5.94844651 28 7.25 C28.85932129 7.41274414 29.71864258 7.57548828 30.60400391 7.74316406 C59.21923418 12.96407185 97.37195825 13.31402087 124 0 C130.21856639 -0.57579318 130.21856639 -0.57579318 133.375 1.75 C135.82203188 5.13819798 136.12305245 8.19633758 136.16113281 12.30615234 C136.17074036 13.1473764 136.1803479 13.98860046 136.19024658 14.85531616 C136.1966214 16.20697372 136.1966214 16.20697372 136.203125 17.5859375 C136.20882507 18.5204776 136.21452515 19.4550177 136.22039795 20.4178772 C136.22983396 22.39315666 136.23637637 24.36845177 136.24023438 26.34375 C136.24994218 29.35705136 136.28097972 32.36967105 136.3125 35.3828125 C136.31903037 37.30468346 136.32428071 39.22655929 136.328125 41.1484375 C136.3404718 42.04549408 136.3528186 42.94255066 136.36553955 43.86679077 C136.34750288 48.96045521 135.98734331 52.66573765 133 57 C129.79325275 59.42797825 126.6244869 59.25240764 122.6953125 59.2734375 C120.86033203 59.304375 120.86033203 59.304375 118.98828125 59.3359375 C116.42063946 59.3618995 113.85290803 59.38017637 111.28515625 59.390625 C102.31205641 59.43505993 102.31205641 59.43505993 95 64 C91.93171449 67.4914973 90.90703872 70.52174517 90.75390625 75.125 C90.70459961 76.30835938 90.70459961 76.30835938 90.65429688 77.515625 C90.59310411 79.17173546 90.53581149 80.82799463 90.48242188 82.484375 C90.44826172 83.27328125 90.41410156 84.0621875 90.37890625 84.875 C90.34132202 85.95394531 90.34132202 85.95394531 90.30297852 87.0546875 C90 89 90 89 88 92 C85.79882812 92.38095093 85.79882812 92.38095093 83.03125 92.38818359 C81.99677734 92.39764008 80.96230469 92.40709656 79.89648438 92.4168396 C78.77564453 92.41076691 77.65480469 92.40469421 76.5 92.3984375 C74.78006836 92.40274277 74.78006836 92.40274277 73.02539062 92.40713501 C70.59765124 92.40917933 68.16989551 92.40362393 65.7421875 92.39111328 C62.01525216 92.37506567 58.28940141 92.39095049 54.5625 92.41015625 C52.20833093 92.40817388 49.85416253 92.40433035 47.5 92.3984375 C46.37916016 92.40451019 45.25832031 92.41058289 44.10351562 92.4168396 C42.55180664 92.40265488 42.55180664 92.40265488 40.96875 92.38818359 C39.59879883 92.38460342 39.59879883 92.38460342 38.20117188 92.38095093 C37.47478516 92.25523712 36.74839844 92.12952332 36 92 C33.99257474 88.98886211 33.75088247 88.35895107 33.69140625 84.98046875 C33.66626953 84.20509766 33.64113281 83.42972656 33.61523438 82.63085938 C33.58033266 81.01374656 33.54902886 79.39655173 33.52148438 77.77929688 C33.35285367 72.80674763 32.72995259 69.31805001 30 65 C25.43035665 60.87617552 22.94274315 59.88361368 16.85546875 59.7890625 C15.62119141 59.76070313 14.38691406 59.73234375 13.11523438 59.703125 C10.50860323 59.65127754 7.90181135 59.60693714 5.29492188 59.5703125 C4.05677734 59.539375 2.81863281 59.5084375 1.54296875 59.4765625 C0.40883545 59.45674316 -0.72529785 59.43692383 -1.89379883 59.41650391 C-5.39861222 58.94655094 -7.24925227 58.21284124 -10 56 C-12.78315492 51.5326903 -12.28856476 46.37570198 -12.265625 41.28125 C-12.26753845 40.34575317 -12.2694519 39.41025635 -12.27142334 38.44641113 C-12.27278143 36.47289765 -12.26911128 34.49937511 -12.26074219 32.52587891 C-12.25003741 29.51053745 -12.26065029 26.49579175 -12.2734375 23.48046875 C-12.27211584 21.55989452 -12.26955331 19.63932066 -12.265625 17.71875 C-12.26967346 16.81966919 -12.27372192 15.92058838 -12.27789307 14.9942627 C-12.23823873 9.68311526 -11.78832227 5.72954452 -8.8125 1.1875 C-5.92365989 -0.70518835 -3.39798052 -0.18896757 0 0 Z " fill="#393A54" transform="translate(194,315)"/>
<path d="M0 0 C9.48439547 2.70247038 18.85671828 4.8005836 28.625 6.1875 C29.27090088 6.2817627 29.91680176 6.37602539 30.58227539 6.47314453 C37.8411153 7.41778229 45.12741322 7.43101046 52.4375 7.4375 C53.46586975 7.43851212 53.46586975 7.43851212 54.51501465 7.43954468 C73.95848338 7.40927212 92.50358538 4.34090664 110.9375 -1.94140625 C114.37263759 -3.05483021 117.03713662 -3.21115149 120.625 -2.8125 C123.53217073 -0.59386971 124.46481643 0.70694929 125.625 4.1875 C125.72560382 5.61840466 125.77324456 7.05341395 125.78613281 8.48779297 C125.79574036 9.352341 125.8053479 10.21688904 125.81524658 11.1076355 C125.8216214 12.50455124 125.8216214 12.50455124 125.828125 13.9296875 C125.83382507 14.89021027 125.83952515 15.85073303 125.84539795 16.84036255 C125.85484458 18.87289326 125.86138059 20.90543927 125.86523438 22.93798828 C125.87494082 26.04356657 125.90596786 29.14848326 125.9375 32.25390625 C125.94403017 34.22916274 125.94928059 36.20442396 125.953125 38.1796875 C125.9654718 39.1069162 125.9778186 40.0341449 125.99053955 40.98947144 C125.9692356 47.1714063 125.11668431 50.69581569 120.625 55.1875 C117.29548968 56.35930499 114.04409613 56.32666621 110.5390625 56.36328125 C109.36085938 56.38712891 108.18265625 56.41097656 106.96875 56.43554688 C104.4975694 56.47837721 102.02616156 56.50970274 99.5546875 56.52929688 C90.69405559 56.55615234 90.69405559 56.55615234 83.625 61.1875 C80.51264091 66.55318065 80.16774431 71.32330654 80.0625 77.4375 C79.88092023 85.80361965 79.88092023 85.80361965 77.625 89.1875 C75.41036987 89.54826355 75.41036987 89.54826355 72.62451172 89.52807617 C71.06311966 89.52773628 71.06311966 89.52773628 69.47018433 89.52738953 C68.34307037 89.51190567 67.21595642 89.49642181 66.0546875 89.48046875 C64.32764084 89.47410149 64.32764084 89.47410149 62.56570435 89.46760559 C58.87690145 89.45077052 55.18863864 89.41310874 51.5 89.375 C49.00391412 89.35995944 46.50781971 89.34626995 44.01171875 89.33398438 C37.88262725 89.3008512 31.7538522 89.25060389 25.625 89.1875 C24.11698481 86.31366593 23.37978285 84.36491904 23.3515625 81.10546875 C23.3309375 80.33783203 23.3103125 79.57019531 23.2890625 78.77929688 C23.26321294 77.1882566 23.24486941 75.59707502 23.234375 74.00585938 C23.06216304 68.27981179 22.03018806 64.85061836 18.625 60.1875 C14.83267721 57.38208505 12.08293614 56.80472788 7.40625 56.74609375 C6.22675781 56.71966797 5.04726562 56.69324219 3.83203125 56.66601562 C1.99705078 56.64571289 1.99705078 56.64571289 0.125 56.625 C-2.30221808 56.59047161 -4.7293374 56.54781484 -7.15625 56.49609375 C-8.22939453 56.48376709 -9.30253906 56.47144043 -10.40820312 56.45874023 C-14.23156616 56.1091882 -17.1460801 55.19696992 -20.125 52.75 C-22.34587243 49.97390946 -22.50534972 47.31543602 -22.53613281 43.90307617 C-22.54574036 43.04175583 -22.5553479 42.18043549 -22.56524658 41.29301453 C-22.56949646 40.36487442 -22.57374634 39.43673431 -22.578125 38.48046875 C-22.58382507 37.52231766 -22.58952515 36.56416656 -22.59539795 35.57698059 C-22.60484545 33.54864607 -22.61138094 31.52029622 -22.61523438 29.49194336 C-22.62492998 26.39734931 -22.65595177 23.30342228 -22.6875 20.20898438 C-22.6940313 18.2369831 -22.69928127 16.26497709 -22.703125 14.29296875 C-22.7154718 13.37090134 -22.7278186 12.44883392 -22.74053955 11.49882507 C-22.72268648 6.31870908 -22.32050889 2.6501342 -19.375 -1.8125 C-13.2998133 -4.85009335 -6.04617328 -1.79429037 0 0 Z " fill="#393A54" transform="translate(204.375,2.8125)"/>
<path d="M0 0 C3.83059958 0.76704967 7.53822672 1.85338311 11.28125 2.95703125 C46.22795103 12.98850492 84.21623157 13.08564116 118.80444336 1.57568359 C123.06421691 0.16768107 126.66548849 -0.84994059 131.21875 -0.35546875 C134.37054579 2.02967401 135.49474158 3.83570521 136.21875 7.64453125 C136.31583593 9.07763513 136.36657422 10.51435658 136.37988281 11.95068359 C136.38949036 12.79190765 136.3990979 13.63313171 136.40899658 14.49984741 C136.4153714 15.85150497 136.4153714 15.85150497 136.421875 17.23046875 C136.42757507 18.16500885 136.43327515 19.09954895 136.43914795 20.06240845 C136.44858396 22.03768791 136.45512637 24.01298302 136.45898438 25.98828125 C136.46869218 29.00158261 136.49972972 32.0142023 136.53125 35.02734375 C136.53778037 36.94921471 136.54303071 38.87109054 136.546875 40.79296875 C136.5592218 41.69002533 136.5715686 42.58708191 136.58428955 43.51132202 C136.56625288 48.60498646 136.20609331 52.3102689 133.21875 56.64453125 C130.01200275 59.0725095 126.8432369 58.89693889 122.9140625 58.91796875 C121.07908203 58.94890625 121.07908203 58.94890625 119.20703125 58.98046875 C116.63938946 59.00643075 114.07165803 59.02470762 111.50390625 59.03515625 C102.53080641 59.07959118 102.53080641 59.07959118 95.21875 63.64453125 C92.15046449 67.13602855 91.12578872 70.16627642 90.97265625 74.76953125 C90.92334961 75.95289063 90.92334961 75.95289063 90.87304688 77.16015625 C90.81185411 78.81626671 90.75456149 80.47252588 90.70117188 82.12890625 C90.66701172 82.9178125 90.63285156 83.70671875 90.59765625 84.51953125 C90.56007202 85.59847656 90.56007202 85.59847656 90.52172852 86.69921875 C90.21875 88.64453125 90.21875 88.64453125 88.21875 91.64453125 C86.01757812 92.02548218 86.01757812 92.02548218 83.25 92.03271484 C82.21552734 92.04217133 81.18105469 92.05162781 80.11523438 92.06137085 C78.99439453 92.05529816 77.87355469 92.04922546 76.71875 92.04296875 C74.99881836 92.04727402 74.99881836 92.04727402 73.24414062 92.05166626 C70.81640124 92.05371058 68.38864551 92.04815518 65.9609375 92.03564453 C62.23400216 92.01959692 58.50815141 92.03548174 54.78125 92.0546875 C52.42708093 92.05270513 50.07291253 92.0488616 47.71875 92.04296875 C46.59791016 92.04904144 45.47707031 92.05511414 44.32226562 92.06137085 C42.77055664 92.04718613 42.77055664 92.04718613 41.1875 92.03271484 C39.81754883 92.02913467 39.81754883 92.02913467 38.41992188 92.02548218 C37.69353516 91.89976837 36.96714844 91.77405457 36.21875 91.64453125 C34.21132474 88.63339336 33.96963247 88.00348232 33.91015625 84.625 C33.88501953 83.84962891 33.85988281 83.07425781 33.83398438 82.27539062 C33.79908266 80.65827781 33.76777886 79.04108298 33.74023438 77.42382812 C33.57160367 72.45127888 32.94870259 68.96258126 30.21875 64.64453125 C25.64910665 60.52070677 23.16149315 59.52814493 17.07421875 59.43359375 C15.83994141 59.40523438 14.60566406 59.376875 13.33398438 59.34765625 C10.72735323 59.29580879 8.12056135 59.25146839 5.51367188 59.21484375 C4.27552734 59.18390625 3.03738281 59.15296875 1.76171875 59.12109375 C0.62758545 59.10127441 -0.50654785 59.08145508 -1.67504883 59.06103516 C-5.17986222 58.59108219 -7.03050227 57.85737249 -9.78125 55.64453125 C-12.56440492 51.17722155 -12.06981476 46.02023323 -12.046875 40.92578125 C-12.04878845 39.99028442 -12.0507019 39.0547876 -12.05267334 38.09094238 C-12.05403143 36.1174289 -12.05036128 34.14390636 -12.04199219 32.17041016 C-12.03128741 29.1550687 -12.04190029 26.140323 -12.0546875 23.125 C-12.05336584 21.20442577 -12.05080331 19.28385191 -12.046875 17.36328125 C-12.05092346 16.46420044 -12.05497192 15.56511963 -12.05914307 14.63879395 C-12.01951237 9.33081276 -11.7178309 5.20456982 -8.41015625 0.83203125 C-5.6268345 -1.19705703 -3.28756079 -0.42983913 0 0 Z " fill="#393A54" transform="translate(193.78125,420.35546875)"/>
<path d="M0 0 C3.6689493 1.12453039 7.20176074 2.55067064 10.7578125 3.98828125 C12.33143303 4.6100676 12.33143303 4.6100676 13.93684387 5.24441528 C17.33694021 6.59050593 20.7310698 7.95094556 24.125 9.3125 C26.44702509 10.23721827 28.76937275 11.16112694 31.09204102 12.08422852 C34.54254277 13.45584948 37.99267355 14.82833371 41.44111633 16.2051239 C47.75982696 18.72565453 54.09132051 21.20230815 60.45703125 23.6015625 C61.7687776 24.09969515 63.0804671 24.59797752 64.39208984 25.09643555 C66.68377983 25.96327573 68.97946596 26.81965567 71.27978516 27.66333008 C80.50930377 31.18961056 80.50930377 31.18961056 83 36 C83.54296875 38.55859375 83.54296875 38.55859375 83 41 C80.98828125 43.09765625 80.98828125 43.09765625 78.3125 45.0625 C77.00732422 46.03896484 77.00732422 46.03896484 75.67578125 47.03515625 C74.79277344 47.68355469 73.90976562 48.33195312 73 49 C71.3299831 50.32913473 69.66283969 51.66189697 68 53 C69.00675781 53.50337891 70.01351562 54.00675781 71.05078125 54.52539062 C77.29947917 57.64973958 83.54817708 60.77408854 89.796875 63.8984375 C90.58416992 64.29200439 91.37146484 64.68557129 92.18261719 65.09106445 C93.76946626 65.88465178 95.35605489 66.67876011 96.94238281 67.47338867 C100.85147848 69.43075518 104.76449642 71.37923422 108.6875 73.30859375 C109.42540771 73.67303589 110.16331543 74.03747803 110.92358398 74.41296387 C112.31469417 75.09962703 113.70735982 75.78315101 115.10180664 76.4630127 C117.76268709 77.77956342 119.88514688 78.88514688 122 81 C122.26991906 83.68839385 122.08737357 86.29141936 122 89 C115.33793873 92.53737767 108.43056016 95.31604828 101.39086914 98.00146484 C99.43374818 98.7514377 97.48367556 99.51808628 95.53320312 100.28515625 C94.27123143 100.76926819 93.00887404 101.25237616 91.74609375 101.734375 C90.61872803 102.16975586 89.4913623 102.60513672 88.32983398 103.05371094 C83.79105606 104.3435638 79.9552625 104.85974559 75.55419922 102.92456055 C74.81186035 102.41707275 74.06952148 101.90958496 73.3046875 101.38671875 C72.4381958 100.80736572 71.5717041 100.2280127 70.67895508 99.63110352 C69.29099731 98.66901978 69.29099731 98.66901978 67.875 97.6875 C65.83502426 96.31452625 63.79463918 94.94216054 61.75390625 93.5703125 C60.66867676 92.83329102 59.58344727 92.09626953 58.46533203 91.33691406 C52.92273283 87.58448221 47.3038158 83.94742067 41.69708252 80.29190063 C36.45675401 76.87339116 31.22648557 73.4396267 26 70 C25.42811951 69.62429871 24.85623901 69.24859741 24.26702881 68.86151123 C22.59688141 67.76313558 20.92925443 66.66093044 19.26171875 65.55859375 C18.29580811 64.92107178 17.32989746 64.2835498 16.3347168 63.62670898 C13.25543566 61.48122637 12.15863417 60.6477562 11.25 56.9375 C11.3126291 53.93756621 11.99680498 53.00360828 14.0234375 50.71484375 C16.6181475 48.38116314 19.27134051 46.17524123 22 44 C24.00589331 42.34031335 26.00233649 40.66960147 28 39 C20.17794597 32.22400909 12.05275165 25.98687835 3.67651367 19.91162109 C1.44126013 18.28711914 -0.78280574 16.64904311 -3 15 C-3.62156982 14.54407471 -4.24313965 14.08814941 -4.88354492 13.6184082 C-8.81324084 10.58560075 -8.81324084 10.58560075 -9.69140625 7.83203125 C-9.56670529 5.87838286 -9.28573653 3.93665872 -9 2 C-5.35547326 -0.4296845 -4.32327986 -0.4643119 0 0 Z " fill="#417CB8" transform="translate(390,344)"/>
<path d="M0 0 C3 2 3 2 3.875 5.5625 C3.71914316 8.56677488 3.21294474 9.75829148 1.20703125 12.03515625 C-1.15000867 13.99022037 -3.55855505 15.83038089 -6.05126953 17.60888672 C-9.13732342 19.81188535 -12.17811502 22.07596412 -15.22729492 24.32958984 C-16.87519435 25.54322719 -18.52753285 26.75086633 -20.18481445 27.95166016 C-24.98717497 31.44112728 -29.54525471 35.07529793 -34 39 C-33.55084229 39.38857178 -33.10168457 39.77714355 -32.63891602 40.17749023 C-30.61310199 41.93043202 -28.58779476 43.6839583 -26.5625 45.4375 C-25.85544922 46.04916016 -25.14839844 46.66082031 -24.41992188 47.29101562 C-23.74638672 47.87431641 -23.07285156 48.45761719 -22.37890625 49.05859375 C-21.44413452 49.86768188 -21.44413452 49.86768188 -20.49047852 50.69311523 C-18.02987446 52.85062768 -18.02987446 52.85062768 -17.375 56.125 C-18.05161829 60.32003339 -18.21079944 60.68771361 -21.3125 63.1875 C-27.75103493 67.70968359 -34.505671 71.80482395 -41.1796875 75.96875 C-45.25077297 78.51577172 -49.26540437 81.13273888 -53.25 83.8125 C-54.11455811 84.38907349 -54.11455811 84.38907349 -54.99658203 84.97729492 C-57.93133693 86.93523257 -60.85824917 88.90317689 -63.77148438 90.89306641 C-66.83797073 92.98506734 -69.91818545 95.05566387 -73 97.125 C-73.98000977 97.80151611 -74.96001953 98.47803223 -75.96972656 99.17504883 C-76.9078418 99.80048584 -77.84595703 100.42592285 -78.8125 101.0703125 C-80.05966797 101.91746826 -80.05966797 101.91746826 -81.33203125 102.78173828 C-86.09886069 104.95839265 -90.25855846 104.39780707 -95.08349609 102.73071289 C-96.56827412 102.15695812 -98.04811939 101.57031567 -99.5234375 100.97265625 C-100.31021881 100.66428329 -101.09700012 100.35591034 -101.90762329 100.03819275 C-104.40127036 99.0573227 -106.8879195 98.05988528 -109.375 97.0625 C-111.06860522 96.39545468 -112.76261217 95.72942837 -114.45703125 95.06445312 C-116.06285563 94.43058771 -117.66833719 93.79585296 -119.2734375 93.16015625 C-120.03377289 92.85908463 -120.79410828 92.558013 -121.57748413 92.24781799 C-126.88110605 90.11889395 -126.88110605 90.11889395 -128 89 C-128.56381487 83.26788219 -128.56381487 83.26788219 -128 81 C-124.32503715 77.64276473 -120.2824677 75.46890072 -115.8203125 73.35546875 C-115.13049286 73.02259354 -114.44067322 72.68971832 -113.72994995 72.34675598 C-111.53114354 71.28763053 -109.3281599 70.23753414 -107.125 69.1875 C-105.68462138 68.49471096 -104.24451485 67.80135591 -102.8046875 67.10742188 C-99.25036906 65.39730244 -95.69032043 63.69962096 -92.12658691 62.00921631 C-90.68994852 61.3274295 -89.25401115 60.64416386 -87.81872559 59.95953369 C-85.732598 58.96508304 -83.64404688 57.97592041 -81.5546875 56.98828125 C-80.92217072 56.6860112 -80.28965393 56.38374115 -79.63796997 56.0723114 C-75.22921072 54 -75.22921072 54 -73 54 C-75.98429059 50.84558358 -79.15226919 48.328225 -82.6875 45.8125 C-87.93055556 42.06944444 -87.93055556 42.06944444 -89 41 C-88.53050836 34.6618628 -88.53050836 34.6618628 -86.70559692 32.38510132 C-84.83764581 30.86815349 -83.20351543 30.07747998 -80.96044922 29.21337891 C-80.14510712 28.89475891 -79.32976501 28.57613892 -78.48971558 28.24786377 C-77.60365631 27.91083435 -76.71759705 27.57380493 -75.8046875 27.2265625 C-74.87633087 26.86600769 -73.94797424 26.50545288 -72.9914856 26.13397217 C-69.95553363 24.95671808 -66.91543458 23.79062286 -63.875 22.625 C-60.73658147 21.41361707 -57.59901421 20.20004749 -54.46148682 18.98635864 C-52.35293921 18.17098372 -50.2440099 17.35659519 -48.13470459 16.54318237 C-41.67706848 14.04984843 -35.24002347 11.51119423 -28.8203125 8.921875 C-27.30096749 8.31162773 -25.7815998 7.70143694 -24.26220703 7.09130859 C-22.14982458 6.24259788 -20.03893745 5.39093653 -17.93206787 4.52862549 C-16.02075571 3.74691833 -14.10482975 2.97774058 -12.1875 2.2109375 C-10.60001953 1.56584229 -10.60001953 1.56584229 -8.98046875 0.90771484 C-5.77347124 -0.06899033 -3.33246863 -0.31314515 0 0 Z " fill="#427CB7" transform="translate(128,344)"/>
<path d="M0 0 C1.24751339 0.47360646 2.49127656 0.95718881 3.73144531 1.44970703 C4.39871643 1.7075296 5.06598755 1.96535217 5.753479 2.23098755 C7.1500265 2.77297562 8.54485798 3.31940498 9.93798828 3.87011719 C12.0639531 4.70924945 14.19587521 5.53157911 16.32910156 6.35205078 C28.4498389 11.07685786 28.4498389 11.07685786 31.30957031 13.83251953 C31.74707031 17.33251953 31.74707031 17.33251953 31.30957031 20.83251953 C28.48359728 24.27499692 24.59227732 25.88863969 20.66894531 27.81689453 C19.90970764 28.19557678 19.15046997 28.57425903 18.3682251 28.9644165 C16.75566761 29.76733446 15.14167377 30.56737319 13.52636719 31.36474609 C11.10732158 32.55894636 8.69245395 33.76123829 6.27832031 34.96533203 C-3.31085443 39.73551382 -12.96033766 44.35703959 -22.69042969 48.83251953 C-19.80623121 51.80162612 -17.02417598 53.96569576 -13.50292969 56.14501953 C-9.93529426 58.60073314 -8.86968069 59.35180093 -7.31542969 63.52001953 C-7.77184908 67.55172418 -8.65754774 68.26379137 -11.69042969 70.83251953 C-14.00415039 72.05834961 -14.00415039 72.05834961 -16.61621094 73.10205078 C-18.12417236 73.71185791 -18.12417236 73.71185791 -19.66259766 74.33398438 C-20.76490723 74.76662598 -21.8672168 75.19926758 -23.00292969 75.64501953 C-24.16195801 76.10859863 -25.32098633 76.57217773 -26.51513672 77.04980469 C-41.33631291 82.96037767 -56.24741901 88.65275184 -71.1579895 94.33322144 C-74.64426765 95.66196775 -78.12608812 96.99920865 -81.5949707 98.37280273 C-83.32638306 99.05475708 -83.32638306 99.05475708 -85.09277344 99.75048828 C-86.08269287 100.14518311 -87.0726123 100.53987793 -88.0925293 100.9465332 C-91.58113986 102.13628677 -94.05682429 102.39774704 -97.69042969 101.83251953 C-99.69042969 99.83251953 -99.69042969 99.83251953 -100.12792969 96.52001953 C-99.49569288 91.1911664 -96.48057921 89.27063211 -92.48803711 86.06323242 C-89.86497392 84.02432805 -87.21991342 82.01783216 -84.56542969 80.02001953 C-83.62997314 79.31167969 -82.6945166 78.60333984 -81.73071289 77.87353516 C-75.43765887 73.11861311 -69.11612941 68.40725657 -62.69042969 63.83251953 C-66.64161131 59.61792581 -71.01422607 56.13526286 -75.58105469 52.60205078 C-78.23491007 50.37576098 -78.60796628 49.45099511 -79.06542969 46.02001953 C-78.57913946 41.88655256 -76.78487987 40.35025291 -73.69042969 37.83251953 C-70.36975649 35.52208244 -66.94373559 33.39605796 -63.50292969 31.27001953 C-61.51104709 30.02160916 -59.52017469 28.77158565 -57.53027344 27.52001953 C-56.04696533 26.58802734 -56.04696533 26.58802734 -54.53369141 25.63720703 C-50.50137305 23.07779631 -46.52833886 20.43522021 -42.56542969 17.77001953 C-35.97304433 13.34414228 -29.34671506 8.9742866 -22.69042969 4.64501953 C-21.82272949 4.07968506 -20.9550293 3.51435059 -20.06103516 2.93188477 C-19.25811035 2.41053955 -18.45518555 1.88919434 -17.62792969 1.35205078 C-16.91507812 0.88903564 -16.20222656 0.42602051 -15.46777344 -0.05102539 C-10.3647518 -3.2565361 -5.47966097 -1.7335101 0 0 Z " fill="#417CB8" transform="translate(480.6904296875,200.16748046875)"/>
<path d="M0 0 C0.61665527 0.41846191 1.23331055 0.83692383 1.86865234 1.26806641 C2.59930908 1.75364014 3.32996582 2.23921387 4.08276367 2.73950195 C4.86546631 3.27744385 5.64816895 3.81538574 6.45458984 4.36962891 C8.22123208 5.55104455 9.98817849 6.73200543 11.75537109 7.91259766 C13.19904053 8.88592041 13.19904053 8.88592041 14.671875 9.87890625 C19.99684949 13.44672973 25.37228506 16.937209 30.74029541 20.43978882 C34.45417025 22.86586364 38.16126792 25.30226558 41.86895752 27.73777771 C45.23715529 29.95009149 48.60849772 32.15750121 51.98193359 34.36181641 C53.34807813 35.25985985 54.71399299 36.15825285 56.07958984 37.05712891 C56.67489502 37.44408936 57.2702002 37.8310498 57.88354492 38.22973633 C61.71494138 40.76533199 61.71494138 40.76533199 62.82958984 42.99462891 C63.20458984 45.80712891 63.20458984 45.80712891 62.82958984 48.99462891 C59.53788292 52.64943551 55.83861405 55.72228407 52.01708984 58.80712891 C51.04126953 59.59732422 50.06544922 60.38751953 49.06005859 61.20166016 C47.95597656 62.08917969 47.95597656 62.08917969 46.82958984 62.99462891 C51.07629027 67.55875946 55.84923048 71.10007572 60.89208984 74.74462891 C62.5889013 75.98394274 64.2855158 77.22352627 65.98193359 78.46337891 C66.80677246 79.06408203 67.63161133 79.66478516 68.48144531 80.28369141 C71.64861938 82.59140152 74.80762345 84.90944858 77.95458984 87.24462891 C78.88529297 87.93041016 79.81599609 88.61619141 80.77490234 89.32275391 C82.82958984 90.99462891 82.82958984 90.99462891 83.82958984 92.99462891 C84.01708984 96.49462891 84.01708984 96.49462891 83.82958984 99.99462891 C81.82958984 101.99462891 81.82958984 101.99462891 78.69262695 102.28955078 C74.43642488 101.9646129 70.93800372 100.85013089 67.02099609 99.27587891 C66.27303772 98.98618729 65.52507935 98.69649567 64.75445557 98.39802551 C62.29554725 97.44199528 59.84381906 96.46890747 57.39208984 95.49462891 C55.67518425 94.82093555 53.95797521 94.14801506 52.24047852 93.47583008 C48.63115101 92.06029119 45.02520832 90.63652702 41.42138672 89.20703125 C36.72618019 87.34580988 32.02265404 85.5067317 27.31617737 83.67422485 C23.64054535 82.24095453 19.96890041 80.79768779 16.29830933 79.3515625 C14.534156 78.65789204 12.7687992 77.96727415 11.00222778 77.27978516 C8.53037042 76.31599253 6.06423843 75.33879095 3.59912109 74.35791016 C2.86856506 74.07615433 2.13800903 73.7943985 1.38531494 73.50410461 C-2.56863383 71.91248268 -5.53727148 70.39832027 -8.17041016 66.99462891 C-8.73546945 62.79704555 -8.73546945 62.79704555 -7.17041016 59.99462891 C-4.52160936 57.67426235 -1.77302713 55.72986438 1.16552734 53.79150391 C3.37357275 52.30220642 5.00451607 50.8938818 6.82958984 48.99462891 C6.28359131 48.72789368 5.73759277 48.46115845 5.17504883 48.18634033 C-0.53586021 45.39631528 -6.24651702 42.60577445 -11.95703125 39.81494141 C-14.08489698 38.77509698 -16.21282581 37.73538165 -18.34082031 36.69580078 C-21.40918529 35.19679609 -24.47731895 33.69731884 -27.54541016 32.19775391 C-28.95995483 31.5068869 -28.95995483 31.5068869 -30.40307617 30.80206299 C-32.17391401 29.93633325 -33.94375149 29.06855319 -35.71240234 28.19836426 C-37.32829781 27.40702809 -38.94866714 26.62475129 -40.57373047 25.85241699 C-46.06230291 23.21084339 -46.06230291 23.21084339 -47.17041016 20.99462891 C-47.60791016 17.61962891 -47.60791016 17.61962891 -47.17041016 13.99462891 C-43.08942985 10.76002242 -38.66392112 8.77383233 -33.83056641 6.94384766 C-33.14538437 6.68078323 -32.46020233 6.41771881 -31.7542572 6.14668274 C-30.31450592 5.59742892 -28.87319442 5.05224899 -27.43041992 4.51098633 C-25.23593636 3.68327033 -23.05212038 2.83085179 -20.86767578 1.97705078 C-19.46005506 1.44361037 -18.05186922 0.91165832 -16.64306641 0.38134766 C-15.99805679 0.12624924 -15.35304718 -0.12884918 -14.68849182 -0.39167786 C-9.43637608 -2.3157481 -5.11368247 -2.36874515 0 0 Z " fill="#427CB8" transform="translate(47.17041015625,200.00537109375)"/>
</svg>
