<?xml version="1.0" encoding="UTF-8"?>
<svg version="1.1" xmlns="http://www.w3.org/2000/svg" width="512" height="512">
<path d="M0 0 C7.38424143 4.38263184 11.18000502 10.89622161 14.546875 18.52734375 C15.20150959 19.98568814 15.85903824 21.44273706 16.51953125 22.8984375 C16.83776855 23.60202393 17.15600586 24.30561035 17.48388672 25.03051758 C18.4693588 27.05893559 19.57350845 28.95390777 20.74609375 30.87890625 C22.87105306 34.80411199 22.5270274 36.83234646 21.484375 41.08984375 C26.3509208 44.43153853 31.11762433 47.6128819 36.484375 50.08984375 C36.79375 49.45046875 37.103125 48.81109375 37.421875 48.15234375 C38.484375 46.08984375 38.484375 46.08984375 39.484375 45.08984375 C52.74675719 44.27266667 65.00719644 44.39309521 75.71484375 53.3125 C83.59789061 61.2303506 89.484375 76.82958084 89.484375 88.08984375 C90.92077671 88.28557983 92.35857004 88.47112191 93.796875 88.65234375 C94.59738281 88.75675781 95.39789063 88.86117187 96.22265625 88.96875 C98.65254616 89.23739553 98.65254616 89.23739553 101.484375 88.08984375 C102.27575142 85.42082898 102.88576611 82.87339803 103.421875 80.15234375 C105.78211285 69.30315472 108.4902043 58.29211948 117.84765625 51.33203125 C125.07264188 46.79311767 131.81002953 45.03104675 140.296875 44.21484375 C153.08977655 42.73512265 161.70298189 38.47113657 169.94140625 28.2890625 C172.05789929 25.09662651 173.66884945 21.70964521 175.27734375 18.2421875 C182.13322491 3.62687162 182.13322491 3.62687162 189.484375 0.08984375 C196.08378716 -2.1099603 205.69869929 -2.25055519 212.109375 0.71484375 C217.91815483 4.30595492 221.43197573 9.65588948 223.484375 16.08984375 C223.76125469 18.81249407 223.90663318 21.29413149 223.8828125 24.0078125 C223.88568268 24.74630936 223.88855286 25.48480621 223.89151001 26.24568176 C223.89354025 27.80124686 223.88808355 29.35683809 223.87548828 30.91235352 C223.8595339 33.25402189 223.87531145 35.59393412 223.89453125 37.93554688 C223.91332625 49.68554394 222.69235663 60.31339164 216.671875 70.65234375 C216.32511719 71.27439697 215.97835938 71.8964502 215.62109375 72.53735352 C214.92134872 73.79133133 214.21623022 75.04232805 213.50537109 76.29003906 C211.95966911 79.01479158 210.47521602 81.77229788 208.984375 84.52734375 C208.15178829 86.04858595 207.31877367 87.56959465 206.484375 89.08984375 C207.27199219 89.115625 208.05960937 89.14140625 208.87109375 89.16796875 C223.96266069 89.95380182 237.2048089 94.14307406 247.796875 105.33984375 C286.42918923 150.88312654 309.56917493 206.64427383 304.98046875 267.06640625 C302.64400953 292.55784093 296.36426069 316.90782891 285.484375 340.08984375 C285.19594727 340.71455566 284.90751953 341.33926758 284.61035156 341.98291016 C277.38030923 357.38365961 267.13111122 366.54401572 251.84765625 373.24609375 C238.09697932 377.90880367 221.38733075 376.30685995 208.484375 370.08984375 C196.86826358 363.38194842 189.29024843 353.87545479 182.73364258 342.4387207 C179.63702818 337.11391261 176.13923367 331.91727309 170.484375 329.08984375 C170.50532227 329.6945752 170.52626953 330.29930664 170.54785156 330.92236328 C170.63146445 333.68635146 170.68317554 336.45007288 170.734375 339.21484375 C170.76789063 340.16617187 170.80140625 341.1175 170.8359375 342.09765625 C170.91771335 347.9855176 170.49786228 351.45154618 166.484375 356.08984375 C162.55426437 359.91653042 161.28180795 360.12360492 155.484375 361.08984375 C155.484375 366.03984375 155.484375 370.98984375 155.484375 376.08984375 C157.464375 376.41984375 159.444375 376.74984375 161.484375 377.08984375 C163.53125 378.359375 163.53125 378.359375 165.234375 379.90234375 C165.80671875 380.40378906 166.3790625 380.90523438 166.96875 381.421875 C170.85873667 385.70286548 170.80463208 390.00398892 170.8203125 395.58203125 C170.8269693 396.40559113 170.8336261 397.229151 170.84048462 398.07766724 C170.85059503 399.81754325 170.85530214 401.55745792 170.85498047 403.29736328 C170.85934873 405.94889783 170.89566965 408.59876032 170.93359375 411.25 C170.9394634 412.94400475 170.9434318 414.63801737 170.9453125 416.33203125 C170.95968353 417.11971893 170.97405457 417.90740662 170.98886108 418.71896362 C170.94557113 423.97731186 169.91167181 426.89039853 166.484375 431.08984375 C162.55426437 434.91653042 161.28180795 435.12360492 155.484375 436.08984375 C155.484375 441.03984375 155.484375 445.98984375 155.484375 451.08984375 C157.464375 451.41984375 159.444375 451.74984375 161.484375 452.08984375 C163.53125 453.359375 163.53125 453.359375 165.234375 454.90234375 C165.80671875 455.40378906 166.3790625 455.90523438 166.96875 456.421875 C170.85873667 460.70286548 170.80463208 465.00398892 170.8203125 470.58203125 C170.8269693 471.40559113 170.8336261 472.229151 170.84048462 473.07766724 C170.85059503 474.81754325 170.85530214 476.55745792 170.85498047 478.29736328 C170.85934873 480.94889783 170.89566965 483.59876032 170.93359375 486.25 C170.9394634 487.94400475 170.9434318 489.63801737 170.9453125 491.33203125 C170.95968353 492.11971893 170.97405457 492.90740662 170.98886108 493.71896362 C170.94560774 498.97286479 169.92568661 501.90408193 166.484375 506.08984375 C162.27891429 509.79465438 159.98341206 511.21158946 154.42486572 511.23701477 C153.35377563 511.24417007 152.28268555 511.25132538 151.17913818 511.25869751 C149.99886047 511.26138641 148.81858276 511.26407532 147.60253906 511.2668457 C146.36342773 511.2734169 145.12431641 511.2799881 143.84765625 511.28675842 C139.73176841 511.30652954 135.61591959 511.31816255 131.5 511.328125 C130.08298472 511.33217247 128.66596965 511.33628939 127.24895477 511.34047508 C120.59077127 511.35952971 113.93259886 511.3737593 107.27439332 511.38208705 C99.59051448 511.39185637 91.90692394 511.41816644 84.22314668 511.45858794 C78.2833565 511.48876161 72.34364889 511.50355716 66.40378356 511.50686806 C62.85662663 511.50921748 59.3097776 511.51816284 55.76270294 511.54332924 C51.80297146 511.57096885 47.84361823 511.56677494 43.88378906 511.55981445 C42.71160828 511.57262451 41.53942749 511.58543457 40.33172607 511.59863281 C32.38043105 511.54762219 28.88412395 510.4895927 23.234375 504.83984375 C18.6462882 497.62999306 19.17824759 489.34057341 19.234375 481.08984375 C19.22664062 479.95289063 19.21890625 478.8159375 19.2109375 477.64453125 C19.24781539 461.75015959 19.24781539 461.75015959 24.359375 456.21484375 C24.85179687 455.66054688 25.34421875 455.10625 25.8515625 454.53515625 C28.67414452 452.03669848 30.69824836 451.08984375 34.484375 451.08984375 C34.484375 446.13984375 34.484375 441.18984375 34.484375 436.08984375 C32.834375 435.75984375 31.184375 435.42984375 29.484375 435.08984375 C27.53515625 433.8203125 27.53515625 433.8203125 25.796875 432.27734375 C25.21550781 431.77589844 24.63414062 431.27445312 24.03515625 430.7578125 C18.00240166 424.26918225 19.30147848 414.45507382 19.296875 406.21484375 C19.28462891 405.06886719 19.27238281 403.92289062 19.25976562 402.7421875 C19.23219064 386.76707966 19.23219064 386.76707966 24.359375 381.21484375 C24.85179687 380.66054688 25.34421875 380.10625 25.8515625 379.53515625 C28.67414452 377.03669848 30.69824836 376.08984375 34.484375 376.08984375 C34.484375 371.13984375 34.484375 366.18984375 34.484375 361.08984375 C32.834375 360.75984375 31.184375 360.42984375 29.484375 360.08984375 C27.53515625 358.8203125 27.53515625 358.8203125 25.796875 357.27734375 C25.21550781 356.77589844 24.63414062 356.27445312 24.03515625 355.7578125 C21.1008408 352.60176037 20.23147492 349.55752859 19.8515625 345.32421875 C19.76777344 344.43476563 19.68398437 343.5453125 19.59765625 342.62890625 C19.51902344 341.70851563 19.44039062 340.788125 19.359375 339.83984375 C19.27300781 338.90398437 19.18664062 337.968125 19.09765625 337.00390625 C18.88605192 334.69977022 18.68188823 332.39522331 18.484375 330.08984375 C13.58065593 334.62116189 9.93584758 339.13291642 6.609375 344.90234375 C-2.42430273 359.87500403 -13.33788886 369.68702152 -30.39916992 374.63623047 C-45.22668165 377.81416527 -60.53096611 374.88257635 -73.14453125 366.76953125 C-82.56497302 360.09607168 -90.8901754 351.31944148 -94.515625 340.08984375 C-94.08337932 333.93034279 -94.08337932 333.93034279 -92.3203125 331.3203125 C-91.07558518 327.87012173 -92.57164687 325.19567402 -93.890625 321.96484375 C-96.515625 315.25195312 -96.515625 315.25195312 -96.515625 313.08984375 C-97.60875 313.00734375 -98.701875 312.92484375 -99.828125 312.83984375 C-103.515625 312.08984375 -103.515625 312.08984375 -105.16381836 310.3215332 C-106.54149852 308.04712931 -107.22060024 306.21105407 -107.83203125 303.6328125 C-108.03795898 302.7759082 -108.24388672 301.91900391 -108.45605469 301.03613281 C-108.66133789 300.12573242 -108.86662109 299.21533203 -109.078125 298.27734375 C-109.29500977 297.32956055 -109.51189453 296.38177734 -109.73535156 295.40527344 C-121.13069991 244.37693812 -112.27824542 188.34913142 -84.60644531 143.80712891 C-78.30544978 133.88743272 -71.37752469 124.42517717 -64.328125 115.02734375 C-63.67521484 114.1468335 -63.02230469 113.26632324 -62.34960938 112.35913086 C-54.24586042 101.68572636 -44.21479632 93.22326829 -30.73828125 90.390625 C-25.68644769 89.70698496 -20.6027218 89.38452314 -15.515625 89.08984375 C-16.01191406 88.16945313 -16.50820312 87.2490625 -17.01953125 86.30078125 C-18.82874187 82.93595417 -20.6225109 79.56316816 -22.40771484 76.18554688 C-23.11939873 74.83933831 -23.83309635 73.49419132 -24.54931641 72.15039062 C-25.50791585 70.34429241 -26.45118879 68.53096902 -27.390625 66.71484375 C-27.94492188 65.65523438 -28.49921875 64.595625 -29.0703125 63.50390625 C-32.87943534 54.5061404 -32.88822999 45.5553799 -32.88623047 35.95166016 C-32.89061606 33.59464869 -32.92706224 31.23949572 -32.96484375 28.8828125 C-33.03097614 20.15719984 -33.08152851 11.93976301 -26.76513672 5.23046875 C-19.56740463 -1.50269192 -9.38642603 -3.3960206 0 0 Z " fill="#010101" transform="translate(160.515625,0.91015625)"/>
<path d="M0 0 C9.57077591 7.83561616 12.88468582 17.2975492 15.97705078 28.87109375 C17.26247231 33.5972536 18.66535274 38.28951019 20.046875 42.98828125 C20.64639745 45.04280422 21.24534898 47.09749387 21.84375 49.15234375 C22.14474609 50.18520508 22.44574219 51.21806641 22.75585938 52.28222656 C23.36653646 54.37792969 23.97721354 56.47363281 24.58789062 58.56933594 C24.88888672 59.60219727 25.18988281 60.63505859 25.5 61.69921875 C25.7980957 62.72265381 26.09619141 63.74608887 26.40332031 64.80053711 C26.99479339 66.82786764 27.58786931 68.85473128 28.18261719 70.88110352 C29.50454014 75.38871141 30.81003065 79.89792618 32.046875 84.4296875 C35.81066437 98.35828832 35.81066437 98.35828832 45.671875 108.42578125 C51.55574243 111.72074701 56.98109038 112.39079826 63.671875 111.42578125 C70.58255841 109.19172411 75.77460421 105.55651933 79.671875 99.42578125 C83.25038289 91.71815056 83.08754203 84.02838387 83.0234375 75.68945312 C83.15474347 67.3898219 83.15474347 67.3898219 86.08984375 63.8046875 C89.38851464 60.76551871 91.11761065 59.62851138 95.546875 59.05078125 C100.22084488 59.61165764 103.19386803 61.79450758 106.32226562 65.24731445 C107.94957724 67.87403325 108.05352277 69.4590468 108.078125 72.53125 C108.11099609 74.00754883 108.11099609 74.00754883 108.14453125 75.51367188 C108.15355469 76.53654297 108.16257812 77.55941406 108.171875 78.61328125 C108.26752107 89.2504905 109.13781693 97.75393764 116.73046875 105.6953125 C122.26184501 110.62569416 127.47271838 112.12245095 134.86328125 111.8046875 C142.24063633 110.8094115 147.76564183 108.26288692 152.41796875 102.40234375 C156.02265387 96.72019213 157.75683824 90.9988582 159.421875 84.55078125 C159.94738393 82.57112661 160.47479476 80.59197606 161.00390625 78.61328125 C161.2767041 77.59234375 161.54950195 76.57140625 161.83056641 75.51953125 C164.01653711 67.48104582 166.41531355 59.5017504 168.76757812 51.51074219 C169.69660752 48.34140757 170.61531153 45.16923488 171.53125 41.99609375 C172.98279139 36.96844721 174.45041408 31.94584923 175.93457031 26.92773438 C176.38423397 25.40185583 176.82992896 23.87479116 177.26855469 22.34570312 C180.5454429 10.94729647 186.31358461 2.63051861 196.734375 -3.32421875 C198.1884375 -3.94296875 198.1884375 -3.94296875 199.671875 -4.57421875 C200.579375 -4.96609375 201.486875 -5.35796875 202.421875 -5.76171875 C211.51819865 -8.03579966 220.12239337 -6.54102557 228.32421875 -2.15625 C236.49216929 3.15233192 241.6543548 10.39832753 247.14697266 18.25830078 C248.65189131 20.39737664 250.19262953 22.50536582 251.74609375 24.609375 C268.31338145 47.22851927 279.60703535 72.17681824 285.859375 99.48828125 C286.01438477 100.15931885 286.16939453 100.83035645 286.32910156 101.52172852 C289.03744832 113.99398985 290.05282634 126.37210224 289.984375 139.11328125 C289.98288452 139.80655518 289.98139404 140.4998291 289.9798584 141.21411133 C289.93522458 152.82556712 289.11066504 164.05439709 286.671875 175.42578125 C286.53265625 176.09851074 286.3934375 176.77124023 286.25 177.46435547 C281.88624724 198.03561127 275.1263526 228.10996036 257.3671875 241.11328125 C247.73301991 247.35598175 238.11950984 249.64097047 226.671875 248.42578125 C214.67224691 245.7627198 206.40481063 238.41870274 199.671875 228.42578125 C198.70087793 226.78738727 197.7426151 225.14138312 196.796875 223.48828125 C187.87246117 208.30029465 173.51210702 198.59281664 157.0703125 193.00390625 C150.24689003 191.3591725 143.40102142 191.27309684 136.4230957 191.26464844 C135.42843796 191.25968353 134.43378021 191.25471863 133.40898132 191.24960327 C130.13853243 191.23507271 126.86813204 191.22819474 123.59765625 191.22265625 C122.4738323 191.21982887 121.35000835 191.2170015 120.19212914 191.21408844 C114.24437604 191.19913231 108.29664698 191.18988038 102.34887695 191.18554688 C96.23409825 191.18006886 90.11954295 191.15604445 84.00483418 191.12757492 C79.276783 191.10886606 74.54878475 191.10373855 69.82069969 191.102211 C67.56786059 191.09920235 65.31502201 191.09123499 63.06221962 191.07802582 C41.39176602 190.96003408 23.55085918 193.40720615 6.671875 208.42578125 C5.75341797 209.22242188 5.75341797 209.22242188 4.81640625 210.03515625 C0.48876489 214.04753897 -2.49592119 218.57345006 -5.578125 223.58203125 C-12.83729039 235.37817501 -19.56478777 242.59702155 -32.515625 247.67578125 C-43.77788422 249.89130765 -53.33496444 248.5382903 -63.2109375 242.73046875 C-70.81430109 237.6132186 -76.32942843 231.51337252 -79.703125 222.92578125 C-80.239375 222.10078125 -80.775625 221.27578125 -81.328125 220.42578125 C-83.38128333 220.00259848 -83.38128333 220.00259848 -85.703125 219.80078125 C-88.1015625 219.43359375 -88.1015625 219.43359375 -90.328125 218.42578125 C-93.79595538 213.06936718 -95.73749099 206.76828183 -96.328125 200.42578125 C-95.68875 199.80703125 -95.049375 199.18828125 -94.390625 198.55078125 C-91.97990412 196.49368023 -91.97990412 196.49368023 -91.890625 192.92578125 C-92.06378893 189.53671568 -92.77115912 186.45015275 -93.640625 183.17578125 C-100.36330352 157.27746257 -100.75703592 128.6259255 -95.328125 102.42578125 C-95.18358887 101.72291992 -95.03905273 101.02005859 -94.89013672 100.29589844 C-93.89078551 95.61455223 -92.6754301 91.01809938 -91.328125 86.42578125 C-91.12880371 85.73484375 -90.92948242 85.04390625 -90.72412109 84.33203125 C-83.02989181 58.1752056 -69.21488221 36.0209357 -52.87158203 14.47558594 C-51.5720568 12.74973749 -50.30376597 11.00043381 -49.04296875 9.24609375 C-43.74120174 2.08272066 -36.95131031 -3.46742709 -28.265625 -6.01171875 C-17.49711582 -7.5500772 -9.228091 -6.23979979 0 0 Z " fill="#E07E84" transform="translate(160.328125,112.57421875)"/>
<path d="M0 0 C3.8047671 4.94243014 6.30377699 10.53640846 8.91210938 16.16601562 C11.01199133 20.52730892 13.09014046 23.97301197 17 27 C19.39020138 27.16772442 19.39020138 27.16772442 21.75 26.4375 C26.13428297 25.72635886 28.09700554 26.21388392 31.75 28.75 C32.47832031 29.31332031 33.20664063 29.87664063 33.95703125 30.45703125 C36.10188146 32.20964037 36.10188146 32.20964037 39.4375 33.4375 C42 35 42 35 43.25 38.5625 C43.4975 39.696875 43.745 40.83125 44 42 C46.78796758 44.78796758 48.66909249 44.26579979 52.5625 44.375 C60.35877301 44.85378852 66.48943676 46.26901684 72.3125 51.6875 C76.16177568 56.57597407 76.8248476 62.94668025 78.0859375 68.88671875 C79.82870541 76.99334126 82.10669689 82.05939625 89 86.90625 C95.02504746 90.20119783 103.1570972 90.04445216 109.64453125 88.28125 C116.21463253 85.57911879 119.22934878 82.02166192 122.0625 75.5625 C123.68963864 71.37574713 124.53584867 67.29338836 125.3125 62.875 C126.60265515 56.36751413 128.79286053 52.16571158 134 48 C137.47063133 45.77698124 140.81729532 45.54535418 144.875 45.125 C157.33125277 43.61750685 167.78876555 40.50422934 178 33 C179.0725 32.236875 180.145 31.47375 181.25 30.6875 C188.05290381 24.03920764 192.23492746 15.95938299 196.24755859 7.44604492 C199.38588246 0.8623001 199.38588246 0.8623001 202 -1 C205.79013385 -1.48238067 208.02308356 -1.69874769 211.18725586 0.56445312 C213.58679459 3.78839904 213.59441334 6.535869 213.56640625 10.40625 C213.57260483 11.12679565 213.57880341 11.84734131 213.58518982 12.58972168 C213.59228468 14.11611587 213.58911958 15.6425875 213.57641602 17.16894531 C213.56270469 19.46571319 213.5964261 21.75827366 213.63476562 24.0546875 C213.68462121 33.38021354 212.50810222 40.63523158 208 49 C207.48143433 49.97839844 207.48143433 49.97839844 206.95239258 50.9765625 C206.05228912 52.59204929 205.08997561 54.17240503 204.125 55.75 C200.69567402 61.50212714 197.91926546 67.40344866 195.34619141 73.58300781 C193.03866527 79.10143201 190.98281522 83.50161035 186.25 87.25 C180.01998267 92.55408815 175.59844206 98.29620983 172.29296875 105.796875 C171.85879639 106.77495117 171.42462402 107.75302734 170.97729492 108.76074219 C170.6547876 109.49969727 170.33228027 110.23865234 170 111 C169.41784225 111.00586624 168.83568451 111.01173248 168.23588562 111.01777649 C162.18501039 111.08163534 156.13467076 111.16603504 150.08422852 111.26245117 C147.82518569 111.29573686 145.56605897 111.32375733 143.30688477 111.34643555 C140.06229852 111.37991426 136.81848367 111.43222718 133.57421875 111.48828125 C132.56163498 111.49467117 131.54905121 111.5010611 130.50578308 111.50764465 C129.56503433 111.52743881 128.62428558 111.54723297 127.6550293 111.56762695 C126.82674118 111.57873001 125.99845306 111.58983307 125.14506531 111.60127258 C122.49357805 112.09413434 121.58833608 112.84647188 120 115 C119.71399811 118.43202271 119.90809958 120.72429875 121 124 C123.68327394 124.89442465 125.34149739 125.14581687 128.10424805 125.20532227 C129.3351844 125.2352401 129.3351844 125.2352401 130.59098816 125.26576233 C131.47232925 125.28247482 132.35367035 125.29918732 133.26171875 125.31640625 C134.62040825 125.3475779 134.62040825 125.3475779 136.00654602 125.37937927 C138.90012016 125.44476558 141.79378507 125.50370904 144.6875 125.5625 C146.64909793 125.6056956 148.61068668 125.64931023 150.57226562 125.69335938 C155.38141739 125.80043582 160.19066046 125.90173414 165 126 C163.67241243 133.18530864 161.90974978 140.1269744 159.8125 147.125 C159.18851138 149.23038261 158.56482267 151.33585413 157.94140625 153.44140625 C157.4621167 155.05426514 157.4621167 155.05426514 156.97314453 156.69970703 C155.99620044 160.01288573 155.03975496 163.33132118 154.08984375 166.65234375 C153.78135498 167.72661621 153.47286621 168.80088867 153.1550293 169.90771484 C152.56612739 171.96053125 151.98019386 174.01420232 151.39770508 176.06884766 C147.43842142 189.79483611 147.43842142 189.79483611 143.6875 192.9375 C140.45679286 194.21475631 138.44591142 194.50252875 135 194 C131.50937029 191.77869019 129.51841256 189.82521538 128 186 C127.74462891 183.37792969 127.74462891 183.37792969 127.7265625 180.421875 C127.695625 178.80345703 127.695625 178.80345703 127.6640625 177.15234375 C127.63820108 174.89981428 127.61986466 172.64718475 127.609375 170.39453125 C127.43188017 162.1015783 126.18547661 156.80487484 120.75 150.3125 C113.72530715 144.40537192 107.94767251 141.61954031 98.73046875 141.71484375 C92.17466996 142.39949799 85.60720991 145.26115552 81 150 C77.10491962 155.47086788 74.90105467 159.73449532 74.82421875 166.55078125 C74.80037109 167.64197266 74.77652344 168.73316406 74.75195312 169.85742188 C74.70920645 172.14890292 74.67783587 174.44062624 74.65820312 176.73242188 C74.497852 183.06815576 74.33059207 187.21269766 70 192 C66.80120571 194.34578248 63.89347111 194.47675156 60 194 C55.35530203 191.07476779 54.08762222 188.46265362 52.625 183.25 C52.42640381 182.56317139 52.22780762 181.87634277 52.02319336 181.16870117 C51.58002363 179.63129351 51.14449233 178.09167001 50.71533203 176.55029297 C49.94642149 173.80898256 49.1462404 171.07816782 48.33984375 168.34765625 C46.83975391 163.26297933 45.36106222 158.17242522 43.890625 153.07910156 C43.00503102 150.01739342 42.11234623 146.95781839 41.21875 143.8984375 C40.66638043 141.9948747 40.1142848 140.09123239 39.5625 138.1875 C39.17396851 136.86262573 39.17396851 136.86262573 38.77758789 135.51098633 C38.54289795 134.69654053 38.30820801 133.88209473 38.06640625 133.04296875 C37.85959229 132.33164795 37.65277832 131.62032715 37.43969727 130.88745117 C37 129 37 129 37 126 C38.05782684 125.99453156 38.05782684 125.99453156 39.13702393 125.98895264 C45.78774598 125.95106327 52.43800468 125.89420061 59.08838272 125.81609726 C62.5073461 125.7766116 65.92605154 125.74442901 69.34521484 125.72900391 C73.27735371 125.71094309 77.20877765 125.66099649 81.140625 125.609375 C82.36678528 125.60814636 83.59294556 125.60691772 84.85626221 125.60565186 C85.99714294 125.58593323 87.13802368 125.5662146 88.31347656 125.54589844 C89.81905121 125.53257477 89.81905121 125.53257477 91.3550415 125.51898193 C94.72117223 124.85849481 95.92088685 123.68266544 98 121 C98.4439635 117.89225549 98.67530089 115.97735115 96.85539246 113.34342957 C94.1853008 111.4101027 92.15324365 111.60033177 88.8762207 111.56762695 C86.98459953 111.53793571 86.98459953 111.53793571 85.05476379 111.50764465 C83.67843779 111.50087488 82.30211017 111.49442802 80.92578125 111.48828125 C79.51757739 111.47143621 78.10938859 111.4532862 76.70121765 111.43388367 C72.99739282 111.38635785 69.293629 111.35656556 65.58959961 111.33044434 C61.80895942 111.30065158 58.02852955 111.25411693 54.24804688 111.20898438 C46.83213555 111.12292206 39.41620898 111.05559019 32 111 C31.54761963 110.05390869 31.09523926 109.10781738 30.62915039 108.13305664 C30.01487618 106.87106636 29.40018937 105.60927685 28.78515625 104.34765625 C28.34169861 103.41596619 28.34169861 103.41596619 27.88928223 102.4654541 C24.37540695 95.30372971 19.38482581 89.49088464 12.953125 84.7578125 C9.20549102 81.67100322 7.94937276 77.90070029 6.3125 73.4375 C3.0694311 65.13901123 -0.84637953 57.46496188 -5.3190918 49.76342773 C-5.76808838 48.98040283 -6.21708496 48.19737793 -6.6796875 47.390625 C-7.07913574 46.71032227 -7.47858398 46.03001953 -7.89013672 45.32910156 C-10.58603772 39.67162344 -11.31618295 34.18122653 -11.3359375 27.984375 C-11.3425943 27.24672913 -11.3492511 26.50908325 -11.35610962 25.74908447 C-11.3661665 24.20286532 -11.37092882 22.65660338 -11.37060547 21.11035156 C-11.37501466 18.74212583 -11.41150084 16.37571376 -11.44921875 14.0078125 C-11.45508126 12.50000634 -11.45905444 10.99219138 -11.4609375 9.484375 C-11.47530853 8.77810974 -11.48967957 8.07184448 -11.50448608 7.34417725 C-11.47453512 4.14192422 -11.40313753 2.43739389 -9.18994141 0.03613281 C-5.73998877 -1.59615247 -3.59713375 -1.09198703 0 0 Z " fill="#F7F6F7" transform="translate(155,16)"/>
<path d="M0 0 C1.48919952 -0.00422974 1.48919952 -0.00422974 3.00848389 -0.00854492 C4.10670471 -0.00652069 5.20492554 -0.00449646 6.33642578 -0.00241089 C8.06061737 -0.00503937 8.06061737 -0.00503937 9.81964111 -0.00772095 C13.64035528 -0.01214226 17.4610236 -0.00920048 21.28173828 -0.00582886 C23.9235027 -0.00650182 26.56526705 -0.00747177 29.20703125 -0.00872803 C34.75212099 -0.01054957 40.29719743 -0.00814383 45.84228516 -0.00338745 C52.26168572 0.00205514 58.68105453 0.00029247 65.10045433 -0.00521386 C71.26474811 -0.01029062 77.42902776 -0.00976347 83.59332275 -0.00683212 C86.22170008 -0.00616257 88.8500782 -0.00699224 91.47845459 -0.00931168 C95.14467551 -0.01183655 98.8108345 -0.00799993 102.47705078 -0.00241089 C103.57527161 -0.00443512 104.67349243 -0.00645935 105.80499268 -0.00854492 C106.79779236 -0.0057251 107.79059204 -0.00290527 108.81347656 0 C109.68142853 0.00037703 110.54938049 0.00075405 111.44363403 0.0011425 C113.40673828 0.12698364 113.40673828 0.12698364 114.40673828 1.12698364 C114.5066736 3.18753675 114.53754734 5.25150954 114.53955078 7.31448364 C114.54083984 8.57003052 114.54212891 9.82557739 114.54345703 11.11917114 C114.5413623 11.77627075 114.53926758 12.43337036 114.53710938 13.11038208 C114.53176062 15.11859699 114.53705519 17.12658823 114.54345703 19.13479614 C114.54216797 20.39034302 114.54087891 21.64588989 114.53955078 22.93948364 C114.53842285 24.10092896 114.53729492 25.26237427 114.53613281 26.45901489 C114.40673828 29.12698364 114.40673828 29.12698364 113.40673828 30.12698364 C110.3409042 30.25028889 107.29413318 30.31315272 104.22705078 30.33792114 C102.32990673 30.36598914 100.43277142 30.3946536 98.53564453 30.42385864 C95.53125241 30.46515613 92.52702369 30.50202495 89.52246094 30.52835083 C86.63197686 30.55590187 83.74224634 30.60177482 80.85205078 30.65042114 C79.95197296 30.65367401 79.05189514 30.65692688 78.12454224 30.66027832 C77.28712494 30.67684479 76.44970764 30.69341125 75.58691406 30.71047974 C74.48224289 30.72261002 74.48224289 30.72261002 73.35525513 30.73498535 C70.82722048 31.24356975 69.93681176 32.07498564 68.40673828 34.12698364 C67.8418299 38.69660354 67.8418299 38.69660354 69.52905273 42.81375122 C72.27171878 44.7319414 74.50222716 44.56353316 77.82470703 44.63870239 C79.07832031 44.67415161 80.33193359 44.70960083 81.62353516 44.74612427 C82.93386719 44.76868286 84.24419922 44.79124146 85.59423828 44.81448364 C86.92955841 44.8476603 88.2648466 44.88215031 89.60009766 44.91799927 C92.86867653 45.00059873 96.13769472 45.06546368 99.40673828 45.12698364 C99.40673828 50.07698364 99.40673828 55.02698364 99.40673828 60.12698364 C69.70673828 60.12698364 40.00673828 60.12698364 9.40673828 60.12698364 C9.40673828 55.17698364 9.40673828 50.22698364 9.40673828 45.12698364 C11.67033203 45.10120239 13.93392578 45.07542114 16.26611328 45.04885864 C18.46382971 45.01042074 20.66131289 44.96526657 22.85888672 44.91946411 C24.38351259 44.8912783 25.90828394 44.87005175 27.43310547 44.85598755 C29.62819764 44.83452315 31.8215454 44.78786195 34.01611328 44.73635864 C35.99562988 44.70493774 35.99562988 44.70493774 38.01513672 44.67288208 C41.44854011 44.38535565 41.44854011 44.38535565 43.86865234 42.31546021 C45.75413711 40.07850289 45.75413711 40.07850289 45.40673828 36.50198364 C44.7926319 33.11188548 44.7926319 33.11188548 42.62980652 31.9349823 C40.22416002 31.06062356 38.3920969 30.85743902 35.83764648 30.82400513 C34.94024246 30.80736313 34.04283844 30.79072113 33.11824036 30.77357483 C31.67743355 30.7609536 31.67743355 30.7609536 30.20751953 30.74807739 C28.72133369 30.72258568 28.72133369 30.72258568 27.2051239 30.69657898 C24.04322658 30.64347542 20.88134258 30.60314839 17.71923828 30.56448364 C14.54648776 30.52060747 11.37384072 30.47397976 8.20121765 30.42167664 C6.22702296 30.38962786 4.2527363 30.36276673 2.27839661 30.34144592 C1.39044907 30.32795609 0.50250153 30.31446625 -0.41235352 30.30056763 C-1.19748825 30.29105576 -1.98262299 30.28154388 -2.79154968 30.27174377 C-4.59326172 30.12698364 -4.59326172 30.12698364 -5.59326172 29.12698364 C-5.69319704 27.06643054 -5.72407078 25.00245774 -5.72607422 22.93948364 C-5.72736328 21.68393677 -5.72865234 20.42838989 -5.72998047 19.13479614 C-5.72788574 18.47769653 -5.72579102 17.82059692 -5.72363281 17.14358521 C-5.71828406 15.1353703 -5.72357863 13.12737905 -5.72998047 11.11917114 C-5.72869141 9.86362427 -5.72740234 8.60807739 -5.72607422 7.31448364 C-5.72438232 5.57231567 -5.72438232 5.57231567 -5.72265625 3.79495239 C-5.50848077 -0.62110359 -3.97823966 0.00172809 0 0 Z " fill="#F8F7F8" transform="translate(201.59326171875,391.8730163574219)"/>
<path d="M0 0 C1.48919952 -0.00422974 1.48919952 -0.00422974 3.00848389 -0.00854492 C4.10670471 -0.00652069 5.20492554 -0.00449646 6.33642578 -0.00241089 C8.06061737 -0.00503937 8.06061737 -0.00503937 9.81964111 -0.00772095 C13.64035528 -0.01214226 17.4610236 -0.00920048 21.28173828 -0.00582886 C23.9235027 -0.00650182 26.56526705 -0.00747177 29.20703125 -0.00872803 C34.75212099 -0.01054957 40.29719743 -0.00814383 45.84228516 -0.00338745 C52.26168572 0.00205514 58.68105453 0.00029247 65.10045433 -0.00521386 C71.26474811 -0.01029062 77.42902776 -0.00976347 83.59332275 -0.00683212 C86.22170008 -0.00616257 88.8500782 -0.00699224 91.47845459 -0.00931168 C95.14467551 -0.01183655 98.8108345 -0.00799993 102.47705078 -0.00241089 C103.57527161 -0.00443512 104.67349243 -0.00645935 105.80499268 -0.00854492 C106.79779236 -0.0057251 107.79059204 -0.00290527 108.81347656 0 C109.68142853 0.00037703 110.54938049 0.00075405 111.44363403 0.0011425 C113.40673828 0.12698364 113.40673828 0.12698364 114.40673828 1.12698364 C114.5066736 3.18753675 114.53754734 5.25150954 114.53955078 7.31448364 C114.54083984 8.57003052 114.54212891 9.82557739 114.54345703 11.11917114 C114.5413623 11.77627075 114.53926758 12.43337036 114.53710938 13.11038208 C114.53176062 15.11859699 114.53705519 17.12658823 114.54345703 19.13479614 C114.54216797 20.39034302 114.54087891 21.64588989 114.53955078 22.93948364 C114.53842285 24.10092896 114.53729492 25.26237427 114.53613281 26.45901489 C114.40673828 29.12698364 114.40673828 29.12698364 113.40673828 30.12698364 C111.87820338 30.22496752 110.34514864 30.25330195 108.81347656 30.25396729 C107.32427704 30.25819702 107.32427704 30.25819702 105.80499268 30.26251221 C104.70677185 30.26048798 103.60855103 30.25846375 102.47705078 30.25637817 C101.32758972 30.25813049 100.17812866 30.25988281 98.99383545 30.26168823 C95.17312128 30.26610955 91.35245296 30.26316777 87.53173828 30.25979614 C84.88997387 30.2604691 82.24820951 30.26143906 79.60644531 30.26269531 C74.06135557 30.26451685 68.51627913 30.26211111 62.97119141 30.25735474 C56.55179084 30.25191214 50.13242203 30.25367481 43.71302223 30.25918114 C37.54872845 30.2642579 31.3844488 30.26373075 25.22015381 30.26079941 C22.59177649 30.26012986 19.96339836 30.26095952 17.33502197 30.26327896 C13.66880105 30.26580384 10.00264206 30.26196721 6.33642578 30.25637817 C5.23820496 30.2584024 4.13998413 30.26042664 3.00848389 30.26251221 C2.0156842 30.25969238 1.02288452 30.25687256 0 30.25396729 C-0.86795197 30.25359026 -1.73590393 30.25321323 -2.63015747 30.25282478 C-4.59326172 30.12698364 -4.59326172 30.12698364 -5.59326172 29.12698364 C-5.69319704 27.06643054 -5.72407078 25.00245774 -5.72607422 22.93948364 C-5.72736328 21.68393677 -5.72865234 20.42838989 -5.72998047 19.13479614 C-5.72788574 18.47769653 -5.72579102 17.82059692 -5.72363281 17.14358521 C-5.71828406 15.1353703 -5.72357863 13.12737905 -5.72998047 11.11917114 C-5.72869141 9.86362427 -5.72740234 8.60807739 -5.72607422 7.31448364 C-5.72438232 5.57231567 -5.72438232 5.57231567 -5.72265625 3.79495239 C-5.50848077 -0.62110359 -3.97823966 0.00172809 0 0 Z " fill="#F8F7F8" transform="translate(201.59326171875,466.8730163574219)"/>
<path d="M0 0 C1.02365662 -0.00350464 2.04731323 -0.00700928 3.10198975 -0.01062012 C6.47170883 -0.01939263 9.84121643 -0.01360402 13.2109375 -0.00683594 C15.56071004 -0.00818387 17.91048232 -0.01012548 20.26025391 -0.01263428 C25.17938905 -0.01557948 30.09845145 -0.01130726 35.01757812 -0.00195312 C41.31566153 0.00944097 47.61357446 0.00287827 53.91165161 -0.00909805 C58.76213866 -0.01633291 63.61258545 -0.01402123 68.46307373 -0.00884247 C70.78505473 -0.00751048 73.10703941 -0.00913788 75.42901611 -0.01380157 C78.67673394 -0.01889344 81.92417754 -0.01111897 85.171875 0 C86.12688904 -0.00404846 87.08190308 -0.00809692 88.06585693 -0.01226807 C93.29679929 0.02082645 97.63348877 0.5486665 102.5859375 2.25878906 C102.61480287 6.57127516 102.63269005 10.88373668 102.6484375 15.19628906 C102.65681641 16.42798828 102.66519531 17.6596875 102.67382812 18.92871094 C102.67705078 20.09853516 102.68027344 21.26835937 102.68359375 22.47363281 C102.68883057 23.55765381 102.69406738 24.6416748 102.69946289 25.75854492 C102.5859375 28.25878906 102.5859375 28.25878906 101.5859375 29.25878906 C100.0574026 29.35677294 98.52434786 29.38510737 96.99267578 29.38577271 C95.50347626 29.39000244 95.50347626 29.39000244 93.98419189 29.39431763 C92.88597107 29.3922934 91.78775024 29.39026917 90.65625 29.38818359 C89.50678894 29.38993591 88.35732788 29.39168823 87.17303467 29.39349365 C83.3523205 29.39791497 79.53165218 29.39497319 75.7109375 29.39160156 C73.06917309 29.39227452 70.42740873 29.39324448 67.78564453 29.39450073 C62.24055479 29.39632227 56.69547835 29.39391653 51.15039062 29.38916016 C44.73099006 29.38371756 38.31162125 29.38548023 31.89222145 29.39098656 C25.72792767 29.39606332 19.56364802 29.39553617 13.39935303 29.39260483 C10.7709757 29.39193528 8.14259758 29.39276494 5.51422119 29.39508438 C1.84800027 29.39760926 -1.81815872 29.39377263 -5.484375 29.38818359 C-6.58259583 29.39020782 -7.68081665 29.39223206 -8.81231689 29.39431763 C-9.80511658 29.3914978 -10.79791626 29.38867798 -11.82080078 29.38577271 C-12.68875275 29.38539568 -13.55670471 29.38501865 -14.45095825 29.3846302 C-16.4140625 29.25878906 -16.4140625 29.25878906 -17.4140625 28.25878906 C-17.50154457 26.33211399 -17.52103584 24.40227045 -17.51171875 22.47363281 C-17.50849609 21.30380859 -17.50527344 20.13398438 -17.50195312 18.92871094 C-17.49357422 17.69701172 -17.48519531 16.4653125 -17.4765625 15.19628906 C-17.47205078 13.96072266 -17.46753906 12.72515625 -17.46289062 11.45214844 C-17.45105858 8.38764789 -17.43457423 5.32324185 -17.4140625 2.25878906 C-11.51316432 0.22115886 -6.2134326 -0.02633976 0 0 Z " fill="#E7E7E7" transform="translate(213.4140625,317.7412109375)"/>
<path d="M0 0 C3.96 0 7.92 0 12 0 C13.4293495 4.78565982 14.85336893 9.57286075 16.27246094 14.36157227 C16.75602192 15.9905886 17.24103945 17.61917331 17.72753906 19.24731445 C18.42635875 21.58693424 19.11993456 23.92805361 19.8125 26.26953125 C20.14060669 27.36186821 20.14060669 27.36186821 20.4753418 28.47627258 C21.34188104 31.42152526 22 33.91198665 22 37 C23.485 36.505 23.485 36.505 25 36 C26.22763927 33.2851076 26.22763927 33.2851076 27.25 30 C31.42984288 18.64227217 37.77256322 12.08192768 48.52734375 6.74609375 C57.77862396 2.84724291 67.48675834 2.49274878 77 5.75 C86.45355487 9.70053246 93.69429213 16.24997902 99 25 C100.15323427 27.89856533 101.14331544 30.79082339 102.04296875 33.77734375 C102.35878906 34.51082031 102.67460937 35.24429688 103 36 C104.485 36.495 104.485 36.495 106 37 C106.26067261 35.93120605 106.26067261 35.93120605 106.52661133 34.84082031 C108.43530863 27.10065446 110.51846408 19.42087026 112.6875 11.75 C113.00783203 10.61175781 113.32816406 9.47351563 113.65820312 8.30078125 C114.43725103 5.53341706 115.21840141 2.76664487 116 0 C119.96 0 123.92 0 128 0 C126.66209941 7.19203145 124.91165516 14.1206166 122.8125 21.125 C122.18851138 23.23038261 121.56482267 25.33585413 120.94140625 27.44140625 C120.62187988 28.51664551 120.30235352 29.59188477 119.97314453 30.69970703 C118.99620044 34.01288573 118.03975496 37.33132118 117.08984375 40.65234375 C116.6271106 42.26375244 116.6271106 42.26375244 116.1550293 43.90771484 C115.56612739 45.96053125 114.98019386 48.01420232 114.39770508 50.06884766 C110.43842142 63.79483611 110.43842142 63.79483611 106.6875 66.9375 C103.45679286 68.21475631 101.44591142 68.50252875 98 68 C94.50937029 65.77869019 92.51841256 63.82521538 91 60 C90.74462891 57.37792969 90.74462891 57.37792969 90.7265625 54.421875 C90.7059375 53.34292969 90.6853125 52.26398438 90.6640625 51.15234375 C90.63820108 48.89981428 90.61986466 46.64718475 90.609375 44.39453125 C90.43188017 36.1015783 89.18547661 30.80487484 83.75 24.3125 C76.72530715 18.40537192 70.94767251 15.61954031 61.73046875 15.71484375 C55.17466996 16.39949799 48.60720991 19.26115552 44 24 C40.10491962 29.47086788 37.90105467 33.73449532 37.82421875 40.55078125 C37.80037109 41.64197266 37.77652344 42.73316406 37.75195312 43.85742188 C37.70920645 46.14890292 37.67783587 48.44062624 37.65820312 50.73242188 C37.497852 57.06815576 37.33059207 61.21269766 33 66 C29.80120571 68.34578248 26.89347111 68.47675156 23 68 C18.35530203 65.07476779 17.08762222 62.46265362 15.625 57.25 C15.42640381 56.56317139 15.22780762 55.87634277 15.02319336 55.16870117 C14.58002363 53.63129351 14.14449233 52.09167001 13.71533203 50.55029297 C12.94642149 47.80898256 12.1462404 45.07816782 11.33984375 42.34765625 C9.83975391 37.26297933 8.36106222 32.17242522 6.890625 27.07910156 C6.00503102 24.01739342 5.11234623 20.95781839 4.21875 17.8984375 C3.66638043 15.9948747 3.1142848 14.09123239 2.5625 12.1875 C2.303479 11.30425049 2.04445801 10.42100098 1.77758789 9.51098633 C1.54289795 8.69654053 1.30820801 7.88209473 1.06640625 7.04296875 C0.85959229 6.33164795 0.65277832 5.62032715 0.43969727 4.88745117 C0 3 0 3 0 0 Z " fill="#D8D7D9" transform="translate(192,142)"/>
<path d="M0 0 C0.99 0.495 0.99 0.495 2 1 C1.53851563 1.41507812 1.07703125 1.83015625 0.6015625 2.2578125 C-5.42023151 7.94638471 -10.03813185 14.38829674 -14.71777344 21.16650391 C-15.95595694 22.93702144 -17.22370292 24.68055544 -18.5078125 26.41796875 C-29.46914965 41.28778347 -37.85030828 56.9812223 -45 74 C-45.42023438 74.98097656 -45.84046875 75.96195312 -46.2734375 76.97265625 C-61.04033724 114.24431121 -62.09337603 158.77174736 -51 197 C-50.63573189 198.37179007 -50.2738204 199.74420771 -49.9140625 201.1171875 C-47.00854431 211.91621661 -42.86006706 221.94050341 -38 232 C-37.47148438 233.09957031 -36.94296875 234.19914063 -36.3984375 235.33203125 C-33.68274814 240.63996954 -30.79678084 244.69722216 -26.3203125 248.66015625 C-25 250 -25 250 -25 252 C-35.85143179 248.81308905 -43.4565186 241.69298794 -49 232 C-49.680625 230.2675 -49.680625 230.2675 -50.375 228.5 C-50.91125 227.675 -51.4475 226.85 -52 226 C-54.05315833 225.57681723 -54.05315833 225.57681723 -56.375 225.375 C-58.7734375 225.0078125 -58.7734375 225.0078125 -61 224 C-64.46783038 218.64358593 -66.40936599 212.34250058 -67 206 C-66.360625 205.38125 -65.72125 204.7625 -65.0625 204.125 C-62.65177912 202.06789898 -62.65177912 202.06789898 -62.5625 198.5 C-62.73566393 195.11093443 -63.44303412 192.0243715 -64.3125 188.75 C-71.03517852 162.85168132 -71.42891092 134.20014425 -66 108 C-65.85546387 107.29713867 -65.71092773 106.59427734 -65.56201172 105.87011719 C-64.56266051 101.18877098 -63.3473051 96.59231813 -62 92 C-61.80067871 91.3090625 -61.60135742 90.618125 -61.39599609 89.90625 C-53.70176681 63.74942435 -39.88675721 41.59515445 -23.54345703 20.04980469 C-22.2439318 18.32395624 -20.97564097 16.57465256 -19.71484375 14.8203125 C-14.62102407 7.93790316 -8.21389794 2.73796598 0 0 Z " fill="#DB626C" transform="translate(131,107)"/>
<path d="M0 0 C7.22165795 4.38625646 12.32825322 9.90136448 14.80078125 18.09375 C16.06119031 27.27354342 14.67925808 34.47163517 9.4453125 42.05859375 C5.35490133 47.2456299 0.40501038 50.84524732 -6.19921875 52.09375 C-14.37924739 52.70825954 -21.32956964 52.91925962 -28.19921875 48.09375 C-29.52953125 47.2275 -29.52953125 47.2275 -30.88671875 46.34375 C-36.9233948 40.47022735 -40.15985345 33.34689105 -40.69921875 24.96875 C-40.51921527 17.19683494 -37.45068821 10.36803679 -31.97265625 4.8515625 C-22.97538009 -2.40042263 -10.9375604 -5.05891445 0 0 Z " fill="#040202" transform="translate(176.19921875,214.90625)"/>
<path d="M0 0 C6.28493532 4.24203091 11.0475475 10.00327288 13.9375 17 C14.27504269 19.71440582 14.46323892 22.10766155 14.4375 24.8125 C14.43105469 25.51882568 14.42460937 26.22515137 14.41796875 26.95288086 C14.16017524 34.33476399 12.05338343 38.74335798 7.03515625 43.98828125 C0.95750986 49.62264441 -4.49920365 52.5642491 -12.9375 52.4375 C-13.64640381 52.42920166 -14.35530762 52.42090332 -15.08569336 52.41235352 C-22.90457337 52.15949297 -27.17592291 49.91390816 -32.8125 44.75 C-39.07929326 37.90958722 -40.66044471 32.13527244 -40.53320312 22.86572266 C-40.15697253 14.3384963 -37.15932891 9.23231495 -30.94921875 3.54296875 C-22.59918384 -3.28573475 -9.87317387 -5.0044438 0 0 Z " fill="#030102" transform="translate(374.0625,191)"/>
<path d="M0 0 C6.6 0 13.2 0 20 0 C20.99 2.97 20.99 2.97 22 6 C25.36551123 7.12183708 28.09060232 7.20800968 31.63671875 7.31640625 C32.93544922 7.35830078 34.23417969 7.40019531 35.57226562 7.44335938 C36.94400761 7.48316987 38.31575244 7.52288216 39.6875 7.5625 C41.07097645 7.60570835 42.45444027 7.64932339 43.83789062 7.69335938 C47.22515719 7.79958028 50.61249799 7.90162358 54 8 C52.72029168 16.0514565 50.77557484 23.75766872 48.4375 31.5625 C48.12103516 32.64080078 47.80457031 33.71910156 47.47851562 34.83007812 C45.15398185 42.69203629 45.15398185 42.69203629 44 45 C42.11328125 44.80859375 42.11328125 44.80859375 40 44 C38.98046875 41.84765625 38.98046875 41.84765625 38.1875 39.0625 C34.83157599 29.04675779 29.45549005 21.85675251 20 17 C10.99902121 12.54820214 1.70035851 11.35841217 -8.125 13.765625 C-19.53469183 17.67220427 -27.06320603 24.62280944 -33 35 C-34.48620815 38.28337678 -35.79478205 41.60412118 -37 45 C-37.99 45 -38.98 45 -40 45 C-41.29919598 40.71057673 -42.5879648 36.41808629 -43.875 32.125 C-44.23980469 30.92101562 -44.60460937 29.71703125 -44.98046875 28.4765625 C-45.33496094 27.290625 -45.68945312 26.1046875 -46.0546875 24.8828125 C-46.37937012 23.80402832 -46.70405273 22.72524414 -47.03857422 21.61376953 C-48.23618533 17.11223584 -49.13204609 12.57485986 -50 8 C-49.44511902 7.99635437 -48.89023804 7.99270874 -48.31854248 7.98895264 C-42.54315306 7.9471416 -36.7685594 7.87780659 -30.99365234 7.79248047 C-28.83845987 7.76425501 -26.68316357 7.74304835 -24.52783203 7.72900391 C-21.4294717 7.70759653 -18.33236173 7.6609568 -15.234375 7.609375 C-14.27070007 7.60814636 -13.30702515 7.60691772 -12.31414795 7.60565186 C-7.0144301 7.54535809 -7.0144301 7.54535809 -2.42285156 5.14941406 C-0.84493351 2.96808966 -0.84493351 2.96808966 0 0 Z " fill="#E7E7E7" transform="translate(254,134)"/>
<path d="M0 0 C0.73393982 -0.00511093 1.46787964 -0.01022186 2.22406006 -0.01548767 C4.64937518 -0.02937962 7.07440567 -0.02842599 9.49975586 -0.02612305 C11.19404708 -0.0300127 12.88833734 -0.03434792 14.58262634 -0.03910828 C18.13763584 -0.04657146 21.69254607 -0.04628033 25.24755859 -0.04101562 C29.77761358 -0.03524756 34.30725615 -0.05208657 38.83724308 -0.0753603 C42.34024895 -0.09018573 45.84315781 -0.09095698 49.3461895 -0.08785057 C51.01454924 -0.08836025 52.68291492 -0.09353091 54.35124397 -0.10366249 C63.40578841 -0.15186528 72.08464484 -0.10474722 80.65209961 3.2746582 C81.65209961 4.2746582 81.65209961 4.2746582 81.78491211 7.1809082 C81.78233398 8.3668457 81.77975586 9.5527832 81.77709961 10.7746582 C81.7809668 12.55356445 81.7809668 12.55356445 81.78491211 14.3684082 C81.65209961 17.2746582 81.65209961 17.2746582 80.65209961 18.2746582 C77.73015296 18.36991188 74.83189631 18.40018557 71.90966797 18.38818359 C70.53419548 18.38840263 70.53419548 18.38840263 69.13093567 18.3886261 C66.08458125 18.3879266 63.03828716 18.38013248 59.99194336 18.37231445 C57.88586968 18.37045041 55.77979558 18.36902644 53.67372131 18.36802673 C48.11867078 18.36420051 42.5636462 18.35436934 37.00860596 18.34332275 C31.34485221 18.33311087 25.68109428 18.32852959 20.01733398 18.32348633 C8.89557776 18.31274717 -2.22615916 18.2956695 -13.34790039 18.2746582 C-13.40239877 16.54584838 -13.44091727 14.81653108 -13.47290039 13.0871582 C-13.49610352 12.12422852 -13.51930664 11.16129883 -13.54321289 10.16918945 C-13.33321338 7.0569967 -12.84887908 5.00757223 -11.34790039 2.2746582 C-7.98393246 -0.34124771 -4.08299329 -0.01469508 0 0 Z " fill="#F8F7F8" transform="translate(234.347900390625,328.725341796875)"/>
<path d="M0 0 C6.11599917 3.1301484 9.9881829 7.94934626 12.125 14.4375 C12.87831244 20.98251329 12.7231479 27.74544663 9.125 33.4375 C3.53738864 39.82150654 -2.43437496 42.86451612 -10.75 43.9375 C-16.85529514 43.64906086 -22.52531391 40.83553355 -26.7734375 36.5 C-31.98996896 29.78212533 -33.89089115 23.95535659 -32.875 15.4375 C-30.79887903 8.10537656 -25.31240506 3.18228663 -18.98046875 -0.734375 C-13.10983258 -3.04341928 -5.77158369 -2.2831562 0 0 Z " fill="#040202" transform="translate(383.875,129.5625)"/>
<path d="M0 0 C5.67817924 3.26752366 10.55649982 7.9996984 12.6875 14.3125 C13.77565743 23.199119 12.5330385 29.1661439 7.5 36.5 C2.39073868 41.60926132 -2.05242859 43.53784408 -9.3125 43.8125 C-15.77769135 43.56008069 -20.32879899 42.12303979 -25.0625 37.6640625 C-30.90513675 31.23154416 -31.89427588 25.44349794 -31.75 16.83203125 C-30.9711371 10.56635734 -28.1585482 6.53681262 -23.23828125 2.69140625 C-16.06480052 -1.98925678 -8.0485391 -3.79474847 0 0 Z " fill="#040202" transform="translate(127.3125,300.6875)"/>
<path d="M0 0 C6.15599714 3.8202478 9.91820421 9.11789387 12.19140625 15.9375 C12.94294738 22.873855 12.14649282 28.14102886 8.19140625 33.9375 C3.80478475 39.29892628 -1.05029406 42.38159474 -7.8984375 43.39453125 C-14.86020436 43.74383811 -19.46863012 42.90466942 -25.00390625 38.5859375 C-29.57079666 34.41444886 -32.40615346 30.3301652 -33.14453125 24.10546875 C-33.24487894 16.44894026 -32.56410404 10.84113947 -27.125 5.1875 C-19.48038973 -1.65154919 -9.85064554 -3.72653072 0 0 Z " fill="#040202" transform="translate(140.80859375,143.0625)"/>
<path d="M0 0 C6.23184225 3.15831461 10.31721875 7.95475001 13.421875 14.1640625 C14.3027489 22.82179455 13.72178054 30.0443899 8.421875 37.1640625 C6.26149441 39.25062599 4.0650103 40.75315811 1.421875 42.1640625 C0.65875 42.5971875 -0.104375 43.0303125 -0.890625 43.4765625 C-8.37143414 45.39025786 -14.55972141 44.52344779 -21.30859375 40.79296875 C-26.00846765 37.4197374 -29.57892692 32.9383756 -30.578125 27.1640625 C-31.23393143 20.08135303 -31.58528515 13.78193277 -27.2109375 7.8828125 C-19.72039437 -0.00196974 -10.78023367 -3.4954091 0 0 Z " fill="#040202" transform="translate(264.578125,237.8359375)"/>
<path d="M0 0 C4.97725721 2.97793613 8.40745897 7.07491608 10.9375 12.25 C12.36952803 19.55334293 12.30391656 25.82766407 8.5625 32.4375 C5.19893566 37.34014985 1.59822376 41.22819578 -4.4375 42.4375 C-10.82196261 43.0832105 -17.40938245 43.67260232 -22.87890625 39.83984375 C-28.08405854 35.15651124 -32.89679307 30.37252361 -33.68359375 23.19140625 C-33.99136401 17.06398022 -33.16992856 12.38444897 -29.4375 7.4375 C-21.3481674 -0.92926459 -11.51962321 -5.22401517 0 0 Z " fill="#040202" transform="translate(414.4375,250.5625)"/>
<path d="M0 0 C0.33 0 0.66 0 1 0 C1.28875 0.94875 1.5775 1.8975 1.875 2.875 C2.76825109 6.05211578 2.76825109 6.05211578 5 8 C7.91188245 8.37268887 7.91188245 8.37268887 11.3203125 8.4140625 C12.57714844 8.45273437 13.83398438 8.49140625 15.12890625 8.53125 C16.44761719 8.5621875 17.76632812 8.593125 19.125 8.625 C20.46486918 8.66318029 21.80471383 8.70223206 23.14453125 8.7421875 C26.42945148 8.83671758 29.71470706 8.91945733 33 9 C33 13.95 33 18.9 33 24 C3.3 24 -26.4 24 -57 24 C-57 19.05 -57 14.1 -57 9 C-54.73640625 8.97421875 -52.4728125 8.9484375 -50.140625 8.921875 C-47.94290857 8.88343709 -45.74542539 8.83828293 -43.54785156 8.79248047 C-42.02322569 8.76429465 -40.49845434 8.74306811 -38.97363281 8.72900391 C-36.77854064 8.70753951 -34.58519289 8.66087831 -32.390625 8.609375 C-31.07094727 8.58842773 -29.75126953 8.56748047 -28.39160156 8.54589844 C-24.51456598 7.92186651 -23.35356828 7.06868542 -21 4 C-20.67 3.34 -20.34 2.68 -20 2 C-13.4 2 -6.8 2 0 2 C0 1.34 0 0.68 0 0 Z " fill="#E7E7E7" transform="translate(268,428)"/>
<path d="M0 0 C29.7 0 59.4 0 90 0 C90 4.95 90 9.9 90 15 C60.3 15 30.6 15 0 15 C0 10.05 0 5.1 0 0 Z " fill="#E7E7E7" transform="translate(211,362)"/>
<path d="M0 0 C2.44166379 3.66249569 2.19648207 5.30051233 2.08984375 9.65234375 C2.06938399 11.00064686 2.04921153 12.34895435 2.02929688 13.69726562 C1.98625645 15.80332843 1.93823762 17.9090998 1.88354492 20.01489258 C1.55005792 33.85871017 3.58524406 44.51930295 10.6875 56.5625 C14.74400128 63.70846713 18.46880491 70.846832 21.625 78.4375 C21.94299561 79.1994165 22.26099121 79.96133301 22.58862305 80.74633789 C23.95655444 84.11595498 25.08011218 87.31470361 25.98046875 90.8515625 C27.08370685 94.25849702 27.71380784 95.1088838 30.6875 96.9375 C35.18749228 99.98959714 38.81490088 103.58067498 42 108 C42 108.66 42 109.32 42 110 C58.83 110 75.66 110 93 110 C93 110.33 93 110.66 93 111 C72.87 111 52.74 111 32 111 C29.69 106.38 27.38 101.76 25 97 C21.14820971 92.30398171 17.81288611 88.33409824 12.953125 84.7578125 C9.20549102 81.67100322 7.94937276 77.90070029 6.3125 73.4375 C3.0694311 65.13901123 -0.84637953 57.46496188 -5.3190918 49.76342773 C-5.76808838 48.98040283 -6.21708496 48.19737793 -6.6796875 47.390625 C-7.07913574 46.71032227 -7.47858398 46.03001953 -7.89013672 45.32910156 C-10.58603772 39.67162344 -11.31618295 34.18122653 -11.3359375 27.984375 C-11.3425943 27.24672913 -11.3492511 26.50908325 -11.35610962 25.74908447 C-11.3661665 24.20286532 -11.37092882 22.65660338 -11.37060547 21.11035156 C-11.37501466 18.74212583 -11.41150084 16.37571376 -11.44921875 14.0078125 C-11.45508126 12.50000634 -11.45905444 10.99219138 -11.4609375 9.484375 C-11.47530853 8.77810974 -11.48967957 8.07184448 -11.50448608 7.34417725 C-11.47455704 4.1442673 -11.39607152 2.43416564 -9.19775391 0.02441406 C-5.85870024 -1.53198109 -3.49223928 -0.90539537 0 0 Z " fill="#E2E2E2" transform="translate(155,16)"/>
<path d="M0 0 C1.00023193 0.00523682 2.00046387 0.01047363 3.03100586 0.01586914 C4.00303955 0.0183667 4.97507324 0.02086426 5.9765625 0.0234375 C7.84235962 0.03709351 7.84235962 0.03709351 9.74584961 0.05102539 C13.68522461 0.07165039 17.62459961 0.09227539 21.68334961 0.11352539 C21.68334961 10.01352539 21.68334961 19.91352539 21.68334961 30.11352539 C17.74397461 30.13415039 13.80459961 30.15477539 9.74584961 30.17602539 C7.88005249 30.1896814 7.88005249 30.1896814 5.9765625 30.20361328 C5.00452881 30.20611084 4.03249512 30.2086084 3.03100586 30.21118164 C1.53065796 30.21903687 1.53065796 30.21903687 0 30.22705078 C-2.31665039 30.11352539 -2.31665039 30.11352539 -3.31665039 29.11352539 C-3.41658571 27.05297229 -3.44745945 24.98899949 -3.44946289 22.92602539 C-3.45075195 21.67047852 -3.45204102 20.41493164 -3.45336914 19.12133789 C-3.45127441 18.46423828 -3.44917969 17.80713867 -3.44702148 17.13012695 C-3.44167273 15.12191204 -3.4469673 13.1139208 -3.45336914 11.10571289 C-3.45208008 9.85016602 -3.45079102 8.59461914 -3.44946289 7.30102539 C-3.447771 5.55885742 -3.447771 5.55885742 -3.44604492 3.78149414 C-3.27041791 0.16026392 -3.27041791 0.16026392 0 0 Z " fill="#E7E7E7" transform="translate(199.316650390625,466.886474609375)"/>
<path d="M0 0 C1.00023193 0.00523682 2.00046387 0.01047363 3.03100586 0.01586914 C4.00303955 0.0183667 4.97507324 0.02086426 5.9765625 0.0234375 C7.84235962 0.03709351 7.84235962 0.03709351 9.74584961 0.05102539 C13.68522461 0.07165039 17.62459961 0.09227539 21.68334961 0.11352539 C21.68334961 10.01352539 21.68334961 19.91352539 21.68334961 30.11352539 C17.74397461 30.13415039 13.80459961 30.15477539 9.74584961 30.17602539 C7.88005249 30.1896814 7.88005249 30.1896814 5.9765625 30.20361328 C5.00452881 30.20611084 4.03249512 30.2086084 3.03100586 30.21118164 C1.53065796 30.21903687 1.53065796 30.21903687 0 30.22705078 C-2.31665039 30.11352539 -2.31665039 30.11352539 -3.31665039 29.11352539 C-3.41658571 27.05297229 -3.44745945 24.98899949 -3.44946289 22.92602539 C-3.45075195 21.67047852 -3.45204102 20.41493164 -3.45336914 19.12133789 C-3.45127441 18.46423828 -3.44917969 17.80713867 -3.44702148 17.13012695 C-3.44167273 15.12191204 -3.4469673 13.1139208 -3.45336914 11.10571289 C-3.45208008 9.85016602 -3.45079102 8.59461914 -3.44946289 7.30102539 C-3.447771 5.55885742 -3.447771 5.55885742 -3.44604492 3.78149414 C-3.27041791 0.16026392 -3.27041791 0.16026392 0 0 Z " fill="#E7E7E7" transform="translate(199.316650390625,391.886474609375)"/>
<path d="M0 0 C3.12578143 1.6720747 5.39281175 3.7856235 7 7 C7.51512617 11.09157355 7.94367269 15.23589546 5.953125 18.95703125 C3.55501226 21.85592636 1.60351712 23.79811835 -2.171875 24.2734375 C-9.98876369 24.58137554 -9.98876369 24.58137554 -13.5625 21.625 C-17.3057723 17.59378368 -17.39037018 14.90519941 -17.359375 9.55078125 C-16.78039966 5.44131496 -15.00085071 3.78650423 -12 1 C-8.27533151 -0.86233425 -4.05504687 -0.57130829 0 0 Z " fill="#DB626C" transform="translate(366,204)"/>
<path d="M0 0 C3.18500291 1.62145603 5.22111096 2.97328264 7.375 5.8125 C8.65125865 10.27940528 8.39873543 13.90872409 6.8125 18.25 C4.71251242 21.43618806 3.5544915 22.60911202 0 24 C-3.83247083 24.63756446 -7.34088238 24.88580008 -10.84375 23.015625 C-13.73690314 20.71812103 -15.63580174 18.39786418 -17 15 C-17.41487723 10.99679869 -16.9878072 7.43920871 -14.68359375 4.08203125 C-10.29136971 -0.20828504 -5.98464861 -1.28397916 0 0 Z " fill="#DB626C" transform="translate(168,228)"/>
<path d="M0 0 C1.9375 1.125 1.9375 1.125 3 3 C3.49573337 6.89504791 3.58016848 9.09493717 1.4375 12.4375 C-1.96719488 14.61999672 -4.03430012 14.63734462 -8 14 C-10.5 11.9375 -10.5 11.9375 -12 9 C-12 5.19715329 -11.7968187 2.98069994 -9.375 0 C-5.91616747 -1.45635054 -3.58701629 -0.91305869 0 0 Z " fill="#0A0506" transform="translate(315,236)"/>
<path d="M0 0 C1.9375 1.125 1.9375 1.125 3 3 C3.5 6.4375 3.5 6.4375 3 10 C0.9375 12.5 0.9375 12.5 -2 14 C-5.80284671 14 -8.01930006 13.7968187 -11 11.375 C-12.46981805 7.88418213 -11.98413921 5.60851044 -11 2 C-7.79952331 -1.93904824 -4.62362797 -1.17692348 0 0 Z " fill="#080405" transform="translate(95,276)"/>
<path d="M0 0 C3.75999106 0.93999776 5.2473603 2.51105689 7.5 5.625 C7.5 9.16861243 7.15850044 11.49091591 5.375 14.5625 C2.31547541 16.2962306 -0.06817525 16.04645216 -3.5 15.625 C-5.9375 14 -5.9375 14 -7.5 11.625 C-8.0625 8.6875 -8.0625 8.6875 -7.5 5.625 C-5.20985284 2.6150923 -3.70864386 0.92716097 0 0 Z " fill="#090505" transform="translate(113.5,254.375)"/>
<path d="M0 0 C1.9375 1.1875 1.9375 1.1875 3 3 C3.70541917 7.0561602 3.32120577 8.54252512 0.9375 11.9375 C-2 14 -2 14 -5.625 14.0625 C-9 13 -9 13 -11 11.375 C-12.46981805 7.88418213 -11.98413921 5.60851044 -11 2 C-7.79952331 -1.93904824 -4.62362797 -1.17692348 0 0 Z " fill="#070404" transform="translate(91,249)"/>
<path d="M0 0 C2.4375 1.625 2.4375 1.625 4 4 C4.5625 6.9375 4.5625 6.9375 4 10 C1.71129282 13.00801515 0.17597863 14.67660588 -3.5 15.6875 C-7.47214501 14.59516012 -8.85292326 12.41006305 -11 9 C-11 5.73344791 -10.54466247 3.90777078 -8.875 1.125 C-5.83167192 -0.70099685 -3.45750445 -0.42460581 0 0 Z " fill="#D55F69" transform="translate(377,143)"/>
<path d="M0 0 C2.375 1 2.375 1 4 3 C4.45352711 6.17468977 4.69511624 7.98984447 4 11 C1.875 13.5625 1.875 13.5625 -1 15 C-4.15548924 14.93689022 -6.13769198 14.48864121 -8.875 12.9375 C-10.71751909 9.76427268 -10.66053097 6.56241421 -10 3 C-7.19663749 -0.45029232 -4.26211439 -0.5327643 0 0 Z " fill="#060304" transform="translate(398,325)"/>
<path d="M0 0 C2.375 1 2.375 1 4 3 C4.45352711 6.17468977 4.69511624 7.98984447 4 11 C1.875 13.5625 1.875 13.5625 -1 15 C-4.15548924 14.93689022 -6.13769198 14.48864121 -8.875 12.9375 C-10.71751909 9.76427268 -10.66053097 6.56241421 -10 3 C-7.19663749 -0.45029232 -4.26211439 -0.5327643 0 0 Z " fill="#060304" transform="translate(379,306)"/>
<path d="M0 0 C2.375 1.5625 2.375 1.5625 4 4 C4.5625 7.5 4.5625 7.5 4 11 C1.58140437 13.69500656 -0.00763965 14.80636871 -3.5625 15.5 C-6.96311101 14.80243877 -8.05445623 13.88228706 -10 11 C-10.59002965 8.03793195 -10.39336407 6.09774206 -10 3 C-7.21052771 -0.43319666 -4.246332 -0.61925675 0 0 Z " fill="#060304" transform="translate(308,262)"/>
<path d="M0 0 C1.9453125 0.37890625 1.9453125 0.37890625 4.5078125 1.94140625 C5.9453125 4.37890625 5.9453125 4.37890625 5.8828125 7.94140625 C4.9453125 11.37890625 4.9453125 11.37890625 3.8203125 13.31640625 C0.76078791 15.05013685 -1.62286275 14.80035841 -5.0546875 14.37890625 C-7.4921875 12.75390625 -7.4921875 12.75390625 -9.0546875 10.37890625 C-9.53757613 7.06766993 -9.35087739 5.08235725 -8.0546875 2.00390625 C-5.46231192 -0.10239891 -3.28423543 -0.18784372 0 0 Z " fill="#D8606A" transform="translate(132.0546875,156.62109375)"/>
<path d="M0 0 C3.4375 0.9375 3.4375 0.9375 5.375 2.0625 C7.1087306 5.12202459 6.85895216 7.50567525 6.4375 10.9375 C4.8125 13.375 4.8125 13.375 2.4375 14.9375 C-1.19882575 15.54355429 -2.84564769 15.40911336 -5.9375 13.375 C-8.18590519 10.00239221 -8.13033945 7.91237617 -7.5625 3.9375 C-5.29401339 0.30792142 -4.30870043 -0.07559124 0 0 Z " fill="#D8616A" transform="translate(118.5625,314.0625)"/>
<path d="M0 0 C2.375 1.5625 2.375 1.5625 4 4 C4.5625 7.5 4.5625 7.5 4 11 C1.58140437 13.69500656 -0.00763965 14.80636871 -3.5625 15.5 C-6.9249123 14.8102744 -8.0486167 13.81866476 -10 11 C-10.56783945 7.02512383 -10.62340519 4.93510779 -8.375 1.5625 C-5.28314769 -0.47161336 -3.63632575 -0.60605429 0 0 Z " fill="#D8616B" transform="translate(259,252)"/>
<path d="M0 0 C2.4375 1.625 2.4375 1.625 4 4 C4.60605429 7.63632575 4.47161336 9.28314769 2.4375 12.375 C-0.95870843 14.63913895 -3.00099302 14.64269755 -7 14 C-9.5 11.875 -9.5 11.875 -11 9 C-10.936318 5.81590023 -10.51040601 3.85067668 -8.875 1.125 C-5.83167192 -0.70099685 -3.45750445 -0.42460581 0 0 Z " fill="#D9616B" transform="translate(407,264)"/>
<path d="M0 0 C0.66 0.33 1.32 0.66 2 1 C1.60167969 1.64066406 1.20335937 2.28132813 0.79296875 2.94140625 C0.26316406 3.80636719 -0.26664062 4.67132813 -0.8125 5.5625 C-1.33457031 6.40941406 -1.85664063 7.25632812 -2.39453125 8.12890625 C-4.16661595 11.29796283 -5.56973095 14.66270555 -7 18 C-21.85 18 -36.7 18 -52 18 C-52 17.67 -52 17.34 -52 17 C-50.52575562 17.03311279 -50.52575562 17.03311279 -49.02172852 17.06689453 C-45.33655736 17.13620417 -41.65371961 17.13866748 -37.96801758 17.12207031 C-36.38032948 17.12400396 -34.79255338 17.14350105 -33.20532227 17.18164062 C-23.58305145 17.58818331 -23.58305145 17.58818331 -15.07202148 13.82568359 C-12.70266586 11.23469524 -12.70266586 11.23469524 -10.84570312 8.50195312 C-7.978986 4.6159588 -4.12483709 2.39884143 0 0 Z " fill="#D4D3D4" transform="translate(332,109)"/>
<path d="M0 0 C2 1 2 1 3 3 C3.51981506 6.56444611 3.63102777 9.73794446 2 13 C-1.26417672 14.63208836 -4.43875614 14.65289471 -8 14 C-10 12.4375 -10 12.4375 -11 10 C-11.35773097 6.60155579 -11.58904125 4.14126742 -10 1.0625 C-6.75629493 -0.66071832 -3.5838959 -0.52265149 0 0 Z " fill="#050203" transform="translate(337,252)"/>
<path d="M0 0 C3.3 0 6.6 0 10 0 C10 4.95 10 9.9 10 15 C6.7 15 3.4 15 0 15 C0 10.05 0 5.1 0 0 Z " fill="#DCDBDD" transform="translate(211,437)"/>
<path d="M0 0 C3.3 0 6.6 0 10 0 C10 4.95 10 9.9 10 15 C6.7 15 3.4 15 0 15 C0 10.05 0 5.1 0 0 Z " fill="#DCDBDD" transform="translate(211,362)"/>
</svg>
