<?xml version="1.0" encoding="UTF-8"?>
<svg version="1.1" xmlns="http://www.w3.org/2000/svg" width="512" height="512">
<path d="M0 0 C1.15239092 -0.00551503 1.15239092 -0.00551503 2.32806247 -0.01114148 C4.91141828 -0.02218403 7.49473386 -0.02602343 10.07810974 -0.02983093 C11.92796964 -0.03609612 13.77782828 -0.04274297 15.62768555 -0.04974365 C21.71979391 -0.07081395 27.81190255 -0.08116206 33.90403748 -0.09111023 C36.00812734 -0.09515939 38.11221708 -0.09927636 40.21630669 -0.10346031 C50.12192784 -0.12253368 60.02754153 -0.13674932 69.93317753 -0.14507228 C81.31438795 -0.15479491 92.69540129 -0.18097393 104.07654244 -0.22157317 C112.89986778 -0.25194952 121.72313744 -0.2665621 130.54651397 -0.26985329 C135.80117434 -0.27218322 141.05562479 -0.28086794 146.31022835 -0.30631447 C197.09530885 -0.5393283 245.45031442 7.30018454 287.52513123 38.14717102 C288.36044373 38.75673645 288.36044373 38.75673645 289.21263123 39.37861633 C290.99272276 40.68538309 292.76126156 42.00610271 294.52513123 43.33467102 C295.3362738 43.94097351 295.3362738 43.94097351 296.1638031 44.55952454 C299.46817055 47.10499171 302.22211073 49.65621782 304.52513123 53.14717102 C304.42200623 54.38467102 304.31888123 55.62217102 304.21263123 56.89717102 C304.04904991 59.95847855 304.46443657 61.05584542 306.19700623 63.66279602 C310.32858874 68.33762735 310.32858874 68.33762735 315.95091248 70.53779602 C317.48056549 70.44524559 319.00868393 70.32102368 320.53294373 70.16279602 C322.52513123 70.14717102 322.52513123 70.14717102 325.15013123 72.14717102 C325.93388123 73.13717102 326.71763123 74.12717102 327.52513123 75.14717102 C328.00981873 75.65892883 328.49450623 76.17068665 328.99388123 76.69795227 C364.3045581 114.2571864 379.7799822 171.03268454 378.43772888 221.42353821 C377.5931468 241.76766648 373.99757262 261.85245911 367.52513123 281.14717102 C367.24185974 281.99553528 366.95858826 282.84389954 366.66673279 283.7179718 C359.43898618 304.89407141 349.13031919 324.39167305 335.52513123 342.14717102 C334.79423279 343.10881165 334.06333435 344.07045227 333.31028748 345.06123352 C322.7432551 358.57866504 310.72500306 371.243499 297.27122498 381.90498352 C294.24702667 384.37424359 291.37954796 386.98662363 288.52513123 389.64717102 C283.83134541 394.01360705 278.99229322 398.13398183 273.98606873 402.14326477 C271.86203394 403.87283595 269.85136431 405.66789644 267.83763123 407.52217102 C263.7296863 411.08568951 259.03147451 413.14717102 253.52513123 413.14717102 C253.53401367 414.32845581 253.54289612 415.5097406 253.55204773 416.7268219 C253.6330802 427.85092785 253.69307105 438.97497405 253.73237991 450.09930801 C253.75326832 455.81867509 253.78160921 461.5378042 253.82688904 467.2570343 C253.87030152 472.77483718 253.89425889 478.29241094 253.9046402 483.8103714 C253.91203979 485.91716367 253.92648923 488.0239432 253.94805145 490.13063812 C253.97702396 493.07815805 253.98108976 496.02472728 253.97923279 498.97236633 C253.99361389 499.84630539 254.007995 500.72024445 254.02281189 501.6206665 C253.9824008 507.5356726 253.9824008 507.5356726 251.62394714 510.68959045 C248.07326582 513.15545897 245.77423384 512.61929353 241.52513123 512.14717102 C238.85081633 510.33553835 238.56592764 509.26956025 237.52513123 506.14717102 C188.02513123 505.81717102 138.52513123 505.48717102 87.52513123 505.14717102 C87.19513123 506.79717102 86.86513123 508.44717102 86.52513123 510.14717102 C82.73265436 512.67548893 79.9756341 512.76039271 75.52513123 512.14717102 C72.85081633 510.33553835 72.56592764 509.26956025 71.52513123 506.14717102 C71.43358498 503.27146201 71.39916159 500.42043816 71.41160583 497.5448761 C71.41145981 496.66661667 71.41131378 495.78835724 71.41116333 494.88348389 C71.41186051 491.97786497 71.41964384 489.07231 71.42747498 486.16670227 C71.42933985 484.15316808 71.43076342 482.13963344 71.4317627 480.12609863 C71.43558243 474.8242518 71.44540811 469.52243233 71.45646667 464.22059631 C71.46669246 458.81135936 71.47126282 453.40211798 71.4763031 447.99287415 C71.48703084 437.37762775 71.50410077 426.76240166 71.52513123 416.14717102 C70.37625427 416.16288147 69.22737732 416.17859192 68.04368591 416.19477844 C63.72735272 416.24962098 59.41104946 416.28371606 55.09446716 416.31196594 C53.23634133 416.32693007 51.37825006 416.34730875 49.52024841 416.37348938 C31.18849336 416.62508236 13.23630504 414.49161613 -0.67408752 401.14717102 C-11.67849442 388.92535686 -17.85353019 375.6095717 -17.70191956 359.13911438 C-17.70221161 358.2892395 -17.70250366 357.43936462 -17.70280457 356.56373596 C-17.70142454 353.78805398 -17.68592666 351.01264916 -17.67018127 348.23701477 C-17.66644641 346.2993179 -17.66360168 344.36161912 -17.66160583 342.42391968 C-17.65400663 337.34899082 -17.63439037 332.27417827 -17.61219788 327.19929504 C-17.5916591 322.01071241 -17.58258701 316.8221108 -17.57252502 311.63349915 C-17.55114069 301.47133895 -17.51705002 291.3092647 -17.47486877 281.14717102 C-18.42405685 280.83536392 -19.37324493 280.52355682 -20.35119629 280.20230103 C-24.14481426 278.92087342 -27.51285371 277.21181997 -31.03736877 275.33467102 C-31.68383362 275.00402649 -32.33029846 274.67338196 -32.99635315 274.3327179 C-37.77168294 271.80174453 -42.08066362 269.04120294 -44.50611877 264.00654602 C-44.66080627 263.31045227 -44.81549377 262.61435852 -44.97486877 261.89717102 C-45.15018127 261.21138977 -45.32549377 260.52560852 -45.50611877 259.81904602 C-45.39881672 250.64472015 -39.52388629 242.53812226 -35.03736877 234.89717102 C-34.38832581 233.77826477 -33.73928284 232.65935852 -33.0705719 231.50654602 C-32.73908142 230.93685593 -32.40759094 230.36716583 -32.0660553 229.7802124 C-31.37097596 228.57718489 -30.68328744 227.36986252 -30.00233459 226.15878296 C-27.93440929 222.51319323 -25.73406219 219.06463974 -23.30299377 215.64888 C-13.28104403 200.9531128 -12.87236553 186.99579756 -13.3039093 169.78041077 C-13.39598695 165.63178095 -13.4104459 161.48227351 -13.4297657 157.33277035 C-13.44521223 154.1032699 -13.47695691 150.87641728 -13.54612732 147.64755249 C-13.87847927 126.98947463 -9.00097168 110.62089423 3.52513123 94.14717102 C2.81227966 93.66248352 2.0994281 93.17779602 1.36497498 92.67842102 C-9.06947103 85.37571318 -17.03748041 77.63881916 -20.02189636 64.79251099 C-20.46275197 62.21793264 -20.62756313 59.81781478 -20.66773987 57.20845032 C-20.69183426 55.77622383 -20.69183426 55.77622383 -20.71641541 54.31506348 C-20.76122492 49.9681756 -20.80190838 45.62143333 -20.82496643 41.27436829 C-20.84152986 38.98650442 -20.8688247 36.69869238 -20.90699768 34.41108704 C-20.96193214 31.09758397 -20.98366417 27.78528766 -20.99830627 24.47138977 C-21.02097565 23.45655014 -21.04364502 22.44171051 -21.06700134 21.39611816 C-21.04722631 14.70548538 -19.80712329 10.31947805 -15.47486877 5.14717102 C-10.48720949 0.51577312 -6.58444864 -0.00168463 0 0 Z " fill="#9A8D98" transform="translate(89.47486877441406,-0.1471710205078125)"/>
<path d="M0 0 C1.21686493 0.00349709 1.21686493 0.00349709 2.45831299 0.00706482 C4.16958168 0.01677323 5.88081963 0.03849342 7.59179688 0.0715332 C10.18148636 0.12068307 12.76926224 0.13300477 15.359375 0.13867188 C33.00216772 0.25819924 48.29664479 3.2476372 62.453125 14.55859375 C63.21238281 15.14253906 63.97164063 15.72648437 64.75390625 16.328125 C74.74750636 24.52667431 81.27899014 35.42366162 85.453125 47.55859375 C85.68644531 48.23019531 85.91976562 48.90179688 86.16015625 49.59375 C87.77737498 55.0736782 87.81947248 60.70615148 88.01171875 66.38671875 C88.48703658 69.80227697 89.03197334 71.15398754 91.453125 73.55859375 C92.773125 74.21859375 94.093125 74.87859375 95.453125 75.55859375 C95.453125 80.83859375 95.453125 86.11859375 95.453125 91.55859375 C92.483125 92.54859375 92.483125 92.54859375 89.453125 93.55859375 C88.13742067 97.50570675 88.28905767 101.28529718 88.27612305 105.40112305 C88.26626625 106.7577581 88.26626625 106.7577581 88.25621033 108.14179993 C88.23647962 111.13880496 88.22481426 114.13575985 88.21484375 117.1328125 C88.21076822 118.15713694 88.2066927 119.18146137 88.20249367 120.23682594 C88.18163236 125.66007918 88.16733176 131.08330711 88.15795898 136.5065918 C88.14690379 142.1008227 88.11251411 147.69465483 88.07278728 153.28874493 C88.04660526 157.59626491 88.03826565 161.90369018 88.03467751 166.21128273 C88.02981446 168.27289328 88.01820856 170.33449968 87.99963951 172.39603233 C87.97521816 175.28737061 87.97621885 178.17768134 87.9831543 181.0690918 C87.97034424 181.91458588 87.95753418 182.76007996 87.94433594 183.63119507 C87.99396646 189.33193842 89.13250089 193.84481051 92.453125 198.55859375 C96.43569603 202.05854952 100.73527592 203.41069714 106.02734375 203.1171875 C111.22074872 201.92128265 115.22603449 198.67301837 119.453125 195.55859375 C120.10361816 195.08180176 120.75411133 194.60500977 121.42431641 194.11376953 C126.1402809 190.64797744 130.82909284 187.14637218 135.453125 183.55859375 C136.3414502 182.96409424 137.22977539 182.36959473 138.14501953 181.75708008 C140.68638478 179.75284763 140.68638478 179.75284763 141.03320312 176.78466797 C141.01708984 175.73811035 141.00097656 174.69155273 140.984375 173.61328125 C140.99404297 171.87304688 140.99404297 171.87304688 141.00390625 170.09765625 C140.97037685 167.67838089 140.93652903 165.25910993 140.90234375 162.83984375 C140.95003394 154.19838093 142.16595519 147.16527849 148.2253418 140.65429688 C149.88820368 139.12332303 151.58743636 137.83180018 153.453125 136.55859375 C154.34 135.93984375 155.226875 135.32109375 156.140625 134.68359375 C162.66440651 132.46796984 169.73349451 132.55176195 176.203125 134.99609375 C182.89536861 138.40925989 188.0848134 144.46369948 190.453125 151.55859375 C190.92396993 156.27792313 190.86940948 161.00560474 190.890625 165.74609375 C190.92349609 167.02291016 190.95636719 168.29972656 190.99023438 169.61523438 C191.04558821 179.40279911 189.27981278 185.89540326 183.05859375 193.4765625 C182.26066406 194.22550781 181.46273437 194.97445312 180.640625 195.74609375 C179.76792969 196.57367188 178.89523437 197.40125 177.99609375 198.25390625 C175.19801419 200.78980017 172.39620476 203.31383277 169.52734375 205.76953125 C166.24563736 208.60008027 163.05352845 211.52947074 159.84765625 214.4453125 C157.453125 216.55859375 157.453125 216.55859375 154.828125 218.55078125 C150.1059035 222.54292246 147.89188667 227.69084747 146.96484375 233.75 C146.5424332 243.97233525 149.49528738 250.45587877 156.28198242 257.96655273 C157.71578182 259.50971598 159.16746862 261.03394375 160.625 262.5546875 C163.22237717 265.27354361 165.60324223 268.12124029 167.953125 271.05859375 C171.15244222 275.03488801 174.47897445 278.82527673 177.953125 282.55859375 C181.44659121 286.31302786 184.79369614 290.12635656 188.015625 294.12109375 C191.18003955 298.03677218 194.41012686 301.869155 197.765625 305.62109375 C198.56613281 306.51957031 199.36664063 307.41804688 200.19140625 308.34375 C202.5137639 310.84414413 202.5137639 310.84414413 206.453125 312.55859375 C206.453125 344.23859375 206.453125 375.91859375 206.453125 408.55859375 C156.623125 408.55859375 106.793125 408.55859375 55.453125 408.55859375 C55.265625 358.80859375 55.265625 358.80859375 55.24536133 343.09863281 C55.21548659 338.45233718 55.21548659 338.45233718 55.17900085 333.80609131 C55.16592038 331.73630466 55.16266859 329.66644176 55.16716003 327.59661865 C55.17205693 324.46125337 55.1457905 321.32754453 55.11254883 318.19238281 C55.12117101 317.269939 55.12979319 316.34749519 55.13867664 315.39709854 C55.05771928 310.22056299 55.05771928 310.22056299 52.23382568 305.98564148 C49.28201546 304.47078082 47.59334142 304.06876762 44.30249023 304.09204102 C43.30052109 304.08846085 42.29855194 304.08488068 41.26622009 304.08119202 C40.19223465 304.09564865 39.11824921 304.11010529 38.01171875 304.125 C35.71288998 304.11538701 33.41406187 304.10561631 31.11523438 304.09570312 C27.51025517 304.10426718 23.90545679 304.12100197 20.30053711 304.14331055 C16.80808365 304.15795144 13.3166379 304.1424864 9.82421875 304.125 C8.76440292 304.14148087 7.7045871 304.15796173 6.61265564 304.17494202 C-4.95860641 304.09886882 -14.11793463 299.96371513 -22.359375 291.93359375 C-33.90851212 279.3945306 -35.11870553 265.81052637 -34.87990379 249.5146656 C-34.83901644 246.53342801 -34.82806598 243.55338806 -34.82527161 240.57188416 C-34.8135846 232.10629317 -34.76050969 223.6415246 -34.66040039 215.17651367 C-34.60095277 209.97406428 -34.58514604 204.77297269 -34.5965519 199.57021904 C-34.59210297 197.59618666 -34.57088341 195.62211632 -34.53236961 193.64845467 C-33.85199852 183.30209926 -33.85199852 183.30209926 -37.45326233 174.07977295 C-39.79312582 172.48394027 -41.89038912 171.51420029 -44.546875 170.55859375 C-46.09012517 169.72657603 -47.62434573 168.87735377 -49.14453125 168.00390625 C-50.63017023 167.22540547 -52.11845023 166.45192308 -53.609375 165.68359375 C-54.37958984 165.28140625 -55.14980469 164.87921875 -55.94335938 164.46484375 C-57.80883531 163.49155196 -59.67751067 162.52439621 -61.546875 161.55859375 C-57.60346178 153.42950984 -53.34252049 145.5779781 -48.734375 137.80859375 C-47.50303892 135.71405131 -46.27257209 133.61899761 -45.04296875 131.5234375 C-44.4485498 130.5113623 -43.85413086 129.49928711 -43.24169922 128.45654297 C-40.895815 124.44535805 -38.58333462 120.41640556 -36.296875 116.37109375 C-35.93875732 115.74299805 -35.58063965 115.11490234 -35.21166992 114.46777344 C-31.97126422 108.70882275 -30.29981787 104.51383192 -30.27563477 97.84741211 C-30.26779465 96.86573563 -30.26779465 96.86573563 -30.25979614 95.86422729 C-30.24959106 94.44891175 -30.24378185 93.03355904 -30.24191475 91.61820793 C-30.2382298 89.3670064 -30.22144162 87.11623716 -30.20115662 84.86512756 C-30.14597657 78.46656403 -30.11523165 72.06793562 -30.09057617 65.66918945 C-30.0745574 61.74696799 -30.04418414 57.82504948 -30.00581169 53.90298653 C-29.99427832 52.41970641 -29.98823238 50.93637175 -29.98813057 49.4530468 C-29.98637803 30.70002887 -25.32638862 16.36725749 -11.92871094 2.93334961 C-8.14037183 -0.17028303 -4.74590633 -0.12056539 0 0 Z " fill="#FDD1A3" transform="translate(121.546875,96.44140625)"/>
<path d="M0 0 C1.18847031 -0.0038269 2.37694061 -0.00765381 3.60142517 -0.01159668 C6.12402185 -0.01431916 8.64664659 -0.00693464 11.16918945 0.00976562 C14.96177412 0.03088487 18.75240179 0.01012225 22.54492188 -0.015625 C36.79681197 -0.03266781 50.1708295 0.8414136 63.96484375 4.53125 C65.52634155 4.94673096 65.52634155 4.94673096 67.11938477 5.37060547 C69.5228444 6.07580008 71.86415016 6.85548616 74.21484375 7.71875 C75.03291504 8.01426758 75.85098633 8.30978516 76.69384766 8.61425781 C101.44753438 17.91552654 121.62710857 35.54243641 135.96484375 57.53125 C136.60164062 58.49546875 137.2384375 59.4596875 137.89453125 60.453125 C147.72461481 76.26863721 153.99757197 95.33386541 154.1418457 113.97949219 C154.1484169 114.68770615 154.1549881 115.3959201 154.16175842 116.12559509 C154.18129441 118.44310641 154.19310123 120.760554 154.203125 123.078125 C154.20720053 123.87333809 154.21127605 124.66855118 154.21547508 125.48786163 C154.23623828 129.68640373 154.25058925 133.88491396 154.26000977 138.08349609 C154.27113445 142.42038771 154.30563046 146.75677474 154.34518147 151.09348679 C154.371267 154.43230162 154.3796937 157.77099365 154.38329124 161.10990143 C154.38816768 162.70954092 154.39981174 164.30917455 154.41832924 165.90871429 C154.44258032 168.13975572 154.44178399 170.36945414 154.43481445 172.60058594 C154.44068069 173.86964783 154.44654694 175.13870972 154.45259094 176.44622803 C153.96484375 179.53125 153.96484375 179.53125 152.12297058 181.4644165 C149.96484375 182.53125 149.96484375 182.53125 146.96484375 182.53125 C146.96484375 187.15125 146.96484375 191.77125 146.96484375 196.53125 C124.52484375 196.53125 102.08484375 196.53125 78.96484375 196.53125 C78.63484375 192.24125 78.30484375 187.95125 77.96484375 183.53125 C76.31484375 182.21125 74.66484375 180.89125 72.96484375 179.53125 C71.3948121 176.3911867 71.81173838 173.03224578 71.80712891 169.58422852 C71.80204819 168.76279861 71.79696747 167.94136871 71.79173279 167.095047 C71.78101508 165.30642839 71.77240041 163.51779625 71.76561356 161.7291584 C71.75382457 158.89048916 71.7343674 156.05197206 71.7124939 153.21336365 C71.65090853 145.14042296 71.59700721 137.06749444 71.56347656 128.99438477 C71.54242018 124.05767217 71.50701999 119.12123149 71.46271896 114.18467522 C71.44863434 112.30981609 71.43985371 110.43490879 71.43666458 108.55999947 C71.40499805 91.71169521 69.55191552 76.11832177 56.96484375 63.53125 C48.44588895 56.40543254 37.06572197 50.44384795 25.71875 50.3894043 C24.47726196 50.37885262 24.47726196 50.37885262 23.21069336 50.36808777 C22.32518799 50.36392349 21.43968262 50.35975922 20.52734375 50.35546875 C18.64451994 50.33228081 16.76170739 50.3081639 14.87890625 50.28320312 C11.91626323 50.24802727 8.95403787 50.2187012 5.99121094 50.20532227 C3.12774579 50.18986849 0.26549006 50.14969056 -2.59765625 50.10546875 C-3.92591431 50.10833138 -3.92591431 50.10833138 -5.28100586 50.11125183 C-11.38987693 49.98953378 -11.38987693 49.98953378 -14.59375 47.71411133 C-16.71960324 44.49472552 -16.57334215 42.29855131 -16.03515625 38.53125 C-14.16015625 36.09375 -14.16015625 36.09375 -12.03515625 34.53125 C-11.37515625 34.53125 -10.71515625 34.53125 -10.03515625 34.53125 C-10.03515625 28.26125 -10.03515625 21.99125 -10.03515625 15.53125 C-11.68515625 15.20125 -13.33515625 14.87125 -15.03515625 14.53125 C-17.58246667 11.98393958 -17.38838769 10.08609721 -17.59375 6.6015625 C-15.46185841 -1.29985388 -6.45435389 -0.04598833 0 0 Z " fill="#62D9F9" transform="translate(123.03515625,308.46875)"/>
<path d="M0 0 C1.15239092 -0.00551503 1.15239092 -0.00551503 2.32806247 -0.01114148 C4.91141828 -0.02218403 7.49473386 -0.02602343 10.07810974 -0.02983093 C11.92796964 -0.03609612 13.77782828 -0.04274297 15.62768555 -0.04974365 C21.71979391 -0.07081395 27.81190255 -0.08116206 33.90403748 -0.09111023 C36.00812734 -0.09515939 38.11221708 -0.09927636 40.21630669 -0.10346031 C50.12192784 -0.12253368 60.02754153 -0.13674932 69.93317753 -0.14507228 C81.31438795 -0.15479491 92.69540129 -0.18097393 104.07654244 -0.22157317 C112.89986778 -0.25194952 121.72313744 -0.2665621 130.54651397 -0.26985329 C135.80117434 -0.27218322 141.05562479 -0.28086794 146.31022835 -0.30631447 C197.09530885 -0.5393283 245.45031442 7.30018454 287.52513123 38.14717102 C288.36044373 38.75673645 288.36044373 38.75673645 289.21263123 39.37861633 C290.99272276 40.68538309 292.76126156 42.00610271 294.52513123 43.33467102 C295.3362738 43.94097351 295.3362738 43.94097351 296.1638031 44.55952454 C299.46932968 47.10588462 302.19786695 49.67305777 304.52513123 53.14717102 C304.52513123 56.96094612 304.37498194 59.1714165 301.83763123 62.08467102 C298.72483503 63.51487468 296.94911301 63.55950413 293.52513123 63.14717102 C290.87839772 61.66169327 288.61405335 59.75932668 286.27513123 57.83467102 C265.60281739 41.65717405 242.58015971 30.72641605 217.52513123 23.14717102 C216.49259216 22.82103821 215.4600531 22.4949054 214.39622498 22.15888977 C208.894733 20.52104101 203.29942409 19.49872274 197.65013123 18.52217102 C196.94283875 18.39874329 196.23554626 18.27531555 195.50682068 18.14814758 C182.93641838 16.09780748 170.33028165 16.00120762 157.63352966 16.01777649 C155.86970992 16.0164186 154.10589046 16.01463649 152.34207153 16.01246643 C147.59291851 16.00794226 142.84378742 16.00965977 138.09463406 16.01284552 C133.11567568 16.0153904 128.13671908 16.01302612 123.15776062 16.01145935 C114.8126034 16.00964588 106.46745506 16.01202446 98.12229919 16.01679993 C88.46483967 16.0222624 78.80740119 16.02046226 69.14994216 16.01497352 C60.84909438 16.01044441 52.54825295 16.0097902 44.24740434 16.01241219 C39.29279373 16.01397333 34.33819304 16.01417273 29.38358307 16.0108757 C24.73780637 16.00799921 20.09205706 16.00996852 15.44628334 16.01576996 C13.73738208 16.01709784 12.02847854 16.01670297 10.31957817 16.01450729 C7.9975002 16.01179742 5.67551152 16.01517462 3.35343933 16.02018738 C2.05123821 16.0205644 0.74903709 16.02094143 -0.59262466 16.02132988 C-3.37034737 15.81745285 -3.37034737 15.81745285 -4.47486877 17.14717102 C-4.60105987 20.0717452 -4.66359251 22.97132613 -4.67799377 25.89717102 C-4.68654388 27.22808777 -4.68654388 27.22808777 -4.69526672 28.58589172 C-4.70473791 30.47235415 -4.71125907 32.35883327 -4.71510315 34.24531555 C-4.72473505 37.1074359 -4.75570676 39.96881545 -4.78736877 42.83076477 C-4.79390613 44.66539593 -4.79915372 46.50003223 -4.80299377 48.33467102 C-4.81534058 49.18190735 -4.82768738 50.02914368 -4.84040833 50.90205383 C-4.80601219 60.26518859 -2.16693917 68.46000864 4.52513123 75.14717102 C15.12357043 83.46110654 27.97885562 81.87548773 40.71263123 81.70967102 C58.81891773 81.50183384 74.65256183 82.29833705 90.96263123 90.95967102 C91.94489685 91.46723938 91.94489685 91.46723938 92.94700623 91.98506165 C98.70489614 95.05707194 103.70793726 98.73939499 108.52513123 103.14717102 C109.20704529 103.73756165 109.88895935 104.32795227 110.59153748 104.93623352 C125.44751971 118.6002485 133.18253214 138.16858439 134.84153748 157.91279602 C135.1352158 166.36315304 135.1352158 166.36315304 132.71653748 169.47138977 C130.52513123 171.14717102 130.52513123 171.14717102 127.02513123 171.70967102 C123.52513123 171.14717102 123.52513123 171.14717102 121.33372498 169.00654602 C119.19964262 165.63257564 119.09228214 163.79259883 119.08763123 159.83467102 C118.25512973 142.16713934 110.37133143 126.2773535 97.52513123 114.14717102 C84.25556847 103.29411011 69.69477247 98.06960427 52.66966248 97.90888977 C51.8456041 97.90081802 51.02154572 97.89274628 50.17251587 97.88442993 C48.4421748 97.87068055 46.71180765 97.85991807 44.98143005 97.852005 C43.21344547 97.84041327 41.44549777 97.8198499 39.67771912 97.79048157 C37.11229385 97.74793444 34.54789602 97.73166321 31.98216248 97.72138977 C31.19356339 97.70388168 30.40496429 97.6863736 29.59246826 97.66833496 C25.91614536 97.6829107 23.9843331 97.75998618 21.12156677 100.17378235 C20.59474304 100.82500061 20.06791931 101.47621887 19.52513123 102.14717102 C18.86513123 102.14717102 18.20513123 102.14717102 17.52513123 102.14717102 C17.13647888 102.9882843 17.13647888 102.9882843 16.73997498 103.84638977 C15.38920253 106.40460512 13.7964398 108.62613673 12.08763123 110.95967102 C4.39369556 121.87803616 3.23933257 132.39604082 3.37299728 145.38821602 C3.39276335 147.60724305 3.39462874 149.82563212 3.39112854 152.04473877 C3.38153115 158.3483062 3.38053288 164.65125028 3.44602966 170.95454407 C3.76397313 204.09772001 3.76397313 204.09772001 -5.47486877 217.14717102 C-6.66634394 219.22156883 -7.84285917 221.30465122 -9.00221252 223.39717102 C-10.13408578 225.31670314 -11.27080657 227.23338515 -12.41236877 229.14717102 C-13.62298975 231.19867308 -14.83262225 233.25075877 -16.04127502 235.30342102 C-16.62280334 236.28955383 -17.20433167 237.27568665 -17.80348206 238.29170227 C-21.4519882 244.52496664 -24.96584622 250.83464368 -28.47486877 257.14717102 C-25.77410022 259.26644171 -23.09207234 260.96792914 -20.03346252 262.52217102 C-19.20266174 262.95013977 -18.37186096 263.37810852 -17.5158844 263.81904602 C-15.77710696 264.70604426 -14.03751933 265.59145603 -12.2971344 266.47529602 C-11.46762268 266.90326477 -10.63811096 267.33123352 -9.78346252 267.77217102 C-8.65122253 268.34838196 -8.65122253 268.34838196 -7.49610901 268.93623352 C-5.41457365 270.1832942 -4.03659206 271.29431859 -2.47486877 273.14717102 C-2.18559899 276.04756155 -2.07865592 278.73424373 -2.10597229 281.63496399 C-2.10220581 282.50209518 -2.09843933 283.36922638 -2.09455872 284.26263428 C-2.08811797 286.14835911 -2.08846402 288.03411639 -2.09474373 289.91984177 C-2.10385213 292.914712 -2.09362902 295.90895568 -2.078125 298.90379333 C-2.03804313 307.41980471 -2.0368084 315.93576852 -2.03907776 324.45185852 C-2.03912919 329.66205394 -2.01978885 334.87191599 -1.98974419 340.08201981 C-1.97900574 343.01386659 -1.99100413 345.94505205 -2.00357056 348.87687683 C-1.97455832 364.01086456 -0.09989414 376.6990816 10.48997498 388.29951477 C18.42382157 396.00381065 27.63469802 399.70002053 38.65901184 399.73786926 C40.24403 399.70844238 40.24403 399.70844238 41.86106873 399.67842102 C43.54554611 399.68331543 43.54554611 399.68331543 45.26405334 399.68830872 C48.80991205 399.69805865 52.35439558 399.67665035 55.90013123 399.64717102 C60.59594301 399.60847799 65.29014997 399.60220648 69.98606873 399.61592102 C71.58930496 399.58649414 71.58930496 399.58649414 73.22492981 399.55647278 C74.72777023 399.56172974 74.72777023 399.56172974 76.26097107 399.5670929 C77.13522736 399.55867371 78.00948364 399.55025452 78.91023254 399.5415802 C82.69173068 400.41734666 85.30616378 401.99767077 87.52513123 405.14717102 C88.38915577 408.46964154 88.32540956 411.68874352 88.26976013 415.10639954 C88.27706146 416.10532227 88.28436279 417.104245 88.29188538 418.13343811 C88.30808323 421.4316787 88.28089425 424.72794983 88.25169373 428.02607727 C88.25065641 430.31863402 88.25169225 432.61119257 88.25471497 434.90374756 C88.25453559 439.70643195 88.23369033 444.5084444 88.19749451 449.31098938 C88.15209361 455.47064911 88.15103682 461.62932818 88.1645298 467.78910923 C88.17120842 472.522031 88.15795168 477.25472867 88.13827133 481.98760796 C88.13056727 484.25902573 88.12827094 486.53046843 88.13144302 488.80189705 C88.13218377 491.97419481 88.1069645 495.14522891 88.07444763 498.31733704 C88.07940247 499.25822678 88.0843573 500.19911652 88.08946228 501.16851807 C87.98534814 507.52377236 87.98534814 507.52377236 85.61799622 510.73052979 C82.05902055 513.13956797 79.75371221 512.61701335 75.52513123 512.14717102 C72.85081633 510.33553835 72.56592764 509.26956025 71.52513123 506.14717102 C71.43358498 503.27146201 71.39916159 500.42043816 71.41160583 497.5448761 C71.41145981 496.66661667 71.41131378 495.78835724 71.41116333 494.88348389 C71.41186051 491.97786497 71.41964384 489.07231 71.42747498 486.16670227 C71.42933985 484.15316808 71.43076342 482.13963344 71.4317627 480.12609863 C71.43558243 474.8242518 71.44540811 469.52243233 71.45646667 464.22059631 C71.46669246 458.81135936 71.47126282 453.40211798 71.4763031 447.99287415 C71.48703084 437.37762775 71.50410077 426.76240166 71.52513123 416.14717102 C70.37625427 416.16288147 69.22737732 416.17859192 68.04368591 416.19477844 C63.72735272 416.24962098 59.41104946 416.28371606 55.09446716 416.31196594 C53.23634133 416.32693007 51.37825006 416.34730875 49.52024841 416.37348938 C31.18849336 416.62508236 13.23630504 414.49161613 -0.67408752 401.14717102 C-11.67849442 388.92535686 -17.85353019 375.6095717 -17.70191956 359.13911438 C-17.70221161 358.2892395 -17.70250366 357.43936462 -17.70280457 356.56373596 C-17.70142454 353.78805398 -17.68592666 351.01264916 -17.67018127 348.23701477 C-17.66644641 346.2993179 -17.66360168 344.36161912 -17.66160583 342.42391968 C-17.65400663 337.34899082 -17.63439037 332.27417827 -17.61219788 327.19929504 C-17.5916591 322.01071241 -17.58258701 316.8221108 -17.57252502 311.63349915 C-17.55114069 301.47133895 -17.51705002 291.3092647 -17.47486877 281.14717102 C-18.42405685 280.83536392 -19.37324493 280.52355682 -20.35119629 280.20230103 C-24.14481426 278.92087342 -27.51285371 277.21181997 -31.03736877 275.33467102 C-31.68383362 275.00402649 -32.33029846 274.67338196 -32.99635315 274.3327179 C-37.77168294 271.80174453 -42.08066362 269.04120294 -44.50611877 264.00654602 C-44.66080627 263.31045227 -44.81549377 262.61435852 -44.97486877 261.89717102 C-45.15018127 261.21138977 -45.32549377 260.52560852 -45.50611877 259.81904602 C-45.39881672 250.64472015 -39.52388629 242.53812226 -35.03736877 234.89717102 C-34.38832581 233.77826477 -33.73928284 232.65935852 -33.0705719 231.50654602 C-32.73908142 230.93685593 -32.40759094 230.36716583 -32.0660553 229.7802124 C-31.37097596 228.57718489 -30.68328744 227.36986252 -30.00233459 226.15878296 C-27.93440929 222.51319323 -25.73406219 219.06463974 -23.30299377 215.64888 C-13.28104403 200.9531128 -12.87236553 186.99579756 -13.3039093 169.78041077 C-13.39598695 165.63178095 -13.4104459 161.48227351 -13.4297657 157.33277035 C-13.44521223 154.1032699 -13.47695691 150.87641728 -13.54612732 147.64755249 C-13.87847927 126.98947463 -9.00097168 110.62089423 3.52513123 94.14717102 C2.81227966 93.66248352 2.0994281 93.17779602 1.36497498 92.67842102 C-9.06947103 85.37571318 -17.03748041 77.63881916 -20.02189636 64.79251099 C-20.46275197 62.21793264 -20.62756313 59.81781478 -20.66773987 57.20845032 C-20.69183426 55.77622383 -20.69183426 55.77622383 -20.71641541 54.31506348 C-20.76122492 49.9681756 -20.80190838 45.62143333 -20.82496643 41.27436829 C-20.84152986 38.98650442 -20.8688247 36.69869238 -20.90699768 34.41108704 C-20.96193214 31.09758397 -20.98366417 27.78528766 -20.99830627 24.47138977 C-21.02097565 23.45655014 -21.04364502 22.44171051 -21.06700134 21.39611816 C-21.04722631 14.70548538 -19.80712329 10.31947805 -15.47486877 5.14717102 C-10.48720949 0.51577312 -6.58444864 -0.00168463 0 0 Z " fill="#010101" transform="translate(89.47486877441406,-0.1471710205078125)"/>
<path d="M0 0 C4.16955075 0.76583585 5.31664437 2.34783975 8.0625 5.5625 C8.79533203 6.33013672 8.79533203 6.33013672 9.54296875 7.11328125 C44.76684229 44.84716953 60.32074782 101.32048928 58.97509766 151.83886719 C58.13051558 172.18299546 54.53494139 192.26778809 48.0625 211.5625 C47.63759277 212.83504639 47.63759277 212.83504639 47.20410156 214.13330078 C39.97635495 235.30940039 29.66768796 254.80700203 16.0625 272.5625 C15.33160156 273.52414062 14.60070312 274.48578125 13.84765625 275.4765625 C3.28062387 288.99399402 -8.73762817 301.65882798 -22.19140625 312.3203125 C-25.21560456 314.78957257 -28.08308327 317.40195261 -30.9375 320.0625 C-35.63128582 324.42893603 -40.470338 328.54931081 -45.4765625 332.55859375 C-47.60059729 334.28816493 -49.61126692 336.08322542 -51.625 337.9375 C-55.73294493 341.50101849 -60.43115671 343.5625 -65.9375 343.5625 C-65.92861755 344.74378479 -65.91973511 345.92506958 -65.9105835 347.14215088 C-65.82955103 358.26625683 -65.76956018 369.39030303 -65.73025131 380.51463699 C-65.70936291 386.23400407 -65.68102202 391.95313318 -65.63574219 397.67236328 C-65.5923297 403.19016616 -65.56837234 408.70773992 -65.55799103 414.22570038 C-65.55059143 416.33249265 -65.536142 418.43927218 -65.51457977 420.5459671 C-65.48560727 423.49348703 -65.48154147 426.44005626 -65.48339844 429.38769531 C-65.46901733 430.26163437 -65.45463623 431.13557343 -65.43981934 432.03599548 C-65.48023042 437.95100158 -65.48023042 437.95100158 -67.83868408 441.10491943 C-71.3893654 443.57078795 -73.68839739 443.03462251 -77.9375 442.5625 C-80.17757949 441.11728743 -80.73431236 440.23278753 -81.49876308 437.71097183 C-81.94126624 435.54405694 -82.0458076 433.64550091 -82.01979065 431.43695068 C-82.01275116 430.62369324 -82.00571167 429.81043579 -81.99845886 428.97253418 C-81.98551285 428.08924438 -81.97256683 427.20595459 -81.95922852 426.29589844 C-81.94962097 425.35897156 -81.94001343 424.42204468 -81.93011475 423.45672607 C-81.89714953 420.36169868 -81.85680761 417.26681352 -81.81640625 414.171875 C-81.79210272 412.0252533 -81.76825928 409.87862635 -81.74485779 407.73199463 C-81.68204007 402.08323174 -81.61296677 396.43456193 -81.54260254 390.78588867 C-81.47189828 385.02136472 -81.40709382 379.25677479 -81.34179688 373.4921875 C-81.21281431 362.18221917 -81.07722483 350.87234037 -80.9375 339.5625 C-81.70932617 339.28269287 -82.48115234 339.00288574 -83.27636719 338.71459961 C-86.72453302 337.22176525 -88.76647323 334.89779617 -91.1875 332.125 C-91.66711182 331.58931396 -92.14672363 331.05362793 -92.64086914 330.50170898 C-96.41799116 326.24861072 -99.99393757 321.84206331 -103.55859375 317.41015625 C-106.24879052 314.18987145 -109.07009012 311.12431055 -111.9375 308.0625 C-116.43431531 303.26004841 -120.669658 298.32361339 -124.77734375 293.1796875 C-126.98062634 290.51024928 -129.31004022 288.0145456 -131.6875 285.5 C-138.54994925 277.85636126 -141.92024159 271.17573393 -141.39453125 260.72265625 C-139.71589632 249.11568479 -131.36702114 242.77089714 -122.9375 235.5625 C-121.54106293 234.33401928 -120.14511648 233.10498024 -118.75 231.875 C-118.14285156 231.34777344 -117.53570312 230.82054687 -116.91015625 230.27734375 C-114.49226677 228.17545566 -112.0849236 226.06272703 -109.6875 223.9375 C-108.87796875 223.22335937 -108.0684375 222.50921875 -107.234375 221.7734375 C-100.59041186 215.37805802 -97.85255623 209.95947285 -97.50390625 200.81640625 C-97.48671766 198.25266146 -97.48589225 195.6887636 -97.5 193.125 C-97.48001953 191.84044922 -97.46003906 190.55589844 -97.43945312 189.23242188 C-97.44386172 180.67533308 -98.23986252 174.85894517 -103.8671875 168.3203125 C-110.6598395 162.61884958 -115.99717946 161.01793758 -124.8984375 161.18359375 C-130.98264614 161.94216475 -135.73006623 164.9310746 -139.8125 169.4375 C-145.86920336 178.34441671 -145.31449472 186.15894711 -145.02539062 196.69140625 C-145.06830749 205.30339068 -145.06830749 205.30339068 -147.43359375 208.72973633 C-149.4968024 210.58739782 -151.59811838 212.06919514 -153.9375 213.5625 C-155.0965686 214.39370361 -155.0965686 214.39370361 -156.27905273 215.24169922 C-158.67749107 216.95883278 -161.1109405 218.60978996 -163.5625 220.25 C-164.38234375 220.80494141 -165.2021875 221.35988281 -166.046875 221.93164062 C-167.63038491 223.00216461 -169.21707825 224.06799934 -170.80737305 225.12841797 C-172.11786741 226.01069234 -173.41873369 226.90773142 -174.70239258 227.82861328 C-178.57697177 230.58242617 -181.04397385 231.18022859 -185.6953125 230.9453125 C-190.87676846 230.06067368 -194.07500101 227.67466976 -197.3125 223.5 C-200.07758536 218.50157646 -200.09710421 214.23315388 -200.11450195 208.65649414 C-200.12107315 207.7456456 -200.12764435 206.83479706 -200.13441467 205.89634705 C-200.15413751 202.88011597 -200.16580601 199.86393457 -200.17578125 196.84765625 C-200.17985678 195.81833921 -200.1839323 194.78902218 -200.18813133 193.72851372 C-200.20898446 188.28393631 -200.22329133 182.83938409 -200.23266602 177.39477539 C-200.24374867 171.76428051 -200.2781722 166.13417885 -200.31783772 160.50382328 C-200.34394077 156.17930857 -200.35235207 151.85488862 -200.35594749 147.53030205 C-200.36082722 145.45422131 -200.37248039 143.37814519 -200.39098549 141.30214119 C-200.41524996 138.40040676 -200.41443553 135.49970452 -200.4074707 132.59790039 C-200.42028076 131.73802521 -200.43309082 130.87815002 -200.44628906 129.99221802 C-200.39526884 124.17225011 -200.39526884 124.17225011 -198.0353241 121.02879333 C-194.4885918 118.54977237 -192.18955538 119.0900494 -187.9375 119.5625 C-186.21395397 120.84663105 -186.21395397 120.84663105 -184.9375 122.5625 C-184.65670923 125.59127077 -184.5588941 128.41202822 -184.59692383 131.44018555 C-184.59648575 132.34770569 -184.59604767 133.25522583 -184.59559631 134.19024658 C-184.59768831 137.19345526 -184.62103888 140.19610745 -184.64453125 143.19921875 C-184.65012574 145.28001094 -184.65439653 147.36080707 -184.65739441 149.44160461 C-184.66885474 154.92110076 -184.69833227 160.40035876 -184.73150635 165.87976074 C-184.76218156 171.46993793 -184.7758943 177.06015355 -184.79101562 182.65039062 C-184.82320073 193.62119845 -184.87441153 204.59182943 -184.9375 215.5625 C-184.3331311 215.15298599 -183.72876221 214.74347198 -183.1060791 214.32154846 C-181.90598206 213.51378212 -181.90598206 213.51378212 -180.68164062 212.68969727 C-179.89164673 212.15643326 -179.10165283 211.62316925 -178.28771973 211.07374573 C-176.24229916 209.75849292 -174.20457758 208.61205894 -172.03125 207.52734375 C-168.10868457 205.40706667 -164.50823436 203.29295665 -161.9375 199.5625 C-160.23099739 193.5517059 -160.82331082 187.17464867 -160.96875 180.99121094 C-160.84899524 171.68402052 -156.11600437 164.14698412 -149.9375 157.5625 C-149.34066406 156.92441406 -148.74382812 156.28632813 -148.12890625 155.62890625 C-140.86901765 148.61051083 -132.49645427 145.3088727 -122.4375 145 C-111.15342092 145.43799286 -101.35555253 148.90047291 -92.9375 156.5625 C-88.64619701 161.58627029 -85.95624417 166.28573693 -83.9375 172.5625 C-82.8549292 172.61220947 -81.7723584 172.66191895 -80.65698242 172.71313477 C-70.25479911 173.22235916 -59.93120495 174.0649976 -49.58325195 175.23706055 C-47.21323352 175.5041433 -44.84210932 175.75923748 -42.47070312 176.01367188 C-40.93481711 176.18418821 -39.39900658 176.35538619 -37.86328125 176.52734375 C-36.82099113 176.63839699 -36.82099113 176.63839699 -35.75764465 176.75169373 C-30.68131073 177.3397691 -25.36079391 177.99908458 -21 180.8125 C-19.31574613 183.5865652 -19.42920364 185.38564776 -19.9375 188.5625 C-22.05297852 191.26171875 -22.05297852 191.26171875 -24.9375 193.5625 C-28.05444336 193.90234375 -28.05444336 193.90234375 -31.58984375 193.5 C-32.23662582 193.43417725 -32.8834079 193.36835449 -33.54978943 193.30053711 C-34.94894203 193.15471709 -36.34684321 192.99646521 -37.74334717 192.82714844 C-39.97152316 192.55839629 -42.2010012 192.32567011 -44.43408203 192.1015625 C-48.33267712 191.70495341 -52.22678092 191.27596349 -56.12036133 190.83300781 C-58.52838927 190.55927282 -60.93698138 190.29099217 -63.34570312 190.0234375 C-64.89847267 189.84927158 -66.45120838 189.67480369 -68.00390625 189.5 C-68.71333878 189.42080322 -69.4227713 189.34160645 -70.15370178 189.26000977 C-74.10540709 188.80842353 -78.02047903 188.25295276 -81.9375 187.5625 C-81.9060791 188.42246582 -81.9060791 188.42246582 -81.87402344 189.29980469 C-81.34146338 206.10578205 -82.42289771 218.40578089 -93.9375 231.5625 C-97.13541475 234.73503447 -100.48909155 237.66672111 -103.9375 240.5625 C-105.27333786 241.72629814 -106.60682919 242.89279744 -107.9375 244.0625 C-108.57042969 244.61550781 -109.20335937 245.16851562 -109.85546875 245.73828125 C-112.32585193 247.90276333 -114.79298576 250.07033325 -117.25 252.25 C-118.07113281 252.97574219 -118.89226562 253.70148438 -119.73828125 254.44921875 C-122.98909987 257.57300715 -124.78677491 259.3997636 -125.375 263.9375 C-124.49693993 271.21285486 -119.12908832 275.65357245 -114.35546875 280.86328125 C-112.00055371 283.49211209 -109.77327726 286.18692794 -107.5625 288.9375 C-104.3179881 292.95074643 -100.95019042 296.78681438 -97.4375 300.5625 C-93.09581488 305.23015106 -89.01466161 310.05387983 -85.00390625 315.01171875 C-83.06658341 317.40315885 -81.11641797 319.77842469 -79.125 322.125 C-78.60292969 322.74503906 -78.08085937 323.36507813 -77.54296875 324.00390625 C-74.60694071 326.85421084 -72.46149026 327.53492157 -68.375 327.75 C-59.29257855 326.28942576 -51.94703279 316.72130144 -45.41015625 310.64208984 C-42.26560998 307.72893852 -39.03987707 304.98235719 -35.6875 302.3125 C-2.35027102 275.38257081 22.32457983 240.98381446 34.0625 199.5625 C33.47259277 199.57700195 32.88268555 199.59150391 32.27490234 199.60644531 C25.65246341 199.69693345 19.24916532 199.17846127 12.6875 198.3125 C11.71683594 198.20292969 10.74617187 198.09335937 9.74609375 197.98046875 C2.75021429 197.0637673 2.75021429 197.0637673 -0.57421875 194.640625 C-2.47005479 191.75069728 -2.43180072 189.95199064 -1.9375 186.5625 C-0.80078125 184.40234375 -0.80078125 184.40234375 1.0625 182.5625 C13.17357934 180.39003238 27.03458459 183.79428827 39.0625 185.5625 C39.11148438 184.93085938 39.16046875 184.29921875 39.2109375 183.6484375 C39.6551348 178.3333871 40.27177404 173.10012026 41.109375 167.83203125 C42.21609217 160.28352076 42.36796661 152.86931111 42.3125 145.25 C42.30906586 144.57074463 42.30563171 143.89148926 42.30209351 143.19165039 C42.24099348 132.85649825 41.96250658 122.74224715 40.0625 112.5625 C39.90120605 111.69254395 39.73991211 110.82258789 39.57373047 109.92626953 C32.83322482 74.64553533 18.17167208 43.13528556 -4.7109375 15.4140625 C-6.93544518 12.59963013 -7.92861378 11.01569729 -8 7.375 C-6.33302601 2.96242178 -4.72636988 0.90504955 0 0 Z " fill="#020101" transform="translate(408.9375,69.4375)"/>
<path d="M0 0 C2.0836309 0.14151828 4.16689938 0.28837936 6.25 0.4375 C7.99023438 0.55931641 7.99023438 0.55931641 9.765625 0.68359375 C14.92085263 1.1879095 14.92085263 1.1879095 17 2 C17.433125 2.969375 17.86625 3.93875 18.3125 4.9375 C19.69540366 8.21391057 19.69540366 8.21391057 22.734375 9.08984375 C28.68450958 10.56797113 34.85325157 10.9996656 40.9375 11.625 C42.19369141 11.7590625 43.44988281 11.893125 44.74414062 12.03125 C47.82888947 12.35966433 50.91412153 12.68240624 54 13 C53.49665654 19.74008348 51.61586158 25.23172194 49 31.4375 C48.59918213 32.39962402 48.19836426 33.36174805 47.78540039 34.35302734 C37.5558295 58.4717227 23.02001469 79.0969218 5 98 C4.31292969 98.72832031 3.62585938 99.45664062 2.91796875 100.20703125 C-1.43520061 104.70205542 -6.1342801 108.6028803 -11.01171875 112.515625 C-14.28514254 115.23705968 -17.39552493 118.08966936 -20.5 121 C-25.39299399 125.58047467 -30.3947514 129.9128548 -35.640625 134.08984375 C-37.58049172 135.66036499 -39.37489792 137.28972224 -41.1875 139 C-44.77697654 141.55251665 -47.60802965 142.39927003 -52 142 C-57.64634902 139.59729829 -60.77302702 134.78770367 -64.51171875 130.0625 C-67.06419861 126.92098632 -69.7386662 123.95589542 -72.5 121 C-75.95236219 117.29210583 -79.26526631 113.51488519 -82.4375 109.5625 C-85.85713949 105.30640193 -89.45585929 101.29184642 -93.1875 97.3125 C-105.49203037 84.17481021 -105.49203037 84.17481021 -106.5 77.875 C-104.99919359 66.2437503 -86.6534221 54.2870923 -78 47 C-77.17757813 46.38382812 -76.35515625 45.76765625 -75.5078125 45.1328125 C-72.87502495 42.8937128 -71.23046985 40.78105552 -69.375 37.875 C-68.80523437 37.00617188 -68.23546875 36.13734375 -67.6484375 35.2421875 C-63.62987397 27.33837771 -62.52833847 19.65654217 -62.3125 10.875 C-62.27833984 9.91851562 -62.24417969 8.96203125 -62.20898438 7.9765625 C-62.12759526 5.65115927 -62.05810388 3.32608124 -62 1 C-50.11496969 1.72584963 -38.32007916 3.00929658 -26.49169922 4.34594727 C-24.05726089 4.62006569 -21.62240861 4.89025219 -19.1875 5.16015625 C-18.45305664 5.24451431 -17.71861328 5.32887238 -16.96191406 5.41578674 C-12.95827897 5.85844062 -9.02555862 6.2594365 -5 6 C-2.69724444 4.1329009 -1.32176129 2.64352259 0 0 Z " fill="#B9AEB8" transform="translate(389,256)"/>
<path d="M0 0 C1.24716797 0.03383789 1.24716797 0.03383789 2.51953125 0.06835938 C4.55547353 0.12686346 6.59047945 0.21653205 8.625 0.3125 C8.23626709 0.80266602 7.84753418 1.29283203 7.44702148 1.79785156 C-4.14844635 16.57691019 -9.06748127 31.27723679 -8.76915932 49.98439407 C-8.73713306 52.11546493 -8.73423581 54.24501809 -8.73808289 56.37631226 C-8.74449277 62.42116717 -8.70432063 68.46527988 -8.6394043 74.50976562 C-8.60127648 78.24386852 -8.59798506 81.97680011 -8.61443138 85.7110405 C-8.61367872 87.11183054 -8.60002865 88.51268767 -8.57195473 89.91319656 C-8.35166165 101.00262587 -10.83750219 107.94918732 -16.375 117.3125 C-16.98128738 118.38398788 -17.58757477 119.45547577 -18.2122345 120.55943298 C-19.85597953 123.45762372 -21.5474489 126.32350942 -23.25 129.1875 C-24.46923072 131.26664526 -25.68797964 133.34607312 -26.90625 135.42578125 C-29.01666575 139.01545496 -31.1422817 142.59526081 -33.28125 146.16796875 C-34.1047553 147.56996692 -34.92771816 148.97228392 -35.75 150.375 C-36.12495605 150.98649902 -36.49991211 151.59799805 -36.88623047 152.22802734 C-39.29788482 156.38472826 -39.98231514 159.53991971 -39.375 164.3125 C-37.16451186 167.09748293 -34.40953037 168.53639323 -31.3046875 170.1953125 C-30.32628906 170.72253906 -29.34789062 171.24976563 -28.33984375 171.79296875 C-27.32019531 172.33566406 -26.30054688 172.87835938 -25.25 173.4375 C-23.22578669 174.52199069 -21.20230773 175.60785354 -19.1796875 176.6953125 C-18.28233887 177.17371582 -17.38499023 177.65211914 -16.46044922 178.14501953 C-14.375 179.3125 -14.375 179.3125 -13.375 180.3125 C-13.26172634 182.81004141 -13.21082809 185.2788999 -13.20703125 187.77734375 C-13.20203865 188.9001046 -13.20203865 188.9001046 -13.19694519 190.04554749 C-13.19187307 191.63183984 -13.18953695 193.2181429 -13.18969727 194.80444336 C-13.18751227 197.23634369 -13.16936419 199.66778949 -13.15039062 202.09960938 C-13.14745651 203.63801928 -13.14547183 205.17643134 -13.14453125 206.71484375 C-13.13734573 207.44509262 -13.13016022 208.17534149 -13.12275696 208.92771912 C-13.14617693 214.08367693 -13.14617693 214.08367693 -15.375 216.3125 C-15.61712873 218.29378508 -15.61712873 218.29378508 -15.5 220.4375 C-15.45875 221.71625 -15.4175 222.995 -15.375 224.3125 C-13.395 225.3025 -11.415 226.2925 -9.375 227.3125 C-9.375 233.5825 -9.375 239.8525 -9.375 246.3125 C-11.85 247.3025 -11.85 247.3025 -14.375 248.3125 C-14.375 251.9425 -14.375 255.5725 -14.375 259.3125 C-10.37718285 260.64510572 -6.52059764 260.46815098 -2.3515625 260.48828125 C-0.50649938 260.51150893 1.3385527 260.5356274 3.18359375 260.56054688 C6.07738314 260.59540887 8.97077396 260.62486301 11.86474609 260.63842773 C30.05633687 260.74027557 45.96316885 262.9542651 59.625 276.3125 C68.43517718 287.48496644 72.97093653 297.87193576 72.86450195 312.14941406 C72.86651611 312.98150391 72.86853027 313.81359375 72.87060547 314.67089844 C72.87412481 316.45996012 72.87341654 318.24903431 72.86882973 320.03809357 C72.86319489 322.87154847 72.8724606 325.70460042 72.8860321 328.5380249 C72.92300352 336.58754464 72.94166238 344.63692095 72.93041992 352.68652344 C72.92457049 357.62488244 72.94281039 362.56266623 72.97630882 367.5009079 C72.98425755 369.37795148 72.98299299 371.25505784 72.97228432 373.13208771 C72.95796218 375.75308542 72.97421749 378.3722668 72.99731445 380.99316406 C72.98554672 381.76521179 72.97377899 382.53725952 72.96165466 383.33270264 C73.03198725 387.4031942 73.44969383 389.10316727 76.10173035 392.2699585 C76.93440933 392.94399719 77.76708832 393.61803589 78.625 394.3125 C79.625 395.3125 79.625 395.3125 79.72265625 398.25390625 C79.69010417 401.60677083 79.65755208 404.95963542 79.625 408.3125 C71.375 408.3125 63.125 408.3125 54.625 408.3125 C54.62089111 405.30415039 54.61678223 402.29580078 54.61254883 399.19628906 C54.59536474 389.26558913 54.55088555 379.33514729 54.49290943 369.40460587 C54.45859347 363.38264213 54.43352224 357.36093334 54.42944336 351.33886719 C54.42517037 345.52906301 54.3967901 339.7198344 54.35156822 333.91020966 C54.33856131 331.69184469 54.33429677 329.47341095 54.33884621 327.25501251 C54.34372934 324.15146956 54.31776031 321.04962365 54.28442383 317.94628906 C54.29736229 316.56524994 54.29736229 316.56524994 54.31056213 315.15631104 C54.2303006 309.97681719 54.2303006 309.97681719 51.40570068 305.73954773 C48.45389046 304.22468707 46.76521642 303.82267387 43.47436523 303.84594727 C42.47239609 303.8423671 41.47042694 303.83878693 40.43809509 303.83509827 C39.36410965 303.8495549 38.29012421 303.86401154 37.18359375 303.87890625 C34.88476498 303.86929326 32.58593687 303.85952256 30.28710938 303.84960938 C26.68213017 303.85817343 23.07733179 303.87490822 19.47241211 303.8972168 C15.97995865 303.91185769 12.4885129 303.89639265 8.99609375 303.87890625 C7.93627792 303.89538712 6.8764621 303.91186798 5.78453064 303.92884827 C-5.78673141 303.85277507 -14.94605963 299.71762138 -23.1875 291.6875 C-34.73663712 279.14843685 -35.94683053 265.56443262 -35.70802879 249.26857185 C-35.66714144 246.28733426 -35.65619098 243.30729431 -35.65339661 240.32579041 C-35.6417096 231.86019942 -35.58863469 223.39543085 -35.48852539 214.93041992 C-35.42907777 209.72797053 -35.41327104 204.52687894 -35.4246769 199.32412529 C-35.42022797 197.35009291 -35.39900841 195.37602257 -35.36049461 193.40236092 C-34.68012352 183.05600551 -34.68012352 183.05600551 -38.28138733 173.8336792 C-40.62125082 172.23784652 -42.71851412 171.26810654 -45.375 170.3125 C-46.91825017 169.48048228 -48.45247073 168.63126002 -49.97265625 167.7578125 C-51.45829523 166.97931172 -52.94657523 166.20582933 -54.4375 165.4375 C-55.20771484 165.0353125 -55.97792969 164.633125 -56.77148438 164.21875 C-58.63696031 163.24545821 -60.50563567 162.27830246 -62.375 161.3125 C-58.43158678 153.18341609 -54.17064549 145.33188435 -49.5625 137.5625 C-48.33116392 135.46795756 -47.10069709 133.37290386 -45.87109375 131.27734375 C-45.2766748 130.26526855 -44.68225586 129.25319336 -44.06982422 128.21044922 C-41.72394 124.1992643 -39.41145962 120.17031181 -37.125 116.125 C-36.76688232 115.4969043 -36.40876465 114.86880859 -36.03979492 114.22167969 C-32.79938922 108.462729 -31.12794287 104.26773817 -31.10375977 97.60131836 C-31.09591965 96.61964188 -31.09591965 96.61964188 -31.08792114 95.61813354 C-31.07771606 94.202818 -31.07190685 92.78746529 -31.07003975 91.37211418 C-31.0663548 89.12091265 -31.04956662 86.87014341 -31.02928162 84.61903381 C-30.97410157 78.22047028 -30.94335665 71.82184187 -30.91870117 65.4230957 C-30.9026824 61.50087424 -30.87230914 57.57895573 -30.83393669 53.65689278 C-30.82240332 52.17361266 -30.81635738 50.690278 -30.81625557 49.20695305 C-30.81449327 30.34950062 -26.0553285 16.30169645 -12.80859375 2.671875 C-8.83368551 -0.60433555 -4.94337984 -0.2562358 0 0 Z " fill="#FBBA84" transform="translate(122.375,96.6875)"/>
<path d="M0 0 C6.02875785 0.04454653 12.05650724 0.1147852 18.0847168 0.20751953 C20.12988197 0.23552006 22.17515115 0.25683716 24.22045898 0.27099609 C42.78515978 0.40713421 59.03285566 2.34323664 73 16 C81.81017718 27.17246644 86.34593653 37.55943576 86.23950195 51.83691406 C86.24151611 52.66900391 86.24353027 53.50109375 86.24560547 54.35839844 C86.24912481 56.14746012 86.24841654 57.93653431 86.24382973 59.72559357 C86.23819489 62.55904847 86.2474606 65.39210042 86.2610321 68.2255249 C86.29800352 76.27504464 86.31666238 84.32442095 86.30541992 92.37402344 C86.29957049 97.31238244 86.31781039 102.25016623 86.35130882 107.1884079 C86.35925755 109.06545148 86.35799299 110.94255784 86.34728432 112.81958771 C86.33296218 115.44058542 86.34921749 118.0597668 86.37231445 120.68066406 C86.36054672 121.45271179 86.34877899 122.22475952 86.33665466 123.02020264 C86.40698725 127.0906942 86.82469383 128.79066727 89.47673035 131.9574585 C90.30940933 132.63149719 91.14208832 133.30553589 92 134 C93 135 93 135 93.09765625 137.94140625 C93.06510417 141.29427083 93.03255208 144.64713542 93 148 C84.75 148 76.5 148 68 148 C67.99589111 144.99165039 67.99178223 141.98330078 67.98754883 138.88378906 C67.97036474 128.95308913 67.92588555 119.02264729 67.86790943 109.09210587 C67.83359347 103.07014213 67.80852224 97.04843334 67.80444336 91.02636719 C67.80017037 85.21656301 67.7717901 79.4073344 67.72656822 73.59770966 C67.71356131 71.37934469 67.70929677 69.16091095 67.71384621 66.94251251 C67.71872934 63.83896956 67.69276031 60.73712365 67.65942383 57.63378906 C67.67236229 56.25274994 67.67236229 56.25274994 67.68556213 54.84381104 C67.61239547 49.64181117 67.61239547 49.64181117 64.71957397 45.42308044 C62.08380577 44.04385332 60.74750776 43.51930547 57.82739258 43.59692383 C56.64509819 43.61091972 56.64509819 43.61091972 55.43891907 43.62519836 C54.59927109 43.65220322 53.75962311 43.67920807 52.89453125 43.70703125 C51.08789782 43.71691216 49.2812559 43.72532883 47.47460938 43.73242188 C44.64777622 43.76546564 41.82289011 43.81222703 38.99682617 43.88647461 C21.20289595 44.29941721 21.20289595 44.29941721 14.91015625 38.73046875 C12.78540039 36.37963867 12.78540039 36.37963867 11 34 C10.39091797 33.20601807 9.78183594 32.41203613 9.15429688 31.59399414 C3.30770625 23.58853313 -0.18240756 15.13982715 -0.0625 5.1875 C-0.05347656 4.21167969 -0.04445313 3.23585938 -0.03515625 2.23046875 C-0.02355469 1.49441406 -0.01195313 0.75835937 0 0 Z " fill="#FDD1A3" transform="translate(109,357)"/>
<path d="M0 0 C1.18847031 -0.0038269 2.37694061 -0.00765381 3.60142517 -0.01159668 C6.12402185 -0.01431916 8.64664659 -0.00693464 11.16918945 0.00976562 C14.96177412 0.03088487 18.75240179 0.01012225 22.54492188 -0.015625 C36.79681197 -0.03266781 50.1708295 0.8414136 63.96484375 4.53125 C65.52634155 4.94673096 65.52634155 4.94673096 67.11938477 5.37060547 C69.5228444 6.07580008 71.86415016 6.85548616 74.21484375 7.71875 C75.03291504 8.01426758 75.85098633 8.30978516 76.69384766 8.61425781 C101.44753438 17.91552654 121.62710857 35.54243641 135.96484375 57.53125 C136.60164062 58.49546875 137.2384375 59.4596875 137.89453125 60.453125 C147.72461481 76.26863721 153.99757197 95.33386541 154.1418457 113.97949219 C154.1484169 114.68770615 154.1549881 115.3959201 154.16175842 116.12559509 C154.18129441 118.44310641 154.19310123 120.760554 154.203125 123.078125 C154.20720053 123.87333809 154.21127605 124.66855118 154.21547508 125.48786163 C154.23623828 129.68640373 154.25058925 133.88491396 154.26000977 138.08349609 C154.27113445 142.42038771 154.30563046 146.75677474 154.34518147 151.09348679 C154.371267 154.43230162 154.3796937 157.77099365 154.38329124 161.10990143 C154.38816768 162.70954092 154.39981174 164.30917455 154.41832924 165.90871429 C154.44258032 168.13975572 154.44178399 170.36945414 154.43481445 172.60058594 C154.44068069 173.86964783 154.44654694 175.13870972 154.45259094 176.44622803 C153.96484375 179.53125 153.96484375 179.53125 152.15422058 181.4331665 C148.87441824 183.07815368 146.57256379 183.04663858 142.96484375 182.53125 C140.27044106 179.90997377 139.08064767 178.23482372 138.46604919 174.50079346 C138.46621536 173.37292419 138.46638153 172.24505493 138.46655273 171.08300781 C138.45651718 169.79686584 138.44648163 168.51072388 138.43614197 167.18560791 C138.44019484 166.50200447 138.4442477 165.81840103 138.44842339 165.11408234 C138.46114266 162.94946064 138.44967661 160.78609848 138.43238831 158.621521 C138.40026367 154.00803951 138.40065825 149.39482143 138.40234375 144.78125 C138.38388365 105.87454154 134.33714853 73.97609616 105.46533203 44.97021484 C94.60913448 34.55914613 81.58412163 27.35925453 67.52734375 22.21875 C66.90891602 21.98833008 66.29048828 21.75791016 65.65332031 21.52050781 C47.62913213 15.32440879 29.12067948 16.07415791 10.31347656 16.02001953 C6.55645488 16.00438501 2.79986224 15.97144308 -0.95703125 15.9375 C-2.11112488 15.94052124 -3.26521851 15.94354248 -4.45428467 15.94665527 C-5.52350159 15.93654419 -6.59271851 15.92643311 -7.69433594 15.91601562 C-9.10087433 15.91293396 -9.10087433 15.91293396 -10.53582764 15.90979004 C-13.54061033 15.4546956 -14.90556842 14.68673667 -17.03515625 12.53125 C-17.81670965 7.06037621 -17.81670965 7.06037621 -17.03515625 4.53125 C-12.4025995 -0.89681547 -6.58548946 -0.0469227 0 0 Z " fill="#030404" transform="translate(123.03515625,308.46875)"/>
<path d="M0 0 C1.42570816 -0.01285538 1.42570816 -0.01285538 2.88021851 -0.02597046 C4.89928004 -0.03746057 6.91842438 -0.03845485 8.9375 -0.02978516 C11.96507243 -0.02355755 14.98854987 -0.07003107 18.015625 -0.12109375 C35.16420758 -0.23253857 50.56411267 2.90537525 64.3984375 13.6015625 C65.67074219 14.56835938 65.67074219 14.56835938 66.96875 15.5546875 C78.56256674 25.12756371 87.03014174 39.70613901 89.3984375 54.6015625 C89.50646398 57.53111292 89.56580061 60.43765523 89.57543945 63.36743164 C89.58201065 64.23955795 89.58858185 65.11168427 89.59535217 66.01023865 C89.61500643 68.88573296 89.62672604 71.76117542 89.63671875 74.63671875 C89.64079428 75.62007139 89.6448698 76.60342403 89.64906883 77.61657524 C89.66988924 82.81477521 89.68421213 88.01294905 89.69360352 93.21118164 C89.70469996 98.58379624 89.73914845 103.95600033 89.77877522 109.32846928 C89.80487629 113.45910936 89.81328922 117.58965022 89.81688499 121.72036552 C89.82176255 123.70155061 89.83340964 125.68273093 89.85192299 127.66383553 C89.87619103 130.43125593 89.87537293 133.19759436 89.8684082 135.96508789 C89.88121826 136.78441803 89.89402832 137.60374817 89.90722656 138.44790649 C89.87436556 142.02346439 89.7113214 144.16875221 87.58781433 147.10618591 C84.34637211 149.32013864 82.22466964 149.21649267 78.3984375 148.6015625 C75.28491177 145.73059585 74.45604631 144.03954034 73.89964294 139.80941772 C73.87956134 138.31106799 73.88115936 136.81232885 73.90014648 135.31396484 C73.89462769 134.49209686 73.88910889 133.67022888 73.88342285 132.82345581 C73.87411595 131.04308838 73.87398687 129.26265438 73.88201714 127.48228073 C73.8946736 124.65570802 73.88333046 121.83010828 73.86598206 119.00357056 C73.83927299 114.01334908 73.83368601 109.02336627 73.83508301 104.03308105 C73.83730976 96.06797384 73.8229391 88.10316445 73.77949715 80.13817215 C73.7697311 77.36916421 73.77834192 74.60063203 73.78819275 71.83163452 C73.76808091 55.9575157 71.14731752 41.35044252 59.3984375 29.6015625 C50.8794827 22.47574504 39.49931572 16.51416045 28.15234375 16.4597168 C26.91085571 16.44916512 26.91085571 16.44916512 25.64428711 16.43840027 C24.31602905 16.43215385 24.31602905 16.43215385 22.9609375 16.42578125 C21.07811369 16.40259331 19.19530114 16.3784764 17.3125 16.35351562 C14.34985698 16.31833977 11.38763162 16.2890137 8.42480469 16.27563477 C5.56133954 16.26018099 2.69908381 16.22000306 -0.1640625 16.17578125 C-1.49232056 16.17864388 -1.49232056 16.17864388 -2.84741211 16.18156433 C-8.95628318 16.05984628 -8.95628318 16.05984628 -12.16015625 13.78442383 C-14.28600949 10.56503802 -14.1397484 8.36886381 -13.6015625 4.6015625 C-10.1910152 -0.59629311 -5.65135887 -0.01135504 0 0 Z " fill="#010202" transform="translate(120.6015625,342.3984375)"/>
<path d="M0 0 C1.28825684 0.01047363 2.57651367 0.02094727 3.90380859 0.03173828 C4.93167984 0.03598312 4.93167984 0.03598312 5.98031616 0.04031372 C8.17113636 0.05151797 10.36154925 0.07662219 12.55224609 0.10205078 C14.03661519 0.1120803 15.5209907 0.1212062 17.00537109 0.12939453 C20.6461287 0.15145784 24.28664766 0.18598903 27.92724609 0.22705078 C27.90368042 2.19327393 27.90368042 2.19327393 27.87963867 4.19921875 C27.82500114 9.10068525 27.79077369 14.00212526 27.76245117 18.90380859 C27.74744123 21.01811259 27.7270269 23.13238585 27.70092773 25.24658203 C27.66419976 28.30004499 27.64744136 31.35309336 27.63427734 34.40673828 C27.61879349 35.3394455 27.60330963 36.27215271 27.58735657 37.23312378 C27.58535238 45.19509748 28.75669511 53.40991506 33.98974609 59.72705078 C34.74964844 60.67064453 34.74964844 60.67064453 35.52490234 61.63330078 C37.77136895 64.39644899 37.77136895 64.39644899 40.99023438 65.54589844 C42.23135986 65.59302979 42.23135986 65.59302979 43.49755859 65.64111328 C44.39345703 65.67978516 45.28935547 65.71845703 46.21240234 65.75830078 C47.14955078 65.78923828 48.08669922 65.82017578 49.05224609 65.85205078 C49.99712891 65.89072266 50.94201172 65.92939453 51.91552734 65.96923828 C54.25256985 66.06366424 56.5896011 66.14923472 58.92724609 66.22705078 C58.92724609 66.55705078 58.92724609 66.88705078 58.92724609 67.22705078 C53.16563968 67.3767328 47.40519463 67.48488882 41.64208984 67.55664062 C39.68681086 67.58658808 37.73166359 67.62736183 35.77685547 67.6796875 C12.61068867 68.28371332 12.61068867 68.28371332 2.92504883 59.38818359 C-4.19913284 51.80362216 -5.22793075 43.78057148 -5.24072266 33.84033203 C-5.24405106 32.94211227 -5.24737946 32.04389252 -5.25080872 31.11845398 C-5.25585767 29.22651683 -5.25821767 27.33457083 -5.25805664 25.44262695 C-5.26025414 22.53924132 -5.27846115 19.63622918 -5.29736328 16.73291016 C-5.30029536 14.89371875 -5.30228139 13.05452554 -5.30322266 11.21533203 C-5.31040817 10.34451492 -5.31759369 9.47369781 -5.32499695 8.57649231 C-5.29369637 0.39115983 -5.29369637 0.39115983 0 0 Z " fill="#897E87" transform="translate(89.07275390625,14.77294921875)"/>
<path d="M0 0 C1.32 0 2.64 0 4 0 C4 6.27 4 12.54 4 19 C2.68 19.33 1.36 19.66 0 20 C0 13.4 0 6.8 0 0 Z " fill="#FCD0A2" transform="translate(109,324)"/>
</svg>
