<?xml version="1.0" encoding="UTF-8"?>
<svg version="1.1" xmlns="http://www.w3.org/2000/svg" width="512" height="512">
<path d="M0 0 C1.07733398 -0.01474365 2.15466797 -0.0294873 3.26464844 -0.04467773 C13.46064442 0.08650342 22.39486396 2.47154046 29.90625 9.62890625 C37.38485307 18.35982257 37.26604913 29.00065666 36.78027344 39.93261719 C35.65031162 53.57829956 30.09429231 65.73507234 23.5625 77.5625 C23.2325 78.2225 22.9025 78.8825 22.5625 79.5625 C23.55894531 79.65789062 24.55539063 79.75328125 25.58203125 79.8515625 C39.2670931 81.83849185 51.12133976 91.83786134 59.6796875 102.1015625 C70.89682216 117.26635828 73.05714995 133.85157878 72.85546875 152.12109375 C72.84985379 153.64664791 72.84559272 155.17220759 72.84260559 156.69776917 C72.83130594 160.65808808 72.80197275 164.61806188 72.76849365 168.57824707 C72.73746618 172.64130997 72.72403141 176.70443019 72.70898438 180.76757812 C72.67708397 188.69937481 72.6260751 196.63089414 72.5625 204.5625 C73.32630981 204.40016876 74.09011963 204.23783752 74.8770752 204.07058716 C77.89868638 203.49889294 80.70642141 203.4329193 83.78125 203.4296875 C84.96074219 203.42839844 86.14023438 203.42710937 87.35546875 203.42578125 C89.19044922 203.43158203 89.19044922 203.43158203 91.0625 203.4375 C92.89748047 203.43169922 92.89748047 203.43169922 94.76953125 203.42578125 C95.94902344 203.42707031 97.12851562 203.42835938 98.34375 203.4296875 C99.41689453 203.43081543 100.49003906 203.43194336 101.59570312 203.43310547 C104.36870493 203.55404778 106.85517757 203.98711724 109.5625 204.5625 C109.55250725 203.2527697 109.55250725 203.2527697 109.54231262 201.9165802 C109.48187638 193.63547043 109.43636176 185.35443613 109.40706348 177.0731554 C109.39149394 172.81698409 109.37041769 168.56099698 109.33618164 164.30493164 C109.3032738 160.1876059 109.28558173 156.07045589 109.27786827 151.95300865 C109.27238053 150.39234341 109.26166672 148.83168636 109.24530983 147.27109718 C109.05384389 128.22346229 112.94784208 111.67625832 126.37084961 97.62451172 C134.64575599 89.30863346 144.06152571 82.57465993 155.5625 79.5625 C156.8825 79.5625 158.2025 79.5625 159.5625 79.5625 C158.99982422 78.58023438 158.99982422 78.58023438 158.42578125 77.578125 C148.81860479 60.44492365 140.98976102 40.70880625 145.6875 20.8125 C148.10728292 13.00166584 152.3308038 7.84878812 159.2421875 3.5703125 C174.49788353 -3.05589891 195.22722624 -0.99992382 210.48046875 4.72363281 C222.72581125 9.65738009 233.49381088 15.79621941 242.5625 25.5625 C243.15546875 26.1503125 243.7484375 26.738125 244.359375 27.34375 C262.19053142 45.86603652 266.2357816 71.79574913 265.80859375 96.4921875 C264.76791116 129.49373382 251.46131316 163.49814261 227.5625 186.5625 C215.67631137 196.43800103 203.79984926 199.87489755 188.5625 198.5625 C176.09858099 196.10416422 166.65304222 187.85664129 159.50390625 177.71484375 C156.52089815 172.87120686 154.36102042 167.95050444 152.5625 162.5625 C152.31757813 161.83933594 152.07265625 161.11617187 151.8203125 160.37109375 C148.65864403 148.9587699 150.14643519 136.67798548 153.5625 125.5625 C153.90423542 124.23129536 154.24093306 122.89871989 154.5625 121.5625 C153.4178125 122.8309375 153.4178125 122.8309375 152.25 124.125 C151.82074219 124.60066406 151.39148438 125.07632813 150.94921875 125.56640625 C147.08707513 131.12571721 146.11721174 136.21048156 146.13012695 142.88452148 C146.1199353 143.68533646 146.10974365 144.48615143 146.09924316 145.31123352 C146.06925733 147.9354261 146.0598695 150.55925279 146.05078125 153.18359375 C146.03392385 155.01206156 146.01577218 156.84051785 145.99638367 158.66896057 C145.94899277 163.46434938 145.91911293 168.2596915 145.89294434 173.05523682 C145.86308365 177.95553812 145.81657227 182.85567871 145.77148438 187.75585938 C145.68557545 197.35798866 145.61817507 206.96015113 145.5625 216.5625 C146.33287598 216.85745361 147.10325195 217.15240723 147.89697266 217.45629883 C160.06415682 222.50571369 170.11588754 233.49030926 175.82421875 245.13671875 C180.08880974 255.86553187 180.69153959 270.49997106 176.59765625 281.4296875 C171.17621606 292.59990012 163.32721859 297.9309574 152.5625 303.5625 C152.83964844 304.28695313 153.11679687 305.01140625 153.40234375 305.7578125 C158.34084677 318.93887038 158.65227041 329.45887212 153.75390625 342.7578125 C148.19470995 354.96333683 138.05254831 363.16174055 126.5625 369.5625 C125.9025 369.5625 125.2425 369.5625 124.5625 369.5625 C124.59730469 370.39394531 124.63210938 371.22539062 124.66796875 372.08203125 C124.69503906 373.16871094 124.72210938 374.25539063 124.75 375.375 C124.78480469 376.45394531 124.81960938 377.53289062 124.85546875 378.64453125 C124.5625 381.5625 124.5625 381.5625 123.41148376 383.21961975 C120.79768211 385.11797207 118.89911672 384.95024977 115.68579102 384.96655273 C114.47766251 384.97923691 113.269534 384.99192108 112.02479553 385.00498962 C110.71852707 385.00205399 109.41225861 384.99911835 108.06640625 384.99609375 C106.71263873 385.00065496 105.35887353 385.00596035 104.00511169 385.01197815 C101.16794427 385.0209131 98.33105826 385.01848238 95.49389648 385.00854492 C91.86083962 384.99705884 88.22875524 385.01725748 84.59582615 385.04646206 C81.79992009 385.06482391 79.00424705 385.06453169 76.20829582 385.05882454 C74.21854897 385.05859686 72.22882406 385.07549826 70.239151 385.09263611 C69.02787033 385.08325516 67.81658966 385.07387421 66.56860352 385.06420898 C65.50287613 385.06404282 64.43714874 385.06387665 63.33912659 385.06370544 C59.87939618 384.43919377 58.68331766 383.31693817 56.5625 380.5625 C56.33984375 378.01171875 56.33984375 378.01171875 56.5 375.25 C56.29830612 371.54080037 56.16217033 370.10960531 53.37890625 367.5703125 C51.45847253 366.41432327 49.51264148 365.29975369 47.546875 364.22265625 C36.80379944 358.24646893 30.05363862 348.60871288 26.125 337.125 C22.74454598 324.81257049 24.7874603 314.16792257 29.5625 302.5625 C28.758125 302.35625 27.95375 302.15 27.125 301.9375 C17.43143241 298.19612304 10.24909147 291.77407633 5.5625 282.5625 C0.53311945 269.85669651 1.69667819 256.49235603 6.55859375 244.00390625 C12.16199061 231.57561079 23.43287774 221.62731113 35.5625 215.5625 C35.65541712 205.28730996 35.72637489 195.01222082 35.76974869 184.73669529 C35.79057208 179.96469279 35.81879322 175.19297897 35.86425781 170.42114258 C35.90790358 165.81105166 35.93167654 161.20123741 35.94200897 156.59095573 C35.94936686 154.83717434 35.96373483 153.0834071 35.98542023 151.32974434 C36.1332716 138.87123495 35.27324083 129.9991359 26.5625 120.5625 C26.76746094 121.23796875 26.97242188 121.9134375 27.18359375 122.609375 C27.45300781 123.50140625 27.72242188 124.3934375 28 125.3125 C28.26683594 126.19421875 28.53367187 127.0759375 28.80859375 127.984375 C33.37735681 143.60812432 31.47179906 160.37553718 23.91796875 174.67578125 C17.27682896 185.75434177 7.84399947 194.35614289 -4.765625 198.08984375 C-17.76512432 200.38946278 -29.08783048 198.46628735 -40 190.9375 C-61.72090622 174.12230982 -73.55069783 149.69217523 -80.4375 123.5625 C-80.7778125 122.29277344 -81.118125 121.02304688 -81.46875 119.71484375 C-87.67793403 91.45730715 -84.5432273 60.44188454 -69.5078125 35.578125 C-57.1140008 17.52525211 -37.62492073 5.18376694 -16.16162109 0.95800781 C-10.78953858 0.17804961 -5.42165471 0.04886107 0 0 Z " fill="#343333" transform="translate(165.4375,64.4375)"/>
<path d="M0 0 C16.91429038 10.03463785 26.69759823 25.35055288 31.73510742 44.10595703 C33.18166123 50.13872905 33.85583694 56.16396981 34.27368164 62.35205078 C34.34458008 63.31755859 34.41547852 64.28306641 34.48852539 65.27783203 C35.25844495 87.0511571 29.16225659 109.1487914 19.27368164 128.35205078 C18.77868164 129.34978516 18.28368164 130.34751953 17.77368164 131.37548828 C10.78204345 144.9407863 0.43697671 157.14251308 -13.53881836 163.66455078 C-22.20912373 165.53461664 -29.98436481 164.78676204 -37.72631836 160.35205078 C-47.74151346 153.31872607 -52.87181231 144.05757917 -55.72631836 132.35205078 C-55.9106543 131.67916016 -56.09499023 131.00626953 -56.28491211 130.31298828 C-58.0580904 122.43568297 -55.88230737 114.93651211 -53.72631836 107.35205078 C-43.99216574 111.25001898 -34.49360561 118.44397971 -28.72631836 127.35205078 C-27.99371676 129.6655295 -27.31488036 131.99780278 -26.72631836 134.35205078 C-24.41631836 134.68205078 -22.10631836 135.01205078 -19.72631836 135.35205078 C-17.1494022 131.48667654 -17.14072411 129.9636055 -17.72631836 125.35205078 C-22.70507948 114.31372986 -30.66261095 108.00933577 -40.74755859 101.90283203 C-42.69116211 100.68408203 -42.69116211 100.68408203 -45.72631836 98.35205078 C-45.72631836 93.78056941 -45.09842772 93.10762704 -42.28881836 89.72705078 C-39.75136987 86.70550706 -39.75136987 86.70550706 -37.72631836 83.35205078 C-36.58042236 83.3572876 -35.43452637 83.36252441 -34.25390625 83.36791992 C-30.01791154 83.38596796 -25.78192024 83.39748206 -21.54589844 83.40698242 C-19.70962961 83.4120231 -17.87336482 83.41885555 -16.03710938 83.42749023 C-13.40355435 83.4395675 -10.7700522 83.44528159 -8.13647461 83.44970703 C-6.89741112 83.45744896 -6.89741112 83.45744896 -5.63331604 83.46534729 C-3.66395468 83.46554283 -1.69470222 83.4140923 0.27368164 83.35205078 C1.60555957 82.24038215 1.60555957 82.24038215 1.46118164 79.41455078 C1.60646898 76.24312219 1.60646898 76.24312219 -0.72631836 74.35205078 C-11.80661669 71.060234 -24.2839614 71.70980622 -35.72631836 71.35205078 C-36.01309448 70.44821655 -36.01309448 70.44821655 -36.30566406 69.52612305 C-36.56436279 68.72746826 -36.82306152 67.92881348 -37.08959961 67.10595703 C-37.46918823 65.9236853 -37.46918823 65.9236853 -37.85644531 64.7175293 C-39.10472173 61.32304424 -40.82972717 58.42583651 -42.72631836 55.35205078 C-42.05729492 55.08392578 -41.38827148 54.81580078 -40.69897461 54.53955078 C-19.85407362 46.70536136 -19.85407362 46.70536136 -1.72631836 34.35205078 C-0.73517356 31.30631645 -0.73517356 31.30631645 -0.72631836 28.35205078 C-1.72631836 26.35205078 -1.72631836 26.35205078 -3.72631836 25.35205078 C-7.9450219 24.88876553 -9.76554027 25.7473819 -13.03881836 28.35205078 C-23.40641464 35.9508528 -39.54731899 45.35205078 -52.72631836 45.35205078 C-57.89807263 33.88715862 -61.93980153 23.77117864 -62.10131836 11.03955078 C-62.11533691 10.27416992 -62.12935547 9.50878906 -62.14379883 8.72021484 C-62.10243052 3.87269729 -61.35542223 0.56495217 -58.72631836 -3.64794922 C-44.20405715 -17.77771688 -15.39955213 -8.50904964 0 0 Z " fill="#FB979D" transform="translate(384.726318359375,86.64794921875)"/>
<path d="M0 0 C5.96402153 7.12773305 5.76219454 15.14649772 5 24 C3.28716035 33.77786747 -0.17494399 42.36314974 -5 51 C-19.98799298 48.37052755 -33.77256009 41.33758872 -46.23046875 32.78125 C-49.2023603 30.86985008 -50.54715823 30.42452637 -54 31 C-54.66 31.66 -55.32 32.32 -56 33 C-56.14734007 36.44064774 -56.14734007 36.44064774 -55 40 C-52.94593248 41.9006387 -51.37275673 43.08067238 -49 44.4375 C-48.38350586 44.81092529 -47.76701172 45.18435059 -47.13183594 45.5690918 C-36.66143991 51.75246842 -25.37972651 56.75007757 -14 61 C-14.40992188 61.65226562 -14.81984375 62.30453125 -15.2421875 62.9765625 C-15.78101563 63.85054688 -16.31984375 64.72453125 -16.875 65.625 C-17.40867187 66.48351562 -17.94234375 67.34203125 -18.4921875 68.2265625 C-20.04903381 71.09019173 -21.05920533 73.88533026 -22 77 C-23.01199463 77.029729 -23.01199463 77.029729 -24.04443359 77.06005859 C-27.15495861 77.1563811 -30.26490789 77.2656181 -33.375 77.375 C-34.43589844 77.4059375 -35.49679688 77.436875 -36.58984375 77.46875 C-47.6006583 77.75315338 -47.6006583 77.75315338 -58 81 C-58.16677282 84.41656024 -58.16677282 84.41656024 -58 88 C-57.01 88.99 -57.01 88.99 -56 90 C-54.19141908 89.81522911 -52.38356801 89.6126567 -50.5859375 89.34130859 C-45.0787523 88.61443502 -39.54720597 88.47787173 -34 88.3125 C-32.76765625 88.23322266 -31.5353125 88.15394531 -30.265625 88.07226562 C-21.37262724 87.867116 -21.37262724 87.867116 -17.4140625 91.13427734 C-14.39428495 94.84427029 -12.05248228 98.68689463 -10 103 C-10.70962891 103.48243164 -10.70962891 103.48243164 -11.43359375 103.97460938 C-28.45372158 114.63294606 -28.45372158 114.63294606 -39 131 C-39.39501347 133.86637976 -39.30243234 136.07648734 -39 139 C-37.04366025 141.41121859 -37.04366025 141.41121859 -33.375 141.125 C-32.26125 141.08375 -31.1475 141.0425 -30 141 C-29.91363281 140.41992188 -29.82726562 139.83984375 -29.73828125 139.2421875 C-29.59777344 138.46101562 -29.45726562 137.67984375 -29.3125 136.875 C-29.18488281 136.10929688 -29.05726563 135.34359375 -28.92578125 134.5546875 C-26.6998704 128.41230061 -21.50933617 124.53199061 -16.4375 120.75 C-15.87353516 120.316875 -15.30957031 119.88375 -14.72851562 119.4375 C-7.55403646 114 -7.55403646 114 -3 114 C0.58813795 123.02775509 0.49486587 134.88489458 -2.625 144.0625 C-7.3644215 154.96484417 -14.91115744 164.13941605 -25.75 169.3125 C-34.48865195 171.16106099 -42.19259232 170.43383646 -50 166 C-73.12857337 150.58095109 -83.99015918 122.20242551 -89.25390625 96.00390625 C-90.14432921 91.32513832 -90.83588542 86.76616086 -91 82 C-91.02578125 81.37722168 -91.0515625 80.75444336 -91.078125 80.11279297 C-91.98156498 55.63521604 -86.65057276 33.49792024 -69.625 15.125 C-54.37978938 0.93360578 -19.66728691 -13.80086442 0 0 Z " fill="#FB979D" transform="translate(185,81)"/>
<path d="M0 0 C0.57105469 0.51046875 1.14210938 1.0209375 1.73046875 1.546875 C2.41496094 2.13984375 3.09945312 2.7328125 3.8046875 3.34375 C9.57153143 8.6735503 15.4365688 16.39848806 15.828125 24.58984375 C15.79557292 26.57552083 15.76302083 28.56119792 15.73046875 30.546875 C14.76334961 30.56145752 13.79623047 30.57604004 12.79980469 30.59106445 C9.15395178 30.64977352 5.50867063 30.7269891 1.86328125 30.80932617 C0.29631953 30.84223879 -1.27075118 30.87037116 -2.83789062 30.89331055 C-15.9907233 31.09093943 -27.33210082 32.59529392 -39.20703125 38.671875 C-57.06830865 47.65888383 -73.82022512 41.60102692 -91.89453125 35.984375 C-106.3663154 31.5025388 -120.13282976 29.08416306 -135.26953125 28.546875 C-135.73567655 19.43998761 -131.71669793 12.19006068 -126.01953125 5.234375 C-96.04694336 -26.30200008 -32.75320227 -26.89666942 0 0 Z " fill="#FB979D" transform="translate(316.26953125,298.453125)"/>
<path d="M0 0 C11.47631318 0.28406716 21.96051643 1.79282341 33 5 C34.06847168 5.30953613 35.13694336 5.61907227 36.23779297 5.93798828 C37.41615723 6.27942871 38.59452148 6.62086914 39.80859375 6.97265625 C41.64393677 7.50234009 41.64393677 7.50234009 43.51635742 8.04272461 C45.94735001 8.74739931 48.37604889 9.46005159 50.80200195 10.18188477 C72.7250698 16.59639485 87.12251739 15.74407207 107.671875 5.33203125 C115.53278811 2.18582072 123.36230833 1.69718441 131.75 1.8125 C132.65621094 1.81314453 133.56242188 1.81378906 134.49609375 1.81445312 C139.10440382 1.84472669 143.4678056 2.06204586 148 3 C146.43550574 8.91031166 141.94485107 12.22241296 136.88549805 15.27636719 C134.64586504 16.48368691 132.38852778 17.65067027 130.125 18.8125 C116.8025825 26.01005532 108.20627245 35.59252361 103.30029297 50.06396484 C101.93525647 54.65191413 100.90310354 59.30071756 100 64 C99.8335498 64.82024658 99.66709961 65.64049316 99.49560547 66.4855957 C98.12408805 73.529399 97.4092865 80.53594386 96.875 87.6875 C96.74544922 89.33008789 96.74544922 89.33008789 96.61328125 91.00585938 C96.40385501 93.67022655 96.19950749 96.33487497 96 99 C89.8944529 99.02464513 83.78893449 99.04283371 77.68334961 99.05493164 C75.60456844 99.05997288 73.52579084 99.06680574 71.44702148 99.07543945 C68.46597414 99.08751422 65.48497351 99.09323024 62.50390625 99.09765625 C61.10078941 99.10539818 61.10078941 99.10539818 59.66932678 99.11329651 C58.80850998 99.11337204 57.94769318 99.11344757 57.06079102 99.11352539 C56.29912125 99.115746 55.53745148 99.11796661 54.75270081 99.12025452 C53 99 53 99 52 98 C51.90370558 95.97353741 51.81477863 93.94648645 51.76074219 91.91845703 C51.13208499 69.55083382 47.95030955 43.37227022 31.1875 26.9375 C26.091995 22.65444987 20.24630112 19.59716373 14.38354492 16.49975586 C7.80802227 13.02175263 2.90286094 10.18076126 0 3 C0 2.01 0 1.02 0 0 Z " fill="#FDBE31" transform="translate(182,338)"/>
<path d="M0 0 C1.38550197 2.77100394 1.1877467 4.9334706 1 8 C-1 11 -1 11 -2.9609375 11.51953125 C-3.75757813 11.61621094 -4.55421875 11.71289062 -5.375 11.8125 C-14.86466213 13.48795409 -24.27073191 18.05815011 -30 26 C-35.05049931 34.60108235 -38.21699372 42.61287889 -38.31884766 52.67944336 C-38.32889328 53.41198334 -38.3389389 54.14452332 -38.34928894 54.89926147 C-38.37992944 57.29611498 -38.39710218 59.69285781 -38.4140625 62.08984375 C-38.4327896 63.76136719 -38.45236415 65.43288132 -38.4727478 67.10438538 C-38.52391227 71.48546853 -38.56362156 75.86658228 -38.60089111 80.24780273 C-38.64102951 84.7258247 -38.69207682 89.20372111 -38.7421875 93.68164062 C-38.8387609 102.45434107 -38.92322467 111.22710405 -39 120 C-40.64671412 119.69217504 -42.29235576 119.37860766 -43.9375 119.0625 C-44.85402344 118.88847656 -45.77054687 118.71445312 -46.71484375 118.53515625 C-49 118 -49 118 -50 117 C-50.11549241 114.80473424 -50.15972309 112.60570447 -50.17700195 110.4074707 C-50.18357315 109.71780212 -50.19014435 109.02813354 -50.19691467 108.31756592 C-50.2167199 106.02030328 -50.22833644 103.72310678 -50.23828125 101.42578125 C-50.24235678 100.63879538 -50.2464323 99.8518095 -50.25063133 99.04097557 C-50.27153926 94.86219925 -50.28581103 90.68345606 -50.29516602 86.50463867 C-50.30614036 82.2202134 -50.3404202 77.93632058 -50.38033772 73.65208149 C-50.40672653 70.33425555 -50.41487816 67.01655098 -50.41844749 63.69862938 C-50.42326946 62.12203633 -50.43475533 60.54544706 -50.45348549 58.9689579 C-50.621504 43.86783473 -48.24318542 31.46613823 -39 19 C-38.37609375 18.15695313 -37.7521875 17.31390625 -37.109375 16.4453125 C-27.76472307 5.61243822 -14.13760201 -0.57704498 0 0 Z " fill="#E5636E" transform="translate(337,155)"/>
<path d="M0 0 C11.89116841 0.15147985 22.89375009 7.16741165 31.375 15 C43.5414483 27.70070351 45.70432787 41.36978926 45.54296875 58.09765625 C45.53736498 59.81114834 45.53309858 61.52464528 45.53010559 63.23814392 C45.51871821 67.72131913 45.48930449 72.2041971 45.45599365 76.68725586 C45.42516023 81.27258281 45.41157204 85.85795836 45.39648438 90.44335938 C45.3644282 99.42070264 45.31330681 108.39782648 45.25 117.375 C43.98160474 117.88115298 42.71016898 118.37969099 41.4375 118.875 C40.72980469 119.1534375 40.02210938 119.431875 39.29296875 119.71875 C37.25 120.375 37.25 120.375 34.25 120.375 C34.24453156 118.94585518 34.24453156 118.94585518 34.23895264 117.48783875 C34.20186932 108.47006848 34.14395226 99.4526355 34.06609726 90.43512249 C34.02673655 85.80007789 33.99449249 81.16522002 33.97900391 76.5300293 C33.9637617 72.04938703 33.92918369 67.56925855 33.88169098 63.08884621 C33.86695468 61.38704733 33.85896348 59.68517507 33.85811615 57.98331261 C33.8442089 44.04545924 32.30600142 32.90398308 22.25 22.375 C14.61749911 15.26614263 4.9957028 12.48232553 -4.75 9.375 C-4.84765625 3.22265625 -4.84765625 3.22265625 -4.75 1.375 C-3.75 0.375 -3.75 0.375 0 0 Z " fill="#E4626D" transform="translate(179.75,154.625)"/>
<path d="M0 0 C0.99 0.33 1.98 0.66 3 1 C6.29655952 8.56659971 6.24943348 17.52623421 3.4375 25.25 C-0.27286089 33.28476037 -5.50205114 39.35127171 -13 44 C-13.33 44 -13.66 44 -14 44 C-15.31758372 28.77458816 -9.75192257 11.63729427 0 0 Z " fill="#FAD8B0" transform="translate(305,375)"/>
<path d="M0 0 C12.76928109 10.51587855 14.48824968 28.66907321 16 44 C7.92631629 41.17351107 3.38669561 35.26784289 -0.4375 27.8125 C-3.34989391 21.75757752 -4.923029 15.76088771 -4 9 C-2.88961677 5.87735021 -1.52463308 2.9403638 0 0 Z " fill="#FAD8B0" transform="translate(206,375)"/>
</svg>
