<?xml version="1.0" encoding="UTF-8"?>
<svg version="1.1" xmlns="http://www.w3.org/2000/svg" width="512" height="512">
<path d="M0 0 C2.46800047 1.15173355 4.04783565 2.04783565 6 4 C10.0800364 4.42186492 14.16624887 4.37159357 18.26635742 4.37060547 C20.29497255 4.37496236 22.32138186 4.41122495 24.34960938 4.44921875 C25.63287109 4.45308594 26.91613281 4.45695313 28.23828125 4.4609375 C29.41430908 4.46915527 30.59033691 4.47737305 31.80200195 4.48583984 C35.59106741 3.91020504 37.25443041 2.60520964 40 0 C43.37043174 1.41464739 45.07134907 3.01069577 47.2421875 5.9296875 C47.83088623 6.71907715 48.41958496 7.5084668 49.02612305 8.32177734 C49.63625244 9.16434082 50.24638184 10.0069043 50.875 10.875 C51.50124268 11.73689941 52.12748535 12.59879883 52.77270508 13.48681641 C60.19424501 23.86627984 64.66877467 33.3214061 67 46 C67.51046875 45.78907715 68.0209375 45.5781543 68.546875 45.36083984 C82.75677955 39.55657254 96.97411656 35.14708923 112 32 C112.8338623 31.82065918 113.66772461 31.64131836 114.52685547 31.45654297 C156.3932762 22.9031882 204.17905617 28.76728835 243 46 C243.13535156 45.22398438 243.27070313 44.44796875 243.41015625 43.6484375 C246.0953119 30.17442294 251.97195875 19.91101546 260.1875 9.125 C260.79376221 8.32102783 261.40002441 7.51705566 262.0246582 6.6887207 C262.60820068 5.948396 263.19174316 5.20807129 263.79296875 4.4453125 C264.3139917 3.78031738 264.83501465 3.11532227 265.37182617 2.43017578 C267 1 267 1 271 1 C271.60577881 1.48605713 272.21155762 1.97211426 272.83569336 2.47290039 C277.02990031 5.43226469 282.55886999 4.47797364 287.52709961 4.44604492 C289.56010384 4.43751006 291.59031834 4.46635076 293.62304688 4.49804688 C295.54407227 4.49708008 295.54407227 4.49708008 297.50390625 4.49609375 C299.26456421 4.49887329 299.26456421 4.49887329 301.06079102 4.50170898 C304.11752555 4.28426399 304.11752555 4.28426399 305.90600586 1.96899414 C306.26702393 1.31922607 306.62804199 0.66945801 307 0 C311.50343911 0.5112012 313.87525426 2.17521358 317.3125 5.0625 C318.19550781 5.79597656 319.07851563 6.52945312 319.98828125 7.28515625 C320.98408203 8.13400391 320.98408203 8.13400391 322 9 C320.69875869 11.79964039 319.2631478 14.07404655 317.27734375 16.43359375 C316.74294678 17.07603027 316.2085498 17.7184668 315.65795898 18.38037109 C314.80633179 19.3986499 314.80633179 19.3986499 313.9375 20.4375 C301.11829028 36.03376097 294.0683493 48.96274928 291 69 C291.9115686 68.9685791 291.9115686 68.9685791 292.84155273 68.93652344 C306.13657627 68.54081585 318.30163752 68.8342476 331 73 C331.6384082 73.20898926 332.27681641 73.41797852 332.93457031 73.63330078 C348.58288997 78.9543672 361.30849271 87.44705873 373 99 C373.71542969 99.64324219 374.43085938 100.28648438 375.16796875 100.94921875 C390.82318157 115.35451438 402.16235746 139.96615093 403.14717102 161.16848755 C403.15701523 162.30285248 403.16685944 163.43721741 403.17700195 164.60595703 C403.18983719 165.90236115 403.20267242 167.19876526 403.21589661 168.53445435 C403.22407474 169.94223642 403.23151639 171.35002293 403.23828125 172.7578125 C403.24235678 173.4775613 403.2464323 174.1973101 403.25063133 174.93886948 C403.27145303 178.7614894 403.28576181 182.58407404 403.29516602 186.40673828 C403.30395679 189.52738386 403.32466963 192.64757408 403.35668945 195.76806641 C403.72875177 232.83987305 397.15219949 263.46487733 374.75634766 293.67773438 C354.40415778 321.16925616 347.91757894 349.46146574 347.83133507 383.46157837 C347.8239853 385.76052145 347.80819533 388.05927258 347.78999329 390.3581543 C347.73834303 396.88229897 347.68959487 403.40631884 347.67407227 409.93066406 C347.66388208 413.95528943 347.63430788 417.97939619 347.59275246 422.0038147 C347.58061845 423.51531013 347.57528815 425.02687919 347.57755089 426.53842163 C347.59919422 445.695041 342.81919291 462.6617346 329.17578125 476.85546875 C328.45777344 477.56316406 327.73976563 478.27085937 327 479 C326.43667969 479.57363281 325.87335938 480.14726562 325.29296875 480.73828125 C314.21680651 491.16766029 300.54442867 493.60861071 285.9609375 493.30859375 C271.74306553 492.66281404 259.98593006 484.95306504 250.35546875 474.86328125 C236.37065147 457.86349508 233.72628669 438.33647681 235 417 C236.78485684 402.06792445 244.45791282 389.3906748 255 379 C255.56332031 378.42636719 256.12664062 377.85273438 256.70703125 377.26171875 C265.95594365 368.55288883 277.96835869 364.61376094 290.4375 364.875 C291.67790039 364.88853516 291.67790039 364.88853516 292.94335938 364.90234375 C294.96236708 364.92568488 296.98122356 364.96154712 299 365 C298.9685791 363.83936035 298.9685791 363.83936035 298.93652344 362.65527344 C298.10057348 326.94222131 305.78852197 297.2660536 327.24365234 268.32226562 C344.02384944 245.65575372 353.21133164 221.48407238 354 193 C354.03287109 191.82099121 354.03287109 191.82099121 354.06640625 190.61816406 C354.54937254 169.87476171 353.05796807 150.53748581 338.46826172 134.47509766 C331.36654109 127.34031282 322.63221761 122.76033491 313 120 C313.32226562 121.06089844 313.64453125 122.12179688 313.9765625 123.21484375 C319.32621754 144.76022435 313.67467199 167.15984186 303 186 C300.25685967 190.24568927 297.25936915 194.14007708 294 198 C293.24074219 198.92167969 292.48148437 199.84335938 291.69921875 200.79296875 C270.58318675 225.29586022 238.14516368 240.9525542 207 248 C205.68 248 204.36 248 203 248 C203.08500829 256.23331261 203.18011495 264.4664246 203.28752708 272.69947243 C203.3371175 276.52389649 203.38344504 280.34829778 203.421875 284.17285156 C203.45920573 287.87532829 203.50568251 291.57759488 203.55806351 295.27988815 C203.57635749 296.6805687 203.59155367 298.08129383 203.60334396 299.48204422 C203.76448812 317.99392008 206.38002868 332.34444804 216.68603516 347.77587891 C224.98155517 360.36735548 227.37081922 372.65241257 227.4375 387.5 C227.47037109 388.76070313 227.50324219 390.02140625 227.53710938 391.3203125 C227.64295884 410.21925417 219.24444399 425.44779686 210.89892578 441.92944336 C209.12030288 445.44678887 207.36567299 448.97538459 205.61328125 452.50585938 C204.47536219 454.77414231 203.33608609 457.04174508 202.1953125 459.30859375 C201.67840851 460.34938583 201.16150452 461.39017792 200.62893677 462.46250916 C193.44746884 476.55481047 184.03791253 486.84226712 168.8671875 492.08203125 C157.60333605 494.75577377 144.32461011 494.44203587 134 489 C133.14277344 488.57589844 132.28554687 488.15179688 131.40234375 487.71484375 C121.41863596 482.30888433 115.49729943 474.06162828 110.5625 464.0625 C110.07587891 463.10029541 109.58925781 462.13809082 109.08789062 461.14672852 C107.99839375 458.98771783 106.91490401 456.82566863 105.83642578 454.66113281 C104.16361686 451.31183922 102.45294495 447.98284685 100.73655701 444.65571594 C99.19543875 441.66405865 97.66616297 438.66643679 96.1388855 435.66769409 C95.39025335 434.20170388 94.63801537 432.73754844 93.88186646 431.27542114 C86.52451642 417.01879894 82.29846123 404.29105037 82.5 388 C82.47679687 386.12441406 82.47679687 386.12441406 82.453125 384.2109375 C82.49981575 372.93512079 84.6774908 362.17040393 90.3125 352.3125 C90.91320312 351.24644531 91.51390625 350.18039062 92.1328125 349.08203125 C93.90402551 346.15841815 95.77662585 343.33350652 97.6875 340.5 C106.10778978 327.51950835 106.13575937 312.84986868 106.31640625 297.90234375 C106.3370187 296.45788538 106.35801616 295.01343245 106.37937927 293.56898499 C106.43415745 289.79619808 106.48375883 286.02336082 106.53222656 282.25048828 C106.58276809 278.38895266 106.63828242 274.52748875 106.69335938 270.66601562 C106.80039829 263.11073808 106.90196002 255.55540026 107 248 C105.20949219 247.80772827 105.20949219 247.80772827 103.3828125 247.61157227 C97.33746408 246.85166865 91.75790645 244.87656674 86 242.9375 C84.19740723 242.33131836 84.19740723 242.33131836 82.35839844 241.71289062 C73.10504405 238.52620593 64.48857729 234.84962729 56 230 C55.36175293 229.64437988 54.72350586 229.28875977 54.06591797 228.92236328 C45.33660637 224.036796 37.54095313 218.6142615 30 212 C29.17113281 211.31550781 28.34226562 210.63101563 27.48828125 209.92578125 C10.72907114 195.69229197 -1.21856816 175.7270101 -5 154 C-5.2193107 149.73136593 -5.18512965 145.46123376 -5.1875 141.1875 C-5.19974609 140.03701172 -5.21199219 138.88652344 -5.22460938 137.70117188 C-5.23538072 131.43583814 -4.86452187 125.99152679 -3 120 C-18.86130209 124.9323198 -29.85754171 133.47752027 -38 148 C-49.89191409 172.19155095 -45.34315946 208.24353075 -37 233 C-31.96239381 247.16663607 -24.18813308 259.87626259 -14.875 271.625 C-4.4384938 284.81211891 1.91361178 299.67135787 6.75 315.6875 C6.94875732 316.33952393 7.14751465 316.99154785 7.35229492 317.66333008 C10.5762633 328.8332128 11.27641459 339.66096029 11.125 351.25 C11.11493575 352.59244113 11.10581607 353.93488969 11.09765625 355.27734375 C11.07433912 358.51842489 11.04161552 361.75911102 11 365 C12.16015625 364.95359375 13.3203125 364.9071875 14.515625 364.859375 C31.73170386 364.37350433 44.35123125 368.62770966 57.1875 380.5625 C71.73018555 395.79879535 75.53208802 414.49618096 75.2734375 434.88671875 C74.73503797 452.27275902 67.29527062 466.88132214 55 479 C54.43667969 479.57363281 53.87335938 480.14726562 53.29296875 480.73828125 C42.21680651 491.16766029 28.54442867 493.60861071 13.9609375 493.30859375 C-0.25693447 492.66281404 -12.01406994 484.95306504 -21.64453125 474.86328125 C-31.08178492 463.39146212 -37.05584122 449.06775748 -37.17358398 434.15625 C-37.180271 433.48699493 -37.18695801 432.81773987 -37.19384766 432.12820435 C-37.20785446 430.67852563 -37.21976227 429.22882543 -37.22979546 427.77911377 C-37.24636171 425.46252928 -37.26961652 423.14609698 -37.29469299 420.82958984 C-37.36495169 414.24356897 -37.42475096 407.65747822 -37.47680664 401.07128906 C-37.81270823 359.72116618 -40.52858355 323.94483584 -67.125 290.375 C-82.36581402 271.02509957 -92.96315353 244.18512079 -93.17700195 219.34643555 C-93.18983719 218.04034836 -93.20267242 216.73426117 -93.21589661 215.38859558 C-93.22407206 213.97130724 -93.23151424 212.55401451 -93.23828125 211.13671875 C-93.24235678 210.4132255 -93.2464323 209.68973225 -93.25063133 208.94431496 C-93.27144453 205.10570189 -93.28575989 201.26712394 -93.29516602 197.4284668 C-93.30397698 194.28731598 -93.32473985 191.14661461 -93.35668945 188.00561523 C-93.69006389 154.50604224 -93.69006389 154.50604224 -89 141 C-88.66394745 140.0196151 -88.66394745 140.0196151 -88.32110596 139.01942444 C-82.90233232 123.35941381 -74.59473361 110.73380088 -63 99 C-62.35675781 98.28457031 -61.71351562 97.56914063 -61.05078125 96.83203125 C-47.03148838 81.59631383 -24.38145991 71.45244202 -4 69 C-0.04059019 68.88517049 3.91437774 68.90579551 7.875 68.9375 C8.94492188 68.94201172 10.01484375 68.94652344 11.1171875 68.95117188 C13.74484986 68.96290251 16.37239538 68.97931772 19 69 C16.54221405 52.13519236 11.98755219 40.26925572 1 27 C-0.78320825 24.83121958 -2.56419251 22.6606812 -4.34179688 20.48730469 C-5.51661598 19.05448861 -6.69747981 17.62660437 -7.88476562 16.20410156 C-8.42037109 15.55538086 -8.95597656 14.90666016 -9.5078125 14.23828125 C-9.98879395 13.66118408 -10.46977539 13.08408691 -10.96533203 12.48950195 C-12 11 -12 11 -12 9 C-10.03062339 7.37643654 -8.06654852 5.86440434 -6 4.375 C-5.14148438 3.74464844 -5.14148438 3.74464844 -4.265625 3.1015625 C-2.84796067 2.06194199 -1.42450738 1.03022409 0 0 Z " fill="#010101" transform="translate(101,11)"/>
<path d="M0 0 C0.40514389 5.16359859 -0.88483858 8.85205517 -3.1875 13.375 C-3.53337158 14.06327881 -3.87924316 14.75155762 -4.2355957 15.46069336 C-8.31365514 23.16505377 -13.81798768 29.6525789 -19.53051758 36.18798828 C-20.99570614 37.99470526 -22.1543885 39.85833329 -23.3671875 41.83984375 C-25.28716077 44.57843115 -26.67980272 45.52907404 -29.93359375 46.3125 C-31.43139658 46.56352189 -32.93315355 46.79175238 -34.4375 47 C-48.82986482 49.62409493 -61.01914269 55.8508461 -70.0625 67.703125 C-77.50302594 78.80190952 -79.88821516 89.10934916 -77.34375 102.4375 C-73.83280399 115.27061301 -66.16056638 125.19057745 -54.69921875 131.9453125 C-39.36120505 140.18840717 -22.74914673 143.01262662 -5.80078125 137.97265625 C-4.41439453 137.49119141 -4.41439453 137.49119141 -3 137 C-1.98292969 136.64808594 -0.96585938 136.29617187 0.08203125 135.93359375 C13.16936313 130.94559179 23.10066612 122.19864044 29 109.4296875 C33.43196501 98.6613975 33.4245071 86.82231354 29 76 C26.07419624 70.70173598 22.6614408 65.81122252 19 61 C19.68964844 60.12859375 20.37929688 59.2571875 21.08984375 58.359375 C26.56831814 51.42043122 31.96674965 44.43738022 37.22265625 37.328125 C39 35 39 35 41 33 C53.1541022 49.46232862 58.81363439 65.61565086 56.6796875 86.0703125 C53.93345235 103.5962859 45.24095609 117.61954583 33 130 C32.28070313 130.79148438 31.56140625 131.58296875 30.8203125 132.3984375 C5.81819083 159.28751175 -38.8647319 171.66336283 -74.26708984 173.21142578 C-120.01594816 174.79468746 -164.86020161 165.45970268 -201 136 C-201.52343994 135.57662354 -202.04687988 135.15324707 -202.58618164 134.71704102 C-216.8535107 123.04779546 -228.92217608 104.1730654 -230.83203125 85.54296875 C-232.01419027 67.64563106 -229.12689465 49.85161047 -217.27734375 35.59375 C-216.52582031 34.7378125 -215.77429688 33.881875 -215 33 C-214.47277344 33.66128906 -213.94554687 34.32257813 -213.40234375 35.00390625 C-210.47042732 38.66045894 -207.51785356 42.29988196 -204.5625 45.9375 C-204.00240234 46.62779297 -203.44230469 47.31808594 -202.86523438 48.02929688 C-199.60456515 52.04330625 -196.31985448 56.03479064 -193 60 C-194.47569342 63.20834839 -196.32401073 65.86496917 -198.4375 68.6875 C-201.69987393 73.27924044 -203.62511914 77.5639326 -205 83 C-205.18175781 83.63292969 -205.36351562 84.26585937 -205.55078125 84.91796875 C-207.75943174 95.15458363 -205.44569922 105.68883589 -200.4921875 114.76171875 C-192.09067286 127.52029797 -178.94364607 136.03768166 -164.10546875 139.56640625 C-152.93661289 141.12583141 -141.69639188 140.71464655 -131 137 C-129.98292969 136.64808594 -128.96585937 136.29617187 -127.91796875 135.93359375 C-114.83063687 130.94559179 -104.89933388 122.19864044 -99 109.4296875 C-94.558543 98.63833494 -94.60688431 86.85084053 -99 76 C-106.79597719 61.11310815 -118.14580777 52.84169659 -134.0625 47.72265625 C-136.95127771 47.0119862 -139.60260413 46.82260668 -142.5625 46.625 C-148.73140648 45.63087406 -151.5307072 41.50363036 -155.00048828 36.734375 C-155.90389801 35.45299817 -156.80008377 34.16649765 -157.68896484 32.875 C-158.92851987 31.10222857 -160.21797604 29.39084469 -161.55078125 27.6875 C-165.72733339 22.32838891 -169.26964767 17.22520331 -172 11 C-172.4125 10.13375 -172.825 9.2675 -173.25 8.375 C-174.15684426 5.5033265 -174.04924913 2.99598858 -174 0 C-156.77487379 -7.97437206 -139.59884143 -13.25370405 -121 -17 C-120.22817383 -17.15968262 -119.45634766 -17.31936523 -118.66113281 -17.48388672 C-79.39566614 -25.21799379 -35.84247546 -16.13935467 0 0 Z " fill="#EDBC99" transform="translate(343,75)"/>
<path d="M0 0 C0.52722656 0.66128906 1.05445313 1.32257813 1.59765625 2.00390625 C4.52957268 5.66045894 7.48214644 9.29988196 10.4375 12.9375 C11.27764648 13.97293945 11.27764648 13.97293945 12.13476562 15.02929688 C15.39543485 19.04330625 18.68014552 23.03479064 22 27 C20.52430658 30.20834839 18.67598927 32.86496917 16.5625 35.6875 C13.30012607 40.27924044 11.37488086 44.5639326 10 50 C9.81824219 50.63292969 9.63648438 51.26585937 9.44921875 51.91796875 C7.24056826 62.15458363 9.55430078 72.68883589 14.5078125 81.76171875 C22.90932714 94.52029797 36.05635393 103.03768166 50.89453125 106.56640625 C62.06338711 108.12583141 73.30360812 107.71464655 84 104 C85.01707031 103.64808594 86.03414063 103.29617187 87.08203125 102.93359375 C94.45743214 100.1225919 101.00538513 96.39457631 106.36547852 90.49780273 C108.19962452 88.81707297 109.64860544 88.19092091 111.9921875 87.38671875 C112.77424561 87.11093994 113.55630371 86.83516113 114.36206055 86.55102539 C115.19133057 86.26606201 116.02060059 85.98109863 116.875 85.6875 C124.82012378 82.87002115 132.42418037 79.7131037 140 76 C140.474375 77.11375 140.94875 78.2275 141.4375 79.375 C147.69049507 91.7279448 158.79528659 99.29029481 171.41796875 104.17578125 C178.01455509 106.28149943 183.8476519 107.36403235 190.75 107.3125 C191.53713379 107.30758545 192.32426758 107.3026709 193.13525391 107.29760742 C199.75476746 107.16565024 205.72613481 106.17879 212 104 C213.01707031 103.64808594 214.03414062 103.29617187 215.08203125 102.93359375 C228.16936313 97.94559179 238.10066612 89.19864044 244 76.4296875 C248.43196501 65.6613975 248.4245071 53.82231354 244 43 C241.07419624 37.70173598 237.6614408 32.81122252 234 28 C234.68964844 27.12859375 235.37929688 26.2571875 236.08984375 25.359375 C241.56831814 18.42043122 246.96674965 11.43738022 252.22265625 4.328125 C254 2 254 2 256 0 C268.1541022 16.46232862 273.81363439 32.61565086 271.6796875 53.0703125 C268.93345235 70.5962859 260.24095609 84.61954583 248 97 C247.28070313 97.79148437 246.56140625 98.58296875 245.8203125 99.3984375 C220.81819083 126.28751175 176.1352681 138.66336283 140.73291016 140.21142578 C94.98405184 141.79468746 50.13979839 132.45970268 14 103 C13.47656006 102.57662354 12.95312012 102.15324707 12.41381836 101.71704102 C-1.8535107 90.04779546 -13.92217608 71.1730654 -15.83203125 52.54296875 C-17.01419027 34.64563106 -14.12689465 16.85161047 -2.27734375 2.59375 C-1.52582031 1.7378125 -0.77429688 0.881875 0 0 Z " fill="#D8997A" transform="translate(128,108)"/>
<path d="M0 0 C2.50022037 0.14260966 5.0001271 0.28901464 7.5 0.4375 C8.19609375 0.47681641 8.8921875 0.51613281 9.609375 0.55664062 C14.44062266 0.84741016 19.20265901 1.35711309 24 2 C24.09433999 18.17096645 24.16441049 34.34184076 24.20724869 50.51301765 C24.22768687 58.02521201 24.25543776 65.53723333 24.30175781 73.04931641 C24.34221149 79.61325466 24.36756799 86.1770674 24.37635398 92.74112689 C24.38147233 96.20191662 24.39308393 99.66234798 24.42292023 103.12302017 C24.70177844 139.63169014 19.34867548 175.83712842 6 210 C3.54505956 207.76866961 2.10449925 205.59668048 0.61157227 202.64306641 C0.16423233 201.7642984 -0.2831076 200.8855304 -0.7440033 199.98013306 C-1.21906815 199.03020477 -1.694133 198.08027649 -2.18359375 197.1015625 C-2.68037125 196.11562103 -3.17714874 195.12967957 -3.6889801 194.11386108 C-4.74017159 192.02228718 -5.7881805 189.92911119 -6.83325195 187.83447266 C-8.41691027 184.66619199 -10.01733547 181.50679256 -11.61914062 178.34765625 C-24.81056013 152.1362473 -24.81056013 152.1362473 -24.5 136.4375 C-24.48718994 135.43807373 -24.47437988 134.43864746 -24.46118164 133.40893555 C-24.07608568 119.39121405 -18.47273072 109.68996364 -11.1328125 98.03515625 C-4.40553483 87.04919421 -0.95764281 75.79058823 -0.79467773 62.89306641 C-0.77982834 61.86762726 -0.77982834 61.86762726 -0.76467896 60.82147217 C-0.73331237 58.58153645 -0.70840581 56.34157958 -0.68359375 54.1015625 C-0.66300271 52.54071529 -0.6420057 50.9798734 -0.62062073 49.41903687 C-0.56562195 45.32562579 -0.5161155 41.23216625 -0.46777344 37.13867188 C-0.41739559 32.95568568 -0.36179481 28.77276921 -0.30664062 24.58984375 C-0.19933082 16.39328826 -0.09782637 8.19667414 0 0 Z " fill="#E27B6D" transform="translate(224,262)"/>
<path d="M0 0 C0.00879936 1.27214607 0.00879936 1.27214607 0.01777649 2.56999207 C0.07600791 10.61585238 0.14825513 18.66144403 0.23571491 26.70704174 C0.28018426 30.84202766 0.31948982 34.97692036 0.34643555 39.11206055 C0.37270517 43.11285587 0.4132684 47.11328774 0.46318626 51.11385536 C0.47969688 52.62978865 0.49130843 54.14578457 0.49761391 55.66179466 C0.5835018 74.43707681 5.24520839 89.46497558 15.39648438 105.19165039 C21.69336086 115.04064158 24.17945211 123.60658816 24.1875 135.1875 C24.19974609 136.09564453 24.21199219 137.00378906 24.22460938 137.93945312 C24.26252723 155.59653562 15.48296115 170.38527827 7.76049805 185.79467773 C6.29842855 188.71561205 4.84721185 191.64177833 3.39648438 194.56835938 C2.46939729 196.42480256 1.54168612 198.28093424 0.61328125 200.13671875 C-0.03673103 201.45055794 -0.03673103 201.45055794 -0.69987488 202.79093933 C-1.10402115 203.59300308 -1.50816742 204.39506683 -1.92456055 205.22143555 C-2.27810104 205.92914597 -2.63164154 206.63685638 -2.99589539 207.36601257 C-4 209 -4 209 -6 210 C-7.25802632 206.31519148 -8.50482288 202.62666838 -9.75 198.9375 C-10.09804688 197.91849609 -10.44609375 196.89949219 -10.8046875 195.84960938 C-15.29795316 182.49462534 -18.54730544 169.16470546 -20.6875 155.25 C-20.90106405 153.91786781 -21.11525598 152.58583613 -21.33007812 151.25390625 C-23.18787778 139.47416709 -24.15087479 128.01893341 -24.11352539 116.09301758 C-24.11367142 114.85270782 -24.11381744 113.61239807 -24.1139679 112.33450317 C-24.11339507 108.96953467 -24.1084175 105.6046293 -24.10139394 102.23967195 C-24.09509644 98.70964387 -24.09455158 95.17961474 -24.09336853 91.64958191 C-24.09027393 84.98111364 -24.08208603 78.31266197 -24.07201904 71.64420098 C-24.06079946 64.0455438 -24.05533279 56.44688579 -24.05032361 48.84822237 C-24.03990164 33.23213867 -24.02233882 17.61607149 -24 2 C-21.50072231 1.66029235 -19.00080405 1.32811968 -16.5 1 C-15.80390625 0.90460938 -15.1078125 0.80921875 -14.390625 0.7109375 C-9.55299871 0.0838378 -4.87818804 -0.08789528 0 0 Z " fill="#E27B6D" transform="translate(288,262)"/>
<path d="M0 0 C10.1718678 7.34734212 17.21808754 18.61671471 19.75 30.9375 C19.9814417 32.72402188 20.16915366 34.51676129 20.3125 36.3125 C20.39371094 37.23160156 20.47492188 38.15070313 20.55859375 39.09765625 C21.19071216 53.32989796 16.83419351 68.08733875 7.140625 78.6875 C2.65038582 82.89903468 -2.00149654 85.97800264 -7.6875 88.3125 C-8.83798828 88.84423828 -8.83798828 88.84423828 -10.01171875 89.38671875 C-18.53331805 92.3350677 -27.90772398 90.77268284 -35.87109375 86.9765625 C-47.74731101 79.95954648 -54.7030043 69.50537892 -58.125 56.3125 C-61.50882516 41.7714751 -60.17730524 26.82080483 -52.41015625 13.84375 C-40.09262141 -4.25548487 -19.69275217 -12.20817575 0 0 Z " fill="#E27B6D" transform="translate(411.6875,397.6875)"/>
<path d="M0 0 C10.1718678 7.34734212 17.21808754 18.61671471 19.75 30.9375 C19.9814417 32.72402188 20.16915366 34.51676129 20.3125 36.3125 C20.39371094 37.23160156 20.47492188 38.15070313 20.55859375 39.09765625 C21.19071216 53.32989796 16.83419351 68.08733875 7.140625 78.6875 C2.65038582 82.89903468 -2.00149654 85.97800264 -7.6875 88.3125 C-8.83798828 88.84423828 -8.83798828 88.84423828 -10.01171875 89.38671875 C-18.53331805 92.3350677 -27.90772398 90.77268284 -35.87109375 86.9765625 C-47.74731101 79.95954648 -54.7030043 69.50537892 -58.125 56.3125 C-61.50882516 41.7714751 -60.17730524 26.82080483 -52.41015625 13.84375 C-40.09262141 -4.25548487 -19.69275217 -12.20817575 0 0 Z " fill="#E27B6D" transform="translate(139.6875,397.6875)"/>
<path d="M0 0 C-0.70576172 1.10408203 -0.70576172 1.10408203 -1.42578125 2.23046875 C-2.04839844 3.20628906 -2.67101562 4.18210937 -3.3125 5.1875 C-3.92738281 6.15042969 -4.54226562 7.11335938 -5.17578125 8.10546875 C-7.03625111 10.90279281 -7.03625111 10.90279281 -8.21875 13.75 C-10.87924429 17.11062437 -14.16795155 17.19614403 -18.1875 17.8125 C-31.32084194 20.27989592 -43.05378695 25.9943745 -53 35 C-54.00740234 35.87011719 -54.00740234 35.87011719 -55.03515625 36.7578125 C-67.13517048 47.90194892 -75.53267993 65.21353329 -76.28930664 81.69799805 C-76.41626664 86.21012879 -76.42158131 90.71958983 -76.39111328 95.2331543 C-76.3751686 98.03289585 -76.39095496 100.83116423 -76.41015625 103.63085938 C-76.44979434 136.95677018 -66.68554634 167.29787323 -46.125 193.625 C-35.41280145 207.48472074 -27.903661 222.93126007 -24 240 C-23.74831055 240.99660645 -23.49662109 241.99321289 -23.23730469 243.02001953 C-21.17505867 251.67280866 -20.35146092 259.96754708 -20.27929688 268.82568359 C-20.24960991 271.02895082 -20.15594769 273.2244068 -20.0625 275.42578125 C-19.83114776 285.63066502 -19.83114776 285.63066502 -22.81054688 289.12109375 C-25.1367379 290.64290096 -27.49635038 291.79872869 -30 293 C-32.44264776 294.89651381 -34.69237775 296.93786948 -37 299 C-37.01401855 297.7939209 -37.01401855 297.7939209 -37.02832031 296.56347656 C-37.26369065 280.38753503 -37.72124901 264.70938875 -42 249 C-42.17515137 248.34612305 -42.35030273 247.69224609 -42.53076172 247.01855469 C-47.59457696 228.77757729 -56.70324864 213.01930783 -68 198 C-76.35059816 186.81703522 -83.07628941 174.87396612 -87.375 161.5625 C-87.60131104 160.87357666 -87.82762207 160.18465332 -88.06079102 159.47485352 C-93.06767554 142.85229773 -93.53180135 126.14427924 -93.50097656 108.90551758 C-93.5000025 105.07231883 -93.54180494 101.24111572 -93.5859375 97.40820312 C-93.71831734 70.35899065 -87.69046664 48.7072184 -70 28 C-69.42765625 27.32582031 -68.8553125 26.65164062 -68.265625 25.95703125 C-50.95598772 7.23348795 -24.90506577 -1.43499099 0 0 Z " fill="#F6DCAF" transform="translate(117,96)"/>
<path d="M0 0 C24.39969341 -1.27858655 46.94010292 6.94270805 65.1875 23.25 C81.68124603 38.61971597 92.38483135 60.10134093 93.43017578 82.73071289 C93.59027405 88.95179123 93.56826453 95.167443 93.48706055 101.38964844 C93.43740384 105.2574902 93.42554843 109.12405441 93.41992188 112.9921875 C93.34670928 129.54355452 92.91040817 145.09166677 87.4375 160.875 C87.08526367 161.90238281 86.73302734 162.92976562 86.37011719 163.98828125 C81.26753296 178.39240447 74.16432116 190.20143448 64.85546875 202.23828125 C54.22201517 216.07335572 46.44920056 232.14983618 42 249 C41.79890625 249.7115625 41.5978125 250.423125 41.390625 251.15625 C38.3968594 262.2241107 37.63903776 273.33036669 37.375 284.75 C37.33669556 286.14064609 37.29763729 287.53127162 37.2578125 288.921875 C37.16450001 292.28112457 37.07871105 295.64038202 37 299 C36.030625 298.13375 35.06125 297.2675 34.0625 296.375 C31.94972418 294.49532639 30.10284226 293.05100918 27.56201172 291.79077148 C24.84827929 290.42306551 23.02392072 289.28084893 21 287 C19.7245981 282.03062732 19.90691613 277.14880687 20.125 272.0625 C20.1576339 270.62201073 20.1892823 269.18149882 20.2199707 267.7409668 C20.71827194 250.98034192 23.80352794 234.24292113 31 219 C31.2985791 218.36465332 31.5971582 217.72930664 31.90478516 217.07470703 C36.26513737 207.9517402 41.35882841 199.86557098 47.54589844 191.87963867 C68.07193401 165.27120757 76.60192408 134.26636987 76.44604492 100.96411133 C76.43745016 98.17130627 76.46659253 95.3805002 76.49804688 92.58789062 C76.57670994 72.77825538 71.46202247 55.10444786 58 40 C57.41863281 39.32582031 56.83726562 38.65164062 56.23828125 37.95703125 C45.66730086 26.49959549 31.24158664 20.29183052 16.0625 17.875 C12.16574059 17.05862653 10.4594278 16.49830857 7.73828125 13.546875 C5.96082458 10.75958445 4.45414171 7.9664491 3 5 C2.01352761 3.32529107 1.01765419 1.65594617 0 0 Z " fill="#F6DCAF" transform="translate(395,96)"/>
<path d="M0 0 C13.22826993 -0.50661459 24.5234994 2.26761343 35.375 10.25 C42.27556049 17.4791586 45.4315496 24.88156896 45.34765625 34.79296875 C44.54372232 42.20903345 40.25928687 48.85758618 35 54 C27.25611256 59.36927119 19.53610652 63.47705222 10 64 C8.39898437 64.09667969 8.39898437 64.09667969 6.765625 64.1953125 C-5.21856342 64.58780775 -15.43515509 61.36509353 -25 54 C-31.08004605 47.72530088 -35.03424722 41.15499223 -35.5625 32.3125 C-35.33293511 24.34759639 -32.274099 17.72233874 -27.03125 11.76171875 C-23.23036088 8.23127751 -20.00581289 6.49321123 -15 5 C-14.51937876 7.68724704 -14.04046504 10.37478033 -13.5625 13.0625 C-13.42779297 13.81466797 -13.29308594 14.56683594 -13.15429688 15.34179688 C-12.76063334 17.55975486 -12.37852916 19.77941422 -12 22 C-11.70609375 23.7015625 -11.70609375 23.7015625 -11.40625 25.4375 C-10.89101112 29.95574862 -10.89259376 34.39506107 -10.9375 38.9375 C-10.94201172 39.81212891 -10.94652344 40.68675781 -10.95117188 41.58789062 C-10.96285166 43.72529047 -10.98078311 45.86265463 -11 48 C-5.72 48 -0.44 48 5 48 C5 42.39 5 36.78 5 31 C6.19496094 30.74605469 7.38992187 30.49210937 8.62109375 30.23046875 C16.56463419 28.51862828 24.36362247 26.82828798 32 24 C31.566875 23.08476562 31.13375 22.16953125 30.6875 21.2265625 C30.130625 20.03804687 29.57375 18.84953125 29 17.625 C28.1646875 15.84996094 28.1646875 15.84996094 27.3125 14.0390625 C26 11 26 11 26 9 C25.21496094 9.33773437 24.42992187 9.67546875 23.62109375 10.0234375 C9.5433526 16 9.5433526 16 3 16 C2.49595192 13.89679937 1.99689492 11.79240209 1.5 9.6875 C1.2215625 8.51574219 0.943125 7.34398437 0.65625 6.13671875 C0 3 0 3 0 0 Z " fill="#E0796C" transform="translate(187,136)"/>
<path d="M0 0 C1.89492188 0.01353516 1.89492188 0.01353516 3.828125 0.02734375 C4.79234375 0.03894531 5.7565625 0.05054688 6.75 0.0625 C6.43806536 1.79176874 6.12542638 3.52091044 5.8125 5.25 C5.63847656 6.21292969 5.46445312 7.17585937 5.28515625 8.16796875 C4.7976265 10.80489972 4.28328895 13.4344905 3.75 16.0625 C-4.3907141 15.17763977 -12.0534184 13.03955825 -19.25 9.0625 C-19.4975 9.866875 -19.745 10.67125 -20 11.5 C-21.51078647 15.80574143 -23.35188856 19.91614007 -25.25 24.0625 C-16.38029989 27.18332041 -7.31600177 29.58817589 1.75 32.0625 C1.75 37.3425 1.75 42.6225 1.75 48.0625 C7.03 48.0625 12.31 48.0625 17.75 48.0625 C17.70875 45.979375 17.6675 43.89625 17.625 41.75 C17.58012669 35.51891959 17.9779593 29.38349792 18.625 23.1875 C18.70347168 22.41623779 18.78194336 21.64497559 18.86279297 20.8503418 C19.46071212 15.49144835 20.48467118 10.3023586 21.75 5.0625 C29.60636333 6.97868618 34.0108839 11.50796764 38.125 18.25 C41.91684104 24.85023668 42.56889072 30.50846316 41.75 38.0625 C37.86410441 49.62344248 30.26092597 55.59945346 19.828125 61.0703125 C15.56900595 63.08264856 11.40058409 63.80746797 6.75 64.0625 C5.14898437 64.15917969 5.14898437 64.15917969 3.515625 64.2578125 C-8.46856342 64.65030775 -18.68515509 61.42759353 -28.25 54.0625 C-34.33004605 47.78780088 -38.28424722 41.21749223 -38.8125 32.375 C-38.5638294 23.74721151 -34.88745826 16.17684397 -28.6875 10.1875 C-20.2678299 3.54296344 -10.61017269 -0.09824234 0 0 Z " fill="#E0796C" transform="translate(318.25,135.9375)"/>
<path d="M0 0 C0.52722656 0.66128906 1.05445313 1.32257813 1.59765625 2.00390625 C4.52957268 5.66045894 7.48214644 9.29988196 10.4375 12.9375 C11.27764648 13.97293945 11.27764648 13.97293945 12.13476562 15.02929688 C15.39543485 19.04330625 18.68014552 23.03479064 22 27 C20.52430658 30.20834839 18.67598927 32.86496917 16.5625 35.6875 C13.30012607 40.27924044 11.37488086 44.5639326 10 50 C9.81824219 50.63292969 9.63648438 51.26585937 9.44921875 51.91796875 C7.24056826 62.15458363 9.55430078 72.68883589 14.5078125 81.76171875 C18.63550514 88.03005199 24.1782308 94.5891154 31 98 C31 98.66 31 99.32 31 100 C27.60269305 99.97711496 24.20871695 99.89969714 20.8125 99.8125 C19.37293945 99.80379883 19.37293945 99.80379883 17.90429688 99.79492188 C10.72552305 99.57136144 10.72552305 99.57136144 7.05859375 96.68359375 C6.37925781 95.79800781 5.69992188 94.91242188 5 94 C4.36578125 93.38640625 3.7315625 92.7728125 3.078125 92.140625 C-7.50131914 81.19949046 -15.168076 65.26825228 -16 50 C-16.06445312 48.824375 -16.12890625 47.64875 -16.1953125 46.4375 C-16.82487849 29.3300934 -11.35961579 12.93788145 0 0 Z " fill="#EBBB97" transform="translate(128,108)"/>
<path d="M0 0 C9.24 0 18.48 0 28 0 C26.47058423 3.05883153 25.38709378 4.9116622 23.2421875 7.3984375 C8.6040297 24.6774099 0.46190965 40.90278602 -1.27197266 63.54833984 C-1.81796126 70.22961342 -2.94687027 75.96474356 -6 82 C-6.39832031 82.79792969 -6.79664063 83.59585938 -7.20703125 84.41796875 C-11.10390748 91.4817588 -16.36353908 97.41008945 -21.65283203 103.44726562 C-23.80853794 105.93191397 -25.90240947 108.46620167 -28 111 C-31.96 109.68 -35.92 108.36 -40 107 C-40 102.02537876 -38.06188352 100.26570114 -35 96.6875 C-23.54061804 82.6338207 -18.27164898 69.12275323 -17.5625 50.875 C-16.9010034 34.32195919 -9.31202483 22.85323024 0.79931641 10.23852539 C3.24322507 7.46182049 3.24322507 7.46182049 4 4 C2.68 2.68 1.36 1.36 0 0 Z " fill="#F0CB85" transform="translate(377,16)"/>
<path d="M0 0 C9.24 0 18.48 0 28 0 C26.68 1.32 25.36 2.64 24 4 C25.58175499 9.01697749 28.61407128 12.61462876 31.8125 16.6875 C39.92517776 27.26574832 45.08192445 36.88645612 45.375 50.4375 C46.31317275 72.86814751 55.67575717 88.29107609 70 105 C67.09091772 106.93938819 64.59137621 107.96774957 61.3125 109.125 C60.31863281 109.47820312 59.32476562 109.83140625 58.30078125 110.1953125 C57.54152344 110.46085937 56.78226563 110.72640625 56 111 C41.23027286 95.36146538 29.59032628 79.95951978 28.6875 57.875 C27.39589136 35.8285766 15.28779172 20.42033869 1.6015625 4.1484375 C0 2 0 2 0 0 Z " fill="#F0CB85" transform="translate(107,16)"/>
<path d="M0 0 C0.66 0 1.32 0 2 0 C2.1959375 0.804375 2.391875 1.60875 2.59375 2.4375 C5.04485285 12.07286984 8.07216163 21.45985219 11.26953125 30.87304688 C11.60726563 31.86755859 11.945 32.86207031 12.29296875 33.88671875 C12.5974292 34.77576904 12.90188965 35.66481934 13.21557617 36.58081055 C13.90553755 38.70867463 14.49044651 40.82293194 15 43 C5.06073418 47.03332526 -3.06073418 47.03332526 -13 43 C-12.56808366 41.47757149 -12.12912438 39.95714081 -11.6875 38.4375 C-11.44386719 37.59058594 -11.20023438 36.74367188 -10.94921875 35.87109375 C-10 33 -10 33 -8.5546875 29.71875 C-6.75568206 25.61129119 -5.59443761 21.38732987 -4.4375 17.0625 C-4.22931641 16.30259766 -4.02113281 15.54269531 -3.80664062 14.75976562 C-2.47074432 9.85589549 -1.21814919 4.93434626 0 0 Z " fill="#F1D7AC" transform="translate(255,442)"/>
</svg>
