<?xml version="1.0" encoding="UTF-8"?>
<svg version="1.1" xmlns="http://www.w3.org/2000/svg" width="512" height="512">
<path d="M0 0 C3.98557366 3.48737695 4.63718434 6.92882651 5 12 C5.03193018 15.08318921 4.98671697 18.16026072 4.93408203 21.24316406 C3.90077829 85.85453696 9.14178585 167.33639571 36 227 C36.27473145 227.64211426 36.54946289 228.28422852 36.83251953 228.94580078 C38.55714949 232.52188534 39.75069209 233.88766816 43.3984375 235.53125 C44.71829025 235.87660396 46.04443736 236.19853075 47.375 236.5 C61.61407309 240.34945526 73.88486275 247.12622746 84 258 C84.66644531 258.66128906 85.33289063 259.32257813 86.01953125 260.00390625 C101.83937825 276.36275996 108.40356485 299.09382634 108.30273438 321.48071289 C107.85602509 339.90953886 102.00092001 357.69824123 89.1875 371.3125 C78.42900163 381.44791931 65.81119267 385.25814405 51.29296875 385.16796875 C46.78613056 384.93808258 42.41612267 384.19296554 37.96875 383.45703125 C30.90329613 382.36932322 24.47608795 382.73970143 18 386 C13.4536289 389.37388592 10.30246024 392.91085352 7.125 397.5625 C6.48328857 398.47950684 6.48328857 398.47950684 5.82861328 399.41503906 C3.11169994 403.3171288 0.48631408 407.27648468 -2.125 411.25 C-15.42546436 431.32064061 -31.96197884 445.85892033 -56 451 C-79.66955057 455.45948054 -105.42891092 452.89887477 -126 440 C-138.64109506 431.18717229 -146.9418949 419.49337884 -155.59863281 407.01367188 C-158.65685607 402.61920751 -161.79575385 398.28932042 -165 394 C-165.4846875 393.31292969 -165.969375 392.62585938 -166.46875 391.91796875 C-170.33930294 386.81098918 -174.82153215 384.56809138 -181 383 C-185.76433262 382.34881959 -190.02619995 382.97570158 -194.6875 384 C-210.14988715 387.00960427 -227.24767784 386.67329493 -240.875 378.1875 C-242.27091965 377.15263789 -243.64753556 376.09104133 -245 375 C-245.60199219 374.54496094 -246.20398438 374.08992188 -246.82421875 373.62109375 C-254.90941055 366.66237811 -260.99696691 353.55651219 -262 343 C-262.13019531 341.75992187 -262.26039063 340.51984375 -262.39453125 339.2421875 C-264.12781296 319.93007455 -261.47602937 299.59503672 -249 284 C-241.28982977 276.15015277 -241.28982977 276.15015277 -235.1875 275.75 C-231.32280714 275.82001255 -229.01147641 276.41873451 -226 279 C-223.38474671 283.05815166 -222.29875252 286.19144587 -223 291 C-224.75259113 294.06703447 -226.69250062 296.64445385 -229 299.3125 C-236.69364374 309.65083377 -239.18598646 323.80381089 -237.71875 336.41796875 C-236.50753331 343.9298415 -233.98962324 351.93185726 -228 357 C-222.97533939 360.16699099 -216.78243751 360.41740855 -211 361 C-211.3403125 359.4840625 -211.3403125 359.4840625 -211.6875 357.9375 C-212.05686593 353.28348932 -211.32004131 351.02140494 -209 347 C-205.27123486 343.89269572 -201.75677935 343.44996561 -197 343 C-177.09636427 345.42561392 -160.76170103 356.24751008 -148.421875 371.71484375 C-144.0166405 377.55268964 -140.18991131 383.80427109 -136.28271484 389.97998047 C-133.27696303 394.71343889 -130.17786321 399.38013864 -127 404 C-126.45214844 404.80953125 -125.90429688 405.6190625 -125.33984375 406.453125 C-117.61165811 417.19585114 -106.16226592 424.04203555 -93.17553711 426.54418945 C-87.91845193 427.29878144 -82.6779342 427.22592311 -77.375 427.25 C-76.26253906 427.270625 -75.15007812 427.29125 -74.00390625 427.3125 C-60.04839555 427.37748492 -45.25415291 423.7986756 -34.76171875 413.9921875 C-28.22675891 406.60232161 -23.0219999 398.13123654 -17.875 389.75 C-13.99685801 383.43939618 -9.85029343 377.61562572 -5 372 C-4.31550781 371.17113281 -3.63101562 370.34226562 -2.92578125 369.48828125 C9.30422544 355.15040985 26.48791852 344.48962203 45.5546875 342.76953125 C48.35321379 342.91209768 50.41832395 343.49451326 52.55078125 345.34765625 C57.08157817 350.5421192 57.08157817 350.5421192 56.87890625 354.1640625 C56.77449219 354.97617187 56.67007812 355.78828125 56.5625 356.625 C56.46066406 357.44226563 56.35882813 358.25953125 56.25390625 359.1015625 C56.17011719 359.72804688 56.08632813 360.35453125 56 361 C66.08207221 357.9006288 72.19276714 354.84649236 77.25 345.375 C84.6965784 329.18765177 84.86291685 312.6812948 79 296 C73.49932787 281.675486 64.04529565 270.03721764 49.93359375 263.6015625 C44.39164335 261.40078797 38.79265958 259.63812079 33.0625 258 C24.54266909 255.3918885 20.33788186 250.94765558 15.7890625 243.453125 C12.06853385 236.27201729 9.51148768 228.67226147 7 221 C6.7436377 220.22495117 6.48727539 219.44990234 6.22314453 218.65136719 C-13.3935545 158.12931982 -19.95907557 87.76175173 -20.375 24.4375 C-20.38893799 23.19589111 -20.40287598 21.95428223 -20.41723633 20.67504883 C-20.33522232 5.44281013 -20.33522232 5.44281013 -15.0625 0 C-9.77431516 -2.56396841 -5.43220098 -2.00711838 0 0 Z " fill="#2F7CC1" transform="translate(334,31)"/>
<path d="M0 0 C4.16029265 4.05361848 4.94236733 7.22330859 5.1262207 12.89111328 C5.12845763 14.49251727 5.12363482 16.09394042 5.11328125 17.6953125 C5.10836418 19.01065475 5.10836418 19.01065475 5.10334778 20.35256958 C5.02768058 31.53333045 4.62606683 42.70351988 4.1875 53.875 C4.1433194 55.00828735 4.09913879 56.14157471 4.05361938 57.3092041 C2.08472035 106.90652226 -2.12869543 156.93577262 -14.0625 205.25 C-14.28349365 206.1788501 -14.5044873 207.1077002 -14.73217773 208.06469727 C-16.11945859 213.33556523 -17.59935732 216.47948585 -22 220 C-25.19342379 221.59671189 -28.52545631 221.37418163 -32 221 C-35.64331077 219.38075077 -38.20425519 217.59148961 -40 214 C-40.43656125 206.77884757 -39.15924381 200.65545888 -37.375 193.6875 C-25.6695727 145.2301132 -22.10753896 94.92993953 -20.4765625 45.2421875 C-20.43526215 44.00667648 -20.39396179 42.77116547 -20.35140991 41.49821472 C-20.15191149 35.43350751 -19.97177906 29.36911301 -19.82177734 23.30297852 C-19.75647951 21.09650819 -19.69090126 18.89004614 -19.625 16.68359375 C-19.60627838 15.67428802 -19.58755676 14.6649823 -19.56826782 13.62509155 C-19.28561333 4.90117921 -19.28561333 4.90117921 -16 1 C-10.61493632 -2.59004246 -5.86989542 -2.50514365 0 0 Z " fill="#2F7CC1" transform="translate(189,31)"/>
<path d="M0 0 C2.747682 2.24153005 3.85438129 3.87509545 4.3125 7.4140625 C4.41670487 11.82974401 4.34616253 15.15466502 2 19 C-0.69587803 21.09679403 -2.092944 20.99510821 -5.5625 20.8125 C-10.10367893 19.73913043 -10.10367893 19.73913043 -12 17 C-13.61974625 12.14076124 -13.77843501 7.79040052 -11.75 3.125 C-8.22246488 -1.1584355 -5.30813688 -1.65879277 0 0 Z " fill="#5CBFCC" transform="translate(293,145)"/>
<path d="M0 0 C3.37762534 0.7840916 4.53313985 1.08074979 6.5 3.8125 C8.35394193 7.52038386 7.95179743 11.76541317 7.5 15.8125 C5.56919482 19.45132515 4.44683656 20.49017266 0.5625 21.8125 C-3.1256376 21.8125 -4.64508294 21.1122943 -7.5 18.8125 C-9.85890952 15.77961633 -9.85622018 12.5519812 -9.7578125 8.77734375 C-9.37949755 5.89412525 -8.29180855 4.06885151 -6.5 1.8125 C-3.5 -0.1875 -3.5 -0.1875 0 0 Z " fill="#5CBECC" transform="translate(289.5,180.1875)"/>
<path d="M0 0 C3.41039319 0.06516675 4.4144455 0.17520403 7.25 2.25 C9.28808126 6.68061144 9.35733689 10.5758157 8.6875 15.375 C6.66118421 19.88815789 6.66118421 19.88815789 3.6875 21.375 C-0.14441838 21.80076871 -1.84199683 21.67821315 -5.125 19.5625 C-8.13698349 16.55051651 -8.28865045 14.74466801 -8.5625 10.5 C-8.50582602 4.34520612 -6.22044584 0.26469982 0 0 Z " fill="#5CBFCC" transform="translate(288.3125,323.625)"/>
<path d="M0 0 C2.95691557 2.39749911 4.8222503 4.35362985 5.23828125 8.20703125 C5.35768908 12.39887447 5.33782083 15.29620661 3.5 19.125 C0.44431541 21.41676344 -1.35827945 21.60700227 -5.09765625 21.36328125 C-7.73056157 20.86048824 -9.18535005 19.95982195 -11 18 C-12.56278385 13.31164844 -12.48387901 8.85486955 -11.25 4.125 C-8.64924972 -0.29627548 -4.85175602 -0.6064695 0 0 Z " fill="#5CBFCC" transform="translate(292,216)"/>
<path d="M0 0 C3.1850357 1.76015131 3.83296972 2.49890916 5 6 C5.52482505 11.38954957 5.55572612 15.6237217 2 20 C-1.09173752 21.54586876 -3.59429552 21.29359521 -7 21 C-9.90717073 18.78136971 -10.83981643 17.48055071 -12 14 C-12.25042829 9.49229079 -12.17776243 6.01166764 -10 2 C-6.28986601 -0.47342266 -4.38939738 -0.38503486 0 0 Z " fill="#5CBFCC" transform="translate(292,73)"/>
<path d="M0 0 C3.1850357 1.76015131 3.83296972 2.49890916 5 6 C5.52482505 11.38954957 5.55572612 15.6237217 2 20 C-1.09173752 21.54586876 -3.59429552 21.29359521 -7 21 C-9.90717073 18.78136971 -10.83981643 17.48055071 -12 14 C-12.39527019 8.76266997 -11.77531183 5.48319603 -9 1 C-5.94306678 -0.52846661 -3.37015453 -0.23242445 0 0 Z " fill="#5DBECC" transform="translate(292,288)"/>
<path d="M0 0 C3.1850357 1.76015131 3.83296972 2.49890916 5 6 C5.52482505 11.38954957 5.55572612 15.6237217 2 20 C-1.09173752 21.54586876 -3.59429552 21.29359521 -7 21 C-9.90717073 18.78136971 -10.83981643 17.48055071 -12 14 C-12.39527019 8.76266997 -11.77531183 5.48319603 -9 1 C-5.94306678 -0.52846661 -3.37015453 -0.23242445 0 0 Z " fill="#5DBECC" transform="translate(292,252)"/>
<path d="M0 0 C3.1850357 1.76015131 3.83296972 2.49890916 5 6 C5.52482505 11.38954957 5.55572612 15.6237217 2 20 C-1.09173752 21.54586876 -3.59429552 21.29359521 -7 21 C-9.90717073 18.78136971 -10.83981643 17.48055071 -12 14 C-12.39527019 8.76266997 -11.77531183 5.48319603 -9 1 C-5.94306678 -0.52846661 -3.37015453 -0.23242445 0 0 Z " fill="#5CBECB" transform="translate(292,37)"/>
<path d="M0 0 C3.43815252 3.44672647 5.28892133 7.389419 5.5625 12.25 C5 16 5 16 3.4375 18.5 C0.00863886 20.61006839 -2.04220351 20.62491523 -6 20 C-9.16639117 17.46688706 -11.73880431 14.89824124 -13 11 C-13.3301943 7.30182385 -13.50160427 4.90766486 -11.6875 1.625 C-8.09820574 -1.83135744 -4.51034878 -1.32199878 0 0 Z " fill="#5DBECC" transform="translate(231,357)"/>
<path d="M0 0 C3.41039319 0.06516675 4.4144455 0.17520403 7.25 2.25 C9.25784993 6.61489114 9.3496176 10.64008928 8.6875 15.375 C7.68847498 17.79816706 7.07236488 19.07566065 5 20.6875 C1.61588082 21.69358949 -0.90916774 21.17942399 -4.3125 20.375 C-6.89705285 18.47966125 -7.27525506 17.48673483 -8.3125 14.375 C-8.66204721 8.9570183 -8.70167029 5.84870479 -5.3125 1.375 C-3.74331508 -0.19418492 -2.17164841 0.09241057 0 0 Z " fill="#5CBECC" transform="translate(288.3125,108.625)"/>
<path d="M0 0 C3.11937969 1.37252707 4.4897715 1.979543 6 5 C6.57089084 11.16562108 6.57089084 11.16562108 4.375 14.375 C0.79206908 16.82647905 -2.01529425 17.24766986 -6.31640625 16.7109375 C-10.80336883 15.86107942 -10.80336883 15.86107942 -13 15 C-15.47048435 11.29427347 -15.64832775 8.29625186 -15 4 C-12.01345992 -1.68864776 -5.62107231 -0.70783874 0 0 Z " fill="#5BBFCC" transform="translate(259,379)"/>
<path d="M0 0 C2.5 1.5 2.5 1.5 4 4 C4.88076342 9.28458052 4.3745902 12.03030558 1.3125 16.4375 C-0.64562861 18.77714193 -1.74359036 19.88742991 -4.5625 21.125 C-8.57463723 20.91924937 -11.16473638 19.83526362 -14 17 C-15.60485469 12.80268775 -14.6170013 9.83741601 -12.9375 5.87109375 C-9.9934406 -0.00475813 -6.24223506 -1.22798067 0 0 Z " fill="#5BBFCC" transform="translate(288,359)"/>
<path d="M0 0 C3.5625 0.5625 3.5625 0.5625 6.5 2.375 C9.5108945 7.02820059 9.55683111 11.17047683 8.5625 16.5625 C6.5 19.75 6.5 19.75 3.5625 21.5625 C0 22.125 0 22.125 -3.4375 21.5625 C-6.41158441 19.34390752 -7.33442003 18.16278924 -7.96875 14.46875 C-7.9584375 13.3446875 -7.948125 12.220625 -7.9375 11.0625 C-7.95296875 9.37640625 -7.95296875 9.37640625 -7.96875 7.65625 C-7.10333769 2.61649593 -4.96503773 0.81246072 0 0 Z " fill="#5CBFCC" transform="translate(222.4375,320.4375)"/>
<path d="M0 0 C1.99301736 1.58066894 2.86543351 2.73086702 4 5 C4.12148305 6.62165752 4.17543652 8.24884327 4.1875 9.875 C4.20167969 10.73867187 4.21585938 11.60234375 4.23046875 12.4921875 C3.98550176 15.15776049 3.40372054 16.73900727 2 19 C-0.69587803 21.09679403 -2.092944 20.99510821 -5.5625 20.8125 C-10.09950473 19.74011706 -10.09950473 19.74011706 -12 17 C-12.3984375 13.75 -12.3984375 13.75 -12.375 10 C-12.38273438 8.7625 -12.39046875 7.525 -12.3984375 6.25 C-12 3 -12 3 -10.6640625 1.125 C-6.93954708 -1.39298226 -4.20274428 -1.05068607 0 0 Z " fill="#5DBECC" transform="translate(227,214)"/>
<path d="M0 0 C3.5625 0.5625 3.5625 0.5625 6.5 2.375 C9.51912001 7.04091274 9.41366344 11.15558555 8.5625 16.5625 C7.0625 19.75 7.0625 19.75 4.5625 21.5625 C1.76277133 22.19358638 -0.66717088 22.34706586 -3.4375 21.5625 C-6.44111935 19.35737804 -7.332494 18.17400551 -7.96875 14.46875 C-7.9584375 13.3446875 -7.948125 12.220625 -7.9375 11.0625 C-7.95296875 9.37640625 -7.95296875 9.37640625 -7.96875 7.65625 C-7.10333769 2.61649593 -4.96503773 0.81246072 0 0 Z " fill="#5CBECC" transform="translate(222.4375,284.4375)"/>
<path d="M0 0 C1.8046875 0.65625 1.8046875 0.65625 3.8046875 2.59375 C5.24773483 7.01308244 5.48456291 11.05575975 4.8046875 15.65625 C2.97719927 18.97280272 1.88494295 20.24076714 -1.6328125 21.59375 C-4.69964531 21.6685508 -6.50269288 21.11172006 -9.1953125 19.65625 C-11.54118192 16.13744587 -11.55222839 14.39490299 -11.6328125 10.21875 C-11.67277344 9.08566406 -11.71273437 7.95257813 -11.75390625 6.78515625 C-11.1953125 3.65625 -11.1953125 3.65625 -8.92578125 1.25 C-5.44929154 -0.77919571 -3.82437535 -0.75044347 0 0 Z " fill="#5CBECC" transform="translate(226.1953125,249.34375)"/>
<path d="M0 0 C2.74755715 2.93503752 3.41189857 4.94630491 3.375 8.9375 C3.21719848 13.05247806 3.08200456 16.01430808 0 19 C-2.72858202 19.99221164 -5.1250065 20.46863447 -8 20 C-10.7265625 18.40234375 -10.7265625 18.40234375 -13 16 C-13.59375 12.90625 -13.59375 12.90625 -13.5 9.5 C-13.4896875 8.3759375 -13.479375 7.251875 -13.46875 6.09375 C-12.96845452 2.79179985 -12.2866437 1.38262627 -10 -1 C-6.36170784 -2.7564169 -3.55154195 -1.58685917 0 0 Z " fill="#5CBECC" transform="translate(228,179)"/>
<path d="M0 0 C3.5625 0.5625 3.5625 0.5625 6.5 2.375 C9.5108945 7.02820059 9.55683111 11.17047683 8.5625 16.5625 C6.5 19.75 6.5 19.75 3.5625 21.5625 C0 22.125 0 22.125 -3.4375 21.5625 C-6.41158441 19.34390752 -7.33442003 18.16278924 -7.96875 14.46875 C-7.9584375 13.3446875 -7.948125 12.220625 -7.9375 11.0625 C-7.95296875 9.37640625 -7.95296875 9.37640625 -7.96875 7.65625 C-7.10333769 2.61649593 -4.96503773 0.81246072 0 0 Z " fill="#5CBFCC" transform="translate(222.4375,105.4375)"/>
<path d="M0 0 C3.5625 0.5625 3.5625 0.5625 6.5 2.375 C9.51912001 7.04091274 9.41366344 11.15558555 8.5625 16.5625 C7.0625 19.75 7.0625 19.75 4.5625 21.5625 C1.76277133 22.19358638 -0.66717088 22.34706586 -3.4375 21.5625 C-6.44111935 19.35737804 -7.332494 18.17400551 -7.96875 14.46875 C-7.9584375 13.3446875 -7.948125 12.220625 -7.9375 11.0625 C-7.95296875 9.37640625 -7.95296875 9.37640625 -7.96875 7.65625 C-7.10333769 2.61649593 -4.96503773 0.81246072 0 0 Z " fill="#5CBECB" transform="translate(222.4375,69.4375)"/>
<path d="M0 0 C1.90625 0.4296875 1.90625 0.4296875 4.40625 2.2421875 C6.63271116 6.97341746 6.79127228 11.29655827 5.90625 16.4296875 C3.78125 19.6171875 3.78125 19.6171875 0.90625 21.4296875 C-2.87898532 22.13941912 -4.46455976 21.81609741 -7.74609375 19.80078125 C-10.09375 17.4296875 -10.09375 17.4296875 -10.72265625 14.3359375 C-10.70074219 13.211875 -10.67882812 12.0878125 -10.65625 10.9296875 C-10.65753906 9.805625 -10.65882813 8.6815625 -10.66015625 7.5234375 C-9.52124639 1.30263328 -5.84483015 -0.37075415 0 0 Z " fill="#5DBECC" transform="translate(225.09375,141.5703125)"/>
<path d="M0 0 C2.91368224 1.98378365 4.63558769 3.41448681 5.4453125 6.9375 C5.65673768 10.65858323 5.19399705 12.66230143 3.3125 15.9375 C0.67389977 18.29084615 -0.4720008 19 -4 19 C-9.63855422 16.72289157 -9.63855422 16.72289157 -11 14 C-11.48547716 9.43173948 -11.82829866 5.39154176 -9.4375 1.375 C-5.99348099 -0.56777996 -3.89459726 -0.61493641 0 0 Z " fill="#5CBFCC" transform="translate(226,37)"/>
</svg>
