<?xml version="1.0" encoding="UTF-8"?>
<svg version="1.1" xmlns="http://www.w3.org/2000/svg" width="512" height="512">
<path d="M0 0 C1.90625 0.46484375 1.90625 0.46484375 4.40625 2.83984375 C5.90625 5.46484375 5.90625 5.46484375 5.90625 7.46484375 C10.19625 7.46484375 14.48625 7.46484375 18.90625 7.46484375 C19.56625 5.81484375 20.22625 4.16484375 20.90625 2.46484375 C22.90625 0.46484375 22.90625 0.46484375 26.78125 0.08984375 C29.93352367 0.16435204 30.75013675 0.35166164 33.40625 2.27734375 C34.90625 4.46484375 34.90625 4.46484375 34.90625 7.46484375 C38.97121468 7.27454263 38.97121468 7.27454263 42.90625 6.46484375 C44.91489359 4.09214635 44.91489359 4.09214635 45.90625 1.46484375 C47.48522833 -0.11413458 49.09987572 0.21940866 51.28125 0.15234375 C52.46847656 0.09626953 52.46847656 0.09626953 53.6796875 0.0390625 C55.90625 0.46484375 55.90625 0.46484375 57.50268555 2.05029297 C59.38966181 5.29645669 59.42239037 7.77111962 59.58984375 11.5234375 C59.63968666 12.61657509 59.63968666 12.61657509 59.6905365 13.73179626 C60.14721519 25.32110072 60.01085764 36.93185171 59.96875 48.52734375 C59.96372229 50.9550772 59.95916165 53.38281166 59.95507812 55.81054688 C59.94417937 61.69533503 59.92754308 67.5800845 59.90625 73.46484375 C64.81965335 71.86482439 69.67808114 70.23308377 74.4453125 68.23046875 C111.42437623 52.92354877 151.59412467 40.92944201 190.65625 56.21484375 C209.5861763 64.3480022 225.13012433 75.1785344 239.90625 89.46484375 C240.57140625 90.0784375 241.2365625 90.69203125 241.921875 91.32421875 C276.5163056 123.97877474 295.27036139 178.68261715 297.81640625 225.0703125 C297.86087891 226.75060547 297.86087891 226.75060547 297.90625 228.46484375 C297.92671387 229.2326416 297.94717773 230.00043945 297.96826172 230.79150391 C298.62612602 259.73209642 294.78580229 288.16593031 284.90625 315.46484375 C284.61379395 316.27759766 284.32133789 317.09035156 284.02001953 317.92773438 C277.70222305 335.19883073 269.62448901 351.19750729 257.90625 365.46484375 C257.44992187 366.02655273 256.99359375 366.58826172 256.5234375 367.16699219 C235.92328254 392.40769008 209.19573615 409.98982975 178.15625 419.71484375 C177.07005371 420.06615356 177.07005371 420.06615356 175.96191406 420.42456055 C153.30435781 427.16143948 129.54358557 425.92362318 106.17718506 425.97015381 C100.97728374 425.98167299 95.77770852 426.00511681 90.5779438 426.04484558 C88.1586693 426.05838348 85.7398386 426.05425867 83.32054138 426.04943848 C81.84902368 426.05876983 80.37751096 426.06893629 78.90600586 426.08007812 C76.981287 426.08315979 76.981287 426.08315979 75.01768494 426.08630371 C72.0002289 426.25469985 72.0002289 426.25469985 69.99281311 427.53079224 C68.32106182 430.5064621 68.49235746 433.47174718 68.52148438 436.79443359 C68.5161116 437.53786514 68.51073883 438.28129669 68.50520325 439.04725647 C68.49542126 440.66124243 68.49248238 442.275281 68.49555969 443.88929367 C68.50003389 446.44513824 68.48604869 449.00028896 68.46716309 451.55606079 C68.43035316 456.98397705 68.41666985 462.41182105 68.40625 467.83984375 C68.39417127 474.12314482 68.37260877 480.40610884 68.32624817 486.68925858 C68.31268065 489.2047881 68.31684876 491.71989136 68.32165527 494.23544312 C68.31231265 495.78245586 68.30214333 497.32946391 68.29101562 498.87646484 C68.29716385 499.5737822 68.30331207 500.27109955 68.30964661 500.98954773 C68.25020355 505.70306473 67.29363098 509.07746277 63.90625 512.46484375 C56.71884523 513.05397529 56.71884523 513.05397529 53.40625 510.65234375 C51.90625 508.46484375 51.90625 508.46484375 51.90625 505.46484375 C36.72625 505.46484375 21.54625 505.46484375 5.90625 505.46484375 C5.24625 507.11484375 4.58625 508.76484375 3.90625 510.46484375 C1.34547235 513.0256214 -0.52257603 512.77935739 -4.0234375 512.92578125 C-7.02621913 512.25723742 -8.15260724 510.80966488 -10.09375 508.46484375 C-10.60168457 506.00538635 -10.60168457 506.00538635 -10.61132812 503.22485352 C-10.62393677 502.18019424 -10.63654541 501.13553497 -10.64953613 500.05921936 C-10.64143921 498.93623947 -10.63334229 497.81325958 -10.625 496.65625 C-10.6288269 495.49737778 -10.63265381 494.33850555 -10.63659668 493.14451599 C-10.63931813 490.69423555 -10.63194082 488.24392617 -10.61523438 485.79370117 C-10.59384929 482.04474985 -10.61502017 478.29771936 -10.640625 474.54882812 C-10.63798139 472.16796452 -10.63285572 469.78710211 -10.625 467.40625 C-10.63309692 466.28529434 -10.64119385 465.16433868 -10.64953613 464.00941467 C-10.55651095 456.2787766 -10.55651095 456.2787766 -8.24804688 452.21850586 C-6.09375 450.46484375 -6.09375 450.46484375 -3.09375 450.46484375 C-3.09375 445.84484375 -3.09375 441.22484375 -3.09375 436.46484375 C-4.74375 436.13484375 -6.39375 435.80484375 -8.09375 435.46484375 C-10.02429062 432.14431388 -10.94634844 429.07507093 -11.84765625 425.34375 C-15.45547066 410.83159964 -22.83779067 401.9836629 -34.09375 392.46484375 C-45.99469005 381.84943896 -53.18011752 369.08019604 -54.25390625 353.078125 C-54.75429097 338.17536271 -50.4999396 325.47699016 -40.78125 314.21484375 C-31.49372373 304.46371384 -19.96073446 296.63423897 -6.00390625 296.2265625 C10.78482702 295.83511535 22.74397189 300.42433002 37.21142578 308.58862305 C43.32676063 311.75023883 51.18846885 311.3622392 57.73828125 309.78125 C66.90478323 306.38781378 71.87206035 301.54847772 75.9609375 292.734375 C78.89411517 285.69232449 78.94826957 278.46759864 76.34375 271.27734375 C72.82036804 263.55020261 67.15075231 258.57374458 60.71875 253.21484375 C15.71902886 215.71399963 -3.54411638 156.35743037 -9.37850952 99.69953918 C-10.2334654 89.71549602 -10.29427226 79.75523557 -10.33203125 69.7421875 C-10.33610678 68.82133425 -10.3401823 67.900481 -10.34438133 66.9517231 C-10.36506521 62.09713097 -10.37945403 57.2425658 -10.38891602 52.38793945 C-10.40007396 47.38099124 -10.43462994 42.37447603 -10.47408772 37.36768246 C-10.50017093 33.50298722 -10.50859936 29.63839804 -10.51219749 25.77362251 C-10.51706801 23.92640751 -10.52869524 22.07919739 -10.54723549 20.23206902 C-10.57149859 17.65947794 -10.57068841 15.0880505 -10.5637207 12.51538086 C-10.57653076 11.75537277 -10.58934082 10.99536469 -10.60253906 10.21232605 C-10.5677652 6.69721576 -10.36713656 4.8191083 -8.18937683 1.99708557 C-5.29814356 -0.11687311 -3.48246112 -0.16242822 0 0 Z " fill="#FB78B4" transform="translate(134.09375,-0.46484375)"/>
<path d="M0 0 C0.99 0.03287109 0.99 0.03287109 2 0.06640625 C2.66 0.06511719 3.32 0.06382813 4 0.0625 C6.97435846 0.90484761 8.0971396 2.19706752 10 4.62890625 C10.39304104 7.28762187 10.54472885 9.53571357 10.51416016 12.19213867 C10.52484779 13.32712799 10.52484779 13.32712799 10.53575134 14.48504639 C10.55503878 16.98508798 10.5467487 19.48428358 10.5390625 21.984375 C10.54897229 23.72830944 10.56091461 25.47223342 10.57479858 27.21614075 C10.60719037 31.81092766 10.61755349 36.40547638 10.62164307 41.00036621 C10.63038829 48.33649209 10.6661378 55.67242158 10.7138176 63.00838661 C10.72632716 65.56134609 10.7256505 68.11405428 10.72354126 70.66703796 C10.75320621 82.57914798 11.88602154 92.1716644 18 102.62890625 C18.38929688 103.43585938 18.77859375 104.2428125 19.1796875 105.07421875 C20.91060121 107.88084154 22.05404028 109.08867694 25 110.62890625 C36.40517785 112.50188929 47.50624818 109.43712859 57.76269531 104.64892578 C86.0354668 91.75896078 119.25673235 78.72561324 150.0859375 89.73046875 C161.25980416 94.18278066 170.88475146 99.78689878 180 107.62890625 C180.81210937 108.30695313 181.62421875 108.985 182.4609375 109.68359375 C214.19629981 137.01404773 232.42424932 180.50403179 236 221.62890625 C236.30998962 227.0844413 236.29199672 232.54164906 236.25 238.00390625 C236.24689819 238.72668762 236.24379639 239.44946899 236.24060059 240.19415283 C236.18731577 250.79812367 235.87396337 261.16683645 234 271.62890625 C233.87641113 272.36641113 233.75282227 273.10391602 233.62548828 273.86376953 C231.55971327 285.98047895 228.24915431 297.48415005 223 308.62890625 C219.90826248 310.17477501 217.40570448 309.92250146 214 309.62890625 C211.5 308.19140625 211.5 308.19140625 210 305.62890625 C209.88841514 298.93381436 212.06318811 292.90386402 214.11962891 286.60058594 C215.82857795 281.33787049 217.11919629 276.09777703 218 270.62890625 C216.69675781 271.04462891 216.69675781 271.04462891 215.3671875 271.46875 C214.21476563 271.83097656 213.06234375 272.19320313 211.875 272.56640625 C210.73804688 272.92605469 209.60109375 273.28570312 208.4296875 273.65625 C183.77051255 280.64956955 159.78896474 274.27724789 138 262.62890625 C129.78987664 258.34484479 122.15349737 257.75423872 113 258.62890625 C110.99182944 259.27054123 108.99034763 259.93395247 107 260.62890625 C105.68 260.62890625 104.36 260.62890625 103 260.62890625 C103.48726562 261.96695313 103.48726562 261.96695313 103.984375 263.33203125 C105.57285817 268.91698091 105.2893604 274.61916822 105.25 280.37890625 C105.26160156 282.05339844 105.26160156 282.05339844 105.2734375 283.76171875 C105.24962604 293.97683353 104.12089121 303.30641845 99.8125 312.62890625 C99.50425293 313.30969238 99.19600586 313.99047852 98.87841797 314.69189453 C91.16488156 331.31501646 79.40268124 344.02871517 64.1015625 353.953125 C60.96010322 356.45811762 60.13773255 358.57295666 59.625 362.50390625 C60.10458455 366.50044421 61.46739433 368.53349933 64 371.62890625 C66.77747653 373.33310232 68.84814377 373.87846775 72.08740234 373.87182617 C72.88278412 373.8749028 73.67816589 373.87797943 74.49765015 373.88114929 C75.35178497 373.87396378 76.2059198 373.86677826 77.0859375 373.859375 C77.97930817 373.85891678 78.87267883 373.85845856 79.79312134 373.85798645 C81.68777796 373.8549661 83.58243213 373.84708628 85.47705078 373.8347168 C88.32984574 373.81669155 91.18231079 373.81420578 94.03515625 373.81445312 C127.7689105 373.75192378 158.24670723 367.25920451 183.36425781 343.30273438 C188.07154769 338.48584192 192.01398737 333.04042509 196 327.62890625 C199.63061584 322.75465405 199.63061584 322.75465405 202.9375 321.62890625 C206.70121165 321.62890625 208.21630052 322.08380958 211 324.62890625 C212.09141543 328.70942341 212.37413255 330.83626964 210.55078125 334.69921875 C190.00118333 362.74421975 162.33067122 382.5791188 127.48925781 388.28540039 C115.6798213 389.91504703 103.75958799 389.87792929 91.86035156 389.92407227 C89.77955365 389.93566855 87.69878719 389.95623861 85.61816406 389.9855957 C82.57336731 390.02837581 79.52943524 390.04444401 76.484375 390.0546875 C75.56541443 390.07219559 74.64645386 390.08970367 73.699646 390.10774231 C64.65130459 390.0776033 57.39816144 386.91708536 50.796875 380.73828125 C45.7645093 374.83072152 43.11914556 367.79864329 43.5859375 360.03515625 C45.16092675 350.88238855 50.56126178 343.77897854 58.02734375 338.48046875 C59.14098158 337.73491302 60.25693083 336.99279994 61.375 336.25390625 C74.97354324 327.23024744 84.89422771 312.99931388 88.60888672 296.99169922 C91.75224264 278.00206213 88.70987154 259.63534324 78 243.62890625 C72.58151215 236.40564674 65.96369914 230.62128176 58.90234375 225.0390625 C38.39209251 208.00699653 38.39209251 208.00699653 36.375 197.31640625 C37.17578889 193.87301401 38.08223946 192.62526872 41 190.62890625 C44.56370967 190.02231737 46.31758374 190.22645563 49.4375 192.06640625 C52.29217852 194.92108477 54.62140435 197.98823488 57.05859375 201.19921875 C61.70971822 207.02014314 67.07482646 211.9902128 72.9375 216.56640625 C83.08109337 224.55880412 90.7397637 233.37862652 97 244.62890625 C97 245.28890625 97 245.94890625 97 246.62890625 C97.90878906 246.34015625 98.81757813 246.05140625 99.75390625 245.75390625 C117.89455244 240.39543845 132.48048638 242.309361 149.3125 250.56640625 C167.36053847 259.35209699 187.19403342 263.67358436 207 257.62890625 C208.78635497 257.00502239 210.56072165 256.3441459 212.3125 255.62890625 C213.13363281 255.29890625 213.95476562 254.96890625 214.80078125 254.62890625 C217.21200412 253.60351827 217.21200412 253.60351827 220 251.62890625 C220.4682993 248.80516569 220.4682993 248.80516569 220.3984375 245.46875 C220.40456055 244.20828857 220.41068359 242.94782715 220.41699219 241.64916992 C220.40474352 240.28823184 220.39071132 238.92730877 220.375 237.56640625 C220.37101196 236.88285065 220.36702393 236.19929504 220.36291504 235.49502563 C220.29002266 224.90055397 219.46538904 214.96006033 217 204.62890625 C216.72600815 203.26521155 216.45658619 201.90059185 216.19140625 200.53515625 C211.12260681 175.50832274 199.00711678 152.33312796 183 132.62890625 C181.98679687 131.33919922 181.98679687 131.33919922 180.953125 130.0234375 C168.3743847 114.83756512 149.59655168 103.48232827 129.921875 101.28515625 C105.04546629 100.10617953 77.97615662 112.06566088 56 122.62890625 C55.67 122.95890625 55.34 123.28890625 55 123.62890625 C61.37643762 125.26221507 67.38988992 125.81697053 73.9375 125.90234375 C75.15324707 125.91905121 75.15324707 125.91905121 76.39355469 125.93609619 C79.78224112 125.97498682 83.17066404 126.00200773 86.55957031 126.00976562 C99.26181749 126.05856412 109.59174959 126.51545415 119.25390625 135.73046875 C125.17591051 142.16915795 130 151.72484566 130 160.62890625 C130.845625 160.5825 131.69125 160.53609375 132.5625 160.48828125 C146.06327302 160.0587112 146.06327302 160.0587112 151 164.62890625 C154.35998462 169.71706652 156.17713856 174.70527166 157.75 180.56640625 C157.97042969 181.32630859 158.19085938 182.08621094 158.41796875 182.86914062 C160.11211473 189.03014977 161.06269913 194.72046652 158.8125 200.87890625 C156.46100791 204.44668735 153.81557843 206.72111704 150 208.62890625 C148.30630385 208.73968079 146.60835394 208.78807258 144.91113281 208.8059082 C143.84952942 208.81874344 142.78792603 208.83157867 141.69415283 208.84480286 C140.54211365 208.85218979 139.39007446 208.85957672 138.203125 208.8671875 C137.02159851 208.87525925 135.84007202 208.88333099 134.6227417 208.89164734 C132.11765006 208.90549795 129.61253948 208.91621571 127.10742188 208.92407227 C123.27958279 208.94127331 119.45260976 208.98515112 115.625 209.02929688 C113.19271469 209.03942455 110.76042203 209.04794042 108.328125 209.0546875 C106.61221161 209.08094963 106.61221161 209.08094963 104.8616333 209.10774231 C98.59611815 209.09067846 94.74524468 208.87796187 90 204.62890625 C88.5390625 202.953125 88.5390625 202.953125 87.625 201.31640625 C87.14933594 200.51783203 87.14933594 200.51783203 86.6640625 199.703125 C84.55382701 193.11174239 86.80766588 186.52122078 88.625 180.12890625 C88.97884766 178.76185547 88.97884766 178.76185547 89.33984375 177.3671875 C91.21112207 170.71695224 93.84294919 165.06593799 100.00146484 161.45556641 C102.80326281 160.29665022 105.23467037 160.43835561 108.25 160.50390625 C109.32765625 160.52195313 110.4053125 160.54 111.515625 160.55859375 C112.33546875 160.58179688 113.1553125 160.605 114 160.62890625 C113.29023761 158.53888253 112.55632889 156.45704974 111.8125 154.37890625 C111.40644531 153.21875 111.00039063 152.05859375 110.58203125 150.86328125 C108.84155797 147.30498032 107.28857381 145.7769638 104 143.62890625 C100.39105841 142.42592572 97.07392622 142.47358938 93.31640625 142.453125 C91.74241547 142.43329202 90.16844058 142.41216491 88.59448242 142.38989258 C87.77209076 142.3787442 86.9496991 142.36759583 86.10238647 142.35610962 C66.57277937 142.05082385 49.19838519 140.26918983 30.9921875 132.80078125 C28.22520223 131.50734814 28.22520223 131.50734814 26 131.62890625 C26.51582607 139.20758164 28.45796421 145.78366665 30.9375 152.94140625 C31.29779297 154.01197266 31.65808594 155.08253906 32.02929688 156.18554688 C33.7986869 161.57342335 33.7986869 161.57342335 36.09594727 166.74291992 C37.56095635 169.79914331 37.35594513 172.3067517 37 175.62890625 C35.4375 178.06640625 35.4375 178.06640625 33 179.62890625 C29.5 180.19140625 29.5 180.19140625 26 179.62890625 C22.9021451 176.37162702 21.22872025 173.23596822 19.74609375 169.0234375 C19.36646484 167.95673828 18.98683594 166.89003906 18.59570312 165.79101562 C18.21349609 164.68564453 17.83128906 163.58027344 17.4375 162.44140625 C16.85838867 160.81235352 16.85838867 160.81235352 16.26757812 159.15039062 C7.42645799 134.07293743 7.42645799 134.07293743 11.625 125.19140625 C12.305625 123.92296875 12.305625 123.92296875 13 122.62890625 C11.85726699 119.50208734 10.06271701 117.53016737 7.75 115.19140625 C3.10206738 110.02919299 0.63091055 103.99033394 -2 97.62890625 C-2.36480469 96.81808594 -2.72960937 96.00726563 -3.10546875 95.171875 C-5.09904813 89.50453799 -5.16855627 83.52325121 -5.26879883 77.56982422 C-5.2851236 76.79654785 -5.30144836 76.02327148 -5.31826782 75.2265625 C-5.36989677 72.69147565 -5.41435855 70.15634644 -5.45703125 67.62109375 C-5.47213934 66.75114902 -5.48724743 65.8812043 -5.50281334 64.98489761 C-5.58163721 60.38860672 -5.6542728 55.7922618 -5.72241211 51.19580078 C-5.79414147 46.45310415 -5.88915681 41.71116402 -5.98918629 36.96899223 C-6.06180148 33.31458519 -6.11645112 29.66006571 -6.16626549 26.00528336 C-6.19332915 24.25649215 -6.22727933 22.50779327 -6.26828957 20.75927353 C-6.32402837 18.31576817 -6.35416106 15.87319406 -6.37817383 13.42919922 C-6.40033463 12.71011383 -6.42249542 11.99102844 -6.44532776 11.25015259 C-6.45325265 7.63955056 -6.076578 5.74781697 -4.10136414 2.68069458 C-2 0.62890625 -2 0.62890625 0 0 Z " fill="#040303" transform="translate(159,-0.62890625)"/>
<path d="M0 0 C2.41842112 1.91241301 4.73598204 3.89627889 7.0390625 5.9453125 C8.06193359 6.77289063 8.06193359 6.77289063 9.10546875 7.6171875 C14.91196875 12.38965325 19.49124375 17.98556374 24.0390625 23.9453125 C24.75964844 24.88890625 25.48023438 25.8325 26.22265625 26.8046875 C38.76683918 44.06691428 47.49885092 63.46972105 52.7890625 84.0703125 C53.08756104 85.23252319 53.08756104 85.23252319 53.39208984 86.41821289 C56.35729587 98.65446007 57.47582828 110.94004095 57.6640625 123.5078125 C57.69322754 124.17176025 57.72239258 124.83570801 57.75244141 125.51977539 C58.23352792 136.55923275 58.23352792 136.55923275 55.35888672 139.89501953 C53.27741759 141.2257473 51.36294507 142.11965257 49.0390625 142.9453125 C48.30896973 143.2554126 47.57887695 143.5655127 46.82666016 143.88500977 C32.90165515 149.78456193 12.09099741 149.12542246 -1.93359375 143.79833984 C-7.18595998 141.58834856 -12.28736534 139.04105061 -17.40161133 136.53222656 C-31.87728139 129.48150282 -45.89374715 127.66319076 -61.5703125 132.2890625 C-63.9609375 132.9453125 -63.9609375 132.9453125 -66.9609375 132.9453125 C-68.3984375 130.7421875 -68.3984375 130.7421875 -69.9609375 127.6953125 C-75.94206886 116.99489184 -84.656854 108.82722485 -93.9609375 100.9453125 C-101.28826089 94.64518398 -108.10784556 88.48202928 -113.69921875 80.546875 C-114.8876294 78.80453393 -114.8876294 78.80453393 -116.9609375 77.9453125 C-118.5696875 78.22375 -118.5696875 78.22375 -120.2109375 78.5078125 C-123.9609375 77.9453125 -123.9609375 77.9453125 -125.7890625 75.86328125 C-130.09462049 68.99249595 -130.09462049 68.99249595 -129.6796875 65.7421875 C-128.9609375 63.9453125 -128.9609375 63.9453125 -127.9609375 61.9453125 C-127.44282385 55.92605095 -128.91300731 51.73282639 -131.2109375 46.3203125 C-131.85616539 44.73050232 -132.49807647 43.13934211 -133.13671875 41.546875 C-133.44947754 40.76860352 -133.76223633 39.99033203 -134.08447266 39.18847656 C-136.80794787 32.21820072 -139.24063072 25.50821709 -138.9609375 17.9453125 C-134.80981264 16.56160421 -132.14005577 18.18489065 -128.2734375 19.7578125 C-122.90964795 21.91041926 -117.63230449 23.75483242 -111.9609375 24.9453125 C-110.71993286 25.21770752 -110.71993286 25.21770752 -109.45385742 25.49560547 C-99.2360202 27.48366336 -88.93171711 27.32436387 -78.5625 27.40161133 C-76.11424542 27.4233005 -73.66674233 27.4626815 -71.21875 27.50390625 C-70.47803253 27.50402206 -69.73731506 27.50413788 -68.97415161 27.5042572 C-63.08408659 27.61624157 -58.96277727 28.94347273 -54.7734375 33.1328125 C-52.00629684 37.42665146 -49.9609375 41.78765123 -49.9609375 46.9453125 C-50.75757813 46.97109375 -51.55421875 46.996875 -52.375 47.0234375 C-60.86951033 47.47712699 -60.86951033 47.47712699 -67.9609375 51.9453125 C-71.59413249 56.25405201 -72.65909434 60.91456407 -74.1484375 66.2578125 C-74.42107422 67.18271484 -74.69371094 68.10761719 -74.97460938 69.06054688 C-77.38215588 77.4901061 -77.38215588 77.4901061 -76.26171875 86.0546875 C-73.92952101 89.92632012 -71.98942741 91.9688531 -67.9609375 93.9453125 C-65.32524895 94.39943141 -65.32524895 94.39943141 -62.53149414 94.34936523 C-61.47011734 94.36204941 -60.40874054 94.37473358 -59.31520081 94.38780212 C-57.61036781 94.38339867 -57.61036781 94.38339867 -55.87109375 94.37890625 C-54.10517128 94.38676903 -54.10517128 94.38676903 -52.30357361 94.39479065 C-49.81640409 94.40120781 -47.32920422 94.39987786 -44.84204102 94.39135742 C-41.04062744 94.38285097 -37.24071818 94.41161038 -33.43945312 94.44335938 C-31.02083378 94.44497159 -28.60221178 94.44439346 -26.18359375 94.44140625 C-25.04906265 94.45264023 -23.91453156 94.46387421 -22.74562073 94.47544861 C-16.52834423 94.42066009 -12.64161429 94.20351924 -7.9609375 89.9453125 C-4.84557789 85.3761184 -4.4887382 81.32501167 -4.9609375 75.9453125 C-5.65629417 72.31982334 -6.62383245 68.80259524 -7.6484375 65.2578125 C-7.89271484 64.33419922 -8.13699219 63.41058594 -8.38867188 62.45898438 C-9.92314759 57.06306849 -11.33960411 53.45808016 -15.9609375 49.9453125 C-19.82819932 47.88192894 -23.43051435 47.58351996 -27.7734375 47.3203125 C-28.93488281 47.24554688 -30.09632813 47.17078125 -31.29296875 47.09375 C-32.17339844 47.04476562 -33.05382812 46.99578125 -33.9609375 46.9453125 C-34.34765625 45.78773438 -34.734375 44.63015625 -35.1328125 43.4375 C-35.65839912 41.89828204 -36.18446636 40.35922814 -36.7109375 38.8203125 C-37.08992188 37.67949219 -37.08992188 37.67949219 -37.4765625 36.515625 C-39.68313265 30.11657157 -42.54786747 24.84511762 -47.6484375 20.2578125 C-48.25042969 19.69707031 -48.85242188 19.13632813 -49.47265625 18.55859375 C-58.74546508 12.54655286 -69.28282502 13.46038697 -79.8984375 13.3828125 C-103.15807941 13.16382015 -103.15807941 13.16382015 -108.9609375 10.9453125 C-109.2909375 10.2853125 -109.6209375 9.6253125 -109.9609375 8.9453125 C-34.66600264 -24.05582769 -34.66600264 -24.05582769 0 0 Z " fill="#F7F5F6" transform="translate(322.9609375,113.0546875)"/>
<path d="M0 0 C1.18722656 -0.05607422 1.18722656 -0.05607422 2.3984375 -0.11328125 C4.625 0.3125 4.625 0.3125 6.22143555 1.89794922 C8.10841181 5.14411294 8.14114037 7.61877587 8.30859375 11.37109375 C8.34182236 12.09985214 8.37505096 12.82861053 8.4092865 13.57945251 C8.86596519 25.16875697 8.72960764 36.77950796 8.6875 48.375 C8.68247229 50.80273345 8.67791165 53.23046791 8.67382812 55.65820312 C8.66292937 61.54299128 8.64629308 67.42774075 8.625 73.3125 C13.53840335 71.71248064 18.39683114 70.08074002 23.1640625 68.078125 C60.14312623 52.77120502 100.31287467 40.77709826 139.375 56.0625 C158.3049263 64.19565845 173.84887433 75.02619065 188.625 89.3125 C189.29015625 89.92609375 189.9553125 90.5396875 190.640625 91.171875 C225.2350556 123.82643099 243.98911139 178.5302734 246.53515625 224.91796875 C246.56480469 226.03816406 246.59445312 227.15835938 246.625 228.3125 C246.64546387 229.08029785 246.66592773 229.8480957 246.68701172 230.63916016 C247.34487602 259.57975267 243.50455229 288.01358656 233.625 315.3125 C233.18631592 316.53163086 233.18631592 316.53163086 232.73876953 317.77539062 C226.42097305 335.04648698 218.34323901 351.04516354 206.625 365.3125 C206.16867187 365.87420898 205.71234375 366.43591797 205.2421875 367.01464844 C184.64203254 392.25534633 157.91448615 409.837486 126.875 419.5625 C125.78880371 419.91380981 125.78880371 419.91380981 124.68066406 420.2722168 C102.02310781 427.00909573 78.26233557 425.77127943 54.89593506 425.81781006 C49.69603374 425.82932924 44.49645852 425.85277306 39.2966938 425.89250183 C36.8774193 425.90603973 34.4585886 425.90191492 32.03929138 425.89709473 C30.56777368 425.90642608 29.09626096 425.91659254 27.62475586 425.92773438 C25.700037 425.93081604 25.700037 425.93081604 23.73643494 425.93395996 C20.7189789 426.1023561 20.7189789 426.1023561 18.71156311 427.37844849 C17.03981182 430.35411835 17.21110746 433.31940343 17.24023438 436.64208984 C17.2348616 437.38552139 17.22948883 438.12895294 17.22395325 438.89491272 C17.21417126 440.50889868 17.21123238 442.12293725 17.21430969 443.73694992 C17.21878389 446.29279449 17.20479869 448.84794521 17.18591309 451.40371704 C17.14910316 456.8316333 17.13541985 462.2594773 17.125 467.6875 C17.11292127 473.97080107 17.09135877 480.25376509 17.04499817 486.53691483 C17.03143065 489.05244435 17.03559876 491.56754761 17.04040527 494.08309937 C17.03106265 495.63011211 17.02089333 497.17712016 17.00976562 498.72412109 C17.01591385 499.42143845 17.02206207 500.1187558 17.02839661 500.83720398 C16.96895355 505.55072098 16.01238098 508.92511902 12.625 512.3125 C5.4302405 512.90223439 5.4302405 512.90223439 2.52674866 510.77580261 C-0.05202915 507.43555568 0.05573537 504.52571675 0.09155273 500.47387695 C0.08293716 499.6879567 0.07432159 498.90203644 0.06544495 498.09230042 C0.04274974 495.4947918 0.04953335 492.89835973 0.05859375 490.30078125 C0.05335733 488.48959534 0.04708078 486.67841216 0.03981018 484.86723328 C0.02939762 481.06834094 0.03397604 477.26982291 0.04858398 473.47094727 C0.06571722 468.61980732 0.04234924 463.76985786 0.00709438 458.9188509 C-0.01495499 455.17567704 -0.01341904 451.43278426 -0.0051403 447.68956566 C-0.00432382 445.90232226 -0.01112897 444.11505759 -0.02591133 442.32787514 C-0.1530179 424.1683402 -0.1530179 424.1683402 5.625 417.3125 C7.79296875 415.15625 7.79296875 415.15625 9.8125 413.8125 C10.48667969 413.3484375 11.16085938 412.884375 11.85546875 412.40625 C15.46028238 410.17810913 17.85126657 410.17769244 22.11230469 410.15478516 C22.77951538 410.14970444 23.44672607 410.14462372 24.13415527 410.13938904 C25.58880034 410.12866953 27.04346206 410.12005557 28.4981308 410.11326981 C30.82315923 410.10142864 33.1480062 410.08194884 35.47296143 410.06015015 C42.08640175 409.99880872 48.69983492 409.94511375 55.31347656 409.91113281 C103.4870239 409.6495354 147.85346879 402.48408938 183.625 367.3125 C217.21961821 333.10287734 229.73380455 283.73125258 230 237.125 C230.00812714 236.28604187 230.01625427 235.44708374 230.02462769 234.58270264 C230.1460586 217.83916043 227.98649243 201.79176982 223.5625 185.625 C223.26722412 184.54049561 222.97194824 183.45599121 222.66772461 182.33862305 C214.26795402 152.75402662 199.35295398 125.0596154 178.625 102.3125 C177.91214844 101.51714844 177.19929687 100.72179687 176.46484375 99.90234375 C157.69785471 80.01284322 129.71259115 66.12061842 102.31616211 64.92895508 C75.26377521 64.31532709 47.31815605 74.54393342 23.30834961 86.21362305 C16.45758165 89.41820979 10.14928374 90.91931386 2.8203125 88.31640625 C1.79550781 87.60291016 1.79550781 87.60291016 0.75 86.875 C0.05132812 86.42253906 -0.64734375 85.97007813 -1.3671875 85.50390625 C-8.32737536 77.90728097 -8.02293504 68.46482561 -8.08984375 58.734375 C-8.11248873 57.23462017 -8.13640106 55.73488399 -8.16151428 54.23516846 C-8.20960026 51.10861415 -8.24423585 47.98229407 -8.26879883 44.85546875 C-8.3010609 40.85476806 -8.36445188 36.85528476 -8.43749142 32.8551445 C-8.49096138 29.76514078 -8.52941221 26.6750921 -8.56320381 23.58481598 C-8.58086291 22.10961394 -8.60283024 20.63445674 -8.62925529 19.15938568 C-8.6636316 17.09924197 -8.67808721 15.03988234 -8.68725586 12.97949219 C-8.69961777 11.80972839 -8.71197968 10.6399646 -8.72471619 9.43475342 C-8.05438472 3.45005845 -5.90942688 0.18168141 0 0 Z " fill="#010001" transform="translate(185.375,-0.3125)"/>
<path d="M0 0 C19.2366354 10.28625643 42.38430332 13.14025739 63.5625 7.44140625 C64.77808594 7.07015625 65.99367188 6.69890625 67.24609375 6.31640625 C70.125 5.44140625 70.125 5.44140625 73.125 5.44140625 C72.86507065 13.36925139 70.77877907 20.22361734 68.20849609 27.66333008 C66.0688089 33.90924331 66.0688089 33.90924331 66.125 40.44140625 C68.105 42.91640625 68.105 42.91640625 70.125 45.44140625 C68.145 49.40140625 66.165 53.36140625 64.125 57.44140625 C63.073125 57.33828125 62.02125 57.23515625 60.9375 57.12890625 C57.06310602 57.44647953 55.97703487 57.82392819 53.49609375 60.6953125 C53.04363281 61.27152344 52.59117187 61.84773438 52.125 62.44140625 C51.21427734 63.56869141 51.21427734 63.56869141 50.28515625 64.71875 C47.68563996 67.95691905 45.0884539 71.1965475 42.546875 74.48046875 C26.7442486 93.87460115 0.71231893 106.0402669 -23.86230469 108.77368164 C-33.73891332 109.59282818 -43.6401943 109.69430655 -53.54589844 109.73657227 C-55.44636404 109.74821647 -57.34679395 109.7688582 -59.24707031 109.7980957 C-62.02951681 109.84069388 -64.81101848 109.85691291 -67.59375 109.8671875 C-68.43756226 109.88469559 -69.28137451 109.90220367 -70.15075684 109.92024231 C-75.54673258 109.9003911 -78.59097822 109.02420391 -82.875 105.44140625 C-85.0383006 102.70122549 -85.79852448 100.95488474 -86.3125 97.50390625 C-85.56270613 92.25534919 -82.8471358 89.20289245 -78.73828125 85.984375 C-77.55960845 85.1918506 -76.37579374 84.40693099 -75.1875 83.62890625 C-57.9372433 71.73156196 -45.32722159 53.3172934 -41.3046875 32.48828125 C-40.55522513 26.84011526 -40.73087733 21.12721358 -40.75 15.44140625 C-40.74613281 14.2915625 -40.74226563 13.14171875 -40.73828125 11.95703125 C-40.74474314 6.34811039 -40.86366879 0.96359572 -41.875 -4.55859375 C-26.57406205 -10.60696452 -14.02034065 -7.60070098 0 0 Z " fill="#FDDF76" transform="translate(303.875,264.55859375)"/>
<path d="M0 0 C2.97 0 5.94 0 9 0 C9.00364563 0.8193956 9.00729126 1.6387912 9.01104736 2.48301697 C9.04904223 10.2358836 9.10602406 17.98827578 9.18390274 25.74083614 C9.22327536 29.7257588 9.25551344 33.71046387 9.27099609 37.69555664 C9.28623069 41.54729667 9.32079464 45.39843809 9.36830902 49.24991035 C9.38305323 50.71332128 9.39103699 52.1768177 9.39188385 53.64030266 C9.33825209 65.40882299 9.33825209 65.40882299 14 76 C18.6272209 80.31495708 22.82910031 81.55144055 29.07421875 81.42114258 C35.01076373 80.56662488 40.28741515 77.81289718 45.6875 75.3125 C48.18851485 74.19359397 50.69592474 73.08933752 53.203125 71.984375 C54.38841797 71.45908203 55.57371094 70.93378906 56.79492188 70.39257812 C69.35942468 64.93341268 82.66135814 61.9238924 96 59 C96.83966309 58.81018555 97.67932617 58.62037109 98.54443359 58.42480469 C124.49881902 52.82414788 149.98203273 61.1152963 172.06103516 74.74511719 C200.17999705 92.94348839 218.99398565 121.68687756 232 152 C232.2789209 152.63583008 232.5578418 153.27166016 232.84521484 153.92675781 C236.79129832 163.05557522 239.30707592 172.50084161 241.75 182.125 C242.04406738 183.28056396 242.33813477 184.43612793 242.64111328 185.62670898 C246.21032709 200.2022043 247.41316693 214.2467371 247.375 229.1875 C247.3737915 230.06505951 247.37258301 230.94261902 247.37133789 231.84677124 C247.19375838 279.58804765 232.72369847 327.17286763 199 362 C196.43787997 364.47396106 193.7626814 366.75326929 191 369 C189.59814453 370.15822266 189.59814453 370.15822266 188.16796875 371.33984375 C172.97781444 383.62261976 154.19988466 393.88776473 135 398 C134.01 397.67 133.02 397.34 132 397 C132.98097656 396.53851563 133.96195313 396.07703125 134.97265625 395.6015625 C178.1605974 374.89812058 201.92820899 340.70837444 218.21484375 296.71875 C223.78810894 280.0661022 227.20099658 261.59890418 227.09765625 244.03125 C227.0962413 243.11033569 227.09482635 242.18942139 227.09336853 241.24060059 C227.08781407 238.32703266 227.07527025 235.41354432 227.0625 232.5 C227.05747911 230.51302195 227.05291723 228.52604269 227.04882812 226.5390625 C227.0378596 221.69267812 227.02062683 216.84635251 227 212 C226.34 212.66 225.68 213.32 225 214 C224.91548584 213.36312256 224.83097168 212.72624512 224.74389648 212.07006836 C218.9121195 169.36099042 201.69005814 125.27783994 166.8125 97.75 C148.2933062 83.77962719 127.35238915 76.71184176 104.1015625 79.4609375 C83.19752578 83.06508176 63.4459431 90.76496766 44.29296875 99.71875 C35.39458534 103.64820301 24.70164702 105.83319196 15 104 C10.58807283 101.45273639 8.42747794 98.41835913 6 94 C5.47277344 93.05253906 4.94554687 92.10507813 4.40234375 91.12890625 C0.66792765 83.62886724 -0.15719652 76.55526601 -0.11352539 68.22875977 C-0.11367142 67.48646622 -0.11381744 66.74417267 -0.1139679 65.97938538 C-0.11327674 63.55002824 -0.10552203 61.12074983 -0.09765625 58.69140625 C-0.09578923 56.99747255 -0.09436667 55.30353831 -0.09336853 53.60960388 C-0.08956568 49.16926562 -0.07975462 44.7289605 -0.06866455 40.28863525 C-0.05840227 35.75037077 -0.05386062 31.21210089 -0.04882812 26.67382812 C-0.0381302 17.78253759 -0.0210808 8.89127156 0 0 Z " fill="#FB5BA5" transform="translate(169,7)"/>
<path d="M0 0 C0.99 -0.03287109 0.99 -0.03287109 2 -0.06640625 C5.18511937 0.93516449 6.20978371 2.8008095 8 5.5625 C8.34754736 8.21654259 8.46961208 10.43361037 8.390625 13.07373047 C8.38478394 13.81470474 8.37894287 14.55567902 8.3729248 15.31910706 C8.35772737 16.92767892 8.33328819 18.53618421 8.30065918 20.14449692 C8.24910804 22.72432485 8.2234049 25.30331635 8.20410156 27.88357544 C8.15086072 34.31508878 8.05593292 40.74584526 7.95849609 47.17681885 C7.60181908 71.06934404 8.14885264 93.94215325 12 117.5625 C12.39752446 120.20402113 12.78654479 122.8466446 13.17338562 125.48974609 C14.4324395 133.72085864 16.46031834 141.63869322 19 149.5625 C19.26941406 150.42617187 19.53882813 151.28984375 19.81640625 152.1796875 C31.2480324 188.70150612 47.97211548 222.98570291 79.75 246.0625 C84.67811594 249.83778882 87.88723795 254.22523306 91 259.5625 C91.76376953 260.85220703 91.76376953 260.85220703 92.54296875 262.16796875 C97.66320758 272.33673438 97.62830681 284.47542015 95.11328125 295.421875 C91.22314638 306.43315378 83.65879498 316.39602712 73.29296875 322.03515625 C70.56007578 323.31748496 67.81394898 324.47102888 65 325.5625 C63.906875 325.995625 62.81375 326.42875 61.6875 326.875 C46.66564873 329.67568413 35.34681612 325.52374218 22.43261719 318.43359375 C12.68783328 313.13740651 3.11642345 310.64446669 -7.92578125 313.25390625 C-18.66261573 316.80315029 -27.04513553 323.64363657 -32.3125 333.6875 C-36.36466502 341.92861197 -36.49789114 353.70481539 -33.875 362.4375 C-29.59432373 373.02028301 -21.59808386 380.7912422 -12.9375 387.9375 C-2.32197183 397.09392171 5.34361638 411.13163279 7.35546875 425.015625 C7.61510718 429.25404686 7.3551906 431.05060767 4.875 434.625 C1.48948071 436.90654561 -0.00343438 437.3277998 -4 436.5625 C-8.10112321 433.41078292 -8.87970978 430.25378009 -10 425.3125 C-13.07810987 412.73790138 -18.90714482 403.80471872 -28.828125 395.421875 C-41.22737489 384.80668984 -50.56271233 372.23503702 -52 355.5625 C-53.05361918 339.86100434 -48.97903963 326.23847263 -38.6875 314.3125 C-29.39997373 304.56137009 -17.86698446 296.73189522 -3.91015625 296.32421875 C12.87857702 295.9327716 24.83772189 300.52198627 39.30517578 308.6862793 C45.42051063 311.84789508 53.28221885 311.45989545 59.83203125 309.87890625 C68.99853323 306.48547003 73.96581035 301.64613397 78.0546875 292.83203125 C80.98786517 285.78998074 81.04201957 278.56525489 78.4375 271.375 C74.91411804 263.64785886 69.24450231 258.67140083 62.8125 253.3125 C17.81277886 215.81165588 -1.45036638 156.45508662 -7.28475952 99.79719543 C-8.1397154 89.81315227 -8.20052226 79.85289182 -8.23828125 69.83984375 C-8.24235678 68.9189905 -8.2464323 67.99813725 -8.25063133 67.04937935 C-8.27131521 62.19478722 -8.28570403 57.34022205 -8.29516602 52.4855957 C-8.30632396 47.47864749 -8.34087994 42.47213228 -8.38033772 37.46533871 C-8.40642093 33.60064347 -8.41484936 29.73605429 -8.41844749 25.87127876 C-8.42331801 24.02406376 -8.43494524 22.17685364 -8.45348549 20.32972527 C-8.47774859 17.75713419 -8.47693841 15.18570675 -8.4699707 12.61303711 C-8.48278076 11.85302902 -8.49559082 11.09302094 -8.50878906 10.3099823 C-8.4740152 6.79487201 -8.27338656 4.91676455 -6.09562683 2.09474182 C-3.83848033 0.44440302 -2.76516401 -0.00540071 0 0 Z " fill="#010001" transform="translate(132,-0.5625)"/>
<path d="M0 0 C2.97 0 5.94 0 9 0 C9.00364563 0.8193956 9.00729126 1.6387912 9.01104736 2.48301697 C9.04904223 10.2358836 9.10602406 17.98827578 9.18390274 25.74083614 C9.22327536 29.7257588 9.25551344 33.71046387 9.27099609 37.69555664 C9.28623069 41.54729667 9.32079464 45.39843809 9.36830902 49.24991035 C9.38305323 50.71332128 9.39103699 52.1768177 9.39188385 53.64030266 C9.33825209 65.40882299 9.33825209 65.40882299 14 76 C18.6272209 80.31495708 22.82910031 81.55144055 29.07421875 81.42114258 C35.01076373 80.56662488 40.28741515 77.81289718 45.6875 75.3125 C48.18851485 74.19359397 50.69592474 73.08933752 53.203125 71.984375 C54.38841797 71.45908203 55.57371094 70.93378906 56.79492188 70.39257812 C69.36083181 64.93280129 82.66141069 61.92902524 96 59 C96.83313721 58.80873535 97.66627441 58.6174707 98.5246582 58.42041016 C104.26508923 57.16631075 109.69330015 56.69193702 115.5625 56.75 C116.74102539 56.73839844 116.74102539 56.73839844 117.94335938 56.7265625 C127.49009133 56.75799207 134.64624538 58.79924143 142.6875 63.9375 C143.46641602 64.42694092 144.24533203 64.91638184 145.04785156 65.4206543 C174.6020858 84.30790285 194.13760066 110.64010602 209 142 C209.30147949 142.62422852 209.60295898 143.24845703 209.91357422 143.89160156 C218.64424467 162.09597826 227.07431461 184.58802247 226 205 C225.34 205 224.68 205 224 205 C223.79697266 203.66775391 223.79697266 203.66775391 223.58984375 202.30859375 C216.86354773 162.39386709 197.33302777 119.56922604 163.55078125 95.3515625 C144.28923165 82.24080577 123.51282993 76.11416725 100.25 80.125 C80.74990522 84.06773391 62.2731325 91.31324234 44.29296875 99.71875 C35.39458534 103.64820301 24.70164702 105.83319196 15 104 C10.58807283 101.45273639 8.42747794 98.41835913 6 94 C5.47277344 93.05253906 4.94554687 92.10507813 4.40234375 91.12890625 C0.66792765 83.62886724 -0.15719652 76.55526601 -0.11352539 68.22875977 C-0.11367142 67.48646622 -0.11381744 66.74417267 -0.1139679 65.97938538 C-0.11327674 63.55002824 -0.10552203 61.12074983 -0.09765625 58.69140625 C-0.09578923 56.99747255 -0.09436667 55.30353831 -0.09336853 53.60960388 C-0.08956568 49.16926562 -0.07975462 44.7289605 -0.06866455 40.28863525 C-0.05840227 35.75037077 -0.05386062 31.21210089 -0.04882812 26.67382812 C-0.0381302 17.78253759 -0.0210808 8.89127156 0 0 Z " fill="#FB78B3" transform="translate(169,7)"/>
<path d="M0 0 C20.29036052 -0.81041381 36.8639517 5.53357005 52 19 C53.02287109 19.82757813 53.02287109 19.82757813 54.06640625 20.671875 C59.87290625 25.44434075 64.45218125 31.04025124 69 37 C69.72058594 37.94359375 70.44117188 38.8871875 71.18359375 39.859375 C83.72777668 57.12160178 92.45978842 76.52440855 97.75 97.125 C97.94899902 97.89980713 98.14799805 98.67461426 98.35302734 99.47290039 C101.31823337 111.70914757 102.43676578 123.99472845 102.625 136.5625 C102.65416504 137.22644775 102.68333008 137.89039551 102.71337891 138.57446289 C103.19430403 149.61021688 103.19430403 149.61021688 100.32641602 152.94750977 C98.24221919 154.2815414 96.32804326 155.17329737 94 156 C93.27723877 156.3098584 92.55447754 156.6197168 91.80981445 156.93896484 C88.77275531 158.18900483 86.30255037 159 83 159 C83.01571045 158.18660156 83.0314209 157.37320313 83.04760742 156.53515625 C83.90750008 104.92708378 72.45798953 56.68130547 35.75 18.375 C27.59745772 10.36044152 17.97528338 2.078517 6.25 1.375 C4.49429687 1.26285156 4.49429687 1.26285156 2.703125 1.1484375 C1.81109375 1.09945312 0.9190625 1.05046875 0 1 C0 0.67 0 0.34 0 0 Z " fill="#E2EAF5" transform="translate(278,100)"/>
<path d="M0 0 C-0.25992935 7.92784514 -2.34622093 14.78221109 -4.91650391 22.22192383 C-7.0561911 28.46783706 -7.0561911 28.46783706 -7 35 C-5.68 36.65 -4.36 38.3 -3 40 C-4.98 43.96 -6.96 47.92 -9 52 C-10.5778125 51.8453125 -10.5778125 51.8453125 -12.1875 51.6875 C-16.06189398 52.00507328 -17.14796513 52.38252194 -19.62890625 55.25390625 C-20.08136719 55.83011719 -20.53382813 56.40632813 -21 57 C-21.60714844 57.75152344 -22.21429688 58.50304687 -22.83984375 59.27734375 C-25.43936004 62.5155128 -28.0365461 65.75514125 -30.578125 69.0390625 C-43.279581 84.62721304 -62.01326044 94.4367378 -81 100 C-81.99 100 -82.98 100 -84 100 C-84 99.34 -84 98.68 -84 98 C-83.31035156 97.64808594 -82.62070312 97.29617188 -81.91015625 96.93359375 C-50.82686655 80.60314114 -33.03345507 52.17412138 -22.85058594 19.53027344 C-21.31371907 14.40510703 -20.09649733 9.23590958 -19 4 C-16.39688008 3.32900016 -13.79264602 2.66304662 -11.1875 2 C-10.44951172 1.80921875 -9.71152344 1.6184375 -8.95117188 1.421875 C-5.89464659 0.64737086 -3.16626522 0 0 0 Z " fill="#FCCE5A" transform="translate(377,270)"/>
<path d="M0 0 C4.01614687 0.73765963 5.34970343 1.4576338 8.0625 4.5625 C8.88828406 8.48076367 8.87951554 12.37728992 8.91015625 16.37109375 C8.93476425 17.52996597 8.95937225 18.6888382 8.98472595 19.88282776 C9.03066714 22.33290431 9.06433947 24.7832371 9.08666992 27.23364258 C9.12483059 30.9833532 9.21090544 34.72977793 9.30273438 38.47851562 C9.34141644 40.85933003 9.37731658 43.24019159 9.41015625 45.62109375 C9.4369899 46.74204941 9.46382355 47.86300507 9.49147034 49.01792908 C9.52248698 56.78474366 9.52248698 56.78474366 7.16577148 60.76953125 C4.89880502 62.70204451 4.00090373 63.22256419 1.0625 63.125 C0.4025 63.12628906 -0.2575 63.12757813 -0.9375 63.12890625 C-3.82698768 62.31059431 -5.0312561 60.85327142 -6.9375 58.5625 C-7.44543457 56.1030426 -7.44543457 56.1030426 -7.45507812 53.32250977 C-7.46768677 52.27785049 -7.48029541 51.23319122 -7.49328613 50.15687561 C-7.48518921 49.03389572 -7.47709229 47.91091583 -7.46875 46.75390625 C-7.4725769 45.59503403 -7.47640381 44.4361618 -7.48034668 43.24217224 C-7.48306813 40.7918918 -7.47569082 38.34158242 -7.45898438 35.89135742 C-7.43759929 32.1424061 -7.45877017 28.39537561 -7.484375 24.64648438 C-7.48173139 22.26562077 -7.47660572 19.88475836 -7.46875 17.50390625 C-7.47684692 16.38295059 -7.48494385 15.26199493 -7.49328613 14.10707092 C-7.40013172 6.36569364 -7.40013172 6.36569364 -5.08789062 2.35131836 C-2.9375 0.5625 -2.9375 0.5625 0 0 Z " fill="#000000" transform="translate(130.9375,449.4375)"/>
<path d="M0 0 C11.22 0 22.44 0 34 0 C37 9 37 9 39 18 C24.81 18 10.62 18 -4 18 C-2 6 -2 6 0 0 Z " fill="#61C5F9" transform="translate(265,175)"/>
<path d="M0 0 C3.5890076 3.76525351 5.62649287 7.8205038 7.1875 12.75 C7 16 7 16 4.9375 18.9375 C2 21 2 21 -1 21.6875 C-6.24058216 20.48653326 -8.15633326 16.32174456 -10.875 12.0625 C-12.2931566 8.2019626 -12.11490408 5.93932774 -11 2 C-7.80737815 -1.92938074 -4.55996415 -1.57240143 0 0 Z " fill="#070707" transform="translate(308,215)"/>
<path d="M0 0 C3.5 0.8125 3.5 0.8125 5.4375 1.9375 C7.22639063 5.09436582 6.96227151 7.2298958 6.5 10.8125 C4.53008095 15.42407295 2.71664956 19.00140029 -1.5 21.8125 C-5.0772533 22.26917063 -6.83458305 22.25027431 -9.875 20.25 C-12.1937848 16.7718228 -12.11012419 14.94778616 -11.5 10.8125 C-6.70173983 -0.35902178 -6.70173983 -0.35902178 0 0 Z " fill="#060606" transform="translate(267.5,214.1875)"/>
<path d="M0 0 C0.33 0 0.66 0 1 0 C1.07521336 5.95496994 1.12909431 11.90965209 1.16479492 17.86499023 C1.17970709 19.88294299 1.20004401 21.90086437 1.22631836 23.91870117 C1.38757188 36.63875824 0.77813378 48.56469317 -2 61 C-3.485 61.495 -3.485 61.495 -5 62 C-4.86722656 61.20078125 -4.73445313 60.4015625 -4.59765625 59.578125 C-4.42105469 58.47984375 -4.24445313 57.3815625 -4.0625 56.25 C-3.88847656 55.18265625 -3.71445312 54.1153125 -3.53515625 53.015625 C-1.81032084 40.8913249 -1.71053133 28.66569083 -1.44775391 16.4453125 C-1.3961938 14.10665944 -1.3389917 11.76819482 -1.28125 9.4296875 C-1.26767456 8.71207245 -1.25409912 7.9944574 -1.2401123 7.25509644 C-1.11308644 2.22617287 -1.11308644 2.22617287 0 0 Z " fill="#F272AC" transform="translate(396,217)"/>
<path d="M0 0 C0.33 0 0.66 0 1 0 C1.05395478 1.62463842 1.09277195 3.24978541 1.125 4.875 C1.14820313 5.77992188 1.17140625 6.68484375 1.1953125 7.6171875 C1 10 1 10 -1 12 C-1.33 9.03 -1.66 6.06 -2 3 C-1.34 3 -0.68 3 0 3 C0 2.01 0 1.02 0 0 Z " fill="#E26AA1" transform="translate(395,209)"/>
</svg>
