<?xml version="1.0" encoding="UTF-8"?>
<svg version="1.1" xmlns="http://www.w3.org/2000/svg" width="512" height="512">
<path d="M0 0 C1.58377945 0.01122391 1.58377945 0.01122391 3.19955444 0.02267456 C32.13209544 0.23668676 59.98065982 3.93560133 88.45703125 8.72265625 C97.33058798 10.21286612 106.21188409 11.57927972 115.125 12.8125 C116.22473145 12.96775146 117.32446289 13.12300293 118.45751953 13.28295898 C126.22592652 14.33649584 133.9893435 14.95588139 141.8125 15.4375 C142.72555908 15.4988916 143.63861816 15.5602832 144.5793457 15.62353516 C197.47056731 18.98029339 251.44183517 14.89973472 304.09008789 9.70776367 C342.25098361 5.99599593 342.25098361 5.99599593 358.47265625 17.4609375 C366.20585448 23.99348892 370.13649255 31.3060975 371.08984375 41.36328125 C371.87404528 66.55183428 361.97238034 89.99867476 344.9375 108.25 C342.59702996 110.68186521 340.21585918 113.06792298 337.8125 115.4375 C337.06661621 116.18507568 337.06661621 116.18507568 336.30566406 116.94775391 C293.51477839 159.51837078 230.1599634 178.77226106 174.87133789 198.85180664 C159.29036707 204.50716787 159.29036707 204.50716787 143.8125 210.4375 C143.8125 211.0975 143.8125 211.7575 143.8125 212.4375 C144.42738281 212.64246094 145.04226563 212.84742188 145.67578125 213.05859375 C150.74414062 214.74804688 150.74414062 214.74804688 155.8125 216.4375 C157.60714384 215.12747167 157.60714384 215.12747167 159.375 213.25 C165.85471464 207.32602731 173.13291183 204.94513905 181.8203125 204.29296875 C185.39419218 204.4655974 188.49416028 205.3535484 191.9375 206.3125 C196.74641575 207.58153086 196.74641575 207.58153086 201.31640625 206.22265625 C202.7898657 204.97588287 204.23011811 203.68892924 205.63671875 202.3671875 C212.69254511 196.10941691 220.81906024 196.30231386 229.66699219 196.65014648 C235.38629599 196.74864417 238.64656843 195.62901998 242.953125 191.9453125 C248.32615159 187.5881943 255.16896233 187.57941803 261.8125 187.4375 C263.029375 187.705625 264.24625 187.97375 265.5 188.25 C270.04111659 188.50704434 271.92786491 186.59325767 275.5234375 184.0078125 C281.95720464 179.59420432 287.75662202 179.35832195 295.3125 179.625 C301.86596724 179.83913788 305.55432101 179.23572811 310.77734375 174.96875 C315.59357798 171.34501906 321.54582739 170.42385464 327.4375 170.3125 C330.45242306 170.06520265 331.52142924 169.71790014 333.73046875 167.58984375 C335.01803752 165.99962994 336.29772779 164.4030114 337.5703125 162.80078125 C343.10512878 156.96704632 351.22602061 153.92573013 359.13671875 153.234375 C369.36181574 153.03156316 377.95389519 155.77050705 385.8125 162.4375 C388.16929765 164.92552247 390.02681277 167.51744002 391.8125 170.4375 C392.22628906 171.06914062 392.64007813 171.70078125 393.06640625 172.3515625 C397.46746646 180.29493946 397.15149027 190.9380757 395.046875 199.58203125 C393.66936023 203.22807234 392.33310525 205.87216267 389.67578125 208.7578125 C387.23260472 212.27147937 387.49835714 214.33313396 387.75 218.5625 C388.08033539 229.50086379 385.89314663 237.26435978 379.12890625 245.984375 C374.19907531 251.20517404 367.79883281 254.7668552 360.8125 256.4375 C360.17570312 256.40785156 359.53890625 256.37820313 358.8828125 256.34765625 C356.46662805 256.3066267 355.01070369 256.39368497 352.8125 257.4375 C350.97202413 260.29946248 349.66909625 263.24534682 348.29296875 266.35546875 C344.47279903 274.30827589 337.78323806 278.20648055 329.8125 281.4375 C326.19056977 282.64228432 322.67433553 282.60472606 318.875 282.625 C317.66972656 282.63917969 316.46445312 282.65335937 315.22265625 282.66796875 C311.95230938 282.44694874 309.74433485 281.84500326 306.8125 280.4375 C306.4721875 281.5203125 306.4721875 281.5203125 306.125 282.625 C304.52848057 286.04611306 302.60216959 287.90143673 299.8125 290.4375 C298.513125 291.7059375 298.513125 291.7059375 297.1875 293 C289.21283607 299.41219797 279.68033683 300.23582632 269.8125 299.4375 C268.13977327 299.13604654 266.47002723 298.8136547 264.8125 298.4375 C264.41160156 299.01757812 264.01070313 299.59765625 263.59765625 300.1953125 C259.83445377 305.3665159 256.20986946 308.93581896 250.73046875 312.24609375 C248.67815853 313.42014881 248.67815853 313.42014881 246.8125 315.4375 C247.23660156 315.91316406 247.66070312 316.38882812 248.09765625 316.87890625 C256.03003377 326.34545789 260.45237049 337.123598 263.625 348.9375 C263.91721436 350.0200708 263.91721436 350.0200708 264.21533203 351.12451172 C267.33229315 363.60608728 268.12153882 376.12478347 268.078125 388.94140625 C268.07948064 390.39509648 268.08142851 391.84878626 268.08392334 393.30247498 C268.08684659 396.33540199 268.08267798 399.36821006 268.07324219 402.40112305 C268.06200084 406.18905652 268.0685351 409.97670437 268.08010101 413.76462746 C268.11923312 428.79149584 267.9177849 443.77657726 266.984375 458.77734375 C266.91526917 459.954142 266.84616333 461.13094025 266.77496338 462.34339905 C265.55864539 479.57033124 262.43030844 492.32106143 249.8125 504.4375 C247.27430686 506.47192962 244.73893068 508.02592755 241.8125 509.4375 C241.19632812 509.75460937 240.58015625 510.07171875 239.9453125 510.3984375 C230.85884657 514.25223044 218.07869777 513.93733316 208.8125 510.875 C197.63045564 505.96999281 189.2081695 498.59737818 184.4375 487.25 C180.87348509 477.30426609 181.39562418 467.21777998 182.58984375 456.83984375 C182.94289935 453.0305597 182.87416312 449.2606135 182.8125 445.4375 C182.255625 446.25992187 181.69875 447.08234375 181.125 447.9296875 C160.82904776 477.71203509 135.63955771 502.43242509 99.8125 511.4375 C81.96434095 514.38137646 61.38349426 513.76796111 43.8125 509.4375 C42.6052124 509.15543701 42.6052124 509.15543701 41.37353516 508.86767578 C9.03612303 501.15309483 -20.38280716 483.06176056 -38.36572266 454.57080078 C-59.79187841 419.460862 -65.87008194 379.99336852 -65.1875 339.4375 C-66.10789063 339.75460937 -67.02828125 340.07171875 -67.9765625 340.3984375 C-76.88048806 343.27975648 -86.30033682 343.35591908 -95.1875 340.4375 C-101.199921 337.14768473 -105.10291864 333.01194891 -107.1875 326.4375 C-107.97465372 322.38032959 -108.3185121 318.51969369 -108.36328125 314.390625 C-108.39494385 312.57401367 -108.39494385 312.57401367 -108.42724609 310.72070312 C-108.43842468 310.06851807 -108.44960327 309.41633301 -108.46112061 308.74438477 C-108.75067083 293.42595066 -109.80078482 278.20363106 -111.0625 262.9375 C-111.24036144 260.75399135 -111.41817697 258.57047896 -111.59594727 256.38696289 C-112.32058355 247.55263219 -113.05725016 238.72053394 -113.89556885 229.89619446 C-115.98566254 207.70283589 -116.50341714 185.56837615 -116.55586243 163.28989029 C-116.56238258 161.04050764 -116.57382655 158.79119625 -116.58630371 156.5418396 C-116.71254537 130.31406847 -114.94218931 104.89945243 -108.1875 79.4375 C-107.99430176 78.69822266 -107.80110352 77.95894531 -107.60205078 77.19726562 C-100.9489529 52.32694279 -86.150906 27.89308847 -63.6875 14.375 C-43.35461302 2.82372347 -23.08225927 -0.28049893 0 0 Z " fill="#438EFE" transform="translate(116.1875,-0.4375)"/>
<path d="M0 0 C1.20467422 -0.01475876 1.20467422 -0.01475876 2.4336853 -0.02981567 C33.83047486 -0.33296124 63.73115867 3.19943729 94.59838867 8.65698242 C105.54542081 10.58445713 116.48871345 12.27305395 127.5234375 13.61328125 C128.7714917 13.76861328 130.0195459 13.92394531 131.30541992 14.08398438 C150.83055734 16.3564909 170.39417019 16.40083023 190.02539062 16.36865234 C193.48924391 16.36300037 196.95301958 16.36631946 200.41687012 16.37208939 C214.34459598 16.39177108 228.25888705 16.27525492 242.1796875 15.79296875 C243.88167297 15.73485519 243.88167297 15.73485519 245.61804199 15.67556763 C251.69718266 15.43990419 257.67144709 14.96312413 263.7109375 14.23828125 C265.76903265 14.12848826 267.82448659 14.06001461 269.88452148 13.99780273 C280.78843226 13.66023807 291.58280235 12.58261758 302.42642212 11.4564209 C348.96757029 6.65803087 348.96757029 6.65803087 359.7109375 14.23828125 C365.69158752 21.04205209 365.2465023 27.34090191 364.88134766 36.00927734 C363.66325077 51.94226384 354.39005133 67.79868507 343.7109375 79.23828125 C343.22947266 79.76599121 342.74800781 80.29370117 342.25195312 80.83740234 C323.60699791 101.12578052 299.51765376 115.48818866 274.79833984 127.23730469 C272.53527219 128.32251842 270.28935872 129.43928842 268.04296875 130.55859375 C249.78806746 139.56472566 230.8074698 146.95438304 211.54711914 153.51831055 C206.29423707 155.31196447 201.08228434 157.20184283 195.8828125 159.14453125 C195.19939789 159.39900024 194.51598328 159.65346924 193.81185913 159.91564941 C189.67170398 161.45728758 189.67170398 161.45728758 185.53717041 163.01391602 C183.61573298 163.74117127 181.69107895 164.45924137 179.765625 165.17578125 C178.64655762 165.59730469 177.52749023 166.01882812 176.37451172 166.453125 C173.7109375 167.23828125 173.7109375 167.23828125 171.7109375 166.23828125 C172.34 165.54605469 172.9690625 164.85382813 173.6171875 164.140625 C184.49072037 151.71139089 192.38459056 137.95025268 193.7109375 121.23828125 C200.1408989 119.34711613 205.88890264 118.16572799 212.5859375 117.86328125 C242.30852596 116.12477644 272.68304505 104.52277095 294.16015625 83.68359375 C296.7109375 81.23828125 296.7109375 81.23828125 299.35546875 79.12890625 C301.42361895 77.46889846 303.02300859 75.89063064 304.7109375 73.86328125 C306.04333619 72.32080674 307.37683218 70.77927991 308.7109375 69.23828125 C309.15969238 68.71878906 309.60844727 68.19929688 310.07080078 67.6640625 C319.66309778 56.65826326 329.84643759 47.79535546 343.0390625 41.2734375 C345.04006442 40.1946305 345.04006442 40.1946305 346.7109375 37.23828125 C346.84965109 35.24109318 346.84965109 35.24109318 346.5234375 33.17578125 C346.44738281 32.48355469 346.37132812 31.79132812 346.29296875 31.078125 C345.7972918 28.84374325 345.7972918 28.84374325 342.7109375 27.23828125 C331.25526134 26.18208416 321.17698143 34.88075005 312.65234375 41.7578125 C305.39742514 47.87583816 299.10290431 54.86319779 293.10546875 62.203125 C288.25784904 68.01796574 282.66008703 72.58424152 276.7109375 77.23828125 C275.875625 77.90472656 275.0403125 78.57117188 274.1796875 79.2578125 C264.09909539 87.23828125 264.09909539 87.23828125 260.7109375 87.23828125 C260.8759375 86.20703125 261.0409375 85.17578125 261.2109375 84.11328125 C261.6957802 80.07533755 261.90886954 76.05332211 262.0234375 71.98828125 C262.06082031 70.8075 262.09820312 69.62671875 262.13671875 68.41015625 C261.96389251 65.16985206 261.96389251 65.16985206 259.9140625 62.8359375 C256.78406984 60.56613786 254.48539486 60.89514876 250.7109375 61.23828125 C249.2259375 61.73328125 249.2259375 61.73328125 247.7109375 62.23828125 C246.6969859 65.28013606 246.42895356 68.06331518 246.16943359 71.24365234 C244.49795843 90.24053518 244.49795843 90.24053518 239.7109375 96.23828125 C234.59820995 98.92080324 229.3586428 99.54340378 223.7109375 100.23828125 C221.58983587 100.53249531 219.46874263 100.82676977 217.34765625 101.12109375 C199.630178 103.46294055 199.630178 103.46294055 191.7109375 103.23828125 C191.43121094 102.60921875 191.15148437 101.98015625 190.86328125 101.33203125 C185.51253298 89.90792562 179.49167111 84.04030102 167.7109375 79.23828125 C158.32068014 76.24637583 148.43198479 78.37624528 139.7734375 82.42578125 C130.71702477 87.16234067 123.813194 93.97143583 116.7734375 101.23828125 C111.12848084 103.97522994 102.91399407 100.38218232 97.32421875 98.58984375 C87.58294754 94.94608176 78.53906412 89.75111397 69.5234375 84.61328125 C62.7460003 80.75849599 55.94685134 77.17731292 48.7109375 74.23828125 C47.70804688 73.82449219 46.70515625 73.41070312 45.671875 72.984375 C20.9701296 64.35979966 -9.72011279 71.19295981 -32.68164062 82.15917969 C-35.92865044 83.77338084 -39.11537156 85.48511168 -42.2890625 87.23828125 C-43.35511719 87.81578125 -44.42117187 88.39328125 -45.51953125 88.98828125 C-52.67357356 93.15905895 -56.61404285 97.88824195 -60.2890625 105.23828125 C-60.98659379 113.2084339 -60.95800618 120.49425149 -56.2890625 127.23828125 C-41.66516218 144.01803911 -14.47534478 153.44587685 6.5859375 158.55078125 C7.56518188 158.79006348 7.56518188 158.79006348 8.56420898 159.03417969 C27.88570796 163.41433184 50.57431514 163.26928516 69.7109375 158.23828125 C70.57460937 158.04492188 71.43828125 157.8515625 72.328125 157.65234375 C83.46782125 154.84002699 95.048683 148.74678938 103.7109375 141.23828125 C104.49597656 140.60664063 105.28101563 139.975 106.08984375 139.32421875 C113.38418518 133.19919923 119.65038081 125.73037119 123.7421875 117.05078125 C124.92264549 114.84218242 126.28675473 113.64769523 128.2109375 112.05078125 C131.47436077 109.30761387 134.60198354 106.46782447 137.7109375 103.55078125 C143.74798075 98.09886681 149.8025054 94.60872896 158.0234375 93.98828125 C163.77230001 94.37803464 167.37628277 95.90362652 171.4609375 99.98828125 C175.68935755 106.09599909 177.2770039 111.10579145 177.2109375 118.42578125 C177.20521729 119.16900635 177.19949707 119.91223145 177.19360352 120.67797852 C176.57620331 139.9504273 160.91052979 154.16674592 148.06640625 166.8515625 C145.33030583 169.62396276 142.78188313 172.51869903 140.25 175.4765625 C138.17669694 177.84981041 135.97260011 180.04515387 133.7109375 182.23828125 C133.09089844 182.068125 132.47085938 181.89796875 131.83203125 181.72265625 C129.91265959 181.19741335 127.99192564 180.67713847 126.0703125 180.16015625 C123.84464986 179.54939301 121.62553552 178.91420388 119.4140625 178.25390625 C101.91520551 173.1986809 84.53534674 171.95076576 66.3984375 171.86328125 C65.59977264 171.85542603 64.80110779 171.8475708 63.97824097 171.83947754 C36.90426672 171.63230447 9.41356521 177.93483657 -11.2890625 196.23828125 C-11.88589844 196.69332031 -12.48273438 197.14835938 -13.09765625 197.6171875 C-34.12039392 213.88189216 -45.1286845 246.00148474 -48.56451416 271.2635498 C-48.81964905 273.41767674 -49.05351173 275.57287116 -49.27734375 277.73046875 C-49.35447098 278.45169418 -49.43159821 279.17291962 -49.51106262 279.91600037 C-49.88575602 283.4879875 -50.21206434 287.05556639 -50.46899414 290.63793945 C-51.37598738 300.21188834 -51.37598738 300.21188834 -54.06347656 303.23291016 C-59.23360767 306.58906521 -64.33006469 307.38841026 -70.4140625 307.42578125 C-71.46851562 307.43996094 -72.52296875 307.45414062 -73.609375 307.46875 C-76.2890625 307.23828125 -76.2890625 307.23828125 -78.2890625 305.23828125 C-78.5232566 302.68007403 -78.63856546 300.22237776 -78.66796875 297.66015625 C-78.68496323 296.89713196 -78.7019577 296.13410767 -78.71946716 295.34796143 C-78.77266402 292.89482029 -78.81279153 290.44168926 -78.8515625 287.98828125 C-79.09006672 274.67869319 -79.09006672 274.67869319 -79.62890625 261.37890625 C-79.70999634 259.77063965 -79.70999634 259.77063965 -79.79272461 258.12988281 C-80.40181964 254.58137248 -81.71967029 251.80767346 -84.2890625 249.23828125 C-89.51231469 248.66545866 -89.51231469 248.66545866 -94.1015625 250.55078125 C-94.4934375 251.10765625 -94.8853125 251.66453125 -95.2890625 252.23828125 C-96.27918667 253.24806049 -97.27804423 254.24942228 -98.2890625 255.23828125 C-98.94343395 247.5018117 -99.59555332 239.76515589 -100.24481964 232.02825642 C-100.54638862 228.43549168 -100.84872508 224.84279501 -101.15283203 221.25024414 C-101.44642925 217.78151029 -101.73798883 214.31261058 -102.02815247 210.84358788 C-102.19293924 208.87984436 -102.35982105 206.91627701 -102.5267334 204.95271301 C-102.62683716 203.75184555 -102.72694092 202.55097809 -102.83007812 201.3137207 C-102.91890259 200.25893021 -103.00772705 199.20413971 -103.09924316 198.11738586 C-103.27313454 195.47987032 -103.32480903 192.88038735 -103.2890625 190.23828125 C-102.5878125 191.04265625 -101.8865625 191.84703125 -101.1640625 192.67578125 C-97.98155224 195.51236648 -96.49820326 196.14872506 -92.2890625 196.23828125 C-89.53951922 195.2722255 -88.59898493 194.85812611 -87.2890625 192.23828125 C-87.20710143 189.91355675 -87.19254354 187.58637613 -87.20727539 185.26025391 C-87.21034195 184.54106277 -87.21340851 183.82187164 -87.21656799 183.08088684 C-87.22373548 181.51326014 -87.23313187 179.94564245 -87.24446297 178.37804031 C-87.26189391 175.87721408 -87.27217008 173.37645235 -87.28038025 170.87557983 C-87.30476257 163.76204297 -87.3396971 156.64859043 -87.38500977 149.53515625 C-87.61918955 111.45423184 -87.61918955 111.45423184 -85.2890625 95.23828125 C-85.08434108 93.70370667 -84.88033247 92.16903684 -84.67700195 90.63427734 C-80.77699794 62.0364879 -70.46128122 33.74479117 -47.2890625 15.23828125 C-33.49576002 5.74735267 -16.70469077 0.16857144 0 0 Z " fill="#E2E6F2" transform="translate(104.2890625,16.76171875)"/>
<path d="M0 0 C0.69659729 -0.00295074 1.39319458 -0.00590149 2.11090088 -0.00894165 C18.44708164 -0.02455318 38.01039696 0.31521088 53.0625 7.3125 C54.0625 10.3125 54.0625 10.3125 52.4375 13.75 C49.06487261 18.26573079 44.54755824 18.90421094 39.3046875 20.27734375 C33.85593919 22.01700435 30.04690779 25.32809221 26.0625 29.3125 C19.97554348 28.76902174 19.97554348 28.76902174 17.0625 27.3125 C4.18548209 26.10925448 4.18548209 26.10925448 -7.0859375 31.48828125 C-7.69695312 32.09027344 -8.30796875 32.69226563 -8.9375 33.3125 C-9.56914062 33.90417969 -10.20078125 34.49585938 -10.8515625 35.10546875 C-16.63175589 41.0701364 -19.5396347 48.31859915 -22.25 56.0625 C-23.89774362 59.23593216 -25.00894979 60.4091552 -27.6875 62.625 C-42.74556507 75.09065094 -47.47670755 95.75459988 -49.9375 114.3125 C-50.20816717 118.23705089 -50.26471383 122.14505031 -50.2734375 126.078125 C-50.2800943 127.15519714 -50.2867511 128.23226929 -50.29360962 129.34197998 C-50.30365925 131.60410881 -50.30842905 133.86626684 -50.30810547 136.12841797 C-50.31247191 139.54054954 -50.34885788 142.95137805 -50.38671875 146.36328125 C-50.46751777 161.74775114 -49.56606179 175.97365546 -42.125 189.8125 C-41.77735596 190.47628662 -41.42971191 191.14007324 -41.0715332 191.82397461 C-33.03632644 206.70622473 -19.84407899 213.34364034 -4.1875 218.5625 C4.26880435 220.51395485 12.66897436 220.52718427 21.3125 220.5625 C22.55902344 220.583125 23.80554688 220.60375 25.08984375 220.625 C44.87601928 220.70770084 59.57290829 213.52142992 73.62109375 199.81640625 C83.61908648 189.31929376 90.7111365 177.02876337 97.9375 164.5625 C100.30864052 160.47690671 102.68247501 156.39292507 105.0625 152.3125 C105.60229492 151.38630859 106.14208984 150.46011719 106.69824219 149.50585938 C116.89269313 132.17592479 116.89269313 132.17592479 124.90625 126.98046875 C127.31243689 125.33791936 127.31243689 125.33791936 128.86328125 122.1796875 C131.0625 119.3125 131.0625 119.3125 134.63671875 118.46484375 C136.00650745 118.37153978 137.37797817 118.30082152 138.75 118.25 C144.78473472 117.78710067 149.13973195 116.88844566 154.265625 113.43359375 C156.96334754 111.75044947 158.98080787 111.13154023 162.140625 111.66015625 C173.67405747 115.45623204 180.83830843 123.22819793 186.6875 133.6875 C188.91638998 138.43216679 190.36972442 143.33235241 191.75 148.375 C191.95254395 149.09929199 192.15508789 149.82358398 192.36376953 150.56982422 C195.96734821 164.59042015 196.37816167 178.92514528 196.25 193.3125 C196.24173846 194.97029482 196.23376888 196.62809112 196.22607422 198.28588867 C196.12985699 214.3040281 195.78855932 230.31015251 195.0625 246.3125 C195.00868164 247.52969727 194.95486328 248.74689453 194.89941406 250.00097656 C194.73384735 253.41988246 194.53181623 256.83416261 194.3125 260.25 C194.26303223 261.23202393 194.21356445 262.21404785 194.16259766 263.22583008 C193.53922346 271.56291499 190.91842719 278.95497747 184.6875 284.75 C177.91782191 289.87810379 171.43739268 291.40906868 163.0625 290.3125 C160.1132672 289.33940288 157.65178205 288.01301247 155.0625 286.3125 C154.175625 285.755625 153.28875 285.19875 152.375 284.625 C146.69331968 278.94331968 144.8041476 274.10069388 144.6730957 266.08813477 C144.73207755 255.49039632 144.73207755 255.49039632 145.5690918 252.5065918 C146.74929072 247.25847316 146.24837129 241.62169219 146.24780273 236.25341797 C146.24995973 233.97994412 146.26804482 231.7069799 146.28710938 229.43359375 C147.10677586 212.78139755 147.10677586 212.78139755 141.0625 198.3125 C139.18049579 197.47871024 139.18049579 197.47871024 137.125 197.3125 C136.45597656 197.209375 135.78695312 197.10625 135.09765625 197 C131.92625096 197.48697202 131.04902464 198.79496205 129.0625 201.3125 C127.39625579 204.30727204 125.95585683 207.39873535 124.5 210.5 C108.57689143 243.2742967 83.40534837 274.88074274 48.0625 287.3125 C21.35421299 295.96401874 -11.36116609 289.48471454 -36.03540039 277.47924805 C-58.14915574 266.18007501 -73.54197748 249.02559021 -84.9375 227.3125 C-85.38609375 226.46945312 -85.8346875 225.62640625 -86.296875 224.7578125 C-89.34335931 218.56593205 -91.44153341 212.05198462 -93.5625 205.5 C-93.8519751 204.61119141 -94.1414502 203.72238281 -94.43969727 202.80664062 C-104.86528159 169.65094502 -105.9720277 130.64813649 -100.9375 96.3125 C-100.84098145 95.6102832 -100.74446289 94.90806641 -100.64501953 94.18457031 C-96.67975183 65.99145186 -86.89949998 35.06238209 -63.33886719 17.09326172 C-44.38783752 3.39180959 -22.89303536 0.08555553 0 0 Z " fill="#E2E6F2" transform="translate(170.9375,204.6875)"/>
<path d="M0 0 C4.82183237 2.32162299 8.05633995 5.54245764 11 10 C12.59628919 15.27852683 12.32506297 20.08536661 10.1640625 25.14453125 C8.41125174 27.93844101 6.13713482 29.79937918 3.5234375 31.7734375 C1.8554948 32.94215698 1.8554948 32.94215698 1 35 C0.79028514 38.14572293 0.76380921 40.43295464 1.984375 43.36328125 C3.90224178 48.34235846 4.13627268 54.11968088 2.16015625 59.12890625 C-0.79002058 63.72800346 -4.80940585 66.40437291 -10 68 C-14.02527487 68.53772756 -17.76106694 68.04380439 -21.75 67.3125 C-24.9181719 66.70970948 -24.9181719 66.70970948 -27.140625 68.1171875 C-29.61345883 70.62119151 -29.65111738 72.34547895 -30 75.8125 C-30.89827364 82.28788129 -32.66405045 85.89194797 -37.5625 90.3125 C-42.57461021 93.78242246 -48.10347827 93.76031967 -54 93 C-56.24041942 91.88949748 -58.12797696 90.58751652 -60.15625 89.1328125 C-63.22565869 87.24694699 -65.54041764 87.3346957 -69 88 C-72.08359815 90.67786155 -72.92791352 92.23588331 -73.3125 96.3125 C-74.28423651 101.5245413 -77.2232547 104.41291659 -81 108 C-85.6944057 111.1296038 -90.50652967 110.70376548 -96 110 C-98.52550263 108.90178901 -100.71373692 107.60235685 -103.03515625 106.12890625 C-105.86434788 104.50338661 -107.82791949 104.33607617 -111 105 C-114.61875131 107.27464368 -115.3683362 109.93097355 -116.4375 113.875 C-117.89928482 119.2613593 -119.90576206 123.03280237 -124.76953125 126.125 C-129.61370945 128.02534311 -134.92099088 127.73166998 -140 127 C-142.34599054 125.65720342 -144.14692501 124.14737224 -146.16015625 122.35546875 C-148.30131492 120.77801215 -149.61173446 120.45288477 -152.25 120.3125 C-156.03054697 120.65445538 -156.03054697 120.65445538 -158.1875 123.0625 C-158.785625 124.031875 -159.38375 125.00125 -160 126 C-162.62942597 130.26116195 -164.85792702 133.77989416 -169.78125 135.59375 C-172.72404539 136.13257169 -175.51165285 136.01974809 -178.5 135.9375 C-183.13389723 135.85797087 -186.57911895 135.79906189 -190.45703125 138.4609375 C-193.20301083 141.19996524 -195.20682317 144.45541926 -197.3203125 147.69140625 C-199 150 -199 150 -201.9375 151.9375 C-213.08916481 159.44780487 -219.90985481 176.32596088 -226.56591797 187.66845703 C-232.55633041 197.86814516 -238.48166667 207.83230652 -246 217 C-246.71542969 217.89074219 -247.43085938 218.78148437 -248.16796875 219.69921875 C-255.89190652 228.8449079 -266.83158439 236.95230632 -279.0637207 238.35009766 C-282.36416166 238.4639319 -285.63606147 238.4480662 -288.9375 238.375 C-290.59168945 238.37306641 -290.59168945 238.37306641 -292.27929688 238.37109375 C-307.69801143 238.20735519 -323.53789271 235.25226217 -334.9375 224.10546875 C-344.05376021 213.5156751 -346.13443436 200.06903131 -346.23828125 186.58203125 C-346.246353 185.57017258 -346.25442474 184.5583139 -346.26274109 183.51579285 C-346.27654703 181.37162975 -346.28728473 179.22744501 -346.29516602 177.08325195 C-346.30659901 174.92595821 -346.32691 172.76869076 -346.35668945 170.61157227 C-346.64202608 149.8999589 -345.5775588 127.70910262 -331.89453125 110.92578125 C-330.00309874 109.00314985 -328.15548211 107.73404346 -325.875 106.3125 C-320.90413714 102.89025211 -319.9574112 98.0488547 -318.21875 92.4921875 C-316.21441467 86.74899588 -312.80335057 80.88280673 -308 77 C-302.44272184 75.92030024 -297.75353197 76.97502511 -293 80 C-292.195625 80.7425 -291.39125 81.485 -290.5625 82.25 C-288.01810222 84.34969295 -288.01810222 84.34969295 -284.375 83.9375 C-279.58115418 82.60587616 -278.71778342 81.11140659 -276.0625 77 C-274.1617999 74.2353453 -272.68720025 72.88496719 -270 71 C-269.37184896 87.25654883 -269.69997727 102.46932733 -275 118 C-275.99 118.495 -275.99 118.495 -277 119 C-277.30292969 118.32453125 -277.60585938 117.6490625 -277.91796875 116.953125 C-281.1956453 109.95775311 -281.1956453 109.95775311 -287 105 C-287.598125 104.5875 -288.19625 104.175 -288.8125 103.75 C-292.22561785 102.57978817 -295.4397277 102.42364444 -299 103 C-301.6469872 104.39685006 -301.6469872 104.39685006 -303 107 C-303.33094958 110.77282526 -303.19754817 113.40735548 -302 117 C-300.329375 117.37125 -300.329375 117.37125 -298.625 117.75 C-295 119 -295 119 -293.0625 121.9375 C-290.97124755 128.21125736 -290.81452275 135.23543381 -293.6875 141.25 C-295.85975134 145.01835 -298.39230865 148.5230782 -301 152 C-303.69999726 150.99714388 -306.09778489 149.94037507 -308.5625 148.4375 C-313.3312881 145.62513779 -318.56598905 145.30205364 -324 146 C-326.71107713 147.37716666 -326.71107713 147.37716666 -328 150 C-328.33094958 153.77282526 -328.19754817 156.40735548 -327 160 C-324.27048413 160.92213803 -324.27048413 160.92213803 -321.0625 161.5 C-315.22008253 162.6698762 -315.22008253 162.6698762 -313 166 C-312.12878304 171.80151296 -315.59392816 175.86847579 -318.46875 180.6484375 C-320.19571262 184.42837099 -320.40156718 186.89013345 -320 191 C-318.58333333 193.58333333 -318.58333333 193.58333333 -316 195 C-312.22717474 195.33094958 -309.59264452 195.19754817 -306 194 C-304.90917658 191.75249035 -304.90917658 191.75249035 -304 189 C-303.09269008 186.90334248 -302.15374397 184.8201586 -301.1875 182.75 C-300.46626953 181.16445313 -300.46626953 181.16445313 -299.73046875 179.546875 C-298 177 -298 177 -295.734375 176.15625 C-294.83203125 176.1046875 -293.9296875 176.053125 -293 176 C-291.89785156 175.93296875 -290.79570312 175.8659375 -289.66015625 175.796875 C-288.47292969 175.78140625 -287.28570312 175.7659375 -286.0625 175.75 C-284.28552734 175.71132813 -284.28552734 175.71132813 -282.47265625 175.671875 C-277.90120787 176.10382288 -274.78867478 177.61137291 -271.18359375 180.41015625 C-269.6937034 182.4114281 -269.43118224 183.98099926 -269.0625 186.4375 C-268.45858483 189.45216597 -268.01727646 190.97470232 -266.25 193.5625 C-263.22922867 195.49243724 -261.52128126 195.58688021 -258 195 C-255.40087749 193.8213337 -255.40087749 193.8213337 -254 191 C-252.84210272 183.74541911 -253.90060371 177.12593401 -258 171 C-264.08396627 163.9207305 -271.93382017 160.31773518 -281.125 159.25 C-282.40375 159.1675 -283.6825 159.085 -285 159 C-282.33233839 153.05333766 -278.49989968 148.50822003 -273 145 C-262.5160907 142.21762465 -251.37561635 145.17323963 -242 150 C-240.515 150.99 -240.515 150.99 -239 152 C-233.66531571 152.38464895 -233.66531571 152.38464895 -229 150 C-227.54786468 144.34372843 -227.54786468 144.34372843 -229.6875 139.1875 C-231.71025959 137.27407877 -233.76124402 135.6448965 -236 134 C-234.88882813 133.45472656 -233.77765625 132.90945313 -232.6328125 132.34765625 C-224.54987595 128.28390465 -217.80169613 124.30549764 -211.21875 118.0078125 C-202.93444317 110.51109822 -192.70056344 109.63766928 -182.03955078 108.30957031 C-179.98174944 107.99722987 -178.01763056 107.50492738 -176 107 C-169.567481 106.57182923 -163.36071999 107.00569676 -157 108 C-147.51543332 109.54227366 -147.51543332 109.54227366 -138 109 C-135.59269737 107.31187634 -135.59269737 107.31187634 -134 105 C-134.06200872 101.46550317 -134.20532962 99.04752005 -136.375 96.1875 C-137.88670752 95.08279066 -139.44212222 94.03858519 -141 93 C-139.62328125 91.91332031 -139.62328125 91.91332031 -138.21875 90.8046875 C-137.62803711 90.33828857 -137.03732422 89.87188965 -136.42871094 89.39135742 C-135.13838499 88.3768999 -133.84472862 87.36666479 -132.54785156 86.3605957 C-129.8389324 84.25725985 -127.18400509 82.16664037 -124.640625 79.86328125 C-121.96045803 77.48767871 -120.22336398 76.0611682 -116.578125 75.87890625 C-109.5045557 76.89707153 -103.91583022 80.36448649 -99.46484375 85.9140625 C-98.28200677 87.5900356 -97.1378778 89.29318329 -96 91 C-92.90826248 92.54586876 -90.40570448 92.29359521 -87 92 C-84.43661311 90.52006844 -84.43661311 90.52006844 -83 88 C-82.47405998 83.11819772 -83.37917095 80.74966652 -86.3125 76.875 C-86.92738281 76.04742187 -87.54226563 75.21984375 -88.17578125 74.3671875 C-88.77777344 73.58601563 -89.37976563 72.80484375 -90 72 C-91.00072272 70.66720901 -92.00098392 69.33407071 -93 68 C-92.03964844 67.98582031 -91.07929688 67.97164063 -90.08984375 67.95703125 C-65.57870995 67.24722586 -36.12194516 60.88449191 -18.375 42.7109375 C-15.05985768 38.58584564 -14.51896775 35.29135478 -15 30 C-15.85219923 27.89757556 -15.85219923 27.89757556 -18 27 C-21.08520678 26.6019088 -23.04378088 26.38193446 -26 27 C-28.68726558 29.1028059 -28.68726558 29.1028059 -31 32 C-35.63705307 36.553385 -40.42438351 39.56979288 -46.375 42.125 C-47.55292114 42.63474365 -47.55292114 42.63474365 -48.75463867 43.15478516 C-62.68098787 48.96754648 -76.68271052 50.55325367 -91.61132812 51.79541016 C-110.15322826 53.38352466 -125.59637706 58.6141746 -139.28515625 71.4609375 C-141 73 -141 73 -142 73 C-142.05607422 72.07767578 -142.05607422 72.07767578 -142.11328125 71.13671875 C-142.17902344 70.32847656 -142.24476563 69.52023438 -142.3125 68.6875 C-142.39951172 67.48673828 -142.39951172 67.48673828 -142.48828125 66.26171875 C-143.09921487 63.56148542 -143.76498472 62.6110522 -146 61 C-147.94457312 60.5285704 -147.94457312 60.5285704 -150 60.625 C-150.680625 60.61726563 -151.36125 60.60953125 -152.0625 60.6015625 C-154.59085069 61.12150559 -155.35708815 62.03266856 -157 64 C-157.71649573 65.941848 -157.71649573 65.941848 -158.0625 68.08984375 C-158.21976563 68.87423828 -158.37703125 69.65863281 -158.5390625 70.46679688 C-158.69117188 71.28212891 -158.84328125 72.09746094 -159 72.9375 C-160.90511639 83.10081161 -160.90511639 83.10081161 -164 86 C-172.16740872 90.43458938 -181.94722007 91.44515774 -191 93 C-199.51809392 94.48265073 -207.25223342 96.05815384 -215 100 C-215.18175781 99.05898438 -215.36351562 98.11796875 -215.55078125 97.1484375 C-215.92783203 95.28058594 -215.92783203 95.28058594 -216.3125 93.375 C-216.55613281 92.14523437 -216.79976562 90.91546875 -217.05078125 89.6484375 C-218.23392497 85.10088097 -219.64950264 81.35049736 -223 78 C-228.18321585 77.50935723 -228.18321585 77.50935723 -233 79 C-234.61040268 82.22080535 -234.47031299 85.51235435 -234 89 C-233.67 89.93328125 -233.34 90.8665625 -233 91.828125 C-230.95174617 98.32493012 -230.89499306 106.61556206 -232.875 113.1875 C-236.13923299 117.50780837 -239.75879892 118.25909723 -245 119 C-249.34796277 119.21069423 -253.65178047 119.18401556 -258 119 C-257.87882812 118.46375 -257.75765625 117.9275 -257.6328125 117.375 C-254.8960226 104.57524416 -253.78579277 91.79769891 -253.34155273 78.74291992 C-253.31005127 77.88029541 -253.2785498 77.0176709 -253.24609375 76.12890625 C-253.21020142 74.96983765 -253.21020142 74.96983765 -253.17358398 73.78735352 C-253 72 -253 72 -252 71 C-250.58556465 70.75744187 -249.16836778 70.53089106 -247.75 70.3125 C-242.73207773 69.26775908 -241.13358692 67.04067788 -238 63 C-233.15084057 60.25519277 -228.53365299 59.023473 -223 60 C-219.15313246 61.44511955 -215.91464933 63.08535067 -213 66 C-209.79479129 66.99082178 -207.19705999 67.02817449 -204 66 C-201.58745562 63.41294969 -199.76239935 60.67336967 -197.828125 57.71484375 C-195.57453744 54.36816992 -193.72255226 52.59537954 -190 51 C-184.0065805 50.07454552 -179.36515762 51.11106898 -174 54 C-173.154375 54.721875 -172.30875 55.44375 -171.4375 56.1875 C-169.08936012 58.21025368 -169.08936012 58.21025368 -166 58.5625 C-161.37871344 57.69600877 -159.38018221 54.97725163 -156.75390625 51.21484375 C-155.95237005 50.03875792 -155.16789185 48.85074356 -154.40625 47.6484375 C-151.75779352 44.54385796 -149.10083655 43.13614069 -145.0625 42.63671875 C-144.051875 42.65347656 -143.04125 42.67023438 -142 42.6875 C-140.4840625 42.69330078 -140.4840625 42.69330078 -138.9375 42.69921875 C-135.9348391 43.00667206 -133.75551311 43.8163925 -131 45 C-128.06715128 45.3061773 -128.06715128 45.3061773 -125 44 C-122.87165675 42.05079586 -120.92080482 39.97849601 -118.94140625 37.87890625 C-115.41669904 34.4676705 -112.18295587 34.08301445 -107.4375 33.75 C-104.09265779 33.99326125 -102.06661596 34.77335362 -99 36 C-94.95684697 36.43319497 -92.82967448 36.53336217 -89.375 34.3125 C-87.67567382 32.65789293 -85.98961568 30.98961568 -84.3125 29.3125 C-81.67976215 26.67976215 -80.93159598 26.04499185 -77.25 25.8671875 C-76.1775 25.86976563 -75.105 25.87234375 -74 25.875 C-72.39125 25.87113281 -72.39125 25.87113281 -70.75 25.8671875 C-68 26 -68 26 -66 27 C-62.94152513 27.4206154 -60.05349179 27.47793785 -57 27 C-54.16666667 24.83333333 -54.16666667 24.83333333 -52 22 C-47.66528909 18.19391237 -44.73222735 16.80017588 -38.99609375 17.0078125 C-38.25552734 17.02457031 -37.51496094 17.04132813 -36.75195312 17.05859375 C-35.20483823 17.10298354 -33.65792657 17.15510947 -32.11132812 17.21484375 C-27.89535944 17.36916804 -27.89535944 17.36916804 -24.11328125 15.765625 C-22.85381711 13.76815907 -21.78008162 11.7504501 -20.75 9.625 C-15.92959946 0.88267594 -9.90367541 -1.60316682 0 0 Z " fill="#E1E6F2" transform="translate(483,171)"/>
<path d="M0 0 C4.82183237 2.32162299 8.05633995 5.54245764 11 10 C12.59628919 15.27852683 12.32506297 20.08536661 10.1640625 25.14453125 C8.41125174 27.93844101 6.13713482 29.79937918 3.5234375 31.7734375 C1.8554948 32.94215698 1.8554948 32.94215698 1 35 C0.79028514 38.14572293 0.76380921 40.43295464 1.984375 43.36328125 C3.90224178 48.34235846 4.13627268 54.11968088 2.16015625 59.12890625 C-0.79002058 63.72800346 -4.80940585 66.40437291 -10 68 C-15.02716856 68.67156832 -20.03510194 67.82748301 -25 67 C-25 64 -25 64 -24 61.5 C-23.01979921 58.06929723 -23.06599624 56.11471993 -23.3125 52.625 C-23.43911021 47.9847357 -22.66335174 45.89759676 -19.5625 42.4375 C-18.37903144 41.28750328 -17.19230201 40.14083574 -16 39 C-14.47508002 35.95016004 -14.76437452 33.3576631 -15 30 C-15.85219923 27.89757556 -15.85219923 27.89757556 -18 27 C-21.08520678 26.6019088 -23.04378088 26.38193446 -26 27 C-28.68726558 29.1028059 -28.68726558 29.1028059 -31 32 C-35.63705307 36.553385 -40.42438351 39.56979288 -46.375 42.125 C-47.55292114 42.63474365 -47.55292114 42.63474365 -48.75463867 43.15478516 C-62.68098787 48.96754648 -76.68271052 50.55325367 -91.61132812 51.79541016 C-110.15322826 53.38352466 -125.59637706 58.6141746 -139.28515625 71.4609375 C-141 73 -141 73 -142 73 C-142.05607422 72.07767578 -142.05607422 72.07767578 -142.11328125 71.13671875 C-142.17902344 70.32847656 -142.24476563 69.52023438 -142.3125 68.6875 C-142.37050781 67.88699219 -142.42851562 67.08648437 -142.48828125 66.26171875 C-143.09921487 63.56148542 -143.76498472 62.6110522 -146 61 C-147.94457312 60.5285704 -147.94457312 60.5285704 -150 60.625 C-150.680625 60.61726563 -151.36125 60.60953125 -152.0625 60.6015625 C-154.59085069 61.12150559 -155.35708815 62.03266856 -157 64 C-157.71649573 65.941848 -157.71649573 65.941848 -158.0625 68.08984375 C-158.21976562 68.87423828 -158.37703125 69.65863281 -158.5390625 70.46679688 C-158.69117188 71.28212891 -158.84328125 72.09746094 -159 72.9375 C-160.90511639 83.10081161 -160.90511639 83.10081161 -164 86 C-172.16740872 90.43458938 -181.94722007 91.44515774 -191 93 C-199.51809392 94.48265073 -207.25223342 96.05815384 -215 100 C-215.18175781 99.05898438 -215.36351562 98.11796875 -215.55078125 97.1484375 C-215.80214844 95.90320313 -216.05351562 94.65796875 -216.3125 93.375 C-216.55613281 92.14523437 -216.79976563 90.91546875 -217.05078125 89.6484375 C-218.23392497 85.10088097 -219.64950264 81.35049736 -223 78 C-228.18321585 77.50935723 -228.18321585 77.50935723 -233 79 C-234.61040268 82.22080535 -234.47031299 85.51235435 -234 89 C-233.67 89.93328125 -233.34 90.8665625 -233 91.828125 C-230.95174617 98.32493012 -230.89499306 106.61556206 -232.875 113.1875 C-236.13923299 117.50780837 -239.75879892 118.25909723 -245 119 C-249.34796277 119.21069423 -253.65178047 119.18401556 -258 119 C-257.87882813 118.46375 -257.75765625 117.9275 -257.6328125 117.375 C-254.8960226 104.57524416 -253.78579277 91.79769891 -253.34155273 78.74291992 C-253.31005127 77.88029541 -253.2785498 77.0176709 -253.24609375 76.12890625 C-253.22216553 75.35619385 -253.1982373 74.58348145 -253.17358398 73.78735352 C-253 72 -253 72 -252 71 C-250.58556465 70.75744187 -249.16836778 70.53089106 -247.75 70.3125 C-242.73207773 69.26775908 -241.13358692 67.04067788 -238 63 C-233.15084057 60.25519277 -228.53365299 59.023473 -223 60 C-219.15313246 61.44511955 -215.91464933 63.08535067 -213 66 C-209.79479129 66.99082178 -207.19705999 67.02817449 -204 66 C-201.58745562 63.41294969 -199.76239935 60.67336967 -197.828125 57.71484375 C-195.57453744 54.36816992 -193.72255226 52.59537954 -190 51 C-184.0065805 50.07454552 -179.36515762 51.11106898 -174 54 C-173.154375 54.721875 -172.30875 55.44375 -171.4375 56.1875 C-169.08936012 58.21025368 -169.08936012 58.21025368 -166 58.5625 C-161.37871344 57.69600877 -159.38018221 54.97725163 -156.75390625 51.21484375 C-155.95237005 50.03875792 -155.16789185 48.85074356 -154.40625 47.6484375 C-151.75779352 44.54385796 -149.10083655 43.13614069 -145.0625 42.63671875 C-144.051875 42.65347656 -143.04125 42.67023438 -142 42.6875 C-140.4840625 42.69330078 -140.4840625 42.69330078 -138.9375 42.69921875 C-135.9348391 43.00667206 -133.75551311 43.8163925 -131 45 C-128.06715128 45.3061773 -128.06715128 45.3061773 -125 44 C-122.87165675 42.05079586 -120.92080482 39.97849601 -118.94140625 37.87890625 C-115.41669904 34.4676705 -112.18295587 34.08301445 -107.4375 33.75 C-104.09265779 33.99326125 -102.06661596 34.77335362 -99 36 C-94.95684697 36.43319497 -92.82967448 36.53336217 -89.375 34.3125 C-87.67567382 32.65789293 -85.98961568 30.98961568 -84.3125 29.3125 C-81.67976215 26.67976215 -80.93159598 26.04499185 -77.25 25.8671875 C-76.1775 25.86976563 -75.105 25.87234375 -74 25.875 C-72.39125 25.87113281 -72.39125 25.87113281 -70.75 25.8671875 C-68 26 -68 26 -66 27 C-62.94152513 27.4206154 -60.05349179 27.47793785 -57 27 C-54.16666667 24.83333333 -54.16666667 24.83333333 -52 22 C-47.66528909 18.19391237 -44.73222735 16.80017588 -38.99609375 17.0078125 C-38.25552734 17.02457031 -37.51496094 17.04132813 -36.75195312 17.05859375 C-35.20483823 17.10298354 -33.65792657 17.15510947 -32.11132812 17.21484375 C-27.89535944 17.36916804 -27.89535944 17.36916804 -24.11328125 15.765625 C-22.85381711 13.76815907 -21.78008162 11.7504501 -20.75 9.625 C-15.92959946 0.88267594 -9.90367541 -1.60316682 0 0 Z " fill="#E0E5F2" transform="translate(483,171)"/>
<path d="M0 0 C-0.7734375 0.556875 -1.546875 1.11375 -2.34375 1.6875 C-27.57035498 20.1703591 -38.85446877 45.84618348 -44.8125 75.9375 C-45.00739014 76.91114502 -45.20228027 77.88479004 -45.40307617 78.88793945 C-48.89406729 97.88453147 -49.34418159 117.05360447 -49.25 136.3125 C-49.24689819 137.45117523 -49.24379639 138.58985046 -49.24060059 139.76303101 C-49.18080093 158.58037359 -48.59023693 177.24508151 -47 196 C-46.92740967 196.85770996 -46.85481934 197.71541992 -46.7800293 198.59912109 C-46.10738645 206.51856514 -45.42523131 214.43720541 -44.73461914 222.35510254 C-42.45401726 248.52717159 -40.47883022 274.70987987 -41 301 C-44.22397192 302.07465731 -46.67470786 302.16691803 -50.0625 302.1875 C-51.12597656 302.20167969 -52.18945312 302.21585937 -53.28515625 302.23046875 C-56 302 -56 302 -58 300 C-58.2341941 297.44179278 -58.34950296 294.98409651 -58.37890625 292.421875 C-58.39590073 291.65885071 -58.4128952 290.89582642 -58.43040466 290.10968018 C-58.48360152 287.65653904 -58.52372903 285.20340801 -58.5625 282.75 C-58.80100422 269.44041194 -58.80100422 269.44041194 -59.33984375 256.140625 C-59.42093384 254.5323584 -59.42093384 254.5323584 -59.50366211 252.89160156 C-60.11275714 249.34309123 -61.43060779 246.56939221 -64 244 C-69.22325219 243.42717741 -69.22325219 243.42717741 -73.8125 245.3125 C-74.204375 245.869375 -74.59625 246.42625 -75 247 C-75.99012417 248.00977924 -76.98898173 249.01114103 -78 250 C-78.65437145 242.26353045 -79.30649082 234.52687464 -79.95575714 226.78997517 C-80.25732612 223.19721043 -80.55966258 219.60451376 -80.86376953 216.01196289 C-81.15736675 212.54322904 -81.44892633 209.07432933 -81.73908997 205.60530663 C-81.90387674 203.64156311 -82.07075855 201.67799576 -82.2376709 199.71443176 C-82.33777466 198.5135643 -82.43787842 197.31269684 -82.54101562 196.07543945 C-82.62984009 195.02064896 -82.71866455 193.96585846 -82.81018066 192.87910461 C-82.98407204 190.24158907 -83.03574653 187.6421061 -83 185 C-82.29875 185.804375 -81.5975 186.60875 -80.875 187.4375 C-77.69248974 190.27408523 -76.20914076 190.91044381 -72 191 C-69.25045672 190.03394425 -68.30992243 189.61984486 -67 187 C-66.91803893 184.6752755 -66.90348104 182.34809488 -66.91821289 180.02197266 C-66.92127945 179.30278152 -66.92434601 178.58359039 -66.92750549 177.84260559 C-66.93467298 176.27497889 -66.94406937 174.7073612 -66.95540047 173.13975906 C-66.97283141 170.63893283 -66.98310758 168.1381711 -66.99131775 165.63729858 C-67.01570007 158.52376172 -67.0506346 151.41030918 -67.09594727 144.296875 C-67.33012705 106.21595059 -67.33012705 106.21595059 -65 90 C-64.79527858 88.46542542 -64.59126997 86.93075559 -64.38793945 85.39599609 C-60.50738775 56.94084577 -50.24009313 28.29627007 -27 10 C-7.46785386 -2.87225148 -7.46785386 -2.87225148 0 0 Z " fill="#FCFDFE" transform="translate(84,22)"/>
<path d="M0 0 C6.24769172 3.67195624 12.76729351 6.10411422 19.62011719 8.4309082 C20.40161133 8.69863037 21.18310547 8.96635254 21.98828125 9.2421875 C22.68993408 9.47405762 23.39158691 9.70592773 24.11450195 9.94482422 C25.75 10.6875 25.75 10.6875 26.75 12.6875 C14.82385745 27.89135722 -3.36148578 36.17096649 -22.25 38.6875 C-26.9827102 38.98193684 -31.69658314 39.02115092 -36.4375 39 C-37.71963379 38.99581055 -39.00176758 38.99162109 -40.32275391 38.98730469 C-49.6954049 38.87565481 -58.18307233 38.04612646 -67.25 35.6875 C-68.4565625 35.42066406 -69.663125 35.15382812 -70.90625 34.87890625 C-85.37190653 31.46002734 -99.13254835 25.31108642 -111.25 16.6875 C-112.0440625 16.12675781 -112.838125 15.56601563 -113.65625 14.98828125 C-119.87811489 10.46428442 -119.87811489 10.46428442 -120.8125 6 C-119.93614273 0.83922939 -116.33864879 -1.29549135 -112.25 -4.3125 C-108.95168603 -6.27429891 -105.55341505 -7.91084735 -102.0625 -9.5 C-101.13775879 -9.92925781 -100.21301758 -10.35851562 -99.26025391 -10.80078125 C-62.6279602 -27.48847068 -33.15274218 -19.88386297 0 0 Z " fill="#FDFEFF" transform="translate(180.25,123.3125)"/>
<path d="M0 0 C9.22428442 0.34164016 15.93867352 4.5005161 22.25 11.125 C28.67533822 18.93366054 32.1125092 27.53210132 34.75 37.1875 C34.94875732 37.90405762 35.14751465 38.62061523 35.35229492 39.35888672 C38.89952954 53.35016532 39.31530588 67.65258546 39.1875 82 C39.17923846 83.65779482 39.17126888 85.31559112 39.16357422 86.97338867 C39.06735699 102.9915281 38.72605932 118.99765251 38 135 C37.91927246 136.8257959 37.91927246 136.8257959 37.83691406 138.68847656 C37.67134735 142.10738246 37.46931623 145.52166261 37.25 148.9375 C37.20053223 149.91952393 37.15106445 150.90154785 37.10009766 151.91333008 C36.47672346 160.25041499 33.85592719 167.64247747 27.625 173.4375 C20.62368418 178.74107185 14.5473708 179.4173219 6 179 C6.59554688 178.76539063 7.19109375 178.53078125 7.8046875 178.2890625 C10.53334885 176.68682363 11.5204549 175.08844538 13.125 172.375 C13.62257813 171.55773437 14.12015625 170.74046875 14.6328125 169.8984375 C18.70164406 161.27251459 18.89649661 151.54979861 19.625 142.1875 C19.69036957 141.35962982 19.75573914 140.53175964 19.8230896 139.67880249 C21.00460621 124.22801775 21.30084184 108.8043431 21.3125 93.3125 C21.31590393 92.24647552 21.31930786 91.18045105 21.32281494 90.0821228 C21.34812469 76.26526729 20.66948 62.71596027 19 49 C18.85522217 47.75516846 18.71044434 46.51033691 18.5612793 45.2277832 C16.60632485 29.32638041 10.7752647 14.16196967 -1 3 C-0.67 2.01 -0.34 1.02 0 0 Z " fill="#A3C1F7" transform="translate(328,316)"/>
<path d="M0 0 C0.01458252 1.14138428 0.02916504 2.28276855 0.04418945 3.45874023 C0.35968689 43.67134854 0.35968689 43.67134854 8 83 C8.19352051 83.66821777 8.38704102 84.33643555 8.58642578 85.02490234 C14.78523232 106.34299326 23.7395901 125.70115984 39 142 C40.09054688 143.21042969 40.09054688 143.21042969 41.203125 144.4453125 C48.60753043 152.31592123 57.68941166 158.57465717 67 164 C63.9847479 165.34266951 62.76346638 164.92061727 59.56640625 163.84765625 C58.22505099 163.26791083 56.89068158 162.67182123 55.5625 162.0625 C54.85456299 161.7432959 54.14662598 161.4240918 53.41723633 161.09521484 C25.73925436 148.3016432 5.89351728 126.32062473 -5 98 C-13.62079641 74.04627418 -17.39075747 50.82235257 -17.125 25.4375 C-17.11493099 23.73242724 -17.1058122 22.0273486 -17.09765625 20.32226562 C-17.07599708 16.21469365 -17.04169314 12.10741544 -17 8 C-16.31292969 7.73735352 -15.62585938 7.47470703 -14.91796875 7.20410156 C-13.56638672 6.67768066 -13.56638672 6.67768066 -12.1875 6.140625 C-11.29417969 5.79547852 -10.40085937 5.45033203 -9.48046875 5.09472656 C-6.14208178 3.62136759 -3.56848487 0 0 0 Z " fill="#FCFDFE" transform="translate(86,323)"/>
<path d="M0 0 C6.93294157 -0.78783427 13.00302999 1.57436833 19 5 C25.04680454 11.70384272 24.532837 18.16737558 24.17041016 26.77099609 C22.95231327 42.70398259 13.67911383 58.56040382 3 70 C2.51853516 70.52770996 2.03707031 71.05541992 1.54101562 71.59912109 C-17.08868653 91.87090177 -41.1582398 106.23125329 -65.85546875 117.97705078 C-68.28551779 119.13619303 -70.70503565 120.31604836 -73.125 121.49609375 C-102.19759475 135.60080175 -102.19759475 135.60080175 -107 134 C-105.84721558 133.45811035 -105.84721558 133.45811035 -104.67114258 132.90527344 C-77.62568381 120.14528201 -51.82313247 106.61419284 -29 87 C-28.17371094 86.319375 -27.34742188 85.63875 -26.49609375 84.9375 C-9.58983382 70.54469029 3.94721323 49.55334561 5.875 27.0625 C5.93606821 25.04215989 5.9786686 23.02115028 6 21 C6.0721875 20.02289063 6.144375 19.04578125 6.21875 18.0390625 C6.59413723 11.18824554 5.12979164 7.40257989 1 2 C0.505 1.01 0.505 1.01 0 0 Z " fill="#A3C1F7" transform="translate(445,26)"/>
<path d="M0 0 C-0.83402344 0.556875 -1.66804688 1.11375 -2.52734375 1.6875 C-30.75472398 20.72740877 -44.16612781 47.51313947 -51.33740234 80.36035156 C-52.07222299 84.39672083 -52.56515792 88.41354906 -52.98828125 92.4921875 C-53.06540848 93.21341293 -53.14253571 93.93463837 -53.22200012 94.67771912 C-53.59669352 98.24970625 -53.92300184 101.81728514 -54.17993164 105.3996582 C-55.0911998 115.01873184 -55.0911998 115.01873184 -57.87988281 118.02978516 C-62.54038781 121 -62.54038781 121 -65 121 C-65.36139462 114.84983805 -65.64780111 108.7006996 -65.87109375 102.54394531 C-65.95988338 100.10290322 -66.0567093 97.66214457 -66.16015625 95.22167969 C-66.80533629 78.63310825 -66.80166499 64.04505867 -59 49 C-58.64164063 48.28295898 -58.28328125 47.56591797 -57.9140625 46.82714844 C-53.53024976 38.15668194 -48.51469079 30.24874046 -42 23 C-41.41089844 22.31808594 -40.82179688 21.63617188 -40.21484375 20.93359375 C-31.795375 11.79909581 -20.40650537 5.61824364 -9 1 C-8.15566406 0.60683594 -7.31132813 0.21367187 -6.44140625 -0.19140625 C-3.77240606 -1.07537911 -2.59526619 -0.9612097 0 0 Z " fill="#A4C2F7" transform="translate(108,202)"/>
<path d="M0 0 C4.82183237 2.32162299 8.05633995 5.54245764 11 10 C12.59628919 15.27852683 12.32506297 20.08536661 10.1640625 25.14453125 C8.41125174 27.93844101 6.13713482 29.79937918 3.5234375 31.7734375 C1.8554948 32.94215698 1.8554948 32.94215698 1 35 C0.79028514 38.14572293 0.76380921 40.43295464 1.984375 43.36328125 C3.90224178 48.34235846 4.13627268 54.11968088 2.16015625 59.12890625 C-0.79002058 63.72800346 -4.80940585 66.40437291 -10 68 C-15.02716856 68.67156832 -20.03510194 67.82748301 -25 67 C-25 64 -25 64 -24 61.5 C-23.01979921 58.06929723 -23.06599624 56.11471993 -23.3125 52.625 C-23.43911021 47.9847357 -22.66335174 45.89759676 -19.5625 42.4375 C-18.37903144 41.28750328 -17.19230201 40.14083574 -16 39 C-14.49065783 35.98131566 -14.82489328 33.32702771 -15 30 C-15.66 29.01 -16.32 28.02 -17 27 C-16.34 26.01 -15.68 25.02 -15 24 C-14.68067718 20.77225484 -14.68067718 20.77225484 -14.75 17.1875 C-14.74484375 15.98480469 -14.7396875 14.78210938 -14.734375 13.54296875 C-14.99728701 10.03618645 -15.73892402 7.26778815 -17 4 C-11.72262854 -0.56421315 -6.84375567 -1.00102695 0 0 Z " fill="#A3C1F7" transform="translate(483,171)"/>
<path d="M0 0 C1.75181639 3.50363277 0.81154374 7.26941519 0 11 C-2.79099094 16.28294713 -6.2582742 20.0860914 -12 22 C-13.82962436 22.14328384 -15.66501237 22.22040343 -17.5 22.25 C-18.4590625 22.27578125 -19.418125 22.3015625 -20.40625 22.328125 C-23.36443253 21.95389709 -24.20113073 21.30935919 -26 19 C-25.525625 18.01 -25.05125 17.02 -24.5625 16 C-22.83186252 12.00810505 -22.37884686 8.31885418 -22 4 C-21.16597656 4.04640625 -20.33195312 4.0928125 -19.47265625 4.140625 C-11.97264893 4.38117506 -6.53379414 3.78183434 0 0 Z " fill="#A3C2F7" transform="translate(452,242)"/>
<path d="M0 0 C2.375 1 2.375 1 4 3 C4.90590246 5.71770739 5.22281154 8.14244196 5 11 C3.02235666 14.87288487 1.69553362 15.77237082 -2.4375 17.125 C-6 17 -6 17 -8.875 14.625 C-9.57625 13.75875 -10.2775 12.8925 -11 12 C-11.33 11.67 -11.66 11.34 -12 11 C-12.54441566 7.0076185 -12.3175546 5.44265187 -9.9375 2.125 C-6.27315181 -0.52580508 -4.43414325 -0.64496629 0 0 Z " fill="#4891FF" transform="translate(16,231)"/>
</svg>
