<?xml version="1.0" encoding="UTF-8"?>
<svg version="1.1" xmlns="http://www.w3.org/2000/svg" width="512" height="512">
<path d="M0 0 C3.34009675 0.85522638 4.93720386 2.80819582 6.9375 5.49609375 C6.9375 6.48609375 6.9375 7.47609375 6.9375 8.49609375 C22.1175 8.49609375 37.2975 8.49609375 52.9375 8.49609375 C53.2675 6.84609375 53.5975 5.19609375 53.9375 3.49609375 C55.52853631 1.28605244 56.3820053 0.60964791 59.05859375 0.0625 C65.21603689 0.05211645 65.21603689 0.05211645 68.375 1.99609375 C81.44839776 22.91353016 74.09453661 63.5049149 69.10009766 85.98364258 C61.70890666 117.17657284 45.4158576 143.08823831 23.9375 166.49609375 C39.11246393 167.43582775 54.57298865 164.18120755 68.9375 159.49609375 C69.040625 158.77421875 69.14375 158.05234375 69.25 157.30859375 C70.20486962 153.40230895 71.19748801 150.61587488 74.70458984 148.35888672 C76.98580048 147.15706024 79.29604445 146.0399794 81.625 144.93359375 C102.33916654 134.51647227 119.54445166 119.12371646 131.9375 99.49609375 C132.31712891 98.89635742 132.69675781 98.29662109 133.08789062 97.67871094 C138.69604211 88.64547887 142.91310605 79.23784588 146.66821289 69.296875 C150.99155857 58.09282691 156.67144572 49.93089748 167.3984375 44.17578125 C176.80705404 40.13544442 188.07010336 39.90502173 197.8125 42.99609375 C211.1918386 48.75021532 217.33931023 58.9936145 222.66552734 71.99291992 C223.06465332 73.00459229 223.4637793 74.01626465 223.875 75.05859375 C224.51622803 76.67954956 224.51622803 76.67954956 225.17041016 78.33325195 C232.32075088 96.85791608 236.94197511 115.89434742 239.9375 135.49609375 C240.05464355 136.19524902 240.17178711 136.8944043 240.29248047 137.61474609 C250.30041998 198.12337296 232.57309639 262.14674814 197.33496094 311.52929688 C193.09316935 317.37646026 188.65762487 323.0256348 183.9375 328.49609375 C183.29167969 329.25277344 182.64585937 330.00945312 181.98046875 330.7890625 C167.62603531 347.17452476 151.98856807 361.30954319 133.9375 373.49609375 C136.78328484 376.43080937 139.69441765 379.16368343 142.8125 381.80859375 C148.13862588 386.41987098 152.93328901 391.68818412 156.9375 397.49609375 C156.9375 398.15609375 156.9375 398.81609375 156.9375 399.49609375 C157.54078125 399.4496875 158.1440625 399.40328125 158.765625 399.35546875 C159.56484375 399.319375 160.3640625 399.28328125 161.1875 399.24609375 C161.97640625 399.1996875 162.7653125 399.15328125 163.578125 399.10546875 C166.87090589 399.65063115 167.87231665 400.90926989 169.9375 403.49609375 C185.79773496 432.41769867 185.97805784 469.43643236 179.0625 500.87109375 C178.91329102 501.57903076 178.76408203 502.28696777 178.61035156 503.01635742 C177.60336095 507.24046683 176.49599852 509.92103482 172.9375 512.49609375 C169.87247726 513.22997243 167.02979021 513.06348645 163.9375 512.49609375 C161.375 510.74609375 161.375 510.74609375 159.9375 508.49609375 C159.9375 507.17609375 159.9375 505.85609375 159.9375 504.49609375 C144.7575 504.49609375 129.5775 504.49609375 113.9375 504.49609375 C113.6075 506.14609375 113.2775 507.79609375 112.9375 509.49609375 C110.44882917 512.38295191 108.83043806 512.50968892 105 512.99609375 C101.78008674 513.14972778 100.89531765 512.46253535 98.30078125 510.3984375 C95.58176084 507.05921078 94.93039911 504.75045699 94.0625 500.55859375 C91.50526365 489.57959814 86.89389664 479.64654885 78.9375 471.49609375 C75.27378476 472.77493775 72.20908285 474.53224197 68.97875977 476.66894531 C53.25789285 487.04403649 35.91584477 494.93782109 17.9375 500.49609375 C17.25510254 500.71458984 16.57270508 500.93308594 15.86962891 501.15820312 C10.60824122 502.8267762 5.31192494 504.23999404 -0.0625 505.49609375 C-0.91086426 505.69509277 -1.75922852 505.8940918 -2.63330078 506.09912109 C-17.01493992 509.2947501 -31.20347455 509.8887583 -45.875 509.93359375 C-46.72756378 509.93976715 -47.58012756 509.94594055 -48.45852661 509.95230103 C-64.56802386 510.02732811 -80.50761802 508.33409005 -96.125 504.24609375 C-96.93678711 504.03702393 -97.74857422 503.8279541 -98.58496094 503.61254883 C-112.86750495 499.79918129 -126.31424335 494.33388024 -139.35205078 487.39990234 C-140.85759353 486.6043672 -142.37889234 485.83880294 -143.90234375 485.078125 C-169.85276431 471.77121762 -192.9980743 449.89040043 -210.0625 426.49609375 C-210.70316406 425.62726563 -211.34382813 424.7584375 -212.00390625 423.86328125 C-213.74536737 421.44004005 -215.41802122 418.98608284 -217.0625 416.49609375 C-217.6503125 415.60664063 -218.238125 414.7171875 -218.84375 413.80078125 C-229.7142923 396.73759396 -238.59473265 378.66186791 -245.0625 359.49609375 C-245.31080566 358.76229492 -245.55911133 358.02849609 -245.81494141 357.27246094 C-248.5565217 348.99262247 -250.57334471 340.6148834 -252.25 332.05859375 C-252.48251465 330.88103516 -252.48251465 330.88103516 -252.71972656 329.6796875 C-255.46206357 314.8149065 -256.44679318 299.96455417 -256.375 284.87109375 C-256.37284485 284.04637573 -256.3706897 283.22165771 -256.36846924 282.37194824 C-256.21577828 245.74200425 -248.68958967 209.82827392 -231.0625 177.49609375 C-230.73781738 176.88830078 -230.41313477 176.28050781 -230.07861328 175.65429688 C-223.77273571 163.89002154 -216.18736808 153.52668944 -207.10546875 143.75 C-205.01617733 141.50372644 -205.01617733 141.50372644 -203.11328125 138.9765625 C-199.38225206 134.46379386 -194.64346239 131.10641295 -190.0625 127.49609375 C-189.18851562 126.77164063 -188.31453125 126.0471875 -187.4140625 125.30078125 C-160.99544033 104.18102312 -126.802708 95.94957944 -94.765625 87.50390625 C-93.78496567 87.24480469 -92.80430634 86.98570313 -91.79393005 86.71875 C-86.9486439 85.43976859 -82.10121455 84.17059658 -77.24829102 82.92089844 C-41.30334187 74.30986016 -41.30334187 74.30986016 -14.0625 51.24609375 C-7.6490413 39.81929761 -8.09524909 27.50042676 -10.59765625 14.93359375 C-11.22746536 11.63106532 -11.53038524 8.83813118 -11.0625 5.49609375 C-8.00449113 1.00464323 -5.26747229 -0.32921702 0 0 Z " fill="#D0E6FF" transform="translate(263.0625,-0.49609375)"/>
<path d="M0 0 C9.95435971 5.39071409 13.09621426 14.11650208 16.8203125 24.36328125 C17.40558716 25.95499146 17.40558716 25.95499146 18.00268555 27.57885742 C22.28559486 39.37045104 25.82945456 51.16988551 28.5078125 63.42578125 C28.66290283 64.12421143 28.81799316 64.8226416 28.9777832 65.54223633 C32.1969344 81.0976661 32.72874458 96.65504252 32.6953125 112.48828125 C32.69443634 113.50424377 32.69356018 114.5202063 32.69265747 115.56695557 C32.64957844 130.71616591 32.12224166 145.18449243 28.3203125 159.92578125 C28.07893555 160.89451172 27.83755859 161.86324219 27.58886719 162.86132812 C18.78763381 197.42415907 2.85451198 229.9917068 -20.6796875 256.92578125 C-21.33582031 257.69148438 -21.99195313 258.4571875 -22.66796875 259.24609375 C-33.87621488 272.03742549 -45.8904417 283.94770894 -59.6796875 293.92578125 C-60.29779297 294.37759766 -60.91589844 294.82941406 -61.55273438 295.29492188 C-71.78891643 302.72524692 -82.47308304 309.07547733 -93.6796875 314.92578125 C-94.3288916 315.27205566 -94.9780957 315.61833008 -95.64697266 315.97509766 C-115.12824301 326.26510165 -137.90551122 333.65773243 -159.6796875 336.92578125 C-160.60023926 337.07096191 -161.52079102 337.21614258 -162.46923828 337.36572266 C-209.59462832 344.51710621 -266.3804054 343.25890875 -306.44140625 314.40625 C-311.13758392 310.87756169 -315.46684371 307.01494522 -319.6796875 302.92578125 C-320.28941406 302.37792969 -320.89914062 301.83007812 -321.52734375 301.265625 C-331.67626871 291.856485 -337.97130016 279.32240472 -343.6796875 266.92578125 C-344.1025 266.01957031 -344.5253125 265.11335938 -344.9609375 264.1796875 C-356.12992963 238.41485339 -353.79045452 207.72470679 -343.9296875 182.05078125 C-338.6387828 169.68278407 -331.48696546 159.06341286 -322.6796875 148.92578125 C-322.18082031 148.29414063 -321.68195313 147.6625 -321.16796875 147.01171875 C-304.14705692 125.65023055 -274.2793634 112.17989296 -247.6796875 108.92578125 C-234.29241971 107.90768552 -221.72785241 108.97298552 -208.6796875 111.92578125 C-193.67309038 115.57259345 -193.67309038 115.57259345 -178.6796875 114.92578125 C-177.41389376 113.80822575 -176.18563347 112.64758916 -174.984375 111.4609375 C-170.24486974 107.04076658 -166.15244782 106.87822464 -159.8671875 106.73828125 C-157.82759556 106.62928414 -155.7884989 106.51063224 -153.75 106.3828125 C-152.73454102 106.31916504 -151.71908203 106.25551758 -150.67285156 106.18994141 C-146.11502993 105.7876932 -141.70372961 104.91927467 -137.2421875 103.92578125 C-136.11816528 103.67598511 -136.11816528 103.67598511 -134.97143555 103.42114258 C-132.1172121 102.7674323 -129.28527685 102.10624244 -126.47827148 101.26977539 C-124.3359375 100.6484375 -124.3359375 100.6484375 -120.6796875 99.92578125 C-118.64271133 101.547048 -116.64154166 103.21437656 -114.6796875 104.92578125 C-108.60488082 104.7890981 -103.97239072 102.42541474 -98.7421875 99.61328125 C-97.91605957 99.17322754 -97.08993164 98.73317383 -96.23876953 98.27978516 C-81.35058006 90.11511004 -67.40821573 79.11806336 -56.6796875 65.92578125 C-55.90753906 64.99121094 -55.13539063 64.05664062 -54.33984375 63.09375 C-42.07374442 47.92365404 -33.34033764 30.08676675 -26.91796875 11.73046875 C-24.35689668 5.9296809 -20.69395305 2.7265863 -15.16796875 -0.11328125 C-9.84956737 -2.16716938 -5.2905101 -2.12083131 0 0 Z " fill="#D0E6FF" transform="translate(454.6796875,59.07421875)"/>
<path d="M0 0 C3.56216941 1.46677564 5.44023727 4.50547454 7.125 7.875 C12.66514195 42.47890247 6.21486952 81.41432502 -8.875 112.875 C-9.41398926 114.00446045 -9.41398926 114.00446045 -9.96386719 115.15673828 C-23.56099802 143.19722274 -23.56099802 143.19722274 -33.875 151.875 C-36.68072499 152.20987685 -39.19503164 152.34789392 -42 152.3125 C-42.78810059 152.30927734 -43.57620117 152.30605469 -44.38818359 152.30273438 C-52.85345613 152.10747257 -60.76511442 150.17451186 -68.875 147.875 C-68.875 147.215 -68.875 146.555 -68.875 145.875 C-67.02374789 144.63881201 -65.11517783 143.48826246 -63.1875 142.375 C-51.24170187 135.25943795 -40.91298131 126.44576921 -30.875 116.875 C-30.09511719 116.14796875 -29.31523437 115.4209375 -28.51171875 114.671875 C-21.88824705 108.31898918 -16.3685905 101.19781618 -10.875 93.875 C-10.42463379 93.28541504 -9.97426758 92.69583008 -9.51025391 92.08837891 C-8.21614573 90.3851564 -6.94827475 88.66549112 -5.6875 86.9375 C-4.95144531 85.93847656 -4.21539062 84.93945312 -3.45703125 83.91015625 C-1.56882098 80.28758988 -1.49559054 77.90744161 -1.875 73.875 C-3.52558285 70.96220674 -4.98829717 70.84352856 -8.25 69.9375 C-12.77795679 69.85943178 -13.6309061 70.83177879 -16.875 73.875 C-18.27259619 75.76666829 -19.60152965 77.71013881 -20.875 79.6875 C-26.20053287 87.67465403 -32.40906923 94.79650737 -38.875 101.875 C-39.75929688 102.844375 -40.64359375 103.81375 -41.5546875 104.8125 C-70.84682761 135.44014802 -108.74475857 148.00556434 -149.94921875 152.30078125 C-170.28400917 154.4968897 -187.74286432 160.77404429 -201.875 175.875 C-203.19393804 177.5834562 -204.48923669 179.31067352 -205.75 181.0625 C-208.52948792 184.77291688 -208.52948792 184.77291688 -211.625 185.6875 C-216.52108491 184.46347877 -221.1905013 182.74213116 -225.875 180.875 C-225.441875 180.1221875 -225.00875 179.369375 -224.5625 178.59375 C-219.80091138 169.5114606 -218.32595846 162.00491638 -219.875 151.875 C-222.03212635 145.66634786 -225.68456848 136.97021576 -231.875 133.875 C-237.27269236 133.23394385 -237.27269236 133.23394385 -241.875 135.4375 C-243.32139796 138.96309503 -243.44495774 141.07528172 -242.875 144.875 C-241.4978511 147.14155756 -239.9794472 149.13702453 -238.28515625 151.17578125 C-235.49009721 154.54378868 -235.61327522 157.31059075 -235.640625 161.54296875 C-235.96434033 164.76393633 -237.19394475 167.14328522 -238.875 169.875 C-242.875 169.875 -242.875 169.875 -244.875 168.875 C-248.74924565 168.51627355 -251.02433906 168.30789271 -254.3125 170.5 C-256.35884007 173.61043691 -256.47307728 175.21177666 -255.875 178.875 C-253.03462049 183.09792568 -249.57762463 185.72411464 -245.3125 188.375 C-244.69407227 188.76445801 -244.07564453 189.15391602 -243.43847656 189.55517578 C-235.03947341 194.7455953 -226.41017814 198.33090692 -216.875 200.875 C-220.70699835 213.20319671 -226.59241415 224.95964632 -234.875 234.875 C-235.69742188 235.85984375 -236.51984375 236.8446875 -237.3671875 237.859375 C-247.2065212 249.27517653 -256.8549492 258.41760046 -272.51171875 259.73291016 C-292.1546034 260.9139183 -308.42016709 260.26276158 -324 246.6875 C-326.60867653 244.27078269 -328.89845493 241.8398176 -330.875 238.875 C-330.875 238.215 -330.875 237.555 -330.875 236.875 C-331.535 236.875 -332.195 236.875 -332.875 236.875 C-339.17335923 214.96447935 -331.40772183 187.43873809 -320.80859375 168.0078125 C-316.24776202 159.97632359 -310.9372637 152.85297849 -304.875 145.875 C-304.37613281 145.24335938 -303.87726563 144.61171875 -303.36328125 143.9609375 C-286.34236942 122.5994493 -256.4746759 109.12911171 -229.875 105.875 C-216.48773221 104.85690427 -203.92316491 105.92220427 -190.875 108.875 C-175.86840288 112.5218122 -175.86840288 112.5218122 -160.875 111.875 C-159.60920626 110.7574445 -158.38094597 109.59680791 -157.1796875 108.41015625 C-152.44018224 103.98998533 -148.34776032 103.82744339 -142.0625 103.6875 C-140.02290806 103.57850289 -137.9838114 103.45985099 -135.9453125 103.33203125 C-134.92985352 103.26838379 -133.91439453 103.20473633 -132.86816406 103.13916016 C-128.31034243 102.73691195 -123.89904211 101.86849342 -119.4375 100.875 C-118.31347778 100.62520386 -118.31347778 100.62520386 -117.16674805 100.37036133 C-114.3125246 99.71665105 -111.48058935 99.05546119 -108.67358398 98.21899414 C-106.53125 97.59765625 -106.53125 97.59765625 -102.875 96.875 C-100.83802383 98.49626675 -98.83685416 100.16359531 -96.875 101.875 C-90.80019332 101.73831685 -86.16770322 99.37463349 -80.9375 96.5625 C-80.11137207 96.12244629 -79.28524414 95.68239258 -78.43408203 95.22900391 C-63.54589256 87.06432879 -49.60352823 76.06728211 -38.875 62.875 C-38.10285156 61.94042969 -37.33070313 61.00585938 -36.53515625 60.04296875 C-24.26905692 44.87287279 -15.53565014 27.0359855 -9.11328125 8.6796875 C-7.3677275 4.72603579 -4.91883133 -0.32792209 0 0 Z " fill="#E6F2FF" transform="translate(436.875,62.125)"/>
<path d="M0 0 C3.56234428 -0.08741124 7.12441108 -0.14052896 10.6875 -0.1875 C11.69490234 -0.21263672 12.70230469 -0.23777344 13.74023438 -0.26367188 C23.1579348 -0.35691643 23.1579348 -0.35691643 27 3 C29.98317318 7.47475977 29.34051764 11.73065354 29.3125 17 C29.30758545 18.07709229 29.3026709 19.15418457 29.29760742 20.26391602 C28.91721805 46.65123387 22.24004506 72.46075134 3.94921875 92.21484375 C-16.2102303 111.38720113 -45.0574136 116.51686058 -71.29833984 121.96166992 C-111.87063771 130.39908965 -145.41648091 154.86502044 -168.32080078 189.33935547 C-181.13241651 209.63900482 -190.76151164 232.31853014 -195 256 C-195.14808105 256.81388184 -195.29616211 257.62776367 -195.44873047 258.46630859 C-204.47540085 310.3623759 -193.05877549 365.34307215 -162.82080078 408.69042969 C-160.01215089 412.5680004 -157.0330001 416.2966749 -154 420 C-153.31381592 420.84860596 -153.31381592 420.84860596 -152.61376953 421.71435547 C-137.3461589 440.50405135 -119.17902058 455.01317248 -98.234375 467.09765625 C-90.14369501 471.85630499 -90.14369501 471.85630499 -87 475 C-86.875 477.625 -86.875 477.625 -87 480 C-120.1264714 478.44110723 -157.74621505 456.97542448 -180 433 C-180.78375 432.21625 -181.5675 431.4325 -182.375 430.625 C-183.24125 429.75875 -184.1075 428.8925 -185 428 C-185.61101562 427.43539063 -186.22203125 426.87078125 -186.8515625 426.2890625 C-199.65457865 414.13783626 -209.2647332 399.2217119 -218 384 C-218.36963867 383.36384766 -218.73927734 382.72769531 -219.12011719 382.07226562 C-225.21124966 371.50681741 -229.73119384 360.40649767 -234 349 C-234.25410645 348.33500488 -234.50821289 347.67000977 -234.77001953 346.98486328 C-238.9595278 335.91862219 -241.06459485 324.63324173 -243 313 C-243.15243164 312.14051758 -243.30486328 311.28103516 -243.46191406 310.39550781 C-247.26003777 288.76342957 -247.94319233 265.66400998 -244 244 C-243.81163574 242.94490234 -243.62327148 241.88980469 -243.42919922 240.80273438 C-237.08943299 206.09785679 -225.319468 173.24894645 -201 147 C-200.23598877 146.17024658 -200.23598877 146.17024658 -199.45654297 145.32373047 C-191.99702228 137.31284391 -184.32962114 130.79919511 -175 125 C-173.92363281 124.32453125 -172.84726563 123.6490625 -171.73828125 122.953125 C-151.64514823 110.91124737 -129.40014776 104.49865817 -106.86328125 98.7578125 C-98.09097139 96.52166164 -89.3578734 94.151454 -80.63525391 91.72949219 C-78.86511066 91.23948033 -77.09392915 90.75320513 -75.32177734 90.27050781 C-35.10513994 79.47382615 -35.10513994 79.47382615 -5.46875 51.6640625 C3.27830378 35.7983958 2.6404981 17.61774965 0 0 Z " fill="#E7F2FF" transform="translate(270,8)"/>
<path d="M0 0 C3.42762335 2.10930668 3.91518724 3.704929 5.02734375 7.57421875 C15.37571865 51.2321979 4.18903172 99.7502139 -18.9375 137.3125 C-23.14057168 143.97170413 -27.79158347 150.08581176 -33 156 C-33.80308594 156.93585938 -34.60617187 157.87171875 -35.43359375 158.8359375 C-37.88864593 161.63186276 -40.40552647 164.33323463 -43 167 C-43.79148437 167.8146875 -44.58296875 168.629375 -45.3984375 169.46875 C-51.07287067 174.68408663 -54.8560396 175.46720064 -62.41333008 175.26831055 C-68.35002333 174.82420015 -74.10955366 173.74635256 -79.9375 172.5625 C-82.27991259 172.1052877 -84.62235932 171.6482503 -86.96484375 171.19140625 C-87.9818335 170.98717041 -88.99882324 170.78293457 -90.04663086 170.57250977 C-119.46655476 164.86946591 -148.52618367 172.0706834 -173.5625 188 C-179.1143041 191.89559363 -184.11031886 196.31026864 -189 201 C-190.2684375 202.2065625 -190.2684375 202.2065625 -191.5625 203.4375 C-192.366875 204.283125 -193.17125 205.12875 -194 206 C-194.66515625 206.68191406 -195.3303125 207.36382812 -196.015625 208.06640625 C-208.95110347 221.77185368 -217.4738491 238.81157879 -222 257 C-222.2990625 257.95390625 -222.598125 258.9078125 -222.90625 259.890625 C-227.57405123 276.05504777 -226.17848759 294.86488775 -222 311 C-221.73316406 312.08796875 -221.46632813 313.1759375 -221.19140625 314.296875 C-216.07433145 332.94576983 -205.45201552 349.33629325 -192 363 C-190.97326172 364.06347656 -190.97326172 364.06347656 -189.92578125 365.1484375 C-158.74141449 395.16875128 -111.36508965 398.94091526 -70.5078125 398.28515625 C-19.41777647 397.21154944 31.22032382 380.55625672 71 348 C72.00804687 347.195625 73.01609375 346.39125 74.0546875 345.5625 C88.64441725 333.7382486 102.01066518 320.23854428 113 305 C114.1446875 303.43765625 114.1446875 303.43765625 115.3125 301.84375 C132.10567345 278.28665946 143.41383547 252.7046183 151.25 224.9375 C151.60130981 223.71873169 151.60130981 223.71873169 151.9597168 222.4753418 C156.20750476 206.81381307 157.49599234 191.24247296 157.39111328 175.06689453 C157.3750491 172.13396454 157.39105746 169.20241965 157.41015625 166.26953125 C157.42366756 153.27796202 156.17844491 140.79838629 154 128 C153.78498336 126.67829043 153.57034917 125.35651856 153.35620117 124.03466797 C150.6016022 107.70992741 145.09759608 91.46535089 138.8125 76.1875 C138.50417236 75.42405273 138.19584473 74.66060547 137.87817383 73.87402344 C135.1567092 67.54101006 131.21857224 63.01956426 125.01171875 59.734375 C120.1430692 57.95708157 115.40023862 58.17456136 110.53515625 59.84765625 C101.94602635 64.06361851 99.46018584 70.54706074 96.375 79.1875 C88.47833302 101.29024447 75.75613686 119.67350768 59 136 C58.49984375 136.556875 57.9996875 137.11375 57.484375 137.6875 C48.39088311 147.49265647 36.5766868 154.38110969 24.9375 160.75 C24.15270264 161.19263184 23.36790527 161.63526367 22.55932617 162.09130859 C17.67568319 164.67132668 14.53440451 165.6444298 9 164 C6 161.375 6 161.375 4 158 C3.875 154.375 3.875 154.375 5 151 C8.13068458 148.0487077 11.41723381 146.20168283 15.31494141 144.41552734 C36.30982563 134.79308591 53.7232884 118.44337316 66 99 C66.37962891 98.40026367 66.75925781 97.80052734 67.15039062 97.18261719 C72.75854211 88.14938512 76.97560605 78.74175213 80.73071289 68.80078125 C85.05405857 57.59673316 90.73394572 49.43480373 101.4609375 43.6796875 C110.86955404 39.63935067 122.13260336 39.40892798 131.875 42.5 C145.2543386 48.25412157 151.40181023 58.49752075 156.72802734 71.49682617 C157.12715332 72.50849854 157.5262793 73.5201709 157.9375 74.5625 C158.57872803 76.18345581 158.57872803 76.18345581 159.23291016 77.8371582 C166.38325088 96.36182233 171.00447511 115.39825367 174 135 C174.11714355 135.69915527 174.23428711 136.39831055 174.35498047 137.11865234 C184.36291998 197.62727921 166.63559639 261.65065439 131.39746094 311.03320312 C127.15566935 316.88036651 122.72012487 322.52954105 118 328 C117.35417969 328.75667969 116.70835937 329.51335937 116.04296875 330.29296875 C104.51157326 343.45595748 92.10067577 355.62629943 78 366 C77.03449219 366.73734375 76.06898438 367.4746875 75.07421875 368.234375 C69.89665341 372.13036476 64.64942559 375.45030053 58.91015625 378.453125 C55.75709545 380.12911437 52.69990437 381.93482623 49.625 383.75 C31.91191127 393.92481923 13.52988226 401.0825394 -6 407 C-7.14927979 407.35167236 -7.14927979 407.35167236 -8.32177734 407.71044922 C-46.07014267 418.98617405 -91.48165656 419.81671235 -130 412 C-130.93924316 411.81808105 -131.87848633 411.63616211 -132.84619141 411.44873047 C-167.04124401 404.6966105 -199.23920932 387.34973302 -219.875 358.625 C-239.28931845 328.66418149 -248.96706794 293.48549606 -241.4375 257.8125 C-240.72849933 254.83896866 -239.90201662 251.92038405 -239 249 C-238.76394043 248.22688477 -238.52788086 247.45376953 -238.28466797 246.65722656 C-228.26016365 214.89680475 -207.62986245 189.3014523 -180 171 C-179.28070313 170.51015625 -178.56140625 170.0203125 -177.8203125 169.515625 C-160.71340519 158.50564313 -140.17900329 152.3732403 -120 151 C-119.16452637 150.94263672 -118.32905273 150.88527344 -117.46826172 150.82617188 C-102.71342501 149.98013152 -88.98469018 151.8890689 -74.59960938 154.86523438 C-73.93273605 155.00304321 -73.26586273 155.14085205 -72.57878113 155.28283691 C-70.75890529 155.66357189 -68.94148832 156.05600641 -67.12426758 156.44921875 C-64.30646992 156.94597201 -61.84849091 157.21605761 -59 157 C-35.72008059 140.48639863 -20.24544022 104.85237583 -14 78 C-13.70222656 76.79085937 -13.40445313 75.58171875 -13.09765625 74.3359375 C-10.80661634 63.87343632 -10.70874058 53.34969698 -10.6875 42.6875 C-10.68391479 41.96042847 -10.68032959 41.23335693 -10.67663574 40.48425293 C-10.65445664 32.11518019 -11.05783027 24.0166995 -12.53686523 15.75146484 C-13.37926117 10.7468248 -14.13639495 6.02574752 -11.5625 1.4375 C-7.73158075 -0.71155226 -4.28789614 -0.75808109 0 0 Z " fill="#2F59FF" transform="translate(329,0)"/>
<path d="M0 0 C3.64437031 0.87789487 4.87208917 2.37844626 6.9296875 5.46484375 C11.34426071 21.23680094 11.97672285 42.87831891 3.9296875 57.46484375 C-7.40756438 77.15734081 -26.72790457 86.64721764 -47.5703125 93.46484375 C-48.61203613 93.80878174 -49.65375977 94.15271973 -50.72705078 94.50708008 C-59.34271241 97.31115335 -68.02596614 99.67779913 -76.81005859 101.88378906 C-80.64334284 102.86923046 -84.44910908 103.95148488 -88.2578125 105.02734375 C-93.58941505 106.53338171 -98.92056184 107.90579937 -104.3203125 109.15234375 C-123.11033737 113.68346333 -142.23544537 119.91410785 -159.0703125 129.46484375 C-160.29427775 130.11961434 -161.51956136 130.77192595 -162.74609375 131.421875 C-197.0261292 149.87965291 -217.96545274 184.71735659 -229.2578125 220.96484375 C-238.62856846 252.48810471 -241.22304743 286.45790365 -235.5234375 318.88671875 C-235.06366784 321.50264958 -234.64437346 324.12316937 -234.2265625 326.74609375 C-227.54254227 366.84280899 -207.10839892 407.13382797 -177.8828125 435.65234375 C-175.0703125 438.46484375 -175.0703125 438.46484375 -175.0703125 440.46484375 C-174.16732422 440.86896484 -174.16732422 440.86896484 -173.24609375 441.28125 C-171.05119186 442.4752451 -169.90133699 443.55054894 -168.2578125 445.40234375 C-138.42478313 476.06584289 -91.19044278 490.88375086 -49.49658203 491.86669922 C-29.464562 492.06092653 -9.09417611 490.03002675 9.9296875 483.46484375 C11.48936693 482.95506659 13.04928179 482.44600942 14.609375 481.9375 C40.48261427 473.3512811 62.92232093 460.35922395 83.7421875 442.77734375 C84.29382568 442.31166992 84.84546387 441.84599609 85.41381836 441.36621094 C87.68791075 439.43131341 89.91569963 437.47842096 92.05859375 435.3984375 C95.03091957 432.53250366 96.40702848 431.482561 100.6171875 431.33984375 C104.2404013 432.57036919 105.82748156 433.26949071 107.9296875 436.46484375 C108.6171875 439.71484375 108.6171875 439.71484375 107.9296875 443.46484375 C104.06594211 449.39470072 98.32845136 453.9775595 92.9296875 458.46484375 C93.27 458.89152344 93.6103125 459.31820313 93.9609375 459.7578125 C104.05828908 472.78232185 112.78000906 487.63026663 113.9296875 504.46484375 C113.31620574 509.01648259 113.31620574 509.01648259 111.3671875 511.27734375 C107.95946211 512.93751766 104.57130194 513.4956173 100.9296875 512.46484375 C96.47533 508.9211549 95.19281612 506.02438763 94.0546875 500.52734375 C91.49745115 489.54834814 86.88608414 479.61529885 78.9296875 471.46484375 C75.26597226 472.74368775 72.20127035 474.50099197 68.97094727 476.63769531 C53.25008035 487.01278649 35.90803227 494.90657109 17.9296875 500.46484375 C17.24729004 500.68333984 16.56489258 500.90183594 15.86181641 501.12695312 C10.60042872 502.7955262 5.30411244 504.20874404 -0.0703125 505.46484375 C-0.91867676 505.66384277 -1.76704102 505.8628418 -2.64111328 506.06787109 C-17.02275242 509.2635001 -31.21128705 509.8575083 -45.8828125 509.90234375 C-46.73537628 509.90851715 -47.58794006 509.91469055 -48.46633911 509.92105103 C-64.57583636 509.99607811 -80.51543052 508.30284005 -96.1328125 504.21484375 C-96.94459961 504.00577393 -97.75638672 503.7967041 -98.59277344 503.58129883 C-112.87531745 499.76793129 -126.32205585 494.30263024 -139.35986328 487.36865234 C-140.86540603 486.5731172 -142.38670484 485.80755294 -143.91015625 485.046875 C-169.86057681 471.73996762 -193.0058868 449.85915043 -210.0703125 426.46484375 C-210.71097656 425.59601563 -211.35164063 424.7271875 -212.01171875 423.83203125 C-213.75317987 421.40879005 -215.42583372 418.95483284 -217.0703125 416.46484375 C-217.658125 415.57539063 -218.2459375 414.6859375 -218.8515625 413.76953125 C-229.7221048 396.70634396 -238.60254515 378.63061791 -245.0703125 359.46484375 C-245.31861816 358.73104492 -245.56692383 357.99724609 -245.82275391 357.24121094 C-248.5643342 348.96137247 -250.58115721 340.5836334 -252.2578125 332.02734375 C-252.49032715 330.84978516 -252.49032715 330.84978516 -252.72753906 329.6484375 C-255.46987607 314.7836565 -256.45460568 299.93330417 -256.3828125 284.83984375 C-256.38065735 284.01512573 -256.3785022 283.19040771 -256.37628174 282.34069824 C-256.22359078 245.71075425 -248.69740217 209.79702392 -231.0703125 177.46484375 C-230.74562988 176.85705078 -230.42094727 176.24925781 -230.08642578 175.62304688 C-223.78054821 163.85877154 -216.19518058 153.49543944 -207.11328125 143.71875 C-205.02398983 141.47247644 -205.02398983 141.47247644 -203.12109375 138.9453125 C-199.39006456 134.43254386 -194.65127489 131.07516295 -190.0703125 127.46484375 C-189.19632812 126.74039063 -188.32234375 126.0159375 -187.421875 125.26953125 C-161.00325283 104.14977312 -126.8105205 95.91832944 -94.7734375 87.47265625 C-93.79277817 87.21355469 -92.81211884 86.95445313 -91.80174255 86.6875 C-86.9564564 85.40851859 -82.10902705 84.13934658 -77.25610352 82.88964844 C-41.31115437 74.27861016 -41.31115437 74.27861016 -14.0703125 51.21484375 C-7.6568538 39.78804761 -8.10306159 27.46917676 -10.60546875 14.90234375 C-11.23527786 11.59981532 -11.53819774 8.80688118 -11.0703125 5.46484375 C-8.02284873 0.98888133 -5.26518376 -0.40730667 0 0 Z " fill="#2F58FF" transform="translate(263.0703125,-0.46484375)"/>
<path d="M0 0 C2.4375 1.625 2.4375 1.625 4 4 C4.61076242 9.78836203 3.47241638 12.61018216 0.0625 17.25 C-0.34355469 17.80792236 -0.74960937 18.36584473 -1.16796875 18.94067383 C-17.82700358 41.5736951 -37.46799378 61.96686085 -62 76 C-62.66 76 -63.32 76 -64 76 C-64 76.66 -64 77.32 -64 78 C-63.24976563 78.12117188 -62.49953125 78.24234375 -61.7265625 78.3671875 C-60.70304688 78.53476563 -59.67953125 78.70234375 -58.625 78.875 C-57.62726563 79.03742188 -56.62953125 79.19984375 -55.6015625 79.3671875 C-53.69497539 79.70218437 -51.78822825 80.05302335 -49.91040039 80.52319336 C-41.37021788 82.56608998 -32.77994526 82.06134331 -24.07250977 81.73266602 C-22.02089297 81.65998125 -19.97049816 81.61893599 -17.91796875 81.58203125 C-16.70906982 81.54311768 -15.5001709 81.5042041 -14.25463867 81.46411133 C-10.04218357 82.15770813 -8.60978613 83.69693736 -6 87 C-5.29123882 90.78005961 -5.66468338 92.40984276 -7.5625 95.75 C-12.87316699 100.65215414 -19.60227228 100.2682038 -26.4375 100.125 C-27.26443359 100.11597656 -28.09136719 100.10695313 -28.94335938 100.09765625 C-30.96236708 100.07431512 -32.98122356 100.03845288 -35 100 C-35.6761667 105.16195554 -36.07516675 110.21917283 -36.17578125 115.42578125 C-36.19962891 116.55177734 -36.22347656 117.67777344 -36.24804688 118.83789062 C-36.29137435 121.17363532 -36.32242651 123.50963691 -36.34179688 125.84570312 C-36.38336914 127.5250293 -36.38336914 127.5250293 -36.42578125 129.23828125 C-36.44036377 130.24930908 -36.45494629 131.26033691 -36.4699707 132.30200195 C-37.13348444 135.6794733 -38.34734879 136.87558505 -41 139 C-43.74346497 139.72873288 -46.22637072 139.5638384 -49 139 C-51.74230446 137.10148153 -52.76403283 135.92571734 -53.5871582 132.6965332 C-54.32459396 127.87986971 -54.1845614 123.05088109 -54.1875 118.1875 C-54.19974609 117.13240234 -54.21199219 116.07730469 -54.22460938 114.99023438 C-54.23587779 108.96163378 -53.76151325 103.77191496 -52 98 C-52.55945313 97.90203125 -53.11890625 97.8040625 -53.6953125 97.703125 C-62.94861987 95.97742781 -72.41187093 93.97217868 -80.8125 89.625 C-86.32035425 87.02887646 -90.56919646 88.77819337 -96.0456543 90.72851562 C-101.73546636 92.74270245 -107.36464068 93.95861869 -113.3125 94.9375 C-114.28944824 95.10443359 -115.26639648 95.27136719 -116.27294922 95.44335938 C-121.926943 96.39027256 -127.5888972 97.23307608 -133.26953125 98.00390625 C-134.49309326 98.17092041 -135.71665527 98.33793457 -136.97729492 98.51000977 C-139.33931226 98.82729568 -141.7027235 99.13443838 -144.06762695 99.42944336 C-160.87639884 101.66742459 -176.1821845 106.77092557 -186.95703125 120.4921875 C-192.53410411 128.87483469 -196.0508748 138.08717011 -199.83862305 147.37207031 C-203.39626822 155.95223676 -207.49095931 163.51858672 -213 171 C-200.83252923 176.36800181 -185.39846402 175.3921856 -173.19140625 170.8359375 C-166.79539633 168.12901789 -160.55390501 165.01493781 -154.38208008 161.8347168 C-147.99152331 158.62358026 -142.09914002 156.88523759 -135 156 C-135.02824121 146.86396796 -136.20117414 141.10625344 -142 134 C-144 131 -144 131 -143.875 127.5625 C-142.91234961 123.64313768 -142.3563415 122.20811941 -139 120 C-134.77567505 119.29594584 -132.70777223 119.58713286 -129 121.75 C-122.09727722 128.26305294 -117.29577805 138.02182905 -116.89453125 147.48828125 C-116.87760901 149.66448189 -116.90941394 151.82593464 -117 154 C-116.04480469 154.10957031 -115.08960938 154.21914063 -114.10546875 154.33203125 C-93.6374772 156.84206411 -93.6374772 156.84206411 -88.25 161.25 C-86.53485722 165.02331412 -86.78280349 167.06201128 -88 171 C-89.9375 173.5 -89.9375 173.5 -93 175 C-96.41209055 175.07505445 -99.64301422 174.56922802 -103 174 C-117.85709854 171.49599463 -133.30282192 171.2956608 -147 178 C-147.86657227 178.41846191 -148.73314453 178.83692383 -149.62597656 179.26806641 C-150.58729492 179.7326123 -151.54861328 180.1971582 -152.5390625 180.67578125 C-154.04146484 181.40027466 -154.04146484 181.40027466 -155.57421875 182.1394043 C-157.55116149 183.10208808 -159.52054934 184.08050813 -161.48046875 185.07739258 C-171.622319 190.12980424 -181.41621635 192.56225101 -192.75 192.4375 C-193.69302979 192.43355225 -194.63605957 192.42960449 -195.60766602 192.42553711 C-202.9670088 192.2764666 -209.55499331 191.07182552 -216.58984375 188.97265625 C-220.14982103 187.95726754 -223.29301586 187.14274268 -227 187 C-229.53302766 188.49744923 -229.53302766 188.49744923 -231.625 190.875 C-239.3100237 198.36267415 -248.20250166 204.07058368 -257.375 209.5625 C-258.47585938 210.22378906 -259.57671875 210.88507813 -260.7109375 211.56640625 C-264.4573906 213.19936146 -266.9538384 213.42540289 -271 213 C-274.68351539 210.41370196 -275.81727257 208.93024874 -276.6875 204.5 C-275.80483247 200.00641985 -273.55313352 198.53605458 -270 196 C-267.62852031 194.47988052 -265.19753202 193.08087044 -262.75 191.6875 C-256.363696 187.94582391 -250.60659453 183.85276669 -245 179 C-244.18144531 178.32582031 -243.36289063 177.65164063 -242.51953125 176.95703125 C-227.88998053 164.50490203 -219.51074335 148.36859399 -212 131 C-212.9075 130.938125 -213.815 130.87625 -214.75 130.8125 C-227.82983306 128.89131728 -241.92127057 120.42695467 -251 111 C-252.44430855 108.11138291 -252.37688506 106.20352299 -252 103 C-249.9375 100.125 -249.9375 100.125 -247 98 C-242.42635406 97.42829426 -239.13219551 97.99651127 -235 100 C-231.95094021 95.04527785 -230.80687558 90.69530486 -232 85 C-233.87185209 81.37328657 -236.1001699 77.8998301 -239 75 C-239.38018944 71.04602978 -239.3208859 68.62840156 -237.5 65.0625 C-234.61568654 62.6829414 -232.67177551 62.31554012 -228.94921875 62.59765625 C-224.72123339 63.47036666 -222.78024744 65.84616774 -220.43359375 69.31640625 C-214.67247379 78.63137371 -212.30777847 86.99272571 -214 98 C-215.56036677 102.31368837 -217.54021347 106.13462117 -220 110 C-218.46412859 110.67991145 -216.92094499 111.3433154 -215.375 112 C-214.08722656 112.556875 -214.08722656 112.556875 -212.7734375 113.125 C-209.57128088 114.13525786 -207.33440551 114.46994977 -204 114 C-201.79248358 112.08339464 -201.79248358 112.08339464 -200.0625 109.4375 C-199.37671875 108.52097656 -198.6909375 107.60445313 -197.984375 106.66015625 C-197.32953125 105.78230469 -196.6746875 104.90445313 -196 104 C-180.1755581 84.91080674 -154.96831329 82.29101513 -131.98046875 79.5078125 C-115.12112515 77.42551004 -99.55385181 73.90538904 -84 67 C-82.95368408 66.5356958 -82.95368408 66.5356958 -81.88623047 66.06201172 C-54.11795347 53.48634314 -32.18347824 31.69604188 -14.80493164 7.03833008 C-10.46030649 0.96706681 -7.91765059 -2.12079926 0 0 Z " fill="#305AFF" transform="translate(432,132)"/>
<path d="M0 0 C7.74957519 2.99744306 15.55537365 5.21647057 23.625 7.1875 C23.5816841 12.27711859 22.76406065 15.93851337 19.27734375 19.76171875 C16.14834973 22.38776511 12.95233999 24.82213309 9.625 27.1875 C8.02785156 28.34958984 8.02785156 28.34958984 6.3984375 29.53515625 C-3.92315832 36.85570414 -14.71768804 43.32492138 -25.75 49.5 C-26.49918701 49.92079834 -27.24837402 50.34159668 -28.02026367 50.77514648 C-32.38410701 53.19172261 -36.75526313 55.30425634 -41.375 57.1875 C-41.58253906 56.37667969 -41.79007812 55.56585938 -42.00390625 54.73046875 C-44.51690278 45.69840173 -47.94197338 35.35931711 -56.375 30.1875 C-59.875 29.52083333 -59.875 29.52083333 -63.375 30.1875 C-66.05338573 32.11876102 -66.05338573 32.11876102 -67.375 35.1875 C-67.59349986 40.97774623 -65.26005809 44.19352268 -61.75 48.48828125 C-58.98265106 51.90815849 -59.27005015 54.48261552 -59.3125 58.8125 C-59.32152344 60.00101562 -59.33054687 61.18953125 -59.33984375 62.4140625 C-59.35144531 63.32929688 -59.36304688 64.24453125 -59.375 65.1875 C-60.70724609 65.53748047 -60.70724609 65.53748047 -62.06640625 65.89453125 C-71.95960227 68.66420369 -80.95975891 72.63722259 -90.12719727 77.26489258 C-99.04508207 81.71723144 -107.19935225 84.7496546 -117.25 84.5625 C-118.01940918 84.55669922 -118.78881836 84.55089844 -119.58154297 84.54492188 C-126.11349381 84.39773834 -132.16107545 83.23443985 -138.375 81.1875 C-137.87871094 80.35089844 -137.38242188 79.51429688 -136.87109375 78.65234375 C-131.0764854 68.77004367 -126.035201 58.66172562 -121.6640625 48.0703125 C-115.61828954 33.50900401 -107.37638726 20.06748387 -92.39892578 13.35595703 C-79.83430689 8.50093798 -66.35469138 7.03773059 -53.08398438 5.40576172 C-40.47101834 3.83587291 -28.19782433 1.7017695 -16.1875 -2.625 C-10.08783358 -4.5248961 -5.7440242 -2.27216147 0 0 Z " fill="#E6F1FF" transform="translate(356.375,222.8125)"/>
<path d="M0 0 C4.44872139 0.70614625 5.15779153 1.26805368 7.9375 4.625 C23.79773496 33.54660492 23.97805784 70.56533861 17.0625 102 C16.91329102 102.70793701 16.76408203 103.41587402 16.61035156 104.14526367 C15.60336095 108.36937308 14.49599852 111.04994107 10.9375 113.625 C6.74032978 114.62995625 3.05421677 114.30592486 -0.625 112.0625 C-3.70295004 106.84336732 -1.76473552 100.63329846 -0.63867188 95.00097656 C4.49378613 68.82544072 4.27612337 41.46290556 -6.79296875 16.88671875 C-8.15627668 13.38406608 -8.8314505 10.37511115 -9.0625 6.625 C-6.70523219 2.44275066 -4.83548374 0.26260118 0 0 Z " fill="#2E58FF" transform="translate(425.0625,398.375)"/>
</svg>
