<?xml version="1.0" encoding="UTF-8"?>
<svg version="1.1" xmlns="http://www.w3.org/2000/svg" width="512" height="512">
<path d="M0 0 C4.08609258 2.97944251 5.21493625 5.13424031 6 10 C13.70229291 9.91538663 21.40440031 9.82042288 29.10640049 9.71247292 C32.68328076 9.66266034 36.26013363 9.61632991 39.8371582 9.578125 C43.29323277 9.54108098 46.74906939 9.49467115 50.20493889 9.44193649 C52.1562048 9.41455644 54.10759714 9.3967199 56.05897522 9.37905884 C63.18918872 9.3348776 63.18918872 9.3348776 70.12475586 7.89990234 C73 7 73 7 76.8125 8.1875 C80 10 80 10 82 13 C82.69759841 16.1299327 82.60228692 18.857105 82 22 C80.6782198 23.94711494 80.6782198 23.94711494 78.93489075 25.81570435 C78.29711512 26.50652225 77.65933949 27.19734016 77.00223732 27.90909195 C76.341499 28.59909161 75.68076069 29.28909126 75 30 C74.4016654 30.6308337 73.8033308 31.2616674 73.18686485 31.91161728 C71.29996484 33.87739391 69.39294077 35.82153684 67.47924805 37.76123047 C66.762771 38.49070389 66.04629395 39.22017731 65.30810547 39.97175598 C57.88852067 47.51708888 50.4345454 55.02854584 42.9777832 62.53710938 C39.44563603 66.09609558 35.92484869 69.66577814 32.41333008 73.24511719 C28.15652399 77.5838877 23.88038553 81.9026893 19.58985329 86.20810318 C17.96391331 87.84627169 16.34486288 89.49130928 14.73303795 91.14336777 C12.47677291 93.45315181 10.19648088 95.73638522 7.90893555 98.01513672 C7.25458023 98.6966832 6.60022491 99.37822968 5.92604065 100.08042908 C1.6048373 104.31691975 -1.77216284 105.88329102 -7.8003931 106.6065979 C-11.25465121 107.22439574 -12.98516418 109.07770627 -15.3515625 111.5703125 C-16.22167969 112.46621094 -17.09179688 113.36210938 -17.98828125 114.28515625 C-19.29345703 115.69087891 -19.29345703 115.69087891 -20.625 117.125 C-21.53378906 118.06988281 -22.44257813 119.01476562 -23.37890625 119.98828125 C-25.60525633 122.30837238 -27.81070932 124.64499882 -30 127 C-28.39890473 130.34650845 -26.54618301 132.86278649 -24.125 135.6875 C0.74138706 165.83700125 17.73278285 201.5527204 25 240 C25.14953125 240.77134277 25.2990625 241.54268555 25.453125 242.33740234 C32.09312407 278.32075939 29.18123961 317.300482 18 352 C17.5671167 353.34819824 17.5671167 353.34819824 17.12548828 354.72363281 C2.08126333 400.59672113 2.08126333 400.59672113 -13 411 C-16.7897565 411.32670315 -19.39427296 411.20190901 -23 410 C-23.24492187 410.55171875 -23.48984375 411.1034375 -23.7421875 411.671875 C-25.25738114 414.47639491 -27.11084126 416.78103123 -29.125 419.25 C-29.84945313 420.14203125 -30.57390625 421.0340625 -31.3203125 421.953125 C-31.87460937 422.62859375 -32.42890625 423.3040625 -33 424 C-32.51853516 424.87011719 -32.51853516 424.87011719 -32.02734375 425.7578125 C-30.46976348 429.15724624 -30.33260009 432.37796507 -31 436 C-32.34948768 438.80139183 -33.5475176 439.86060046 -36 442 C-40.96927163 443.44560629 -44.25997088 442.96537793 -49 441 C-49.53109375 441.54269531 -50.0621875 442.08539063 -50.609375 442.64453125 C-51.31578125 443.35996094 -52.0221875 444.07539063 -52.75 444.8125 C-53.44609375 445.52019531 -54.1421875 446.22789062 -54.859375 446.95703125 C-57 449 -57 449 -59.26171875 450.45703125 C-61.24189158 451.87248394 -61.24189158 451.87248394 -61.28515625 454.3046875 C-61.17494141 455.57699219 -61.17494141 455.57699219 -61.0625 456.875 C-60.69176567 461.28336822 -61.25905242 463.47199317 -64 467 C-66.22669093 468.92872978 -68.6102028 470.55952921 -71.0625 472.1875 C-71.76858398 472.6623584 -72.47466797 473.1372168 -73.20214844 473.62646484 C-95.68837647 488.50371673 -120.21299752 499.25857872 -146.375 505.6875 C-147.1393335 505.87795898 -147.90366699 506.06841797 -148.69116211 506.26464844 C-166.13690515 510.34107244 -183.31357414 511.54471632 -201.1875 511.4375 C-202.26472321 511.43445862 -203.34194641 511.43141724 -204.45181274 511.42828369 C-220.29781122 511.36213313 -235.54717469 510.81310917 -251 507 C-251.94713867 506.77505859 -252.89427734 506.55011719 -253.87011719 506.31835938 C-285.95884234 498.56580881 -316.05938631 484.48326158 -342 464 C-342.88816406 463.30519531 -343.77632813 462.61039062 -344.69140625 461.89453125 C-355.22924759 453.47346153 -365.39498177 444.41053545 -374 434 C-375.2065625 432.64261719 -375.2065625 432.64261719 -376.4375 431.2578125 C-403.86859107 400.22781788 -420.84835831 360.5311945 -428 320 C-428.17885742 319.01789551 -428.35771484 318.03579102 -428.54199219 317.02392578 C-429.33347104 311.30305351 -429.20364139 305.51002929 -429.23828125 299.74609375 C-429.246353 298.45421646 -429.25442474 297.16233917 -429.26274109 295.83131409 C-429.27771857 293.09368021 -429.28757366 290.35607165 -429.29516602 287.6184082 C-429.30393687 284.85776081 -429.32460435 282.09763149 -429.35668945 279.3371582 C-429.54826507 262.4747739 -428.9510413 246.4493924 -425 230 C-424.60663452 228.3152356 -424.60663452 228.3152356 -424.20532227 226.59643555 C-423.57343703 224.08150136 -422.87960822 221.60544721 -422.125 219.125 C-421.74057739 217.83118408 -421.74057739 217.83118408 -421.34838867 216.51123047 C-411.46873094 183.85725306 -395.17487635 154.31506803 -372.02734375 129.21484375 C-370.22726728 127.24828622 -368.5191193 125.23459198 -366.8125 123.1875 C-333.81158897 85.56948904 -283.8024704 62.43425915 -235 55 C-234.24928223 54.88285645 -233.49856445 54.76571289 -232.72509766 54.64501953 C-184.32037166 47.43306899 -131.81666596 56.9222011 -89.6015625 81.84765625 C-87.19659241 83.15221339 -87.19659241 83.15221339 -85.18774414 82.88647461 C-81.99391894 81.59233564 -79.81704328 79.34479929 -77.39453125 76.96875 C-76.86985764 76.45880493 -76.34518402 75.94885986 -75.80461121 75.42346191 C-74.69872629 74.34149955 -73.59702881 73.25524284 -72.49926758 72.16503906 C-70.82637115 70.51369246 -69.12649635 68.89399298 -67.42382812 67.2734375 C-60.83090348 61.31712101 -60.83090348 61.31712101 -58.19921875 53.21875 C-58.22491943 52.55146378 -58.25062012 51.88417755 -58.27709961 51.19667053 C-57.92241197 48.38493117 -56.98707652 47.39713322 -55.07275391 45.32983398 C-54.11138771 44.28585953 -54.11138771 44.28585953 -53.13059998 43.22079468 C-49.341644 39.27144081 -45.51144055 35.36920718 -41.63671875 31.50390625 C-40.76352493 30.62975571 -39.89033112 29.75560516 -38.99067688 28.85496521 C-37.15899384 27.02260573 -35.32606365 25.19149216 -33.49194336 23.36157227 C-31.6115357 21.48476598 -29.73253517 19.60669452 -27.85620117 17.72583008 C-25.13986795 15.00334649 -22.42012689 12.28431677 -19.69921875 9.56640625 C-18.85654953 8.7217128 -18.01388031 7.87701935 -17.14567566 7.00672913 C-16.36759048 6.23179611 -15.58950531 5.4568631 -14.7878418 4.65844727 C-14.10280075 3.97420181 -13.4177597 3.28995636 -12.71195984 2.5849762 C-9.02575523 -0.82780629 -4.7948616 -0.73703399 0 0 Z " fill="#C8F2FE" transform="translate(429,1)"/>
<path d="M0 0 C4.08609258 2.97944251 5.21493625 5.13424031 6 10 C13.70229291 9.91538663 21.40440031 9.82042288 29.10640049 9.71247292 C32.68328076 9.66266034 36.26013363 9.61632991 39.8371582 9.578125 C43.29323277 9.54108098 46.74906939 9.49467115 50.20493889 9.44193649 C52.1562048 9.41455644 54.10759714 9.3967199 56.05897522 9.37905884 C63.18918872 9.3348776 63.18918872 9.3348776 70.12475586 7.89990234 C73 7 73 7 76.8125 8.1875 C80 10 80 10 82 13 C82.69759841 16.1299327 82.60228692 18.857105 82 22 C80.6782198 23.94711494 80.6782198 23.94711494 78.93489075 25.81570435 C78.29711512 26.50652225 77.65933949 27.19734016 77.00223732 27.90909195 C76.341499 28.59909161 75.68076069 29.28909126 75 30 C74.4016654 30.6308337 73.8033308 31.2616674 73.18686485 31.91161728 C71.29996484 33.87739391 69.39294077 35.82153684 67.47924805 37.76123047 C66.762771 38.49070389 66.04629395 39.22017731 65.30810547 39.97175598 C57.88852067 47.51708888 50.4345454 55.02854584 42.9777832 62.53710938 C39.44563603 66.09609558 35.92484869 69.66577814 32.41333008 73.24511719 C28.15652399 77.5838877 23.88038553 81.9026893 19.58985329 86.20810318 C17.96391331 87.84627169 16.34486288 89.49130928 14.73303795 91.14336777 C12.47677291 93.45315181 10.19648088 95.73638522 7.90893555 98.01513672 C7.25458023 98.6966832 6.60022491 99.37822968 5.92604065 100.08042908 C1.6048373 104.31691975 -1.77216284 105.88329102 -7.8003931 106.6065979 C-11.25465121 107.22439574 -12.98516418 109.07770627 -15.3515625 111.5703125 C-16.22167969 112.46621094 -17.09179688 113.36210938 -17.98828125 114.28515625 C-19.29345703 115.69087891 -19.29345703 115.69087891 -20.625 117.125 C-21.53378906 118.06988281 -22.44257813 119.01476562 -23.37890625 119.98828125 C-25.60525633 122.30837238 -27.81070932 124.64499882 -30 127 C-28.39890473 130.34650845 -26.54618301 132.86278649 -24.125 135.6875 C0.74138706 165.83700125 17.73278285 201.5527204 25 240 C25.14953125 240.77134277 25.2990625 241.54268555 25.453125 242.33740234 C32.09312407 278.32075939 29.18123961 317.300482 18 352 C17.5671167 353.34819824 17.5671167 353.34819824 17.12548828 354.72363281 C2.13468179 400.43383671 2.13468179 400.43383671 -13 411 C-16.5 411.5625 -16.5 411.5625 -20 411 C-24.03622716 407.66572539 -25.84583099 405.61351881 -26.34375 400.40234375 C-26.26999114 395.28417028 -24.12328135 391.8349313 -21.5 387.5625 C-20.57151935 385.96586192 -19.64711594 384.36684667 -18.7265625 382.765625 C-18.26411133 381.96576172 -17.80166016 381.16589844 -17.32519531 380.34179688 C-5.95018936 360.24064413 0.6702026 338.33187976 4.54345703 315.66162109 C4.91691582 313.48437635 5.32639572 311.3133373 5.74609375 309.14453125 C10.2091673 282.88934683 7.81231064 253.39711169 0 228 C-0.32355469 226.74445313 -0.64710938 225.48890625 -0.98046875 224.1953125 C-8.98819347 193.46599616 -25.76841139 167.02813363 -46 143 C-51.9431588 147.91515295 -57.34116088 153.25756213 -62.75 158.75 C-64.42994622 160.45543857 -66.11213798 162.15866891 -67.796875 163.859375 C-68.53260742 164.60670898 -69.26833984 165.35404297 -70.02636719 166.12402344 C-74.09155745 169.98806623 -76.5616223 170.25813929 -82.05419922 170.29052734 C-82.76837006 170.29724457 -83.48254089 170.30396179 -84.21835327 170.31088257 C-86.58053536 170.32988849 -88.94243369 170.3337881 -91.3046875 170.3359375 C-92.94752113 170.34236393 -94.5903536 170.34909218 -96.23318481 170.35610962 C-99.67810723 170.36808907 -103.12292932 170.37178979 -106.56787109 170.37060547 C-110.97870444 170.37040231 -115.38889326 170.39769802 -119.7995739 170.43214989 C-123.1933995 170.45440646 -126.58706973 170.45844339 -129.98096085 170.45738602 C-131.60684555 170.4597441 -133.23273441 170.46857937 -134.85854721 170.48405075 C-137.13515861 170.5036854 -139.41037707 170.49788384 -141.68701172 170.48583984 C-142.9814621 170.48868988 -144.27591248 170.49153992 -145.60958862 170.49447632 C-149.56170073 169.91807846 -151.19757689 168.78804359 -154 166 C-155.70024836 162.59950328 -155.92635061 159.62004557 -155 156 C-153.34594727 153.75097656 -153.34594727 153.75097656 -151.12890625 151.390625 C-150.30874023 150.5140625 -149.48857422 149.6375 -148.64355469 148.734375 C-144.24894003 144.18878171 -139.80311239 139.70074572 -135.3125 135.25 C-134.31855097 134.26047044 -133.32490456 133.27063684 -132.33154297 132.28051758 C-129.22388495 129.18413404 -126.11222761 126.0917896 -123 123 C-119.36170219 119.38536094 -115.72509253 115.76905419 -112.09262085 112.14855957 C-110.64491714 110.7073281 -109.19423649 109.26913974 -107.7434082 107.83105469 C-106.87159912 106.96254883 -105.99979004 106.09404297 -105.1015625 105.19921875 C-104.33150879 104.43440186 -103.56145508 103.66958496 -102.76806641 102.8815918 C-100.93724429 101.11330496 -100.93724429 101.11330496 -100 99 C-100.84304688 98.74347656 -101.68609375 98.48695312 -102.5546875 98.22265625 C-105.56343717 97.15492536 -108.30983335 95.88801399 -111.1472168 94.43652344 C-130.46496907 84.67868585 -151.6508018 79.04391576 -173 76 C-174.05735352 75.82637939 -175.11470703 75.65275879 -176.20410156 75.47387695 C-180.57351328 74.92840306 -184.84762873 74.80196125 -189.24609375 74.76171875 C-190.12599472 74.7519249 -191.00589569 74.74213104 -191.91246033 74.73204041 C-210.61025635 74.5667934 -228.74723054 74.44201082 -247 79 C-247.88655273 79.21430664 -248.77310547 79.42861328 -249.68652344 79.64941406 C-285.93859473 88.61778748 -318.59548784 106.79067611 -345.50830078 132.57128906 C-346.88165496 133.88665218 -348.2664824 135.1900085 -349.65234375 136.4921875 C-360.25838275 146.712857 -368.93394142 158.71989645 -377 171 C-377.36303223 171.55171875 -377.72606445 172.1034375 -378.10009766 172.671875 C-388.13017845 188.10412988 -395.97088917 205.2982561 -401 223 C-401.20963379 223.73331543 -401.41926758 224.46663086 -401.63525391 225.22216797 C-412.06642206 262.33202445 -413.03939924 304.08423955 -401 341 C-400.7426709 341.82177734 -400.4853418 342.64355469 -400.22021484 343.49023438 C-393.46499232 364.9269089 -383.96096159 384.62258901 -371 403 C-370.39188477 403.86262451 -370.39188477 403.86262451 -369.77148438 404.74267578 C-362.99287915 414.21441754 -355.10221314 422.65856429 -347 431 C-346.4217749 431.59868896 -345.8435498 432.19737793 -345.24780273 432.81420898 C-341.51740054 436.62001458 -337.65958879 440.06384405 -333.4375 443.3125 C-332.83454102 443.77906006 -332.23158203 444.24562012 -331.61035156 444.72631836 C-329.74660761 446.15946485 -327.87468835 447.58120967 -326 449 C-325.43361816 449.43248047 -324.86723633 449.86496094 -324.28369141 450.31054688 C-288.77593681 477.25533814 -245.94222374 490.21835232 -201.6875 490.25 C-200.83962921 490.25067474 -199.99175842 490.25134949 -199.11819458 490.25204468 C-186.17668451 490.23569532 -173.69878226 489.67953536 -161 487 C-160.15840332 486.83371094 -159.31680664 486.66742188 -158.44970703 486.49609375 C-131.17007109 481.03308488 -103.69571662 469.72146994 -81.32421875 453 C-77.55019692 450.18414952 -75.06427421 448.56036125 -70.25 448.8125 C-65.90969288 449.68664242 -63.51820005 451.26331606 -61 455 C-60.27121133 460.10152072 -60.99283124 462.89819721 -64 467 C-66.22025189 468.9357379 -68.61061602 470.55980353 -71.0625 472.1875 C-71.76858398 472.6623584 -72.47466797 473.1372168 -73.20214844 473.62646484 C-95.68837647 488.50371673 -120.21299752 499.25857872 -146.375 505.6875 C-147.1393335 505.87795898 -147.90366699 506.06841797 -148.69116211 506.26464844 C-166.13690515 510.34107244 -183.31357414 511.54471632 -201.1875 511.4375 C-202.26472321 511.43445862 -203.34194641 511.43141724 -204.45181274 511.42828369 C-220.29781122 511.36213313 -235.54717469 510.81310917 -251 507 C-251.94713867 506.77505859 -252.89427734 506.55011719 -253.87011719 506.31835938 C-285.95884234 498.56580881 -316.05938631 484.48326158 -342 464 C-342.88816406 463.30519531 -343.77632813 462.61039062 -344.69140625 461.89453125 C-355.22924759 453.47346153 -365.39498177 444.41053545 -374 434 C-375.2065625 432.64261719 -375.2065625 432.64261719 -376.4375 431.2578125 C-403.86859107 400.22781788 -420.84835831 360.5311945 -428 320 C-428.17885742 319.01789551 -428.35771484 318.03579102 -428.54199219 317.02392578 C-429.33347104 311.30305351 -429.20364139 305.51002929 -429.23828125 299.74609375 C-429.246353 298.45421646 -429.25442474 297.16233917 -429.26274109 295.83131409 C-429.27771857 293.09368021 -429.28757366 290.35607165 -429.29516602 287.6184082 C-429.30393687 284.85776081 -429.32460435 282.09763149 -429.35668945 279.3371582 C-429.54826507 262.4747739 -428.9510413 246.4493924 -425 230 C-424.60663452 228.3152356 -424.60663452 228.3152356 -424.20532227 226.59643555 C-423.57343703 224.08150136 -422.87960822 221.60544721 -422.125 219.125 C-421.74057739 217.83118408 -421.74057739 217.83118408 -421.34838867 216.51123047 C-411.46873094 183.85725306 -395.17487635 154.31506803 -372.02734375 129.21484375 C-370.22726728 127.24828622 -368.5191193 125.23459198 -366.8125 123.1875 C-333.81158897 85.56948904 -283.8024704 62.43425915 -235 55 C-234.24928223 54.88285645 -233.49856445 54.76571289 -232.72509766 54.64501953 C-184.32037166 47.43306899 -131.81666596 56.9222011 -89.6015625 81.84765625 C-87.19659241 83.15221339 -87.19659241 83.15221339 -85.18774414 82.88647461 C-81.99391894 81.59233564 -79.81704328 79.34479929 -77.39453125 76.96875 C-76.86985764 76.45880493 -76.34518402 75.94885986 -75.80461121 75.42346191 C-74.69872629 74.34149955 -73.59702881 73.25524284 -72.49926758 72.16503906 C-70.82637115 70.51369246 -69.12649635 68.89399298 -67.42382812 67.2734375 C-60.83090348 61.31712101 -60.83090348 61.31712101 -58.19921875 53.21875 C-58.22491943 52.55146378 -58.25062012 51.88417755 -58.27709961 51.19667053 C-57.92241197 48.38493117 -56.98707652 47.39713322 -55.07275391 45.32983398 C-54.11138771 44.28585953 -54.11138771 44.28585953 -53.13059998 43.22079468 C-49.341644 39.27144081 -45.51144055 35.36920718 -41.63671875 31.50390625 C-40.76352493 30.62975571 -39.89033112 29.75560516 -38.99067688 28.85496521 C-37.15899384 27.02260573 -35.32606365 25.19149216 -33.49194336 23.36157227 C-31.6115357 21.48476598 -29.73253517 19.60669452 -27.85620117 17.72583008 C-25.13986795 15.00334649 -22.42012689 12.28431677 -19.69921875 9.56640625 C-18.85654953 8.7217128 -18.01388031 7.87701935 -17.14567566 7.00672913 C-16.36759048 6.23179611 -15.58950531 5.4568631 -14.7878418 4.65844727 C-14.10280075 3.97420181 -13.4177597 3.28995636 -12.71195984 2.5849762 C-9.02575523 -0.82780629 -4.7948616 -0.73703399 0 0 Z " fill="#010101" transform="translate(429,1)"/>
<path d="M0 0 C1.02996094 -0.01224609 2.05992187 -0.02449219 3.12109375 -0.03710938 C23.77026872 -0.07607008 42.55730299 6.97679379 58.375 20.1875 C59.02984375 20.69667969 59.6846875 21.20585937 60.359375 21.73046875 C74.20662313 32.94673974 82.62448498 49.28617019 87.375 66.1875 C87.60058594 66.93515625 87.82617188 67.6828125 88.05859375 68.453125 C93.20831217 88.76787629 88.54920126 112.09025315 78.31835938 130.04150391 C65.3294023 151.12223018 45.45654307 166.12429499 21.375 172.1875 C5.66262746 175.12365042 -11.52522853 174.42689738 -26.625 169.1875 C-27.68589844 168.82527344 -28.74679688 168.46304688 -29.83984375 168.08984375 C-52.52201808 159.47820742 -69.09872815 140.94887554 -78.9375 119.25 C-86.86514253 99.57130152 -87.75743213 75.90750796 -79.74707031 56.00634766 C-77.64851454 51.24341755 -75.23720838 46.68652353 -72.625 42.1875 C-71.86509766 40.87845703 -71.86509766 40.87845703 -71.08984375 39.54296875 C-58.81220838 20.0150306 -38.90550229 6.53482055 -16.625 1.1875 C-11.07001937 -0.07383468 -5.67355318 0.00347219 0 0 Z " fill="#020202" transform="translate(199.625,222.8125)"/>
<path d="M0 0 C0.79841309 0.27376465 1.59682617 0.5475293 2.41943359 0.82958984 C24.45582001 8.58118812 42.98183466 21.10227208 57 40 C57.58910156 40.73992187 58.17820312 41.47984375 58.78515625 42.2421875 C67.73679956 54.028178 73.78016307 68.62636332 77 83 C77.22300781 83.8971875 77.44601562 84.794375 77.67578125 85.71875 C83.66115807 114.05767699 76.23509274 143.84159423 61 168 C58.19638365 171.85926875 55.16549982 175.43529861 52 179 C51.38769531 179.75539063 50.77539062 180.51078125 50.14453125 181.2890625 C34.35849348 200.3400164 8.48559636 213.95551677 -16 217 C-20.48633417 217.23532326 -24.95904365 217.2886946 -29.44970703 217.26074219 C-31.49672049 217.25001718 -33.54285672 217.2606959 -35.58984375 217.2734375 C-42.95292033 217.28129344 -49.85402502 216.83234564 -57 215 C-57.97710937 214.77699219 -58.95421875 214.55398438 -59.9609375 214.32421875 C-77.37470382 209.73126744 -93.69966665 201.16266876 -107 189 C-108.25876953 187.86304688 -108.25876953 187.86304688 -109.54296875 186.703125 C-123.26517937 173.68298097 -132.30543857 157.53645392 -138.375 139.75 C-138.61379883 139.05422852 -138.85259766 138.35845703 -139.09863281 137.64160156 C-147.00725324 113.09168722 -144.6737176 85.3919184 -134.19897461 62.046875 C-132.14726158 57.3054331 -131.67027064 54.18203353 -133 49 C-134.41591827 47.07716915 -134.41591827 47.07716915 -136 46 C-134.56643667 41.92957149 -132.59321998 38.73739812 -130.0625 35.25 C-129.37285156 34.28578125 -128.68320313 33.3215625 -127.97265625 32.328125 C-126 30 -126 30 -123 29 C-122.34 29.33 -121.68 29.66 -121 30 C-116.86337199 30.46829751 -114.67186709 30.40026125 -111.0625 28.25 C-108.67551751 24.48869426 -108.94400819 23.47392683 -109.3125 19.1875 C-109.51455097 15.19083332 -109.5256543 13.63297124 -106.93359375 10.51171875 C-97.49931444 3 -97.49931444 3 -92 3 C-92 3.66 -92 4.32 -92 5 C-84.48292465 7.50569178 -78.53235063 5.46954632 -71.5 2.625 C-49.4311812 -6.08917243 -22.61321691 -7.87026054 0 0 Z M-97.2421875 47.96875 C-106.14168653 58.25261555 -113.69194106 71.71801901 -117 85 C-117.20238281 85.72960937 -117.40476562 86.45921875 -117.61328125 87.2109375 C-122.69431449 109.12505364 -118.31631665 132.71583969 -106.86572266 151.90039062 C-94.16527704 171.80835216 -75.59013312 185.81418124 -52.6875 191.875 C-27.77859218 196.60347064 -2.67165549 192.20602193 18.35546875 177.98828125 C37.52195538 163.57802764 50.25803998 143.33366956 54.62109375 119.625 C55.88358089 107.54677254 55.78107361 95.60701666 52 84 C51.79503906 83.19046875 51.59007812 82.3809375 51.37890625 81.546875 C48.25973715 69.53516789 42.11269949 59.28360457 34 50 C33.50886719 49.37738281 33.01773438 48.75476563 32.51171875 48.11328125 C20.53168871 33.09606049 0.93017973 23.50619189 -17.81640625 20.359375 C-48.4310928 17.20232952 -75.81387089 25.37487642 -97.2421875 47.96875 Z " fill="#FCFCFC" transform="translate(234,203)"/>
<path d="M0 0 C1.99387242 0.0106715 3.98782314 -0.00093787 5.98168945 -0.01269531 C17.56098 0.01019997 28.96457817 1.02205 40.06958008 4.44824219 C40.77163574 4.66037354 41.47369141 4.87250488 42.19702148 5.09106445 C77.52445355 16.17085237 105.30830834 40.07406444 122.47583008 72.63964844 C128.64757821 85.47121663 133.21923094 99.18884496 134.44848633 113.41308594 C134.60485108 115.35229313 134.60485108 115.35229313 135.69458008 117.26074219 C138.15823517 149.49942884 129.68041991 184.79085943 109.13208008 210.26074219 C107.66795261 211.94063581 106.18908189 213.60781262 104.69458008 215.26074219 C103.9649707 216.10894531 103.23536133 216.95714844 102.48364258 217.83105469 C94.54778801 226.93640361 85.84266331 234.70422456 75.69458008 241.26074219 C74.83864258 241.8240625 73.98270508 242.38738281 73.10083008 242.96777344 C52.38455943 255.85725082 29.60577212 261.43577511 5.44458008 261.44824219 C4.21094727 261.46048828 2.97731445 261.47273438 1.70629883 261.48535156 C-6.48429017 261.49827047 -14.2592751 260.78337526 -22.30541992 259.26074219 C-23.42279541 259.04961792 -23.42279541 259.04961792 -24.56274414 258.83422852 C-56.84831427 252.24855437 -85.48345031 231.69258051 -104.05932617 204.77246094 C-104.81472361 203.60620015 -105.56277012 202.43516153 -106.30541992 201.26074219 C-106.78269531 200.51139404 -107.2599707 199.7620459 -107.75170898 198.98999023 C-111.40460505 193.09827836 -114.33671117 187.12204796 -116.93041992 180.69824219 C-117.31649414 179.74731689 -117.70256836 178.7963916 -118.1003418 177.81665039 C-124.28894474 162.13369033 -126.48354323 146.79501555 -126.49291992 130.01074219 C-126.50516602 128.8725 -126.51741211 127.73425781 -126.5300293 126.56152344 C-126.54961583 115.05769715 -124.94671763 104.18609118 -121.55541992 93.19824219 C-121.16507568 91.92025757 -121.16507568 91.92025757 -120.7668457 90.61645508 C-114.89246669 72.01425487 -114.89246669 72.01425487 -108.30541992 68.26074219 C-104.48821424 67.762252 -100.82542044 68.26570799 -97.57495117 70.39355469 C-96.18041992 71.82324219 -96.18041992 71.82324219 -94.30541992 75.26074219 C-94.6098439 80.83227537 -95.80863566 84.95773907 -98.11791992 90.07324219 C-106.95796001 111.20771341 -108.67086031 136.18703761 -102.30541992 158.26074219 C-101.96510742 159.47246094 -101.62479492 160.68417969 -101.27416992 161.93261719 C-92.528632 190.41470689 -73.80425526 214.21984271 -47.37084961 228.29052734 C-39.91337248 232.07907525 -32.39794676 235.10375488 -24.30541992 237.26074219 C-22.75854492 237.81761719 -22.75854492 237.81761719 -21.18041992 238.38574219 C-3.97313307 243.62274253 20.79735802 242.10489418 37.69458008 236.26074219 C38.3267041 236.04643555 38.95882812 235.83212891 39.61010742 235.61132812 C53.41385489 230.83751765 65.62856528 223.79453955 76.69458008 214.26074219 C77.41774414 213.69355469 78.1409082 213.12636719 78.88598633 212.54199219 C98.59416173 196.46519795 111.27613823 169.43362724 114.46313477 144.59082031 C117.30818877 115.94820908 110.5196105 85.99494212 92.13208008 63.32324219 C90.66022483 61.62936132 89.1816977 59.94123957 87.69458008 58.26074219 C87.15575195 57.57882813 86.61692383 56.89691406 86.06176758 56.19433594 C73.71676989 40.84063278 55.12638253 31.16637872 36.69458008 25.26074219 C36.06310059 25.04901367 35.43162109 24.83728516 34.78100586 24.61914062 C14.42354312 17.99942458 -10.76186606 19.08202254 -30.80541992 26.26074219 C-31.94237305 26.65132812 -31.94237305 26.65132812 -33.10229492 27.04980469 C-36.13562297 28.09980286 -39.12345799 29.18483953 -42.08666992 30.42089844 C-45.56110766 31.73604652 -48.65632325 31.95230486 -52.30541992 31.26074219 C-55.44378305 29.23388267 -56.96412259 27.80777027 -57.78198242 24.10058594 C-58.04988486 19.87759746 -57.96352263 18.0717498 -55.20385742 14.67089844 C-51.99970505 12.00652915 -49.19401188 10.67706053 -45.30541992 9.19824219 C-44.64896484 8.9478418 -43.99250977 8.69744141 -43.31616211 8.43945312 C-28.86841391 3.01545513 -15.48728807 -0.09817615 0 0 Z " fill="#020303" transform="translate(197.305419921875,178.7392578125)"/>
<path d="M0 0 C-0.38671875 0.47308594 -0.7734375 0.94617188 -1.171875 1.43359375 C-6.46423653 8.1538449 -9.76822235 14.48731884 -11 23 C-12.10794922 23.22042969 -12.10794922 23.22042969 -13.23828125 23.4453125 C-25.39489928 26.1330527 -35.38935318 31.01510784 -42.65234375 41.3515625 C-50.12667455 53.15698474 -51.57147327 63.84981061 -48.9375 77.625 C-45.83378146 89.59236126 -38.45675981 98.49507525 -27.98046875 104.82421875 C-17.21296846 110.20170143 -5.92233637 110.80728298 5.75 108.14453125 C17.04672845 104.24129843 25.15261436 97.33491416 31 87 C31.5775 86.05125 32.155 85.1025 32.75 84.125 C34.9187792 78.703052 36.00769048 72.89930974 35.9921875 67.0546875 C36.00016314 64.1276277 36.09704476 61.78972739 37 59 C39.2856875 57.05293287 41.58356808 55.86469331 44.27734375 54.546875 C48.80617588 51.9738226 51.79182378 48.03262373 55 44 C57 45 57 45 57.8515625 47.37890625 C62.76270492 67.59396215 59.74409425 86.26371742 49 104 C41.25920081 115.43256496 30.66798787 123.62450437 18 129 C16.80697266 129.5878125 16.80697266 129.5878125 15.58984375 130.1875 C8.30985873 133.2753287 1.26476585 133.38881229 -6.5625 133.4375 C-7.6151001 133.4475708 -8.6677002 133.4576416 -9.75219727 133.46801758 C-27.93595226 133.26782163 -43.04115025 125.28914226 -56.109375 113.01953125 C-69.9629638 98.70952576 -74.56147559 80.47402749 -74.27734375 61.125 C-73.63544357 43.80327581 -64.72687382 28.38162984 -52.46875 16.55859375 C-36.92951001 3.05316606 -19.97559322 -0.70044288 0 0 Z " fill="#70D5FB" transform="translate(209,243)"/>
<path d="M0 0 C19.8 0 39.6 0 60 0 C55.92482343 4.75437267 51.86803157 9.27306677 47.44384766 13.66967773 C46.81874298 14.29492844 46.19363831 14.92017914 45.54959106 15.56437683 C43.50677921 17.60649851 41.46046093 19.64506673 39.4140625 21.68359375 C37.98752317 23.10826572 36.56120616 24.53316032 35.13510132 25.95826721 C31.39896155 29.69060687 27.65982738 33.41993237 23.92004395 37.14862061 C20.09721303 40.96118329 16.27724613 44.77661322 12.45703125 48.59179688 C4.97414133 56.06399371 -2.51191776 63.53300678 -10 71 C-14.03070124 69.14276623 -16.78284024 66.47282533 -19.859375 63.3359375 C-20.40861633 62.78386627 -20.95785767 62.23179504 -21.52374268 61.66299438 C-23.27059293 59.90498185 -25.01034601 58.1401311 -26.75 56.375 C-27.93573591 55.1792292 -29.1219288 53.98391135 -30.30859375 52.7890625 C-33.21105085 49.86459747 -36.1071641 46.93398126 -39 44 C-34.87386252 39.06358908 -30.56998266 34.48029714 -25.95703125 30 C-24.62260718 28.68794704 -23.28863612 27.37543322 -21.95507812 26.0625 C-19.87930872 24.02387257 -17.80067996 21.98851414 -15.71411133 19.9609375 C-13.68167168 17.98314487 -11.66230323 15.99274031 -9.64453125 14 C-8.71167046 13.1028125 -8.71167046 13.1028125 -7.75996399 12.1875 C-6.88841927 11.32125 -6.88841927 11.32125 -5.99926758 10.4375 C-5.49107986 9.94121094 -4.98289215 9.44492187 -4.45930481 8.93359375 C-2.39441423 6.35795929 -2.39441423 6.35795929 0 0 Z " fill="#4CB9F4" transform="translate(434,11)"/>
<path d="M0 0 C5.44035363 0.65480495 8.62796691 5.11502737 12.3125 8.8125 C13.06595703 9.53759766 13.81941406 10.26269531 14.59570312 11.00976562 C15.30275391 11.71423828 16.00980469 12.41871094 16.73828125 13.14453125 C17.38837158 13.78753174 18.03846191 14.43053223 18.70825195 15.09301758 C20 17 20 17 19.87043762 18.76951599 C18.62381141 21.9639779 16.63909168 24.03193544 14.36474609 26.59472656 C13.88104553 27.14151062 13.39734497 27.68829468 12.89898682 28.25164795 C8.37201147 33.33238475 3.72029212 38.29923793 -0.96593666 43.23300552 C-4.10130734 46.53663308 -7.18912225 49.86464819 -10.18701172 53.29394531 C-31.4293511 77.5137958 -31.4293511 77.5137958 -47.60058594 78.73242188 C-57.11869816 79.15918376 -66.58193543 78.33871836 -76 77 C-71.83803522 72.04468224 -67.51565395 67.35377329 -62.95654297 62.76367188 C-62.27934204 62.07829346 -61.60214111 61.39291504 -60.90441895 60.68676758 C-58.68667959 58.44442822 -56.4650011 56.2060589 -54.2421875 53.96875 C-53.48040318 53.201642 -52.71861885 52.434534 -51.93375015 51.6441803 C-47.91233657 47.59616516 -43.8873441 43.55174378 -39.85986328 39.50976562 C-36.52600631 36.16249603 -33.19959585 32.80808004 -29.87939453 29.44726562 C-25.8634685 25.38223157 -21.83560188 21.32941295 -17.79861832 17.28529358 C-16.26253041 15.74247055 -14.73071829 14.19537841 -13.20324326 12.64402771 C-11.07520152 10.48459296 -8.9321717 8.34122792 -6.78466797 6.20117188 C-6.15392365 5.55402222 -5.52317932 4.90687256 -4.87332153 4.2401123 C-3.09811401 2.4901123 -3.09811401 2.4901123 0 0 Z " fill="#F9F9F9" transform="translate(384,74)"/>
<path d="M0 0 C1.68495829 1.79819473 2.97862093 3.71751911 4.34765625 5.765625 C9.29184006 12.45137711 16.07250948 16.0321832 24 18 C24.49161427 25.42883792 24.11641409 30.71023442 20 37 C19.46375 37.886875 18.9275 38.77375 18.375 39.6875 C12.90019375 45.0182324 6.99056416 47.31483938 -0.625 47.5625 C-8.2288881 47.22296093 -13.14620471 45.28221978 -18.3125 39.6875 C-23.61762418 32.85010563 -24.90499896 26.49693472 -24 18 C-21.861036 10.87011999 -17.61206205 5.16729772 -11.0625 1.5625 C-7.17493883 -0.1184074 -4.23973037 -0.9421623 0 0 Z " fill="#878796" transform="translate(202,286)"/>
<path d="M0 0 C3.73622894 2.11484657 6.5655898 3.90966843 8.3125 7.875 C9.20009144 13.55091369 9.11106231 18.24935529 6.5625 23.4375 C3.16080085 27.12267408 0.3973814 29.51656616 -4.73828125 30.11328125 C-10.26114901 30.29451525 -13.38821475 29.67436836 -17.6875 25.875 C-21.26372521 22.11055241 -22.03504157 18.98850465 -22.3125 13.9375 C-22.14304136 8.69079994 -21.05164427 5.89617676 -17.390625 2.1796875 C-11.85426316 -2.06147042 -6.46671901 -1.97289733 0 0 Z " fill="#FAFAFA" transform="translate(239.6875,255.125)"/>
<path d="M0 0 C5.57894737 3.15789474 5.57894737 3.15789474 7 6 C7.45487581 10.54875813 7.71689456 13.67392638 4.9375 17.4375 C1.43901415 20.48937063 -0.3945905 21 -5 21 C-8.3173813 20.2460497 -9.60599495 19.46193695 -11.8125 16.875 C-13.35650671 13.13687849 -13.88496646 9.98234909 -13 6 C-9.02999967 1.08973643 -6.29462787 -0.60525268 0 0 Z " fill="#030303" transform="translate(391,423)"/>
<path d="M0 0 C2.75329021 1.79562405 4.52627461 3.05254922 6 6 C6.50698467 11.15434412 6.50698467 11.15434412 6 14 C3.5625 16.9375 3.5625 16.9375 1 19 C0.67 19.33 0.34 19.66 0 20 C-4.16400962 20.40038554 -6.32250696 20.44184328 -9.875 18.125 C-12.80038857 15.19961143 -12.96503325 14.42659437 -13.3125 10.1875 C-13.28232024 6.86772673 -13.0060988 6.00955479 -11.125 3.0625 C-7.52072687 -0.4357651 -4.96784874 -0.42100413 0 0 Z " fill="#050505" transform="translate(120,214)"/>
</svg>
