<?xml version="1.0" encoding="UTF-8"?>
<svg version="1.1" xmlns="http://www.w3.org/2000/svg" width="512" height="512">
<path d="M0 0 C0.7685582 -0.00988449 1.53711639 -0.01976898 2.32896423 -0.029953 C38.56046008 -0.39929247 73.02368736 4.75280758 102.7890625 27.00390625 C105.40993986 28.91851908 108.03495392 30.62503671 110.84765625 32.23828125 C111.61207031 31.66980469 112.37648438 31.10132812 113.1640625 30.515625 C135.98880712 13.91088516 162.69731764 7.48539286 190.83984375 11.88671875 C215.39127309 16.74877216 237.65638513 31.69304886 251.90234375 52.1953125 C266.64225567 75.19513732 272.05980958 101.53291391 266.71362305 128.54052734 C260.99420289 152.68666215 245.959247 174.45796291 225.12109375 188.01171875 C222.84765625 189.23828125 222.84765625 189.23828125 220.84765625 189.23828125 C220.90953125 190.20765625 220.97140625 191.17703125 221.03515625 192.17578125 C221.01882301 200.24440272 217.48680526 207.47981588 211.94140625 213.20703125 C200.24781332 224.24183021 186.45389217 227.9000407 170.5546875 227.5234375 C155.88916755 226.39532058 143.75964706 221.25746252 133.84765625 210.23828125 C128.81494453 203.09321576 126.91135367 195.25736923 128.2578125 186.6015625 C130.82208738 176.57478706 137.21141489 169.66904652 145.84765625 164.23828125 C160.46212976 156.69146296 174.66376795 155.71055674 190.48828125 159.484375 C199.03117739 161.40155983 202.43735729 161.07034901 209.8515625 156.38671875 C223.49846133 146.60080694 230.85729714 132.94963153 234.375 116.8203125 C234.64424367 114.97248953 234.75119888 113.10312383 234.84765625 111.23828125 C234.89792969 110.5834375 234.94820313 109.92859375 235 109.25390625 C235.8156464 91.37493717 227.95478435 75.91584017 216.22265625 63.05078125 C204.29570458 51.70620027 188.63315267 46.59377114 172.39306641 46.83544922 C161.05130359 47.2654111 151.64065108 50.5541435 141.84765625 56.23828125 C140.86539062 56.74488281 139.883125 57.25148437 138.87109375 57.7734375 C135.73305498 59.71371781 133.87836132 61.1390174 131.84765625 64.23828125 C131.02703671 68.78316456 131.47797017 73.37642135 131.7265625 77.9609375 C132.22692871 88.28182461 124.92950918 95.54226546 118.84765625 103.23828125 C117.96558101 104.36674623 117.08408059 105.49566073 116.203125 106.625 C113.89626011 109.57600839 111.57732163 112.51729485 109.25488281 115.45605469 C106.94689406 118.37907999 104.64767003 121.30897976 102.34765625 124.23828125 C101.43103273 125.40498181 100.51436603 126.57164846 99.59765625 127.73828125 C99.14390625 128.31578125 98.69015625 128.89328125 98.22265625 129.48828125 C96.16015625 132.11328125 96.16015625 132.11328125 94.09765625 134.73828125 C93.4166687 135.60501465 93.4166687 135.60501465 92.72192383 136.48925781 C91.8077561 137.65271448 90.89353109 138.81612614 89.97924805 139.97949219 C87.64886925 142.94490024 85.3195751 145.91114982 82.9921875 148.87890625 C82.52192139 149.47727295 82.05165527 150.07563965 81.56713867 150.69213867 C80.63732506 151.87913134 79.71162037 153.06935545 78.7902832 154.26293945 C76.71352135 156.94083936 74.62730427 159.47388837 72.30859375 161.953125 C68.22153009 166.21390192 68.22153009 166.21390192 66.69921875 171.69921875 C67.21724871 174.62301497 68.02167738 177.38585423 68.84765625 180.23828125 C69.43299741 183.0606619 69.92374903 185.89737662 70.41015625 188.73828125 C70.53986816 189.47908936 70.66958008 190.21989746 70.80322266 190.9831543 C76.4721667 223.77788643 71.76172674 258.41014026 56.84765625 288.23828125 C56.55546233 291.23413745 56.32029213 294.21620488 56.12109375 297.21875 C56.05277344 298.20214859 55.98445313 299.18554718 55.9140625 300.19874573 C55.67906686 303.60746312 55.45092169 307.01660697 55.22265625 310.42578125 C55.05431438 312.88379695 54.88585265 315.34180445 54.71728516 317.79980469 C53.51454682 335.46811889 52.41422612 353.14257599 51.32920456 370.81846046 C51.09758066 374.58716744 50.86496006 378.35581154 50.63198853 382.12443542 C50.47552447 384.65628049 50.31906085 387.18812558 50.16259766 389.7199707 C50.08480387 390.97822631 50.00701008 392.23648191 49.9268589 393.53286648 C49.4557827 401.1659341 48.99282675 408.79944599 48.53536606 416.43334103 C48.24363044 421.27506791 47.94526218 426.11637078 47.64529419 430.95759392 C47.50517035 433.24283386 47.36792075 435.52825201 47.2336731 437.81384468 C47.04781798 440.97243145 46.85198654 444.13025185 46.65380859 447.28808594 C46.60181997 448.21343738 46.54983135 449.13878881 46.49626732 450.09218121 C45.76550393 461.32043357 45.76550393 461.32043357 42.84765625 464.23828125 C40.9618757 464.35841302 39.07159616 464.40849329 37.18212891 464.43115234 C35.36486801 464.45524673 35.36486801 464.45524673 33.51089478 464.47982788 C27.96559722 464.52404808 22.4204318 464.56578486 16.875 464.58837891 C13.21707835 464.60503398 9.56005651 464.64981269 5.90247536 464.70075035 C3.09379008 464.73437065 0.28531973 464.7459504 -2.52354813 464.75160599 C-4.52840898 464.76160715 -6.53310095 464.79587444 -8.53768921 464.83041382 C-10.36440659 464.82613876 -10.36440659 464.82613876 -12.22802734 464.82177734 C-13.83899796 464.83390762 -13.83899796 464.83390762 -15.48251343 464.84628296 C-18.15234375 464.23828125 -18.15234375 464.23828125 -19.76428318 462.12683964 C-21.38319706 458.7578748 -21.72853519 456.13687046 -22.03114319 452.41334534 C-22.08946506 451.73952047 -22.14778694 451.0656956 -22.20787615 450.3714518 C-22.39952227 448.12159561 -22.57287558 445.87071027 -22.74633789 443.61938477 C-22.88034313 442.00269392 -23.01549908 440.3860981 -23.15171814 438.76959229 C-23.44230864 435.29219049 -23.72484007 431.81426094 -24.00114632 428.33569527 C-24.43829118 422.8339295 -24.89382146 417.33378054 -25.35191345 411.83372498 C-26.15671911 402.14239849 -26.94587031 392.44984478 -27.73162842 382.75695801 C-28.91454157 368.16686079 -30.11010938 353.57780625 -31.31971639 338.98989815 C-31.77238367 333.52365372 -32.21702546 328.0568329 -32.65527928 322.58941472 C-32.92942187 319.18646222 -33.20963619 315.78402867 -33.49138832 312.38169861 C-33.62058798 310.80573563 -33.74721355 309.22955915 -33.87105179 307.65316582 C-34.04066923 305.49821643 -34.21949633 303.34421699 -34.40052795 301.19020081 C-34.54677911 299.38308797 -34.54677911 299.38308797 -34.69598484 297.53946781 C-35.5153517 291.61237228 -37.82018202 286.74442469 -40.46484375 281.42578125 C-51.84593066 257.68817067 -53.34468549 231.51784521 -51.33984375 205.61328125 C-51.2536377 204.48116211 -51.16743164 203.34904297 -51.07861328 202.18261719 C-50.42516475 194.21213054 -49.33947824 186.46050339 -47.73828125 178.62890625 C-46.83781745 173.41822238 -46.33516918 170.12331207 -49.28515625 165.6015625 C-50.26798284 164.24066076 -51.26648763 162.8909945 -52.27734375 161.55078125 C-52.81431885 160.81529053 -53.35129395 160.0797998 -53.90454102 159.32202148 C-55.64053089 156.9506758 -57.39580723 154.59443481 -59.15234375 152.23828125 C-60.30596594 150.67151344 -61.45831413 149.10380675 -62.609375 147.53515625 C-64.94832658 144.35091554 -67.29413111 141.17189172 -69.64453125 137.99609375 C-74.11702499 131.94303899 -78.51828126 125.83933647 -82.9140625 119.73046875 C-85.13497986 116.64432042 -87.36790316 113.56734425 -89.609375 110.49609375 C-108.70018611 84.3050589 -108.70018611 84.3050589 -107.81665039 74.42749023 C-107.44739744 69.78851002 -107.1978876 65.6909062 -109.84375 61.6640625 C-112.49331363 59.44227027 -115.08991065 57.84831042 -118.15234375 56.23828125 C-118.74660156 55.92036621 -119.34085937 55.60245117 -119.953125 55.27490234 C-134.31157146 47.71293585 -149.65129015 44.451102 -165.77734375 48.23828125 C-182.91614654 53.8540868 -195.8318424 62.98172569 -204.66015625 78.96875 C-212.76937549 95.79416597 -213.04199788 112.73444935 -207.15234375 130.23828125 C-201.74787146 143.2812934 -191.74199197 152.74090639 -180.02734375 160.23828125 C-174.59360286 162.12827808 -168.85512376 159.97615621 -163.40234375 158.67578125 C-147.78009259 155.33051017 -132.83901246 157.77598681 -119.15234375 166.23828125 C-111.87091803 171.3994915 -106.17447749 178.11937016 -104.375 187.046875 C-103.39476342 196.69446664 -105.99740369 204.28164151 -111.4765625 212.13671875 C-118.35585063 220.11741522 -131.07727838 225.79728965 -141.3984375 227.05859375 C-142.30722656 227.11789063 -143.21601563 227.1771875 -144.15234375 227.23828125 C-145.74755859 227.35816406 -145.74755859 227.35816406 -147.375 227.48046875 C-161.69205836 228.02926242 -175.29292602 224.67772262 -186.39453125 215.35546875 C-192.64364877 209.51838096 -195.90314675 204.26698164 -196.71484375 195.73828125 C-197.273456 192.1493211 -197.7422989 190.63892472 -200.3671875 188.07421875 C-202.26500926 186.73802447 -204.19280015 185.44364025 -206.14453125 184.1875 C-226.08625549 171.26422676 -238.09618287 149.30441142 -243.2578125 126.640625 C-248.28892218 100.41636873 -242.60269325 74.39548382 -228.15234375 52.23828125 C-212.97705388 30.99287543 -191.01579065 16.58353013 -165.30053711 11.69628906 C-140.29824266 8.05888663 -113.74384055 12.72661722 -93.05078125 27.765625 C-92.14199219 28.46365234 -92.14199219 28.46365234 -91.21484375 29.17578125 C-88.49581721 31.47049548 -88.49581721 31.47049548 -86.20703125 31.078125 C-83.69904398 30.05299712 -82.21858486 28.69164837 -80.21484375 26.86328125 C-58.75768056 9.29305631 -27.46405621 0.28990126 0 0 Z " fill="#4AD07F" transform="translate(244.15234375,23.76171875)"/>
<path d="M0 0 C0.7685582 -0.00988449 1.53711639 -0.01976898 2.32896423 -0.029953 C38.56046008 -0.39929247 73.02368736 4.75280758 102.7890625 27.00390625 C105.40993986 28.91851908 108.03495392 30.62503671 110.84765625 32.23828125 C111.61207031 31.66980469 112.37648438 31.10132812 113.1640625 30.515625 C135.98880712 13.91088516 162.69731764 7.48539286 190.83984375 11.88671875 C215.39127309 16.74877216 237.65638513 31.69304886 251.90234375 52.1953125 C266.64225567 75.19513732 272.05980958 101.53291391 266.71362305 128.54052734 C260.99420289 152.68666215 245.959247 174.45796291 225.12109375 188.01171875 C222.84765625 189.23828125 222.84765625 189.23828125 220.84765625 189.23828125 C220.90953125 190.20765625 220.97140625 191.17703125 221.03515625 192.17578125 C221.01882301 200.24440272 217.48680526 207.47981588 211.94140625 213.20703125 C200.24781332 224.24183021 186.45389217 227.9000407 170.5546875 227.5234375 C155.88916755 226.39532058 143.75964706 221.25746252 133.84765625 210.23828125 C128.81494453 203.09321576 126.91135367 195.25736923 128.2578125 186.6015625 C130.82208738 176.57478706 137.21141489 169.66904652 145.84765625 164.23828125 C160.46212976 156.69146296 174.66376795 155.71055674 190.48828125 159.484375 C199.03117739 161.40155983 202.43735729 161.07034901 209.8515625 156.38671875 C223.49846133 146.60080694 230.85729714 132.94963153 234.375 116.8203125 C234.64424367 114.97248953 234.75119888 113.10312383 234.84765625 111.23828125 C234.89792969 110.5834375 234.94820313 109.92859375 235 109.25390625 C235.8156464 91.37493717 227.95478435 75.91584017 216.22265625 63.05078125 C204.29570458 51.70620027 188.63315267 46.59377114 172.39306641 46.83544922 C161.05130359 47.2654111 151.64065108 50.5541435 141.84765625 56.23828125 C140.86539062 56.74488281 139.883125 57.25148437 138.87109375 57.7734375 C135.73305498 59.71371781 133.87836132 61.1390174 131.84765625 64.23828125 C131.02703671 68.78316456 131.47797017 73.37642135 131.7265625 77.9609375 C132.22692871 88.28182461 124.92950918 95.54226546 118.84765625 103.23828125 C117.96558101 104.36674623 117.08408059 105.49566073 116.203125 106.625 C113.89626011 109.57600839 111.57732163 112.51729485 109.25488281 115.45605469 C106.94689406 118.37907999 104.64767003 121.30897976 102.34765625 124.23828125 C101.43103273 125.40498181 100.51436603 126.57164846 99.59765625 127.73828125 C99.14390625 128.31578125 98.69015625 128.89328125 98.22265625 129.48828125 C96.16015625 132.11328125 96.16015625 132.11328125 94.09765625 134.73828125 C93.4166687 135.60501465 93.4166687 135.60501465 92.72192383 136.48925781 C91.8077561 137.65271448 90.89353109 138.81612614 89.97924805 139.97949219 C87.64886925 142.94490024 85.3195751 145.91114982 82.9921875 148.87890625 C82.52192139 149.47727295 82.05165527 150.07563965 81.56713867 150.69213867 C80.63732506 151.87913134 79.71162037 153.06935545 78.7902832 154.26293945 C76.71352135 156.94083936 74.62730427 159.47388837 72.30859375 161.953125 C68.22153009 166.21390192 68.22153009 166.21390192 66.69921875 171.69921875 C67.21724871 174.62301497 68.02167738 177.38585423 68.84765625 180.23828125 C69.43299741 183.0606619 69.92374903 185.89737662 70.41015625 188.73828125 C70.53986816 189.47908936 70.66958008 190.21989746 70.80322266 190.9831543 C76.4721667 223.77788643 71.76172674 258.41014026 56.84765625 288.23828125 C56.55546233 291.23413745 56.32029213 294.21620488 56.12109375 297.21875 C56.05277344 298.20214859 55.98445313 299.18554718 55.9140625 300.19874573 C55.67906686 303.60746312 55.45092169 307.01660697 55.22265625 310.42578125 C55.05431438 312.88379695 54.88585265 315.34180445 54.71728516 317.79980469 C53.51454682 335.46811889 52.41422612 353.14257599 51.32920456 370.81846046 C51.09758066 374.58716744 50.86496006 378.35581154 50.63198853 382.12443542 C50.47552447 384.65628049 50.31906085 387.18812558 50.16259766 389.7199707 C50.08480387 390.97822631 50.00701008 392.23648191 49.9268589 393.53286648 C49.4557827 401.1659341 48.99282675 408.79944599 48.53536606 416.43334103 C48.24363044 421.27506791 47.94526218 426.11637078 47.64529419 430.95759392 C47.50517035 433.24283386 47.36792075 435.52825201 47.2336731 437.81384468 C47.04781798 440.97243145 46.85198654 444.13025185 46.65380859 447.28808594 C46.60181997 448.21343738 46.54983135 449.13878881 46.49626732 450.09218121 C45.76550393 461.32043357 45.76550393 461.32043357 42.84765625 464.23828125 C40.9618757 464.35841302 39.07159616 464.40849329 37.18212891 464.43115234 C35.36486801 464.45524673 35.36486801 464.45524673 33.51089478 464.47982788 C27.96559722 464.52404808 22.4204318 464.56578486 16.875 464.58837891 C13.21707835 464.60503398 9.56005651 464.64981269 5.90247536 464.70075035 C3.09379008 464.73437065 0.28531973 464.7459504 -2.52354813 464.75160599 C-4.52840898 464.76160715 -6.53310095 464.79587444 -8.53768921 464.83041382 C-10.36440659 464.82613876 -10.36440659 464.82613876 -12.22802734 464.82177734 C-13.83899796 464.83390762 -13.83899796 464.83390762 -15.48251343 464.84628296 C-18.15234375 464.23828125 -18.15234375 464.23828125 -19.76428318 462.12683964 C-21.38319706 458.7578748 -21.72853519 456.13687046 -22.03114319 452.41334534 C-22.08946506 451.73952047 -22.14778694 451.0656956 -22.20787615 450.3714518 C-22.39952227 448.12159561 -22.57287558 445.87071027 -22.74633789 443.61938477 C-22.88034313 442.00269392 -23.01549908 440.3860981 -23.15171814 438.76959229 C-23.44230864 435.29219049 -23.72484007 431.81426094 -24.00114632 428.33569527 C-24.43829118 422.8339295 -24.89382146 417.33378054 -25.35191345 411.83372498 C-26.15671911 402.14239849 -26.94587031 392.44984478 -27.73162842 382.75695801 C-28.91454157 368.16686079 -30.11010938 353.57780625 -31.31971639 338.98989815 C-31.77238367 333.52365372 -32.21702546 328.0568329 -32.65527928 322.58941472 C-32.92942187 319.18646222 -33.20963619 315.78402867 -33.49138832 312.38169861 C-33.62058798 310.80573563 -33.74721355 309.22955915 -33.87105179 307.65316582 C-34.04066923 305.49821643 -34.21949633 303.34421699 -34.40052795 301.19020081 C-34.54677911 299.38308797 -34.54677911 299.38308797 -34.69598484 297.53946781 C-35.5153517 291.61237228 -37.82018202 286.74442469 -40.46484375 281.42578125 C-51.84593066 257.68817067 -53.34468549 231.51784521 -51.33984375 205.61328125 C-51.2536377 204.48116211 -51.16743164 203.34904297 -51.07861328 202.18261719 C-50.42516475 194.21213054 -49.33947824 186.46050339 -47.73828125 178.62890625 C-46.83781745 173.41822238 -46.33516918 170.12331207 -49.28515625 165.6015625 C-50.26798284 164.24066076 -51.26648763 162.8909945 -52.27734375 161.55078125 C-52.81431885 160.81529053 -53.35129395 160.0797998 -53.90454102 159.32202148 C-55.64053089 156.9506758 -57.39580723 154.59443481 -59.15234375 152.23828125 C-60.30596594 150.67151344 -61.45831413 149.10380675 -62.609375 147.53515625 C-64.94832658 144.35091554 -67.29413111 141.17189172 -69.64453125 137.99609375 C-74.11702499 131.94303899 -78.51828126 125.83933647 -82.9140625 119.73046875 C-85.13497986 116.64432042 -87.36790316 113.56734425 -89.609375 110.49609375 C-108.70018611 84.3050589 -108.70018611 84.3050589 -107.81665039 74.42749023 C-107.44739744 69.78851002 -107.1978876 65.6909062 -109.84375 61.6640625 C-112.49331363 59.44227027 -115.08991065 57.84831042 -118.15234375 56.23828125 C-118.74660156 55.92036621 -119.34085937 55.60245117 -119.953125 55.27490234 C-134.31157146 47.71293585 -149.65129015 44.451102 -165.77734375 48.23828125 C-182.91614654 53.8540868 -195.8318424 62.98172569 -204.66015625 78.96875 C-212.76937549 95.79416597 -213.04199788 112.73444935 -207.15234375 130.23828125 C-201.74787146 143.2812934 -191.74199197 152.74090639 -180.02734375 160.23828125 C-174.59360286 162.12827808 -168.85512376 159.97615621 -163.40234375 158.67578125 C-147.78009259 155.33051017 -132.83901246 157.77598681 -119.15234375 166.23828125 C-111.87091803 171.3994915 -106.17447749 178.11937016 -104.375 187.046875 C-103.39476342 196.69446664 -105.99740369 204.28164151 -111.4765625 212.13671875 C-118.35585063 220.11741522 -131.07727838 225.79728965 -141.3984375 227.05859375 C-142.30722656 227.11789063 -143.21601563 227.1771875 -144.15234375 227.23828125 C-145.74755859 227.35816406 -145.74755859 227.35816406 -147.375 227.48046875 C-161.69205836 228.02926242 -175.29292602 224.67772262 -186.39453125 215.35546875 C-192.64364877 209.51838096 -195.90314675 204.26698164 -196.71484375 195.73828125 C-197.273456 192.1493211 -197.7422989 190.63892472 -200.3671875 188.07421875 C-202.26500926 186.73802447 -204.19280015 185.44364025 -206.14453125 184.1875 C-226.08625549 171.26422676 -238.09618287 149.30441142 -243.2578125 126.640625 C-248.28892218 100.41636873 -242.60269325 74.39548382 -228.15234375 52.23828125 C-212.97705388 30.99287543 -191.01579065 16.58353013 -165.30053711 11.69628906 C-140.29824266 8.05888663 -113.74384055 12.72661722 -93.05078125 27.765625 C-92.14199219 28.46365234 -92.14199219 28.46365234 -91.21484375 29.17578125 C-88.49581721 31.47049548 -88.49581721 31.47049548 -86.20703125 31.078125 C-83.69904398 30.05299712 -82.21858486 28.69164837 -80.21484375 26.86328125 C-58.75768056 9.29305631 -27.46405621 0.28990126 0 0 Z M-86.15234375 46.23828125 C-92.9610867 54.37862338 -98.77334555 63.78927772 -98.62109375 74.65625 C-97.1992067 82.48847785 -93.53843417 87.92729641 -88.77734375 94.11328125 C-87.50956752 95.79623567 -86.24266042 97.47984511 -84.9765625 99.1640625 C-84.33638184 100.01049316 -83.69620117 100.85692383 -83.03662109 101.72900391 C-80.16841074 105.54857711 -77.37696377 109.42184374 -74.58984375 113.30078125 C-73.51435283 114.79299031 -72.43883199 116.28517781 -71.36328125 117.77734375 C-69.75789775 120.00731414 -68.15287461 122.23754361 -66.54785156 124.46777344 C-59.72328023 133.94749714 -52.85565729 143.392603 -45.90844727 152.78295898 C-44.82373596 154.25000355 -43.74344099 155.72032681 -42.66821289 157.19433594 C-41.68337126 158.5222622 -40.67310673 159.83183522 -39.63452148 161.11816406 C-37.41215977 163.94726209 -36.19511683 165.83414942 -35.8125 169.44921875 C-35.94527344 170.49335938 -36.07804687 171.5375 -36.21484375 172.61328125 C-36.32957031 173.65226563 -36.44429687 174.69125 -36.5625 175.76171875 C-37.01268044 178.41510014 -37.53686059 180.99070262 -38.140625 183.609375 C-45.5450463 216.21210662 -43.85170509 254.70832557 -27.15234375 284.23828125 C-26.16234375 285.72328125 -26.16234375 285.72328125 -25.15234375 287.23828125 C-24.70423889 290.17285156 -24.70423889 290.17285156 -24.42211914 293.81640625 C-24.34112724 294.81537933 -24.34112724 294.81537933 -24.25849915 295.83453369 C-24.08077284 298.05188392 -23.9154521 300.26998409 -23.75 302.48828125 C-23.62631963 304.05930764 -23.50182791 305.63027034 -23.37657166 307.20117188 C-23.04624969 311.3694674 -22.72620438 315.53848922 -22.4085083 319.70776367 C-22.09479477 323.80690102 -21.77300832 327.90539991 -21.45117188 332.00390625 C-21.32397301 333.6246587 -21.19678084 335.24541167 -21.06959534 336.86616516 C-20.97509189 338.07000571 -20.97509189 338.07000571 -20.87867928 339.29816628 C-20.68627883 341.75386763 -20.49496084 344.20965153 -20.30381775 346.66545105 C-19.12259616 361.80826828 -17.83203959 376.94083851 -16.51455688 392.07232666 C-16.1565786 396.18521401 -15.80180612 400.29837313 -15.44799805 404.41162109 C-15.36243511 405.40625964 -15.36243511 405.40625964 -15.27514362 406.4209919 C-15.21856177 407.07877569 -15.16197992 407.73655949 -15.10368347 408.41427612 C-14.55847949 414.75153728 -14.01152372 421.08864728 -13.46484375 427.42578125 C-13.23762191 430.06054616 -13.01040836 432.69531178 -12.78320312 435.33007812 C-12.23969276 441.63282195 -11.69601598 447.93555138 -11.15234375 454.23828125 C4.35765625 454.23828125 19.86765625 454.23828125 35.84765625 454.23828125 C36.85703225 437.89291347 37.86572288 421.54750384 38.87324333 405.2020216 C39.3872409 396.86356433 39.90164518 388.52513241 40.41682982 380.18674839 C40.64473551 376.49740713 40.87236925 372.80804948 41.09939957 369.11865425 C41.18916873 367.6600048 41.27894 366.20135549 41.36871338 364.7427063 C41.41284182 364.02558853 41.45697026 363.30847077 41.50243592 362.56962216 C41.76776783 358.26272795 42.03568783 353.95600363 42.30557752 349.64939272 C43.4625047 331.17437438 43.4625047 331.17437438 44.37597656 312.68603516 C44.45060762 311.0468928 44.52539744 309.40775765 44.60037231 307.76863098 C44.72719687 304.97961837 44.8264373 302.19481425 44.90719604 299.40361023 C45.28583733 290.8642834 47.39372486 284.02739286 50.84765625 276.23828125 C54.1396058 268.40920376 56.61779881 260.74249738 58.59765625 252.48828125 C58.91379883 251.17537109 58.91379883 251.17537109 59.23632812 249.8359375 C61.6988273 239.16241649 62.08548493 228.72572349 62.09765625 217.80078125 C62.09899567 217.090961 62.10033508 216.38114075 62.10171509 215.64981079 C62.09590875 201.450921 60.73059106 188.19395358 56.3984375 174.59765625 C55.55765391 170.99600171 54.86708401 167.94366798 56.80053711 164.58105469 C58.1849379 162.73097986 59.64641068 160.98409611 61.16015625 159.23828125 C62.27028793 157.90688056 63.37964624 156.5748347 64.48828125 155.2421875 C65.05224609 154.5733252 65.61621094 153.90446289 66.19726562 153.21533203 C68.66903247 150.25433086 71.04042156 147.21858432 73.41015625 144.17578125 C74.32005367 143.01542199 75.23020991 141.85526564 76.140625 140.6953125 C77.93690944 138.40260976 79.73066805 136.1079518 81.5234375 133.8125 C86.42304633 127.547543 91.37920914 121.33591447 96.41015625 115.17578125 C101.27430502 109.21660739 106.0385991 103.19600503 110.69140625 97.0703125 C112.00541334 95.34448798 113.33496585 93.63017668 114.69140625 91.9375 C119.63230034 85.70083222 122.5244475 79.68603504 122.19140625 71.58203125 C120.09751589 57.30550604 109.28940886 44.85514488 98.3359375 36.26953125 C95.88339182 34.51386276 93.38819909 32.86342215 90.84765625 31.23828125 C90.13867188 30.74972656 89.4296875 30.26117188 88.69921875 29.7578125 C39.27405308 -2.58532223 -45.04264714 2.48851238 -86.15234375 46.23828125 Z " fill="#333432" transform="translate(244.15234375,23.76171875)"/>
<path d="M0 0 C36.6298781 -1.1355901 73.45373453 6.38690624 101.74267578 31.078125 C102.37947266 31.63113281 103.01626953 32.18414062 103.67236328 32.75390625 C111.89023913 40.40566176 119.61762876 52.08532497 120.24267578 63.578125 C119.62162336 73.727896 114.154756 80.40805364 107.66845703 87.73046875 C104.44579591 91.37141037 101.52262476 95.19175434 98.58178711 99.06396484 C95.38307785 103.26411277 92.11211443 107.40021768 88.80517578 111.515625 C83.53097692 118.08268481 78.31312085 124.69165257 73.11914062 131.32226562 C71.22048942 133.74424141 69.31812183 136.16327681 67.41381836 138.58081055 C66.47634367 139.77467756 65.54249807 140.97140442 64.61254883 142.17114258 C62.62654609 144.7279898 60.63261711 147.20005644 58.46142578 149.60546875 C55.00537281 153.45402277 55.00537281 153.45402277 53.40283203 158.25 C53.58099377 160.97267689 54.09798227 163.42350464 54.74267578 166.078125 C55.05993619 167.45553271 55.37626936 168.83315417 55.69189453 170.2109375 C56.20413851 172.42495102 56.72533311 174.63435206 57.28100586 176.83789062 C59.59849601 186.08626304 59.92908015 195.02794757 59.92797852 204.52954102 C59.93014568 206.61170515 59.94829672 208.69332113 59.96728516 210.77539062 C60.02343028 223.64920968 58.74482051 236.12220297 55.05517578 248.515625 C54.79969971 249.39597412 54.54422363 250.27632324 54.28100586 251.18334961 C52.12231243 258.36189797 49.34308373 265.14730392 46.16064453 271.92578125 C44.27052038 276.12779278 43.61184031 279.67370327 43.33216858 284.25892639 C43.266371 285.30768448 43.20057343 286.35644257 43.13278198 287.4369812 C43.06471344 288.58320953 42.9966449 289.72943787 42.92651367 290.91040039 C42.85155167 292.12272842 42.77658966 293.33505646 42.69935608 294.5841217 C42.49406837 297.91655195 42.29213792 301.24915385 42.09171224 304.58187795 C41.87906522 308.10507445 41.66223729 311.62801377 41.44590759 315.15098572 C41.08117421 321.10026414 40.7191925 327.04970466 40.35913086 332.99926758 C39.85923742 341.2592861 39.35440695 349.51899703 38.84853864 357.77865148 C37.08758229 386.54182063 35.35471636 415.30615474 33.74267578 444.078125 C18.23267578 444.078125 2.72267578 444.078125 -13.25732422 444.078125 C-13.63244141 439.458125 -14.00755859 434.838125 -14.39404297 430.078125 C-14.9097726 423.74469367 -15.42694817 417.41138116 -15.94482422 411.078125 C-16.01224949 410.25342587 -16.07967476 409.42872673 -16.14914322 408.57903671 C-18.18190026 383.72898988 -20.2761374 358.8865126 -22.5769043 334.05957031 C-23.51144467 323.9131452 -24.37815594 313.77705881 -24.98779297 303.60546875 C-25.10051315 301.83551039 -25.21354061 300.06557156 -25.3269043 298.2956543 C-25.52905147 295.12710334 -25.69276477 291.9602569 -25.83032227 288.78833008 C-26.29350068 280.47254727 -27.97999467 274.64429726 -32.58203125 267.63867188 C-49.23713947 242.18271516 -45.02282788 200.58251069 -40.25732422 172.078125 C-39.90344506 170.47746836 -39.53711085 168.87949153 -39.15576172 167.28515625 C-37.53311203 160.55104478 -37.53311203 160.55104478 -39.36816406 154.04443359 C-40.97549252 151.70721734 -42.68143211 149.48741161 -44.44482422 147.265625 C-45.74009647 145.57368283 -47.03434407 143.88095582 -48.32763672 142.1875 C-48.98666992 141.33478516 -49.64570313 140.48207031 -50.32470703 139.60351562 C-53.23684424 135.79816604 -56.0298558 131.91094744 -58.81982422 128.015625 C-59.8937387 126.52452039 -60.96795778 125.03363512 -62.04248047 123.54296875 C-62.57244629 122.80675293 -63.10241211 122.07053711 -63.6484375 121.31201172 C-66.34744558 117.56452705 -69.05277173 113.82160905 -71.75732422 110.078125 C-72.83285085 108.58854586 -73.90837168 107.09896252 -74.98388672 105.609375 C-77.22668137 102.50375929 -79.47177783 99.39982299 -81.71826172 96.296875 C-84.44076345 92.53610818 -87.15622563 88.77034243 -89.86816406 85.00195312 C-91.09092661 83.30856668 -92.32373661 81.62244493 -93.55810547 79.9375 C-99.34747097 71.93067566 -99.34747097 71.93067566 -100.25732422 67.078125 C-100.38494141 66.41039063 -100.51255859 65.74265625 -100.64404297 65.0546875 C-101.65137303 55.11349574 -95.68719304 45.33980784 -89.76904297 37.734375 C-70.29353032 14.53247425 -37.74909606 3.39729551 -8.44482422 0.328125 C-5.63030457 0.17197967 -2.81690116 0.09749171 0 0 Z M-18.25732422 15.078125 C-19.40845703 15.27277344 -20.55958984 15.46742187 -21.74560547 15.66796875 C-44.12281225 19.95080901 -67.76007782 29.8139768 -81.66357422 48.63671875 C-85.43943388 54.4208175 -87.97086994 58.82661149 -86.87963867 65.93652344 C-85.69709311 70.00607608 -83.13853759 73.08247853 -80.56982422 76.390625 C-79.99039063 77.1640625 -79.41095703 77.9375 -78.81396484 78.734375 C-77.58982725 80.36743503 -76.35938533 81.9957862 -75.12304688 83.61962891 C-72.12301873 87.57281962 -69.19487908 91.57843599 -66.25732422 95.578125 C-65.08164336 97.17064704 -63.90586218 98.76309501 -62.72998047 100.35546875 C-57.72924509 107.1426795 -52.80453849 113.98451708 -47.87939453 120.82666016 C-45.66721767 123.89720426 -43.45035468 126.96431494 -41.2277832 130.02734375 C-40.12863374 131.55265439 -39.03944173 133.0851935 -37.96069336 134.625 C-35.4963375 138.12323699 -33.04832845 141.38952691 -30.04248047 144.44140625 C-26.16374541 148.56881852 -23.21114432 151.98568301 -23.29931641 157.89013672 C-24.10407323 164.36974677 -25.76240202 170.57551936 -27.46362305 176.8659668 C-30.14645893 187.72357114 -30.63063965 198.62640441 -30.56982422 209.765625 C-30.56709 210.81120071 -30.56709 210.81120071 -30.56430054 211.87789917 C-30.48559626 229.81760333 -29.53354652 250.36964164 -18.56982422 265.390625 C-15.66195177 269.71520988 -14.63574297 273.39427515 -14.20849609 278.50708008 C-14.13387398 279.27414433 -14.05925186 280.04120859 -13.98236847 280.83151722 C-13.7226639 283.57905528 -13.48836231 286.3280299 -13.25732422 289.078125 C-13.16467285 290.15352413 -13.07202148 291.22892326 -12.9765625 292.33691025 C-12.31273702 300.08356377 -11.68567865 307.83298116 -11.06983948 315.58356285 C-10.72005988 319.98528106 -10.36505115 324.38656866 -10.00915527 328.78779602 C-8.9990844 341.28730288 -7.99415922 353.7872145 -6.99804688 366.2878418 C-6.44513192 373.22604253 -5.88712138 380.16381429 -5.32352304 387.10115558 C-4.96880372 391.47090286 -4.62030134 395.84108598 -4.27648163 400.21170366 C-4.01086389 403.5643766 -3.73591609 406.91627276 -3.46240234 410.26831055 C-3.36987686 411.46786377 -3.27735138 412.66741699 -3.18202209 413.90332031 C-2.71555407 419.51168777 -2.26574779 424.79363419 -0.25732422 430.078125 C3.01508669 431.71433045 6.58733841 431.34612247 10.18017578 431.390625 C11.34516602 431.43413086 11.34516602 431.43413086 12.53369141 431.47851562 C16.9080977 431.64176179 16.9080977 431.64176179 20.44553185 429.41303921 C22.02406608 426.57161051 22.24163039 424.53560202 22.43838501 421.29371643 C22.51679123 420.11219498 22.59519745 418.93067352 22.67597961 417.71334839 C22.74777939 416.42034821 22.81957916 415.12734802 22.89355469 413.79516602 C22.97986541 412.41659749 23.06738486 411.03810419 23.15602112 409.65968323 C23.3933306 405.91603889 23.61376603 402.17156756 23.83128786 398.42672849 C24.06245058 394.49773296 24.30930831 390.56972459 24.55453491 386.6415863 C25.01745436 379.18861537 25.46658253 371.73488084 25.9106344 364.28076452 C26.46291862 355.02045206 27.032261 345.76120213 27.60205078 336.50195312 C27.80226289 333.24666747 28.00233583 329.99137331 28.20223999 326.73606873 C28.25077035 325.94578638 28.29930072 325.15550403 28.3493017 324.34127373 C28.68128826 318.92724508 29.00875885 313.51295544 29.33413696 308.098526 C29.46499817 305.9271338 29.59591569 303.75574499 29.72683525 301.58435631 C29.8454844 299.61050411 29.9629826 297.63658282 30.08042908 295.66265869 C30.29318433 292.13391906 30.51527862 288.60594919 30.74267578 285.078125 C30.81746532 283.87546934 30.89225487 282.67281368 30.96931076 281.43371391 C31.04794987 280.27564798 31.12658897 279.11758205 31.20761108 277.92442322 C31.30946748 276.37953421 31.30946748 276.37953421 31.41338158 274.80343533 C31.88917506 270.86566518 33.10527899 268.25730906 34.99267578 264.765625 C37.59149462 259.65813135 39.77575419 254.6121259 41.49267578 249.140625 C41.85876953 247.97660156 42.22486328 246.81257812 42.60205078 245.61328125 C45.93699559 233.0883412 47.26109409 221.06626825 47.11767578 208.140625 C47.11335541 207.39799408 47.10903503 206.65536316 47.10458374 205.89022827 C46.9993406 190.44730223 45.11094616 176.78707976 39.73095703 162.25 C38.76871677 159.16170318 38.19881545 157.25406411 38.74267578 154.078125 C40.54345703 151.45703125 40.54345703 151.45703125 43.05517578 148.640625 C43.98158432 147.57850268 44.90599002 146.51463084 45.82861328 145.44921875 C46.55129395 144.62139893 46.55129395 144.62139893 47.28857422 143.77685547 C49.67509164 140.98884536 51.9265885 138.09885914 54.18017578 135.203125 C54.63763184 134.61789063 55.09508789 134.03265625 55.56640625 133.4296875 C56.49691047 132.23895476 57.42676032 131.04771037 58.35595703 129.85595703 C60.62527709 126.94659283 62.90187306 124.04295791 65.18017578 121.140625 C65.63126709 120.56586426 66.0823584 119.99110352 66.54711914 119.39892578 C69.92178092 115.10607403 73.32699663 110.83838247 76.74267578 106.578125 C81.47956549 100.66689405 86.20504791 94.74791549 90.85205078 88.765625 C92.96883973 86.04446453 95.13581697 83.36978256 97.32080078 80.703125 C98.52432515 79.20344542 99.72745618 77.70345007 100.93017578 76.203125 C101.50759521 75.5136377 102.08501465 74.82415039 102.67993164 74.11376953 C105.32722288 70.77054297 107.1074017 68.25316647 107.25830078 63.90625 C105.76014562 52.78358292 97.29851108 43.55863734 88.83642578 36.734375 C58.15632336 14.55964751 18.59962455 8.68744359 -18.25732422 15.078125 Z " fill="#FBCC00" transform="translate(246.25732421875,33.921875)"/>
<path d="M0 0 C8.22494759 7.12746582 15.91712179 15.01865995 17.45703125 26.21484375 C17.2941896 31.66971984 14.08337316 34.99138076 10.6875 39 C10.05287842 39.78084961 9.41825684 40.56169922 8.7644043 41.36621094 C7.46127991 42.96750372 6.15030343 44.5624386 4.83154297 46.15087891 C2.59281957 48.85362231 0.40350673 51.59287538 -1.78051758 54.33984375 C-3.2464306 56.18301201 -4.72003726 58.01978906 -6.1953125 59.85546875 C-10.86560385 65.67831338 -15.46013695 71.56094271 -20.0625 77.4375 C-25.25036832 84.06166351 -30.44351413 90.68083911 -35.70068359 97.25024414 C-36.72422817 98.53007809 -37.74543457 99.8117859 -38.76416016 101.09545898 C-41.00109976 103.90696764 -43.25871728 106.66055551 -45.6328125 109.359375 C-46.37273437 110.21015625 -47.11265625 111.0609375 -47.875 111.9375 C-48.52082031 112.6490625 -49.16664063 113.360625 -49.83203125 114.09375 C-52.38772071 118.96172993 -49.83875693 124.49827738 -48.29492188 129.4609375 C-47.85544848 130.83957706 -47.41284444 132.2172234 -46.96679688 133.59375 C-43.27498753 145.52283965 -42.65180987 157.60517833 -42.6875 170 C-42.68837616 170.74661896 -42.68925232 171.49323792 -42.69015503 172.26248169 C-42.76612627 191.94218741 -45.71920099 212.53911871 -56.04804993 229.74505615 C-58.92486211 235.5228774 -58.97917104 241.49971204 -59.3269043 247.8515625 C-59.41304996 249.19631926 -59.50072897 250.54097853 -59.58981323 251.88554382 C-59.82625221 255.5194844 -60.04133681 259.15440564 -60.25250602 262.78989029 C-60.47839634 266.6148667 -60.72415806 270.43856725 -60.96772766 274.26245117 C-61.42657836 281.5132072 -61.86773771 288.76492606 -62.30247766 296.01716328 C-62.79450156 304.21089186 -63.30605631 312.40336238 -63.81938684 320.59577942 C-64.53527053 332.02568965 -65.24480394 343.45596338 -65.93708515 354.8873291 C-66.09961323 357.57001318 -66.2647656 360.25249358 -66.43130016 362.93493652 C-66.75842657 368.22694843 -67.07862922 373.51629069 -67.29824829 378.81396484 C-67.33309484 379.5712236 -67.36794138 380.32848236 -67.40384388 381.10868835 C-67.48607347 382.95897793 -67.55323913 384.80992237 -67.6184845 386.66088867 C-68.12020111 389.79832871 -68.77481437 391.24291037 -71.0625 393.4375 C-74.04409657 393.81616276 -76.5926562 393.95184905 -79.5625 393.875 C-80.33464844 393.88208984 -81.10679687 393.88917969 -81.90234375 393.89648438 C-87.45946308 393.83388251 -87.45946308 393.83388251 -89.74230957 392.33334351 C-91.69861408 389.52401607 -91.74783774 387.07224391 -92.09179688 383.67041016 C-92.20584492 382.57166533 -92.20584492 382.57166533 -92.32219696 381.45072365 C-92.58941535 378.78118673 -92.8287513 376.11017656 -93.0625 373.4375 C-93.15560455 372.37718315 -93.24870911 371.3168663 -93.34463501 370.22441864 C-94.01274202 362.49816207 -94.63691691 354.768567 -95.24998474 347.03779221 C-95.59938875 342.63192289 -95.95455514 338.2265289 -96.31066895 333.82119751 C-97.32132336 321.3089248 -98.32532121 308.7961263 -99.32177734 296.28271484 C-99.87470192 289.3397615 -100.43273728 282.3972378 -100.99630117 275.45513976 C-101.35108294 271.08121583 -101.69958519 266.70685258 -102.04334259 262.33204913 C-102.30897122 258.97529149 -102.58391811 255.61930852 -102.85742188 252.26318359 C-102.94994736 251.06205933 -103.04247284 249.86093506 -103.13780212 248.62341309 C-103.773341 240.9723603 -104.43696589 234.4013386 -108.875 227.9375 C-125.6228836 200.77324977 -122.72819784 160.27845111 -116.0625 130.4375 C-115.65818005 129.09537812 -115.23288215 127.75920701 -114.77734375 126.43359375 C-113.1342846 121.53975091 -112.32113039 118.95493386 -114.6484375 114.19140625 C-116.71213835 111.07440464 -119.07218507 108.22729037 -121.47851562 105.37109375 C-124.27030761 101.96311093 -126.76531064 98.34208061 -129.3125 94.75 C-134.43273002 87.64370919 -139.62466749 80.5912846 -144.82885742 73.54638672 C-149.33053917 67.44636767 -153.79830483 61.32280596 -158.21191406 55.15869141 C-161.00310611 51.26354602 -163.83192103 47.40597229 -166.73046875 43.58984375 C-167.32980225 42.79006104 -167.92913574 41.99027832 -168.54663086 41.16625977 C-169.68961514 39.6427548 -170.84467775 38.12820601 -172.01391602 36.62475586 C-175.58889956 31.82221436 -177.08091341 28.48323473 -177.0625 22.4375 C-172.43840918 7.13350068 -159.04743331 -3.27333152 -145.4921875 -10.5390625 C-101.48078719 -32.74802095 -39.43152766 -31.08509847 0 0 Z M-159.90625 12.2890625 C-162.9692844 15.69743902 -165.42817262 19.11133929 -167.0625 23.4375 C-166.61271876 26.55934976 -165.46529 28.57960034 -163.61328125 31.09765625 C-162.84661133 32.14953125 -162.84661133 32.14953125 -162.06445312 33.22265625 C-161.50693359 33.97417969 -160.94941406 34.72570312 -160.375 35.5 C-159.79556641 36.29148438 -159.21613281 37.08296875 -158.61914062 37.8984375 C-156.77338374 40.41627987 -154.91873758 42.92737711 -153.0625 45.4375 C-151.88904659 47.02974431 -150.7158645 48.62218861 -149.54296875 50.21484375 C-147.79588945 52.58612512 -146.04816202 54.95691362 -144.29833984 57.32617188 C-138.70372622 64.9054712 -133.1880612 72.54043689 -127.68457031 80.18603516 C-125.47185407 83.25732793 -123.25358895 86.32458713 -121.03393555 89.39086914 C-119.93853542 90.9073414 -118.84618491 92.42602175 -117.75708008 93.94702148 C-115.22496663 97.47968737 -112.66493604 100.97362799 -109.98828125 104.3984375 C-109.51414795 105.01944336 -109.04001465 105.64044922 -108.55151367 106.28027344 C-107.67524266 107.42521319 -106.78203484 108.55749319 -105.8684082 109.67285156 C-103.61898529 112.65210805 -103.05917921 114.29772489 -103.1484375 118.0546875 C-103.42817701 119.52060655 -103.73621606 120.98123366 -104.0625 122.4375 C-104.24441895 123.37803223 -104.42633789 124.31856445 -104.61376953 125.28759766 C-105.45275278 129.61252581 -106.3526713 133.92432715 -107.24609375 138.23828125 C-107.46394531 139.30433594 -107.68179688 140.37039062 -107.90625 141.46875 C-108.10412109 142.42330078 -108.30199219 143.37785156 -108.50585938 144.36132812 C-109.68381431 150.87107906 -110.22671984 157.18496998 -110.265625 163.78515625 C-110.27417511 164.94669472 -110.27417511 164.94669472 -110.28289795 166.13169861 C-110.29228448 167.76283429 -110.29885644 169.3939884 -110.30273438 171.02514648 C-110.31238001 173.46959256 -110.34343905 175.91317442 -110.375 178.35742188 C-110.48300449 194.31177703 -108.77820922 211.39541144 -98.99609375 224.6015625 C-95.41380817 229.89328769 -94.89078562 234.66272514 -94.4375 240.9375 C-94.33107178 242.11691162 -94.22464355 243.29632324 -94.11499023 244.51147461 C-93.80717272 248.00623673 -93.52530872 251.50151416 -93.25396729 254.99920654 C-92.89629728 259.55405488 -92.51381813 264.10688307 -92.13671875 268.66015625 C-91.62243092 274.8979648 -91.112866 281.13610259 -90.61499023 287.37524414 C-89.50853591 301.21847781 -88.30674251 315.04925801 -87 328.875 C-86.87596298 330.18763824 -86.87596298 330.18763824 -86.74942017 331.52679443 C-86.58470682 333.2688715 -86.41997816 335.01094711 -86.25523376 336.75302124 C-86.17487381 337.60280548 -86.09451385 338.45258972 -86.01171875 339.328125 C-85.93228531 340.16719391 -85.85285187 341.00626282 -85.77101135 341.87075806 C-84.91419787 350.9522019 -84.10897799 360.0380927 -83.3125 369.125 C-83.24747284 369.86644257 -83.18244568 370.60788513 -83.115448 371.37179565 C-82.76299271 375.39356935 -82.41199681 379.41546817 -82.0625 383.4375 C-80.7425 383.4375 -79.4225 383.4375 -78.0625 383.4375 C-77.16199272 380.28497226 -76.8457663 377.30919905 -76.66113281 374.0390625 C-76.59707245 372.94051437 -76.53301208 371.84196625 -76.4670105 370.71012878 C-76.36732468 368.90455254 -76.36732468 368.90455254 -76.265625 367.0625 C-76.15227045 365.10176947 -76.03890889 363.14103933 -75.92529869 361.1803236 C-75.80333006 359.06556774 -75.68307346 356.95071992 -75.56317139 354.83584595 C-75.13505059 347.30000921 -74.6878841 339.76528257 -74.2421875 332.23046875 C-74.17226278 331.04628892 -74.17226278 331.04628892 -74.10092545 329.83818626 C-73.03668033 311.82874207 -71.92287165 293.82260111 -70.76257324 275.8190918 C-70.54554208 272.44756236 -70.33223469 269.07582934 -70.12219238 265.70385742 C-69.8732936 261.71021487 -69.61720987 257.71709675 -69.35564804 253.72426414 C-69.26060921 252.25577949 -69.16803474 250.78713285 -69.07815933 249.31832314 C-68.44005985 238.93073469 -67.21761489 230.47022999 -62.75 221 C-50.41627533 193.67050295 -47.13176898 160.07183571 -57.82592773 131.62133789 C-58.46584882 130.00213643 -59.12698527 128.39109868 -59.81274414 126.79077148 C-61.83077566 121.93733885 -62.72490374 118.6479315 -61.0625 113.4375 C-59.16426987 110.50167483 -56.93786498 107.92810071 -54.625 105.3125 C-53.33687202 103.80481032 -52.05042443 102.29568341 -50.765625 100.78515625 C-50.13205078 100.04668457 -49.49847656 99.30821289 -48.84570312 98.54736328 C-46.42647207 95.68495984 -44.13621669 92.7378371 -41.875 89.75 C-37.12935233 83.51552169 -32.29877287 77.35285465 -27.44921875 71.19921875 C-26.07832318 69.45760212 -24.71050009 67.71362115 -23.34375 65.96875 C-19.09755288 60.54992455 -14.83776536 55.14364612 -10.52587891 49.77685547 C-9.01749815 47.89680969 -7.51623951 46.01124729 -6.015625 44.125 C-4.05451664 41.6625752 -2.06261859 39.23034107 -0.046875 36.8125 C0.8858135 35.66698966 1.81812292 34.52117054 2.75 33.375 C3.58144531 32.37339844 4.41289062 31.37179688 5.26953125 30.33984375 C7.20392632 27.54765912 7.20392632 27.54765912 6.88671875 24.33984375 C2.75750276 11.71429855 -10.89192378 3.09458623 -22.15039062 -2.63964844 C-63.45791154 -22.57611793 -126.02064382 -21.74012676 -159.90625 12.2890625 Z " fill="#343533" transform="translate(336.0625,71.5625)"/>
<path d="M0 0 C-1.68517708 3.89105495 -4.24577172 7.02940604 -6.875 10.3125 C-7.3611377 10.92569092 -7.84727539 11.53888184 -8.34814453 12.1706543 C-10.86608552 15.342036 -13.40040393 18.50018411 -15.9375 21.65625 C-16.91677615 22.87491203 -17.89594197 24.09366273 -18.875 25.3125 C-19.3712085 25.9297998 -19.86741699 26.54709961 -20.37866211 27.18310547 C-24.13918245 31.8793874 -27.80054304 36.64513959 -31.4375 41.4375 C-36.27139736 47.80520929 -41.23990055 54.04313875 -46.30712891 60.22631836 C-51.34128033 66.38114387 -56.19488325 72.66548944 -61 79 C-65.13363381 75.12846254 -68.30010763 70.97250095 -71.5 66.3125 C-72.56289217 64.78582443 -73.62672567 63.25980389 -74.69140625 61.734375 C-75.23684082 60.95126953 -75.78227539 60.16816406 -76.34423828 59.36132812 C-79.00429138 55.56775195 -81.71897065 51.81429236 -84.4375 48.0625 C-84.97769775 47.31645508 -85.51789551 46.57041016 -86.07446289 45.80175781 C-87.17052767 44.2882608 -88.26680042 42.77491438 -89.36328125 41.26171875 C-90.98509064 39.02060267 -92.60265132 36.77648685 -94.21875 34.53125 C-102.06841645 23.629993 -110.011347 12.79977666 -118 2 C-116.12883898 -2.28322629 -113.47839222 -3.84168906 -109.4375 -5.9375 C-108.77564697 -6.28377441 -108.11379395 -6.63004883 -107.43188477 -6.98681641 C-74.32298865 -23.60900744 -30.68870999 -20.45913999 0 0 Z " fill="#FDCE00" transform="translate(315,96)"/>
<path d="M0 0 C1.28970703 -0.01611328 2.57941406 -0.03222656 3.90820312 -0.04882812 C16.26879955 -0.05501771 27.98724992 2.04581051 39.6875 6.0625 C40.81260986 6.44547241 40.81260986 6.44547241 41.96044922 6.83618164 C51.75290616 10.29350995 62.99292763 14.93444984 69.5625 23.3125 C70.53125 25.65234375 70.53125 25.65234375 70.5625 28.3125 C69.22925901 30.53558761 67.96634769 32.29288171 66.3125 34.25 C65.63175415 35.09316772 65.63175415 35.09316772 64.93725586 35.95336914 C63.97472138 37.14536894 63.00637887 38.33269875 62.03271484 39.515625 C60.14687373 41.82047233 58.31368754 44.16400542 56.48168945 46.51171875 C55.10755058 48.27235737 53.7266073 50.02745302 52.34375 51.78125 C50.50699609 54.11192093 48.67360207 56.44515643 46.84375 58.78125 C41.61569334 65.45334461 36.34785598 72.09146543 31.04541016 78.70458984 C25.34230267 85.82379386 19.71769436 93.00408364 14.09521484 100.18701172 C12.62669174 102.06273592 11.15710548 103.93762379 9.6875 105.8125 C9.02705688 106.65760132 9.02705688 106.65760132 8.35327148 107.51977539 C7.5108496 108.59432418 6.66309607 109.66471854 5.80957031 110.73046875 C4.95166674 111.81880375 4.11876584 112.92716678 3.30761719 114.05078125 C1.35976815 116.64386477 0.18521456 118.16432395 -3.03125 118.9296875 C-6.18833059 118.11991683 -7.00240007 117.04988491 -8.9375 114.4375 C-9.96810547 113.06464844 -9.96810547 113.06464844 -11.01953125 111.6640625 C-11.82683904 110.5478272 -12.63271272 109.43055391 -13.4375 108.3125 C-14.42028366 106.96593467 -15.4033759 105.61959453 -16.38671875 104.2734375 C-19.18622562 100.42540368 -21.96150726 96.56040924 -24.73193359 92.69140625 C-27.45671178 88.89091403 -30.19756916 85.10207464 -32.9375 81.3125 C-36.17897515 76.82651255 -39.41891978 72.33945137 -42.65234375 67.84765625 C-48.94248226 59.11484729 -55.28043911 50.41982331 -61.68139648 41.76782227 C-62.76544428 40.30167508 -63.84455296 38.83185919 -64.91796875 37.35791016 C-65.91065244 36.0216788 -66.9334081 34.70713612 -67.98828125 33.41943359 C-70.27670992 30.5423492 -71.42705458 28.84652219 -71.5 25.1171875 C-68.30981284 16.6960317 -57.70410423 12.59117112 -49.9675293 9.04492188 C-33.86360076 1.97965286 -17.46616185 -0.04351311 0 0 Z M-57.4375 24.3125 C-58.59717047 26.35795809 -58.59717047 26.35795809 -59.4375 28.3125 C-59.08147705 28.79380371 -58.7254541 29.27510742 -58.35864258 29.77099609 C-50.1863729 40.82505925 -42.0776716 51.92174474 -34.04638672 63.07861328 C-30.81375064 67.56702301 -27.57390906 72.0502441 -24.33203125 76.53198242 C-21.50040179 80.44823937 -18.67883234 84.37125866 -15.87109375 88.3046875 C-15.28585938 89.12195313 -14.700625 89.93921875 -14.09765625 90.78125 C-12.97873613 92.34418604 -11.86268172 93.90917911 -10.75 95.4765625 C-8.19404844 99.04058656 -5.68845854 102.33440369 -2.4375 105.3125 C4.82565805 96.26207269 12.04744923 87.18164115 19.20361328 78.04638672 C21.48703303 75.13283173 23.77500803 72.22285807 26.0625 69.3125 C26.97918823 68.14585027 27.8958549 66.97918361 28.8125 65.8125 C30.64583333 63.47916667 32.47916667 61.14583333 34.3125 58.8125 C34.7667334 58.23435547 35.2209668 57.65621094 35.68896484 57.06054688 C36.60063357 55.90030015 37.51241641 54.74014309 38.42431641 53.58007812 C40.79342158 50.56593215 43.16019805 47.54999783 45.5234375 44.53125 C46.01134766 43.90863281 46.49925781 43.28601563 47.00195312 42.64453125 C47.92587693 41.46542849 48.84910993 40.28578392 49.77148438 39.10546875 C51.92221638 36.36222154 54.10763197 33.67256991 56.3828125 31.03125 C58.77100498 28.63320077 58.77100498 28.63320077 58.5625 26.3125 C55.42848928 23.99428383 51.97571254 22.18605688 48.5625 20.3125 C47.386875 19.65507813 47.386875 19.65507813 46.1875 18.984375 C15.99143876 3.69277989 -29.31330528 4.76115468 -57.4375 24.3125 Z " fill="#343533" transform="translate(256.4375,69.6875)"/>
<path d="M0 0 C0.64453125 0.37592285 1.2890625 0.7518457 1.953125 1.13916016 C5.23602309 3.15824861 7.49677102 4.70321636 8.75 8.4375 C8.00943359 9.48550781 8.00943359 9.48550781 7.25390625 10.5546875 C6.61324219 11.46476562 5.97257813 12.37484375 5.3125 13.3125 C4.67441406 14.21742187 4.03632813 15.12234375 3.37890625 16.0546875 C1.75481862 18.31488581 1.75481862 18.31488581 0.75 20.4375 C-2.3982437 18.98170622 -5.03198879 17.19091525 -7.8125 15.125 C-24.18544673 3.61127577 -44.08968168 0.7053563 -63.70654297 3.82861328 C-82.73507431 7.9964499 -98.94801515 20.8398053 -109.375 37.0625 C-118.82807492 53.40897003 -121.23805772 73.53722095 -116.75 91.875 C-111.34536807 110.40245752 -99.61523859 125.20922588 -83.25 135.4375 C-85.02945087 139.48170651 -87.64529673 142.89828487 -90.25 146.4375 C-110.55170822 133.93282465 -124.17694753 115.39434251 -129.78295898 92.23583984 C-131.1600057 86.01127028 -131.60191641 80.05325049 -131.5625 73.6875 C-131.55686035 72.72448975 -131.5512207 71.76147949 -131.54541016 70.76928711 C-131.13928045 46.77345531 -120.83971523 27.26904781 -104.25 10.4375 C-103.59257813 9.7671875 -102.93515625 9.096875 -102.2578125 8.40625 C-74.71948596 -17.59560339 -31.54528052 -18.54043531 0 0 Z " fill="#4AD07F" transform="translate(141.25,57.5625)"/>
<path d="M0 0 C17.53982132 14.53455599 28.83244701 34.23416954 31.8125 57.0625 C33.40332631 80.52649635 28.02489713 102.72232028 12.8125 121.0625 C12.11253906 121.92488281 11.41257812 122.78726563 10.69140625 123.67578125 C5.50299347 129.77054778 -0.25635034 134.99471053 -7.1875 139.0625 C-8.1775 139.0625 -9.1675 139.0625 -10.1875 139.0625 C-11.7578125 137.3828125 -11.7578125 137.3828125 -13.3125 135.1875 C-13.83070313 134.46820313 -14.34890625 133.74890625 -14.8828125 133.0078125 C-16.1875 131.0625 -16.1875 131.0625 -17.1875 129.0625 C-16.50945312 128.67320312 -15.83140625 128.28390625 -15.1328125 127.8828125 C1.46615305 117.90504096 12.41341037 102.89052291 17.625 84.25 C21.98960469 63.05769979 18.21165203 43.92265924 6.4140625 25.9296875 C-4.1195184 11.08955972 -17.96378629 2.93871543 -35.1875 -1.9375 C-35.80455811 -2.11563232 -36.42161621 -2.29376465 -37.05737305 -2.47729492 C-56.36876187 -6.64944024 -74.75390631 -1.61652886 -91.296875 8.09765625 C-93.9385442 9.89327734 -96.03437269 11.71600932 -98.1875 14.0625 C-101.90939239 12.8218692 -102.69520808 11.414226 -104.9375 8.25 C-105.57171875 7.37730469 -106.2059375 6.50460938 -106.859375 5.60546875 C-108.1875 3.0625 -108.1875 3.0625 -108.2734375 1.01171875 C-106.5873551 -2.0147385 -103.9359871 -3.53514085 -101.0625 -5.3125 C-100.43649902 -5.7038916 -99.81049805 -6.0952832 -99.16552734 -6.49853516 C-67.6679262 -25.58205314 -28.86036308 -22.49028294 0 0 Z " fill="#4ACF7F" transform="translate(470.1875,63.9375)"/>
<path d="M0 0 C5.05840037 3.58534971 9.11753086 7.81279123 11.5703125 13.57421875 C12.32301143 19.49805706 12.02231209 24.5632516 8.5703125 29.57421875 C0.57740498 39.19531113 -9.62930296 42.57260712 -21.9140625 43.828125 C-33.45702559 44.1351187 -45.84737888 40.53894188 -54.4296875 32.57421875 C-58.19798405 28.39570258 -59.76021788 24.64858047 -59.9921875 19.01171875 C-59.59927484 11.70757315 -56.96614571 7.81871922 -51.7421875 2.88671875 C-37.96398098 -8.57365863 -15.18880426 -8.9130443 0 0 Z " fill="#FDCD00" transform="translate(442.4296875,197.42578125)"/>
<path d="M0 0 C4.08430083 3.15637018 6.97171127 7.15826629 9.26953125 11.75390625 C10.09190909 18.25203932 9.1293633 23.42625074 5.26953125 28.75390625 C-2.69061025 37.55857743 -12.82338499 41.01703575 -24.421875 41.9765625 C-35.70648365 42.34576022 -45.84002545 38.94518321 -54.98046875 32.44140625 C-60.14846975 27.39085982 -61.96489763 23.84412164 -62.23046875 16.69140625 C-61.94209732 9.44607398 -59.19113555 6.01897048 -54.10546875 1.12890625 C-39.16974796 -11.51331435 -15.76807895 -9.90781654 0 0 Z " fill="#FDCD00" transform="translate(119.73046875,199.24609375)"/>
<path d="M0 0 C6.64908356 2.90897406 9.23700222 8.5384975 12 15 C14.84798012 24.71275141 15.51592027 34.23894556 15.4375 44.3125 C15.43343643 45.32390549 15.43343643 45.32390549 15.42929077 46.35574341 C15.33733063 61.47725713 14.37525754 75.94566752 3.6875 87.5 C0.07561876 89.51593371 -3.01698068 89.8703054 -7 89 C-13.75738092 85.02507004 -16.62051823 78.49633339 -18.86669922 71.17504883 C-21.01795523 62.48814548 -21.5192047 54.08858356 -21.4375 45.1875 C-21.43445862 44.48477966 -21.43141724 43.78205933 -21.42828369 43.05804443 C-21.338515 29.04016436 -20.67877777 14.18183503 -11 3 C-7.12973129 0.32336556 -4.73770858 -0.67681551 0 0 Z " fill="#343533" transform="translate(259,203)"/>
<path d="M0 0 C3 1 3 1 5 4.0625 C12.92071377 21.24435602 12.30463348 45.43602421 5.91015625 62.9921875 C5.01792921 65.03065639 4.02325832 67.02405291 3 69 C-0.64540679 68.45965787 -0.64540679 68.45965787 -2.16015625 66.49609375 C-9.85988953 48.93003558 -10.0449083 28.30749925 -5 10 C-3.57409618 6.49889687 -1.96367019 3.22880158 0 0 Z " fill="#FACB01" transform="translate(255,213)"/>
</svg>
