<?xml version="1.0" encoding="UTF-8"?>
<svg version="1.1" xmlns="http://www.w3.org/2000/svg" width="512" height="512">
<path d="M0 0 C3.84822782 2.11141703 6.82960084 5.07831455 9.765625 8.28125 C10.384375 7.806875 11.003125 7.3325 11.640625 6.84375 C17.38940328 3.96936086 23.33385578 3.57902196 29.515625 5.34375 C35.09765068 7.51728212 38.60945198 10.81124401 41.140625 16.21875 C42.72990127 24.00620372 40.9118844 31.05563014 39.1875 38.63476562 C36.7995148 49.56475374 36.7995148 49.56475374 39.578125 60.03125 C47.62933314 74.55780703 45.79314985 94.37172031 43.765625 110.28125 C44.85875 110.36375 45.951875 110.44625 47.078125 110.53125 C50.765625 111.28125 50.765625 111.28125 52.703125 113.21875 C53.765625 115.28125 53.765625 115.28125 53.765625 117.28125 C55.374375 117.2503125 55.374375 117.2503125 57.015625 117.21875 C59.91352924 117.2670484 62.05174641 117.41280885 64.765625 118.28125 C64.86875 117.6625 64.971875 117.04375 65.078125 116.40625 C65.765625 114.28125 65.765625 114.28125 68.765625 112.28125 C72.33457218 112.42995613 74.1211274 112.61526915 76.640625 115.21875 C77.765625 117.28125 77.765625 117.28125 77.765625 119.28125 C79.32564928 119.4175628 80.88919676 119.51384126 82.453125 119.59375 C83.32324219 119.65175781 84.19335938 119.70976563 85.08984375 119.76953125 C88.0153803 119.52407066 88.0153803 119.52407066 89.94921875 116.76171875 C93.59936134 113.54696071 95.623423 113.8013916 100.328125 114.05078125 C101.25625 114.12683594 102.184375 114.20289062 103.140625 114.28125 C104.52121094 114.34892578 104.52121094 114.34892578 105.9296875 114.41796875 C111.4785268 114.77467985 115.90040169 115.52747001 120.765625 118.28125 C126.41582735 124.97935955 125.43709204 135.79930899 124.95898438 144.02587891 C123.81042966 157.42278348 123.81042966 157.42278348 120.59375 161.91943359 C117.94548939 163.8921897 115.84178635 163.71608189 112.56640625 163.79296875 C111.35791016 163.82841797 110.14941406 163.86386719 108.90429688 163.90039062 C107.64166016 163.92294922 106.37902344 163.94550781 105.078125 163.96875 C103.80388672 164.00291016 102.52964844 164.03707031 101.21679688 164.07226562 C98.06649397 164.15485784 94.91647343 164.22397335 91.765625 164.28125 C92.26678833 165.4403186 92.26678833 165.4403186 92.77807617 166.62280273 C101.09621695 186.16083165 102.84125731 206.00420809 100 227.11328125 C99.46785371 232.54628358 100.79945531 235.53715992 103.703125 240.03125 C109.68946106 250.18323144 113.17527167 261.10418223 116.765625 272.28125 C117.41112305 271.95326416 118.05662109 271.62527832 118.72167969 271.28735352 C121.6508849 269.80194839 124.5832016 268.32279105 127.515625 266.84375 C128.53140625 266.32748047 129.5471875 265.81121094 130.59375 265.27929688 C131.5734375 264.78623047 132.553125 264.29316406 133.5625 263.78515625 C134.46323242 263.32955322 135.36396484 262.8739502 136.29199219 262.40454102 C144.03255884 258.88950478 154.75580329 258.97622237 162.9296875 261.10546875 C166.13194405 262.4066878 169.15204164 263.9612472 172.21484375 265.55859375 C174.77679851 266.54534949 174.77679851 266.54534949 177.30078125 265.41796875 C178.13480469 264.93972656 178.96882813 264.46148437 179.828125 263.96875 C188.42675728 259.13284741 198.30264407 259.09302494 207.91015625 260.859375 C216.36324789 263.51986164 223.03757876 268.86203688 227.6875 276.39453125 C232.59358842 285.96140368 234.62849624 294.95677897 231.90625 305.66015625 C230.92331472 308.56266441 229.85435286 311.41732732 228.765625 314.28125 C227.92579292 316.30848636 227.92579292 316.30848636 227.765625 318.28125 C228.65657439 320.27945964 228.65657439 320.27945964 230.078125 322.15625 C235.8204657 330.28437696 235.67624936 339.71387183 234.765625 349.28125 C233.95692533 353.01967005 232.70687182 355.99696535 230.765625 359.28125 C230.34925781 360.02375 229.93289063 360.76625 229.50390625 361.53125 C224.23869216 369.4912587 215.83620376 373.66063329 207.765625 378.28125 C206.75709473 378.86293945 205.74856445 379.44462891 204.70947266 380.04394531 C198.83860491 383.42727505 192.95549851 386.78824182 187.0625 390.1328125 C180.23772914 394.00629609 173.43527479 397.91764251 166.640625 401.84375 C165.57666504 402.45822998 164.51270508 403.07270996 163.41650391 403.70581055 C161.27203146 404.9444815 159.12766266 406.18333192 156.98339844 407.42236328 C151.57891855 410.54449605 146.17215088 413.66266204 140.765625 416.78125 C138.5989475 418.03123122 136.43228083 419.28123121 134.265625 420.53125 C112.59895833 433.03125 90.93229167 445.53125 69.265625 458.03125 C68.19256104 458.65040283 67.11949707 459.26955566 66.01391602 459.9074707 C63.853217 461.15387167 61.69224806 462.39980483 59.53100586 463.64526367 C54.02069542 466.82149253 48.5157147 470.00641064 43.01953125 473.20703125 C5.76063968 494.87779832 5.76063968 494.87779832 -11.234375 500.28125 C-12.28753906 500.62027344 -13.34070313 500.95929688 -14.42578125 501.30859375 C-43.35774475 509.0119509 -73.8527603 499.4064034 -101.82597351 492.02024841 C-103.23046357 491.6494469 -104.63534292 491.2801168 -106.04060364 490.9122467 C-109.3972227 490.03353206 -112.74812014 489.14077828 -116.09082031 488.21044922 C-127.19556612 485.2295832 -138.32281332 483.81392158 -149.734375 482.53125 C-151.63683056 482.30955112 -153.53917543 482.08690028 -155.44140625 481.86328125 C-160.03786491 481.32499318 -164.63561291 480.79947444 -169.234375 480.28125 C-169.21552246 481.03615723 -169.19666992 481.79106445 -169.17724609 482.56884766 C-169.15525146 484.05457275 -169.15525146 484.05457275 -169.1328125 485.5703125 C-169.11395996 486.55209473 -169.09510742 487.53387695 -169.07568359 488.54541016 C-169.34292339 493.15262424 -171.50098687 495.62027495 -174.73046875 498.71484375 C-179.58135966 502.98507939 -182.96551733 503.40899464 -189.27270508 503.44238281 C-189.98526962 503.44734772 -190.69783417 503.45231262 -191.43199158 503.45742798 C-193.7893063 503.4720323 -196.14655371 503.47884903 -198.50390625 503.484375 C-200.14434307 503.4901283 -201.78477988 503.49588601 -203.42521667 503.50164795 C-206.86591912 503.5121533 -210.30659823 503.51799887 -213.74731445 503.52148438 C-218.14895116 503.52696523 -222.55027792 503.55098633 -226.95181751 503.57945633 C-230.3413736 503.59811209 -233.73085551 503.60328989 -237.1204586 503.60482025 C-238.74272034 503.60784116 -240.36498094 503.61585073 -241.98719215 503.62900543 C-244.2609859 503.64612627 -246.53402867 503.64417124 -248.80786133 503.63769531 C-250.10009109 503.64134094 -251.39232086 503.64498657 -252.72370911 503.64874268 C-257.35059355 503.16440546 -260.70518853 501.7206729 -264.09765625 498.52734375 C-264.57589844 497.93050781 -265.05414063 497.33367187 -265.546875 496.71875 C-266.03800781 496.11933594 -266.52914063 495.51992188 -267.03515625 494.90234375 C-269.65613444 491.35932763 -269.36737614 488.61695881 -269.38154602 484.24761963 C-269.38522271 483.51510475 -269.3888994 482.78258987 -269.3926875 482.02787757 C-269.40374624 479.56057024 -269.40757188 477.09330499 -269.41137695 474.62597656 C-269.41763997 472.86203883 -269.42428662 471.09810243 -269.43128967 469.33416748 C-269.44871481 464.53238789 -269.45925563 459.73061827 -269.4674952 454.92881489 C-269.47264231 451.92999663 -269.47871818 448.93118148 -269.48500633 445.93236542 C-269.50406291 436.55324312 -269.51829287 427.17412872 -269.5266183 417.79499078 C-269.53639247 406.96200152 -269.56271475 396.1292165 -269.60311919 385.29629922 C-269.63326311 376.92765511 -269.64808555 368.55906959 -269.65139931 360.19037223 C-269.65375184 355.19007805 -269.66273844 350.19000195 -269.68786049 345.18976593 C-269.71111595 340.48492717 -269.71538463 335.78045045 -269.70509911 331.07556915 C-269.70460301 329.34941403 -269.71094507 327.62324125 -269.72465515 325.8971405 C-269.74233923 323.53859754 -269.7352861 321.18135873 -269.72212219 318.82281494 C-269.72451055 317.50356144 -269.7268989 316.18430794 -269.72935963 314.82507706 C-268.99336106 309.55571816 -266.29930273 305.75968571 -262.171875 302.46875 C-257.76299158 299.18553894 -254.6801275 299.14904421 -249.30371094 299.12011719 C-248.25190392 299.11266983 -248.25190392 299.11266983 -247.17884827 299.10507202 C-244.85880551 299.09046691 -242.53883118 299.08365029 -240.21875 299.078125 C-238.60312906 299.07237108 -236.98750812 299.06661338 -235.37188721 299.06085205 C-231.98245933 299.050346 -228.59305515 299.04450111 -225.20361328 299.04101562 C-220.87157486 299.03553935 -216.53985208 299.01152839 -212.20791245 298.98304367 C-208.86892805 298.96436824 -205.53001884 298.95920903 -202.19098663 298.95767975 C-200.59467091 298.95466248 -198.99835622 298.94666534 -197.40209198 298.93349457 C-195.1620271 298.91633493 -192.92272211 298.91833827 -190.68261719 298.92480469 C-189.41037292 298.92115906 -188.13812866 298.91751343 -186.82733154 298.91375732 C-181.44646436 299.46412003 -176.56859669 301.14226213 -172.984375 305.40625 C-169.86915968 309.29610442 -168.46965075 313.50268327 -167.234375 318.28125 C-166.60273438 318.02730469 -165.97109375 317.77335937 -165.3203125 317.51171875 C-154.58333258 313.380921 -143.69059033 311.1491451 -132.234375 310.28125 C-132.234375 305.66125 -132.234375 301.04125 -132.234375 296.28125 C-133.884375 295.62125 -135.534375 294.96125 -137.234375 294.28125 C-146.5523749 285.53329245 -147.93587841 272.33470457 -149.234375 260.34375 C-149.55383895 257.59251256 -149.8857971 254.84290796 -150.22265625 252.09375 C-150.30469803 251.42074356 -150.38673981 250.74773712 -150.4712677 250.05433655 C-151.38842556 242.73045674 -152.82935041 235.55316329 -154.40234375 228.34765625 C-159.95217015 202.36325816 -153.93511912 175.90716917 -140.33984375 153.37109375 C-135.33631839 146.02825784 -129.24803295 139.7204133 -122.234375 134.28125 C-121.574375 134.28125 -120.914375 134.28125 -120.234375 134.28125 C-112.21913109 105.23959533 -107.68239184 76.07727372 -104.296875 46.171875 C-104.16563232 45.01502197 -104.03438965 43.85816895 -103.89916992 42.66625977 C-103.67327713 40.61600484 -103.45885485 38.56443445 -103.2590332 36.51147461 C-102.42324493 28.6687453 -100.26891303 23.61409756 -94.234375 18.28125 C-85.74819497 11.86946953 -77.74011904 10.0414417 -67.234375 11.28125 C-64.20649659 12.32675062 -61.96857667 13.56567248 -59.234375 15.28125 C-58.81478516 14.48460937 -58.81478516 14.48460937 -58.38671875 13.671875 C-54.94953334 7.61535536 -51.81560296 4.99921049 -45.234375 2.53125 C-37.69656996 1.58902437 -32.54641078 3.07322615 -26.234375 7.28125 C-25.42033203 6.54068359 -25.42033203 6.54068359 -24.58984375 5.78515625 C-23.51669922 4.82416016 -23.51669922 4.82416016 -22.421875 3.84375 C-21.71417969 3.20566406 -21.00648438 2.56757812 -20.27734375 1.91015625 C-15.10757825 -2.21181739 -6.09397893 -1.96030092 0 0 Z " fill="#020101" transform="translate(273.234375,4.71875)"/>
<path d="M0 0 C6.99325206 3.12689216 11.1332263 7.69168719 14.33984375 14.58203125 C16.86610643 22.04753397 15.46300362 28.862962 12.0859375 35.76953125 C6.5961833 42.75753087 -2.07234451 46.79595924 -9.6640625 51.09375 C-11.3985642 52.08505206 -13.13306135 53.07636219 -14.86727905 54.06816101 C-16.65733613 55.09102229 -18.44866793 56.11162105 -20.24023438 57.13183594 C-25.81043167 60.30617179 -31.36168067 63.51338948 -36.9140625 66.71875 C-37.99171875 67.34007812 -39.069375 67.96140625 -40.1796875 68.6015625 C-47.3554231 72.74140996 -54.51340787 76.91076539 -61.6640625 81.09375 C-70.93406027 86.51546178 -80.24738002 91.85829915 -89.57751465 97.17547607 C-98.7018909 102.37670129 -107.79039024 107.63652878 -116.85595703 112.93969727 C-127.37536935 119.09126285 -137.93405446 125.17410713 -148.49365234 131.25634766 C-151.79821238 133.16152518 -155.10059729 135.07041988 -158.40234375 136.98046875 C-163.81057591 140.10906235 -169.22493404 143.22685862 -174.64160156 146.34082031 C-177.74605502 148.13144364 -180.84203296 149.93608514 -183.9375 151.7421875 C-214.43874764 169.4238896 -240.92703287 177.01030078 -275.7890625 169.15625 C-276.92456543 168.90423828 -278.06006836 168.65222656 -279.22998047 168.39257812 C-302.44034135 163.21194358 -302.44034135 163.21194358 -311.90625 160.359375 C-326.22974218 156.06361976 -340.35346407 153.81783155 -355.16015625 151.94140625 C-357.26470236 151.66873868 -359.36915481 151.39534722 -361.47351074 151.12121582 C-366.57765432 150.45788476 -371.68296162 149.80433472 -376.7890625 149.15625 C-376.97595131 131.90171187 -377.11702002 114.64748958 -377.20355988 97.39217091 C-377.24481025 89.38016234 -377.30104613 81.36878264 -377.39257812 73.35717773 C-377.47232079 66.37413942 -377.52392888 59.39155648 -377.54177046 52.40807551 C-377.5522003 48.71012956 -377.57670277 45.01348632 -377.63490295 41.31595802 C-377.69935621 37.18767174 -377.7009817 33.06164901 -377.69726562 28.93286133 C-377.72602783 27.70718948 -377.75479004 26.48151764 -377.78442383 25.21870422 C-377.70557102 17.14538983 -377.70557102 17.14538983 -375.08145142 14.31331444 C-373.01588703 12.98094587 -371.08440985 12.02565024 -368.7890625 11.15625 C-367.7729401 10.7453297 -367.7729401 10.7453297 -366.73628998 10.32610798 C-364.87822149 9.61120271 -363.01112874 9.03061428 -361.1015625 8.46875 C-360.48345703 8.26958984 -359.86535156 8.07042969 -359.22851562 7.86523438 C-348.13152993 4.47726577 -336.83695571 3.82713482 -325.31347656 3.89550781 C-323.15922142 3.90627419 -321.00579335 3.89551894 -318.8515625 3.8828125 C-306.5533581 3.86666954 -295.98185586 5.69173305 -284.4765625 10.09375 C-283.44837402 10.48344971 -282.42018555 10.87314941 -281.36083984 11.2746582 C-269.94062027 15.71333201 -257.61839825 20.63423788 -247.55395508 27.73266602 C-240.39825583 32.69631049 -233.11694074 33.56964111 -224.67687988 34.45947266 C-222.17825999 34.72386107 -219.6847072 35.01781578 -217.19042969 35.3203125 C-213.75326167 35.73670436 -210.31531991 36.14515017 -206.87646484 36.54736328 C-199.78907862 37.38604434 -192.71824434 38.32827636 -185.6555481 39.35372925 C-183.59683617 39.6479921 -181.53604631 39.92106784 -179.47436523 40.19360352 C-170.0842059 41.5591943 -161.48428863 43.43702159 -155.2890625 51.09375 C-151.24497981 57.21699384 -150.00021689 62.89640522 -150.7890625 70.15625 C-152.30724117 76.66781321 -155.40177182 81.79635447 -160.9140625 85.63671875 C-170.64602903 91.20452652 -181.15709517 89.37945242 -191.8046875 87.6875 C-192.83499084 87.53144287 -193.86529419 87.37538574 -194.92681885 87.21459961 C-197.14425373 86.87788276 -199.36110142 86.53727976 -201.57739258 86.19311523 C-205.10173015 85.64653097 -208.62766196 85.11162681 -212.15429688 84.58007812 C-217.13386636 83.82945191 -222.1129999 83.07604558 -227.09179688 82.3203125 C-238.59924016 80.57709342 -250.11110181 78.86540411 -261.62878418 77.19116211 C-264.0464374 76.83784691 -266.46352848 76.48066101 -268.88000488 76.11938477 C-286.75048683 73.39505172 -286.75048683 73.39505172 -304.7890625 73.15625 C-305.18554914 77.786747 -305.18554914 77.786747 -303.67749023 82.02905273 C-300.99784982 83.62852265 -298.67628116 83.83842726 -295.57421875 84.19140625 C-294.91985336 84.27093536 -294.26548798 84.35046448 -293.59129333 84.43240356 C-292.13000188 84.60955077 -290.66804034 84.78122942 -289.20556641 84.94833374 C-285.00160607 85.43126379 -280.80371948 85.96222214 -276.60546875 86.4921875 C-275.64955841 86.61230698 -274.69364807 86.73242645 -273.70877075 86.85618591 C-259.30345189 88.69387946 -244.94452094 90.87289159 -230.58030319 93.00388718 C-228.30189249 93.34184691 -226.02341113 93.67932604 -223.74490356 94.01663208 C-223.00429719 94.12627415 -222.26369081 94.23591621 -221.50064182 94.34888077 C-220.76703403 94.45748302 -220.03342623 94.56608528 -219.27758789 94.67797852 C-215.10883614 95.29511482 -210.94017075 95.91280174 -206.77183533 96.53274536 C-204.31222565 96.89820942 -201.85239891 97.26221628 -199.39233398 97.62460327 C-196.92508361 97.98863512 -194.45847471 98.35703391 -191.99243164 98.72915649 C-190.76967529 98.91046112 -189.54691895 99.09176575 -188.28710938 99.27856445 C-187.20200073 99.44137405 -186.11689209 99.60418365 -184.99890137 99.77192688 C-171.96579732 101.33241743 -161.40131232 100.20632531 -150.7890625 92.15625 C-146.07502806 87.62179783 -143.75846561 83.50213374 -142.2890625 77.15625 C-140.38853381 71.01429753 -137.11280319 68.72109393 -131.72387695 65.78759766 C-130.25748769 65.01513534 -128.78721014 64.25002747 -127.31396484 63.49072266 C-122.27953286 60.8299022 -117.39602362 57.89722152 -112.4765625 55.03125 C-110.21050858 53.72504653 -107.94356748 52.42038108 -105.67578125 51.1171875 C-99.04315391 47.30330976 -92.41554867 43.48078519 -85.7890625 39.65625 C-83.62242024 38.4062077 -81.45575353 37.15620776 -79.2890625 35.90625 C-78.2165625 35.2875 -77.1440625 34.66875 -76.0390625 34.03125 C-72.7890625 32.15625 -69.5390625 30.28125 -66.2890625 28.40625 C-64.67789551 27.4766748 -64.67789551 27.4766748 -63.03417969 26.52832031 C-60.88391931 25.28786014 -58.73353026 24.04762297 -56.58300781 22.80761719 C-51.52008741 19.88794338 -46.45847918 16.96606525 -41.40148926 14.03613281 C-39.02094077 12.65706969 -36.63964944 11.27929215 -34.25830078 9.90161133 C-32.584236 8.93240342 -30.91124338 7.96134435 -29.23828125 6.99023438 C-27.70880859 6.10561523 -27.70880859 6.10561523 -26.1484375 5.203125 C-25.25608398 4.68588867 -24.36373047 4.16865234 -23.44433594 3.63574219 C-15.47011837 -0.80741324 -9.04030193 -2.73488126 0 0 Z " fill="#FDD4AD" transform="translate(480.7890625,322.84375)"/>
<path d="M0 0 C3 0.875 3 0.875 4.875 2.8125 C6 4.875 6 4.875 6 6.875 C7.01320313 6.77058594 7.01320313 6.77058594 8.046875 6.6640625 C10.80468504 6.49668097 13.26795714 6.44181895 16 6.875 C18.5625 9.8125 18.5625 9.8125 20 12.875 C21.53701881 14.41201881 23.11807163 14.19798725 25.25390625 14.41015625 C26.10791016 14.49716797 26.96191406 14.58417969 27.84179688 14.67382812 C28.73962891 14.76083984 29.63746094 14.84785156 30.5625 14.9375 C31.46419922 15.02837891 32.36589844 15.11925781 33.29492188 15.21289062 C35.52958434 15.43753923 37.76457839 15.65805769 40 15.875 C40.84020943 19.03804277 41.16405481 21.84267391 41.1875 25.125 C41.20167969 26.01703125 41.21585938 26.9090625 41.23046875 27.828125 C40.93835026 31.69003042 40.01444169 35.13800532 39 38.875 C35.07201796 39.07546625 31.14608303 39.21914415 27.21411133 39.31445312 C25.23347134 39.37362656 23.25424874 39.4753785 21.27539062 39.578125 C11.2431263 39.7813101 6.5363639 37.20881167 -1 30.875 C-3.13148274 29.63465642 -5.11885425 28.82154268 -7.4375 27.9375 C-8.88962891 27.36708984 -8.88962891 27.36708984 -10.37109375 26.78515625 C-17.93491611 24.16647778 -27.05787889 23.04027474 -34.5 26.5625 C-41.4359956 30.75027093 -46.58923728 37.37481116 -48.6171875 45.28125 C-50.95916592 61.14934869 -45.15585503 72.65086363 -37 85.875 C-31 95.96759259 -31 95.96759259 -31 101.375 C-32.24783423 105.7424198 -34.30164491 107.49825768 -38 109.875 C-41.67362263 111.66201395 -45.44128642 113.15209904 -49.25 114.625 C-51.23449163 115.41116399 -53.21887231 116.19760814 -55.203125 116.984375 C-56.07614258 117.32436523 -56.94916016 117.66435547 -57.84863281 118.01464844 C-60.00063259 118.84068151 -60.00063259 118.84068151 -62 119.875 C-70.26536982 120.34166583 -78.12161459 120.72560493 -85.8828125 117.5546875 C-91.20608571 115.84574001 -96.94279978 116.18926659 -102.1875 117.9375 C-104.36944268 119.87872018 -104.36944268 119.87872018 -104.375 123.5 C-104.3741663 126.70906538 -104.3741663 126.70906538 -103 127.875 C-101.24919913 127.84179516 -99.49906579 127.77220607 -97.75 127.6875 C-90.6534393 127.59367528 -84.62261737 129.48231243 -78 131.875 C-78.49371094 132.91140625 -78.98742187 133.9478125 -79.49609375 135.015625 C-80.14341872 136.3853271 -80.79054366 137.75512375 -81.4375 139.125 C-81.92573242 140.14787109 -81.92573242 140.14787109 -82.42382812 141.19140625 C-82.73642578 141.85527344 -83.04902344 142.51914062 -83.37109375 143.203125 C-83.65911865 143.8105957 -83.94714355 144.41806641 -84.24389648 145.04394531 C-86.01694293 149.33772907 -86.25799295 153.23112698 -86 157.875 C-85.34 158.535 -84.68 159.195 -84 159.875 C-80.9726206 159.98364902 -80.9726206 159.98364902 -78 158.875 C-76.39549112 156.48613561 -76.39549112 156.48613561 -75.5 153.4375 C-70.93860354 141.25929547 -65.80106809 133.95474938 -53.9375 128.375 C-50.68382608 126.96234046 -47.40235331 125.63342322 -44.1015625 124.3359375 C-43.43261963 124.07232422 -42.76367676 123.80871094 -42.07446289 123.53710938 C-40.76133993 123.02339642 -39.44550235 122.51655405 -38.12670898 122.01757812 C-34.65902742 120.67519046 -31.91583439 119.16166363 -29 116.875 C-28.34 116.875 -27.68 116.875 -27 116.875 C-25.74769087 134.56966415 -30.48314513 149.77261817 -37.5625 165.875 C-38.10765259 167.12083862 -38.10765259 167.12083862 -38.66381836 168.3918457 C-41.73764492 175.04136212 -45.77411727 178.96494322 -51.50463867 183.515625 C-60.19199471 190.46865126 -66.83798891 198.63198337 -73 207.875 C-73.33343551 210.41707971 -73.33343551 210.41707971 -73 212.875 C-71.23863645 215.05831689 -71.23863645 215.05831689 -69.0546875 215.0703125 C-67.03645833 215.00520833 -65.01822917 214.94010417 -63 214.875 C-62.7628125 214.16988281 -62.525625 213.46476563 -62.28125 212.73828125 C-60.77497827 209.37213132 -58.84415483 206.90516827 -56.5 204.0625 C-55.7059375 203.08667969 -54.911875 202.11085938 -54.09375 201.10546875 C-53.4028125 200.36941406 -52.711875 199.63335937 -52 198.875 C-51.34 198.875 -50.68 198.875 -50 198.875 C-50 210.425 -50 221.975 -50 233.875 C-54.92814858 233.38662492 -59.83511037 232.8602241 -64.74951172 232.26416016 C-67.09890823 231.98288195 -69.44970018 231.71317733 -71.80126953 231.45068359 C-88.4046061 229.57643394 -102.85863821 227.64113535 -117.02148438 218.1328125 C-120.44214001 215.95818049 -124.07742463 214.26504555 -127.75 212.5625 C-128.45060547 212.2320166 -129.15121094 211.9015332 -129.87304688 211.56103516 C-134.34238566 209.49947395 -138.80788186 207.91763169 -143.5 206.4375 C-154.25480861 202.73745117 -159.86266756 194.62750978 -165 184.875 C-165.38285156 184.20082031 -165.76570312 183.52664063 -166.16015625 182.83203125 C-167 180.875 -167 180.875 -167 176.875 C-163.01476968 177.37737543 -159.03142272 177.89261018 -155.04931641 178.41918945 C-153.697874 178.59612955 -152.34598679 178.76970925 -150.99365234 178.93969727 C-132.61991279 181.25508721 -132.61991279 181.25508721 -128 185.875 C-125.31160615 186.14491906 -122.70858064 185.96237357 -120 185.875 C-119.35527436 180.30944027 -119.35527436 180.30944027 -121.8125 175.625 C-131.2186219 170.46085464 -140.58484054 169.05175439 -151.12695312 168.09765625 C-158.40477063 167.33847632 -166.60883851 166.26616149 -172 160.875 C-172.49418319 157.25417376 -172.38030651 153.58809644 -172.375 149.9375 C-172.37411377 148.86314697 -172.37322754 147.78879395 -172.37231445 146.68188477 C-172.14093578 130.81071687 -169.33825647 115.9990483 -159.5 103.25 C-158.70541382 102.20730957 -158.70541382 102.20730957 -157.89477539 101.14355469 C-152.81397088 94.53042005 -147.50748757 88.13556057 -142 81.875 C-141.22140625 80.98425781 -140.4428125 80.09351563 -139.640625 79.17578125 C-133.27382685 72.06889351 -126.54683984 65.31829343 -119.8125 58.5625 C-119.33896088 58.08628204 -118.86542175 57.61006409 -118.37753296 57.11941528 C-112.76035738 51.47816766 -107.04728229 46.05057067 -101 40.875 C-99.39231627 39.42054483 -97.78760285 37.96279105 -96.1875 36.5 C-89.98837311 30.9075155 -83.55386784 25.6014406 -76.9296875 20.51953125 C-75.94226563 19.74996094 -74.95484375 18.98039062 -73.9375 18.1875 C-73.03902344 17.50300781 -72.14054687 16.81851563 -71.21484375 16.11328125 C-68.62959684 13.50067723 -68.04672737 11.3497552 -67 7.875 C-61.62421601 8.11117302 -56.24919672 8.35964145 -50.87451172 8.61962891 C-49.04524284 8.70636568 -47.21581003 8.78971324 -45.38623047 8.86962891 C-42.75958805 8.98494491 -40.1337723 9.11235395 -37.5078125 9.2421875 C-36.68693146 9.27561249 -35.86605042 9.30903748 -35.02029419 9.34347534 C-29.22774341 9.64725659 -29.22774341 9.64725659 -27 11.875 C-23.90073181 11.55301034 -23.90073181 11.55301034 -21 10.875 C-20.34 8.895 -19.68 6.915 -19 4.875 C-10.42857143 4.73214286 -10.42857143 4.73214286 -7 5.875 C-6.8453125 4.946875 -6.8453125 4.946875 -6.6875 4 C-5.51414745 0.37327394 -3.61159319 -0.15048305 0 0 Z " fill="#E84D4D" transform="translate(345,117.125)"/>
<path d="M0 0 C1.01755371 -0.00788544 1.01755371 -0.00788544 2.05566406 -0.01593018 C4.29776035 -0.02913276 6.53914651 -0.02039179 8.78125 -0.01025391 C10.3391941 -0.01227458 11.89713727 -0.01518597 13.45507812 -0.01895142 C16.72014369 -0.0233751 19.98496305 -0.0169425 23.25 -0.00292969 C27.43676349 0.01416247 31.62295007 0.00432148 35.80969238 -0.01364708 C39.02673699 -0.02448387 42.24364465 -0.02103911 45.46069336 -0.0132637 C47.0044766 -0.01126139 48.54827225 -0.01372207 50.09204102 -0.02070236 C52.24919604 -0.02831541 54.40541478 -0.01671613 56.5625 0 C57.79033203 0.00238678 59.01816406 0.00477356 60.28320312 0.00723267 C63.28125 0.38818359 63.28125 0.38818359 64.94439793 1.48301601 C66.9656928 4.36359312 66.66219874 6.76017508 66.66893005 10.2518158 C66.67431559 10.95392781 66.67970113 11.65603983 66.68524987 12.37942797 C66.69958571 14.7379109 66.69241217 17.09583699 66.68530273 19.4543457 C66.69100339 21.14286248 66.69796647 22.8313754 66.70610046 24.5198822 C66.72408098 29.11079113 66.7228543 33.70150944 66.71715808 38.29244304 C66.71407319 42.12212145 66.72015088 45.95176287 66.72619683 49.78143603 C66.74025659 58.81468966 66.73866879 67.84784875 66.72729492 76.88110352 C66.71581263 86.20666224 66.72988792 95.53193342 66.7566914 104.85745424 C66.77882846 112.85838091 66.78549027 120.8592172 66.77961498 128.86017233 C66.77623937 133.6412717 66.77870042 138.42218674 66.79586601 143.20326042 C66.81130133 147.69884982 66.80741779 152.1940124 66.78856087 156.68958473 C66.78486545 158.3407775 66.78801112 159.99200166 66.79844666 161.64316559 C66.81159407 163.895129 66.8001667 166.14566636 66.78245544 168.39756775 C66.78214152 170.28877303 66.78214152 170.28877303 66.78182125 172.21818447 C66.18981882 175.96719562 65.30178734 177.15632415 62.28125 179.38818359 C59.24560547 179.89611816 59.24560547 179.89611816 55.6484375 179.90576172 C54.99103577 179.912771 54.33363403 179.91978027 53.65631104 179.92700195 C51.48919083 179.9445679 49.32338284 179.93296595 47.15625 179.91943359 C45.64697011 179.92212896 44.13769192 179.92601175 42.62841797 179.93103027 C39.46760501 179.93692336 36.30724466 179.9283691 33.14648438 179.90966797 C29.09756443 179.88687779 25.04970502 179.90000199 21.00082397 179.92395782 C17.88492867 179.93842137 14.76928426 179.93380743 11.65338135 179.92344666 C10.1606636 179.92078087 8.66792296 179.92404397 7.17523193 179.93336487 C5.08756296 179.94354055 3.00160426 179.92801928 0.9140625 179.90576172 C-0.86653564 179.90098816 -0.86653564 179.90098816 -2.68310547 179.89611816 C-6.45944277 179.26424831 -7.40856497 178.40533689 -9.71875 175.38818359 C-10.21932125 172.21818447 -10.21932125 172.21818447 -10.21995544 168.39756775 C-10.22548984 167.69389574 -10.23102424 166.99022373 -10.23672634 166.26522833 C-10.25033985 163.90733527 -10.235361 161.55049948 -10.22045898 159.19262695 C-10.2242419 157.50234019 -10.22974171 155.81205652 -10.23683167 154.1217804 C-10.2508062 149.53092159 -10.23960303 144.94043672 -10.22312045 140.34959865 C-10.20928381 135.54902642 -10.21572836 130.7484762 -10.21925354 125.94789124 C-10.2219565 117.88683027 -10.20847179 109.82591813 -10.18530273 101.76489258 C-10.15868344 92.43875895 -10.15694843 83.11287405 -10.1686911 73.78671545 C-10.17946092 64.82189999 -10.17328866 55.8571747 -10.15913582 46.89236641 C-10.15337 43.07382647 -10.15346334 39.25535238 -10.15820122 35.43681145 C-10.1629649 30.94289301 -10.15289474 26.44924783 -10.13124657 21.95538139 C-10.12567053 20.30377626 -10.12522087 18.65214491 -10.13019943 17.00053787 C-10.13613214 14.75065813 -10.12368713 12.5016196 -10.10643005 10.2518158 C-10.10400016 8.9913893 -10.10157026 7.73096281 -10.09906673 6.43234158 C-9.71875 3.38818359 -9.71875 3.38818359 -8.38189793 1.48301601 C-5.68608327 -0.29160983 -3.18602564 0.00619331 0 0 Z " fill="#32A5FA" transform="translate(25.71875,316.61181640625)"/>
<path d="M0 0 C1.2065625 0.31710938 2.413125 0.63421875 3.65625 0.9609375 C6.94060357 1.78202589 10.11986046 2.34332171 13.5 2.625 C14.3559375 2.69976562 15.211875 2.77453125 16.09375 2.8515625 C16.7228125 2.90054688 17.351875 2.94953125 18 3 C18.25652344 3.75023437 18.51304687 4.50046875 18.77734375 5.2734375 C22.14552045 14.27792336 26.97870398 20.41240517 34.03515625 26.859375 C36.51415392 29.56015178 38.18720933 32.52491961 39.875 35.75 C40.21869629 36.40395752 40.56239258 37.05791504 40.91650391 37.73168945 C55.47549673 66.14368217 54.30870618 94.61735066 44.79296875 124.47265625 C44.50728027 125.35195801 44.2215918 126.23125977 43.92724609 127.13720703 C43.27021411 129.16573707 42.62597644 131.19843155 41.99072266 133.23388672 C40.92408278 136.626496 39.8114352 140.00098483 38.6875 143.375 C38.35733887 144.43904053 38.02717773 145.50308105 37.68701172 146.59936523 C35.10941023 154.08231852 32.0319251 157.43820262 25 161 C23.98808594 161.55429687 22.97617187 162.10859375 21.93359375 162.6796875 C21.10988281 163.07414063 20.28617187 163.46859375 19.4375 163.875 C18.59058594 164.28492188 17.74367188 164.69484375 16.87109375 165.1171875 C16.25363281 165.40851563 15.63617188 165.69984375 15 166 C14.62488281 165.20335937 14.24976563 164.40671875 13.86328125 163.5859375 C8.95077034 153.41444137 4.57178795 146.80406986 -6 142 C-10.29322688 140.73477751 -14.59558153 139.7869964 -19 139 C-23.82401277 116.19206765 -18.98776043 90.80356899 -7 71 C-3.16423376 74.60329556 -0.00826033 78.49020487 3.171875 82.6796875 C4.89963646 84.8726155 6.72351962 86.89547542 8.625 88.9375 C12.39919746 93.18558772 14.71309267 97.8314219 17 103 C17.32097656 103.72316406 17.64195312 104.44632812 17.97265625 105.19140625 C18.66565039 106.78690438 19.33592877 108.3922486 20 110 C22.91652174 110.16681109 22.91652174 110.16681109 26 110 C28.17432491 108.23981758 28.17432491 108.23981758 28.22265625 106.07421875 C27.37470406 93.4376629 19.91261745 84.46657832 11.5234375 75.7109375 C4.33243888 67.98562319 0.4525263 59.20067507 0.76171875 48.57421875 C1.00307057 45.96682773 1.46135231 43.49898288 2 40.9375 C4.69422387 27.13687125 2.67663772 13.62217412 0 0 Z " fill="#E84D4D" transform="translate(326,214)"/>
<path d="M0 0 C0.99 1.485 0.99 1.485 2 3 C1.3201001 3.66942627 0.6402002 4.33885254 -0.06030273 5.02856445 C-2.63206125 7.56354873 -5.19672317 10.10561847 -7.75952148 12.6496582 C-8.86019919 13.74040691 -9.96267983 14.8293399 -11.06713867 15.91625977 C-18.21260581 22.95124673 -24.77036262 30.12982336 -31 38 C-31.87457974 39.03972368 -32.75467231 40.07488528 -33.64453125 41.1015625 C-51.60088538 62.00211164 -66.56892421 86.32905967 -74 113 C-74.350625 114.02996094 -74.70125 115.05992187 -75.0625 116.12109375 C-76.12941635 119.39741605 -76.59017723 122.58481025 -77 126 C-79 125 -79 125 -79.80102539 122.91577148 C-81.66452899 115.98046426 -82.72245981 109.19995234 -83.4375 102.0625 C-84.50804192 92.27019013 -86.06816242 82.7105562 -88.1328125 73.08203125 C-93.33321959 48.67522964 -89.18845163 24.675475 -75.75488281 3.61376953 C-56.34734475 -25.17883123 -24.95147053 -15.59466908 0 0 Z " fill="#D8377C" transform="translate(220,160)"/>
<path d="M0 0 C6.83258957 5.12444218 9.96322706 11.30226635 12.046875 19.53515625 C12.5203097 24.48832917 12.47343949 29.37697937 12.359375 34.34765625 C12.34970703 35.63091797 12.34003906 36.91417969 12.33007812 38.23632812 C12.26365337 43.79001551 12.07093847 49.06541008 11.046875 54.53515625 C7.81772748 54.56432853 4.58861417 54.58201288 1.359375 54.59765625 C-0.00864258 54.61022461 -0.00864258 54.61022461 -1.40429688 54.62304688 C-2.29052734 54.62626953 -3.17675781 54.62949219 -4.08984375 54.6328125 C-4.90155029 54.63804932 -5.71325684 54.64328613 -6.54956055 54.64868164 C-9.10177173 54.52813535 -11.46338637 54.09510525 -13.953125 53.53515625 C-11.40628795 50.42235541 -8.71016938 49.73421297 -4.953125 48.53515625 C-3.963125 47.54515625 -3.963125 47.54515625 -2.953125 46.53515625 C-3.14069562 42.7095096 -3.14069562 42.7095096 -4.953125 39.53515625 C-11.27841514 38.98030624 -15.7447372 39.79260214 -20.953125 43.53515625 C-24.57516047 47.00775608 -28.18399073 50.77075504 -29.953125 55.53515625 C-29.89754268 57.53611978 -29.81090514 59.53632462 -29.703125 61.53515625 C-30.04182567 67.1299895 -31.42460409 69.67413236 -35.47021484 73.27734375 C-37.96544731 75.30238392 -40.50070712 77.2573734 -43.09179688 79.15820312 C-45.83644048 81.18860579 -48.44726399 83.35936309 -51.078125 85.53515625 C-51.92632812 86.21578125 -52.77453125 86.89640625 -53.6484375 87.59765625 C-56.01499194 89.4823225 -56.01499194 89.4823225 -57.9453125 91.84765625 C-59.953125 93.53515625 -59.953125 93.53515625 -62.30859375 93.40625 C-63.61763672 92.97505859 -63.61763672 92.97505859 -64.953125 92.53515625 C-65.98050781 92.29925781 -67.00789062 92.06335938 -68.06640625 91.8203125 C-71.88400459 90.36132803 -74.81062868 89.07018096 -76.953125 85.53515625 C-79.963335 72.26848361 -77.32085431 56.56951598 -73.953125 43.53515625 C-73.7365625 42.6225 -73.52 41.70984375 -73.296875 40.76953125 C-69.34035437 25.79127459 -60.43262579 12.75111263 -47.05078125 4.703125 C-46.35855469 4.31769531 -45.66632813 3.93226562 -44.953125 3.53515625 C-44.33308594 3.16003906 -43.71304688 2.78492188 -43.07421875 2.3984375 C-31.17460105 -4.28422881 -12.17326613 -7.3325546 0 0 Z " fill="#32A4F9" transform="translate(292.953125,59.46484375)"/>
<path d="M0 0 C5.9486655 2.62303361 9.53397017 6.94122598 12.98046875 12.32421875 C15.28125659 18.34083295 14.86708785 26.97886595 12.3125 32.875 C11.8175 33.74125 11.3225 34.6075 10.8125 35.5 C10.18085938 35.2834375 9.54921875 35.066875 8.8984375 34.84375 C-4.07754742 30.80511492 -14.03765413 31.68063216 -26.1875 37.5 C-30.30159025 39.67378677 -34.30970569 42.00356012 -38.3125 44.375 C-40.01986321 45.37344434 -41.72723372 46.37187643 -43.43502808 47.36958313 C-45.19234786 48.39736656 -46.94782671 49.42824139 -48.703125 50.45947266 C-54.21926747 53.69559677 -59.76853141 56.87438348 -65.3125 60.0625 C-77.63081473 67.16279613 -89.91409912 74.32238664 -102.1875 81.5 C-103.1875 79.5 -103.1875 79.5 -102.72192383 77.70678711 C-102.44888428 76.9875708 -102.17584473 76.26835449 -101.89453125 75.52734375 C-101.59748291 74.71861816 -101.30043457 73.90989258 -100.99438477 73.07666016 C-100.32133109 71.29033306 -99.64597069 69.50487368 -98.96850586 67.72021484 C-97.38809849 63.41940922 -96.029052 59.4728313 -95.671875 54.88671875 C-95.18360723 49.19926771 -94.55314009 44.58833481 -90.09228516 40.65039062 C-84.26054444 36.59064021 -77.95184205 33.42897266 -71.60888672 30.25341797 C-65.98497745 27.3712347 -60.57216731 24.13740363 -55.125 20.9375 C-46.54472597 15.9788457 -37.93722838 11.06837302 -29.3125 6.1875 C-28.34948975 5.642146 -27.38647949 5.09679199 -26.39428711 4.53491211 C-25.50362549 4.0322583 -24.61296387 3.52960449 -23.6953125 3.01171875 C-22.91816895 2.57303467 -22.14102539 2.13435059 -21.34033203 1.68237305 C-14.08500189 -2.30238131 -7.96917894 -2.7496709 0 0 Z " fill="#E5A78C" transform="translate(479.1875,278.5)"/>
<path d="M0 0 C6.61773867 3.1498384 7.61844315 8.46354244 10 15 C10.47050781 16.12921875 10.94101563 17.2584375 11.42578125 18.421875 C15.68147601 29.40276626 18.10638682 42.79226319 13.5625 54.08203125 C12.46458581 56.47725933 11.25125462 58.67038468 9.921875 60.95703125 C4.1599498 71.89601333 3.30017645 84.34078193 2.75 96.4375 C2.67332172 97.86270878 2.59520211 99.28784076 2.515625 100.71289062 C2.32723379 104.14120871 2.15799046 107.57012989 2 111 C1.26177002 110.79648926 0.52354004 110.59297852 -0.23706055 110.38330078 C-1.21457275 110.11501465 -2.19208496 109.84672852 -3.19921875 109.5703125 C-4.16432373 109.30492676 -5.12942871 109.03954102 -6.1237793 108.76611328 C-15.0495147 106.38864467 -23.7795231 105.50486761 -33 105 C-32.28226717 98.64507388 -31.20684909 92.40411339 -30 86.125 C-29.82210937 85.17625 -29.64421875 84.2275 -29.4609375 83.25 C-29.28820312 82.34507813 -29.11546875 81.44015625 -28.9375 80.5078125 C-28.70353516 79.28022217 -28.70353516 79.28022217 -28.46484375 78.02783203 C-28 76 -28 76 -27 74 C-26.68358871 72.07894466 -26.41460138 70.15000402 -26.16796875 68.21875 C-26.01142822 66.99978027 -25.8548877 65.78081055 -25.69360352 64.52490234 C-25.61135529 63.86979675 -25.52910706 63.21469116 -25.44436646 62.53973389 C-25.18527846 60.48235908 -24.91920129 58.42597736 -24.65209961 56.36962891 C-23.67460456 48.77349742 -22.79574495 41.17441984 -22.0234375 33.5546875 C-21.7812077 31.24539486 -21.53739346 28.93627469 -21.29312134 26.62719727 C-21.1400903 25.1327298 -20.99513235 23.63741236 -20.85848999 22.14135742 C-20.66607517 20.03706494 -20.44693795 17.93703754 -20.22265625 15.8359375 C-20.10672119 14.63501465 -19.99078613 13.4340918 -19.87133789 12.19677734 C-18.61041813 7.57069628 -15.87069033 5.25794013 -11.97265625 2.63671875 C-7.8516333 0.58884845 -4.70132015 -0.73131647 0 0 Z " fill="#FB84AC" transform="translate(202,28)"/>
<path d="M0 0 C12.7409373 5.78853852 19.56774813 12.71892689 24.71386719 25.67578125 C28.67366601 36.31156153 30.63633925 46.54621794 30.64453125 57.859375 C30.65677734 58.76107422 30.66902344 59.66277344 30.68164062 60.59179688 C30.68357422 61.45740234 30.68550781 62.32300781 30.6875 63.21484375 C30.69160889 63.99883545 30.69571777 64.78282715 30.69995117 65.59057617 C30.45703125 67.671875 30.45703125 67.671875 28.45703125 70.671875 C25.48073118 65.31453488 23.8567528 60.74144251 22.94921875 54.67578125 C22.78679687 54.01449219 22.624375 53.35320312 22.45703125 52.671875 C19.98513943 51.43592909 17.82285286 51.51829206 15.09985352 51.43310547 C2.20239306 50.9893282 -7.22890872 47.36059735 -16.296875 37.828125 C-22.05522174 30.785335 -25.36183669 22.16997279 -24.92578125 13.02734375 C-24.04704219 7.62040849 -21.87013118 3.96666762 -17.98046875 0.171875 C-11.67119344 -2.58126332 -6.44388172 -2.41556757 0 0 Z " fill="#D6377B" transform="translate(331.54296875,154.328125)"/>
<path d="M0 0 C2.7073004 5.68533084 4.36646905 11.53274896 6.03515625 17.59765625 C6.94278248 20.98410561 6.94278248 20.98410561 8.18359375 24.12109375 C9.09406653 27.33170828 9.23274322 28.90247148 8 32 C5.890625 33.66015625 5.890625 33.66015625 3.25 35.0625 C-0.47709287 37.12304992 -3.6896446 39.31033624 -7 42 C-7.66 42 -8.32 42 -9 42 C-9.38502333 36.6629375 -9.74235865 31.32500734 -10.07421875 25.984375 C-10.19097826 24.16811597 -10.3152737 22.352325 -10.44726562 20.53710938 C-10.63576718 17.92664839 -10.79704257 15.31569992 -10.953125 12.703125 C-11.0175177 11.89256653 -11.0819104 11.08200806 -11.14825439 10.24688721 C-11.34091369 6.61521616 -11.35075651 4.50310726 -9.23730469 1.47167969 C-6.11269431 -0.58366202 -3.65286728 -0.28098979 0 0 Z " fill="#F781A9" transform="translate(237,20)"/>
<path d="M0 0 C1.40378906 -0.02126953 1.40378906 -0.02126953 2.8359375 -0.04296875 C5.78618154 0.20081892 7.94864112 0.95637492 10.625 2.1875 C8.13320607 4.97479682 5.37255628 6.63387778 2.13671875 8.48046875 C0.49703125 9.42104126 0.49703125 9.42104126 -1.17578125 10.38061523 C-2.34624233 11.04560704 -3.51681717 11.71039865 -4.6875 12.375 C-5.87261252 13.05178541 -7.05750816 13.72895075 -8.2421875 14.40649414 C-10.56596395 15.73482134 -12.89120166 17.0604694 -15.21728516 18.38476562 C-17.86418369 19.89587578 -20.50348567 21.41838636 -23.13671875 22.953125 C-23.78664795 23.33057861 -24.43657715 23.70803223 -25.10620117 24.09692383 C-26.74865821 25.05156656 -28.39000102 26.00812559 -30.03125 26.96484375 C-32.375 28.1875 -32.375 28.1875 -34.375 28.1875 C-34.375 23.5675 -34.375 18.9475 -34.375 14.1875 C-30.72805577 12.35254346 -27.08052924 10.51882525 -23.43139648 8.68823242 C-22.19047308 8.06525807 -20.94990981 7.4415658 -19.7097168 6.81713867 C-17.92591936 5.91916775 -16.14071153 5.02400027 -14.35546875 4.12890625 C-13.28192139 3.58951416 -12.20837402 3.05012207 -11.10229492 2.49438477 C-7.20702276 0.62782028 -4.28159689 0.02932601 0 0 Z " fill="#E0A389" transform="translate(424.375,276.8125)"/>
<path d="M0 0 C0.33 0 0.66 0 1 0 C1.03963867 0.56283691 1.07927734 1.12567383 1.12011719 1.70556641 C2.44148932 19.61709423 6.07604949 33.84733165 14 50 C7.4 50 0.8 50 -6 50 C-10.13833055 33.44667782 -5.33991364 15.69363933 0 0 Z " fill="#E04A4A" transform="translate(160,265)"/>
<path d="M0 0 C1.70043945 1.16333008 1.70043945 1.16333008 3 3 C3.34057617 5.63549805 3.34057617 5.63549805 3.29296875 8.76171875 C3.28330078 9.87998047 3.27363281 10.99824219 3.26367188 12.15039062 C3.23853516 13.31763672 3.21339844 14.48488281 3.1875 15.6875 C3.16719727 17.45577148 3.16719727 17.45577148 3.14648438 19.25976562 C3.11109326 22.17363411 3.06171809 25.08658945 3 28 C1.741875 28.32742187 0.48375 28.65484375 -0.8125 28.9921875 C-1.52019531 29.1763623 -2.22789062 29.36053711 -2.95703125 29.55029297 C-5.34505703 30.07595543 -7.56300801 30.152312 -10 30 C-13.47934633 23.73717661 -13.12183329 18.96512145 -12 12 C-11.86207031 11.14148437 -11.72414063 10.28296875 -11.58203125 9.3984375 C-10.15123709 1.88982539 -8.26243272 -0.88526065 0 0 Z " fill="#F782AA" transform="translate(268,16)"/>
<path d="M0 0 C3.625 0.25 3.625 0.25 5.359375 1.42578125 C8.06312394 5.32285148 6.3202175 10.8160573 5.625 15.25 C4.75326345 19.28919814 3.74612148 23.27319172 2.625 27.25 C2.03332031 27.04503906 1.44164062 26.84007813 0.83203125 26.62890625 C-3.21160816 25.2502429 -7.14355249 23.93249153 -11.375 23.25 C-12.55062392 14.85268625 -8.38387772 8.33523472 -4.375 1.25 C-3.375 0.25 -3.375 0.25 0 0 Z " fill="#F681A9" transform="translate(295.375,21.75)"/>
<path d="M0 0 C2 1.6875 2 1.6875 3 4 C2.375 7.125 2.375 7.125 1 10 C-2 12 -2 12 -4.5 11.8125 C-7.26314599 10.91447755 -8.4089781 10.42840184 -10 8 C-10.4375 5 -10.4375 5 -10 2 C-6.96825255 -1.6147758 -4.31435792 -1.37692274 0 0 Z " fill="#050101" transform="translate(348,118)"/>
</svg>
