<?xml version="1.0" encoding="UTF-8"?>
<svg version="1.1" xmlns="http://www.w3.org/2000/svg" width="512" height="512">
<path d="M0 0 C1.22814926 -0.0159874 2.45629852 -0.03197479 3.72166443 -0.04844666 C5.06321803 -0.05482273 6.40477662 -0.06021567 7.74633789 -0.06469727 C9.12252399 -0.07366449 10.49870909 -0.08278635 11.87489319 -0.09205627 C14.75906747 -0.10854195 17.64312572 -0.11624573 20.52734375 -0.11914062 C24.22103479 -0.12452813 27.91363405 -0.16222253 31.60701656 -0.20788479 C34.44922357 -0.23764266 37.29116706 -0.24486385 40.13351631 -0.24586678 C41.49510264 -0.25007075 42.85668964 -0.26251257 44.21812248 -0.28338432 C46.12309257 -0.31026724 48.02845719 -0.30237254 49.93359375 -0.29296875 C51.01708603 -0.2980394 52.10057831 -0.30311005 53.21690369 -0.30833435 C56.98097516 0.51377133 57.97478196 2.14124614 60.03149414 5.30639648 C61.22782076 7.69904972 61.15217076 9.15453721 61.14501953 11.82527161 C61.14494904 12.77686157 61.14487854 13.72845154 61.14480591 14.70887756 C61.13963959 15.75659836 61.13447327 16.80431915 61.12915039 17.88378906 C61.12769012 18.98485992 61.12622986 20.08593079 61.12472534 21.22036743 C61.12091094 23.61959592 61.11478563 26.01882156 61.10665894 28.41803932 C61.09391912 32.22333462 61.08738464 36.0285951 61.08251953 39.83390808 C61.07009473 48.61342606 61.04853663 57.39291175 61.02629089 66.17240906 C61.00442315 74.83158352 60.98656649 83.49074145 60.97555542 92.14993858 C60.96911012 95.88373971 60.95659571 99.61748846 60.94384766 103.35127258 C60.9402105 105.66940262 60.93685936 107.98753314 60.93383789 110.30566406 C60.92867157 111.33111832 60.92350525 112.35657257 60.91818237 113.4131012 C60.91765604 120.74946213 61.38191333 128.00001356 62.03149414 135.30639648 C62.57797607 134.84620117 63.12445801 134.38600586 63.6875 133.91186523 C64.9909668 132.81420898 66.29443359 131.71655273 67.59790039 130.61889648 C79.19154227 119.6021453 89.03493084 106.11600192 98.53149414 93.30639648 C108.05299516 80.4700575 118.04063676 67.92530286 129.03149414 56.30639648 C129.50377441 55.80156738 129.97605469 55.29673828 130.46264648 54.77661133 C145.52749047 38.77169828 163.75704598 25.76919784 186.47363281 24.90429688 C206.1047498 24.60317427 224.98397108 31.06073778 239.43774414 44.55249023 C254.90855328 60.68557716 260.78575917 81.77092291 264.03149414 103.30639648 C264.13606934 103.97832031 264.24064453 104.65024414 264.34838867 105.3425293 C265.40535908 113.2348271 265.27541754 121.23289107 265.28149414 129.18139648 C265.28216888 129.97673798 265.28284363 130.77207947 265.28353882 131.59152222 C265.22793247 173.12946685 256.01804537 214.10592138 242.90649414 253.36889648 C242.65882294 254.11162811 242.41115173 254.85435974 242.15597534 255.61959839 C238.78830271 265.65950473 235.06340742 275.51498854 231.03149414 285.30639648 C231.91619385 285.41838379 232.80089355 285.53037109 233.71240234 285.64575195 C248.69104797 287.60989649 260.54589547 292.42805862 270.46899414 304.24389648 C277.9682628 314.23267646 279.94238945 323.94990362 279.03149414 336.30639648 C276.68879072 350.27308691 270.20094343 361.5835573 262.53149414 373.24389648 C255.66660479 383.72149824 250.38524842 394.58935705 246.28149414 406.43139648 C246.01191895 407.18622314 245.74234375 407.9410498 245.46459961 408.71875 C238.638894 429.45871747 238.43325156 450.53311319 238.40985107 472.1060791 C238.4009344 478.28257793 238.36552165 484.45885124 238.31767654 490.63515854 C238.30516989 492.7734741 238.30583861 494.91149083 238.30795288 497.04983521 C238.30099396 498.339935 238.29403503 499.63003479 238.28686523 500.95922852 C238.28560638 502.09200226 238.28434753 503.224776 238.28305054 504.39187622 C238.03489301 507.26701732 237.61973218 508.92082719 236.03149414 511.30639648 C230.99110525 513.82659093 223.10209031 512.61956055 217.49267578 512.65649414 C215.64879734 512.67304863 213.80498295 512.70033217 211.96142578 512.73852539 C209.30085009 512.79335313 206.64177777 512.81517627 203.98071289 512.82983398 C203.15971603 512.85250336 202.33871918 512.87517273 201.49284363 512.89852905 C200.71886734 512.89567902 199.94489105 512.89282898 199.14746094 512.88989258 C198.47176559 512.89797943 197.79607025 512.90606628 197.09989929 512.91439819 C193.54347435 511.86899737 192.20566029 510.29418344 190.03149414 507.30639648 C189.30888355 503.73405721 189.38224854 500.22531526 189.43554688 496.59130859 C189.43148834 495.51079727 189.42742981 494.43028595 189.42324829 493.31703186 C189.41772919 490.9702599 189.42374469 488.62343901 189.43990898 486.27671623 C189.46535526 482.54452477 189.4605172 478.81343704 189.44801331 475.08119202 C189.42900186 467.80784132 189.44289567 460.53480847 189.46348572 453.2614975 C189.49033595 443.42691147 189.49629998 433.59259148 189.46849251 423.75799751 C189.46517191 420.11346065 189.48622967 416.46963384 189.50889587 412.82518005 C189.52252998 400.50476238 188.73501053 389.04413882 185.89125061 377.03517151 C185.03149414 373.30639648 185.03149414 373.30639648 185.03149414 370.30639648 C181.86183432 373.42409467 178.81420869 376.61208504 175.83447266 379.91113281 C166.54249227 390.16807889 157.19678749 398.4981549 145.03149414 405.30639648 C144.28383789 405.74081055 143.53618164 406.17522461 142.76586914 406.62280273 C130.04496978 413.20174114 114.32497023 411.88618289 100.89868164 408.52124023 C88.3758714 404.49231382 79.56002107 394.75028916 71.77758789 384.57592773 C62.43633456 372.43438818 53.38524859 367.53992195 38.21899414 364.55639648 C36.82556622 364.43954718 35.42867667 364.36275343 34.03149414 364.30639648 C32.88293945 364.25483398 31.73438477 364.20327148 30.55102539 364.15014648 C14.16013999 363.65721816 -2.26063994 365.97504979 -14.96850586 377.30639648 C-16.7371011 379.46893116 -18.42712174 381.6320083 -20.09350586 383.86889648 C-30.82328139 397.78899923 -41.69617595 407.88735752 -59.65600586 410.93139648 C-77.23195585 412.76010804 -92.52601941 408.51686089 -106.49584961 397.65405273 C-109.76438704 394.9904513 -112.88998634 392.18620009 -115.96850586 389.30639648 C-116.81413086 388.5187793 -117.65975586 387.73116211 -118.53100586 386.91967773 C-123.52441725 382.08652786 -127.85446916 376.90201553 -131.96850586 371.30639648 C-140.17562865 383.61708068 -138.52255606 403.29256851 -138.45436096 417.41107178 C-138.43684399 421.14417046 -138.44473861 424.87651245 -138.45861816 428.60961914 C-138.48371073 436.50859087 -138.47866852 444.40740413 -138.46850586 452.30639648 C-138.45670773 461.52334744 -138.45802594 470.7399818 -138.49256897 479.95690918 C-138.49966284 483.63318911 -138.48300194 487.30887457 -138.4654541 490.98510742 C-138.47115728 493.22501957 -138.47797225 495.46492926 -138.48608398 497.70483398 C-138.46911217 499.23510727 -138.46911217 499.23510727 -138.45179749 500.79629517 C-138.51119219 507.63113594 -138.51119219 507.63113594 -140.75048828 510.93763733 C-143.07750274 512.37365946 -144.23653353 512.80743705 -146.93920898 512.80810547 C-148.09060364 512.8221769 -148.09060364 512.8221769 -149.26525879 512.83653259 C-150.08514282 512.82529861 -150.90502686 512.81406464 -151.74975586 512.80249023 C-153.02550476 512.80467308 -153.02550476 512.80467308 -154.32702637 512.80690002 C-156.12243074 512.80524249 -157.91784952 512.79369745 -159.71313477 512.77294922 C-162.45902955 512.7439964 -165.20299285 512.75234224 -167.94897461 512.76538086 C-169.69507773 512.75914306 -171.44117476 512.75075179 -173.18725586 512.73999023 C-174.41708191 512.74439369 -174.41708191 512.74439369 -175.67175293 512.74888611 C-180.11101952 512.6755293 -182.78278342 512.47666907 -185.96850586 509.30639648 C-186.47402954 507.10177612 -186.47402954 507.10177612 -186.48266602 504.49731445 C-186.49592926 503.51713348 -186.5091925 502.53695251 -186.52285767 501.52706909 C-186.51781219 500.46166901 -186.51276672 499.39626892 -186.50756836 498.29858398 C-186.51936127 497.18573029 -186.53115417 496.07287659 -186.54330444 494.92630005 C-186.57866126 491.34452698 -186.58772077 487.7633296 -186.59350586 484.18139648 C-186.65898366 470.33861817 -186.7791231 456.5470949 -187.85913086 442.73999023 C-187.93515533 441.74599213 -188.01117981 440.75199402 -188.08950806 439.72787476 C-190.36603319 413.23062881 -201.04266992 389.26549116 -215.15600586 367.05639648 C-224.17526984 352.84566386 -230.59983978 337.7277382 -227.46459961 320.54467773 C-225.9314307 314.82376747 -223.479652 310.05507774 -219.96850586 305.30639648 C-219.47608398 304.63737305 -218.98366211 303.96834961 -218.47631836 303.27905273 C-208.71151253 291.10808662 -194.96833794 286.97850891 -179.96850586 285.30639648 C-180.22954102 284.64969971 -180.49057617 283.99300293 -180.75952148 283.31640625 C-195.51635059 246.02052359 -206.4159866 208.06046454 -211.96850586 168.30639648 C-212.16331543 166.99687012 -212.16331543 166.99687012 -212.36206055 165.66088867 C-215.84980284 141.71563279 -216.02817433 114.99087908 -210.96850586 91.30639648 C-210.82928711 90.62963867 -210.69006836 89.95288086 -210.54663086 89.25561523 C-206.14516684 68.59318691 -195.91406042 47.79192382 -177.82397461 35.90014648 C-160.02417817 25.96537638 -139.71288866 22.07962815 -119.85913086 27.33129883 C-107.59730115 30.988602 -97.43002971 37.81636839 -87.96850586 46.30639648 C-87.01975586 47.13526367 -86.07100586 47.96413086 -85.09350586 48.81811523 C-69.82857387 62.3615943 -57.45136188 79.10183889 -45.34594727 95.45141602 C-35.3812714 108.87070124 -25.03604655 121.71003959 -12.96850586 133.30639648 C-12.6057493 131.03691951 -12.25357399 128.76574913 -11.90600586 126.49389648 C-11.7087793 125.22932617 -11.51155273 123.96475586 -11.30834961 122.66186523 C-10.73764455 119.3152931 -10.73764455 119.3152931 -11.96850586 116.30639648 C-12.06420668 113.99675645 -12.09924502 111.68442368 -12.10131836 109.37280273 C-12.10227509 108.69845688 -12.10323181 108.02411102 -12.10421753 107.32933044 C-12.10489727 105.90461127 -12.10305736 104.47988898 -12.09887695 103.05517578 C-12.09353407 100.88038121 -12.09882455 98.70579394 -12.10522461 96.53100586 C-12.10456363 95.1449377 -12.10328205 93.75886966 -12.10131836 92.37280273 C-12.10019043 91.11411377 -12.0990625 89.8554248 -12.09790039 88.55859375 C-11.96850586 85.30639648 -11.96850586 85.30639648 -11.39770508 83.05224609 C-10.74792923 81.07885175 -10.74792923 81.07885175 -11.96850586 78.30639648 C-12.06441047 75.9238003 -12.09924859 73.53857742 -12.10131836 71.15405273 C-12.10227509 70.45751083 -12.10323181 69.76096893 -12.10421753 69.0433197 C-12.10489736 67.57152211 -12.10305681 66.0997215 -12.09887695 64.62792969 C-12.09353394 62.38070904 -12.09882439 60.13368898 -12.10522461 57.88647461 C-12.10456363 56.45483354 -12.10328207 55.0231926 -12.10131836 53.59155273 C-12.10019043 52.29096924 -12.0990625 50.99038574 -12.09790039 49.65039062 C-11.96850586 46.30639648 -11.96850586 46.30639648 -11.39770508 44.03857422 C-10.74769294 42.07698399 -10.74769294 42.07698399 -11.96850586 39.30639648 C-12.1967216 34.92845779 -12.19680116 30.54817316 -12.20874023 26.16503906 C-12.21842492 24.01189227 -12.24945038 21.85970916 -12.28100586 19.70678711 C-12.28753875 18.32723545 -12.2927881 16.94767701 -12.29663086 15.56811523 C-12.30597656 14.3198999 -12.31532227 13.07168457 -12.32495117 11.78564453 C-11.93148216 7.94500963 -11.0048553 5.569387 -8.96850586 2.30639648 C-5.49571142 -0.00879981 -4.102184 0.0403127 0 0 Z M90.85180664 197.05249023 C90.25464844 197.63836914 89.65749023 198.22424805 89.04223633 198.82788086 C88.41994141 199.46016602 87.79764648 200.09245117 87.15649414 200.74389648 C86.20758301 201.70199219 86.20758301 201.70199219 85.23950195 202.67944336 C77.66008989 210.51585166 72.76022682 218.67576323 72.80444336 229.86254883 C72.80459442 231.14342377 72.80474548 232.42429871 72.80490112 233.74398804 C72.81511205 235.12677163 72.825544 236.50955361 72.83618164 237.89233398 C72.83991579 239.31865235 72.84276086 240.7449733 72.84475708 242.17129517 C72.85236195 245.90972075 72.87198306 249.64798882 72.89416504 253.38635254 C72.91469157 257.2073351 72.9237733 261.02834333 72.93383789 264.84936523 C72.95523223 272.33511382 72.98932974 279.82073301 73.03149414 287.30639648 C90.64983545 275.70388987 104.36896054 258.98859062 112.03149414 239.30639648 C112.5090918 238.14817383 112.5090918 238.14817383 112.99633789 236.96655273 C116.03125768 228.56108364 116.71875332 217.97544991 113.67211914 209.54467773 C109.91048205 202.11992262 104.76535583 197.50305931 97.03149414 194.30639648 C93.51976349 194.30639648 93.24897425 194.69867947 90.85180664 197.05249023 Z M-57.11303711 201.20874023 C-63.38279112 208.08567042 -64.44649971 214.35344405 -64.27319336 223.52905273 C-62.89635694 240.59829402 -53.55038314 255.35432799 -42.96850586 268.30639648 C-42.30979492 269.11850586 -41.65108398 269.93061523 -40.97241211 270.76733398 C-36.2350485 276.35303836 -30.92697663 281.04370882 -24.96850586 285.30639648 C-24.63850586 285.30639648 -24.30850586 285.30639648 -23.96850586 285.30639648 C-23.8753986 277.13459846 -23.80453639 268.9630259 -23.76125717 260.7908268 C-23.74047433 256.99520619 -23.71232993 253.19995125 -23.66674805 249.40454102 C-23.62295403 245.73459711 -23.59929899 242.06500261 -23.58899689 238.39481735 C-23.5816651 237.00190107 -23.5673494 235.60900166 -23.54558563 234.21623611 C-23.33415736 220.11164648 -26.76255237 211.07132782 -36.28491211 200.81030273 C-39.53321083 197.45945451 -39.53321083 197.45945451 -42.96850586 194.30639648 C-48.06314502 194.30639648 -53.4224792 197.93496664 -57.11303711 201.20874023 Z " fill="#322F3F" transform="translate(229.968505859375,-0.306396484375)"/>
<path d="M0 0 C4.56932842 3.39913455 8.8025162 7.15707205 13 11 C13.67804688 11.61875 14.35609375 12.2375 15.0546875 12.875 C19.69755222 17.32530351 23.6608009 22.34669155 27.67529297 27.35888672 C29.09417555 29.11666938 30.53161899 30.85799663 31.97265625 32.59765625 C53.08620351 58.17240701 53.08620351 58.17240701 57 66 C56.34773437 66.268125 55.69546875 66.53625 55.0234375 66.8125 C48.54812306 69.71588583 44.52452327 72.7833132 41 79 C35.54521658 95.36435025 43.22913731 115.17632463 50 130 C50.55558594 130.90363281 51.11117187 131.80726563 51.68359375 132.73828125 C53 135 53 135 53 138 C51.0234375 139.4296875 51.0234375 139.4296875 48.375 140.875 C39.93345331 145.74969598 33.18708908 151.51646628 30.3515625 161.21875 C27.41546402 184.44655134 35.09216697 205.44732447 49 224 C52.77516115 228.54732129 56.84095014 232.80498896 61 237 C61.80308594 237.81597656 62.60617188 238.63195312 63.43359375 239.47265625 C81.27857602 256.53522783 104.96185761 266.60647494 129.5625 266.375 C130.79935547 266.38660156 132.03621094 266.39820313 133.31054688 266.41015625 C141.02116306 266.38569105 147.69732606 265.46360807 155 263 C156.66095703 262.47019531 156.66095703 262.47019531 158.35546875 261.9296875 C173.10821855 256.43555999 185.5104791 248.68738571 197 238 C198.32451172 236.79730469 198.32451172 236.79730469 199.67578125 235.5703125 C212.83541719 223.08605446 223.2074624 206.56169601 228 189 C228.34675781 187.91460937 228.69351562 186.82921875 229.05078125 185.7109375 C231.71205733 175.30677174 230.80362894 164.07705505 225.7109375 154.6015625 C220.66766062 146.48377459 214.603537 141.92442039 206 138 C206.59889873 134.80061993 207.86631677 132.12616394 209.32397461 129.23168945 C215.54742812 116.75360773 219.39806699 104.33073762 219.5625 90.3125 C219.57724365 89.4872583 219.5919873 88.6620166 219.60717773 87.81176758 C219.50945489 82.09293284 218.26617074 78.70590356 215 74 C211.30720524 70.46776154 207.64738862 68.10239009 203 66 C204.37343873 63.0765901 205.95480842 60.54286914 207.87109375 57.9453125 C208.43965088 57.1728418 209.00820801 56.40037109 209.59399414 55.60449219 C210.20235107 54.78625977 210.81070801 53.96802734 211.4375 53.125 C212.06712646 52.27583008 212.69675293 51.42666016 213.34545898 50.55175781 C254.99684846 -5.4194395 254.99684846 -5.4194395 283.4296875 -10.71875 C293.36328 -11.80570845 302.58923181 -11.42458813 312 -8 C312.99902344 -7.63648438 313.99804688 -7.27296875 315.02734375 -6.8984375 C331.3873018 -0.50299362 341.8651712 10.10513001 349.13623047 25.98046875 C362.10152188 56.29389174 360.36272545 94.14242868 355 126 C354.81775879 127.11955078 354.63551758 128.23910156 354.44775391 129.39257812 C350.83217588 151.4183049 346.13220582 172.84533584 339 194 C338.61086426 195.15790039 338.22172852 196.31580078 337.82080078 197.50878906 C336.51556259 201.38429748 335.19678655 205.2551098 333.875 209.125 C333.45516846 210.35863281 333.03533691 211.59226562 332.6027832 212.86328125 C330.35142128 219.39005108 327.96402349 225.76135792 325 232 C321.34056771 230.31683188 319.66229074 228.56709887 317.25 225.3125 C309.82109344 215.81391652 302.12902223 209.96043109 290 208 C278.07587461 207.04669509 269.37509099 209.30211913 260.109375 216.94140625 C252.84478825 224.0311048 248.8105322 231.61419852 248.61914062 241.77563477 C248.65591245 257.30407133 253.10740577 265.07338431 263.35546875 276.6640625 C268.50878405 282.61208621 272.88667388 288.67190256 277 295.375 C277.46897705 296.13619141 277.9379541 296.89738281 278.42114258 297.68164062 C283.31819411 305.85089066 283.31819411 305.85089066 284 310 C282.61328125 312.5703125 282.61328125 312.5703125 280.3125 315.125 C279.47203125 316.07375 278.6315625 317.0225 277.765625 318 C277.31251953 318.49113281 276.85941406 318.98226563 276.39257812 319.48828125 C275.00504823 320.99451988 273.64900885 322.52447221 272.296875 324.0625 C261.46203141 336.28233617 248.0014131 350.44326506 230.76733398 352.23168945 C217.21088847 353.01778983 206.50742141 351.96976523 195.8125 342.875 C190.12379747 337.39631378 185.2618602 331.2445472 180.45703125 324.9921875 C171.67696479 314.02325293 158.26500785 308.16644428 144.54296875 306.28125 C122.72539236 304.5493145 101.1873294 305.81515464 83.1875 319.625 C79.39250771 323.24117066 76.31506741 327.60321928 73.12036133 331.74438477 C65.35596537 341.78434497 57.68040388 349.04774187 45 352 C41.86934654 352.29229175 38.76768259 352.32505065 35.625 352.3125 C34.82578125 352.32861328 34.0265625 352.34472656 33.203125 352.36132812 C17.00624384 352.3744324 4.70529762 342.51669997 -6.36328125 331.71875 C-11.605988 326.44975362 -16.38776075 320.82336683 -21 315 C-21.92039063 314.01386719 -21.92039063 314.01386719 -22.859375 313.0078125 C-24 311 -24 311 -23.93359375 308.22265625 C-22.78897799 304.27157675 -21.11195484 300.98807357 -19.0625 297.4375 C-18.66426025 296.74003662 -18.26602051 296.04257324 -17.85571289 295.32397461 C-12.70571354 286.51874894 -6.52566148 278.68988891 0.375 271.1875 C3.79678116 267.42767998 6.07501362 263.68858069 8 259 C8.35707031 258.2678125 8.71414062 257.535625 9.08203125 256.78125 C10.29659902 253.10136808 10.34197515 249.58345403 10.3125 245.75 C10.30686035 244.99074219 10.3012207 244.23148438 10.29541016 243.44921875 C10.06808621 232.95180406 6.55459976 224.48963369 -1.00390625 217.01953125 C-9.79784504 209.64143234 -18.88108658 207.22226137 -30.27734375 207.546875 C-36.10753348 208.25653083 -40.86821194 210.21573201 -46 213 C-46.64195313 213.32613281 -47.28390625 213.65226563 -47.9453125 213.98828125 C-52.97185141 217.01589422 -56.15638076 221.88643113 -59.44970703 226.63085938 C-60.66796875 228.33203125 -60.66796875 228.33203125 -63 231 C-64.32 231 -65.64 231 -67 231 C-74.32421875 210.4921875 -74.32421875 210.4921875 -75.66357422 206.73242188 C-76.54251486 204.27768228 -77.42934479 201.82575071 -78.32470703 199.37695312 C-81.04305325 191.90690887 -83.45239323 184.4309486 -85.5 176.75 C-85.79551758 175.64664307 -86.09103516 174.54328613 -86.39550781 173.40649414 C-89.29269109 162.31919659 -91.4816857 151.12808253 -93.48876953 139.85009766 C-93.94134709 137.32698857 -94.4154424 134.80962983 -94.90234375 132.29296875 C-102.28207319 93.66809499 -104.7218205 46.12368296 -82.0234375 12.03125 C-61.9048579 -14.57977959 -26.87266283 -17.41271589 0 0 Z " fill="#E5EAFE" transform="translate(126,47)"/>
<path d="M0 0 C0.33 0 0.66 0 1 0 C1.02578125 0.96679688 1.0515625 1.93359375 1.078125 2.9296875 C1.74173662 18.16259053 6.34213559 26.33886646 16.35546875 37.6640625 C21.50878405 43.61208621 25.88667388 49.67190256 30 56.375 C30.46897705 57.13619141 30.9379541 57.89738281 31.42114258 58.68164062 C36.31819411 66.85089066 36.31819411 66.85089066 37 71 C35.61328125 73.5703125 35.61328125 73.5703125 33.3125 76.125 C32.05179687 77.548125 32.05179687 77.548125 30.765625 79 C30.31251953 79.49113281 29.85941406 79.98226562 29.39257812 80.48828125 C28.00504823 81.99451988 26.64900885 83.52447221 25.296875 85.0625 C14.46203141 97.28233617 1.0014131 111.44326506 -16.23266602 113.23168945 C-29.78911153 114.01778983 -40.49257859 112.96976523 -51.1875 103.875 C-56.87620253 98.39631378 -61.7381398 92.2445472 -66.54296875 85.9921875 C-75.32303521 75.02325293 -88.73499215 69.16644428 -102.45703125 67.28125 C-124.27460764 65.5493145 -145.8126706 66.81515464 -163.8125 80.625 C-167.60749229 84.24117066 -170.68493259 88.60321928 -173.87963867 92.74438477 C-181.64403463 102.78434497 -189.31959612 110.04774187 -202 113 C-205.13065346 113.29229175 -208.23231741 113.32505065 -211.375 113.3125 C-212.17421875 113.32861328 -212.9734375 113.34472656 -213.796875 113.36132812 C-229.99375616 113.3744324 -242.29470238 103.51669997 -253.36328125 92.71875 C-258.605988 87.44975362 -263.38776075 81.82336683 -268 76 C-268.61359375 75.34257812 -269.2271875 74.68515625 -269.859375 74.0078125 C-271 72 -271 72 -270.93359375 69.22265625 C-269.78897799 65.27157675 -268.11195484 61.98807357 -266.0625 58.4375 C-265.66426025 57.74003662 -265.26602051 57.04257324 -264.85571289 56.32397461 C-259.70571354 47.51874894 -253.52566148 39.68988891 -246.625 32.1875 C-243.20321884 28.42767998 -240.92498638 24.68858069 -239 20 C-238.4740625 18.87271484 -238.4740625 18.87271484 -237.9375 17.72265625 C-236.77309058 14.34101723 -236.57498193 11.25384443 -236.375 7.6875 C-236.30023438 6.43324219 -236.22546875 5.17898438 -236.1484375 3.88671875 C-236.09945312 2.93410156 -236.05046875 1.98148437 -236 1 C-235.67 1 -235.34 1 -235 1 C-235 4.3 -235 7.6 -235 11 C-234.27071289 11.28214355 -233.54142578 11.56428711 -232.79003906 11.85498047 C-230.23547122 12.90336367 -227.81465286 14.06013987 -225.359375 15.3203125 C-203.42153378 26.35854386 -181.16604142 32.88038396 -157 37 C-156.26652344 37.12600586 -155.53304687 37.25201172 -154.77734375 37.38183594 C-150.86183732 38.0376638 -146.94611189 38.56768711 -143 39 C-141.99839844 39.11085938 -140.99679688 39.22171875 -139.96484375 39.3359375 C-120.69339846 41.06872845 -101.171478 40.44620097 -82 38 C-81.21109375 37.90348145 -80.4221875 37.80696289 -79.609375 37.70751953 C-55.95635911 34.72641716 -32.36394086 27.80450922 -11.24853516 16.66455078 C-7.57286107 14.72621851 -3.97953122 13.20056302 0 12 C0 8.04 0 4.08 0 0 Z " fill="#D5DAFD" transform="translate(373,286)"/>
<path d="M0 0 C4.53152854 3.70142872 8.4052616 7.94872864 11.9921875 12.5625 C22.0657035 24.79182681 39.40112515 35.49872269 55 38 C76.61688424 39.62184555 92.74389982 32.42288215 109.17626953 18.43920898 C113.80618727 14.355106 117.98774537 9.89008342 122.04321289 5.23950195 C126.54068256 0.13420244 126.54068256 0.13420244 130 -1 C134.8143209 -0.92358221 136.81070069 -0.87488685 140.71875 2 C143.80903845 6.06394098 143.72870226 8.96478766 143.5625 13.9375 C143.54445313 14.7828833 143.52640625 15.6282666 143.5078125 16.49926758 C142.75549677 36.36604519 132.92274466 54.39572811 118.87084961 67.99633789 C106.30748824 80.19245498 99.84000909 92.12407948 99.53068352 109.88793373 C99.50705579 112.12714206 99.49739329 114.36615834 99.48828125 116.60546875 C99.47140067 118.18159858 99.45324599 119.75771523 99.43388367 121.33381653 C99.38674375 125.44524004 99.35670311 129.55661009 99.33044434 133.66821289 C99.30045519 137.87852535 99.25398884 142.08865414 99.20898438 146.29882812 C99.12336197 154.53246105 99.05583613 162.76611141 99 171 C97.72021419 171.64687753 96.43962251 172.29216091 95.15869141 172.93676758 C94.4456485 173.29628006 93.73260559 173.65579254 92.99795532 174.02619934 C90.83005281 175.08283203 88.66909982 175.9442804 86.375 176.6875 C85.33472656 177.03361328 85.33472656 177.03361328 84.2734375 177.38671875 C66.09781785 182.28976391 45.4814222 180.30203272 28.79174805 171.90722656 C28.07931442 171.54937073 27.3668808 171.19151489 26.63285828 170.82281494 C26.09401505 170.55128601 25.55517181 170.27975708 25 170 C24.99453156 168.67147758 24.99453156 168.67147758 24.98895264 167.31611633 C24.95088457 158.91702866 24.893821 150.51832189 24.81609726 142.11950397 C24.77680245 137.8028811 24.74452671 133.48645674 24.72900391 129.16967773 C24.71371745 124.99375151 24.67906399 120.8183717 24.63169098 116.64269066 C24.61699949 115.05977348 24.60896612 113.47677823 24.60811615 111.89379311 C24.5921599 97.06005022 22.30659768 82.78576261 11.65332031 71.58398438 C10.15772124 70.10341141 8.64604201 68.64191135 7.125 67.1875 C-8.10730446 52.59928268 -15.72560785 32.89954805 -16.4375 11.875 C-16.53345167 6.84713237 -15.43945468 4.66531006 -12 1 C-8.3673734 -1.85420661 -4.13725229 -1.6944378 0 0 Z " fill="#BDCCFE" transform="translate(192,124)"/>
<path d="M0 0 C6.99036903 4.07005039 12.34218262 10.1635857 14.5625 18 C15.39692179 26.39122757 15.12842091 34.5313143 9.7109375 41.3203125 C8.18742263 42.99456382 6.6444444 44.65124061 5.0859375 46.29296875 C-22.83485425 76.24514937 -31.65165941 112.0295921 -31.8515625 151.87109375 C-31.87030685 154.24862821 -31.8898826 156.62615624 -31.9102478 159.00367737 C-31.96123016 165.21278061 -32.00103578 171.42190534 -32.03839111 177.63110352 C-32.07864509 183.98654345 -32.12963904 190.34189662 -32.1796875 196.69726562 C-32.27604468 209.13145505 -32.35958161 221.56568134 -32.4375 234 C-41.0175 234 -49.5975 234 -58.4375 234 C-58.44160889 232.13158447 -58.44571777 230.26316895 -58.44995117 228.33813477 C-58.46962274 222.05162871 -58.51235711 215.76558194 -58.56959057 209.47931004 C-58.60337916 205.68087476 -58.62889323 201.88282095 -58.63305664 198.08422852 C-58.69328989 157.40359048 -68.41389414 124.52274981 -90.19921875 90.2265625 C-97.46030362 78.63077458 -100.27090653 67.64458143 -98.4375 54 C-97.36482751 50.36181129 -95.88281416 47.87578511 -93.4375 45 C-92.87933594 44.30777344 -92.32117188 43.61554688 -91.74609375 42.90234375 C-84.95121433 35.31307342 -76.47146151 31.40654441 -66.5625 29.5625 C-53.36097588 27.06254361 -43.31718711 20.84423851 -35.5 9.9375 C-27.21694431 -1.46831198 -13.21629542 -6.02030635 0 0 Z " fill="#BDCCFE" transform="translate(112.4375,267)"/>
<path d="M0 0 C3.69007949 2.66601092 6.48945626 5.56296741 9.3125 9.125 C10.00988281 9.99382812 10.70726562 10.86265625 11.42578125 11.7578125 C13 14 13 14 13 16 C13.57234375 16.26941406 14.1446875 16.53882813 14.734375 16.81640625 C17.06000393 18.03134688 19.10853807 19.42384076 21.25 20.9375 C27.21287148 24.91595868 32.88203992 26.75634194 39.81030273 28.37329102 C52.6753344 31.40756624 61.06930086 35.7614743 68.38671875 47.16015625 C72.58501535 55.27686301 71.84385889 63.77387495 69.5 72.375 C66.57263995 81.01277368 61.80224078 88.53596526 56.984375 96.2109375 C46.70182932 112.60633514 38.9176206 129.50458115 34.25 148.3125 C34.05124268 149.09262451 33.85248535 149.87274902 33.64770508 150.67651367 C29.43930582 168.68081416 29.61360142 187.31146228 29.375 205.6875 C29.33671214 208.15430902 29.29765465 210.62110622 29.2578125 213.08789062 C29.16160895 219.05852364 29.08112099 225.02906805 29 231 C21.08 231 13.16 231 5 231 C4.98541748 227.93855713 4.97083496 224.87711426 4.95581055 221.72290039 C4.90522045 211.54885436 4.83858393 201.37495748 4.76428509 191.20105839 C4.71977069 185.03940734 4.68047392 178.87781953 4.65356445 172.71606445 C4.62734131 166.75719036 4.58680771 160.79856221 4.53681374 154.83984184 C4.52027255 152.57918826 4.50867967 150.31849228 4.50238609 148.05778694 C4.38663998 110.26365515 -5.54466843 75.01691159 -31.75 46.8125 C-35.68346108 42.55583496 -38.48696503 38.20557244 -41 33 C-41.33 32.34 -41.66 31.68 -42 31 C-42.8092965 21.75089715 -42.71629155 13.71337569 -37 6 C-27.1823707 -5.23058836 -12.8897412 -7.12675111 0 0 Z " fill="#BDCCFE" transform="translate(427,269)"/>
<path d="M0 0 C13.14332851 14.45012217 10.8827883 41.65240941 10.11584473 59.82568359 C9.73534521 66.96736689 9.01061011 74.07799184 8.25 81.1875 C8.13238312 82.33996719 8.13238312 82.33996719 8.01239014 83.51571655 C6.8425199 94.72749914 5.67814738 105.6710423 -3.16015625 113.59375 C-9.25969482 118.2558177 -15.568455 118.96235834 -23 118 C-30.08639316 115.76976459 -34.78970572 110.98189862 -39 105 C-39.78044168 103.45248036 -40.52917438 101.88867152 -41.25 100.3125 C-43.8677191 94.95879136 -47.19935451 90.56252603 -51 86 C-51.45632813 85.42121094 -51.91265625 84.84242188 -52.3828125 84.24609375 C-54.27116886 81.87674096 -56.00913055 79.99360862 -58.5 78.25 C-62.97818492 74.21963357 -65.49656268 69.12912335 -66.453125 63.18359375 C-66.85552806 52.85045809 -61.68447816 46.15839942 -55.4375 38.375 C-54.81979736 37.59447266 -54.20209473 36.81394531 -53.56567383 36.00976562 C-52.31002859 34.4234148 -51.0518342 32.83907815 -49.79101562 31.25683594 C-48.16331598 29.20579239 -46.55350079 27.14270325 -44.953125 25.0703125 C-17.06998494 -11.00065696 -17.06998494 -11.00065696 0 0 Z " fill="#FEFEFF" transform="translate(431,83)"/>
<path d="M0 0 C10.04620395 7.75815448 17.38388399 17.62191641 24.88867188 27.734375 C26.63070814 30.05442329 28.40831132 32.34250873 30.19921875 34.625 C30.78783691 35.37894043 31.37645508 36.13288086 31.98291016 36.90966797 C33.10505395 38.34501231 34.23204236 39.77658759 35.36474609 41.20361328 C40.9769527 48.43653295 43.65331581 54.70554558 42.58984375 64 C41.30207827 69.73005725 39.01280269 73.07965003 34.58984375 77 C27.47644729 83.56883023 22.23650364 90.91557155 17.60668945 99.39331055 C13.72900463 106.47369304 10.20897324 111.63672444 2.90234375 115.375 C-5.73049283 117.00383709 -12.39276924 116.79372227 -20.05859375 112.2890625 C-27.30255698 105.23762986 -29.47902084 97.20386907 -30.72265625 87.4375 C-30.87798828 86.36564453 -31.03332031 85.29378906 -31.19335938 84.18945312 C-31.62951946 81.12884479 -32.03554854 78.06874648 -32.41015625 75 C-32.49677521 74.31867004 -32.58339417 73.63734009 -32.67263794 72.93536377 C-33.31139699 67.64826777 -33.58349628 62.44057978 -33.61328125 57.1171875 C-33.61898132 56.29985138 -33.6246814 55.48251526 -33.6305542 54.64041138 C-33.63993292 52.92109441 -33.6465095 51.20176004 -33.65039062 49.48242188 C-33.66005509 46.90201054 -33.69113003 44.32241141 -33.72265625 41.7421875 C-33.8177089 27.0651428 -32.83802764 12.61089802 -24.41015625 0 C-17.13983742 -6.61204047 -7.62472938 -5.07532064 0 0 Z " fill="#FEFEFF" transform="translate(103.41015625,84)"/>
<path d="M0 0 C0.33 0 0.66 0 1 0 C1.33468091 19.90922339 1.31562494 39.30334406 -2 59 C-2.18224121 60.11955078 -2.36448242 61.23910156 -2.55224609 62.39257812 C-6.16782412 84.4183049 -10.86779418 105.84533584 -18 127 C-18.38913574 128.15790039 -18.77827148 129.31580078 -19.17919922 130.50878906 C-20.48443741 134.38429748 -21.80321345 138.2551098 -23.125 142.125 C-23.54483154 143.35863281 -23.96466309 144.59226562 -24.3972168 145.86328125 C-26.64857872 152.39005108 -29.03597651 158.76135792 -32 165 C-35.65943229 163.31683188 -37.33770926 161.56709887 -39.75 158.3125 C-46.16679669 150.10799796 -52.04399037 145.28466711 -62 142 C-61.29875 141.49339844 -60.5975 140.98679688 -59.875 140.46484375 C-56.39244566 137.47912121 -53.76192546 134.20781994 -51 130.5625 C-50.43748535 129.8202417 -49.8749707 129.0779834 -49.29541016 128.31323242 C-24.51305595 95.01172865 -2.16718418 49.99132819 -0.375 7.875 C-0.33632813 7.10929687 -0.29765625 6.34359375 -0.2578125 5.5546875 C-0.16525034 3.70344435 -0.08163199 1.85175732 0 0 Z " fill="#D4D9FC" transform="translate(483,114)"/>
<path d="M0 0 C0.33 0 0.66 0 1 0 C1.00257812 1.0209375 1.00515625 2.041875 1.0078125 3.09375 C1.94093685 50.50535363 28.56485542 107.56485542 62 141 C60.78763672 141.56267578 60.78763672 141.56267578 59.55078125 142.13671875 C58.48214844 142.64847656 57.41351563 143.16023437 56.3125 143.6875 C54.72888672 144.43580078 54.72888672 144.43580078 53.11328125 145.19921875 C47.52426977 148.43200958 43.72922875 153.3845848 39.6875 158.3125 C39.23310547 158.86228516 38.77871094 159.41207031 38.31054688 159.97851562 C37.20474148 161.31712216 36.10204061 162.65829231 35 164 C34.01 163.67 33.02 163.34 32 163 C30.82080078 160.53833008 30.82080078 160.53833008 29.6953125 157.26953125 C29.27636719 156.07263672 28.85742188 154.87574219 28.42578125 153.64257812 C27.99183453 152.36600535 27.55824185 151.08931217 27.125 149.8125 C26.49271484 147.99202148 26.49271484 147.99202148 25.84765625 146.13476562 C24.98940941 143.66369712 24.13629399 141.19084093 23.28808594 138.71630859 C22.02675009 135.07717775 20.71665162 131.45869576 19.3984375 127.83984375 C17.14530666 121.54334474 15.22224542 115.21045848 13.5 108.75 C13.20448242 107.64664307 12.90896484 106.54328613 12.60449219 105.40649414 C9.70730891 94.31919659 7.5183143 83.12808253 5.51123047 71.85009766 C5.05865291 69.32698857 4.5845576 66.80962983 4.09765625 64.29296875 C0.00395873 42.86690547 -0.26325993 21.73311979 0 0 Z " fill="#D4D9FC" transform="translate(27,115)"/>
<path d="M0 0 C6.41009003 3.54634112 11.53116495 6.75764241 14.87890625 13.453125 C15.80996066 18.90644369 13.69088361 21.71370762 10.73071289 26.01245117 C7.61282489 30.12181522 4.04992968 33.71516697 0.37890625 37.328125 C-0.72130859 38.44574219 -0.72130859 38.44574219 -1.84375 39.5859375 C-6.81870245 44.53419074 -10.88278473 47.93081709 -17.99609375 49.078125 C-22.4889101 48.855199 -25.06326149 46.84637429 -28.23046875 43.78515625 C-35.51115235 34.80464363 -38.6880646 24.25736457 -38.49609375 12.87109375 C-37.8629129 7.09991416 -35.65482039 3.65974033 -31.3359375 -0.1015625 C-21.54687033 -7.45895056 -10.32767059 -5.11859519 0 0 Z " fill="#343242" transform="translate(185.12109375,325.546875)"/>
<path d="M0 0 C3.74146894 3.51447606 6.83429239 6.85123409 7.23828125 12.08984375 C7.49047871 25.164291 4.39289888 35.6702783 -4 46 C-7.88681333 48.80989371 -10.81358595 49.76109696 -15.55834961 49.50268555 C-18.43460948 48.91052286 -19.56284626 48.02510023 -21.703125 46.04296875 C-22.39188721 45.40875 -23.08064941 44.77453125 -23.7902832 44.12109375 C-27.71662814 40.35221906 -31.59849661 36.54536828 -35.4375 32.6875 C-36.25154297 31.87732422 -37.06558594 31.06714844 -37.90429688 30.23242188 C-38.67708984 29.45833984 -39.44988281 28.68425781 -40.24609375 27.88671875 C-41.29301392 26.83810669 -41.29301392 26.83810669 -42.36108398 25.76831055 C-45.57059847 22.30540076 -45.41183287 19.0837509 -45.3203125 14.52734375 C-44.941379 11.53746602 -44.0210076 9.57915163 -41.8671875 7.4375 C-29.8940773 -1.78029195 -13.99292581 -8.90693617 0 0 Z " fill="#343141" transform="translate(355,325)"/>
<path d="M0 0 C0.33 0 0.66 0 1 0 C1 33.66 1 67.32 1 102 C-7.58 102 -16.16 102 -25 102 C-25.33 79.56 -25.66 57.12 -26 34 C-13.13 34.495 -13.13 34.495 0 35 C0 23.45 0 11.9 0 0 Z " fill="#A8B2F5" transform="translate(79,399)"/>
<path d="M0 0 C8.58 0 17.16 0 26 0 C25.84152588 1.87969482 25.68305176 3.75938965 25.51977539 5.69604492 C25.00381602 12.42170236 24.7867718 19.12027396 24.68359375 25.86328125 C24.66281265 27.02127731 24.64203156 28.17927338 24.62062073 29.37236023 C24.55599198 33.01902167 24.4966496 36.66574601 24.4375 40.3125 C24.39423204 42.80664675 24.35061534 45.30078748 24.30664062 47.79492188 C24.19975471 53.86321821 24.10004073 59.93157165 24 66 C16.08 66 8.16 66 0 66 C0 44.22 0 22.44 0 0 Z " fill="#AEB8FE" transform="translate(432,434)"/>
<path d="M0 0 C0.33 0 0.66 0 1 0 C1 15.84 1 31.68 1 48 C3.97 48.99 6.94 49.98 10 51 C11.05960938 51.38542969 12.11921875 51.77085937 13.2109375 52.16796875 C30.29507582 57.67285776 50.15500909 56.97866258 67 51 C69.31 50.34 71.62 49.68 74 49 C74 55.27 74 61.54 74 68 C64.92553191 72.53723404 64.92553191 72.53723404 61.375 73.6875 C60.68148437 73.91824219 59.98796875 74.14898437 59.2734375 74.38671875 C38.87222143 79.89013958 18.43115271 76.21557635 0 67 C0 44.89 0 22.78 0 0 Z " fill="#ADB7FC" transform="translate(217,227)"/>
<path d="M0 0 C0.77070328 -0.0033284 1.54140656 -0.0066568 2.33546448 -0.01008606 C3.96883546 -0.01515835 5.60221685 -0.01749429 7.2355957 -0.01733398 C9.73991924 -0.01951905 12.24380146 -0.0376672 14.74804688 -0.05664062 C16.33202974 -0.05957472 17.9160147 -0.06155941 19.5 -0.0625 C20.25212265 -0.06968552 21.0042453 -0.07687103 21.77915955 -0.08427429 C27.08758346 -0.06085404 27.08758346 -0.06085404 29.31640625 2.16796875 C28.96482533 6.52263764 27.65035559 10.07954797 25.87890625 14.04296875 C21.05736371 24.83746698 20.95084008 34.66353681 20.75 46.34179688 C20.70552734 48.16807617 20.70552734 48.16807617 20.66015625 50.03125 C20.64146484 51.13766846 20.62277344 52.24408691 20.60351562 53.3840332 C20.31640625 56.16796875 20.31640625 56.16796875 18.31640625 59.16796875 C15.39925824 59.44367481 12.72772365 59.54022485 9.81640625 59.48046875 C8.63884766 59.48530273 8.63884766 59.48530273 7.4375 59.49023438 C1.58344494 59.43500744 1.58344494 59.43500744 -0.68359375 57.16796875 C-0.93896484 54.71630859 -0.93896484 54.71630859 -0.95703125 51.62890625 C-0.98385986 49.93254028 -0.98385986 49.93254028 -1.01123047 48.2019043 C-1.02686035 46.99445557 -1.04249023 45.78700684 -1.05859375 44.54296875 C-1.34329935 32.86926971 -1.91042874 21.58670382 -7.30078125 10.98828125 C-9.00100013 7.52060319 -8.98277204 4.9824919 -8.68359375 1.16796875 C-6.68974596 -0.82587904 -2.73054363 0.00402921 0 0 Z " fill="#E5EAFF" transform="translate(244.68359375,189.83203125)"/>
<path d="M0 0 C16.83 0 33.66 0 51 0 C51 9.24 51 18.48 51 28 C43.89750243 28.02290307 36.79513197 28.04283197 29.69262695 28.05493164 C27.27432828 28.05997349 24.85603267 28.06680678 22.43774414 28.07543945 C18.97020717 28.08751157 15.50271034 28.09322963 12.03515625 28.09765625 C10.94662857 28.10281754 9.85810089 28.10797882 8.73658752 28.11329651 C7.23514442 28.11340981 7.23514442 28.11340981 5.70336914 28.11352539 C4.37433311 28.11685631 4.37433311 28.11685631 3.01844788 28.12025452 C1 28 1 28 0 27 C-0.08758003 25.00035018 -0.10696576 22.9976389 -0.09765625 20.99609375 C-0.09515869 19.90224365 -0.09266113 18.80839355 -0.09008789 17.68139648 C-0.08098389 16.28091064 -0.07187988 14.8804248 -0.0625 13.4375 C-0.041875 9.003125 -0.02125 4.56875 0 0 Z " fill="#E3E7FB" transform="translate(229,48)"/>
<path d="M0 0 C16.83 0 33.66 0 51 0 C51 9.24 51 18.48 51 28 C43.89750243 28.02290307 36.79513197 28.04283197 29.69262695 28.05493164 C27.27432828 28.05997349 24.85603267 28.06680678 22.43774414 28.07543945 C18.97020717 28.08751157 15.50271034 28.09322963 12.03515625 28.09765625 C10.94662857 28.10281754 9.85810089 28.10797882 8.73658752 28.11329651 C7.23514442 28.11340981 7.23514442 28.11340981 5.70336914 28.11352539 C4.37433311 28.11685631 4.37433311 28.11685631 3.01844788 28.12025452 C1 28 1 28 0 27 C-0.08758003 25.00035018 -0.10696576 22.9976389 -0.09765625 20.99609375 C-0.09515869 19.90224365 -0.09266113 18.80839355 -0.09008789 17.68139648 C-0.08098389 16.28091064 -0.07187988 14.8804248 -0.0625 13.4375 C-0.041875 9.003125 -0.02125 4.56875 0 0 Z " fill="#C4D3FA" transform="translate(229,10)"/>
<path d="M0 0 C16.83 0 33.66 0 51 0 C51 8.91 51 17.82 51 27 C34.17 27 17.34 27 0 27 C0 18.09 0 9.18 0 0 Z " fill="#C7D6FE" transform="translate(229,87)"/>
<path d="M0 0 C16.83 0 33.66 0 51 0 C51 6.93 51 13.86 51 21 C38.61325553 26.25090255 26.751244 29.68392369 13.32421875 25.98828125 C8.58247228 24.0219032 4.41149928 21.64689957 0 19 C0 12.73 0 6.46 0 0 Z " fill="#E4E9FD" transform="translate(229,125)"/>
<path d="M0 0 C3.61776861 1.68006168 6.5224127 3.73433641 9.6328125 6.22265625 C8.75358414 11.85491747 4.26448753 15.06376917 0.3828125 18.91015625 C-0.38160156 19.69455078 -1.14601562 20.47894531 -1.93359375 21.28710938 C-3.05314453 22.40569336 -3.05314453 22.40569336 -4.1953125 23.546875 C-5.2147998 24.56914185 -5.2147998 24.56914185 -6.25488281 25.61206055 C-8.64813432 27.43687333 -10.40823433 27.86553009 -13.3671875 28.22265625 C-19.59786969 19.40565315 -22.87322912 12.28809889 -21.3671875 1.22265625 C-16.03346249 -6.11121564 -7.1031611 -2.76014199 0 0 Z " fill="#E1E6FA" transform="translate(179.3671875,334.77734375)"/>
<path d="M0 0 C3.63467079 1.62400184 4.77408696 2.66113044 7 6 C7.99514818 13.96118541 4.83339563 21.74985315 0.25 28.1875 C-0.4925 29.115625 -1.235 30.04375 -2 31 C-5.98416091 30.45634458 -7.78363228 28.56534815 -10.546875 25.74609375 C-11.39121094 24.89208984 -12.23554688 24.03808594 -13.10546875 23.15820312 C-13.97816406 22.26037109 -14.85085938 21.36253906 -15.75 20.4375 C-16.63816406 19.53580078 -17.52632813 18.63410156 -18.44140625 17.70507812 C-20.63448315 15.47662902 -22.82026044 13.24148407 -25 11 C-23.14153298 6.71935506 -20.5194648 5.23674501 -16.4375 3.25 C-15.80851807 2.94143066 -15.17953613 2.63286133 -14.53149414 2.31494141 C-9.2664469 -0.12980969 -5.70225412 -0.9051197 0 0 Z " fill="#E2E7FB" transform="translate(345,332)"/>
</svg>
