<?xml version="1.0" encoding="UTF-8"?>
<svg version="1.1" xmlns="http://www.w3.org/2000/svg" width="512" height="512">
<path d="M0 0 C29.04 0 58.08 0 88 0 C88.33 13.2 88.66 26.4 89 40 C93.18805885 75.59850022 115.12565177 112.90678133 143.15625 135.7578125 C160.38432283 150.25608506 173.06201637 173.02561016 175.7890625 195.48242188 C177.60421988 217.14666139 175.6206949 236.48398967 168.22265625 256.828125 C158.77891539 282.86341244 150.9504597 308.93957614 145 336 C149.95 336 154.9 336 160 336 C159.95359375 334.02515625 159.9071875 332.0503125 159.859375 330.015625 C159.82186012 327.42709843 159.78545966 324.83855554 159.75 322.25 C159.71648437 320.94804687 159.68296875 319.64609375 159.6484375 318.3046875 C159.63554687 317.05429687 159.62265625 315.80390625 159.609375 314.515625 C159.58842773 313.36352539 159.56748047 312.21142578 159.54589844 311.02441406 C160 308 160 308 161.78833008 305.62890625 C164.46848858 303.65495576 166.58368791 303.35677152 169.89013672 303.53710938 C173.81054216 304.39722147 176.51801457 306.74042416 179.5625 309.25 C180.24868408 309.78995605 180.93486816 310.32991211 181.6418457 310.88623047 C183.77645208 312.57269419 185.88875314 314.28442738 188 316 C189.30346675 317.04059348 190.6081179 318.07970543 191.9140625 319.1171875 C194.42612447 321.11662334 196.93037356 323.12528226 199.4296875 325.140625 C203.72429398 328.59382978 208.09343293 331.94374728 212.47265625 335.2890625 C215.16241611 337.34800684 217.83181317 339.43163309 220.49609375 341.5234375 C221.28266357 342.13977051 222.0692334 342.75610352 222.87963867 343.39111328 C224.41177004 344.59264261 225.94201647 345.79658114 227.4699707 347.00341797 C232.48626718 350.93137389 237.65177388 354.53827339 243 358 C250.22755334 338.07130689 244.49581091 319.26012113 239.11070251 299.72192383 C230.87341173 269.8029482 223.22129231 239.77210904 219 209 C218.82645996 207.7737793 218.65291992 206.54755859 218.47412109 205.28417969 C214.14194105 173.37773791 211.29031969 136.07738601 221 105 C221.22993652 104.2457373 221.45987305 103.49147461 221.69677734 102.71435547 C226.83825925 86.41662196 235.16932952 70.3075596 245.9375 57.0625 C261.45296048 37.9619137 262.03680147 26.50318012 264 0 C293.04 0 322.08 0 352 0 C352.33 13.2 352.66 26.4 353 40 C357.18805885 75.59850022 379.12565177 112.90678133 407.15625 135.7578125 C424.38432283 150.25608506 437.06201637 173.02561016 439.7890625 195.48242188 C441.60421988 217.14666139 439.6206949 236.48398967 432.22265625 256.828125 C423.07932812 282.03520973 415.35026832 307.28914148 409.5625 333.48828125 C402.55798189 365.07194256 392.27289173 395.47935023 377.9375 424.5 C369.31225787 442.0166718 368.91712277 460.07683506 368.4375 479.25 C368.39418965 480.88151866 368.35057196 482.51302919 368.30664062 484.14453125 C368.20089024 488.09626957 368.09927648 492.04809396 368 496 C367.0155188 496.01030746 366.0310376 496.02061493 365.01672363 496.03123474 C355.71855411 496.12918173 346.42044834 496.2319349 337.12238312 496.33933926 C332.34267881 496.39439785 327.56296823 496.44778957 322.78320312 496.49731445 C318.1666104 496.54521094 313.5500873 496.59756102 308.93357849 496.65294075 C307.1762415 496.67325032 305.4188855 496.69198134 303.66151428 496.70907402 C301.19159108 496.73337241 298.72179636 496.76338932 296.25195312 496.79467773 C295.53265625 496.8004332 294.81335938 496.80618866 294.07226562 496.81211853 C290.5132748 496.86304209 287.07472366 497.08695256 283.54675293 497.57533264 C282.37632446 497.71547287 281.205896 497.8556131 280 498 C279.67 497.67 279.34 497.34 279 497 C276.79205589 496.87593185 274.58015514 496.82197722 272.36889648 496.79467773 C271.67624695 496.78477814 270.98359741 496.77487854 270.2699585 496.76467896 C267.97037221 496.7329797 265.67076523 496.70827349 263.37109375 496.68359375 C261.78067982 496.66303148 260.19027145 496.64203521 258.59986877 496.62062073 C254.40610237 496.56532491 250.21228605 496.5159489 246.01843262 496.46777344 C241.74206072 496.41761309 237.46576166 496.36189856 233.18945312 496.30664062 C224.79303027 496.19896726 216.39654662 496.09754284 208 496 C207.90614484 488.63561514 207.83566318 481.27136504 207.79275131 473.906497 C207.77212621 470.48440188 207.74428727 467.06272412 207.69824219 463.64086914 C207.38279391 438.3168673 209.92492118 416.6312614 222 394 C221.51023682 394.36786621 221.02047363 394.73573242 220.51586914 395.11474609 C217.09805493 397.6802508 213.67771567 400.24204863 210.24609375 402.7890625 C203.46629495 407.83178598 196.76346437 412.94352682 190.1875 418.25 C188.35959757 419.71374813 186.53036304 421.17580421 184.70019531 422.63671875 C183.59907845 423.51963612 182.50179862 424.40736908 181.40917969 425.30078125 C172.62911677 432.45196372 172.62911677 432.45196372 167.5625 432.75 C163.52010721 431.89896994 162.46700012 431.23183701 160 428 C159.54589844 424.97558594 159.54589844 424.97558594 159.609375 421.484375 C159.61936523 420.35741211 159.62935547 419.23044922 159.63964844 418.06933594 C159.67606445 416.64395508 159.71248047 415.21857422 159.75 413.75 C159.8325 409.2125 159.915 404.675 160 400 C148.12 400 136.24 400 124 400 C122.515 404.455 122.515 404.455 121 409 C120.18833833 410.87385902 119.33993171 412.73261393 118.44140625 414.56640625 C117.74120361 416.02481934 117.74120361 416.02481934 117.02685547 417.51269531 C116.54361816 418.51913086 116.06038086 419.52556641 115.5625 420.5625 C106.4838077 439.95290321 104.96633196 458.10967246 104.4375 479.25 C104.39418965 480.88151866 104.35057196 482.51302919 104.30664062 484.14453125 C104.20089024 488.09626957 104.09927648 492.04809396 104 496 C103.0155188 496.01030746 102.0310376 496.02061493 101.01672363 496.03123474 C91.71855411 496.12918173 82.42044834 496.2319349 73.12238312 496.33933926 C68.34267881 496.39439785 63.56296823 496.44778957 58.78320312 496.49731445 C54.1666104 496.54521094 49.5500873 496.59756102 44.93357849 496.65294075 C43.1762415 496.67325032 41.4188855 496.69198134 39.66151428 496.70907402 C37.19159108 496.73337241 34.72179636 496.76338932 32.25195312 496.79467773 C31.53265625 496.8004332 30.81335938 496.80618866 30.07226562 496.81211853 C26.5132748 496.86304209 23.07472366 497.08695256 19.54675293 497.57533264 C18.37632446 497.71547287 17.205896 497.8556131 16 498 C15.67 497.67 15.34 497.34 15 497 C12.79205589 496.87593185 10.58015514 496.82197722 8.36889648 496.79467773 C7.67624695 496.78477814 6.98359741 496.77487854 6.2699585 496.76467896 C3.97037221 496.7329797 1.67076523 496.70827349 -0.62890625 496.68359375 C-2.21932018 496.66303148 -3.80972855 496.64203521 -5.40013123 496.62062073 C-9.59389763 496.56532491 -13.78771395 496.5159489 -17.98156738 496.46777344 C-22.25793928 496.41761309 -26.53423834 496.36189856 -30.81054688 496.30664062 C-39.20696973 496.19896726 -47.60345338 496.09754284 -56 496 C-56.07021596 488.58375136 -56.12316792 481.16757702 -56.15543652 473.75106049 C-56.17094162 470.30543589 -56.19189342 466.86004242 -56.22631836 463.41455078 C-56.54409307 430.72941619 -50.79285092 405.04337083 -32 378 C-20.87367994 361.78015249 -15.74018759 346.87672091 -18 327 C-19.76208728 317.77692292 -22.38689625 308.74037525 -24.88926697 299.69616699 C-33.15365329 269.79638593 -40.78037662 239.75994302 -45 209 C-45.17354004 207.7737793 -45.34708008 206.54755859 -45.52587891 205.28417969 C-49.85805895 173.37773791 -52.70968031 136.07738601 -43 105 C-42.77006348 104.2457373 -42.54012695 103.49147461 -42.30322266 102.71435547 C-37.16174075 86.41662196 -28.83067048 70.3075596 -18.0625 57.0625 C-2.54703952 37.9619137 -1.96319853 26.50318012 0 0 Z " fill="#010101" transform="translate(64,8)"/>
<path d="M0 0 C4.58536935 2.56241228 7.91727014 5.39135407 10.78125 9.796875 C11.25820313 10.51488281 11.73515625 11.23289062 12.2265625 11.97265625 C15.8028805 18.25564116 17.18336647 23.24000775 17.09375 30.359375 C17.08674072 31.59252441 17.08674072 31.59252441 17.07958984 32.85058594 C16.84878257 42.6420687 14.40136125 51.70130559 11.5859375 61.03125 C9.51946801 68.70670809 9.49382902 76.14132956 9.4453125 84.05078125 C9.41929573 86.62207724 9.39257226 89.19336615 9.36523438 91.76464844 C9.35177975 93.12919082 9.33835241 94.49373346 9.32495117 95.85827637 C9.09125932 118.85036047 8.49671162 141.77570793 7.15625 164.734375 C7.09044739 165.86795441 7.02464478 167.00153381 6.95684814 168.16946411 C5.90717478 186.00560132 5.90717478 186.00560132 5.15625 193.68920898 C4.50171348 200.74019046 4.22039312 207.80496399 3.9375 214.87890625 C3.89125709 216.02195662 3.89125709 216.02195662 3.84407997 217.18809891 C3.60184162 223.2238908 3.37668458 229.26025198 3.15625 235.296875 C3.10617105 236.65186537 3.10617105 236.65186537 3.05508041 238.03422928 C1.57553086 278.3218653 1.21864924 318.61191029 0.96875 358.921875 C0.96400791 359.68589646 0.95926582 360.44991792 0.95438004 361.23709154 C0.83260885 380.98609805 0.73616704 400.73515346 0.65625 420.484375 C-10.89375 420.484375 -22.44375 420.484375 -34.34375 420.484375 C-33.35375 420.154375 -32.36375 419.824375 -31.34375 419.484375 C-31.4752092 418.93171463 -31.6066684 418.37905426 -31.74211121 417.80964661 C-32.94731517 412.59393971 -33.83808481 407.43566909 -34.45703125 402.12109375 C-34.59888603 400.95580894 -34.59888603 400.95580894 -34.74360657 399.76698303 C-35.0514906 397.23570971 -35.35380507 394.70380339 -35.65625 392.171875 C-36.09392923 388.5555286 -36.53587168 384.93972095 -36.98046875 381.32421875 C-37.09265747 380.41157257 -37.20484619 379.49892639 -37.32043457 378.55862427 C-38.04398678 372.73389955 -38.82878818 366.92128976 -39.67578125 361.11328125 C-39.78380569 360.37187897 -39.89183014 359.63047668 -40.00312805 358.86660767 C-40.11029648 358.13171112 -40.2174649 357.39681458 -40.32788086 356.63964844 C-42.32746422 342.92572699 -43.96454601 329.23659683 -45.09375 315.421875 C-45.15282532 314.70213501 -45.21190063 313.98239502 -45.27276611 313.24084473 C-46.85957932 293.58881696 -47.54950223 273.96218785 -47.82055664 254.25097656 C-48.0726148 236.61596114 -49.46392356 219.27215599 -51.84375 201.796875 C-56.21548828 167.61505107 -56.82397155 134.54518251 -51.86952209 100.45655823 C-50.05972739 87.9847247 -49.30026878 75.7626733 -49.203125 63.1640625 C-49.18849464 61.49259911 -49.18849464 61.49259911 -49.17356873 59.78736877 C-49.11406531 52.81248184 -49.11406531 52.81248184 -49.09326172 45.83740234 C-49.06458468 16.49260105 -49.06458468 16.49260105 -38.234375 5.16796875 C-26.92655341 -4.90159965 -13.67308885 -6.08527581 0 0 Z " fill="#FDDFD1" transform="translate(391.34375,83.515625)"/>
<path d="M0 0 C18.48 0 36.96 0 56 0 C56.375 22.4375 56.375 22.4375 56.47802734 29.40405273 C56.68310411 41.05336373 57.32147101 52.46627703 59 64 C56.32995642 62.93975284 53.68017439 61.86039358 51.046875 60.7109375 C38.78770589 55.7433595 26.24787028 54.8240535 13.71875 59.66015625 C9.09478876 61.93891876 5.0351445 64.81104698 1 68 C0.154375 68.62648438 -0.69125 69.25296875 -1.5625 69.8984375 C-9.42418206 76.67661851 -14.22822008 87.90836634 -16 98 C-16.10304658 99.59655765 -16.16465301 101.19621101 -16.18945312 102.79589844 C-16.20617065 103.72166687 -16.22288818 104.6474353 -16.2401123 105.60125732 C-16.25368774 106.59393616 -16.26726318 107.58661499 -16.28125 108.609375 C-16.29965942 109.64958801 -16.31806885 110.68980103 -16.33703613 111.76153564 C-16.39565135 115.09096735 -16.44840528 118.42045261 -16.5 121.75 C-17.09938575 159.69055799 -17.09938575 159.69055799 -19.9375 177.375 C-22.04660045 191.2081055 -23.17551339 205.03735281 -24 219 C-30.11980533 220.40454548 -35.71739294 221.23268915 -42 221 C-45.9679556 198.02397759 -48.11152092 175.1990096 -48.29553223 151.88601685 C-48.30659422 150.49345875 -48.32177568 149.10092543 -48.3416748 147.70846558 C-48.701069 118.53182596 -39.01184445 90.47207675 -21.0625 67.5625 C-3.67480438 45.34303127 -1.14487879 29.76684847 0 0 Z " fill="#F3CEBE" transform="translate(344,8)"/>
<path d="M0 0 C18.48 0 36.96 0 56 0 C56.375 22.4375 56.375 22.4375 56.47802734 29.40405273 C56.68310411 41.05336373 57.32147101 52.46627703 59 64 C56.32995642 62.93975284 53.68017439 61.86039358 51.046875 60.7109375 C38.78770589 55.7433595 26.24787028 54.8240535 13.71875 59.66015625 C9.09478876 61.93891876 5.0351445 64.81104698 1 68 C0.154375 68.62648438 -0.69125 69.25296875 -1.5625 69.8984375 C-9.42418206 76.67661851 -14.22822008 87.90836634 -16 98 C-16.10304658 99.59655765 -16.16465301 101.19621101 -16.18945312 102.79589844 C-16.20617065 103.72166687 -16.22288818 104.6474353 -16.2401123 105.60125732 C-16.25368774 106.59393616 -16.26726318 107.58661499 -16.28125 108.609375 C-16.29965942 109.64958801 -16.31806885 110.68980103 -16.33703613 111.76153564 C-16.39565135 115.09096735 -16.44840528 118.42045261 -16.5 121.75 C-17.09938575 159.69055799 -17.09938575 159.69055799 -19.9375 177.375 C-22.04660045 191.2081055 -23.17551339 205.03735281 -24 219 C-30.11980533 220.40454548 -35.71739294 221.23268915 -42 221 C-45.9679556 198.02397759 -48.11152092 175.1990096 -48.29553223 151.88601685 C-48.30659422 150.49345875 -48.32177568 149.10092543 -48.3416748 147.70846558 C-48.701069 118.53182596 -39.01184445 90.47207675 -21.0625 67.5625 C-3.67480438 45.34303127 -1.14487879 29.76684847 0 0 Z " fill="#F3CEBE" transform="translate(80,8)"/>
<path d="M0 0 C7.04743161 2.5683973 10.57415597 12.12917309 13.74609375 18.515625 C18.86440769 29.90100165 21.23968822 40.30990771 21.375 52.75 C21.38901855 53.6059375 21.40303711 54.461875 21.41748047 55.34375 C21.30325005 71.18370158 16.85289502 85.40692481 11.3125 100.0625 C10.69855073 101.71891273 10.08591389 103.37581252 9.47460938 105.03320312 C7.99806642 109.02788413 6.50418724 113.01565063 5 117 C-6.67832739 118.16564277 -18.35999563 119.22924673 -30.0625 120.125 C-31.16634033 120.21249512 -32.27018066 120.29999023 -33.4074707 120.39013672 C-40.618667 120.92814836 -47.76975468 121.10248745 -55 121 C-55.15107348 110.00408911 -54.67725499 99.09919253 -54.0625 88.125 C-53.93042341 85.68243449 -53.79932961 83.23981754 -53.66830444 80.79719543 C-53.58007224 79.1972764 -53.48801668 77.59756329 -53.39199829 75.99809265 C-53.16002052 72.131488 -52.97118837 68.27445705 -52.88623047 64.40161133 C-52.86233749 63.67404633 -52.83844452 62.94648132 -52.81382751 62.1968689 C-52.7503661 60.22274561 -52.70921563 58.24794065 -52.66967773 56.27319336 C-51.82290573 52.13441383 -50.34911406 50.90896427 -47 48.4375 C-45.01654759 47.26325533 -43.0167925 46.11601166 -41 45 C-23.77524808 32.75905955 -11.67555647 17.39330562 0 0 Z " fill="#8DDDF6" transform="translate(467,166)"/>
<path d="M0 0 C7.04743161 2.5683973 10.57415597 12.12917309 13.74609375 18.515625 C18.86440769 29.90100165 21.23968822 40.30990771 21.375 52.75 C21.38901855 53.6059375 21.40303711 54.461875 21.41748047 55.34375 C21.30325005 71.18370158 16.85289502 85.40692481 11.3125 100.0625 C10.69855073 101.71891273 10.08591389 103.37581252 9.47460938 105.03320312 C7.99806642 109.02788413 6.50418724 113.01565063 5 117 C-6.67832739 118.16564277 -18.35999563 119.22924673 -30.0625 120.125 C-31.16634033 120.21249512 -32.27018066 120.29999023 -33.4074707 120.39013672 C-40.618667 120.92814836 -47.76975468 121.10248745 -55 121 C-55.15107348 110.00408911 -54.67725499 99.09919253 -54.0625 88.125 C-53.93042341 85.68243449 -53.79932961 83.23981754 -53.66830444 80.79719543 C-53.58007224 79.1972764 -53.48801668 77.59756329 -53.39199829 75.99809265 C-53.16002052 72.131488 -52.97118837 68.27445705 -52.88623047 64.40161133 C-52.86233749 63.67404633 -52.83844452 62.94648132 -52.81382751 62.1968689 C-52.7503661 60.22274561 -52.70921563 58.24794065 -52.66967773 56.27319336 C-51.82290573 52.13441383 -50.34911406 50.90896427 -47 48.4375 C-45.01654759 47.26325533 -43.0167925 46.11601166 -41 45 C-23.77524808 32.75905955 -11.67555647 17.39330562 0 0 Z " fill="#8DDDF6" transform="translate(203,166)"/>
<path d="M0 0 C-1.31009313 6.00527163 -2.65176793 12.00318607 -4 18 C-4.24669434 19.10408203 -4.49338867 20.20816406 -4.74755859 21.34570312 C-12.4583255 55.71044697 -22.04235913 88.9826069 -37.04101562 120.95117188 C-38.4082592 123.8722279 -39.73465521 126.81083794 -41.0625 129.75 C-41.70790997 131.16685959 -42.35353388 132.58362198 -43 134 C-46.88327642 132.90471691 -50.22713194 131.39397747 -53.72265625 129.41796875 C-54.52582275 128.96574951 -55.32898926 128.51353027 -56.15649414 128.04760742 C-56.76485107 127.70189697 -57.37320801 127.35618652 -58 127 C-58.39215074 58.65550662 -58.39215074 58.65550662 -57.0625 25.625 C-57.01893372 24.51137085 -56.97536743 23.3977417 -56.93048096 22.25036621 C-56.80650267 19.15869738 -56.6736825 16.06761057 -56.53515625 12.9765625 C-56.49655991 12.06961639 -56.45796356 11.16267029 -56.41819763 10.22824097 C-56.11845384 4.11845384 -56.11845384 4.11845384 -55 3 C-52.05434581 2.69553419 -49.12499714 2.45067094 -46.171875 2.24609375 C-44.82189423 2.14833397 -44.82189423 2.14833397 -43.44464111 2.04859924 C-41.52803464 1.91106489 -39.61125842 1.77587961 -37.69433594 1.64282227 C-34.80350159 1.44123091 -31.91349402 1.2299948 -29.0234375 1.01757812 C-19.33114345 0.32234895 -9.72216262 -0.23631842 0 0 Z " fill="#F1CCBC" transform="translate(466,300)"/>
<path d="M0 0 C0.81082031 0.27070313 1.62164062 0.54140625 2.45703125 0.8203125 C4.30638772 1.436085 6.16029068 2.04380281 8.04052734 2.55761719 C13.77794811 4.21097029 19.09104697 6.32505011 23 11 C25.85705098 18.48763779 25.46941088 26.96325535 25.76025391 34.87109375 C26.07102509 41.35614851 27.11527886 47.75054135 28.09915161 54.16116333 C28.66182458 57.8427711 29.19225876 61.52903194 29.7265625 65.21484375 C29.88563835 66.30429543 29.88563835 66.30429543 30.04792786 67.41575623 C31.09367752 74.59030546 32.08377083 81.77199404 33.04690552 88.95806885 C33.306493 90.89273083 33.56910435 92.82698632 33.83178711 94.76123047 C34.06393921 96.50170654 34.06393921 96.50170654 34.30078125 98.27734375 C34.43653564 99.29046631 34.57229004 100.30358887 34.7121582 101.34741211 C35 104 35 104 35 108 C16.52 108 -1.96 108 -21 108 C-21.061875 99.62625 -21.12375 91.2525 -21.1875 82.625 C-21.21481201 80.02189941 -21.24212402 77.41879883 -21.27026367 74.73681641 C-21.43962108 47.07199114 -16.49660387 22.84145151 0 0 Z " fill="#767676" transform="translate(309,396)"/>
<path d="M0 0 C0.81082031 0.27070313 1.62164062 0.54140625 2.45703125 0.8203125 C4.30638772 1.436085 6.16029068 2.04380281 8.04052734 2.55761719 C13.77794811 4.21097029 19.09104697 6.32505011 23 11 C25.85705098 18.48763779 25.46941088 26.96325535 25.76025391 34.87109375 C26.07102509 41.35614851 27.11527886 47.75054135 28.09915161 54.16116333 C28.66182458 57.8427711 29.19225876 61.52903194 29.7265625 65.21484375 C29.88563835 66.30429543 29.88563835 66.30429543 30.04792786 67.41575623 C31.09367752 74.59030546 32.08377083 81.77199404 33.04690552 88.95806885 C33.306493 90.89273083 33.56910435 92.82698632 33.83178711 94.76123047 C34.06393921 96.50170654 34.06393921 96.50170654 34.30078125 98.27734375 C34.43653564 99.29046631 34.57229004 100.30358887 34.7121582 101.34741211 C35 104 35 104 35 108 C16.52 108 -1.96 108 -21 108 C-21.061875 99.62625 -21.12375 91.2525 -21.1875 82.625 C-21.21481201 80.02189941 -21.24212402 77.41879883 -21.27026367 74.73681641 C-21.43962108 47.07199114 -16.49660387 22.84145151 0 0 Z " fill="#767676" transform="translate(45,396)"/>
<path d="M0 0 C-3.22678616 14.69136758 -6.60162175 29.34747335 -10 44 C-10.83192871 44.01401855 -10.83192871 44.01401855 -11.68066406 44.02832031 C-14.20466481 44.08215722 -16.72683814 44.16577254 -19.25 44.25 C-20.12269531 44.26417969 -20.99539062 44.27835937 -21.89453125 44.29296875 C-23.16103516 44.34130859 -23.16103516 44.34130859 -24.453125 44.390625 C-25.22817383 44.41157227 -26.00322266 44.43251953 -26.80175781 44.45410156 C-29.85856699 45.21321144 -31.00919713 46.58914155 -33 49 C-33.58705971 51.48850884 -33.58705971 51.48850884 -33.48583984 54.22412109 C-33.4919931 55.26555267 -33.49814636 56.30698425 -33.50448608 57.37997437 C-33.49011505 58.4998172 -33.47574402 59.61966003 -33.4609375 60.7734375 C-33.46002106 61.92993805 -33.45910461 63.0864386 -33.4581604 64.27798462 C-33.45211908 66.72410179 -33.43635736 69.17021138 -33.41162109 71.61621094 C-33.3752066 75.35379423 -33.37060116 79.09038316 -33.37109375 82.828125 C-33.36125889 85.20573771 -33.34960029 87.58334371 -33.3359375 89.9609375 C-33.33371185 91.07673187 -33.33148621 92.19252625 -33.32919312 93.34213257 C-33.27073037 99.46015927 -33.27073037 99.46015927 -31.82714844 105.36035156 C-30.65730008 109.09364568 -31.74732436 110.80570939 -33.4296875 114.2734375 C-33.97753906 115.42714844 -34.52539062 116.58085937 -35.08984375 117.76953125 C-35.68447162 118.97156411 -36.27952917 120.17338451 -36.875 121.375 C-37.46404341 122.59939425 -38.05130324 123.82464826 -38.63671875 125.05078125 C-40.07382039 128.04277975 -41.52855638 131.02478031 -43 134 C-48.47932789 132.45454854 -53.11429181 129.84456788 -58 127 C-58.39215074 58.65550662 -58.39215074 58.65550662 -57.0625 25.625 C-57.01893372 24.51137085 -56.97536743 23.3977417 -56.93048096 22.25036621 C-56.80650267 19.15869738 -56.6736825 16.06761057 -56.53515625 12.9765625 C-56.49655991 12.06961639 -56.45796356 11.16267029 -56.41819763 10.22824097 C-56.11845384 4.11845384 -56.11845384 4.11845384 -55 3 C-52.05434581 2.69553419 -49.12499714 2.45067094 -46.171875 2.24609375 C-44.82189423 2.14833397 -44.82189423 2.14833397 -43.44464111 2.04859924 C-41.52803464 1.91106489 -39.61125842 1.77587961 -37.69433594 1.64282227 C-34.80350159 1.44123091 -31.91349402 1.2299948 -29.0234375 1.01757812 C-19.33114345 0.32234895 -9.72216262 -0.23631842 0 0 Z " fill="#F0CCBC" transform="translate(202,300)"/>
<path d="M0 0 C4.5872826 2.49493739 8.4816311 5.05512142 12.4375 8.5 C17.09456748 12.48621643 21.88620961 16.2274843 26.8125 19.875 C34.70172447 25.72198181 42.37143978 31.81823568 50 38 C48.63291294 41.18101579 47.21214954 42.90853148 44.46484375 44.99609375 C43.74635254 45.54821533 43.02786133 46.10033691 42.28759766 46.66918945 C41.51206543 47.25273193 40.7365332 47.83627441 39.9375 48.4375 C39.13618652 49.05004639 38.33487305 49.66259277 37.50927734 50.29370117 C35.83761033 51.57048234 34.16341548 52.84396008 32.48681641 54.11425781 C30.13417321 55.89825703 27.79001214 57.69268018 25.44921875 59.4921875 C21.30876813 62.67373362 17.15690784 65.83999766 13 69 C12.37706055 69.474375 11.75412109 69.94875 11.11230469 70.4375 C9.41039445 71.7320919 7.70584622 73.02310083 6 74.3125 C5.05125 75.03050781 4.1025 75.74851562 3.125 76.48828125 C1 78 1 78 0 78 C-0.04898438 76.73542969 -0.09796875 75.47085938 -0.1484375 74.16796875 C-0.2234738 72.50779053 -0.29902127 70.84763536 -0.375 69.1875 C-0.42140625 67.93743164 -0.42140625 67.93743164 -0.46875 66.66210938 C-0.52675781 65.45844727 -0.52675781 65.45844727 -0.5859375 64.23046875 C-0.6173584 63.49207764 -0.6487793 62.75368652 -0.68115234 61.99291992 C-0.90834614 59.68650412 -0.90834614 59.68650412 -3 57 C-5.91725834 56.02758055 -7.88803439 55.84832181 -10.93041992 55.79467773 C-12.43163643 55.7647599 -12.43163643 55.7647599 -13.96318054 55.73423767 C-15.04138565 55.71752518 -16.11959076 55.70081268 -17.23046875 55.68359375 C-18.88880486 55.6524221 -18.88880486 55.6524221 -20.5806427 55.62062073 C-24.1161979 55.55517668 -27.65182806 55.49626397 -31.1875 55.4375 C-33.58269008 55.3943099 -35.97787255 55.35069546 -38.37304688 55.30664062 C-44.24862217 55.19870111 -50.12425344 55.09958892 -56 55 C-56 44.44 -56 33.88 -56 23 C-52.43703125 22.95101563 -48.8740625 22.90203125 -45.203125 22.8515625 C-41.75451435 22.79756158 -38.30597351 22.74025052 -34.85742188 22.68261719 C-32.45968826 22.64432095 -30.06189707 22.60946924 -27.6640625 22.578125 C-24.21854058 22.53248895 -20.77341528 22.4744913 -17.328125 22.4140625 C-16.25508118 22.40251129 -15.18203735 22.39096008 -14.07647705 22.37905884 C-13.07574158 22.35918915 -12.0750061 22.33931946 -11.04394531 22.31884766 C-9.72490204 22.29886215 -9.72490204 22.29886215 -8.37921143 22.2784729 C-5.78743653 21.97512068 -4.16761948 21.44847441 -2 20 C-1.13580777 17.40742331 -0.82419068 15.65962293 -0.68359375 12.98828125 C-0.62075195 11.85229492 -0.62075195 11.85229492 -0.55664062 10.69335938 C-0.51732422 9.90767578 -0.47800781 9.12199219 -0.4375 8.3125 C-0.37272461 7.11657227 -0.37272461 7.11657227 -0.30664062 5.89648438 C-0.20072632 3.93118553 -0.09987449 1.96561504 0 0 Z " fill="#4E9F4A" transform="translate(240,337)"/>
<path d="M0 0 C4.58536935 2.56241228 7.91727014 5.39135407 10.78125 9.796875 C11.25820312 10.51488281 11.73515625 11.23289062 12.2265625 11.97265625 C15.80309168 18.25601215 17.18267128 23.2397935 17.09375 30.359375 C17.08980225 31.17857422 17.08585449 31.99777344 17.08178711 32.84179688 C16.86270368 42.38246779 14.66531739 51.45717284 11.65625 60.484375 C-8.14375 60.484375 -27.94375 60.484375 -48.34375 60.484375 C-48.446875 54.626875 -48.55 48.769375 -48.65625 42.734375 C-48.70177002 40.91196289 -48.74729004 39.08955078 -48.79418945 37.21191406 C-48.97456566 24.80946888 -47.15141954 14.49209576 -38.234375 5.16796875 C-26.92655341 -4.90159965 -13.67308885 -6.08527581 0 0 Z " fill="#FCDFD1" transform="translate(127.34375,83.515625)"/>
<path d="M0 0 C19.14 0 38.28 0 58 0 C58 5.28 58 10.56 58 16 C55.36 16 52.72 16 50 16 C50 21.28 50 26.56 50 32 C52.64 32 55.28 32 58 32 C58 37.28 58 42.56 58 48 C37.21 48 16.42 48 -5 48 C-4 33 -4 33 -3 32 C-1.35 32 0.3 32 2 32 C2 26.72 2 21.44 2 16 C1.01 16 0.02 16 -1 16 C-0.67 10.72 -0.34 5.44 0 0 Z " fill="#053051" transform="translate(78,160)"/>
<path d="M0 0 C20.79 0 41.58 0 63 0 C63 15.59694799 63 15.59694799 59.39381409 19.35917664 C58.86239304 19.84183487 58.33097198 20.3244931 57.78344727 20.82177734 C57.22910004 21.37977524 56.67475281 21.93777313 56.10360718 22.51268005 C54.2892112 24.32247355 52.43064249 26.0776567 50.56640625 27.8359375 C49.28787287 29.09085852 48.01235653 30.34886007 46.73973083 31.60977173 C43.4018118 34.90019363 40.02360849 38.14598803 36.63525391 41.38433838 C33.17990865 44.70283324 29.76739198 48.06478786 26.34960938 51.421875 C21.36910719 56.29939275 16.37656217 61.16388511 11.34594727 65.98974609 C10.81655045 66.50074356 10.28715363 67.01174103 9.74171448 67.53822327 C6.11711141 71 6.11711141 71 5 71 C3.25407177 59.38375754 1.76420321 47.77289667 0.8125 36.0625 C0.72887207 35.10230957 0.64524414 34.14211914 0.55908203 33.15283203 C-0.28309082 22.05245047 0 11.22887487 0 0 Z " fill="#FDDFD1" transform="translate(72,224)"/>
<path d="M0 0 C0.05484449 11.84543006 -0.08755986 23.66779325 -0.4375 35.5078125 C-0.48256214 37.09633772 -0.5273979 38.68486938 -0.57202148 40.27340698 C-0.68815195 44.38648001 -0.80728586 48.49946031 -0.92712402 52.61242676 C-1.04964461 56.83661658 -1.16921616 61.06088986 -1.2890625 65.28515625 C-1.52321409 73.52352024 -1.76055012 81.76178831 -2 90 C-7.55439924 85.37508621 -12.68525669 80.44639036 -17.77734375 75.3203125 C-18.58869278 74.50754852 -19.40004181 73.69478455 -20.23597717 72.85739136 C-22.8055259 70.28228262 -25.37155968 67.7037038 -27.9375 65.125 C-29.68791929 63.36956054 -31.438568 61.61434983 -33.18945312 59.859375 C-37.46229302 55.57555918 -41.73225899 51.28889528 -46 47 C-44.50561359 43.51709343 -42.51417834 41.26622355 -39.84155273 38.59863281 C-38.98403915 37.7380426 -38.12652557 36.87745239 -37.24302673 35.99078369 C-36.31591385 35.07085632 -35.38880096 34.15092896 -34.43359375 33.203125 C-33.47441252 32.24513633 -32.51560116 31.28677721 -31.55714417 30.32806396 C-29.5519986 28.32447967 -27.5435458 26.32429236 -25.5324707 24.32666016 C-22.94912688 21.76036305 -20.37247252 19.1874745 -17.79801846 16.61226273 C-15.82098099 14.63549644 -13.84135394 12.66134134 -11.86082649 10.6880722 C-10.44554814 9.27753931 -9.03178072 7.86549092 -7.61802673 6.45343018 C-6.76366531 5.60544861 -5.90930389 4.75746704 -5.02905273 3.88378906 C-4.27341537 3.1319635 -3.51777802 2.38013794 -2.73924255 1.60552979 C-1 0 -1 0 0 0 Z " fill="#FDDFD1" transform="translate(130,314)"/>
<path d="M0 0 C3.42810298 3.1353661 5.78669711 6.62923553 8.1875 10.5625 C17.96363318 26.41693102 17.96363318 26.41693102 32 38 C26.06926501 53.703918 13.82395338 66.76261183 1.6875 78 C1.18387939 78.46905762 0.68025879 78.93811523 0.16137695 79.42138672 C-2.43017684 81.77624325 -4.8419816 83.51803429 -8 85 C-8.10243299 78.68707332 -8.17189283 72.37436524 -8.21972656 66.06079102 C-8.2396927 63.91845695 -8.26687538 61.77617632 -8.30175781 59.6340332 C-8.49286921 47.58558378 -8.41959424 37.33053013 -4 26 C-1.71610726 17.51093771 -0.52828996 8.76232657 0 0 Z " fill="#F1CCBC" transform="translate(424,114)"/>
<path d="M0 0 C3.42810298 3.1353661 5.78669711 6.62923553 8.1875 10.5625 C17.96363318 26.41693102 17.96363318 26.41693102 32 38 C26.06926501 53.703918 13.82395338 66.76261183 1.6875 78 C1.18387939 78.46905762 0.68025879 78.93811523 0.16137695 79.42138672 C-2.43017684 81.77624325 -4.8419816 83.51803429 -8 85 C-8.10243299 78.68707332 -8.17189283 72.37436524 -8.21972656 66.06079102 C-8.2396927 63.91845695 -8.26687538 61.77617632 -8.30175781 59.6340332 C-8.49286921 47.58558378 -8.41959424 37.33053013 -4 26 C-1.71610726 17.51093771 -0.52828996 8.76232657 0 0 Z " fill="#F1CCBC" transform="translate(160,114)"/>
<path d="M0 0 C1.64679783 1.41006308 3.29330464 2.82046717 4.93850708 4.23239136 C6.27234344 5.3760774 7.60790523 6.51775549 8.94552612 7.65701294 C41.73384872 35.69882196 41.73384872 35.69882196 43.23046875 48.69140625 C43.65301542 55.88504 42.27072924 61.59987092 41 69 C29.45 69 17.9 69 6 69 C7.485 68.505 7.485 68.505 9 68 C8.8697644 67.45590485 8.73952881 66.91180969 8.60534668 66.35122681 C7.33816167 60.88574237 6.44234365 55.46699614 5.78125 49.8984375 C5.67784302 49.05890533 5.57443604 48.21937317 5.46789551 47.35440063 C5.14114353 44.69508485 4.82033579 42.03509552 4.5 39.375 C4.17942632 36.74493786 3.85759756 34.11503217 3.53540039 31.48516846 C3.32544785 29.7700569 3.11629181 28.05484763 2.90795898 26.33953857 C2.11884175 19.86893441 1.2555431 13.41079179 0.34960938 6.95556641 C0 4 0 4 0 0 Z " fill="#FDDFD1" transform="translate(87,435)"/>
<path d="M0 0 C2.64 0 5.28 0 8 0 C8.05906119 3.60409539 8.09394639 7.20806309 8.125 10.8125 C8.14175781 11.81732422 8.15851563 12.82214844 8.17578125 13.85742188 C8.29683629 32.68148025 2.25226012 46.49436685 -9.421875 61.01171875 C-27.37458458 83.54115933 -39.02316116 112.10659419 -39.203125 141.15234375 C-39.21344254 142.30005249 -39.21344254 142.30005249 -39.22396851 143.47094727 C-39.24116206 145.95984679 -39.24743864 148.44854402 -39.25 150.9375 C-39.25167175 151.79304474 -39.25334351 152.64858948 -39.25506592 153.53005981 C-39.25770204 176.21728872 -36.8792007 198.5152536 -34 221 C-36.64 221 -39.28 221 -42 221 C-45.9679556 198.02397759 -48.11152092 175.1990096 -48.29553223 151.88601685 C-48.30659422 150.49345875 -48.32177568 149.10092543 -48.3416748 147.70846558 C-48.701069 118.53182596 -39.01184445 90.47207675 -21.0625 67.5625 C-9.63772888 52.96296076 -1.34599868 38.84167621 -0.68359375 19.7265625 C-0.62075195 17.99599609 -0.62075195 17.99599609 -0.55664062 16.23046875 C-0.51732422 15.04066406 -0.47800781 13.85085937 -0.4375 12.625 C-0.37272461 10.80548828 -0.37272461 10.80548828 -0.30664062 8.94921875 C-0.20094487 5.96624968 -0.09884679 2.98320258 0 0 Z " fill="#EAB5A8" transform="translate(344,8)"/>
<path d="M0 0 C2.64 0 5.28 0 8 0 C8.05906119 3.60409539 8.09394639 7.20806309 8.125 10.8125 C8.14175781 11.81732422 8.15851563 12.82214844 8.17578125 13.85742188 C8.29683629 32.68148025 2.25226012 46.49436685 -9.421875 61.01171875 C-27.37458458 83.54115933 -39.02316116 112.10659419 -39.203125 141.15234375 C-39.21344254 142.30005249 -39.21344254 142.30005249 -39.22396851 143.47094727 C-39.24116206 145.95984679 -39.24743864 148.44854402 -39.25 150.9375 C-39.25167175 151.79304474 -39.25334351 152.64858948 -39.25506592 153.53005981 C-39.25770204 176.21728872 -36.8792007 198.5152536 -34 221 C-36.64 221 -39.28 221 -42 221 C-45.9679556 198.02397759 -48.11152092 175.1990096 -48.29553223 151.88601685 C-48.30659422 150.49345875 -48.32177568 149.10092543 -48.3416748 147.70846558 C-48.701069 118.53182596 -39.01184445 90.47207675 -21.0625 67.5625 C-9.63772888 52.96296076 -1.34599868 38.84167621 -0.68359375 19.7265625 C-0.62075195 17.99599609 -0.62075195 17.99599609 -0.55664062 16.23046875 C-0.51732422 15.04066406 -0.47800781 13.85085937 -0.4375 12.625 C-0.37272461 10.80548828 -0.37272461 10.80548828 -0.30664062 8.94921875 C-0.20094487 5.96624968 -0.09884679 2.98320258 0 0 Z " fill="#EAB5A8" transform="translate(80,8)"/>
<path d="M0 0 C0.04685068 2.50390861 0.05627293 5.00002666 0.02062988 7.50437927 C0.00693161 9.82547726 0.05614849 12.14783548 0.16955566 14.46620178 C0.23501192 23.08188186 -1.28514544 27.77183516 -7.28147125 33.92631626 C-8.90513016 35.5160597 -10.55991415 37.068162 -12.21875 38.62109375 C-13.36133763 39.74005304 -14.50090009 40.86210889 -15.63757324 41.98707581 C-18.61222596 44.91435113 -21.62686696 47.79672042 -24.65203857 50.67163086 C-27.73893616 53.6213987 -30.78279724 56.61492275 -33.83203125 59.60351562 C-38.27419615 63.94281842 -42.72833272 68.26903948 -47.22070312 72.55639648 C-48.12147583 73.41716293 -49.02224854 74.27792938 -49.95031738 75.16477966 C-52 77 -52 77 -53 77 C-54.89027761 68.46939963 -56.40646598 58.23735453 -52.03836823 50.23921967 C-45.86750931 41.04345767 -37.08151044 33.59074685 -28.95306396 26.17816162 C-25.77907024 23.25583306 -22.68016908 20.25590822 -19.57226562 17.26367188 C-15.04710612 12.9280516 -10.49778842 8.62124222 -5.88696289 4.37670898 C-4.96540909 3.52833969 -4.04385529 2.6799704 -3.09437561 1.80589294 C-1 0 -1 0 0 0 Z " fill="#053051" transform="translate(133,263)"/>
<path d="M0 0 C8.27077536 7.02915775 16.31453494 14.27276312 24.19067383 21.74194336 C26.01176472 23.44617108 27.85560163 25.12643473 29.72192383 26.78100586 C46.06946119 41.31874589 46.06946119 41.31874589 47.18798828 51.86865234 C47.37805405 57.97563424 46.92834557 63.96470017 46 70 C37.69696133 63.03598318 30.01280113 55.45811138 22.29150391 47.86132812 C20.51190831 46.11855624 18.72343171 44.38480764 16.92626953 42.66015625 C14.31691733 40.15426275 11.73828683 37.62003138 9.1640625 35.078125 C8.35997955 34.31735657 7.55589661 33.55658813 6.72744751 32.77276611 C2.10845389 28.13782819 0.09144345 24.92788499 -0.05873108 18.30551147 C-0.03934982 17.54469269 -0.01996857 16.7838739 0 16 C-0.03054981 14.50777016 -0.06278569 13.01557262 -0.09765625 11.5234375 C-0.09119435 10.14059044 -0.07955488 8.75775698 -0.0625 7.375 C-0.05798828 6.65699219 -0.05347656 5.93898438 -0.04882812 5.19921875 C-0.03727405 3.46610792 -0.01935158 1.7330413 0 0 Z " fill="#053051" transform="translate(82,382)"/>
<path d="M0 0 C1.98 0.66 3.96 1.32 6 2 C5.49210937 2.90878906 4.98421875 3.81757813 4.4609375 4.75390625 C-7.03759696 25.6172554 -11.9392709 45.33776819 -12.31640625 69.23046875 C-12.33718735 70.34690262 -12.35796844 71.46333649 -12.37937927 72.61360168 C-12.44413983 76.13817912 -12.50341373 79.66282335 -12.5625 83.1875 C-12.60575532 85.59440762 -12.6493717 88.00130878 -12.69335938 90.40820312 C-12.79974449 96.27206726 -12.90163954 102.13599606 -13 108 C-15.64 108 -18.28 108 -21 108 C-21.07706116 100.78164639 -21.1290164 93.5634016 -21.16479492 86.34472656 C-21.17973518 83.8970951 -21.20009475 81.4494897 -21.22631836 79.00195312 C-21.531989 49.70551963 -17.56002489 24.31388062 0 0 Z " fill="#595A5C" transform="translate(309,396)"/>
<path d="M0 0 C1.98 0.66 3.96 1.32 6 2 C5.49210937 2.90878906 4.98421875 3.81757813 4.4609375 4.75390625 C-7.03759696 25.6172554 -11.9392709 45.33776819 -12.31640625 69.23046875 C-12.33718735 70.34690262 -12.35796844 71.46333649 -12.37937927 72.61360168 C-12.44413983 76.13817912 -12.50341373 79.66282335 -12.5625 83.1875 C-12.60575532 85.59440762 -12.6493717 88.00130878 -12.69335938 90.40820312 C-12.79974449 96.27206726 -12.90163954 102.13599606 -13 108 C-15.64 108 -18.28 108 -21 108 C-21.07706116 100.78164639 -21.1290164 93.5634016 -21.16479492 86.34472656 C-21.17973518 83.8970951 -21.20009475 81.4494897 -21.22631836 79.00195312 C-21.531989 49.70551963 -17.56002489 24.31388062 0 0 Z " fill="#595A5C" transform="translate(45,396)"/>
<path d="M0 0 C1.20474976 0.00676758 1.20474976 0.00676758 2.43383789 0.01367188 C3.04219482 0.01947266 3.65055176 0.02527344 4.27734375 0.03125 C4.99321635 6.49038896 5.70485758 12.94998409 6.41357422 19.40991211 C6.65511486 21.60695933 6.89762007 23.80390074 7.14111328 26.00073242 C7.49115229 29.16037029 7.8377085 32.32037381 8.18359375 35.48046875 C8.29296265 36.46085617 8.40233154 37.44124359 8.51501465 38.45133972 C8.61511841 39.37191666 8.71522217 40.29249359 8.81835938 41.2409668 C8.95159607 42.4500898 8.95159607 42.4500898 9.08752441 43.68363953 C9.28636781 46.14285599 9.30949187 48.56509569 9.27734375 51.03125 C6.63734375 51.03125 3.99734375 51.03125 1.27734375 51.03125 C-6.7532601 22.5851445 -6.7532601 22.5851445 -9.22265625 11.40625 C-9.38217773 10.68646973 -9.54169922 9.96668945 -9.70605469 9.22509766 C-10.30264332 6.42746898 -10.72265625 3.90149296 -10.72265625 1.03125 C-7.1025399 0.28866203 -3.68299558 -0.02690773 0 0 Z " fill="#67BEE0" transform="translate(315.72265625,243.96875)"/>
<path d="M0 0 C1.20474976 0.00676758 1.20474976 0.00676758 2.43383789 0.01367188 C3.04219482 0.01947266 3.65055176 0.02527344 4.27734375 0.03125 C4.99321635 6.49038896 5.70485758 12.94998409 6.41357422 19.40991211 C6.65511486 21.60695933 6.89762007 23.80390074 7.14111328 26.00073242 C7.49115229 29.16037029 7.8377085 32.32037381 8.18359375 35.48046875 C8.29296265 36.46085617 8.40233154 37.44124359 8.51501465 38.45133972 C8.61511841 39.37191666 8.71522217 40.29249359 8.81835938 41.2409668 C8.95159607 42.4500898 8.95159607 42.4500898 9.08752441 43.68363953 C9.28636781 46.14285599 9.30949187 48.56509569 9.27734375 51.03125 C6.63734375 51.03125 3.99734375 51.03125 1.27734375 51.03125 C-6.7532601 22.5851445 -6.7532601 22.5851445 -9.22265625 11.40625 C-9.38217773 10.68646973 -9.54169922 9.96668945 -9.70605469 9.22509766 C-10.30264332 6.42746898 -10.72265625 3.90149296 -10.72265625 1.03125 C-7.1025399 0.28866203 -3.68299558 -0.02690773 0 0 Z " fill="#67BEE0" transform="translate(51.72265625,243.96875)"/>
<path d="M0 0 C3.3 1.65 6.6 3.3 10 5 C9.84152588 5.9288501 9.68305176 6.8577002 9.51977539 7.81469727 C8.80410563 12.84961019 8.76914808 17.88692731 8.68359375 22.96484375 C8.66281265 23.99815323 8.64203156 25.03146271 8.62062073 26.09608459 C8.55556522 29.37649284 8.49644596 32.65697685 8.4375 35.9375 C8.39427289 38.16992951 8.35065729 40.40235154 8.30664062 42.63476562 C8.19992929 48.08976511 8.09808356 53.54483892 8 59 C5.36 59 2.72 59 0 59 C0 39.53 0 20.06 0 0 Z " fill="#767676" transform="translate(408,445)"/>
<path d="M0 0 C3.3 1.65 6.6 3.3 10 5 C9.84152588 5.9288501 9.68305176 6.8577002 9.51977539 7.81469727 C8.80410563 12.84961019 8.76914808 17.88692731 8.68359375 22.96484375 C8.66281265 23.99815323 8.64203156 25.03146271 8.62062073 26.09608459 C8.55556522 29.37649284 8.49644596 32.65697685 8.4375 35.9375 C8.39427289 38.16992951 8.35065729 40.40235154 8.30664062 42.63476562 C8.19992929 48.08976511 8.09808356 53.54483892 8 59 C5.36 59 2.72 59 0 59 C0 39.53 0 20.06 0 0 Z " fill="#767676" transform="translate(144,445)"/>
<path d="M0 0 C15.84 0 31.68 0 48 0 C48 2.64 48 5.28 48 8 C32.16 8 16.32 8 0 8 C0 5.36 0 2.72 0 0 Z " fill="#63B55E" transform="translate(184,384)"/>
<path d="M0 0 C1.67542976 0.28604898 3.34385343 0.61781233 5 1 C3.63291294 4.18101579 2.21214954 5.90853148 -0.53515625 7.99609375 C-1.25364746 8.54821533 -1.97213867 9.10033691 -2.71240234 9.66918945 C-3.48793457 10.25273193 -4.2634668 10.83627441 -5.0625 11.4375 C-6.26447021 12.35631958 -6.26447021 12.35631958 -7.49072266 13.29370117 C-9.16238967 14.57048234 -10.83658452 15.84396008 -12.51318359 17.11425781 C-14.86582679 18.89825703 -17.20998786 20.69268018 -19.55078125 22.4921875 C-23.69123187 25.67373362 -27.84309216 28.83999766 -32 32 C-32.62293945 32.474375 -33.24587891 32.94875 -33.88769531 33.4375 C-35.58960555 34.7320919 -37.29415378 36.02310083 -39 37.3125 C-39.94875 38.03050781 -40.8975 38.74851562 -41.875 39.48828125 C-44 41 -44 41 -45 41 C-45.3359375 38.28125 -45.3359375 38.28125 -45 35 C-42.7890625 32.71875 -42.7890625 32.71875 -39.625 30.5 C-38.42857309 29.63695947 -37.23332664 28.77228087 -36.0390625 27.90625 C-35.38969727 27.44347656 -34.74033203 26.98070312 -34.07128906 26.50390625 C-30.3043927 23.76886599 -26.66215552 20.8728343 -23 18 C-16.45905238 12.90090023 -9.89484559 7.8333837 -3.30859375 2.79296875 C-1.15833336 1.19991086 -1.15833336 1.19991086 0 0 Z " fill="#5FAE5A" transform="translate(285,374)"/>
<path d="M0 0 C5.28 0 10.56 0 16 0 C16 5.28 16 10.56 16 16 C10.72 16 5.44 16 0 16 C0 10.72 0 5.44 0 0 Z " fill="#000000" transform="translate(96,176)"/>
<path d="M0 0 C0.5124004 4.22775759 1.00755756 8.45737507 1.5 12.6875 C1.64308594 13.86634766 1.78617187 15.04519531 1.93359375 16.25976562 C2.84856509 24.21130225 3.18028246 31.9982967 3 40 C2.34 39.67 1.68 39.34 1 39 C0.25151788 36.53122542 -0.37575109 34.11659328 -0.9453125 31.60546875 C-1.2074202 30.48982292 -1.2074202 30.48982292 -1.474823 29.35163879 C-1.84346643 27.77465495 -2.20802672 26.19671196 -2.56884766 24.61791992 C-3.12081304 22.20579726 -3.68624947 19.7971444 -4.25390625 17.38867188 C-4.61018118 15.85695813 -4.96567542 14.32506254 -5.3203125 12.79296875 C-5.48902863 12.07304245 -5.65774475 11.35311615 -5.83157349 10.6113739 C-6.58697131 7.28345129 -7 4.4365685 -7 1 C-4.53721199 -0.231394 -2.7204945 -0.07159196 0 0 Z " fill="#88D7F0" transform="translate(320,244)"/>
<path d="M0 0 C0.5124004 4.22775759 1.00755756 8.45737507 1.5 12.6875 C1.64308594 13.86634766 1.78617188 15.04519531 1.93359375 16.25976562 C2.84856509 24.21130225 3.18028246 31.9982967 3 40 C2.34 39.67 1.68 39.34 1 39 C0.25151788 36.53122542 -0.37575109 34.11659328 -0.9453125 31.60546875 C-1.2074202 30.48982292 -1.2074202 30.48982292 -1.474823 29.35163879 C-1.84346643 27.77465495 -2.20802672 26.19671196 -2.56884766 24.61791992 C-3.12081304 22.20579726 -3.68624947 19.7971444 -4.25390625 17.38867188 C-4.61018118 15.85695813 -4.96567542 14.32506254 -5.3203125 12.79296875 C-5.48902863 12.07304245 -5.65774475 11.35311615 -5.83157349 10.6113739 C-6.58697131 7.28345129 -7 4.4365685 -7 1 C-4.53721199 -0.231394 -2.7204945 -0.07159196 0 0 Z " fill="#88D7F0" transform="translate(56,244)"/>
<path d="M0 0 C0.33 0 0.66 0 1 0 C2.05253638 11.35235662 2.10313358 22.60946892 2 34 C-1.48670834 32.8905928 -4.77484237 31.73662334 -8 30 C-7.5875 28.783125 -7.175 27.56625 -6.75 26.3125 C-6.16376396 24.54262549 -5.58079461 22.7716676 -5 21 C-4.65195312 19.94039063 -4.30390625 18.88078125 -3.9453125 17.7890625 C-2.04216537 11.82957259 -0.4896893 6.24353854 0 0 Z " fill="#DFACA0" transform="translate(327,353)"/>
<path d="M0 0 C0.33 0 0.66 0 1 0 C2.05253638 11.35235662 2.10313358 22.60946892 2 34 C-1.48670834 32.8905928 -4.77484237 31.73662334 -8 30 C-7.5875 28.783125 -7.175 27.56625 -6.75 26.3125 C-6.16376396 24.54262549 -5.58079461 22.7716676 -5 21 C-4.65195312 19.94039063 -4.30390625 18.88078125 -3.9453125 17.7890625 C-2.04216537 11.82957259 -0.4896893 6.24353854 0 0 Z " fill="#DFACA0" transform="translate(63,353)"/>
<path d="M0 0 C1.65 0 3.3 0 5 0 C6.20514375 9.33986409 6.09213655 18.60207216 6 28 C5.67 28 5.34 28 5 28 C4.70996094 26.26363281 4.70996094 26.26363281 4.4140625 24.4921875 C4.15128853 22.95308283 3.88825388 21.41402266 3.625 19.875 C3.49867188 19.11445313 3.37234375 18.35390625 3.2421875 17.5703125 C2.49073325 13.21187786 1.44700568 9.19132681 0 5 C-0.125 2.125 -0.125 2.125 0 0 Z " fill="#C89B90" transform="translate(322,310)"/>
<path d="M0 0 C1.65 0 3.3 0 5 0 C6.20514375 9.33986409 6.09213655 18.60207216 6 28 C5.67 28 5.34 28 5 28 C4.70996094 26.26363281 4.70996094 26.26363281 4.4140625 24.4921875 C4.15128853 22.95308283 3.88825388 21.41402266 3.625 19.875 C3.49867187 19.11445313 3.37234375 18.35390625 3.2421875 17.5703125 C2.49073325 13.21187786 1.44700568 9.19132681 0 5 C-0.125 2.125 -0.125 2.125 0 0 Z " fill="#C89B90" transform="translate(58,310)"/>
<path d="M0 0 C0.33 0 0.66 0 1 0 C1 3.3 1 6.6 1 10 C-1.475 9.01 -1.475 9.01 -4 8 C-2.68 5.36 -1.36 2.72 0 0 Z " fill="#F0CBBB" transform="translate(328,377)"/>
<path d="M0 0 C0.33 0 0.66 0 1 0 C1 3.3 1 6.6 1 10 C-1.475 9.01 -1.475 9.01 -4 8 C-2.68 5.36 -1.36 2.72 0 0 Z " fill="#F0CBBB" transform="translate(64,377)"/>
</svg>
