<?xml version="1.0" encoding="utf-8"?>
<svg viewBox="15.944 100.672 496.356 227.593" xmlns="http://www.w3.org/2000/svg">
  <defs/>
  <g id="layer1" transform="matrix(2.324293, 0, 0, 2.906124, 81.322175, 40.429078)" style="">
    <g id="g25" transform="translate(6.3499999,-9.260417)">
      <g id="g26" transform="matrix(1, 0, 0, 1, 2.15585, 2.664729)">
        <g transform="matrix(0.02645833,0,0,-0.02645833,-66.434074,216.72123)" fill="#000000" stroke="none" id="g24">
          <path d="m 3213,6826 c -327,-63 -585,-321 -652,-653 -25,-122 -26,-174 -5,-306 18,-111 58,-236 110,-339 19,-37 34,-72 34,-77 0,-5 -32,-11 -70,-13 -79,-4 -105,-21 -116,-74 -4,-24 0,-37 19,-60 25,-29 26,-29 155,-32 l 130,-4 73,-96 c 92,-122 322,-354 455,-459 194,-154 477,-323 539,-323 63,0 356,179 555,339 109,87 360,334 390,383 11,18 20,45 20,59 0,37 -42,73 -86,73 -32,0 -44,-9 -117,-89 -217,-236 -455,-428 -688,-554 l -73,-40 -50,26 c -152,77 -362,228 -522,375 -119,109 -284,285 -284,302 0,3 49,6 110,6 62,0 120,5 135,12 15,7 52,52 91,115 37,57 69,103 73,103 3,0 58,-104 121,-231 111,-223 142,-269 181,-269 30,0 66,21 76,44 6,11 49,172 97,356 102,391 100,386 111,383 4,-1 32,-57 61,-125 58,-131 79,-158 126,-158 38,0 67,31 140,148 32,51 62,92 67,92 5,0 27,-29 50,-63 23,-35 53,-69 67,-75 17,-8 133,-12 380,-12 419,0 424,1 424,91 0,49 -39,79 -100,79 -47,0 -51,2 -46,20 3,11 8,28 11,38 3,9 9,58 14,107 30,290 -92,573 -322,746 -99,75 -153,102 -263,134 -230,67 -479,30 -671,-99 l -78,-52 -80,51 c -143,92 -242,123 -410,130 -70,3 -136,0 -182,-9 z m 311,-176 c 92,-23 170,-63 250,-128 75,-60 102,-75 125,-67 11,3 50,31 88,62 136,112 282,160 457,150 417,-23 696,-420 590,-841 l -16,-66 h -202 -201 l -72,110 c -64,96 -76,110 -107,115 -19,4 -43,2 -56,-5 -11,-6 -50,-57 -86,-112 -37,-57 -69,-97 -74,-92 -5,5 -38,79 -75,164 -38,88 -77,165 -91,178 -30,27 -74,29 -104,4 -24,-19 -23,-18 -146,-487 -42,-159 -78,-294 -81,-299 -4,-5 -54,85 -112,200 -89,175 -110,211 -133,218 -56,19 -76,1 -183,-161 l -100,-153 h -147 -147 l -45,83 c -101,187 -139,317 -140,482 -1,138 20,223 81,335 47,85 168,204 253,250 149,79 317,100 474,60 z" style="fill:#971114" id="path1"/>
          <path d="m 7290,6241 v -271 h 40 40 v 155 c 0,85 4,155 9,155 5,0 35,-33 67,-72 111,-137 217,-263 225,-266 4,-2 8,119 9,267 l 1,271 h -45 -46 l -2,-160 -3,-160 -139,170 c -76,94 -143,173 -147,176 -5,3 -9,-115 -9,-265 z" style="fill:#971114" id="path2"/>
          <path d="m 8250,6482 c -45,-22 -80,-75 -80,-121 0,-56 31,-95 112,-142 93,-53 128,-86 128,-118 0,-32 -8,-45 -37,-60 -34,-17 -94,-13 -138,10 l -39,21 -24,-28 -24,-28 26,-23 c 32,-27 86,-43 149,-43 81,0 150,46 168,112 20,76 -20,134 -141,204 -83,47 -100,62 -100,89 0,55 95,86 149,49 23,-16 25,-16 42,7 26,34 24,46 -13,69 -42,26 -130,27 -178,2 z" style="fill:#971114" id="path3"/>
          <path d="m 8634.382,6470.873 c -79,-45 -97,-138 -39,-199 15,-16 57,-47 93,-68 86,-50 108,-69 115,-101 16,-67 -83,-101 -171,-59 l -47,23 -18,-24 c -26,-34 -24,-44 19,-71 52,-32 186,-34 228,-2 44,32 66,68 71,115 7,65 -23,102 -136,170 -121,73 -132,89 -86,134 28,29 80,33 125,10 28,-14 29,-14 50,15 25,35 22,42 -24,64 -50,23 -133,21 -180,-7 z" style="fill:#971114" id="path4"/>
          <path d="m 5470,6475 c 0,-7 64,-148 162,-355 27,-58 57,-122 65,-142 8,-21 18,-38 22,-38 4,0 24,36 44,80 19,44 39,80 44,80 4,0 25,-37 46,-82 22,-48 41,-78 46,-72 5,5 42,83 84,174 41,91 96,209 121,263 l 45,97 h -47 -47 l -79,-175 c -44,-96 -81,-175 -82,-175 -2,0 -21,39 -44,87 -23,50 -44,83 -49,77 -5,-5 -21,-38 -36,-74 -16,-36 -33,-70 -39,-77 -8,-9 -32,33 -90,163 l -79,174 h -43 c -24,0 -44,-2 -44,-5 z" style="fill:#971114" id="path5"/>
          <path d="m 6190,6225 v -256 l 148,3 147,3 v 35 35 l -107,3 -108,3 v 64 65 h 86 85 l -3,43 -3,42 -82,3 -83,3 v 64 64 l 108,3 107,3 3,38 3,37 h -150 -151 z" style="fill:#971114" id="path6"/>
          <path d="m 6570,6225 v -255 h 145 145 v 40 40 h -105 -105 v 215 215 h -40 -40 z" style="fill:#971114" id="path7"/>
          <path d="m 6930,6225 v -256 l 148,3 147,3 v 35 35 l -107,3 -108,3 v 214 215 h -40 -40 z" style="fill:#971114" id="path8"/>
          <path d="m 7810,6225 v -256 l 148,3 147,3 v 35 35 l -107,3 -108,3 v 64 65 h 85 85 v 45 45 h -85 -85 v 65 64 l 108,3 107,3 3,38 3,37 h -150 -151 z" style="fill:#971114" id="path9"/>
          <path d="m 5523,5753 -33,-4 v -70 -69 l 1733,2 1732,3 3,66 3,66 -38,7 c -41,6 -3346,6 -3400,-1 z" id="path10"/>
          <path d="m 5772,5532 c -22,-3 -23,-6 -17,-70 4,-37 2,-94 -3,-127 -6,-33 -8,-62 -7,-63 2,-2 47,-5 99,-5 l 96,-2 v 28 c 0,27 0,27 -71,27 h -70 l 3,28 c 3,26 5,27 66,27 57,0 62,1 62,22 0,20 -6,22 -62,25 -60,3 -63,4 -66,31 l -3,27 h 70 c 68,0 71,1 71,24 0,23 -3,25 -72,28 -40,2 -83,2 -96,0 z" id="path11"/>
          <path d="m 7491,5527 c -45,-23 -66,-63 -66,-127 1,-67 22,-105 70,-129 25,-12 35,-12 68,0 50,18 77,64 77,132 0,62 -23,105 -65,123 -42,17 -53,17 -84,1 z m 73,-53 c 21,-20 21,-102 0,-132 -19,-27 -60,-29 -74,-3 -15,29 -12,104 6,129 18,26 46,28 68,6 z" id="path12"/>
          <path d="m 5420,5432 c 0,-53 -4,-112 -9,-130 -10,-32 -9,-32 25,-32 h 34 l 1,73 1,72 21,-57 c 18,-48 26,-58 45,-58 19,0 29,13 55,68 29,61 32,64 35,38 2,-16 2,-53 0,-83 l -3,-53 h 34 c 32,0 33,1 27,31 -3,17 -6,76 -6,130 v 99 h -35 c -19,0 -35,-5 -35,-11 0,-6 -14,-44 -31,-86 -31,-73 -32,-75 -45,-52 -7,13 -23,52 -34,87 -20,57 -24,62 -51,62 h -29 z" id="path13"/>
          <path d="m 5995,5400 v -130 l 31,-6 c 41,-8 109,12 134,38 40,43 40,161 -1,204 -20,21 -31,24 -93,24 h -71 z m 133,68 c 7,-7 12,-31 12,-54 0,-50 -30,-94 -66,-94 -23,0 -24,2 -24,80 v 80 h 33 c 18,0 38,-5 45,-12 z" id="path14"/>
          <path d="m 6245,5400 v -130 h 28 27 v 130 130 h -27 -28 z" id="path15"/>
          <path d="m 6398,5518 c -35,-29 -48,-63 -48,-126 0,-57 3,-67 28,-92 38,-38 89,-47 136,-25 36,17 42,29 28,53 -7,10 -14,10 -38,-3 -39,-20 -51,-19 -79,10 -19,18 -25,35 -25,65 0,30 6,47 25,65 28,29 36,30 76,9 34,-17 34,-18 43,13 6,19 2,25 -19,33 -37,14 -108,13 -127,-2 z" id="path16"/>
          <path d="m 6654,5478 c -9,-29 -30,-82 -46,-116 -15,-35 -28,-67 -28,-70 0,-4 11,-12 24,-18 22,-10 26,-8 42,27 15,35 21,39 55,39 36,0 39,-2 50,-41 11,-36 15,-40 38,-34 14,4 27,8 29,10 2,2 -20,60 -49,129 -45,108 -56,126 -75,126 -18,0 -26,-10 -40,-52 z m 61,-60 c 6,-25 4,-28 -18,-28 -24,0 -25,1 -14,35 11,38 22,36 32,-7 z" id="path17"/>
          <path d="m 6870,5423 c 0,-60 -3,-118 -6,-130 -6,-23 -5,-23 80,-23 83,0 86,1 86,23 0,22 -3,23 -55,19 l -55,-4 v 111 111 h -25 -25 z" id="path18"/>
          <path d="m 7180,5504 c 0,-20 4,-22 41,-17 l 41,6 -4,-112 -3,-111 h 30 30 l -3,111 -3,111 40,-4 c 37,-3 41,-1 41,18 0,21 -4,22 -105,22 -102,-1 -105,-2 -105,-24 z" id="path19"/>
          <path d="m 7692,5425 c 3,-98 5,-106 30,-131 20,-20 36,-27 68,-27 32,0 48,7 68,27 25,25 27,33 30,132 l 4,106 -27,-4 c -26,-3 -26,-4 -28,-89 -2,-94 -13,-119 -53,-119 -33,0 -44,33 -44,131 0,78 0,79 -26,79 h -26 z" id="path20"/>
          <path d="m 7948,5406 c -3,-118 -2,-125 17,-130 42,-11 45,-8 45,49 0,51 2,55 23,55 12,0 33,-7 46,-16 19,-13 22,-24 19,-55 -3,-37 -2,-39 26,-39 28,0 29,0 24,50 -3,28 -12,58 -21,68 -13,15 -14,19 -1,36 19,26 18,50 -3,74 -14,15 -36,21 -95,26 l -77,7 z m 137,65 c 9,-16 -25,-41 -56,-41 -21,0 -29,5 -29,18 0,10 3,22 7,25 10,10 71,8 78,-2 z" id="path21"/>
          <path d="m 8210,5416 c 0,-63 -3,-121 -6,-130 -5,-13 1,-16 27,-16 h 34 l -3,130 -3,130 h -25 -24 z" id="path22"/>
          <path d="m 8346,5509 c -19,-15 -26,-30 -26,-53 0,-39 21,-60 76,-79 27,-10 39,-20 39,-33 0,-17 -7,-19 -57,-18 -54,1 -58,0 -58,-21 0,-26 22,-35 91,-35 52,0 89,29 89,71 -1,35 -20,56 -74,80 -97,42 -65,83 42,53 19,-6 22,-3 22,25 v 31 h -59 c -44,0 -65,-5 -85,-21 z" id="path23"/>
          <path d="m 8554,5453 c 0,-43 -3,-102 -7,-130 l -8,-53 h 30 30 l 3,73 3,72 21,-55 c 17,-43 26,-56 45,-58 21,-2 28,6 56,65 l 31,68 1,-82 1,-83 h 31 32 l -7,53 c -3,28 -6,87 -6,130 v 77 h -30 c -20,0 -33,-6 -37,-17 -14,-45 -67,-153 -71,-148 -3,2 -17,39 -32,82 -25,72 -30,78 -58,81 l -30,3 z" id="path24"/>
        </g>
        <path style="opacity:0.294872;fill:#f6b5b3;fill-opacity:1;stroke-width:0.264583" d="m 10.364607,72.980865 c 0,0 -7.9911956,-10.24294 -3.8821185,-21.805693 1.342019,-3.77637 3.9615145,-6.31939 6.3821805,-8.03186 4.991073,-3.53088 10.101892,-2.94557 10.101892,-2.94557 0,0 3.9444,0.12405 7.195659,1.59071 2.46516,1.11205 4.638009,3.09827 5.397394,3.87189 1.118851,1.13983 6.085855,-3.7944 6.62642,-3.86197 0,0 13.378384,-6.11583 21.692086,4.87355 3.482184,4.60289 3.565408,8.71314 3.569004,11.65827 0.005,4.086343 -1.124735,5.911753 -1.124735,5.911753 l -10.527273,0.1597 -3.695597,-5.410263 c -0.363622,-0.39337 -0.775951,-0.73757 -1.539386,-0.72728 -0.5477,-0.025 -1.061964,0.0173 -1.399798,0.41479 l -0.622437,0.83401 -3.238642,4.463093 -4.297917,-9.174043 -0.813533,-0.4253 -0.693344,-0.19412 -0.743707,0.0988 -0.590456,0.33444 -0.492512,0.51177 -0.515685,1.42504 -0.877693,3.17307 -4.273695,15.896123 -5.026957,-9.56131 -0.976077,-1.46142 -0.661901,-0.27316 -0.54031,-0.0779 -0.292689,0.0291 -0.230303,0.0767 -0.25052,0.12511 -0.524315,0.34729 -1.499314,2.00255 -3.932955,6.15689 z" id="path25"/>
      </g>
    </g>
  </g>
</svg>