<?xml version="1.0" encoding="UTF-8"?>
<svg version="1.1" xmlns="http://www.w3.org/2000/svg" width="512" height="512">
<path d="M0 0 C13.26206481 7.75265494 17.3214646 22.74930547 21.1875 36.75 C31.78017954 77.76140716 19.33111203 117.32437768 6.26431274 156.13917542 C-5.36555148 186.22060157 -5.36555148 186.22060157 -10.5625 217.5625 C-6.59559312 216.89652293 -3.66013423 214.93996017 -0.25 212.875 C11.51114413 205.97091065 27.59686244 197.89362161 41.4375 198.5625 C41.56705078 197.16064453 41.56705078 197.16064453 41.69921875 195.73046875 C44.47517225 168.67016639 54.52688935 140.50579307 70.3984375 118.29296875 C70.86717285 117.63594971 71.3359082 116.97893066 71.81884766 116.30200195 C72.69325994 115.11079849 73.59459072 113.93860269 74.52880859 112.79370117 C77.94721555 108.21713406 77.55745085 104.83448868 76.82714844 99.48925781 C72.99376711 70.69566422 80.31251481 41.12594493 95.4375 16.5625 C97.85692823 13.62853661 98.29247796 13.5809155 102.375 13.0625 C105.67254139 13.19610205 106.29278897 13.43949562 108.9375 15.6875 C110.71984659 19.10366429 110.81441796 20.74275826 110.4375 24.5625 C109.31081186 26.95599739 108.16029691 29.11744777 106.8125 31.375 C87.39437685 65.98147064 92.52076956 102.04858566 102.78663635 138.71408081 C103.33535572 140.66400056 103.88603795 142.61335426 104.4375 144.5625 C104.61962036 145.20749451 104.80174072 145.85248901 104.98937988 146.51702881 C107.15971916 154.19981814 109.34849065 161.87720037 111.58837891 169.54003906 C112.14938259 171.5369412 112.6733649 173.54465745 113.15771484 175.56152344 C114.62710161 181.60976202 116.44494687 185.69546265 120.4375 190.4375 C139.70937122 215.11947341 151.18612167 248.66141527 150.16918945 279.9543457 C149.78229713 293.94532831 151.51311987 305.25068411 156.60839844 318.32910156 C164.50387117 339.59758935 162.82310964 370.16536207 156.4375 391.5625 C156.22319336 392.29130371 156.00888672 393.02010742 155.78808594 393.77099609 C146.57113592 424.12521648 127.77558534 448.81795587 99.72265625 464.03515625 C94.35591822 466.67413871 88.89800587 468.39565489 83.125 469.875 C82.4549292 470.04676758 81.7848584 470.21853516 81.09448242 470.39550781 C77.13480258 471.34160416 73.50297109 471.73268251 69.4375 471.5625 C69.68886719 472.45388672 69.68886719 472.45388672 69.9453125 473.36328125 C71.92977984 481.43930972 71.58989252 488.97702877 67.625 496.4375 C63.13881034 502.84634237 58.32034149 506.12107925 51.4375 509.5625 C27.10494062 512.39111985 2.21280276 498.83926003 -16.32080078 484.17089844 C-49.56126346 457.33077329 -69.1685071 417.92320492 -74.34562683 375.75997925 C-74.70217896 372.14719528 -74.74512578 368.54611156 -74.765625 364.91796875 C-74.77132507 364.10870438 -74.77702515 363.29944 -74.78289795 362.46565247 C-74.79229274 360.75714398 -74.79885979 359.04861782 -74.80273438 357.34008789 C-74.81233132 354.79473797 -74.84336164 352.25023551 -74.875 349.70507812 C-74.97497901 334.35704474 -73.011311 319.60824689 -68.875 304.8125 C-65.81986703 293.81752289 -66.98052062 286.04135065 -70 275.0625 C-70.64808858 272.67804736 -71.29272675 270.29265372 -71.93359375 267.90625 C-72.3656311 266.33133789 -72.3656311 266.33133789 -72.80639648 264.72460938 C-82.43460482 224.45836643 -66.81752737 182.29977985 -53.89379883 144.78930664 C-42.27861155 110.98774879 -31.99862657 75.74062952 -41.6875 40.1875 C-44.21818272 30.86720883 -45.53934308 21.47105219 -40.87890625 12.62109375 C-31.593941 -1.89871838 -15.99774843 -7.1859397 0 0 Z M82.4375 129.5625 C71.09607943 148.51849135 62.99203496 167.89677155 58.4375 189.5625 C58.20401855 190.63177734 58.20401855 190.63177734 57.96582031 191.72265625 C57.20312183 195.45140437 56.68570845 198.80937009 57.4375 202.5625 C59.20905683 204.79752036 61.03575892 206.24931357 63.359375 207.89453125 C67.77843659 211.44140964 69.35045209 217.05883214 70.25 222.5 C70.6702278 227.22756271 70.03496941 231.87479027 69.4375 236.5625 C70.72785156 236.82804687 72.01820313 237.09359375 73.34765625 237.3671875 C75.0651325 237.72382191 76.78257884 238.08060039 78.5 238.4375 C79.34755859 238.61152344 80.19511719 238.78554687 81.06835938 238.96484375 C85.92831743 239.97811686 90.68367286 241.13054664 95.4375 242.5625 C96.25884989 240.06511142 97.06965748 237.56505195 97.875 235.0625 C98.10509766 234.36640625 98.33519531 233.6703125 98.57226562 232.953125 C109.18927382 199.71727327 92.86719705 161.14662735 83.4375 129.5625 C83.1075 129.5625 82.7775 129.5625 82.4375 129.5625 Z M117.4375 217.5625 C116.10411749 220.22926503 116.02817887 222.65768701 115.6875 225.625 C114.52654992 234.22496099 112.05577636 242.30793408 109.4375 250.5625 C110.283125 251.1915625 111.12875 251.820625 112 252.46875 C118.62319767 257.44714294 124.74512003 262.51352082 130.4375 268.5625 C131.76731067 269.89934671 133.09978314 271.23356465 134.4375 272.5625 C132.82829652 252.94686448 126.93577896 235.22770422 118.4375 217.5625 C118.1075 217.5625 117.7775 217.5625 117.4375 217.5625 Z " fill="#F8D787" transform="translate(74.5625,2.4375)"/>
<path d="M0 0 C6.67158361 3.98269916 12.81508389 10.21813802 15.09765625 17.796875 C16.64576609 26.51438675 15.36140703 34.35027604 13.07519531 42.77636719 C3.56541747 78.59483523 15.39379689 114.19062472 26.8828125 148.05859375 C46.95101196 207.28609384 46.95101196 207.28609384 46.875 237.625 C46.87518127 238.74243591 46.87518127 238.74243591 46.87536621 239.88244629 C46.8474686 251.99325237 45.82564606 263.36414938 42.5 275.0625 C42.30792969 275.74199707 42.11585938 276.42149414 41.91796875 277.12158203 C41.06514081 280.10285384 40.18746937 283.06860446 39.234375 286.01953125 C37.36011098 293.78576353 39.42374227 300.58769981 41.375 308.125 C45.14634108 322.73217993 46.85520885 336.68934723 46.81567383 351.73754883 C46.81252554 354.22978023 46.83603151 356.7208057 46.86132812 359.21289062 C46.92181068 374.33092449 45.12697678 389.17690319 40.75 403.6875 C40.49395996 404.5552002 40.23791992 405.42290039 39.97412109 406.31689453 C27.88800428 446.11584338 2.85734549 478.67888861 -33.60546875 499.140625 C-47.71893357 506.41400335 -66.19761102 513.70294669 -82.140625 509.33984375 C-86.34304306 507.35893295 -89.43304075 504.55542582 -92.5 501.0625 C-93.221875 500.258125 -93.94375 499.45375 -94.6875 498.625 C-98.46345993 493.28657389 -98.79719361 488.11699567 -98.6875 481.8125 C-98.6865332 480.73355469 -98.6865332 480.73355469 -98.68554688 479.6328125 C-98.64098214 474.34446429 -98.64098214 474.34446429 -97.5 472.0625 C-99.01787109 472.10890625 -99.01787109 472.10890625 -100.56640625 472.15625 C-122.11055743 471.64278463 -142.19040519 457.33057847 -156.81640625 442.75390625 C-170.13999581 428.64248705 -179.33656426 410.66775425 -184.5 392.0625 C-184.69754883 391.3813916 -184.89509766 390.7002832 -185.09863281 389.99853516 C-192.5270377 363.41554452 -191.60803083 327.7680681 -179.34765625 302.70703125 C-178.04874924 298.6546808 -178.38473762 294.7219185 -178.5 290.5 C-178.9311004 252.61581801 -167.85749696 216.13141386 -144.5 186.0625 C-143.84 185.4025 -143.18 184.7425 -142.5 184.0625 C-141.8289476 182.11191165 -141.8289476 182.11191165 -141.34375 179.8125 C-141.13097412 178.91152588 -140.91819824 178.01055176 -140.69897461 177.08227539 C-140.46831299 176.08574951 -140.23765137 175.08922363 -140 174.0625 C-137.68334529 164.36918777 -134.98914695 154.84356627 -132.09835815 145.31109619 C-120.25842689 106.14500816 -114.6595512 69.77439134 -134.19726562 32.2800293 C-136.7043106 27.35175159 -138.2307807 23.74066605 -137.5 18.0625 C-135.9375 15.625 -135.9375 15.625 -133.5 14.0625 C-130.0625 13.5 -130.0625 13.5 -126.5 14.0625 C-122.3721741 17.53924926 -119.88973956 21.45255255 -117.5625 26.25 C-117.22259033 26.94343506 -116.88268066 27.63687012 -116.5324707 28.35131836 C-107.0011107 48.39603016 -101.00777492 72.15614776 -104.078125 94.3828125 C-105.43834392 105.51001693 -104.24558916 111.43062874 -97.39453125 120.2734375 C-96.91322754 120.88670898 -96.43192383 121.49998047 -95.93603516 122.13183594 C-80.93913688 142.29427585 -68.54244547 173.68730504 -69.5 199.0625 C-68.19160156 199.17464844 -66.88320313 199.28679687 -65.53515625 199.40234375 C-60.77163645 199.93741386 -56.46225756 201.07524523 -51.9375 202.625 C-51.16954102 202.88458496 -50.40158203 203.14416992 -49.61035156 203.41162109 C-40.39481964 206.6429186 -31.29972358 210.76699601 -23.234375 216.3046875 C-20.6211854 218.3328788 -20.6211854 218.3328788 -17.5 218.0625 C-20.47494458 196.09129475 -28.02564015 175.23517248 -35.27947998 154.38442993 C-53.36494679 102.30041739 -53.36494679 102.30041739 -50.5 88.0625 C-49.125 86.125 -49.125 86.125 -47.5 85.0625 C-46.51 85.0625 -45.52 85.0625 -44.5 85.0625 C-44.83 84.4025 -45.16 83.7425 -45.5 83.0625 C-45.58308638 81.68701844 -45.60736016 80.30764204 -45.59765625 78.9296875 C-45.59443359 78.12402344 -45.59121094 77.31835938 -45.58789062 76.48828125 C-45.57951172 75.64652344 -45.57113281 74.80476563 -45.5625 73.9375 C-45.55798828 73.08800781 -45.55347656 72.23851563 -45.54882812 71.36328125 C-45.53702874 69.26299091 -45.51909306 67.1627367 -45.5 65.0625 C-46.12390625 64.93286865 -46.7478125 64.8032373 -47.390625 64.66967773 C-49.5 64.0625 -49.5 64.0625 -51.25 62.34765625 C-55.54439638 54.49696287 -50.26309045 40.89866893 -47.94921875 32.796875 C-44.13624447 20.06458716 -40.12162195 7.54944612 -28.0625 0.5 C-19.29572368 -3.43789953 -8.89772577 -3.91499934 0 0 Z M-110.5 131.0625 C-112.61596216 136.53223712 -114.45085583 141.99843412 -116.05859375 147.63671875 C-116.28806702 148.43430603 -116.51754028 149.23189331 -116.75396729 150.0536499 C-131.24210196 196.57191554 -131.24210196 196.57191554 -122.5 243.0625 C-121.95585449 242.91627197 -121.41170898 242.77004395 -120.85107422 242.61938477 C-118.35981959 241.95167767 -115.8674294 241.28830782 -113.375 240.625 C-112.5190625 240.39490234 -111.663125 240.16480469 -110.78125 239.92773438 C-106.37052617 238.75719613 -102.02547458 237.70793654 -97.5 237.0625 C-97.54640625 235.86753906 -97.5928125 234.67257813 -97.640625 233.44140625 C-98.13448828 215.71078259 -98.13448828 215.71078259 -93.5 210.0625 C-91.85972307 208.92941396 -90.21348084 207.80493216 -88.5625 206.6875 C-86.15539191 204.69541054 -84.63055816 203.3451767 -84.30517578 200.1484375 C-84.58612075 194.31523584 -86.05999074 188.6986063 -87.5 183.0625 C-87.85629128 181.52753444 -88.21178837 179.99238427 -88.56640625 178.45703125 C-92.01772469 164.30430934 -98.13256004 151.35272763 -104.875 138.5 C-105.20862549 137.86231689 -105.54225098 137.22463379 -105.88598633 136.56762695 C-107.57234724 133.22319716 -107.57234724 133.22319716 -110.5 131.0625 Z M-145.5 218.0625 C-154.2742893 233.58624261 -162.08240229 253.97377002 -161.5 272.0625 C-160.84 271.4025 -160.18 270.7425 -159.5 270.0625 C-158.80777344 269.37607422 -158.80777344 269.37607422 -158.1015625 268.67578125 C-156.97661049 267.54259788 -155.86856856 266.39249695 -154.7734375 265.23046875 C-149.5173696 259.74728681 -143.74005584 255.37547977 -137.5 251.0625 C-138.24866794 246.9872766 -139.31798886 243.0504944 -140.4375 239.0625 C-142.34266072 232.13002323 -143.5854958 225.19803935 -144.5 218.0625 C-144.83 218.0625 -145.16 218.0625 -145.5 218.0625 Z " fill="#F8D788" transform="translate(465.5,1.9375)"/>
<path d="M0 0 C13.26206481 7.75265494 17.3214646 22.74930547 21.1875 36.75 C31.78017954 77.76140716 19.33111203 117.32437768 6.26431274 156.13917542 C-5.36555148 186.22060157 -5.36555148 186.22060157 -10.5625 217.5625 C-6.59559312 216.89652293 -3.66013423 214.93996017 -0.25 212.875 C11.51114413 205.97091065 27.59686244 197.89362161 41.4375 198.5625 C41.56705078 197.16064453 41.56705078 197.16064453 41.69921875 195.73046875 C44.47517225 168.67016639 54.52688935 140.50579307 70.3984375 118.29296875 C70.86717285 117.63594971 71.3359082 116.97893066 71.81884766 116.30200195 C72.69325994 115.11079849 73.59459072 113.93860269 74.52880859 112.79370117 C77.94721555 108.21713406 77.55745085 104.83448868 76.82714844 99.48925781 C72.99376711 70.69566422 80.31251481 41.12594493 95.4375 16.5625 C97.85692823 13.62853661 98.29247796 13.5809155 102.375 13.0625 C105.67254139 13.19610205 106.29278897 13.43949562 108.9375 15.6875 C110.71984659 19.10366429 110.81441796 20.74275826 110.4375 24.5625 C109.31081186 26.95599739 108.16029691 29.11744777 106.8125 31.375 C87.39437685 65.98147064 92.52076956 102.04858566 102.78663635 138.71408081 C103.33535572 140.66400056 103.88603795 142.61335426 104.4375 144.5625 C104.61962036 145.20749451 104.80174072 145.85248901 104.98937988 146.51702881 C107.15971916 154.19981814 109.34849065 161.87720037 111.58837891 169.54003906 C112.14938259 171.5369412 112.6733649 173.54465745 113.15771484 175.56152344 C114.62710161 181.60976202 116.44494687 185.69546265 120.4375 190.4375 C139.70937122 215.11947341 151.18612167 248.66141527 150.16918945 279.9543457 C149.78229713 293.94532831 151.51311987 305.25068411 156.60839844 318.32910156 C164.50387117 339.59758935 162.82310964 370.16536207 156.4375 391.5625 C156.22319336 392.29130371 156.00888672 393.02010742 155.78808594 393.77099609 C146.57113592 424.12521648 127.77558534 448.81795587 99.72265625 464.03515625 C94.35591822 466.67413871 88.89800587 468.39565489 83.125 469.875 C82.4549292 470.04676758 81.7848584 470.21853516 81.09448242 470.39550781 C77.13480258 471.34160416 73.50297109 471.73268251 69.4375 471.5625 C69.68886719 472.45388672 69.68886719 472.45388672 69.9453125 473.36328125 C71.92977984 481.43930972 71.58989252 488.97702877 67.625 496.4375 C63.13881034 502.84634237 58.32034149 506.12107925 51.4375 509.5625 C27.10494062 512.39111985 2.21280276 498.83926003 -16.32080078 484.17089844 C-49.56126346 457.33077329 -69.1685071 417.92320492 -74.34562683 375.75997925 C-74.70217896 372.14719528 -74.74512578 368.54611156 -74.765625 364.91796875 C-74.77132507 364.10870438 -74.77702515 363.29944 -74.78289795 362.46565247 C-74.79229274 360.75714398 -74.79885979 359.04861782 -74.80273438 357.34008789 C-74.81233132 354.79473797 -74.84336164 352.25023551 -74.875 349.70507812 C-74.97497901 334.35704474 -73.011311 319.60824689 -68.875 304.8125 C-65.81986703 293.81752289 -66.98052062 286.04135065 -70 275.0625 C-70.64808858 272.67804736 -71.29272675 270.29265372 -71.93359375 267.90625 C-72.3656311 266.33133789 -72.3656311 266.33133789 -72.80639648 264.72460938 C-82.43460482 224.45836643 -66.81752737 182.29977985 -53.89379883 144.78930664 C-42.27861155 110.98774879 -31.99862657 75.74062952 -41.6875 40.1875 C-44.21818272 30.86720883 -45.53934308 21.47105219 -40.87890625 12.62109375 C-31.593941 -1.89871838 -15.99774843 -7.1859397 0 0 Z M-26.9375 19.375 C-29.2645627 23.939623 -29.04407055 27.72037577 -27.7578125 32.640625 C-27.40460937 33.68734375 -27.05140625 34.7340625 -26.6875 35.8125 C-20.73417422 55.82580793 -20.58079088 78.83408714 -25.05102539 99.14086914 C-25.45557998 101.05627581 -25.82487659 102.97912659 -26.18139648 104.90405273 C-27.84568363 113.76401854 -30.14000428 122.18650845 -33 130.75 C-33.43466415 132.0745442 -33.86856153 133.39934023 -34.30175781 134.72436523 C-36.71969287 142.09790421 -39.19587545 149.45180906 -41.67578125 156.8046875 C-54.96301993 196.21703678 -67.37452329 235.10630338 -53.3125 276.1875 C-48.83091644 290.6361254 -52.49038038 303.46683168 -56.09375 317.66796875 C-65.91580573 356.53472286 -58.56206917 400.86906886 -38.51513672 435.36474609 C-34.15342608 442.54787952 -28.95961923 449.13685313 -23.5625 455.5625 C-22.62470703 456.70332031 -22.62470703 456.70332031 -21.66796875 457.8671875 C-8.0153287 473.93893077 11.90846724 486.07473545 31.875 492.5 C32.85025635 492.81759277 32.85025635 492.81759277 33.84521484 493.14160156 C39.11538686 494.73091108 44.09991057 495.67816768 49.1875 493.25 C52.44349404 490.80800447 54.13221469 489.47835593 55.4375 485.5625 C55.96729867 481.02136851 56.09416578 477.74929334 53.5 473.875 C49.63972985 469.84255818 44.60230915 468.95937089 39.38842773 467.60766602 C26.11477684 464.04133607 14.47545166 456.87329296 4.4375 447.5625 C3.58800781 446.79292969 2.73851562 446.02335937 1.86328125 445.23046875 C-4.65934677 439.04745689 -9.8563492 432.18208449 -14.5625 424.5625 C-14.91054688 423.99966309 -15.25859375 423.43682617 -15.6171875 422.85693359 C-32.88726937 394.26553395 -37.79347832 357.58963109 -31.51171875 325.05078125 C-30.2578734 320.44302857 -29.00584651 316.00584651 -25.5625 312.5625 C-20.32024565 312.00481337 -20.32024565 312.00481337 -17.890625 313.79296875 C-15.32903575 317.20590972 -16.20676729 321.4893605 -16.5625 325.5625 C-16.95983615 327.76624404 -17.44049908 329.90594846 -18.02734375 332.06640625 C-24.26876113 361.17783476 -17.50467574 393.77957592 -1.58984375 418.64453125 C11.69178367 437.52398176 29.10207763 452.46037838 52.4375 456.5625 C62.84845028 457.51226238 73.48144706 456.88118431 83.4375 453.5625 C78.81237321 435.98701821 67.07247648 422.08601358 52.0625 412.375 C49.4375 410.5625 49.4375 410.5625 48.4375 408.5625 C48.125 405.125 48.125 405.125 48.4375 401.5625 C50.4692465 399.22975402 51.70228395 398.6516171 54.7578125 398.28125 C64.51365815 399.30518715 74.75392424 411.84436224 81.4375 418.5625 C81.45208252 417.84594238 81.46666504 417.12938477 81.48168945 416.39111328 C81.55599 413.15602017 81.65270861 409.92197981 81.75 406.6875 C81.78383789 404.99560547 81.78383789 404.99560547 81.81835938 403.26953125 C81.85380859 402.19316406 81.88925781 401.11679687 81.92578125 400.0078125 C81.95196533 399.01281738 81.97814941 398.01782227 82.00512695 396.99267578 C82.14781006 396.19071777 82.29049316 395.38875977 82.4375 394.5625 C85.4375 392.5625 85.4375 392.5625 88.9375 392.6875 C92.4375 393.5625 92.4375 393.5625 94.13354492 395.26147461 C95.7523496 398.11809961 95.81055607 399.98039875 95.80078125 403.25390625 C95.79981445 404.91969727 95.79981445 404.91969727 95.79882812 406.61914062 C95.78271484 407.77607422 95.76660156 408.93300781 95.75 410.125 C95.75322266 411.25486328 95.75644531 412.38472656 95.75976562 413.54882812 C95.71912381 419.96654081 95.20301091 425.97500316 93.83959961 432.25024414 C92.94373885 437.40185148 94.31835219 441.90037481 96.4375 446.5625 C107.89913693 444.66115369 118.04531991 431.78378854 124.5 422.9375 C143.29670961 396.30437554 149.47282221 363.84324141 144.04931641 331.86401367 C139.97986469 310.73566717 131.49828432 292.88939131 117.4375 276.5625 C116.84582031 275.87414062 116.25414062 275.18578125 115.64453125 274.4765625 C107.00779538 265.15846368 95.36799461 258.65158081 83.4375 254.5625 C82.5196875 254.24410156 81.601875 253.92570313 80.65625 253.59765625 C62.42217027 248.16249787 44.63636565 251.91965638 28.18286133 260.65625 C25.07662955 262.39239586 23.44636799 263.54919801 21.4375 266.5625 C32.39350652 273.75933498 43.61987819 277.7327341 56.43359375 280.13134766 C62.92596104 281.40907055 62.92596104 281.40907055 65.4375 284.5625 C65.95489195 288.03641737 65.79445625 289.89958124 64.125 293 C57.3993267 296.91027518 46.7083916 293.01105287 39.4375 291.5625 C42.63817784 300.54825395 46.70945015 309.84397061 53.375 316.8125 C55.46672686 319.60146915 55.81988552 320.42988968 56 323.75 C55.4375 327.5625 55.4375 327.5625 53.8125 329.625 C50.59252614 330.89604231 48.76264544 330.44416735 45.4375 329.5625 C35.12050439 320.55964642 29.19642993 305.92683366 24.76171875 293.25390625 C24.32472656 292.03574219 23.88773437 290.81757813 23.4375 289.5625 C23.0146875 288.32242187 22.591875 287.08234375 22.15625 285.8046875 C20.05045754 281.83239719 18.31610404 280.9175835 14.25 279.125 C12.61998047 278.38443359 12.61998047 278.38443359 10.95703125 277.62890625 C9.70986328 277.10103516 9.70986328 277.10103516 8.4375 276.5625 C6.99586993 278.28822488 5.55936835 280.0182347 4.125 281.75 C3.32449219 282.71292969 2.52398437 283.67585938 1.69921875 284.66796875 C-0.58375478 287.46459634 -0.58375478 287.46459634 -2.23046875 290.36328125 C-3.5625 292.5625 -3.5625 292.5625 -5.5625 293.5625 C-10.77903972 294.00646083 -10.77903972 294.00646083 -13.4375 292.5 C-15.21744615 289.43453718 -14.87162098 287.05628598 -14.5625 283.5625 C-13.23363753 281.060593 -12.00949784 279.089441 -10.3125 276.875 C-9.86285889 276.27268555 -9.41321777 275.67037109 -8.94995117 275.04980469 C4.21021488 257.85825089 21.67136757 244.93702112 42.875 239.625 C47.99023233 238.23356556 51.49683765 236.99450048 54.57421875 232.5546875 C56.19329799 228.81835078 56.40624987 225.50925871 55.4375 221.5625 C53.73567721 218.42580702 51.44354388 216.30026551 48.5625 214.1875 C35.95581408 210.4796512 20.15643697 219.66766752 9.27441406 225.52636719 C6.47498809 227.10541608 3.77929941 228.84626099 1.0625 230.5625 C-4.20931596 233.69264073 -8.49858927 234.92687992 -14.5625 233.5625 C-19.87815158 230.90467421 -23.66486008 227.25541975 -25.5625 221.5625 C-28.45098869 196.93931771 -14.85104374 169.3145579 -7.16162109 146.34997559 C-5.16397788 140.38215598 -3.17422001 134.41170995 -1.18804932 128.44006348 C-0.6308086 126.76752578 -0.0702726 125.0960868 0.49072266 123.42480469 C11.66148077 89.88235542 14.25526179 54.30975355 -0.5625 21.5625 C-3.64536123 16.36967261 -5.69581115 14.35233728 -11.5625 12.5625 C-18.68951834 11.68725213 -22.39356764 13.99402747 -26.9375 19.375 Z M82.4375 129.5625 C71.09607943 148.51849135 62.99203496 167.89677155 58.4375 189.5625 C58.20401855 190.63177734 58.20401855 190.63177734 57.96582031 191.72265625 C57.20312183 195.45140437 56.68570845 198.80937009 57.4375 202.5625 C59.20905683 204.79752036 61.03575892 206.24931357 63.359375 207.89453125 C67.77843659 211.44140964 69.35045209 217.05883214 70.25 222.5 C70.6702278 227.22756271 70.03496941 231.87479027 69.4375 236.5625 C70.72785156 236.82804687 72.01820313 237.09359375 73.34765625 237.3671875 C75.0651325 237.72382191 76.78257884 238.08060039 78.5 238.4375 C79.34755859 238.61152344 80.19511719 238.78554687 81.06835938 238.96484375 C85.92831743 239.97811686 90.68367286 241.13054664 95.4375 242.5625 C96.25884989 240.06511142 97.06965748 237.56505195 97.875 235.0625 C98.10509766 234.36640625 98.33519531 233.6703125 98.57226562 232.953125 C109.18927382 199.71727327 92.86719705 161.14662735 83.4375 129.5625 C83.1075 129.5625 82.7775 129.5625 82.4375 129.5625 Z M117.4375 217.5625 C116.10411749 220.22926503 116.02817887 222.65768701 115.6875 225.625 C114.52654992 234.22496099 112.05577636 242.30793408 109.4375 250.5625 C110.283125 251.1915625 111.12875 251.820625 112 252.46875 C118.62319767 257.44714294 124.74512003 262.51352082 130.4375 268.5625 C131.76731067 269.89934671 133.09978314 271.23356465 134.4375 272.5625 C132.82829652 252.94686448 126.93577896 235.22770422 118.4375 217.5625 C118.1075 217.5625 117.7775 217.5625 117.4375 217.5625 Z " fill="#010101" transform="translate(74.5625,2.4375)"/>
<path d="M0 0 C6.67158361 3.98269916 12.81508389 10.21813802 15.09765625 17.796875 C16.64576609 26.51438675 15.36140703 34.35027604 13.07519531 42.77636719 C3.56541747 78.59483523 15.39379689 114.19062472 26.8828125 148.05859375 C46.95101196 207.28609384 46.95101196 207.28609384 46.875 237.625 C46.87518127 238.74243591 46.87518127 238.74243591 46.87536621 239.88244629 C46.8474686 251.99325237 45.82564606 263.36414938 42.5 275.0625 C42.30792969 275.74199707 42.11585938 276.42149414 41.91796875 277.12158203 C41.06514081 280.10285384 40.18746937 283.06860446 39.234375 286.01953125 C37.36011098 293.78576353 39.42374227 300.58769981 41.375 308.125 C45.14634108 322.73217993 46.85520885 336.68934723 46.81567383 351.73754883 C46.81252554 354.22978023 46.83603151 356.7208057 46.86132812 359.21289062 C46.92181068 374.33092449 45.12697678 389.17690319 40.75 403.6875 C40.49395996 404.5552002 40.23791992 405.42290039 39.97412109 406.31689453 C27.88800428 446.11584338 2.85734549 478.67888861 -33.60546875 499.140625 C-47.71893357 506.41400335 -66.19761102 513.70294669 -82.140625 509.33984375 C-86.34304306 507.35893295 -89.43304075 504.55542582 -92.5 501.0625 C-93.221875 500.258125 -93.94375 499.45375 -94.6875 498.625 C-98.46345993 493.28657389 -98.79719361 488.11699567 -98.6875 481.8125 C-98.6865332 480.73355469 -98.6865332 480.73355469 -98.68554688 479.6328125 C-98.64098214 474.34446429 -98.64098214 474.34446429 -97.5 472.0625 C-99.01787109 472.10890625 -99.01787109 472.10890625 -100.56640625 472.15625 C-122.11055743 471.64278463 -142.19040519 457.33057847 -156.81640625 442.75390625 C-170.13999581 428.64248705 -179.33656426 410.66775425 -184.5 392.0625 C-184.69754883 391.3813916 -184.89509766 390.7002832 -185.09863281 389.99853516 C-192.5270377 363.41554452 -191.60803083 327.7680681 -179.34765625 302.70703125 C-178.04874924 298.6546808 -178.38473762 294.7219185 -178.5 290.5 C-178.9311004 252.61581801 -167.85749696 216.13141386 -144.5 186.0625 C-143.84 185.4025 -143.18 184.7425 -142.5 184.0625 C-141.8289476 182.11191165 -141.8289476 182.11191165 -141.34375 179.8125 C-141.13097412 178.91152588 -140.91819824 178.01055176 -140.69897461 177.08227539 C-140.46831299 176.08574951 -140.23765137 175.08922363 -140 174.0625 C-137.68334529 164.36918777 -134.98914695 154.84356627 -132.09835815 145.31109619 C-120.25842689 106.14500816 -114.6595512 69.77439134 -134.19726562 32.2800293 C-136.7043106 27.35175159 -138.2307807 23.74066605 -137.5 18.0625 C-135.9375 15.625 -135.9375 15.625 -133.5 14.0625 C-130.0625 13.5 -130.0625 13.5 -126.5 14.0625 C-122.3721741 17.53924926 -119.88973956 21.45255255 -117.5625 26.25 C-117.22259033 26.94343506 -116.88268066 27.63687012 -116.5324707 28.35131836 C-107.0011107 48.39603016 -101.00777492 72.15614776 -104.078125 94.3828125 C-105.43834392 105.51001693 -104.24558916 111.43062874 -97.39453125 120.2734375 C-96.91322754 120.88670898 -96.43192383 121.49998047 -95.93603516 122.13183594 C-80.93913688 142.29427585 -68.54244547 173.68730504 -69.5 199.0625 C-68.19160156 199.17464844 -66.88320313 199.28679687 -65.53515625 199.40234375 C-60.77163645 199.93741386 -56.46225756 201.07524523 -51.9375 202.625 C-51.16954102 202.88458496 -50.40158203 203.14416992 -49.61035156 203.41162109 C-40.39481964 206.6429186 -31.29972358 210.76699601 -23.234375 216.3046875 C-20.6211854 218.3328788 -20.6211854 218.3328788 -17.5 218.0625 C-20.47494458 196.09129475 -28.02564015 175.23517248 -35.27947998 154.38442993 C-53.3205802 102.42818796 -53.3205802 102.42818796 -50.5 88.0625 C-49.375 86.125 -49.375 86.125 -47.5 85.0625 C-43.3645621 84.44984253 -41.3316902 84.46343292 -37.90234375 86.93359375 C-34.55919128 91.28784599 -34.23281112 95.28280589 -33.4375 100.625 C-31.51326371 111.63736335 -28.48923567 121.94587248 -24.875 132.5 C-24.61610992 133.25875427 -24.35721985 134.01750854 -24.09048462 134.79925537 C-22.76486091 138.67924198 -21.43039858 142.55611491 -20.09179688 146.43164062 C-14.12230563 163.75062482 -8.21876009 181.14590465 -3.8125 198.9375 C-3.56838379 199.89873779 -3.32426758 200.85997559 -3.07275391 201.8503418 C-1.27482075 209.53938953 -0.15580082 217.79269083 -2.5625 225.4375 C-5.36679037 229.23686114 -8.72757603 232.98747846 -13.22265625 234.73046875 C-20.81647095 235.8376287 -24.97504635 234.86339965 -31.375 230.875 C-32.78562303 230.04155337 -34.1970791 229.20951502 -35.609375 228.37890625 C-36.28162109 227.97687988 -36.95386719 227.57485352 -37.64648438 227.16064453 C-48.46272101 220.75239474 -61.64788537 214.29093223 -74.5 215.0625 C-77.51981101 216.05445973 -77.51981101 216.05445973 -79.5 218.0625 C-80.3971875 218.866875 -80.3971875 218.866875 -81.3125 219.6875 C-83.14481069 223.35212138 -83.47911335 227.08163124 -82.5 231.0625 C-79.09767531 236.21404247 -76.19648316 238.00007425 -70.1875 239.4375 C-43.88956914 246.77101522 -23.54608989 264.78445827 -10.046875 288.24609375 C-5.24105925 296.89322268 -1.38795044 305.58322737 1.5 315.0625 C1.81839844 316.08988281 2.13679687 317.11726563 2.46484375 318.17578125 C4.35676753 324.89777771 5.83017529 332.10788275 4.5 339.0625 C2.18040269 341.97800235 1.214848 342.94335867 -2.5 343.5625 C-6.21783639 342.9428606 -7.12554012 341.93122028 -9.5 339.0625 C-10.39379883 336.56738281 -10.39379883 336.56738281 -10.95703125 333.765625 C-11.17866943 332.73195801 -11.40030762 331.69829102 -11.62866211 330.63330078 C-11.85432861 329.53743652 -12.07999512 328.44157227 -12.3125 327.3125 C-16.56286178 308.28212978 -24.16568015 293.24608523 -36.5 278.0625 C-44.14863668 280.54638079 -44.14863668 280.54638079 -49.56933594 286.00195312 C-50.4535813 288.4161825 -51.18089914 290.83698988 -51.875 293.3125 C-56.1561785 306.88949396 -63.19959089 323.86222726 -75.5 332.0625 C-78.72243543 332.5582593 -80.0588385 332.34865881 -82.8125 330.5625 C-84.71013731 327.75118547 -85.25470241 325.64025926 -85.07421875 322.2421875 C-84.1478603 318.72580643 -81.92111706 316.49073029 -79.5859375 313.76953125 C-77.01143368 310.42846169 -75.07961939 306.91527663 -73.125 303.1875 C-72.77953125 302.53257568 -72.4340625 301.87765137 -72.078125 301.20288086 C-70.68496995 298.51722621 -69.45827094 295.93731283 -68.5 293.0625 C-69.09425781 293.19527344 -69.68851562 293.32804687 -70.30078125 293.46484375 C-87.76419911 297.18566528 -87.76419911 297.18566528 -92.6875 294 C-94.80033716 290.57574667 -95.25537053 289.00721279 -94.5 285.0625 C-91.34278993 280.86871219 -87.79827426 280.15697802 -82.875 279.25 C-76.27194982 277.8653499 -70.04104645 276.00282453 -63.75 273.5625 C-63.00024902 273.27785889 -62.25049805 272.99321777 -61.47802734 272.69995117 C-57.24106524 271.01257596 -53.93750132 269.14813111 -50.5 266.0625 C-56.29394933 262.13487088 -62.21729255 259.19825867 -68.75 256.75 C-69.42289062 256.49589355 -70.09578125 256.24178711 -70.7890625 255.97998047 C-87.65041093 249.85274639 -105.08065365 252.40235543 -121.03125 259.671875 C-128.21653022 263.33166726 -134.47325498 267.72085565 -140.5 273.0625 C-141.11230469 273.59230469 -141.72460938 274.12210937 -142.35546875 274.66796875 C-155.65906202 286.99738585 -163.77313339 304.88665797 -168.5 322.0625 C-168.8403125 323.0628125 -169.180625 324.063125 -169.53125 325.09375 C-178.70682644 353.212452 -171.70890615 386.60932729 -158.7434082 412.30761719 C-151.59953486 425.75372472 -139.4162031 442.0904323 -124.5 447.0625 C-124.14731066 445.3998217 -123.81966139 443.73184283 -123.5 442.0625 C-123.273125 441.03125 -123.04625 440 -122.8125 438.9375 C-122.53431052 435.48795049 -122.73868174 433.45213973 -123.453125 430.15234375 C-124.68646269 423.66992514 -124.90341572 417.33583976 -124.9375 410.75 C-124.97037109 409.60982422 -125.00324219 408.46964844 -125.03710938 407.29492188 C-125.09660008 398.03059711 -125.09660008 398.03059711 -122.1640625 394.30859375 C-119.5 392.0625 -119.5 392.0625 -116.4375 391.4375 C-112.64458133 392.24450397 -111.73619541 392.86525625 -109.5 396.0625 C-108.85452227 399.80390142 -108.8029115 403.52211264 -108.75 407.3125 C-108.72035156 408.34375 -108.69070313 409.375 -108.66015625 410.4375 C-108.58955222 412.97924495 -108.53680991 415.52007783 -108.5 418.0625 C-108.05994629 417.54083252 -107.61989258 417.01916504 -107.16650391 416.48168945 C-103.63975437 412.36525069 -100.12323024 408.64735992 -95.875 405.25 C-94.52535156 404.15751953 -94.52535156 404.15751953 -93.1484375 403.04296875 C-86.44460698 398.02992735 -86.44460698 398.02992735 -81.875 398.1875 C-78.5 399.0625 -78.5 399.0625 -76.5625 400.1875 C-74.80062813 403.29668565 -75.01840631 405.57094577 -75.5 409.0625 C-78.32818076 412.8659155 -82.02201052 415.15087814 -85.875 417.875 C-98.19759807 426.77099326 -105.87343934 440.11841488 -111.5 454.0625 C-91.25498278 459.37266845 -71.6064535 455.47414435 -53.5 445.4375 C-31.26144898 431.44470385 -18.58243657 407.50257477 -12.0703125 382.7265625 C-11.42805189 379.7264136 -11.03187926 376.72799774 -10.625 373.6875 C-10.00715653 369.82472252 -9.51879617 368.09096277 -7.3125 364.75 C-4.5 363.0625 -4.5 363.0625 -0.875 363.0625 C3.57989009 364.38246743 3.57989009 364.38246743 5.5 367.0625 C7.98823883 389.89976052 -6.45276962 418.72796034 -19.9296875 436.01953125 C-32.34012727 450.71213396 -46.88960219 462.8453673 -65.69921875 468.328125 C-66.41360107 468.53663086 -67.1279834 468.74513672 -67.86401367 468.95996094 C-69.24737715 469.35019309 -70.63689007 469.7194848 -72.0324707 470.06347656 C-77.39536262 471.53216919 -79.50819413 473.56912489 -82.5 478.0625 C-83.54704599 481.87181862 -82.85022531 485.27449305 -81.25 488.875 C-78.32393156 492.53258555 -76.83711967 493.89232113 -72.0625 494.5 C-48.09881883 493.44083177 -22.69469018 475.24427387 -6.94140625 458.3125 C-4.68919352 455.62701931 -2.57455319 452.88717411 -0.5 450.0625 C0.23605469 449.07894531 0.97210938 448.09539062 1.73046875 447.08203125 C21.16662695 420.15241446 30.99893403 387.25662961 30.75 354.125 C30.74656586 353.46786011 30.74313171 352.81072021 30.73959351 352.13366699 C30.65440355 338.21324719 29.25521161 325.66569456 25.26489258 312.31152344 C20.19773586 295.34798174 22.5173883 281.60206153 27.81640625 265.23046875 C39.77508961 227.30435866 21.97900463 185.03023984 9.97363281 149.43554688 C-1.67548586 114.88175502 -1.67548586 114.88175502 -4.5 98.0625 C-4.67442627 97.10496826 -4.84885254 96.14743652 -5.02856445 95.16088867 C-6.45706377 86.8227934 -6.84875149 78.70146671 -6.8125 70.25 C-6.80903564 68.93354492 -6.80557129 67.61708984 -6.80200195 66.26074219 C-6.66276861 53.80820428 -4.81097277 42.9751953 -1.078125 31.1015625 C0.20601111 26.57237973 0.01240981 24.0303852 -2.1875 19.875 C-5.04333635 16.40168552 -7.07299631 14.38079557 -11.64453125 13.78125 C-16.55006438 13.5860049 -19.46220868 14.04071137 -23.5 17.0625 C-31.18072415 28.19585736 -34.63909726 42.90451803 -36.04296875 56.171875 C-36.48131083 58.94429502 -36.97024059 60.72843409 -38.5 63.0625 C-42.23255448 65.55086965 -44.08440935 65.60476552 -48.5 65.0625 C-51.04694278 62.56488182 -52.38115657 60.97318786 -52.84765625 57.3984375 C-51.22231944 40.52165257 -46.64959828 15.90453972 -33.5 4.0625 C-23.83606318 -3.04115953 -11.1471345 -4.90473918 0 0 Z M-110.5 131.0625 C-112.61596216 136.53223712 -114.45085583 141.99843412 -116.05859375 147.63671875 C-116.28806702 148.43430603 -116.51754028 149.23189331 -116.75396729 150.0536499 C-131.24210196 196.57191554 -131.24210196 196.57191554 -122.5 243.0625 C-121.95585449 242.91627197 -121.41170898 242.77004395 -120.85107422 242.61938477 C-118.35981959 241.95167767 -115.8674294 241.28830782 -113.375 240.625 C-112.5190625 240.39490234 -111.663125 240.16480469 -110.78125 239.92773438 C-106.37052617 238.75719613 -102.02547458 237.70793654 -97.5 237.0625 C-97.54640625 235.86753906 -97.5928125 234.67257813 -97.640625 233.44140625 C-98.13448828 215.71078259 -98.13448828 215.71078259 -93.5 210.0625 C-91.85972307 208.92941396 -90.21348084 207.80493216 -88.5625 206.6875 C-86.15539191 204.69541054 -84.63055816 203.3451767 -84.30517578 200.1484375 C-84.58612075 194.31523584 -86.05999074 188.6986063 -87.5 183.0625 C-87.85629128 181.52753444 -88.21178837 179.99238427 -88.56640625 178.45703125 C-92.01772469 164.30430934 -98.13256004 151.35272763 -104.875 138.5 C-105.20862549 137.86231689 -105.54225098 137.22463379 -105.88598633 136.56762695 C-107.57234724 133.22319716 -107.57234724 133.22319716 -110.5 131.0625 Z M-145.5 218.0625 C-154.2742893 233.58624261 -162.08240229 253.97377002 -161.5 272.0625 C-160.84 271.4025 -160.18 270.7425 -159.5 270.0625 C-158.80777344 269.37607422 -158.80777344 269.37607422 -158.1015625 268.67578125 C-156.97661049 267.54259788 -155.86856856 266.39249695 -154.7734375 265.23046875 C-149.5173696 259.74728681 -143.74005584 255.37547977 -137.5 251.0625 C-138.24866794 246.9872766 -139.31798886 243.0504944 -140.4375 239.0625 C-142.34266072 232.13002323 -143.5854958 225.19803935 -144.5 218.0625 C-144.83 218.0625 -145.16 218.0625 -145.5 218.0625 Z " fill="#020101" transform="translate(465.5,1.9375)"/>
<path d="M0 0 C4.79617474 2.35284044 7.7158696 5.15764356 10 10 C10.01295291 16.13891837 8.390887 22.30345411 7 28.25 C6.64542233 29.79678084 6.29124437 31.34365337 5.9375 32.890625 C5.70353516 33.89657715 5.70353516 33.89657715 5.46484375 34.92285156 C5.23474609 35.95104004 5.23474609 35.95104004 5 37 C4.82057861 37.78173584 4.64115723 38.56347168 4.45629883 39.36889648 C-0.83384458 69.87284271 8.85941585 100.70928242 18.25643921 129.28921509 C19.26625813 132.36197151 20.27202993 135.43602561 21.27661133 138.51049805 C23.65031327 145.77435541 26.02418226 153.03816061 28.41357422 160.296875 C39.00521411 192.50436873 47.36246086 226.74988182 35.9987793 259.98291016 C30.67328815 275.63542095 33.01439221 289.70475978 37.5625 305.4375 C47.8644045 343.28344389 39.87643431 387.13320923 21 421 C16.42183792 428.87785372 10.85046709 436.0346109 5 443 C4.06220703 444.14082031 4.06220703 444.14082031 3.10546875 445.3046875 C-2.0084939 451.32479018 -7.69258431 456.25944549 -14 461 C-14.53447754 461.4036377 -15.06895508 461.80727539 -15.61962891 462.22314453 C-28.83728924 472.04713315 -48.9090026 484.17028538 -66 482 C-69.86884356 479.63238724 -72.55311158 477.34066526 -74 473 C-74.76982265 466.40152013 -74.76982265 466.40152013 -72.99853516 463.17675781 C-68.70451009 457.8786423 -64.39581059 456.2813239 -57.9375 454.5 C-44.34758997 450.34212071 -33.63088578 444.62505234 -23 435 C-22.08347656 434.17757813 -21.16695313 433.35515625 -20.22265625 432.5078125 C-0.96763681 414.30601292 10.92647342 387.17154455 14 361 C14.165 359.700625 14.33 358.40125 14.5 357.0625 C14.335 356.051875 14.17 355.04125 14 354 C13.00742187 353.48824219 12.01484375 352.97648437 10.9921875 352.44921875 C8 350 8 350 7.50683594 347.80688477 C7.40921763 345.10003185 7.47727574 342.4544903 7.625 339.75 C7.66560547 338.34621094 7.66560547 338.34621094 7.70703125 336.9140625 C7.77765477 334.6070276 7.87619421 332.30469231 8 330 C8.9590625 329.566875 8.9590625 329.566875 9.9375 329.125 C12.15206079 328.17176549 12.15206079 328.17176549 13 326 C16.04292936 305.46985634 3.62848616 280.79937767 -8.26635742 264.72631836 C-22.29632476 246.43167556 -40.01102914 231.73346092 -63 226.5625 C-67.55450365 225.39864604 -70.25014888 223.86131029 -73.02734375 220.0234375 C-74.83560601 216.26167104 -75.04216591 213.02687236 -74 209 C-72.15815132 205.30250601 -69.92161268 202.78330798 -66.0546875 201.20703125 C-59.02887521 199.89779317 -52.51551377 202.61097829 -46 205 C-44.19789063 205.63808594 -44.19789063 205.63808594 -42.359375 206.2890625 C-32.87226367 209.84176737 -24.5564763 214.61678643 -16 220 C-11.59084252 222.20457874 -6.82123453 221.25054613 -2.3125 219.875 C2.38077902 217.21842697 5.25588922 214.23233234 7 209 C7.55455986 201.05156402 6.69527922 193.75350322 4.75 186.0625 C4.49259033 185.01819824 4.23518066 183.97389648 3.9699707 182.89794922 C-0.85625485 164.07661509 -7.38128131 145.69189458 -13.6015625 127.296875 C-24.78936444 94.18344815 -24.78936444 94.18344815 -26.34765625 79.34765625 C-27.19317004 76.30481919 -28.59472165 74.99384916 -31 73 C-33.11280345 72.36707617 -33.11280345 72.36707617 -35 72 C-36.1482685 69.703463 -36.11561175 68.41686833 -36.09765625 65.8671875 C-36.09443359 65.06152344 -36.09121094 64.25585938 -36.08789062 63.42578125 C-36.07532227 62.16314453 -36.07532227 62.16314453 -36.0625 60.875 C-36.05798828 60.02550781 -36.05347656 59.17601562 -36.04882812 58.30078125 C-36.03702874 56.20049091 -36.01909306 54.1002367 -36 52 C-33.69 51.34 -31.38 50.68 -29 50 C-28.91548584 49.4330542 -28.83097168 48.8661084 -28.74389648 48.28198242 C-27.12390298 37.73770251 -25.22469279 27.52540669 -21.5 17.5 C-21.07352173 16.34600708 -21.07352173 16.34600708 -20.63842773 15.16870117 C-18.56561675 9.84882086 -16.22572569 4.90776488 -11.8125 1.125 C-7.79598559 -0.48160576 -4.26599881 -0.67080193 0 0 Z " fill="#FC9F85" transform="translate(456,15)"/>
<path d="M0 0 C7.27375369 4.31037255 9.59803255 12.60472368 12.0625 20.3125 C12.35705078 21.18583984 12.65160156 22.05917969 12.95507812 22.95898438 C27.15809118 66.33402874 8.45697581 111.58075633 -5.4765625 152.53442383 C-7.89997072 159.67331073 -10.22632899 166.82812689 -12.36328125 174.05859375 C-12.56492889 174.73858932 -12.76657654 175.4185849 -12.97433472 176.1191864 C-18.24051876 193.62677193 -18.24051876 193.62677193 -16.5 211.375 C-13.59975782 215.43533905 -9.80409296 219.36286773 -4.734375 220.37890625 C3.44800124 221.01561433 8.90838786 217.22088307 15.56933594 213.09472656 C23.24543628 208.4409091 31.2802948 204.79926375 39.8125 202.0625 C40.4626709 201.85085205 41.1128418 201.6392041 41.78271484 201.42114258 C46.08052146 200.1245143 49.89964162 199.66989497 54.375 200 C58.15671013 202.03630545 61.47028802 204.08475871 63.375 208 C64.13625613 211.9523803 64.46605839 215.19593533 62.31811523 218.74755859 C58.38756527 223.91987145 54.47478261 225.46390013 48.3125 227 C25.77114519 233.40180526 8.48620579 247.99908966 -5.04296875 266.859375 C-6.90120479 270.54831765 -7.08321103 272.92044372 -6.625 277 C-5.965 277.66 -5.305 278.32 -4.625 279 C-5.0399987 283.28063473 -6.68245921 287.20997002 -8.25 291.1875 C-8.71664062 292.41855469 -9.18328125 293.64960938 -9.6640625 294.91796875 C-11.625 298 -11.625 298 -15.2109375 299.30078125 C-16.33757813 299.53152344 -17.46421875 299.76226562 -18.625 300 C-21.40752056 302.78252056 -21.80622629 305.97140666 -22.6875 309.6875 C-22.86087891 310.38294922 -23.03425781 311.07839844 -23.21289062 311.79492188 C-31.30787879 345.01228708 -23.58567593 382.04153766 -6.72265625 411.30078125 C-1.84811688 418.98640468 4.01408777 425.54039943 10.375 432 C11.15488281 432.804375 11.93476562 433.60875 12.73828125 434.4375 C23.38382994 444.7431068 37.7327186 452.04767375 52.125 455.3125 C56.80211642 456.54646263 59.54309659 458.1103965 62.4140625 462.03515625 C64.16775534 465.62095909 63.94944316 468.04272493 63.375 472 C61.87782018 475.20824247 60.09981464 477.72932114 57.375 480 C46.26448576 483.70350475 33.0910599 477.13871444 23.125 472.1875 C-9.00234697 455.65313163 -31.83029047 427.7814248 -43.23046875 393.61157227 C-45.90286958 385.19334008 -48.117041 376.70821357 -49.625 368 C-49.82996094 366.8553125 -50.03492187 365.710625 -50.24609375 364.53125 C-53.47476658 343.33334288 -52.60127195 321.60394155 -47.33544922 300.87426758 C-42.94049934 283.45243965 -42.33792865 270.96994107 -48.1171875 253.88671875 C-60.1120783 216.92401872 -45.24362517 177.45632161 -33.4785614 142.50013733 C-12.99006407 81.78511173 -12.99006407 81.78511173 -19.8203125 19.078125 C-21.10657055 14.15787577 -21.3270627 10.377123 -19 5.8125 C-13.29186803 -0.94712996 -8.47659191 -2.33837018 0 0 Z " fill="#FC9F85" transform="translate(66.625,16)"/>
<path d="M0 0 C12.15634921 4.87400794 12.15634921 4.87400794 14.875 10.625 C15.7421875 12.8515625 15.7421875 12.8515625 16 15 C15.69811768 15.60255615 15.39623535 16.2051123 15.08520508 16.82592773 C5.5478364 35.93284969 11.89482659 66.17936422 18.1875 85.625 C22.78015947 99.06663186 28.82702878 110.65863585 37.18359375 122.09765625 C38.94658029 124.91464334 39.54923862 126.63219724 39.9375 129.875 C40.36005681 132.88228739 40.75139587 133.77373697 43.04296875 135.859375 C45.65461906 137.64525388 48.31661275 139.32436496 51 141 C62.40574348 149.23398056 69.49773417 162.3147119 75 175 C75 175.66 75 176.32 75 177 C59.59841678 182.77559371 41.98259042 181.14553073 27 175 C18.85203022 171.12359867 11.78137788 165.91440663 5 160 C4.39800781 159.48179687 3.79601562 158.96359375 3.17578125 158.4296875 C-16.70408578 139.98636098 -26.97642354 111.16832961 -28.10058594 84.625 C-28.97616642 56.95233284 -28.97616642 56.95233284 -25 49 C-24.85359499 47.35857459 -24.77903411 45.7101859 -24.75 44.0625 C-24.72421875 43.18722656 -24.6984375 42.31195313 -24.671875 41.41015625 C-24.74872079 38.92043662 -24.74872079 38.92043662 -26.578125 37.55859375 C-28 36 -28 36 -27.87890625 33.2421875 C-26.90282685 29.64153903 -25.55029185 26.48784258 -23.9375 23.125 C-23.38964844 21.97257812 -22.84179688 20.82015625 -22.27734375 19.6328125 C-21.85582031 18.76398438 -21.43429688 17.89515625 -21 17 C-19.9275 17.0825 -18.855 17.165 -17.75 17.25 C-14.05428681 17.34680973 -14.05428681 17.34680973 -11.85546875 15.38671875 C-11.24316406 14.59910156 -10.63085938 13.81148438 -10 13 C-9.23300781 12.01644531 -8.46601562 11.03289062 -7.67578125 10.01953125 C-6.89589844 8.96121094 -6.11601563 7.90289062 -5.3125 6.8125 C-1.08952703 1.08952703 -1.08952703 1.08952703 0 0 Z " fill="#F7CF70" transform="translate(83,279)"/>
<path d="M0 0 C0.66 0.33 1.32 0.66 2 1 C1.01 1.33 0.02 1.66 -1 2 C-1.75921555 4.07058787 -2.49489991 6.15216427 -3.125 8.265625 C-4.03518845 11.1099639 -5.18995775 13.7595898 -6.375 16.5 C-18.75142413 48.9269836 -16.98398028 85.89536168 -2.91259766 117.4375 C-1.22845587 120.98773302 0.54937077 124.47848586 2.3984375 127.9453125 C4 131 4 131 5 134 C4.071875 134.2475 3.14375 134.495 2.1875 134.75 C-1.31647749 136.12410882 -2.15127459 136.81852807 -4 140 C-4.44338287 142.71692199 -4.44338287 142.71692199 -4.36328125 145.69140625 C-4.36263672 146.80193359 -4.36199219 147.91246094 -4.36132812 149.05664062 C-4.34521484 150.21357422 -4.32910156 151.37050781 -4.3125 152.5625 C-4.31572266 153.69236328 -4.31894531 154.82222656 -4.32226562 155.98632812 C-4.28162381 162.40404081 -3.76551091 168.41250316 -2.40209961 174.68774414 C-1.50623885 179.83935148 -2.88085219 184.33787481 -5 189 C-16.56789627 187.05853489 -27.09015583 173.89920731 -33.5625 164.9375 C-51.46132908 138.64883766 -57.35842047 107.39478672 -53.3125 76 C-49.27207993 54.72422156 -40.12455255 35.40093674 -26 19 C-25.40832031 18.31164062 -24.81664062 17.62328125 -24.20703125 16.9140625 C-17.8591144 10.06535051 -8.71723735 3.47889748 0 0 Z " fill="#F6CF70" transform="translate(346,260)"/>
<path d="M0 0 C0.46148437 0.35191406 0.92296875 0.70382812 1.3984375 1.06640625 C13.21535214 10.01082978 25.23191127 18.33181608 39 24 C32.36489218 31.7950917 17.95322793 35.67836104 8 37 C-1.84415433 37.59186275 -11.78667208 37.9790208 -21 34 C-17.5249394 20.79476971 -9.53143855 9.57650446 0 0 Z " fill="#F5CE6F" transform="translate(375,422)"/>
<path d="M0 0 C3.38761974 0.97609382 4.40417312 1.49870645 6.9375 3.625 C10.79421178 6.58903467 14.19944562 6.82375585 18.98046875 6.640625 C22.80168761 5.8245494 24.94569706 3.86349989 27.83984375 1.34375 C29.6875 0.0625 29.6875 0.0625 33.5 0 C38.29023973 1.59674658 38.29023973 1.59674658 39.6875 4.0625 C40.19023252 7.94072229 40.14086441 10.23461716 38.25 13.6875 C30.34690829 21.01231671 22.06248882 22.52607457 11.65234375 22.34375 C6.74534626 21.99566742 3.5829954 20.99591179 -0.3125 18.0625 C-1.18841797 17.41474609 -1.18841797 17.41474609 -2.08203125 16.75390625 C-4.26907019 15.0278357 -6.05357326 13.58035349 -7.3125 11.0625 C-7.67002493 7.2012308 -7.83296997 4.89525196 -5.75 1.5625 C-3.3125 0.0625 -3.3125 0.0625 0 0 Z " fill="#050402" transform="translate(358.3125,350.9375)"/>
<path d="M0 0 C3.38761974 0.97609382 4.40417312 1.49870645 6.9375 3.625 C10.79421178 6.58903467 14.19944562 6.82375585 18.98046875 6.640625 C22.80168761 5.8245494 24.94569706 3.86349989 27.83984375 1.34375 C29.6875 0.0625 29.6875 0.0625 33.5 0 C38.29023973 1.59674658 38.29023973 1.59674658 39.6875 4.0625 C40.19023252 7.94072229 40.14086441 10.23461716 38.25 13.6875 C30.34690829 21.01231671 22.06248882 22.52607457 11.65234375 22.34375 C6.74534626 21.99566742 3.5829954 20.99591179 -0.3125 18.0625 C-1.18841797 17.41474609 -1.18841797 17.41474609 -2.08203125 16.75390625 C-4.26907019 15.0278357 -6.05357326 13.58035349 -7.3125 11.0625 C-7.67002493 7.2012308 -7.83296997 4.89525196 -5.75 1.5625 C-3.3125 0.0625 -3.3125 0.0625 0 0 Z " fill="#050402" transform="translate(121.3125,350.9375)"/>
<path d="M0 0 C3.30081857 0.96300273 4.29623516 2.68917852 6.03515625 5.59375 C6.42999392 8.4272909 6.59749173 10.77826429 6.53515625 13.59375 C6.550625 14.29242188 6.56609375 14.99109375 6.58203125 15.7109375 C6.55496632 19.29704072 6.1084895 21.4712593 4.2578125 24.5625 C2.03515625 26.59375 2.03515625 26.59375 0 27.1875 C-5.49574896 26.93336132 -5.49574896 26.93336132 -7.68603516 25.34765625 C-9.31806961 23.10929514 -9.35167592 21.78558087 -9.36328125 19.03125 C-9.36714844 18.15210938 -9.37101562 17.27296875 -9.375 16.3671875 C-9.36339844 15.45195312 -9.35179687 14.53671875 -9.33984375 13.59375 C-9.35724609 12.22089844 -9.35724609 12.22089844 -9.375 10.8203125 C-9.37113281 9.94117188 -9.36726563 9.06203125 -9.36328125 8.15625 C-9.35820557 6.95162109 -9.35820557 6.95162109 -9.35302734 5.72265625 C-8.39037456 0.44320201 -4.8412874 0.22387456 0 0 Z " fill="#080703" transform="translate(313.96484375,339.40625)"/>
<path d="M0 0 C3.30081857 0.96300273 4.29623516 2.68917852 6.03515625 5.59375 C6.42999392 8.4272909 6.59749173 10.77826429 6.53515625 13.59375 C6.550625 14.29242188 6.56609375 14.99109375 6.58203125 15.7109375 C6.55496632 19.29704072 6.1084895 21.4712593 4.2578125 24.5625 C2.03515625 26.59375 2.03515625 26.59375 0 27.1875 C-5.49574896 26.93336132 -5.49574896 26.93336132 -7.68603516 25.34765625 C-9.31806961 23.10929514 -9.35167592 21.78558087 -9.36328125 19.03125 C-9.36714844 18.15210938 -9.37101562 17.27296875 -9.375 16.3671875 C-9.36339844 15.45195312 -9.35179688 14.53671875 -9.33984375 13.59375 C-9.35724609 12.22089844 -9.35724609 12.22089844 -9.375 10.8203125 C-9.37113281 9.94117188 -9.36726563 9.06203125 -9.36328125 8.15625 C-9.35820557 6.95162109 -9.35820557 6.95162109 -9.35302734 5.72265625 C-8.39037456 0.44320201 -4.8412874 0.22387456 0 0 Z " fill="#080703" transform="translate(76.96484375,339.40625)"/>
<path d="M0 0 C5.5020449 0.25442982 5.5020449 0.25442982 7.68603516 1.85571289 C9.27963766 4.02158846 9.35130618 5.23104748 9.36328125 7.90234375 C9.36714844 8.73185547 9.37101562 9.56136719 9.375 10.41601562 C9.36339844 11.27904297 9.35179687 12.14207031 9.33984375 13.03125 C9.35144531 13.89041016 9.36304688 14.74957031 9.375 15.63476562 C9.35814537 19.2557025 9.31806724 21.88514263 7.6875 25.15625 C5.31210831 27.13843626 3.01666582 27.12384446 0 27.22265625 C-3.28075835 26.20883265 -4.29378763 24.49858249 -6.03515625 21.59375 C-6.42999392 18.7602091 -6.59749173 16.40923571 -6.53515625 13.59375 C-6.55835938 12.54574219 -6.55835938 12.54574219 -6.58203125 11.4765625 C-6.55496632 7.89045928 -6.1084895 5.7162407 -4.2578125 2.625 C-2.03515625 0.59375 -2.03515625 0.59375 0 0 Z " fill="#080704" transform="translate(435.03515625,339.40625)"/>
<path d="M0 0 C5.5020449 0.25442982 5.5020449 0.25442982 7.68603516 1.85571289 C9.27963766 4.02158846 9.35130618 5.23104748 9.36328125 7.90234375 C9.36714844 8.73185547 9.37101563 9.56136719 9.375 10.41601562 C9.36339844 11.27904297 9.35179687 12.14207031 9.33984375 13.03125 C9.35144531 13.89041016 9.36304688 14.74957031 9.375 15.63476562 C9.35814537 19.2557025 9.31806724 21.88514263 7.6875 25.15625 C5.31210831 27.13843626 3.01666582 27.12384446 0 27.22265625 C-3.28075835 26.20883265 -4.29378763 24.49858249 -6.03515625 21.59375 C-6.42999392 18.7602091 -6.59749173 16.40923571 -6.53515625 13.59375 C-6.55835938 12.54574219 -6.55835938 12.54574219 -6.58203125 11.4765625 C-6.55496632 7.89045928 -6.1084895 5.7162407 -4.2578125 2.625 C-2.03515625 0.59375 -2.03515625 0.59375 0 0 Z " fill="#080704" transform="translate(198.03515625,339.40625)"/>
<path d="M0 0 C0.66 1.32 1.32 2.64 2 4 C3.16897337 5.4493154 4.37939308 6.86599231 5.625 8.25 C6.25664062 8.95640625 6.88828125 9.6628125 7.5390625 10.390625 C8.02117187 10.92171875 8.50328125 11.4528125 9 12 C8.06409496 13.1055189 7.12620142 14.20935453 6.1875 15.3125 C5.40439453 16.23482422 5.40439453 16.23482422 4.60546875 17.17578125 C3.13668249 18.84469411 1.57203741 20.42796259 0 22 C0 14.74 0 7.48 0 0 Z " fill="#EBC66B" transform="translate(356,399)"/>
<path d="M0 0 C0.66 0.33 1.32 0.66 2 1 C1.01 1.33 0.02 1.66 -1 2 C-1.98820965 4.03010445 -1.98820965 4.03010445 -2.625 6.4375 C-3.96812749 10.93625498 -3.96812749 10.93625498 -5 13 C-8.42559084 11.79641403 -10.53258609 10.64107354 -13 8 C-11.58531689 7.03874097 -10.1681636 6.08111675 -8.75 5.125 C-7.96109375 4.59132813 -7.1721875 4.05765625 -6.359375 3.5078125 C-4.26684277 2.17053197 -2.30109848 0.93420665 0 0 Z " fill="#F0CA6E" transform="translate(109,260)"/>
<path d="M0 0 C5.75 1.75 5.75 1.75 8 4 C5 6 5 6 2 6 C1.34 4.02 0.68 2.04 0 0 Z " fill="#ECC76C" transform="translate(169,443)"/>
</svg>
