<?xml version="1.0" encoding="UTF-8"?>
<svg version="1.1" xmlns="http://www.w3.org/2000/svg" width="512" height="512">
<path d="M0 0 C4.92279973 2.62476711 8.40622644 6.67917304 10.9375 11.58984375 C11.95784955 14.94929651 11.51146188 17.51852858 11.203125 21.00390625 C11.21391745 24.79588341 11.21391745 24.79588341 12.765625 28.31640625 C17.48315751 32.4763751 23.64879637 34.71356965 29.35400391 37.19921875 C32.70053382 38.74950432 35.62843966 40.65409952 38.703125 42.69140625 C50.38773555 49.94291079 63.16063605 52.7808839 76.77978516 49.88867188 C81.21821838 48.6688113 85.47655495 46.97262637 89.765625 45.31640625 C92.48122464 44.37621323 95.21382155 43.49721748 97.953125 42.62890625 C99.16355469 42.23316406 100.37398437 41.83742187 101.62109375 41.4296875 C112.04043467 38.43936006 122.4780092 37.911213 133.265625 37.94140625 C134.3162764 37.94172348 134.3162764 37.94172348 135.38815308 37.94204712 C152.87618468 37.99455028 168.39194413 41.36052963 184.765625 47.31640625 C198.64396675 52.17582562 210.86126648 52.35938555 224.765625 47.31640625 C228.9841428 45.27845272 232.93998898 42.9389434 236.90917969 40.45458984 C240.34449636 38.34840279 243.87311 36.40601832 247.390625 34.44140625 C248.06609375 34.06024658 248.7415625 33.67908691 249.4375 33.28637695 C254.61839879 30.36753304 254.61839879 30.36753304 257.1953125 29.47265625 C259.11947133 28.33969034 259.11947133 28.33969034 259.234375 25.33984375 C259.2446875 24.13585937 259.255 22.931875 259.265625 21.69140625 C259.60028412 14.57626234 260.47091156 9.73120036 265.48046875 4.5390625 C271.23692739 -0.6332312 275.87572229 -1.03749278 283.53125 -0.9609375 C289.3304136 -0.46366622 292.71928703 1.95024546 296.578125 6.25390625 C299.26630349 10.01735614 300.765625 12.67286251 300.765625 17.31640625 C301.91224609 17.26419922 301.91224609 17.26419922 303.08203125 17.2109375 C325.9295623 16.63356307 346.80545459 24.55811328 363.46484375 40.1015625 C364.22410156 40.83246094 364.98335938 41.56335937 365.765625 42.31640625 C366.82716797 43.33541016 366.82716797 43.33541016 367.91015625 44.375 C373.68166104 50.02895887 373.68166104 50.02895887 373.953125 54.19140625 C373.765625 57.31640625 373.765625 57.31640625 372.55859375 59.11328125 C371.43930927 61.45526986 371.43930927 61.45526986 372.9609375 64.27734375 C373.59773438 65.40398437 374.23453125 66.530625 374.890625 67.69140625 C377.67534101 72.76231475 379.44221457 77.36477243 380.765625 83.00390625 C381.72976027 87.41431548 381.72976027 87.41431548 384.4921875 90.71875 C386.60598601 91.56317017 386.60598601 91.56317017 389.765625 92.31640625 C395.82651116 100.8394497 392.58221545 120.8460301 391.078125 130.70703125 C387.65280196 148.6601877 379.53634377 165.37415027 367.765625 179.31640625 C366.76595703 180.51716797 366.76595703 180.51716797 365.74609375 181.7421875 C356.87343432 192.02168302 343.17925696 205.49106457 329.3828125 208.90625 C328.84914063 209.04160156 328.31546875 209.17695313 327.765625 209.31640625 C327.06918515 211.30623438 326.410749 213.30935382 325.765625 215.31640625 C318.08044128 229.02040699 306.31438473 237.32967673 291.390625 241.75390625 C286.51697877 242.98042254 281.79044002 244.09793603 276.765625 244.31640625 C275.7653125 244.36796875 274.765 244.41953125 273.734375 244.47265625 C249.62212114 245.12433879 228.92659256 235.88585294 211.26123047 219.74365234 C208.17584679 216.79929175 205.34992829 213.64080403 202.5703125 210.41015625 C201.03136832 208.62471452 199.4414749 206.97043058 197.765625 205.31640625 C197.11692161 208.33664855 196.47158344 211.35754604 195.828125 214.37890625 C195.64572266 215.22646484 195.46332031 216.07402344 195.27539062 216.94726562 C195.09814453 217.78193359 194.92089844 218.61660156 194.73828125 219.4765625 C194.57593994 220.23590088 194.41359863 220.99523926 194.24633789 221.77758789 C192.66274118 230.14113394 192.56853184 238.34374826 192.578125 246.81640625 C192.57773224 247.54983246 192.57733948 248.28325867 192.57693481 249.03890991 C192.58459674 261.02101501 193.30452129 272.80094669 194.52197266 284.72265625 C195.22758149 292.23406733 195.52351312 299.77770696 195.765625 307.31640625 C195.78898926 308.03505859 195.81235352 308.75371094 195.83642578 309.49414062 C197.25134013 361.09689935 184.60072969 413.69322423 174.953125 464.06640625 C174.71656189 465.30867981 174.47999878 466.55095337 174.23626709 467.83087158 C173.55792617 471.38450461 172.87204601 474.93659486 172.18359375 478.48828125 C171.98385452 479.53742706 171.7841153 480.58657288 171.57832336 481.66751099 C168.01441365 499.87804597 168.01441365 499.87804597 163.453125 504.75390625 C162.90011719 505.37136719 162.34710938 505.98882812 161.77734375 506.625 C156.74225799 510.85838279 151.97061295 511.77565767 145.55078125 511.75 C144.77681503 511.75524185 144.00284882 511.7604837 143.20542908 511.7658844 C141.57584833 511.77227982 139.94622127 511.77099985 138.31665039 511.76245117 C135.83851009 511.75394191 133.36267865 511.7827323 130.88476562 511.81445312 C129.29427152 511.81606556 127.70377337 511.81548679 126.11328125 511.8125 C125.38077652 511.82373398 124.64827179 511.83496796 123.89356995 511.84654236 C117.68453825 511.76343408 113.68768318 509.74340499 108.875 505.74609375 C102.26519231 498.18660104 101.15492502 488.01514174 99.28515625 478.4296875 C99.06744064 477.3284404 98.84972504 476.2271933 98.62541199 475.09257507 C98.17004764 472.78120373 97.71722743 470.46932982 97.2668457 468.15698242 C96.57775184 464.62699467 95.87625895 461.09962067 95.17382812 457.57226562 C94.73102042 455.31655343 94.288938 453.06069871 93.84765625 450.8046875 C93.63832962 449.7566243 93.42900299 448.7085611 93.21333313 447.6287384 C90.65789085 434.37362681 90.65789085 434.37362681 93.078125 429.87890625 C94.765625 428.31640625 94.765625 428.31640625 97.765625 428.31640625 C97.64445313 427.73673096 97.52328125 427.15705566 97.3984375 426.55981445 C96.84905093 423.91721224 96.30727397 421.27310479 95.765625 418.62890625 C95.57484375 417.71689453 95.3840625 416.80488281 95.1875 415.86523438 C95.00703125 414.97900391 94.8265625 414.09277344 94.640625 413.1796875 C94.47304687 412.36798096 94.30546875 411.55627441 94.1328125 410.7199707 C93.7502537 408.2157876 93.70263991 405.84565123 93.765625 403.31640625 C92.651875 403.21328125 91.538125 403.11015625 90.390625 403.00390625 C89.194375 402.77703125 87.998125 402.55015625 86.765625 402.31640625 C84.38049673 398.73871385 83.95552413 395.49875365 83.328125 391.34375 C83.13972046 390.14897789 83.13972046 390.14897789 82.94750977 388.93006897 C82.68184418 387.23509899 82.41981687 385.53955539 82.16113281 383.84350586 C81.77482964 381.31417393 81.37677739 378.78692902 80.9765625 376.25976562 C76.47116993 347.46891978 74.93217067 319.34546632 76.703125 290.25390625 C76.74660065 289.53944336 76.79007629 288.82498047 76.83486938 288.08886719 C77.62227509 275.34091713 77.62227509 275.34091713 78.31640625 269.28515625 C79.02976642 262.50293212 79.00706974 255.6920783 79.015625 248.87890625 C79.01729675 248.17419189 79.01896851 247.46947754 79.02069092 246.7434082 C79.02271907 232.44414275 77.32045525 219.16478843 73.765625 205.31640625 C72.9921875 206.16203125 72.21875 207.00765625 71.421875 207.87890625 C68.71516867 210.83246978 65.99097436 213.76935729 63.26074219 216.70117188 C62.05460573 218.00420891 60.86454028 219.32211129 59.6796875 220.64453125 C45.95258842 235.39067261 25.77370494 243.34923388 5.94921875 244.4765625 C-11.32068197 244.96393393 -27.23593916 240.60511168 -41.234375 230.31640625 C-42.100625 229.73890625 -42.966875 229.16140625 -43.859375 228.56640625 C-48.34899458 224.31308244 -52.14226157 219.00362542 -54.47265625 213.26953125 C-56.86653573 209.25673106 -59.70268364 207.9804778 -63.796875 205.94140625 C-70.58177483 202.343054 -76.45220923 198.40904629 -82.234375 193.31640625 C-83.06324219 192.61902344 -83.89210937 191.92164063 -84.74609375 191.203125 C-103.82668032 174.75232831 -117.58783591 150.58336438 -120.234375 125.31640625 C-121.64670704 95.32829864 -117.53347332 67.76190612 -97.0390625 44.61328125 C-82.91585445 29.41894792 -62.23423863 18.43939361 -41.234375 17.31640625 C-37.23267756 17.24715561 -33.23610443 17.25638031 -29.234375 17.31640625 C-29.151875 16.45015625 -29.069375 15.58390625 -28.984375 14.69140625 C-27.50887396 8.05165158 -23.4909625 4.23088631 -18.234375 0.31640625 C-12.62508325 -1.55335767 -5.68181568 -1.73831773 0 0 Z M-63.56640625 75.8671875 C-73.89184405 89.41094357 -76.99437146 104.82843335 -74.8046875 121.609375 C-71.4098114 138.81427176 -61.86914644 152.47291836 -47.59765625 162.42578125 C-47.14777344 162.7196875 -46.69789062 163.01359375 -46.234375 163.31640625 C-43.29273704 161.92821755 -40.70541774 160.31061845 -38.046875 158.44140625 C-24.46720921 149.32902822 -9.31238037 147.20125307 6.69140625 150.00390625 C21.30479562 153.83692641 31.9794812 161.48210329 39.765625 174.31640625 C44.1659788 171.55233216 47.90956285 168.51013 51.578125 164.81640625 C52.06732422 164.34332031 52.55652344 163.87023437 53.06054688 163.3828125 C55.67680351 160.77017448 57.30985409 159.00119816 57.765625 155.31640625 C57.31063204 152.40906647 57.31063204 152.40906647 56.4375 149.2578125 C55.97923828 147.47020508 55.97923828 147.47020508 55.51171875 145.64648438 C55.18300781 144.40318359 54.85429687 143.15988281 54.515625 141.87890625 C53.88424138 139.44301266 53.25402757 137.00681556 52.625 134.5703125 C52.31159668 133.36882568 51.99819336 132.16733887 51.67529297 130.92944336 C50.52490251 126.36029995 49.51902682 121.7647626 48.54638672 117.15478516 C44.43585798 102.21138082 31.02525274 92.45587707 18.765625 84.31640625 C17.47591797 83.45595703 17.47591797 83.45595703 16.16015625 82.578125 C12.73876904 80.1513482 12.73876904 80.1513482 8.765625 79.31640625 C7.84684269 80.38441753 6.97953713 81.49707788 6.140625 82.62890625 C1.82672615 87.80139662 -2.58121303 88.97406277 -9.109375 89.81640625 C-14.44982512 89.54253701 -19.01069393 87.53859594 -23.234375 84.31640625 C-28.15777437 78.06661161 -29.07215952 71.07325541 -29.234375 63.31640625 C-42.48942503 62.63601395 -54.31217113 65.74488343 -63.56640625 75.8671875 Z M300.765625 63.31640625 C300.75144531 63.99445313 300.73726563 64.6725 300.72265625 65.37109375 C300.35870777 72.47300741 299.25458241 78.61809502 294.765625 84.31640625 C289.16394224 88.58985495 283.69755581 90.21084893 276.765625 89.31640625 C273.99459892 88.51453424 271.39913502 87.48685515 268.765625 86.31640625 C267.981875 86.02765625 267.198125 85.73890625 266.390625 85.44140625 C264.0712049 83.83565388 263.59600277 81.94593586 262.765625 79.31640625 C249.2281248 84.06865964 232.8422258 96.55985723 225.98828125 109.30859375 C223.46687406 115.51141654 221.98722158 121.99005036 220.45263672 128.49365234 C219.69898636 131.59020721 218.87977283 134.66497442 218.05078125 137.7421875 C217.47637374 139.91271047 216.90215253 142.08328275 216.328125 144.25390625 C216.04453125 145.29047363 215.7609375 146.32704102 215.46875 147.39501953 C215.09169922 148.85464111 215.09169922 148.85464111 214.70703125 150.34375 C214.47701416 151.20734131 214.24699707 152.07093262 214.01000977 152.96069336 C213.71617902 155.79303391 214.24366937 156.94741919 215.765625 159.31640625 C217.1568184 161.02191643 218.59946172 162.68614892 220.078125 164.31640625 C221.21701172 165.58484375 221.21701172 165.58484375 222.37890625 166.87890625 C224.74555745 169.29591173 226.94082801 171.44817804 229.765625 173.31640625 C231.94039094 173.45503759 231.94039094 173.45503759 233.765625 172.31640625 C235.25945396 170.71158559 235.25945396 170.71158559 236.515625 168.69140625 C243.79282557 158.57916725 254.6923334 151.78114153 267.06640625 149.5625 C286.31614777 147.80745844 302.17968015 151.27272159 317.765625 163.31640625 C332.36174205 152.40740854 342.77888158 139.93108942 346.328125 121.5859375 C348.36931566 106.33168231 346.06774598 90.89752488 336.765625 78.31640625 C336.14945312 77.47722656 335.53328125 76.63804688 334.8984375 75.7734375 C329.12325884 69.12034706 320.4166994 64.73633943 311.765625 63.31640625 C308.08137179 63.11016307 304.4497949 63.12729487 300.765625 63.31640625 Z " fill="#020202" transform="translate(120.234375,0.68359375)"/>
<path d="M0 0 C5.84994616 1.54795653 10.44180951 4.62020483 15.5 7.8125 C32.35401763 18.20331593 48.96159607 22.5730765 68.73046875 18.89453125 C72.83423135 17.77175749 76.68798441 16.22614247 80.625 14.625 C109.63016581 2.94893472 139.1805837 4.95053892 168 16 C169.68288651 16.61690081 171.36947301 17.22399918 173.0625 17.8125 C173.65160156 18.02519531 174.24070312 18.23789063 174.84765625 18.45703125 C194.73708746 23.47451027 213.45370356 18.82908395 231 9 C234.46199522 6.93194037 237.87033112 4.78948688 241.2578125 2.6015625 C243.6109344 1.22723205 245.34266548 0.44500817 248 0 C249.35912006 14.12813697 249.35912006 14.12813697 246.48828125 18.08203125 C244.07272256 19.6313822 241.60686032 20.79900744 239 22 C236.72204551 23.36568015 234.48041538 24.74899908 232.25 26.1875 C231.65606445 26.56648438 231.06212891 26.94546875 230.45019531 27.3359375 C212.48990537 38.99420201 199.83281201 53.71005672 195 75 C194.55419113 77.14806503 194.11030963 79.29653064 193.66796875 81.4453125 C192.0742031 88.88937018 190.12192261 96.19062967 188 103.5 C187.81046753 104.15764343 187.62093506 104.81528687 187.42565918 105.49285889 C184.4661041 115.71307899 181.01719458 125.67732927 177.25 135.625 C172.84917527 147.26840735 169.25961193 158.75322767 167 171 C166.63648438 172.90845703 166.63648438 172.90845703 166.265625 174.85546875 C163.43217074 193.02403695 164.50641307 211.75136439 166.5 229.9375 C169.4140424 257.2144304 170.09729794 285.92510414 165.49169922 313.02636719 C164.94258963 316.34719874 164.46995024 319.67432206 164.00390625 323.0078125 C159.2005399 356.83965883 153.0053727 390.55726599 146 424 C145.67 424 145.34 424 145 424 C145.52664421 414.03869729 146.34107176 404.16871917 147.54169464 394.26146317 C149.88196517 374.88280993 151.82375641 355.46581737 153.71972656 336.03955078 C154.16616501 331.46862519 154.62117873 326.89859337 155.07803726 322.32869911 C155.43580919 318.73604831 155.78783367 315.14285077 156.13829803 311.54948044 C156.30368788 309.86303955 156.47108115 308.17679368 156.64069366 306.49077225 C159.69981298 287.7800712 159.69981298 287.7800712 154 271 C151.45452077 268.79767391 148.80331097 266.85928017 146 265 C145.01 264.34 144.02 263.68 143 263 C142.61904907 260.13134766 142.61904907 260.13134766 142.61181641 256.4140625 C142.60393097 255.39896355 142.60393097 255.39896355 142.59588623 254.36335754 C142.5826426 252.11700597 142.59144693 249.87135935 142.6015625 247.625 C142.59954112 246.05997583 142.59662915 244.49495259 142.59286499 242.92993164 C142.58843421 239.6411853 142.5948897 236.35268287 142.60888672 233.06396484 C142.62586661 228.87225587 142.61621424 224.68112792 142.59816933 220.48944092 C142.58725495 217.25152325 142.59081455 214.01373991 142.5985527 210.77581787 C142.60053954 209.23223806 142.59814935 207.68864563 142.59111404 206.14508057 C142.55394349 195.6844124 143.11621041 186.24713986 148.6015625 177.01953125 C149.08729736 176.1776123 149.57303223 175.33569336 150.07348633 174.46826172 C150.8414856 173.15365967 150.8414856 173.15365967 151.625 171.8125 C157.46495335 161.45571464 161.9626752 150.89753211 166.00927734 139.73144531 C166.94036385 137.16441824 167.89874611 134.60929096 168.86328125 132.0546875 C173.56195612 119.38035941 176.89755207 106.41664716 180.16357422 93.31152344 C180.94882261 90.20261825 181.76449556 87.1041781 182.59765625 84.0078125 C185.28439666 74.0138173 187.74050181 64.00275719 189.875 53.875 C190.09043457 52.86091064 190.30586914 51.84682129 190.52783203 50.80200195 C190.72231934 49.85413818 190.91680664 48.90627441 191.1171875 47.9296875 C191.28847168 47.09679199 191.45975586 46.26389648 191.63623047 45.40576172 C192.21536019 41.57573199 192.2304772 38.6914316 191 35 C185.73437342 33.98084647 182.33983164 33.5569702 177.421875 35.8203125 C171.77486313 38.21100297 166.12809723 39.45666354 160.125 40.625 C159.12597656 40.82867187 158.12695312 41.03234375 157.09765625 41.2421875 C154.06915779 41.85179493 151.03625448 42.43038114 148 43 C147.01507568 43.19271484 146.03015137 43.38542969 145.01538086 43.58398438 C137.73601343 44.92452816 130.70675615 45.31548992 123.3125 45.25 C122.17401611 45.24178223 121.03553223 45.23356445 119.86254883 45.22509766 C102.04664084 44.99049526 84.51701077 42.58018535 68.0546875 35.32421875 C63.8217344 33.48921734 61.32201386 33.55932871 57 35 C55.90071366 41.2091364 56.26719303 45.94011655 57.73046875 52.0390625 C57.92216141 52.88238129 58.11385406 53.72570007 58.31135559 54.59457397 C58.71801812 56.3725924 59.13102898 58.14916957 59.55004883 59.92431641 C60.18013478 62.59379586 60.79205416 65.26689579 61.40039062 67.94140625 C63.64522206 77.72472504 66.15220166 87.37402442 69 97 C69.64148829 99.28621628 70.28209676 101.57267959 70.921875 103.859375 C78.11234575 128.99098134 86.87959443 152.90107037 99.3203125 175.92480469 C99.76890625 176.75915039 100.2175 177.59349609 100.6796875 178.453125 C101.07913574 179.18692383 101.47858398 179.92072266 101.89013672 180.67675781 C104.40715693 185.9455577 105.26856685 190.53104051 105.38574219 196.36303711 C105.41027466 197.43013161 105.41027466 197.43013161 105.43530273 198.51878357 C105.48461818 200.8549374 105.51792951 203.19085252 105.546875 205.52734375 C105.55752235 206.32951387 105.56816971 207.131684 105.57913971 207.95816231 C105.63241942 212.20017789 105.67123502 216.44207924 105.70019531 220.68432617 C105.72691659 224.18571 105.78270412 227.68477365 105.86425781 231.18530273 C105.96303565 235.42654479 106.01244524 239.66567896 106.02664948 243.90802193 C106.04004395 245.51851049 106.07041277 247.12895462 106.11843109 248.73878288 C106.47303884 261.34062146 106.47303884 261.34062146 102.79284668 265.48635864 C100.26760708 267.24507498 97.73772368 268.60864104 95 270 C88.9824658 276.60461071 89.63024441 282.37718756 90 291 C90.45662483 297.95624633 91.19504293 304.88956867 91.8984375 311.82421875 C92.09600754 313.82129798 92.2929868 315.81843574 92.4894104 317.81562805 C93.00536288 323.04487839 93.52955701 328.27327031 94.05548096 333.50152588 C94.58392043 338.77067815 95.10395957 344.04065881 95.625 349.31054688 C96.39482806 357.08073252 97.16678121 364.85070086 97.94677734 372.61987305 C98.03422903 373.4911317 98.12168072 374.36239035 98.21178246 375.26005077 C98.64829962 379.58719129 99.09465537 383.91304223 99.55743408 388.23745728 C99.6478982 389.08421681 99.73836231 389.93097635 99.83156776 390.80339527 C100.00074074 392.37951924 100.17144684 393.95547989 100.34413719 395.53122234 C101.14785367 403.0060063 101.60654476 410.49328813 102 418 C100.09645861 414.67971795 99.44032708 411.60571598 98.81640625 407.84375 C98.61080078 406.65652344 98.40519531 405.46929687 98.19335938 404.24609375 C97.7728937 401.74933472 97.35622414 399.25193342 96.94335938 396.75390625 C96.73646484 395.56667969 96.52957031 394.37945312 96.31640625 393.15625 C96.13537354 392.07150391 95.95434082 390.98675781 95.76782227 389.86914062 C94.96581645 386.87226549 94.15470243 385.21488965 92 383 C88.89802603 382.19053578 88.89802603 382.19053578 86 382 C85.32533254 378.77245186 84.66169431 375.54273065 84 372.3125 C83.80921875 371.40048828 83.6184375 370.48847656 83.421875 369.54882812 C83.24140625 368.66259766 83.0609375 367.77636719 82.875 366.86328125 C82.70742187 366.05157471 82.53984375 365.23986816 82.3671875 364.40356445 C81.9846287 361.89938135 81.93701491 359.52924498 82 357 C83.65 356.34 85.3 355.68 87 355 C87.49392574 343.58949792 85.97931689 332.95634209 84.0625 321.75 C83.64163565 319.23694259 83.22404447 316.72338604 82.80943298 314.20928955 C82.55323304 312.66133939 82.29312807 311.11402758 82.02809143 309.56756592 C80.50955478 300.52526327 79.84319454 291.61122888 79.83203125 282.4453125 C79.82703865 280.97286575 79.82703865 280.97286575 79.82194519 279.47067261 C79.81691246 277.40167707 79.81453573 275.33267352 79.81469727 273.26367188 C79.81252998 270.16782473 79.7943877 267.07234594 79.77539062 263.9765625 C79.73726153 250.39419321 80.65092426 237.14760279 82.28158569 223.67321777 C85.82206052 193.40500452 82.0600685 162.05417004 70 134 C68.95164188 130.69116437 68.03930815 127.34799476 67.125 124 C65.41919108 117.87692157 63.65612307 111.81698331 61.5625 105.8125 C59.19978189 98.91488745 57.31063579 91.91993153 55.4375 84.875 C55.13336182 83.73772461 54.82922363 82.60044922 54.51586914 81.42871094 C52.18463581 72.70932582 52.18463581 72.70932582 51.41064453 69.73583984 C45.74037483 48.07817556 29.53613199 34.07945169 10.9375 23.0625 C9.69713519 22.3441524 8.45627903 21.62665228 7.21484375 20.91015625 C6.15394531 20.27980469 5.09304687 19.64945313 4 19 C3.20207031 18.59007813 2.40414062 18.18015625 1.58203125 17.7578125 C-1.01634314 14.87072985 -0.41654987 11.47979998 -0.25 7.8125 C-0.23195312 7.06291016 -0.21390625 6.31332031 -0.1953125 5.54101562 C-0.14824109 3.6934629 -0.07649766 1.84656841 0 0 Z " fill="#FBC9ED" transform="translate(132,47)"/>
<path d="M0 0 C-0.59878399 6.41278334 -1.65617506 12.49828247 -3.1875 18.75 C-3.40599609 19.65395508 -3.62449219 20.55791016 -3.84960938 21.48925781 C-6.08505977 30.591634 -8.64609468 39.59247797 -11.29443359 48.58203125 C-11.93870206 50.78993259 -12.56201176 53.00221357 -13.17578125 55.21875 C-19.28511018 77.06566805 -26.93478513 98.95025094 -38.8125 118.375 C-45.95220084 130.37756577 -46.6051223 142.03806106 -46.53125 155.59375 C-46.53395098 157.35681369 -46.53783842 159.11987592 -46.54284668 160.88293457 C-46.5487009 164.55068354 -46.54030352 168.21803936 -46.52148438 171.88574219 C-46.49856136 176.5810706 -46.51192719 181.27549093 -46.53577423 185.97078705 C-46.55022817 189.59967909 -46.54563045 193.2283555 -46.53526306 196.85725403 C-46.53260163 198.58917856 -46.53584496 200.32112288 -46.54518127 202.05302429 C-46.55535555 204.46751969 -46.53984143 206.88053655 -46.51757812 209.29492188 C-46.52567505 210.00458099 -46.53377197 210.71424011 -46.54211426 211.44540405 C-46.46053698 216.22765372 -45.38058548 218.64114838 -42 222 C-39.49294546 223.55788724 -39.49294546 223.55788724 -36.8125 224.6875 C-32.09631728 226.80736544 -32.09631728 226.80736544 -31 229 C-31.01595807 231.43084559 -31.10730013 233.81247029 -31.25805664 236.23632812 C-31.30472253 237.02116829 -31.35138842 237.80600845 -31.39946842 238.61463165 C-32.18239139 250.7971299 -33.45762944 262.94227858 -34.66060901 275.08889198 C-35.01862904 278.71163363 -35.37244835 282.33478592 -35.7268219 285.95788574 C-36.32195408 292.03646375 -36.91987837 298.11476156 -37.51977539 304.19287109 C-38.28425089 311.93860691 -39.0441556 319.6847839 -39.80258083 327.4311142 C-40.46177098 334.16357976 -41.12299476 340.89584538 -41.78457379 347.62807655 C-41.99374678 349.7573589 -42.20266766 351.88666587 -42.41155815 354.01597595 C-43.85168225 368.68758132 -45.30940988 383.35479963 -47 398 C-49.64 398 -52.28 398 -55 398 C-58.65482197 362.60329953 -62.19405316 327.19506966 -65.68682861 291.78204346 C-66.14532 287.13452896 -66.60566222 282.48720342 -67.06756592 277.84002686 C-67.62000388 272.2806719 -68.16854709 266.7209457 -68.71420288 261.1609211 C-68.91838117 259.08675619 -69.12388061 257.01272085 -69.33078003 254.93882561 C-69.61659013 252.07129804 -69.89750712 249.20333038 -70.17724609 246.33520508 C-70.26133917 245.50276716 -70.34543224 244.67032925 -70.43207359 243.81266594 C-71.74975745 230.12463617 -71.74975745 230.12463617 -69.5 226.75 C-66.75360378 224.82752265 -63.977104 223.44696986 -60.90234375 222.125 C-58.43470341 220.66569729 -57.45674389 219.49410966 -56 217 C-55.71002646 214.37840269 -55.58960963 211.99644594 -55.61181641 209.37670898 C-55.60393097 208.23190819 -55.60393097 208.23190819 -55.59588623 207.0639801 C-55.58268661 204.5411428 -55.59143007 202.0189375 -55.6015625 199.49609375 C-55.59954029 197.73454162 -55.59662762 195.97299031 -55.59286499 194.21144104 C-55.58844047 190.51514738 -55.59487134 186.81907111 -55.60888672 183.12280273 C-55.6258909 178.41112696 -55.6161943 173.69996721 -55.59816933 168.98831081 C-55.58725961 165.3463207 -55.59081206 161.70445011 -55.5985527 158.06245613 C-55.6005395 156.32711792 -55.59814952 154.59176849 -55.59111404 152.85644341 C-55.55264483 140.68969984 -56.37966158 130.30738652 -62.1875 119.3125 C-62.8060724 118.11592823 -63.42455855 116.91931186 -64.04296875 115.72265625 C-64.69486149 114.48153384 -65.3472123 113.24065193 -66 112 C-83.92601321 77.71175097 -95.27557049 39.00187465 -102 1 C-100.31169683 1.28698101 -98.62439428 1.57985026 -96.9375 1.875 C-95.52791016 2.11863281 -95.52791016 2.11863281 -94.08984375 2.3671875 C-91 3 -91 3 -87.57421875 4 C-61.50369752 11.29404747 -30.9433206 8.04500113 -5.31689453 0.5793457 C-3 0 -3 0 0 0 Z " fill="#FB65B9" transform="translate(307,99)"/>
<path d="M0 0 C0.5625 3.125 0.5625 3.125 0 7 C-2.61603364 9.5687152 -5.83080091 11.19209646 -9 13 C-28.07537937 24.64192818 -45.26813414 37.84104048 -51.6875 60.375 C-52.65271511 64.38286486 -53.50088447 68.4078084 -54.33203125 72.4453125 C-55.9257969 79.88937018 -57.87807739 87.19062967 -60 94.5 C-60.18953247 95.15764343 -60.37906494 95.81528687 -60.57434082 96.49285889 C-63.5338959 106.71307899 -66.98280542 116.67732927 -70.75 126.625 C-75.15082473 138.26840735 -78.74038807 149.75322767 -81 162 C-81.36351562 163.90845703 -81.36351562 163.90845703 -81.734375 165.85546875 C-84.56782926 184.02403695 -83.49358693 202.75136439 -81.5 220.9375 C-78.5859576 248.2144304 -77.90270206 276.92510414 -82.50830078 304.02636719 C-83.05741037 307.34719874 -83.53004976 310.67432206 -83.99609375 314.0078125 C-88.7994601 347.83965883 -94.9946273 381.55726599 -102 415 C-102.33 415 -102.66 415 -103 415 C-102.47335579 405.03869729 -101.65892824 395.16871917 -100.45830536 385.26146317 C-98.11803483 365.88280993 -96.17624359 346.46581737 -94.28027344 327.03955078 C-93.83383499 322.46862519 -93.37882127 317.89859337 -92.92196274 313.32869911 C-92.56419081 309.73604831 -92.21216633 306.14285077 -91.86170197 302.54948044 C-91.69631212 300.86303955 -91.52891885 299.17679368 -91.35930634 297.49077225 C-88.30018702 278.7800712 -88.30018702 278.7800712 -94 262 C-96.54547923 259.79767391 -99.19668903 257.85928017 -102 256 C-102.99 255.34 -103.98 254.68 -105 254 C-105.38095093 251.13134766 -105.38095093 251.13134766 -105.38818359 247.4140625 C-105.39344055 246.73732986 -105.39869751 246.06059723 -105.40411377 245.36335754 C-105.4173574 243.11700597 -105.40855307 240.87135935 -105.3984375 238.625 C-105.40045888 237.05997583 -105.40337085 235.49495259 -105.40713501 233.92993164 C-105.41156579 230.6411853 -105.4051103 227.35268287 -105.39111328 224.06396484 C-105.37413339 219.87225587 -105.38378576 215.68112792 -105.40183067 211.48944092 C-105.41274505 208.25152325 -105.40918545 205.01373991 -105.4014473 201.77581787 C-105.39946046 200.23223806 -105.40185065 198.68864563 -105.40888596 197.14508057 C-105.44605651 186.6844124 -104.88378959 177.24713986 -99.3984375 168.01953125 C-98.66983521 166.75665283 -98.66983521 166.75665283 -97.92651367 165.46826172 C-97.1585144 164.15365967 -97.1585144 164.15365967 -96.375 162.8125 C-90.53504665 152.45571464 -86.0373248 141.89753211 -81.99072266 130.73144531 C-81.05963615 128.16441824 -80.10125389 125.60929096 -79.13671875 123.0546875 C-74.43804388 110.38035941 -71.10244793 97.41664716 -67.83642578 84.31152344 C-67.05117739 81.20261825 -66.23550444 78.1041781 -65.40234375 75.0078125 C-62.71560334 65.0138173 -60.25949819 55.00275719 -58.125 44.875 C-57.90956543 43.86091064 -57.69413086 42.84682129 -57.47216797 41.80200195 C-57.27768066 40.85413818 -57.08319336 39.90627441 -56.8828125 38.9296875 C-56.71152832 38.09679199 -56.54024414 37.26389648 -56.36376953 36.40576172 C-55.78463981 32.57573199 -55.7695228 29.6914316 -57 26 C-51.79808428 22.78898476 -46.58294598 19.60056211 -41.35498047 16.43212891 C-39.9158395 15.55694739 -38.47928711 14.67746791 -37.04736328 13.79052734 C-26.40051643 7.19709351 -12.85746205 0 0 0 Z " fill="#FBBCE9" transform="translate(380,56)"/>
<path d="M0 0 C4.30609494 3.11739232 7.09655998 6.8964857 10.0625 11.25 C13.20549205 15.422276 15.80088683 18.53295275 21.0703125 19.69140625 C28.39548754 20.11037383 32.55985603 16.7436702 38.0625 12.25 C38.68769531 11.76402344 39.31289062 11.27804688 39.95703125 10.77734375 C42.50373988 8.75113031 44.24214623 6.98053065 46.0625 4.25 C46.7225 4.25 47.3825 4.25 48.0625 4.25 C48.59932668 5.47226641 49.11625532 6.70328085 49.625 7.9375 C49.91503906 8.62199219 50.20507812 9.30648437 50.50390625 10.01171875 C51.54990765 14.20303903 50.39662408 16.68455926 48.234375 20.34375 C47.44036232 21.4884922 46.63216983 22.6234867 45.8125 23.75 C45.37284912 24.35658447 44.93319824 24.96316895 44.48022461 25.58813477 C32.42502576 41.74616219 17.04012063 53.67389517 -2.9375 58.25 C-14.87090437 59.25950934 -28.08611987 59.89338751 -38.9375 54.25 C-39.8965625 53.76402344 -40.855625 53.27804688 -41.84375 52.77734375 C-49.60660434 48.36378544 -54.77274734 42.66188166 -58.1015625 34.33984375 C-59.98998063 27.35975618 -60.13001157 18.84606529 -57.1015625 12.15234375 C-52.57139619 4.74901827 -46.84827422 -0.28393913 -38.9375 -3.75 C-38.22851562 -4.06839844 -37.51953125 -4.38679687 -36.7890625 -4.71484375 C-24.55536312 -9.50674405 -10.9766227 -6.7406777 0 0 Z " fill="#FBF1CC" transform="translate(136.9375,170.75)"/>
<path d="M0 0 C6.2555061 4.55676316 10.83601185 10.82837284 13.0625 18.25 C14.14293366 27.65377446 12.68649645 35.20888071 7.14453125 42.91796875 C2.19963982 48.84308645 -2.69572936 52.60293376 -9.9375 55.25 C-10.79472656 55.56710938 -11.65195312 55.88421875 -12.53515625 56.2109375 C-29.32158596 61.35783156 -47.78907549 59.01375414 -63.12109375 50.91796875 C-67.39348744 48.38771618 -71.15527692 45.45309251 -74.9375 42.25 C-75.56785156 41.775625 -76.19820313 41.30125 -76.84765625 40.8125 C-85.09954125 34.30588021 -91.14950741 24.93198889 -96.9375 16.25 C-96.94921875 14.09375 -96.94921875 14.09375 -96.625 11.75 C-96.52574219 10.9765625 -96.42648437 10.203125 -96.32421875 9.40625 C-95.9375 7.25 -95.9375 7.25 -94.9375 4.25 C-91.35119177 5.78345593 -88.94267844 7.95375209 -86.125 10.625 C-78.80873734 17.35570551 -78.80873734 17.35570551 -69.375 19.75 C-64.83518735 19.48882635 -62.36041076 18.37526635 -58.9375 15.25 C-57.12437439 12.78178238 -55.41866136 10.25432111 -53.70703125 7.71484375 C-41.25245324 -9.63358611 -17.16534384 -10.54113397 0 0 Z " fill="#FCF2CC" transform="translate(421.9375,170.75)"/>
<path d="M0 0 C9.65312723 -0.26814242 17.73637046 -0.02673044 27 3 C27.83917969 3.26683594 28.67835938 3.53367188 29.54296875 3.80859375 C40.8553181 7.85514161 49.60311579 14.81827226 57.28442383 23.87084961 C60.14358408 27.10227631 60.14358408 27.10227631 64.16992188 28.14404297 C66.64234186 27.8830855 66.64234186 27.8830855 70 27 C75.75244978 37.08596194 80.13799989 46.48499931 82 58 C81.195625 58.474375 80.39125 58.94875 79.5625 59.4375 C77.15246512 60.76900154 77.15246512 60.76900154 76 62 C75.94900932 63.67891537 75.96465516 65.35992751 76.0078125 67.0390625 C76.54701992 96.51195871 69.84095086 120.49231897 49.4453125 142.52490234 C44.02136896 148.06062309 37.68334647 153.05853926 31 157 C30.34 157 29.68 157 29 157 C27.68 152.38 26.36 147.76 25 143 C27.4440625 141.0509375 27.4440625 141.0509375 29.9375 139.0625 C44.90339841 126.72522733 55.84203795 112.07689771 59.64453125 92.71875 C61.72453595 70.95870079 59.60379206 51.48710073 46.1875 33.5625 C35.857255 21.49075776 20.52976848 15.83709016 5 14.375 C3.35 14.25125 1.7 14.1275 0 14 C0 9.38 0 4.76 0 0 Z " fill="#FBBCE9" transform="translate(421,34)"/>
<path d="M0 0 C0 4.62 0 9.24 0 14 C-1.07636719 14.08636719 -2.15273437 14.17273437 -3.26171875 14.26171875 C-18.72216898 15.67545902 -33.7854189 19.94321536 -44.75 31.6875 C-59.63433958 50.31072871 -61.31913679 68.72030846 -59.74609375 91.7109375 C-57.34750332 110.54618445 -45.02521614 127.27458209 -30.58984375 138.94921875 C-28.75094531 140.34055461 -26.90025904 141.69423541 -25 143 C-26 148 -27 153 -28 158 C-44.3528625 152.54904583 -58.286689 134.49424374 -66 120 C-77.42767457 97.11813654 -79.37579411 73.1776377 -72.00390625 48.69140625 C-65.51063322 29.97550165 -52.64026067 14.95992903 -34.97802734 5.94287109 C-23.41041411 0.42890882 -12.69480158 -0.70701246 0 0 Z " fill="#FAC8EC" transform="translate(91,34)"/>
<path d="M0 0 C6.2555061 4.55676316 10.83601185 10.82837284 13.0625 18.25 C14.14293366 27.65377446 12.68649645 35.20888071 7.14453125 42.91796875 C2.19963982 48.84308645 -2.69572936 52.60293376 -9.9375 55.25 C-10.79472656 55.56710938 -11.65195312 55.88421875 -12.53515625 56.2109375 C-22.11692423 59.14880729 -32.03059748 58.51431459 -41.9375 58.25 C-41.9375 57.92 -41.9375 57.59 -41.9375 57.25 C-41.091875 57.04375 -40.24625 56.8375 -39.375 56.625 C-35.1544155 54.9367662 -32.02014308 52.58740697 -28.9375 49.25 C-28.6075 48.26 -28.2775 47.27 -27.9375 46.25 C-28.5975 46.25 -29.2575 46.25 -29.9375 46.25 C-32.26499345 42.75875983 -32.44049316 41.35777749 -31.9375 37.25 C-30.4375 34.875 -30.4375 34.875 -27.9375 33.25 C-25.17900058 32.92361266 -22.73265088 33.06365661 -19.9375 33.25 C-19.59367993 21.96124092 -20.3176313 14.10984616 -26.5 4.51171875 C-27.9375 2.25 -27.9375 2.25 -28.9921875 0.03515625 C-30.21528161 -2.27457105 -31.55814273 -2.79825709 -33.9375 -3.75 C-33.9375 -4.41 -33.9375 -5.07 -33.9375 -5.75 C-22.45631738 -9.07278932 -10.0042775 -6.14356639 0 0 Z " fill="#FAEBB4" transform="translate(421.9375,170.75)"/>
<path d="M0 0 C2.5 0.25 2.5 0.25 4.5 2.25 C4.75396729 4.60302734 4.75396729 4.60302734 4.75878906 7.5859375 C4.76509338 8.70049316 4.77139771 9.81504883 4.77789307 10.96337891 C4.7738446 12.17171387 4.76979614 13.38004883 4.765625 14.625 C4.76753845 15.86040527 4.7694519 17.09581055 4.77142334 18.36865234 C4.7731361 21.65591407 4.76506699 24.94298787 4.75390625 28.23022461 C4.75000397 30.2479453 4.75389171 32.26549201 4.76074219 34.28320312 C4.77306004 38.14721828 4.77160978 42.01097428 4.765625 45.875 C4.76967346 47.08333496 4.77372192 48.29166992 4.77789307 49.53662109 C4.77158875 50.65117676 4.76528442 51.76573242 4.75878906 52.9140625 C4.75640228 54.39060303 4.75640228 54.39060303 4.75396729 55.89697266 C4.5 58.25 4.5 58.25 2.5 60.25 C0 60.5 0 60.5 -2.5 60.25 C-5.1080523 57.6419477 -4.75291786 56.5461806 -4.75878906 52.9140625 C-4.76509338 51.79950684 -4.77139771 50.68495117 -4.77789307 49.53662109 C-4.7738446 48.32828613 -4.76979614 47.11995117 -4.765625 45.875 C-4.76753845 44.63959473 -4.7694519 43.40418945 -4.77142334 42.13134766 C-4.7731361 38.84408593 -4.76506699 35.55701213 -4.75390625 32.26977539 C-4.75000397 30.2520547 -4.75389171 28.23450799 -4.76074219 26.21679688 C-4.77306004 22.35278172 -4.77160978 18.48902572 -4.765625 14.625 C-4.76967346 13.41666504 -4.77372192 12.20833008 -4.77789307 10.96337891 C-4.77158875 9.84882324 -4.76528442 8.73426758 -4.75878906 7.5859375 C-4.75719788 6.60157715 -4.75560669 5.6172168 -4.75396729 4.60302734 C-4.38565753 1.19060779 -3.38877243 0.33887724 0 0 Z " fill="#A2C2FD" transform="translate(400.5,14.75)"/>
<path d="M0 0 C2.5 0.25 2.5 0.25 4.5 2.25 C4.75396729 4.60302734 4.75396729 4.60302734 4.75878906 7.5859375 C4.76509338 8.70049316 4.77139771 9.81504883 4.77789307 10.96337891 C4.7738446 12.17171387 4.76979614 13.38004883 4.765625 14.625 C4.76753845 15.86040527 4.7694519 17.09581055 4.77142334 18.36865234 C4.7731361 21.65591407 4.76506699 24.94298787 4.75390625 28.23022461 C4.75000397 30.2479453 4.75389171 32.26549201 4.76074219 34.28320312 C4.77306004 38.14721828 4.77160978 42.01097428 4.765625 45.875 C4.76967346 47.08333496 4.77372192 48.29166992 4.77789307 49.53662109 C4.77158875 50.65117676 4.76528442 51.76573242 4.75878906 52.9140625 C4.75640228 54.39060303 4.75640228 54.39060303 4.75396729 55.89697266 C4.5 58.25 4.5 58.25 2.5 60.25 C0 60.5 0 60.5 -2.5 60.25 C-5.1080523 57.6419477 -4.75291786 56.5461806 -4.75878906 52.9140625 C-4.76509338 51.79950684 -4.77139771 50.68495117 -4.77789307 49.53662109 C-4.7738446 48.32828613 -4.76979614 47.11995117 -4.765625 45.875 C-4.76753845 44.63959473 -4.7694519 43.40418945 -4.77142334 42.13134766 C-4.7731361 38.84408593 -4.76506699 35.55701213 -4.75390625 32.26977539 C-4.75000397 30.2520547 -4.75389171 28.23450799 -4.76074219 26.21679688 C-4.77306004 22.35278172 -4.77160978 18.48902572 -4.765625 14.625 C-4.76967346 13.41666504 -4.77372192 12.20833008 -4.77789307 10.96337891 C-4.77158875 9.84882324 -4.76528442 8.73426758 -4.75878906 7.5859375 C-4.75719788 6.60157715 -4.75560669 5.6172168 -4.75396729 4.60302734 C-4.38565753 1.19060779 -3.38877243 0.33887724 0 0 Z " fill="#A2C2FD" transform="translate(111.5,14.75)"/>
<path d="M0 0 C2.9375 2.0625 2.9375 2.0625 5 5 C5.06625411 8.8427383 4.81899419 10.99200716 2.375 14 C-1.11581787 15.46981805 -3.39148956 14.98413921 -7 14 C-9 12.375 -9 12.375 -10 10 C-9.87890756 6.54886548 -9.63213135 4.03137221 -7.8125 1.0625 C-4.99452602 -0.58941578 -3.20595185 -0.5129523 0 0 Z " fill="#0B0B09" transform="translate(389,178)"/>
<path d="M0 0 C2.9375 2.0625 2.9375 2.0625 5 5 C5.06625411 8.8427383 4.81899419 10.99200716 2.375 14 C-1.11581787 15.46981805 -3.39148956 14.98413921 -7 14 C-9 12.375 -9 12.375 -10 10 C-9.87890756 6.54886548 -9.63213135 4.03137221 -7.8125 1.0625 C-4.99452602 -0.58941578 -3.20595185 -0.5129523 0 0 Z " fill="#0B0B09" transform="translate(129,178)"/>
<path d="M0 0 C2.5 1.5625 2.5 1.5625 4 4 C3.93913078 7.46954545 3.6274029 9.91947278 1.875 12.9375 C-1.18452459 14.6712306 -3.56817525 14.42145216 -7 14 C-9.4375 12.375 -9.4375 12.375 -11 10 C-11.60605429 6.36367425 -11.47161336 4.71685231 -9.4375 1.625 C-6.06489221 -0.62340519 -3.97487617 -0.56783945 0 0 Z " fill="#0A0A08" transform="translate(401,204)"/>
<path d="M0 0 C2.5 1.5625 2.5 1.5625 4 4 C3.93913078 7.46954545 3.6274029 9.91947278 1.875 12.9375 C-1.18452459 14.6712306 -3.56817525 14.42145216 -7 14 C-9.4375 12.375 -9.4375 12.375 -11 10 C-11.60605429 6.36367425 -11.47161336 4.71685231 -9.4375 1.625 C-6.06489221 -0.62340519 -3.97487617 -0.56783945 0 0 Z " fill="#0A0A08" transform="translate(119,204)"/>
<path d="M0 0 C2.5 1.5625 2.5 1.5625 4 4 C3.93913078 7.46954545 3.6274029 9.91947278 1.875 12.9375 C-1.22289358 14.69297303 -3.52844534 14.48723574 -7 14 C-9.5 11.9375 -9.5 11.9375 -11 9 C-10.9375 5.3125 -10.9375 5.3125 -10 2 C-6.2794164 -0.48038907 -4.40203429 -0.46337203 0 0 Z " fill="#090806" transform="translate(419,182)"/>
<path d="M0 0 C2.5 1.5625 2.5 1.5625 4 4 C3.93913078 7.46954545 3.6274029 9.91947278 1.875 12.9375 C-1.22289358 14.69297303 -3.52844534 14.48723574 -7 14 C-9.5 11.9375 -9.5 11.9375 -11 9 C-10.9375 5.3125 -10.9375 5.3125 -10 2 C-6.2794164 -0.48038907 -4.40203429 -0.46337203 0 0 Z " fill="#090807" transform="translate(101,182)"/>
<path d="M0 0 C7.99793178 3.54194122 13.75372086 7.89991037 20 14 C15.78080897 15.25180279 12.03911435 14.67252421 7.75 14.0625 C7.00492187 13.96259766 6.25984375 13.86269531 5.4921875 13.75976562 C3.66054558 13.51319844 1.83013749 13.25749609 0 13 C0 8.71 0 4.42 0 0 Z " fill="#FDCAEF" transform="translate(421,35)"/>
<path d="M0 0 C0.33 0 0.66 0 1 0 C1.2408831 6.44362304 0.35299608 12.2103966 -1 18.5 C-1.19078125 19.4178125 -1.3815625 20.335625 -1.578125 21.28125 C-2.04503453 23.52241577 -2.51910692 25.76180083 -3 28 C-3.33 28 -3.66 28 -4 28 C-2.79841897 2.79841897 -2.79841897 2.79841897 0 0 Z " fill="#BA8BAD" transform="translate(281,443)"/>
<path d="M0 0 C0.33 0 0.66 0 1 0 C1.33765809 3.70795276 1.66935514 7.41641581 2 11.125 C2.14308594 12.69507813 2.14308594 12.69507813 2.2890625 14.296875 C2.7245607 19.2117833 3.13675514 24.05972054 3 29 C-1.96019573 19.72841051 -0.99972327 10.13233048 0 0 Z " fill="#D0A7C5" transform="translate(231,436)"/>
</svg>
