<?xml version="1.0" encoding="UTF-8"?>
<svg version="1.1" xmlns="http://www.w3.org/2000/svg" width="512" height="512">
<path d="M0 0 C1.19334961 0.00563965 2.38669922 0.0112793 3.61621094 0.01708984 C27.16853446 0.34197166 47.27636794 9.12957665 64.38671875 25.17578125 C74.94379469 34.9800606 83.32370058 38.77928546 97.6875 40.3125 C98.06519531 39.64605469 98.44289062 38.97960937 98.83203125 38.29296875 C109.06936712 21.15082554 123.28347804 11.33574118 142.13671875 5.5625 C159.14155096 1.40512167 177.56322752 4.49499349 192.5859375 13.19921875 C202.84304398 20.18800289 211.69904026 29.39236754 217.6875 40.3125 C230.70328178 40.03066221 239.4734613 35.96895285 248.79296875 26.99609375 C261.66188617 15.06499218 277.65401747 6.46700793 294.6875 2.3125 C295.57824219 2.08820312 296.46898437 1.86390625 297.38671875 1.6328125 C319.61968161 -2.99773326 341.36782659 0.63535884 360.6875 12.3125 C378.09159936 23.94638118 388.43867711 41.11398471 392.6875 61.3125 C396.71704386 85.7432298 390.35830012 110.84961508 376.42919922 131.14599609 C368.4753769 141.98935233 358.21922691 151.40575452 345.5625 156.1875 C340.93966807 158.11346467 340.93966807 158.11346467 338.26953125 162.17578125 C337.66801206 164.41112112 337.11915756 166.66123303 336.62109375 168.921875 C334.46775232 176.7423786 328.61435711 183.51128798 321.953125 188.03515625 C310.5333781 194.47353079 300.27747729 195.49227438 287.4375 195.5 C285.85388672 195.51836914 285.85388672 195.51836914 284.23828125 195.53710938 C263.88148711 195.57448415 252.7617763 189.31177773 238.63232422 175.31616211 C233.96684655 170.66536667 229.32578682 165.99039 224.6875 161.3125 C221.52368705 158.12214818 218.35660273 154.93509627 215.1875 151.75 C214.10166626 150.65171875 214.10166626 150.65171875 212.99389648 149.53125 C212.32559814 148.85964844 211.6572998 148.18804687 210.96875 147.49609375 C210.38158203 146.90368896 209.79441406 146.31128418 209.18945312 145.70092773 C207.71874529 144.21197621 207.71874529 144.21197621 205.6875 143.3125 C205.39875 144.22 205.11 145.1275 204.8125 146.0625 C203.6875 149.3125 203.6875 149.3125 202.5 151.1875 C200.61000035 156.130576 202.7554332 161.60506736 204.25 166.4375 C208.10407571 180.39654038 204.96937074 194.20335324 198.95703125 207.06640625 C197.53497437 210.0444588 197.53497437 210.0444588 197.79296875 212.3203125 C198.84430394 214.66171401 199.92581172 216.98584426 201.06201172 219.28735352 C213.46596177 244.41487649 212.05553727 269.68902386 206.9609375 296.58984375 C206.56991181 298.74059838 206.18076693 300.89169569 205.79336548 303.04310608 C204.77845667 308.65115241 203.73872838 314.25429826 202.69311523 319.85668945 C201.6513741 325.46224887 200.63322211 331.07208126 199.61328125 336.68164062 C198.04445511 345.29845243 196.4576611 353.9117388 194.85839844 362.52294922 C193.48638083 369.91348472 192.15197418 377.3089728 190.86816406 384.71533203 C190.59487247 386.27717627 190.32141092 387.83899078 190.04776001 389.40077209 C189.55597801 392.20789893 189.07764134 395.01683888 188.60726929 397.82762146 C188.39478546 399.03894241 188.18230164 400.25026337 187.96337891 401.49829102 C187.78739166 402.53486343 187.61140442 403.57143585 187.43008423 404.63941956 C186.61644718 407.56826885 185.87923166 409.20204017 183.6875 411.3125 C181.4107666 411.80697632 181.4107666 411.80697632 178.71289062 411.79833984 C177.70174194 411.8044931 176.69059326 411.81064636 175.64880371 411.81698608 C174.55813599 411.80261505 173.46746826 411.78824402 172.34375 411.7734375 C171.22311157 411.77252106 170.10247314 411.77160461 168.94787598 411.7706604 C166.57734953 411.76461545 164.20683103 411.74884291 161.83642578 411.72412109 C158.20186308 411.68764415 154.56832024 411.68310144 150.93359375 411.68359375 C148.63280366 411.67376183 146.3320205 411.6621045 144.03125 411.6484375 C142.94058228 411.64621185 141.84991455 411.64398621 140.72619629 411.64169312 C139.71504761 411.62893341 138.70389893 411.61617371 137.66210938 411.60302734 C136.7718103 411.59540375 135.88151123 411.58778015 134.9642334 411.57992554 C132.6875 411.3125 132.6875 411.3125 129.6875 409.3125 C129.03559303 407.50479317 129.03559303 407.50479317 128.6390686 405.27420044 C128.48230148 404.42842941 128.32553436 403.58265839 128.16401672 402.71125793 C128.00499374 401.7806102 127.84597076 400.84996246 127.68212891 399.89111328 C127.41554222 398.42195213 127.41554222 398.42195213 127.14356995 396.92311096 C126.55492021 393.66172829 125.98451573 390.39742302 125.4140625 387.1328125 C125.00545476 384.84842362 124.59571802 382.56423642 124.18490601 380.28024292 C123.10040333 374.23321075 122.031274 368.18355668 120.965271 362.13323975 C119.89737245 356.08720657 118.81536988 350.0437028 117.734375 344 C115.89956771 333.73220032 114.07761107 323.46218108 112.26193619 313.19098282 C111.18859302 307.12484583 110.10524771 301.06066989 109.00683594 294.99902344 C108.88580946 294.32945303 108.76478298 293.65988262 108.64008904 292.9700222 C108.11773192 290.08022291 107.59312654 287.19088732 107.06289673 284.30252075 C103.43825733 264.25657293 102.28458289 239.74961303 113.81640625 221.8203125 C117.76045424 215.88799603 117.76045424 215.88799603 118.32617188 209.01757812 C116.90577119 204.18357142 114.8631842 199.66725278 112.5546875 195.19677734 C108.31138869 185.97668157 109.40123424 171.62452198 112.75 162.375 C113.13285156 161.49972656 113.51570312 160.62445313 113.91015625 159.72265625 C115.10924965 156.00486416 114.1731398 153.31403257 112.49609375 149.85546875 C112.04363281 149.07816406 111.59117187 148.30085937 111.125 147.5 C110.66996094 146.70980469 110.21492187 145.91960937 109.74609375 145.10546875 C109.22208984 144.21794922 109.22208984 144.21794922 108.6875 143.3125 C108.22253616 143.77746384 107.75757233 144.24242767 107.27851868 144.72148132 C74.7434082 177.2565918 74.7434082 177.2565918 72.60003662 179.39723206 C71.43505281 180.5638796 70.27300428 181.73348052 69.11627197 182.90830994 C58.78145701 193.39203161 46.19986497 195.3959133 32.05957031 195.50341797 C15.40407639 195.48518393 0.74681343 195.12519967 -12.1875 183.1875 C-17.57534035 177.39874957 -21.46357478 170.4251688 -23.06640625 162.66015625 C-24.01979148 159.09703709 -24.01979148 159.09703709 -27.21875 157.37890625 C-28.4046875 156.88261719 -29.590625 156.38632813 -30.8125 155.875 C-37.50201003 152.86553409 -42.84580928 149.25855351 -48.3125 144.3125 C-49.07046875 143.64734375 -49.8284375 142.9821875 -50.609375 142.296875 C-65.86449994 128.09382764 -76.26461033 105.67334941 -77.45288086 84.8527832 C-78.24706214 62.02749825 -75.02245956 41.94332798 -59.3125 24.3125 C-58.74273437 23.64992188 -58.17296875 22.98734375 -57.5859375 22.3046875 C-42.45928271 5.89065783 -21.72251632 -0.10741566 0 0 Z M-22.3125 49.3125 C-23.36244141 50.26769531 -23.36244141 50.26769531 -24.43359375 51.2421875 C-31.0155388 57.83620951 -34.18327385 66.01175102 -34.8125 75.3125 C-34.1641272 85.20541398 -30.37647748 94.38384776 -23.3125 101.3125 C-13.68302277 109.72596816 -3.40094914 111.75723413 9.12890625 111.71875 C10.70139381 111.73500427 10.70139381 111.73500427 12.3056488 111.75158691 C16.73782269 111.79697127 21.16993076 111.80888168 25.60229492 111.82373047 C28.86137047 111.83952219 32.11997453 111.87253275 35.37890625 111.90625 C36.36460098 111.90322876 37.35029572 111.90020752 38.36585999 111.89709473 C49.74806755 112.01891067 60.30474522 115.30807294 68.73046875 123.234375 C72.39504557 127.26619086 75.17532799 131.48912973 77.6875 136.3125 C80.08022471 134.36493338 82.38221083 132.36205774 84.6875 130.3125 C85.22858398 129.85085449 85.76966797 129.38920898 86.32714844 128.91357422 C93.89354804 122.93308089 93.89354804 122.93308089 98.18359375 114.7734375 C97.62197366 112.12895864 96.7102936 109.81469149 95.6875 107.3125 C92.57684463 94.79211213 91.61884753 82.14235564 90.6875 69.3125 C90.0891333 69.27286133 89.4907666 69.23322266 88.87426758 69.19238281 C67.56442787 67.71074218 51.45540967 63.35265048 34.19726562 50.29101562 C17.45250132 37.78848821 -5.86160084 33.73479082 -22.3125 49.3125 Z M279.4375 52.1875 C266.34711068 62.6357568 252.14824263 67.33601126 235.5 68.5 C234.45263672 68.58185547 233.40527344 68.66371094 232.32617188 68.74804688 C229.78050733 68.94565554 227.23454011 69.13366459 224.6875 69.3125 C224.66171875 70.52421875 224.6359375 71.7359375 224.609375 72.984375 C224.27498736 83.90917111 222.99781155 94.19281093 220.625 104.859375 C220.39647339 105.98666016 220.39647339 105.98666016 220.16333008 107.13671875 C219.6875 109.3125 219.6875 109.3125 219.0300293 111.33203125 C218.43349544 113.59340876 218.24157094 115.00551643 218.6875 117.3125 C221.17949468 120.95695562 224.26554414 123.82834388 227.5 126.8125 C228.7694043 128.04613281 228.7694043 128.04613281 230.06445312 129.3046875 C233.80323262 133.5284984 233.80323262 133.5284984 238.6875 135.3125 C240.1035775 133.4595277 240.1035775 133.4595277 241.5 131.125 C248.15132191 120.89219706 256.84560957 114.99482136 268.6875 112.3125 C272.54729706 111.91914788 276.37247521 111.89465915 280.25 111.90625 C281.85790405 111.88999573 281.85790405 111.88999573 283.49829102 111.87341309 C288.0388585 111.82795782 292.5793634 111.81612548 297.12011719 111.80126953 C300.45527862 111.78547895 303.7899791 111.75246366 307.125 111.71875 C308.13570557 111.72177124 309.14641113 111.72479248 310.18774414 111.72790527 C322.06650108 111.60382837 331.59377253 108.16815016 340.375 100.125 C348.16514158 91.99615661 350.07365201 82.79491937 349.9609375 71.91796875 C349.28485917 63.00339302 344.95156852 55.57656852 338.6875 49.3125 C330.03506927 42.38248161 320.36589738 38.62167225 309.21875 39.02734375 C297.75761042 40.31849065 288.33604019 45.05961487 279.4375 52.1875 Z " fill="#040302" transform="translate(99.3125,57.6875)"/>
<path d="M0 0 C1.0621875 0.36222656 2.124375 0.72445312 3.21875 1.09765625 C14.14132786 5.2499249 23.05504028 11.89398625 31.578125 19.765625 C41.35089497 28.78179342 51.89502135 36.09949128 65.63928223 36.14044189 C66.78859222 36.14615204 67.93790222 36.15186218 69.12203979 36.15774536 C70.37920807 36.15886322 71.63637634 36.15998108 72.93164062 36.16113281 C74.27235042 36.1657636 75.61305891 36.17078861 76.95376587 36.17617798 C80.59471399 36.18928488 84.23564368 36.1957444 87.87661171 36.20018864 C90.15553152 36.20312407 92.43444635 36.20722992 94.71336365 36.21169281 C101.85530209 36.22536754 108.99722908 36.23503249 116.13917971 36.2388947 C124.36060584 36.24336584 132.58186492 36.26086976 140.8032403 36.2898953 C147.17118746 36.31158969 153.53908791 36.32160321 159.90707159 36.32293582 C163.7036008 36.32397895 167.49997299 36.32978025 171.29646301 36.34775543 C174.87521861 36.3643693 178.45370146 36.36632798 182.03248215 36.35761642 C183.95291904 36.35649231 185.87334741 36.3701092 187.79373169 36.3843689 C203.41537702 36.31012906 215.78002682 32.28815686 227.0625 21.3125 C238.00905842 10.71092403 251.30991629 3.0577504 266 -1 C267.12664062 -1.31582031 268.25328125 -1.63164063 269.4140625 -1.95703125 C288.26354333 -6.61621444 307.76301452 -4.2655683 324.8203125 5.03125 C339.60851541 14.18758202 349.57514342 27.35755262 355.3125 43.75 C360.24119924 67.04930552 356.25278541 89.66712972 344 110 C341.8857834 113.24820551 339.60903632 116.13760685 337 119 C336.27296875 119.81855469 335.5459375 120.63710937 334.796875 121.48046875 C324.39136659 132.57408336 308.73231963 142.48381101 293.01904297 143.07446289 C290.74086611 143.0981991 288.46564891 143.08732476 286.1875 143.0625 C285.00510742 143.05573242 285.00510742 143.05573242 283.79882812 143.04882812 C281.86585239 143.03711312 279.93291607 143.01917998 278 143 C278.845625 142.278125 279.69125 141.55625 280.5625 140.8125 C283.25767645 138.29539753 283.25767645 138.29539753 283.09765625 135.42578125 C281.71735611 132.37536706 280.14518462 131.13245656 277.4375 129.1875 C276.61121094 128.58292969 275.78492188 127.97835937 274.93359375 127.35546875 C274.29550781 126.90816406 273.65742188 126.46085938 273 126 C274.38188453 122.78956118 275.92421903 120.95063635 278.625 118.75 C279.25664062 118.22921875 279.88828125 117.7084375 280.5390625 117.171875 C281.02117187 116.78515625 281.50328125 116.3984375 282 116 C281.5139707 111.62573634 280.1638148 109.96133065 277 107 C278.54107422 106.94392578 278.54107422 106.94392578 280.11328125 106.88671875 C293.88408938 106.2800899 306.84257484 104.17761362 317.53125 94.6171875 C326.65655213 84.56964739 330.89472729 71.95574446 330.4453125 58.48828125 C328.91779444 46.52272311 322.9183632 36.92329521 313.8125 29.25 C301.79309035 20.38491226 288.4476545 18.85290301 274 20 C263.14061668 22.05548191 253.41595953 28.00456893 245.0625 35.0625 C239.58245412 39.58682588 233.67099728 42.58905322 227 45 C226.26120605 45.27070312 225.52241211 45.54140625 224.76123047 45.8203125 C212.86562892 49.49590749 199.91953286 48.41549186 187.60302734 48.36035156 C184.41979331 48.35173659 181.23781118 48.37352062 178.0546875 48.3984375 C177.0940036 48.38509369 176.1333197 48.37174988 175.14352417 48.35800171 C168.13797926 48.43372036 162.89686331 50.18638575 157 54 C142.388539 69.27228084 141.5108961 94.44280929 140.06469727 114.24145508 C139.81223202 117.69116177 139.54498484 121.13948437 139.27539062 124.58789062 C139.1059072 126.81243437 138.93725871 129.03704192 138.76953125 131.26171875 C138.6914473 132.27658859 138.61336334 133.29145844 138.53291321 134.33708191 C137.3027143 146.92390469 137.3027143 146.92390469 140 159 C140.9715565 168.81783412 140.30272116 176.80469502 136.24609375 185.90625 C134.28145038 190.78398526 133.62727138 195.803946 133 201 C131.02 201 129.04 201 127 201 C126.98582031 200.35675781 126.97164062 199.71351563 126.95703125 199.05078125 C126.58622036 192.02541825 124.86408686 186.32599851 122.15625 179.84765625 C120.44811638 175.64080013 119.84462901 172.23054208 119.8125 167.6875 C119.79832031 166.78386719 119.78414062 165.88023437 119.76953125 164.94921875 C120 162 120 162 120.9921875 158.7109375 C122.18265814 154.32742159 122.34184794 150.45578798 122.3125 145.9375 C122.30831055 145.0199292 122.30412109 144.1023584 122.29980469 143.15698242 C122.79891616 95.35179492 122.79891616 95.35179492 103 54 C98.38968154 50.64077223 93.9571805 48.8816028 88.26000977 48.8581543 C87.29793106 48.85111984 86.33585236 48.84408539 85.34461975 48.83683777 C84.3040593 48.83267349 83.26349884 48.82850922 82.19140625 48.82421875 C79.97720424 48.80100071 77.76301152 48.7768826 75.54882812 48.75195312 C72.06675174 48.71700283 68.58501272 48.68758738 65.1027832 48.67407227 C61.73607454 48.65845562 58.37035004 48.61813873 55.00390625 48.57421875 C53.47039268 48.57708138 53.47039268 48.57708138 51.90589905 48.58000183 C35.2948125 48.30342767 21.64953716 39.98576033 8.84375 30.078125 C-0.83579602 23.0046106 -11.44070595 19.42524908 -23.375 19.5625 C-24.29893555 19.57007324 -25.22287109 19.57764648 -26.17480469 19.58544922 C-37.25839484 19.85306498 -45.21051748 23.36642829 -54 30 C-55.25296875 30.92039062 -55.25296875 30.92039062 -56.53125 31.859375 C-59.15710554 34.13622442 -60.78555977 36.31025534 -62.625 39.25 C-63.19476563 40.14203125 -63.76453125 41.0340625 -64.3515625 41.953125 C-67.92700148 48.56175628 -69.54014491 54.22352109 -69.4375 61.75 C-69.42992676 62.5349585 -69.42235352 63.31991699 -69.41455078 64.12866211 C-69.05400334 76.97283565 -64.05342729 87.40511245 -54.8125 96.25 C-48.39949036 101.70486898 -40.04928956 105.91714747 -31.55078125 106.31640625 C-30.70322266 106.35830078 -29.85566406 106.40019531 -28.98242188 106.44335938 C-28.10134766 106.48267578 -27.22027344 106.52199219 -26.3125 106.5625 C-25.41982422 106.60568359 -24.52714844 106.64886719 -23.60742188 106.69335938 C-21.40509892 106.79935353 -19.20266527 106.90142051 -17 107 C-17.66 107.721875 -18.32 108.44375 -19 109.1875 C-21.13869983 111.79466915 -21.13869983 111.79466915 -21.53125 114.58203125 C-20.79278326 117.94314091 -19.29731045 118.76650748 -16.5 120.6875 C-14.97124331 121.75149578 -13.4631651 122.84746717 -12 124 C-12 124.66 -12 125.32 -12 126 C-13.8984375 127.7265625 -13.8984375 127.7265625 -16.375 129.625 C-17.18710938 130.25664062 -17.99921875 130.88828125 -18.8359375 131.5390625 C-21 133 -21 133 -23 133 C-21.83269511 136.95087809 -20.55162546 139.78425284 -18 143 C-38.2036418 143.88054613 -55.87142595 138.96776614 -71 125.125 C-88.02909824 108.83055012 -96.42190509 86.36911438 -97.33642578 63.08007812 C-97.70220971 43.94818976 -89.9135395 27.64397325 -77.015625 13.8828125 C-56.76452514 -5.68309978 -25.85018871 -8.87872473 0 0 Z " fill="#E3EEBD" transform="translate(127,70)"/>
<path d="M0 0 C1.875 0.9375 1.875 0.9375 4.06640625 2.484375 C7.50925167 4.26565246 9.8362528 4.24170446 13.6875 4.125 C14.84894531 4.09792969 16.01039063 4.07085937 17.20703125 4.04296875 C18.08746094 4.00816406 18.96789062 3.97335937 19.875 3.9375 C25.95892265 15.7205913 28.12140846 26.87322597 28.3125 40 C28.33481689 40.86592773 28.35713379 41.73185547 28.38012695 42.62402344 C28.34908055 51.9849339 26.28010993 60.99834642 24.43447876 70.13253784 C23.53386478 74.6477908 22.70029149 79.17501122 21.8671875 83.703125 C21.69778152 84.62000092 21.52837555 85.53687683 21.35383606 86.48153687 C20.81804069 89.38330781 20.28386942 92.28537414 19.75 95.1875 C19.56268311 96.20401642 19.37536621 97.22053284 19.18237305 98.26785278 C16.76296585 111.41178665 14.40034089 124.56494323 12.1015625 137.73046875 C11.98702602 138.38602627 11.87248955 139.04158379 11.75448227 139.71700668 C10.51671411 146.80331041 9.28555251 153.89071862 8.06201172 160.97949219 C7.65594862 163.31836357 7.24986257 165.65723096 6.84375 167.99609375 C6.65873932 169.07706833 6.47372864 170.15804291 6.28311157 171.27177429 C6.11169647 172.2564418 5.94028137 173.24110931 5.76367188 174.25561523 C5.6153894 175.11597885 5.46710693 175.97634247 5.31433105 176.86277771 C4.875 178.9375 4.875 178.9375 3.875 180.9375 C0.575 180.9375 -2.725 180.9375 -6.125 180.9375 C-6.35050537 179.65439941 -6.57601074 178.37129883 -6.80834961 177.04931641 C-10.93681733 153.56797862 -15.0804223 130.08945741 -19.30255127 106.62475586 C-19.87389939 103.44362793 -20.44184829 100.2619072 -21.00927734 97.08007812 C-22.52070613 88.63043819 -24.03837323 80.190413 -25.80078125 71.7890625 C-30.15083839 50.9184161 -32.7458157 29.02661296 -24.125 8.9375 C-23.74085938 7.97714844 -23.35671875 7.01679688 -22.9609375 6.02734375 C-22.68507812 5.33769531 -22.40921875 4.64804687 -22.125 3.9375 C-21.26777344 3.98390625 -20.41054687 4.0303125 -19.52734375 4.078125 C-12.20787558 4.30917924 -6.02719874 -0.17727055 0 0 Z " fill="#FC9379" transform="translate(258.125,279.0625)"/>
<path d="M0 0 C0.93779297 0.00322266 1.87558594 0.00644531 2.84179688 0.00976562 C4.30649414 0.02233398 4.30649414 0.02233398 5.80078125 0.03515625 C6.78884766 0.03966797 7.77691406 0.04417969 8.79492188 0.04882812 C11.23443599 0.06061322 13.67382814 0.07706614 16.11328125 0.09765625 C17.14932446 30.411513 7.15887166 55.70332621 -7.02416992 82.22460938 C-8.45786089 85.33790604 -8.21585535 87.69657804 -7.88671875 91.09765625 C-7.24722168 92.52679319 -6.57710727 93.94239735 -5.88671875 95.34765625 C-0.44513244 108.33281348 -3.71865132 122.40052955 -8.76953125 134.92578125 C-11.45453624 140.73773719 -15.31038985 146.05839175 -21.38671875 148.53515625 C-22.09828125 148.84324219 -22.80984375 149.15132812 -23.54296875 149.46875 C-26.38673409 150.23182703 -28.95573688 150.20293577 -31.88671875 150.09765625 C-32.69457907 142.46786435 -31.5549656 136.53242455 -28.88671875 129.47265625 C-25.43214111 120.14708655 -23.40400453 108.90631192 -26.91796875 99.26953125 C-29.97260472 89.26806187 -27.40487654 76.91156326 -26.57421875 66.59765625 C-26.50669403 65.75171906 -26.43916931 64.90578186 -26.36959839 64.03421021 C-22.33248093 13.99162757 -22.33248093 13.99162757 -7.88671875 1.09765625 C-4.94539984 0.11721661 -3.0617021 -0.01855577 0 0 Z " fill="#852B00" transform="translate(299.88671875,125.90234375)"/>
<path d="M0 0 C3.20815845 -0.08774066 6.41600462 -0.14063706 9.625 -0.1875 C10.52863281 -0.21263672 11.43226563 -0.23777344 12.36328125 -0.26367188 C17.66844261 -0.32175758 21.46767391 -0.08420961 26 3 C45.81760585 23.76130136 43.33852965 68.78416906 43.16796875 95.42578125 C42.94881234 98.7844807 41.93816395 101.77506142 41 105 C40.18214992 114.26449844 41.37754273 122.94934156 45.6875 131.25 C47.80898787 137.31139391 47.2207784 143.64648827 47 150 C39.51146417 150.29737868 39.51146417 150.29737868 35.9375 147.9375 C35.32777344 147.55464844 34.71804687 147.17179688 34.08984375 146.77734375 C27.76050317 141.39444662 24.6320034 135.81216272 22.125 127.9375 C21.8261792 127.0108252 21.5273584 126.08415039 21.21948242 125.12939453 C17.96956549 114.45202274 17.24993655 105.16940588 22.125 94.79296875 C24.04186343 88.67440916 23.62095348 83.71988533 20.83984375 77.94140625 C19.88732389 76.14046252 18.91914788 74.34773384 17.9375 72.5625 C10.04774479 57.48134381 4.30684624 42.71201863 1 26 C0.80277344 25.06414062 0.60554687 24.12828125 0.40234375 23.1640625 C-0.17223286 18.64554745 -0.10468284 14.17425704 -0.0625 9.625 C-0.05798828 8.69816406 -0.05347656 7.77132812 -0.04882812 6.81640625 C-0.03711574 4.54420291 -0.02071372 2.27213612 0 0 Z " fill="#862B00" transform="translate(199,126)"/>
<path d="M0 0 C0.95455078 -0.03673828 1.90910156 -0.07347656 2.89257812 -0.11132812 C8.01922824 -0.14317067 11.14563471 0.19997325 15.12109375 3.59765625 C16.08424855 4.56221937 17.03294422 5.54278042 17.9375 6.5625 C16.44177507 9.73733377 15.04641525 11.58486535 12.3125 13.8125 C11.68085938 14.33328125 11.04921875 14.8540625 10.3984375 15.390625 C9.91632813 15.77734375 9.43421875 16.1640625 8.9375 16.5625 C9.24677784 19.82959861 9.57622098 21.22170939 12.00390625 23.51171875 C12.82761719 24.08535156 13.65132813 24.65898437 14.5 25.25 C16.00962029 26.31215094 17.49756275 27.40764123 18.9375 28.5625 C18.9375 29.2225 18.9375 29.8825 18.9375 30.5625 C16.69834562 32.35834705 14.3590085 33.97318657 12.00390625 35.61328125 C9.56861363 37.91046654 9.15308952 39.2623219 8.9375 42.5625 C10.79121019 44.41621019 13.83860029 43.69298483 16.31640625 43.6953125 C17.63060547 43.69660156 18.94480469 43.69789063 20.29882812 43.69921875 C20.98920166 43.69712402 21.6795752 43.6950293 22.39086914 43.69287109 C24.46703621 43.68758395 26.54298088 43.69278258 28.61914062 43.69921875 C35.13309648 43.70216878 41.49760016 43.60680808 47.9375 42.5625 C47.26841347 49.69942294 42.28196067 56.1311926 37.12573242 60.85131836 C28.11117213 67.90063813 18.07003524 68.33314537 7.14575195 68.15942383 C4.7424719 68.12489183 2.34284124 68.13887817 -0.06054688 68.15820312 C-8.04622722 68.15081696 -15.1152241 67.95041641 -22.0625 63.5625 C-22.86042969 63.10488281 -23.65835937 62.64726562 -24.48046875 62.17578125 C-32.10125818 56.57374399 -37.20602782 48.89088915 -39.0625 39.5625 C-40.16199583 30.44075684 -38.49562002 22.26812783 -33.0390625 14.7890625 C-23.9669857 4.23077516 -13.78255677 0.02803232 0 0 Z " fill="#E13B00" transform="translate(381.0625,176.4375)"/>
<path d="M0 0 C0.90210205 0.01015137 1.8042041 0.02030273 2.73364258 0.03076172 C13.1477071 0.27371575 21.31894586 2.49970333 29.375 9.375 C36.55253807 16.90096225 39.47998055 23.40033198 39.8125 33.75 C39.52844566 44.77349335 36.26631667 51.30731961 28.6796875 59.2421875 C21.90749427 65.50933581 14.34835031 67.683072 5.23046875 67.7109375 C4.46124588 67.7175943 3.69202301 67.7242511 2.89949036 67.73110962 C1.27831395 67.74119237 -0.3429036 67.745928 -1.96411133 67.74560547 C-4.42014418 67.74996916 -6.87436363 67.78630596 -9.33007812 67.82421875 C-24.53970952 67.93415647 -24.53970952 67.93415647 -31.625 63.375 C-32.42292969 62.90578125 -33.22085938 62.4365625 -34.04296875 61.953125 C-41.0333284 56.70649745 -45.82044519 51.03686308 -47.625 42.375 C-46.63298584 42.53798584 -45.64097168 42.70097168 -44.61889648 42.86889648 C-40.65205419 43.43324188 -36.72386422 43.50277322 -32.72265625 43.47265625 C-31.63880898 43.47053383 -31.63880898 43.47053383 -30.5330658 43.46836853 C-28.25116635 43.46282225 -25.96936921 43.4502802 -23.6875 43.4375 C-22.12955872 43.43247804 -20.57161588 43.42791636 -19.01367188 43.42382812 C-15.21740919 43.4128705 -11.42122187 43.39564372 -7.625 43.375 C-7.44242376 40.96854155 -7.44242376 40.96854155 -7.625 38.375 C-9.79979607 36.02977491 -9.79979607 36.02977491 -12.625 34.0625 C-13.553125 33.36511719 -14.48125 32.66773438 -15.4375 31.94921875 C-16.159375 31.42972656 -16.88125 30.91023438 -17.625 30.375 C-16.1991914 26.92304233 -14.52753666 25.2735744 -11.5 23.125 C-10.77554688 22.60421875 -10.05109375 22.0834375 -9.3046875 21.546875 C-8.75039062 21.16015625 -8.19609375 20.7734375 -7.625 20.375 C-7.93638135 17.0970036 -8.29825837 15.69432973 -10.69140625 13.35546875 C-11.51511719 12.76378906 -12.33882812 12.17210937 -13.1875 11.5625 C-14.01378906 10.95792969 -14.84007812 10.35335937 -15.69140625 9.73046875 C-16.32949219 9.28316406 -16.96757813 8.83585938 -17.625 8.375 C-12.12165588 1.10272384 -8.92808658 -0.14209156 0 0 Z " fill="#E13B00" transform="translate(132.625,176.625)"/>
<path d="M0 0 C6.88220847 5.32459788 10.73912133 10.37165662 15.43359375 17.8828125 C-17.56640625 17.8828125 -50.56640625 17.8828125 -84.56640625 17.8828125 C-75.88504415 4.86076935 -65.64633567 -4.92867587 -50.25 -9.48828125 C-32.27988054 -12.55635043 -15.22736421 -10.45325745 0 0 Z " fill="#872B00" transform="translate(291.56640625,81.1171875)"/>
<path d="M0 0 C1.32 0.33 2.64 0.66 4 1 C5.09789298 3.7680211 5.02204305 4.93303377 4.07421875 7.8125 C3.15860389 9.91712457 2.24195756 12.02130073 1.32421875 14.125 C-6.29215986 34.127464 -2.10409166 58.14535461 1.9375 78.4375 C2.34638952 80.58125023 2.75282605 82.72546959 3.15698242 84.87011719 C3.9980383 89.32328869 4.84947037 93.7742886 5.70800781 98.22412109 C7.64476241 108.31531556 9.43745495 118.43245042 11.24099731 128.54812622 C11.96859553 132.62453337 12.70121904 136.70002334 13.43537903 140.7752533 C13.77959645 142.68661803 14.12302756 144.59812457 14.46562195 146.50978088 C15.34094756 151.3859836 16.23311138 156.25836391 17.14990234 161.12695312 C17.42938972 162.62418915 17.42938972 162.62418915 17.71452332 164.15167236 C18.06885676 166.04668096 18.42740173 167.94090892 18.79096985 169.83416748 C19.62047207 174.28942471 20.20800657 178.44348751 20 183 C17.69 183 15.38 183 13 183 C10.99216437 174.62817054 9.24757199 166.25938698 7.80078125 157.7734375 C7.60462219 156.64250671 7.40846313 155.51157593 7.20635986 154.34637451 C6.78825133 151.93528608 6.37160589 149.52394354 5.95632935 147.11236572 C4.85949023 140.74532306 3.75105331 134.38031005 2.640625 128.015625 C2.41826675 126.74095367 2.19590851 125.46628235 1.96681213 124.15298462 C-0.37637223 110.77022626 -2.85984575 97.41466499 -5.39916992 84.06787109 C-11.5795755 51.47667274 -11.5795755 51.47667274 -11.25 41.375 C-11.22812622 40.25387817 -11.22812622 40.25387817 -11.20581055 39.11010742 C-11.1569909 37.07283472 -11.07997504 35.03628765 -11 33 C-10.98066406 32.14277344 -10.96132812 31.28554688 -10.94140625 30.40234375 C-10.29234311 19.87965352 -5.59271331 8.78174983 0 0 Z " fill="#DBE6B7" transform="translate(224,277)"/>
<path d="M0 0 C11.44764913 13.39204813 14.28890589 33.9271708 13 51 C11.99613187 59.22364027 10.39624065 67.35994568 8.875 75.5 C8.45586267 77.79983616 8.03790571 80.09988774 7.62109375 82.40014648 C6.43229966 88.93686722 5.21948963 95.46894639 4 102 C3.70984492 103.56003702 3.41979254 105.12009315 3.12988281 106.68017578 C2.20252217 111.66333818 1.26921502 116.64533349 0.32324219 121.625 C-2.16310514 134.73420609 -4.51622266 147.86733221 -6.875 161 C-7.08044434 162.14381134 -7.28588867 163.28762268 -7.49755859 164.46609497 C-8.66662273 170.97711314 -9.83416161 177.48840348 -11 184 C-13.31 184 -15.62 184 -18 184 C-17.58688986 173.49858927 -15.96986942 163.48710979 -13.96279907 153.19552612 C-13.04360157 148.47874477 -12.15167386 143.75679324 -11.2578125 139.03515625 C-10.97829491 137.56291344 -10.97829491 137.56291344 -10.69313049 136.06092834 C-8.42560298 124.05930277 -6.36410041 112.0220139 -4.30783081 99.98269653 C-2.57292949 89.82694651 -0.7813339 79.7076808 1.33496094 69.6237793 C6.31446222 45.76641101 3.67434067 25.95450112 -4 3 C-2.68 2.01 -1.36 1.02 0 0 Z " fill="#DCE7B8" transform="translate(289,276)"/>
<path d="M0 0 C4 1.33333333 8 2.66666667 12 4 C20.04129297 4.63786589 26.72937239 4.41239731 34.01171875 0.77734375 C36 0 36 0 39 1 C40.6875 4.0625 40.6875 4.0625 42 7 C40.46378265 7.82275672 38.92071368 8.63272577 37.375 9.4375 C36.51648438 9.88996094 35.65796875 10.34242188 34.7734375 10.80859375 C25.04931142 14.98585918 13.25719093 14.25483653 3.5625 10.5 C1.69718788 9.69192255 -0.16178728 8.86795879 -2 8 C-2 4.23312136 -1.76462683 3.08809695 0 0 Z " fill="#090504" transform="translate(238,305)"/>
<path d="M0 0 C3.0916909 2.52956528 3.90931332 5.22454612 5 9 C1.60350912 12.42113336 -1.79619518 15.83902762 -5.19897461 19.25390625 C-6.35710059 20.41707392 -7.51432923 21.58113574 -8.6706543 22.74609375 C-10.32888785 24.4164001 -11.99027812 26.0835079 -13.65234375 27.75 C-14.17215317 28.2749707 -14.69196259 28.79994141 -15.2275238 29.34082031 C-16.46617967 30.57967092 -17.73053278 31.79274189 -19 33 C-19.33 33 -19.66 33 -20 33 C-20.82614009 27.21070855 -21.35836433 22.13553267 -18.125 17.05224609 C-15.53664573 14.26016003 -12.84972303 11.71181546 -10 9.1875 C-9.04609375 8.29224609 -8.0921875 7.39699219 -7.109375 6.47460938 C-4.76634324 4.28387468 -2.39879979 2.1292538 0 0 Z " fill="#E0EBBB" transform="translate(200,183)"/>
<path d="M0 0 C0.66 0 1.32 0 2 0 C3.3046875 1.328125 3.3046875 1.328125 4.875 3.25 C7.14241089 5.98437237 9.45485044 8.45277682 12.12890625 10.78125 C20.62269203 18.3145634 20.62269203 18.3145634 21.76953125 23.4375 C21.75213254 26.38832107 21.55437783 29.10491578 21 32 C15.19725221 29.51656062 11.11665112 24.60816124 6.6875 20.25 C5.74326172 19.35539062 4.79902344 18.46078125 3.82617188 17.5390625 C2.93865234 16.66507813 2.05113281 15.79109375 1.13671875 14.890625 C0.31905029 14.09688477 -0.49861816 13.30314453 -1.34106445 12.48535156 C-3 10 -3 10 -2.82495117 6.84277344 C-2.10057501 4.34658048 -1.2954019 2.24536329 0 0 Z " fill="#DEE9B9" transform="translate(313,183)"/>
<path d="M0 0 C2.76276177 0.52268466 5.3260876 1.10869587 8 2 C14.99873444 2.44584531 21.29868209 2.06194397 28 0 C29.5625 1.75 29.5625 1.75 31 4 C30.78515625 6.03125 30.78515625 6.03125 30 8 C22.86556477 11.99528373 14.98807394 11.79629278 7 11 C3.4612521 9.99944827 0.25065585 8.71328685 -3 7 C-1.125 2.25 -1.125 2.25 0 0 Z " fill="#0A0504" transform="translate(243,340)"/>
<path d="M0 0 C1.31871094 0.03351563 2.63742187 0.06703125 3.99609375 0.1015625 C4.66833984 0.09511719 5.34058594 0.08867187 6.03320312 0.08203125 C9.25726725 0.15246761 11.01509002 0.33218722 13.3984375 2.578125 C14.43359375 4.7265625 14.43359375 4.7265625 14.43359375 7.7265625 C10.64306651 9.47550062 7.6005029 10.02311769 3.43359375 10.0390625 C2.42296875 10.05582031 1.41234375 10.07257813 0.37109375 10.08984375 C-2.94846359 9.67931339 -4.84526596 8.62235693 -7.56640625 6.7265625 C-4.57769268 0.9325858 -4.57769268 0.9325858 0 0 Z " fill="#090504" transform="translate(253.56640625,374.2734375)"/>
</svg>
