<?xml version="1.0" encoding="UTF-8"?>
<svg version="1.1" xmlns="http://www.w3.org/2000/svg" width="512" height="512">
<path d="M0 0 C1.50727504 -0.00121764 1.50727504 -0.00121764 3.04500008 -0.00245988 C4.20698481 -0.01549862 5.36896954 -0.02853736 6.56616592 -0.04197121 C7.84358091 -0.0308176 9.1209959 -0.01966399 10.43712044 -0.00817239 C11.80716616 -0.01393219 13.17720416 -0.02187237 14.54722595 -0.03180861 C18.31599812 -0.05272537 22.08413911 -0.04234541 25.85291386 -0.02687752 C29.91571504 -0.01558744 33.97840594 -0.03301502 38.04118538 -0.04677713 C46.0017152 -0.06903925 53.96200964 -0.06419518 61.92254877 -0.04971392 C68.39078425 -0.03843334 74.85895364 -0.03688565 81.32719612 -0.04233301 C82.2469192 -0.04309917 83.16664228 -0.04386534 84.11423576 -0.04465472 C85.98249072 -0.04625331 87.85074566 -0.04787437 89.71900058 -0.04951768 C107.24786939 -0.06378389 124.77660758 -0.0473688 142.30545497 -0.02051584 C157.35412895 0.00182373 172.4026101 -0.00205615 187.45128059 -0.02510965 C204.91635312 -0.05185228 222.38131108 -0.06241051 239.84640121 -0.04704833 C241.70787873 -0.04545554 243.56935626 -0.04388369 245.43083382 -0.04233301 C246.80474653 -0.04117594 246.80474653 -0.04117594 248.20641506 -0.0399955 C254.66874109 -0.03567388 261.1309946 -0.04297498 267.5933094 -0.05473077 C275.46610991 -0.06873726 283.33866108 -0.06499499 291.21143293 -0.03832705 C295.23022469 -0.02516373 299.24860039 -0.02007882 303.2673893 -0.03657281 C306.94390459 -0.05143411 310.61961683 -0.04334889 314.29605889 -0.01668505 C316.26132797 -0.00842288 318.22665248 -0.02481218 320.19186401 -0.04197121 C321.35384874 -0.02893247 322.51583347 -0.01589373 323.71302986 -0.00245988 C324.71787989 -0.00164812 325.72272991 -0.00083636 326.75802994 0 C330.36899269 0.86347529 331.42965482 2.55347001 333.37901497 5.62674582 C333.58604622 8.09940207 333.58604622 8.09940207 333.19151497 10.68924582 C333.06518684 11.65862082 332.93885872 12.62799582 332.80870247 13.62674582 C332.59600716 15.11174582 332.59600716 15.11174582 332.37901497 16.62674582 C329.82687697 39.66142725 331.67950526 63.31161302 334.17979622 86.29471457 C335.89792486 102.10332156 336.67775726 117.65949637 336.69151497 133.56424582 C336.6949189 134.50047781 336.69832283 135.43670981 336.70182991 136.40131247 C336.70745476 139.08996296 336.69698225 141.77799689 336.67979622 144.46658957 C336.68057671 145.2590911 336.68135719 146.05159262 336.68216133 146.86810935 C336.63505509 150.66703696 336.34064618 154.05776077 335.37022591 157.73514426 C333.76308693 164.40301539 334.15455342 171.24058794 334.21885872 178.05252707 C334.22560318 179.60279555 334.23128548 181.15306895 334.23599434 182.70334494 C334.24751612 186.03415172 334.26454353 189.36486537 334.28581429 192.69562399 C334.34172651 201.70902513 334.35251221 210.72257637 334.36729622 219.73612082 C334.36909637 220.6706112 334.37089653 221.60510157 334.37275124 222.56790984 C334.55827104 323.72948812 334.55827104 323.72948812 331.37901497 373.62674582 C331.31456184 374.63859946 331.25010872 375.6504531 331.18370247 376.69296896 C323.6922141 492.48196092 323.6922141 492.48196092 309.06660557 511.31687129 C306.90635338 512.99361642 305.7003855 513.0059725 302.98303413 513.01442587 C301.63504738 513.02928282 301.63504738 513.02928282 300.25982857 513.04443991 C299.27636955 513.03993826 298.29291054 513.03543662 297.27964973 513.03079855 C296.24200478 513.03766181 295.20435982 513.04452506 294.13527107 513.05159628 C290.69684955 513.06993428 287.25888126 513.06601667 283.82042122 513.06033957 C281.43532347 513.06489805 279.05022703 513.07020262 276.66513252 513.07622397 C271.66239784 513.08516889 266.65982267 513.08271622 261.65709114 513.07279074 C255.23962221 513.06130047 248.82270345 513.08150703 242.40530682 513.11070788 C237.47856321 513.12903625 232.55195224 513.12878408 227.62518311 513.12307036 C225.25884861 513.12291673 222.89250535 513.12899542 220.52620316 513.14136183 C217.21970727 513.15620577 213.91423805 513.14564243 210.60777473 513.1284548 C209.62633995 513.13812277 208.64490517 513.14779074 207.63372993 513.15775168 C201.05020609 513.08593262 201.05020609 513.08593262 197.82780647 510.88136923 C196.32403542 508.54118611 195.57376988 506.75927645 194.96959114 504.05106223 C194.65142433 502.67469847 194.65142433 502.67469847 194.32682991 501.27052939 C194.11073067 500.26659644 193.89463142 499.26266348 193.67198372 498.22830832 C193.42970039 497.15851233 193.18741707 496.08871634 192.93779182 494.98650229 C192.132606 491.41137726 191.34931581 487.83183353 190.56651497 484.25174582 C190.00503239 481.73306366 189.44259389 479.21459443 188.87925911 476.6963259 C187.01702317 468.34606589 185.19530668 459.98710031 183.37901497 451.62674582 C183.21593849 450.87674559 183.05286201 450.12674536 182.88484383 449.35401785 C177.97973695 426.79332427 173.11576679 404.22344558 168.37901497 381.62674582 C168.15272408 380.54878745 167.92643318 379.47082907 167.69328499 378.36020529 C167.10423961 375.54016967 166.52276739 372.71872792 165.94542122 369.89627707 C165.78114128 369.10927924 165.61686134 368.3222814 165.44760323 367.51143515 C164.70604916 363.83221897 164.19354998 360.38368367 164.37901497 356.62674582 C163.71901497 356.62674582 163.05901497 356.62674582 162.37901497 356.62674582 C162.32935081 357.23215201 162.27968666 357.8375582 162.22851753 358.46131003 C161.67365485 364.63333636 160.71068664 370.60467981 159.43760872 376.66580832 C159.2382975 377.63281668 159.03898628 378.59982504 158.83363533 379.59613669 C158.16735411 382.81597321 157.49245343 386.03392368 156.81651497 389.25174582 C156.46627769 390.93101157 156.46627769 390.93101157 156.10896492 392.64420187 C151.56283232 414.42707921 146.77328448 436.15574072 141.94151497 457.87674582 C141.76767658 458.65842375 141.5938382 459.44010169 141.41473198 460.24546683 C139.6271487 468.28087712 137.83214032 476.3144859 136.016222 484.3435427 C135.03621052 488.67801338 134.07708474 493.01492182 133.15977669 497.36307395 C132.98510368 498.16750937 132.81043068 498.97194479 132.63046455 499.80075705 C132.20400665 501.76649042 131.79056558 503.73503695 131.37877083 505.70389426 C130.16816231 509.24318735 129.43028211 510.4344875 126.37901497 512.62674582 C122.98071018 513.23921894 119.61142792 513.18313876 116.16612434 513.16019309 C115.12833336 513.16880866 114.09054237 513.17742423 113.02130318 513.18630087 C109.58820398 513.20901827 106.15591718 513.20221139 102.72276497 513.19315207 C100.3390955 513.19838485 97.9554281 513.20466005 95.57176399 513.21193564 C90.5749608 513.22235039 85.57844221 513.21776235 80.58165169 513.20316184 C74.17193406 513.18596779 67.76311229 513.20947243 61.35349464 513.24465144 C56.4310173 513.26658942 51.50875552 513.26519268 46.58624458 513.25688612 C44.22269902 513.25606473 41.85913793 513.26296379 39.49563789 513.27765715 C36.19382992 513.29503687 32.89364751 513.280614 29.59190559 513.25784934 C28.61204185 513.26954154 27.63217812 513.28123374 26.62262154 513.29328024 C19.99203735 513.20005788 19.99203735 513.20005788 16.79756355 510.21251547 C15.5819304 507.99662568 14.5947457 506.05144933 13.88682747 503.63455832 C13.54627327 502.47851096 13.54627327 502.47851096 13.19883919 501.2991091 C12.8549012 500.03816428 12.8549012 500.03816428 12.50401497 498.75174582 C12.25280891 497.84537375 12.00160286 496.93900168 11.7427845 496.00516379 C-4.32150618 435.87140199 -5.86677726 371.55268186 -7.17567253 309.65799582 C-7.1974412 308.63439459 -7.21920986 307.61079337 -7.24163818 306.55617392 C-7.61556109 288.33933136 -7.68675994 270.12822394 -7.64832878 251.90799582 C-7.64571981 250.60839926 -7.64311085 249.3088027 -7.64042282 247.96982443 C-7.61572908 236.62993915 -7.57990584 225.29009369 -7.53348881 213.95027745 C-7.50334382 206.57834704 -7.48237393 199.20648057 -7.47016907 191.83449423 C-7.46400166 189.32436012 -7.45405046 186.81423211 -7.44009018 184.30412924 C-7.42085138 180.83154735 -7.4139788 177.35913948 -7.40980339 173.88651145 C-7.40104179 172.87376151 -7.3922802 171.86101157 -7.3832531 170.81757224 C-7.39050914 165.52503105 -7.81130456 160.74268744 -9.16253757 155.61671031 C-9.97917372 152.07197055 -9.94543723 148.51117093 -9.95692253 144.88846457 C-9.96507484 144.06607794 -9.97322716 143.24369132 -9.98162651 142.39638388 C-10.0006829 139.70217462 -10.00052723 137.0085135 -9.99598503 134.31424582 C-9.99710289 133.38255576 -9.99822075 132.45086569 -9.99937248 131.4909426 C-9.9891634 113.99555365 -8.68275511 96.73686389 -6.86071587 79.34674704 C-6.77258125 78.50328726 -6.68444664 77.65982749 -6.59364128 76.79080832 C-6.50683601 75.9604003 -6.42003075 75.12999228 -6.33059502 74.27442038 C-4.4475134 55.54498078 -3.52596298 36.44083929 -5.90931511 17.73929465 C-7.31320259 6.72196572 -7.31320259 6.72196572 -4.95557785 2.99175477 C-2.62098503 0.62674582 -2.62098503 0.62674582 0 0 Z " fill="#010101" transform="translate(92.62098503112793,-0.6267458200454712)"/>
<path d="M0 0 C101.64 0 203.28 0 308 0 C308 10.89 308 21.78 308 33 C304.1328125 33.928125 304.1328125 33.928125 300.1875 34.875 C267.36388618 43.30902743 233.1767825 57.72664251 207.71484375 80.56640625 C206.12158266 81.99461008 204.49919225 83.39329982 202.81640625 84.71484375 C192.1664048 93.13627347 185.2850474 105.55994173 179.43603516 117.56542969 C175.32014585 125.88131331 170.17730506 129.91134747 162 134 C151.47323959 134.73470525 143.66515113 134.74291723 135.3125 127.75 C131.01922746 122.64448671 127.89546682 116.93156775 124.96948242 110.96118164 C121.54279934 104.03404492 117.73937568 97.92604938 112.6875 92.0625 C112.18404053 91.47774902 111.68058105 90.89299805 111.16186523 90.29052734 C108.70543247 87.5524105 106.55024257 85.15623766 103 84 C99.38537214 84.07578955 99.38537214 84.07578955 96 85 C93.59167906 88.61248141 93.27639145 89.73874968 94 94 C95.48594567 96.03388814 97.16137504 97.80165968 98.8828125 99.640625 C106.27142901 107.8744338 111.51623852 117.37602854 116.28637695 127.28833008 C121.33634788 137.43614401 129.26271908 144.19413731 140 147.8125 C141.33227505 148.21188075 142.66543951 148.60832399 144 149 C142.45200298 158.75414699 140.59182713 168.43597194 138.6875 178.125 C138.05531359 181.35012824 137.42400427 184.57542765 136.79296875 187.80078125 C136.63734467 188.59544296 136.48172058 189.39010468 136.32138062 190.20884705 C135.42067168 194.81681092 134.53783384 199.42757835 133.67578125 204.04296875 C131.35971894 216.42411728 128.76021395 228.71017719 125.93969727 240.98632812 C122.69582479 255.14606635 119.7108588 269.36027845 116.7277832 283.5769043 C113.66474684 298.10218777 110.33981062 312.5274873 107 327 C78.29 327 49.58 327 20 327 C12.57529701 301.01353952 8.58602479 274.84760361 6 248 C5.91492188 247.12128235 5.82984375 246.2425647 5.7421875 245.33721924 C-0.53751337 179.93569306 -0.26558217 114.63161775 0 49 C1.43002931 49.30998583 2.85959135 49.6221277 4.28895569 49.93516541 C5.48316179 50.19555052 5.48316179 50.19555052 6.70149326 50.46119595 C9.7055046 51.16538074 12.58477051 52.11015958 15.49609375 53.12890625 C16.63111328 53.52400391 17.76613281 53.91910156 18.93554688 54.32617188 C20.09119141 54.73416016 21.24683594 55.14214844 22.4375 55.5625 C23.62021484 55.97435547 24.80292969 56.38621094 26.02148438 56.81054688 C34.67199405 59.83599702 34.67199405 59.83599702 37 61 C40.19200721 61.27756584 42.4070908 61.24964598 45.375 60 C47.56215014 57.30812291 47.47997334 55.32175925 47.53125 51.9375 C46.7740136 49.1758143 45.36940142 48.55776237 43 47 C41.27218332 46.24217671 39.51409663 45.55134292 37.73828125 44.9140625 C36.70896484 44.5428125 35.67964844 44.1715625 34.61914062 43.7890625 C33.52794922 43.40492188 32.43675781 43.02078125 31.3125 42.625 C30.19939453 42.22796875 29.08628906 41.8309375 27.93945312 41.421875 C20.64479607 38.84877407 13.31932709 36.47289473 5.86450195 34.40869141 C1.08498335 33.08498335 1.08498335 33.08498335 0 32 C0 21.44 0 10.88 0 0 Z " fill="#E19F97" transform="translate(102,169)"/>
<path d="M0 0 C99.99 0 199.98 0 303 0 C303.33 12.87 303.66 25.74 304 39 C304.58336981 47.91340457 305.20927165 56.79466068 306 65.6875 C306.18073164 67.81696893 306.36041465 69.94652712 306.5390625 72.07617188 C307.40002692 82.31948173 307.40002692 82.31948173 308.34326172 92.55541992 C309.04484457 99.99707544 309.15355008 107.40715363 309.13037109 114.87524414 C309.12494343 116.95921894 309.1303882 119.04298425 309.13671875 121.12695312 C309.13605893 122.46875047 309.13477978 123.81054769 309.1328125 125.15234375 C309.13168457 126.34851318 309.13055664 127.54468262 309.12939453 128.77709961 C309 132 309 132 308 137 C205.04 137 102.08 137 -4 137 C-7.08965263 121.55173687 -5.15991778 104.65368913 -3.90625 89.04296875 C-3.85140442 88.35892094 -3.79655884 87.67487312 -3.74005127 86.97009659 C-3.22822824 80.6477879 -2.68652637 74.32809494 -2.13623047 68.0090332 C-0.17160395 45.17526175 0 23.05707106 0 0 Z " fill="#E19F97" transform="translate(104,16)"/>
<path d="M0 0 C0.52483962 128.21974762 0.52483962 128.21974762 -4.78967285 184.73535156 C-5.00424119 187.04566604 -5.2097038 189.35664433 -5.41308594 191.66796875 C-7.03016186 209.91787611 -9.27164207 227.96086868 -12.5 246 C-12.71529358 247.21367752 -12.71529358 247.21367752 -12.93493652 248.45187378 C-13.3527526 250.78241268 -13.78291062 253.11026997 -14.21875 255.4375 C-14.3385321 256.0975856 -14.45831421 256.7576712 -14.58172607 257.4377594 C-15.93954147 264.4753603 -18.00517847 271.01812465 -20 278 C-48.71 278 -77.42 278 -107 278 C-114.93056605 242.8789218 -114.93056605 242.8789218 -117.91598511 228.77587891 C-120.2260969 217.86405121 -122.54022106 206.95342955 -125 196.07421875 C-125.24107986 195.0074868 -125.24107986 195.0074868 -125.48703003 193.91920471 C-125.64712555 193.21102097 -125.80722107 192.50283722 -125.97216797 191.77319336 C-129.65561512 175.47816085 -133.04458876 159.1335124 -136.3125 142.75 C-136.52550751 141.68241455 -136.73851501 140.6148291 -136.95797729 139.51489258 C-138.31945259 132.67934037 -139.66778524 125.84131557 -141 119 C-141.162724 118.16460693 -141.325448 117.32921387 -141.49310303 116.46850586 C-141.93023771 114.21409482 -142.36282778 111.95887963 -142.79296875 109.703125 C-143.02910889 108.46723633 -143.26524902 107.23134766 -143.50854492 105.95800781 C-144 103 -144 103 -144 100 C-143.2265625 99.70867187 -142.453125 99.41734375 -141.65625 99.1171875 C-126.59989993 93.19154478 -119.31209226 85.26970144 -112.375 70.875 C-107.43181084 61.04824347 -102.15684136 53.34545596 -94 46 C-93.05640625 45.12601562 -92.1128125 44.25203125 -91.140625 43.3515625 C-67.52312694 22.60646285 -37.25905466 11.15547399 -7.83984375 1.46875 C-6.54614868 1.04239258 -6.54614868 1.04239258 -5.22631836 0.60742188 C-3 0 -3 0 0 0 Z " fill="#E19F97" transform="translate(410,218)"/>
<path d="M0 0 C101.64 0 203.28 0 308 0 C308 10.89 308 21.78 308 33 C304.1328125 33.928125 304.1328125 33.928125 300.1875 34.875 C267.36388618 43.30902743 233.1767825 57.72664251 207.71484375 80.56640625 C206.12158266 81.99461008 204.49919225 83.39329982 202.81640625 84.71484375 C192.1664048 93.13627347 185.2850474 105.55994173 179.43603516 117.56542969 C175.32014585 125.88131331 170.17730506 129.91134747 162 134 C151.47323959 134.73470525 143.66515113 134.74291723 135.3125 127.75 C131.01922746 122.64448671 127.89546682 116.93156775 124.96948242 110.96118164 C121.54279934 104.03404492 117.73937568 97.92604938 112.6875 92.0625 C112.18404053 91.47774902 111.68058105 90.89299805 111.16186523 90.29052734 C108.65507282 87.49627601 106.52730572 85.32746298 103 84 C100.89380402 84.17463725 100.89380402 84.17463725 98.75390625 84.71484375 C94.92594853 85.24757244 93.04857833 84.85658706 89.83984375 82.69140625 C88.51954117 81.67326247 87.21865558 80.62948456 85.9375 79.5625 C85.26267578 79.03333984 84.58785156 78.50417969 83.89257812 77.95898438 C82.24417409 76.6613046 80.61949849 75.33357913 79 74 C79.495 72.515 79.495 72.515 80 71 C80.4378085 66.3585083 80.4378085 66.3585083 78.875 62.125 C76.11377619 60.46826572 74.23421175 60 71 60 C69.31288577 61.6459651 67.6454378 63.31237149 66 65 C59.69179792 64.48076095 53.22618676 61.43498312 48 58 C46.71288627 55.1216444 46.94697542 53.23449937 47 50 C44.27395064 47.37095313 41.26661502 46.18026283 37.73828125 44.9140625 C36.70896484 44.5428125 35.67964844 44.1715625 34.61914062 43.7890625 C33.52794922 43.40492188 32.43675781 43.02078125 31.3125 42.625 C30.19939453 42.22796875 29.08628906 41.8309375 27.93945312 41.421875 C20.64479607 38.84877407 13.31932709 36.47289473 5.86450195 34.40869141 C1.08498335 33.08498335 1.08498335 33.08498335 0 32 C0 21.44 0 10.88 0 0 Z " fill="#FCC249" transform="translate(102,169)"/>
<path d="M0 0 C103.62 0 207.24 0 314 0 C313.67 2.97 313.34 5.94 313 9 C210.04 9 107.08 9 1 9 C0.67 6.03 0.34 3.06 0 0 Z " fill="#D78D97" transform="translate(99,144)"/>
<path d="M0 0 C100.98 0 201.96 0 306 0 C306 2.64 306 5.28 306 8 C304.70489502 8.00410889 303.40979004 8.00821777 302.07543945 8.01245117 C297.212582 8.03442977 292.35051234 8.08891038 287.48803711 8.15258789 C285.39436465 8.17560589 283.30057905 8.19012506 281.20678711 8.19555664 C265.44695984 8.13961199 265.44695984 8.13961199 250.60400391 12.8737793 C244.93353134 15.32623476 238.82883209 15.11064167 233.11778069 12.86839771 C232.08696939 12.41753646 231.0561581 11.96667521 229.99411011 11.50215149 C220.15608469 7.90608003 210.39431659 8.2941777 200.03173828 8.34057617 C197.84249971 8.33210971 195.65326867 8.32145957 193.46405029 8.30880737 C187.56000269 8.28080406 181.65632019 8.28310735 175.75222635 8.29110122 C169.56758235 8.29423818 163.38305222 8.26915713 157.19845581 8.24714661 C145.50454883 8.20977672 133.81075814 8.19756278 122.11679733 8.1945222 C108.79622615 8.18982372 95.47579931 8.15687506 82.15527749 8.12162435 C54.77019902 8.04978316 27.38516513 8.01318797 0 8 C0 5.36 0 2.72 0 0 Z " fill="#FFE196" transform="translate(103,170)"/>
<path d="M0 0 C7.7405283 1.51175739 15.00786264 3.93954381 22.4375 6.5625 C23.62021484 6.97435547 24.80292969 7.38621094 26.02148438 7.81054688 C34.67199405 10.83599702 34.67199405 10.83599702 37 12 C41.32416352 12.43391696 41.32416352 12.43391696 45 10.4375 C47 9 47 9 49.6953125 9.21875 C53.37577681 10.08883613 56.46724753 11.42816973 59.875 13.0625 C61.02742188 13.61035156 62.17984375 14.15820312 63.3671875 14.72265625 C64.23601562 15.14417969 65.10484375 15.56570312 66 16 C66.268125 15.38125 66.53625 14.7625 66.8125 14.125 C68 12 68 12 71 10 C74.47746165 10.14797709 76.4937085 10.65359003 79.375 12.625 C81.59685327 15.87232402 81.27601934 18.1357293 81 22 C80.54425817 25.82676134 80.54425817 25.82676134 82.28515625 27.37207031 C82.87167969 27.77006836 83.45820313 28.16806641 84.0625 28.578125 C84.69414062 29.01640625 85.32578125 29.4546875 85.9765625 29.90625 C86.64429688 30.3496875 87.31203125 30.793125 88 31.25 C88.66773438 31.70890625 89.33546875 32.1678125 90.0234375 32.640625 C91.67407631 33.77249161 93.33601508 34.88784681 95 36 C94.85087158 36.60811523 94.70174316 37.21623047 94.5480957 37.84277344 C93.78269289 41.24302446 93.3014836 43.85823897 95.17578125 46.921875 C96.37891835 48.21628457 97.60545054 49.48912916 98.84765625 50.74609375 C106.42278734 58.67867204 111.56901269 68.48569276 116.28637695 78.28833008 C121.33634788 88.43614401 129.26271908 95.19413731 140 98.8125 C141.33007114 99.21916026 142.6623151 99.61913138 144 100 C142.9413873 106.75710231 141.77874156 113.39324562 140 120 C123.65463493 114.19893098 115.51983562 105.70419942 108.09765625 90.30078125 C97.02769426 67.38538743 80.98082566 48.54372729 60 34 C59.38495605 33.57299805 58.76991211 33.14599609 58.13623047 32.70605469 C43.21985743 22.47832404 27.31519363 13.64286909 10.8125 6.25 C9.69016968 5.74690308 9.69016968 5.74690308 8.54516602 5.23364258 C5.54047196 3.93065997 3.30980719 3 0 3 C0 2.01 0 1.02 0 0 Z " fill="#D68D96" transform="translate(102,218)"/>
<path d="M0 0 C0 0.66 0 1.32 0 2 C-0.53665283 2.22026855 -1.07330566 2.44053711 -1.6262207 2.66748047 C-30.40066254 14.55118136 -57.37111897 29.30774484 -80 51 C-80.90234375 51.83917969 -81.8046875 52.67835938 -82.734375 53.54296875 C-93.67669755 64.01676644 -100.62662702 75.68895377 -107.11083984 89.15771484 C-113.0881154 101.54226217 -120.2947051 112.70486648 -133.5703125 118.03125 C-135.7017118 118.75285227 -137.82772981 119.41456548 -140 120 C-142.0866877 117.9133123 -142.04208756 113.98851343 -142.5625 111.125 C-142.70107422 110.39152344 -142.83964844 109.65804687 -142.98242188 108.90234375 C-143.53888086 105.89253114 -144 103.06742156 -144 100 C-143.2265625 99.70867187 -142.453125 99.41734375 -141.65625 99.1171875 C-126.59989993 93.19154478 -119.31209226 85.26970144 -112.375 70.875 C-107.43181084 61.04824347 -102.15684136 53.34545596 -94 46 C-93.05640625 45.12601562 -92.1128125 44.25203125 -91.140625 43.3515625 C-67.52312694 22.60646285 -37.25905466 11.15547399 -7.83984375 1.46875 C-6.54614868 1.04239258 -6.54614868 1.04239258 -5.22631836 0.60742188 C-3 0 -3 0 0 0 Z " fill="#D48C95" transform="translate(410,218)"/>
<path d="M0 0 C3.7454364 1.15768034 4.99770802 2.07128382 7.4375 5.0625 C8.466536 8.96755968 8.33104477 13.03767335 8.4375 17.0625 C8.47391602 17.8654248 8.51033203 18.66834961 8.54785156 19.49560547 C8.66594362 22.16359289 8.74377354 24.8303157 8.8125 27.5 C8.85084961 28.36431641 8.88919922 29.22863281 8.92871094 30.11914062 C8.98633841 34.59312794 8.89644899 36.45902436 6.10546875 40.12890625 C3.4375 42.0625 3.4375 42.0625 0.375 42.5625 C-2.84125747 42.01505192 -4.2700691 41.3549309 -6.5625 39.0625 C-8.28852013 33.8844396 -8.27926019 28.48680955 -8.5625 23.0625 C-8.6032666 22.30727051 -8.6440332 21.55204102 -8.68603516 20.77392578 C-8.80120135 18.37013771 -8.87457283 15.96817875 -8.9375 13.5625 C-8.97560791 12.79736084 -9.01371582 12.03222168 -9.05297852 11.24389648 C-9.11555457 7.04295751 -8.89765928 5.50349905 -6.26171875 2.03515625 C-3.5625 0.0625 -3.5625 0.0625 0 0 Z " fill="#060404" transform="translate(138.5625,331.9375)"/>
<path d="M0 0 C3.72183666 0.77538264 5.32509298 1.93667371 8 4.625 C8.5234375 7.48046875 8.5234375 7.48046875 8.375 10.8125 C8.32601563 12.04355469 8.27703125 13.27460938 8.2265625 14.54296875 C8.16903809 15.52982666 8.16903809 15.52982666 8.11035156 16.53662109 C7.99448333 18.72940172 7.94280658 20.91795587 7.8984375 23.11328125 C7.85097935 24.61725263 7.80153387 26.12116276 7.75 27.625 C7.73630371 28.33035889 7.72260742 29.03571777 7.70849609 29.76245117 C7.46608359 34.77609098 6.14594883 37.7457849 3 41.625 C0.074084 43.087958 -1.75617347 43.07023109 -5 42.625 C-7.99568078 39.98810927 -9.76517824 38.31212593 -10.32250977 34.30786133 C-10.30368525 31.61853484 -10.12513597 28.99009186 -9.875 26.3125 C-9.813125 25.41337891 -9.75125 24.51425781 -9.6875 23.58789062 C-9.49524437 20.92899526 -9.25333808 18.27869773 -9 15.625 C-8.93288818 14.78412842 -8.86577637 13.94325684 -8.79663086 13.0769043 C-8.72581299 12.28582275 -8.65499512 11.49474121 -8.58203125 10.6796875 C-8.52249268 9.98214355 -8.4629541 9.28459961 -8.40161133 8.56591797 C-7.44042484 3.92067019 -4.69161234 0.97741924 0 0 Z " fill="#060404" transform="translate(371,383.375)"/>
<path d="M0 0 C2.875 1.75 2.875 1.75 5 5 C5.59196181 9.02264959 5.24943388 12.95409784 5 17 C4.95039765 18.61055803 4.90509925 20.2212523 4.86328125 21.83203125 C4.80630237 23.533909 4.74770784 25.23573342 4.6875 26.9375 C4.6654248 27.75428223 4.64334961 28.57106445 4.62060547 29.41259766 C4.40754116 34.03981937 3.98130512 37.23840267 1 41 C-1.88861709 42.44430855 -3.79647701 42.37688506 -7 42 C-9.80377337 39.98210179 -11.72090247 38.40318122 -12.41625977 34.90722656 C-12.53070296 32.39938263 -12.48650087 29.94545144 -12.375 27.4375 C-12.35139404 26.54796631 -12.32778809 25.65843262 -12.3034668 24.74194336 C-12.25019465 22.97044344 -12.18464097 21.19926416 -12.10595703 19.42871094 C-12.01536069 17.35209253 -11.96986758 15.27358965 -11.93359375 13.1953125 C-11.74939794 8.42998869 -11.51260059 5.76157802 -8.8125 1.75 C-5.42241631 -0.35938541 -3.91474796 -0.81557249 0 0 Z " fill="#050303" transform="translate(377,332)"/>
<path d="M0 0 C4.06682685 0.84725559 5.40526486 2.41770893 8 5.625 C8.61523438 8.95898438 8.61523438 8.95898438 8.59375 12.71875 C8.59379028 13.38789429 8.59383057 14.05703857 8.59387207 14.74645996 C8.58853279 16.15512533 8.57101758 17.56379154 8.54199219 18.97216797 C8.50011513 21.11909748 8.50092865 23.2628868 8.5078125 25.41015625 C8.4186295 37.0849596 8.4186295 37.0849596 5 41.625 C2.11138291 43.06930855 0.20352299 43.00188506 -3 42.625 C-6.40162826 39.98019185 -7.83825865 38.48143572 -8.64697266 34.19921875 C-8.6526123 32.91660156 -8.65825195 31.63398438 -8.6640625 30.3125 C-8.66884613 29.62115967 -8.67362976 28.92981934 -8.67855835 28.2175293 C-8.68194736 26.76185824 -8.6728145 25.30611004 -8.65185547 23.85058594 C-8.62506546 21.63042503 -8.65162647 19.41531739 -8.68359375 17.1953125 C-8.68028946 15.77603058 -8.67388281 14.35675179 -8.6640625 12.9375 C-8.65842285 11.65488281 -8.6527832 10.37226563 -8.64697266 9.05078125 C-7.67949146 3.92787702 -5.14213374 1.07127786 0 0 Z " fill="#030202" transform="translate(375,279.375)"/>
<path d="M0 0 C3.79682998 1.17356563 5.05298646 1.93932128 7.4375 5.0625 C7.97094727 8.37475586 7.97094727 8.37475586 8.00390625 12.27734375 C8.01320412 13.31647667 8.01320412 13.31647667 8.02268982 14.37660217 C8.02977657 15.83821206 8.02663373 17.29990287 8.01391602 18.76147461 C8.00006035 20.9902918 8.03411125 23.21489748 8.07226562 25.44335938 C8.07321705 26.86718852 8.07135671 28.29102289 8.06640625 29.71484375 C8.06713135 31.00382568 8.06785645 32.29280762 8.06860352 33.62084961 C7.28002173 37.92128963 5.84206228 39.40259757 2.4375 42.0625 C-1.06662619 42.63460224 -2.78654484 42.50290698 -5.875 40.75 C-10.26918335 36.35581665 -8.86374261 28.69976752 -8.91259766 22.86621094 C-8.92916016 21.41715436 -8.95645506 19.9681796 -8.99462891 18.51953125 C-9.04956506 16.42144784 -9.07129062 14.32526937 -9.0859375 12.2265625 C-9.10575684 10.97311035 -9.12557617 9.7196582 -9.14599609 8.42822266 C-8.20003506 2.97172942 -5.59105173 0.09808863 0 0 Z " fill="#030202" transform="translate(137.5625,279.9375)"/>
<path d="M0 0 C3.64488955 3.1051527 4.32794218 5.94880519 4.828125 10.52734375 C4.9869922 12.66278366 5.12703443 14.79969227 5.25 16.9375 C5.32734375 18.00935547 5.4046875 19.08121094 5.484375 20.18554688 C6.45496222 34.181068 6.45496222 34.181068 4.4375 37.8125 C1.21466844 40.70478473 -0.68807302 41.15129568 -5 41 C-7.678348 38.84567661 -9.46254419 37.07491161 -11 34 C-11.44545054 28.46761431 -11.67265878 22.92862856 -11.89599609 17.38330078 C-11.98577629 15.32594334 -12.10890037 13.27009087 -12.23828125 11.21484375 C-12.56136327 3.76549537 -12.56136327 3.76549537 -9.9375 0.1875 C-6.05675542 -1.38131164 -3.99076614 -1.23350953 0 0 Z " fill="#050303" transform="translate(145,385)"/>
<path d="M0 0 C3.5625 0.5625 3.5625 0.5625 6.5 2.625 C10.58553805 8.44379661 8.19641897 16.46368764 7.25 23.1875 C7.13205078 24.115625 7.01410156 25.04375 6.89257812 26 C6.22513589 30.77820184 5.66280265 34.68903546 2.5625 38.5625 C-0.70807143 40.74288095 -1.64269469 41.19496755 -5.4375 40.5625 C-8.10546875 38.49609375 -8.10546875 38.49609375 -10.4375 35.5625 C-10.77734375 32.1015625 -10.77734375 32.1015625 -10.375 28.1875 C-10.30772705 27.49430664 -10.2404541 26.80111328 -10.17114258 26.08691406 C-10.02473921 24.63829129 -9.86528032 23.19093359 -9.69335938 21.74511719 C-9.44253982 19.60549239 -9.24055556 17.46577394 -9.046875 15.3203125 C-8.01283258 5.30100464 -8.01283258 5.30100464 -5.578125 2.17578125 C-3.4375 0.5625 -3.4375 0.5625 0 0 Z " fill="#050303" transform="translate(366.4375,435.4375)"/>
<path d="M0 0 C3.94745278 0.7401474 5.27434588 1.56471938 8 4.5625 C9.0715525 8.26230924 9.43573793 11.98728506 9.8125 15.8125 C9.93302734 16.82441406 10.05355469 17.83632813 10.17773438 18.87890625 C11.92322024 34.25913025 11.92322024 34.25913025 8.875 38.5625 C6 40.5625 6 40.5625 2.9375 41.125 C-0.78086089 40.41297345 -1.82992571 39.66260613 -4 36.5625 C-5.80753335 31.34073698 -6.41145369 25.96508758 -7.125 20.5 C-7.21281738 19.82743164 -7.30063477 19.15486328 -7.39111328 18.46191406 C-8.8158038 6.69022878 -8.8158038 6.69022878 -5.875 2.625 C-3 0.5625 -3 0.5625 0 0 Z " fill="#050303" transform="translate(145,435.4375)"/>
<path d="M0 0 C3.42798445 1.16697343 4.88859294 2.00544352 6.9375 5 C7.50038002 8.94016013 7.54146028 11.05782196 5.375 14.4375 C1.95435857 16.63021887 -0.07201279 16.63007693 -4.0625 16 C-7.0625 13.9375 -7.0625 13.9375 -9.0625 11 C-9.2144185 6.67032286 -8.73561337 4.76927242 -5.875 1.5 C-3.0625 0 -3.0625 0 0 0 Z " fill="#090603" transform="translate(176.0625,228)"/>
<path d="M0 0 C4.11289267 0.85685264 5.59686932 2.20235933 8 5.625 C8 9.14633145 7.69441423 11.46764294 5.875 14.5 C2.89605036 16.28736979 0.44725099 16.56452191 -3 16.625 C-6.30261862 14.53913561 -6.90966686 12.91725427 -8.0625 9.1875 C-8 5.625 -8 5.625 -5.9375 2.6875 C-3 0.625 -3 0.625 0 0 Z " fill="#060404" transform="translate(256,114.375)"/>
<path d="M0 0 C3.5625 0.1875 3.5625 0.1875 5.5625 2.1875 C5.5625 3.5075 5.5625 4.8275 5.5625 6.1875 C2.54925805 7.69412097 -0.12036377 7.36520373 -3.4375 7.1875 C-4.0975 6.5275 -4.7575 5.8675 -5.4375 5.1875 C-4.79267676 0.93166659 -4.45579755 0.2430435 0 0 Z " fill="#FFE093" transform="translate(369.4375,181.8125)"/>
</svg>
