<?xml version="1.0" encoding="UTF-8"?>
<svg version="1.1" xmlns="http://www.w3.org/2000/svg" width="512" height="512">
<path d="M0 0 C1.01823853 0.00215515 2.03647705 0.0043103 3.08557129 0.00653076 C17.70747424 0.05622604 32.00633932 0.36188758 46.375 3.3125 C47.89383789 3.61051514 47.89383789 3.61051514 49.44335938 3.91455078 C98.3152752 13.68746984 142.55172645 36.70874214 178.375 71.3125 C178.99584473 71.91143066 179.61668945 72.51036133 180.25634766 73.12744141 C188.15480455 80.78864803 195.7332538 88.51331583 202.375 97.3125 C202.85646484 97.94462402 203.33792969 98.57674805 203.83398438 99.22802734 C212.30537774 110.41120437 219.6898185 121.98229489 226.375 134.3125 C226.91350586 135.29669922 226.91350586 135.29669922 227.46289062 136.30078125 C241.33861254 161.92974372 249.78948493 189.62437133 254.375 218.3125 C254.55289063 219.38491943 254.55289063 219.38491943 254.734375 220.47900391 C263.23819901 274.17204745 252.92141589 343.20134878 220.49072266 387.91015625 C219.81960449 388.79574219 219.14848633 389.68132812 218.45703125 390.59375 C211.57118457 398.84328845 211.57118457 398.84328845 208.23046875 408.68115234 C208.77357705 412.39106123 210.02110567 415.53068132 211.69140625 418.8671875 C216.01395521 427.71286774 214.6430133 438.38075417 213.3984375 447.8671875 C213.37079119 450.75161953 213.60299512 452.02572275 215.375 454.3125 C219.61828496 456.26720352 223.07656972 456.44647777 227.6875 456.1875 C236.17344735 456.07165089 242.60028165 458.687007 248.80078125 464.51171875 C254.96013819 471.557534 256.12621102 478.53178226 255.80078125 487.74609375 C254.98257118 494.59954136 252.28072574 500.40677426 247.375 505.3125 C235.72168897 514.05885817 221.125479 513.89992128 207.11962891 512.0078125 C194.00522048 509.46598402 183.68594811 502.5915066 174.375 493.3125 C173.73691406 492.69761719 173.09882813 492.08273437 172.44140625 491.44921875 C164.01922233 482.68939716 159.63569333 471.06810532 157.375 459.3125 C155.89966797 460.40304687 155.89966797 460.40304687 154.39453125 461.515625 C99.2251054 501.71126395 30.02508301 520.19562967 -37.82226562 509.82373047 C-66.13174817 505.11809901 -93.28544413 496.89341843 -118.625 483.3125 C-119.33720703 482.93899414 -120.04941406 482.56548828 -120.78320312 482.18066406 C-139.17091058 472.52028057 -155.79730193 460.60203755 -171.12890625 446.5859375 C-172.76662692 445.09430459 -174.41995423 443.61959219 -176.08984375 442.1640625 C-222.75151539 401.32588542 -250.3277334 338.51273628 -255.4440918 277.44335938 C-255.84355427 270.53012485 -255.86983098 263.61030112 -255.875 256.6875 C-255.87567474 255.87158386 -255.87634949 255.05566772 -255.87704468 254.21502686 C-255.82195181 212.05714046 -245.46067254 171.51026429 -225.625 134.3125 C-225.28388184 133.66361816 -224.94276367 133.01473633 -224.59130859 132.34619141 C-208.04990023 101.05850655 -183.17956493 72.24220675 -154.625 51.3125 C-154.05571777 50.88775391 -153.48643555 50.46300781 -152.89990234 50.02539062 C-144.15908179 43.50981985 -135.11413672 37.67661453 -125.625 32.3125 C-124.91778809 31.9103125 -124.21057617 31.508125 -123.48193359 31.09375 C-100.94703464 18.4064086 -76.68201763 9.9530165 -51.4375 4.5625 C-50.51267822 4.36366211 -49.58785645 4.16482422 -48.63500977 3.95996094 C-32.4283142 0.66808618 -16.49462039 -0.06280274 0 0 Z " fill="#FA969D" transform="translate(255.625,-0.3125)"/>
<path d="M0 0 C1.12277344 0.25265625 2.24554688 0.5053125 3.40234375 0.765625 C35.09246096 8.33546842 63.74760802 24.52386868 88 46 C88.9178125 46.79535156 89.835625 47.59070313 90.78125 48.41015625 C95.96827732 52.96442873 100.58847358 57.70050038 105 63 C105.73605469 63.83660156 106.47210938 64.67320313 107.23046875 65.53515625 C141.80283237 105.49399306 157.94403401 157.556783 154.71484375 209.9921875 C152.43610165 240.39260975 144.07289654 272.39065519 127 298 C126.34 298 125.68 298 125 298 C123.7734375 296.4609375 123.7734375 296.4609375 122.375 294.375 C118.82362097 289.45030445 114.4440299 285.72201495 109 283 C109.06856201 282.41081787 109.13712402 281.82163574 109.20776367 281.21459961 C109.92316994 274.65681557 110.24552457 268.15734702 110.3125 261.5625 C110.34150391 260.58345703 110.37050781 259.60441406 110.40039062 258.59570312 C110.40876953 257.65791016 110.41714844 256.72011719 110.42578125 255.75390625 C110.44765503 254.49042358 110.44765503 254.49042358 110.4699707 253.20141602 C110.17734992 250.84409547 110.17734992 250.84409547 108.16870117 249.19116211 C105.11347361 247.51307416 103.28518919 248.07157697 100 249 C97.57280043 251.42719957 97.68968525 252.24440035 97.47265625 255.5859375 C97.40457764 256.51100098 97.33649902 257.43606445 97.26635742 258.38916016 C97.19908447 259.3744873 97.13181152 260.35981445 97.0625 261.375 C95.30719579 283.14217228 88.44497827 301.24404902 73 317 C72.33484375 317.70125 71.6696875 318.4025 70.984375 319.125 C55.89703143 333.86683188 34.27679578 338.32787482 13.91723633 338.3828125 C-13.703759 337.94715727 -37.62420427 325.02234008 -57 306 C-57.80824219 305.21625 -58.61648437 304.4325 -59.44921875 303.625 C-71.98334762 290.71701171 -79.78102422 275.07211028 -85 258 C-85.35964844 256.85660156 -85.71929687 255.71320313 -86.08984375 254.53515625 C-91.89435101 232.46732911 -88.2764164 209.35716972 -77.06884766 189.75537109 C-74.45841073 185.46824421 -71.37482602 181.6991958 -68 178 C-67.48308594 177.3915625 -66.96617187 176.783125 -66.43359375 176.15625 C-54.29235428 162.76741449 -35.03692422 154.84167929 -17.27832031 153.84765625 C11.28375015 152.89463421 36.13281272 160.03393209 58 179 C58.80824219 179.66386719 59.61648438 180.32773438 60.44921875 181.01171875 C74.99724222 193.36726145 85.37353739 209.91917201 91.9296875 227.7421875 C92.91090804 230.3120014 92.91090804 230.3120014 96 232 C99.57176115 231.91832511 99.57176115 231.91832511 103 231 C105.35244207 227.47133689 105.37130991 226.15561916 105 222 C103.38280174 217.4919858 101.15570208 213.27325014 99 209 C98.45859375 207.906875 97.9171875 206.81375 97.359375 205.6875 C82.67752554 177.14708236 57.15862241 155.26619937 26.67041016 145.23339844 C14.36179693 141.43342388 3.08462668 139.81989938 -9.8125 139.8125 C-11.48022461 139.79413086 -11.48022461 139.79413086 -13.18164062 139.77539062 C-36.82296242 139.73389035 -58.59590499 148.85570191 -75.421875 165.390625 C-76.27265625 166.25171875 -77.1234375 167.1128125 -78 168 C-78.66515625 168.65484375 -79.3303125 169.3096875 -80.015625 169.984375 C-96.4182366 187.27361425 -102.61516016 212.11294655 -102.20703125 235.24609375 C-101.13861041 266.59736299 -88.37735225 293.33165312 -67 316 C-66.38769531 316.67675781 -65.77539062 317.35351562 -65.14453125 318.05078125 C-50.97700238 333.12454864 -30.758777 343.57515721 -11 349 C-9.96875 349.31710937 -8.9375 349.63421875 -7.875 349.9609375 C6.85249928 353.89549001 23.53650814 352.91426597 38.51025391 350.86816406 C41 351 41 351 42.88037109 352.59423828 C44.25 354.5 44.25 354.5 45.5625 356.7265625 C47.61526837 359.97306031 50.33791754 362.11493129 53.265625 364.5546875 C55 366 55 366 57 368 C47.90124864 373.47346761 38.70520548 378.17678572 28.88574219 382.22265625 C27.15038754 382.938007 25.42245585 383.67129538 23.6953125 384.40625 C15.00971638 387.95846387 6.15071967 390.05547207 -3 392 C-3.845625 392.20109375 -4.69125 392.4021875 -5.5625 392.609375 C-13.07664015 393.81356413 -18.11976611 392.10241733 -24.875 389.0625 C-25.79684082 388.65572021 -26.71868164 388.24894043 -27.66845703 387.82983398 C-53.01821812 376.48385969 -76.65019079 361.1194039 -96 341 C-96 340.34 -96 339.68 -96 339 C-96.66 339 -97.32 339 -98 339 C-99.50683594 337.52685547 -99.50683594 337.52685547 -101.234375 335.4921875 C-101.85763672 334.75838867 -102.48089844 334.02458984 -103.12304688 333.26855469 C-119.38856174 313.60945426 -132.26673116 292.52215135 -141.5625 268.75 C-141.92174561 267.84403076 -142.28099121 266.93806152 -142.65112305 266.00463867 C-142.9737915 265.15232666 -143.29645996 264.30001465 -143.62890625 263.421875 C-143.91838135 262.66487305 -144.20785645 261.90787109 -144.50610352 261.12792969 C-145.08173798 258.64783575 -144.88981807 257.36971965 -144 255 C-142.89309933 253.42779109 -141.77949946 251.85910437 -140.60888672 250.33374023 C-130.27514207 236.86422578 -126.93865939 223.89192544 -129 207 C-131.66915044 196.18767873 -138.64961481 187.19216621 -147 180 C-148.134375 179.401875 -149.26875 178.80375 -150.4375 178.1875 C-153 176 -153 176 -153.32055664 173.98999023 C-153.22512337 167.43536982 -152.373639 161.27979872 -151 154.875 C-150.6764856 153.33912231 -150.6764856 153.33912231 -150.34643555 151.7722168 C-147.41404442 138.52652439 -143.09502031 125.5690221 -138 113 C-139.2684375 112.7215625 -139.2684375 112.7215625 -140.5625 112.4375 C-146.33797465 110.02230151 -149.80838597 106.0372756 -152.9375 100.6875 C-154.49736097 95.27386487 -155.25623895 90.1545556 -153.12109375 84.79296875 C-148.90265073 77.51162981 -143.17242035 72.72876537 -135.078125 70.40234375 C-132.37726655 69.87943319 -130.55210717 69.94913234 -128 71 C-127.525625 71.515625 -127.05125 72.03125 -126.5625 72.5625 C-124.98339689 74.31031519 -124.98339689 74.31031519 -122 74.25 C-118.95076009 74.11489313 -118.95076009 74.11489313 -116 73 C-115.30400689 70.99007796 -115.30400689 70.99007796 -115 68.625 C-114.58515952 65.97174941 -114.27145627 64.36484356 -112.66015625 62.19921875 C-111 61 -111 61 -107.4375 61.1875 C-104 62 -104 62 -102 64 C-101.1526187 66.30911405 -100.47578656 68.64474673 -99.78125 71.00390625 C-99.18371009 73.18727401 -99.18371009 73.18727401 -97 74 C-92.91217784 74.44469734 -92.91217784 74.44469734 -89.33984375 72.77734375 C-87.14177007 69.86153173 -87.4785156 67.17819507 -87.56640625 63.63671875 C-88.1579228 60.03965862 -89.6510403 57.67809419 -91.80859375 54.7890625 C-93.20345453 52.69448467 -93.93355968 51.53896943 -94 49 C-87.43128523 40.28409245 -77.73857959 33.41209005 -69 27 C-68.44425293 26.58927246 -67.88850586 26.17854492 -67.31591797 25.75537109 C-49.64866139 12.87958651 -22.4373579 -6.1560982 0 0 Z " fill="#FDA7AC" transform="translate(302,60)"/>
<path d="M0 0 C1.01823853 0.00215515 2.03647705 0.0043103 3.08557129 0.00653076 C17.70747424 0.05622604 32.00633932 0.36188758 46.375 3.3125 C47.89383789 3.61051514 47.89383789 3.61051514 49.44335938 3.91455078 C98.3152752 13.68746984 142.55172645 36.70874214 178.375 71.3125 C178.99584473 71.91143066 179.61668945 72.51036133 180.25634766 73.12744141 C188.15480455 80.78864803 195.7332538 88.51331583 202.375 97.3125 C202.85646484 97.94462402 203.33792969 98.57674805 203.83398438 99.22802734 C212.30537774 110.41120437 219.6898185 121.98229489 226.375 134.3125 C226.91350586 135.29669922 226.91350586 135.29669922 227.46289062 136.30078125 C241.33861254 161.92974372 249.78948493 189.62437133 254.375 218.3125 C254.55289063 219.38491943 254.55289063 219.38491943 254.734375 220.47900391 C263.23819901 274.17204745 252.92141589 343.20134878 220.49072266 387.91015625 C219.81960449 388.79574219 219.14848633 389.68132812 218.45703125 390.59375 C211.57118457 398.84328845 211.57118457 398.84328845 208.23046875 408.68115234 C208.77357705 412.39106123 210.02110567 415.53068132 211.69140625 418.8671875 C216.01395521 427.71286774 214.6430133 438.38075417 213.3984375 447.8671875 C213.37079119 450.75161953 213.60299512 452.02572275 215.375 454.3125 C219.61828496 456.26720352 223.07656972 456.44647777 227.6875 456.1875 C236.17344735 456.07165089 242.60028165 458.687007 248.80078125 464.51171875 C254.96013819 471.557534 256.12621102 478.53178226 255.80078125 487.74609375 C254.98257118 494.59954136 252.28072574 500.40677426 247.375 505.3125 C235.72168897 514.05885817 221.125479 513.89992128 207.11962891 512.0078125 C194.00522048 509.46598402 183.68594811 502.5915066 174.375 493.3125 C173.73691406 492.69761719 173.09882813 492.08273437 172.44140625 491.44921875 C164.01922233 482.68939716 159.63569333 471.06810532 157.375 459.3125 C155.89966797 460.40304687 155.89966797 460.40304687 154.39453125 461.515625 C99.2251054 501.71126395 30.02508301 520.19562967 -37.82226562 509.82373047 C-66.13174817 505.11809901 -93.28544413 496.89341843 -118.625 483.3125 C-119.33720703 482.93899414 -120.04941406 482.56548828 -120.78320312 482.18066406 C-139.17091058 472.52028057 -155.79730193 460.60203755 -171.12890625 446.5859375 C-172.76662692 445.09430459 -174.41995423 443.61959219 -176.08984375 442.1640625 C-222.75151539 401.32588542 -250.3277334 338.51273628 -255.4440918 277.44335938 C-255.84355427 270.53012485 -255.86983098 263.61030112 -255.875 256.6875 C-255.87567474 255.87158386 -255.87634949 255.05566772 -255.87704468 254.21502686 C-255.82195181 212.05714046 -245.46067254 171.51026429 -225.625 134.3125 C-225.28388184 133.66361816 -224.94276367 133.01473633 -224.59130859 132.34619141 C-208.04990023 101.05850655 -183.17956493 72.24220675 -154.625 51.3125 C-154.05571777 50.88775391 -153.48643555 50.46300781 -152.89990234 50.02539062 C-144.15908179 43.50981985 -135.11413672 37.67661453 -125.625 32.3125 C-124.91778809 31.9103125 -124.21057617 31.508125 -123.48193359 31.09375 C-100.94703464 18.4064086 -76.68201763 9.9530165 -51.4375 4.5625 C-50.51267822 4.36366211 -49.58785645 4.16482422 -48.63500977 3.95996094 C-32.4283142 0.66808618 -16.49462039 -0.06280274 0 0 Z M-167.625 83.3125 C-168.16463379 83.82635254 -168.70426758 84.34020508 -169.26025391 84.86962891 C-177.5510948 92.77157079 -184.81314455 101.11101199 -191.625 110.3125 C-192.05409668 110.88613281 -192.48319336 111.45976563 -192.92529297 112.05078125 C-199.43827127 120.79065066 -205.21306652 129.85598991 -210.625 139.3125 C-211.28113281 140.43527344 -211.93726563 141.55804688 -212.61328125 142.71484375 C-226.57098096 167.58136689 -233.89726203 194.40012227 -238.625 222.3125 C-238.80748291 223.36228027 -238.98996582 224.41206055 -239.17797852 225.49365234 C-239.75294738 230.40553816 -239.78740674 235.24622389 -239.79296875 240.1875 C-239.79629715 241.22962646 -239.79962555 242.27175293 -239.80305481 243.34545898 C-239.80810343 245.54752158 -239.81046377 247.74959178 -239.81030273 249.95166016 C-239.81247476 253.2738962 -239.83061282 256.59579198 -239.84960938 259.91796875 C-239.88018927 271.24545495 -239.58294193 282.13095845 -237.625 293.3125 C-237.47361572 294.28429199 -237.32223145 295.25608398 -237.16625977 296.25732422 C-235.27202733 308.29763864 -232.67846959 319.82304857 -228.625 331.3125 C-228.25616699 332.3953125 -228.25616699 332.3953125 -227.87988281 333.5 C-216.62247135 366.49537412 -198.93344936 396.58766046 -174.42236328 421.484375 C-172.56722504 423.37126377 -170.73459844 425.2784042 -168.90234375 427.1875 C-161.00633866 435.33715914 -152.8043588 442.64362852 -143.625 449.3125 C-142.71959473 449.97644775 -142.71959473 449.97644775 -141.79589844 450.65380859 C-110.67911354 473.29529965 -74.83520796 488.86920075 -36.625 494.3125 C-35.40586914 494.48692627 -34.18673828 494.66135254 -32.93066406 494.84106445 C-21.78744932 496.34078677 -10.73605728 496.75514654 0.5 496.75 C1.41097443 496.75040283 2.32194885 496.75080566 3.26052856 496.7512207 C57.36387507 496.61452318 112.01056845 477.27045665 153.34375 442.01953125 C155.375 440.3125 155.375 440.3125 158.375 438.3125 C159.04258785 434.94001384 159.04258785 434.94001384 158.375 431.3125 C156.3325649 428.26976583 156.3325649 428.26976583 153.375 426.3125 C149.25245653 425.82303414 146.6260692 426.91739605 142.9375 428.6875 C138.39110513 430.7031976 134.69766923 431.59271469 129.75 431.9375 C122.44514998 432.79172836 117.70079483 435.80025819 111.67895508 439.72021484 C67.81893066 468.08593477 9.48864317 478.01831759 -41.625 467.3125 C-83.9646488 457.9327601 -121.78258685 437.86031258 -152.625 407.3125 C-153.22803955 406.72049805 -153.8310791 406.12849609 -154.45239258 405.51855469 C-192.59198637 367.82096764 -214.23831777 312.24851266 -214.8659668 258.96313477 C-214.98715957 214.17749112 -214.98715957 214.17749112 -207.32421875 203.5 C-204.99714872 201.87372577 -203.70042627 202.18453349 -200.9375 202.625 C-200.12925781 202.74488281 -199.32101563 202.86476562 -198.48828125 202.98828125 C-197.87339844 203.09527344 -197.25851563 203.20226562 -196.625 203.3125 C-196.21714528 211.15237399 -196.97089998 218.41773147 -198.4699707 226.08374023 C-202.37222948 246.05579991 -201.58583119 267.24652408 -198.625 287.3125 C-198.51736328 288.04855469 -198.40972656 288.78460938 -198.29882812 289.54296875 C-190.61029396 338.62796086 -161.77224612 385.25245274 -122.28417969 415.05908203 C-120.8090802 416.17343765 -119.34511444 417.30249695 -117.8828125 418.43359375 C-93.4197389 436.91102168 -64.57040697 448.43451175 -34.625 454.3125 C-33.68237305 454.49868896 -32.73974609 454.68487793 -31.76855469 454.87670898 C-22.10685335 456.57978596 -12.53167605 456.75151067 -2.75 456.75 C-1.44506592 456.75209976 -1.44506592 456.75209976 -0.11376953 456.75424194 C22.08970457 456.7250829 44.51552405 454.35754914 65.375 446.3125 C66.13748047 446.03035645 66.89996094 445.74821289 67.68554688 445.45751953 C77.08111987 441.97200551 86.18977046 438.10566116 95.0625 433.4375 C95.78751709 433.05625977 96.51253418 432.67501953 97.25952148 432.28222656 C100.94382278 430.45916911 100.94382278 430.45916911 103.375 427.3125 C102.86710937 426.96058594 102.35921875 426.60867188 101.8359375 426.24609375 C95.89683312 421.98639904 91.42523505 417.38785257 87.375 411.3125 C86.65304443 411.38033691 85.93108887 411.44817383 85.18725586 411.51806641 C58.9987741 413.85651181 36.08942274 412.13014337 12.375 400.3125 C10.86873047 399.57 10.86873047 399.57 9.33203125 398.8125 C-1.52145505 393.17909668 -10.76231561 385.6704419 -19.625 377.3125 C-20.30175781 376.70019531 -20.97851562 376.08789062 -21.67578125 375.45703125 C-43.40745434 355.03187157 -54.59867734 324.96964449 -55.87109375 295.69140625 C-56.4820297 271.13890417 -49.19640898 247.66168465 -32.625 229.3125 C-31.97273437 228.56742188 -31.32046875 227.82234375 -30.6484375 227.0546875 C-16.37311558 211.71005308 5.12677444 201.15387453 26.11254883 200.1862793 C62.546023 199.27392185 93.01219046 209.05589394 120.00805664 234.01953125 C132.83163603 246.23768749 149.49521859 266.96095179 151.75 285.375 C151.375 288.3125 151.375 288.3125 149.8125 290.75 C147.375 292.3125 147.375 292.3125 143.875 292.5625 C140.375 291.3125 140.375 291.3125 139.2878418 289.71069336 C138.99047119 289.05206299 138.69310059 288.39343262 138.38671875 287.71484375 C138.05140137 286.99312988 137.71608398 286.27141602 137.37060547 285.52783203 C137.04205566 284.79677246 136.71350586 284.06571289 136.375 283.3125 C135.77056034 282.03603364 135.1626022 280.76122618 134.55078125 279.48828125 C134.24946289 278.85897705 133.94814453 278.22967285 133.63769531 277.58129883 C120.4661902 250.46329512 99.02625911 229.66639641 70.48046875 219.33984375 C48.53875961 212.08113997 23.60851147 211.23748679 2.2109375 220.875 C-18.00138378 231.12036395 -31.21393053 247.06024001 -39.015625 268.0546875 C-43.69323374 283.89926359 -43.59920326 302.55790606 -38.625 318.3125 C-38.39925293 319.03211914 -38.17350586 319.75173828 -37.94091797 320.49316406 C-32.70999406 336.78288841 -25.11838048 350.56813933 -13.625 363.3125 C-12.48804688 364.57320313 -12.48804688 364.57320313 -11.328125 365.859375 C2.14384294 380.03575956 19.45161983 390.44648796 38.375 395.3125 C39.34050781 395.61027344 40.30601562 395.90804688 41.30078125 396.21484375 C62.28883735 402.12198794 85.01048265 398.49475868 104.1953125 388.90234375 C110.69796317 385.24332872 116.0678209 380.52366106 121.375 375.3125 C122.07625 374.63574219 122.7775 373.95898438 123.5 373.26171875 C136.48549194 359.79434332 142.78636317 340.66097582 143.57421875 322.26171875 C143.60555908 321.58343018 143.63689941 320.9051416 143.66918945 320.20629883 C143.74623723 318.28150112 143.79189552 316.35552314 143.8359375 314.4296875 C144.375 311.3125 144.375 311.3125 146.21875 309.37109375 C149.26904794 307.87357429 151.16416695 308.40509066 154.375 309.3125 C156.375 311.3125 156.375 311.3125 156.61791992 313.40039062 C156.61381104 314.24794922 156.60970215 315.09550781 156.60546875 315.96875 C156.60353516 316.90976562 156.60160156 317.85078125 156.59960938 318.8203125 C156.58736328 319.80773437 156.57511719 320.79515625 156.5625 321.8125 C156.56185547 322.76898438 156.56121094 323.72546875 156.56054688 324.7109375 C156.5224194 330.9638428 156.1136525 337.10407898 155.375 343.3125 C156.0045459 343.70139404 156.6340918 344.09028809 157.28271484 344.4909668 C163.07022456 348.10354031 168.26423041 352.09096083 171.375 358.3125 C172.035 358.3125 172.695 358.3125 173.375 358.3125 C189.56343631 329.96387369 200.80068752 298.26367882 201.375 265.3125 C201.40464844 264.53680664 201.43429687 263.76111328 201.46484375 262.96191406 C203.4415371 210.12490082 184.14120076 160.6339108 149.375 121.3125 C148.5809375 120.39597656 147.786875 119.47945313 146.96875 118.53515625 C142.41205397 113.34645272 137.71110483 108.68793129 132.375 104.3125 C131.87822754 103.89274902 131.38145508 103.47299805 130.86962891 103.04052734 C97.63581735 74.97967324 55.19994427 56.42581584 11.375 55.3125 C9.81894043 55.27165283 9.81894043 55.27165283 8.23144531 55.22998047 C-44.91804758 54.05266515 -94.98951696 70.91250597 -134.359375 107.234375 C-136.4267788 109.13068331 -138.54250093 110.94279606 -140.6875 112.75 C-160.22650948 129.91000833 -173.82517951 153.51130973 -184.53125 176.86328125 C-187.88032466 184.03562926 -187.88032466 184.03562926 -189.625 186.3125 C-192.49371255 187.1248285 -194.5910907 186.64960103 -197.625 186.3125 C-199.625 184.3125 -199.625 184.3125 -199.9921875 180.77734375 C-199.85020995 175.60912832 -197.94489411 171.48568085 -195.75 166.875 C-195.34579834 166.00536621 -194.94159668 165.13573242 -194.52514648 164.23974609 C-170.14160266 112.81280577 -125.61737065 72.33504093 -72.0234375 53.12890625 C-57.21079878 48.03756759 -42.15120856 44.36644086 -26.625 42.3125 C-25.31917969 42.12945312 -24.01335937 41.94640625 -22.66796875 41.7578125 C6.02837194 38.70788568 35.9692806 41.36494266 63.375 50.3125 C64.15327148 50.55838867 64.93154297 50.80427734 65.73339844 51.05761719 C103.34192915 63.02328544 139.21722198 85.4440249 164.06640625 116.453125 C165.52401491 118.25848801 167.00799988 120.04314959 168.52734375 121.796875 C179.68950484 134.79584741 188.18840518 149.81824575 195.375 165.3125 C195.766875 166.13564697 196.15875 166.95879395 196.5625 167.80688477 C199.68998843 174.4868701 202.21084854 181.24230115 204.5 188.25 C204.83386719 189.24451172 205.16773438 190.23902344 205.51171875 191.26367188 C223.20186813 244.78504538 217.13758683 303.08504629 192.375 353.3125 C188.86505134 360.17913047 185.17965491 366.89739726 180.61328125 373.125 C178.18344223 375.9361483 178.18344223 375.9361483 178.375 378.3125 C179.99675618 379.44236322 181.67546843 380.49090313 183.375 381.5 C187.96139731 384.31693564 191.91141423 387.33343238 195.81640625 391.02734375 C197.29549493 392.52456053 197.29549493 392.52456053 199.375 392.3125 C200.55319199 390.88147898 200.55319199 390.88147898 201.66015625 388.97265625 C202.3255542 387.88658081 202.3255542 387.88658081 203.00439453 386.77856445 C203.47731934 385.98538818 203.95024414 385.19221191 204.4375 384.375 C204.92847168 383.55668701 205.41944336 382.73837402 205.92529297 381.89526367 C207.42360246 379.37617324 208.90364551 376.84741785 210.375 374.3125 C210.78766113 373.60287109 211.20032227 372.89324219 211.62548828 372.16210938 C218.55591124 360.08128788 223.57923244 347.36452014 228.375 334.3125 C228.64328613 333.59819824 228.91157227 332.88389648 229.18798828 332.14794922 C233.18113201 321.45906752 235.47337001 310.52979684 237.375 299.3125 C237.4960611 298.64921692 237.61712219 297.98593384 237.74185181 297.30255127 C240.13436837 284.08821601 240.87542054 271.17925714 240.82104492 257.75976562 C240.81254347 254.57876512 240.84142493 251.39957468 240.87304688 248.21875 C240.93918761 229.09468094 238.29123367 210.48332779 233.125 192.0625 C232.82907959 190.9887915 232.53315918 189.91508301 232.22827148 188.80883789 C229.34027484 178.65222634 225.62765061 168.96660174 221.375 159.3125 C221.07013672 158.59868164 220.76527344 157.88486328 220.45117188 157.14941406 C213.29715375 140.45412986 203.58520182 124.59909816 192.375 110.3125 C191.68277344 109.42949219 190.99054688 108.54648438 190.27734375 107.63671875 C184.61646539 100.57809265 178.59659742 93.87552655 172.375 87.3125 C171.90191406 86.81073242 171.42882812 86.30896484 170.94140625 85.79199219 C163.84194958 78.31255105 156.29549666 71.78244895 148.05810547 65.58544922 C146.47479383 64.38797506 144.91050351 63.16546856 143.34765625 61.94140625 C135.72488843 56.03759815 127.75823227 51.04069793 119.375 46.3125 C118.65425293 45.90354492 117.93350586 45.49458984 117.19091797 45.07324219 C105.69035917 38.61024159 93.9733758 33.54380847 81.55859375 29.10400391 C79.80845907 28.46961922 78.07324133 27.79414507 76.34375 27.10546875 C61.18038173 21.08330825 44.4771628 18.45809276 28.375 16.3125 C27.075625 16.12816406 25.77625 15.94382812 24.4375 15.75390625 C-46.21624362 8.25018035 -116.92758857 34.14509533 -167.625 83.3125 Z " fill="#030102" transform="translate(255.625,-0.3125)"/>
<path d="M0 0 C2.3920548 0.44743471 4.78863199 0.83562406 7.19189453 1.21777344 C62.79103353 10.5997789 115.94308128 44.04797233 150.37548828 88.44433594 C151.07931641 89.33121094 151.78314453 90.21808594 152.50830078 91.13183594 C176.65404725 122.28763783 192.45422782 158.66159652 199.37548828 197.44433594 C199.64824585 198.87724976 199.64824585 198.87724976 199.92651367 200.33911133 C201.88454888 211.93778079 201.81440936 223.5861094 201.81298828 235.31933594 C201.81438812 236.42227997 201.81578796 237.525224 201.81723022 238.66159058 C201.79167709 263.20171323 199.6287976 287.15550899 191.37548828 310.44433594 C190.7945166 312.16560827 190.21380491 313.88696837 189.63330078 315.60839844 C182.39433016 336.64526327 172.709129 355.94387485 160.37548828 374.44433594 C156.98834017 372.93374574 154.40372537 370.94034485 151.56298828 368.56933594 C147.65291378 365.38334931 143.84079421 362.77406077 139.37548828 360.44433594 C140.74262308 357.6331058 142.2330434 354.9467119 143.84423828 352.26855469 C173.83830039 301.70228276 184.80739578 243.02913127 170.30419922 185.49121094 C165.75353624 168.70352144 159.61243398 152.7551401 151.37548828 137.44433594 C150.84568359 136.44490967 150.84568359 136.44490967 150.30517578 135.42529297 C142.30845918 120.40627982 132.62772788 107.17692617 121.37548828 94.44433594 C120.9149707 93.9206543 120.45445312 93.39697266 119.97998047 92.85742188 C89.04015186 57.84142804 46.03088423 35.15507149 0.37548828 26.44433594 C-0.42518066 26.280625 -1.22584961 26.11691406 -2.05078125 25.94824219 C-26.24544612 21.10029444 -53.49408841 21.48470412 -77.62451172 26.44433594 C-78.50671387 26.61594238 -79.38891602 26.78754883 -80.29785156 26.96435547 C-136.57948249 38.04248124 -185.31622129 71.28494184 -217.62451172 118.44433594 C-224.13834282 128.3347559 -229.5019668 138.78296706 -234.62451172 149.44433594 C-235.08212891 150.34410156 -235.53974609 151.24386719 -236.01123047 152.17089844 C-238.45692517 157.16526447 -239.29724223 160.87028311 -238.62451172 166.44433594 C-237.82980469 167.11142578 -237.82980469 167.11142578 -237.01904297 167.79199219 C-236.55884766 168.33726562 -236.09865234 168.88253906 -235.62451172 169.44433594 C-235.95263672 172.29199219 -235.95263672 172.29199219 -236.87451172 175.50683594 C-237.16841797 176.5703125 -237.46232422 177.63378906 -237.76513672 178.72949219 C-238.62451172 181.44433594 -238.62451172 181.44433594 -239.62451172 183.44433594 C-241.62022495 184.12372768 -243.62045945 184.78995152 -245.62451172 185.44433594 C-255.40027684 195.22010106 -253.81706151 224.18925347 -253.87451172 237.00683594 C-253.83538813 247.31127891 -253.21358569 257.27223824 -251.62451172 267.44433594 C-251.44907342 268.80472332 -251.27594524 270.16541036 -251.10498047 271.52636719 C-244.9263957 317.29639531 -221.80699208 357.30128046 -190.62451172 390.44433594 C-189.64224609 391.5078125 -189.64224609 391.5078125 -188.64013672 392.59277344 C-182.57820434 398.93966845 -175.61657298 404.176141 -168.62451172 409.44433594 C-167.76116211 410.09885742 -167.76116211 410.09885742 -166.88037109 410.76660156 C-157.90704519 417.52479787 -148.53726696 423.17667657 -138.62451172 428.44433594 C-137.99351562 428.78706543 -137.36251953 429.12979492 -136.71240234 429.48291016 C-94.65625916 452.24334619 -44.41153365 458.02926844 2.37548828 449.44433594 C3.24028809 449.28868164 4.10508789 449.13302734 4.99609375 448.97265625 C29.93607297 444.26912544 55.74336008 434.12110416 76.56298828 419.50683594 C83.08682318 415.11134434 88.89360349 414.05817009 96.51220703 413.06542969 C99.97434719 412.50882677 102.40462998 411.76072421 105.50048828 410.19433594 C109.43466488 408.21199889 112.07115061 408.06694788 116.37548828 409.44433594 C119.12010371 411.74627146 119.34217511 413.20080517 119.82861328 416.75683594 C119.37548828 420.44433594 119.37548828 420.44433594 116.77001953 423.21777344 C115.59360787 424.10868905 114.39810235 424.97476565 113.18798828 425.81933594 C112.55159424 426.28847412 111.9152002 426.7576123 111.25952148 427.2409668 C109.31359278 428.66502294 107.34672983 430.05562089 105.37548828 431.44433594 C104.31072266 432.22164063 103.24595703 432.99894531 102.14892578 433.79980469 C78.66677084 450.59400411 52.96307617 462.15792046 25.37548828 470.44433594 C24.60688477 470.67733398 23.83828125 470.91033203 23.04638672 471.15039062 C18.53349178 472.48617266 13.98647805 473.52089986 9.37548828 474.44433594 C8.54581543 474.62335449 7.71614258 474.80237305 6.86132812 474.98681641 C-53.18424273 487.59606706 -117.9310972 473.75510565 -169.26708984 440.99707031 C-175.63583457 436.80224674 -181.66738818 432.19922448 -187.62451172 427.44433594 C-188.16027832 427.0242627 -188.69604492 426.60418945 -189.24804688 426.17138672 C-204.55832839 414.10713532 -219.01605205 399.87707404 -230.44628906 384.06689453 C-231.63467593 382.43033856 -232.85468641 380.82172306 -234.08154297 379.21386719 C-261.63443883 342.56347057 -278.5019201 295.40468917 -278.86279297 249.49511719 C-278.87086472 248.47999557 -278.87893646 247.46487396 -278.88725281 246.41899109 C-278.90099269 244.27861178 -278.91175927 242.13821149 -278.91967773 239.99780273 C-278.9311096 237.86036513 -278.95141873 235.72295404 -278.98120117 233.58569336 C-279.27536919 212.37437132 -276.63555469 191.82522843 -270.62451172 171.44433594 C-270.39957031 170.67653809 -270.17462891 169.90874023 -269.94287109 169.11767578 C-258.7160542 131.5937436 -238.48851309 98.73568012 -211.62451172 70.44433594 C-211.11903809 69.91018066 -210.61356445 69.37602539 -210.09277344 68.82568359 C-202.71118567 61.08042545 -194.98009138 54.18257223 -186.40722656 47.78271484 C-184.63695925 46.45368096 -182.88987278 45.09821942 -181.14404297 43.73730469 C-170.93085095 35.88403228 -159.97447055 29.51021316 -148.62451172 23.44433594 C-147.86219238 23.03441406 -147.09987305 22.62449219 -146.31445312 22.20214844 C-126.58720352 11.77195037 -104.03224382 4.23141652 -81.97900391 0.81787109 C-79.59313033 0.43935735 -77.22487069 -0.00264478 -74.85107422 -0.45019531 C-50.8180057 -4.66253848 -23.96900464 -4.51695528 0 0 Z " fill="#FC6C7A" transform="translate(294.62451171875,17.5556640625)"/>
<path d="M0 0 C1.59263362 1.34321628 3.17608587 2.69739703 4.75 4.0625 C5.55824219 4.72636719 6.36648438 5.39023438 7.19921875 6.07421875 C21.74724222 18.42976145 32.12353739 34.98167201 38.6796875 52.8046875 C39.66090804 55.3745014 39.66090804 55.3745014 42.75 57.0625 C44.40549531 57.44749891 46.0722433 57.79043135 47.75 58.0625 C49.3126644 62.84815973 50.42215965 66.97329119 49.75 72.0625 C48.93917969 72.57425781 48.12835938 73.08601563 47.29296875 73.61328125 C43.38545908 77.37673527 43.85244698 81.3342636 43.625 86.5625 C43.48965948 88.56035294 43.34778593 90.55777458 43.19921875 92.5546875 C43.12880371 93.51084961 43.05838867 94.46701172 42.98583984 95.45214844 C41.36443571 113.39837307 32.13812242 129.42495229 19.75 142.0625 C19.08484375 142.76375 18.4196875 143.465 17.734375 144.1875 C2.64703143 158.92933188 -18.97320422 163.39037482 -39.33276367 163.4453125 C-66.953759 163.00965727 -90.87420427 150.08484008 -110.25 131.0625 C-111.05824219 130.27875 -111.86648437 129.495 -112.69921875 128.6875 C-125.23334762 115.77951171 -133.03102422 100.13461028 -138.25 83.0625 C-138.60964844 81.91910156 -138.96929687 80.77570313 -139.33984375 79.59765625 C-145.14435101 57.52982911 -141.5264164 34.41966972 -130.31884766 14.81787109 C-127.70841073 10.53074421 -124.62482602 6.7616958 -121.25 3.0625 C-120.73308594 2.4540625 -120.21617187 1.845625 -119.68359375 1.21875 C-89.16151809 -32.4396793 -32.92602498 -25.72824278 0 0 Z " fill="#EFF7FA" transform="translate(355.25,234.9375)"/>
<path d="M0 0 C1.61581622 0.25824581 3.23170094 0.51606346 4.84765625 0.7734375 C60.44315805 10.20792785 113.55793203 43.59117976 148 88 C149.05574219 89.3303125 149.05574219 89.3303125 150.1328125 90.6875 C174.27855897 121.84330189 190.07873954 158.21726058 197 197 C197.27275757 198.43291382 197.27275757 198.43291382 197.55102539 199.89477539 C199.50906059 211.49344485 199.43892108 223.14177346 199.4375 234.875 C199.43889984 235.97794403 199.44029968 237.08088806 199.44174194 238.21725464 C199.41618881 262.7573773 197.25330932 286.71117306 189 310 C188.41902832 311.72127233 187.83831663 313.44263243 187.2578125 315.1640625 C180.01884188 336.20092733 170.33364072 355.49953892 158 374 C154.61285189 372.48940981 152.02823709 370.49600891 149.1875 368.125 C145.2774255 364.93901337 141.46530593 362.32972483 137 360 C138.3671348 357.18876986 139.85755512 354.50237596 141.46875 351.82421875 C171.46281211 301.25794682 182.4319075 242.58479533 167.92871094 185.046875 C163.37804796 168.2591855 157.2369457 152.31080416 149 137 C148.47019531 136.00057373 148.47019531 136.00057373 147.9296875 134.98095703 C139.9329709 119.96194388 130.2522396 106.73259023 119 94 C118.53948242 93.47631836 118.07896484 92.95263672 117.60449219 92.41308594 C86.71241027 57.45112918 43.63306105 34.6019203 -2 26 C-2.81130371 25.84160645 -3.62260742 25.68321289 -4.45849609 25.52001953 C-21.78881702 22.24035603 -39.42079276 22.27864406 -57 22 C-60.4294307 15.73722255 -61.97432892 11.20522248 -61 4 C-59.875 0.4375 -59.875 0.4375 -58 -2 C-39.98172799 -6.2392127 -17.9702588 -3.18832823 0 0 Z " fill="#FC7E8A" transform="translate(297,18)"/>
<path d="M0 0 C11.91161783 7.36019071 19.13180472 17.55166415 23.51953125 30.71484375 C25.02919936 46.85491569 22.97491071 60.15123032 12.8046875 73.2109375 C4.5462687 82.25990579 -6.27041258 88.28684725 -18.5546875 89.19140625 C-34.39909555 89.84833136 -45.33391714 85.9902952 -57.10546875 75.33984375 C-68.53711725 62.70486383 -71.48391011 50.82232543 -70.70263672 34.07519531 C-69.50494885 21.35074885 -61.21742717 11.50379959 -51.87890625 3.50390625 C-36.70430978 -7.81525529 -16.68578189 -8.6450744 0 0 Z " fill="#040202" transform="translate(150.48046875,236.28515625)"/>
<path d="M0 0 C2.74461543 2.30193552 2.96668683 3.75646924 3.453125 7.3125 C3 11 3 11 0.39453125 13.7734375 C-0.78188041 14.66435311 -1.97738593 15.53042971 -3.1875 16.375 C-3.82389404 16.84413818 -4.46028809 17.31327637 -5.1159668 17.79663086 C-7.0618955 19.220687 -9.02875845 20.61128495 -11 22 C-12.59714844 23.16595703 -12.59714844 23.16595703 -14.2265625 24.35546875 C-37.70871744 41.14966817 -63.41241211 52.71358453 -91 61 C-91.76860352 61.23299805 -92.53720703 61.46599609 -93.32910156 61.70605469 C-97.84182656 63.04178642 -102.38754814 64.08365274 -107 65 C-108.27641357 65.26852783 -108.27641357 65.26852783 -109.57861328 65.54248047 C-124.19616407 68.52951232 -138.56155713 69.43433458 -153.4375 69.5625 C-154.28894592 69.5771228 -155.14039185 69.59174561 -156.01763916 69.60681152 C-158.44884322 69.64217834 -160.87721928 69.64168863 -163.30859375 69.62890625 C-164.04181351 69.64198318 -164.77503326 69.65506012 -165.5304718 69.66853333 C-167.58374023 69.63110352 -167.58374023 69.63110352 -171 69 C-173.98296447 65.34276483 -175.15525122 61.48858212 -175.3125 56.8125 C-175.34988281 56.09707031 -175.38726562 55.38164062 -175.42578125 54.64453125 C-174.79116286 50.70291059 -172.90087934 47.47787333 -171 44 C-170.12601563 43.98541748 -169.25203125 43.97083496 -168.3515625 43.95581055 C-123.00346637 43.11504068 -77.97134973 36.84797664 -39.8125 10.0625 C-33.2886651 5.6670084 -27.48188479 4.61383415 -19.86328125 3.62109375 C-16.40114109 3.06449083 -13.9708583 2.31638827 -10.875 0.75 C-6.9408234 -1.23233705 -4.30433767 -1.37738806 0 0 Z " fill="#FC7E8A" transform="translate(411,427)"/>
<path d="M0 0 C7.44977861 5.15228964 12.84557447 11.68101229 14.55859375 20.76953125 C15.31243447 30.52638401 15.32573624 38.43744417 9.55859375 46.76953125 C8.98238281 47.64158203 8.98238281 47.64158203 8.39453125 48.53125 C4.34991653 53.99285559 -2.03196037 57.73464424 -8.44140625 59.76953125 C-18.29247134 60.98247021 -28.28730299 60.97209588 -36.44140625 54.76953125 C-44.10493268 48.75305046 -48.65690264 41.65630264 -49.953125 31.9296875 C-50.60843998 21.62303225 -48.26383657 13.26023843 -41.35546875 5.39453125 C-29.65285946 -5.7742748 -14.1734258 -8.21174059 0 0 Z " fill="#FD6D7B" transform="translate(144.44140625,250.23046875)"/>
<path d="M0 0 C4.49487261 1.41267425 6.84674098 3.53910596 10 7 C10.72896484 7.75796875 10.72896484 7.75796875 11.47265625 8.53125 C18.96705207 16.65816516 23.42409564 26.80686397 23.01953125 37.9296875 C22.99052734 39.22003906 22.96152344 40.51039063 22.93164062 41.83984375 C22.87606858 43.85659482 22.81260926 45.87224469 22.73266602 47.88818359 C22.4154635 56.40169123 22.38805802 63.21169172 28 70 C30.25331837 72.18358421 30.25331837 72.18358421 32.6875 73.5 C33.45449219 73.9640625 34.22148437 74.428125 35.01171875 74.90625 C38.46641841 76.80667417 40.53039615 77.02542268 44.51098633 76.88354492 C56.75166341 76.48398945 56.75166341 76.48398945 62 81 C64.44434406 83.91744291 64.9556259 85.65134635 65.4375 89.4375 C64.91233829 93.71381679 63.76012209 95.71769265 61 99 C54.2887155 103.99044232 46.03068485 103.62864236 38 103 C24.5355924 100.28227067 13.50899381 93.78412822 5.3125 82.72265625 C-1.84195703 71.68690627 -3.5601069 60.61896811 -3 47.6875 C-2.47719546 36.23803191 -2.47719546 36.23803191 -7 26 C-7.763125 25.2575 -8.52625 24.515 -9.3125 23.75 C-10.1478125 22.88375 -10.1478125 22.88375 -11 22 C-10.60486266 18.66250066 -9.12097725 16.49978863 -7.1875 13.8125 C-4.16241809 9.42430889 -1.98331321 4.93494994 0 0 Z " fill="#EDF5F9" transform="translate(431,394)"/>
<path d="M0 0 C1.62905273 -0.02416992 1.62905273 -0.02416992 3.29101562 -0.04882812 C11.30881811 -0.05364362 19.53249304 0.56570669 26.1875 5.5 C31.16853534 10.83682358 33.04822476 15.19802997 33.3125 22.5625 C32.89506759 33.50428897 29.79170329 41.39045919 22.12109375 49.25 C15.23530127 55.40177399 8.01538093 57.81151835 -1.125 57.62109375 C-10.2044748 56.70619769 -16.79380725 51.25397782 -22.69140625 44.62109375 C-29.00434575 36.49907308 -30.27427043 27.39323262 -29.1875 17.3125 C-27.66472783 10.8862099 -24.64277966 7.24252617 -19.28515625 3.50390625 C-12.87526275 -0.13672227 -7.21966581 -0.02104859 0 0 Z " fill="#030202" transform="translate(254.1875,111.6875)"/>
<path d="M0 0 C7.77649466 1.41390812 15.43683657 5.27800608 20.171875 11.71875 C23.51170636 17.42878427 23.89197869 22.53030341 23.109375 29.03125 C20.35579384 36.09323618 14.7734486 40.77585243 8.234375 44.34375 C0.01773964 47.76966915 -11.72637062 47.41673983 -19.93359375 44.07421875 C-27.02246397 40.29631785 -32.29825217 35.80836848 -34.890625 28.03125 C-35.69388605 21.67401253 -35.05954673 16.62570432 -31.6484375 11.1484375 C-27.98460297 6.73555235 -23.04548053 2.39350812 -17.203125 1.72265625 C-14.890625 2.03125 -14.890625 2.03125 -12.890625 4.03125 C-9.47490647 4.53156206 -9.47490647 4.53156206 -5.890625 4.03125 C-5.271875 3.33 -4.653125 2.62875 -4.015625 1.90625 C-1.890625 0.03125 -1.890625 0.03125 0 0 Z " fill="#FEFDFD" transform="translate(340.890625,129.96875)"/>
<path d="M0 0 C0.474375 0.515625 0.94875 1.03125 1.4375 1.5625 C3.01800063 3.30369788 3.01800063 3.30369788 6 3.3125 C9.17941514 3.21659125 9.17941514 3.21659125 12 1 C17.46860971 1.20636263 20.80303998 2.51741615 25 6 C30.25070594 11.97451821 32.4578934 16.64087979 32.33984375 24.62890625 C31.44515233 30.8711786 26.87783148 35.88138724 22.0625 39.6796875 C14.05494231 44.80573769 5.3584573 46.27159015 -4 45 C-13.42663891 42.43631722 -20.00422763 38.12180437 -24.9375 29.6875 C-26.49736097 24.27386487 -27.25623895 19.1545556 -25.12109375 13.79296875 C-20.90265073 6.51162981 -15.17242035 1.72876537 -7.078125 -0.59765625 C-4.37726655 -1.12056681 -2.55210717 -1.05086766 0 0 Z " fill="#FEFEFE" transform="translate(174,131)"/>
<path d="M0 0 C3.30686529 1.39575483 5.01575326 2.9247093 7.125 5.8125 C7.62257813 6.47894531 8.12015625 7.14539063 8.6328125 7.83203125 C13.01092312 14.77446381 12.76400658 22.07638532 12 30 C9.02907058 40.99116379 3.18537651 49.2538218 -6.296875 55.45703125 C-15.68674658 60.81685679 -25.04006994 62.81162205 -35.625 60 C-41.05056751 57.98871367 -44.95926735 54.02162753 -49 50 C-46.73120987 47.46215463 -44.59079912 46.2023561 -41.5 44.8125 C-30.82354354 39.64596917 -20.9342838 31.984822 -13.625 22.625 C-13.15602295 22.02864746 -12.6870459 21.43229492 -12.20385742 20.81787109 C-7.26381638 14.3415824 -3.56735878 7.29826409 0 0 Z " fill="#DDEDF6" transform="translate(406,357)"/>
<path d="M0 0 C6.45181397 0.48813066 10.48221957 5.127959 14.5546875 9.7734375 C20.87381395 18.03691055 20.96715925 28.00273138 20 38 C18.83709741 41.75300383 17.23547564 44.7818977 15 48 C14.59265625 48.59296875 14.1853125 49.1859375 13.765625 49.796875 C11.04263048 53.36859508 7.97090377 55.93182095 4 58 C1.5 58.25 1.5 58.25 -1 57 C-9.59984008 48.15445021 -12.39935598 37.42548848 -12.27734375 25.4140625 C-11.50110449 15.85866658 -6.75822099 6.75822099 0 0 Z " fill="#FD7F8B" transform="translate(139,249)"/>
<path d="M0 0 C4.31794141 3.17822726 7.78018377 7.36934829 9.8203125 12.33984375 C10.45248567 16.92677469 10.66973443 20.96770063 8.1953125 24.96484375 C5.09126384 26.76192456 3.35374997 26.92875 -0.1796875 26.33984375 C-4.51106827 23.36975408 -5.58169404 19.13382413 -7.1796875 14.33984375 C-10.58289684 13.66310928 -10.58289684 13.66310928 -14.1796875 13.33984375 C-16.84153723 16.00169348 -17.28817553 18.68172162 -18.30078125 22.24609375 C-19.1796875 24.33984375 -19.1796875 24.33984375 -22.1796875 26.33984375 C-25.64536157 26.78227023 -27.51183287 26.72649643 -30.5546875 24.96484375 C-33.10585439 20.84372801 -32.99401692 17.04879211 -32.1796875 12.33984375 C-29.54200415 5.8634893 -24.89885082 1.50935568 -18.9296875 -1.97265625 C-12.2587061 -3.6404016 -6.03874025 -3.43499192 0 0 Z " fill="#050303" transform="translate(205.1796875,108.66015625)"/>
<path d="M0 0 C5.9216074 2.73392219 10.04375761 7.26419745 12.5390625 13.31640625 C12.875 16.0078125 12.875 16.0078125 12.9140625 18.87890625 C12.94242187 19.82894531 12.97078125 20.77898437 13 21.7578125 C12.5390625 24.31640625 12.5390625 24.31640625 10.73828125 26.12890625 C7.51019479 27.87195827 5.13838569 27.77450193 1.5390625 27.31640625 C-1.79928351 24.43852176 -2.3661778 20.4608537 -3.4609375 16.31640625 C-4.46929812 15.08373277 -4.46929812 15.08373277 -6.52734375 15.21875 C-7.76291016 15.23615234 -7.76291016 15.23615234 -9.0234375 15.25390625 C-9.84972656 15.26292969 -10.67601562 15.27195312 -11.52734375 15.28125 C-12.16542969 15.29285156 -12.80351562 15.30445312 -13.4609375 15.31640625 C-13.55890625 15.93128906 -13.656875 16.54617187 -13.7578125 17.1796875 C-14.97142701 23.73948317 -14.97142701 23.73948317 -17.2109375 26.37890625 C-20.22679088 27.63551182 -22.22327945 27.78856472 -25.4609375 27.31640625 C-27.8359375 25.87890625 -27.8359375 25.87890625 -29.4609375 23.31640625 C-30.5152886 17.84023576 -29.5650766 13.01404852 -26.875 8.17578125 C-20.23674754 -0.55297061 -10.42300779 -2.89527994 0 0 Z " fill="#040303" transform="translate(326.4609375,107.68359375)"/>
<path d="M0 0 C1.00675781 0.00386719 2.01351562 0.00773437 3.05078125 0.01171875 C4.61892578 0.04845703 4.61892578 0.04845703 6.21875 0.0859375 C7.26417969 0.08722656 8.30960937 0.08851562 9.38671875 0.08984375 C18.1565758 0.19090484 18.1565758 0.19090484 21.71875 2.4609375 C23.88771274 6.79886298 23.0660129 12.08853439 21.65625 16.5859375 C19.82325547 21.03248404 16.6928034 23.85070697 12.71875 26.4609375 C9.09944302 27.66737316 6.52643995 27.78362309 2.71875 27.4609375 C-2.63067553 24.62888869 -6.07156099 21.18273776 -8.53125 15.6484375 C-9.48283183 11.60421474 -9.68379788 8.62059891 -9.28125 4.4609375 C-6.46692908 0.78235712 -4.57629131 -0.04100331 0 0 Z " fill="#47535E" transform="translate(249.28125,126.5390625)"/>
<path d="M0 0 C4.3810029 1.29807493 4.3810029 1.29807493 6.375 4 C7.6276429 10.95216812 6.74667174 17.10066629 2.921875 23.03125 C-2.07220677 29.38735407 -7.91949206 33.2373826 -15.9921875 34.31640625 C-19.73379389 34.50655346 -21.94744826 34.4131413 -25.1875 32.4375 C-27.18831202 29.04481874 -27.17826548 26.87285839 -26.625 23 C-25.25 20.6875 -25.25 20.6875 -22.625 19 C-20.07410711 18.4196823 -17.56226602 17.99997185 -14.96484375 17.6875 C-11.9450168 16.80020527 -11.13853954 15.72047783 -9.625 13 C-9.50125 11.700625 -9.3775 10.40125 -9.25 9.0625 C-8.92513806 5.72641779 -8.53722173 4.87349602 -6.5 1.9375 C-3.625 0 -3.625 0 0 0 Z " fill="#050505" transform="translate(319.625,292)"/>
<path d="M0 0 C5.62062294 2.06089508 9.14626526 5.6565507 12.75 10.375 C14.125 14.125 14.125 14.125 13.75 17.375 C11.6875 20.3125 11.6875 20.3125 8.75 22.375 C4.84020026 22.94272435 3.26832164 22.74248339 0.01171875 20.43359375 C-0.83777344 19.56863281 -1.68726563 18.70367187 -2.5625 17.8125 C-3.42488281 16.96558594 -4.28726562 16.11867188 -5.17578125 15.24609375 C-7.64403056 11.82959046 -8.14738169 9.56280419 -8.25 5.375 C-5.79510311 1.69265466 -4.42219627 0.51025342 0 0 Z " fill="#070808" transform="translate(268.25,329.625)"/>
<path d="M0 0 C4.93584003 1.04412001 7.74771066 4.20014579 11.25 7.6875 C11.81589844 8.17605469 12.38179688 8.66460937 12.96484375 9.16796875 C15.01752405 11.59499804 14.66941988 13.75809953 14.5234375 16.8125 C14.25 18.6875 14.25 18.6875 13.25 20.6875 C9.78726307 22.41886847 6.90042393 22.80587429 3.25 21.6875 C-0.62648028 18.65690789 -4.52580856 15.13588289 -6.75 10.6875 C-7.13932198 7.1057378 -7.18596718 5.32468279 -5.125 2.3125 C-2.75 0.6875 -2.75 0.6875 0 0 Z " fill="#040404" transform="translate(337.75,259.3125)"/>
<path d="M0 0 C-0.763125 0.7425 -1.52625 1.485 -2.3125 2.25 C-4.9607804 4.81255089 -4.9607804 4.81255089 -6.625 7.3125 C-7.305625 8.1478125 -7.305625 8.1478125 -8 9 C-8.99 9 -9.98 9 -11 9 C-10.40806045 2.72544081 -10.40806045 2.72544081 -8.875 0 C-5.85200363 -1.61226473 -3.2411345 -0.67268829 0 0 Z " fill="#EF9097" transform="translate(198,122)"/>
</svg>
