<?xml version="1.0" encoding="UTF-8"?>
<svg version="1.1" xmlns="http://www.w3.org/2000/svg" width="512" height="512">
<path d="M0 0 C0.78375 0.2475 1.5675 0.495 2.375 0.75 C2.705 1.41 3.035 2.07 3.375 2.75 C10.84970594 2.82601104 18.32431236 2.8785835 25.79931641 2.91479492 C28.34264857 2.92988936 30.88595467 2.95036688 33.42919922 2.97631836 C37.0830732 3.01267177 40.73660329 3.02971997 44.390625 3.04296875 C46.09862274 3.06619453 46.09862274 3.06619453 47.84112549 3.08988953 C48.90192322 3.09011612 49.96272095 3.09034271 51.05566406 3.09057617 C52.45464935 3.10056892 52.45464935 3.10056892 53.88189697 3.11076355 C56.82167407 2.68536419 58.06796586 1.54094271 60.375 -0.25 C63.125 0.5625 63.125 0.5625 65.375 1.75 C65.375 2.74 65.375 3.73 65.375 4.75 C162.395 4.75 259.415 4.75 359.375 4.75 C360.035 3.43 360.695 2.11 361.375 0.75 C363.355 0.75 365.335 0.75 367.375 0.75 C367.705 1.41 368.035 2.07 368.375 2.75 C379.265 3.245 379.265 3.245 390.375 3.75 C390.705 2.76 391.035 1.77 391.375 0.75 C393.15234375 -0.140625 393.15234375 -0.140625 395.375 -0.25 C406.29943019 6.05929658 415.27154814 17.22430966 423.375 26.75 C424.66277344 28.2040625 424.66277344 28.2040625 425.9765625 29.6875 C447.5702763 54.19023038 465.6259992 82.13201774 479.375 111.75 C479.72626953 112.50619629 480.07753906 113.26239258 480.43945312 114.04150391 C496.53152214 149.1417973 505.77465509 186.1210147 505.69067383 224.77416992 C505.6875297 227.78406603 505.71101112 230.79295991 505.73632812 233.80273438 C505.79448858 251.59901552 503.92542922 269.15014452 500.1875 286.5625 C499.9802832 287.53421143 499.77306641 288.50592285 499.55957031 289.50708008 C492.25909053 322.36185762 479.18856312 354.40602389 459.375 381.75 C458.96926758 382.31122559 458.56353516 382.87245117 458.14550781 383.45068359 C452.10422254 391.72211819 445.45588881 399.35246743 438.375 406.75 C437.85454102 407.30300781 437.33408203 407.85601562 436.79785156 408.42578125 C416.70604464 429.70652355 416.70604464 429.70652355 405.37884521 434.61500549 C402.9592514 435.78223666 401.2515898 436.81682092 399.375 438.75 C398.1868148 442.76272211 398.30373898 446.67192917 398.375 450.83203125 C398.3586853 452.58600471 398.3586853 452.58600471 398.34204102 454.37541199 C398.31587249 458.10537678 398.34473621 461.83260774 398.375 465.5625 C398.36690929 468.09311316 398.35523318 470.62371758 398.33984375 473.15429688 C398.3099801 479.35336407 398.32527828 485.55108785 398.375 491.75 C396.0625 492.875 396.0625 492.875 393.375 493.75 C392.385 493.09 391.395 492.43 390.375 491.75 C390.375 491.09 390.375 490.43 390.375 489.75 C273.225 489.75 156.075 489.75 35.375 489.75 C35.045 490.74 34.715 491.73 34.375 492.75 C29.98516949 494.05508475 29.98516949 494.05508475 27.5 492.8125 C23.98167135 486.36223081 29.20019486 472.32498044 30.47070312 465.42578125 C33.91865923 446.02196824 34.75137201 426.87493827 34.6875 407.1875 C34.68534485 405.99279083 34.6831897 404.79808167 34.68096924 403.56716919 C34.6314227 386.46344602 34.40909407 369.62951441 31.375 352.75 C31.17100586 351.59467773 30.96701172 350.43935547 30.75683594 349.24902344 C27.34574162 330.46566125 22.38084195 312.30284624 16.5859375 294.1328125 C-5.76364476 223.55034095 -7.22794818 146.49318344 -6.88928223 73.14520264 C-6.8699208 68.11892693 -6.86610435 63.09268666 -6.8625679 58.06637859 C-6.85740929 51.98564229 -6.84295695 45.90493775 -6.828125 39.82421875 C-6.82624428 38.69862738 -6.82436356 37.573036 -6.82242584 36.4133358 C-6.75898102 7.16946769 -6.75898102 7.16946769 -5.625 1.75 C-2.625 -0.25 -2.625 -0.25 0 0 Z " fill="#060302" transform="translate(6.625,9.25)"/>
<path d="M0 0 C2.75 0.8125 2.75 0.8125 5 2 C5 2.99 5 3.98 5 5 C102.35 5 199.7 5 300 5 C323.40076868 58.18356518 323.40076868 58.18356518 317.33984375 76.58203125 C315.93284268 80.1713197 314.2801284 83.51888782 312.5 86.9375 C306.11378503 99.21657427 303.83732971 111.58196059 303.8671875 125.2890625 C303.86623077 126.26934418 303.86527405 127.24962585 303.86428833 128.25961304 C303.86361008 130.32883773 303.86543955 132.39806459 303.86962891 134.46728516 C303.87494748 137.5941257 303.86968971 140.72082034 303.86328125 143.84765625 C303.86037769 152.93108434 303.93472723 161.92378923 304.76416016 170.97607422 C306.32847277 191.0336064 306.25084117 212.00970171 299 231 C298.67 231 298.34 231 298 231 C297.98582031 229.86046875 297.97164063 228.7209375 297.95703125 227.546875 C297.42783283 206.28127498 292.53358057 184.33589795 278 168 C277.48050781 167.38898438 276.96101563 166.77796875 276.42578125 166.1484375 C270.01287949 159.1226477 261.01676883 154.72625792 251.546875 153.74609375 C238.64268067 153.17462229 226.38204084 159.02380727 216.1875 166.625 C209.78355323 172.67317195 206.74786573 180.00277669 206.44091797 188.71264648 C206.42955523 196.73230525 207.36248173 204.46440585 208.85668945 212.33227539 C210.00821101 218.47667458 210.47339937 224.54132653 210.70874023 230.78369141 C210.54309912 234.18195726 210.54309912 234.18195726 212 237 C213.66617115 237.04063832 215.33388095 237.042721 217 237 C217.33221647 227.61180856 216.9764344 218.66391545 215.5 209.375 C211.53915934 184.03391473 211.53915934 184.03391473 217 176 C223.76958706 168.09366523 235.31859842 161.97721973 245.640625 160.6640625 C256.61178847 160.49982353 263.81199775 163.94298218 271.68359375 171.53125 C286.24558954 187.05094872 290.61659649 207.49132656 290.375 228.1875 C290.36702393 229.27874176 290.36702393 229.27874176 290.35888672 230.39202881 C289.99114038 273.35352347 269.33340468 316.55905084 239.6171875 347.4921875 C234.02092999 352.85457156 228.11316703 356.53450093 220.125 356.40234375 C215.28184527 355.48534938 212.28401217 351.87746318 209.60546875 347.9609375 C207.49078388 344.18420934 207.49078388 344.18420934 207 342 C208.1359437 338.51151018 210.19131877 336.81446048 213 334.5625 C237.16306584 313.53598597 249.62979211 277.15799215 252 246 C252.28988387 238.33336661 252.20170373 230.66784493 252 223 C250.34385343 222.61781233 248.67542976 222.28604898 247 222 C245.17683891 223.82316109 245.71742422 226.71666832 245.60546875 229.17578125 C245.50649292 231.11565918 245.50649292 231.11565918 245.40551758 233.09472656 C245.37068268 233.78312622 245.33584778 234.47152588 245.29995728 235.18078613 C243.61443396 267.13117268 235.66487257 295.29449879 216 321 C215.46503906 321.71027344 214.93007813 322.42054688 214.37890625 323.15234375 C213.00059265 324.87425961 211.54764208 326.4293161 210 328 C209.36707031 328.72316406 208.73414063 329.44632812 208.08203125 330.19140625 C202.52248114 335.69354276 197.7555214 336.74997813 190.1875 336.8125 C189.36290283 336.824021 188.53830566 336.83554199 187.6887207 336.84741211 C183.35951944 336.70667888 181.48945052 336.38406948 177.98828125 333.63671875 C174.84714021 329.47115843 174.47789779 326.13400509 175 321 C178.00183965 316.49724053 181.88837127 313.27805603 185.96484375 309.7578125 C186.97224609 308.88769531 186.97224609 308.88769531 188 308 C188.57878906 307.50242187 189.15757812 307.00484375 189.75390625 306.4921875 C200.87443832 296.22311148 209.47509883 279.55556203 213 265 C212.72265062 262.17855097 212.72265062 262.17855097 212 260 C209.56885292 259.87553918 209.56885292 259.87553918 207 261 C205.75511769 263.68552008 204.88091469 266.06076543 204.0625 268.875 C201.76715635 276.08341069 198.95086217 282.51330076 195 289 C193.53932801 288.54917531 192.08151968 288.08906463 190.625 287.625 C189.81289063 287.36976563 189.00078125 287.11453125 188.1640625 286.8515625 C186 286 186 286 184 284 C184.3609375 283.030625 184.721875 282.06125 185.09375 281.0625 C190.33335693 266.25053426 190.05952849 253.2796142 186 238 C185.7834375 237.10667969 185.566875 236.21335938 185.34375 235.29296875 C179.69745949 213.95133498 163.0355408 202.18953034 146 190 C145.2054541 189.43104004 144.4109082 188.86208008 143.59228516 188.27587891 C142.82577637 187.72722168 142.05926758 187.17856445 141.26953125 186.61328125 C139.76288797 185.53403962 138.25637539 184.45461551 136.75 183.375 C136.01354248 182.84874023 135.27708496 182.32248047 134.51831055 181.78027344 C129.44714409 178.12746201 124.57037383 174.28901662 119.75 170.3125 C95.37664336 150.25612936 68.9439483 135.08312982 36.5625 134.625 C35.56412109 134.58761719 34.56574219 134.55023438 33.53710938 134.51171875 C26.76329324 134.43155525 22.14647428 135.4306467 17 140 C15.33108023 142.00534207 15.33108023 142.00534207 14.5625 144.125 C14.27503906 144.78757813 13.98757812 145.45015625 13.69140625 146.1328125 C8.18333361 161.00772053 14.95352941 177.26908524 21.07177734 190.98193359 C29.7159324 209.52071327 41.77904822 226.47098375 55 242 C55.85263911 243.03687604 56.70414695 244.07468308 57.5546875 245.11328125 C62.07007193 250.56224977 66.69658903 255.76455046 71.78125 260.6953125 C72.62123535 261.51193359 73.4612207 262.32855469 74.32666016 263.16992188 C75.97880997 264.76160788 77.64447162 266.33943271 79.32568359 267.90039062 C86.92743924 275.21043816 91.45941069 283.7020335 94.25 293.875 C94.54390625 294.90367187 94.8378125 295.93234375 95.140625 296.9921875 C97.97656858 309.36706307 98.31552704 321.49548525 98.26074219 334.12866211 C98.25010707 337.03325717 98.26064743 339.93722156 98.2734375 342.84179688 C98.28151031 352.37133974 98.00508309 361.82327133 97.140625 371.31640625 C97.03068207 372.56176903 97.03068207 372.56176903 96.91851807 373.83229065 C95.91555131 383.69593916 92.95085586 393.03147246 89.8828125 402.41796875 C88.80643131 406.78540925 88.54830438 410.95685974 88.375 415.4375 C88.31699219 416.67790039 88.31699219 416.67790039 88.2578125 417.94335938 C88.16446908 419.96191073 88.08119039 421.98092331 88 424 C73.37787987 417.3015986 60.48141088 408.06170178 48 398 C46.98421875 397.19046875 45.9684375 396.3809375 44.921875 395.546875 C36.71188102 388.8381874 29.19707611 381.40765088 21.6875 373.9375 C21.1755307 373.43079773 20.6635614 372.92409546 20.13607788 372.40203857 C13.28587411 365.60636174 6.99309016 358.57837366 1 351 C-0.02498505 349.74546501 -1.05203574 348.49261208 -2.08203125 347.2421875 C-9.00306928 338.74054071 -15.50581725 330.00187889 -21.671875 320.93701172 C-22.83976707 319.23369266 -24.04226919 317.55421339 -25.25 315.87890625 C-51.15574427 277.7792472 -52.44127839 216.83891582 -55.81896973 172.33581543 C-56.07623417 169.01635816 -56.36091174 165.69978954 -56.6484375 162.3828125 C-56.82850196 160.27607385 -57.00823018 158.16930642 -57.1875 156.0625 C-57.2594458 155.22710693 -57.3313916 154.39171387 -57.40551758 153.53100586 C-58.83000644 135.75011503 -59.1533817 117.94627182 -59.1328125 100.1171875 C-59.13348927 97.99935902 -59.13446236 95.88153061 -59.13571167 93.76370239 C-59.13717051 89.36540982 -59.13509294 84.9671378 -59.13037109 80.56884766 C-59.12466786 74.99108179 -59.1279683 69.41336402 -59.13394356 63.8355999 C-59.13759265 59.47530773 -59.13639095 55.11502658 -59.13381577 50.75473404 C-59.13315883 48.7002779 -59.13393057 46.64582069 -59.13629532 44.59136581 C-59.14558077 34.26617198 -59.03919989 23.96412292 -58.55419922 13.64892578 C-58.51547762 12.79035917 -58.47675602 11.93179256 -58.43686104 11.04720879 C-58.12411032 5.12411032 -58.12411032 5.12411032 -57 4 C-55.3642406 3.89276002 -53.72394752 3.85376841 -52.0847168 3.84228516 C-50.51254646 3.82689194 -50.51254646 3.82689194 -48.90861511 3.81118774 C-47.76701431 3.80388641 -46.62541351 3.79658508 -45.44921875 3.7890625 C-43.05533172 3.76099269 -40.6614516 3.73232822 -38.26757812 3.703125 C-34.47534383 3.66183828 -30.68323841 3.6249704 -26.89086914 3.59863281 C-23.2433775 3.57107409 -19.596482 3.52519708 -15.94921875 3.4765625 C-14.81369064 3.47330963 -13.67816254 3.47005676 -12.50822449 3.46670532 C-10.92186943 3.44185562 -10.92186943 3.44185562 -9.3034668 3.41650391 C-7.90900581 3.40437363 -7.90900581 3.40437363 -6.4863739 3.39199829 C-3.57002728 2.93221109 -2.2977726 1.77686693 0 0 Z " fill="#A44949" transform="translate(67,9)"/>
<path d="M0 0 C0.94363448 3.04088569 0.99905141 5.16492183 0.3984375 8.28125 C0.16193481 9.52841797 0.16193481 9.52841797 -0.0793457 10.80078125 C-0.34944458 12.13689453 -0.34944458 12.13689453 -0.625 13.5 C-0.90186646 14.89798828 -0.90186646 14.89798828 -1.18432617 16.32421875 C-10.51166302 62.45893118 -28.78655008 105.20351912 -61.58789062 139.52050781 C-62.5243456 140.5016484 -63.45542231 141.48795247 -64.38085938 142.47949219 C-75.81183534 154.70854052 -88.88326448 164.01662285 -103 173 C-103.33 191.48 -103.66 209.96 -104 229 C-221.15 229 -338.3 229 -459 229 C-458.38736245 222.87362454 -457.77378474 217.3176919 -456.57421875 211.3671875 C-447.5293971 164.84337537 -449.32953719 117.42572486 -458 71 C-453.9498818 74.8296036 -450.70627018 78.93361916 -447.4375 83.4375 C-442.04708237 90.7418395 -436.34228074 97.68105623 -430.3359375 104.48486328 C-429.16348318 105.81458761 -428.00265056 107.15454039 -426.84375 108.49609375 C-416.21803985 120.61349014 -404.75613705 132.13742758 -392 142 C-391.25492187 142.62390625 -390.50984375 143.2478125 -389.7421875 143.890625 C-362.56155822 166.55650569 -328.2612754 183.74022312 -293.02246094 188.7109375 C-291.60366671 188.91372026 -290.18770486 189.13686763 -288.77441406 189.375 C-279.84153918 191.05843727 -279.84153918 191.05843727 -271.5859375 188.35546875 C-269.56319668 185.66887686 -268.30012735 183.10292021 -267 180 C-266.4740625 178.82824219 -265.948125 177.65648437 -265.40625 176.44921875 C-259.92618206 163.72557229 -256.42104245 150.6680686 -254.25 137 C-254.14227264 136.32868042 -254.03454529 135.65736084 -253.92355347 134.96569824 C-251.63984304 120.53817009 -250.06065601 105.62605762 -253.5625 91.25390625 C-254 89 -254 89 -254 83 C-247.4 83 -240.8 83 -234 83 C-233.175 84.670625 -232.35 86.34125 -231.5 88.0625 C-228.25699644 94.04661372 -224.17476606 98.91261697 -218 102 C-216.46331135 102.22467831 -214.92031946 102.40796805 -213.375 102.5625 C-212.14910156 102.68818359 -212.14910156 102.68818359 -210.8984375 102.81640625 C-210.27195312 102.87699219 -209.64546875 102.93757813 -209 103 C-211.82073628 106.97796143 -214.63465972 110.76953974 -218.1875 114.125 C-230.89887937 126.52703165 -244.08883633 143.9650402 -244.56835938 162.29589844 C-244.56642578 163.12637695 -244.56449219 163.95685547 -244.5625 164.8125 C-244.56443359 165.68036133 -244.56636719 166.54822266 -244.56835938 167.44238281 C-244.3794163 175.1346563 -242.37508247 180.59362924 -238 187 C-230.98859469 187.23059092 -224.67013724 186.42372135 -217.8125 185 C-216.22369019 184.6743103 -216.22369019 184.6743103 -214.6027832 184.34204102 C-206.251767 182.57811605 -197.95882151 180.59543962 -189.69662476 178.45678711 C-188.36438209 178.11244988 -187.03106742 177.77223214 -185.69668579 177.4362793 C-183.81875235 176.96046978 -181.94633569 176.46304737 -180.07421875 175.96484375 C-178.99744873 175.6824585 -177.92067871 175.40007324 -176.8112793 175.10913086 C-173.67139258 173.87035489 -172.32663066 172.39653188 -170 170 C-166.25821369 167.9976597 -162.35879428 166.38497632 -158.44946289 164.73608398 C-156.593289 163.95053025 -154.74671067 163.14242638 -152.90039062 162.33398438 C-145.9426692 159.3638162 -139.2690864 157.26126247 -131.8737793 155.7097168 C-127.8696984 154.72085747 -124.62047155 153.08165381 -121.125 150.9375 C-120.46064941 150.5461084 -119.79629883 150.1547168 -119.11181641 149.75146484 C-117.05783656 148.52607086 -115.02627916 147.27060896 -113 146 C-112.35740234 145.5982959 -111.71480469 145.1965918 -111.05273438 144.78271484 C-98.67678073 136.96083403 -87.12148148 128.0909658 -76.35546875 118.16796875 C-74.77328642 116.71173128 -73.17115057 115.27690488 -71.55078125 113.86328125 C-37.2482171 83.86873144 -15.84488239 41.96431339 0 0 Z " fill="#FEE2B7" transform="translate(501,270)"/>
<path d="M0 0 C1.40897804 0.00333092 1.40897804 0.00333092 2.84642029 0.00672913 C3.90744461 0.00680466 4.96846893 0.00688019 6.06164551 0.00695801 C7.21579453 0.01211929 8.36994354 0.01728058 9.55906677 0.02259827 C10.73404221 0.02401321 11.90901764 0.02542816 13.11959839 0.02688599 C16.88981116 0.0325046 20.65996556 0.04506026 24.43016052 0.05775452 C26.97898779 0.06276712 29.52781599 0.06733044 32.0766449 0.07142639 C38.34033685 0.08248007 44.60399452 0.0992363 50.86766052 0.12025452 C50.38230244 5.4196397 49.88327322 10.65807107 48.81687927 15.87806702 C48.61481873 16.90021301 48.41275818 17.92235901 48.20457458 18.97547913 C47.99026794 20.054505 47.7759613 21.13353088 47.55516052 22.24525452 C45.52495918 32.81489765 43.92995387 43.37888721 42.61766052 54.05775452 C42.5350296 54.72494507 42.45239868 55.39213562 42.36726379 56.07954407 C40.76504167 69.11261401 39.71162285 81.94502571 39.69969177 95.08119202 C39.69636337 96.38819061 39.69303497 97.69518921 39.68960571 99.04179382 C39.68366387 101.79663416 39.68176039 104.55144339 39.68235779 107.30628967 C39.68243857 110.08109625 39.67556452 112.85573606 39.66184998 115.63050842 C39.55783803 137.03144308 40.2763965 158.05971654 43.99266052 179.18275452 C44.20511414 180.39189514 44.41756775 181.60103577 44.63645935 182.84681702 C48.15364323 201.93410886 53.80069477 220.44065507 59.99266052 238.80775452 C60.58566956 240.58859436 60.58566956 240.58859436 61.19065857 242.40541077 C65.50540736 254.83843097 70.97014874 265.16911765 82.99266052 271.43275452 C88.42181988 274.00752752 93.32702587 275.39901944 99.36766052 275.37025452 C100.45047302 275.37541077 101.53328552 275.38056702 102.64891052 275.38587952 C106.56289988 275.06288039 110.5085086 274.69046886 113.19456482 271.58729553 C116.79555074 268.4297989 122.62105409 269.38764841 127.18016052 269.30775452 C128.30873474 269.23750061 129.43730896 269.1672467 130.6000824 269.09486389 C133.96128026 269.03749206 136.64674523 269.14543684 139.86766052 270.12025452 C142.86124515 273.05490183 144.3490596 276.24898979 145.86766052 280.12025452 C146.15874695 280.84301575 146.44983337 281.56577698 146.7497406 282.31044006 C147.47350786 284.31361597 148.06278688 286.31442771 148.61766052 288.37025452 C148.90963318 289.34285217 148.90963318 289.34285217 149.20750427 290.33509827 C152.94079449 303.48930875 153.18721092 316.68796939 153.12840271 330.24891663 C153.11776759 333.15351169 153.12830795 336.05747608 153.14109802 338.96205139 C153.14917083 348.49159426 152.87274361 357.94352584 152.00828552 367.43666077 C151.89834259 368.68202354 151.89834259 368.68202354 151.78617859 369.95254517 C150.78321184 379.81619367 147.81851638 389.15172697 144.75047302 398.53822327 C143.67409183 402.90566377 143.4159649 407.07711426 143.24266052 411.55775452 C143.18465271 412.79815491 143.18465271 412.79815491 143.12547302 414.06361389 C143.03212961 416.08216524 142.94885091 418.10117783 142.86766052 420.12025452 C128.24554039 413.42185312 115.34907141 404.1819563 102.86766052 394.12025452 C101.85187927 393.31072327 100.83609802 392.50119202 99.78953552 391.66712952 C91.57954154 384.95844192 84.06473664 377.52790539 76.55516052 370.05775452 C76.04319122 369.55105225 75.53122192 369.04434998 75.0037384 368.52229309 C68.15353463 361.72661626 61.86075068 354.69862817 55.86766052 347.12025452 C54.84267548 345.86571953 53.81562478 344.6128666 52.78562927 343.36244202 C45.86459124 334.86079522 39.36184327 326.12213341 33.19578552 317.05726624 C32.02789345 315.35394717 30.82539133 313.67446791 29.61766052 311.99916077 C3.71191625 273.89950172 2.42638213 212.95917033 -0.9513092 168.45606995 C-1.20857365 165.13661267 -1.49325121 161.82004406 -1.78077698 158.50306702 C-1.96084143 156.39632837 -2.14056965 154.28956093 -2.31983948 152.18275452 C-2.39178528 151.34736145 -2.46373108 150.51196838 -2.53785706 149.65126038 C-3.96234591 131.87036955 -4.28572118 114.06652634 -4.26515198 96.23744202 C-4.26582874 94.11961354 -4.26680184 92.00178513 -4.26805115 89.88395691 C-4.26950999 85.48566433 -4.26743242 81.08739232 -4.26271057 76.68910217 C-4.25700733 71.11133631 -4.26030777 65.53361853 -4.26628304 59.95585442 C-4.26993213 55.59556225 -4.26873043 51.23528109 -4.26615524 46.87498856 C-4.26549831 44.82053242 -4.26627005 42.76607521 -4.2686348 40.71162033 C-4.27792025 30.38642649 -4.17153936 20.08437744 -3.6865387 9.7691803 C-3.6478171 8.91061369 -3.6090955 8.05204708 -3.56920052 7.1674633 C-3.20027475 0.18048134 -3.20027475 0.18048134 0 0 Z " fill="#FDCA56" transform="translate(12.132339477539063,12.879745483398438)"/>
<path d="M0 0 C3.60374463 -0.14500644 7.20674242 -0.23396763 10.8125 -0.3125 C11.83666016 -0.35439453 12.86082031 -0.39628906 13.91601562 -0.43945312 C16.69197325 -0.48496063 19.26369289 -0.47449907 22 0 C23.93359375 2.28125 23.93359375 2.28125 25 5 C27.00269328 6.9950905 27.00269328 6.9950905 29.25 8.8125 C32.96194154 12.00789304 36.17144749 15.34224061 39.328125 19.078125 C40.93441634 20.92460944 42.61317614 22.61533023 44.375 24.3125 C48.05564265 27.94417623 51.28476855 31.87310034 54.515625 35.90625 C56.19217796 37.99403293 57.88028522 40.05143777 59.609375 42.09375 C74.0678883 59.37828016 86.81161344 78.91269284 97 99 C97.47099121 99.91894043 97.94198242 100.83788086 98.42724609 101.78466797 C109.87736351 124.29919144 118.35156946 147.38010647 124 172 C124.16725586 172.72445312 124.33451172 173.44890625 124.50683594 174.1953125 C127.14685478 185.95900937 128.27460222 197.98046399 129 210 C129.0510791 210.73734375 129.1021582 211.4746875 129.15478516 212.234375 C129.40950381 218.84812259 127.78424128 224.79525941 126 231.125 C125.52796143 232.82873779 125.52796143 232.82873779 125.04638672 234.56689453 C119.83625767 253.01398366 113.3814346 270.75648762 105 288 C104.62149902 288.78294434 104.24299805 289.56588867 103.85302734 290.37255859 C92.88773598 312.78110365 78.48024881 333.20952972 61.4296875 351.3828125 C59.48217645 353.48061379 57.62911965 355.60309773 55.8125 357.8125 C53.18685473 360.9168954 50.25973241 363.52003031 47.16015625 366.14453125 C45.72219988 367.37966556 44.31251018 368.64850174 42.93359375 369.94921875 C28.88894859 383.16339794 3.97341704 405.73226849 -15.9375 407.3125 C-19 407 -19 407 -20 406 C-20.58770993 402.76759539 -20.79507319 401.11913328 -20 398 C-16.63157001 393.16703523 -12.48699091 389.21387013 -7.9375 385.5 C3.81408275 375.49865298 13.11363478 358.63188792 17.1796875 343.8203125 C19.43145111 335.93742094 20.9234887 330.79138536 28.375 326.4375 C29.509375 325.85097656 30.64375 325.26445312 31.8125 324.66015625 C41.34143728 319.69716808 46.30762706 310.74113204 50 301 C50.33812064 298.80096357 50.61473318 296.591072 50.8125 294.375 C51.1640625 291.42578125 51.1640625 291.42578125 52 289 C54.40497473 287.32012064 56.5940444 286.58993157 59.40234375 285.765625 C66.09423287 283.79327873 70.07050108 279.31087793 73.6484375 273.50390625 C77.37474181 266.60055057 79.11232608 260.61516711 79.3125 252.75 C79.58639487 246.60406635 79.58639487 246.60406635 81.43359375 243.90625 C82.64313183 242.80335937 83.88361955 241.73347646 85.15234375 240.69921875 C91.19867105 235.1386429 93.59067422 225.89301745 94.25390625 217.96484375 C94.57123723 209.21265072 92.9943901 202.49158515 88.125 195.1875 C87 193 87 193 87.5625 190.75 C88.036875 189.8425 88.51125 188.935 89 188 C89.69699372 186.48349414 90.3837253 184.96224758 91.0625 183.4375 C91.40410156 182.69371094 91.74570312 181.94992188 92.09765625 181.18359375 C95.60938466 172.68551504 95.1553944 162.86741805 91.75 154.4375 C90.35580692 151.3349901 88.95885712 148.9485714 86.828125 146.28515625 C85 144 85 144 85 142 C84.4225 141.731875 83.845 141.46375 83.25 141.1875 C82.5075 140.795625 81.765 140.40375 81 140 C79.94619141 139.48373047 79.94619141 139.48373047 78.87109375 138.95703125 C76.4080434 136.38085541 76.68426896 134.44473879 76.75170898 130.99755859 C76.77177002 130.17336426 76.79183105 129.34916992 76.8125 128.5 C76.52446559 106.76649483 64.62119839 72.12510802 49 56 C46.11556009 53.73922277 44.18523382 53.03367888 40.5625 52.375 C36.19712695 53.14085492 34.95373234 54.36553003 32.34765625 57.8125 C23.74982793 71.76839525 23.81304344 88.42487143 23.81469727 104.26855469 C23.81249801 106.62713343 23.79424489 108.98525277 23.77539062 111.34375 C23.77245782 112.86718593 23.77047227 114.39062404 23.76953125 115.9140625 C23.75875298 116.95344467 23.75875298 116.95344467 23.74775696 118.01382446 C23.78209574 125.46775619 25.59273233 131.74786439 29 138.375 C29.515625 139.39335937 30.03125 140.41171875 30.5625 141.4609375 C31.88838938 144.06636287 31.88838938 144.06636287 34 146 C33.71429997 148.64272532 33.1271018 150.73410889 31.98046875 153.1328125 C28.67800009 162.79023081 30.29399285 174.48992915 34.515625 183.51953125 C35.97591959 186.12364981 35.97591959 186.12364981 38.234375 188.57421875 C40 191 40 191 39.93359375 193.046875 C38.84873059 195.3164632 37.55340899 197.22323864 36.0625 199.25 C32.48663338 204.52825288 31.07558932 209.03827289 30.9140625 215.3671875 C30.64805068 225.04592539 30.64805068 225.04592539 28.59375 228.0703125 C27.39868186 229.15530857 26.17205841 230.20645576 24.91796875 231.22265625 C20.13937176 235.65088768 16.83313046 242.56217373 16 249 C15.90642643 251.63657286 15.86022314 254.239793 15.875 256.875 C15.87113281 257.55691406 15.86726563 258.23882812 15.86328125 258.94140625 C15.87175581 263.39055248 16.27781612 267.60958055 17 272 C16.43152344 272.29132813 15.86304688 272.58265625 15.27734375 272.8828125 C3.76990287 278.99193804 -4.03450725 287.25650876 -8.57421875 299.734375 C-9.11582963 302.12130095 -9.11582963 302.12130095 -8.83203125 305.078125 C-8.63383886 309.85616851 -8.47231215 313.94775086 -11.44335938 317.93896484 C-15.31897144 322.08146659 -19.64512596 325.71179484 -24.00732422 329.328125 C-36.85065161 340.10380571 -50.49376797 355.84014742 -52.796875 372.98828125 C-53.94337636 389.71106758 -53.94337636 389.71106758 -51 406 C-50.87929731 408.31019336 -50.824637 410.6241874 -50.8125 412.9375 C-50.79832031 414.16339844 -50.78414063 415.38929688 -50.76953125 416.65234375 C-51.11217348 421.62936727 -51.11217348 421.62936727 -53 424 C-69.17484483 432.14992182 -90.28456883 434.47260821 -108 437 C-113.12419464 427.38122752 -113.13979645 419.98236686 -110 409.5625 C-104.58603024 393.95071556 -92.5025424 381.87967113 -81.4375 370 C-76.98539922 365.20098227 -72.90310933 360.21219385 -68.96655273 354.98242188 C-66.65968748 351.95474481 -64.26605808 349.21055426 -61.5390625 346.55078125 C-58.03029449 343.1129696 -55.04451209 339.44409187 -52.125 335.5 C-51.60744141 334.80277832 -51.08988281 334.10555664 -50.55664062 333.38720703 C-46.03410968 327.2029674 -41.98766342 320.83329266 -38.22314453 314.1640625 C-37.34923536 312.61788867 -36.46638589 311.07675416 -35.57763672 309.5390625 C-25.80763791 292.60565409 -18.48695789 275.77530374 -13.93188477 256.75244141 C-12.40858708 250.74651304 -10.02717739 245.72062117 -6.95458984 240.36547852 C1.14862261 226.17231006 4.1727955 210.706661 4.1328125 194.53125 C4.13424759 193.21247864 4.13424759 193.21247864 4.13571167 191.86706543 C4.13638806 190.01489185 4.13457176 188.16271582 4.13037109 186.31054688 C4.12506708 183.53509926 4.13030781 180.75981732 4.13671875 177.984375 C4.13990024 168.93446335 3.96395627 159.94240791 3.3651886 150.91175842 C1.82089643 127.42213188 1.54923955 104.25478999 12.5625 82.9375 C19.16884268 70.09803464 21.42230257 57.50236411 17 43.4375 C16.05252486 40.6048821 15.03341734 37.80225443 14 35 C13.69465332 34.1538916 13.38930664 33.3077832 13.07470703 32.43603516 C9.55574662 22.71976516 5.9335578 13.19563005 1.03125 4.08203125 C0 2 0 2 0 0 Z " fill="#FCC956" transform="translate(375,13)"/>
<path d="M0 0 C20.69673673 4.60557382 38.55695085 14.56743847 54.85327148 27.87084961 C57.32904246 29.87507728 59.80888021 31.87420703 62.29077148 33.87084961 C62.92281494 34.37994873 63.5548584 34.88904785 64.20605469 35.41357422 C68.25352697 38.65248381 72.36993226 41.75453583 76.60327148 44.74584961 C77.16248291 45.14102783 77.72169434 45.53620605 78.29785156 45.94335938 C79.48981437 46.78493066 80.68179082 47.62648264 81.8737793 48.46801758 C104.05778781 64.18944246 121.83720826 77.19032077 127.31030273 105.21069336 C127.59764514 107.08416586 127.72719269 108.9796677 127.85327148 110.87084961 C127.94801758 112.05614258 127.94801758 112.05614258 128.04467773 113.26538086 C129.4823788 144.9411817 102.66905653 173.57233794 82.72509766 195.44018555 C80.90512965 197.42112955 79.07640085 199.39382766 77.24584961 201.36499023 C75.8103306 202.91728358 74.38517248 204.47852039 72.96264648 206.04272461 C68.04599631 211.44612232 63.07864224 216.7615982 57.85327148 221.87084961 C56.85327148 219.87084961 56.85327148 219.87084961 57.77783203 216.86499023 C58.2572707 215.58269376 58.74531061 214.30359393 59.23999023 213.02709961 C59.49827103 212.3433728 59.75655182 211.659646 60.0226593 210.9552002 C60.85490056 208.75763218 61.69777927 206.56431294 62.54077148 204.37084961 C63.09027968 202.9231909 63.63911555 201.4752768 64.18725586 200.02709961 C65.24878733 197.22639406 66.32259118 194.43088557 67.40625 191.63867188 C68.281772 189.37966908 69.11751423 187.12128766 69.92333984 184.83544922 C72.00292392 179.08397261 74.49965813 175.4985819 79.04077148 171.43334961 C80.20725484 170.32788986 81.36999004 169.21846239 82.52905273 168.10522461 C83.09575684 167.56317383 83.66246094 167.02112305 84.24633789 166.46264648 C88.16059528 162.58525995 91.51650404 158.24339163 94.85327148 153.87084961 C95.4784668 153.06260742 96.10366211 152.25436523 96.74780273 151.42163086 C101.46957123 145.03335584 104.84455219 138.2110069 107.85327148 130.87084961 C108.22967773 129.96077148 108.60608398 129.05069336 108.99389648 128.11303711 C112.14571856 116.222072 111.00407807 102.48179605 104.85327148 91.87084961 C104.36084961 90.96979492 103.86842773 90.06874023 103.36108398 89.14038086 C97.4342623 78.74541122 90.35726204 71.78791086 78.85327148 67.87084961 C76.11962828 68.16604729 76.11962828 68.16604729 73.85327148 68.87084961 C73.85327148 70.19084961 73.85327148 71.51084961 73.85327148 72.87084961 C74.71049805 73.29495117 75.56772461 73.71905273 76.45092773 74.15600586 C90.3916808 81.30712496 98.13361801 90.56696762 103.05639648 105.52709961 C106.00090103 117.88247164 102.15241675 129.78206104 95.73876953 140.40283203 C91.42303216 147.1701235 86.36434449 153.03936538 80.85327148 158.87084961 C79.84208038 160.06983335 78.83998113 161.27663941 77.85327148 162.49584961 C77.19327148 163.27959961 76.53327148 164.06334961 75.85327148 164.87084961 C75.52327148 164.87084961 75.19327148 164.87084961 74.85327148 164.87084961 C74.72952148 163.68491211 74.60577148 162.49897461 74.47827148 161.27709961 C72.1108231 141.60969592 64.25352703 129.09509367 50.85327148 114.87084961 C49.71591076 113.65009325 48.57918763 112.42874252 47.44311523 111.20678711 C45.78294579 109.42307017 44.1216993 107.64050012 42.45483398 105.86303711 C38.44782493 101.57329506 34.67747164 97.13890425 31.01342773 92.55053711 C29.5525874 90.73835543 28.05907973 88.95210502 26.53686523 87.19116211 C-3.2247756 52.70014336 -3.2247756 52.70014336 -4.33422852 36.05834961 C-4.14672852 33.87084961 -4.14672852 33.87084961 -3.14672852 32.87084961 C2.75090484 32.50385714 7.14773071 33.25451763 12.60327148 35.43334961 C13.29646484 35.7036499 13.9896582 35.9739502 14.70385742 36.25244141 C26.77543373 41.11251702 37.0077767 48.51377316 47.05639648 56.65600586 C48.80885047 58.13263117 48.80885047 58.13263117 51.10327148 57.55834961 C51.68077148 57.33147461 52.25827148 57.10459961 52.85327148 56.87084961 C53.32000021 54.57262504 53.32000021 54.57262504 52.85327148 51.87084961 C51.01782013 50.0013511 49.39833606 48.62012599 47.29077148 47.12084961 C46.7079541 46.69255859 46.12513672 46.26426758 45.5246582 45.82299805 C31.75527521 35.88798797 16.16640616 26.0776671 -1.27172852 25.55834961 C-2.09930664 25.5209668 -2.92688477 25.48358398 -3.77954102 25.44506836 C-7.08331732 26.03931195 -8.17321729 27.18492738 -10.14672852 29.87084961 C-12.59081155 40.38609056 -8.73368047 48.95449526 -3.45629883 57.77807617 C0.66779165 64.36862494 5.19630128 70.64972976 9.85327148 76.87084961 C10.29461426 77.46526855 10.73595703 78.0596875 11.19067383 78.67211914 C20.75130755 91.50921186 31.27731267 103.47524163 42.06030273 115.28881836 C44.34144427 117.80166954 46.60135753 120.33177884 48.85327148 122.87084961 C49.70405273 123.81959961 50.55483398 124.76834961 51.43139648 125.74584961 C63.53119791 139.65699856 68.24226824 153.0642956 67.16412354 171.35113525 C66.22678366 178.94905434 62.83289936 186.01529284 59.85327148 192.99584961 C59.17591917 194.64701764 58.50142364 196.29936057 57.82983398 197.95288086 C56.20344545 201.9397888 54.53975962 205.90901216 52.85327148 209.87084961 C52.52327148 209.87084961 52.19327148 209.87084961 51.85327148 209.87084961 C51.83868896 208.95609863 51.82410645 208.04134766 51.80908203 207.09887695 C51.89954242 158.73772176 51.89954242 158.73772176 28.58959961 118.26538086 C27.57416552 117.29965105 26.5578866 116.33480879 25.54077148 115.37084961 C23.53702546 113.45157746 21.54127809 111.52436625 19.55249023 109.58959961 C18.82424294 108.88133026 18.82424294 108.88133026 18.08128357 108.15875244 C13.2496772 103.39210688 9.03503762 98.2049129 4.85327148 92.87084961 C3.87706939 91.6663753 2.89945363 90.46304362 1.91967773 89.26147461 C-14.56106954 68.70683475 -36.86000266 39.21403259 -35.57641602 11.50366211 C-34.92498837 7.51218728 -33.61559107 4.09110511 -31.14672852 0.87084961 C-23.38050736 -4.30663116 -8.82809708 -1.70747649 0 0 Z " fill="#F15353" transform="translate(121.146728515625,152.129150390625)"/>
<path d="M0 0 C5.07672045 0.87524955 7.11299534 3.96462586 10 8 C11.78766175 10.95395119 13.29181831 13.99685743 14.75 17.125 C15.16685059 18.01880371 15.58370117 18.91260742 16.01318359 19.83349609 C30.85624089 52.5968975 30.85624089 52.5968975 30.9375 69.125 C30.94152832 69.89408691 30.94555664 70.66317383 30.94970703 71.45556641 C30.83984375 73.5703125 30.83984375 73.5703125 30 77 C27.6171875 78.91796875 27.6171875 78.91796875 25 80 C24.071875 80.391875 23.14375 80.78375 22.1875 81.1875 C21.1046875 81.5896875 21.1046875 81.5896875 20 82 C20.33 83.65 20.66 85.3 21 87 C24.71421564 87.26530112 26.74921217 87.12539392 30.125 85.4375 C33 84 33 84 34.9609375 84.19140625 C40.2426914 86.28589487 43.9028162 92.30755717 46.4375 97.1875 C49.30939072 104.38587545 49.2902082 112.69721847 46.375 119.875 C45.62848965 121.27502979 44.83665886 122.65190391 44 124 C43.59910156 124.68320313 43.19820312 125.36640625 42.78515625 126.0703125 C40.55093189 129.26946275 39.04149306 130.76009746 35.16796875 131.65234375 C32.42662595 131.90923467 29.75201072 132.03427771 27 132 C26.61781233 133.65614657 26.28604898 135.32457024 26 137 C26.33 137.33 26.66 137.66 27 138 C28.72359526 137.90120856 30.44709392 137.79959439 32.16943359 137.6809082 C40.98368272 137.17927586 40.98368272 137.17927586 44.0703125 139.671875 C45.34414603 141.76187731 46.24442379 143.67549202 47 146 C47.33 146.99 47.66 147.98 48 149 C48.9323486 158.90429331 47.52419142 168.08996778 41.0625 175.9375 C39.23447168 177.92847235 37.60255226 179.25880318 35.3125 180.75 C32.66197431 182.84919198 32.66197431 182.84919198 32.65234375 186.28515625 C32.74644531 187.53167969 32.84054687 188.77820313 32.9375 190.0625 C33.32449837 199.56469208 31.35769578 206.51675069 25.3125 213.9375 C20.36581387 219.06807781 15.4024321 221.53069902 8.375 222.5 C5.21816042 222.03232006 3.98031894 221.54897961 1.375 219.9375 C-1.77986423 217.70037007 -1.77986423 217.70037007 -4.9375 218.25 C-5.618125 218.4975 -6.29875 218.745 -7 219 C-6.9307652 221.39919854 -6.9307652 221.39919854 -6 224 C-3.4952741 225.90502604 -3.4952741 225.90502604 -0.4375 227.3125 C0.57441406 227.82425781 1.58632813 228.33601562 2.62890625 228.86328125 C3.41136719 229.23839844 4.19382812 229.61351562 5 230 C4.23322078 240.54321424 -0.08305314 249.47084458 -7.84765625 256.7265625 C-12.06664889 260.13195218 -15.77018129 261.82327263 -21.1171875 262.7734375 C-23.40769422 263.97715206 -23.40769422 263.97715206 -24.0625 267.53515625 C-24.20929199 268.25380859 -24.35608398 268.97246094 -24.50732422 269.71289062 C-29.30249821 291.97314332 -41.69808751 310.21074258 -57.80883789 325.73632812 C-63.74069022 331.38562066 -63.74069022 331.38562066 -66.43359375 338.9375 C-66.47382942 345.248775 -66.47382942 345.248775 -64.4375 351.125 C-61.42581647 353.44167963 -58.6929301 354.21880325 -55 355 C-59.84239576 358.22826384 -65.24304396 360.29237264 -70.5625 362.625 C-71.72458984 363.140625 -72.88667969 363.65625 -74.08398438 364.1875 C-75.19193359 364.67476563 -76.29988281 365.16203125 -77.44140625 365.6640625 C-78.96809937 366.33622803 -78.96809937 366.33622803 -80.52563477 367.02197266 C-83 368 -83 368 -85 368 C-84.75660889 366.91428711 -84.75660889 366.91428711 -84.50830078 365.80664062 C-84.02931855 363.16188573 -83.87086886 360.77588232 -83.8671875 358.09375 C-83.86589844 357.18496094 -83.86460937 356.27617187 -83.86328125 355.33984375 C-83.86714844 354.40269531 -83.87101562 353.46554687 -83.875 352.5 C-83.87113281 351.56285156 -83.86726563 350.62570312 -83.86328125 349.66015625 C-83.86457031 348.75136719 -83.86585938 347.84257812 -83.8671875 346.90625 C-83.86831543 346.08447266 -83.86944336 345.26269531 -83.87060547 344.41601562 C-83.94291572 341.97838562 -83.94291572 341.97838562 -84.4934082 339.54370117 C-85.45957532 334.69237818 -85.26937077 329.74360872 -85.3125 324.8125 C-85.34150391 323.72646484 -85.37050781 322.64042969 -85.40039062 321.52148438 C-85.54166211 303.42786772 -73.94194294 289.56559677 -62 277 C-58.50251728 273.5119267 -54.88949872 270.15303625 -51.2265625 266.83984375 C-50.69377686 266.35604248 -50.16099121 265.87224121 -49.61206055 265.3737793 C-48 264 -48 264 -46.27270508 262.80786133 C-44.35215059 261.52196639 -44.35215059 261.52196639 -42 259 C-41.51596342 256.03264533 -41.35138332 253.7554157 -41.4375 250.8125 C-41.2518007 239.84339393 -37.63014964 232.98821869 -30.109375 224.97265625 C-25.09301545 220.28143112 -19.33104879 217.50604014 -13 215 C-13.49550229 211.82878534 -14.28010896 209.35014721 -15.5625 206.375 C-18.54096177 198.53073434 -17.64584162 190.86347789 -14.2890625 183.3046875 C-12.28708449 179.72539348 -9.8309968 176.95967847 -7 174 C-3.22124814 175.73293079 -0.90310863 178.02245269 2 181 C4.78114056 183.33391203 4.78114056 183.33391203 7.6875 182.625 C8.450625 182.41875 9.21375 182.2125 10 182 C10 180.35 10 178.7 10 177 C8.86498047 176.62101562 8.86498047 176.62101562 7.70703125 176.234375 C3.04383005 174.10800909 0.9373295 170.65345257 -1 166 C-2.45952599 156.57343741 -1.02847502 147.98859868 4.30859375 140.0546875 C5.625 138.375 5.625 138.375 8 136 C8.66 136 9.32 136 10 136 C10.30631077 132.49500132 10.45689308 130.63161941 8.35546875 127.7265625 C7.64003906 127.03304687 6.92460937 126.33953125 6.1875 125.625 C-0.94427523 117.98832033 -1.68934046 111.04678127 -1.37109375 100.79296875 C-0.89269051 95.90318409 0.48791319 93.16064378 3 89 C3.39724709 85.99700118 3.45078518 84.60020274 1.609375 82.1484375 C0.99578125 81.56320313 0.3821875 80.97796875 -0.25 80.375 C-10.51174853 69.36543174 -9.52195498 53.01592399 -9.140625 38.92578125 C-8.51349736 25.87804235 -7.41380818 11.12071227 0 0 Z " fill="#A34949" transform="translate(414,73)"/>
<path d="M0 0 C14.41040701 8.43258833 21.7540626 22.77751171 26.30126953 38.2565918 C28.60281124 47.08962784 28.95723638 55.58424887 28.8515625 64.63671875 C28.84624512 65.36421326 28.84092773 66.09170776 28.83544922 66.84124756 C28.46770288 109.80274222 7.80996718 153.00826959 -21.90625 183.94140625 C-27.50250751 189.30379031 -33.41027047 192.98371968 -41.3984375 192.8515625 C-46.24159223 191.93456813 -49.23942533 188.32668193 -51.91796875 184.41015625 C-54.03265362 180.63342809 -54.03265362 180.63342809 -54.5234375 178.44921875 C-53.3874938 174.96072893 -51.33211873 173.26367923 -48.5234375 171.01171875 C-24.36037166 149.98520472 -11.89364539 113.6072109 -9.5234375 82.44921875 C-9.23355363 74.78258536 -9.32173377 67.11706368 -9.5234375 59.44921875 C-11.17958407 59.06703108 -12.84800774 58.73526773 -14.5234375 58.44921875 C-16.34659859 60.27237984 -15.80601328 63.16588707 -15.91796875 65.625 C-15.98395264 66.91825195 -16.04993652 68.21150391 -16.11791992 69.54394531 C-16.15275482 70.23234497 -16.18758972 70.92074463 -16.22348022 71.63000488 C-17.90900354 103.58039143 -25.85856493 131.74371754 -45.5234375 157.44921875 C-46.32587891 158.51462891 -46.32587891 158.51462891 -47.14453125 159.6015625 C-48.52284485 161.32347836 -49.97579542 162.87853485 -51.5234375 164.44921875 C-52.15636719 165.17238281 -52.78929687 165.89554688 -53.44140625 166.640625 C-59.00095636 172.14276151 -63.7679161 173.19919688 -71.3359375 173.26171875 C-72.16053467 173.27323975 -72.98513184 173.28476074 -73.8347168 173.29663086 C-78.16391806 173.15589763 -80.03398698 172.83328823 -83.53515625 170.0859375 C-86.67629729 165.92037718 -87.04553971 162.58322384 -86.5234375 157.44921875 C-83.52159785 152.94645928 -79.63506623 149.72727478 -75.55859375 146.20703125 C-74.88699219 145.62695312 -74.21539062 145.046875 -73.5234375 144.44921875 C-72.94464844 143.95164062 -72.36585938 143.4540625 -71.76953125 142.94140625 C-60.74159846 132.75783954 -51.86611111 115.94533595 -48.5234375 101.44921875 C-48.5619862 98.89669464 -48.5619862 98.89669464 -49.0234375 96.44921875 C-49.84287524 89.43522189 -49.22146377 82.30196762 -47.5234375 75.44921875 C-46.5334375 74.78921875 -45.5434375 74.12921875 -44.5234375 73.44921875 C-44.20511093 70.91196875 -44.100233 68.67491541 -44.1484375 66.13671875 C-44.15423828 65.3905127 -44.16003906 64.64430664 -44.16601562 63.87548828 C-44.30143461 57.77536451 -45.08265126 51.84612784 -46.0234375 45.82421875 C-49.97807131 20.47400204 -49.97807131 20.47400204 -44.5234375 12.44921875 C-34.0342963 0.19874307 -15.15546453 -6.85604348 0 0 Z " fill="#EE8BA0" transform="translate(328.5234375,172.55078125)"/>
<path d="M0 0 C5.53846154 0.61538462 5.53846154 0.61538462 7.875 2.5625 C8.24625 3.036875 8.6175 3.51125 9 4 C7.31575572 5.71165513 5.62849192 7.42002614 3.9375 9.125 C3.43669922 9.6305542 2.93589844 10.1361084 2.41992188 10.65698242 C-0.28383885 13.36291799 -3.01250053 15.9160757 -6 18.3125 C-9.7780342 21.51975206 -11.71826578 24.4524878 -12.27734375 29.5078125 C-12.4679277 34.98138344 -11.7964921 39.39022699 -9.86328125 44.484375 C0.48623326 74.64314127 -4.0439761 113.14259217 -17.6796875 141.4921875 C-21.30027174 148.30027174 -21.30027174 148.30027174 -23 150 C-30.44414088 150.67824395 -37.60840436 149.4282295 -44.875 147.9375 C-45.95692627 147.71852051 -47.03885254 147.49954102 -48.15356445 147.27392578 C-60.52650341 144.64262197 -72.77274544 140.90908135 -84 135 C-84.76992218 114.50526393 -82.90660344 99.25908023 -68.59375 83.77734375 C-67.7378125 82.86082031 -66.881875 81.94429688 -66 81 C-65.00925319 79.91903397 -64.01971933 78.83695528 -63.03125 77.75390625 C-58.06038561 72.31810686 -53.03228075 66.98420382 -47.78515625 61.8125 C-45.37291118 59.36330588 -43.13664148 56.78364336 -40.8984375 54.17578125 C-38.73254995 51.69347802 -36.49123043 49.28944855 -34.25 46.875 C-21.1939756 32.53315501 -9.90264729 16.65193762 0 0 Z " fill="#FDC956" transform="translate(247,302)"/>
<path d="M0 0 C4.4542195 0.06247013 8.06338487 1.14430889 12.171875 2.78515625 C12.86506836 3.05545654 13.55826172 3.32575684 14.27246094 3.60424805 C26.08762621 8.36109133 36.9848219 15.52930846 46.453125 24.05078125 C48.39280006 25.5184711 48.39280006 25.5184711 50.734375 24.64453125 C54.8057522 24.00541971 57.22719667 26.22682469 60.421875 28.47265625 C61.62985706 29.29088342 62.83818431 30.10860124 64.046875 30.92578125 C64.90539062 31.52229492 64.90539062 31.52229492 65.78125 32.13085938 C67.58561837 33.36848241 67.58561837 33.36848241 70.296875 34.76953125 C72.421875 36.22265625 72.421875 36.22265625 72.8515625 38.203125 C73.26860776 40.54704108 73.26860776 40.54704108 76.1171875 41.8984375 C77.24898438 42.43855469 78.38078125 42.97867188 79.546875 43.53515625 C91.82605816 49.81218273 98.35630374 59.90650463 102.625 72.87890625 C105.56950455 85.23427828 101.72102026 97.13386768 95.30737305 107.75463867 C90.99163568 114.52193014 85.93294801 120.39117202 80.421875 126.22265625 C79.4106839 127.42163999 78.40858465 128.62844605 77.421875 129.84765625 C76.761875 130.63140625 76.101875 131.41515625 75.421875 132.22265625 C75.091875 132.22265625 74.761875 132.22265625 74.421875 132.22265625 C74.298125 131.03671875 74.174375 129.85078125 74.046875 128.62890625 C71.67942661 108.96150256 63.82213055 96.44690031 50.421875 82.22265625 C49.28451427 81.00189989 48.14779114 79.78054917 47.01171875 78.55859375 C45.3515493 76.77487681 43.69030281 74.99230676 42.0234375 73.21484375 C38.01642845 68.9251017 34.24607515 64.49071089 30.58203125 59.90234375 C29.12119092 58.09016207 27.62768325 56.30391166 26.10546875 54.54296875 C-3.65617208 20.05195 -3.65617208 20.05195 -4.765625 3.41015625 C-4.45073527 -0.26355725 -3.86270449 0.2403648 0 0 Z " fill="#A34949" transform="translate(121.578125,184.77734375)"/>
<path d="M0 0 C0.7425 0.391875 1.485 0.78375 2.25 1.1875 C1.64379716 7.12082908 0.8281256 12.93738941 -0.2734375 18.796875 C-0.57476657 20.44111343 -0.87535589 22.08548755 -1.17529297 23.72998047 C-1.33076599 24.57993591 -1.48623901 25.42989136 -1.64642334 26.30560303 C-6.97310841 55.59931392 -9.95508409 84.80118348 -9.88037109 114.59155273 C-9.87500988 117.12034107 -9.88036072 119.64895133 -9.88671875 122.17773438 C-9.89750369 139.81858027 -9.01203987 157.07447686 -6.1875 174.5 C-6.0575061 175.31321716 -5.92751221 176.12643433 -5.7935791 176.96429443 C-2.32696144 198.41718414 3.25034354 219.05733298 10.4375 239.5625 C10.84129883 240.71572754 11.24509766 241.86895508 11.66113281 243.05712891 C15.29022665 253.02007458 19.43247886 261.91124912 29.078125 267.1875 C34.93431954 269.8355184 40.72006999 270.37977203 47.0625 270.75 C47.75537109 270.79318359 48.44824219 270.83636719 49.16210938 270.88085938 C50.85788686 270.98611453 52.55392052 271.08722863 54.25 271.1875 C54.875 273.5625 54.875 273.5625 55.25 276.1875 C51.68967551 279.74782449 46.90112809 279.38802201 42.0625 279.5 C31.18409664 279.38962161 22.41855702 274.59762788 14.34375 267.515625 C5.40917198 258.34592651 1.93860781 243.89652307 -1.8125 232 C-2.02788422 231.32197327 -2.24326843 230.64394653 -2.46517944 229.94537354 C-7.41242517 214.35509259 -11.56675244 198.99446288 -14.4375 182.875 C-14.64028564 181.7494873 -14.84307129 180.62397461 -15.05200195 179.46435547 C-18.61304107 158.43712577 -19.15622466 137.41414764 -19.125 116.125 C-19.1249081 115.4465868 -19.12481621 114.7681736 -19.12472153 114.06920242 C-19.12078978 91.56183301 -18.2353554 69.44737682 -14.75 47.1875 C-14.59440613 46.18384399 -14.59440613 46.18384399 -14.43566895 45.15991211 C-13.18832192 37.14255437 -11.80360925 29.15560104 -10.30078125 21.18212891 C-9.79688308 18.44240594 -9.33956068 15.70084881 -8.90625 12.94921875 C-8.78193604 12.19165283 -8.65762207 11.43408691 -8.52954102 10.65356445 C-8.21934986 8.75721383 -7.91962103 6.85915922 -7.62109375 4.9609375 C-6.75 2.1875 -6.75 2.1875 -4.83203125 0.23828125 C-2.75 -0.8125 -2.75 -0.8125 0 0 Z " fill="#060402" transform="translate(69.75,9.8125)"/>
<path d="M0 0 C6.6 0 13.2 0 20 0 C20.825 1.670625 21.65 3.34125 22.5 5.0625 C25.74300356 11.04661372 29.82523394 15.91261697 36 19 C37.53668865 19.22467831 39.07968054 19.40796805 40.625 19.5625 C41.85089844 19.68818359 41.85089844 19.68818359 43.1015625 19.81640625 C44.04128906 19.90728516 44.04128906 19.90728516 45 20 C42.17926372 23.97796143 39.36534028 27.76953974 35.8125 31.125 C23.89350966 42.75392642 10.49894182 59.76302268 9.56640625 76.9375 C9.54942762 78.62491509 9.54822166 80.3125599 9.5625 82 C9.54251953 82.83789062 9.52253906 83.67578125 9.50195312 84.5390625 C9.50628426 90.134893 10.60203839 94.1987857 13.14038086 99.1875 C14 101 14 101 14 103 C4.1 103 -5.8 103 -16 103 C-12.75 96.1875 -12.75 96.1875 -11.75292969 94.11791992 C-7.25499093 84.57895991 -4.32422171 75.04398705 -2.375 64.6875 C-2.16335205 63.58374023 -1.9517041 62.47998047 -1.73364258 61.34277344 C-1.14397338 58.23056681 -0.57015768 55.11582888 0 52 C0.13712402 51.28344238 0.27424805 50.56688477 0.41552734 49.82861328 C2.92795413 36.58610424 3.64868931 21.4331624 0.4375 8.25390625 C0 6 0 6 0 0 Z " fill="#F15353" transform="translate(247,353)"/>
<path d="M0 0 C4.15654359 0.46183818 6.21466571 0.88009102 9 4 C-6.24343257 19.74781086 -6.24343257 19.74781086 -13 22 C-11.43098498 17.51466358 -9.09540423 13.81371249 -6.5 9.875 C-6.09652344 9.25496094 -5.69304687 8.63492187 -5.27734375 7.99609375 C-3.53374251 5.32027006 -1.77158238 2.65737357 0 0 Z " fill="#F3C253" transform="translate(247,302)"/>
</svg>
