<?xml version="1.0" encoding="UTF-8"?>
<svg version="1.1" xmlns="http://www.w3.org/2000/svg" width="512" height="512">
<path d="M0 0 C1.41060196 -0.01007584 1.41060196 -0.01007584 2.84970093 -0.02035522 C5.95250759 -0.03932538 9.05509798 -0.04325841 12.15795898 -0.04541016 C14.31599517 -0.05183688 16.47403047 -0.05856515 18.63206482 -0.06558228 C23.15202862 -0.07755123 27.671916 -0.0812633 32.19189453 -0.08007812 C37.98826416 -0.07987453 43.78414574 -0.10722058 49.58039951 -0.14162254 C54.03531658 -0.16383538 58.49011493 -0.16791745 62.94508171 -0.16685867 C65.08255641 -0.16922142 67.22003406 -0.17808262 69.3574543 -0.19352341 C72.34282048 -0.21307706 75.32711731 -0.20738792 78.3125 -0.1953125 C79.19728531 -0.20655151 80.08207062 -0.21779053 80.9936676 -0.22937012 C86.9496002 -0.16802266 86.9496002 -0.16802266 90.17149353 2.13339233 C91.59155273 4.29052734 91.59155273 4.29052734 91.59155273 7.29052734 C97.86155273 7.29052734 104.13155273 7.29052734 110.59155273 7.29052734 C111.25155273 5.64052734 111.91155273 3.99052734 112.59155273 2.29052734 C115.23186412 -0.34978404 116.42086895 0.03518028 120.10662842 0.02310181 C121.27868835 0.01457184 122.45074829 0.00604187 123.6583252 -0.00274658 C124.95081177 -0.00184021 126.24329834 -0.00093384 127.57495117 0 C128.94480762 -0.00598201 130.31466068 -0.01278679 131.68450928 -0.02035522 C135.4119655 -0.03806027 139.13932995 -0.04271261 142.86682415 -0.0439868 C145.97799981 -0.04588402 149.08915402 -0.05323988 152.20032144 -0.06033099 C159.54265695 -0.07663119 166.8849434 -0.08149862 174.22729492 -0.08007812 C181.7992728 -0.07887762 189.3709652 -0.09995719 196.94287086 -0.13156545 C203.44317711 -0.15773273 209.9433902 -0.16844517 216.44374871 -0.16716731 C220.32622565 -0.16665761 224.20844925 -0.17234397 228.09087372 -0.19352341 C231.74517194 -0.21291254 235.39897548 -0.21302612 239.05329132 -0.19849014 C241.02977395 -0.19540734 243.00625665 -0.21207561 244.98266602 -0.22937012 C255.76442946 -0.1529356 255.76442946 -0.1529356 260.59155273 4.29052734 C264.98348723 8.96844827 265.99595359 13.36633347 265.84985352 19.62792969 C265.4313335 23.94208778 264.12000699 27.75513189 262.59155273 31.79052734 C262.27613525 32.65218506 261.96071777 33.51384277 261.63574219 34.40161133 C249.15724066 67.89330836 230.255671 98.01315192 208.59155273 126.29052734 C207.83616211 127.29083984 207.08077148 128.29115234 206.30249023 129.32177734 C192.57407712 147.38783239 177.84239649 164.68841702 162.37670898 181.28662109 C159.80703869 184.04696428 157.28856311 186.85028981 154.77905273 189.66552734 C152.16537759 192.59759565 149.49165895 195.38803374 146.65405273 198.10302734 C144.0956571 200.62580726 142.39236295 202.68688138 141.59155273 206.29052734 C141.92155273 207.28052734 142.25155273 208.27052734 142.59155273 209.29052734 C143.37100854 216.36951944 142.66627426 222.35581529 138.59155273 228.29052734 C135.75660591 231.39703657 132.82138066 234.32166624 129.75952148 237.20068359 C127.43783431 239.40237101 125.32581658 241.70487345 123.24389648 244.13427734 C118.73559011 249.36962968 113.7416225 254.09607744 108.73217773 258.84716797 C103.31380131 264.13445464 98.62300038 269.59455762 96.96264648 277.15380859 C97.30008118 289.59919399 102.7375625 300.01265416 108.40405273 310.85302734 C125.6227449 344.32658931 125.6227449 344.32658931 123.59155273 362.29052734 C121.73252971 367.4385911 119.49470168 372.3873784 115.59155273 376.29052734 C115.72663444 378.78646891 115.98067032 381.13736935 116.34155273 383.60302734 C116.54423027 385.14180731 116.74464587 386.68088645 116.94311523 388.22021484 C117.05042969 389.03973633 117.15774414 389.85925781 117.26831055 390.70361328 C117.83063291 395.20389102 118.27800085 399.71426041 118.71655273 404.22802734 C118.84755371 405.50383667 118.84755371 405.50383667 118.98120117 406.80541992 C119.39769454 411.10876654 119.68880398 415.40133509 119.79467773 419.72412109 C119.81433594 420.52519287 119.83399414 421.32626465 119.85424805 422.15161133 C119.59155273 424.29052734 119.59155273 424.29052734 117.21655273 427.41552734 C114.59155273 429.29052734 114.59155273 429.29052734 112.59155273 429.29052734 C112.59155273 435.56052734 112.59155273 441.83052734 112.59155273 448.29052734 C114.24155273 448.95052734 115.89155273 449.61052734 117.59155273 450.29052734 C120.16353682 452.86251143 119.84864936 453.86197483 119.85717773 457.43505859 C119.86358276 459.02471436 119.86358276 459.02471436 119.87011719 460.64648438 C119.86069092 461.78714355 119.85126465 462.92780273 119.84155273 464.10302734 C119.83406006 465.26688965 119.82656738 466.43075195 119.81884766 467.62988281 C119.72794529 475.07372009 119.49072575 482.49357304 118.90405273 489.91552734 C118.85087891 490.74802002 118.79770508 491.5805127 118.74291992 492.43823242 C118.12885684 498.94769981 116.17620913 504.20119144 111.13255024 508.54792786 C104.79924252 513.1452181 98.85271031 512.99969855 91.23413086 512.9375 C89.8961824 512.94428593 88.55824329 512.95319452 87.22032166 512.96405029 C83.60650162 512.98673531 79.99339978 512.97805289 76.3795681 512.96215487 C72.58631928 512.94943932 68.79312933 512.9612516 64.99987793 512.96908569 C58.63139885 512.97816591 52.2632103 512.96623741 45.89477539 512.94238281 C38.54640116 512.91517435 31.19872069 512.92398969 23.85036325 512.95151484 C17.525653 512.97425164 11.20115082 512.9773838 4.87641287 512.96432149 C1.10573052 512.95655193 -2.66462642 512.95541599 -6.43528748 512.97200394 C-9.98149808 512.98651657 -13.52681988 512.97630551 -17.0729351 512.94753265 C-18.98452937 512.93783726 -20.89619937 512.95256411 -22.80775452 512.96817017 C-29.89054858 512.8814983 -35.03926464 512.16451966 -40.40844727 507.29052734 C-45.68021327 501.22689571 -46.56124742 494.71342567 -47.50610352 486.91943359 C-47.74761391 485.12758888 -47.74761391 485.12758888 -47.9940033 483.29954529 C-48.50439732 479.48617121 -48.98859222 475.67003946 -49.47094727 471.85302734 C-49.96052785 468.11187434 -50.45560459 464.37148234 -50.95175171 460.63119507 C-51.27884307 458.16279892 -51.60342057 455.69406832 -51.92544556 453.2250061 C-53.16701765 443.79484168 -54.61033806 434.40684455 -56.1865387 425.0269928 C-56.34669968 424.06458176 -56.50686066 423.10217072 -56.671875 422.1105957 C-56.81439194 421.27233749 -56.95690887 420.43407928 -57.10374451 419.57041931 C-57.40844727 417.29052734 -57.40844727 417.29052734 -57.40844727 413.29052734 C-58.15094727 413.18869141 -58.89344727 413.08685547 -59.65844727 412.98193359 C-62.69234544 412.21914954 -64.0844003 411.28499633 -66.40844727 409.22802734 C-67.04782227 408.68017578 -67.68719727 408.13232422 -68.34594727 407.56787109 C-75.18776961 400.01335892 -77.12008692 391.66878017 -79.22094727 381.91552734 C-79.53406096 380.52329834 -79.84850428 379.13136768 -80.16430664 377.73974609 C-82.40844727 367.74551385 -82.40844727 367.74551385 -82.40844727 365.29052734 C-83.64594727 364.98115234 -83.64594727 364.98115234 -84.90844727 364.66552734 C-93.26382415 361.38305786 -97.93263195 355.86153174 -102.40844727 348.29052734 C-102.92117187 347.44675537 -103.43389648 346.6029834 -103.9621582 345.73364258 C-104.98761063 344.03823433 -106.00570854 342.33835276 -107.01586914 340.63378906 C-108.21272971 338.61985713 -109.43518485 336.62636181 -110.67407227 334.63818359 C-130.69014596 301.50133719 -140.45997686 256.27130984 -131.40844727 218.29052734 C-120.37851373 174.96025677 -120.37851373 174.96025677 -111.40844727 166.29052734 C-110.27665039 165.76716797 -109.14485352 165.24380859 -107.97875977 164.70458984 C-102.94793067 161.93262148 -101.98073861 157.31284006 -100.28344727 152.10302734 C-99.52900804 149.95210161 -98.77098063 147.8024322 -98.01000977 145.65380859 C-97.60169922 144.48414551 -97.19338867 143.31448242 -96.77270508 142.109375 C-94.49923728 135.67979615 -92.00707906 129.33233638 -89.51641846 122.98446655 C-88.67395542 120.83018362 -87.84330942 118.67160605 -87.01342773 116.51245117 C-79.18220334 96.35320321 -79.18220334 96.35320321 -70.49047852 92.42333984 C-67.60900522 91.28805018 -65.05400322 90.34336188 -61.95043945 90.08935547 C-59.21500231 89.52616699 -59.21500231 89.52616699 -57.91723633 86.99438477 C-57.50699219 85.9719165 -57.09674805 84.94944824 -56.67407227 83.89599609 C-56.19083496 82.73003906 -55.70759766 81.56408203 -55.2097168 80.36279297 C-54.95788635 79.73155518 -54.70605591 79.10031738 -54.44659424 78.44995117 C-53.08336613 75.03918887 -51.65292859 71.65665964 -50.22875977 68.27099609 C-49.92763275 67.55120575 -49.62650574 66.83141541 -49.31625366 66.08981323 C-45.64448619 57.37105272 -41.59427072 48.83317327 -37.53344727 40.29052734 C-36.82543911 38.7946779 -36.11743129 37.29882829 -35.40942383 35.80297852 C-33.74511239 32.29453546 -32.06599664 28.79351582 -30.37628174 25.29724121 C-29.72847443 23.95407361 -29.08376084 22.60940974 -28.44207764 21.26330566 C-27.52240815 19.33600292 -26.59190758 17.41430601 -25.65844727 15.49365234 C-25.12993164 14.39698242 -24.60141602 13.3003125 -24.05688477 12.17041016 C-18.46477361 2.40077994 -10.59904155 -0.01088253 0 0 Z " fill="#010102" transform="translate(190.408447265625,-0.29052734375)"/>
<path d="M0 0 C6.6 0 13.2 0 20 0 C20.99 1.98 21.98 3.96 23 6 C24.70057776 7.70057776 26.87960826 7.14300398 29.20741272 7.15821838 C30.33628403 7.1680072 31.46515533 7.17779602 32.62823486 7.18788147 C33.87763855 7.19363693 35.12704224 7.1993924 36.41430664 7.20532227 C38.37499336 7.22017166 38.37499336 7.22017166 40.37528992 7.23532104 C43.97013761 7.26243408 47.56499851 7.28340887 51.15989232 7.30332303 C54.9128889 7.32514326 58.66584446 7.35255127 62.41880798 7.37937927 C69.5302785 7.42935992 76.64177173 7.47427874 83.75328678 7.51740164 C91.8474998 7.5667282 99.94167167 7.62166326 108.03584492 7.67708123 C124.69052538 7.79098371 141.34524351 7.89780465 158 8 C158.0742605 12.81197411 157.83002416 16.30684737 156.015625 20.78125 C155.58145264 21.85866455 155.14728027 22.9360791 154.69995117 24.04614258 C154.22146729 25.18591553 153.7429834 26.32568848 153.25 27.5 C152.75411377 28.69326904 152.25822754 29.88653809 151.74731445 31.1159668 C138.3168032 62.85563885 119.20766148 90.99508849 98 118 C97.33742188 118.845625 96.67484375 119.69125 95.9921875 120.5625 C91.81196052 125.84278671 87.49528839 130.99830219 83.12597656 136.12207031 C80.29125584 139.45097021 77.53406243 142.82727168 74.8125 146.25 C70.11103829 152.03968431 64.99557661 157.41929048 59.84692383 162.81152344 C55.97818004 166.86681043 52.21865755 170.98863053 48.54492188 175.22143555 C46.67398571 177.37531829 44.77663605 179.49307006 42.8125 181.5625 C42.17957031 182.24441406 41.54664063 182.92632812 40.89453125 183.62890625 C39 185 39 185 37.08520508 184.7409668 C34.85049529 183.94687428 33.53910998 183.04996616 31.7421875 181.515625 C31.12633789 180.99935547 30.51048828 180.48308594 29.87597656 179.95117188 C29.2156543 179.38978516 28.55533203 178.82839844 27.875 178.25 C-17.50142078 140.60653839 -71.39998047 113.36590377 -126.12548828 92.13085938 C-129.45036568 90.82282199 -132.73057415 89.44027571 -136 88 C-133.39082844 79.28653529 -129.56247548 71.17085204 -125.75 62.9375 C-125.03982588 61.39841693 -124.32978558 59.85927211 -123.61987305 58.32006836 C-122.52262867 55.94279024 -121.4243578 53.56600599 -120.3235321 51.19038391 C-118.13565367 46.46842116 -115.96712596 41.73830994 -113.81747437 36.99882507 C-112.47822292 34.05096347 -111.12819411 31.1081221 -109.77575684 28.16629028 C-109.13781899 26.77300928 -108.504209 25.37773787 -107.87512207 23.98043823 C-106.99784632 22.03453601 -106.10450078 20.09681029 -105.20703125 18.16015625 C-104.7066333 17.06324463 -104.20623535 15.96633301 -103.69067383 14.83618164 C-101.72080726 11.53164159 -100.26748042 10.04974591 -97 8 C-94.01287575 7.43404379 -91.08331862 7.47653238 -88.05053711 7.51757812 C-87.15890366 7.51366562 -86.2672702 7.50975311 -85.34861755 7.50572205 C-83.41761417 7.49975511 -81.48656574 7.5029025 -79.55558586 7.5141449 C-76.49992454 7.53140488 -73.44520938 7.52390071 -70.38954163 7.5098877 C-63.90546328 7.484545 -57.42160776 7.49006001 -50.9375 7.5 C-43.42001464 7.51151733 -35.90298827 7.51043228 -28.38556099 7.47593689 C-25.37404443 7.4688307 -22.3632509 7.4855344 -19.35179138 7.50305176 C-17.50787971 7.49734542 -15.66397103 7.49052889 -13.82006836 7.48242188 C-12.98203674 7.49373642 -12.14400513 7.50505096 -11.28057861 7.51670837 C-7.65401849 7.4785251 -5.46984471 7.34786881 -2.51124573 5.15734863 C-0.83643548 2.98480425 -0.83643548 2.98480425 0 0 Z " fill="#FEDDCE" transform="translate(282,7)"/>
<path d="M0 0 C1.20873779 0.47477783 2.41747559 0.94955566 3.6628418 1.4387207 C4.95210779 1.93858142 6.24141529 2.43833508 7.53076172 2.93798828 C41.52424504 16.19912628 74.45727012 31.6819379 105.6003418 50.7512207 C106.45402344 51.27167969 107.30770508 51.79213867 108.18725586 52.32836914 C127.4308297 64.11365688 145.75827707 77.19077071 163.0769043 91.6652832 C164.70637031 93.01224118 166.36677023 94.32300065 168.0612793 95.5871582 C169.16342773 96.44180664 169.16342773 96.44180664 170.2878418 97.3137207 C171.25270508 98.0272168 171.25270508 98.0272168 172.23706055 98.75512695 C173.97674913 101.30235006 174.32159677 103.52642354 174.18603516 106.59082031 C172.98179218 111.03281534 169.35384164 113.75951688 166.0378418 116.7512207 C164.61743608 118.08195762 163.19945304 119.4152853 161.78393555 120.7512207 C161.08445801 121.40614502 160.38498047 122.06106934 159.66430664 122.73583984 C155.70180861 126.60506402 152.18685533 130.85936627 148.6315918 135.09887695 C148.1262793 135.66477539 147.6209668 136.23067383 147.1003418 136.8137207 C146.5950293 137.40282227 146.0897168 137.99192383 145.5690918 138.59887695 C142.47032875 140.41263707 139.9054206 139.61148137 136.6003418 138.7512207 C132.27641781 137.47094212 128.00269629 136.05336945 123.7253418 134.6262207 C110.45356304 130.27705524 97.08764387 126.37874366 83.6003418 122.7512207 C82.4441333 122.44023437 81.2879248 122.12924805 80.09667969 121.80883789 C71.63030509 119.54168228 63.15140102 117.32659004 54.66357422 115.14135742 C52.63905729 114.62009681 50.61480037 114.09783557 48.59057617 113.57543945 C47.93069199 113.40566589 47.2708078 113.23589233 46.59092712 113.06097412 C44.69838787 112.57215195 42.80765418 112.07635571 40.91699219 111.58032227 C38.9417044 111.08653667 36.95523409 110.63101799 34.95361328 110.25805664 C32.7878418 109.8527832 32.7878418 109.8527832 29.6003418 108.7512207 C28.19018555 106.2824707 28.19018555 106.2824707 27.5378418 103.2512207 C22.57568575 85.27146049 6.3369841 75.46471222 -8.9621582 66.6887207 C-18.7507403 61.22073501 -29.0178248 56.95312529 -39.3996582 52.7512207 C-38.8092399 48.59482972 -37.86212637 44.89267991 -36.39575195 40.9621582 C-35.98856934 39.86452148 -35.58138672 38.76688477 -35.16186523 37.63598633 C-34.72471191 36.47776367 -34.28755859 35.31954102 -33.8371582 34.1262207 C-33.38969238 32.93448242 -32.94222656 31.74274414 -32.48120117 30.51489258 C-31.12775121 26.92428357 -29.7640418 23.33768654 -28.3996582 19.7512207 C-27.81063721 18.18355957 -27.81063721 18.18355957 -27.2097168 16.58422852 C-26.16176567 13.80105457 -25.09687627 11.02512077 -24.0246582 8.2512207 C-23.71584717 7.42799316 -23.40703613 6.60476562 -23.08886719 5.7565918 C-18.34154842 -6.3029112 -10.59927648 -4.0193737 0 0 Z " fill="#8795DF" transform="translate(143.399658203125,109.248779296875)"/>
<path d="M0 0 C1.95658699 9.26312527 2.5815172 18.409618 2.94726562 27.85546875 C3.12438413 34.60662919 3.12438413 34.60662919 6.38671875 40.2265625 C8.93674963 42.12950065 8.93674963 42.12950065 12 43 C12 49.6 12 56.2 12 63 C9.525 63.99 9.525 63.99 7 65 C2.4489267 69.5510733 3.71472712 79.15015935 3.5 85.25 C3.35987401 89.16833781 3.19774512 93.08412633 3 97 C2.92652344 98.52463867 2.92652344 98.52463867 2.8515625 100.08007812 C2.78710938 101.05912109 2.72265625 102.03816406 2.65625 103.046875 C2.57600586 104.36703613 2.57600586 104.36703613 2.49414062 105.71386719 C1.89307398 108.49469134 1.23855533 109.27470569 -1 111 C-3.34416962 111.37752342 -3.34416962 111.37752342 -6.1619873 111.38095093 C-7.23037338 111.3894104 -8.29875946 111.39786987 -9.39952087 111.40658569 C-11.15758812 111.39747665 -11.15758812 111.39747665 -12.95117188 111.38818359 C-14.18549454 111.39344055 -15.4198172 111.39869751 -16.69154358 111.40411377 C-20.07801611 111.41506689 -23.46393989 111.41248337 -26.85038185 111.40297651 C-30.39240895 111.39538704 -33.93441242 111.40242354 -37.47644043 111.40713501 C-43.42492895 111.41259466 -49.37330578 111.40539554 -55.32177734 111.39111328 C-62.20137022 111.37478627 -69.08069639 111.38007464 -75.9602828 111.3965925 C-81.86439852 111.41020148 -87.76843389 111.41212994 -93.67256021 111.40427649 C-97.19995909 111.3995967 -100.72723256 111.39898341 -104.25462341 111.40888596 C-108.18613065 111.41915181 -112.11733856 111.40492774 -116.04882812 111.38818359 C-117.22087296 111.39425629 -118.39291779 111.40032898 -119.60047913 111.40658569 C-120.6688652 111.39812622 -121.73725128 111.38966675 -122.8380127 111.38095093 C-123.76789253 111.37981985 -124.69777237 111.37868877 -125.65583038 111.37752342 C-128.44023157 110.92910166 -129.31431385 110.21810604 -131 108 C-131.56835938 106.08322144 -131.56835938 106.08322144 -131.84375 103.89013672 C-131.95396484 103.06432098 -132.06417969 102.23850525 -132.17773438 101.38766479 C-132.28408203 100.49403229 -132.39042969 99.60039978 -132.5 98.6796875 C-132.68272461 97.28159348 -132.68272461 97.28159348 -132.86914062 95.85525513 C-133.258131 92.86323965 -133.62985685 89.86940029 -134 86.875 C-134.49423617 82.97581127 -134.99573074 79.07759034 -135.5 75.1796875 C-135.68453735 73.74021759 -135.68453735 73.74021759 -135.87280273 72.27166748 C-136.71198883 65.84536261 -137.7521744 59.48318562 -138.9387207 53.11300659 C-140.33768379 45.45569024 -141.17690831 37.73706191 -142 30 C-140.42424194 30.02356567 -140.42424194 30.02356567 -138.81665039 30.04760742 C-118.36901577 30.32577656 -98.21770613 30.52075243 -78 27 C-76.99485352 26.82839355 -75.98970703 26.65678711 -74.95410156 26.47998047 C-50.35361616 22.14760037 -27.18610989 13.65565419 -5.50390625 1.25 C-3 0 -3 0 0 0 Z " fill="#FEDDCE" transform="translate(291,386)"/>
<path d="M0 0 C2.7208516 0.72620349 5.23822207 1.73985364 7.8125 2.875 C8.5353418 3.18526123 9.25818359 3.49552246 10.00292969 3.81518555 C50.23256008 21.46406384 50.23256008 21.46406384 58 40 C58.28672633 42.6873566 58.42966914 45.07600776 58.375 47.75 C58.36702393 48.45737305 58.35904785 49.16474609 58.35083008 49.89355469 C58.21858652 54.77931261 57.49396708 58.98348353 55.86328125 63.56640625 C54.85571861 66.40672989 54.10840772 69.26470766 53.375 72.1875 C53.13523437 73.12980469 52.89546875 74.07210937 52.6484375 75.04296875 C49.78460074 88.10275445 49.98501033 102.08950354 52.5 115.1875 C54.81778825 127.53304627 56.55292376 140.11267242 49.89453125 151.38671875 C44.2148352 159.22118608 37.55250216 164.57011116 29 169 C28.07703125 169.48726562 27.1540625 169.97453125 26.203125 170.4765625 C20.58690588 173.25364323 16.26826044 175.08073456 10 174 C5.66108648 170.29104293 2.71696304 165.8967827 -0.3125 161.125 C-0.79106445 160.37323486 -1.26962891 159.62146973 -1.76269531 158.84692383 C-10.2180245 145.41313075 -16.17651883 132.14072781 -21 117 C-21.4021875 115.76121094 -21.804375 114.52242188 -22.21875 113.24609375 C-30.53136362 86.07266363 -30.71743992 58.04806456 -22 31 C-21.64131836 29.85289551 -21.28263672 28.70579102 -20.91308594 27.52392578 C-19.78383038 23.94311157 -18.62073076 20.37582113 -17.4375 16.8125 C-17.07406494 15.70680664 -16.71062988 14.60111328 -16.33618164 13.46191406 C-13.29941845 4.74269701 -10.43391181 -1.75158959 0 0 Z " fill="#4C65D0" transform="translate(100,176)"/>
<path d="M0 0 C1.34692383 2.046875 1.34692383 2.046875 2.70703125 4.75 C3.45968262 6.23995483 3.45968262 6.23995483 4.22753906 7.76000977 C5.01209473 9.36380493 5.01209473 9.36380493 5.8125 11 C6.34713867 12.084021 6.88177734 13.16804199 7.43261719 14.28491211 C10.49822223 20.60713872 13.37772416 26.94641075 15.75 33.5625 C15.98952393 34.22056641 16.22904785 34.87863281 16.47583008 35.55664062 C18.43986417 41.39954745 18.88808028 45.84757384 16.515625 51.59765625 C13.8219837 55.82563527 10.0294163 57.99928573 5.75 60.4375 C4.95295654 60.90631592 4.15591309 61.37513184 3.3347168 61.8581543 C-38.92931769 86.40572204 -85.54723576 95.79356252 -134.125 91.25 C-134.85710693 91.18844727 -135.58921387 91.12689453 -136.34350586 91.06347656 C-142.29271308 90.37689261 -146.07448861 88.10544883 -150.07958984 83.72607422 C-152.16803771 80.76146592 -152.81811337 78.68987434 -153.484375 75.1484375 C-153.69707031 74.05015625 -153.90976563 72.951875 -154.12890625 71.8203125 C-154.43634766 70.11488281 -154.43634766 70.11488281 -154.75 68.375 C-155.08064453 66.65796875 -155.08064453 66.65796875 -155.41796875 64.90625 C-157 56.5539111 -157 56.5539111 -157 53 C-155.94941406 52.49210937 -154.89882812 51.98421875 -153.81640625 51.4609375 C-146.21998262 47.75187709 -138.78773955 44.09080466 -132 39 C-131.1028125 38.36578125 -131.1028125 38.36578125 -130.1875 37.71875 C-123.1212278 32.29286242 -118.17176111 24.22786542 -115 16 C-114.33210449 15.97607178 -113.66420898 15.95214355 -112.97607422 15.92749023 C-83.71835484 14.73674067 -25.54234928 -8.51411643 0 0 Z " fill="#8795DE" transform="translate(281,310)"/>
<path d="M0 0 C6.41627706 1.17220446 12.73215683 2.64682263 19.05200195 4.25683594 C23.40356539 5.36132915 27.76287516 6.4234812 32.1328125 7.453125 C52.16726951 12.17498509 52.16726951 12.17498509 60.9453125 15.015625 C64.56903836 16.18337298 68.21953454 17.24974112 71.875 18.3125 C82.61140323 21.44849814 93.30420498 24.72872874 104 28 C103.79503906 28.60328125 103.59007812 29.2065625 103.37890625 29.828125 C103.10949219 30.62734375 102.84007812 31.4265625 102.5625 32.25 C102.29566406 33.03890625 102.02882813 33.8278125 101.75390625 34.640625 C98.82624889 43.80282731 99.54426857 52.79100715 102 62 C92.73540255 64.83796778 83.51687953 67.03575092 73.98608398 68.75537109 C71.93406028 69.12562063 69.88395752 69.50529432 67.83398438 69.88671875 C59.57866899 71.41192552 51.30516761 72.77321564 43 74 C42.08065674 74.13825195 41.16131348 74.27650391 40.21411133 74.41894531 C26.0961732 76.53202826 12.30636159 78.228293 -2 78 C-2.10957031 77.16339844 -2.21914062 76.32679688 -2.33203125 75.46484375 C-3.18997758 69.16626219 -4.19048882 63.068553 -5.625 56.875 C-9.52640179 37.54805576 -6.27091535 18.48019752 0 0 Z " fill="#4C65D0" transform="translate(172,233)"/>
<path d="M0 0 C4.57711169 0.5495969 7.90883557 2.51238358 11.6875 5 C12.30036865 5.40154297 12.9132373 5.80308594 13.54467773 6.21679688 C21.70854826 11.68425515 31.17749607 18.10698116 34 28 C34.85482435 36.09568941 34.61742534 43.82608661 31.86328125 51.56640625 C30.85571861 54.40672989 30.10840772 57.26470766 29.375 60.1875 C29.13523438 61.12980469 28.89546875 62.07210937 28.6484375 63.04296875 C25.78460074 76.10275445 25.98501033 90.08950354 28.5 103.1875 C30.83420673 115.62049823 32.48965767 128.05424831 25.8671875 139.4296875 C22.97922976 143.4051607 19.71520686 146.79398392 16 150 C12.17602484 146.47373917 9.5225597 142.9499259 7.125 138.3125 C6.78621826 137.66385986 6.44743652 137.01521973 6.09838867 136.34692383 C-13.50280883 97.8434296 -18.51940465 55.17775704 -5.19360352 14.02001953 C-1.5673586 3.1347172 -1.5673586 3.1347172 0 0 Z " fill="#6A7DD8" transform="translate(124,188)"/>
<path d="M0 0 C1.75397346 0.00848969 1.75397346 0.00848969 3.54338074 0.01715088 C7.272829 0.03951564 11.00131155 0.089715 14.73046875 0.140625 C17.26105382 0.16068975 19.79165397 0.17894055 22.32226562 0.1953125 C28.52116203 0.23938091 34.71949639 0.30629529 40.91796875 0.390625 C36.46249188 9.80780823 32.00220397 19.22258835 27.515625 28.625 C16.46531926 51.79642413 5.6199374 75.05634887 -5.08203125 98.390625 C-12.59705984 96.01224233 -19.88811376 93.14728915 -27.19384766 90.20214844 C-29.20888698 89.38987695 -31.22538971 88.58133174 -33.2421875 87.7734375 C-39.21717366 85.37503725 -45.17106294 82.94285332 -51.08203125 80.390625 C-48.47285969 71.67716029 -44.64450673 63.56147704 -40.83203125 55.328125 C-40.12185713 53.78904193 -39.41181683 52.24989711 -38.7019043 50.71069336 C-37.60465992 48.33341524 -36.50638905 45.95663099 -35.40556335 43.58100891 C-33.21768492 38.85904616 -31.04915721 34.12893494 -28.89950562 29.38945007 C-27.56025417 26.44158847 -26.21022536 23.4987471 -24.85778809 20.55691528 C-24.21985024 19.16363428 -23.58624025 17.76836287 -22.95715332 16.37106323 C-22.07987757 14.42516101 -21.18653203 12.48743529 -20.2890625 10.55078125 C-19.78866455 9.45386963 -19.2882666 8.35695801 -18.77270508 7.22680664 C-14.03763836 -0.71648146 -8.50982711 -0.15499425 0 0 Z " fill="#FDCDBD" transform="translate(197.08203125,14.609375)"/>
<path d="M0 0 C6.53278786 -0.02527002 13.06556321 -0.04283292 19.59838867 -0.05493164 C21.82267732 -0.05997317 24.04696263 -0.06680623 26.27124023 -0.07543945 C29.46078309 -0.08751298 32.65028229 -0.09322996 35.83984375 -0.09765625 C37.34139259 -0.10539818 37.34139259 -0.10539818 38.87327576 -0.11329651 C39.79415482 -0.11337204 40.71503387 -0.11344757 41.66381836 -0.11352539 C42.47878281 -0.115746 43.29374725 -0.11796661 44.13340759 -0.12025452 C46 0 46 0 47 1 C47.31859934 2.68922903 47.57926647 4.38943104 47.81616211 6.09204102 C48.04661476 7.72623741 48.04661476 7.72623741 48.28172302 9.39344788 C48.44527786 10.58489914 48.6088327 11.7763504 48.77734375 13.00390625 C48.94875381 14.22971909 49.12016388 15.45553192 49.29676819 16.7184906 C49.66098616 19.328597 50.02363768 21.93886204 50.38354492 24.54956055 C50.92733688 28.49399909 51.47805756 32.43745435 52.02929688 36.38085938 C53.03383042 43.58531369 54.02287968 50.79177854 55 58 C55.12256165 58.90111511 55.24512329 59.80223022 55.37139893 60.73065186 C55.67140386 62.95383396 55.9647151 65.17773289 56.25390625 67.40234375 C56.40287354 68.54050537 56.55184082 69.67866699 56.70532227 70.85131836 C57.02346756 74.25075489 57.05153422 77.5876792 57 81 C50.93109825 81.07408977 44.86245903 81.12857359 38.79321289 81.16479492 C36.72806209 81.17989271 34.6629434 81.20037274 32.59790039 81.22631836 C29.63159261 81.26265795 26.66570829 81.2797163 23.69921875 81.29296875 C22.7741301 81.30845261 21.84904144 81.32393646 20.8959198 81.33988953 C20.03525406 81.34011612 19.17458832 81.34034271 18.2878418 81.34057617 C17.53061325 81.34723801 16.7733847 81.35389984 15.99320984 81.36076355 C13.39871237 80.89116918 12.55810995 80.10487428 11 78 C10.43164062 76.08322144 10.43164062 76.08322144 10.15625 73.89013672 C10.04603516 73.06432098 9.93582031 72.23850525 9.82226562 71.38766479 C9.71591797 70.49403229 9.60957031 69.60039978 9.5 68.6796875 C9.31727539 67.28159348 9.31727539 67.28159348 9.13085938 65.85525513 C8.741869 62.86323965 8.37014315 59.86940029 8 56.875 C7.50576383 52.97581127 7.00426926 49.07759034 6.5 45.1796875 C6.3769751 44.22004089 6.2539502 43.26039429 6.12719727 42.27166748 C5.28801117 35.84536261 4.2478256 29.48318562 3.0612793 23.11300659 C1.66231621 15.45569024 0.82309169 7.73706191 0 0 Z " fill="#FECDBD" transform="translate(149,416)"/>
<path d="M0 0 C0.9150959 0.3520047 0.9150959 0.3520047 1.84867859 0.71112061 C3.78246548 1.45798587 5.70946464 2.2208328 7.63671875 2.984375 C8.91690541 3.48153172 10.19750216 3.97763383 11.47851562 4.47265625 C18.44779186 7.17391047 25.39070198 9.94273552 32.32421875 12.734375 C31.71570068 13.0216748 31.10718262 13.30897461 30.48022461 13.60498047 C24.14618967 16.92297907 21.81227692 22.32629268 19.26171875 28.609375 C18.89248291 29.49326904 18.52324707 30.37716309 18.14282227 31.2878418 C12.61388985 44.66516673 7.48445085 58.21159716 2.32421875 71.734375 C-1.09699785 70.40514941 -4.27666482 68.90566685 -7.48608398 67.11914062 C-16.89800203 61.8819964 -26.70173155 57.77123473 -36.67578125 53.734375 C-36.08536295 49.57798402 -35.13824942 45.8758342 -33.671875 41.9453125 C-33.26469238 40.84767578 -32.85750977 39.75003906 -32.43798828 38.61914062 C-32.00083496 37.46091797 -31.56368164 36.30269531 -31.11328125 35.109375 C-30.66581543 33.91763672 -30.21834961 32.72589844 -29.75732422 31.49804688 C-28.40387425 27.90743787 -27.04016485 24.32084084 -25.67578125 20.734375 C-25.08676025 19.16671387 -25.08676025 19.16671387 -24.48583984 17.56738281 C-23.43788872 14.78420887 -22.37299932 12.00827507 -21.30078125 9.234375 C-20.99197021 8.41114746 -20.68315918 7.58791992 -20.36499023 6.73974609 C-16.3329032 -3.50287044 -10.05326151 -3.92683955 0 0 Z " fill="#6A7DD7" transform="translate(140.67578125,108.265625)"/>
<path d="M0 0 C1.51952704 2.79073439 2.39106061 5.26591461 2.96484375 8.38671875 C3.20243408 9.65817749 3.20243408 9.65817749 3.44482422 10.95532227 C3.60740723 11.85694092 3.76999023 12.75855957 3.9375 13.6875 C4.11297363 14.62070068 4.28844727 15.55390137 4.46923828 16.51538086 C5.28965484 20.91528612 6.06428274 25.31384041 6.71484375 29.7421875 C8.0942845 38.91200974 10.36993601 45.87166544 15 54 C25.89 54.495 25.89 54.495 37 55 C37 55.33 37 55.66 37 56 C5.52113909 56.3790175 5.52113909 56.3790175 -6.125 55.25 C-6.85565674 55.18828613 -7.58631348 55.12657227 -8.33911133 55.06298828 C-14.29029648 54.37907476 -18.07354451 52.10648115 -22.07958984 47.72607422 C-24.16803771 44.76146592 -24.81811337 42.68987434 -25.484375 39.1484375 C-25.69707031 38.05015625 -25.90976563 36.951875 -26.12890625 35.8203125 C-26.33386719 34.68335938 -26.53882812 33.54640625 -26.75 32.375 C-27.08064453 30.65796875 -27.08064453 30.65796875 -27.41796875 28.90625 C-29 20.5539111 -29 20.5539111 -29 17 C-27.94941406 16.49210937 -26.89882812 15.98421875 -25.81640625 15.4609375 C-16.62144206 10.96968593 -8.18304785 6.17349406 0 0 Z " fill="#697BD5" transform="translate(153,346)"/>
</svg>
