<?xml version="1.0" encoding="UTF-8"?>
<svg version="1.1" xmlns="http://www.w3.org/2000/svg" width="512" height="512">
<path d="M0 0 C0.95534899 -0.00445784 1.91069798 -0.00891569 2.89499694 -0.01350862 C4.48032227 -0.01323207 4.48032227 -0.01323207 6.09767437 -0.01294994 C7.21474874 -0.01662663 8.3318231 -0.02030332 9.48274821 -0.02409142 C13.25142343 -0.03516455 17.02007111 -0.03897822 20.78876019 -0.04278088 C23.48041735 -0.04904271 26.17207153 -0.05567612 28.86372662 -0.0626936 C36.9593857 -0.08246827 45.05504605 -0.09252525 53.15072325 -0.10142139 C56.9610307 -0.10580243 60.77133676 -0.1111697 64.5816431 -0.11641026 C77.24422734 -0.13342314 89.90681069 -0.14791817 102.5694046 -0.155159 C105.85639033 -0.15706896 109.14337605 -0.15898928 112.43036175 -0.16094494 C113.65584059 -0.16167055 113.65584059 -0.16167055 114.90607657 -0.16241082 C128.14606101 -0.17071433 141.38595518 -0.19605636 154.62590019 -0.22852562 C168.21212857 -0.26157309 181.79831104 -0.27960564 195.38457984 -0.28280324 C203.01561305 -0.28497043 210.64651463 -0.29374956 218.27750874 -0.31926441 C224.77530089 -0.34093986 231.27292945 -0.34903747 237.77075366 -0.33929763 C241.08689523 -0.3347437 244.40262748 -0.33887073 247.7187376 -0.35605907 C251.31237913 -0.3736476 254.90515661 -0.36673537 258.49879742 -0.35352612 C259.5489888 -0.36449536 260.59918019 -0.37546461 261.68119556 -0.38676625 C266.14362631 -0.3470105 268.74127122 -0.32162619 272.61308098 2.03970528 C275.96800886 5.78615209 275.66440105 9.03866016 275.69183636 13.85297108 C275.69753643 14.62548206 275.7032365 15.39799305 275.70910931 16.19391346 C275.71856823 17.83480935 275.72509682 19.47572431 275.72894573 21.11664295 C275.73856625 23.59681302 275.76954371 26.07612364 275.80121136 28.55609608 C275.89894613 43.03556253 273.3757328 55.35004571 263.34418011 66.43890858 C253.51392254 75.4206597 241.91840226 79.29215544 228.77777386 79.23187733 C226.91185589 79.22704334 226.91185589 79.22704334 225.00824261 79.2221117 C223.72304729 79.2137328 222.43785198 79.20535389 221.11371136 79.19672108 C219.80531292 79.19220936 218.49691448 79.18769764 217.14886761 79.1830492 C213.92876855 79.17129702 210.70876365 79.15486651 207.48871136 79.13422108 C207.52013226 80.27467884 207.52013226 80.27467884 207.55218792 81.43817616 C207.63622529 84.94088556 207.68764759 88.44338185 207.73871136 91.94672108 C207.77222698 93.14232655 207.80574261 94.33793201 207.84027386 95.56976795 C207.98043448 108.42950544 204.50315991 117.75695622 195.67621136 127.04047108 C189.61290985 132.81038702 182.93626415 136.27549624 174.48871136 136.13422108 C174.49870411 137.11568607 174.49870411 137.11568607 174.50889874 138.11697865 C174.57557317 144.96333339 174.62064471 151.809595 174.65350628 158.65619373 C174.66853772 161.20701313 174.6889684 163.75780693 174.71502972 166.30853748 C174.75166108 169.98747571 174.76849481 173.66607043 174.78168011 177.34515858 C174.79716396 178.4747298 174.81264782 179.60430103 174.82860088 180.76810169 C174.83129986 193.63647818 171.04583095 204.4391474 162.17621136 213.94672108 C156.30852681 219.43877019 150.17593532 221.93787137 142.48871136 224.13422108 C142.48871136 243.93422108 142.48871136 263.73422108 142.48871136 284.13422108 C148.42871136 284.46422108 154.36871136 284.79422108 160.48871136 285.13422108 C164.92220719 285.70732546 169.27903835 286.31687772 173.67621136 287.07172108 C174.72873089 287.2412328 175.78125042 287.41074451 176.86566448 287.58539295 C192.45769112 290.16607452 192.45769112 290.16607452 195.42621136 293.88422108 C197.71035332 297.48347507 197.67918541 299.00151124 197.48871136 303.13422108 C198.23894573 303.30437733 198.98918011 303.47453358 199.76214886 303.64984608 C206.62014105 305.27365279 213.02842834 307.31856675 219.48871136 310.13422108 C220.16933636 309.49484608 220.84996136 308.85547108 221.55121136 308.19672108 C225.0710372 305.72535399 227.20328942 305.20940392 231.48871136 305.13422108 C235.50390199 306.64938735 237.09239489 307.53974637 239.48871136 311.13422108 C239.68402386 313.61468983 239.68402386 313.61468983 239.61371136 316.32172108 C239.59566448 317.22277576 239.57761761 318.12383045 239.55902386 319.05218983 C239.52421917 320.0827953 239.52421917 320.0827953 239.48871136 321.13422108 C240.18738323 321.37011951 240.88605511 321.60601795 241.60589886 321.84906483 C245.03731591 323.37878869 247.65447065 325.38643666 250.61371136 327.69672108 C254.74500882 330.9857132 254.74500882 330.9857132 259.48871136 333.13422108 C260.14871136 332.80422108 260.80871136 332.47422108 261.48871136 332.13422108 C263.40668011 331.82562733 263.40668011 331.82562733 265.67621136 331.69672108 C266.41226604 331.63613514 267.14832073 331.5755492 267.90668011 331.51312733 C275.04347654 333.22984538 279.63504111 340.58227855 283.73871136 346.19672108 C284.88092744 347.71929397 286.02548675 349.24011165 287.17230511 350.75922108 C287.73417522 351.5042992 288.29604534 352.24937733 288.87494183 353.01703358 C298.87666387 366.1388087 310.39714757 378.21175724 323.0058012 388.84930897 C324.71834436 390.3331935 326.21706115 391.90122475 327.67621136 393.63422108 C329.810156 396.15313124 331.95090158 398.65563155 334.14105511 401.12640858 C355.85713826 425.71443099 371.06263549 453.68418614 383.5448637 483.85394764 C384.33452018 485.7617054 385.13841902 487.66355975 385.94574261 489.56390858 C388.170965 495.11517008 390.12460753 501.17996545 388.48871136 507.13422108 C385.69297709 510.75267905 384.22682651 512.01356349 379.65463352 512.7609669 C378.11915439 512.78731329 376.58305567 512.7861561 375.04751873 512.76342678 C374.1956839 512.77069398 373.34384907 512.77796119 372.46620107 512.78544861 C369.59809685 512.80376589 366.73131861 512.7863121 363.86322308 512.76913929 C361.7918145 512.77489781 359.72041103 512.78283711 357.64901829 512.79277551 C351.94623978 512.81370887 346.24387794 512.80330404 340.54109764 512.78784442 C334.39512736 512.77656142 328.24923023 512.79397846 322.10327435 512.80774403 C310.75570904 512.8287256 299.40831416 512.82686065 288.06075305 512.81318668 C277.57837118 512.80061703 267.09603818 512.79732159 256.61365032 512.8032999 C255.57133518 512.80387279 255.57133518 512.80387279 254.50796317 512.80445725 C251.68734837 512.8060139 248.86673359 512.8076059 246.04611885 512.80925607 C219.57768914 512.82455674 193.10934436 512.81067481 166.64092776 512.78377159 C143.11683617 512.7600429 119.59287989 512.76216601 96.06878948 512.78607655 C69.64928707 512.81284019 43.22985973 512.8234717 16.81034565 512.80801523 C13.99482125 512.8064116 11.17929683 512.8048474 8.36377239 512.8032999 C7.32386451 512.80270682 7.32386451 512.80270682 6.26294838 512.80210176 C-4.21375878 512.79641045 -14.69041174 512.8030731 -25.1671114 512.81569767 C-37.07765727 512.82997834 -48.98804328 512.8259709 -60.89858294 512.79929395 C-66.97917951 512.78612505 -73.05950098 512.78105587 -79.14009571 512.79753971 C-84.70148873 512.81238838 -90.26235044 512.80433491 -95.82369494 512.77765195 C-97.84043943 512.7720454 -99.85722839 512.77495574 -101.87394452 512.78703089 C-104.60664142 512.80214368 -107.33749678 512.78673923 -110.07009602 512.76342678 C-110.86091312 512.77513261 -111.65173023 512.78683844 -112.46651149 512.79889899 C-116.51039356 512.72951239 -118.30407424 512.300897 -121.49735928 509.73233163 C-124.22982848 506.20725414 -124.22575173 504.34898458 -123.99566364 500.02924061 C-123.02755535 494.24303691 -120.75754035 488.96345805 -118.51128864 483.57172108 C-117.99994799 482.31731106 -117.48937581 481.06258752 -116.97955036 479.80756092 C-115.51978462 476.23708333 -114.02081306 472.6839703 -112.51128864 469.13422108 C-111.9684322 467.84910633 -111.9684322 467.84910633 -111.41460896 466.53802967 C-100.61943676 441.34379242 -84.70482543 418.52430243 -66.51128864 398.13422108 C-66.01354939 397.57476795 -65.51581013 397.01531483 -65.00298786 396.43890858 C-59.85170122 390.6790243 -54.67138095 385.10264099 -48.75738239 380.11078358 C-37.93933759 370.59090415 -28.82046515 359.96828313 -20.24761677 348.43402576 C7.79820379 310.74061795 51.03489834 293.02418209 96.48871136 286.13422108 C105.15623261 284.97215835 113.7417586 284.13422108 122.48871136 284.13422108 C122.48871136 264.33422108 122.48871136 244.53422108 122.48871136 224.13422108 C119.18871136 223.14422108 115.88871136 222.15422108 112.48871136 221.13422108 C102.27675563 215.29670659 95.43689683 206.04883297 91.48871136 195.13422108 C90.6390154 191.56596782 90.36660559 188.27338181 90.37518597 184.60956287 C90.3752615 183.52881992 90.37533703 182.44807697 90.37541485 181.33458424 C90.38057613 180.17920658 90.38573742 179.02382893 90.39105511 177.83343983 C90.39317753 176.04617229 90.39317753 176.04617229 90.39534283 174.22279835 C90.40093408 170.42241357 90.41348504 166.62208801 90.42621136 162.82172108 C90.43122749 160.24294589 90.4357902 157.66416977 90.43988323 155.08539295 C90.45090065 148.76831551 90.46763014 142.45127252 90.48871136 136.13422108 C89.22414104 135.98799305 87.95957073 135.84176502 86.65668011 135.69110584 C78.47361901 134.7448612 71.88860608 130.4585258 66.31293011 124.52093983 C60.58576078 117.0277911 57.34684295 109.21032327 57.39105511 99.83734608 C57.39427776 98.63207264 57.39750042 97.4267992 57.40082073 96.18500233 C57.40919964 94.93074451 57.41757854 93.6764867 57.42621136 92.38422108 C57.43072308 91.11449451 57.43523479 89.84476795 57.43988323 88.53656483 C57.4516658 85.40240271 57.4681172 82.26833567 57.48871136 79.13422108 C56.70858685 79.14993153 55.92846233 79.16564198 55.12469769 79.1818285 C51.51694563 79.24501015 47.90931061 79.28347267 44.30121136 79.32172108 C42.4613969 79.35942616 42.4613969 79.35942616 40.58441448 79.39789295 C27.79308535 79.49914358 17.02297765 77.63676775 6.48871136 70.13422108 C5.41621136 69.37109608 4.34371136 68.60797108 3.23871136 67.82172108 C-5.46350195 59.31728535 -10.50613432 48.33562206 -10.72718525 36.20721912 C-10.73457218 35.46125477 -10.74195911 34.71529041 -10.74956989 33.94672108 C-10.75764164 33.16659657 -10.76571339 32.38647205 -10.77402973 31.58270741 C-10.78781213 29.93876806 -10.79856021 28.2948008 -10.80645466 26.65082264 C-10.81801124 24.97300273 -10.8385208 23.29522062 -10.8679781 21.61761951 C-10.91064442 19.18540094 -10.92681705 16.7542673 -10.93706989 14.32172108 C-10.95457798 13.57575672 -10.97208607 12.82979237 -10.9901247 12.06122303 C-10.97477384 8.36602446 -10.6317183 6.32099605 -8.60967731 3.18500233 C-5.62441821 0.26747162 -4.05551855 0.00875109 0 0 Z " fill="#000101" transform="translate(123.5112886428833,-0.13422107696533203)"/>
<path d="M0 0 C0.06316406 0.71542969 0.12632812 1.43085938 0.19140625 2.16796875 C1.70906884 14.51694957 7.19831179 25.20006502 17 33 C20.54889357 35.5630898 24.20082647 37.82757286 28 40 C28.86882812 40.50273437 29.73765625 41.00546875 30.6328125 41.5234375 C44.96737609 49.24204866 60.9798324 53.5963636 77 56 C78.17433594 56.17756836 79.34867188 56.35513672 80.55859375 56.53808594 C91.28224271 58.01613385 101.86826732 58.44255017 112.6875 58.4375 C113.57918884 58.43790283 114.47087769 58.43830566 115.3895874 58.4387207 C148.58187847 58.35291619 187.05983135 52.24077326 211.921875 28.13671875 C219.68405795 19.8603741 222.7160027 11.1535288 224 0 C235.46004912 3.90443663 245.36191492 14.72750316 254 23 C254.49886719 23.47163574 254.99773437 23.94327148 255.51171875 24.42919922 C273.04649755 41.06808154 286.74958538 61.13464612 297 83 C297 83.33 297 83.66 297 84 C174.9 84 52.8 84 -73 84 C-63.14689506 64.29379012 -28.2952984 0 0 0 Z " fill="#FECFC6" transform="translate(144,408)"/>
<path d="M0 0 C7.23270683 1.09388568 13.38478521 3.28013149 20.01953125 6.3671875 C21.00308594 6.57601563 21.98664063 6.78484375 23 7 C25.72159566 5.26126966 25.72159566 5.26126966 28 3 C32.14948031 1.86832355 34.26992489 1.72449996 38.3125 3.25 C41 5 41 5 43 8 C43.1953125 10.48046875 43.1953125 10.48046875 43.125 13.1875 C43.10695313 14.08855469 43.08890625 14.98960937 43.0703125 15.91796875 C43.04710937 16.60503906 43.02390625 17.29210937 43 18 C43.69738281 18.23976563 44.39476562 18.47953125 45.11328125 18.7265625 C48.51623856 20.22773176 51.20997949 22.14833249 54.1875 24.375 C55.23292969 25.14585937 56.27835937 25.91671875 57.35546875 26.7109375 C59.75952502 28.79184883 60.909901 30.07077693 62 33 C61.67 33.33 61.34 33.66 61 34 C60.31993983 37.93296947 60.27065486 41.54130971 62.07763672 45.15527344 C63.60592408 47.3223633 65.22615666 49.34943894 66.9375 51.375 C67.53143555 52.11177979 68.12537109 52.84855957 68.73730469 53.60766602 C70.47351254 55.75398137 72.23552159 57.87692569 74 60 C74.85332375 61.06134642 75.70396859 62.12485763 76.55078125 63.19140625 C83.63559039 72.03797965 91.21429086 80.30817326 99.2734375 88.265625 C99.92759644 88.91197403 100.58175537 89.55832306 101.2557373 90.22425842 C103.97213617 92.90415296 106.69093622 95.58145343 109.41992188 98.24853516 C133.17917315 121.49996382 150.53092285 148.5260421 164 178.8125 C164.30309082 179.48853271 164.60618164 180.16456543 164.91845703 180.86108398 C166.17762955 183.75096994 167 185.81177589 167 189 C159.08 189 151.16 189 143 189 C141.88625 186.73125 140.7725 184.4625 139.625 182.125 C129.25157452 161.33717294 117.49096682 142.38185708 102 125 C101.53174805 124.47003418 101.06349609 123.94006836 100.58105469 123.39404297 C95.06709009 117.17156963 89.46504802 111.25217469 83 106 C82.4848584 105.57251465 81.9697168 105.1450293 81.43896484 104.70458984 C61.58367705 88.2374623 40.24862655 75.57718918 16.30664062 65.93261719 C14.38804025 65.1568918 12.48140587 64.35165045 10.578125 63.5390625 C-9.44494692 55.56032572 -32.67819681 52.77681693 -54 51 C-54 34.83 -54 18.66 -54 2 C-41.58461538 2 -41.58461538 2 -35.5 2.875 C-33.58767578 3.14570313 -33.58767578 3.14570313 -31.63671875 3.421875 C-28.5081705 3.91921672 -25.41682177 4.49786429 -22.3125 5.125 C-16.66062388 6.17415066 -10.69738661 6.99894743 -5 6 C-2.74023433 4.12265621 -1.31147648 2.62295295 0 0 Z " fill="#CAF3FA" transform="translate(320,303)"/>
<path d="M0 0 C0 16.17 0 32.34 0 49 C-4.08375 49.37125 -8.1675 49.7425 -12.375 50.125 C-59.95464305 54.99643549 -104.44798399 74.33388749 -139.6484375 106.83984375 C-141.21211471 108.27624491 -142.8010243 109.68566643 -144.4140625 111.06640625 C-168.00803802 131.4021661 -183.56611177 159.35719152 -197 187 C-204.92 187 -212.84 187 -221 187 C-219.93494312 180.60965873 -217.94031271 175.82242267 -215.25 170 C-214.76265381 168.94490234 -214.27530762 167.88980469 -213.77319336 166.80273438 C-205.70433916 149.69201333 -195.96824684 133.66093606 -184 119 C-182.90220215 117.63403687 -182.90220215 117.63403687 -181.78222656 116.24047852 C-173.18884496 105.71244919 -163.4660627 96.34937071 -153.75195312 86.8684082 C-144.40256243 77.7262147 -135.77610938 68.51917532 -128 58 C-127.07936246 56.77724327 -126.1570608 55.55573783 -125.2331543 54.33544922 C-124.81784958 53.78654022 -124.40254486 53.23763123 -123.97465515 52.67208862 C-108.97499373 32.95773528 -88.77443527 21.01963628 -66 12 C-64.33904297 11.34064453 -64.33904297 11.34064453 -62.64453125 10.66796875 C-42.52904742 3.37639521 -21.29050418 0 0 0 Z " fill="#CAF3FA" transform="translate(246,305)"/>
<path d="M0 0 C81.18 0 162.36 0 246 0 C246 23.53798768 246 23.53798768 239.09765625 31.078125 C232.8131757 37.01279761 226.99535026 38.30183313 218.43582153 38.26069641 C217.58696062 38.26452196 216.73809971 38.26834751 215.86351573 38.27228898 C213.0262973 38.28258691 210.18928244 38.27863292 207.35205078 38.2746582 C205.31490899 38.27900646 203.27776883 38.28418999 201.2406311 38.29014587 C195.71168153 38.30353517 190.18280031 38.30411458 184.65383768 38.30158257 C180.0365452 38.30051277 175.41926655 38.30539651 170.80197704 38.310188 C159.90785047 38.32128305 149.01375839 38.32172066 138.11962891 38.31567383 C126.88497366 38.30963382 115.65044364 38.3219458 104.41580975 38.3432439 C94.76637859 38.36086349 85.11698728 38.36686066 75.46754062 38.36360615 C69.70605939 38.36179365 63.94466749 38.36442622 58.18320084 38.37832069 C52.76426833 38.39090009 47.34553093 38.38895375 41.92660141 38.37590981 C39.94006026 38.37354469 37.95350538 38.37627636 35.96697998 38.38453293 C33.25047624 38.39500759 30.53462629 38.38689391 27.81814575 38.3742218 C27.03622396 38.38159609 26.25430216 38.38897037 25.44868577 38.39656812 C19.29869143 38.33641376 13.9772803 37.06696078 8.828125 33.4921875 C-1.40587342 23.00487229 0 16.16367558 0 0 Z " fill="#6C91AB" transform="translate(133,20)"/>
<path d="M0 0 C0.08636719 0.70125 0.17273438 1.4025 0.26171875 2.125 C1.61066058 11.23345124 4.56693039 17.77581803 11.87890625 23.5625 C32.04099149 37.22667563 57.80910378 38.15303113 81.22265625 34.75390625 C94.16449561 32.17089178 108.16054908 27.71521946 116.6328125 17.07421875 C120.13631258 11.75890863 121.34844187 6.25495801 122 0 C133.30942576 3.1141897 144.8426149 9.4442483 151.5625 19.375 C153.42686187 24.07643429 153.59875281 27.20374158 152 32 C145.33800264 45.09739617 128.9088148 51.89038831 115.64257812 56.22558594 C101.50466055 60.36873769 86.70722146 63.1471898 71.9609375 63.16796875 C71.11761871 63.17129715 70.27429993 63.17462555 69.40542603 63.17805481 C67.62885071 63.18308949 65.85226604 63.18546421 64.07568359 63.18530273 C61.40315526 63.18747709 58.73104865 63.20563657 56.05859375 63.22460938 C46.17125501 63.25800342 36.74331488 62.8341001 27 61 C26.08573242 60.82831299 25.17146484 60.65662598 24.22949219 60.47973633 C5.77634013 56.75956697 -15.1132693 51.02665613 -27.75 36 C-30.43233815 31.8701806 -31.75585377 27.92984625 -31 23 C-26.89703415 13.23494129 -11.28932606 0 0 0 Z " fill="#64DDF4" transform="translate(195,384)"/>
<path d="M0 0 C36.3 0 72.6 0 110 0 C110 27.40681818 110 27.40681818 105.28125 33.05859375 C104.6934375 33.51363281 104.105625 33.96867187 103.5 34.4375 C102.9121875 34.91058594 102.324375 35.38367188 101.71875 35.87109375 C97.71824055 38.49870109 93.54707287 38.16105055 88.9519043 38.17700195 C88.13205048 38.18357315 87.31219666 38.19014435 86.46749878 38.19691467 C83.75307117 38.21663279 81.03869883 38.22830657 78.32421875 38.23828125 C77.39669107 38.24235678 76.4691634 38.2464323 75.51352882 38.25063133 C70.60480599 38.2714851 65.69611106 38.28579018 60.78735352 38.29516602 C55.71977875 38.30623281 50.6526428 38.34063779 45.5852232 38.38033772 C41.68611336 38.40649191 37.78710832 38.41485676 33.88791847 38.41844749 C32.02002814 38.42331605 30.15214258 38.43493771 28.284338 38.45348549 C25.66796518 38.4778531 23.05273103 38.47691653 20.4362793 38.4699707 C19.28348732 38.48918579 19.28348732 38.48918579 18.10740662 38.50878906 C12.91172704 38.45861931 10.01389429 37.25470207 6 34 C-3.19504915 24.29411479 0 13.55995851 0 0 Z " fill="#A5BBCA" transform="translate(201,78)"/>
<path d="M0 0 C14.52 0 29.04 0 44 0 C44.0921698 6.93833783 44.17170951 13.8745245 44.21972656 20.81298828 C44.23975732 23.16983261 44.26698992 25.52662778 44.30175781 27.88330078 C44.35065172 31.28430362 44.37305502 34.6846455 44.390625 38.0859375 C44.41127014 39.12801361 44.43191528 40.17008972 44.45318604 41.2437439 C44.45545294 48.7490895 43.41308902 56.03703918 38.35333252 61.91195679 C33.50368823 66.52630961 27.67116432 69.0327914 21 69.4375 C14.74600116 69.14319417 9.88644113 66.28070931 5.6875 61.75 C-0.260982 54.86407815 -0.41979102 46.90104007 -0.29296875 38.28125 C-0.28872391 37.18276733 -0.28447906 36.08428467 -0.28010559 34.95251465 C-0.26340661 31.4680864 -0.22576996 27.98425139 -0.1875 24.5 C-0.17244185 22.12761256 -0.15875543 19.75521599 -0.14648438 17.3828125 C-0.1160927 11.5881331 -0.05735248 5.79472515 0 0 Z " fill="#698DA7" transform="translate(234,136)"/>
<path d="M0 0 C2.375 2.9375 2.375 2.9375 4 6 C7.21694364 7.60847182 10.52137222 7.61309149 14 7 C16.69105198 4.82425584 18.45532928 3.08934144 20 0 C29.96028045 -0.92653772 41.89097958 3.27694677 49.7734375 9.37109375 C51 11 51 11 50.90234375 13.03125 C48.3780423 18.53881679 40.01229294 21.15996031 34.65625 23.15234375 C16.10015644 29.07392067 -6.24234856 27.78016184 -23.8125 19.4375 C-26.61776264 17.96485782 -29.10153404 16.57964311 -31 14 C-30.89550392 11.32490033 -30.30843136 10.29944792 -28.390625 8.4375 C-20.38847613 3.06379419 -9.81374129 -1.7843166 0 0 Z " fill="#00C7EC" transform="translate(246,375)"/>
<path d="M0 0 C2.8100346 1.79363911 4.50940468 3.01880935 6 6 C6.31119923 11.66405181 5.71600812 15.80635796 3.76953125 21.203125 C3.53723312 21.84820007 3.304935 22.49327515 3.06559753 23.15789795 C2.57514551 24.50800914 2.07818148 25.85577132 1.57495117 27.20117188 C0.81175751 29.2519952 0.07976937 31.31221836 -0.65039062 33.375 C-1.13357957 34.69338309 -1.61854545 36.01111657 -2.10546875 37.328125 C-2.54012451 38.5130957 -2.97478027 39.69806641 -3.42260742 40.91894531 C-5.18100779 44.35355491 -6.78006296 45.91718551 -10 48 C-13.89458152 49.04319148 -16.02149524 49.42253615 -19.75 47.8125 C-23.3218337 44.93518952 -24.81818709 43.45626846 -25.40234375 38.77734375 C-25.30340168 32.5874995 -22.743919 26.91568045 -20.52001953 21.22607422 C-19.74885582 19.24706373 -19.00409594 17.25949412 -18.26171875 15.26953125 C-17.77497464 13.9968069 -17.28674406 12.72464983 -16.796875 11.453125 C-16.35698242 10.31004883 -15.91708984 9.16697266 -15.46386719 7.98925781 C-12.07850317 1.07624963 -7.56969025 -1.08759917 0 0 Z " fill="#000000" transform="translate(325,224)"/>
<path d="M0 0 C3.99331961 1.59839635 5.15285896 3.63978519 6.95117188 7.5390625 C8.98940387 12.32150628 10.90359718 17.14041212 12.75 22 C13.16121094 23.0415625 13.57242188 24.083125 13.99609375 25.15625 C18.76682534 37.70913845 18.76682534 37.70913845 16.15234375 44.05859375 C13.75368816 46.78118353 12.03587262 47.9889121 8.5625 49.0625 C4.43781582 48.99013712 2.39918943 48.31762915 -1 46 C-4.80231325 40.39720299 -6.83352859 33.99050191 -9.1875 27.6875 C-9.65091797 26.48931641 -10.11433594 25.29113281 -10.59179688 24.05664062 C-12.91826911 17.83786728 -14.8364129 12.66003541 -14 6 C-10.27257297 0.16036432 -6.75585742 -0.75206715 0 0 Z " fill="#000000" transform="translate(195,224)"/>
<path d="M0 0 C3.08813077 2.05875385 4.66221204 3.4716479 5.4765625 7.15625 C5.74121939 11.33504307 5.35663344 13.46504984 3 17 C-0.66515263 19.44343509 -3.57519 20.6135967 -8 20 C-11.07628869 18.3093672 -13.40907311 16.18185378 -15 13 C-15.3751455 8.02932218 -15.15878799 4.94848498 -12 1 C-8.43183337 -1.90739503 -4.18797859 -1.25224706 0 0 Z " fill="#020303" transform="translate(358,306)"/>
</svg>
