<?xml version="1.0" encoding="UTF-8"?>
<svg version="1.1" xmlns="http://www.w3.org/2000/svg" width="512" height="512">
<path d="M0 0 C0.99386719 -0.03738281 1.98773438 -0.07476563 3.01171875 -0.11328125 C11.24305398 0.94851229 16.69461023 6.08719312 22.34765625 11.78125 C23.07117783 12.498573 23.7946994 13.215896 24.54014587 13.95495605 C26.05511082 15.4628572 27.56502401 16.97584928 29.07006836 18.49365234 C31.38387535 20.82142893 33.72085735 23.12405381 36.06054688 25.42578125 C37.53270194 26.89698605 39.00345671 28.36959369 40.47265625 29.84375 C41.17455582 30.53239136 41.87645538 31.22103271 42.59962463 31.93054199 C43.23456345 32.57801392 43.86950226 33.22548584 44.52368164 33.89257812 C45.37018028 34.74051941 45.37018028 34.74051941 46.23377991 35.60559082 C47.3125 37.3125 47.3125 37.3125 47.11180115 39.27624512 C46.30139034 41.34080234 45.30438328 43.32873344 44.3125 45.3125 C47.7775 48.7775 47.7775 48.7775 51.3125 52.3125 C52.6325 51.6525 53.9525 50.9925 55.3125 50.3125 C57.26171875 49.42578125 57.26171875 49.42578125 59.3125 49.3125 C61.70703125 51.04296875 61.70703125 51.04296875 64.125 53.5 C65.34123047 54.69689453 65.34123047 54.69689453 66.58203125 55.91796875 C68.3125 58.3125 68.3125 58.3125 68.19921875 60.36328125 C67.28650983 62.36963257 66.29824674 64.34100651 65.3125 66.3125 C67.6225 68.6225 69.9325 70.9325 72.3125 73.3125 C73.6325 72.6525 74.9525 71.9925 76.3125 71.3125 C78.3236351 70.48621464 78.3236351 70.48621464 80.3125 70.3125 C82.17901993 71.56378078 82.17901993 71.56378078 84.13433838 73.5330658 C84.88028259 74.27213669 85.62622681 75.01120758 86.39477539 75.77267456 C87.20325928 76.59913483 88.01174316 77.42559509 88.84472656 78.27709961 C90.13307404 79.56435188 90.13307404 79.56435188 91.44744873 80.87760925 C93.80349036 83.23654244 96.14787628 85.60604361 98.48783588 87.98086619 C100.9345989 90.45883546 103.39548015 92.92270017 105.85491943 95.38807678 C110.51144487 100.06015754 115.15507624 104.74484021 119.79424453 109.43414932 C125.07578979 114.77153553 130.37149951 120.09477106 135.66846514 125.41684711 C146.5656829 136.36636127 157.44491555 147.3335689 168.3125 158.3125 C171.65704187 155.07059163 174.18559671 151.65851283 176.6875 147.75 C185.95331496 133.59088405 196.34850647 120.22913485 206.62915039 106.80053711 C210.29276579 102.00348652 213.88800712 97.17689541 217.375 92.25 C223.85252369 83.14866924 230.60986526 74.24934632 237.3125 65.3125 C237.6425 43.8625 237.9725 22.4125 238.3125 0.3125 C298.3725 0.3125 358.4325 0.3125 420.3125 0.3125 C420.3125 169.2725 420.3125 338.2325 420.3125 512.3125 C362.5625 512.3125 304.8125 512.3125 245.3125 512.3125 C245.3125 502.0825 245.3125 491.8525 245.3125 481.3125 C247.9525 481.3125 250.5925 481.3125 253.3125 481.3125 C253.3125 476.6925 253.3125 472.0725 253.3125 467.3125 C250.6725 467.3125 248.0325 467.3125 245.3125 467.3125 C245.3125 456.7525 245.3125 446.1925 245.3125 435.3125 C242.3425 434.9825 239.3725 434.6525 236.3125 434.3125 C234.66586889 434.03066046 233.02304306 433.72333744 231.38963318 433.37290955 C230.09315102 433.09790115 230.09315102 433.09790115 228.77047729 432.81733704 C227.85549469 432.61843369 226.94051208 432.41953033 225.99780273 432.21459961 C225.00781784 432.0029718 224.01783295 431.79134399 222.99784851 431.57330322 C219.74602676 430.87608611 216.49589558 430.17141317 213.24609375 429.46484375 C211.56735011 429.10057376 211.56735011 429.10057376 209.85469246 428.72894478 C203.92811959 427.44178646 198.00300014 426.1481479 192.07885742 424.84985352 C186.00305979 423.51988358 179.92228429 422.21434401 173.84004116 420.91422176 C169.12583627 419.90150127 164.4159716 418.8696014 159.7070179 417.83276558 C157.46942433 417.3436103 155.23025692 416.86159112 152.98946953 416.38728142 C132.75413711 412.09266811 115.79437385 406.83269616 103.3125 389.3125 C96.00618205 377.51721035 93.08983189 363.46430696 96.07751465 349.81837463 C96.40449341 348.63509079 96.73147217 347.45180695 97.06835938 346.23266602 C97.33602993 345.26070329 97.33602993 345.26070329 97.60910797 344.26910496 C99.46824802 337.59809817 101.54006684 330.99574669 103.65625 324.40234375 C104.06653343 323.11475823 104.47648219 321.82706603 104.88612366 320.53927612 C105.9680306 317.14099274 107.05409318 313.74405324 108.14134598 310.34747696 C109.95502952 304.67938988 111.76293416 299.00945368 113.57174873 293.33981133 C114.02101014 291.93192498 114.4704461 290.52409433 114.9200573 289.11631966 C117.62091393 280.6593088 120.29627313 272.19532317 122.91015625 263.7109375 C136.29455101 220.34311841 136.29455101 220.34311841 145.3125 203.3125 C144.425625 203.395 143.53875 203.4775 142.625 203.5625 C120.17236303 203.42642341 103.62065403 182.83411877 88.9621582 168.31225586 C87.63599042 167.00291887 86.30444972 165.69900502 84.96801758 164.40014648 C83.01217865 162.49865611 81.07293165 160.58160181 79.13671875 158.66015625 C78.53486252 158.08096939 77.93300629 157.50178253 77.31291199 156.90504456 C75.6706543 155.25415039 75.6706543 155.25415039 73.3125 152.3125 C73.76181492 148.42814205 75.59093934 146.71398634 78.375 144.0625 C79.10847656 143.35609375 79.84195313 142.6496875 80.59765625 141.921875 C81.16355469 141.39078125 81.72945313 140.8596875 82.3125 140.3125 C77.44818168 134.44274946 72.19324155 129.08241105 66.7746582 123.72460938 C65.82273811 122.77953312 64.87107496 121.83419801 63.91964722 120.8886261 C61.88299505 118.86522328 59.844921 116.84326766 57.80581093 114.82234192 C54.57854554 111.62308944 51.35684456 108.41827264 48.13627625 105.21228027 C47.0302737 104.11142034 45.92426416 103.01056742 44.8182478 101.90972137 C44.26473625 101.35879539 43.7112247 100.8078694 43.14094007 100.24024868 C35.65123621 92.78650594 28.15676221 85.33760832 20.65209961 77.89892578 C15.57625833 72.86762148 10.50760496 67.82919414 5.44694012 62.78262377 C2.77342148 60.11716104 0.09633503 57.45551536 -2.58969688 54.80265808 C-5.11409972 52.3093861 -7.62898311 49.80689376 -10.13699722 47.29714012 C-11.49298219 45.94511909 -12.85890664 44.60308942 -14.22514343 43.26142883 C-20.06091353 37.3965132 -24.11215999 32.51632976 -24.125 23.875 C-23.91907372 17.051352 -21.71864476 12.66435182 -17.3125 7.5625 C-11.72878887 2.77646189 -7.38282002 0.17960766 0 0 Z " fill="#F6DFB9" transform="translate(57.6875,-0.3125)"/>
<path d="M0 0 C0.99386719 -0.03738281 1.98773438 -0.07476563 3.01171875 -0.11328125 C11.24305398 0.94851229 16.69461023 6.08719312 22.34765625 11.78125 C23.07117783 12.498573 23.7946994 13.215896 24.54014587 13.95495605 C26.05511082 15.4628572 27.56502401 16.97584928 29.07006836 18.49365234 C31.38387535 20.82142893 33.72085735 23.12405381 36.06054688 25.42578125 C37.53270194 26.89698605 39.00345671 28.36959369 40.47265625 29.84375 C41.17455582 30.53239136 41.87645538 31.22103271 42.59962463 31.93054199 C43.23456345 32.57801392 43.86950226 33.22548584 44.52368164 33.89257812 C45.37018028 34.74051941 45.37018028 34.74051941 46.23377991 35.60559082 C47.3125 37.3125 47.3125 37.3125 47.11180115 39.27624512 C46.30139034 41.34080234 45.30438328 43.32873344 44.3125 45.3125 C47.7775 48.7775 47.7775 48.7775 51.3125 52.3125 C52.6325 51.6525 53.9525 50.9925 55.3125 50.3125 C57.26171875 49.42578125 57.26171875 49.42578125 59.3125 49.3125 C61.70703125 51.04296875 61.70703125 51.04296875 64.125 53.5 C65.34123047 54.69689453 65.34123047 54.69689453 66.58203125 55.91796875 C68.3125 58.3125 68.3125 58.3125 68.19921875 60.36328125 C67.28650983 62.36963257 66.29824674 64.34100651 65.3125 66.3125 C67.6225 68.6225 69.9325 70.9325 72.3125 73.3125 C73.6325 72.6525 74.9525 71.9925 76.3125 71.3125 C78.3236351 70.48621464 78.3236351 70.48621464 80.3125 70.3125 C82.17901993 71.56378078 82.17901993 71.56378078 84.13433838 73.5330658 C84.88028259 74.27213669 85.62622681 75.01120758 86.39477539 75.77267456 C87.20325928 76.59913483 88.01174316 77.42559509 88.84472656 78.27709961 C90.13307404 79.56435188 90.13307404 79.56435188 91.44744873 80.87760925 C93.80349036 83.23654244 96.14787628 85.60604361 98.48783588 87.98086619 C100.9345989 90.45883546 103.39548015 92.92270017 105.85491943 95.38807678 C110.51144487 100.06015754 115.15507624 104.74484021 119.79424453 109.43414932 C125.07578979 114.77153553 130.37149951 120.09477106 135.66846514 125.41684711 C146.5656829 136.36636127 157.44491555 147.3335689 168.3125 158.3125 C171.65704187 155.07059163 174.18559671 151.65851283 176.6875 147.75 C185.95331496 133.59088405 196.34850647 120.22913485 206.62915039 106.80053711 C211.06557876 100.99158366 215.41493426 95.14983865 219.50854492 89.09350586 C221.48099329 86.29940992 223.63552016 83.89053054 226.02539062 81.4465332 C239.56992785 66.85970782 239.35640315 52.55893356 238.80603027 33.80767822 C238.71148858 30.01931647 238.7046764 26.2307697 238.68945312 22.44140625 C238.64738735 15.06184285 238.50347298 7.68998701 238.3125 0.3125 C243.2625 0.3125 248.2125 0.3125 253.3125 0.3125 C253.3351117 10.24842805 253.35345026 20.18433896 253.36431217 30.12028694 C253.3695259 34.73417239 253.37659612 39.34803929 253.38793945 43.96191406 C253.398822 48.4163519 253.40478822 52.87077191 253.40737724 57.32522202 C253.40922182 59.02282873 253.41282379 60.72043449 253.41823006 62.4180336 C253.42551173 64.79970644 253.42648794 67.18130607 253.42602539 69.56298828 C253.42962067 70.26142349 253.43321594 70.9598587 253.43692017 71.67945862 C253.42857877 75.6608692 253.07796803 79.40575286 252.3125 83.3125 C251.10851562 83.17199219 249.90453125 83.03148438 248.6640625 82.88671875 C246.12728769 82.89731188 244.78592347 82.95009537 242.75292969 84.50634766 C241.26165478 86.3099624 239.96881609 88.1664299 238.6875 90.125 C237.65148381 91.60447638 236.61500645 93.08362991 235.578125 94.5625 C234.77858398 95.73232422 234.77858398 95.73232422 233.96289062 96.92578125 C231.2172643 100.89637932 228.31775923 104.75161711 225.4375 108.625 C224.25158313 110.23492546 223.06669472 111.84560899 221.8828125 113.45703125 C218.94347633 117.45507425 216.00123731 121.45096247 213.05688477 125.4453125 C211.89527068 127.02166103 210.73429898 128.59848314 209.57397461 130.17578125 C206.60790377 134.20647822 203.63162786 138.22895466 200.63671875 142.23828125 C195.23432812 149.48298499 189.85152021 156.74599155 184.8125 164.25 C184.0803125 165.33152344 183.348125 166.41304687 182.59375 167.52734375 C181.03025917 170.15322115 181.03025917 170.15322115 181.8671875 172.45703125 C183.44538227 174.4830921 185.08701879 176.28055513 186.9375 178.0625 C187.56914062 178.67609375 188.20078125 179.2896875 188.8515625 179.921875 C189.33367187 180.38078125 189.81578125 180.8396875 190.3125 181.3125 C187.06077109 188.99684883 178.525843 194.54612349 171.3125 198.3125 C170.19746094 198.60640625 169.08242187 198.9003125 167.93359375 199.203125 C162.2518361 201.62942581 160.69736353 207.90810774 158.5 213.25 C157.99082031 214.44189941 157.48164063 215.63379883 156.95703125 216.86181641 C150.19326567 232.8410054 144.41866787 249.2402433 139.38378906 265.83984375 C138.40341469 269.01779387 137.38707498 272.18041515 136.35174561 275.34069824 C135.4355234 278.13953874 134.53174134 280.94233528 133.62841797 283.74536133 C133.1620504 285.18286109 132.69056912 286.61871046 132.21435547 288.05297852 C131.51706696 290.15740567 130.83885556 292.26717549 130.1640625 294.37890625 C129.76010254 295.61584229 129.35614258 296.85277832 128.93994141 298.12719727 C128.06461336 301.19692577 128.06461336 301.19692577 129.07519531 303.62573242 C130.64409372 305.76454834 132.40624153 307.35886386 134.4375 309.0625 C135.52417969 309.98289062 135.52417969 309.98289062 136.6328125 310.921875 C137.18710938 311.38078125 137.74140625 311.8396875 138.3125 312.3125 C137.37808465 313.58560312 136.43982889 314.855888 135.5 316.125 C134.71689453 317.18654297 134.71689453 317.18654297 133.91796875 318.26953125 C132.48121123 320.09781393 130.99434237 321.71146688 129.3125 323.3125 C128.714375 323.003125 128.11625 322.69375 127.5 322.375 C125.22293228 321.21040296 125.22293228 321.21040296 122.3125 320.3125 C120.25670364 326.2948674 118.25573929 332.29260314 116.3125 338.3125 C116.08916992 338.99989258 115.86583984 339.68728516 115.63574219 340.39550781 C111.77424762 352.53427305 109.94902099 364.83159167 115.05078125 376.87890625 C120.18652353 386.78468779 126.72081989 391.62565965 137.07592773 395.29980469 C142.36513016 396.95475013 147.75015394 398.05759216 153.18014526 399.14685059 C156.84248561 399.88228849 160.49878532 400.64700624 164.15625 401.40625 C164.91646957 401.56325378 165.67668915 401.72025757 166.45994568 401.88201904 C174.40823277 403.52759142 182.32968736 405.2879363 190.25 407.0625 C193.21470404 407.72588656 196.17955568 408.38860933 199.14453125 409.05078125 C199.92097488 409.22422562 200.69741852 409.39766998 201.49739075 409.57637024 C208.53975621 411.14642416 215.58791782 412.68960076 222.63671875 414.23046875 C224.94344428 414.73533544 227.25016629 415.24021825 229.55688477 415.74511719 C232.9880242 416.49602882 236.41934651 417.24604743 239.85128784 417.99328613 C243.04981294 418.68979699 246.24762095 419.38951766 249.4453125 420.08984375 C250.89891426 420.40492134 250.89891426 420.40492134 252.38188171 420.72636414 C253.26793594 420.92099747 254.15399017 421.1156308 255.06689453 421.31616211 C255.84211456 421.48522568 256.61733459 421.65428925 257.41604614 421.82847595 C259.3125 422.3125 259.3125 422.3125 261.3125 423.3125 C261.3125 437.8325 261.3125 452.3525 261.3125 467.3125 C256.0325 467.3125 250.7525 467.3125 245.3125 467.3125 C245.3125 456.7525 245.3125 446.1925 245.3125 435.3125 C242.3425 434.9825 239.3725 434.6525 236.3125 434.3125 C234.66586889 434.03066046 233.02304306 433.72333744 231.38963318 433.37290955 C230.09315102 433.09790115 230.09315102 433.09790115 228.77047729 432.81733704 C227.85549469 432.61843369 226.94051208 432.41953033 225.99780273 432.21459961 C225.00781784 432.0029718 224.01783295 431.79134399 222.99784851 431.57330322 C219.74602676 430.87608611 216.49589558 430.17141317 213.24609375 429.46484375 C211.56735011 429.10057376 211.56735011 429.10057376 209.85469246 428.72894478 C203.92811959 427.44178646 198.00300014 426.1481479 192.07885742 424.84985352 C186.00305979 423.51988358 179.92228429 422.21434401 173.84004116 420.91422176 C169.12583627 419.90150127 164.4159716 418.8696014 159.7070179 417.83276558 C157.46942433 417.3436103 155.23025692 416.86159112 152.98946953 416.38728142 C132.75413711 412.09266811 115.79437385 406.83269616 103.3125 389.3125 C96.00618205 377.51721035 93.08983189 363.46430696 96.07751465 349.81837463 C96.40449341 348.63509079 96.73147217 347.45180695 97.06835938 346.23266602 C97.33602993 345.26070329 97.33602993 345.26070329 97.60910797 344.26910496 C99.46824802 337.59809817 101.54006684 330.99574669 103.65625 324.40234375 C104.06653343 323.11475823 104.47648219 321.82706603 104.88612366 320.53927612 C105.9680306 317.14099274 107.05409318 313.74405324 108.14134598 310.34747696 C109.95502952 304.67938988 111.76293416 299.00945368 113.57174873 293.33981133 C114.02101014 291.93192498 114.4704461 290.52409433 114.9200573 289.11631966 C117.62091393 280.6593088 120.29627313 272.19532317 122.91015625 263.7109375 C136.29455101 220.34311841 136.29455101 220.34311841 145.3125 203.3125 C144.425625 203.395 143.53875 203.4775 142.625 203.5625 C120.17236303 203.42642341 103.62065403 182.83411877 88.9621582 168.31225586 C87.63599042 167.00291887 86.30444972 165.69900502 84.96801758 164.40014648 C83.01217865 162.49865611 81.07293165 160.58160181 79.13671875 158.66015625 C78.53486252 158.08096939 77.93300629 157.50178253 77.31291199 156.90504456 C75.6706543 155.25415039 75.6706543 155.25415039 73.3125 152.3125 C73.76181492 148.42814205 75.59093934 146.71398634 78.375 144.0625 C79.10847656 143.35609375 79.84195313 142.6496875 80.59765625 141.921875 C81.16355469 141.39078125 81.72945313 140.8596875 82.3125 140.3125 C77.44818168 134.44274946 72.19324155 129.08241105 66.7746582 123.72460938 C65.82273811 122.77953312 64.87107496 121.83419801 63.91964722 120.8886261 C61.88299505 118.86522328 59.844921 116.84326766 57.80581093 114.82234192 C54.57854554 111.62308944 51.35684456 108.41827264 48.13627625 105.21228027 C47.0302737 104.11142034 45.92426416 103.01056742 44.8182478 101.90972137 C44.26473625 101.35879539 43.7112247 100.8078694 43.14094007 100.24024868 C35.65123621 92.78650594 28.15676221 85.33760832 20.65209961 77.89892578 C15.57625833 72.86762148 10.50760496 67.82919414 5.44694012 62.78262377 C2.77342148 60.11716104 0.09633503 57.45551536 -2.58969688 54.80265808 C-5.11409972 52.3093861 -7.62898311 49.80689376 -10.13699722 47.29714012 C-11.49298219 45.94511909 -12.85890664 44.60308942 -14.22514343 43.26142883 C-20.06091353 37.3965132 -24.11215999 32.51632976 -24.125 23.875 C-23.91907372 17.051352 -21.71864476 12.66435182 -17.3125 7.5625 C-11.72878887 2.77646189 -7.38282002 0.17960766 0 0 Z " fill="#010101" transform="translate(57.6875,-0.3125)"/>
<path d="M0 0 C5.61 0 11.22 0 17 0 C17.22674761 9.71910008 17.40984346 19.43641858 17.51812172 29.15757465 C17.57011481 33.67254408 17.64051941 38.18559665 17.75439453 42.69946289 C17.86378519 47.06333655 17.92299036 51.42537803 17.94877243 55.79051781 C17.9671217 57.4479982 18.00295606 59.10538838 18.05730057 60.76207924 C18.50779147 75.07652687 18.50779147 75.07652687 13.50324821 80.96369457 C11.44323428 83.10333646 9.24477367 85.05723036 7 87 C-0.33247821 94.91529885 -4.60940049 102.10697052 -6 113 C-8.64 113 -11.28 113 -14 113 C-14.99 117.62 -15.98 122.24 -17 127 C-15.35 127 -13.7 127 -12 127 C-10.86685737 131.10482793 -11.21671909 133.75950737 -12.4375 137.8125 C-12.72496094 138.78832031 -13.01242187 139.76414063 -13.30859375 140.76953125 C-13.53675781 141.50558594 -13.76492188 142.24164063 -14 143 C-16.64 142.34 -19.28 141.68 -22 141 C-22.50471197 142.76949612 -23.00360685 144.54065223 -23.5 146.3125 C-23.7784375 147.29863281 -24.056875 148.28476563 -24.34375 149.30078125 C-25.11812196 152.02287203 -25.11812196 152.02287203 -25 155 C-23.35 155.66 -21.7 156.32 -20 157 C-20.99043705 161.83628305 -21.95698846 166.47618873 -24 171 C-26.64 171 -29.28 171 -32 171 C-32.6708712 172.6232687 -33.33657029 174.24867578 -34 175.875 C-34.37125 176.77992188 -34.7425 177.68484375 -35.125 178.6171875 C-36.11490226 180.88983858 -36.11490226 180.88983858 -36 183 C-33.53673288 184.6446674 -33.53673288 184.6446674 -31 186 C-31.45445964 187.41791408 -31.91374944 188.83428046 -32.375 190.25 C-32.75785156 191.43335938 -32.75785156 191.43335938 -33.1484375 192.640625 C-33.95173667 194.86627958 -34.89711662 196.90931672 -36 199 C-38.64 198.67 -41.28 198.34 -44 198 C-45.65 201.96 -47.3 205.92 -49 210 C-47.35 210.99 -45.7 211.98 -44 213 C-45.46032495 218.31027254 -47.98320986 222.46330032 -51 227 C-51.598125 226.67 -52.19625 226.34 -52.8125 226 C-55.05386471 224.79212012 -55.05386471 224.79212012 -58 225 C-59.93339429 227.68622162 -59.93339429 227.68622162 -61.6875 231 C-62.31011719 232.11375 -62.93273437 233.2275 -63.57421875 234.375 C-64.04472656 235.24125 -64.51523438 236.1075 -65 237 C-63.35 237.66 -61.7 238.32 -60 239 C-60 242.88291746 -61.37860494 244.46752535 -63.5 247.6875 C-64.1496875 248.68136719 -64.799375 249.67523438 -65.46875 250.69921875 C-65.9740625 251.45847656 -66.479375 252.21773437 -67 253 C-67.763125 252.484375 -68.52625 251.96875 -69.3125 251.4375 C-70.199375 250.963125 -71.08625 250.48875 -72 250 C-75.94875582 251.31625194 -76.54992713 253.05365398 -78.6875 256.5625 C-79.31011719 257.57441406 -79.93273437 258.58632813 -80.57421875 259.62890625 C-81.04472656 260.41136719 -81.51523438 261.19382812 -82 262 C-80.35 262.66 -78.7 263.32 -77 264 C-77.60334309 267.70503641 -79.22474237 269.85968148 -81.5625 272.75 C-82.20316406 273.54921875 -82.84382813 274.3484375 -83.50390625 275.171875 C-83.99761719 275.77515625 -84.49132812 276.3784375 -85 277 C-85.598125 276.690625 -86.19625 276.38125 -86.8125 276.0625 C-89.08956772 274.89790296 -89.08956772 274.89790296 -92 274 C-93.15093925 275.4334152 -94.29558035 276.87188909 -95.4375 278.3125 C-96.07558594 279.11300781 -96.71367187 279.91351563 -97.37109375 280.73828125 C-99.16111355 282.98697277 -99.16111355 282.98697277 -100 286 C-98.68 286.66 -97.36 287.32 -96 288 C-96 291.99282941 -97.47808076 293.15331592 -100 296.1875 C-101.11375 297.53908203 -101.11375 297.53908203 -102.25 298.91796875 C-103.11625 299.94857422 -103.11625 299.94857422 -104 301 C-105.32 300.34 -106.64 299.68 -108 299 C-110.38560633 304.12905361 -112.07457333 309.3215764 -113.69140625 314.73828125 C-114.72827049 318.17092382 -115.84015016 321.57563257 -116.96484375 324.98046875 C-117.31909424 326.06086426 -117.67334473 327.14125977 -118.03833008 328.25439453 C-118.74638651 330.40990221 -119.46076086 332.563348 -120.18237305 334.71435547 C-124.31286378 347.36367224 -127.46581054 361.04914944 -123 374 C-116.31535847 382.19936909 -101.82830612 383.09124473 -92 385.25 C-90.6583734 385.54857779 -89.31682283 385.8474974 -87.9753418 386.14672852 C-76.04207028 388.80051476 -64.09025435 391.37063328 -52.1394043 393.94384766 C-41.18926831 396.30262965 -30.24757396 398.6973542 -19.3125 401.125 C-18.62523834 401.27717987 -17.93797668 401.42935974 -17.22988892 401.58615112 C-3.46559069 404.63564422 10.26212038 407.82972009 24 411 C24 444.33 24 477.66 24 512 C13.44 512 2.88 512 -8 512 C-8 501.77 -8 491.54 -8 481 C-5.36 481 -2.72 481 0 481 C0 476.38 0 471.76 0 467 C2.64 467 5.28 467 8 467 C8 452.48 8 437.96 8 423 C4.6175 422.34 1.235 421.68 -2.25 421 C-18.53976732 417.77232327 -34.73075943 414.103497 -50.93231201 410.46417236 C-55.04024815 409.54198757 -59.14912194 408.62403028 -63.25854492 407.70849609 C-65.36978603 407.23796221 -67.4806305 406.76564491 -69.59106445 406.29150391 C-75.39725461 404.99405565 -81.21059645 403.74202192 -87.0377655 402.54281616 C-90.38630017 401.85274328 -93.73270457 401.15260267 -97.07913208 400.45239258 C-98.71160005 400.11392254 -100.34511116 399.78043829 -101.97970581 399.45239258 C-114.78595807 396.88084135 -127.6713768 393.82791781 -135.69140625 382.640625 C-142.0744157 372.48933286 -143.98671109 361.86828275 -141.35253906 350.10986328 C-138.68798545 339.93625853 -135.35209097 329.96344578 -132 320 C-128 320 -128 320 -124 322 C-121.36 319.03 -118.72 316.06 -116 313 C-119.07881696 309.12948725 -122.00073014 305.97088618 -126 303 C-123.90924907 293.9074442 -121.14291377 285.13409411 -118.125 276.3125 C-115.4307826 268.37813894 -112.76141914 260.46391859 -110.5625 252.375 C-107.0819392 239.90447235 -101.93857666 227.94611488 -97 216 C-96.6400293 215.10071777 -96.28005859 214.20143555 -95.90917969 213.27490234 C-90.58722941 200.12920762 -90.58722941 200.12920762 -83.1875 196.5625 C-82.17300781 196.16417969 -81.15851563 195.76585937 -80.11328125 195.35546875 C-73.40456875 192.43461149 -67.27231673 187.54463346 -64 181 C-66.97 178.03 -69.94 175.06 -73 172 C-71.27376694 167.68441735 -69.32348199 164.17705944 -66.75 160.375 C-66.31526367 159.72821289 -65.88052734 159.08142578 -65.43261719 158.41503906 C-60.12279797 150.59646902 -54.46890724 143.03003147 -48.82324219 135.45263672 C-46.41644328 132.21499587 -44.02776927 128.96420591 -41.63916016 125.71313477 C-36.26973391 118.40652416 -30.89003563 111.10717758 -25.41113281 103.88208008 C-22.80876427 100.44609951 -20.26973982 96.97985374 -17.796875 93.44921875 C-17.26594238 92.70502686 -16.73500977 91.96083496 -16.18798828 91.1940918 C-15.17028815 89.76546464 -14.16774165 88.32588072 -13.18310547 86.87426758 C-11.87701008 85.05968707 -10.68008821 83.47542502 -9 82 C-5.69624739 81.48803834 -3.97562505 81.51218747 -1 83 C-0.67 55.61 -0.34 28.22 0 0 Z " fill="#ECB280" transform="translate(311,0)"/>
<path d="M0 0 C1 2 1 2 0.3190918 4.60693359 C-0.05046631 5.69312988 -0.42002441 6.77932617 -0.80078125 7.8984375 C-1.40116211 9.70248047 -1.40116211 9.70248047 -2.01367188 11.54296875 C-2.86448872 14.05974091 -3.72059393 16.57468261 -4.57617188 19.08984375 C-8.96373395 32.28751851 -12.69060405 46.39724825 -8 60 C-1.31535847 68.19936909 13.17169388 69.09124473 23 71.25 C24.3416266 71.54857779 25.68317717 71.8474974 27.0246582 72.14672852 C38.95792972 74.80051476 50.90974565 77.37063328 62.8605957 79.94384766 C73.81073169 82.30262965 84.75242604 84.6973542 95.6875 87.125 C96.37476166 87.27717987 97.06202332 87.42935974 97.77011108 87.58615112 C111.53440931 90.63564422 125.26212038 93.82972009 139 97 C139 130.33 139 163.66 139 198 C128.44 198 117.88 198 107 198 C107 187.77 107 177.54 107 167 C109.64 167 112.28 167 115 167 C115 162.38 115 157.76 115 153 C117.64 153 120.28 153 123 153 C123 138.48 123 123.96 123 109 C119.6175 108.34 116.235 107.68 112.75 107 C96.46023268 103.77232327 80.26924057 100.103497 64.06768799 96.46417236 C59.95975185 95.54198757 55.85087806 94.62403028 51.74145508 93.70849609 C49.63021397 93.23796221 47.5193695 92.76564491 45.40893555 92.29150391 C39.60274539 90.99405565 33.78940355 89.74202192 27.9622345 88.54281616 C24.61369983 87.85274328 21.26729543 87.15260267 17.92086792 86.45239258 C16.28839995 86.11392254 14.65488884 85.78043829 13.02029419 85.45239258 C0.21404193 82.88084135 -12.6713768 79.82791781 -20.69140625 68.640625 C-27.0744157 58.48933286 -28.98671109 47.86828275 -26.35253906 36.10986328 C-23.68798545 25.93625853 -20.35209097 15.96344578 -17 6 C-13 6 -13 6 -9 8 C-6.03 5.36 -3.06 2.72 0 0 Z " fill="#EEB481" transform="translate(196,314)"/>
<path d="M0 0 C2.23193359 1.52709961 2.23193359 1.52709961 4.5234375 3.71484375 C5.39194336 4.53710449 6.26044922 5.35936523 7.15527344 6.20654297 C8.0940332 7.12838379 9.03279297 8.05022461 10 9 C10.49745728 9.4867218 10.99491455 9.9734436 11.50744629 10.47491455 C15.24527718 14.13921483 18.93859152 17.84658689 22.625 21.5625 C23.73543961 22.67797083 24.84611538 23.79320661 25.95703125 24.90820312 C28.64074159 27.60277631 31.32126936 30.30047673 34 33 C35.65 31.68 37.3 30.36 39 29 C43.29238623 30.65091778 45.8793915 33.73754566 49 37 C49.5775 36.690625 50.155 36.38125 50.75 36.0625 C54.73621594 34.18012025 54.73621594 34.18012025 57 34 C59.39453125 35.73046875 59.39453125 35.73046875 61.8125 38.1875 C63.02873047 39.38439453 63.02873047 39.38439453 64.26953125 40.60546875 C66 43 66 43 65.88671875 45.05078125 C64.97400983 47.05713257 63.98574674 49.02850651 63 51 C65.64 53.64 68.28 56.28 71 59 C69 63 69 63 67 66 C67.78761719 66.77714355 68.57523437 67.55428711 69.38671875 68.35498047 C72.29897081 71.23111673 75.20466779 74.11379804 78.10839844 76.99853516 C79.36767713 78.24773702 80.62874236 79.49514056 81.89160156 80.74072266 C83.70326412 82.52821075 85.50846839 84.32200227 87.3125 86.1171875 C87.88121826 86.67558319 88.44993652 87.23397888 89.03588867 87.80929565 C90.3957465 89.16875885 91.70341173 90.58006607 93 92 C93 94 93 94 91.390625 95.65625 C90.68421875 96.2646875 89.9778125 96.873125 89.25 97.5 C88.55390625 98.1084375 87.8578125 98.716875 87.140625 99.34375 C85.14797247 100.88551036 83.25958911 101.91454589 81 103 C69.11073703 91.29768256 57.24454666 79.57253305 45.40522003 67.81971741 C39.90736973 62.3631048 34.40226163 56.91421042 28.87939453 51.48291016 C24.06523701 46.74853157 19.2653452 42.00022073 14.48199892 37.23470688 C11.9490429 34.7121738 9.4095427 32.19713882 6.85282898 29.69866943 C3.99764321 26.90800486 1.17476791 24.08668432 -1.64648438 21.26171875 C-2.49740158 20.43956375 -3.34831879 19.61740875 -4.22502136 18.77033997 C-10.4970009 12.40827813 -10.4970009 12.40827813 -10.65881348 7.57739258 C-10 4 -10 4 -7.8125 1.5 C-4.71616047 -0.15138108 -3.43781674 -0.42980758 0 0 Z " fill="#BAE9D0" transform="translate(60,15)"/>
<path d="M0 0 C4.08658051 2.04329026 6.71950645 4.45029281 9.87011719 7.64306641 C10.44616196 8.21881912 11.02220673 8.79457184 11.6157074 9.38777161 C13.51421037 11.28766537 15.40553522 13.19453991 17.296875 15.1015625 C18.61351582 16.42193434 19.93059957 17.74186464 21.24810791 19.06137085 C24.71145037 22.53234276 28.16874418 26.0092793 31.62481689 29.48748779 C35.1537998 33.03694385 38.6884642 36.58073201 42.22265625 40.125 C49.15401308 47.07779463 56.07899377 54.03690309 63 61 C62 64 62 64 59.85546875 65.1328125 C58.53482422 65.62394531 58.53482422 65.62394531 57.1875 66.125 C55.87845703 66.62386719 55.87845703 66.62386719 54.54296875 67.1328125 C45.43137898 70.23999058 36.77280355 69.77489942 27.765625 66.4609375 C18.00224291 61.3034447 10.66614837 52.89776235 3 45.125 C1.73614585 43.85109726 0.47182675 42.57765563 -0.79296875 41.3046875 C-3.86736959 38.20841927 -6.93539701 35.10596495 -10 32 C-8.49053489 28.81913482 -6.92058175 26.70130094 -4.375 24.25 C-3.42753906 23.32960937 -3.42753906 23.32960937 -2.4609375 22.390625 C-1.97882813 21.93171875 -1.49671875 21.4728125 -1 21 C-1.39832031 20.54109375 -1.79664063 20.0821875 -2.20703125 19.609375 C-2.73683594 18.99578125 -3.26664063 18.3821875 -3.8125 17.75 C-4.33457031 17.14671875 -4.85664063 16.5434375 -5.39453125 15.921875 C-6.99770487 14.00274745 -8.4996141 12.00051453 -10 10 C-6.7 6.7 -3.4 3.4 0 0 Z " fill="#90A0B3" transform="translate(163,119)"/>
<path d="M0 0 C5.61 0 11.22 0 17 0 C17.22674761 9.71910008 17.40984346 19.43641858 17.51812172 29.15757465 C17.57011481 33.67254408 17.64051941 38.18559665 17.75439453 42.69946289 C17.86378519 47.06333655 17.92299036 51.42537803 17.94877243 55.79051781 C17.9671217 57.4479982 18.00295606 59.10538838 18.05730057 60.76207924 C18.50779147 75.07652687 18.50779147 75.07652687 13.50324821 80.96369457 C11.44323428 83.10333646 9.24477367 85.05723036 7 87 C-0.33247821 94.91529885 -4.60940049 102.10697052 -6 113 C-11.23880078 112.44854729 -15.97350697 111.57077907 -21 110 C-19.48627272 99.15458922 -17.1915766 89.82712086 -9 82 C-5.55623231 81.35023251 -4.08734237 81.45632882 -1 83 C-0.67 55.61 -0.34 28.22 0 0 Z " fill="#EAB17F" transform="translate(311,0)"/>
<path d="M0 0 C5.28 0 10.56 0 16 0 C16 4.95 16 9.9 16 15 C20.95 15 25.9 15 31 15 C31 20.28 31 25.56 31 31 C26.05 31 21.1 31 16 31 C16 35.95 16 40.9 16 46 C10.72 46 5.44 46 0 46 C0 41.05 0 36.1 0 31 C-4.95 31 -9.9 31 -15 31 C-15 25.72 -15 20.44 -15 15 C-10.05 15 -5.1 15 0 15 C0 10.05 0 5.1 0 0 Z " fill="#000000" transform="translate(101,195)"/>
<path d="M0 0 C3.8052094 1.57778072 6.2332328 3.97348106 9.13574219 6.86108398 C9.63375839 7.35398926 10.1317746 7.84689453 10.6448822 8.35473633 C12.28406995 9.98006062 13.91575954 11.61267131 15.546875 13.24609375 C16.68437049 14.37970196 17.82208935 15.51308608 18.96002197 16.64625549 C21.34053871 19.01931807 23.71715198 21.39620982 26.09130859 23.77563477 C29.13847788 26.82861284 32.19689203 29.87004382 35.25852585 32.90850735 C37.60912087 35.24439766 39.95278133 37.58714907 42.29447174 39.93196297 C43.41969574 41.05667261 44.54729406 42.17901191 45.67726898 43.29894829 C47.2527056 44.8620944 48.81836188 46.43442291 50.38183594 48.00952148 C51.27578064 48.90283676 52.16972534 49.79615204 53.09075928 50.71653748 C55 53 55 53 55 56 C43.43829043 56.6423172 32.60456678 52.39025279 23.63955688 45.07354736 C21.37898387 42.95072709 19.20514114 40.76951067 17.05078125 38.5390625 C16.26728806 37.74849457 15.48379486 36.95792664 14.67655945 36.1434021 C12.20973754 33.64889221 9.76101239 31.13747057 7.3125 28.625 C5.62942802 26.91681238 3.94519295 25.20976994 2.25976562 23.50390625 C-1.84034595 19.34906539 -5.9257991 15.18024352 -10 11 C-9.05052441 9.88322508 -8.09975103 8.76755346 -7.1484375 7.65234375 C-6.35445557 6.72023071 -6.35445557 6.72023071 -5.54443359 5.76928711 C-3.78334607 3.7518035 -1.93011408 1.85587892 0 0 Z " fill="#C4CCD5" transform="translate(163,119)"/>
<path d="M0 0 C20.98021105 -0.37464663 40.01184322 5.42609219 58 16 C57.07487334 17.98498051 56.13449763 19.96286018 55.1875 21.9375 C54.66542969 23.03964844 54.14335937 24.14179688 53.60546875 25.27734375 C52 28 52 28 49 29 C46.62901755 28.01654738 44.40546245 26.97453187 42.125 25.8125 C28.25100063 19.12141072 15.25031861 17.09445157 0 16 C0 10.72 0 5.44 0 0 Z " fill="#070605" transform="translate(296,383)"/>
<path d="M0 0 C5.28 0.33 10.56 0.66 16 1 C16 10.9 16 20.8 16 31 C10.72 31 5.44 31 0 31 C0 20.77 0 10.54 0 0 Z " fill="#020201" transform="translate(303,481)"/>
<path d="M0 0 C5.28 0 10.56 0 16 0 C16 5.28 16 10.56 16 16 C10.72 16 5.44 16 0 16 C0 10.72 0 5.44 0 0 Z " fill="#F7E768" transform="translate(55,255)"/>
<path d="M0 0 C4.19007004 1.04751751 5.33408908 1.87764902 8.3125 4.8125 C9.03050781 5.49957031 9.74851562 6.18664063 10.48828125 6.89453125 C12 9 12 9 12.015625 10.99609375 C10.62722642 13.73551094 8.77625688 15.27358574 6.4375 17.25 C5.61121094 17.95640625 4.78492187 18.6628125 3.93359375 19.390625 C3.29550781 19.92171875 2.65742187 20.4528125 2 21 C0.91160226 20.11032656 -0.17044608 19.21288426 -1.25 18.3125 C-1.85328125 17.81363281 -2.4565625 17.31476563 -3.078125 16.80078125 C-5 15 -5 15 -9 10 C-6.03 6.7 -3.06 3.4 0 0 Z " fill="#010201" transform="translate(114,49)"/>
<path d="M0 0 C4.27454425 2.7479213 8.14126153 5.69250989 12 9 C9 13 6 17 3 21 C-0.23861303 19.55575365 -2.61969163 17.74227753 -5.25 15.375 C-5.95640625 14.74335938 -6.6628125 14.11171875 -7.390625 13.4609375 C-7.92171875 12.97882813 -8.4528125 12.49671875 -9 12 C-7.55575365 8.76138697 -5.74227753 6.38030837 -3.375 3.75 C-2.74335938 3.04359375 -2.11171875 2.3371875 -1.4609375 1.609375 C-0.97882813 1.07828125 -0.49671875 0.5471875 0 0 Z " fill="#090706" transform="translate(204,280)"/>
<path d="M0 0 C4.96916636 0.51405169 9.29026351 1.23384882 14 3 C13.5547115 8.27315333 12.91626837 13.01770224 11 18 C9.04096255 17.52372025 7.08278903 17.04388577 5.125 16.5625 C4.03445313 16.29566406 2.94390625 16.02882812 1.8203125 15.75390625 C-1 15 -1 15 -3 14 C-2.58846263 9.02906176 -2.20399168 4.55491614 0 0 Z " fill="#090806" transform="translate(286,125)"/>
<path d="M0 0 C4.8274799 1.41292095 8.7162359 3.42974154 13 6 C11.53967505 11.31027254 9.01679014 15.46330032 6 20 C5.22914063 19.57847656 4.45828125 19.15695313 3.6640625 18.72265625 C2.15972656 17.90087891 2.15972656 17.90087891 0.625 17.0625 C-0.87160156 16.24458984 -0.87160156 16.24458984 -2.3984375 15.41015625 C-3.92070346 14.5850241 -5.45128783 13.77435609 -7 13 C-5.35821735 8.22390502 -2.73453298 4.20617096 0 0 Z " fill="#070604" transform="translate(254,207)"/>
<path d="M0 0 C5.01508715 1.54058233 9.6147081 3.02931839 14 6 C13.54554036 7.41791408 13.08625056 8.83428046 12.625 10.25 C12.24214844 11.43335938 12.24214844 11.43335938 11.8515625 12.640625 C11.04826333 14.86627958 10.10288338 16.90931672 9 19 C3.65155992 18.46515599 -0.35796103 16.53309233 -5 14 C-4.34580901 8.93001981 -2.1453591 4.58009223 0 0 Z " fill="#080605" transform="translate(266,180)"/>
<path d="M0 0 C4.67105792 1.55701931 8.08705685 4.08447373 12 7 C11.39665691 10.70503641 9.77525763 12.85968148 7.4375 15.75 C6.79683594 16.54921875 6.15617188 17.3484375 5.49609375 18.171875 C5.00238281 18.77515625 4.50867188 19.3784375 4 20 C0.96147295 18.59023295 -1.5939595 16.91129772 -4.25 14.875 C-4.95640625 14.33617187 -5.6628125 13.79734375 -6.390625 13.2421875 C-6.92171875 12.83226562 -7.4528125 12.42234375 -8 12 C-6.49087042 7.01987239 -3.44338151 3.75740058 0 0 Z " fill="#070504" transform="translate(222,257)"/>
<path d="M0 0 C1.42136655 0.74105436 2.83689734 1.49330632 4.25 2.25 C5.03890625 2.66765625 5.8278125 3.0853125 6.640625 3.515625 C9 5 9 5 13 9 C9.04 14.94 9.04 14.94 5 21 C-5.64453235 14.63775078 -5.64453235 14.63775078 -7.0625 12.09375 C-6.96759497 8.91443157 -5.44538819 7.26051759 -3.5625 4.75 C-2.90378906 3.85796875 -2.24507812 2.9659375 -1.56640625 2.046875 C-1.04949219 1.37140625 -0.53257812 0.6959375 0 0 Z " fill="#070504" transform="translate(239,232)"/>
<path d="M0 0 C4.83628305 0.99043705 9.47618873 1.95698846 14 4 C13.00956295 8.83628305 12.04301154 13.47618873 10 18 C4.94744036 17.36843005 0.70406799 15.86540627 -4 14 C-3.46148032 8.72250715 -2.22656164 4.74354436 0 0 Z " fill="#060504" transform="translate(277,153)"/>
<path d="M0 0 C1.39613065 0.14295891 2.79189308 0.28951558 4.1875 0.4375 C4.96480469 0.51871094 5.74210937 0.59992188 6.54296875 0.68359375 C9.06001996 1.00772912 11.5177143 1.47532505 14 2 C13.85816304 3.75032844 13.71136571 5.50025534 13.5625 7.25 C13.48128906 8.22453125 13.40007812 9.1990625 13.31640625 10.203125 C13.04925416 12.56461753 12.64628032 14.71901065 12 17 C6.76119922 16.44854729 2.02649303 15.57077907 -3 14 C-2.69147815 12.041036 -2.3780582 10.08284287 -2.0625 8.125 C-1.88847656 7.03445312 -1.71445312 5.94390625 -1.53515625 4.8203125 C-1 2 -1 2 0 0 Z " fill="#050403" transform="translate(293,96)"/>
<path d="M0 0 C8.36628849 7.05024311 8.36628849 7.05024311 11 10 C11 12 11 12 9.390625 13.65625 C8.68421875 14.2646875 7.9778125 14.873125 7.25 15.5 C6.55390625 16.1084375 5.8578125 16.716875 5.140625 17.34375 C3 19 3 19 -1 21 C-3.97 18.03 -6.94 15.06 -10 12 C-5 7 -5 7 -2.75 4.875 C-0.77556277 3.02022825 -0.77556277 3.02022825 0 0 Z " fill="#78D5A5" transform="translate(142,97)"/>
</svg>
