<?xml version="1.0" encoding="UTF-8"?>
<svg version="1.1" xmlns="http://www.w3.org/2000/svg" width="512" height="512">
<path d="M0 0 C1.72620589 1.60492018 3.38608779 3.28219823 5 5 C20.02120386 19.10106886 39.04862467 28.19221445 60 28 C80.45246228 26.83603873 97.62843207 19.74336939 112.40625 5.453125 C113.2621875 4.64359375 114.118125 3.8340625 115 3 C115.6290625 2.39671875 116.258125 1.7934375 116.90625 1.171875 C121.55172624 -1.42820498 126.35534219 -0.01331412 131.23046875 1.28515625 C133.21959509 1.86591818 135.20514677 2.45902368 137.1875 3.0625 C138.25049316 3.3812207 139.31348633 3.69994141 140.40869141 4.02832031 C181.66281211 16.54451595 222.52288987 34.35834943 256 62 C256.79349854 62.64340332 256.79349854 62.64340332 257.60302734 63.29980469 C303.14774654 100.33086575 303.14774654 100.33086575 307 124 C307.930326 133.64318685 305.3409073 142.10624126 299.734375 149.9609375 C294.00794196 156.69336553 286.55249238 160.68545949 277.8125 161.875 C268.7908624 162.45664193 260.39974662 160.19542321 253.08203125 154.85546875 C249.153765 151.35466862 246.12775248 147.20757178 243 143 C228.38731174 124.39692379 211.09321303 108.17096562 190 97 C189.34 97 188.68 97 188 97 C188.51949219 98.19753906 189.03898437 99.39507812 189.57421875 100.62890625 C207.11275138 141.40473103 212.16913846 181.94344921 196.11914062 224.21875 C189.35922721 241.01825559 178.78144823 255.21855177 166 268 C165.89064427 270.96667611 165.84576304 273.91092497 165.84228516 276.87841797 C165.83720444 277.81008789 165.83212372 278.74175781 165.82688904 279.70166016 C165.81616022 281.73204471 165.80754997 283.76244128 165.80076981 285.79284286 C165.78902263 289.00308252 165.76958108 292.21318509 165.74765015 295.42337036 C165.68589088 304.55319684 165.63194568 313.68301029 165.59863281 322.81298828 C165.57772999 328.39039992 165.54246059 333.96756374 165.49787521 339.54483414 C165.48367799 341.67471531 165.47498443 343.80464035 165.47182083 345.9345665 C165.46693221 348.9109071 165.44382694 351.88658598 165.41650391 354.86279297 C165.41951004 355.74810699 165.42251617 356.63342102 165.4256134 357.54556274 C165.41452042 358.35600037 165.40342743 359.16643799 165.39199829 360.00143433 C165.38868814 360.70530714 165.385378 361.40917995 165.38196754 362.13438225 C165 364 165 364 163.98319817 365.72610092 C160.83110866 367.75083248 157.50479734 367.41180643 153.87683105 367.38095093 C153.03925624 367.3856309 152.20168143 367.39031087 151.33872557 367.39513266 C148.52188167 367.40713365 145.7055197 367.39760559 142.88867188 367.38818359 C140.87341527 367.39224703 138.8581609 367.39758762 136.84291077 367.40411377 C131.36160154 367.41782029 125.88046122 367.41247495 120.39914894 367.40297651 C114.67100179 367.39539718 108.94286938 367.40242071 103.21472168 367.40713501 C93.5941304 367.4125976 83.97360815 367.40538773 74.35302734 367.39111328 C63.22000647 367.37478584 52.08715039 367.38007399 40.95413351 367.3965925 C31.40674472 367.41019301 21.85940563 367.41213405 12.31201029 367.40427649 C6.60486556 367.39959208 0.89779836 367.39899619 -4.80934143 367.40888596 C-10.17406008 367.41753247 -15.53856563 367.41157612 -20.90326118 367.39420319 C-22.87577014 367.39022594 -24.84829694 367.39139342 -26.82079887 367.39799118 C-29.5063876 367.406148 -32.19128667 367.39595648 -34.87683105 367.38095093 C-35.66369057 367.38764309 -36.45055009 367.39433526 -37.26125383 367.40123022 C-42.52172728 367.34393022 -42.52172728 367.34393022 -44.94519806 365.60119057 C-47.57067935 361.61570693 -47.10720954 357.81851784 -47.0625 353.19506836 C-47.05305211 351.30338157 -47.04386872 349.41169345 -47.03491211 347.52000427 C-47.02861786 346.51350767 -47.02232361 345.50701107 -47.01583862 344.47001457 C-46.98889275 339.14472863 -46.99874583 333.81947566 -47.00390625 328.49414062 C-47.01011008 321.7149074 -47.00487991 314.9365068 -46.94873047 308.1574707 C-46.90435571 302.68226696 -46.90397777 297.20859744 -46.93286133 291.73330879 C-46.9359353 289.65018499 -46.92310732 287.56697254 -46.89379883 285.48405266 C-46.38599812 274.17751082 -46.38599812 274.17751082 -49.96910095 263.79302979 C-52.19701506 261.55976856 -54.42713761 259.80930277 -57 258 C-59.0171537 255.73573292 -60.79491749 253.33741589 -62.5625 250.875 C-63.02229248 250.23739746 -63.48208496 249.59979492 -63.95581055 248.94287109 C-84.8341153 219.34499604 -91.66096322 180.7016095 -85.92333984 145.17675781 C-82.5865244 128.08018986 -76.32765542 111.74666377 -69 96 C-90.66201455 107.65153813 -111.0755499 124.28043236 -125.5625 144.1875 C-132.04192597 152.97122887 -138.49379809 159.34640556 -149.37109375 161.4609375 C-158.45086812 162.73578882 -167.309451 161.11101069 -175 156 C-181.68539088 150.77703837 -185.3460329 143.96190131 -188 136 C-189.53309691 116.67292584 -179.93130801 104.76464345 -168 90.75 C-159.73776799 81.22615789 -150.89827231 72.81442551 -141 65 C-139.90556985 64.11542418 -138.81184547 63.2299746 -137.71875 62.34375 C-100.93163199 32.70866391 -56.44080492 13.02800281 -11 1 C-10.31558838 0.81711426 -9.63117676 0.63422852 -8.92602539 0.44580078 C-5.78506864 -0.28120987 -3.21177621 -0.33808171 0 0 Z M35 105 C11.99251237 143.06020648 11.99251237 143.06020648 8.5859375 186.17578125 C11.2011923 194.65736448 17.1660733 202.18023505 24.9375 206.5625 C30.85086601 209.03130092 37.12340418 209.94043977 43.25 207.8125 C51.8474922 203.96261895 57.71823203 198.59466815 61.3125 189.875 C67.70237162 172.99711124 62.16978897 155.0495118 55.07080078 139.26416016 C49.55305251 127.59712926 43.31226567 116.25237538 37 105 C36.34 105 35.68 105 35 105 Z M90 122 C87.77913379 125.88898349 85.57709164 129.7855776 83.4140625 133.70703125 C82.00241128 136.25817448 80.5528073 138.68792288 78.9609375 141.13671875 C74.18081117 148.96172007 75.17698928 154.19180078 77.11328125 162.68359375 C79.35672803 172.72622461 78.31531029 183.05656922 76 193 C80.65096632 197.11015629 83.98276153 199.65842583 90.3125 200.375 C97.23763372 199.67074911 101.46245295 197.05213189 105.875 191.6875 C111.65389681 183.59177896 112.00570471 175.35666794 110.48828125 165.765625 C106.94942946 150.2292025 98.83323688 135.75873246 91 122 C90.67 122 90.34 122 90 122 Z " fill="#A3D3FE" transform="translate(196,136)"/>
<path d="M0 0 C1.72620589 1.60492018 3.38608779 3.28219823 5 5 C20.02120386 19.10106886 39.04862467 28.19221445 60 28 C80.45246228 26.83603873 97.62843207 19.74336939 112.40625 5.453125 C113.2621875 4.64359375 114.118125 3.8340625 115 3 C115.6290625 2.39671875 116.258125 1.7934375 116.90625 1.171875 C121.55172624 -1.42820498 126.35534219 -0.01331412 131.23046875 1.28515625 C133.21959509 1.86591818 135.20514677 2.45902368 137.1875 3.0625 C138.25049316 3.3812207 139.31348633 3.69994141 140.40869141 4.02832031 C181.66281211 16.54451595 222.52288987 34.35834943 256 62 C256.79349854 62.64340332 256.79349854 62.64340332 257.60302734 63.29980469 C303.14774654 100.33086575 303.14774654 100.33086575 307 124 C307.930326 133.64318685 305.3409073 142.10624126 299.734375 149.9609375 C294.00794196 156.69336553 286.55249238 160.68545949 277.8125 161.875 C268.7908624 162.45664193 260.39974662 160.19542321 253.08203125 154.85546875 C249.153765 151.35466862 246.12775248 147.20757178 243 143 C228.38731174 124.39692379 211.09321303 108.17096562 190 97 C189.34 97 188.68 97 188 97 C188.51949219 98.19753906 189.03898437 99.39507812 189.57421875 100.62890625 C207.11275138 141.40473103 212.16913846 181.94344921 196.11914062 224.21875 C189.35922721 241.01825559 178.78144823 255.21855177 166 268 C165.89064427 270.96667611 165.84576304 273.91092497 165.84228516 276.87841797 C165.83720444 277.81008789 165.83212372 278.74175781 165.82688904 279.70166016 C165.81616022 281.73204471 165.80754997 283.76244128 165.80076981 285.79284286 C165.78902263 289.00308252 165.76958108 292.21318509 165.74765015 295.42337036 C165.68589088 304.55319684 165.63194568 313.68301029 165.59863281 322.81298828 C165.57772999 328.39039992 165.54246059 333.96756374 165.49787521 339.54483414 C165.48367799 341.67471531 165.47498443 343.80464035 165.47182083 345.9345665 C165.46693221 348.9109071 165.44382694 351.88658598 165.41650391 354.86279297 C165.41951004 355.74810699 165.42251617 356.63342102 165.4256134 357.54556274 C165.41452042 358.35600037 165.40342743 359.16643799 165.39199829 360.00143433 C165.38868814 360.70530714 165.385378 361.40917995 165.38196754 362.13438225 C165 364 165 364 163.98319817 365.72610092 C160.83110866 367.75083248 157.50479734 367.41180643 153.87683105 367.38095093 C153.03925624 367.3856309 152.20168143 367.39031087 151.33872557 367.39513266 C148.52188167 367.40713365 145.7055197 367.39760559 142.88867188 367.38818359 C140.87341527 367.39224703 138.8581609 367.39758762 136.84291077 367.40411377 C131.36160154 367.41782029 125.88046122 367.41247495 120.39914894 367.40297651 C114.67100179 367.39539718 108.94286938 367.40242071 103.21472168 367.40713501 C93.5941304 367.4125976 83.97360815 367.40538773 74.35302734 367.39111328 C63.22000647 367.37478584 52.08715039 367.38007399 40.95413351 367.3965925 C31.40674472 367.41019301 21.85940563 367.41213405 12.31201029 367.40427649 C6.60486556 367.39959208 0.89779836 367.39899619 -4.80934143 367.40888596 C-10.17406008 367.41753247 -15.53856563 367.41157612 -20.90326118 367.39420319 C-22.87577014 367.39022594 -24.84829694 367.39139342 -26.82079887 367.39799118 C-29.5063876 367.406148 -32.19128667 367.39595648 -34.87683105 367.38095093 C-35.66369057 367.38764309 -36.45055009 367.39433526 -37.26125383 367.40123022 C-42.52172728 367.34393022 -42.52172728 367.34393022 -44.94519806 365.60119057 C-47.57067935 361.61570693 -47.10720954 357.81851784 -47.0625 353.19506836 C-47.05305211 351.30338157 -47.04386872 349.41169345 -47.03491211 347.52000427 C-47.02861786 346.51350767 -47.02232361 345.50701107 -47.01583862 344.47001457 C-46.98889275 339.14472863 -46.99874583 333.81947566 -47.00390625 328.49414062 C-47.01011008 321.7149074 -47.00487991 314.9365068 -46.94873047 308.1574707 C-46.90435571 302.68226696 -46.90397777 297.20859744 -46.93286133 291.73330879 C-46.9359353 289.65018499 -46.92310732 287.56697254 -46.89379883 285.48405266 C-46.38599812 274.17751082 -46.38599812 274.17751082 -49.96910095 263.79302979 C-52.19701506 261.55976856 -54.42713761 259.80930277 -57 258 C-59.0171537 255.73573292 -60.79491749 253.33741589 -62.5625 250.875 C-63.02229248 250.23739746 -63.48208496 249.59979492 -63.95581055 248.94287109 C-84.8341153 219.34499604 -91.66096322 180.7016095 -85.92333984 145.17675781 C-82.5865244 128.08018986 -76.32765542 111.74666377 -69 96 C-90.66201455 107.65153813 -111.0755499 124.28043236 -125.5625 144.1875 C-132.04192597 152.97122887 -138.49379809 159.34640556 -149.37109375 161.4609375 C-158.45086812 162.73578882 -167.309451 161.11101069 -175 156 C-181.68539088 150.77703837 -185.3460329 143.96190131 -188 136 C-189.53309691 116.67292584 -179.93130801 104.76464345 -168 90.75 C-159.73776799 81.22615789 -150.89827231 72.81442551 -141 65 C-139.90556985 64.11542418 -138.81184547 63.2299746 -137.71875 62.34375 C-100.93163199 32.70866391 -56.44080492 13.02800281 -11 1 C-10.31558838 0.81711426 -9.63117676 0.63422852 -8.92602539 0.44580078 C-5.78506864 -0.28120987 -3.21177621 -0.33808171 0 0 Z M-59 33 C-60.43085938 33.60714844 -60.43085938 33.60714844 -61.890625 34.2265625 C-100.27021532 50.6598125 -138.28920388 75.41483178 -164.0625 108.8125 C-164.86699585 109.85216919 -164.86699585 109.85216919 -165.68774414 110.9128418 C-169.70021931 116.25663926 -173.44921242 121.6952745 -174.5625 128.375 C-173.64692705 134.27535901 -171.51597095 139.4498756 -167.2734375 143.75 C-162.73643513 147.03605933 -158.27995445 147.8376356 -152.734375 147.53125 C-144.15133604 145.86368815 -139.71673733 139.71035186 -135.01171875 132.8515625 C-131.72972084 128.19941012 -127.91551271 124.12191183 -124 120 C-123.54028809 119.50773926 -123.08057617 119.01547852 -122.60693359 118.50830078 C-105.48213733 100.25739702 -84.61441879 86.97812799 -62.6875 75.1875 C-61.71474121 74.65310303 -60.74198242 74.11870605 -59.73974609 73.56811523 C-52.90746057 69.9869934 -52.90746057 69.9869934 -48.45703125 70.05078125 C-46 71 -46 71 -44 73 C-42.83112794 79.29011661 -46.4145938 84.03906674 -49.375 89.3125 C-58.9012758 106.93774023 -66.50386623 125.44476318 -71 145 C-71.24363281 146.01578125 -71.48726563 147.0315625 -71.73828125 148.078125 C-77.87290989 179.2937864 -70.53148071 212.6863329 -53 239 C-50.13269265 242.79148079 -47.10879953 246.406181 -44 250 C-42.97712891 251.30710937 -42.97712891 251.30710937 -41.93359375 252.640625 C-40.30831096 254.62379834 -38.82469681 256.13050452 -36.8125 257.6875 C-34 260 -34 260 -33 262 C-32.87722788 264.86736654 -32.81424558 267.71200295 -32.79467773 270.58056641 C-32.78477814 271.46843338 -32.77487854 272.35630035 -32.76467896 273.27107239 C-32.73301612 276.21454169 -32.70828763 279.15802715 -32.68359375 282.1015625 C-32.66302835 284.13895087 -32.64203199 286.17633494 -32.62062073 288.2137146 C-32.56535727 293.5829317 -32.51596686 298.95218757 -32.46777344 304.32147217 C-32.40877037 310.76006321 -32.34251893 317.19858319 -32.27747345 323.63711548 C-32.17941018 333.42470035 -32.09059088 343.21233025 -32 353 C-4.28 353 23.44 353 52 353 C52.2100792 327.18126553 52.2100792 327.18126553 52.38793945 301.36230469 C52.43786621 296.36572266 52.43786621 296.36572266 52.4650116 294.0256958 C52.48114816 292.39341626 52.49144535 290.76107259 52.49711609 289.12872314 C52.50685119 286.65415216 52.53518325 284.18041828 52.56762695 281.70605469 C52.56620099 280.98034649 52.56477503 280.25463829 52.56330585 279.50693893 C52.6210171 276.42614316 52.85167333 274.27176523 54.33952332 271.54571533 C56 270 56 270 59 269.5625 C62 270 62 270 63.66047668 271.04707336 C65.7221626 274.05286004 65.43917001 277.16337423 65.43237305 280.68432617 C65.44778373 281.87433086 65.44778373 281.87433086 65.46350574 283.08837605 C65.49339782 285.65665107 65.50293602 288.22454378 65.51171875 290.79296875 C65.52718188 292.37847231 65.54397821 293.96396346 65.56213379 295.54943848 C65.62009131 301.42865516 65.65222431 307.30810347 65.6875 313.1875 C65.790625 326.325625 65.89375 339.46375 66 353 C94.05 353 122.1 353 151 353 C150.92136719 346.50957031 150.84273438 340.01914062 150.76171875 333.33203125 C150.74087652 329.19832254 150.72390039 325.065309 150.72070312 320.93164062 C150.71527384 314.38257424 150.69623055 307.83569059 150.59204102 301.28735352 C150.50884773 296.00207142 150.49011713 290.71999075 150.51441383 285.43414879 C150.512634 283.42678656 150.48836658 281.41930342 150.44031334 279.41251564 C150.04944062 262.06571136 150.04944062 262.06571136 156.51970387 255.21316814 C158.73128992 253.15210895 161.04622027 251.26170211 163.41645241 249.38728905 C178.98729276 235.74623627 188.74147016 208.03891671 191 188 C191.21219796 183.34452394 191.24754259 178.70696329 191.20581055 174.04760742 C191.18749752 171.93721411 191.18530213 169.8272617 191.18554688 167.71679688 C191.15854615 156.18901028 190.33386807 145.88446956 187.0625 134.8125 C186.75675049 133.77585205 186.45100098 132.7392041 186.13598633 131.67114258 C181.26306589 115.75373894 174.36362263 100.60958503 166.04760742 86.19995117 C163.49963971 81.63948428 162.30785362 78.3743131 163 73 C165 71 165 71 167.984375 70.578125 C173.27825193 70.74748536 177.64455095 73.34687539 182.25 75.75 C183.21292969 76.24371094 184.17585938 76.73742187 185.16796875 77.24609375 C204.2088319 87.17936927 221.39294092 99.25158171 237 114 C237.85851562 114.7940625 238.71703125 115.588125 239.6015625 116.40625 C245.97877756 122.50779294 251.30280156 129.03909937 256.49731445 136.16210938 C260.02333453 140.95117317 263.1656428 145.05521427 269 147 C275.41709533 147.79786265 279.99628337 147.21514294 285.30859375 143.4375 C288.84315266 140.43353308 291.68499125 137.23011879 292.34375 132.56640625 C292.80388906 123.72023283 290.36307582 118.88261397 285 112 C283.98679687 110.67548828 283.98679687 110.67548828 282.953125 109.32421875 C252.12623007 70.45307934 208.85602533 44.25327329 162.81152344 27.05371094 C160.13790457 26.05168428 157.47835828 25.01907409 154.8203125 23.9765625 C150.98034706 22.48460384 147.1200822 21.08233036 143.21875 19.75927734 C141.71244892 19.2438068 140.21246767 18.70956374 138.71875 18.15869141 C133.75997078 16.36177077 129.30481403 15.01638974 124 15 C120.54253582 16.95967814 118.3795159 19.1754929 115.7265625 22.125 C111.01976217 27.08804447 105.0534396 29.97245436 99 33 C97.86433594 33.56847656 96.72867187 34.13695312 95.55859375 34.72265625 C74.6130875 44.42097371 50.57423362 44.7360905 28.87451172 37.26855469 C16.64516917 32.7412777 5.03635355 26.11925366 -3.6328125 16.21484375 C-11.74258102 9.00873515 -49.68889702 29.02693774 -59 33 Z " fill="#1F4671" transform="translate(196,136)"/>
<path d="M0 0 C8.21746157 2.69192707 12.54340552 16.4194166 16.5 23.9375 C21.34850917 33.14532411 26.29361799 42.2468288 31.625 51.1875 C32.22973145 50.05320557 32.22973145 50.05320557 32.84667969 48.89599609 C34.35756933 46.06557302 35.87122728 43.23665283 37.38671875 40.40869141 C38.03950851 39.18922595 38.69122233 37.96918385 39.34179688 36.74853516 C40.28225588 34.98445331 41.22703235 33.22267536 42.171875 31.4609375 C42.73745117 30.40310059 43.30302734 29.34526367 43.88574219 28.25537109 C48.87114964 19.4616274 48.87114964 19.4616274 53.0625 17.9375 C56.625 18.1875 56.625 18.1875 59.0234375 20.59765625 C62.20703346 24.69764168 64.47792964 29.25758787 66.8125 33.875 C67.77664169 35.75687027 68.74150097 37.63837305 69.70703125 39.51953125 C70.4333374 40.93999756 70.4333374 40.93999756 71.17431641 42.38916016 C72.54500407 45.03318944 73.95456785 47.65057234 75.38671875 50.26171875 C83.07712511 64.33813658 88.77875644 77.67233803 88.875 93.9375 C88.9059375 95.22140625 88.9059375 95.22140625 88.9375 96.53125 C89.00708268 108.01239237 84.65402329 116.3644204 77.25 124.9375 C68.20245824 132.69253579 59.58978865 135.35767081 47.66992188 134.50390625 C43.31824765 133.8305813 39.71317875 131.7241803 35.98046875 129.5 C33.63763899 127.94412523 33.63763899 127.94412523 30.625 128.1875 C30.08875 128.88875 29.5525 129.59 29 130.3125 C22.53088511 138.14353381 12.7077494 142.59139056 2.71875 143.5703125 C-10.00022506 144.12547003 -18.95584277 140.76472139 -28.375 132.1875 C-37.26166088 123.58692881 -42.52246669 112.54923301 -43.375 100.1875 C-43.45234375 99.13820313 -43.5296875 98.08890625 -43.609375 97.0078125 C-44.69913124 68.8557764 -28.70570101 43.28613949 -15.29589844 19.62890625 C-12.75324381 15.07358601 -10.32994136 10.46028802 -7.92236328 5.83203125 C-4.66146402 0.25897022 -4.66146402 0.25897022 0 0 Z M-1.375 25.1875 C-24.38248763 63.24770648 -24.38248763 63.24770648 -27.7890625 106.36328125 C-25.1738077 114.84486448 -19.2089267 122.36773505 -11.4375 126.75 C-5.52413399 129.21880092 0.74840418 130.12793977 6.875 128 C15.4724922 124.15011895 21.34323203 118.78216815 24.9375 110.0625 C31.32737162 93.18461124 25.79478897 75.2370118 18.69580078 59.45166016 C13.17805251 47.78462926 6.93726567 36.43987538 0.625 25.1875 C-0.035 25.1875 -0.695 25.1875 -1.375 25.1875 Z M53.625 42.1875 C51.40413379 46.07648349 49.20209164 49.9730776 47.0390625 53.89453125 C45.62741128 56.44567448 44.1778073 58.87542288 42.5859375 61.32421875 C37.80581117 69.14922007 38.80198928 74.37930078 40.73828125 82.87109375 C42.98172803 92.91372461 41.94031029 103.24406922 39.625 113.1875 C44.27596632 117.29765629 47.60776153 119.84592583 53.9375 120.5625 C60.86263372 119.85824911 65.08745295 117.23963189 69.5 111.875 C75.27889681 103.77927896 75.63070471 95.54416794 74.11328125 85.953125 C70.57442946 70.4167025 62.45823688 55.94623246 54.625 42.1875 C54.295 42.1875 53.965 42.1875 53.625 42.1875 Z " fill="#204672" transform="translate(232.375,215.8125)"/>
<path d="M0 0 C13.06045138 10.1548005 19.70361472 25.70356264 22.015625 41.63671875 C23.54221847 58.05282663 18.29047017 73.2979546 8.703125 86.51171875 C1.70658753 94.89201585 -7.00136534 100.41465537 -16.984375 104.63671875 C-17.78746094 104.97832031 -18.59054687 105.31992188 -19.41796875 105.671875 C-32.69448472 110.23899649 -50.28122894 109.28059562 -62.984375 103.63671875 C-63.90992188 103.23582031 -64.83546875 102.83492188 -65.7890625 102.421875 C-80.61415851 95.17731675 -91.06871972 82.6627741 -96.421875 67.13671875 C-101.16186068 51.66268477 -100.31307703 35.10861353 -93.4765625 20.390625 C-84.78472932 4.52297605 -71.60658852 -6.23314204 -54.3125 -11.4765625 C-34.77917782 -16.10819867 -16.18055575 -11.11616921 0 0 Z M-71.7265625 16.15625 C-81.06329478 26.41373269 -84.68962792 37.31479503 -84.328125 51.08203125 C-82.96033236 65.22625064 -76.25929603 75.51637413 -65.6796875 84.65625 C-54.52180195 92.85487025 -42.37197356 93.8657984 -28.984375 92.63671875 C-16.12158727 89.79894909 -6.01663906 81.60705068 1.015625 70.63671875 C7.48958056 58.92677405 8.67252385 46.56918033 5.109375 33.71875 C0.84072384 21.69030083 -6.88280301 12.57131013 -18.234375 6.69921875 C-19.80739136 5.9884303 -21.38968736 5.29745471 -22.984375 4.63671875 C-23.974375 4.22421875 -24.964375 3.81171875 -25.984375 3.38671875 C-43.16721721 -0.9089918 -59.02247323 3.96277525 -71.7265625 16.15625 Z " fill="#1E4470" transform="translate(293.984375,21.36328125)"/>
<path d="M0 0 C2 1.0625 2 1.0625 3 3 C3.625 6.1875 3.625 6.1875 3 10 C0.97525065 12.98891571 -1.43556628 15.47028782 -4 18 C-5.66720904 19.66612412 -7.33393318 21.33273371 -9 23 C-8.02067253 23.00213753 -8.02067253 23.00213753 -7.02156067 23.00431824 C-0.22415188 23.02400973 6.57235825 23.07827221 13.36938477 23.15258789 C15.90577751 23.17578018 18.44226672 23.19016645 20.97875977 23.19555664 C24.62577524 23.20483658 28.27127064 23.24581053 31.91796875 23.29296875 C33.05147263 23.2890361 34.1849765 23.28510345 35.35282898 23.28105164 C43.19418082 23.42626254 43.19418082 23.42626254 47.25512695 26.31762695 C49 29 49 29 49 32.625 C48.01067095 35.96398555 47.69342613 36.99571469 45 39 C42.58918762 39.39872742 42.58918762 39.39872742 39.70239258 39.43237305 C38.08105156 39.46206429 38.08105156 39.46206429 36.42695618 39.49235535 C34.67840584 39.50194023 34.67840584 39.50194023 32.89453125 39.51171875 C31.70018967 39.52966995 30.50584808 39.54762115 29.27531433 39.56611633 C25.45441232 39.62037033 21.63363629 39.65416429 17.8125 39.6875 C15.22459178 39.72065965 12.63670023 39.75514802 10.04882812 39.79101562 C3.69933172 39.87610557 -2.65018069 39.94439153 -9 40 C-8.21753906 40.77085937 -7.43507813 41.54171875 -6.62890625 42.3359375 C-5.60663943 43.34882573 -4.58451119 44.36185384 -3.5625 45.375 C-3.04623047 45.88289063 -2.52996094 46.39078125 -1.99804688 46.9140625 C2.8857336 51.76592284 2.8857336 51.76592284 3.3125 56.375 C3 60 3 60 1.375 62.4375 C-1 64 -1 64 -3.75 64.6875 C-8.67468289 63.64574016 -11.36746662 60.36742613 -15 57 C-15.86334961 56.20311768 -16.72669922 55.40623535 -17.61621094 54.58520508 C-20.44167528 51.94152061 -23.22308012 49.25706984 -26 46.5625 C-26.4842041 46.1099585 -26.9684082 45.65741699 -27.46728516 45.19116211 C-36.59255305 36.65092562 -36.59255305 36.65092562 -37.0625 31.83984375 C-35.58986853 26.51779694 -32.8908689 23.80174502 -29 20 C-28.23220215 19.20996582 -27.4644043 18.41993164 -26.67333984 17.60595703 C-24.20108467 15.06748515 -21.69884627 12.56226435 -19.1875 10.0625 C-18.32962891 9.20076172 -17.47175781 8.33902344 -16.58789062 7.45117188 C-15.76869141 6.63326172 -14.94949219 5.81535156 -14.10546875 4.97265625 C-13.36449951 4.23281494 -12.62353027 3.49297363 -11.86010742 2.73071289 C-8.30485699 -0.57722389 -4.66378553 -0.50548187 0 0 Z " fill="#1E4571" transform="translate(454,307)"/>
<path d="M0 0 C3.90824245 0.80376302 6.11073993 3.43782707 8.75680542 6.26873779 C9.63520836 7.16056259 9.63520836 7.16056259 10.53135681 8.07040405 C12.38783452 9.96486283 14.21432658 11.88554518 16.04196167 13.80780029 C17.29601053 15.09342301 18.55185348 16.37729827 19.80953979 17.65936279 C29.81667383 27.92191413 29.81667383 27.92191413 30.60446167 32.05780029 C29.34407514 40.56540937 18.64402079 48.04377743 12.79196167 53.87030029 C11.43361206 55.23445068 11.43361206 55.23445068 10.04782104 56.62615967 C9.18350464 57.48918701 8.31918823 58.35221436 7.42868042 59.24139404 C6.64581665 60.02312988 5.86295288 60.80486572 5.05636597 61.61029053 C2.59675658 63.90684888 1.60605149 64.38918379 -1.77053833 64.68280029 C-5.29132643 64.40113724 -6.54391021 64.04572042 -8.89553833 61.43280029 C-10.00076611 58.04343511 -10.32538685 56.29966148 -8.72366333 53.06951904 C-6.64393651 50.06991305 -4.32164055 47.66601674 -1.70803833 45.12030029 C-0.80698364 44.23729248 0.09407104 43.35428467 1.02243042 42.44451904 C1.70950073 41.78065186 2.39657104 41.11678467 3.10446167 40.43280029 C2.10301117 40.42733185 2.10301117 40.42733185 1.08132935 40.42175293 C-5.86183597 40.37997199 -12.80433753 40.31065703 -19.74710083 40.22528076 C-22.33883021 40.19703922 -24.93064622 40.17584064 -27.52249146 40.1618042 C-31.24625104 40.14041967 -34.96896534 40.09378944 -38.69241333 40.04217529 C-39.85295227 40.04094666 -41.01349121 40.03971802 -42.209198 40.03845215 C-43.29001648 40.01873352 -44.37083496 39.99901489 -45.48440552 39.97869873 C-46.43482727 39.96981628 -47.38524902 39.96093384 -48.36447144 39.95178223 C-51.65727432 39.27661034 -52.85468893 38.06014707 -54.89553833 35.43280029 C-55.45803833 31.93280029 -55.45803833 31.93280029 -54.89553833 28.43280029 C-52.69114314 25.73225746 -50.85448556 24.57946873 -47.39343262 24.05010986 C-44.19469968 23.87197873 -41.01721721 23.82689789 -37.81350708 23.82342529 C-36.64419144 23.80688904 -35.47487579 23.79035278 -34.27012634 23.77331543 C-30.5410438 23.72479053 -26.81236924 23.70345342 -23.08303833 23.68280029 C-20.5524188 23.65464454 -18.02181831 23.62471768 -15.49124146 23.59295654 C-9.29274792 23.5190301 -3.09436933 23.46741381 3.10446167 23.43280029 C2.24981323 22.63615967 1.39516479 21.83951904 0.51461792 21.01873779 C-0.60192361 19.94910977 -1.71777296 18.87875887 -2.83303833 17.80780029 C-3.39700317 17.28572998 -3.96096802 16.76365967 -4.54202271 16.22576904 C-7.28343247 13.56643741 -8.74259405 11.94097 -9.86428833 8.21405029 C-9.89553833 5.43280029 -9.89553833 5.43280029 -8.45803833 2.55780029 C-5.53818845 0.13646137 -3.74776036 -0.11282253 0 0 Z " fill="#1E4570" transform="translate(62.895538330078125,306.56719970703125)"/>
</svg>
