<?xml version="1.0" encoding="UTF-8"?>
<svg version="1.1" xmlns="http://www.w3.org/2000/svg" width="512" height="512">
<path d="M0 0 C3.91946768 0.0051572 7.83892726 0.00034132 11.75839543 -0.00277233 C18.34357209 -0.00638812 24.92870358 -0.00168031 31.51387334 0.00790882 C39.04251626 0.01874778 46.5710504 0.01529131 54.09969062 0.00425601 C60.64062966 -0.00493508 67.18153668 -0.00604432 73.72248012 -0.00086665 C77.59471907 0.0021945 81.46690766 0.00283071 85.33914304 -0.00393963 C109.84400357 -0.04095644 134.35410999 0.52503993 158.64741826 4.08115101 C159.83545049 4.25146839 161.02348271 4.42178577 162.24751592 4.59726429 C185.22929563 8.03509346 212.30238098 13.01760423 227.64741826 32.26865101 C236.99854073 46.58159356 235.59173421 64.14280404 232.64741826 80.26865101 C228.85363046 97.17217042 220.89633392 111.26866416 209.64741826 124.26865101 C208.67868779 125.39206898 208.67868779 125.39206898 207.69038701 126.53818226 C179.13036418 157.0893178 129.1002878 170.88266436 88.59370732 172.49765491 C81.24013483 172.73931635 73.88599032 172.88268003 66.52876592 172.94174671 C47.13167419 172.98759113 47.13167419 172.98759113 28.64741826 178.26865101 C29.0689417 179.49841663 29.49046514 180.72818226 29.92476201 181.99521351 C30.47838905 183.6279441 31.03176101 185.2607612 31.58491826 186.89365101 C31.86271123 187.7018932 32.1405042 188.51013538 32.42671514 189.34286976 C32.82793584 190.53202991 32.82793584 190.53202991 33.23726201 191.74521351 C33.48339238 192.46789417 33.72952275 193.19057484 33.98311162 193.93515491 C39.46092438 213.17695365 37.17315324 241.33998631 27.64741826 259.26865101 C23.97244543 261.7186329 20.91620581 262.08297795 16.64741826 261.26865101 C14.08491826 259.26865101 14.08491826 259.26865101 12.64741826 256.26865101 C12.64741826 249.63000747 14.92750558 243.21098668 16.70991826 236.85458851 C20.68735765 221.64088284 20.34803868 203.99872129 14.64741826 189.26865101 C13.98741826 188.27865101 13.32741826 187.28865101 12.64741826 186.26865101 C4.01926443 193.45233066 -4.11600256 200.93686714 -11.97758174 208.95615101 C-32.5424331 229.76616253 -55.3182682 242.27359734 -85.16508174 242.58115101 C-103.22524796 242.48102417 -119.78312183 238.79940378 -133.17289424 225.76083851 C-151.00013176 205.37772464 -151.48598313 173.35493694 -151.55570674 147.79208851 C-151.55853412 147.07751106 -151.56136149 146.36293362 -151.56427455 145.62670231 C-151.57913344 141.84409964 -151.5884463 138.06153379 -151.59281611 134.27890491 C-151.59719554 131.19935697 -151.61108512 128.12009001 -151.63383174 125.04062366 C-151.92758231 84.42312518 -151.92758231 84.42312518 -145.60258174 66.89365101 C-145.35016719 66.16597523 -145.09775264 65.43829945 -144.83768916 64.68857288 C-138.62740533 47.45186673 -138.62740533 47.45186673 -132.35258174 43.26865101 C-130.62008174 43.54708851 -130.62008174 43.54708851 -128.85258174 43.83115101 C-125.26748671 43.9910809 -124.29279495 43.21901669 -121.45414424 40.86240101 C-119.45878338 38.89279726 -117.55935816 36.8461113 -115.67289424 34.77255726 C-113.35258174 32.26865101 -113.35258174 32.26865101 -111.35258174 31.26865101 C-111.43508174 30.21677601 -111.51758174 29.16490101 -111.60258174 28.08115101 C-111.30484779 23.54070831 -110.46257817 22.4904447 -107.35258174 19.26865101 C-93.61732004 10.900985 -77.00092504 6.93987999 -61.35258174 4.01865101 C-60.5487707 3.867589 -59.74495967 3.71652699 -58.91679072 3.56088734 C-39.34891216 0.17513066 -19.7911965 -0.03433342 0 0 Z " fill="#F27B7B" transform="translate(213.35258173942566,-0.26865100860595703)"/>
<path d="M0 0 C0.68835938 -0.03738281 1.37671875 -0.07476562 2.0859375 -0.11328125 C16.03670452 -0.34073941 30.78655546 9.20011992 43.1875 14.875 C63.50950164 26.44207218 63.50950164 26.44207218 85.125 28.375 C88.40412128 26.82831207 91.62620091 25.21211804 94.83886719 23.53369141 C116.82751566 12.13160364 143.38784004 8.26511384 167.25439453 15.73339844 C180.78931683 20.3757602 191.28942329 29.29890895 200.125 40.375 C200.6776075 41.66814369 200.6776075 41.66814369 201.24137878 42.9874115 C202.99713126 45.75981052 202.99713126 45.75981052 206.6723175 45.98731995 C208.17245261 46.00738807 209.67310423 45.9998197 211.1730957 45.97094727 C211.99294952 45.9750058 212.81280334 45.97906433 213.65750122 45.98324585 C215.43848492 45.98876817 217.21953305 45.98274019 219.00045204 45.96658516 C221.82141995 45.94122068 224.64092247 45.94594501 227.46195984 45.95848083 C233.45396652 45.97926128 239.44552296 45.95953813 245.4375 45.9375 C252.37085414 45.9163939 259.30373728 45.91185561 266.23708153 45.93800163 C269.01258213 45.94136003 271.78718231 45.92014461 274.56257629 45.89759827 C276.27129308 45.90011043 277.98000875 45.90367136 279.6887207 45.90844727 C280.45724869 45.89556168 281.22577667 45.88267609 282.01759338 45.86940002 C287.23189846 45.91788753 290.18134918 46.97724591 294.125 50.375 C298.92982655 55.6359984 298.6959723 60.57055667 298.64257812 67.33398438 C298.65309204 68.97407219 298.65309204 68.97407219 298.66381836 70.64729309 C298.68139614 74.25470518 298.66977558 77.86133019 298.65625 81.46875 C298.65894496 83.97929027 298.6628274 86.48982952 298.66784668 89.00036621 C298.67374145 94.25927737 298.66556177 99.51798457 298.64648438 104.77685547 C298.62471719 110.84709064 298.63176929 116.91678833 298.65379 122.98701048 C298.67416509 128.83900286 298.67196289 134.6907918 298.66026306 140.5428009 C298.65759585 143.02749202 298.66086529 145.51219686 298.67018127 147.99687195 C298.68034657 151.47028878 298.66484425 154.94267546 298.64257812 158.41601562 C298.65472351 159.95446892 298.65472351 159.95446892 298.66711426 161.52400208 C298.59661827 167.46388726 298.0474141 170.83185103 294.125 175.375 C289.33559719 179.58386914 284.79716482 179.52489595 278.67236328 179.53271484 C277.37631165 179.54033592 277.37631165 179.54033592 276.05407715 179.54811096 C274.17328025 179.55882156 272.29247056 179.56743903 270.41165543 179.57423019 C267.41474143 179.58605816 264.41796904 179.60553028 261.42111206 179.62734985 C252.89781581 179.68876859 244.37452824 179.74259575 235.85107422 179.77636719 C230.63436854 179.79758957 225.41791215 179.83312377 220.20135117 179.87712479 C218.23148458 179.89109107 216.26157378 179.8999623 214.29166031 179.90317917 C203.07938673 179.92339271 192.24704916 180.49366111 181.17122078 182.33209801 C168.20871411 184.46894991 168.20871411 184.46894991 163.625 182.0625 C162.125 180.375 162.125 180.375 162.125 177.375 C158.99450803 177.73339536 155.87284049 178.14298048 152.75 178.5625 C151.41582031 178.71428711 151.41582031 178.71428711 150.0546875 178.86914062 C147.63766312 179.20789025 145.42761591 179.56309833 143.125 180.375 C141.59320582 182.72461664 141.59320582 182.72461664 141.125 185.375 C138.94110427 188.13445193 137.25769653 188.82147105 133.82006836 189.32324219 C132.91672256 189.46167542 132.01337677 189.60010864 131.08265686 189.74273682 C129.57027687 189.95516022 129.57027687 189.95516022 128.02734375 190.171875 C126.94404282 190.33427673 125.86074188 190.49667847 124.74461365 190.66400146 C122.26869377 191.03431447 119.79196892 191.39926925 117.31463623 191.76000977 C112.76507712 192.42385861 108.22072834 193.12057809 103.67626953 193.81835938 C95.76455411 195.03106281 87.84970525 196.22137868 79.93238258 197.39690399 C75.33503072 198.07977567 70.73856388 198.76768813 66.14379883 199.46777344 C61.61031025 200.15840256 57.07502357 200.83585987 52.53825188 201.50457001 C50.84151221 201.7568125 49.14541215 202.01340618 47.45007515 202.27490997 C38.71835538 203.61845119 30.14160626 204.5948399 21.29663086 204.63183594 C20.55718766 204.63610722 19.81774446 204.64037849 19.0558939 204.64477921 C13.00853032 204.57677524 8.3259291 203.40012757 3.125 200.375 C2.45339844 199.99730469 1.78179687 199.61960937 1.08984375 199.23046875 C-5.67621704 195.04436385 -11.69951146 189.70707755 -17.8359375 184.66796875 C-22.82439341 180.5812812 -27.93954194 176.6738343 -33.06591797 172.76171875 C-36.66213858 170.0051016 -40.23639089 167.2201248 -43.8125 164.4375 C-44.5844873 163.83687744 -45.35647461 163.23625488 -46.15185547 162.61743164 C-50.7355117 159.0483339 -55.30950185 155.46728223 -59.875 151.875 C-60.99477913 150.99607778 -62.11457105 150.11717185 -63.234375 149.23828125 C-65.18141665 147.70947285 -67.12503299 146.17665759 -69.06445312 144.63818359 C-71.41394356 142.77447151 -73.7692012 140.91822874 -76.125 139.0625 C-76.84558594 138.48757813 -77.56617188 137.91265625 -78.30859375 137.3203125 C-86.69565234 130.73593681 -95.85631154 125.74393108 -105.3125 120.875 C-106.29476562 120.36582031 -107.27703125 119.85664063 -108.2890625 119.33203125 C-110.39235651 118.24211854 -112.49637978 117.15361217 -114.60107422 116.06640625 C-119.05634483 113.76468255 -123.50767454 111.45538565 -127.95922852 109.14648438 C-130.24725999 107.95986752 -132.53551082 106.77367352 -134.82397461 105.58789062 C-142.9381237 101.38308109 -151.04680589 97.16795188 -159.14111328 92.92504883 C-163.80039082 90.48588499 -168.46835791 88.06690921 -173.15997314 85.69039917 C-175.59773688 84.45478859 -178.03193755 83.21223889 -180.46606445 81.96948242 C-182.19202478 81.09197556 -183.92308323 80.22451855 -185.65429688 79.35742188 C-197.82799179 73.1349854 -208.31563944 65.75723901 -213.17578125 52.46875 C-215.73369898 41.15103578 -214.93982215 29.41120315 -208.875 19.375 C-202.82988857 10.35336162 -193.97638086 5.32165382 -183.53515625 2.83984375 C-171.45778128 0.72940671 -161.89190888 4.45064858 -151.53710938 10.36132812 C-146.05457982 13.30398228 -142.87682265 13.57300248 -136.875 12.375 C-120.58553071 11.06802476 -110.1631481 14.63276959 -97.55761719 24.99853516 C-94.80275372 27.25215098 -91.99152011 29.43311664 -89.1875 31.625 C-88.01670759 32.54659623 -86.84614113 33.46847955 -85.67578125 34.390625 C-81.42216676 37.73588625 -77.14870076 41.05546339 -72.875 44.375 C-66.9698894 48.96228768 -61.0780719 53.56557189 -55.203125 58.19140625 C-50.44125344 61.9375575 -45.65965416 65.65800839 -40.875 69.375 C-35.44818906 73.59134648 -30.02723885 77.81470378 -24.625 82.0625 C-24.06441895 82.50319824 -23.50383789 82.94389648 -22.92626953 83.39794922 C-20.05498712 85.65651379 -17.18653199 87.91860797 -14.3203125 90.18359375 C-6.91872173 96.02578696 0.55130792 101.75715148 8.125 107.375 C15.70801441 103.34601178 23.11060199 99.06544094 30.46069336 94.62744141 C31.16589111 94.20640137 31.87108887 93.78536133 32.59765625 93.3515625 C33.22937744 92.97080566 33.86109863 92.59004883 34.51196289 92.19775391 C36.125 91.375 36.125 91.375 38.125 91.375 C38.125 90.715 38.125 90.055 38.125 89.375 C37.17596802 89.25366699 37.17596802 89.25366699 36.20776367 89.12988281 C31.82058284 88.05558463 27.89816585 86.17432506 23.80078125 84.296875 C22.89933884 83.88842346 21.99789642 83.47997192 21.06913757 83.05914307 C19.16256934 82.19406678 17.25714173 81.32647285 15.3527832 80.45654297 C12.46747839 79.1386925 9.57883157 77.8284224 6.68945312 76.51953125 C4.83052603 75.67492612 2.9717958 74.82988754 1.11328125 73.984375 C0.26188065 73.59771667 -0.58951996 73.21105835 -1.46672058 72.81268311 C-5.74589611 70.85589982 -10.00190109 68.85558633 -14.22973633 66.79003906 C-15.01770096 66.40527405 -15.80566559 66.02050903 -16.61750793 65.62408447 C-25.01135501 60.97971641 -29.54313066 54.31141384 -32.984375 45.55078125 C-35.36196481 37.07279655 -34.90265036 27.57086703 -31.14453125 19.58984375 C-24.16381662 7.41118162 -14.20709631 0.27708876 0 0 Z " fill="#FECDBE" transform="translate(213.875,307.625)"/>
<path d="M0 0 C1.38327117 -0.00300094 2.76654151 -0.00640558 4.14981079 -0.01017761 C7.87613969 -0.01893721 11.60244555 -0.0213526 15.32878375 -0.0219934 C17.67354295 -0.02270969 20.0182965 -0.02485506 22.36305428 -0.02749062 C30.59213753 -0.03672491 38.8212047 -0.04082883 47.05029297 -0.04003906 C54.63783771 -0.03944218 62.22531047 -0.04992188 69.81283706 -0.06578273 C76.38757889 -0.07902055 82.96229771 -0.08421612 89.53705269 -0.08358365 C93.43624633 -0.08333291 97.33537621 -0.08594033 101.2345562 -0.0967617 C125.82546181 -0.16026952 150.40723973 0.3889458 174.78735352 3.95776367 C175.97538574 4.12808105 177.16341797 4.29839844 178.38745117 4.47387695 C201.36923089 7.91170613 228.44231623 12.8942169 243.78735352 32.14526367 C253.13847598 46.45820622 251.73166947 64.0194167 248.78735352 80.14526367 C244.99356571 97.04878308 237.03626917 111.14527682 225.78735352 124.14526367 C224.81862305 125.26868164 224.81862305 125.26868164 223.83032227 126.41479492 C195.27029943 156.96593046 145.24022306 170.75927702 104.73364258 172.37426758 C97.38007009 172.61592901 90.02592557 172.75929269 82.66870117 172.81835938 C63.27160945 172.86420379 63.27160945 172.86420379 44.78735352 178.14526367 C45.20887695 179.3750293 45.63040039 180.60479492 46.06469727 181.87182617 C46.6183243 183.50455676 47.17169627 185.13737386 47.72485352 186.77026367 C48.00264648 187.57850586 48.28043945 188.38674805 48.56665039 189.21948242 C48.96787109 190.40864258 48.96787109 190.40864258 49.37719727 191.62182617 C49.62332764 192.34450684 49.86945801 193.0671875 50.12304688 193.81176758 C55.60085963 213.05356631 53.31308849 241.21659898 43.78735352 259.14526367 C40.11238069 261.59524556 37.05614106 261.95959061 32.78735352 261.14526367 C30.22485352 259.14526367 30.22485352 259.14526367 28.78735352 256.14526367 C28.78735352 249.50662013 31.06744083 243.08759934 32.84985352 236.73120117 C36.82729291 221.51749551 36.48797393 203.87533395 30.78735352 189.14526367 C30.12735352 188.15526367 29.46735352 187.16526367 28.78735352 186.14526367 C20.15919968 193.32894332 12.02393269 200.8134798 4.16235352 208.83276367 C-16.40249784 229.64277519 -39.17833295 242.15021001 -69.02514648 242.45776367 C-87.0853127 242.35763683 -103.64318657 238.67601644 -117.03295898 225.63745117 C-134.8601965 205.25433731 -135.34604788 173.23154961 -135.41577148 147.66870117 C-135.41859886 146.95412373 -135.42142624 146.23954628 -135.42433929 145.50331497 C-135.43919818 141.7207123 -135.44851105 137.93814645 -135.45288086 134.15551758 C-135.45726029 131.07596963 -135.47114987 127.99670267 -135.49389648 124.91723633 C-135.78764705 84.29973785 -135.78764705 84.29973785 -129.46264648 66.77026367 C-129.21023193 66.04258789 -128.95781738 65.31491211 -128.69775391 64.56518555 C-122.48747007 47.3284794 -122.48747007 47.3284794 -116.21264648 43.14526367 C-112.77514648 42.70776367 -112.77514648 42.70776367 -109.21264648 43.14526367 C-106.71264648 45.20776367 -106.71264648 45.20776367 -105.21264648 48.14526367 C-105.54058743 53.4952023 -107.08511463 57.35422228 -109.52514648 62.08276367 C-113.33770324 69.85005682 -115.69309661 77.61923912 -117.21264648 86.14526367 C-117.38997314 87.09844482 -117.5672998 88.05162598 -117.75 89.03369141 C-119.83252039 102.01723753 -119.56453925 115.09342723 -119.52514648 128.20776367 C-119.52332367 129.45349152 -119.52150085 130.69921936 -119.5196228 131.98269653 C-121.1172397 176.84521285 -121.1172397 176.84521285 -103.28686523 216.16088867 C-93.77244174 224.44035043 -81.63779737 225.86174029 -69.46264648 225.70776367 C-68.24198486 225.69825684 -67.02132324 225.68875 -65.76367188 225.67895508 C-47.31913841 225.25645865 -32.30068687 219.0964937 -18.21264648 207.14526367 C-17.49206055 206.53553711 -16.77147461 205.92581055 -16.02905273 205.29760742 C-11.17131628 201.04606405 -6.62781848 196.55887393 -2.10839844 191.953125 C16.94986017 172.57459494 37.75226965 157.57737122 65.84985352 156.89526367 C66.54401367 156.89397461 67.23817383 156.89268555 67.95336914 156.89135742 C71.80373946 156.75240769 73.60313545 156.29405519 76.63110352 153.84838867 C93.11658348 133.18180872 93.04201799 100.93989912 93.16235352 75.89526367 C93.17039001 74.9568161 93.17842651 74.01836853 93.18670654 73.05148315 C93.30196053 55.28005526 93.3309866 32.76719891 81.78735352 18.14526367 C79.24908537 15.60699553 77.63811493 15.90154079 74.17608643 15.87420654 C72.99970612 15.88027924 72.99970612 15.88027924 71.79956055 15.88647461 C70.97308014 15.88296997 70.14659973 15.87946533 69.29507446 15.87585449 C66.54502086 15.86701126 63.79522256 15.872905 61.04516602 15.87963867 C59.12295482 15.87829046 57.20074396 15.87634863 55.27853394 15.87384033 C51.23147362 15.87088371 47.18450128 15.87519546 43.13745117 15.88452148 C38.00745474 15.89577897 32.87767077 15.88944847 27.74768257 15.87737656 C23.76478559 15.87005388 19.78193658 15.87249518 15.79903793 15.87763214 C13.9120468 15.87894735 12.02505101 15.87739754 10.13806534 15.87267303 C-2.76853089 15.8475042 -15.39504928 16.64525707 -28.21264648 18.14526367 C-29.31463379 18.26597229 -30.41662109 18.38668091 -31.55200195 18.51104736 C-49.04450855 20.43073827 -65.4073454 24.66891028 -81.04858398 32.82495117 C-84.43475288 34.23794511 -86.58521958 34.56991308 -90.21264648 34.14526367 C-93.15014648 32.08276367 -93.15014648 32.08276367 -95.21264648 29.14526367 C-95.33764648 25.58276367 -95.33764648 25.58276367 -94.21264648 22.14526367 C-72.2447906 1.50513534 -28.10359178 -0.010051 0 0 Z " fill="#010000" transform="translate(197.212646484375,-0.145263671875)"/>
<path d="M0 0 C0.68835938 -0.03738281 1.37671875 -0.07476562 2.0859375 -0.11328125 C16.03670452 -0.34073941 30.78655546 9.20011992 43.1875 14.875 C63.50950164 26.44207218 63.50950164 26.44207218 85.125 28.375 C88.40412128 26.82831207 91.62620091 25.21211804 94.83886719 23.53369141 C116.82751566 12.13160364 143.38784004 8.26511384 167.25439453 15.73339844 C180.78931683 20.3757602 191.28942329 29.29890895 200.125 40.375 C200.6776075 41.66814369 200.6776075 41.66814369 201.24137878 42.9874115 C202.99713126 45.75981052 202.99713126 45.75981052 206.6723175 45.98731995 C208.17245261 46.00738807 209.67310423 45.9998197 211.1730957 45.97094727 C211.99294952 45.9750058 212.81280334 45.97906433 213.65750122 45.98324585 C215.43848492 45.98876817 217.21953305 45.98274019 219.00045204 45.96658516 C221.82141995 45.94122068 224.64092247 45.94594501 227.46195984 45.95848083 C233.45396652 45.97926128 239.44552296 45.95953813 245.4375 45.9375 C252.37085414 45.9163939 259.30373728 45.91185561 266.23708153 45.93800163 C269.01258213 45.94136003 271.78718231 45.92014461 274.56257629 45.89759827 C276.27129308 45.90011043 277.98000875 45.90367136 279.6887207 45.90844727 C280.45724869 45.89556168 281.22577667 45.88267609 282.01759338 45.86940002 C287.23189846 45.91788753 290.18134918 46.97724591 294.125 50.375 C298.92982655 55.6359984 298.6959723 60.57055667 298.64257812 67.33398438 C298.65309204 68.97407219 298.65309204 68.97407219 298.66381836 70.64729309 C298.68139614 74.25470518 298.66977558 77.86133019 298.65625 81.46875 C298.65894496 83.97929027 298.6628274 86.48982952 298.66784668 89.00036621 C298.67374145 94.25927737 298.66556177 99.51798457 298.64648438 104.77685547 C298.62471719 110.84709064 298.63176929 116.91678833 298.65379 122.98701048 C298.67416509 128.83900286 298.67196289 134.6907918 298.66026306 140.5428009 C298.65759585 143.02749202 298.66086529 145.51219686 298.67018127 147.99687195 C298.68034657 151.47028878 298.66484425 154.94267546 298.64257812 158.41601562 C298.65472351 159.95446892 298.65472351 159.95446892 298.66711426 161.52400208 C298.59661827 167.46388726 298.0474141 170.83185103 294.125 175.375 C289.33559719 179.58386914 284.79716482 179.52489595 278.67236328 179.53271484 C277.37631165 179.54033592 277.37631165 179.54033592 276.05407715 179.54811096 C274.17328025 179.55882156 272.29247056 179.56743903 270.41165543 179.57423019 C267.41474143 179.58605816 264.41796904 179.60553028 261.42111206 179.62734985 C252.89781581 179.68876859 244.37452824 179.74259575 235.85107422 179.77636719 C230.63436854 179.79758957 225.41791215 179.83312377 220.20135117 179.87712479 C218.23148458 179.89109107 216.26157378 179.8999623 214.29166031 179.90317917 C203.07938673 179.92339271 192.24704916 180.49366111 181.17122078 182.33209801 C168.66983632 184.39293453 168.66983632 184.39293453 163.625 182.375 C161.66801504 179.76568672 161.5574835 177.51974983 161.7578125 174.30859375 C162.125 172.375 162.125 172.375 163.5 170 C182.37743167 158.31397087 226.54081954 164.375 241.125 164.375 C241.125 130.385 241.125 96.395 241.125 61.375 C225.945 61.375 210.765 61.375 195.125 61.375 C188.49544968 53.64052463 188.49544968 53.64052463 186.0625 50.25 C177.58893152 38.86432658 165.76382777 31.26492673 151.703125 28.66015625 C129.85399885 26.24351048 110.17282489 33.23793253 91.10546875 43.4296875 C84.52161752 46.57227526 76.0592475 46.77303926 69.09576416 44.80004883 C63.88646664 42.93113406 58.92230985 40.51599559 53.9375 38.125 C52.36265678 37.39371095 50.78654691 36.66514392 49.20922852 35.93920898 C46.03325147 34.47433284 42.86352604 32.99711164 39.69824219 31.50927734 C33.03118814 28.38439213 26.29700886 25.41333165 19.5625 22.4375 C18.44012939 21.93637695 17.31775879 21.43525391 16.16137695 20.91894531 C14.62549927 20.23396973 14.62549927 20.23396973 13.05859375 19.53515625 C12.17228271 19.13949463 11.28597168 18.74383301 10.37280273 18.33618164 C4.45946997 15.8075848 -0.50568006 15.61199866 -6.5625 17.5625 C-12.16805535 20.62969066 -15.63638902 24.36609684 -17.875 30.375 C-18.62045814 36.87113522 -17.47724614 41.8787145 -13.875 47.375 C-6.69841087 53.87942553 3.35488139 57.26337779 12.125 61.0625 C13.73153071 61.76359178 15.33781119 62.46525722 16.94384766 63.16748047 C19.36280387 64.22509442 21.78200551 65.28208534 24.20278931 66.33551025 C29.10968342 68.47491533 33.982801 70.6752039 38.8359375 72.93359375 C40.54330078 73.71827026 40.54330078 73.71827026 42.28515625 74.51879883 C44.37531805 75.48181611 46.45911813 76.45880594 48.53515625 77.4519043 C53.63075727 79.86148956 53.63075727 79.86148956 59.11328125 79.9453125 C60.10714844 79.42710937 61.10101563 78.90890625 62.125 78.375 C63.7949758 77.64368744 65.46858414 76.92064748 67.14453125 76.203125 C69.07568876 75.34412743 71.00667 74.48473348 72.9375 73.625 C105.95142133 59.12536083 142.75717981 48.76657803 177.98828125 62.140625 C193.62001046 68.52279129 212.13961619 80.2079545 219.125 96.375 C219.18510258 100.10135998 218.85338636 102.12055683 217 105.3125 C213.89081435 107.07437187 211.61655423 106.85659369 208.125 106.375 C204.88088613 103.84300868 202.67127651 100.78373647 200.25 97.5 C189.43756693 82.94690195 173.68739666 75.80212985 156.03149414 72.76538086 C125.21484743 68.62629492 95.39642745 80.1067657 68.125 93.375 C67.30483398 93.76800293 66.48466797 94.16100586 65.63964844 94.56591797 C51.58397576 101.31623232 37.6898859 108.59027321 24.73046875 117.29296875 C24.02696289 117.75832031 23.32345703 118.22367187 22.59863281 118.703125 C21.29359291 119.57440344 20.00104008 120.46486468 18.72558594 121.37890625 C14.45910036 124.22478001 10.77842126 125.16232325 5.63500977 124.91577148 C0.99194639 123.9154422 -2.10552483 121.1160697 -5.625 118.0625 C-6.40230469 117.423125 -7.17960938 116.78375 -7.98046875 116.125 C-9.55634852 114.82858659 -11.12485767 113.52315726 -12.68554688 112.20849609 C-15.69264494 109.69028618 -18.77822427 107.28122929 -21.875 104.875 C-23.00043793 103.99014005 -24.12542934 103.1047119 -25.25 102.21875 C-29.44612119 98.92179764 -33.66079638 95.6487857 -37.875 92.375 C-43.78007595 87.78766751 -49.67192783 83.18442832 -55.546875 78.55859375 C-60.30874656 74.8124425 -65.09034584 71.09199161 -69.875 67.375 C-75.30181168 63.15865294 -80.72268106 58.93519514 -86.125 54.6875 C-86.68485596 54.24752686 -87.24471191 53.80755371 -87.8215332 53.35424805 C-90.70688468 51.08524215 -93.58797575 48.81100289 -96.46484375 46.53125 C-101.89176055 42.23579692 -107.33695321 37.9641616 -112.875 33.8125 C-113.7 33.19246094 -114.525 32.57242188 -115.375 31.93359375 C-121.17687807 28.31648539 -127.17977946 27.38833592 -133.875 28.375 C-140.98876339 31.06069538 -145.04131804 34.96959064 -148.625 41.625 C-150.69325828 47.82977484 -150.76634325 52.97725505 -148.375 59.125 C-144.059656 67.02011801 -135.91459903 72.07091607 -128.875 77.375 C-127.72496366 78.26094927 -126.57640464 79.14882124 -125.4296875 80.0390625 C-123.31524354 81.67816635 -121.19413933 83.30787409 -119.06640625 84.9296875 C-115.7486898 87.46358707 -112.46608534 90.04076919 -109.1875 92.625 C-103.76633229 96.8961767 -98.32550885 101.1413329 -92.875 105.375 C-84.62812847 111.78228502 -76.41181845 118.22744683 -68.20703125 124.68847656 C-61.11364574 130.27307086 -54.00407006 135.83600685 -46.875 141.375 C-38.62822189 147.78240616 -30.41181931 154.22744615 -22.20703125 160.68847656 C-19.36192933 162.92841403 -16.51484558 165.16573402 -13.6640625 167.3984375 C-10.85637101 169.59857282 -8.06342594 171.81652934 -5.2734375 174.0390625 C-3.68244081 175.29706365 -2.09129658 176.55487822 -0.5 177.8125 C0.23702148 178.40393799 0.97404297 178.99537598 1.73339844 179.60473633 C12.01800761 187.69858922 18.7833127 189.25134776 31.74609375 187.7890625 C33.68578797 187.53270372 35.62460464 187.26962022 37.5625 187 C38.52220703 186.87367188 39.48191406 186.74734375 40.47070312 186.6171875 C45.21473069 185.97826123 49.92381249 185.24892022 54.62890625 184.3671875 C61.22520801 183.13638037 67.86181982 182.33714493 74.51953125 181.51953125 C79.25022531 180.92419357 83.93817581 180.25482496 88.625 179.375 C95.22220868 178.13655183 101.85959904 177.33741766 108.51953125 176.51953125 C114.27180208 175.79563249 119.95490653 174.90711981 125.64697266 173.80249023 C131.2550722 172.835024 135.38145119 172.16519062 140.1875 175.5 C142.46904561 178.88551929 142.8902998 180.37843438 142.125 184.375 C140.46334662 186.82851016 138.98656857 188.12009169 136.12106323 188.96789551 C133.40980664 189.47993628 130.69994697 189.86991312 127.96484375 190.234375 C126.34665993 190.47121002 126.34665993 190.47121002 124.69578552 190.71282959 C122.23092446 191.07341957 119.76508893 191.42738613 117.29852295 191.77612305 C112.75390994 192.42218622 108.21712052 193.11685023 103.68017578 193.81445312 C95.76727686 195.0293317 87.85121018 196.22117998 79.93239784 197.39688873 C75.33504348 198.0797826 70.73856957 198.76768727 66.14379883 199.46777344 C61.61031025 200.15840256 57.07502357 200.83585987 52.53825188 201.50457001 C50.84151221 201.7568125 49.14541215 202.01340618 47.45007515 202.27490997 C38.71835538 203.61845119 30.14160626 204.5948399 21.29663086 204.63183594 C20.55718766 204.63610722 19.81774446 204.64037849 19.0558939 204.64477921 C13.00853032 204.57677524 8.3259291 203.40012757 3.125 200.375 C2.45339844 199.99730469 1.78179687 199.61960937 1.08984375 199.23046875 C-5.67621704 195.04436385 -11.69951146 189.70707755 -17.8359375 184.66796875 C-22.82439341 180.5812812 -27.93954194 176.6738343 -33.06591797 172.76171875 C-36.66213858 170.0051016 -40.23639089 167.2201248 -43.8125 164.4375 C-44.5844873 163.83687744 -45.35647461 163.23625488 -46.15185547 162.61743164 C-50.7355117 159.0483339 -55.30950185 155.46728223 -59.875 151.875 C-60.99477913 150.99607778 -62.11457105 150.11717185 -63.234375 149.23828125 C-65.18141665 147.70947285 -67.12503299 146.17665759 -69.06445312 144.63818359 C-71.41394356 142.77447151 -73.7692012 140.91822874 -76.125 139.0625 C-76.84558594 138.48757813 -77.56617188 137.91265625 -78.30859375 137.3203125 C-86.69565234 130.73593681 -95.85631154 125.74393108 -105.3125 120.875 C-106.29476562 120.36582031 -107.27703125 119.85664063 -108.2890625 119.33203125 C-110.39235651 118.24211854 -112.49637978 117.15361217 -114.60107422 116.06640625 C-119.05634483 113.76468255 -123.50767454 111.45538565 -127.95922852 109.14648438 C-130.24725999 107.95986752 -132.53551082 106.77367352 -134.82397461 105.58789062 C-142.9381237 101.38308109 -151.04680589 97.16795188 -159.14111328 92.92504883 C-163.80039082 90.48588499 -168.46835791 88.06690921 -173.15997314 85.69039917 C-175.59773688 84.45478859 -178.03193755 83.21223889 -180.46606445 81.96948242 C-182.19202478 81.09197556 -183.92308323 80.22451855 -185.65429688 79.35742188 C-197.82799179 73.1349854 -208.31563944 65.75723901 -213.17578125 52.46875 C-215.73369898 41.15103578 -214.93982215 29.41120315 -208.875 19.375 C-202.82988857 10.35336162 -193.97638086 5.32165382 -183.53515625 2.83984375 C-171.45778128 0.72940671 -161.89190888 4.45064858 -151.53710938 10.36132812 C-146.05457982 13.30398228 -142.87682265 13.57300248 -136.875 12.375 C-120.58553071 11.06802476 -110.1631481 14.63276959 -97.55761719 24.99853516 C-94.80275372 27.25215098 -91.99152011 29.43311664 -89.1875 31.625 C-88.01670759 32.54659623 -86.84614113 33.46847955 -85.67578125 34.390625 C-81.42216676 37.73588625 -77.14870076 41.05546339 -72.875 44.375 C-66.9698894 48.96228768 -61.0780719 53.56557189 -55.203125 58.19140625 C-50.44125344 61.9375575 -45.65965416 65.65800839 -40.875 69.375 C-35.44818906 73.59134648 -30.02723885 77.81470378 -24.625 82.0625 C-24.06441895 82.50319824 -23.50383789 82.94389648 -22.92626953 83.39794922 C-20.05498712 85.65651379 -17.18653199 87.91860797 -14.3203125 90.18359375 C-6.91872173 96.02578696 0.55130792 101.75715148 8.125 107.375 C15.70801441 103.34601178 23.11060199 99.06544094 30.46069336 94.62744141 C31.16589111 94.20640137 31.87108887 93.78536133 32.59765625 93.3515625 C33.22937744 92.97080566 33.86109863 92.59004883 34.51196289 92.19775391 C36.125 91.375 36.125 91.375 38.125 91.375 C38.125 90.715 38.125 90.055 38.125 89.375 C37.17596802 89.25366699 37.17596802 89.25366699 36.20776367 89.12988281 C31.82058284 88.05558463 27.89816585 86.17432506 23.80078125 84.296875 C22.89933884 83.88842346 21.99789642 83.47997192 21.06913757 83.05914307 C19.16256934 82.19406678 17.25714173 81.32647285 15.3527832 80.45654297 C12.46747839 79.1386925 9.57883157 77.8284224 6.68945312 76.51953125 C4.83052603 75.67492612 2.9717958 74.82988754 1.11328125 73.984375 C0.26188065 73.59771667 -0.58951996 73.21105835 -1.46672058 72.81268311 C-5.74589611 70.85589982 -10.00190109 68.85558633 -14.22973633 66.79003906 C-15.01770096 66.40527405 -15.80566559 66.02050903 -16.61750793 65.62408447 C-25.01135501 60.97971641 -29.54313066 54.31141384 -32.984375 45.55078125 C-35.36196481 37.07279655 -34.90265036 27.57086703 -31.14453125 19.58984375 C-24.16381662 7.41118162 -14.20709631 0.27708876 0 0 Z " fill="#010101" transform="translate(213.875,307.625)"/>
<path d="M0 0 C24.17667487 -0.26215672 48.01288847 0.88934614 72 4 C72.88800293 4.11069824 73.77600586 4.22139648 74.69091797 4.33544922 C94.3868435 6.83939744 119.21158008 10.72872905 132.546875 26.7890625 C135.82419659 31.77552491 136.32586896 36.11982583 136.25 42 C136.24395752 42.74967041 136.23791504 43.49934082 136.23168945 44.27172852 C136.11411609 50.9691351 135.386119 57.44021393 134 64 C133.74283203 65.23556641 133.74283203 65.23556641 133.48046875 66.49609375 C127.75349947 88.99754081 110.41767467 106.10495844 91.0625 117.625 C68.64838925 130.52934022 43.333748 136.40382159 18 140.25 C16.86699463 140.42523193 15.73398926 140.60046387 14.56665039 140.78100586 C7.992459 141.74160725 1.6430281 142.23617989 -5 142 C-3.60605682 137.74072918 -2.19403848 133.5120007 -0.60546875 129.3203125 C5.93104548 111.96235239 9.11476004 94.20751151 9.203125 75.6640625 C9.20882507 74.70462738 9.21452515 73.74519226 9.22039795 72.75668335 C9.22978493 70.73477253 9.23635661 68.71284686 9.24023438 66.69091797 C9.24986509 63.66735519 9.28091885 60.64449553 9.3125 57.62109375 C9.40815365 40.19716769 7.7492685 23.72474384 2.0859375 7.1875 C1.26956605 4.79124424 0.55467138 2.46520613 0 0 Z " fill="#F69494" transform="translate(296,15)"/>
<path d="M0 0 C0.90765106 0.40347656 1.81530212 0.80695313 2.75045776 1.22265625 C5.63459402 2.50909884 8.50879671 3.81612637 11.3828125 5.125 C13.24593761 5.96201047 15.10953947 6.7979606 16.97363281 7.6328125 C22.49368013 10.11129518 28.00166071 12.61583056 33.5078125 15.125 C36.33121867 16.41055911 39.15492676 17.69543827 41.97946167 18.97851562 C43.71299589 19.76607186 45.44587925 20.5550628 47.17800903 21.34570312 C48.33730423 21.87260742 48.33730423 21.87260742 49.52001953 22.41015625 C50.53420456 22.87240601 50.53420456 22.87240601 51.56887817 23.34399414 C58.68432892 26.40761593 67.91513521 26.48435907 75.1328125 23.625 C76.89438217 22.81641064 78.642571 21.97852444 80.3828125 21.125 C83.24709571 19.76785107 86.12359762 18.43922987 89.0078125 17.125 C89.77593262 16.77493896 90.54405273 16.42487793 91.33544922 16.06420898 C98.83606524 12.74665887 106.37226399 10.82508044 114.3828125 9.125 C115.03507813 8.93292969 115.68734375 8.74085938 116.359375 8.54296875 C132.68746457 5.17017805 148.88052709 10.72463255 162.5078125 19.4921875 C167.30728519 23.24733048 170.72242918 28.32727737 174.26953125 33.22265625 C176.2298387 35.91490844 178.30237848 38.52445747 180.3828125 41.125 C195.5628125 41.455 210.7428125 41.785 226.3828125 42.125 C226.3828125 76.115 226.3828125 110.105 226.3828125 145.125 C210.2128125 145.455 194.0428125 145.785 177.3828125 146.125 C162.91895254 147.09297463 162.91895254 147.09297463 149.3828125 151.125 C148.7228125 153.435 148.0628125 155.745 147.3828125 158.125 C140.7828125 159.115 134.1828125 160.105 127.3828125 161.125 C126.3928125 159.475 125.4028125 157.825 124.3828125 156.125 C117.70437314 152.78578032 107.27559974 155.88684389 100.2578125 157 C97.85039567 157.37067117 95.44284429 157.74046955 93.03515625 158.109375 C91.31208252 158.37524414 91.31208252 158.37524414 89.55419922 158.64648438 C84.60988469 159.39250874 79.65465338 160.02557378 74.69140625 160.6328125 C72.00204666 161.03288252 69.3888983 161.5283286 66.73046875 162.0859375 C59.97358549 163.46665601 53.15061413 164.18988585 46.3046875 164.98046875 C40.70034972 165.64867825 35.21110152 166.50302946 29.6875 167.66113281 C4.52228072 172.72616635 4.52228072 172.72616635 -6.6171875 166.125 C-6.6171875 165.795 -6.6171875 165.465 -6.6171875 165.125 C2.77854788 163.62100639 12.19106635 162.36348496 21.6328125 161.1875 C31.34167576 159.96572921 40.98013727 158.58735495 50.59765625 156.77734375 C55.5478688 155.92421114 60.51173321 155.36967855 65.50341797 154.82373047 C69.17651396 154.41351527 72.7719816 153.91315091 76.3828125 153.125 C80.7076433 152.1810014 85.04963036 151.66803156 89.4453125 151.1875 C95.30726711 150.54424126 101.08522676 149.70340198 106.8828125 148.625 C113.39669828 147.41335991 119.89719914 146.54546642 126.48242188 145.82641602 C131.12354395 145.30825888 135.63649746 144.56421503 140.19140625 143.546875 C142.45605586 143.11089967 144.64521564 142.95453 146.9453125 142.8125 C151.4300605 142.39031236 154.64041537 140.62210504 158.4375 138.28125 C160.3828125 137.125 160.3828125 137.125 163.3828125 136.125 C164.48384676 134.33629243 164.48384676 134.33629243 165.3828125 132.125 C166.00349609 130.90103516 166.00349609 130.90103516 166.63671875 129.65234375 C167.06855469 128.79769531 167.50039063 127.94304687 167.9453125 127.0625 C168.37972656 126.20527344 168.81414062 125.34804688 169.26171875 124.46484375 C174.40038392 113.73989449 172.89022722 96.36336037 169.2578125 85.25 C165.24488692 73.97422413 159.20375858 65.11039805 151.3828125 56.125 C152.0428125 55.795 152.7028125 55.465 153.3828125 55.125 C168.50653884 60.16624211 182.5499364 69.39464318 190.41015625 83.59375 C191.31221149 85.30436769 191.31221149 85.30436769 193.3828125 86.125 C196.84081609 86.54173207 196.84081609 86.54173207 200.3828125 86.125 C202.71610293 84.09277931 203.29474567 82.8617845 203.66015625 79.8046875 C202.73663712 70.88167167 191.88140142 61.66493184 185.3828125 56.125 C162.47447278 39.58500182 135.07812762 34.87473812 107.4453125 39.1875 C89.10140922 42.50614977 71.86886501 49.25753391 54.84765625 56.671875 C53.87812012 57.09275391 52.90858398 57.51363281 51.90966797 57.94726562 C49.20617245 59.14175347 49.20617245 59.14175347 46.19921875 61.140625 C39.76286162 63.39022555 31.3103899 57.885422 25.38671875 55.17578125 C24.55430161 54.79947067 23.72188446 54.4231601 22.86424255 54.03544617 C20.22269622 52.84027834 17.58392948 51.63911914 14.9453125 50.4375 C12.34879929 49.25987302 9.75171842 48.08350863 7.15438843 46.90768433 C5.43729447 46.12945064 3.72100154 45.3494471 2.00552368 44.56765747 C-2.21374571 42.64792995 -6.44226873 40.75970298 -10.70361328 38.93505859 C-11.51596939 38.58428757 -12.3283255 38.23351654 -13.16529846 37.87211609 C-14.6852076 37.21793237 -16.20853817 36.57161225 -17.73594666 35.93513489 C-23.76355349 33.33010153 -29.29788594 30.11071775 -31.9921875 23.8125 C-34.31801621 17.90997673 -34.65273457 12.96532726 -32.1171875 7 C-29.43581644 2.14480311 -25.07364077 -1.57111472 -19.8671875 -3.53515625 C-12.10615446 -4.70739562 -7.00243158 -3.22180801 0 0 Z " fill="#FCAE9C" transform="translate(228.6171875,326.875)"/>
<path d="M0 0 C0.90765106 0.40347656 1.81530212 0.80695313 2.75045776 1.22265625 C5.63459402 2.50909884 8.50879671 3.81612637 11.3828125 5.125 C13.24593761 5.96201047 15.10953947 6.7979606 16.97363281 7.6328125 C22.49368013 10.11129518 28.00166071 12.61583056 33.5078125 15.125 C36.33121867 16.41055911 39.15492676 17.69543827 41.97946167 18.97851562 C43.71299589 19.76607186 45.44587925 20.5550628 47.17800903 21.34570312 C48.33730423 21.87260742 48.33730423 21.87260742 49.52001953 22.41015625 C50.53420456 22.87240601 50.53420456 22.87240601 51.56887817 23.34399414 C61.14786496 27.46831369 71.26837964 25.08778664 80.9453125 22.625 C100.39718991 17.78010235 118.19299202 18.84459103 136.08984375 28.140625 C140.7278386 30.93552581 144.59829669 34.27040057 148.3828125 38.125 C144.61186462 39.38198263 142.32355763 38.70074559 138.3828125 38.125 C108.35678613 36.39453784 82.14814992 44.77993625 54.84765625 56.671875 C53.87812012 57.09275391 52.90858398 57.51363281 51.90966797 57.94726562 C49.20617245 59.14175347 49.20617245 59.14175347 46.19921875 61.140625 C39.76286162 63.39022555 31.3103899 57.885422 25.38671875 55.17578125 C24.55430161 54.79947067 23.72188446 54.4231601 22.86424255 54.03544617 C20.22269622 52.84027834 17.58392948 51.63911914 14.9453125 50.4375 C12.34879929 49.25987302 9.75171842 48.08350863 7.15438843 46.90768433 C5.43729447 46.12945064 3.72100154 45.3494471 2.00552368 44.56765747 C-2.21374571 42.64792995 -6.44226873 40.75970298 -10.70361328 38.93505859 C-11.51596939 38.58428757 -12.3283255 38.23351654 -13.16529846 37.87211609 C-14.6852076 37.21793237 -16.20853817 36.57161225 -17.73594666 35.93513489 C-23.76355349 33.33010153 -29.29788594 30.11071775 -31.9921875 23.8125 C-34.31801621 17.90997673 -34.65273457 12.96532726 -32.1171875 7 C-29.43581644 2.14480311 -25.07364077 -1.57111472 -19.8671875 -3.53515625 C-12.10615446 -4.70739562 -7.00243158 -3.22180801 0 0 Z " fill="#FDCCBD" transform="translate(228.6171875,326.875)"/>
<path d="M0 0 C15.91803013 -1.05119067 15.91803013 -1.05119067 20.390625 1.20703125 C22.03707549 3.05712167 22.99892442 4.73634338 24 7 C24.36738281 7.71414062 24.73476563 8.42828125 25.11328125 9.1640625 C30.61831325 21.13500482 32.13614659 35.49950253 32.203125 48.53515625 C32.21018463 49.44276703 32.21724426 50.35037781 32.22451782 51.28549194 C32.64452203 121.16956759 32.64452203 121.16956759 15.25 139.0625 C14.13625 140.0215625 14.13625 140.0215625 13 141 C12.67 141.33 12.34 141.66 12 142 C10.36350775 142.09588822 8.72630783 142.18476221 7.08789062 142.23852539 C-24.13739923 143.34484705 -45.61556027 159.29274012 -66.93115234 181.02148438 C-81.05480674 195.38181081 -96.62039977 207.34350181 -117 211 C-119.3984375 210.59375 -119.3984375 210.59375 -121 210 C-120.10539063 209.45472656 -119.21078125 208.90945312 -118.2890625 208.34765625 C-110.48362743 203.51097355 -103.67280223 198.34570408 -97 192 C-95.16981967 190.3714497 -93.33652638 188.74639044 -91.5 187.125 C-88.85563871 184.7902633 -86.9667401 182.95011015 -85 180 C-84.34 180 -83.68 180 -83 180 C-82.75507813 179.42894531 -82.51015625 178.85789063 -82.2578125 178.26953125 C-78.22929721 171.00068845 -70.2885587 165.329665 -64 160 C-63.12859375 159.23945313 -62.2571875 158.47890625 -61.359375 157.6953125 C-45.89631219 144.42353934 -28.38165348 134.08061639 -9.5625 126.25 C-2.12769907 122.91432312 0.70245932 118.18178269 3.6875 110.75 C9.30468007 94.96068294 11.34973981 79.73780756 11.26074219 63.06958008 C11.25005827 60.70042053 11.26068571 58.33202684 11.2734375 55.96289062 C11.28703827 42.67580343 10.82618269 29.08558456 6.625 16.375 C6.02558594 14.49941406 6.02558594 14.49941406 5.4140625 12.5859375 C4.34780898 9.88201283 3.28817722 7.64246632 1.8359375 5.1640625 C0 2 0 2 0 0 Z " fill="#EC6060" transform="translate(259,15)"/>
<path d="M0 0 C8.91 0 17.82 0 27 0 C27 33.99 27 67.98 27 103 C18.09 103 9.18 103 0 103 C0 69.01 0 35.02 0 0 Z " fill="#69D6E4" transform="translate(470,369)"/>
<path d="M0 0 C35.5241559 7.61535797 35.5241559 7.61535797 45 22 C47.20345821 26.26403006 47.31070635 30.29499419 47.25 35 C47.24395752 35.74967041 47.23791504 36.49934082 47.23168945 37.27172852 C47.11411609 43.9691351 46.386119 50.44021393 45 57 C44.82855469 57.82371094 44.65710938 58.64742187 44.48046875 59.49609375 C38.75349947 81.99754081 21.41767467 99.10495844 2.0625 110.625 C-13.3805924 119.51595805 -30.59817367 125.35122996 -48 129 C-46.29346953 125.58693907 -42.26476501 124.85116727 -38.875 123.4375 C-25.69942201 117.74005908 -14.25808016 111.17809513 -4 101 C-3.113125 100.154375 -2.22625 99.30875 -1.3125 98.4375 C-0.549375 97.633125 0.21375 96.82875 1 96 C1.77730469 95.21496094 1.77730469 95.21496094 2.5703125 94.4140625 C18.1788029 77.82566687 24.49296072 54.53552374 24.20703125 32.20703125 C23.62915113 23.25534102 20.46601624 16.2683143 14 10 C11.22391394 8.00323419 8.41281185 6.21913981 5.453125 4.5078125 C3.27414453 3.16850285 1.69842323 1.89091119 0 0 Z " fill="#F07A7A" transform="translate(385,22)"/>
<path d="M0 0 C0.90765106 0.40347656 1.81530212 0.80695313 2.75045776 1.22265625 C5.63459402 2.50909884 8.50879671 3.81612637 11.3828125 5.125 C13.24593761 5.96201047 15.10953947 6.7979606 16.97363281 7.6328125 C22.49368013 10.11129518 28.00166071 12.61583056 33.5078125 15.125 C36.33121867 16.41055911 39.15492676 17.69543827 41.97946167 18.97851562 C43.71299589 19.76607186 45.44587925 20.5550628 47.17800903 21.34570312 C48.33730423 21.87260742 48.33730423 21.87260742 49.52001953 22.41015625 C50.53420456 22.87240601 50.53420456 22.87240601 51.56887817 23.34399414 C55.28599584 24.94443283 58.55938934 25.38560256 62.5703125 25.6875 C63.65699219 25.77128906 64.74367188 25.85507812 65.86328125 25.94140625 C66.69472656 26.00199219 67.52617187 26.06257813 68.3828125 26.125 C64.96418236 29.85898955 60.82290844 31.63584028 56.3203125 33.8125 C55.51142578 34.22822266 54.70253906 34.64394531 53.86914062 35.07226562 C46.83362586 38.47546538 41.060532 39.49503517 33.46948242 37.27172852 C24.14097971 33.83468221 15.14267292 29.44104208 6.1328125 25.25 C-2.84853097 21.07524008 -11.84286418 16.95008096 -20.9765625 13.1171875 C-21.68524475 12.81467072 -22.393927 12.51215393 -23.12408447 12.20046997 C-26.5696403 10.77631737 -28.82743859 10.125 -32.6171875 10.125 C-30.52527546 4.02358989 -27.42482218 0.02881734 -21.6171875 -2.875 C-13.87408985 -5.81203704 -7.06751801 -3.25175418 0 0 Z " fill="#FCAE9C" transform="translate(228.6171875,326.875)"/>
<path d="M0 0 C3.18068047 1.65680094 6.23533127 3.50086925 9.25390625 5.4375 C8.76019531 6.40171875 8.26648437 7.3659375 7.7578125 8.359375 C7.11046388 9.63530852 6.46334026 10.91135621 5.81640625 12.1875 C5.49091797 12.82171875 5.16542969 13.4559375 4.83007812 14.109375 C0.27581506 23.1239988 0.1289928 31.32940384 2.87890625 41.0625 C4.80727278 46.86840929 7.51639029 51.61610441 11.25390625 56.4375 C4.990633 54.4981138 -0.60169583 51.59616844 -6.40478516 48.57983398 C-8.23686592 47.62978521 -10.07511717 46.69253682 -11.9140625 45.75585938 C-21.85249755 40.6117079 -29.0213839 36.47018488 -32.74609375 25.4375 C-34.13938917 18.0834144 -32.67154063 12.77083789 -28.53515625 6.60546875 C-21.54458142 -1.86564267 -10.12809107 -4.72379463 0 0 Z " fill="#FBAD9B" transform="translate(47.74609375,327.5625)"/>
</svg>
