<?xml version="1.0" encoding="UTF-8"?>
<svg version="1.1" xmlns="http://www.w3.org/2000/svg" width="512" height="512">
<path d="M0 0 C1.44502091 -0.00339833 1.44502091 -0.00339833 2.91923416 -0.00686532 C6.12665965 -0.01316275 9.33404242 -0.01237868 12.54147339 -0.0115509 C14.85028131 -0.01454525 17.15908874 -0.01794842 19.46789551 -0.02172852 C25.72904045 -0.03054958 31.99017171 -0.03290597 38.25132227 -0.0335443 C42.1724515 -0.03425645 46.09357729 -0.036394 50.01470566 -0.03904152 C63.01535612 -0.04781516 76.01599693 -0.05246199 89.01665021 -0.05171105 C89.71642389 -0.05167109 90.41619757 -0.05163113 91.13717651 -0.05158997 C91.83782018 -0.05154909 92.53846384 -0.0515082 93.26033913 -0.05146609 C104.5800642 -0.05106084 115.89975581 -0.06060045 127.21947123 -0.07472833 C138.88272757 -0.08916817 150.54596768 -0.0959942 162.20923316 -0.09513456 C168.74075244 -0.09488111 175.27223391 -0.09764638 181.80374527 -0.10831261 C187.96141998 -0.11809334 194.11902157 -0.11800543 200.27669907 -0.11079597 C202.51817687 -0.10976205 204.75965946 -0.11204066 207.00112915 -0.11815643 C271.80733962 -0.28330654 271.80733962 -0.28330654 293.03707886 19.13371277 C303.4584762 31.515782 304.14198603 45.6001993 303.03707886 61.13371277 C300.28827093 75.85473836 288.05924372 88.27726953 276.28707886 96.75871277 C274.551515 97.9058584 272.80027707 99.02951303 271.03707886 100.13371277 C270.02000854 100.77179871 269.00293823 101.40988464 267.95504761 102.06730652 C260.01602689 106.9574408 251.87119774 111.47628369 243.72457886 116.00871277 C228.91839081 124.25996264 214.29131396 132.50856671 201.03707886 143.13371277 C200.25904907 143.73554382 200.25904907 143.73554382 199.46530151 144.34953308 C174.61710316 163.59887246 162.12716536 192.25356676 150.43307495 220.61354065 C135.43705076 256.95990171 135.43705076 256.95990171 124.03707886 269.13371277 C122.85464942 270.42134669 121.67237243 271.7091206 120.49020386 272.99699402 C114.58533447 279.38520375 108.61745645 285.70763397 102.35739136 291.75090027 C99.30715832 294.94552304 99.89307686 298.52341118 99.89904785 302.67192078 C99.89622657 303.45878313 99.89340529 304.24564548 99.89049852 305.05635214 C99.8821285 307.70779988 99.88081219 310.359206 99.87936401 313.01066589 C99.87469737 314.90604267 99.86955406 316.80141832 99.8639679 318.6967926 C99.85267145 322.7870371 99.84424457 326.87727425 99.83784866 330.9675293 C99.82717971 337.4394147 99.80693609 343.9112476 99.784729 350.38310242 C99.72277318 368.78985683 99.66883943 387.19660884 99.63571167 405.60343933 C99.61734657 415.7629351 99.58838339 425.9223436 99.54770696 436.08177519 C99.52666202 441.45771687 99.5111833 446.83354865 99.50889969 452.20953369 C99.5067468 457.27223606 99.49081201 462.33470996 99.46450996 467.39734268 C99.45733886 469.25079716 99.45520533 471.10427938 99.45861244 472.9577446 C99.49495736 496.4982745 99.49495736 496.4982745 92.03707886 505.13371277 C83.4225855 511.77828569 76.87040343 512.78469486 66.03707886 512.13371277 C59.07547378 510.78350823 53.13147167 505.03883828 49.09957886 499.44621277 C47.37690367 495.69686089 46.91125244 492.43646144 46.89231873 488.32531738 C46.88197098 486.87723694 46.88197098 486.87723694 46.87141418 485.39990234 C46.86749413 483.82048103 46.86749413 483.82048103 46.86349487 482.20915222 C46.85680786 481.09470734 46.85012085 479.98026245 46.8432312 478.83204651 C46.82917568 476.40886848 46.81728323 473.98567718 46.8072834 471.56247902 C46.79084364 467.71387622 46.76759861 463.86536991 46.74238586 460.01681519 C46.67173317 449.07267586 46.61179399 438.12849552 46.56027222 427.18424988 C46.52866623 420.48815301 46.48690759 413.79217667 46.44007683 407.09616661 C46.42418055 404.55639291 46.4118028 402.01659443 46.40316963 399.47678566 C47.27006236 374.00172812 47.27006236 374.00172812 40.03707886 350.13371277 C39.76121948 349.43375183 39.48536011 348.73379089 39.20114136 348.01261902 C37.63246088 345.48062134 36.23524598 345.19033195 33.41207886 344.38371277 C32.59481323 344.14136902 31.77754761 343.89902527 30.93551636 343.64933777 C29.99578979 343.39410339 29.99578979 343.39410339 29.03707886 343.13371277 C18.42184881 360.2103872 20.71050085 381.33414655 20.94766235 400.61650085 C21.01871151 406.43608738 21.07369249 412.25565082 21.11001778 418.0755558 C21.12634667 420.07491192 21.1562857 422.07414261 21.1867218 424.07333374 C21.34029699 443.52249543 18.15994685 462.14183024 5.03707886 477.13371277 C-14.35638358 495.18784769 -40.19367526 496.02741868 -65.24221802 495.30851746 C-83.17557693 494.46597907 -98.94848977 487.61874354 -111.96292114 475.13371277 C-113.30034258 473.47032482 -114.63446067 471.80426607 -115.96292114 470.13371277 C-116.62292114 469.80371277 -117.28292114 469.47371277 -117.96292114 469.13371277 C-118.21815552 469.98449402 -118.47338989 470.83527527 -118.73635864 471.71183777 C-124.52724704 487.86730985 -136.18720225 502.80362312 -151.76370239 510.18840027 C-159.15411658 513.36509696 -169.05064501 513.34694607 -176.87307739 511.41496277 C-187.51955414 506.8861013 -194.06106587 498.19492366 -198.38577271 487.68400574 C-204.10483007 472.8166478 -206.63843915 456.95029552 -207.96292114 441.13371277 C-208.04576953 440.15409136 -208.12861792 439.17446995 -208.21397686 438.16516304 C-209.05735053 427.00604385 -209.12522971 415.8825916 -209.1399231 404.69572449 C-209.14620294 402.57310377 -209.15285103 400.45048412 -209.15983582 398.3278656 C-209.18070355 391.40638469 -209.19122417 384.48490399 -209.20120239 377.56340027 C-209.20525687 375.16217666 -209.20937398 372.76095316 -209.21355247 370.35972977 C-209.23256877 359.06751147 -209.24680535 347.77529954 -209.25516444 336.48306835 C-209.26491372 323.53367547 -209.29118801 310.58445457 -209.33166534 297.63512218 C-209.36202628 287.56990489 -209.37665219 277.50473634 -209.37994546 267.43947423 C-209.38227378 261.45440754 -209.39093982 255.46952525 -209.41640663 249.48450851 C-209.61184577 201.08209609 -209.61184577 201.08209609 -204.96292114 177.13371277 C-204.81099745 176.33666585 -204.65907375 175.53961893 -204.50254631 174.71841908 C-203.72555915 170.71099974 -202.8254118 166.76583244 -201.77542114 162.82121277 C-201.47845337 161.68063416 -201.1814856 160.54005554 -200.8755188 159.36491394 C-185.76499459 103.23955367 -150.73128145 56.89040794 -100.77151489 27.38493347 C-70.90382621 10.27045399 -34.52623967 -0.06047382 0 0 Z " fill="#E81D62" transform="translate(208.96292114257813,-0.1337127685546875)"/>
<path d="M0 0 C1.44502091 -0.00339833 1.44502091 -0.00339833 2.91923416 -0.00686532 C6.12665965 -0.01316275 9.33404242 -0.01237868 12.54147339 -0.0115509 C14.85028131 -0.01454525 17.15908874 -0.01794842 19.46789551 -0.02172852 C25.72904045 -0.03054958 31.99017171 -0.03290597 38.25132227 -0.0335443 C42.1724515 -0.03425645 46.09357729 -0.036394 50.01470566 -0.03904152 C63.01535612 -0.04781516 76.01599693 -0.05246199 89.01665021 -0.05171105 C89.71642389 -0.05167109 90.41619757 -0.05163113 91.13717651 -0.05158997 C91.83782018 -0.05154909 92.53846384 -0.0515082 93.26033913 -0.05146609 C104.5800642 -0.05106084 115.89975581 -0.06060045 127.21947123 -0.07472833 C138.88272757 -0.08916817 150.54596768 -0.0959942 162.20923316 -0.09513456 C168.74075244 -0.09488111 175.27223391 -0.09764638 181.80374527 -0.10831261 C187.96141998 -0.11809334 194.11902157 -0.11800543 200.27669907 -0.11079597 C202.51817687 -0.10976205 204.75965946 -0.11204066 207.00112915 -0.11815643 C271.80733962 -0.28330654 271.80733962 -0.28330654 293.03707886 19.13371277 C303.4584762 31.515782 304.14198603 45.6001993 303.03707886 61.13371277 C300.28827093 75.85473836 288.05924372 88.27726953 276.28707886 96.75871277 C274.551515 97.9058584 272.80027707 99.02951303 271.03707886 100.13371277 C270.02000854 100.77179871 269.00293823 101.40988464 267.95504761 102.06730652 C260.01602689 106.9574408 251.87119774 111.47628369 243.72457886 116.00871277 C228.91839081 124.25996264 214.29131396 132.50856671 201.03707886 143.13371277 C200.25904907 143.73554382 200.25904907 143.73554382 199.46530151 144.34953308 C174.61710316 163.59887246 162.12716536 192.25356676 150.43307495 220.61354065 C135.43705076 256.95990171 135.43705076 256.95990171 124.03707886 269.13371277 C122.85464942 270.42134669 121.67237243 271.7091206 120.49020386 272.99699402 C114.58533447 279.38520375 108.61745645 285.70763397 102.35739136 291.75090027 C99.30715832 294.94552304 99.89307686 298.52341118 99.89904785 302.67192078 C99.89622657 303.45878313 99.89340529 304.24564548 99.89049852 305.05635214 C99.8821285 307.70779988 99.88081219 310.359206 99.87936401 313.01066589 C99.87469737 314.90604267 99.86955406 316.80141832 99.8639679 318.6967926 C99.85267145 322.7870371 99.84424457 326.87727425 99.83784866 330.9675293 C99.82717971 337.4394147 99.80693609 343.9112476 99.784729 350.38310242 C99.72277318 368.78985683 99.66883943 387.19660884 99.63571167 405.60343933 C99.61734657 415.7629351 99.58838339 425.9223436 99.54770696 436.08177519 C99.52666202 441.45771687 99.5111833 446.83354865 99.50889969 452.20953369 C99.5067468 457.27223606 99.49081201 462.33470996 99.46450996 467.39734268 C99.45733886 469.25079716 99.45520533 471.10427938 99.45861244 472.9577446 C99.49495736 496.4982745 99.49495736 496.4982745 92.03707886 505.13371277 C83.4225855 511.77828569 76.87040343 512.78469486 66.03707886 512.13371277 C59.07547378 510.78350823 53.13147167 505.03883828 49.09957886 499.44621277 C47.37690367 495.69686089 46.91125244 492.43646144 46.89231873 488.32531738 C46.88197098 486.87723694 46.88197098 486.87723694 46.87141418 485.39990234 C46.86749413 483.82048103 46.86749413 483.82048103 46.86349487 482.20915222 C46.85680786 481.09470734 46.85012085 479.98026245 46.8432312 478.83204651 C46.82917568 476.40886848 46.81728323 473.98567718 46.8072834 471.56247902 C46.79084364 467.71387622 46.76759861 463.86536991 46.74238586 460.01681519 C46.67173317 449.07267586 46.61179399 438.12849552 46.56027222 427.18424988 C46.52866623 420.48815301 46.48690759 413.79217667 46.44007683 407.09616661 C46.42418055 404.55639291 46.4118028 402.01659443 46.40316963 399.47678566 C47.27006236 374.00172812 47.27006236 374.00172812 40.03707886 350.13371277 C39.76121948 349.43375183 39.48536011 348.73379089 39.20114136 348.01261902 C37.63246088 345.48062134 36.23524598 345.19033195 33.41207886 344.38371277 C32.59481323 344.14136902 31.77754761 343.89902527 30.93551636 343.64933777 C29.99578979 343.39410339 29.99578979 343.39410339 29.03707886 343.13371277 C18.42184881 360.2103872 20.71050085 381.33414655 20.94766235 400.61650085 C21.01871151 406.43608738 21.07369249 412.25565082 21.11001778 418.0755558 C21.12634667 420.07491192 21.1562857 422.07414261 21.1867218 424.07333374 C21.34029699 443.52249543 18.15994685 462.14183024 5.03707886 477.13371277 C-14.35638358 495.18784769 -40.19367526 496.02741868 -65.24221802 495.30851746 C-83.17557693 494.46597907 -98.94848977 487.61874354 -111.96292114 475.13371277 C-113.30034258 473.47032482 -114.63446067 471.80426607 -115.96292114 470.13371277 C-116.62292114 469.80371277 -117.28292114 469.47371277 -117.96292114 469.13371277 C-118.21815552 469.98449402 -118.47338989 470.83527527 -118.73635864 471.71183777 C-124.52724704 487.86730985 -136.18720225 502.80362312 -151.76370239 510.18840027 C-159.15411658 513.36509696 -169.05064501 513.34694607 -176.87307739 511.41496277 C-187.51955414 506.8861013 -194.06106587 498.19492366 -198.38577271 487.68400574 C-204.10483007 472.8166478 -206.63843915 456.95029552 -207.96292114 441.13371277 C-208.04576953 440.15409136 -208.12861792 439.17446995 -208.21397686 438.16516304 C-209.05735053 427.00604385 -209.12522971 415.8825916 -209.1399231 404.69572449 C-209.14620294 402.57310377 -209.15285103 400.45048412 -209.15983582 398.3278656 C-209.18070355 391.40638469 -209.19122417 384.48490399 -209.20120239 377.56340027 C-209.20525687 375.16217666 -209.20937398 372.76095316 -209.21355247 370.35972977 C-209.23256877 359.06751147 -209.24680535 347.77529954 -209.25516444 336.48306835 C-209.26491372 323.53367547 -209.29118801 310.58445457 -209.33166534 297.63512218 C-209.36202628 287.56990489 -209.37665219 277.50473634 -209.37994546 267.43947423 C-209.38227378 261.45440754 -209.39093982 255.46952525 -209.41640663 249.48450851 C-209.61184577 201.08209609 -209.61184577 201.08209609 -204.96292114 177.13371277 C-204.81099745 176.33666585 -204.65907375 175.53961893 -204.50254631 174.71841908 C-203.72555915 170.71099974 -202.8254118 166.76583244 -201.77542114 162.82121277 C-201.47845337 161.68063416 -201.1814856 160.54005554 -200.8755188 159.36491394 C-185.76499459 103.23955367 -150.73128145 56.89040794 -100.77151489 27.38493347 C-70.90382621 10.27045399 -34.52623967 -0.06047382 0 0 Z M-20.96292114 19.13371277 C-22.58971641 19.35333182 -24.21715169 19.56838582 -25.84573364 19.77433777 C-37.8968485 21.45476107 -49.38415349 24.41972435 -60.96292114 28.13371277 C-61.67013306 28.35897644 -62.37734497 28.58424011 -63.10598755 28.81632996 C-104.18139012 42.22420715 -137.68623876 71.71635804 -159.96292114 108.13371277 C-160.63065552 109.20879089 -161.29838989 110.28386902 -161.98635864 111.39152527 C-171.90888598 127.98136347 -179.22879484 146.55861244 -184.02542114 165.25871277 C-184.28291138 166.25717224 -184.54040161 167.25563171 -184.80569458 168.28434753 C-186.96779124 176.83887888 -188.72876005 185.39520249 -189.96292114 194.13371277 C-190.20594782 195.73480676 -190.20594782 195.73480676 -190.45388412 197.36824608 C-191.99118445 208.32046959 -192.24783968 219.06159835 -192.22171021 230.10881042 C-192.22442747 232.0624708 -192.22799249 234.01613015 -192.23233032 235.9697876 C-192.24137768 241.23310925 -192.23793965 246.49635167 -192.23157215 251.75967455 C-192.22646214 257.31228357 -192.23121829 262.8648864 -192.23434448 268.41749573 C-192.23797393 277.75292661 -192.23321637 287.08832577 -192.22366333 296.42375183 C-192.21282553 307.13669706 -192.21627438 317.84956586 -192.22731614 328.56250918 C-192.23647208 337.82437711 -192.23763289 347.08622238 -192.2324388 356.34809339 C-192.22935848 361.85076923 -192.22879786 367.35340952 -192.23551178 372.85608292 C-195.41430139 434.83217803 -195.41430139 434.83217803 -175.96292114 491.13371277 C-172.68220381 494.19571561 -170.11136988 495.38766613 -165.71292114 495.75871277 C-158.05520682 495.35973942 -152.06319376 490.59562653 -146.90042114 485.25871277 C-134.07809725 469.64670164 -127.74208083 449.63037371 -120.35159302 431.09269714 C-97.3836171 373.49326597 -97.3836171 373.49326597 -79.96292114 353.13371277 C-79.19335083 352.16433777 -78.42378052 351.19496277 -77.63088989 350.19621277 C-65.84554744 336.08193659 -47.65100744 327.23506914 -29.58865356 325.33927917 C-25.55775676 325.02370362 -21.52712511 324.9398234 -17.48587036 324.84367371 C3.09534783 324.33836371 22.23553014 321.54812448 41.30319214 313.54142761 C42.37852203 313.09068878 43.45385193 312.63994995 44.56176758 312.17555237 C45.3786203 311.8317453 46.19547302 311.48793823 47.03707886 311.13371277 C47.13015288 301.67535539 47.20103219 292.217158 47.24432755 282.75844097 C47.26511726 278.36538086 47.29327527 273.97263627 47.33883667 269.57975769 C47.38260467 265.33275099 47.4062806 261.08604595 47.41658783 256.83883095 C47.42392411 255.22625296 47.43824877 253.61368968 47.45999908 252.00124168 C47.64355932 237.81658621 45.0201354 226.5053277 36.03707886 215.13371277 C20.27191741 199.08652697 -4.16386787 193.79830304 -25.58792114 191.00871277 C-26.83315552 190.83984558 -28.07838989 190.67097839 -29.36135864 190.49699402 C-32.89311116 190.0238584 -36.42691717 189.57380837 -39.96292114 189.13371277 C-40.8009729 189.02261169 -41.63902466 188.91151062 -42.50247192 188.79704285 C-50.50401365 187.84295457 -58.54425324 188.02387606 -66.58792114 188.07121277 C-68.08401339 188.07623974 -69.58010728 188.08080052 -71.07620239 188.08488464 C-74.70514334 188.09579092 -78.33402142 188.11298895 -81.96292114 188.13371277 C-82.21251587 188.87049255 -82.4621106 189.60727234 -82.7192688 190.36637878 C-85.66760732 198.81340349 -89.12127497 204.70963683 -95.83792114 210.69621277 C-99.9815204 212.60226843 -103.47824762 212.49248665 -107.96292114 212.13371277 C-110.20120373 207.78881127 -110.36150384 204.82307827 -108.96292114 200.13371277 C-107.47073364 198.66886902 -107.47073364 198.66886902 -105.65042114 197.25871277 C-101.34838088 193.89497758 -99.31708422 190.42139717 -97.96292114 185.13371277 C-97.1785827 178.28857731 -97.27573967 172.12538267 -100.96292114 166.13371277 C-102.31453126 164.7766745 -103.69172597 163.44483512 -105.08792114 162.13371277 C-107.91182206 159.43508657 -108.92815169 158.23139836 -110.27542114 154.44621277 C-109.96292114 151.13371277 -109.96292114 151.13371277 -107.96292114 148.13371277 C-104.96292114 146.13371277 -104.96292114 146.13371277 -101.52542114 146.07121277 C-93.56781463 148.44453401 -89.82015764 153.09156114 -85.96292114 160.13371277 C-85.19464958 162.05374252 -84.46752066 163.99076694 -83.78323364 165.94230652 C-83.26527222 167.40688293 -83.26527222 167.40688293 -82.73684692 168.90104675 C-82.48145142 169.63782654 -82.22605591 170.37460632 -81.96292114 171.13371277 C-81.18618042 171.14829529 -80.4094397 171.16287781 -79.60916138 171.17790222 C-40.6553183 171.98427612 -4.08562154 175.08569971 31.79782104 191.34562683 C41.54428275 195.75048726 51.11048374 200.07083767 62.03707886 198.13371277 C71.66295291 194.29535801 76.68332005 185.45885195 80.75997925 176.42985535 C85.22200576 165.99994384 87.65092657 155.18648981 90.03707886 144.13371277 C95.9303449 117.43905056 104.30035192 88.16845572 128.11911011 72.04777527 C140.20708874 64.42123477 153.73882086 60.4367587 168.03707886 60.13371277 C168.37739136 58.43215027 168.37739136 58.43215027 168.72457886 56.69621277 C171.02081488 47.73297424 175.64990378 41.61294197 183.03707886 36.13371277 C185.78305146 34.76072647 187.99598355 35.00958643 191.03707886 35.13371277 C192.02707886 35.46371277 193.01707886 35.79371277 194.03707886 36.13371277 C195.24968763 39.77153909 195.43252438 42.31107276 195.03707886 46.13371277 C192.78707886 48.75871277 192.78707886 48.75871277 190.03707886 51.13371277 C183.57983433 58.6979135 183.05968912 65.48643192 183.74264526 75.17277527 C184.60495334 80.91577563 188.81738749 84.04659655 192.91207886 87.69621277 C195.03707886 90.13371277 195.03707886 90.13371277 195.59957886 93.69621277 C195.03707886 97.13371277 195.03707886 97.13371277 193.47457886 99.57121277 C190.02120917 101.78491129 188.08062241 101.7505245 184.03707886 101.13371277 C177.87127566 98.34569741 174.07305781 93.00327208 171.03707886 87.13371277 C169.81826546 83.84383298 168.84908702 80.54557164 168.03707886 77.13371277 C154.41791709 76.21037977 141.45376508 81.86140492 130.84957886 90.19621277 C100.69765974 118.50585577 99.49452553 176.59013902 98.12536621 214.94328308 C97.84351827 225.12838895 97.93689884 235.3208887 97.97457886 245.50871277 C97.97961149 247.91365974 97.98417123 250.31860774 97.98825073 252.72355652 C97.99909923 258.52696517 98.01569334 264.33033385 98.03707886 270.13371277 C99.16364371 269.17612794 100.28907832 268.21721332 101.41403198 267.25773621 C102.04087891 266.72388306 102.66772583 266.19002991 103.31356812 265.63999939 C119.75003238 251.27511867 127.4676094 229.42122977 135.84078979 209.91545105 C145.38401494 187.72453118 154.97707558 165.47152621 171.03707886 147.13371277 C172.00580933 145.96582214 172.00580933 145.96582214 172.99411011 144.77433777 C178.07601171 138.77127682 183.79079151 133.88438508 190.03707886 129.13371277 C190.66871948 128.64886414 191.30036011 128.1640155 191.95114136 127.66447449 C203.72941022 118.68802291 216.07690633 111.26137158 229.03707886 104.13371277 C254.0129055 90.75081648 254.0129055 90.75081648 276.03707886 73.13371277 C276.63520386 72.54847839 277.23332886 71.96324402 277.84957886 71.36027527 C283.72824234 65.09949866 286.23806772 58.11296426 286.53707886 49.57121277 C286.23812919 41.62102013 284.29026115 35.96909391 278.53707886 30.38371277 C258.10097165 14.1550394 223.29723327 16.82313798 198.62081909 16.87492371 C196.39533881 16.87220371 194.16985944 16.86863719 191.94438171 16.86430359 C185.98215294 16.85530189 180.01999453 16.85867125 174.05776477 16.86506176 C167.7788188 16.87018021 161.49987825 16.86541479 155.22093201 16.86228943 C144.02234576 16.85843826 132.82378501 16.86458671 121.62520487 16.8748081 C111.50426124 16.88376002 101.38336348 16.88217059 91.26242065 16.87297058 C79.44555234 16.86223367 67.62870614 16.85830002 55.81183201 16.86419511 C49.57925477 16.86729794 43.346709 16.86777034 37.11413383 16.86112213 C31.26078481 16.85531219 25.40752186 16.85941185 19.55418205 16.87091064 C17.41737511 16.87353671 15.28056081 16.87282764 13.14375687 16.86838531 C1.57556621 16.84656624 -9.53773357 17.24872615 -20.96292114 19.13371277 Z " fill="#010000" transform="translate(208.96292114257813,-0.1337127685546875)"/>
<path d="M0 0 C-0.41572266 1.7015625 -0.41572266 1.7015625 -0.83984375 3.4375 C-1.20595709 4.95827848 -1.57182963 6.47911495 -1.9375 8 C-2.11990234 8.74378906 -2.30230469 9.48757813 -2.49023438 10.25390625 C-2.66748047 10.99511719 -2.84472656 11.73632812 -3.02734375 12.5 C-3.27085571 13.50546875 -3.27085571 13.50546875 -3.51928711 14.53125 C-4.69302525 20.55910172 -5.12506873 26.43577183 -5.1418457 32.57080078 C-5.14705734 33.63609764 -5.14705734 33.63609764 -5.15237427 34.72291565 C-5.15967145 36.25114299 -5.16504861 37.77938052 -5.16866493 39.307621 C-5.17591488 41.74014792 -5.19164451 44.17248276 -5.21000671 46.60494995 C-5.26206921 53.5165539 -5.31036318 60.42804803 -5.32592773 67.33984375 C-5.33610415 71.58331792 -5.36566502 75.82629861 -5.40724754 80.06957626 C-5.41942204 81.67121495 -5.42470407 83.27292372 -5.42244911 84.87460709 C-5.40761567 98.85204844 -6.94576263 112.63493639 -16 124 C-24.39000306 132.35312392 -35.54361005 135.66134574 -47 137 C-47.763125 137.11085938 -48.52625 137.22171875 -49.3125 137.3359375 C-69.14846019 139.88430739 -87.37508064 138.06919227 -104.20703125 126.48046875 C-109.95989551 121.95957542 -114.4900842 115.88312503 -117 109 C-117.03478227 101.19138129 -113.60504153 94.18614056 -110.6875 87.0625 C-110.42222504 86.40748505 -110.15695007 85.75247009 -109.88363647 85.0776062 C-82.70412972 18.05581746 -82.70412972 18.05581746 -50 4 C-40.96154422 0.83654048 -31.54134622 0.76658914 -22.0625 0.4375 C-20.93392578 0.39431641 -19.80535156 0.35113281 -18.64257812 0.30664062 C-12.42367436 0.07872269 -6.2229247 -0.0461935 0 0 Z " fill="#FCC007" transform="translate(218,340)"/>
<path d="M0 0 C0.33 0 0.66 0 1 0 C0.98690256 36.22227221 0.94762403 72.44442115 0.87314438 108.66662038 C0.86437744 112.94123939 0.85582767 117.2158588 0.84741211 121.49047852 C0.84573305 122.34149217 0.84405398 123.19250583 0.84232404 124.06930778 C0.81564118 137.85580376 0.80655804 151.64225816 0.80395857 165.4287773 C0.80090106 179.57096488 0.77897778 193.71303208 0.73947543 207.8551653 C0.71568923 216.58438704 0.70668665 225.31336861 0.71648689 234.04261831 C0.7217953 240.02546572 0.70880837 246.00809758 0.6813371 251.99088361 C0.6660213 255.44473847 0.6588658 258.89811104 0.67340279 262.35198021 C0.6849553 266.0948209 0.6660094 269.83629157 0.63923645 273.57902527 C0.65524634 275.22055935 0.65524634 275.22055935 0.67157966 276.89525574 C0.57311772 284.24198605 0.57311772 284.24198605 -2.40884876 288.18597889 C-5.04830239 290.03381568 -5.94448984 290.63330384 -9.0625 290.125 C-9.71347656 290.04507812 -10.36445313 289.96515625 -11.03515625 289.8828125 C-14.13073091 288.49195788 -15.20429023 286.89581528 -17 284 C-17.58830629 280.63037154 -17.52934749 277.30138336 -17.49206543 273.88807678 C-17.49674442 272.86054383 -17.50142341 271.83301088 -17.50624418 270.77434057 C-17.51719008 267.32595029 -17.49967331 263.87828759 -17.48242188 260.42993164 C-17.48460743 257.95932805 -17.48860368 255.48872549 -17.49427795 253.01812744 C-17.50285175 247.69357195 -17.49949264 242.36922501 -17.4858551 237.0446949 C-17.46647138 229.33111398 -17.47294193 221.6177166 -17.48642892 213.90413087 C-17.50801583 201.36893955 -17.51472358 188.83379152 -17.50927734 176.29858398 C-17.50895671 175.5484583 -17.50863608 174.79833262 -17.50830573 174.02547585 C-17.50559513 167.9443893 -17.50216662 161.86330319 -17.49870014 155.78221703 C-17.49570652 150.4797301 -17.49299742 145.17724314 -17.49072266 139.87475586 C-17.49039715 139.12827524 -17.49007163 138.38179462 -17.48973626 137.61269338 C-17.48478202 125.13484431 -17.49552272 112.65705523 -17.51729441 100.17922491 C-17.52995023 92.49303476 -17.52861367 84.80709301 -17.50884354 77.12091654 C-17.49466643 71.21777098 -17.50089003 65.31475665 -17.51434135 59.41160583 C-17.51646401 57.00025472 -17.51179884 54.588886 -17.4996357 52.17756462 C-17.21578826 32.93984311 -17.21578826 32.93984311 -23.13092804 14.83099461 C-24 13 -24 13 -24 10 C-23.17757813 9.85304687 -22.35515625 9.70609375 -21.5078125 9.5546875 C-13.69076547 7.9840568 -5.82736054 5.82736054 0 0 Z " fill="#FDE939" transform="translate(290,205)"/>
<path d="M0 0 C10.94052809 2.00576348 20.11506059 4.93949128 27.4765625 13.62109375 C32.09094308 20.8266265 32.17323018 29.5275505 30.41796875 37.71484375 C25.76423837 51.16603704 12.48687898 60.9186165 0.625 67.8125 C-0.24205566 68.32458008 -1.10911133 68.83666016 -2.00244141 69.36425781 C-9.90526074 74.00621207 -17.91482293 78.45213019 -25.9453125 82.86816406 C-61.12070243 102.24472154 -89.63426211 125.10370479 -106.99365234 161.87695312 C-108.02692833 164.05680949 -109.08364988 166.22408326 -110.14453125 168.390625 C-114.42731583 177.20451259 -118.34466551 186.12087741 -122.0625 195.1875 C-135.82316413 228.66746294 -135.82316413 228.66746294 -147.2265625 239.296875 C-149.8914837 241.85613853 -152.23221183 244.67797227 -154.6171875 247.49609375 C-155.07351563 247.99238281 -155.52984375 248.48867188 -156 249 C-156.33 249 -156.66 249 -157 249 C-157 231.84 -157 214.68 -157 197 C-156.67 197 -156.34 197 -156 197 C-155.67 207.56 -155.34 218.12 -155 229 C-150.19281909 219.65774276 -145.71154851 210.2508756 -141.5 200.625 C-141.0270752 199.54436279 -140.55415039 198.46372559 -140.06689453 197.3503418 C-138.01122687 192.64047155 -135.96706794 187.92597186 -133.94140625 183.203125 C-126.67680855 166.38260036 -119.03419305 148.98509138 -107 135 C-105.89205078 133.70449219 -105.89205078 133.70449219 -104.76171875 132.3828125 C-102.55427251 129.87417757 -100.29106602 127.43224086 -98 125 C-97.3503125 124.27425781 -96.700625 123.54851562 -96.03125 122.80078125 C-83.09721957 108.94644481 -65.43631087 99.78727166 -49.0390625 90.6875 C-11.38892767 71.88806876 -11.38892767 71.88806876 12 39 C14.54381168 28.14986446 12.97512802 18.92314363 8 9 C6.47219898 6.66598328 4.99055895 4.99055895 3 3 C2 2 1 1 0 0 Z " fill="#AB1355" transform="translate(464,21)"/>
<path d="M0 0 C-0.71285156 0.50789063 -1.42570312 1.01578125 -2.16015625 1.5390625 C-33.9817746 24.4095123 -47.11571164 60.1329068 -61.14501953 95.35302734 C-82.72208527 149.46843796 -82.72208527 149.46843796 -99.421875 158.9453125 C-103.47043318 160.60154085 -106.67862129 160.41819794 -111 160 C-109.62246614 156.99082409 -107.994132 154.65810197 -105.875 152.125 C-90.99969434 133.13132459 -83.61994877 108.74355288 -74.84765625 86.56494141 C-63.61295009 58.21263592 -63.61295009 58.21263592 -57.125 46.75 C-56.70355713 46.00041016 -56.28211426 45.25082031 -55.84790039 44.47851562 C-49.82976636 33.98478145 -42.38912955 24.70828122 -34 16 C-33.4121875 15.37480469 -32.824375 14.74960937 -32.21875 14.10546875 C-25.91280656 7.97930001 -8.99638614 -3.46014851 0 0 Z " fill="#AB1356" transform="translate(150,335)"/>
<path d="M0 0 C-0.27714844 1.134375 -0.55429688 2.26875 -0.83984375 3.4375 C-1.20595709 4.95827848 -1.57182963 6.47911495 -1.9375 8 C-2.11990234 8.74378906 -2.30230469 9.48757813 -2.49023438 10.25390625 C-2.66748047 10.99511719 -2.84472656 11.73632812 -3.02734375 12.5 C-3.18968506 13.1703125 -3.35202637 13.840625 -3.51928711 14.53125 C-4.69302525 20.55910172 -5.12506873 26.43577183 -5.1418457 32.57080078 C-5.14532013 33.28099869 -5.14879456 33.99119659 -5.15237427 34.72291565 C-5.15967145 36.25114299 -5.16504861 37.77938052 -5.16866493 39.307621 C-5.17591488 41.74014792 -5.19164451 44.17248276 -5.21000671 46.60494995 C-5.26206921 53.5165539 -5.31036318 60.42804803 -5.32592773 67.33984375 C-5.33610415 71.58331792 -5.36566502 75.82629861 -5.40724754 80.06957626 C-5.41942204 81.67121495 -5.42470407 83.27292372 -5.42244911 84.87460709 C-5.40761567 98.85204844 -6.94576263 112.63493639 -16 124 C-22.37123699 130.34323155 -32.01043093 135.27111602 -41 136 C-40 133 -40 133 -37.8125 131.4375 C-27.92170942 122.8654815 -24.41827188 108.50505866 -23 96 C-22.82022199 91.57869148 -22.83521978 87.17311842 -22.91080093 82.7492218 C-22.94637155 80.59202329 -22.96642584 78.43513667 -22.9826355 76.27770996 C-23.03082974 70.15228838 -23.10160133 64.02728704 -23.19189453 57.90234375 C-23.78474504 16.18427564 -23.78474504 16.18427564 -16 1 C-10.87198805 -0.53840358 -5.33670743 -0.09305384 0 0 Z " fill="#FCB001" transform="translate(218,340)"/>
<path d="M0 0 C0 2.31 0 4.62 0 7 C-1.89332534 7.81832722 -3.78977733 8.62942268 -5.6875 9.4375 C-7.27111328 10.11619141 -7.27111328 10.11619141 -8.88671875 10.80859375 C-11.61972529 11.85447455 -14.12042337 12.53520748 -17 13 C-5.21875 0 -5.21875 0 0 0 Z " fill="#AB1355" transform="translate(256,304)"/>
</svg>
