<?xml version="1.0" encoding="UTF-8"?>
<svg version="1.1" xmlns="http://www.w3.org/2000/svg" width="512" height="512">
<path d="M0 0 C1.31896774 -0.00855011 1.31896774 -0.00855011 2.6645813 -0.01727295 C4.52914216 -0.02673804 6.39371986 -0.0332629 8.25830078 -0.03710938 C11.11390345 -0.04681076 13.96878534 -0.0778178 16.82421875 -0.109375 C18.63280821 -0.11590514 20.44140284 -0.12115557 22.25 -0.125 C23.53449539 -0.1435202 23.53449539 -0.1435202 24.84494019 -0.16241455 C26.04100388 -0.1579129 26.04100388 -0.1579129 27.26123047 -0.15332031 C28.31260696 -0.15878876 28.31260696 -0.15878876 29.38522339 -0.16436768 C31.8448302 0.3183263 32.73423799 1.24852511 34.2578125 3.203125 C34.6717052 5.9624097 34.72545162 7.48721202 33.18359375 9.84765625 C28.95955985 12.82075922 22.10686069 11.33658504 17.2578125 11.203125 C17.2578125 17.473125 17.2578125 23.743125 17.2578125 30.203125 C20.2278125 30.203125 23.1978125 30.203125 26.2578125 30.203125 C54.71885959 33.44452203 80.08154616 44.30741777 102.19921875 62.5390625 C104.35806609 64.33617382 104.35806609 64.33617382 107.2578125 66.203125 C111.2178125 62.243125 115.1778125 58.283125 119.2578125 54.203125 C118.3296875 53.130625 117.4015625 52.058125 116.4453125 50.953125 C115.90132813 50.31117187 115.35734375 49.66921875 114.796875 49.0078125 C113.66200831 47.67708049 112.49866352 46.37050999 111.3203125 45.078125 C110.2578125 43.203125 110.2578125 43.203125 110.3828125 40.578125 C111.2578125 38.203125 111.2578125 38.203125 114.2578125 36.203125 C119.77035337 36.28211495 122.59141537 38.7999075 126.27734375 42.55859375 C126.82138351 43.09784988 127.36542328 43.63710602 127.9259491 44.19270325 C129.0690097 45.33237232 130.20582415 46.47833661 131.33666992 47.63012695 C133.06504753 49.38527847 134.81847582 51.11215715 136.57617188 52.83789062 C137.68650247 53.95152544 138.79528092 55.0667104 139.90234375 56.18359375 C140.68663506 56.95270332 140.68663506 56.95270332 141.48677063 57.73735046 C144.71456198 61.07088907 146.19070132 63.51957803 146.2578125 68.203125 C144.2578125 71.203125 144.2578125 71.203125 141.88671875 72.09765625 C139.2578125 72.203125 139.2578125 72.203125 137.16015625 70.83984375 C136.51175781 70.19660156 135.86335938 69.55335937 135.1953125 68.890625 C132.48667155 66.24634779 130.75708488 64.95276119 127.2578125 63.203125 C121.8128125 68.648125 121.8128125 68.648125 116.2578125 74.203125 C117.90387845 77.4952569 119.56672236 79.91470247 121.88745117 82.7175293 C140.82994488 105.66218559 152.2578125 135.39036064 152.2578125 165.203125 C158.5278125 165.203125 164.7978125 165.203125 171.2578125 165.203125 C171.165 161.8309375 171.165 161.8309375 171.0703125 158.390625 C170.88699168 151.72996842 170.88699168 151.72996842 172.61328125 149.27734375 C174.97372548 147.73548588 176.4985278 147.7892323 179.2578125 148.203125 C180.89079285 149.48449707 180.89079285 149.48449707 182.2578125 151.203125 C182.54406927 154.18094629 182.65419641 156.94513282 182.62109375 159.921875 C182.62159225 160.77616089 182.62209076 161.63044678 182.62260437 162.51062012 C182.62026465 164.31618578 182.61054207 166.12175475 182.59399414 167.92724609 C182.57040162 170.69267915 182.57343382 173.45714813 182.58007812 176.22265625 C182.57450128 177.97656825 182.56739136 179.73047619 182.55859375 181.484375 C182.55950516 182.31255737 182.56041656 183.14073975 182.56135559 183.99401855 C182.51304611 187.90103831 182.47303662 189.88028882 180.2578125 193.203125 C176.7578125 193.515625 176.7578125 193.515625 173.2578125 193.203125 C171.2578125 191.203125 171.2578125 191.203125 171.0625 187.7265625 C171.07393555 186.34359867 171.09989992 184.96074443 171.1328125 183.578125 C171.1740625 181.144375 171.2153125 178.710625 171.2578125 176.203125 C164.9878125 176.203125 158.7178125 176.203125 152.2578125 176.203125 C152.2578125 179.173125 152.2578125 182.143125 152.2578125 185.203125 C152.1122489 186.74379463 151.92959573 188.28267379 151.671875 189.80859375 C151.54554688 190.56462891 151.41921875 191.32066406 151.2890625 192.09960938 C151.155 192.85564453 151.0209375 193.61167969 150.8828125 194.390625 C150.75648438 195.15826172 150.63015625 195.92589844 150.5 196.71679688 C149.7597036 201.03642638 148.77272673 205.07333708 147.2578125 209.203125 C148.4128125 208.89375 149.5678125 208.584375 150.7578125 208.265625 C179.82953102 200.47855754 211.69758505 208.79731863 237.12597656 223.26611328 C246.1991597 228.55920756 253.75928016 234.8844675 261.2578125 242.203125 C262.22267578 243.07517578 262.22267578 243.07517578 263.20703125 243.96484375 C284.10399969 263.30306396 295.44687542 294.10637806 296.5390625 322.0390625 C297.35946434 357.760726 285.85136029 388.12435407 261.2578125 414.203125 C260.64550781 414.87988281 260.03320312 415.55664062 259.40234375 416.25390625 C239.43865934 437.4945854 209.1557137 449.36658986 180.38671875 450.484375 C168.40748094 450.75710555 156.89335786 450.14092671 145.2578125 447.203125 C144.59910156 447.03683594 143.94039063 446.87054688 143.26171875 446.69921875 C121.89055254 441.07522764 104.16674531 430.4142976 88.2578125 415.203125 C87.58492187 414.59339844 86.91203125 413.98367188 86.21875 413.35546875 C65.89647001 394.28815028 53.15930333 364.24297199 52.1640625 336.59912109 C52.1241734 333.84128855 52.11942609 331.08620309 52.1328125 328.328125 C52.13474609 327.36374512 52.13667969 326.39936523 52.13867188 325.40576172 C52.17783636 318.9664669 52.40173049 312.59316574 53.2578125 306.203125 C52.23945313 306.46867187 51.22109375 306.73421875 50.171875 307.0078125 C39.53669907 309.69165654 29.18305463 311.17081866 18.2578125 312.203125 C17.9278125 318.143125 17.5978125 324.083125 17.2578125 330.203125 C20.073125 330.1103125 20.073125 330.1103125 22.9453125 330.015625 C27.72656358 329.85800134 30.32954885 330.42637462 34.2578125 333.203125 C33.3828125 340.078125 33.3828125 340.078125 32.2578125 341.203125 C29.26314356 341.34153728 26.29321697 341.41631845 23.296875 341.44140625 C22.39536713 341.449478 21.49385925 341.45754974 20.56503296 341.46586609 C18.65340102 341.47972299 16.74174416 341.49043793 14.83007812 341.49829102 C11.90186863 341.51551292 8.97478524 341.55938495 6.046875 341.60351562 C4.19271666 341.61364123 2.3385487 341.62215775 0.484375 341.62890625 C-0.39382904 341.64641434 -1.27203308 341.66392242 -2.17684937 341.68196106 C-8.21281175 341.66035757 -8.21281175 341.66035757 -10.85791016 339.37573242 C-11.7421875 337.203125 -11.7421875 337.203125 -11.1171875 334.015625 C-10.4365625 332.6234375 -10.4365625 332.6234375 -9.7421875 331.203125 C-4.57826921 329.4818189 0.85072486 330.14958948 6.2578125 330.203125 C6.2578125 324.263125 6.2578125 318.323125 6.2578125 312.203125 C3.3703125 311.97625 0.4828125 311.749375 -2.4921875 311.515625 C-31.15086593 308.79341618 -57.72590202 297.77911254 -79.60546875 279.015625 C-81.81189297 277.07343605 -81.81189297 277.07343605 -84.7421875 275.203125 C-88.7021875 279.163125 -92.6621875 283.123125 -96.7421875 287.203125 C-95.8140625 288.29625 -94.8859375 289.389375 -93.9296875 290.515625 C-93.14658203 291.43794922 -93.14658203 291.43794922 -92.34765625 292.37890625 C-90.79554102 294.22144732 -90.79554102 294.22144732 -89.02734375 295.70703125 C-87.7421875 297.203125 -87.7421875 297.203125 -87.9921875 300.828125 C-88.7421875 304.203125 -88.7421875 304.203125 -89.7421875 305.203125 C-92.3046875 305.703125 -92.3046875 305.703125 -95.7421875 305.203125 C-102.15559845 300.62249978 -107.63735253 294.46019503 -113.1796875 288.890625 C-113.99373047 288.08044922 -114.80777344 287.27027344 -115.64648438 286.43554688 C-116.41927734 285.66146484 -117.19207031 284.88738281 -117.98828125 284.08984375 C-118.68622803 283.39076904 -119.3841748 282.69169434 -120.10327148 281.97143555 C-122.34616152 279.55146645 -122.72065781 278.54760004 -122.9296875 275.203125 C-122.7421875 272.203125 -122.7421875 272.203125 -120.7421875 270.203125 C-118.1171875 269.578125 -118.1171875 269.578125 -114.7421875 270.203125 C-111.79825021 272.62816687 -109.25822604 275.34224869 -106.7421875 278.203125 C-103.06148863 276.66668648 -100.75443546 274.42161555 -97.9921875 271.578125 C-97.19296875 270.76085937 -96.39375 269.94359375 -95.5703125 269.1015625 C-94.96703125 268.47507812 -94.36375 267.84859375 -93.7421875 267.203125 C-95.16716605 264.04123231 -96.92081824 261.69860118 -99.1796875 259.078125 C-118.78401919 234.7772928 -127.32870516 206.92017293 -129.7421875 176.203125 C-136.0121875 176.203125 -142.2821875 176.203125 -148.7421875 176.203125 C-148.66316924 181.04978611 -148.66316924 181.04978611 -148.56201172 185.89599609 C-148.5473758 187.66599775 -148.64290236 189.43584955 -148.7421875 191.203125 C-150.7421875 193.203125 -150.7421875 193.203125 -153.6796875 193.640625 C-156.7421875 193.203125 -156.7421875 193.203125 -158.40869141 191.17382812 C-160.06802435 187.47724019 -160.17396437 184.2096664 -160.140625 180.234375 C-160.14349518 179.47644653 -160.14636536 178.71851807 -160.14932251 177.93762207 C-160.15135716 176.3407313 -160.14586927 174.74381526 -160.13330078 173.14697266 C-160.1172374 170.71069303 -160.13316859 168.27607213 -160.15234375 165.83984375 C-160.15036121 164.28385053 -160.14651731 162.72785833 -160.140625 161.171875 C-160.14669769 160.44778442 -160.15277039 159.72369385 -160.1590271 158.97766113 C-160.09830928 154.58450999 -159.56192322 151.63670884 -156.7421875 148.203125 C-153.6796875 147.765625 -153.6796875 147.765625 -150.7421875 148.203125 C-148.7421875 150.203125 -148.7421875 150.203125 -148.546875 153.6796875 C-148.55831055 155.06265133 -148.58427492 156.44550557 -148.6171875 157.828125 C-148.6584375 160.261875 -148.6996875 162.695625 -148.7421875 165.203125 C-142.4721875 165.203125 -136.2021875 165.203125 -129.7421875 165.203125 C-129.5153125 162.295 -129.2884375 159.386875 -129.0546875 156.390625 C-126.48402179 128.70863827 -115.41983291 102.57506246 -97.7421875 81.203125 C-96.40691322 79.53801295 -95.07291969 77.87186926 -93.7421875 76.203125 C-95.27862602 72.52242613 -97.52369695 70.21537296 -100.3671875 67.453125 C-101.18445313 66.65390625 -102.00171875 65.8546875 -102.84375 65.03125 C-103.47023437 64.42796875 -104.09671875 63.8246875 -104.7421875 63.203125 C-105.18949219 63.60144531 -105.63679688 63.99976563 -106.09765625 64.41015625 C-113.37023778 70.7833567 -113.37023778 70.7833567 -116.7421875 72.203125 C-119.17246822 71.54032117 -120.9432847 71.0020278 -122.7421875 69.203125 C-123.1628418 66.54638672 -123.1628418 66.54638672 -122.7421875 63.203125 C-120.89766306 60.77391616 -119.17428067 58.81601319 -117.01171875 56.7109375 C-116.42428391 56.12013397 -115.83684906 55.52933044 -115.23161316 54.92062378 C-113.98874302 53.67805207 -112.73839923 52.44291691 -111.48120117 51.21484375 C-109.55929129 49.33263369 -107.66847654 47.42281071 -105.77929688 45.5078125 C-104.56685204 44.30292611 -103.3527139 43.09974075 -102.13671875 41.8984375 C-101.28954033 41.04078293 -101.28954033 41.04078293 -100.42524719 40.165802 C-97.97976214 37.80628061 -96.37610253 36.29934971 -92.9597168 35.78076172 C-90.7421875 36.203125 -90.7421875 36.203125 -88.8671875 37.265625 C-87.7421875 39.203125 -87.7421875 39.203125 -87.6171875 42.453125 C-89.1095167 47.42755565 -91.87596196 49.88200698 -95.7421875 53.203125 C-94.20574898 56.88382387 -91.96067805 59.19087704 -89.1171875 61.953125 C-88.29992187 62.75234375 -87.48265625 63.5515625 -86.640625 64.375 C-86.01414062 64.97828125 -85.38765625 65.5815625 -84.7421875 66.203125 C-83.1953125 65.0275 -83.1953125 65.0275 -81.6171875 63.828125 C-79.99341464 62.61814312 -78.36821598 61.41007397 -76.7421875 60.203125 C-75.71222656 59.4296875 -74.68226562 58.65625 -73.62109375 57.859375 C-52.49620011 42.20462037 -25.11458643 29.77336611 1.6953125 30.140625 C3.2009375 30.16125 4.7065625 30.181875 6.2578125 30.203125 C6.2578125 23.933125 6.2578125 17.663125 6.2578125 11.203125 C1.45498386 11.40042901 1.45498386 11.40042901 -3.3449707 11.65356445 C-5.16796875 11.69140625 -5.16796875 11.69140625 -8.7421875 11.203125 C-10.76953125 8.85546875 -10.76953125 8.85546875 -11.7421875 6.203125 C-9.81015365 -0.88099912 -6.60877104 0.03264431 0 0 Z M-46.7421875 97.203125 C-51.0384198 101.71967691 -52.10163549 104.80291897 -52.0234375 110.8828125 C-51.46647813 115.47772733 -48.95230002 118.1658857 -45.5546875 121.078125 C-41.54444411 122.68222236 -38.00173386 122.8867559 -33.7421875 122.203125 C-29.86492436 120.19269226 -26.84393888 118.07477229 -24.7421875 114.203125 C-23.25484667 108.57247759 -23.84964933 105.24173988 -26.7421875 100.203125 C-29.29048919 97.29506307 -31.93128963 95.48517643 -35.6171875 94.203125 C-39.8125571 94.203125 -43.08367434 95.15154939 -46.7421875 97.203125 Z M36.8828125 103.703125 C33.59928125 108.75471153 32.5101486 113.16430121 33.2578125 119.203125 C35.39198377 125.49893025 38.09660792 130.19671724 43.9453125 133.515625 C49.13133656 135.87290867 53.93637857 136.22930843 59.39453125 134.54296875 C64.53987062 132.27901943 68.1380087 128.85584277 71.2578125 124.203125 C73.13823743 118.5618502 73.0382775 112.42128869 71.0703125 106.828125 C67.62448707 101.8376192 64.03756009 98.23673989 58.2578125 96.203125 C49.04962583 94.9179333 43.22443607 97.02773177 36.8828125 103.703125 Z M-58.7421875 177.203125 C-62.36547755 181.60283435 -62.88142201 186.65114901 -62.7421875 192.203125 C-60.77562339 198.75833871 -57.4348369 203.67898383 -51.4296875 207.078125 C-45.55318856 208.87095518 -41.12292336 209.07964449 -35.5546875 206.578125 C-30.80681833 203.93834705 -28.06263224 200.59250119 -25.4296875 195.828125 C-23.76791457 189.48317381 -24.3260682 184.68675476 -27.47265625 179.02734375 C-30.49940847 174.67813364 -34.59025805 171.58534997 -39.7421875 170.203125 C-47.35877964 169.49788499 -53.21922842 171.98699698 -58.7421875 177.203125 Z M67.7109375 184.56640625 C64.58295986 188.1267808 62.29805721 191.49666843 62.2265625 196.3046875 C62.57968698 201.58389841 63.67043252 205.14372134 67.2578125 209.203125 C72.09603904 212.88017717 75.82401029 213.85698352 81.89453125 213.58984375 C86.74024618 212.79690858 89.42769073 210.14542539 92.5703125 206.578125 C95.89305866 201.90166744 95.84810225 197.82774302 95.2578125 192.203125 C93.95505427 188.03586826 91.62870176 185.15098309 87.9453125 182.828125 C80.96002477 179.39493039 73.74034766 179.2526079 67.7109375 184.56640625 Z M89.2578125 256.203125 C69.57401371 280.02665448 60.89356208 309.8913744 63.45263672 340.53613281 C65.84942059 363.30803024 75.77807798 385.35680075 91.2578125 402.203125 C91.70495605 402.69264648 92.15209961 403.18216797 92.61279297 403.68652344 C112.15344225 424.84382101 139.68006549 438.06719211 168.52734375 439.5234375 C197.78920588 440.4198451 226.51830177 431.1791061 248.2578125 411.203125 C248.74733398 410.75598145 249.23685547 410.30883789 249.74121094 409.84814453 C270.89850851 390.30749525 284.12187961 362.78087201 285.578125 333.93359375 C286.49696677 303.93940253 276.60212412 274.93170114 256.109375 252.703125 C235.13945128 230.79827649 207.22544464 217.69606783 176.81152344 216.8515625 C142.84096888 216.53978686 111.77061714 230.77571619 89.2578125 256.203125 Z M-3.5546875 240.890625 C-5.70776674 245.08346352 -6.46150791 249.60951903 -5.1875 254.203125 C-3.09420247 258.50086861 -0.17556394 260.73643978 4.17578125 262.609375 C8.90722257 263.95867909 12.28254977 262.70951142 16.5078125 260.515625 C20.65022785 257.03223027 22.02771913 254.04387197 22.6953125 248.703125 C22.00725237 243.19864396 19.63538688 240.39284833 15.5078125 236.828125 C7.81774927 232.98309339 2.5731445 235.1854021 -3.5546875 240.890625 Z " fill="#B8DBFF" transform="translate(184.7421875,34.796875)"/>
<path d="M0 0 C1.31896774 -0.00855011 1.31896774 -0.00855011 2.6645813 -0.01727295 C4.52914216 -0.02673804 6.39371986 -0.0332629 8.25830078 -0.03710938 C11.11390345 -0.04681076 13.96878534 -0.0778178 16.82421875 -0.109375 C18.63280821 -0.11590514 20.44140284 -0.12115557 22.25 -0.125 C23.53449539 -0.1435202 23.53449539 -0.1435202 24.84494019 -0.16241455 C26.04100388 -0.1579129 26.04100388 -0.1579129 27.26123047 -0.15332031 C28.31260696 -0.15878876 28.31260696 -0.15878876 29.38522339 -0.16436768 C31.8448302 0.3183263 32.73423799 1.24852511 34.2578125 3.203125 C34.6717052 5.9624097 34.72545162 7.48721202 33.18359375 9.84765625 C28.95955985 12.82075922 22.10686069 11.33658504 17.2578125 11.203125 C17.2578125 17.473125 17.2578125 23.743125 17.2578125 30.203125 C20.2278125 30.203125 23.1978125 30.203125 26.2578125 30.203125 C54.71885959 33.44452203 80.08154616 44.30741777 102.19921875 62.5390625 C104.35806609 64.33617382 104.35806609 64.33617382 107.2578125 66.203125 C111.2178125 62.243125 115.1778125 58.283125 119.2578125 54.203125 C118.3296875 53.130625 117.4015625 52.058125 116.4453125 50.953125 C115.90132813 50.31117187 115.35734375 49.66921875 114.796875 49.0078125 C113.66200831 47.67708049 112.49866352 46.37050999 111.3203125 45.078125 C110.2578125 43.203125 110.2578125 43.203125 110.3828125 40.578125 C111.2578125 38.203125 111.2578125 38.203125 114.2578125 36.203125 C119.77035337 36.28211495 122.59141537 38.7999075 126.27734375 42.55859375 C126.82138351 43.09784988 127.36542328 43.63710602 127.9259491 44.19270325 C129.0690097 45.33237232 130.20582415 46.47833661 131.33666992 47.63012695 C133.06504753 49.38527847 134.81847582 51.11215715 136.57617188 52.83789062 C137.68650247 53.95152544 138.79528092 55.0667104 139.90234375 56.18359375 C140.68663506 56.95270332 140.68663506 56.95270332 141.48677063 57.73735046 C144.71456198 61.07088907 146.19070132 63.51957803 146.2578125 68.203125 C144.2578125 71.203125 144.2578125 71.203125 141.88671875 72.09765625 C139.2578125 72.203125 139.2578125 72.203125 137.16015625 70.83984375 C136.51175781 70.19660156 135.86335938 69.55335937 135.1953125 68.890625 C132.48667155 66.24634779 130.75708488 64.95276119 127.2578125 63.203125 C121.8128125 68.648125 121.8128125 68.648125 116.2578125 74.203125 C117.90387845 77.4952569 119.56672236 79.91470247 121.88745117 82.7175293 C140.82994488 105.66218559 152.2578125 135.39036064 152.2578125 165.203125 C158.5278125 165.203125 164.7978125 165.203125 171.2578125 165.203125 C171.165 161.8309375 171.165 161.8309375 171.0703125 158.390625 C170.88699168 151.72996842 170.88699168 151.72996842 172.61328125 149.27734375 C174.97372548 147.73548588 176.4985278 147.7892323 179.2578125 148.203125 C180.89079285 149.48449707 180.89079285 149.48449707 182.2578125 151.203125 C182.54406927 154.18094629 182.65419641 156.94513282 182.62109375 159.921875 C182.62159225 160.77616089 182.62209076 161.63044678 182.62260437 162.51062012 C182.62026465 164.31618578 182.61054207 166.12175475 182.59399414 167.92724609 C182.57040162 170.69267915 182.57343382 173.45714813 182.58007812 176.22265625 C182.57450128 177.97656825 182.56739136 179.73047619 182.55859375 181.484375 C182.55950516 182.31255737 182.56041656 183.14073975 182.56135559 183.99401855 C182.51304611 187.90103831 182.47303662 189.88028882 180.2578125 193.203125 C176.7578125 193.515625 176.7578125 193.515625 173.2578125 193.203125 C171.2578125 191.203125 171.2578125 191.203125 171.0625 187.7265625 C171.07393555 186.34359867 171.09989992 184.96074443 171.1328125 183.578125 C171.1740625 181.144375 171.2153125 178.710625 171.2578125 176.203125 C164.9878125 176.203125 158.7178125 176.203125 152.2578125 176.203125 C152.2578125 179.173125 152.2578125 182.143125 152.2578125 185.203125 C152.1122489 186.74379463 151.92959573 188.28267379 151.671875 189.80859375 C151.54554688 190.56462891 151.41921875 191.32066406 151.2890625 192.09960938 C151.155 192.85564453 151.0209375 193.61167969 150.8828125 194.390625 C150.75648438 195.15826172 150.63015625 195.92589844 150.5 196.71679688 C149.7597036 201.03642638 148.77272673 205.07333708 147.2578125 209.203125 C148.4128125 208.89375 149.5678125 208.584375 150.7578125 208.265625 C179.82953102 200.47855754 211.69758505 208.79731863 237.12597656 223.26611328 C246.1991597 228.55920756 253.75928016 234.8844675 261.2578125 242.203125 C262.22267578 243.07517578 262.22267578 243.07517578 263.20703125 243.96484375 C284.10399969 263.30306396 295.44687542 294.10637806 296.5390625 322.0390625 C297.35946434 357.760726 285.85136029 388.12435407 261.2578125 414.203125 C260.64550781 414.87988281 260.03320312 415.55664062 259.40234375 416.25390625 C239.43865934 437.4945854 209.1557137 449.36658986 180.38671875 450.484375 C168.40748094 450.75710555 156.89335786 450.14092671 145.2578125 447.203125 C144.59910156 447.03683594 143.94039063 446.87054688 143.26171875 446.69921875 C121.89055254 441.07522764 104.16674531 430.4142976 88.2578125 415.203125 C87.58492187 414.59339844 86.91203125 413.98367188 86.21875 413.35546875 C65.89647001 394.28815028 53.15930333 364.24297199 52.1640625 336.59912109 C52.1241734 333.84128855 52.11942609 331.08620309 52.1328125 328.328125 C52.13474609 327.36374512 52.13667969 326.39936523 52.13867188 325.40576172 C52.17783636 318.9664669 52.40173049 312.59316574 53.2578125 306.203125 C52.23945313 306.46867187 51.22109375 306.73421875 50.171875 307.0078125 C39.53669907 309.69165654 29.18305463 311.17081866 18.2578125 312.203125 C17.9278125 318.143125 17.5978125 324.083125 17.2578125 330.203125 C20.073125 330.1103125 20.073125 330.1103125 22.9453125 330.015625 C27.72656358 329.85800134 30.32954885 330.42637462 34.2578125 333.203125 C33.3828125 340.078125 33.3828125 340.078125 32.2578125 341.203125 C29.26314356 341.34153728 26.29321697 341.41631845 23.296875 341.44140625 C22.39536713 341.449478 21.49385925 341.45754974 20.56503296 341.46586609 C18.65340102 341.47972299 16.74174416 341.49043793 14.83007812 341.49829102 C11.90186863 341.51551292 8.97478524 341.55938495 6.046875 341.60351562 C4.19271666 341.61364123 2.3385487 341.62215775 0.484375 341.62890625 C-0.39382904 341.64641434 -1.27203308 341.66392242 -2.17684937 341.68196106 C-8.21281175 341.66035757 -8.21281175 341.66035757 -10.85791016 339.37573242 C-11.7421875 337.203125 -11.7421875 337.203125 -11.1171875 334.015625 C-10.4365625 332.6234375 -10.4365625 332.6234375 -9.7421875 331.203125 C-4.57826921 329.4818189 0.85072486 330.14958948 6.2578125 330.203125 C6.2578125 324.263125 6.2578125 318.323125 6.2578125 312.203125 C3.3703125 311.97625 0.4828125 311.749375 -2.4921875 311.515625 C-31.15086593 308.79341618 -57.72590202 297.77911254 -79.60546875 279.015625 C-81.81189297 277.07343605 -81.81189297 277.07343605 -84.7421875 275.203125 C-88.7021875 279.163125 -92.6621875 283.123125 -96.7421875 287.203125 C-95.8140625 288.29625 -94.8859375 289.389375 -93.9296875 290.515625 C-93.14658203 291.43794922 -93.14658203 291.43794922 -92.34765625 292.37890625 C-90.79554102 294.22144732 -90.79554102 294.22144732 -89.02734375 295.70703125 C-87.7421875 297.203125 -87.7421875 297.203125 -87.9921875 300.828125 C-88.7421875 304.203125 -88.7421875 304.203125 -89.7421875 305.203125 C-92.3046875 305.703125 -92.3046875 305.703125 -95.7421875 305.203125 C-102.15559845 300.62249978 -107.63735253 294.46019503 -113.1796875 288.890625 C-113.99373047 288.08044922 -114.80777344 287.27027344 -115.64648438 286.43554688 C-116.41927734 285.66146484 -117.19207031 284.88738281 -117.98828125 284.08984375 C-118.68622803 283.39076904 -119.3841748 282.69169434 -120.10327148 281.97143555 C-122.34616152 279.55146645 -122.72065781 278.54760004 -122.9296875 275.203125 C-122.7421875 272.203125 -122.7421875 272.203125 -120.7421875 270.203125 C-118.1171875 269.578125 -118.1171875 269.578125 -114.7421875 270.203125 C-111.79825021 272.62816687 -109.25822604 275.34224869 -106.7421875 278.203125 C-103.06148863 276.66668648 -100.75443546 274.42161555 -97.9921875 271.578125 C-97.19296875 270.76085937 -96.39375 269.94359375 -95.5703125 269.1015625 C-94.96703125 268.47507812 -94.36375 267.84859375 -93.7421875 267.203125 C-95.16716605 264.04123231 -96.92081824 261.69860118 -99.1796875 259.078125 C-118.78401919 234.7772928 -127.32870516 206.92017293 -129.7421875 176.203125 C-136.0121875 176.203125 -142.2821875 176.203125 -148.7421875 176.203125 C-148.66316924 181.04978611 -148.66316924 181.04978611 -148.56201172 185.89599609 C-148.5473758 187.66599775 -148.64290236 189.43584955 -148.7421875 191.203125 C-150.7421875 193.203125 -150.7421875 193.203125 -153.6796875 193.640625 C-156.7421875 193.203125 -156.7421875 193.203125 -158.40869141 191.17382812 C-160.06802435 187.47724019 -160.17396437 184.2096664 -160.140625 180.234375 C-160.14349518 179.47644653 -160.14636536 178.71851807 -160.14932251 177.93762207 C-160.15135716 176.3407313 -160.14586927 174.74381526 -160.13330078 173.14697266 C-160.1172374 170.71069303 -160.13316859 168.27607213 -160.15234375 165.83984375 C-160.15036121 164.28385053 -160.14651731 162.72785833 -160.140625 161.171875 C-160.14669769 160.44778442 -160.15277039 159.72369385 -160.1590271 158.97766113 C-160.09830928 154.58450999 -159.56192322 151.63670884 -156.7421875 148.203125 C-153.6796875 147.765625 -153.6796875 147.765625 -150.7421875 148.203125 C-148.7421875 150.203125 -148.7421875 150.203125 -148.546875 153.6796875 C-148.55831055 155.06265133 -148.58427492 156.44550557 -148.6171875 157.828125 C-148.6584375 160.261875 -148.6996875 162.695625 -148.7421875 165.203125 C-142.4721875 165.203125 -136.2021875 165.203125 -129.7421875 165.203125 C-129.5153125 162.295 -129.2884375 159.386875 -129.0546875 156.390625 C-126.48402179 128.70863827 -115.41983291 102.57506246 -97.7421875 81.203125 C-96.40691322 79.53801295 -95.07291969 77.87186926 -93.7421875 76.203125 C-95.27862602 72.52242613 -97.52369695 70.21537296 -100.3671875 67.453125 C-101.18445313 66.65390625 -102.00171875 65.8546875 -102.84375 65.03125 C-103.47023437 64.42796875 -104.09671875 63.8246875 -104.7421875 63.203125 C-105.18949219 63.60144531 -105.63679688 63.99976563 -106.09765625 64.41015625 C-113.37023778 70.7833567 -113.37023778 70.7833567 -116.7421875 72.203125 C-119.17246822 71.54032117 -120.9432847 71.0020278 -122.7421875 69.203125 C-123.1628418 66.54638672 -123.1628418 66.54638672 -122.7421875 63.203125 C-120.89766306 60.77391616 -119.17428067 58.81601319 -117.01171875 56.7109375 C-116.42428391 56.12013397 -115.83684906 55.52933044 -115.23161316 54.92062378 C-113.98874302 53.67805207 -112.73839923 52.44291691 -111.48120117 51.21484375 C-109.55929129 49.33263369 -107.66847654 47.42281071 -105.77929688 45.5078125 C-104.56685204 44.30292611 -103.3527139 43.09974075 -102.13671875 41.8984375 C-101.28954033 41.04078293 -101.28954033 41.04078293 -100.42524719 40.165802 C-97.97976214 37.80628061 -96.37610253 36.29934971 -92.9597168 35.78076172 C-90.7421875 36.203125 -90.7421875 36.203125 -88.8671875 37.265625 C-87.7421875 39.203125 -87.7421875 39.203125 -87.6171875 42.453125 C-89.1095167 47.42755565 -91.87596196 49.88200698 -95.7421875 53.203125 C-94.20574898 56.88382387 -91.96067805 59.19087704 -89.1171875 61.953125 C-88.29992187 62.75234375 -87.48265625 63.5515625 -86.640625 64.375 C-86.01414062 64.97828125 -85.38765625 65.5815625 -84.7421875 66.203125 C-83.1953125 65.0275 -83.1953125 65.0275 -81.6171875 63.828125 C-79.99341464 62.61814312 -78.36821598 61.41007397 -76.7421875 60.203125 C-75.71222656 59.4296875 -74.68226562 58.65625 -73.62109375 57.859375 C-52.49620011 42.20462037 -25.11458643 29.77336611 1.6953125 30.140625 C3.2009375 30.16125 4.7065625 30.181875 6.2578125 30.203125 C6.2578125 23.933125 6.2578125 17.663125 6.2578125 11.203125 C1.45498386 11.40042901 1.45498386 11.40042901 -3.3449707 11.65356445 C-5.16796875 11.69140625 -5.16796875 11.69140625 -8.7421875 11.203125 C-10.76953125 8.85546875 -10.76953125 8.85546875 -11.7421875 6.203125 C-9.81015365 -0.88099912 -6.60877104 0.03264431 0 0 Z M-87.3671875 84.953125 C-99.93500986 99.3618038 -109.30293687 116.9109832 -114.7421875 135.203125 C-114.93828613 135.8439502 -115.13438477 136.48477539 -115.33642578 137.14501953 C-118.56805063 148.13465793 -119.13526859 159.07032447 -119.1796875 170.453125 C-119.1858609 171.12204773 -119.1920343 171.79097046 -119.19839478 172.48016357 C-119.25764711 182.46425847 -118.00197256 191.52832908 -115.7421875 201.203125 C-115.52989502 202.15638672 -115.31760254 203.10964844 -115.09887695 204.09179688 C-107.91768318 235.25218547 -86.38132045 263.66815367 -59.70703125 280.7734375 C-48.23829822 287.87806147 -36.70179979 293.36857898 -23.7421875 297.203125 C-23.0423877 297.41485352 -22.34258789 297.62658203 -21.62158203 297.84472656 C-1.88264566 303.56734032 21.35858116 303.51613813 41.29931641 298.64648438 C43.32452778 298.18802216 45.33990611 297.88996451 47.39453125 297.59375 C51.57760189 296.82538969 54.73677295 295.70525567 58.2578125 293.203125 C61.18985174 288.69843616 62.69500353 283.56694612 64.375 278.5 C73.0728956 252.50952446 97.35754322 231.21361385 121.2578125 219.203125 C123.1292049 218.54656506 125.0007155 217.89019626 126.87768555 217.24975586 C131.20719835 215.70313987 134.43860418 214.51347461 136.92578125 210.53515625 C138.04067559 207.09649746 138.6860174 203.77217284 139.2578125 200.203125 C139.69287109 198.27919922 139.69287109 198.27919922 140.13671875 196.31640625 C147.63145173 162.25577795 138.75231343 127.16902047 120.2578125 98.203125 C109.99094703 83.02441381 96.83424657 69.85759485 81.2578125 60.203125 C80.49082031 59.67847656 79.72382813 59.15382813 78.93359375 58.61328125 C24.99473241 23.12471105 -45.36518376 40.44133544 -87.3671875 84.953125 Z M89.2578125 256.203125 C69.57401371 280.02665448 60.89356208 309.8913744 63.45263672 340.53613281 C65.84942059 363.30803024 75.77807798 385.35680075 91.2578125 402.203125 C91.70495605 402.69264648 92.15209961 403.18216797 92.61279297 403.68652344 C112.15344225 424.84382101 139.68006549 438.06719211 168.52734375 439.5234375 C197.78920588 440.4198451 226.51830177 431.1791061 248.2578125 411.203125 C248.74733398 410.75598145 249.23685547 410.30883789 249.74121094 409.84814453 C270.89850851 390.30749525 284.12187961 362.78087201 285.578125 333.93359375 C286.49696677 303.93940253 276.60212412 274.93170114 256.109375 252.703125 C235.13945128 230.79827649 207.22544464 217.69606783 176.81152344 216.8515625 C142.84096888 216.53978686 111.77061714 230.77571619 89.2578125 256.203125 Z " fill="#2E58FF" transform="translate(184.7421875,34.796875)"/>
<path d="M0 0 C1.19141098 -0.0127597 2.38282196 -0.02551941 3.6103363 -0.03866577 C5.54937584 -0.04200424 5.54937584 -0.04200424 7.52758789 -0.04541016 C8.86275884 -0.05183495 10.19792836 -0.05856307 11.53309631 -0.06558228 C14.33329534 -0.07756577 17.13337089 -0.081262 19.93359375 -0.08007812 C23.52301819 -0.07987483 27.11165173 -0.10718116 30.70088863 -0.14162254 C33.4589858 -0.16385291 36.21689145 -0.16791689 38.97506905 -0.16685867 C40.94217403 -0.17036926 42.90921925 -0.19205721 44.87620544 -0.21395874 C46.07076859 -0.20780548 47.26533173 -0.20165222 48.49609375 -0.1953125 C49.54929306 -0.19816254 50.60249237 -0.20101257 51.68760681 -0.20394897 C54.31274414 0.29052734 54.31274414 0.29052734 55.9542675 2.02324867 C57.51775315 4.63268454 57.68356807 6.04334855 57.67350769 9.0614624 C57.67763168 10.01776047 57.68175568 10.97405853 57.68600464 11.95933533 C57.67521881 13.00158768 57.66443298 14.04384003 57.65332031 15.11767578 C57.65397743 16.77178215 57.65397743 16.77178215 57.65464783 18.45930481 C57.65255684 22.10635039 57.62921043 25.75293701 57.60571289 29.39990234 C57.60011806 31.92767078 57.59584743 34.45544248 57.59284973 36.98321533 C57.58256339 42.95784787 57.55891622 48.93228322 57.52880126 54.90683675 C57.49525642 61.70967882 57.47877106 68.51252882 57.46371496 75.31543303 C57.4323665 89.30722239 57.37960655 103.29886584 57.31274414 117.29052734 C57.90812988 117.28005371 58.50351562 117.26958008 59.11694336 117.25878906 C61.80716757 117.21728785 64.49732451 117.1912203 67.18774414 117.16552734 C68.12489258 117.14876953 69.06204102 117.13201172 70.02758789 117.11474609 C70.92348633 117.10830078 71.81938477 117.10185547 72.74243164 117.09521484 C73.56984863 117.08474121 74.39726562 117.07426758 75.24975586 117.06347656 C77.31274414 117.29052734 77.31274414 117.29052734 79.31274414 119.29052734 C79.99030052 122.85779437 80.0378422 125.22509305 77.94995117 128.29296875 C76.00080846 130.48568896 73.97096603 132.54998063 71.87524414 134.60302734 C70.39146633 136.11405424 68.90838818 137.6257685 67.42602539 139.13818359 C66.7101123 139.8576416 65.99419922 140.57709961 65.2565918 141.31835938 C62.94826506 143.6603166 60.74194781 146.07831021 58.56274414 148.54052734 C53.74195172 153.94676704 48.82124584 159.25805381 43.90063477 164.57324219 C42.25963479 166.34796449 40.62172326 168.12549228 38.98461914 169.90380859 C38.44297119 170.49186279 37.90132324 171.07991699 37.34326172 171.68579102 C36.30620351 172.81185345 35.2695607 173.93829864 34.23339844 175.06518555 C32.93125466 176.47801713 31.62234349 177.88460379 30.31274414 179.29052734 C29.8293457 179.90669922 29.34594727 180.52287109 28.84790039 181.15771484 C26.30698201 183.03269278 24.35953999 182.72193207 21.31274414 182.29052734 C19.00415039 180.60302734 19.00415039 180.60302734 16.87524414 178.29052734 C15.70735352 177.04142578 15.70735352 177.04142578 14.51586914 175.76708984 C12.14128893 173.09779223 9.77586377 170.42382528 7.44946289 167.71240234 C4.51253665 164.38352799 1.47428173 161.15343322 -1.56225586 157.91552734 C-6.22545226 152.94047472 -10.84256878 147.93344078 -15.38256836 142.84521484 C-17.19592745 140.83515239 -19.02378313 138.843353 -20.86694336 136.86083984 C-21.41656738 136.26932129 -21.96619141 135.67780273 -22.5324707 135.06835938 C-23.61676551 133.90343834 -24.702962 132.74028381 -25.79125977 131.57910156 C-30.59328086 126.41822737 -30.59328086 126.41822737 -30.93725586 122.29052734 C-30.85475586 121.30052734 -30.77225586 120.31052734 -30.68725586 119.29052734 C-27.48319124 117.15448426 -26.69124839 117.04843827 -23.01928711 117.09521484 C-21.68027344 117.10488281 -21.68027344 117.10488281 -20.31420898 117.11474609 C-18.92105469 117.13988281 -18.92105469 117.13988281 -17.49975586 117.16552734 C-16.55938477 117.17455078 -15.61901367 117.18357422 -14.65014648 117.19287109 C-12.32892618 117.21643678 -10.00821942 117.24933618 -7.68725586 117.29052734 C-7.68909945 116.69969172 -7.69094303 116.10885609 -7.69284248 115.50011635 C-7.73697188 101.13733891 -7.77008821 86.77456751 -7.7908802 72.41173744 C-7.80120178 65.46603591 -7.81527887 58.52037956 -7.83813477 51.57470703 C-7.86016465 44.87686921 -7.87181126 38.17908813 -7.87701035 31.48121262 C-7.88071736 28.9206404 -7.88795578 26.36007088 -7.89871597 23.79951859 C-7.91314782 20.22436119 -7.91523729 16.64940039 -7.91430664 13.07421875 C-7.92149719 12.00607437 -7.92868774 10.93792999 -7.93609619 9.8374176 C-7.93334686 8.86704056 -7.93059753 7.89666351 -7.92776489 6.8968811 C-7.92960848 6.05067514 -7.93145206 5.20446918 -7.93335152 4.33262062 C-7.35762427 -0.44474421 -3.97074106 0.02876399 0 0 Z " fill="#B7DAFF" transform="translate(406.687255859375,26.70947265625)"/>
<path d="M0 0 C1.19141098 -0.0127597 2.38282196 -0.02551941 3.6103363 -0.03866577 C5.54937584 -0.04200424 5.54937584 -0.04200424 7.52758789 -0.04541016 C8.86275884 -0.05183495 10.19792836 -0.05856307 11.53309631 -0.06558228 C14.33329534 -0.07756577 17.13337089 -0.081262 19.93359375 -0.08007812 C23.52301819 -0.07987483 27.11165173 -0.10718116 30.70088863 -0.14162254 C33.4589858 -0.16385291 36.21689145 -0.16791689 38.97506905 -0.16685867 C40.94217403 -0.17036926 42.90921925 -0.19205721 44.87620544 -0.21395874 C46.07076859 -0.20780548 47.26533173 -0.20165222 48.49609375 -0.1953125 C49.54929306 -0.19816254 50.60249237 -0.20101257 51.68760681 -0.20394897 C54.31274414 0.29052734 54.31274414 0.29052734 55.9542675 2.02324867 C57.51775315 4.63268454 57.68356807 6.04334855 57.67350769 9.0614624 C57.67763168 10.01776047 57.68175568 10.97405853 57.68600464 11.95933533 C57.67521881 13.00158768 57.66443298 14.04384003 57.65332031 15.11767578 C57.65397743 16.77178215 57.65397743 16.77178215 57.65464783 18.45930481 C57.65255684 22.10635039 57.62921043 25.75293701 57.60571289 29.39990234 C57.60011806 31.92767078 57.59584743 34.45544248 57.59284973 36.98321533 C57.58256339 42.95784787 57.55891622 48.93228322 57.52880126 54.90683675 C57.49525642 61.70967882 57.47877106 68.51252882 57.46371496 75.31543303 C57.4323665 89.30722239 57.37960655 103.29886584 57.31274414 117.29052734 C57.90812988 117.28005371 58.50351562 117.26958008 59.11694336 117.25878906 C61.80716757 117.21728785 64.49732451 117.1912203 67.18774414 117.16552734 C68.12489258 117.14876953 69.06204102 117.13201172 70.02758789 117.11474609 C70.92348633 117.10830078 71.81938477 117.10185547 72.74243164 117.09521484 C73.56984863 117.08474121 74.39726562 117.07426758 75.24975586 117.06347656 C77.31274414 117.29052734 77.31274414 117.29052734 79.31274414 119.29052734 C79.99030052 122.85779437 80.0378422 125.22509305 77.94995117 128.29296875 C76.00080846 130.48568896 73.97096603 132.54998063 71.87524414 134.60302734 C70.39146633 136.11405424 68.90838818 137.6257685 67.42602539 139.13818359 C66.7101123 139.8576416 65.99419922 140.57709961 65.2565918 141.31835938 C62.94826506 143.6603166 60.74194781 146.07831021 58.56274414 148.54052734 C53.74195172 153.94676704 48.82124584 159.25805381 43.90063477 164.57324219 C42.25963479 166.34796449 40.62172326 168.12549228 38.98461914 169.90380859 C38.44297119 170.49186279 37.90132324 171.07991699 37.34326172 171.68579102 C36.30620351 172.81185345 35.2695607 173.93829864 34.23339844 175.06518555 C32.93125466 176.47801713 31.62234349 177.88460379 30.31274414 179.29052734 C29.8293457 179.90669922 29.34594727 180.52287109 28.84790039 181.15771484 C26.30698201 183.03269278 24.35953999 182.72193207 21.31274414 182.29052734 C19.00415039 180.60302734 19.00415039 180.60302734 16.87524414 178.29052734 C15.70735352 177.04142578 15.70735352 177.04142578 14.51586914 175.76708984 C12.14128893 173.09779223 9.77586377 170.42382528 7.44946289 167.71240234 C4.51253665 164.38352799 1.47428173 161.15343322 -1.56225586 157.91552734 C-6.22545226 152.94047472 -10.84256878 147.93344078 -15.38256836 142.84521484 C-17.19592745 140.83515239 -19.02378313 138.843353 -20.86694336 136.86083984 C-21.41656738 136.26932129 -21.96619141 135.67780273 -22.5324707 135.06835938 C-23.61676551 133.90343834 -24.702962 132.74028381 -25.79125977 131.57910156 C-30.59328086 126.41822737 -30.59328086 126.41822737 -30.93725586 122.29052734 C-30.85475586 121.30052734 -30.77225586 120.31052734 -30.68725586 119.29052734 C-27.48319124 117.15448426 -26.69124839 117.04843827 -23.01928711 117.09521484 C-21.68027344 117.10488281 -21.68027344 117.10488281 -20.31420898 117.11474609 C-18.92105469 117.13988281 -18.92105469 117.13988281 -17.49975586 117.16552734 C-16.55938477 117.17455078 -15.61901367 117.18357422 -14.65014648 117.19287109 C-12.32892618 117.21643678 -10.00821942 117.24933618 -7.68725586 117.29052734 C-7.68909945 116.69969172 -7.69094303 116.10885609 -7.69284248 115.50011635 C-7.73697188 101.13733891 -7.77008821 86.77456751 -7.7908802 72.41173744 C-7.80120178 65.46603591 -7.81527887 58.52037956 -7.83813477 51.57470703 C-7.86016465 44.87686921 -7.87181126 38.17908813 -7.87701035 31.48121262 C-7.88071736 28.9206404 -7.88795578 26.36007088 -7.89871597 23.79951859 C-7.91314782 20.22436119 -7.91523729 16.64940039 -7.91430664 13.07421875 C-7.92149719 12.00607437 -7.92868774 10.93792999 -7.93609619 9.8374176 C-7.93334686 8.86704056 -7.93059753 7.89666351 -7.92776489 6.8968811 C-7.92960848 6.05067514 -7.93145206 5.20446918 -7.93335152 4.33262062 C-7.35762427 -0.44474421 -3.97074106 0.02876399 0 0 Z M2.31274414 10.29052734 C2.28768799 13.76898193 2.26263184 17.24743652 2.23681641 20.83129883 C2.15352476 32.29461157 2.06486618 43.75787925 1.97340488 55.22112942 C1.91805724 62.17466466 1.86457277 69.12820502 1.81542969 76.08178711 C1.76804281 82.78613843 1.71552314 89.49043121 1.65980339 96.19471931 C1.63934491 98.75888825 1.62063776 101.32307175 1.60367012 103.88726616 C1.57970318 107.4650184 1.54963843 111.0426693 1.51806641 114.62036133 C1.51231094 115.69210098 1.50655548 116.76384064 1.50062561 117.86805725 C1.48594238 119.32156082 1.48594238 119.32156082 1.47096252 120.8044281 C1.4612837 122.07511973 1.4612837 122.07511973 1.45140934 123.3714819 C1.31274414 125.29052734 1.31274414 125.29052734 0.31274414 126.29052734 C-2.03712848 126.52580507 -4.39281625 126.70439151 -6.74975586 126.85302734 C-8.04010742 126.93681641 -9.33045898 127.02060547 -10.65991211 127.10693359 C-11.65893555 127.16751953 -12.65795898 127.22810547 -13.68725586 127.29052734 C-13.68725586 127.95052734 -13.68725586 128.61052734 -13.68725586 129.29052734 C-13.02725586 129.29052734 -12.36725586 129.29052734 -11.68725586 129.29052734 C-11.43331055 129.87318359 -11.17936523 130.45583984 -10.91772461 131.05615234 C-9.55405253 133.53240767 -8.04500383 135.0957336 -5.99975586 137.04052734 C-3.40804205 139.5675638 -0.91639535 142.10353618 1.43774414 144.85302734 C5.58574496 149.68434152 9.96617317 154.2962197 14.33862305 158.92358398 C17.48835086 162.27218243 20.50318152 165.6443704 23.31274414 169.29052734 C27.46507749 167.70027202 29.99042426 164.65257722 32.87524414 161.41552734 C33.40045654 160.83617432 33.92566895 160.25682129 34.46679688 159.65991211 C35.55572125 158.45858263 36.64237792 157.2551939 37.72680664 156.04980469 C39.6468916 153.91985822 41.58472502 151.80677723 43.52587891 149.69604492 C44.87317953 148.2302735 46.21601422 146.76040129 47.55883789 145.29052734 C49.49591912 143.17352928 51.44881938 141.07233772 53.41040039 138.97802734 C53.91692139 138.43412354 54.42344238 137.89021973 54.9453125 137.32983398 C55.91753754 136.28635803 56.89344184 135.24629421 57.87353516 134.21020508 C60.02666735 131.89166143 61.29750099 130.3362568 62.31274414 127.29052734 C60.81420898 127.21705078 60.81420898 127.21705078 59.28540039 127.14208984 C57.99504883 127.06732422 56.70469727 126.99255859 55.37524414 126.91552734 C54.0874707 126.84591797 52.79969727 126.77630859 51.47290039 126.70458984 C50.43004883 126.56794922 49.38719727 126.43130859 48.31274414 126.29052734 C47.11587184 123.89678274 47.17508994 122.39548072 47.15452576 119.72213745 C47.14473694 118.76017456 47.13494812 117.79821167 47.12486267 116.80709839 C47.11622948 115.21890793 47.11622948 115.21890793 47.10742188 113.59863281 C47.09752228 112.48643372 47.08762268 111.37423462 47.0774231 110.22833252 C47.04573959 106.53814856 47.02102358 102.84795171 46.99633789 99.15771484 C46.97577428 96.60466164 46.95477797 94.05161189 46.93336487 91.49856567 C46.88373871 85.45669028 46.83848931 79.41479731 46.7953425 73.37287343 C46.74598347 66.49505457 46.69106041 59.61728371 46.63566291 52.73951125 C46.52181887 38.58989295 46.41571969 24.4402287 46.31274414 10.29052734 C31.79274414 10.29052734 17.27274414 10.29052734 2.31274414 10.29052734 Z " fill="#2E58FF" transform="translate(406.687255859375,26.70947265625)"/>
<path d="M0 0 C8.00589097 6.86413402 12.60015308 15.99707578 13.9375 26.4375 C14.94487045 47.71438495 4.13458425 66.18749081 -9 82 C-10.93493948 84.11084307 -12.89278733 86.05914623 -15 88 C-11.48492406 96.28817906 -1.96520906 101.88002525 5.0625 107.125 C6.09528076 107.89674561 6.09528076 107.89674561 7.14892578 108.68408203 C10.08326695 110.86642374 13.02663256 113.01855688 16.02734375 115.109375 C21.79141906 119.2252708 21.79141906 119.2252708 22.875 123.25 C22 126 22 126 19.8125 128 C17 129 17 129 14.73828125 128.34765625 C11.37347754 126.69165442 8.39467397 124.64060606 5.375 122.4375 C4.76035889 121.99277344 4.14571777 121.54804688 3.51245117 121.08984375 C-6.20268004 113.997735 -15.18575569 106.16638883 -24 98 C-28.34122073 101.17195211 -32.53409672 104.44800577 -36.625 107.9375 C-42.32411364 112.63705198 -48.34873562 116.82206599 -54.4375 121 C-55.40961426 121.671521 -56.38172852 122.34304199 -57.38330078 123.03491211 C-58.30739746 123.66276611 -59.23149414 124.29062012 -60.18359375 124.9375 C-61.01431396 125.50339844 -61.84503418 126.06929687 -62.70092773 126.65234375 C-64.88898216 127.93492423 -66.49505301 128.67572655 -69 129 C-71.75 127.9375 -71.75 127.9375 -74 126 C-74.8125 123.1875 -74.8125 123.1875 -74 120 C-72.46508789 118.58276367 -72.46508789 118.58276367 -70.47265625 117.16796875 C-69.74747803 116.64726807 -69.0222998 116.12656738 -68.27514648 115.59008789 C-67.52434814 115.06535889 -66.7735498 114.54062988 -66 114 C-64.96564819 113.26801392 -64.96564819 113.26801392 -63.91040039 112.52124023 C-61.82040254 111.0483531 -59.7230288 109.58641869 -57.625 108.125 C-51.22244131 103.63735547 -45.02702455 98.98475715 -39 94 C-37.33517019 92.66437383 -35.66894149 91.33048482 -34 90 C-35.32237049 86.21230562 -36.94063865 83.64411307 -39.5625 80.625 C-54.43411753 62.37960354 -61.65811263 42.56470659 -60 19 C-58.50646438 10.20024956 -53.67959168 3.77441337 -47 -2 C-32.22030053 -11.53882681 -14.1851676 -9.74313579 0 0 Z M-45 12 C-50.47039052 19.40681195 -50.07429076 29.23023932 -49 38 C-45.91323497 54.37137541 -35.72696684 69.53247933 -24 81 C-11.57450376 69.79335353 0.71859677 52.23217445 2.37109375 35.16796875 C2.52876259 25.71711319 1.74452165 18.66877912 -4.50390625 11.203125 C-10.08736015 5.76766627 -17.95415459 2.8696968 -25.6875 2.5625 C-33.48588081 2.99342657 -39.85064047 6.12060469 -45 12 Z " fill="#2D57FF" transform="translate(385,299)"/>
<path d="M0 0 C7.22239801 4.62409629 12.25660317 11.42269314 14.5625 19.640625 C16.00479865 30.31918233 13.31196329 38.23867204 6.95703125 46.8046875 C2.65218414 51.61057382 -2.38976693 53.67405446 -8.4375 55.640625 C-9.4275 55.970625 -10.4175 56.300625 -11.4375 56.640625 C-21.03500101 57.31413384 -28.95433087 54.93909928 -36.390625 48.7421875 C-43.69902763 41.2385222 -45.78973111 33.70549412 -45.81811523 23.49584961 C-45.60935604 14.80244537 -42.40393329 9.21224493 -36.25 3.265625 C-24.93367399 -5.95923482 -12.76690887 -7.11489192 0 0 Z M-31.8125 14.140625 C-35.09603125 19.19221153 -36.1851639 23.60180121 -35.4375 29.640625 C-33.30332873 35.93643025 -30.59870458 40.63421724 -24.75 43.953125 C-19.56397594 46.31040867 -14.75893393 46.66680843 -9.30078125 44.98046875 C-4.15544188 42.71651943 -0.5573038 39.29334277 2.5625 34.640625 C4.44292493 28.9993502 4.342965 22.85878869 2.375 17.265625 C-1.07082543 12.2751192 -4.65775241 8.67423989 -10.4375 6.640625 C-19.64568667 5.3554333 -25.47087643 7.46523177 -31.8125 14.140625 Z " fill="#305AFF" transform="translate(253.4375,124.359375)"/>
<path d="M0 0 C6.34927692 4.74270078 10.6065969 10.20000582 13.25390625 17.68359375 C14.39851822 27.04079658 14.19654771 35.9760843 8.25390625 43.68359375 C2.61491056 49.82851802 -3.08434782 54.1133496 -11.578125 55.15234375 C-21.15854788 55.22755806 -28.31775978 54.41894891 -35.765625 47.921875 C-42.23960295 41.20256736 -44.92696002 33.94323321 -45.30859375 24.68359375 C-45.04871424 16.96265744 -43.10474108 11.32500194 -37.84375 5.62109375 C-27.54003508 -3.8717722 -12.65736201 -7.36087115 0 0 Z M-30.74609375 13.68359375 C-34.3693838 18.0833031 -34.88532826 23.13161776 -34.74609375 28.68359375 C-32.77952964 35.23880746 -29.43874315 40.15945258 -23.43359375 43.55859375 C-17.55709481 45.35142393 -13.12682961 45.56011324 -7.55859375 43.05859375 C-2.81072458 40.4188158 -0.06653849 37.07296994 2.56640625 32.30859375 C4.22817918 25.96364256 3.67002555 21.16722351 0.5234375 15.5078125 C-2.50331472 11.15860239 -6.5941643 8.06581872 -11.74609375 6.68359375 C-19.36268589 5.97835374 -25.22313467 8.46746573 -30.74609375 13.68359375 Z " fill="#2F59FF" transform="translate(156.74609375,198.31640625)"/>
<path d="M0 0 C7.39996211 4.27978423 12.78541385 10.66874155 15.5 18.8125 C16.38534859 27.53536068 15.17228088 35.01283718 9.76953125 42.07421875 C3.67284699 48.65766423 -2.49572406 51.94684412 -11.5 52.3125 C-19.52002641 52.00678108 -26.06765139 49.10662387 -31.92578125 43.6171875 C-37.80329539 36.87919362 -39.34113833 30.05101058 -38.9765625 21.21484375 C-37.82904442 13.02231715 -33.96158398 7.28633879 -27.51953125 2.21875 C-19.26458314 -3.52937634 -9.14017261 -4.3309936 0 0 Z M-23.046875 12.17578125 C-26.17485264 15.7361558 -28.45975529 19.10604343 -28.53125 23.9140625 C-28.17812552 29.19327341 -27.08737998 32.75309634 -23.5 36.8125 C-18.66177346 40.48955217 -14.93380221 41.46635852 -8.86328125 41.19921875 C-4.01756632 40.40628358 -1.33012177 37.75480039 1.8125 34.1875 C5.13524616 29.51104244 5.09028975 25.43711802 4.5 19.8125 C3.19724177 15.64524326 0.87088926 12.76035809 -2.8125 10.4375 C-9.79778773 7.00430539 -17.01746484 6.8619829 -23.046875 12.17578125 Z " fill="#305AFF" transform="translate(275.5,207.1875)"/>
<path d="M0 0 C5.84497882 2.98104566 10.56017022 8.12761725 13.4453125 13.9921875 C15.53532104 20.66804001 15.1017469 27.60093026 12.1875 33.9375 C8.27352143 40.80625676 2.8680583 45.27708251 -4.75 47.5625 C-12.81453701 48.68084874 -19.05982134 47.2104136 -25.75 42.5625 C-31.17687139 37.84547255 -34.05654911 32.25485105 -35.1015625 25.18359375 C-35.50691182 18.36732493 -33.59706637 13.15911162 -29.75 7.5625 C-27.61464646 5.20367923 -25.37356374 3.35290499 -22.75 1.5625 C-21.863125 0.94375 -20.97625 0.325 -20.0625 -0.3125 C-13.53871849 -2.52812391 -6.46963049 -2.4443318 0 0 Z M-18.75 11.5625 C-23.0462323 16.07905191 -24.10944799 19.16229397 -24.03125 25.2421875 C-23.47429063 29.83710233 -20.96011252 32.5252607 -17.5625 35.4375 C-13.55225661 37.04159736 -10.00954636 37.2461309 -5.75 36.5625 C-1.87273686 34.55206726 1.14824862 32.43414729 3.25 28.5625 C4.73734083 22.93185259 4.14253817 19.60111488 1.25 14.5625 C-1.29830169 11.65443807 -3.93910213 9.84455143 -7.625 8.5625 C-11.8203696 8.5625 -15.09148684 9.51092439 -18.75 11.5625 Z " fill="#305AFF" transform="translate(156.75,120.4375)"/>
<path d="M0 0 C6.03001077 3.33312406 11.28835954 8.48419555 13.8125 15 C14.87236757 23.85826161 14.34822999 31.76096848 8.8125 39 C3.55109198 44.09168518 -2.06566071 47.28022356 -9.5 47.3125 C-16.52177778 47.16149403 -22.52089998 45.50650221 -27.80078125 40.6171875 C-33.56712325 33.89249571 -35.01862634 27.01144556 -34.66796875 18.2734375 C-33.62267892 11.1518694 -29.51904508 6.61288074 -23.99609375 2.25390625 C-16.37051013 -3.03294546 -8.40863082 -3.78260596 0 0 Z M-22 14.6875 C-24.15307924 18.88033852 -24.90682041 23.40639403 -23.6328125 28 C-21.53951497 32.29774361 -18.62087644 34.53331478 -14.26953125 36.40625 C-9.53808993 37.75555409 -6.16276273 36.50638642 -1.9375 34.3125 C2.20491535 30.82910527 3.58240663 27.84074697 4.25 22.5 C3.56193987 16.99551896 1.19007438 14.18972333 -2.9375 10.625 C-10.62756323 6.77996839 -15.872168 8.9822771 -22 14.6875 Z " fill="#2F59FF" transform="translate(203.1875,261)"/>
</svg>
