<?xml version="1.0" encoding="UTF-8"?>
<svg version="1.1" xmlns="http://www.w3.org/2000/svg" width="512" height="512">
<path d="M0 0 C1.55694869 1.48270629 3.10097264 2.97677162 4.63525391 4.48291016 C5.96965414 5.78444114 7.33348609 7.05560486 8.69921875 8.32421875 C33.30805711 31.69682033 47.26763488 66.31978578 48.2890625 99.98046875 C49.02714344 139.84566099 34.89485079 174.29111694 11.0625 205.875 C10.7325 206.205 10.4025 206.535 10.0625 206.875 C10.12787595 208.56585991 10.26614726 210.25407507 10.4375 211.9375 C10.52773438 212.85660156 10.61796875 213.77570313 10.7109375 214.72265625 C10.96612898 217.01087316 11.26336201 219.29452483 11.5859375 221.57421875 C13.89774477 239.9965695 12.65627046 256.5633185 1.62109375 271.875 C-3.33982733 278.1471182 -9.53400746 282.23801511 -17.45703125 283.65625 C-28.78740311 284.6554639 -38.88480561 281.66452079 -47.9375 274.875 C-48.5975 274.215 -49.2575 273.555 -49.9375 272.875 C-53.94539713 273.09861658 -56.03375118 275.57260372 -58.8125 278.25 C-63.46809981 282.6318806 -68.31942482 286.63059193 -73.37451172 290.54077148 C-78.80855765 294.7490872 -84.13331506 299.08334272 -89.43237305 303.46020508 C-90.06312744 303.97736084 -90.69388184 304.4945166 -91.34375 305.02734375 C-91.89353516 305.48101318 -92.44332031 305.93468262 -93.00976562 306.40209961 C-95.56826963 308.35694443 -98.24668431 310.10850127 -100.9375 311.875 C-82.96107703 321.98649153 -64.55345463 331.17356803 -46.08502197 340.34075928 C-39.16465781 343.77643057 -32.24746615 347.21848136 -25.33203125 350.6640625 C-24.60027805 351.02859779 -23.86852486 351.39313309 -23.11459732 351.7687149 C14.34622262 370.44244525 14.34622262 370.44244525 16.0625 373.875 C16.62238858 379.66051532 16.62238858 379.66051532 16.0625 381.875 C12.30959573 385.43103789 8.36200211 387.10916385 3.52734375 388.6875 C2.78840378 388.93794067 2.04946381 389.18838135 1.28813171 389.44641113 C-1.1380215 390.26590869 -3.56881706 391.07055967 -6 391.875 C-7.69836976 392.44509936 -9.39644539 393.01607563 -11.09423828 393.58789062 C-15.49742892 395.06812667 -19.90469077 396.53584781 -24.31292725 398.00097656 C-27.69684884 399.12787494 -31.07782573 400.26343021 -34.45854187 401.39990234 C-38.40890215 402.72779945 -42.36048396 404.05203972 -46.3125 405.375 C-47.03833282 405.61798828 -47.76416565 405.86097656 -48.51199341 406.11132812 C-52.63214921 407.48848541 -56.75688179 408.85051847 -60.88659668 410.19873047 C-63.03480418 410.9070853 -65.17585446 411.63500741 -67.31738281 412.36328125 C-68.74523771 412.83655641 -70.1732912 413.30923296 -71.6015625 413.78125 C-72.25039398 414.00695679 -72.89922546 414.23266357 -73.56771851 414.46520996 C-77.73637491 415.81969475 -80.71176862 416.06263844 -84.9375 414.875 C-86.90600586 413.82202148 -86.90600586 413.82202148 -88.65234375 412.49609375 C-89.32595947 411.99561523 -89.9995752 411.49513672 -90.69360352 410.97949219 C-91.41346436 410.42938477 -92.1333252 409.87927734 -92.875 409.3125 C-94.48551172 408.11651099 -96.0975649 406.92259566 -97.7109375 405.73046875 C-98.56139648 405.09931152 -99.41185547 404.4681543 -100.28808594 403.81787109 C-104.80297691 400.50700652 -109.39955167 397.31541112 -114 394.125 C-114.95430908 393.46226074 -115.90861816 392.79952148 -116.8918457 392.11669922 C-125.31089935 386.28367207 -133.77100405 380.51096729 -142.2590332 374.77880859 C-146.62284715 371.82943406 -150.97546894 368.87991127 -155.2265625 365.76953125 C-155.82839355 365.33310303 -156.43022461 364.8966748 -157.05029297 364.44702148 C-158.53737065 363.35976502 -160.01164072 362.2550451 -161.484375 361.1484375 C-163.84829248 359.66653979 -163.84829248 359.66653979 -166.4453125 359.9609375 C-169.33447461 361.02059884 -171.53111411 362.36852816 -174.0625 364.125 C-175.11179688 364.84558594 -176.16109375 365.56617188 -177.2421875 366.30859375 C-177.82581055 366.7144873 -178.40943359 367.12038086 -179.01074219 367.53857422 C-181.1274138 369.00672683 -183.25414589 370.45945227 -185.3828125 371.91015625 C-189.45459688 374.68602985 -193.51993496 377.47116002 -197.58300781 380.25976562 C-199.75983284 381.75311635 -201.93824116 383.24412201 -204.1171875 384.734375 C-210.9649854 389.42280595 -217.78129869 394.15319346 -224.5625 398.9375 C-225.26753662 399.43362793 -225.97257324 399.92975586 -226.69897461 400.44091797 C-230.13173138 402.86343281 -233.54036939 405.31080747 -236.91015625 407.8203125 C-237.85157471 408.51435181 -237.85157471 408.51435181 -238.81201172 409.22241211 C-239.98074768 410.08629465 -241.14310527 410.95890726 -242.29736328 411.84204102 C-245.88166715 414.47989045 -248.51847437 415.52769634 -252.9375 415.875 C-255.46829332 415.30941628 -257.74141864 414.67807537 -260.17578125 413.83984375 C-260.87748444 413.61003815 -261.57918762 413.38023254 -262.30215454 413.14346313 C-264.62266119 412.37953545 -266.93615158 411.59634162 -269.25 410.8125 C-270.88126831 410.27042856 -272.5128669 409.72935012 -274.14477539 409.18920898 C-279.41599951 407.43831499 -284.67698211 405.65775072 -289.9375 403.875 C-291.77893093 403.25281003 -293.62040253 402.63074041 -295.46191406 402.00878906 C-306.57758019 398.25111647 -317.68571743 394.47163068 -328.77020264 390.62286377 C-330.88680871 389.89249191 -333.0075395 389.17540502 -335.12939453 388.46044922 C-336.40017872 388.02474529 -337.67085612 387.58872974 -338.94140625 387.15234375 C-340.03396729 386.78230225 -341.12652832 386.41226074 -342.25219727 386.03100586 C-344.86610866 384.90573352 -346.28708953 384.17145126 -347.9375 381.875 C-348.70801386 374.9403753 -348.70801386 374.9403753 -346.5390625 371.94140625 C-342.65572602 368.85689424 -338.33309157 366.8879067 -333.875 364.75 C-326.95394903 361.39433892 -320.10942911 357.9266691 -313.31640625 354.3203125 C-300.18417018 347.36197638 -286.8518829 340.80223432 -273.54394531 334.18847656 C-270.19508602 332.5232391 -266.84721167 330.85604664 -263.5 329.1875 C-262.42596924 328.6524585 -261.35193848 328.11741699 -260.24536133 327.56616211 C-252.67394203 323.78016244 -245.16455295 319.88854552 -237.72094727 315.85668945 C-237.01123779 315.47601318 -236.30152832 315.09533691 -235.5703125 314.703125 C-234.96074707 314.3721582 -234.35118164 314.04119141 -233.72314453 313.70019531 C-231.81942894 312.82043613 -229.98288101 312.32001542 -227.9375 311.875 C-227.9375 311.215 -227.9375 310.555 -227.9375 309.875 C-228.51765869 309.60042969 -229.09781738 309.32585937 -229.69555664 309.04296875 C-231.88980406 307.8998478 -233.80558849 306.63647197 -235.80859375 305.1875 C-236.54110352 304.65882324 -237.27361328 304.13014648 -238.02832031 303.58544922 C-238.80272461 303.02100098 -239.57712891 302.45655273 -240.375 301.875 C-241.17905273 301.29121582 -241.98310547 300.70743164 -242.81152344 300.10595703 C-250.91152469 294.20286724 -258.86014408 288.11808969 -266.70703125 281.8828125 C-267.33963867 281.38152832 -267.97224609 280.88024414 -268.62402344 280.36376953 C-269.84233026 279.39692479 -271.05798951 278.42673099 -272.27050781 277.45263672 C-275.04044773 275.25174056 -277.67653601 273.27825101 -280.9375 271.875 C-281.35 272.26171875 -281.7625 272.6484375 -282.1875 273.046875 C-290.95916852 280.95704036 -300.18378009 284.36338478 -312.0625 283.75 C-320.51294246 282.8086575 -327.20245077 279.1537785 -332.9375 272.875 C-341.4375728 261.38318316 -344.12039691 251.0528827 -344.125 236.9375 C-344.1343457 235.91060059 -344.14369141 234.88370117 -344.15332031 233.82568359 C-344.15145624 227.88768914 -343.58124514 222.75461881 -342.1875 217 C-341.26725912 211.21654169 -342.3752122 208.35224986 -345.58203125 203.70483398 C-347.76778163 200.78817346 -350.02794293 197.93356762 -352.2890625 195.07519531 C-375.20415424 164.49006398 -384.13261526 123.36643113 -379.06176758 85.93261719 C-374.37106613 56.22790115 -361.5685706 30.62954474 -340.9375 8.875 C-340.09445312 7.97910156 -339.25140625 7.08320312 -338.3828125 6.16015625 C-300.99132223 -32.47771703 -245.95231765 -48.12806564 -193.9375 -53.125 C-193.19097168 -53.19702637 -192.44444336 -53.26905273 -191.67529297 -53.34326172 C-126.77213726 -59.24924523 -49.28001851 -45.79743598 0 0 Z M-273.9375 22.875 C-275.23300781 23.98294922 -275.23300781 23.98294922 -276.5546875 25.11328125 C-279.06346365 27.32085175 -281.50734474 29.58141544 -283.9375 31.875 C-284.68644531 32.55949219 -285.43539062 33.24398437 -286.20703125 33.94921875 C-305.16160638 51.90793179 -316.48287449 77.32830462 -318.15625 103.265625 C-318.39196448 112.02634635 -317.34309051 120.4443984 -314.9375 128.875 C-314.2775 129.535 -313.6175 130.195 -312.9375 130.875 C-312.3501709 129.48885498 -312.3501709 129.48885498 -311.75097656 128.07470703 C-269.94965445 29.52563415 -269.94965445 29.52563415 -243.5625 16.72265625 C-236.50811576 14.44467801 -228.23794701 14.80572046 -221.5 17.875 C-209.44422896 24.98632899 -203.50157826 39.04616859 -199.83984375 52.04296875 C-194.35073419 75.35386259 -193.06396024 99.03159152 -191.9375 122.875 C-185.9975 122.875 -180.0575 122.875 -173.9375 122.875 C-173.93163376 121.57065506 -173.92576752 120.26631012 -173.91972351 118.92243958 C-173.8625341 106.63589382 -173.7897921 94.3495257 -173.70178509 82.0631609 C-173.6570396 75.74646592 -173.61779251 69.42983606 -173.59106445 63.11303711 C-173.56507345 57.01805552 -173.52470042 50.92332397 -173.47431374 44.82849693 C-173.45761664 42.50210363 -173.44612012 40.17566705 -173.43988609 37.84922218 C-173.43027615 34.59298046 -173.40225311 31.3373826 -173.36987305 28.08129883 C-173.37130814 27.11744766 -173.37274323 26.1535965 -173.3742218 25.16053772 C-173.30567973 20.29322457 -173.20505489 16.77705526 -169.9375 12.875 C-168 12.2109375 -168 12.2109375 -165.9375 12.25 C-165.256875 12.23710938 -164.57625 12.22421875 -163.875 12.2109375 C-161.9375 12.875 -161.9375 12.875 -160.34342957 14.77861023 C-158.32633217 19.2210232 -158.49793989 23.25424009 -158.50512695 28.08129883 C-158.48983948 29.61858139 -158.48983948 29.61858139 -158.47424316 31.18692017 C-158.44408997 34.56867931 -158.43484344 37.95015528 -158.42578125 41.33203125 C-158.40893634 43.67902062 -158.39078635 46.02600096 -158.37138367 48.37297058 C-158.32385746 54.54606301 -158.29406485 60.71911881 -158.26794434 66.89233398 C-158.2381522 73.19327019 -158.19161719 79.49408018 -158.14648438 85.79492188 C-158.06042131 98.15488194 -157.99308922 110.51486795 -157.9375 122.875 C-151.9975 122.875 -146.0575 122.875 -139.9375 122.875 C-139.82792969 120.68746094 -139.71835937 118.49992188 -139.60546875 116.24609375 C-135.65303631 40.11086755 -135.65303631 40.11086755 -116 21.9375 C-108.92610679 16.31023786 -103.4545547 15.25053057 -94.4453125 15.4609375 C-89.1555889 16.08533694 -85.31409333 17.91762806 -80.9375 20.875 C-80.3496875 21.26300781 -79.761875 21.65101562 -79.15625 22.05078125 C-62.91445671 34.4236568 -52.56709914 56.6745245 -43.99316406 74.67382812 C-42.8348158 77.08910748 -41.6487205 79.48969064 -40.4609375 81.890625 C-32.58925698 97.93021662 -25.72212084 114.35486284 -18.9375 130.875 C-18.2775 130.875 -17.6175 130.875 -16.9375 130.875 C-11.17816984 102.55829337 -14.95987545 76.62749956 -30.84765625 51.90234375 C-35.40327321 45.46289314 -40.52603147 39.60369255 -45.9375 33.875 C-46.96617187 32.74964844 -46.96617187 32.74964844 -48.015625 31.6015625 C-75.72533675 2.35242232 -120.73737693 -11.89638911 -160.08203125 -13.34765625 C-199.39271819 -14.25774062 -243.58899417 -3.23993683 -273.9375 22.875 Z M-251.21484375 41.41015625 C-269.84251105 64.48037704 -281.51720708 93.43849228 -292.96368408 120.56872559 C-293.98830355 122.99531732 -295.01715413 125.42008816 -296.04638672 127.84472656 C-308.10438563 156.29004836 -320.04592057 184.65510216 -326.9375 214.875 C-327.20304687 216.00421875 -327.46859375 217.1334375 -327.7421875 218.296875 C-330.268584 230.825033 -331.43599335 247.22675244 -324.35546875 258.36328125 C-320.61177641 263.47721392 -317.35182218 266.76336022 -311.25 268.75 C-304.8062988 268.99315854 -298.97782098 267.06149073 -293.8125 263.1875 C-288.50836959 258.16197038 -285.8322138 251.26551467 -282.80859375 244.73681641 C-279.93166374 238.5878623 -277.10349802 233.39524827 -271.9375 228.875 C-271.256875 228.194375 -270.57625 227.51375 -269.875 226.8125 C-259.76424745 220.14370576 -247.69173609 219.41918862 -235.9375 220.875 C-231.03885303 221.93043259 -226.50284356 223.8401941 -221.9375 225.875 C-220.0866097 226.65366756 -218.23272644 227.42528577 -216.375 228.1875 C-215.63121094 228.51363281 -214.88742188 228.83976563 -214.12109375 229.17578125 C-211.52599807 230.12913431 -211.52599807 230.12913431 -206.9375 229.875 C-206.9375 199.515 -206.9375 169.155 -206.9375 137.875 C-217.44528252 136.65699963 -217.44528252 136.65699963 -221.875 141.375 C-223.26522023 143.18114678 -224.61408696 145.01934475 -225.9375 146.875 C-226.88196121 148.13540919 -227.83013536 149.39304146 -228.78125 150.6484375 C-230.85298529 153.38929444 -232.90782857 156.141715 -234.953125 158.90234375 C-243.70069051 170.63819051 -243.70069051 170.63819051 -247.9375 174.875 C-253.67361111 175.14814815 -253.67361111 175.14814815 -255.9375 174.875 C-257.9375 172.875 -257.9375 172.875 -258.3203125 169.1171875 C-258.19401117 164.6645644 -256.70287497 162.42941596 -253.8125 159 C-252.90583392 157.88966255 -251.99961105 156.77896308 -251.09375 155.66796875 C-250.59488281 155.07032715 -250.09601563 154.47268555 -249.58203125 153.85693359 C-246.42997118 150.05817711 -243.37238669 146.18554709 -240.3125 142.3125 C-239.68456543 141.5385791 -239.05663086 140.7646582 -238.40966797 139.96728516 C-237.82846191 139.23429199 -237.24725586 138.50129883 -236.6484375 137.74609375 C-236.12556152 137.09568115 -235.60268555 136.44526855 -235.06396484 135.77514648 C-233.59753076 133.66969124 -233.59753076 133.66969124 -233.9375 129.875 C-235.70262736 127.92469854 -237.39769442 126.26967376 -239.375 124.5625 C-240.18674683 123.83945679 -240.18674683 123.83945679 -241.01489258 123.10180664 C-244.96515021 119.61833943 -249.05234706 116.33991451 -253.29296875 113.21484375 C-254.9375 111.875 -254.9375 111.875 -255.9375 109.875 C-256.3899237 103.65417415 -256.3899237 103.65417415 -254.8125 100.9375 C-251.86352991 99.26641695 -250.30260272 99.30356746 -246.9375 99.875 C-239.74013795 103.7821394 -233.5624041 110.470756 -227.42578125 115.8515625 C-226.52339722 116.62983398 -226.52339722 116.62983398 -225.6027832 117.42382812 C-224.16851224 118.67368982 -222.76818944 119.96231622 -221.375 121.2578125 C-218.26359422 123.32211056 -216.32045015 123.28743737 -212.625 123.125 C-211.55636719 123.08890625 -210.48773438 123.0528125 -209.38671875 123.015625 C-208.57847656 122.96921875 -207.77023438 122.9228125 -206.9375 122.875 C-206.06081567 96.5257653 -205.73100135 56.19576816 -223.9375 34.875 C-227.07921017 32.01889984 -229.37170708 30.05706894 -233.625 29.5625 C-241.56347556 30.31141279 -246.20799774 35.66323346 -251.21484375 41.41015625 Z M-109 36 C-124.89050606 59.5794606 -125.84922609 95.47256594 -124.9375 122.875 C-120.13124365 123.92217317 -115.44124676 124.39456958 -111.07421875 121.74414062 C-107.03276946 118.64402269 -103.38440589 115.11186415 -99.72851562 111.57275391 C-97.13345871 109.11282673 -94.40339725 106.87608364 -91.625 104.625 C-90.33142578 103.56539062 -90.33142578 103.56539062 -89.01171875 102.484375 C-85.54061436 99.79116406 -83.32482344 99.51685115 -78.9375 99.875 C-77.0625 100.9375 -77.0625 100.9375 -75.9375 102.875 C-75.4375 106.25 -75.4375 106.25 -75.9375 109.875 C-77.55981838 111.92993662 -78.94389159 113.23372954 -80.9375 114.875 C-82.54440763 116.33031257 -84.1482924 117.78896626 -85.75 119.25 C-90.11675384 123.15847383 -94.51334006 127.03166552 -98.9375 130.875 C-97.57383058 133.80874528 -95.99954273 136.24481327 -93.99609375 138.78125 C-93.41617676 139.51939941 -92.83625977 140.25754883 -92.23876953 141.01806641 C-91.31620361 142.18474854 -91.31620361 142.18474854 -90.375 143.375 C-89.11049537 144.99725421 -87.84617277 146.61965032 -86.58203125 148.2421875 C-84.42159975 151.00245777 -82.23927746 153.73902064 -80.01171875 156.4453125 C-73.41372613 164.67438783 -73.41372613 164.67438783 -73.25 169.5 C-73.9375 172.875 -73.9375 172.875 -75.9375 174.875 C-79.15796145 175.42084092 -80.8666443 175.66657341 -83.9375 174.875 C-86.82536425 172.65206161 -88.79406129 169.7990738 -90.9375 166.875 C-92.10149109 165.37301149 -93.26560214 163.87111377 -94.43212891 162.37109375 C-95.70788767 160.72367286 -96.97227949 159.06806253 -98.234375 157.41015625 C-101.1052741 153.64554669 -104.01572855 149.91271026 -106.9375 146.1875 C-107.40639648 145.58728027 -107.87529297 144.98706055 -108.35839844 144.36865234 C-110.13978413 142.09970885 -111.89564922 139.91685078 -113.9375 137.875 C-117.5675 137.875 -121.1975 137.875 -124.9375 137.875 C-124.9375 168.235 -124.9375 198.595 -124.9375 229.875 C-118.34884742 229.19839389 -118.34884742 229.19839389 -112.578125 227.28125 C-111.85496094 226.97316406 -111.13179688 226.66507813 -110.38671875 226.34765625 C-109.29810547 225.86619141 -109.29810547 225.86619141 -108.1875 225.375 C-106.71458676 224.73716453 -105.24065958 224.1016643 -103.765625 223.46875 C-103.1252832 223.18708984 -102.48494141 222.90542969 -101.82519531 222.61523438 C-92.72625507 219.04720711 -79.72299697 219.42059499 -70.625 222.625 C-59.01920144 227.77518488 -53.58517968 235.02884294 -48.5 246.3125 C-44.76899233 254.55553433 -40.94581222 262.75184757 -32.375 266.875 C-26.27382872 268.64988619 -21.77799414 269.55094719 -15.85546875 267.0078125 C-9.04806974 262.98714914 -5.47965557 255.35806276 -3.40478516 247.98095703 C8.58644066 193.93899575 -42.47520854 101.07452386 -70.046875 56.78515625 C-80.00687508 40.69410048 -80.00687508 40.69410048 -94.9375 29.875 C-101.15403437 28.86005561 -104.77520083 31.64717661 -109 36 Z M-191.9375 137.875 C-191.90269531 144.41183594 -191.86789063 150.94867188 -191.83203125 157.68359375 C-191.81669499 161.83529544 -191.80225255 165.986962 -191.79101562 170.13867188 C-191.77311176 176.72232353 -191.75197589 183.3058495 -191.71118164 189.8894043 C-191.67848428 195.1997369 -191.66062507 200.50993464 -191.65286827 205.82036018 C-191.64734338 207.84206323 -191.63655471 209.86375926 -191.62030983 211.88540459 C-191.59839764 214.72641584 -191.59553883 217.56687625 -191.59692383 220.40795898 C-191.586138 221.23586945 -191.57535217 222.06377991 -191.5642395 222.91677856 C-191.59397791 228.5880994 -192.48247228 233.71512914 -194.9375 238.875 C-198.85683345 242.69873996 -201.70888249 243.95704715 -207.0625 244.4375 C-207.97257813 244.52128906 -208.88265625 244.60507812 -209.8203125 244.69140625 C-210.51898438 244.75199219 -211.21765625 244.81257813 -211.9375 244.875 C-208.49255544 248.61874077 -204.59558548 251.37121483 -200.4375 254.25 C-199.70571533 254.76095215 -198.97393066 255.2719043 -198.2199707 255.79833984 C-196.63803537 256.90278813 -195.05506887 258.00576058 -193.47119141 259.10742188 C-190.81120273 260.96310871 -188.16067057 262.83172151 -185.51171875 264.703125 C-183.71619858 265.96882483 -181.92062667 267.23445126 -180.125 268.5 C-179.27164063 269.10376465 -178.41828125 269.7075293 -177.5390625 270.32958984 C-176.73597656 270.89371582 -175.93289062 271.4578418 -175.10546875 272.0390625 C-174.39672607 272.53873535 -173.6879834 273.0384082 -172.95776367 273.55322266 C-170.07209519 275.45745867 -170.07209519 275.45745867 -166.9375 276.875 C-164.09626558 275.52931645 -161.67706928 274.14596269 -159.0625 272.4375 C-158.28672607 271.94685059 -157.51095215 271.45620117 -156.71166992 270.95068359 C-146.62441928 264.50862342 -136.75617301 257.71726663 -126.9375 250.875 C-126.21224121 250.37323242 -125.48698242 249.87146484 -124.73974609 249.35449219 C-123.12014457 248.22113672 -121.52540562 247.05235273 -119.9375 245.875 C-119.9375 245.545 -119.9375 245.215 -119.9375 244.875 C-120.58976562 244.84921875 -121.24203125 244.8234375 -121.9140625 244.796875 C-127.65022821 244.42461646 -131.46625703 243.80096944 -135.9375 239.875 C-140.48635499 233.91443139 -140.08208197 227.00435304 -140.05102539 219.84033203 C-140.05117142 218.95188095 -140.05131744 218.06342987 -140.0514679 217.14805603 C-140.05077406 214.22628291 -140.04300647 211.30457441 -140.03515625 208.3828125 C-140.03329019 206.35114578 -140.03186717 204.31947861 -140.03086853 202.28781128 C-140.02705815 196.95148467 -140.01724051 191.61518545 -140.00616455 186.27886963 C-139.99411584 179.87026536 -139.98954115 173.46165191 -139.98371124 167.05303955 C-139.97402795 157.32700734 -139.95486103 147.60103519 -139.9375 137.875 C-157.0975 137.875 -174.2575 137.875 -191.9375 137.875 Z " fill="#1E81CE" transform="translate(421.9375,75.125)"/>
<path d="M0 0 C0.82310669 -0.00067474 1.64621338 -0.00134949 2.4942627 -0.00204468 C16.65982674 0.01623722 30.45098295 0.87759192 44.4375 3.25 C45.5301416 3.43224121 46.6227832 3.61448242 47.74853516 3.80224609 C60.9508455 6.05372999 73.83424637 8.67238918 86.4375 13.25 C87.64865479 13.68119141 87.64865479 13.68119141 88.88427734 14.12109375 C110.78714434 21.96884093 131.84619344 31.76640759 149.4375 47.25 C150.26636719 47.95769531 151.09523438 48.66539063 151.94921875 49.39453125 C172.13107312 66.9784075 185.91134683 88.21000268 192.4375 114.25 C192.95183594 115.87035156 192.95183594 115.87035156 193.4765625 117.5234375 C202.55624401 152.7348853 191.2200686 188.0531854 173.4375 218.25 C171.49083173 221.2877582 169.48849305 224.28180928 167.4375 227.25 C164.8870933 224.6995933 164.2810622 222.40634535 163.08984375 219 C162.87308487 218.38608398 162.65632599 217.77216797 162.43299866 217.13964844 C161.74159423 215.17828286 161.05803434 213.21429432 160.375 211.25 C159.68687826 209.28627109 158.99715809 207.32311575 158.30628967 205.36035156 C157.68039078 203.57978846 157.05872338 201.79773962 156.43725586 200.015625 C155.52999627 197.33790487 155.52999627 197.33790487 154.4375 195.25 C153.99319914 190.22430171 155.19995117 186.93398937 157.25 182.375 C165.7416551 162.10185987 165.91310093 138.39387893 160.4375 117.25 C160.03724609 115.61804688 160.03724609 115.61804688 159.62890625 113.953125 C154.85575281 96.55763247 144.89954027 80.9714979 133.4375 67.25 C132.66599609 66.29287109 132.66599609 66.29287109 131.87890625 65.31640625 C128.14651774 60.77482782 123.95506048 56.99844176 119.4375 53.25 C118.32761719 52.30833984 118.32761719 52.30833984 117.1953125 51.34765625 C95.9737735 33.77900511 69.19361776 21.52626365 42.4375 15.25 C41.60911621 15.05390137 40.78073242 14.85780273 39.92724609 14.65576172 C10.33673208 8.02648921 -22.22993076 9.0434455 -51.5625 16.25 C-52.37960449 16.44223145 -53.19670898 16.63446289 -54.03857422 16.83251953 C-77.48635837 22.47632905 -100.93437067 33.97941067 -119.5625 49.25 C-120.1188916 49.69569336 -120.6752832 50.14138672 -121.24853516 50.60058594 C-142.96043343 68.04433327 -158.1199578 90.33656458 -165.5625 117.25 C-165.954375 118.4875 -166.34625 119.725 -166.75 121 C-172.01583702 142.06334807 -168.83312087 164.19436525 -161.12109375 184.02734375 C-160.59923048 185.43403288 -160.07934435 186.84145909 -159.5625 188.25 C-159.25183594 189.06984375 -158.94117188 189.8896875 -158.62109375 190.734375 C-158.52083022 195.03902268 -160.48986395 198.66888005 -162.1875 202.5625 C-165.86552083 211.32844965 -168.91196287 220.12603563 -171.5625 229.25 C-175.41174896 225.81664691 -177.80978666 221.91049755 -180.375 217.5 C-180.81223389 216.75065186 -181.24946777 216.00130371 -181.69995117 215.22924805 C-185.94295579 207.81313269 -189.41456743 200.18443069 -192.5625 192.25 C-193.03558594 191.07824219 -193.50867188 189.90648437 -193.99609375 188.69921875 C-199.39093454 174.56377537 -200.83481502 161.5617108 -200.875 146.5625 C-200.88055908 145.25611572 -200.88611816 143.94973145 -200.8918457 142.60375977 C-200.65183917 110.12492702 -188.37156221 81.90533202 -166.5625 58.25 C-165.84707031 57.45207031 -165.13164062 56.65414062 -164.39453125 55.83203125 C-134.51399874 24.10202671 -88.81643133 8.77303524 -46.8125 2.5 C-46.04655518 2.38422607 -45.28061035 2.26845215 -44.49145508 2.14916992 C-29.79081488 0.14155315 -14.81444675 0.01114124 0 0 Z " fill="#99C8FE" transform="translate(258.5625,36.75)"/>
<path d="M0 0 C7.31289979 2.31524164 12.45387025 7.65100251 16.1015625 14.234375 C18.98613911 20.33064516 18.98613911 20.33064516 17.80078125 23.88671875 C15.7890625 25.7265625 15.7890625 25.7265625 13.11328125 27.82421875 C9.30085869 30.86139966 5.55773707 33.93831271 1.88647461 37.14428711 C-5.11309867 43.25080794 -12.3702885 48.93853098 -19.78125 54.53515625 C-23.51611682 57.35639297 -27.20620831 60.230573 -30.88720703 63.12158203 C-46.0251433 74.99994965 -61.74622105 86.03813214 -77.53369141 97.03027344 C-80.29226749 98.9515239 -83.04856831 100.87600826 -85.8046875 102.80078125 C-98.0151613 111.32039251 -110.28633957 119.74652441 -122.59863281 128.11816406 C-134.96397223 136.52733781 -147.27668206 145.00536141 -159.515625 153.59765625 C-160.2802002 154.12713867 -161.04477539 154.65662109 -161.83251953 155.20214844 C-163.50530322 156.39280322 -165.14719956 157.62742459 -166.76513672 158.89160156 C-167.61865723 159.54225586 -168.47217773 160.19291016 -169.3515625 160.86328125 C-170.49419556 161.76554443 -170.49419556 161.76554443 -171.65991211 162.68603516 C-177.86484033 165.61996814 -185.5719253 161.58262669 -191.671875 159.46484375 C-192.67198105 159.12298035 -193.6720871 158.78111694 -194.70249939 158.42889404 C-197.89093228 157.33730953 -201.0762966 156.23705395 -204.26171875 155.13671875 C-206.37546255 154.41221026 -208.48939323 153.68824676 -210.60351562 152.96484375 C-221.16200697 149.34592231 -231.70371565 145.68480562 -242.19921875 141.88671875 C-239.94887603 139.395974 -237.77248176 138.00211287 -234.76171875 136.5390625 C-233.86453125 136.09755859 -232.96734375 135.65605469 -232.04296875 135.20117188 C-231.10453125 134.74677734 -230.16609375 134.29238281 -229.19921875 133.82421875 C-222.15071724 130.38807427 -215.17753331 126.83672274 -208.25 123.1640625 C-198.93493926 118.23187597 -189.51839273 113.5208804 -180.07342529 108.84350586 C-165.45261753 101.59604396 -150.93929216 94.24680622 -136.69970703 86.27148438 C-133.98308278 84.76702306 -131.24831319 83.30034186 -128.5078125 81.83984375 C-113.1305592 73.63780101 -98.09965811 64.9249071 -83.19921875 55.88671875 C-82.15701172 55.25475586 -81.11480469 54.62279297 -80.04101562 53.97167969 C-56.96843698 39.91571828 -33.93303864 24.82429876 -13.12109375 7.53515625 C-12.48695557 7.01348877 -11.85281738 6.49182129 -11.19946289 5.9543457 C-10.03147988 4.98456587 -8.87580635 3.99966722 -7.73608398 2.99682617 C-4.98308522 0.70849042 -3.63539629 -0.12872588 0 0 Z " fill="#9AC8FE" transform="translate(344.19921875,310.11328125)"/>
<path d="M0 0 C1.56284407 0.66804433 3.10057482 1.39701566 4.61230469 2.17382812 C5.94089508 2.85088806 5.94089508 2.85088806 7.29632568 3.54162598 C8.24525696 4.0332019 9.19418823 4.52477783 10.171875 5.03125 C11.16769592 5.54119507 12.16351685 6.05114014 13.18951416 6.57653809 C16.37932955 8.21194811 19.56462272 9.85596541 22.75 11.5 C24.84737928 12.57606085 26.94503292 13.65158712 29.04296875 14.7265625 C38.89733211 19.78311101 48.73249555 24.87347348 58.50323486 30.09008789 C67.36778859 34.81800439 76.39257478 39.23336528 85.4140625 43.65234375 C87.25521001 44.55989243 89.09635587 45.46744447 90.9375 46.375 C91.82091064 46.80417725 92.70432129 47.23335449 93.61450195 47.67553711 C94.83979614 48.2808728 94.83979614 48.2808728 96.08984375 48.8984375 C96.82066162 49.25599121 97.55147949 49.61354492 98.30444336 49.98193359 C100 51 100 51 101 53 C90.86834277 56.47853834 80.73358334 59.9477825 70.59422302 63.40380859 C65.9233362 64.99721911 61.25650949 66.60137843 56.59550476 68.22346497 C53.54578505 69.28255313 50.49117547 70.32738245 47.4375 71.375 C46.34074951 71.76163818 45.24399902 72.14827637 44.11401367 72.54663086 C42.60158081 73.06108765 42.60158081 73.06108765 41.05859375 73.5859375 C40.19548584 73.8854834 39.33237793 74.1850293 38.44311523 74.49365234 C34.87590574 75.23297407 32.28961762 74.76019386 29.15405273 72.91186523 C28.58630127 72.46528564 28.0185498 72.01870605 27.43359375 71.55859375 C26.78970703 71.06157959 26.14582031 70.56456543 25.48242188 70.05249023 C24.80759766 69.51954346 24.13277344 68.98659668 23.4375 68.4375 C22.00055612 67.33091618 20.56174135 66.22675766 19.12109375 65.125 C18.41710449 64.58617187 17.71311523 64.04734375 16.98779297 63.4921875 C13.4631836 60.84634957 9.7842514 58.45048275 6.09765625 56.0390625 C2.51045686 53.67775344 -1.02777757 51.25135893 -4.5625 48.8125 C-9.03625861 45.72769435 -13.51255057 42.64690407 -18 39.58203125 C-18.84232178 39.00670654 -19.68464355 38.43138184 -20.55249023 37.83862305 C-22.18182898 36.72624792 -23.81152807 35.61440036 -25.44165039 34.50317383 C-26.92938232 33.48709576 -28.41523611 32.46826063 -29.89892578 31.44628906 C-31.29866162 30.48277116 -32.70331377 29.52635629 -34.11279297 28.57714844 C-35.7774954 27.43504142 -37.3944586 26.22387884 -39 25 C-39 24.34 -39 23.68 -39 23 C-36.74142872 21.31068715 -34.47693018 19.73812699 -32.125 18.1875 C-27.36834372 15.01026773 -22.67357067 11.79261855 -18.10546875 8.34765625 C-17.30544434 7.74864502 -16.50541992 7.14963379 -15.68115234 6.5324707 C-14.12185989 5.35906375 -12.57108683 4.17423518 -11.02978516 2.97729492 C-10.31483887 2.44338135 -9.59989258 1.90946777 -8.86328125 1.359375 C-8.23719971 0.87952148 -7.61111816 0.39966797 -6.96606445 -0.09472656 C-4.26886673 -1.33664996 -2.84707862 -0.73964488 0 0 Z " fill="#9AC8FE" transform="translate(309,399)"/>
<path d="M0 0 C2.59057875 1.61970662 4.82777215 3.61856772 7.125 5.625 C8.55418194 6.82922119 9.98660682 8.02960179 11.421875 9.2265625 C12.17017578 9.85079102 12.91847656 10.47501953 13.68945312 11.11816406 C17.48730317 14.21134117 21.42098228 17.11069724 25.375 20 C26.16817627 20.57991699 26.96135254 21.15983398 27.77856445 21.75732422 C30.18260156 23.5092088 32.59065686 25.25542167 35 27 C35.7822998 27.56783203 36.56459961 28.13566406 37.37060547 28.72070312 C43.95826024 33.5012466 50.54715207 38.27967748 57.203125 42.96484375 C57.85627686 43.42600586 58.50942871 43.88716797 59.18237305 44.36230469 C60.40247812 45.22228785 61.62515809 46.07863378 62.85083008 46.93066406 C66.88899248 49.77798495 66.88899248 49.77798495 68 52 C67.25838623 52.41362793 66.51677246 52.82725586 65.75268555 53.25341797 C62.99578642 54.79182082 60.23950783 56.331328 57.48364258 57.87158203 C56.29183222 58.53738882 55.0997771 59.20275769 53.9074707 59.86767578 C52.19157316 60.82468742 50.47663386 61.78341652 48.76171875 62.7421875 C47.73006592 63.3182373 46.69841309 63.89428711 45.63549805 64.48779297 C43.7156323 65.58938152 41.84170566 66.77219623 40 68 C35.50403651 67.46667428 32.40276247 64.50529239 28.9375 61.8125 C27.50204126 60.7151782 26.06581036 59.61886595 24.62890625 58.5234375 C23.49799561 57.6586377 23.49799561 57.6586377 22.34423828 56.77636719 C18.39082594 53.7806342 14.37906158 50.86495786 10.375 47.9375 C2.44829419 42.12122871 -5.30442925 36.11699214 -13 30 C-15.99473206 27.65985418 -18.99612822 25.32839797 -22 23 C-21.10752006 15.95355956 -18.3381144 9.22519721 -13.15234375 4.21484375 C-9.01309128 1.20048367 -5.13812892 -0.77144712 0 0 Z " fill="#99C8FE" transform="translate(172,310)"/>
</svg>
