<?xml version="1.0" encoding="UTF-8"?>
<svg version="1.1" xmlns="http://www.w3.org/2000/svg" width="512" height="512">
<path d="M0 0 C1.27397392 -0.01469078 1.27397392 -0.01469078 2.57368469 -0.02967834 C21.67002704 -0.20445109 40.13057034 -0.01310179 58.84765625 4.23828125 C59.79398926 4.45258789 60.74032227 4.66689453 61.71533203 4.88769531 C81.34841366 9.50131839 100.11032725 16.6654524 117.84765625 26.23828125 C119.00265625 26.851875 120.15765625 27.46546875 121.34765625 28.09765625 C147.32650147 42.38602112 170.95717694 62.65034048 188.58007812 86.52197266 C189.83707719 88.22395714 191.11491945 89.90873123 192.39453125 91.59375 C199.15236565 100.62858138 204.64333295 110.24159792 209.84765625 120.23828125 C210.20069824 120.90633789 210.55374023 121.57439453 210.91748047 122.26269531 C221.47012618 142.45871138 227.94474294 164.85927058 231.84765625 187.23828125 C232.04246582 188.32206055 232.04246582 188.32206055 232.24121094 189.42773438 C238.84631715 228.17029013 233.13416045 272.24947561 217.1796875 307.9921875 C215.47082445 312.15660155 215.53106077 313.92277385 216.84765625 318.23828125 C217.8460058 319.74702299 218.89417782 321.22323598 219.97265625 322.67578125 C232.8554948 340.1444862 236.47943889 362.4468261 233.50634766 383.67529297 C232.63816272 388.31468775 231.3424999 392.75894073 229.84765625 397.23828125 C229.55890625 398.15480469 229.27015625 399.07132812 228.97265625 400.015625 C221.73428793 420.47047834 203.75346603 436.34655255 184.80078125 445.75 C170.18961799 452.18586953 155.56502306 453.42246914 139.84765625 453.23828125 C139.86860352 453.96829346 139.88955078 454.69830566 139.91113281 455.45043945 C139.99522552 458.81707508 140.04660904 462.1834887 140.09765625 465.55078125 C140.14792969 467.27264648 140.14792969 467.27264648 140.19921875 469.02929688 C140.33021821 480.5899993 137.50160827 489.52797266 129.84765625 498.23828125 C129.34621094 498.84414063 128.84476562 499.45 128.328125 500.07421875 C122.86779398 506.15896718 114.92217507 510.70817755 106.84765625 512.23828125 C104.29855625 512.3380673 101.77662506 512.38610488 99.2275238 512.38545227 C98.45599238 512.38912896 97.68446096 512.39280565 96.88954979 512.39659375 C94.30192944 512.40761454 91.71434927 512.41147174 89.12670898 512.4152832 C87.272068 512.42154917 85.41742827 512.42819609 83.56278992 512.43519592 C77.46895215 512.45622661 71.37511417 512.46659886 65.28125 512.4765625 C63.18146311 512.48061073 61.08167635 512.48472767 58.98188972 512.48891258 C49.11421241 512.50796377 39.24654257 512.52219374 29.3788504 512.53052455 C17.99976064 512.54029058 6.62086573 512.5665939 -4.75815541 512.60702544 C-13.56003531 512.63722317 -22.36185948 512.65199699 -31.16379017 512.65530556 C-36.41739769 512.65765228 -41.67079703 512.66656332 -46.92434883 512.69176674 C-51.87135317 512.71511577 -56.81801327 512.71925324 -61.76505852 512.70900536 C-63.5745801 512.70851151 -65.38411903 512.71478705 -67.19358826 512.7285614 C-80.78722114 512.82619865 -91.54535088 511.55889413 -102.15234375 502.23828125 C-102.75820312 501.73683594 -103.3640625 501.23539062 -103.98828125 500.71875 C-110.09795414 495.23605227 -114.56425846 487.32543782 -116.15234375 479.23828125 C-116.23325467 477.21359414 -116.25993274 475.18643506 -116.25 473.16015625 C-116.24516602 471.41992188 -116.24516602 471.41992188 -116.24023438 469.64453125 C-116.22766602 467.8346875 -116.22766602 467.8346875 -116.21484375 465.98828125 C-116.21033203 464.76625 -116.20582031 463.54421875 -116.20117188 462.28515625 C-116.1893919 459.26948179 -116.17294228 456.25390627 -116.15234375 453.23828125 C-117.03792969 453.27308594 -117.92351562 453.30789063 -118.8359375 453.34375 C-144.40804776 453.90255782 -167.25412641 446.15873684 -185.984375 428.40625 C-201.79089074 412.59973426 -210.32585644 393.33744031 -210.46484375 370.98828125 C-210.46484375 351.40315439 -205.64673764 333.75996517 -193.0859375 318.328125 C-191.11349915 313.91283413 -193.03141078 309.3473101 -194.60546875 305.03125 C-195.20030515 303.4944919 -195.79946925 301.9594038 -196.40234375 300.42578125 C-204.53777154 278.93081733 -210.14801191 255.85718314 -210.390625 232.77734375 C-210.40041885 231.99748611 -210.41021271 231.21762848 -210.42030334 230.41413879 C-211.01552986 170.62146898 -192.89272519 113.41347691 -150.65820312 69.79541016 C-149.59592492 68.69696489 -148.54056138 67.59181204 -147.49023438 66.48193359 C-138.13656053 56.6117833 -128.21628545 48.1346809 -117.15234375 40.23828125 C-116.22518555 39.56804932 -116.22518555 39.56804932 -115.27929688 38.88427734 C-98.39137483 26.76843099 -79.78850283 17.91159452 -60.15234375 11.23828125 C-59.32379883 10.9561377 -58.49525391 10.67399414 -57.64160156 10.38330078 C-39.09919903 4.19155401 -19.59196142 0.18800348 0 0 Z " fill="#F3F3F3" transform="translate(244.15234375,-0.23828125)"/>
<path d="M0 0 C1.27397392 -0.01469078 1.27397392 -0.01469078 2.57368469 -0.02967834 C21.67002704 -0.20445109 40.13057034 -0.01310179 58.84765625 4.23828125 C59.79398926 4.45258789 60.74032227 4.66689453 61.71533203 4.88769531 C81.34841366 9.50131839 100.11032725 16.6654524 117.84765625 26.23828125 C119.00265625 26.851875 120.15765625 27.46546875 121.34765625 28.09765625 C147.32650147 42.38602112 170.95717694 62.65034048 188.58007812 86.52197266 C189.83707719 88.22395714 191.11491945 89.90873123 192.39453125 91.59375 C199.15236565 100.62858138 204.64333295 110.24159792 209.84765625 120.23828125 C210.20069824 120.90633789 210.55374023 121.57439453 210.91748047 122.26269531 C221.47012618 142.45871138 227.94474294 164.85927058 231.84765625 187.23828125 C232.04246582 188.32206055 232.04246582 188.32206055 232.24121094 189.42773438 C238.84631715 228.17029013 233.13416045 272.24947561 217.1796875 307.9921875 C215.47082445 312.15660155 215.53106077 313.92277385 216.84765625 318.23828125 C217.8460058 319.74702299 218.89417782 321.22323598 219.97265625 322.67578125 C232.8554948 340.1444862 236.47943889 362.4468261 233.50634766 383.67529297 C232.63816272 388.31468775 231.3424999 392.75894073 229.84765625 397.23828125 C229.55890625 398.15480469 229.27015625 399.07132812 228.97265625 400.015625 C221.73428793 420.47047834 203.75346603 436.34655255 184.80078125 445.75 C170.18961799 452.18586953 155.56502306 453.42246914 139.84765625 453.23828125 C139.86860352 453.96829346 139.88955078 454.69830566 139.91113281 455.45043945 C139.99522552 458.81707508 140.04660904 462.1834887 140.09765625 465.55078125 C140.14792969 467.27264648 140.14792969 467.27264648 140.19921875 469.02929688 C140.33021821 480.5899993 137.50160827 489.52797266 129.84765625 498.23828125 C129.34621094 498.84414063 128.84476562 499.45 128.328125 500.07421875 C122.86779398 506.15896718 114.92217507 510.70817755 106.84765625 512.23828125 C104.29855625 512.3380673 101.77662506 512.38610488 99.2275238 512.38545227 C98.45599238 512.38912896 97.68446096 512.39280565 96.88954979 512.39659375 C94.30192944 512.40761454 91.71434927 512.41147174 89.12670898 512.4152832 C87.272068 512.42154917 85.41742827 512.42819609 83.56278992 512.43519592 C77.46895215 512.45622661 71.37511417 512.46659886 65.28125 512.4765625 C63.18146311 512.48061073 61.08167635 512.48472767 58.98188972 512.48891258 C49.11421241 512.50796377 39.24654257 512.52219374 29.3788504 512.53052455 C17.99976064 512.54029058 6.62086573 512.5665939 -4.75815541 512.60702544 C-13.56003531 512.63722317 -22.36185948 512.65199699 -31.16379017 512.65530556 C-36.41739769 512.65765228 -41.67079703 512.66656332 -46.92434883 512.69176674 C-51.87135317 512.71511577 -56.81801327 512.71925324 -61.76505852 512.70900536 C-63.5745801 512.70851151 -65.38411903 512.71478705 -67.19358826 512.7285614 C-80.78722114 512.82619865 -91.54535088 511.55889413 -102.15234375 502.23828125 C-102.75820312 501.73683594 -103.3640625 501.23539062 -103.98828125 500.71875 C-110.09795414 495.23605227 -114.56425846 487.32543782 -116.15234375 479.23828125 C-116.23325467 477.21359414 -116.25993274 475.18643506 -116.25 473.16015625 C-116.24516602 471.41992188 -116.24516602 471.41992188 -116.24023438 469.64453125 C-116.22766602 467.8346875 -116.22766602 467.8346875 -116.21484375 465.98828125 C-116.21033203 464.76625 -116.20582031 463.54421875 -116.20117188 462.28515625 C-116.1893919 459.26948179 -116.17294228 456.25390627 -116.15234375 453.23828125 C-117.03792969 453.27308594 -117.92351562 453.30789063 -118.8359375 453.34375 C-144.40804776 453.90255782 -167.25412641 446.15873684 -185.984375 428.40625 C-201.79089074 412.59973426 -210.32585644 393.33744031 -210.46484375 370.98828125 C-210.46484375 351.40315439 -205.64673764 333.75996517 -193.0859375 318.328125 C-191.11349915 313.91283413 -193.03141078 309.3473101 -194.60546875 305.03125 C-195.20030515 303.4944919 -195.79946925 301.9594038 -196.40234375 300.42578125 C-204.53777154 278.93081733 -210.14801191 255.85718314 -210.390625 232.77734375 C-210.40041885 231.99748611 -210.41021271 231.21762848 -210.42030334 230.41413879 C-211.01552986 170.62146898 -192.89272519 113.41347691 -150.65820312 69.79541016 C-149.59592492 68.69696489 -148.54056138 67.59181204 -147.49023438 66.48193359 C-138.13656053 56.6117833 -128.21628545 48.1346809 -117.15234375 40.23828125 C-116.22518555 39.56804932 -116.22518555 39.56804932 -115.27929688 38.88427734 C-98.39137483 26.76843099 -79.78850283 17.91159452 -60.15234375 11.23828125 C-59.32379883 10.9561377 -58.49525391 10.67399414 -57.64160156 10.38330078 C-39.09919903 4.19155401 -19.59196142 0.18800348 0 0 Z M-85.15234375 41.23828125 C-85.75385254 41.55909668 -86.35536133 41.87991211 -86.97509766 42.21044922 C-133.79789347 67.35200497 -169.16981796 111.58823106 -184.7265625 162.2578125 C-186.94586472 169.84738663 -188.71804639 177.46419035 -190.15234375 185.23828125 C-190.301875 186.00446777 -190.45140625 186.7706543 -190.60546875 187.56005859 C-195.0164678 210.7035439 -194.71328142 235.15077888 -190.15234375 258.23828125 C-189.98605469 259.12241699 -189.81976563 260.00655273 -189.6484375 260.91748047 C-186.78872267 275.85419468 -182.27352537 290.06031752 -175.93359375 303.8984375 C-173.85930859 310.11092155 -174.42649273 317.71915123 -176.21484375 323.92578125 C-178.48806143 327.81225019 -180.93430495 331.57119805 -183.37890625 335.3515625 C-192.66393326 350.46529589 -195.30321346 366.76134962 -191.96484375 384.171875 C-187.19787039 402.16261579 -175.95499605 416.65089806 -160.15234375 426.23828125 C-155.90824519 428.48949875 -151.60680044 430.44125104 -147.15234375 432.23828125 C-145.88003906 432.75261719 -145.88003906 432.75261719 -144.58203125 433.27734375 C-135.45446899 436.33893987 -125.64997783 435.48944297 -116.15234375 435.23828125 C-115.89530118 426.83813017 -117.98401125 420.47292175 -123.40234375 413.98828125 C-129.96480309 407.07823402 -137.24271789 402.6281389 -146.15234375 399.23828125 C-146.81234375 399.23828125 -147.47234375 399.23828125 -148.15234375 399.23828125 C-148.34785713 397.63507151 -148.53346358 396.03065139 -148.71484375 394.42578125 C-148.87146484 393.08580078 -148.87146484 393.08580078 -149.03125 391.71875 C-149.15234375 389.23828125 -149.15234375 389.23828125 -148.15234375 386.23828125 C-138.51934714 384.11575657 -131.29916551 387.19439402 -122.96875 392.12109375 C-111.30093939 400.17708528 -103.55386061 411.78350701 -100.56471252 425.69476318 C-99.84428625 430.13840044 -99.89452107 434.5551302 -99.9140625 439.046875 C-99.89864768 441.11393889 -99.88234441 443.18099632 -99.86523438 445.24804688 C-99.84879385 448.46474647 -99.83985515 451.68096691 -99.84692383 454.89770508 C-99.84955851 458.03129732 -99.82133171 461.16347317 -99.7890625 464.296875 C-99.79926926 465.24509628 -99.80947601 466.19331757 -99.81999207 467.17027283 C-99.70685989 474.98684646 -97.53901587 481.57105949 -92.16264343 487.39280701 C-84.37849932 494.75446339 -77.59419319 495.67705042 -67.21484375 495.42578125 C-65.61672852 495.40547852 -65.61672852 495.40547852 -63.98632812 495.38476562 C-61.37446787 495.34962849 -58.76367741 495.30043309 -56.15234375 495.23828125 C-56.14823486 494.1080957 -56.14412598 492.97791016 -56.13989258 491.81347656 C-56.11810352 487.61607395 -56.06381701 483.41960908 -55.99975586 479.22265625 C-55.97657372 477.40699254 -55.96217961 475.59119432 -55.95678711 473.77539062 C-55.94749872 471.16320964 -55.90651438 468.55314475 -55.859375 465.94140625 C-55.86330765 465.13084778 -55.8672403 464.32028931 -55.87129211 463.48516846 C-55.76979256 459.55559285 -55.52313949 457.64528553 -52.8347168 454.69433594 C-49.14918982 452.69374589 -47.12220184 453.062027 -43.15234375 454.23828125 C-40.38498716 456.76379091 -40.14373309 458.31496526 -39.7199707 462.08886719 C-39.67895237 463.63314531 -39.6530158 465.17788316 -39.640625 466.72265625 C-39.62398804 467.44598145 -39.60735107 468.16930664 -39.59020996 468.91455078 C-39.53256284 471.60550129 -39.50019585 474.29694551 -39.46484375 476.98828125 C-39.36171875 483.01078125 -39.25859375 489.03328125 -39.15234375 495.23828125 C-25.29234375 495.23828125 -11.43234375 495.23828125 2.84765625 495.23828125 C3.09708691 483.5710069 3.09708691 483.5710069 3.32568359 471.90332031 C3.36090082 470.43683069 3.39682333 468.97035775 3.43359375 467.50390625 C3.45063354 466.36864502 3.45063354 466.36864502 3.46801758 465.21044922 C3.65866081 458.26919801 3.65866081 458.26919801 5.84765625 455.23828125 C8.84765625 453.23828125 8.84765625 453.23828125 12.34765625 453.42578125 C15.72528159 454.20987285 16.8807961 454.50653104 18.84765625 457.23828125 C20.43011616 460.40320107 20.08931848 463.8287021 20.1640625 467.30859375 C20.18271362 468.0142749 20.20136475 468.71995605 20.22058105 469.44702148 C20.28893114 472.08564616 20.34904642 474.72447896 20.41015625 477.36328125 C20.62671875 486.21140625 20.62671875 486.21140625 20.84765625 495.23828125 C34.70765625 495.23828125 48.56765625 495.23828125 62.84765625 495.23828125 C62.97848349 483.28692982 62.97848349 483.28692982 63.05541992 471.33520508 C63.08187885 469.83020548 63.11015892 468.32523632 63.140625 466.8203125 C63.13464294 465.66033752 63.13464294 465.66033752 63.12854004 464.47692871 C63.23858474 460.28375301 63.53283891 458.65073077 66.1652832 455.2019043 C68.84765625 453.23828125 68.84765625 453.23828125 72.47265625 453.23828125 C75.79577732 454.22290971 76.79155085 454.61863071 78.84765625 457.23828125 C79.17897506 460.17225808 79.33635731 462.90537606 79.359375 465.84375 C79.3863018 467.1025573 79.3863018 467.1025573 79.41377258 468.38679504 C79.46794188 471.06640604 79.50179198 473.74583827 79.53515625 476.42578125 C79.56832354 478.24286346 79.60281265 480.05992205 79.63867188 481.87695312 C79.72367197 486.3306003 79.79045127 490.78419384 79.84765625 495.23828125 C83.47221639 495.38556583 87.09599146 495.47300351 90.72265625 495.55078125 C91.73585938 495.59267578 92.7490625 495.63457031 93.79296875 495.67773438 C102.12625158 495.81128057 108.77555054 494.00934893 114.99755859 488.24731445 C121.88178687 480.99170265 123.28453099 474.36513632 123.25390625 464.66015625 C123.26474243 463.65293518 123.27557861 462.64571411 123.28674316 461.60797119 C123.3208635 458.40134239 123.3365601 455.19506724 123.34765625 451.98828125 C123.3623343 447.77440516 123.39624533 443.5613041 123.44140625 439.34765625 C123.43838501 438.39832214 123.43536377 437.44898804 123.43225098 436.47088623 C123.59492855 421.70838228 129.25544611 407.6487218 139.84765625 397.23828125 C147.27138902 391.37803502 155.59681195 386.21880585 165.03515625 384.73828125 C167.84765625 385.23828125 167.84765625 385.23828125 170.78515625 387.17578125 C173.38993794 391.0434874 173.01800461 393.00067804 172.2421875 397.4453125 C172.04689453 398.33283203 172.04689453 398.33283203 171.84765625 399.23828125 C171.31398438 399.38523437 170.7803125 399.5321875 170.23046875 399.68359375 C158.91555365 403.08981387 148.39590753 409.55962577 142.41015625 420.05078125 C140.22264563 424.8787232 140.04008839 430.00412714 139.84765625 435.23828125 C161.99832468 435.73854729 180.90521161 431.1933349 197.53125 415.58203125 C210.45684447 402.50385809 217.16015625 385.99229366 217.16015625 367.68969727 C216.82275133 350.71017799 208.67757157 337.15208721 199.84765625 323.23828125 C195.91476788 311.43961614 200.28379744 301.16281725 204.8046875 290.31640625 C220.227395 253.0981784 219.95128103 210.1862946 210.84765625 171.55078125 C210.47423096 169.96463013 210.47423096 169.96463013 210.09326172 168.34643555 C208.25191812 159.97255144 208.25191812 159.97255144 202.69042969 153.84448242 C201.8709082 153.49361572 201.05138672 153.14274902 200.20703125 152.78125 C199.30082031 152.39130859 198.39460938 152.00136719 197.4609375 151.59960938 C196.04361328 151.01856445 196.04361328 151.01856445 194.59765625 150.42578125 C193.66824219 150.01908203 192.73882812 149.61238281 191.78125 149.19335938 C182.91352772 145.46189208 176.69452034 145.97217518 167.66015625 148.67578125 C166.08340292 149.13305252 164.50658231 149.59009187 162.9296875 150.046875 C161.89678589 150.35322876 161.89678589 150.35322876 160.84301758 150.66577148 C154.17570551 152.57875898 147.49628002 154.111419 141.03808594 150.79589844 C137.20629514 148.14603957 133.57239825 145.28643809 129.921875 142.39453125 C125.1783392 138.59167686 125.1783392 138.59167686 119.47924805 137.19067383 C117.21298258 137.68067616 117.21298258 137.68067616 115.02734375 138.48339844 C112.73820479 139.27618716 110.79329668 139.49023266 108.3828125 139.640625 C99.93499592 140.47936312 99.93499592 140.47936312 93.13378906 145.12255859 C90.02623766 149.79807544 87.85499369 154.85131024 85.77148438 160.04785156 C84.68707634 162.61902198 83.27622119 164.88440907 81.78515625 167.23828125 C79.35210422 171.97060925 79.56547719 176.66086498 79.47265625 181.86328125 C79.24322363 192.02150786 79.24322363 192.02150786 76.03515625 195.67578125 C74.66165443 196.88904119 73.26176156 198.07259985 71.84765625 199.23828125 C70.26384637 200.80528678 68.71543634 202.40382922 67.16333008 204.00219727 C59.27972038 212.10568272 59.27972038 212.10568272 54.47265625 212.55078125 C50.84765625 212.23828125 50.84765625 212.23828125 48.41015625 210.61328125 C46.84765625 208.23828125 46.84765625 208.23828125 46.16015625 205.48828125 C47.38712292 199.68807517 51.83037394 195.88849479 56.31640625 192.21875 C59.86897361 189.18894967 62.51080238 186.88190718 63.47290039 182.1875 C63.57310545 172.4669084 61.00479155 165.7964722 56.34765625 157.36328125 C55.71872119 156.17587004 55.0924026 154.98706916 54.46875 153.796875 C52.95339437 150.92935589 51.41349607 148.07844815 49.84765625 145.23828125 C40.18873099 144.51419024 30.52879812 144.01775939 20.84765625 143.73828125 C20.14265739 143.7178841 19.43765854 143.69748695 18.71129608 143.67647171 C-3.17686877 142.6624064 -3.17686877 142.6624064 -22.06549072 152.13308716 C-26.41134993 156.53869762 -30.0205627 161.57729571 -33.12255859 166.92163086 C-35.15234375 169.23828125 -35.15234375 169.23828125 -38.70556641 170.20141602 C-42.15234375 170.23828125 -42.15234375 170.23828125 -45.08984375 168.17578125 C-47.52650861 164.70537978 -47.64698102 163.38802763 -47.15234375 159.23828125 C-45.53515625 156.81640625 -45.53515625 156.81640625 -43.27734375 154.48828125 C-42.06111328 153.21597656 -42.06111328 153.21597656 -40.8203125 151.91796875 C-39.93988281 151.03367187 -39.05945313 150.149375 -38.15234375 149.23828125 C-37.21079659 148.2826909 -36.26939124 147.32696081 -35.328125 146.37109375 C-32.95140896 143.97742539 -30.56003459 141.60073364 -28.15234375 139.23828125 C-31.29675015 135.72331536 -34.76829699 133.63289731 -38.89453125 131.47265625 C-40.22276612 130.74083808 -41.54954522 130.00637269 -42.875 129.26953125 C-44.93925976 128.12645899 -47.00578883 126.99942142 -49.10205078 125.91601562 C-57.30785209 121.64829676 -62.8350304 118.04914964 -65.94921875 109.0390625 C-66.75444344 106.45221547 -67.45381634 103.85809585 -68.15234375 101.23828125 C-68.92683314 99.04464077 -69.7151394 96.85573915 -70.52734375 94.67578125 C-71.94768023 90.27751242 -72.91737269 86.82845489 -72.15234375 82.23828125 C-70.52734375 79.80078125 -70.52734375 79.80078125 -68.15234375 78.23828125 C-65.21484375 77.67578125 -65.21484375 77.67578125 -62.15234375 78.23828125 C-58.24539844 81.10979575 -56.87388867 83.54272079 -55.93359375 88.16015625 C-54.07893734 97.04322593 -51.97681654 104.6950622 -44.31970215 110.1451416 C-37.63844701 114.504776 -30.53109937 118.1234541 -23.36376953 121.6081543 C-20.68852989 122.96611196 -18.31762964 124.40129365 -15.86328125 126.109375 C-9.40721787 130.25699028 -1.3429412 130.32771722 6.06298828 129.17138672 C14.84210939 126.22961915 21.25126445 117.24853106 26.84765625 110.23828125 C25.15695333 104.60879789 22.75507146 99.40133367 20.22265625 94.11328125 C19.82175781 93.21996094 19.42085937 92.32664062 19.0078125 91.40625 C18.59144531 90.54386719 18.17507813 89.68148437 17.74609375 88.79296875 C17.38177246 88.01421387 17.01745117 87.23545898 16.64208984 86.43310547 C12.46383703 81.32256223 5.0299667 79.42298088 -1.01171875 77.1796875 C-2.47160437 76.62370341 -3.93123258 76.06704302 -5.390625 75.50976562 C-7.65489545 74.64952017 -9.92055932 73.79400919 -12.19091797 72.94995117 C-14.40744464 72.12346182 -16.61603924 71.27818376 -18.82421875 70.4296875 C-19.50031189 70.18368301 -20.17640503 69.93767853 -20.87298584 69.68421936 C-28.54417963 66.69846802 -31.0624879 60.8528163 -34.48046875 53.875 C-35.07127228 52.68702568 -35.07127228 52.68702568 -35.67401123 51.47505188 C-36.92248336 48.96140446 -38.16251532 46.44370145 -39.40234375 43.92578125 C-40.25074689 42.21391744 -41.09969944 40.5023258 -41.94921875 38.79101562 C-44.02330005 34.60989458 -46.08982538 30.42511748 -48.15234375 26.23828125 C-60.03969329 26.23828125 -74.83846438 35.66970414 -85.15234375 41.23828125 Z " fill="#010101" transform="translate(244.15234375,-0.23828125)"/>
<path d="M0 0 C2.27551706 -0.09666432 4.54975934 -0.1599775 6.82666016 -0.21386719 C7.53282471 -0.24375732 8.23898926 -0.27364746 8.96655273 -0.30444336 C14.06382467 -0.36096492 16.96738868 0.79739906 20.82666016 4.09863281 C22.07006721 8.12142035 22.2709106 10.12551279 20.51416016 13.97363281 C18.82666016 16.09863281 18.82666016 16.09863281 16.82666016 17.09863281 C15.1196328 17.16859295 13.40998013 17.18303435 11.70166016 17.16113281 C10.79158203 17.15210938 9.88150391 17.14308594 8.94384766 17.13378906 C7.89583984 17.11638672 7.89583984 17.11638672 6.82666016 17.09863281 C7.41833984 17.94683594 8.01001953 18.79503906 8.61962891 19.66894531 C19.73619743 36.01697851 24.13102064 52.87738658 21.33056641 72.59082031 C16.75824381 92.06839794 6.08326618 107.97997735 -10.62255859 119.05175781 C-26.3821089 128.53851946 -46.8317246 131.42365089 -64.79833984 127.19238281 C-81.57180964 122.28519562 -95.95453394 110.78774183 -105.17333984 96.09863281 C-107.39654546 91.8478255 -109.3563751 87.53679259 -111.17333984 83.09863281 C-111.53556641 82.27234375 -111.89779297 81.44605469 -112.27099609 80.59472656 C-114.22385513 75.19266195 -114.40659369 69.66879007 -114.48583984 63.97363281 C-114.51484375 63.27109375 -114.54384766 62.56855469 -114.57373047 61.84472656 C-114.61398742 58.56842996 -114.41484344 56.47181048 -112.61865234 53.69628906 C-109.44827323 51.62490718 -106.41166339 51.15147528 -102.73583984 50.66113281 C-84.39002992 47.67664699 -71.70057826 39.14418214 -59.79833984 25.16113281 C-45.97294083 9.35625833 -30.20216885 2.2172229 -9.36083984 0.41113281 C-6.24103261 0.24897334 -3.12062153 0.14162335 0 0 Z " fill="#020203" transform="translate(217.17333984375,229.9013671875)"/>
<path d="M0 0 C13.25597533 4.64499252 22.39636776 13.75422464 31.62475586 23.94824219 C37.63099313 30.57186668 43.2580344 36.10237678 51.35546875 40.17578125 C52.13921875 40.58054687 52.92296875 40.9853125 53.73046875 41.40234375 C59.92791113 44.23604273 66.11735199 44.89136044 72.83984375 45.390625 C77.51836074 46.43549379 79.14913441 47.59706721 82.35546875 51.17578125 C85.35680958 64.67411926 79.84297646 80.11620928 73.078125 91.65625 C69.93353105 96.25548604 66.27814257 100.23336243 62.35546875 104.17578125 C61.35773438 105.22572266 61.35773438 105.22572266 60.33984375 106.296875 C46.95402297 119.40169572 29.25803204 123.73429006 11.07055664 123.6640625 C-6.59027809 123.18181622 -21.4623167 115.87856258 -34.30078125 103.70703125 C-48.49169199 88.38084765 -54.51178318 70.09563013 -53.95703125 49.421875 C-53.2176223 35.78902244 -46.88948006 22.845715 -38.64453125 12.17578125 C-39.30839844 12.23378906 -39.97226562 12.29179687 -40.65625 12.3515625 C-47.84580921 12.71891224 -47.84580921 12.71891224 -51.76953125 10.05078125 C-53.99356949 6.64058929 -54.39265974 5.16579986 -53.64453125 1.17578125 C-44.92567592 -11.90250174 -13.06312009 -3.85033015 0 0 Z " fill="#020203" transform="translate(326.64453125,234.82421875)"/>
<path d="M0 0 C6.70414743 -0.62041143 11.66609643 1.5252648 17.75 4.1875 C18.69488281 4.57486328 19.63976562 4.96222656 20.61328125 5.36132812 C21.97259766 5.94624023 21.97259766 5.94624023 23.359375 6.54296875 C24.17889648 6.89383545 24.99841797 7.24470215 25.84277344 7.60620117 C31.72744612 11.40832842 32.50570867 18.96538878 34 25.3125 C34.26055176 26.41827393 34.52110352 27.52404785 34.78955078 28.66333008 C39.03782901 47.37142961 40.67206057 65.84428532 40 85 C39.95746094 86.25941406 39.91492188 87.51882812 39.87109375 88.81640625 C38.56696326 112.76246186 32.76742306 138.46515389 22 160 C21.11861169 169.36789857 21.96543784 176.06595178 27 184 C37.31396152 200.68593775 43.36142478 217.58106956 38.8125 237.25 C33.59114533 255.1138014 24.00524642 269.63507569 7.93359375 279.3984375 C0.63939736 283.38062195 -6.87492797 286.28123476 -15 288 C-12.78968286 285.67847193 -10.44707374 283.78331277 -7.875 281.875 C4.81667832 272.02658728 12.28644167 260.93656822 18 246 C18.52787109 244.71996094 18.52787109 244.71996094 19.06640625 243.4140625 C24.51645431 229.32146961 23.38134118 211.96656435 18 198 C14.48711935 190.08793806 10.45049772 182.72945222 5 176 C1.81488815 166.44466445 5.03286268 158.03056042 8.6875 149.125 C14.9308028 133.09733465 19.68003714 117.30708216 20 100 C19.01 100.495 19.01 100.495 18 101 C12.21448468 101.55988858 12.21448468 101.55988858 10 101 C6.16758876 97.33806969 5.45706424 94.36946587 5 89.1875 C3.82147356 79.52761237 0.38216931 72.51859479 -7 66 C-12.90738645 62.37297245 -18.43559446 60.02021122 -25.375 59.6875 C-30.07100216 59.30237813 -32.72092215 58.60698563 -36 55 C-37.44430855 52.11138291 -37.37688506 50.20352299 -37 47 C-35.375 44.125 -35.375 44.125 -32 42 C-23.64458525 40.88313498 -15.78296845 41.84584963 -8 45 C-7.32710938 45.26683594 -6.65421875 45.53367188 -5.9609375 45.80859375 C8.02477697 52.07709127 15.77628587 63.52006617 22 77 C22.7907753 54.65327588 18.80343936 32.34728997 12.5 10.9375 C12.31066895 10.26420654 12.12133789 9.59091309 11.92626953 8.8972168 C11.0553991 6.10174461 10.47235712 4.33726299 8.046875 2.60546875 C5.38991327 1.81953541 2.74290417 1.37403239 0 1 C0 0.67 0 0.34 0 0 Z " fill="#CCD5D9" transform="translate(421,146)"/>
<path d="M0 0 C1.96875 0.53515625 1.96875 0.53515625 4.0625 1.3125 C5.25359375 1.68181641 5.25359375 1.68181641 6.46875 2.05859375 C17.66299435 5.94548415 25.85323009 14.33320209 33.375 23.1875 C43.63380526 34.91831926 55.89989845 43.2549024 71.0625 47.3125 C71.75472656 47.51488281 72.44695312 47.71726562 73.16015625 47.92578125 C74.79020579 48.40215756 76.42572398 48.85977472 78.0625 49.3125 C75.91352715 63.16143617 69.12436072 74.72427145 58.0625 83.3125 C53.61619765 86.11539004 48.92214544 88.31626241 44.0625 90.3125 C43.15242188 90.6940625 42.24234375 91.075625 41.3046875 91.46875 C28.9766412 94.67701265 14.14685788 93.64422863 3.0625 87.3125 C-9.52670675 79.57418026 -18.25414293 69.31128881 -22.8125 55.125 C-26.18139725 40.98370076 -24.20111649 27.05611625 -16.75 14.5625 C-7.11627778 0.56478395 -7.11627778 0.56478395 0 0 Z " fill="#3E50B4" transform="translate(313.9375,248.6875)"/>
<path d="M0 0 C10.29692412 10.31527871 17.0320332 23.3525231 17.31640625 38.1328125 C17.20251338 50.01753336 13.13689945 60.99642933 5.75390625 70.3203125 C5.315625 70.93132812 4.87734375 71.54234375 4.42578125 72.171875 C-2.29436371 80.93896067 -13.63686435 86.87782257 -24.24609375 89.3203125 C-39.49857063 91.12758015 -52.5342248 89.0830451 -65.19140625 79.97265625 C-72.19384584 74.3414168 -77.06313922 68.26922921 -81.24609375 60.3203125 C-81.58769531 59.67835938 -81.92929688 59.03640625 -82.28125 58.375 C-84.25764412 54.27513126 -84.52187706 50.82477331 -84.24609375 46.3203125 C-82.66828125 45.7325 -82.66828125 45.7325 -81.05859375 45.1328125 C-80.33027344 44.85695313 -79.60195312 44.58109375 -78.8515625 44.296875 C-76.96382854 43.58932854 -75.06969433 42.89878183 -73.171875 42.21875 C-58.40687804 36.80200555 -48.28554776 28.89845339 -37.75732422 17.33032227 C-29.81226505 8.62579427 -12.8987861 -9.64604874 0 0 Z " fill="#3E50B4" transform="translate(205.24609375,251.6796875)"/>
<path d="M0 0 C12.52918857 6.44743191 19.55412743 17.66718725 25.48046875 29.99609375 C25.85816406 30.77952148 26.23585938 31.56294922 26.625 32.37011719 C31.56930068 43.11133975 33.90858854 55.73734809 30.703125 67.3515625 C27.63145593 74.1878361 22.87719789 78.16366806 16.25390625 81.44140625 C10.40360087 83.31282958 1.99059503 83.67280349 -3.81640625 81.375 C-5.37847728 80.37624219 -6.91951156 79.34474832 -8.45703125 78.30859375 C-11.67040993 78.38696884 -13.33241486 79.23714946 -16.12109375 80.8359375 C-19.9240411 82.51475618 -23.18220834 82.84749285 -27.26953125 82.80859375 C-27.97513184 82.80214844 -28.68073242 82.79570312 -29.40771484 82.7890625 C-35.50870977 82.57582929 -39.87983732 81.36853549 -44.45703125 77.30859375 C-51.61758909 69.60439269 -52.94460229 62.58833512 -52.6953125 52.359375 C-51.89391201 35.26151537 -41.63638185 16.97613343 -29.359375 5.31640625 C-20.08408027 -2.09645355 -11.16819728 -4.88291833 0 0 Z " fill="#020203" transform="translate(266.45703125,343.69140625)"/>
<path d="M0 0 C1.07894531 0.33741211 1.07894531 0.33741211 2.1796875 0.68164062 C16.4140716 5.16239775 29.67366796 11.32413878 43 18 C41.77865649 21.39383467 40.50063371 23.90362897 38.1015625 26.59375 C37.53953125 27.23183594 36.9775 27.86992188 36.3984375 28.52734375 C35.81320312 29.17832031 35.22796875 29.82929687 34.625 30.5 C33.47053151 31.80135399 32.31686763 33.10342229 31.1640625 34.40625 C30.65311035 34.97666016 30.1421582 35.54707031 29.61572266 36.13476562 C27.89050714 38.04271265 27.89050714 38.04271265 26.31724548 40.56721497 C23.27243421 43.76384275 21.66874657 43.67671581 17.30834961 43.78979492 C16.64162389 43.81267326 15.97489817 43.83555161 15.28796864 43.85912323 C13.07586066 43.92627171 10.86530306 43.95533802 8.65234375 43.98046875 C7.09245794 44.01184556 5.53258249 44.0437411 3.97271729 44.0761261 C-1.03910994 44.16426079 -6.05000546 44.17993203 -11.0625 44.1875 C-11.90663326 44.19135712 -12.75076653 44.19521423 -13.62047958 44.19918823 C-54.07594979 44.36975161 -54.07594979 44.36975161 -71.8125 36.5 C-72.83997849 36.04963882 -72.83997849 36.04963882 -73.88821411 35.59017944 C-81.31659982 32.19368885 -86.56403725 28.55102176 -90 21 C-90.96363808 19.15822285 -91.92856768 17.31712106 -92.89453125 15.4765625 C-93.87136873 13.5281323 -94.84397166 11.57757383 -95.8125 9.625 C-96.56563477 8.13033203 -96.56563477 8.13033203 -97.33398438 6.60546875 C-97.80771484 5.65542969 -98.28144531 4.70539062 -98.76953125 3.7265625 C-99.19854736 2.86627441 -99.62756348 2.00598633 -100.06958008 1.11962891 C-101 -1 -101 -1 -101 -3 C-71.184699 -14.4969027 -29.62470931 -9.6602313 0 0 Z " fill="#9D9D9D" transform="translate(314,25)"/>
<path d="M0 0 C19.37479484 11.86518443 37.05215883 29.39599663 50 48 C50.6172998 48.87470947 50.6172998 48.87470947 51.24707031 49.76708984 C56.13534921 56.72263408 60.63015628 63.83939698 64.6875 71.3125 C65.03893066 71.95300293 65.39036133 72.59350586 65.75244141 73.25341797 C66.56831699 74.80227719 67.29354213 76.39827121 68 78 C67.67 78.66 67.34 79.32 67 80 C66.39414062 79.69964844 65.78828125 79.39929688 65.1640625 79.08984375 C64.32617188 78.70957031 63.48828125 78.32929688 62.625 77.9375 C61.81289063 77.55464844 61.00078125 77.17179687 60.1640625 76.77734375 C50.86573385 74.49293955 40.94885764 78.46630637 32.0390625 81.00390625 C31.059375 81.27332031 30.0796875 81.54273438 29.0703125 81.8203125 C28.19133301 82.07055176 27.31235352 82.32079102 26.40673828 82.57861328 C21.86436208 83.37392078 19.2376682 81.70002635 15.53515625 79.18359375 C14.22611328 78.29571167 14.22611328 78.29571167 12.890625 77.38989258 C11.49070312 76.42345825 11.49070312 76.42345825 10.0625 75.4375 C9.09699219 74.77580811 8.13148438 74.11411621 7.13671875 73.43237305 C-1.65401169 67.3509286 -10.14857764 60.91247948 -18.59375 54.36328125 C-21.97592549 51.74971664 -25.40245303 49.3068686 -29 47 C-26.86381951 36.14108251 -24.41911913 27.84184013 -16.58203125 19.7578125 C-13.02108819 15.95444518 -9.89175625 11.86041782 -6.71850586 7.7331543 C-4.60841104 5.00133167 -2.54022516 2.3467643 0 0 Z " fill="#7E8D93" transform="translate(372,53)"/>
<path d="M0 0 C16.5 0 33 0 50 0 C48 9 48 9 46.8125 12.125 C45.7577493 15.85719478 46.10085504 18.23176523 47 22 C49.1094173 24.51576553 49.1094173 24.51576553 51.9375 26.5 C52.92234375 27.25152344 53.9071875 28.00304687 54.921875 28.77734375 C59.24873661 31.90168925 63.57534726 35.01503904 68 38 C64.94476552 41.05523448 60.80250502 41.36734375 56.67382812 42.23632812 C51.70492018 43.42080569 49.16838641 45.02084805 46 49 C44.24164682 51.86454391 42.69916837 54.81180055 41.1875 57.8125 C40.78080078 58.60076172 40.37410156 59.38902344 39.95507812 60.20117188 C38.96156098 62.12976398 37.97958972 64.06429656 37 66 C33.24806616 61.51451499 30.9069355 56.13797938 28.31640625 50.93554688 C27.93355469 50.18982422 27.55070312 49.44410156 27.15625 48.67578125 C26.64288086 47.6535144 26.64288086 47.6535144 26.11914062 46.6105957 C25.00935386 44.67055142 25.00935386 44.67055142 22 44 C20.15533558 43.85110253 18.30642725 43.7520899 16.45703125 43.68359375 C14.84731445 43.62075195 14.84731445 43.62075195 13.20507812 43.55664062 C12.08552734 43.51732422 10.96597656 43.47800781 9.8125 43.4375 C8.68134766 43.39431641 7.55019531 43.35113281 6.38476562 43.30664062 C3.58996646 43.20050901 0.79507838 43.09845615 -2 43 C3.45758929 36.5625 3.45758929 36.5625 5.8984375 34.03125 C6.38570313 33.5259375 6.87296875 33.020625 7.375 32.5 C7.87773437 31.9946875 8.38046875 31.489375 8.8984375 30.96875 C10.6900783 27.76666856 10.4452093 25.63465951 10 22 C8.59588747 18.59714305 6.82571354 15.44253151 5 12.25 C4.05714711 10.57070255 3.11939683 8.88852697 2.1875 7.203125 C1.55908203 6.09952637 1.55908203 6.09952637 0.91796875 4.97363281 C0 3 0 3 0 0 Z " fill="#5E7B88" transform="translate(279,85)"/>
<path d="M0 0 C10.31280441 5.45452396 15.95622227 19.76842817 20 30 C21.51174078 35.94618041 22.56806752 43.19054569 19.5 48.6875 C15.93617333 50.558509 12.93824495 50.77792493 9 50 C5.59447176 47.84914006 4.80487913 45.70539495 3.9375 41.9375 C3.78410156 41.24527344 3.63070312 40.55304688 3.47265625 39.83984375 C3.06005438 37.90551788 3.06005438 37.90551788 1.875 36 C-1.32136491 34.29527205 -4.53755309 34.26554156 -8 35 C-11.9065949 38.39256925 -12.65057045 42.14205363 -14 47 C-15.125 48.9375 -15.125 48.9375 -17 50 C-21.2519518 50.47243909 -23.72351506 50.67015459 -27.5 48.6875 C-30.67055911 43.00691494 -29.51649126 36.14682988 -27.875 30.0625 C-24.06628215 18.84991943 -14.9962651 -3.64154047 0 0 Z " fill="#5E7B89" transform="translate(260,359)"/>
<path d="M0 0 C3.21731525 2.59893342 4.79407924 3.90175593 5.5625 8 C4.87642343 11.65907504 3.57265686 13.35167676 1 16 C-1.58786815 17.29393408 -3.67169847 17.18328154 -6.5625 17.3125 C-16.11456303 18.07712153 -23.7014146 21.65386039 -30 29 C-34.65402327 36.03779129 -36.69796407 42.71601518 -37.3828125 51.08984375 C-38.14522612 54.68476875 -39.39102788 56.43745087 -42 59 C-44.74448951 59.8630133 -47.20676192 59.6366518 -50 59 C-52.43119623 57.12984906 -53.64069173 55.71861655 -55 53 C-56.39415353 39.54105635 -51.52427729 26.97062687 -43.4375 16.375 C-32.52799099 4.55399155 -16.18126078 -3.0398868 0 0 Z " fill="#040404" transform="translate(123,188)"/>
<path d="M0 0 C2.45770738 0.68587183 4.78052632 1.4950809 7.14453125 2.453125 C7.81742187 2.71996094 8.4903125 2.98679688 9.18359375 3.26171875 C21.58996051 8.8223413 30.29268794 18.85493027 35.3671875 31.3125 C38.15973234 39.00252298 40.18881367 47.80702859 36.76953125 55.578125 C33.96049933 58.81931568 31.38224266 58.67549566 27.21484375 58.9765625 C23.89993363 58.13845315 22.91166623 56.29507584 21.14453125 53.453125 C20.45703125 50.18359375 20.45703125 50.18359375 20.14453125 46.640625 C18.96600481 36.98073737 15.52670056 29.97171979 8.14453125 23.453125 C2.2371448 19.82609745 -3.29106321 17.47333622 -10.23046875 17.140625 C-14.92647091 16.75550313 -17.5763909 16.06011063 -20.85546875 12.453125 C-22.2997773 9.56450791 -22.23235381 7.65664799 -21.85546875 4.453125 C-17.49112104 -3.26841326 -7.58730834 -1.45310967 0 0 Z " fill="#040404" transform="translate(405.85546875,188.546875)"/>
<path d="M0 0 C10.14076565 7.58352909 16.4028207 19.78310072 19 32 C20.62420439 46.72409591 17.32675501 60.2213661 8 72 C7.56171875 72.61101562 7.1234375 73.22203125 6.671875 73.8515625 C-0.12434979 82.71790173 -11.38182201 88.20344283 -22 91 C-24.37890625 90.625 -24.37890625 90.625 -26 90 C-25.443125 89.59910156 -24.88625 89.19820313 -24.3125 88.78515625 C-10.7544451 78.68532144 -2.32058558 65.73425048 1 49 C2.58948853 31.06914059 -1.96141147 15.28523221 -13 1 C-4.52014429 -1.44334826 -4.52014429 -1.44334826 0 0 Z " fill="#273490" transform="translate(203,250)"/>
<path d="M0 0 C19.37479484 11.86518443 37.05215883 29.39599663 50 48 C50.4115332 48.58313965 50.82306641 49.1662793 51.24707031 49.76708984 C56.13534921 56.72263408 60.63015628 63.83939698 64.6875 71.3125 C65.03893066 71.95300293 65.39036133 72.59350586 65.75244141 73.25341797 C66.56831699 74.80227719 67.29354213 76.39827121 68 78 C67.67 78.66 67.34 79.32 67 80 C66.35933594 79.71125 65.71867187 79.4225 65.05859375 79.125 C63.76115234 78.568125 63.76115234 78.568125 62.4375 78 C61.16712891 77.443125 61.16712891 77.443125 59.87109375 76.875 C56.47618488 75.84036111 53.52939181 75.86039489 50 76 C49.10861328 74.329375 49.10861328 74.329375 48.19921875 72.625 C40.13571156 57.70166619 31.12318209 43.84677427 20 31 C18.94232422 29.77603516 18.94232422 29.77603516 17.86328125 28.52734375 C13.6020271 23.69996248 9.16243842 19.06622144 4.625 14.5 C4.11283936 13.9831665 3.60067871 13.46633301 3.07299805 12.93383789 C0.8056381 10.67625916 -1.32718533 8.78187645 -4 7 C-3.42805835 3.68273845 -2.42999536 2.27364177 0 0 Z " fill="#535B5F" transform="translate(372,53)"/>
<path d="M0 0 C0.1249586 4.23167484 0.21496477 8.46233173 0.2746582 12.6953125 C0.29957855 14.13072448 0.33352875 15.56601257 0.37719727 17.00097656 C0.67359671 27.0018426 0.1871652 35.43946067 -6.9909668 43.13427734 C-13.6037999 49.46347072 -19.48913978 51.34386901 -28.49194336 51.27026367 C-29.62897705 51.24295166 -30.76601074 51.21563965 -31.9375 51.1875 C-35.588125 51.125625 -39.23875 51.06375 -43 51 C-43 39.12 -43 27.24 -43 15 C-42.67 15 -42.34 15 -42 15 C-42 26.55 -42 38.1 -42 50 C-27.8237223 50.7540805 -27.8237223 50.7540805 -23.25 45.0625 C-21.96911066 42.58545808 -21.96911066 42.58545808 -21 40 C-20.67902344 39.278125 -20.35804688 38.55625 -20.02734375 37.8125 C-17.94012595 32.22069789 -17.80668238 26.76533388 -17.625 20.875 C-17.35718654 12.69329867 -16.0219985 7.77824101 -9.9375 2.0625 C-6.45747115 0.15409708 -4.00324449 0 0 0 Z " fill="#CCD4D8" transform="translate(367,444)"/>
<path d="M0 0 C2.65020486 0.58860243 5.29405483 1.19487262 7.9375 1.8125 C8.69224609 1.97814453 9.44699219 2.14378906 10.22460938 2.31445312 C12.17570413 2.77816623 14.09255787 3.3807544 16 4 C18.04427654 10.13282962 14.24373903 16.89435187 11.5 22.4375 C3.93779801 35.54160982 -6.52740688 41.88069395 -20.16796875 47.24609375 C-23.00768048 48.0020446 -24.30090355 48.03811402 -27 47 C-26.3709375 46.53851563 -25.741875 46.07703125 -25.09375 45.6015625 C-12.08155436 35.68564233 -3.10616991 22.76167332 -0.59765625 6.37109375 C-0.35555246 4.25185646 -0.17146121 2.126119 0 0 Z " fill="#273491" transform="translate(375,293)"/>
<path d="M0 0 C14.444464 1.0699603 24.42550956 8.61829257 34 19 C35.10827753 20.28814119 36.21232971 21.57992775 37.3125 22.875 C42.72732432 29.1454399 48.75968985 34.91605282 56 39 C49.34687162 41.21770946 40.46827304 35.38599731 34.4375 32.375 C24.47701515 26.70607776 17.09518249 18.37905861 10.11328125 9.45703125 C7.523306 6.44576613 4.71390434 4.2358887 1.43359375 2.0234375 C0.96050781 1.68570313 0.48742187 1.34796875 0 1 C0 0.67 0 0.34 0 0 Z " fill="#273490" transform="translate(310,249)"/>
</svg>
