<?xml version="1.0" encoding="UTF-8"?>
<svg version="1.1" xmlns="http://www.w3.org/2000/svg" width="512" height="512">
<path d="M0 0 C1.93352577 -0.0076664 1.93352577 -0.0076664 3.90611267 -0.01548767 C7.41869939 -0.02879528 10.93117797 -0.02946548 14.44378495 -0.02692437 C17.38822807 -0.0258488 20.33264984 -0.03075306 23.27708834 -0.03552979 C30.23096602 -0.04659702 37.18478967 -0.04707846 44.13867188 -0.04101562 C51.28403817 -0.03498106 58.42920729 -0.04728002 65.57453996 -0.06858569 C71.73453096 -0.08626987 77.8944596 -0.09219227 84.05447501 -0.08894795 C87.72236894 -0.08714539 91.39012227 -0.0896673 95.05799294 -0.10366249 C99.15467508 -0.11871098 103.25096269 -0.1092115 107.34765625 -0.09765625 C108.5433725 -0.10529999 109.73908875 -0.11294373 110.97103882 -0.12081909 C129.00424883 -0.00897814 144.57154384 6.69301797 157.27807617 19.41918945 C168.22277101 31.48641709 174.22215247 46.25870928 174.0949707 62.4543457 C174.09526276 63.44062454 174.09555481 64.42690338 174.09585571 65.44306946 C174.09447073 68.67869088 174.07894875 71.91407737 174.06323242 75.1496582 C174.05949934 77.40266799 174.05665376 79.65567941 174.05465698 81.90869141 C174.04704381 87.82041963 174.02741524 93.73204861 174.00524902 99.64373779 C173.98474064 105.68345802 173.9756446 111.72319439 173.96557617 117.76293945 C173.94416714 129.60022249 173.91005922 141.43743207 173.86791992 153.2746582 C174.55847977 153.47413559 175.24903961 153.67361298 175.96052551 153.87913513 C176.86429428 154.14428421 177.76806305 154.40943329 178.69921875 154.68261719 C179.59602859 154.94396957 180.49283844 155.20532196 181.41682434 155.47459412 C189.77693923 158.20342596 195.89671135 165.70891397 199.86791992 173.2746582 C204.27877742 185.43983457 203.70030692 196.30854408 198.61401367 208.20825195 C192.57675736 220.06891081 184.02142354 226.42453611 171.86791992 231.2746582 C169.0592743 231.96248978 166.76831179 232.21665037 163.86791992 232.2746582 C163.76608398 233.38711914 163.66424805 234.49958008 163.55932617 235.64575195 C161.07576243 255.30261908 150.59918472 275.56932476 137.32885742 290.04418945 C136.07975586 291.42670898 136.07975586 291.42670898 134.80541992 292.8371582 C133.64333008 294.0456543 133.64333008 294.0456543 132.45776367 295.27856445 C130.72756188 298.53916586 130.75593603 299.29817349 131.20263672 302.80273438 C131.36292107 304.13823586 131.36292107 304.13823586 131.52644348 305.50071716 C131.69547432 306.87381798 131.69547432 306.87381798 131.86791992 308.2746582 C132.02995315 309.98625919 132.18865628 311.69817877 132.34399414 313.41040039 C133.91891239 336.28309839 133.91891239 336.28309839 143.6282959 356.15002441 C151.93621189 362.7240344 162.7457245 365.21790175 172.92260742 367.37329102 C177.80993794 368.42371547 182.33074381 370.19347525 186.86791992 372.2746582 C186.70291992 371.3671582 186.53791992 370.4596582 186.36791992 369.5246582 C184.3973591 354.87780313 186.69545954 344.12813033 195.5300293 332.36425781 C198.19902737 328.91740801 200.91037903 325.50774212 203.66796875 322.13134766 C204.39395264 321.18864014 205.11993652 320.24593262 205.86791992 319.2746582 C206.45667404 318.57457642 207.04542816 317.87449463 207.65202332 317.15319824 C212.89274245 310.48633313 213.84082508 305.56190005 213.62963867 297.2043457 C213.63244339 296.08327423 213.63524811 294.96220276 213.63813782 293.80715942 C213.64338189 290.25365866 213.6029788 286.70281346 213.55541992 283.1496582 C213.52382907 279.58977907 213.50265061 276.03075798 213.50483704 272.47073364 C213.504708 270.26463998 213.48476183 268.05842834 213.44181824 265.85275269 C213.41998005 258.19516153 214.67333854 252.9865807 219.79760742 247.0324707 C226.62240518 241.304026 231.90336488 239.77096143 240.83666992 239.9699707 C248.70412161 240.76077126 253.45934047 244.23325048 258.45776367 250.17700195 C261.13329871 254.15695296 262.11913787 257.65911345 262.0949707 262.43212891 C262.09481964 263.43278885 262.09466858 264.43344879 262.09451294 265.46443176 C262.08419037 266.5323143 262.0738678 267.60019684 262.06323242 268.70043945 C262.05898758 270.35453072 262.05898758 270.35453072 262.05465698 272.04203796 C262.04347973 275.55718934 262.01837929 279.07208409 261.99291992 282.5871582 C261.98288696 284.97322223 261.97376166 287.35929025 261.96557617 289.74536133 C261.94354842 295.58854755 261.91009506 301.43158454 261.86791992 307.2746582 C262.9347123 307.45862152 262.9347123 307.45862152 264.02305603 307.64630127 C266.96514707 308.29613317 269.583643 309.22376057 272.38574219 310.32836914 C273.46779434 310.75261169 274.5498465 311.17685425 275.66468811 311.61395264 C276.82616867 312.07432922 277.98764923 312.53470581 279.18432617 313.0090332 C280.39176987 313.48407288 281.59921356 313.95911255 282.84324646 314.44854736 C285.40041021 315.45478583 287.95648462 316.4637252 290.51171875 317.47485352 C293.75202312 318.75704715 296.99410244 320.03467029 300.23692417 321.31048203 C303.36586103 322.541721 306.49385696 323.77533779 309.62182617 325.0090332 C310.76913712 325.46131287 311.91644806 325.91359253 313.098526 326.37957764 C315.29177079 327.24734923 317.48282927 328.12067169 319.67141724 329.00012207 C321.84587497 329.86713994 324.02906535 330.71250232 326.2194519 331.53845215 C327.8164946 332.15859192 327.8164946 332.15859192 329.44580078 332.79125977 C330.86752846 333.32907074 330.86752846 333.32907074 332.31797791 333.87774658 C335.38039932 335.55540515 336.92341534 337.39800723 338.86791992 340.2746582 C339.8157916 347.64654418 336.56599671 356.05633935 334.61791992 363.0871582 C334.1443103 364.81083618 334.1443103 364.81083618 333.66113281 366.56933594 C328.71781134 384.25957121 322.87759923 399.46127851 306.56713867 409.42700195 C304.86791992 410.2746582 304.86791992 410.2746582 302.86791992 410.2746582 C302.87236115 410.99382919 302.87680237 411.71300018 302.88137817 412.45396423 C302.92161904 419.26471357 302.95198725 426.0754449 302.97154427 432.88628292 C302.98193706 436.3869685 302.99601282 439.88755501 303.01879883 443.38818359 C303.04488788 447.42196551 303.0544299 451.45564498 303.06323242 455.48950195 C303.07355499 456.73360336 303.08387756 457.97770477 303.09451294 459.25950623 C303.09536268 465.900199 302.85572921 471.90945666 300.86791992 478.2746582 C297.21408692 480.71054687 295.49377838 480.52696266 291.13806248 480.53192711 C290.10138306 480.53718622 290.10138306 480.53718622 289.04376063 480.54255158 C286.71069995 480.55191044 284.37788643 480.54693083 282.04481506 480.54208374 C280.36215604 480.54581774 278.67949875 480.55041825 276.99684423 480.55581439 C272.35948286 480.56809062 267.72219337 480.56777851 263.08481944 480.56542563 C258.08882756 480.56501864 253.0928591 480.57604534 248.09687805 480.58554077 C238.30411709 480.60217665 228.5113802 480.60765147 218.7186063 480.60876553 C210.7619952 480.6097147 202.80539207 480.61381843 194.84878349 480.62016678 C172.30905496 480.63778562 149.7693455 480.64700455 127.22961003 480.64550583 C126.01366294 480.64542592 124.79771585 480.64534601 123.54492188 480.64526367 C122.32749679 480.64518191 121.11007171 480.64510015 119.85575496 480.64501591 C100.11630991 480.64420264 80.3769411 480.66334885 60.63751812 480.69154041 C40.38757616 480.72023379 20.13767142 480.73408268 -0.1122914 480.73235285 C-11.48853337 480.73168776 -22.8646954 480.73723212 -34.24091911 480.75870895 C-43.92527792 480.77687409 -53.60952056 480.78130659 -63.29388898 480.76769011 C-68.23816229 480.761137 -73.18221243 480.76112727 -78.12646484 480.77839661 C-82.64850865 480.79402931 -87.17015051 480.79136498 -91.69218392 480.77382834 C-93.33212939 480.77073669 -94.97210414 480.77447146 -96.61201512 480.78554849 C-98.83396395 480.79956847 -101.05448296 480.78916542 -103.27638149 480.77243614 C-105.13077458 480.77308825 -105.13077458 480.77308825 -107.02263016 480.77375352 C-110.7447892 480.17631275 -111.9350095 479.29700599 -114.13208008 476.2746582 C-114.53176387 473.32755165 -114.6895014 470.75294106 -114.66552734 467.8059082 C-114.67414291 466.95343506 -114.68275848 466.10096191 -114.69163513 465.22265625 C-114.7143279 462.40634758 -114.70755071 459.59103121 -114.69848633 456.7746582 C-114.70372021 454.8169729 -114.70999582 452.85929012 -114.7172699 450.90161133 C-114.72768003 446.79927705 -114.72310344 442.69728951 -114.70849609 438.5949707 C-114.69130174 433.33532953 -114.71480841 428.07678009 -114.74998569 422.81726074 C-114.77193475 418.77490995 -114.77052436 414.73282143 -114.76222038 410.69042969 C-114.7613996 408.75112714 -114.76828713 406.81180557 -114.78299141 404.87255859 C-114.8003928 402.16215674 -114.78593291 399.45373017 -114.76318359 396.7434082 C-114.77487579 395.9412085 -114.78656799 395.13900879 -114.7986145 394.3125 C-114.73522619 390.60475018 -114.52362597 388.70547868 -111.99111938 385.91894531 C-108.96504959 384.17859584 -106.0031715 382.7830934 -102.75634766 381.49731445 C-101.82837372 381.1256868 -101.82837372 381.1256868 -100.88165283 380.74655151 C-98.84980245 379.93519641 -96.81335015 379.1361532 -94.77661133 378.3371582 C-93.35009615 377.77028963 -91.92388732 377.20264958 -90.49797058 376.63427734 C-86.74835025 375.14204444 -82.99471113 373.66019571 -79.2401123 372.18054199 C-75.44839971 370.68422191 -71.66050331 369.17830909 -67.87231445 367.6730957 C-57.88421027 363.70632714 -57.88421027 363.70632714 -53.07282543 361.81210041 C-51.21091297 361.07424479 -49.35528818 360.32058396 -47.49990845 359.56645203 C-44.13208008 358.2746582 -44.13208008 358.2746582 -41.11166382 357.44538879 C-37.16572457 356.29571988 -34.83650786 355.54541988 -32.78987122 351.85336304 C-31.71262198 348.62043626 -30.98123712 345.44166942 -30.31958008 342.09887695 C-29.91993042 340.3010955 -29.91993042 340.3010955 -29.51220703 338.46699524 C-28.9606752 335.93548021 -28.43077539 333.39916822 -27.92114258 330.85888672 C-27.13413742 326.97231825 -26.26388791 323.11138994 -25.38208008 319.24536133 C-24.85617116 316.78094421 -24.33517009 314.31547357 -23.81958008 311.84887695 C-23.55749756 310.69449631 -23.29541504 309.54011566 -23.02539062 308.35075378 C-21.77080424 302.55805589 -21.77080424 302.55805589 -23.28251648 297.04432678 C-24.79604086 295.26462121 -26.35975275 293.79072299 -28.13208008 292.2746582 C-41.35889918 276.3141563 -56.13208008 253.79971761 -56.13208008 232.2746582 C-57.20458008 232.2334082 -58.27708008 232.1921582 -59.38208008 232.1496582 C-69.38145912 230.88863527 -78.69558757 224.71172136 -84.96801758 217.0246582 C-90.19789355 209.9632223 -94.37573263 202.16174071 -95.13208008 193.2746582 C-95.19524414 192.6455957 -95.2584082 192.0165332 -95.32348633 191.3684082 C-95.87686978 181.51461261 -92.60537068 171.74627876 -86.18286133 164.27856445 C-80.00174608 158.23873184 -74.41966929 155.24789373 -66.13208008 153.2746582 C-66.14096252 152.03819046 -66.14984497 150.80172272 -66.15899658 149.52778625 C-66.24034734 137.83255208 -66.30017226 126.13737589 -66.33932877 114.44192219 C-66.36013678 108.43023631 -66.38832998 102.41878023 -66.43383789 96.40722656 C-66.47753815 90.59760999 -66.50126813 84.78821341 -66.51158905 78.97844505 C-66.51893718 76.77024056 -66.53328552 74.56204709 -66.55500031 72.35393715 C-66.76414432 50.19019457 -66.76414432 50.19019457 -62.13208008 39.2746582 C-61.62547852 38.05649414 -61.11887695 36.83833008 -60.59692383 35.58325195 C-52.05102912 19.51871842 -39.38258342 8.48204957 -22.13208008 2.2746582 C-14.77542824 0.09783221 -7.62714138 -0.0157229 0 0 Z " fill="#010101" transform="translate(130.132080078125,15.725341796875)"/>
<path d="M0 0 C1.9375 2.625 1.9375 2.625 3 5 C3.68707031 4.65066406 4.37414062 4.30132812 5.08203125 3.94140625 C5.98308594 3.48636719 6.88414062 3.03132813 7.8125 2.5625 C8.70582031 2.11003906 9.59914063 1.65757813 10.51953125 1.19140625 C18.85117332 -2.81040608 31.3382377 -2.34145075 40.0625 0.5625 C49.66953605 4.77843172 55.8623066 11.68819177 62 20 C63.05058594 19.6390625 64.10117187 19.278125 65.18359375 18.90625 C79.78876536 14.02220547 79.78876536 14.02220547 87 15 C89.91086017 17.22873285 90.00996669 18.05149459 90.75 21.875 C91.01822846 24.50459689 91.003417 25.98832524 90.25 28.5625 C89.89196995 32.05329299 91.17918671 33.77668822 93.265625 36.5078125 C95.90284032 38.77676802 98.60940467 38.90312444 101.96484375 39.4296875 C104 40 104 40 106.1875 42.6875 C107.23831167 46.97157837 106.73316179 48.9485681 105 53 C102.67001999 54.94556402 100.11967001 56.16897632 97.375 57.4375 C96.66859375 57.78748047 95.9621875 58.13746094 95.234375 58.49804688 C93.50001287 59.35350927 91.75128974 60.17974872 90 61 C90.85299768 62.14670384 91.70749867 63.29228934 92.5625 64.4375 C93.38427734 65.54158203 93.38427734 65.54158203 94.22265625 66.66796875 C95.36877784 68.17178104 96.54175229 69.65567782 97.74609375 71.11328125 C117.54810255 95.23733206 113.96973326 124.61042313 111.13246155 153.62507629 C109.39027553 170.79387945 107.08005194 187.76685161 101 204 C100.69449219 204.82628906 100.38898438 205.65257812 100.07421875 206.50390625 C97.20972135 213.15408304 91.74173883 218.07113945 85.125 220.9375 C75.52124096 223.79261155 65.73804161 221.2195862 56.19921875 219.2265625 C54.79073989 218.93917201 53.38211153 218.6525133 51.9733429 218.36654663 C49.03979003 217.76895031 46.10767064 217.16490126 43.17651367 216.55566406 C39.4284217 215.77683312 35.67784766 215.01086008 31.92622662 214.24923134 C29.02490404 213.65938893 26.12461565 213.06459256 23.22464943 212.46812057 C21.84184183 212.18396135 20.4588064 211.9009084 19.07553673 211.61900711 C17.14402515 211.22422925 15.21394607 210.82246228 13.28393555 210.42041016 C12.18824753 210.19390778 11.09255951 209.9674054 9.96366882 209.73403931 C7.16990195 209.04208119 4.63822071 208.14082638 2 207 C2.02094727 207.58491211 2.04189453 208.16982422 2.06347656 208.77246094 C2.14680115 211.43146465 2.19870897 214.09019355 2.25 216.75 C2.28351563 217.67039063 2.31703125 218.59078125 2.3515625 219.5390625 C2.45005258 226.33487804 2.45005258 226.33487804 0.234375 229.609375 C-3.22811195 231.7643494 -6.05267043 231.80887901 -10 231 C-12.5 229.25 -12.5 229.25 -14 227 C-14 225.68 -14 224.36 -14 223 C-19.28 223 -24.56 223 -30 223 C-30.33 224.98 -30.66 226.96 -31 229 C-34.21436529 231.14291019 -36.17426609 231.30025791 -39.96484375 231.4609375 C-43.08050493 230.75527911 -44.07800911 229.55424692 -46 227 C-46.60130809 224.01858316 -46.53950539 221.07489757 -46.50793457 218.04199219 C-46.51417453 217.12668102 -46.5204145 216.21136986 -46.52684355 215.26832199 C-46.54282751 212.19424607 -46.53014803 209.12095713 -46.51757812 206.046875 C-46.52299683 203.84590186 -46.53011807 201.64493234 -46.53881836 199.44396973 C-46.55708441 193.46056764 -46.54997051 187.47744083 -46.53730202 181.49403381 C-46.5271914 175.23917893 -46.5365623 168.98434798 -46.54284668 162.72949219 C-46.55059547 151.55124788 -46.5381466 140.37310484 -46.51780933 129.19488478 C-46.49993809 119.05824643 -46.50304213 108.9217913 -46.52148438 98.78515625 C-46.54288715 87.01576595 -46.55086029 75.24646492 -46.53903532 63.4770546 C-46.53279165 57.2461736 -46.53198882 51.01541884 -46.54518127 44.7845459 C-46.55671588 38.92729599 -46.5487575 33.07039289 -46.52560425 27.21318054 C-46.5203044 25.06048662 -46.5218526 22.90776363 -46.53065491 20.75508118 C-46.54154344 17.82232617 -46.52792759 14.89069095 -46.50793457 11.95800781 C-46.5213189 10.67221895 -46.5213189 10.67221895 -46.53497362 9.36045456 C-46.45860752 3.60771125 -46.45860752 3.60771125 -44.09325409 0.47332764 C-41.1893089 -1.57060134 -39.35698354 -1.5708872 -35.90625 -1.390625 C-32.91974312 -0.77863588 -31.66160366 0.50759451 -30 3 C-30 4.32 -30 5.64 -30 7 C-24.72 7 -19.44 7 -14 7 C-13.67 5.02 -13.34 3.04 -13 1 C-8.35442785 -2.53948354 -5.23089516 -2.36870724 0 0 Z " fill="#010000" transform="translate(382,17)"/>
<path d="M0 0 C12.13521568 5.92462041 24.76156677 10.14003935 38 12.8125 C38.88961426 12.99272705 39.77922852 13.1729541 40.69580078 13.35864258 C49.84712234 14.99317151 58.87108453 15.15161574 68.13671875 15.12817383 C70.73220193 15.12502162 73.32653231 15.14853287 75.921875 15.17382812 C90.99051713 15.23261137 105.02257004 13.14568184 119.4375 8.625 C120.88201538 8.18414062 120.88201538 8.18414062 122.35571289 7.734375 C129.53774425 5.46667721 136.37130006 2.66865707 143.06616211 -0.78588867 C143.73397705 -1.11435791 144.40179199 -1.44282715 145.08984375 -1.78125 C145.65566162 -2.07708984 146.22147949 -2.37292969 146.80444336 -2.67773438 C155.12648492 -4.60995085 163.67541366 0.14078091 171.203125 3.16796875 C172.57205108 3.71295539 173.94109199 4.25765366 175.3102417 4.80207825 C178.1672709 5.94112649 181.02105021 7.08791498 183.87304688 8.23950195 C187.51925791 9.71033673 191.17531774 11.15474675 194.83458328 12.59273815 C197.66060471 13.70795673 200.47950813 14.84034537 203.29671478 15.97762489 C204.64183539 16.51751379 205.98941057 17.05133026 207.33945465 17.57878685 C209.2272914 18.3185728 211.10464673 19.08493718 212.98144531 19.85229492 C214.04985657 20.28007736 215.11826782 20.7078598 216.21905518 21.14860535 C219 22.8125 219 22.8125 223 28.8125 C223 49.2725 223 69.7325 223 90.8125 C122.68 90.8125 22.36 90.8125 -81 90.8125 C-81 69.0325 -81 47.2525 -81 24.8125 C-75.57315419 22.09907709 -70.30647548 19.63642705 -64.6796875 17.45703125 C-63.51954636 17.00200226 -63.51954636 17.00200226 -62.33596802 16.53778076 C-59.8503105 15.56340974 -57.36275285 14.5940073 -54.875 13.625 C-51.4548564 12.2886808 -48.03570217 10.94985547 -44.6171875 9.609375 C-43.36394684 9.11824974 -43.36394684 9.11824974 -42.08538818 8.61720276 C-37.3074953 6.73884896 -32.55357674 4.81628901 -27.8203125 2.828125 C-26.81371582 2.4055542 -25.80711914 1.9829834 -24.77001953 1.54760742 C-22.98326581 0.79123706 -21.20006811 0.02638359 -19.42138672 -0.7487793 C-11.90574368 -3.92632037 -7.33975068 -3.77486716 0 0 Z " fill="#3480EF" transform="translate(113,389.1875)"/>
<path d="M0 0 C1.20938232 -0.00671722 2.41876465 -0.01343445 3.66479492 -0.02035522 C6.95845798 -0.0360187 10.25196906 -0.0427056 13.54566479 -0.0439868 C15.61071774 -0.04541582 17.67574484 -0.04969953 19.74079132 -0.05498123 C26.96588296 -0.07344337 34.19090118 -0.08165675 41.41601562 -0.08007812 C48.11721477 -0.07887815 54.81809112 -0.09996181 61.51920867 -0.13156545 C67.30045238 -0.15784482 73.08159142 -0.16844055 78.8628943 -0.16716731 C82.30340351 -0.16666103 85.74362549 -0.17215629 89.1840744 -0.19352341 C93.02923382 -0.2132595 96.87357561 -0.20731434 100.71875 -0.1953125 C101.83606506 -0.20655151 102.95338013 -0.21779053 104.10455322 -0.22937012 C118.35959827 -0.11708852 130.82223903 4.70049771 141.30566406 14.35302734 C152.89829048 26.54172852 154.9408701 39.84668704 154.81347656 55.95068359 C154.8097388 57.35029395 154.80689544 58.74990695 154.80490112 60.14952087 C154.79732467 63.80406121 154.77772892 67.45843842 154.75549316 71.11291504 C154.73490447 74.85373733 154.72587177 78.5945864 154.71582031 82.33544922 C154.69447631 89.65388235 154.6604143 96.97218185 154.61816406 104.29052734 C152.200206 103.33457303 149.81270787 102.38426209 147.46972656 101.25537109 C142.43070061 98.93034684 138.54435263 98.1782409 132.99316406 98.22802734 C122.13737787 97.81049711 113.04050994 92.26117185 103.42724609 87.62060547 C74.72696439 74.03124907 40.43417193 72.25463626 10.40332031 82.48974609 C-7.66632898 88.11192432 -7.66632898 88.11192432 -23.38183594 97.29052734 C-25.50512709 97.42510214 -27.63081565 97.52232158 -29.75683594 97.60302734 C-36.59647192 98.03529792 -42.12758422 99.59560587 -48.38183594 102.29052734 C-50.04749537 102.9597066 -51.71403642 103.62669982 -53.38183594 104.29052734 C-53.45172708 96.26635883 -53.50484375 88.24232012 -53.53727245 80.21792126 C-53.55284631 76.49079224 -53.57393045 72.76387336 -53.6081543 69.03686523 C-53.64104682 65.43177067 -53.658751 61.82687664 -53.66646767 58.22164345 C-53.67195813 56.85469728 -53.6826776 55.48776054 -53.69902611 54.12090111 C-53.87724561 38.58501551 -50.62311732 25.633546 -39.81933594 14.04052734 C-28.02935963 2.88976662 -15.67104698 -0.01262098 0 0 Z " fill="#3480EE" transform="translate(133.3818359375,31.70947265625)"/>
<path d="M0 0 C0.70367102 -0.00523668 1.40734205 -0.01047336 2.13233644 -0.01586872 C4.48430374 -0.03084009 6.83605294 -0.03157324 9.18806458 -0.03224182 C10.87699245 -0.03986538 12.56591686 -0.04829322 14.25483704 -0.0574646 C18.83978363 -0.07940046 23.42466353 -0.08820758 28.00965667 -0.09329104 C30.87669841 -0.09693649 33.74372273 -0.10317762 36.61075783 -0.11029243 C46.62042125 -0.13478631 56.63003288 -0.14783815 66.63972473 -0.15138245 C75.95728838 -0.15501495 85.27452207 -0.18489005 94.59198493 -0.22678703 C102.60067975 -0.26153121 110.60926548 -0.27693162 118.61803514 -0.27762848 C123.39712838 -0.27842006 128.17588564 -0.28710333 132.95490074 -0.31562614 C137.45386081 -0.34187676 141.95220807 -0.34397321 146.45121002 -0.3279705 C148.09667362 -0.3261614 149.74217301 -0.33279784 151.38755989 -0.34878922 C160.33159045 -0.43037159 168.43209567 -0.3753021 175.89826965 5.27415466 C182.83893351 12.65594323 184.62207078 19.80676512 184.68888855 29.71697998 C184.32859259 39.35366937 180.16226862 45.28320332 173.52326965 51.96165466 C172.9569281 52.54582153 172.39058655 53.1299884 171.80708313 53.7318573 C160.28199315 65.10064952 147.443355 67.34761928 131.64826965 67.39915466 C117.76475559 67.28432113 105.79338849 66.08687703 95.60627747 55.98851013 C92.80162932 52.93218684 90.38356711 49.6645097 87.95295715 46.30540466 C84.79632271 41.77979074 84.79632271 41.77979074 79.89826965 39.83665466 C75.78419239 40.48460423 74.2162408 43.07497725 71.84358215 46.30540466 C71.08980286 47.3471283 70.33602356 48.38885193 69.55940247 49.46214294 C62.82211974 58.48551562 55.6400937 64.32232687 44.35261536 66.33764648 C27.62942911 68.54178966 7.80629327 69.30068351 -6.34391785 58.84056091 C-8.96308086 56.68468453 -11.36639919 54.39627606 -13.72673035 51.96165466 C-14.28598206 51.39907959 -14.84523376 50.83650452 -15.4214325 50.25688171 C-22.11395745 43.22486624 -24.94195331 36.99083808 -24.8790741 27.21946716 C-24.65874655 19.01992865 -23.07462668 12.57284659 -17.3868866 6.41868591 C-12.02437024 1.47859973 -7.31090071 0.02702302 0 0 Z " fill="#5F5F5F" transform="translate(104.10173034667969,144.72584533691406)"/>
<path d="M0 0 C42.24 0 84.48 0 128 0 C128 15.18 128 30.36 128 46 C123.55525802 50.44474198 119.60471153 54.37208994 114.5625 57.9375 C113.96832275 58.35789551 113.37414551 58.77829102 112.76196289 59.21142578 C100.36055505 67.74111957 85.26513573 75.36942641 70 76 C68.89011719 76.0515625 67.78023438 76.103125 66.63671875 76.15625 C39.83209706 76.81336024 19.35235717 63.20209527 0 46 C0 30.82 0 15.64 0 0 Z " fill="#3480EE" transform="translate(120,257)"/>
<path d="M0 0 C0.97904297 0.03158203 1.95808594 0.06316406 2.96679688 0.09570312 C5.37678203 0.1779953 7.78058593 0.2928499 10.1875 0.4375 C10.36635742 1.10354248 10.54521484 1.76958496 10.72949219 2.45581055 C13.1077446 10.90199093 16.48461839 17.30469644 24.125 22.0625 C27.1875 24.4375 27.1875 24.4375 27.6875 28.125 C27.1875 31.4375 27.1875 31.4375 26.1875 33.4375 C23.93432617 33.87646484 23.93432617 33.87646484 20.98046875 34.1484375 C19.91892578 34.25929687 18.85738281 34.37015625 17.76367188 34.484375 C15.5169069 34.70192919 13.26949823 34.91294163 11.02148438 35.1171875 C9.95607422 35.230625 8.89066406 35.3440625 7.79296875 35.4609375 C6.81481201 35.55294434 5.83665527 35.64495117 4.82885742 35.73974609 C1.56934479 36.60079491 0.25848837 37.81145419 -1.8125 40.4375 C-2.29960123 43.77762275 -2.25759146 45.64067027 -0.60424805 48.60058594 C1.0472239 50.64344072 1.0472239 50.64344072 3.54760742 50.89160156 C4.90656128 50.86018066 4.90656128 50.86018066 6.29296875 50.828125 C7.76733398 50.80878906 7.76733398 50.80878906 9.27148438 50.7890625 C10.29564453 50.75554687 11.31980469 50.72203125 12.375 50.6875 C13.41076172 50.66945312 14.44652344 50.65140625 15.51367188 50.6328125 C18.07254284 50.58564437 20.62955842 50.51984057 23.1875 50.4375 C23.60795337 53.3942366 23.71557024 55.58252913 22.11083984 58.18066406 C20.59171561 60.038571 19.01147058 61.80711633 17.375 63.5625 C16.2843048 64.77267065 15.1944371 65.98358771 14.10546875 67.1953125 C13.59588623 67.76121094 13.08630371 68.32710938 12.5612793 68.91015625 C9.20661846 72.34009761 9.20661846 72.34009761 8.11328125 76.796875 C8.24089844 77.58578125 8.36851562 78.3746875 8.5 79.1875 C8.61988281 79.98671875 8.73976563 80.7859375 8.86328125 81.609375 C9.02376953 82.51429688 9.02376953 82.51429688 9.1875 83.4375 C10.57614434 83.74306226 11.97431264 84.00550808 13.375 84.25 C14.54095703 84.47623047 14.54095703 84.47623047 15.73046875 84.70703125 C19.48738689 84.2949051 20.71276388 82.22250154 23.1875 79.4375 C24.27097182 78.32055153 25.35842539 77.20745574 26.44921875 76.09765625 C27.59225881 74.89949829 28.73416961 73.7002621 29.875 72.5 C30.45572266 71.90509766 31.03644531 71.31019531 31.63476562 70.69726562 C37.03123887 64.98885751 38.27608346 59.96709115 39.1875 52.1875 C39.93228534 46.19966229 40.88466996 40.32795497 42.1875 34.4375 C43.8375 35.0975 45.4875 35.7575 47.1875 36.4375 C48.61639868 59.64916527 47.40469942 97.09647822 33.1875 116.4375 C31.1875 118.4375 31.1875 118.4375 27.4921875 118.7265625 C20.65849994 118.56586598 14.00047177 117.12274073 7.3125 115.8125 C5.89756917 115.54038767 4.48261109 115.26841702 3.06762695 114.99658203 C-6.18471913 113.20557716 -15.41581345 111.31381949 -24.625 109.3125 C-25.69540527 109.08353027 -26.76581055 108.85456055 -27.86865234 108.61865234 C-45.61257886 104.66028392 -60.20508808 97.55139953 -70.5625 82.125 C-77.2339105 71.12783474 -78.9884353 60.55003502 -78.91015625 47.90625 C-78.9087413 47.02972778 -78.90732635 46.15320557 -78.90586853 45.25012207 C-78.90031768 42.47921179 -78.88777461 39.70838543 -78.875 36.9375 C-78.86997864 35.04687618 -78.86541685 33.15625107 -78.86132812 31.265625 C-78.8503644 26.65621817 -78.83313425 22.04687327 -78.8125 17.4375 C-74.56200127 17.91230876 -70.31219995 18.39309837 -66.0625 18.875 C-64.8559375 19.00970703 -63.649375 19.14441406 -62.40625 19.28320312 C-61.24609375 19.41533203 -60.0859375 19.54746094 -58.890625 19.68359375 C-57.82231445 19.80404053 -56.75400391 19.9244873 -55.65332031 20.04858398 C-53.30013746 20.37074111 -51.09604934 20.79916606 -48.8125 21.4375 C-48.79791748 22.44127686 -48.78333496 23.44505371 -48.76831055 24.47924805 C-48.71017948 28.2162575 -48.63294835 31.95267369 -48.55004883 35.68920898 C-48.5168689 37.30401963 -48.48881542 38.91894431 -48.46606445 40.53393555 C-48.43238975 42.86035592 -48.38007037 45.18573783 -48.32421875 47.51171875 C-48.31782883 48.22962082 -48.3114389 48.94752289 -48.30485535 49.68717957 C-48.17498315 54.15090452 -47.27476031 56.75622038 -44.8125 60.4375 C-45.87007454 65.89711559 -50.56905157 70.41216347 -54.08789062 74.55859375 C-57.03476726 78.31479656 -58.17996965 80.58113282 -57.64453125 85.421875 C-57.39729786 86.76630387 -57.13033458 88.10799087 -56.8125 89.4375 C-53.76941792 90.04995143 -50.92869791 90.53768234 -47.8125 90.4375 C-44.98049208 88.61031852 -44.98049208 88.61031852 -42.8125 85.4375 C-42.20019531 84.66535156 -41.58789062 83.89320313 -40.95703125 83.09765625 C-39.21514895 80.89683489 -37.50505079 78.6763496 -35.8125 76.4375 C-33.23646731 78.94197623 -30.91809053 81.28422342 -28.875 84.25 C-26.95902833 86.72393511 -26.95902833 86.72393511 -23.8125 86.9375 C-20.42251305 86.37250217 -18.99049338 86.11810724 -16.8125 83.4375 C-16.06550352 79.13499431 -15.96989534 76.78157051 -18.31884766 73.03466797 C-19.70324311 71.27187788 -21.09912422 69.51807165 -22.50390625 67.77148438 C-34.81402675 52.32655316 -34.76478071 39.38964041 -32.8125 20.4375 C-32.05759277 20.04425537 -31.30268555 19.65101074 -30.52490234 19.24584961 C-29.53441895 18.71999268 -28.54393555 18.19413574 -27.5234375 17.65234375 C-26.05076416 16.87685181 -26.05076416 16.87685181 -24.54833984 16.08569336 C-20.29483587 13.52319065 -17.16708264 10.11301336 -14.91821289 5.67114258 C-11.2341632 -0.82465671 -6.98542276 -0.42691301 0 0 Z " fill="#E73131" transform="translate(430.8125,103.5625)"/>
<path d="M0 0 C3.66349719 1.33632904 6.65671685 2.99686178 9.875 5.1875 C22.59205469 13.39205141 37.68759528 20.4363532 53 21 C54.17046875 21.0515625 55.3409375 21.103125 56.546875 21.15625 C80.65191379 21.88643367 101.32573277 13.4092771 121 0 C128.85626696 11.78440043 129.46725275 31.34192595 132 45 C124.15692969 49.33675652 116.22891634 52.85033166 107.75 55.75 C106.95505127 56.03109619 106.16010254 56.31219238 105.34106445 56.60180664 C91.51646812 61.17011152 77.24945348 62.50957864 62.76782227 62.39111328 C60.43381606 62.37497453 58.10153406 62.39111551 55.76757812 62.41015625 C40.77896348 62.43382889 26.81052285 60.09196697 12.625 55.1875 C11.64917969 54.86974609 10.67335937 54.55199219 9.66796875 54.22460938 C2.6704253 51.85956979 -3.62527045 48.71872209 -10 45 C-5.26660458 19.66464709 -5.26660458 19.66464709 -2.75 9 C-2.58725586 8.307854 -2.42451172 7.61570801 -2.25683594 6.90258789 C-1.67002477 4.47529519 -1.12065119 2.24130239 0 0 Z " fill="#F7C5BB" transform="translate(123,327)"/>
<path d="M0 0 C3.00453093 0.98672291 6.00276746 1.99134306 9 3 C10.18698486 3.39010254 10.18698486 3.39010254 11.39794922 3.78808594 C22.58886366 7.59053014 22.58886366 7.59053014 27 11 C28.64997964 14.48915694 28.86636059 16.97151189 28.9375 20.80859375 C29.07083871 27.61720139 32.62997691 32.99574347 37 38 C48.92482257 48.46835569 61.52372572 53.53585094 77 56 C78.98 56.33 80.96 56.66 83 57 C83 73.83 83 90.66 83 108 C61.88 108 40.76 108 19 108 C19.5 76.6875 19.5 76.6875 19.78320312 66.9909668 C19.98478467 46.80439785 15.68964843 33.85263413 3.67199707 17.60920715 C-0.04730993 11.80510463 -0.20098969 6.63265963 0 0 Z " fill="#FDDAD3" transform="translate(333,372)"/>
<path d="M0 0 C12.13521568 5.92462041 24.76156677 10.14003935 38 12.8125 C38.88961426 12.99272705 39.77922852 13.1729541 40.69580078 13.35864258 C49.84712234 14.99317151 58.87108453 15.15161574 68.13671875 15.12817383 C70.73220193 15.12502162 73.32653231 15.14853287 75.921875 15.17382812 C90.99051713 15.23261137 105.02257004 13.14568184 119.4375 8.625 C120.88201538 8.18414062 120.88201538 8.18414062 122.35571289 7.734375 C129.53774425 5.46667721 136.37130006 2.66865707 143.06616211 -0.78588867 C143.73397705 -1.11435791 144.40179199 -1.44282715 145.08984375 -1.78125 C145.65566162 -2.07708984 146.22147949 -2.37292969 146.80444336 -2.67773438 C155.12648492 -4.60995085 163.67541366 0.14078091 171.203125 3.16796875 C172.57205108 3.71295539 173.94109199 4.25765366 175.3102417 4.80207825 C178.1672709 5.94112649 181.02105021 7.08791498 183.87304688 8.23950195 C187.51925791 9.71033673 191.17531774 11.15474675 194.83458328 12.59273815 C197.66060471 13.70795673 200.47950813 14.84034537 203.29671478 15.97762489 C204.64183539 16.51751379 205.98941057 17.05133026 207.33945465 17.57878685 C209.2272914 18.3185728 211.10464673 19.08493718 212.98144531 19.85229492 C214.04985657 20.28007736 215.11826782 20.7078598 216.21905518 21.14860535 C219.65081579 23.20189605 221.08905812 25.3320631 223 28.8125 C223.390625 31.8046875 223.390625 31.8046875 223.25 34.6875 C223.21390625 35.65429688 223.1778125 36.62109375 223.140625 37.6171875 C223.09421875 38.34164062 223.0478125 39.06609375 223 39.8125 C220.30726415 38.78008407 217.6147952 37.74697926 214.92260742 36.71313477 C212.57808186 35.81293549 210.23318567 34.91370098 207.88793945 34.01538086 C202.11244313 31.79852762 196.3473289 29.56247106 190.609375 27.25 C169.00317064 18.5520367 149.81753396 14.37072763 127.06005859 21.19628906 C89.57507926 32.4089091 53.23795459 32.63068173 15.70703125 21.43359375 C7.00370566 18.89822015 -1.17515943 17.45118754 -10.25 17.4375 C-11.50876953 17.40076172 -11.50876953 17.40076172 -12.79296875 17.36328125 C-28.69972121 17.29152146 -43.87241803 25.17539845 -58.3125 31.0625 C-61.41724099 32.32140604 -64.52277439 33.57832226 -67.62895203 34.8336792 C-69.54858581 35.61021435 -71.4672491 36.38915376 -73.38484192 37.17071533 C-74.24051254 37.5181781 -75.09618317 37.86564087 -75.9777832 38.22363281 C-76.73275589 38.53133606 -77.48772858 38.83903931 -78.26557922 39.15606689 C-80 39.8125 -80 39.8125 -81 39.8125 C-81 34.8625 -81 29.9125 -81 24.8125 C-75.6468052 22.05853778 -70.29074182 19.63033301 -64.6796875 17.45703125 C-63.51954636 17.00200226 -63.51954636 17.00200226 -62.33596802 16.53778076 C-59.8503105 15.56340974 -57.36275285 14.5940073 -54.875 13.625 C-51.4548564 12.2886808 -48.03570217 10.94985547 -44.6171875 9.609375 C-43.36394684 9.11824974 -43.36394684 9.11824974 -42.08538818 8.61720276 C-37.3074953 6.73884896 -32.55357674 4.81628901 -27.8203125 2.828125 C-26.81371582 2.4055542 -25.80711914 1.9829834 -24.77001953 1.54760742 C-22.98326581 0.79123706 -21.20006811 0.02638359 -19.42138672 -0.7487793 C-11.90574368 -3.92632037 -7.33975068 -3.77486716 0 0 Z " fill="#1969F6" transform="translate(113,389.1875)"/>
<path d="M0 0 C5.55108039 4.51832125 10.55353009 9.48414175 15.55541992 14.5925293 C19.85607305 18.95929742 21.55154187 20.11430437 27.60791016 20.22460938 C29.37081894 20.25838684 29.37081894 20.25838684 31.16934204 20.29284668 C36.56158036 20.3637776 41.95364322 20.42157186 47.34619141 20.45996094 C50.18860677 20.48218886 53.02969914 20.5238804 55.87158203 20.58300781 C59.96927729 20.66808659 64.06554422 20.69528418 68.1640625 20.71875 C69.42892487 20.75174194 70.69378723 20.78473389 71.99697876 20.81872559 C77.96808622 20.80523031 82.00581708 20.67966521 86.63818359 16.67553711 C87.78535034 15.47519185 88.90723669 14.25007545 90 13 C91.20148289 11.81721943 92.40893915 10.64044348 93.625 9.47265625 C94.7526296 8.33854602 95.87765999 7.20184517 97 6.0625 C97.58394531 5.47404297 98.16789062 4.88558594 98.76953125 4.27929688 C100.18204805 2.85520207 101.5913781 1.4279475 103 0 C106.34584964 1.45042909 108.50054036 3.27738825 111.0390625 5.87890625 C111.78414063 6.63494141 112.52921875 7.39097656 113.296875 8.16992188 C114.06515625 8.95947266 114.8334375 9.74902344 115.625 10.5625 C117.15663169 12.12847891 118.69038195 13.69238939 120.2265625 15.25390625 C120.90283691 15.94814697 121.57911133 16.6423877 122.27587891 17.35766602 C125.31435348 20.25200451 127.51100829 20.14999225 131.60791016 20.22460938 C133.37081894 20.25838684 133.37081894 20.25838684 135.16934204 20.29284668 C140.56158036 20.3637776 145.95364322 20.42157186 151.34619141 20.45996094 C154.18860677 20.48218886 157.02969914 20.5238804 159.87158203 20.58300781 C163.96927729 20.66808659 168.06554422 20.69528418 172.1640625 20.71875 C173.42892487 20.75174194 174.69378723 20.78473389 175.99697876 20.81872559 C181.96860981 20.80522912 186.00679063 20.67891633 190.64038086 16.67553711 C191.78763063 15.47595499 192.90887809 14.25085263 194 13 C195.19030033 11.81782694 196.3860947 10.64113228 197.58984375 9.47265625 C198.70839047 8.33855616 199.82430671 7.20185529 200.9375 6.0625 C202.93792506 4.01727259 204.95274717 1.99915291 207 0 C207.33 0 207.66 0 208 0 C209.03001773 21.01236159 209.03001773 21.01236159 201.42578125 29.82421875 C192.89208345 38.03964344 181.87922438 37.43476413 170.77514648 37.38818359 C169.14149628 37.39225424 167.50784883 37.39759888 165.87420654 37.40411377 C161.45898459 37.41773349 157.04397408 37.4125112 152.62874866 37.40297651 C147.99737166 37.39535341 143.36601214 37.40243275 138.7346344 37.40713501 C130.95985684 37.41258431 123.18516493 37.40542207 115.41040039 37.39111328 C106.43360963 37.37478261 97.45702325 37.38008162 88.48023742 37.3965925 C80.75853336 37.41022405 73.03689067 37.41211904 65.31517845 37.40427649 C60.70957564 37.39960989 56.10406879 37.39894731 51.49847221 37.40888596 C47.16863856 37.41757788 42.83906749 37.41149323 38.50926208 37.39420319 C36.92425026 37.39025045 35.33921618 37.39135153 33.75421333 37.39799118 C22.67344304 37.44011532 14.13197631 36.96802857 5.765625 28.98046875 C-1.69863805 20.6079436 -0.40971708 10.55021491 0 0 Z " fill="#F7F7F7" transform="translate(80,204)"/>
<path d="M0 0 C16.58828255 6.21736388 33.10779517 12.57668415 49.53759766 19.20214844 C50.73433105 19.68458008 51.93106445 20.16701172 53.1640625 20.6640625 C54.22061035 21.09154785 55.2771582 21.5190332 56.36572266 21.95947266 C58.22351199 22.69329084 60.10503739 23.3683458 62 24 C56.1946976 57.24855012 56.1946976 57.24855012 46 67 C36.10858762 73.64115365 28.63868978 75.65019851 16.60546875 73.3515625 C5.17768572 70.11806645 -5.01777125 64.82935116 -12 55 C-13.78452009 51.43095982 -14.02939606 47.85046246 -13 44 C-10.90263788 42.07376157 -8.73431882 40.80358856 -6.26171875 39.3984375 C-1.6793434 36.56512079 0.28011003 31.92019157 2 27 C2.8523654 20.36939007 2.18555506 15.58910812 -1.171875 9.85546875 C-2.55270574 6.76162628 -1.84036774 4.16753994 -1 1 C-0.67 0.67 -0.34 0.34 0 0 Z " fill="#F7C5BB" transform="translate(389,339)"/>
<path d="M0 0 C0.83015625 0.70769531 1.6603125 1.41539062 2.515625 2.14453125 C1.525625 2.63953125 1.525625 2.63953125 0.515625 3.14453125 C-0.22042969 2.83386719 -0.95648438 2.52320313 -1.71484375 2.203125 C-4.9773862 0.95608832 -7.31352843 1.11462413 -10.796875 1.20703125 C-21.68506481 0.96707496 -31.08815954 -4.89743806 -40.67529297 -9.52539062 C-69.37557468 -23.11474703 -103.66836713 -24.89135984 -133.69921875 -14.65625 C-151.76886805 -9.03407178 -151.76886805 -9.03407178 -167.484375 0.14453125 C-169.68874555 0.35728551 -171.89859895 0.51421182 -174.109375 0.64453125 C-178.953707 0.95595259 -183.69780684 1.34676989 -188.484375 2.14453125 C-169.93556621 -17.26301869 -142.25998901 -29.84244502 -116.484375 -35.85546875 C-114.95296875 -36.22478516 -114.95296875 -36.22478516 -113.390625 -36.6015625 C-72.68122754 -44.8920999 -30.7022557 -25.54032674 0 0 Z " fill="#1969F5" transform="translate(277.484375,128.85546875)"/>
<path d="M0 0 C0.83496002 0.00424484 1.66992004 0.00848969 2.53018188 0.01286316 C5.17931285 0.02956542 7.8276641 0.067201 10.4765625 0.10546875 C12.27993688 0.12052655 14.08332326 0.13421304 15.88671875 0.14648438 C20.291964 0.17944113 24.69663136 0.23116406 29.1015625 0.29296875 C30.39797489 22.01001317 30.39797489 22.01001317 25.9765625 28.35546875 C24.05078125 30.51171875 24.05078125 30.51171875 22.1015625 32.29296875 C21.53050781 32.83953125 20.95945312 33.38609375 20.37109375 33.94921875 C14.75690487 38.93960886 10.340756 38.6572049 3.1015625 38.29296875 C-0.93049427 37.7911003 -4.90412635 37.032656 -8.8984375 36.29296875 C-12.14660009 35.7401638 -15.3975574 35.20452796 -18.6484375 34.66796875 C-20.22660905 34.40522739 -21.80473787 34.14222914 -23.3828125 33.87890625 C-24.54296875 33.68554688 -25.703125 33.4921875 -26.8984375 33.29296875 C-27.89524786 16.48010076 -27.89524786 16.48010076 -21.8984375 9.29296875 C-15.4747484 2.52568697 -9.25773874 -0.17912905 0 0 Z " fill="#E73131" transform="translate(378.8984375,71.70703125)"/>
<path d="M0 0 C1.5078125 1.8984375 1.5078125 1.8984375 3.125 4.375 C3.66382813 5.18710937 4.20265625 5.99921875 4.7578125 6.8359375 C6 9 6 9 6 11 C4.47076904 11.74890503 4.47076904 11.74890503 2.91064453 12.51293945 C-0.8691072 14.36662735 -4.64356185 16.23088478 -8.41650391 18.09838867 C-10.05049277 18.9053228 -11.68590585 19.70937961 -13.32275391 20.51049805 C-15.67470172 21.66222507 -18.02134091 22.82418768 -20.3671875 23.98828125 C-21.10057343 24.34465164 -21.83395935 24.70102203 -22.58956909 25.06819153 C-25.99542553 26.77036375 -27.8478437 27.77176555 -30 31 C-30.45772063 33.73872955 -30.45772063 33.73872955 -30.625 36.6875 C-30.74875 38.440625 -30.8725 40.19375 -31 42 C-36.28 42 -41.56 42 -47 42 C-47 33.09 -47 24.18 -47 15 C-43.91914063 14.00097656 -40.83828125 13.00195312 -37.6640625 11.97265625 C-34.68867881 11.00664524 -31.71347166 10.04009242 -28.73828125 9.07348633 C-26.66652542 8.40071807 -24.59458583 7.72851543 -22.52246094 7.05688477 C-19.54834561 6.09278757 -16.57489172 5.12667469 -13.6015625 4.16015625 C-12.67131256 3.85908463 -11.74106262 3.558013 -10.78262329 3.24781799 C-9.92188202 2.967603 -9.06114075 2.687388 -8.17431641 2.39868164 C-7.41486725 2.15219376 -6.65541809 1.90570587 -5.87295532 1.65174866 C-1.12626133 0 -1.12626133 0 0 0 Z " fill="#AA2520" transform="translate(471,46)"/>
<path d="M0 0 C3.74268866 1.15683104 5.01301218 2.05963342 7.4375 5.0625 C7.93197632 7.43930054 7.93197632 7.43930054 7.92333984 10.10302734 C7.9294931 11.10441742 7.93564636 12.1058075 7.94198608 13.13754272 C7.92761505 14.213638 7.91324402 15.28973328 7.8984375 16.3984375 C7.89706284 18.06660019 7.89706284 18.06660019 7.8956604 19.76846313 C7.88961984 22.12042508 7.87386039 24.47237916 7.84912109 26.82421875 C7.81270821 30.41695655 7.80810117 34.00865977 7.80859375 37.6015625 C7.79875875 39.88802971 7.78710009 42.17448996 7.7734375 44.4609375 C7.77121185 45.53298431 7.76898621 46.60503113 7.76669312 47.70956421 C7.70129213 52.87459019 7.5147476 57.23561891 5.4375 62.0625 C-0.05042372 60.02897567 -4.66758342 57.50952297 -8.5625 53.0625 C-9.79945646 49.36821798 -9.73641943 45.92283655 -9.6171875 42.0546875 C-9.61631134 41.01104034 -9.61543518 39.96739319 -9.61453247 38.89212036 C-9.60316948 36.69495454 -9.56993888 34.49780535 -9.51611328 32.30126953 C-9.43755786 28.93997583 -9.43403432 25.58474838 -9.44140625 22.22265625 C-9.42108621 20.08328679 -9.3964925 17.94395275 -9.3671875 15.8046875 C-9.36476044 14.8025119 -9.36233337 13.8003363 -9.35983276 12.76779175 C-9.21666175 8.08378123 -9.07144928 5.75508527 -6.23486328 1.89501953 C-3.5625 0.0625 -3.5625 0.0625 0 0 Z " fill="#F7C5BB" transform="translate(368.5625,271.9375)"/>
<path d="M0 0 C3.90221844 2.16311951 6.87749351 4.34682533 9.6875 7.8125 C9.6875 8.4725 9.6875 9.1325 9.6875 9.8125 C8.00720703 10.35777344 8.00720703 10.35777344 6.29296875 10.9140625 C4.81991412 11.42071823 3.34727916 11.92859525 1.875 12.4375 C1.13701172 12.67339844 0.39902344 12.90929688 -0.36132812 13.15234375 C-1.07353516 13.40371094 -1.78574219 13.65507813 -2.51953125 13.9140625 C-3.1741333 14.13400879 -3.82873535 14.35395508 -4.50317383 14.58056641 C-7.07350208 16.11543432 -7.07350208 16.11543432 -9.3125 21.8125 C-17.2325 21.8125 -25.1525 21.8125 -33.3125 21.8125 C-31.82855996 8.45703961 -31.82855996 8.45703961 -25.0859375 3.015625 C-16.93656493 -2.55886438 -9.24398845 -4.41441963 0 0 Z " fill="#AA2520" transform="translate(417.3125,34.1875)"/>
<path d="M0 0 C5.28 0 10.56 0 16 0 C16 10.89 16 21.78 16 33 C10.06 35.475 10.06 35.475 4 38 C2.68 38.66 1.36 39.32 0 40 C0 26.8 0 13.6 0 0 Z " fill="#891D19" transform="translate(352,24)"/>
<path d="M0 0 C4.43933228 2.09582211 8.15016042 4.93810422 12.0625 7.875 C12.78244141 8.40480469 13.50238281 8.93460937 14.24414062 9.48046875 C14.93830078 9.99996094 15.63246094 10.51945312 16.34765625 11.0546875 C16.97679932 11.52374512 17.60594238 11.99280273 18.25415039 12.47607422 C20.19780806 14.17266367 21.61996738 15.81926676 23 18 C22.92639149 21.53320839 22.37138247 23.45721024 20.375 26.375 C17.17419497 28.56502449 14.7171048 28.61761377 11 28 C6.90562509 26.58164396 2.99783031 24.80766259 -0.9375 23 C-2.00291016 22.52304687 -3.06832031 22.04609375 -4.16601562 21.5546875 C-6.78277849 20.38125124 -9.39356842 19.19616536 -12 18 C-10.8431636 14.88490439 -9.67464976 12.27936316 -7.6171875 9.66796875 C-7.17246094 9.09755859 -6.72773438 8.52714844 -6.26953125 7.93945312 C-5.80933594 7.36130859 -5.34914063 6.78316406 -4.875 6.1875 C-4.40707031 5.59001953 -3.93914062 4.99253906 -3.45703125 4.37695312 C-2.30994435 2.91383208 -1.15568766 1.45633703 0 0 Z " fill="#F8D5CE" transform="translate(353,340)"/>
<path d="M0 0 C1.65 1.65 3.3 3.3 5 5 C5.95519531 5.52078125 6.91039062 6.0415625 7.89453125 6.578125 C11.4188222 8.59739746 14.16162006 10.34390617 16 14 C17.43598983 22.2239222 16.62107022 30.7253372 16 39 C10.72 39 5.44 39 0 39 C0 26.13 0 13.26 0 0 Z " fill="#891D19" transform="translate(352,201)"/>
<path d="M0 0 C3.622774 1.36242655 5.78307785 2.41876632 8.25 5.4375 C9.00023437 6.33275391 9.00023437 6.33275391 9.765625 7.24609375 C13.19029062 12.11215345 12.68093585 18.34757131 12 24 C9.34930718 32.12813925 5.41459706 37.70931947 -2 42 C-1.84152588 41.35200439 -1.68305176 40.70400879 -1.51977539 40.03637695 C-0.85729303 36.16634731 -0.76710874 32.33335999 -0.68359375 28.41796875 C-0.66281265 27.60378983 -0.64203156 26.7896109 -0.62062073 25.95075989 C-0.55550537 23.36308821 -0.49641792 20.77531947 -0.4375 18.1875 C-0.39427858 16.42772455 -0.35066315 14.66795872 -0.30664062 12.90820312 C-0.1998632 8.60556691 -0.09848982 4.30283357 0 0 Z " fill="#F9D6CF" transform="translate(304,187)"/>
<path d="M0 0 C0.02505615 1.09989258 0.0501123 2.19978516 0.07592773 3.33300781 C0.17018206 7.41824765 0.27035865 11.50332461 0.37231445 15.58837891 C0.41559514 17.35559272 0.45727505 19.1228465 0.49731445 20.89013672 C0.55518351 23.4320886 0.61882981 25.97384059 0.68359375 28.515625 C0.70030624 29.30430969 0.71701874 30.09299438 0.73423767 30.90557861 C0.8288914 34.41959549 1.06273524 37.61519632 2 41 C-3.96539941 38.01730029 -7.55084795 33.46355848 -10.875 27.8125 C-12.64360202 21.81890426 -13.39121115 15.53241678 -11.05078125 9.58984375 C-8.68017251 5.5889741 -5.07105193 0 0 0 Z " fill="#F9D6CF" transform="translate(64,187)"/>
<path d="M0 0 C9.5952679 7.83287175 18.99738786 17.3935724 20.875 30.25 C20.91625 31.1575 20.9575 32.065 21 33 C2.68713683 23.80990506 2.68713683 23.80990506 0 16 C-0.13997227 13.21175242 -0.1888913 10.53172884 -0.125 7.75 C-0.11597656 7.00492187 -0.10695313 6.25984375 -0.09765625 5.4921875 C-0.07418358 3.66131941 -0.03831525 1.83061762 0 0 Z " fill="#A72420" transform="translate(456,88)"/>
<path d="M0 0 C0.99 0.99 0.99 0.99 2 2 C-19.78 2 -41.56 2 -64 2 C-51.1336411 -10.8663589 -15.40861521 -4.34358083 0 0 Z " fill="#D2B4AF" transform="translate(215,127)"/>
<path d="M0 0 C-1.5453963 8.96329857 -4.46087075 19.46087075 -11 26 C-11 17.75 -11 9.5 -11 1 C-2 0 -2 0 0 0 Z " fill="#F8D5CE" transform="translate(275,255)"/>
<path d="M0 0 C3.63 0.33 7.26 0.66 11 1 C11 9.25 11 17.5 11 26 C5.20007601 18.26676801 1.61157332 9.5082826 0 0 Z " fill="#FAD6D0" transform="translate(93,255)"/>
<path d="M0 0 C3.63 0.33 7.26 0.66 11 1 C11 3.64 11 6.28 11 9 C8.03 9 5.06 9 2 9 C1.34 6.03 0.68 3.06 0 0 Z " fill="#F0C0B6" transform="translate(93,255)"/>
<path d="M0 0 C-0.66 2.97 -1.32 5.94 -2 9 C-4.97 9 -7.94 9 -11 9 C-11 6.36 -11 3.72 -11 1 C-9.54182203 0.83197949 -8.0834516 0.66562857 -6.625 0.5 C-5.81289063 0.4071875 -5.00078125 0.314375 -4.1640625 0.21875 C-2 0 -2 0 0 0 Z " fill="#F0C0B6" transform="translate(275,255)"/>
</svg>
