<?xml version="1.0" encoding="UTF-8"?>
<svg version="1.1" xmlns="http://www.w3.org/2000/svg" width="512" height="512">
<path d="M0 0 C3.07192455 0.62116121 4.37587028 1.87887333 6.125 4.4296875 C6.62 5.9146875 6.62 5.9146875 7.125 7.4296875 C88.965 7.4296875 170.805 7.4296875 255.125 7.4296875 C256.61 4.4596875 256.61 4.4596875 258.125 1.4296875 C261.59030209 -0.30296354 265.33607035 -0.0346751 269.125 0.4296875 C271.6875 1.9296875 271.6875 1.9296875 273.125 4.4296875 C273.71088002 11.41274397 271.974271 17.16715492 269.9375 23.8046875 C267.24432837 32.96489746 265.01838074 42.10869621 263.25 51.4921875 C262.94606323 53.10456299 262.94606323 53.10456299 262.63598633 54.74951172 C259.05212915 74.32847767 256.64718044 97.54245858 264.125 116.4296875 C264.57697754 117.6355249 264.57697754 117.6355249 265.03808594 118.86572266 C269.88598786 131.78181869 275.39690812 144.41598027 280.90527344 157.05953979 C314.93510644 235.19716339 333.78586824 312.09442728 337.125 397.4296875 C337.15529297 398.19684082 337.18558594 398.96399414 337.21679688 399.75439453 C340.35807271 480.15360429 340.35807271 480.15360429 335.125 505.4296875 C334.465 506.0896875 333.805 506.7496875 333.125 507.4296875 C332.13378364 507.105431 331.14256727 506.78117451 330.12131405 506.44709206 C326.14635523 505.31801605 322.29734424 505.13996166 318.18397522 505.1512146 C317.41436995 505.1454222 316.64476469 505.1396298 315.85183805 505.13366187 C313.28928433 505.11674203 310.72691158 505.11379232 308.16430664 505.11083984 C306.32092857 505.10153613 304.4775547 505.0913668 302.63418579 505.08039856 C297.64096679 505.05313453 292.64777595 505.03795978 287.65450215 505.02497053 C282.43210581 505.00932428 277.20976683 504.9825388 271.9874115 504.9569397 C262.10306975 504.91017841 252.21871717 504.87342144 242.33432144 504.84026682 C231.0791987 504.80202674 219.82413361 504.7526215 208.56905949 504.70228267 C185.42108241 504.5990022 162.27306828 504.50972914 139.125 504.4296875 C138.6609375 505.38875 138.6609375 505.38875 138.1875 506.3671875 C137.125 508.4296875 137.125 508.4296875 136.125 509.4296875 C134.19921875 509.66796875 134.19921875 509.66796875 131.8125 509.7421875 C131.03261719 509.77957031 130.25273437 509.81695312 129.44921875 509.85546875 C127.125 509.4296875 127.125 509.4296875 125.43214798 507.43551254 C122.22125115 504.64397193 120.10471669 504.92258811 115.88641357 504.91070557 C115.15612355 504.90320431 114.42583354 504.89570306 113.67341352 504.8879745 C111.22567229 504.8676701 108.77885497 504.87580495 106.33105469 504.88378906 C104.57678306 504.87505551 102.82251941 504.86457049 101.06826782 504.85246277 C96.30413067 504.82455541 91.54025283 504.82119913 86.7760458 504.82218266 C81.79784242 504.81905762 76.81975654 504.79344796 71.84161377 504.77020264 C62.41401806 504.7296077 52.98649158 504.70929372 43.55882192 504.69622874 C32.82610212 504.68037053 22.09350033 504.64195988 11.3608489 504.60163546 C-10.7177285 504.5191887 -32.7963004 504.46512643 -54.875 504.4296875 C-55.01349365 505.21786865 -55.1519873 506.0060498 -55.29467773 506.81811523 C-55.94336522 509.73734538 -56.45623852 510.71616855 -58.875 512.4296875 C-62.97654633 513.26812515 -66.69231316 513.12716948 -70.3125 510.9921875 C-74.95006566 503.38657982 -74.51408384 493.13559012 -75 484.4921875 C-75.04169312 483.76918457 -75.08338623 483.04618164 -75.12634277 482.30126953 C-77.13648071 446.68868106 -75.38864383 411.03161993 -73.875 375.4296875 C-73.83632812 374.518703 -73.79765625 373.60771851 -73.7578125 372.66912842 C-70.50118922 297.36880157 -49.82148584 228.67291656 -19.9453125 160.0625 C-19.52442352 159.09448456 -19.10353455 158.12646912 -18.66989136 157.12911987 C-16.62287885 152.42547468 -14.56500034 147.72723431 -12.48388672 143.03857422 C6.43911278 100.09212079 5.30404372 59.84369422 -9.95068359 15.2878418 C-11.48181569 10.55330313 -11.64319125 6.99946961 -9.4375 2.4921875 C-6.17147177 -0.13656693 -4.10215543 -0.22939685 0 0 Z " fill="#FEFEFE" transform="translate(124.875,-0.4296875)"/>
<path d="M0 0 C3.62349238 0.8395414 5.18925044 1.46726164 7.76171875 4.078125 C10.5820132 6.85685721 13.4498726 9.38908448 16.57421875 11.828125 C17.27546875 11.0340625 17.97671875 10.24 18.69921875 9.421875 C27.27785037 0.04321881 27.27785037 0.04321881 31.76171875 -0.296875 C37.08078937 1.27268682 39.74600025 3.91117296 43.57421875 7.828125 C44.69218205 8.92634351 45.81212985 10.02254393 46.93359375 11.1171875 C57.39541771 21.39599746 57.39541771 21.39599746 57.98046875 26.08203125 C57.46786478 30.80883127 55.46948363 32.74992905 52.07421875 35.765625 C51.54957031 36.25869141 51.02492188 36.75175781 50.484375 37.25976562 C49.1963451 38.46582999 47.88727612 39.64935759 46.57421875 40.828125 C48.0120959 44.19558857 49.80664885 46.14003593 52.51171875 48.578125 C56.49582099 52.42509329 58.00414045 55.56374482 59.57421875 60.828125 C59.90421875 61.158125 60.23421875 61.488125 60.57421875 61.828125 C69.26767725 61.33767546 77.64232339 59.05431837 86.07421875 57.015625 C87.5272238 56.66811787 88.98034831 56.32110983 90.43359375 55.97460938 C96.3734337 54.55659567 102.31236836 53.13530414 108.24609375 51.69189453 C109.76168413 51.32700459 111.27730802 50.96225383 112.79296875 50.59765625 C113.48579956 50.42727341 114.17863037 50.25689056 114.89245605 50.0813446 C123.14960342 48.10603673 130.74783213 47.44239156 138.5 51.3671875 C143.48384416 54.87746568 146.64987784 59.65793331 149.01171875 65.203125 C150.7261935 76.25196226 149.33991361 85.84582788 142.89453125 95.2890625 C140.25307463 98.44707064 137.98614491 100.59389247 134.38671875 102.640625 C130.60101941 105.58505782 130.07413627 108.61445404 128.61328125 113.07421875 C126.25728917 119.31848346 122.41276714 122.61615173 116.57421875 125.640625 C114.91590301 126.38858937 113.250017 127.12019702 111.57421875 127.828125 C110.62546875 128.26125 109.67671875 128.694375 108.69921875 129.140625 C98.25415599 131.43853881 89.860897 129.46042799 80.76171875 124.203125 C76.6443854 119.73287736 73.38790205 113.99475876 72.94921875 107.828125 C73.48734733 101.31808163 76.34991456 95.88449251 81.109375 91.484375 C90.73172376 84.1782725 99.62758625 82.75567156 111.57421875 83.828125 C114.39821952 84.65871346 116.89246457 85.64445453 119.5234375 86.953125 C121.81579625 88.08975079 121.81579625 88.08975079 125.57421875 87.828125 C129.68590428 83.42957769 131.71797078 80.84909876 131.76171875 74.890625 C131.77589844 74.01535156 131.79007813 73.14007813 131.8046875 72.23828125 C131.74085224 69.56568165 131.74085224 69.56568165 129.57421875 66.828125 C122.67887501 66.11151884 116.36896274 67.81756682 109.69921875 69.453125 C107.40240769 70.00026849 105.10553058 70.54713475 102.80859375 71.09375 C101.03645508 71.52010742 101.03645508 71.52010742 99.22851562 71.95507812 C93.14410256 73.40870327 87.0461608 74.80317428 80.94921875 76.203125 C78.74863492 76.71066444 76.54810814 77.21845134 74.34765625 77.7265625 C72.75651042 78.09375 71.16536458 78.4609375 69.57421875 78.828125 C69.620625 79.79492188 69.66703125 80.76171875 69.71484375 81.7578125 C70.07075094 94.59589325 67.35254273 102.30309306 59.19189453 112.10009766 C55.02515806 117.16163958 51.82037056 122.69494555 52.00390625 129.47265625 C52.79292539 132.73141338 54.38499751 135.25116762 56.07421875 138.140625 C61.43665497 147.57373648 60.033478 154.83226266 57.62207031 165.04248047 C55.83921389 171.48352698 53.4441896 177.67548069 51.01342773 183.89575195 C50.13250551 186.1514133 49.2654937 188.4120585 48.40039062 190.67382812 C47.83543528 192.13832965 47.26970707 193.6025333 46.703125 195.06640625 C46.32167076 196.05886101 46.32167076 196.05886101 45.93251038 197.07136536 C40.87785449 209.95903451 40.87785449 209.95903451 36.57421875 212.828125 C32.92415048 213.30422086 31.00625148 213.04414136 27.69921875 211.390625 C25.18739842 208.36166519 25.08141861 206.45085188 25.17773438 202.58618164 C26.00471315 196.83348506 28.51820697 191.58756031 30.76171875 186.265625 C31.78076701 183.77300066 32.78699418 181.27526817 33.79296875 178.77734375 C34.51806641 176.98369385 34.51806641 176.98369385 35.2578125 175.15380859 C36.90097864 171.00261996 38.40971393 166.83248274 39.76171875 162.578125 C40.12652344 161.43859375 40.49132812 160.2990625 40.8671875 159.125 C42.11167302 153.32198465 42.47593917 148.26195727 39.13671875 143.078125 C34.56339442 135.83377079 34.97761562 128.17204589 35.57421875 119.828125 C37.44248422 111.60100418 42.59809402 104.31120563 48.13671875 98.06640625 C51.97312179 93.565172 52.24305953 89.55868176 52.015625 83.71875 C51.38945232 79.61815016 49.99902165 77.16222899 47.57421875 73.828125 C46.92066406 74.40820312 46.92066406 74.40820312 46.25390625 75 C36.43743267 83.58410244 36.43743267 83.58410244 31.7109375 84.203125 C27.65617304 83.71837109 26.31713241 82.30305801 23.44921875 79.453125 C20.612697 76.66962235 18.26272183 74.37491661 14.57421875 72.828125 C13.87554687 73.53839844 13.176875 74.24867188 12.45703125 74.98046875 C11.54695312 75.89957031 10.636875 76.81867188 9.69921875 77.765625 C8.79429687 78.68214844 7.889375 79.59867187 6.95703125 80.54296875 C4.4023141 82.99298438 3.371384 83.676284 -0.05078125 84.328125 C-4.4755695 83.67260081 -6.33145849 81.68353053 -9.49609375 78.65234375 C-11.37752307 76.87374558 -13.32879112 75.34261787 -15.42578125 73.828125 C-19.28225881 79.42623758 -20.98983344 82.94668834 -20.42578125 89.828125 C-18.78301516 94.87152153 -15.78014062 98.72287098 -12.42578125 102.765625 C-5.07706464 111.64703483 -2.78375631 120.45009466 -2.9921875 131.8671875 C-3.55495651 137.00815846 -5.36088168 140.53182429 -8.11328125 144.8515625 C-11.34317482 152.1764997 -9.05792459 159.25534941 -6.48828125 166.453125 C-6.02989868 167.79044678 -6.02989868 167.79044678 -5.56225586 169.15478516 C-3.81391572 174.17380595 -1.93082834 179.12800726 0.04296875 184.0625 C0.45297119 185.08778809 0.86297363 186.11307617 1.28540039 187.16943359 C2.08667146 189.15163432 2.90046005 191.12883327 3.72827148 193.10009766 C5.79449624 198.16124807 7.28779861 202.25643577 6.57421875 207.828125 C4.12822988 211.20934491 2.68125316 212.59749283 -1.42578125 213.453125 C-5.45028925 212.61468583 -6.74287402 210.90127808 -9.42578125 207.828125 C-10.92382812 204.91235352 -10.92382812 204.91235352 -12.14453125 201.70703125 C-12.60214844 200.52302734 -13.05976563 199.33902344 -13.53125 198.11914062 C-13.99144531 196.88873047 -14.45164062 195.65832031 -14.92578125 194.390625 C-15.38597656 193.19501953 -15.84617187 191.99941406 -16.3203125 190.76757812 C-30.89322014 152.69329126 -30.89322014 152.69329126 -25.82421875 141.1953125 C-24.86414656 139.37967242 -23.86819151 137.58695574 -22.87011719 135.79199219 C-20.55998388 131.5065624 -19.63509267 128.59450723 -20.72265625 123.83203125 C-22.77190255 117.99167928 -25.46268892 113.67290401 -29.42578125 108.890625 C-37.05730295 99.49360201 -38.32865334 91.80228104 -37.42578125 79.828125 C-37.09578125 79.168125 -36.76578125 78.508125 -36.42578125 77.828125 C-37.21412354 77.71782959 -38.00246582 77.60753418 -38.81469727 77.49389648 C-46.77291927 76.33196195 -54.54418738 74.76121041 -62.36328125 72.890625 C-64.6418094 72.35756963 -66.92045427 71.82501292 -69.19921875 71.29296875 C-72.07638249 70.61697745 -74.95331937 69.94014512 -77.82910156 69.25830078 C-84.80428647 67.6138919 -91.24184039 66.22946326 -98.42578125 66.828125 C-100.90580718 69.30815093 -100.72272818 70.15645013 -100.73828125 73.578125 C-100.61367486 79.34324746 -99.17340513 82.93070479 -95.23828125 87.203125 C-94.64015625 87.739375 -94.04203125 88.275625 -93.42578125 88.828125 C-92.43578125 88.4259375 -92.43578125 88.4259375 -91.42578125 88.015625 C-89.94078125 87.4278125 -89.94078125 87.4278125 -88.42578125 86.828125 C-87.33265625 86.291875 -86.23953125 85.755625 -85.11328125 85.203125 C-77.56184551 82.44806432 -68.48772924 82.47864062 -60.8984375 85 C-53.00519373 88.78563484 -47.9857514 93.33674547 -43.42578125 100.828125 C-41.42952039 106.81690758 -41.91473056 111.36225136 -44.48828125 117.015625 C-47.04367468 121.69572757 -49.70880235 124.39546922 -54.42578125 126.828125 C-55.00972656 127.14523437 -55.59367187 127.46234375 -56.1953125 127.7890625 C-63.23319471 131.01908002 -71.27478875 130.96021386 -78.6484375 128.94921875 C-87.04611452 125.73240947 -94.00637866 121.49953489 -97.86328125 113.140625 C-98.71741296 110.98422969 -99.3900827 109.0481277 -99.76171875 106.7578125 C-100.69928607 104.03335217 -102.25235189 103.2422605 -104.61328125 101.640625 C-112.39465908 95.82624093 -116.69471587 88.37044409 -118.42578125 78.828125 C-119.46187351 69.78470241 -117.56950759 62.82915224 -112.17578125 55.515625 C-107.4565639 50.90366259 -103.16697256 48.59997176 -96.48046875 48.56640625 C-89.85907872 48.67414263 -83.62297041 49.96532124 -77.17578125 51.390625 C-75.94029541 51.65294922 -74.70480957 51.91527344 -73.43188477 52.18554688 C-66.52935598 53.66432005 -59.65167302 55.23464075 -52.78125 56.85546875 C-51.36038515 57.18756235 -49.93948707 57.5195138 -48.51855469 57.85131836 C-45.78432045 58.49012272 -43.05582395 59.14853702 -40.32910156 59.81860352 C-39.0912793 60.11049561 -37.85345703 60.4023877 -36.578125 60.703125 C-35.48491943 60.96867187 -34.39171387 61.23421875 -33.26538086 61.5078125 C-30.16423626 61.8576278 -28.89799965 61.70755088 -26.42578125 59.828125 C-26.21953125 58.838125 -26.01328125 57.848125 -25.80078125 56.828125 C-24.47065387 50.77860335 -18.79999714 46.83916798 -14.42578125 42.828125 C-14.80089844 42.39242187 -15.17601562 41.95671875 -15.5625 41.5078125 C-16.63345397 40.26151342 -17.69818738 39.00985147 -18.7578125 37.75390625 C-19.78096128 36.5726127 -20.83529792 35.41649196 -21.9375 34.30859375 C-24.42609686 31.72016779 -25.42303665 29.84081523 -26.18359375 26.32421875 C-26.00367443 20.14108601 -21.08404221 16.29749773 -16.89306641 12.25244141 C-15.42834196 10.83061072 -14.01130647 9.37103649 -12.59375 7.90234375 C-4.81717322 0.21277762 -4.81717322 0.21277762 0 0 Z " fill="#601437" transform="translate(240.42578125,192.171875)"/>
<path d="M0 0 C3.27589673 0.83627645 4.21593932 1.79202096 6.21875 4.56640625 C7.49778239 8.10493411 8.35640345 11.71964918 9.21875 15.37890625 C9.73621957 17.48456182 10.25444753 19.59003116 10.7734375 21.6953125 C11.02061523 22.71383301 11.26779297 23.73235352 11.52246094 24.78173828 C12.08476002 27.03054031 12.6856454 29.24922776 13.3515625 31.46875 C18.6983431 49.50887194 20.5932932 68.12898311 20.65625 86.87890625 C20.66233276 87.5619281 20.66841553 88.24494995 20.67468262 88.94866943 C20.82442097 114.53771951 10.07247593 137.1271745 -0.04562378 160.1388855 C-14.29478998 192.5798549 -28.42002332 225.31947539 -37.78125 259.56640625 C-38.049375 260.54464355 -38.3175 261.52288086 -38.59375 262.53076172 C-54.59056735 321.38512376 -57.05092596 380.22292234 -57.09132385 440.87527847 C-57.09373799 443.98842213 -57.09907285 447.10155169 -57.10461426 450.21469116 C-57.11153156 455.18451259 -57.10557454 460.15417085 -57.08958244 465.12397003 C-57.08462808 466.96993704 -57.08264192 468.81591491 -57.08392525 470.66188812 C-57.08550353 480.13817496 -56.83422435 489.25019883 -55.20817566 498.60804749 C-54.56818776 503.04280977 -54.18884009 506.38158644 -56.21875 510.44140625 C-59.48251394 513.1479422 -61.51554953 513.24488001 -65.66015625 512.97265625 C-67.78125 512.56640625 -67.78125 512.56640625 -70.21875 511.12890625 C-74.85631566 503.52329857 -74.42033384 493.27230887 -74.90625 484.62890625 C-74.94794312 483.90590332 -74.98963623 483.18290039 -75.03259277 482.43798828 C-77.04273071 446.82539981 -75.29489383 411.16833868 -73.78125 375.56640625 C-73.74257812 374.65542175 -73.70390625 373.74443726 -73.6640625 372.80584717 C-70.40743922 297.50552032 -49.72773584 228.80963531 -19.8515625 160.19921875 C-19.43067352 159.23120331 -19.00978455 158.26318787 -18.57614136 157.26583862 C-16.52912885 152.56219343 -14.47125034 147.86395306 -12.39013672 143.17529297 C6.53286278 100.22883954 5.39779372 59.98041297 -9.85693359 15.42456055 C-11.38806569 10.69002188 -11.54944125 7.13618836 -9.34375 2.62890625 C-6.09384115 0.01312595 -4.0621279 0.0069557 0 0 Z " fill="#5F1336" transform="translate(124.78125,-0.56640625)"/>
<path d="M0 0 C2.5625 1.5 2.5625 1.5 4 4 C4.58588002 10.98305647 2.849271 16.73746742 0.8125 23.375 C-1.88067163 32.53520996 -4.10661926 41.67900871 -5.875 51.0625 C-6.17893677 52.67487549 -6.17893677 52.67487549 -6.48901367 54.31982422 C-10.07287085 73.89879017 -12.47781956 97.11277108 -5 116 C-4.69868164 116.8038916 -4.39736328 117.6077832 -4.08691406 118.43603516 C0.76098786 131.35213119 6.27190812 143.98629277 11.78027344 156.62985229 C45.81010644 234.76747589 64.66086824 311.66473978 68 397 C68.03029297 397.76715332 68.06058594 398.53430664 68.09179688 399.32470703 C71.23307271 479.72391679 71.23307271 479.72391679 66 505 C65.34 505.66 64.68 506.32 64 507 C59.05 505.35 54.1 503.7 49 502 C49.06983093 500.84070984 49.13966187 499.68141968 49.21160889 498.48699951 C49.86388519 487.21814469 50.17429949 475.98945633 50.203125 464.703125 C50.21002753 462.99590537 50.21697665 461.28868594 50.22396851 459.58146667 C50.24302382 454.13764227 50.24763123 448.69385351 50.25 443.25 C50.25088371 442.32299915 50.25176743 441.39599831 50.25267792 440.44090652 C50.27328137 416.0720588 50.04520317 391.77077863 48.625 367.4375 C48.53031433 365.80669495 48.53031433 365.80669495 48.43371582 364.14294434 C45.75238228 319.40881912 37.64206895 275.41902163 23 233 C22.59539551 231.82743652 22.19079102 230.65487305 21.77392578 229.44677734 C13.54805721 205.98360206 3.50459755 183.27156705 -6.35519409 160.46183777 C-27.22753291 112.12493784 -27.22753291 112.12493784 -27.25 85.875 C-27.25067474 85.1654718 -27.25134949 84.4559436 -27.25204468 83.72491455 C-27.22172178 63.55820575 -23.9717635 44.50698116 -19 25 C-18.75314453 24.0291748 -18.50628906 23.05834961 -18.25195312 22.05810547 C-17.50187193 19.15750521 -16.72605339 16.26535823 -15.9375 13.375 C-15.70442139 12.49191162 -15.47134277 11.60882324 -15.23120117 10.69897461 C-12.77272592 2.00860995 -9.32481878 -1.64253689 0 0 Z " fill="#5F1436" transform="translate(394,0)"/>
<path d="M0 0 C3.15624686 1.38736126 5.19863433 3.00392708 7.5625 5.5 C11.47690904 9.65130954 11.47690904 9.65130954 16.8125 11.375 C23.40839539 10.59901231 28.19189415 5.26754957 33 1 C37.48912985 6.35799369 38.75 10.51762071 38.75 17.46875 C37.46809606 23.50438104 33.64208302 27.67502644 29.796875 32.359375 C22.23194519 41.73085522 21.10513611 51.23552269 22 63 C23.28885539 67.85000557 25.22545639 71.83818458 28 76 C28.84518317 83.53694268 26.39492565 89.87930415 23.9375 96.9375 C23.53208984 98.13012451 23.12667969 99.32274902 22.70898438 100.55151367 C20.115297 108.08267381 17.34561719 115.51352865 14.12084961 122.79858398 C12.40757012 126.71102923 11.72678854 129.63926873 11 134 C4.73 133.67 -1.54 133.34 -8 133 C-8.804375 130.69 -9.60875 128.38 -10.4375 126 C-13.45875795 117.37601306 -16.66996191 108.82631277 -19.92749023 100.2890625 C-26.36967221 83.29350454 -26.36967221 83.29350454 -25 76 C-24.05735157 74.09552135 -23.05109004 72.22184453 -22 70.375 C-17.73219743 62.43607816 -17.80193502 54.70190187 -19.6328125 45.98828125 C-21.95069234 38.66921021 -26.33907681 33.00081898 -31 27 C-34.83364858 21.63726082 -36.55407504 17.75971544 -36 11 C-34.38798183 6.57892048 -32.9631393 3.64209287 -29 1 C-28.37351563 1.63808594 -27.74703125 2.27617187 -27.1015625 2.93359375 C-26.28429687 3.75988281 -25.46703125 4.58617187 -24.625 5.4375 C-23.81289062 6.26121094 -23.00078125 7.08492188 -22.1640625 7.93359375 C-19.74515537 10.24334442 -18.63594229 10.87886814 -15.375 11.5 C-10.25634753 10.74168112 -7.57961591 7.5567673 -4 4 C-3.175 3.195625 -2.35 2.39125 -1.5 1.5625 C-1.005 1.046875 -0.51 0.53125 0 0 Z " fill="#FD7F8B" transform="translate(255,264)"/>
<path d="M0 0 C3.34977186 1.06044919 4.88271692 2.98225318 7.09765625 5.6640625 C7.71238708 9.04101562 7.71238708 9.04101562 7.69702148 12.9453125 C7.7009642 13.65977539 7.70490692 14.37423828 7.70896912 15.11035156 C7.71565943 17.46231156 7.68656155 19.81231155 7.65625 22.1640625 C7.65199718 23.80403263 7.64967102 25.4440088 7.64918518 27.08398438 C7.64302605 30.5172056 7.62035817 33.9497728 7.5847168 37.3828125 C7.53944482 41.77775533 7.52469032 46.17210626 7.52097988 50.56726074 C7.51654524 53.95253304 7.50123075 57.33768182 7.48210335 60.72290039 C7.47324035 62.34317003 7.46650106 63.96345276 7.46194267 65.58374023 C7.45287173 67.85032136 7.43045681 70.11637518 7.40405273 72.3828125 C7.38809303 74.31543945 7.38809303 74.31543945 7.37181091 76.28710938 C7.01460028 80.68712053 6.23539205 83.5263267 3.09765625 86.6640625 C1.07421875 87 1.07421875 87 -1.27734375 87.0390625 C-2.04820312 87.06742187 -2.8190625 87.09578125 -3.61328125 87.125 C-6.86003338 86.47121715 -7.87946276 85.27273529 -9.90234375 82.6640625 C-10.29738439 80.04262227 -10.45031272 77.83994642 -10.41992188 75.22094727 C-10.42693115 74.47736969 -10.43394043 73.73379211 -10.44116211 72.96768188 C-10.45874621 70.51322927 -10.44711757 68.05993281 -10.43359375 65.60546875 C-10.43628885 63.89680256 -10.44017143 62.18813787 -10.44519043 60.47947693 C-10.45108625 56.89917391 -10.44252113 53.31927024 -10.42382812 49.73901367 C-10.4010555 45.15439534 -10.41414996 40.57071453 -10.43811798 35.98613071 C-10.4525886 32.45758532 -10.44796394 28.9292613 -10.43760681 25.40070915 C-10.43494211 23.7106509 -10.43820028 22.02057242 -10.44752502 20.3305378 C-10.4577099 17.96534323 -10.44216373 15.60165494 -10.41992188 13.23657227 C-10.4280188 12.54082596 -10.43611572 11.84507965 -10.44445801 11.12825012 C-10.38434697 7.66961151 -9.9288152 5.70754624 -8.11608887 2.72984314 C-5.47344708 0.26383284 -3.5706504 0.07098709 0 0 Z " fill="#611739" transform="translate(257.90234375,422.3359375)"/>
<path d="M0 0 C3.42280517 1.46582015 5.56480483 3.38062255 8.125 6.0625 C11.74553862 9.87085982 11.74553862 9.87085982 16.625 11.5 C21.74365247 10.74168112 24.42038409 7.5567673 28 4 C28.825 3.195625 29.65 2.39125 30.5 1.5625 C30.995 1.046875 31.49 0.53125 32 0 C35.40062014 1.40715316 36.89229698 3.02868228 39 6 C38.2059375 6.70125 37.411875 7.4025 36.59375 8.125 C29.99141068 13.64136145 29.99141068 13.64136145 26.875 21.1875 C28.40944964 26.38757935 31.23868073 29.2225723 35 33 C36.34592097 34.65651812 37.6859849 36.31806068 39 38 C37.02 39.65 35.04 41.3 33 43 C32.30132812 42.28972656 31.60265625 41.57945312 30.8828125 40.84765625 C29.97273438 39.92855469 29.06265625 39.00945312 28.125 38.0625 C27.22007812 37.14597656 26.31515625 36.22945312 25.3828125 35.28515625 C22.26669643 32.29674985 19.84602856 31.26682157 15.44140625 31.234375 C9.88595804 32.97656356 5.7708191 38.7301019 2 43 C0.02 41.35 -1.96 39.7 -4 38 C-2.53417985 34.57719483 -0.61937745 32.43519517 2.0625 29.875 C5.87085982 26.25446138 5.87085982 26.25446138 7.5 21.375 C6.74168112 16.25634753 3.5567673 13.57961591 0 10 C-0.804375 9.175 -1.60875 8.35 -2.4375 7.5 C-2.953125 7.005 -3.46875 6.51 -4 6 C-2.84826645 3.53199953 -1.95216435 1.95216435 0 0 Z " fill="#FA3250" transform="translate(239,213)"/>
<path d="M0 0 C4.37711339 0.6143317 5.68423346 1.1266522 8.5625 4.5 C9.32729985 8.48568645 9.25937439 12.39097167 9.1875 16.4375 C9.21650391 18.06461914 9.21650391 18.06461914 9.24609375 19.72460938 C9.19758166 27.61752565 9.19758166 27.61752565 6.24609375 31.71875 C2.71723333 34.06105036 0.71807874 34.18000379 -3.4375 33.5 C-6.15972159 31.4065458 -7.2986561 30.22041645 -7.95507812 26.81445312 C-7.95958984 25.81349609 -7.96410156 24.81253906 -7.96875 23.78125 C-7.97390625 22.68425781 -7.9790625 21.58726562 -7.984375 20.45703125 C-7.96890625 19.31621094 -7.9534375 18.17539062 -7.9375 17 C-7.95296875 15.85917969 -7.9684375 14.71835937 -7.984375 13.54296875 C-7.97921875 12.44597656 -7.9740625 11.34898437 -7.96875 10.21875 C-7.96423828 9.21779297 -7.95972656 8.21683594 -7.95507812 7.18554688 C-7.03466251 2.4098055 -4.68426525 0.68134767 0 0 Z " fill="#FFFDFD" transform="translate(255.4375,283.5)"/>
<path d="M0 0 C2.69990662 1.79993774 4.5418865 3.083773 6 6 C6.55512815 10.63213493 6.6364242 13.98172127 4.125 18 C1.57517715 20.39983327 0.60981058 20.93371624 -2.875 21.3125 C-6 21 -6 21 -8.3125 19.125 C-11.35819032 15.28968627 -11.39928096 12.28476824 -11.34375 7.48828125 C-11 5 -11 5 -8.875 1.875 C-5.46480804 -0.34903824 -3.99001861 -0.74812849 0 0 Z " fill="#63193B" transform="translate(259,149)"/>
<path d="M0 0 C3.41690104 1.95427074 5.32720381 3.08529977 6.671875 6.8671875 C6.671875 9.0546875 6.671875 9.0546875 5.234375 10.5546875 C1.42020006 12.78737527 -2.00839391 12.60102786 -6.328125 12.0546875 C-10.09922988 10.99067134 -14.20865328 9.49882904 -16.328125 6.0546875 C-16.265625 3.4921875 -16.265625 3.4921875 -15.328125 1.0546875 C-10.56043853 -1.93680205 -5.17792188 -2.10244479 0 0 Z " fill="#F97C89" transform="translate(174.328125,292.9453125)"/>
<path d="M0 0 C1.2375 0.7425 1.2375 0.7425 2.5 1.5 C2.20902736 4.99167166 1.74460417 6.26200675 -0.8125 8.75 C-5.65009489 11.90006179 -10.83961924 12.12316118 -16.5 11.5 C-19.0625 10 -19.0625 10 -20.5 8.5 C-20.20540991 4.96491897 -19.75118587 3.73796556 -17.125 1.25 C-11.60282315 -2.43145123 -5.95202275 -2.55086689 0 0 Z " fill="#FA7C89" transform="translate(351.5,293.5)"/>
</svg>
