<?xml version="1.0" encoding="UTF-8"?>
<svg version="1.1" xmlns="http://www.w3.org/2000/svg" width="512" height="512">
<path d="M0 0 C0.85934143 0.00149048 1.71868286 0.00298096 2.60406494 0.0045166 C15.21847201 0.04384948 27.47130227 0.4949017 39.8125 3.3125 C41.00536621 3.57135986 42.19823242 3.83021973 43.42724609 4.09692383 C54.72435587 6.60204184 65.68340885 9.94115682 76.6875 13.5 C78.50245399 14.08338465 80.31747766 14.66655255 82.13256836 15.24951172 C85.71949233 16.40312308 89.30481762 17.56153948 92.88916016 18.72314453 C97.13168952 20.09639747 101.38254351 21.44063859 105.63671875 22.77734375 C163.81194437 41.27477639 212.70690365 78.42013266 243.8125 131.3125 C244.45703125 132.36308594 245.1015625 133.41367188 245.765625 134.49609375 C269.26886533 173.77611548 276.39651044 218.29561327 276.25854492 263.33837891 C276.24931462 266.49522289 276.2563947 269.65132984 276.27905273 272.80810547 C276.50929031 305.05004782 272.94576527 335.07357893 250.8125 360.3125 C250.22210938 361.04597656 249.63171875 361.77945312 249.0234375 362.53515625 C236.31118581 377.87100031 216.64891153 390.55772035 196.54931641 392.53515625 C177.81490125 393.48063902 160.82602473 389.47332315 146.375 376.8125 C131.86755134 362.91441106 125.86674013 348.09807602 123.8125 328.3125 C123.36148926 328.63822998 122.91047852 328.96395996 122.44580078 329.29956055 C121.07298962 330.29103527 119.70009739 331.28239774 118.32714844 332.27368164 C116.71263411 333.44003133 115.09871667 334.60720764 113.48535156 335.77514648 C109.37069956 338.75210119 105.24907045 341.71739206 101.1015625 344.6484375 C91.56622022 351.40871278 82.44353487 358.42266441 73.8125 366.3125 C72.85988281 367.18132812 71.90726562 368.05015625 70.92578125 368.9453125 C56.01684445 383.19493825 46.15034507 400.43456213 37.10571289 418.75 C26.52105856 440.07824511 15.54171146 460.20931213 -1.1875 477.3125 C-1.95964844 478.13492187 -2.73179687 478.95734375 -3.52734375 479.8046875 C-8.6207111 485.12184076 -13.94914691 489.40828171 -20.1875 493.3125 C-21.03610596 493.84641357 -21.03610596 493.84641357 -21.90185547 494.39111328 C-48.25850336 510.7410275 -83.29559796 517.35973044 -113.87524414 511.1340332 C-120.99699892 509.37614771 -127.72698498 506.78809352 -134.1875 503.3125 C-135.40953125 502.68601562 -135.40953125 502.68601562 -136.65625 502.046875 C-158.49760434 490.02030647 -171.2037885 467.51644466 -178.1875 444.3125 C-179.76182533 438.70046107 -181.16179439 433.05174933 -182.1875 427.3125 C-182.45675293 425.8418811 -182.45675293 425.8418811 -182.73144531 424.34155273 C-184.80829552 410.81137518 -184.56216422 397.11862623 -184.55810547 383.46362305 C-184.55789987 379.82100253 -184.58551535 376.17914119 -184.61964989 372.53670216 C-184.6418833 369.70821085 -184.64594459 366.87990603 -184.64488602 364.05133629 C-184.64836885 362.05880833 -184.66999537 360.06633848 -184.69198608 358.07392883 C-184.68583282 356.86464218 -184.67967957 355.65535553 -184.67333984 354.40942383 C-184.67618988 353.34959793 -184.67903992 352.28977203 -184.68197632 351.1978302 C-184.04586291 347.48603014 -182.93676233 345.87040646 -180.1875 343.3125 C-178.2075 342.9825 -176.2275 342.6525 -174.1875 342.3125 C-174.5175 336.0425 -174.8475 329.7725 -175.1875 323.3125 C-178.6525 321.8275 -178.6525 321.8275 -182.1875 320.3125 C-185.0101812 316.0784782 -184.972525 312.28432497 -184.1875 307.3125 C-181.32000924 303.40952646 -179.91021943 302.49317986 -175.1875 301.3125 C-174.8575 295.0425 -174.5275 288.7725 -174.1875 282.3125 C-176.1675 281.9825 -178.1475 281.6525 -180.1875 281.3125 C-182.81691265 279.17177775 -183.99184629 277.50793181 -184.54444885 274.13156509 C-184.71093276 271.35562887 -184.72774953 268.60949809 -184.70507812 265.82861328 C-184.7120874 264.77242798 -184.71909668 263.71624268 -184.72631836 262.62805176 C-184.74394315 259.12937209 -184.73224388 255.63150077 -184.71875 252.1328125 C-184.72144721 249.68398891 -184.72533154 247.23516637 -184.73034668 244.78634644 C-184.73625082 239.63985045 -184.72766226 234.49363172 -184.70898438 229.34716797 C-184.68641108 222.81502204 -184.69917382 216.28354144 -184.72327423 209.75142097 C-184.73789346 204.68235487 -184.73304963 199.61344001 -184.72276306 194.54436874 C-184.72012866 192.14071445 -184.72324709 189.73704558 -184.73268127 187.33340836 C-184.80723505 162.9586964 -181.31105117 140.21525936 -172.5625 117.4375 C-170.51687147 111.91049125 -169.49040088 106.61544026 -168.6875 100.8125 C-165.41138759 77.47657059 -152.96017385 55.73639616 -134.1875 41.3125 C-122.10340676 32.61660619 -109.62946969 27.10225553 -95.21191406 23.41479492 C-89.3611991 21.83500326 -84.10758532 19.56699607 -78.6875 16.875 C-53.93323279 4.61044329 -27.4724804 -0.11797876 0 0 Z " fill="#010101" transform="translate(210.1875,-0.3125)"/>
<path d="M0 0 C26.32506428 23.51583602 42.2580787 53.34067736 48.51953125 88.015625 C48.69613281 88.86205566 48.87273437 89.70848633 49.0546875 90.58056641 C51.21238885 102.16087248 50.91356416 113.90313465 50.89453125 125.640625 C50.8946521 126.77746735 50.89477295 127.91430969 50.89489746 129.08560181 C50.86908214 146.10495161 50.14684022 162.34175738 46.51953125 179.015625 C46.23813466 180.48800512 45.9580803 181.96064273 45.6796875 183.43359375 C38.31812463 219.44708852 14.36242055 242.6646714 -14.48046875 263.015625 C-37.89767625 279.60095984 -60.47213872 296.78904098 -76.48046875 321.015625 C-77.14820313 322.01078125 -77.8159375 323.0059375 -78.50390625 324.03125 C-86.48647042 336.47753372 -92.90843899 349.93848789 -99.56640625 363.12109375 C-107.33377688 378.40840315 -115.59996802 391.54898951 -127.48046875 404.015625 C-128.26744141 404.91474609 -128.26744141 404.91474609 -129.0703125 405.83203125 C-138.53683917 416.21389638 -151.3994954 422.53313629 -164.48046875 427.015625 C-166.15109375 427.59957031 -166.15109375 427.59957031 -167.85546875 428.1953125 C-188.53866032 435.00684434 -213.55536276 436.63622891 -233.66796875 427.328125 C-251.86981359 417.56771545 -263.53139092 400.06373766 -269.54296875 380.5703125 C-275.10689726 358.7318931 -275.92671576 337.42925665 -275.91711426 314.95281982 C-275.91518607 310.42005233 -275.94189845 305.88808487 -275.9765625 301.35546875 C-275.96837997 300.17331284 -275.96019745 298.99115692 -275.95176697 297.7731781 C-275.9668203 296.13349815 -275.9668203 296.13349815 -275.98217773 294.46069336 C-275.98201157 293.50255234 -275.9818454 292.54441132 -275.98167419 291.55723572 C-276.6389686 288.20798806 -277.81472653 287.10100919 -280.48046875 285.015625 C-282.13046875 284.355625 -283.78046875 283.695625 -285.48046875 283.015625 C-285.81046875 276.745625 -286.14046875 270.475625 -286.48046875 264.015625 C-289.94546875 262.530625 -289.94546875 262.530625 -293.48046875 261.015625 C-296.30314995 256.7816032 -296.26549375 252.98744997 -295.48046875 248.015625 C-292.61297799 244.11265146 -291.20318818 243.19630486 -286.48046875 242.015625 C-286.15046875 235.745625 -285.82046875 229.475625 -285.48046875 223.015625 C-283.50046875 222.025625 -281.52046875 221.035625 -279.48046875 220.015625 C-276.80003589 217.2510543 -276.10518341 215.37454775 -276.09519958 211.55995178 C-276.08072784 210.22941269 -276.08072784 210.22941269 -276.06596375 208.87199402 C-276.07054092 207.90626968 -276.0751181 206.94054535 -276.07983398 205.94555664 C-276.07285492 204.92222229 -276.06587585 203.89888794 -276.0586853 202.84454346 C-276.03866223 199.45487287 -276.0392085 196.06550584 -276.0390625 192.67578125 C-276.02728837 190.3136666 -276.01392406 187.95155938 -275.9990387 185.58946228 C-275.96279177 179.35884174 -275.94264185 173.12828698 -275.92749023 166.89758301 C-275.90270999 156.95721191 -275.86267789 147.01698659 -275.80558968 137.0767498 C-275.78937619 133.61770533 -275.78549218 130.15879992 -275.78257751 126.69972229 C-275.74709059 116.30215707 -275.67917241 106.22547029 -273.48046875 96.015625 C-270.58953118 97.46109379 -270.40424288 99.30868216 -269.2421875 102.29296875 C-266.57530601 108.89625709 -263.50734235 115.22666485 -260.29296875 121.578125 C-259.43541992 123.28246704 -259.43541992 123.28246704 -258.56054688 125.02124023 C-254.48845858 133.08863862 -250.32964385 141.10589219 -246.08203125 149.08203125 C-244.09746109 152.81919876 -242.16847798 156.58197492 -240.25390625 160.35546875 C-239.69058594 161.45882568 -239.12726563 162.56218262 -238.546875 163.69897461 C-237.45606775 165.83792041 -236.37219805 167.98042528 -235.296875 170.12719727 C-230.07132155 180.33273622 -224.06312625 189.19883649 -215.29296875 196.640625 C-207.86778854 203.23816712 -203.27993388 209.21756347 -202.2421875 219.33984375 C-201.8470948 231.92042718 -208.14669276 240.35052344 -216.35546875 249.203125 C-232.11867253 266.74458695 -235.84850448 285.70928252 -235.6862793 308.41870117 C-235.66778992 311.10409863 -235.66577178 313.78915428 -235.66601562 316.47460938 C-235.66110739 318.18750299 -235.65528213 319.90039428 -235.6484375 321.61328125 C-235.64732468 322.41323013 -235.64621185 323.21317902 -235.64506531 324.03736877 C-235.61714042 327.2844796 -235.51445376 329.91366997 -234.48046875 333.015625 C-231.66819253 333.95305041 -229.89300031 334.15033344 -226.98046875 334.140625 C-225.8203125 334.14449219 -225.8203125 334.14449219 -224.63671875 334.1484375 C-222.29599858 334.09708313 -222.29599858 334.09708313 -219.48046875 333.015625 C-217.58664074 328.04837564 -217.19935654 323.4340244 -217.20703125 318.1328125 C-217.18672507 316.6197845 -217.16587398 315.10676373 -217.14453125 313.59375 C-217.12209777 311.2509141 -217.10551346 308.90836752 -217.09960938 306.56542969 C-217.03383143 291.02210207 -214.56383404 276.1059697 -203.75390625 264.09765625 C-202.61434871 263.00232812 -201.46452674 261.91757869 -200.3046875 260.84375 C-189.76166257 250.278149 -183.43884624 237.30345358 -183.29296875 222.453125 C-183.31851952 217.54226674 -183.70035532 212.86481006 -184.48046875 208.015625 C-183.47628906 207.92925781 -182.47210938 207.84289062 -181.4375 207.75390625 C-165.4104324 206.18923249 -152.14782912 201.23930787 -140.73046875 189.390625 C-133.2905936 180.2517399 -129.48257631 169.49437498 -127.48046875 158.015625 C-119.22310403 161.19153451 -113.2491607 173.2816873 -109.69921875 180.9140625 C-103.55707491 196.54503112 -102.89927786 215.47901612 -109.48046875 231.015625 C-109.8465625 231.93601562 -110.21265625 232.85640625 -110.58984375 233.8046875 C-115.22811263 244.19784555 -122.60086251 253.03685174 -129.48046875 262.015625 C-129.93470215 262.60988281 -130.38893555 263.20414062 -130.85693359 263.81640625 C-132.81556195 266.37499585 -134.78413578 268.92565774 -136.7578125 271.47265625 C-140.37672316 276.16145713 -143.92574781 280.9031032 -147.48046875 285.640625 C-148.4703479 286.95824829 -148.4703479 286.95824829 -149.48022461 288.30249023 C-150.09905518 289.12821533 -150.71788574 289.95394043 -151.35546875 290.8046875 C-152.18691406 291.91384521 -152.18691406 291.91384521 -153.03515625 293.04541016 C-155.97138392 297.0480043 -156.9801871 299.01844153 -156.48046875 304.015625 C-154.7157332 307.72719374 -154.7157332 307.72719374 -151.48046875 310.015625 C-145.6686847 310.69234295 -145.6686847 310.69234295 -140.61328125 308.0234375 C-136.83411181 304.65427229 -134.02194567 300.6268798 -131.10546875 296.515625 C-129.87673921 294.81384705 -128.64619957 293.11337491 -127.4140625 291.4140625 C-126.77452637 290.53073242 -126.13499023 289.64740234 -125.47607422 288.73730469 C-122.11237385 284.14976716 -118.63459409 279.65054415 -115.16796875 275.140625 C-103.11899994 259.36579052 -92.63737197 244.47877588 -87.48046875 225.015625 C-87.30467285 224.40831543 -87.12887695 223.80100586 -86.94775391 223.17529297 C-82.66441155 203.37882144 -87.22526496 179.77429798 -97.484375 162.67578125 C-106.02649424 149.82439971 -117.25956242 139.01041535 -128.09619141 128.10473633 C-129.35685983 126.83247067 -130.61302827 125.5557309 -131.86474609 124.2746582 C-140.90199926 115.02704504 -149.66649812 106.96142077 -161.91796875 102.140625 C-162.88605469 101.75132812 -163.85414063 101.36203125 -164.8515625 100.9609375 C-168.81947503 99.53413983 -172.16772093 98.88844717 -176.39453125 98.8828125 C-177.32007813 98.88152344 -178.245625 98.88023437 -179.19921875 98.87890625 C-180.15828125 98.88277344 -181.11734375 98.88664063 -182.10546875 98.890625 C-183.07226562 98.88675781 -184.0390625 98.88289062 -185.03515625 98.87890625 C-186.41960937 98.88083984 -186.41960937 98.88083984 -187.83203125 98.8828125 C-188.67588379 98.88394043 -189.51973633 98.88506836 -190.38916016 98.88623047 C-192.54008541 98.8824645 -192.54008541 98.8824645 -194.48046875 100.015625 C-196.48006887 100.055617 -198.48094117 100.05909299 -200.48046875 100.015625 C-201.52109896 98.15153958 -202.5372479 96.27377429 -203.54296875 94.390625 C-204.11144531 93.34648437 -204.67992187 92.30234375 -205.265625 91.2265625 C-206.69185733 87.45690664 -206.65691047 85.84278351 -205.48046875 82.015625 C-204.26184014 79.70023064 -203.04914176 77.61494697 -201.60546875 75.453125 C-201.20763184 74.84960205 -200.80979492 74.2460791 -200.39990234 73.62426758 C-186.32766316 52.7443719 -166.18679123 36.47533569 -141.69140625 29.63671875 C-139.8706205 29.12522593 -138.07641395 28.52007625 -136.29296875 27.890625 C-128.50960386 25.4691337 -120.49307888 25.83225127 -112.41796875 25.828125 C-111.18369141 25.81587891 -109.94941406 25.80363281 -108.67773438 25.79101562 C-96.36915869 25.7716929 -84.70007604 27.09715835 -73.04296875 31.140625 C-72.1504541 31.44629395 -71.25793945 31.75196289 -70.33837891 32.06689453 C-57.47286681 36.62626765 -46.64134891 42.78306445 -36.48046875 52.015625 C-35.53300781 52.84126953 -35.53300781 52.84126953 -34.56640625 53.68359375 C-18.36294598 68.66624537 -9.21204783 92.3478722 -7.48046875 114.015625 C-7.3943649 117.87709854 -7.45767289 121.73224333 -7.5234375 125.59375 C-7.54580513 127.82811633 -7.56726275 130.06249193 -7.58789062 132.296875 C-7.62511186 135.79517776 -7.66842952 139.29300571 -7.72729492 142.79101562 C-7.78163996 146.18366501 -7.8108257 149.57577526 -7.8359375 152.96875 C-7.87161079 154.54067108 -7.87161079 154.54067108 -7.90800476 156.14434814 C-8.0109446 161.73729925 -8.0109446 161.73729925 -5.7043457 166.67089844 C-2.36658497 168.68916456 0.79853772 168.89419292 4.51953125 168.015625 C7.62403875 165.50559766 10.13198957 163.27798862 10.82495117 159.23266602 C11.70301274 150.82114303 11.80524709 142.40199223 11.83203125 133.953125 C11.83464966 133.16204346 11.83726807 132.37096191 11.83996582 131.5559082 C11.84748124 110.26149701 9.64487703 89.13286802 -0.29296875 69.953125 C-0.6384375 69.27757568 -0.98390625 68.60202637 -1.33984375 67.90600586 C-5.96061082 59.00404732 -11.03438352 51.07764613 -17.9765625 43.79296875 C-19.48046875 42.015625 -19.48046875 42.015625 -19.48046875 40.015625 C-20.07085937 39.74878906 -20.66125 39.48195313 -21.26953125 39.20703125 C-23.51905915 37.99482982 -25.01562892 36.71387669 -26.85546875 34.953125 C-54.61303997 10.27402749 -91.62233427 4.99431933 -127.41210938 6.859375 C-151.38116266 8.67006835 -174.50584458 20.62137102 -192.48046875 36.015625 C-193.30160156 36.70269531 -194.12273437 37.38976562 -194.96875 38.09765625 C-200.71748616 43.05962914 -205.51711905 48.41470884 -210.25390625 54.31640625 C-212.2209775 56.70104876 -214.25386883 58.87544563 -216.48046875 61.015625 C-218.45362234 53.29527006 -217.63043011 44.91947091 -217.48046875 37.015625 C-217.45533203 35.57703125 -217.45533203 35.57703125 -217.4296875 34.109375 C-216.30270491 15.30486558 -205.96449664 -5.48469236 -192.15625 -18.109375 C-188.84891048 -20.42692678 -185.44982271 -22.16203165 -181.79296875 -23.859375 C-180.68453613 -24.37600708 -180.68453613 -24.37600708 -179.55371094 -24.90307617 C-122.00820444 -51.05296581 -47.99143978 -41.76957085 0 0 Z " fill="#FAC39C" transform="translate(321.48046875,58.984375)"/>
<path d="M0 0 C18.97540103 6.74842178 36.2653279 22.69875682 50.45507812 36.50195312 C51.73191664 37.74005065 53.02762426 38.95865619 54.328125 40.171875 C60.62103055 46.15780955 65.7792534 53.0879471 71 60 C71.42039551 60.54897949 71.84079102 61.09795898 72.27392578 61.66357422 C104.84691909 104.40027247 115.45563055 154.10809103 115.26074219 206.79541016 C115.24987699 210.28955913 115.26079345 213.78320873 115.2734375 217.27734375 C115.27211782 219.54427194 115.26955941 221.81119984 115.265625 224.078125 C115.26967346 225.10021057 115.27372192 226.12229614 115.27789307 227.175354 C115.13575402 249.33224257 108.26466003 269.99347101 94 287 C93.236875 288.010625 92.47375 289.02125 91.6875 290.0625 C82.57086535 300.02719369 68.02235948 310.68131261 54.171875 311.3359375 C35.35444333 311.65388125 35.35444333 311.65388125 28 307 C26.62134766 306.14341797 26.62134766 306.14341797 25.21484375 305.26953125 C14.24410002 297.8720311 7.605828 288.4398046 4.3828125 275.52734375 C1.7027059 257.83317061 9.14289723 244.09037866 17.9375 229.375 C23.02878072 220.70917468 26.59296482 211.43252795 30 202 C30.38115967 200.95102539 30.38115967 200.95102539 30.77001953 199.88085938 C37.85225764 179.82025997 40.06674335 157.26716374 40.23828125 136.0859375 C40.25297203 134.57843681 40.25297203 134.57843681 40.26795959 133.04048157 C40.71421824 102.78028167 40.71421824 102.78028167 36 73 C35.78569336 72.12827148 35.57138672 71.25654297 35.35058594 70.35839844 C32.22004288 58.00482897 27.5898759 46.43310973 22 35 C21.67773438 34.33629395 21.35546875 33.67258789 21.0234375 32.98876953 C15.72871611 22.22445029 9.25381942 12.48685867 1.703125 3.1640625 C0 1 0 1 0 0 Z " fill="#71D6FD" transform="translate(351,60)"/>
<path d="M0 0 C7.97471573 5.01342063 14.19299234 11.86120338 17 21 C17.28130598 23.98397057 17.27934053 26.94232099 17.25 29.9375 C17.26160156 31.11602539 17.26160156 31.11602539 17.2734375 32.31835938 C17.24395951 41.12491025 14.19606303 47.94163119 9 55 C0.56994221 63.18621314 -8.97550312 66.32917861 -20.4921875 66.2109375 C-29.10814758 65.69282854 -36.68401067 61.25031123 -42.796875 55.23046875 C-50.52977909 46.44481781 -52.75127662 37.90185777 -52.44921875 26.3515625 C-51.9227212 18.75471767 -48.35050752 12.76184634 -43.5 7.0625 C-42.675 6.381875 -41.85 5.70125 -41 5 C-40.113125 4.154375 -39.22625 3.30875 -38.3125 2.4375 C-27.50106108 -6.18980985 -11.88103138 -6.89998043 0 0 Z " fill="#4CB8F3" transform="translate(157,181)"/>
<path d="M0 0 C0.495 0.99 0.495 0.99 1 2 C0.16481345 4.12896645 -0.74665853 6.22806913 -1.6875 8.3125 C-11.98520991 32.91759436 -12.47160255 62.28140112 -2.7734375 87.14453125 C-1.21536684 92.89680222 -3.30867692 98.37491553 -4.9375 103.9375 C-7.17467685 111.86774577 -8.18278317 119.81707882 -9 128 C-20.49375261 117.41057818 -25.94683345 97.63694077 -30 83 C-30.19062012 82.31212402 -30.38124023 81.62424805 -30.57763672 80.91552734 C-36.10328405 60.04027435 -32.97860304 40.4886098 -22.20654297 21.88232422 C-17.04852243 13.8353112 -8.55714868 4.27857434 0 0 Z " fill="#4BB7F2" transform="translate(94,54)"/>
<path d="M0 0 C2.41715214 3.27026466 2.879407 4.96984138 2.609375 8.9453125 C1.75383221 12.35368459 -0.11785047 13.83710687 -2.875 15.875 C-5.75 17.375 -5.75 17.375 -8.875 17.875 C-13.25923967 16.48665744 -15.30170983 15.73493526 -17.875 11.875 C-18.42118606 8.48289713 -18.41080892 5.2684565 -17.875 1.875 C-15.74186592 -1.0284325 -14.15311608 -2.50655674 -10.9375 -4.0625 C-6.50275675 -4.19688616 -3.50431168 -2.59014342 0 0 Z " fill="#040303" transform="translate(43.875,305.125)"/>
<path d="M0 0 C4.6 2.2 4.6 2.2 6 5 C6.42071592 8.05920574 6.48514117 10.9467746 6 14 C3.81840855 16.75569447 2.12822506 18.43588747 -1 20 C-4.87214182 20.43023798 -6.52496371 20.31669086 -9.8125 18.125 C-12.70901877 15.31123891 -13.21915969 13.62424188 -13.4375 9.6875 C-13.38665152 5.7467431 -13.127243 5.1520709 -10.4375 1.9375 C-6.4689849 -0.29929942 -4.48262803 -0.65201862 0 0 Z " fill="#060504" transform="translate(314,249)"/>
<path d="M0 0 C3.03978021 0.68164768 4.80055419 2.23591662 6.93359375 4.43359375 C8.54089368 7.64819361 8.5529023 10.95747478 7.93359375 14.43359375 C5.49609375 17.37109375 5.49609375 17.37109375 2.93359375 19.43359375 C2.60359375 19.76359375 2.27359375 20.09359375 1.93359375 20.43359375 C-2.23041587 20.83397929 -4.38891321 20.87543703 -7.94140625 18.55859375 C-10.78582033 15.71417967 -11.26994797 14.04485055 -11.44140625 10.12109375 C-11.38335618 6.52198932 -11.12121971 5.51752686 -9.06640625 2.37109375 C-5.72174711 0.21100139 -3.89742861 -0.24312882 0 0 Z " fill="#030607" transform="translate(416.06640625,320.56640625)"/>
<path d="M0 0 C3.59827589 0.80830835 5.09391516 2.51976867 7.15625 5.484375 C8.46025002 9.31487505 8.36496714 10.94171044 6.90625 14.734375 C5.15625 17.484375 5.15625 17.484375 2.15625 19.484375 C-0.93442378 20.08630398 -3.75287086 20.09064201 -6.84375 19.484375 C-10.01832096 16.8928885 -11.38955349 15.41001805 -12.31640625 11.48046875 C-12.59299348 7.74299518 -11.92337876 5.60767115 -9.90625 2.484375 C-6.3333162 0.15103048 -4.19642049 -0.25178523 0 0 Z " fill="#020506" transform="translate(442.84375,256.515625)"/>
<path d="M0 0 C3.9295493 0.92685276 5.41241975 2.29808529 8.00390625 5.47265625 C8.80206186 8.6480523 8.76446448 11.29214003 8.00390625 14.47265625 C5.45864713 18.17485133 3.815257 19.24084175 -0.49609375 20.47265625 C-4.42243535 20.47265625 -5.96191709 19.89999758 -8.99609375 17.47265625 C-11.68298423 13.44232053 -11.7836188 10.20609627 -10.99609375 5.47265625 C-8.10250338 1.041846 -5.38309693 -0.3983696 0 0 Z " fill="#020506" transform="translate(428.99609375,288.52734375)"/>
</svg>
