<?xml version="1.0" encoding="UTF-8"?>
<svg version="1.1" xmlns="http://www.w3.org/2000/svg" width="512" height="512">
<path d="M0 0 C9.62134188 6.67640644 16.26775805 16.0840341 18.7421875 27.61328125 C18.83473041 30.59098754 18.87261996 33.54476573 18.86244202 36.52227783 C18.86329644 37.43224416 18.86415087 38.34221048 18.86503118 39.27975154 C18.86668105 42.33528394 18.86117263 45.3907617 18.85571289 48.44628906 C18.85543089 50.63404336 18.85558901 52.82179776 18.8561554 55.009552 C18.85644285 60.95541476 18.8505544 66.90125743 18.84358144 72.84711552 C18.83733937 79.05845603 18.83674342 85.26979697 18.83555603 91.48114014 C18.8327989 101.90865419 18.8265484 112.33616136 18.81762695 122.76367188 C18.80844751 133.50390587 18.80136928 144.24413787 18.79711914 154.984375 C18.79685642 155.64643712 18.79659369 156.30849925 18.79632301 156.99062386 C18.79501797 160.31200513 18.79375652 163.63338641 18.79251111 166.9547677 C18.78205242 194.5076107 18.76445783 222.06044545 18.7421875 249.61328125 C19.32991975 249.61058102 19.917652 249.60788078 20.52319431 249.60509872 C23.23689542 249.59425027 25.95059194 249.58763158 28.66430664 249.58105469 C30.05050076 249.57457413 30.05050076 249.57457413 31.46469879 249.56796265 C40.41386611 249.55175773 49.26625702 250.1194446 58.1796875 250.86328125 C59.83682474 250.99603016 61.49397012 251.12867753 63.15112305 251.26123047 C75.46749216 252.26467355 87.76425565 253.45811093 100.0546875 254.73828125 C100.88781464 254.82436646 101.72094177 254.91045166 102.57931519 254.99914551 C104.9219339 255.24311674 107.26379699 255.49321156 109.60546875 255.74609375 C110.65104446 255.85532669 110.65104446 255.85532669 111.71774292 255.96676636 C116.5100747 256.49722485 116.5100747 256.49722485 118.7421875 257.61328125 C119.0103125 256.89140625 119.2784375 256.16953125 119.5546875 255.42578125 C120.7421875 252.61328125 120.7421875 252.61328125 122.4296875 249.98828125 C122.8628125 249.20453125 123.2959375 248.42078125 123.7421875 247.61328125 C122.18029892 242.9276155 118.86617112 240.84731449 114.93359375 238.02734375 C110.97157316 236.27183401 109.4063823 236.63931541 105.3671875 238.05078125 C103.48931263 238.89860886 101.61411772 239.7524079 99.7421875 240.61328125 C89.84976271 243.16766324 79.40220604 242.1823396 70.40234375 237.359375 C47.65303218 223.08758467 36.99503107 194.73472259 31.00561523 169.7578125 C30.16856899 166.05777355 29.43367664 162.34300079 28.7421875 158.61328125 C28.5153125 157.40285156 28.2884375 156.19242188 28.0546875 154.9453125 C21.66140814 113.52218995 28.92656577 67.92545776 53.80859375 33.77734375 C57.95388618 28.37467299 62.39689318 23.82209858 67.7421875 19.61328125 C68.52980469 18.97777344 69.31742188 18.34226562 70.12890625 17.6875 C93.57505855 -0.36148122 123.29234987 -6.84228326 152.3671875 -6.76171875 C153.11097656 -6.76117493 153.85476562 -6.7606311 154.62109375 -6.7600708 C166.71081093 -6.71956869 178.09752071 -5.78696145 189.7421875 -2.38671875 C190.50337891 -2.17241211 191.26457031 -1.95810547 192.04882812 -1.73730469 C203.23716419 1.47875677 213.58649832 5.94580826 223.7421875 11.61328125 C224.40460449 11.97905273 225.06702148 12.34482422 225.74951172 12.72167969 C236.17098137 18.57100348 244.71805779 25.64705949 253.17529297 34.06103516 C254.51155484 35.3848047 255.87607447 36.67994871 257.24609375 37.96875 C266.05238383 46.34057416 273.32450485 57.16246143 274.23632812 69.48095703 C274.65821879 73.99710483 275.10293946 77.92489508 278.37109375 81.29101562 C282.73117144 84.69119362 287.54119265 87.3635587 292.31884766 90.12597656 C296.17797566 92.4944843 299.63886798 95.28658327 303.1171875 98.17578125 C303.77726807 98.72202148 304.43734863 99.26826172 305.11743164 99.83105469 C311.17406359 104.89806069 317.04203758 110.14708594 322.7421875 115.61328125 C323.30147949 116.1453418 323.86077148 116.67740234 324.43701172 117.22558594 C332.52861453 124.96227431 339.80288599 132.99259859 346.50146484 141.96240234 C347.68288367 143.53437284 348.8934885 145.08428237 350.10546875 146.6328125 C356.01444258 154.25630723 361.01222621 162.22692249 365.7421875 170.61328125 C366.15114258 171.33402832 366.56009766 172.05477539 366.98144531 172.79736328 C403.07810207 237.02940493 401.34128866 318.52888626 381.99316406 387.91357422 C372.90803082 419.2240456 358.55061496 449.78777052 334.7421875 472.61328125 C333.95972656 473.40476562 333.17726563 474.19625 332.37109375 475.01171875 C312.75076834 494.42796946 287.1066021 505.98879401 259.33618164 506.08154297 C257.86733592 506.07360471 256.39850131 506.06330167 254.9296875 506.05078125 C254.16961395 506.04773987 253.40954041 506.04469849 252.62643433 506.04156494 C215.38586923 505.82260297 176.76286149 495.99859145 149.453125 469.38671875 C135.66573456 455.2814634 128.65247366 440.11090981 122.7421875 421.61328125 C121.94727363 425.2167394 121.15687373 428.82117418 120.3671875 432.42578125 C120.14546875 433.43060547 119.92375 434.43542969 119.6953125 435.47070312 C119.47617188 436.47294922 119.25703125 437.47519531 119.03125 438.5078125 C118.83225098 439.41378174 118.63325195 440.31975098 118.42822266 441.25317383 C118.20183105 442.36200928 117.97543945 443.47084473 117.7421875 444.61328125 C117.49372826 445.82763855 117.49372826 445.82763855 117.24024963 447.06652832 C115.98618978 453.51216696 115.35113505 459.80131359 115.06640625 466.35546875 C114.95996494 468.34770888 114.85251412 470.33989529 114.74414062 472.33203125 C114.58259664 475.42578357 114.42831311 478.51931763 114.29125977 481.61425781 C114.15407862 484.63366947 113.98756077 487.65031795 113.81640625 490.66796875 C113.78286545 491.59197479 113.74932465 492.51598083 113.71476746 493.46798706 C113.45617431 497.67049873 113.07399296 500.09444995 110.77099609 503.69555664 C106.53161538 506.37976876 103.13324877 506.31637761 98.20703125 506.2421875 C97.2913588 506.24459946 96.37568634 506.24701141 95.43226624 506.24949646 C93.5015936 506.24851924 91.57089252 506.23515541 89.64038086 506.21020508 C86.68571903 506.17585138 83.73404164 506.18956306 80.77929688 506.20898438 C78.90102894 506.20208689 77.02276872 506.19241539 75.14453125 506.1796875 C74.26216293 506.18464737 73.37979462 506.18960724 72.47068787 506.19471741 C66.35545787 506.07725115 66.35545787 506.07725115 63.21704102 503.70288086 C60.46618357 499.8054154 60.59409998 496.65853808 60.59692383 492.02441406 C60.59356522 491.24016052 60.5902066 490.45590698 60.58674622 489.64788818 C60.57720162 487.03737827 60.57528964 484.42693257 60.57421875 481.81640625 C60.57100248 479.98866754 60.56763813 478.16092909 60.56413269 476.33319092 C60.55812846 472.48286343 60.55629351 468.6325584 60.55688477 464.78222656 C60.55696531 460.87202252 60.55014519 456.96193739 60.53637695 453.05175781 C60.39105311 411.17736535 60.39105311 411.17736535 62.7421875 393.61328125 C62.95331177 391.89189941 62.95331177 391.89189941 63.16870117 390.13574219 C63.53511461 387.36548561 63.95802503 384.61735639 64.4296875 381.86328125 C64.67851685 380.40003418 64.67851685 380.40003418 64.93237305 378.90722656 C68.33059971 359.97575241 74.01697467 341.60530126 80.7421875 323.61328125 C81.02900391 322.84532227 81.31582031 322.07736328 81.61132812 321.28613281 C82.31958031 319.39441942 83.03058711 317.50373771 83.7421875 315.61328125 C68.50851324 313.40319157 53.32599771 312.07353454 37.96508789 311.26025391 C37.28011734 311.22341492 36.59514679 311.18657593 35.88941956 311.14862061 C34.02607677 311.04974195 32.16245944 310.95607565 30.29882812 310.86279297 C26.416029 310.5904 22.60255942 310.10828629 18.7421875 309.61328125 C18.74587467 310.43804616 18.74956184 311.26281107 18.75336075 312.11256886 C18.84182566 332.21163207 18.90795246 352.31066157 18.94943619 372.40987873 C18.97003235 382.12985046 18.99809645 391.84969196 19.04394531 401.56958008 C19.08390347 410.04471066 19.10964172 418.5197469 19.11854148 426.99496907 C19.12374106 431.47960196 19.13590011 435.963965 19.16510773 440.44851112 C19.19241897 444.67646143 19.20060104 448.90403277 19.19461823 453.13206291 C19.19571148 454.67713104 19.20357146 456.2222129 19.2190094 457.76720428 C19.3529682 471.87496687 16.50557422 483.22821708 6.7421875 493.7734375 C-3.51788318 503.57546931 -14.60427504 506.19705045 -28.30859375 505.94921875 C-39.37572209 505.43859052 -48.52977892 500.38339124 -56.2578125 492.61328125 C-64.2090652 483.09925534 -67.37763671 472.34691883 -67.38924026 460.09934044 C-67.3912929 459.3598816 -67.39334553 458.62042277 -67.39546037 457.85855609 C-67.40111775 455.37910643 -67.39967468 452.89971254 -67.39825439 450.42025757 C-67.40083875 448.62521794 -67.40385211 446.83017889 -67.4072578 445.03514063 C-67.41532273 440.10077503 -67.41711709 435.16642398 -67.41785526 430.23205256 C-67.4197067 424.91081143 -67.42725449 419.58957784 -67.43399048 414.26834106 C-67.44757073 402.63189914 -67.45359804 390.99546066 -67.45800114 379.35901213 C-67.46076408 372.09264903 -67.46500153 364.82628727 -67.46950531 357.55992508 C-67.48169757 337.440023 -67.49199697 317.32012199 -67.4953804 297.20021629 C-67.49559997 295.91256726 -67.49581953 294.62491822 -67.49604575 293.29824952 C-67.49626403 292.00752631 -67.49648231 290.7168031 -67.4967072 289.38696706 C-67.49715067 286.77148716 -67.49759723 284.15600725 -67.49804688 281.54052734 C-67.4982683 280.24316004 -67.49848973 278.94579273 -67.49871787 277.60911126 C-67.50266565 256.58843944 -67.52011927 235.56780229 -67.5434064 214.54714386 C-67.56712397 192.96365773 -67.57958244 171.380189 -67.58074832 149.79668963 C-67.58166485 137.67913145 -67.58741169 125.56161845 -67.60556793 113.44407272 C-67.62097436 103.12542842 -67.62608615 92.80684325 -67.61782983 82.48818962 C-67.61392528 77.22497419 -67.61484352 71.96187782 -67.62888718 66.69867706 C-67.6416375 61.87601687 -67.64041857 57.05356509 -67.62829646 52.23090513 C-67.62634144 50.49063823 -67.62940887 48.75035651 -67.63814083 47.01011042 C-67.70884303 31.96092948 -66.27438354 17.81060392 -55.81640625 6.08203125 C-40.14762566 -8.68353642 -18.35018148 -11.27044018 0 0 Z " fill="#020100" transform="translate(92.2578125,6.38671875)"/>
<path d="M0 0 C4.83696251 1.57827951 8.44465511 4.32539238 12.4375 7.375 C13.14197266 7.9102832 13.84644531 8.44556641 14.57226562 8.99707031 C31.30353292 21.82738176 47.24068507 36.13531135 60 53 C60.42587402 53.55478027 60.85174805 54.10956055 61.29052734 54.68115234 C79.80988744 78.87251781 92.54958891 105.46876214 100 135 C100.29777344 136.15242187 100.59554687 137.30484375 100.90234375 138.4921875 C104.87787023 154.67119575 105.37033967 170.41934491 105.3125 187 C105.30926727 188.66006577 105.30926727 188.66006577 105.30596924 190.35366821 C105.19530236 225.81920333 101.73624667 261.30851974 90 295 C89.70899414 295.84675293 89.41798828 296.69350586 89.11816406 297.56591797 C76.91283224 332.59974078 56.55515163 365.21399936 22.390625 382.0546875 C-6.70881871 395.50828681 -42.02177646 391.53349723 -71.5012207 381.33691406 C-96.56284154 372.10203586 -114.93825092 356.93954991 -127 333 C-131.6526328 321.70467023 -133.34933673 310.65612149 -133.3125 298.5 C-133.32861328 297.43652344 -133.34472656 296.37304688 -133.36132812 295.27734375 C-133.37090815 279.6619105 -127.13655358 267.59024538 -117 256 C-116.47921875 255.38382813 -115.9584375 254.76765625 -115.421875 254.1328125 C-108.47072177 246.51462941 -98.59065614 240.64260498 -89 237 C-88.01 237 -87.02 237 -86 237 C-84.5625 238.6875 -84.5625 238.6875 -83 241 C-75.48317702 251.04348616 -63.37211766 258.0883758 -51.10546875 260.71875 C-45.56051401 261.45944896 -40.21126509 261.75183013 -34.875 259.9375 C-32.72483778 258.00485809 -32.72483778 258.00485809 -31.9375 254.625 C-31.70295231 251.00552504 -31.70295231 251.00552504 -33.56640625 248.33203125 C-36.74416592 245.28689076 -38.65306991 245.32059897 -43 245.0625 C-53.34276962 244.1190376 -62.9598392 239.83288668 -70 232 C-76.01171173 224.24242131 -77.99373119 215.73758659 -79.625 206.25 C-79.7482666 205.53602051 -79.8715332 204.82204102 -79.99853516 204.08642578 C-81.84515877 192.60058013 -82.2086135 181.02731637 -82.24023438 169.41455078 C-82.25005308 167.23823375 -82.28126642 165.0628206 -82.3125 162.88671875 C-82.39646181 151.97455721 -81.19624481 143.71493771 -74.10546875 135.08203125 C-67.02424753 128.07963624 -59.6550993 125.93595711 -50.0078125 125.4765625 C-46.67392605 124.94833634 -44.71531024 123.97565584 -42 122 C-40.47508002 118.95016004 -40.76437452 116.3576631 -41 113 C-41.9711044 111.15093492 -41.9711044 111.15093492 -44 110 C-46.62122529 109.69652102 -48.94655866 109.57223493 -51.5625 109.625 C-52.6438623 109.6413147 -52.6438623 109.6413147 -53.74707031 109.65795898 C-65.32707501 110.00182959 -75.70526576 114.29832337 -84.36328125 122.140625 C-91.79973065 130.15126352 -95.56731444 138.4188067 -98 149 C-104.77994987 147.69194907 -110.80081093 145.68960087 -117.125 142.9375 C-118.03499756 142.54481934 -118.94499512 142.15213867 -119.88256836 141.74755859 C-129.4800099 137.5043371 -138.69597635 132.45642914 -147 126 C-145.73969935 122.71049968 -144.30736303 119.653976 -142.625 116.5625 C-136.98854992 105.30622653 -135.22085697 93.36920882 -134 81 C-132.16888672 80.29037109 -132.16888672 80.29037109 -130.30078125 79.56640625 C-111.55364236 72.11260951 -96.0908336 62.80696263 -87 44 C-85.78704101 40.70522487 -84.79423803 37.41900561 -84 34 C-82.22898044 34.29053375 -80.45819731 34.5825087 -78.6875 34.875 C-77.58535156 35.05546875 -76.48320312 35.2359375 -75.34765625 35.421875 C-73.30780039 35.77414882 -71.27198473 36.15283157 -69.24609375 36.578125 C-53.10510846 39.94584175 -36.67265807 38.19458965 -22.390625 29.62109375 C-11.76669563 22.41695864 -4.07795065 12.23385194 0 0 Z " fill="#E81D62" transform="translate(364,105)"/>
<path d="M0 0 C1.30066406 -0.00773437 2.60132813 -0.01546875 3.94140625 -0.0234375 C10.55959348 -0.00994476 16.29481208 0.33391173 22.625 2.25 C24.74958237 2.62735891 26.8745787 3.00239528 29 3.375 C38.12358609 5.30555474 46.27709452 9.18176842 54.625 13.25 C55.65882813 13.74628906 56.69265625 14.24257813 57.7578125 14.75390625 C69.31079303 20.66512515 79.22307214 29.41285226 88.625 38.25 C89.27210938 38.83265625 89.91921875 39.4153125 90.5859375 40.015625 C98.10226531 47.03961693 103.36838965 55.86253748 103.9609375 66.30078125 C104.22595008 78.83645858 101.96480178 87.5806646 93.625 97.25 C93.11195313 97.86875 92.59890625 98.4875 92.0703125 99.125 C85.84228817 106.038405 77.20257568 109.79205226 67.95996094 110.43554688 C60.3048876 110.52471183 53.32297642 109.45108103 45.875 107.75 C44.78445313 107.51152344 43.69390625 107.27304688 42.5703125 107.02734375 C39.91920653 106.44596086 37.2711554 105.85344155 34.625 105.25 C34.40585937 104.27160156 34.18671875 103.29320313 33.9609375 102.28515625 C32.22374139 94.96558319 30.46862248 88.95767772 25.796875 82.88671875 C24.625 81.25 24.625 81.25 24.625 79.25 C21.03235548 78.05245183 18.39782526 77.91905042 14.625 78.25 C12.04166667 79.66666667 12.04166667 79.66666667 10.625 82.25 C9.82991569 86.84382046 10.54316911 89.49967343 13 93.3125 C13.44085938 93.92222656 13.88171875 94.53195313 14.3359375 95.16015625 C19.26025768 103.14352381 18.79846432 114.24091762 17.04296875 123.23046875 C12.97557942 134.91260522 2.36314573 143.24032826 -8.27734375 148.75390625 C-20.37078667 154.45162231 -34.32325163 155.23263279 -47.1484375 151.18359375 C-50.15423124 149.92326971 -52.68023723 148.06739814 -55.375 146.25 C-58.70205942 145.78421168 -60.64037429 145.96001617 -63.75 147.1875 C-66.02562208 150.07578956 -66.18641991 152.34202695 -66.00390625 155.96875 C-65.0011192 159.60618876 -62.94645894 161.00265934 -59.8359375 162.97265625 C-51.34611687 167.37927743 -42.82334741 169.10838728 -33.375 170.25 C-32.48027028 181.21043902 -36.17262059 194.16087485 -42.375 203.25 C-47.93311177 209.67351953 -53.98214797 212.68677786 -62.3671875 213.5625 C-68.78684173 213.8186458 -73.38668863 213.41488199 -78.375 209.25 C-78.99632812 208.74855469 -79.61765625 208.24710938 -80.2578125 207.73046875 C-98.48718728 191.32403145 -107.74037776 159.61915202 -109.54510498 136.02624512 C-109.79217387 130.6634572 -109.75396442 125.30410623 -109.6875 119.9375 C-109.6815683 119.12573303 -109.6756366 118.31396606 -109.66952515 117.4776001 C-109.4164961 83.3635779 -103.79225966 51.36118016 -79.14453125 25.93359375 C-58.46247431 5.89329316 -27.76027349 -0.16807431 0 0 Z " fill="#FEEA39" transform="translate(246.375,16.75)"/>
<path d="M0 0 C1.09903152 0.28299454 2.19806305 0.56598907 3.33039856 0.8575592 C4.78638225 1.22821655 6.24241406 1.59868492 7.69848633 1.96899414 C8.42118965 2.15561867 9.14389297 2.34224319 9.8884964 2.53452301 C22.27319788 5.67081529 33.78114346 4.3689133 46 1 C47.65 0.67 49.3 0.34 51 0 C51 60.72 51 121.44 51 184 C48.3570014 185.3214993 45.93657996 185.40370519 43 185.75 C35.24124842 186.91853844 28.93234282 188.99783949 23.375 194.6875 C20.88130347 200.69504165 21.11014141 206.44028755 23.4375 212.5 C28.54259689 222.62125481 39.30777727 232.57895111 49.13653469 238.22795773 C51 240 51 240 51.50615788 242.88684177 C51.5089648 244.07310626 51.51177172 245.25937075 51.5146637 246.48158264 C51.52508199 247.47327262 51.52508199 247.47327262 51.53571075 248.48499674 C51.55403903 250.70526395 51.54370102 252.92446958 51.53344727 255.14477539 C51.54050329 256.73489179 51.54924698 258.32500146 51.55955505 259.9151001 C51.58210616 264.23994564 51.57909435 268.56442617 51.57023358 272.88930821 C51.56512797 276.50220873 51.57241358 280.11504039 51.57970566 283.72793382 C51.59672611 292.25805527 51.59312118 300.78799797 51.57641602 309.31811523 C51.55952944 318.10513097 51.57527642 326.89164868 51.6076389 335.67860991 C51.63438809 343.22869536 51.64159534 350.77862631 51.63312382 358.32875437 C51.62820553 362.83510176 51.63034902 367.34115019 51.65091133 371.84745979 C51.66934971 376.09201199 51.66321106 380.33585338 51.63871193 384.58036804 C51.63372791 386.13228443 51.63713081 387.68425567 51.64986038 389.23612785 C51.72484996 399.16996575 51.05927203 407.5434793 44.02468204 415.13041782 C38.58492458 420.30501469 33.1991567 423.10040262 25.625 423.4375 C18.01104561 423.2178667 11.47581764 420.31936571 6 415 C1.35215879 408.89140869 -0.25083955 403.60083493 -0.24609566 395.96791267 C-0.24840335 395.28057501 -0.25071103 394.59323735 -0.25308865 393.88507128 C-0.2583805 391.58296086 -0.24941146 389.28113046 -0.24050903 386.97903442 C-0.24138127 385.31156088 -0.24313258 383.6440876 -0.24568737 381.97661579 C-0.25016138 377.39530255 -0.24215643 372.81408274 -0.23213124 368.23278141 C-0.22349986 363.29214544 -0.22641668 358.3515148 -0.22793579 353.41087341 C-0.22898484 344.85112381 -0.22270616 336.29140469 -0.21146011 327.73166275 C-0.19521078 315.35569378 -0.18999769 302.97973955 -0.18748413 290.60376106 C-0.18310614 270.52489485 -0.16979421 250.44604489 -0.15087891 230.3671875 C-0.1325228 210.86165447 -0.11836498 191.35612586 -0.10986328 171.85058594 C-0.10933783 170.64840306 -0.10881239 169.44622018 -0.10827102 168.20760752 C-0.10566096 162.17665064 -0.10313354 156.14569373 -0.10064721 150.1147368 C-0.07991147 100.07647997 -0.0446831 50.03824078 0 0 Z " fill="#FE5621" transform="translate(43,72)"/>
<path d="M0 0 C3.94291543 1.2640523 7.71303073 2.704904 11.5 4.375 C16.0714798 6.31094329 20.6244418 7.83263486 25.40625 9.1640625 C26.64697266 9.51162598 27.88769531 9.85918945 29.16601562 10.21728516 C30.56883789 10.604729 30.56883789 10.604729 32 11 C32.0501123 11.87100342 32.10022461 12.74200684 32.15185547 13.6394043 C32.34454576 16.93676767 32.54282147 20.23370424 32.74462891 23.53051758 C32.8301284 24.94510186 32.91353481 26.35981454 32.99462891 27.7746582 C33.46532202 35.95948848 34.16039245 44.019973 35.54101562 52.11328125 C36.2732806 56.71876054 36.64606288 61.35224675 37 66 C35.91203125 66.54527344 34.8240625 67.09054687 33.703125 67.65234375 C10.52942419 79.46140772 -6.55032434 94.88397887 -15.8125 119.75 C-17.54786606 124.29087452 -19.86590525 128.31943057 -22.3125 132.5 C-40.31093813 163.77790845 -43.06277526 199.7425098 -45 235 C-50.61 235 -56.22 235 -62 235 C-62.06863923 225.42676347 -62.12330199 215.85369871 -62.15543652 206.28026867 C-62.17088388 201.83168862 -62.19172211 197.38329007 -62.22631836 192.93481445 C-62.69066566 131.56886984 -50.41306045 78.50066055 -16.59130859 26.47558594 C-13.62232312 21.8567592 -10.75463436 17.17485072 -7.875 12.5 C-6.78952268 10.73929955 -5.70361972 8.9788614 -4.6171875 7.21875 C-4.15940918 6.47560547 -3.70163086 5.73246094 -3.22998047 4.96679688 C-2.18284056 3.2923707 -1.09547391 1.64321086 0 0 Z " fill="#FDE939" transform="translate(233,260)"/>
<path d="M0 0 C4.83696251 1.57827951 8.44465511 4.32539238 12.4375 7.375 C13.14197266 7.9102832 13.84644531 8.44556641 14.57226562 8.99707031 C31.30353292 21.82738176 47.24068507 36.13531135 60 53 C60.42587402 53.55478027 60.85174805 54.10956055 61.29052734 54.68115234 C79.80988744 78.87251781 92.54958891 105.46876214 100 135 C100.29777344 136.15242187 100.59554687 137.30484375 100.90234375 138.4921875 C104.87787023 154.67119575 105.37033967 170.41934491 105.3125 187 C105.30926727 188.66006577 105.30926727 188.66006577 105.30596924 190.35366821 C105.19530236 225.81920333 101.73624667 261.30851974 90 295 C89.70899414 295.84675293 89.41798828 296.69350586 89.11816406 297.56591797 C76.70698083 333.19061059 56.38450325 364.66217384 22.10546875 382.125 C10.69847144 387.56615715 10.69847144 387.56615715 6 386 C6.67804688 385.5875 7.35609375 385.175 8.0546875 384.75 C49.19267249 359.22393729 68.19609281 315.89021836 79.24072266 270.44775391 C81.21245917 261.49442174 82.45167682 252.4016078 83.63037109 243.31469727 C84 241 84 241 85 238 C95.00637157 175.31423434 83.9201297 108.56669787 46.625 56.67578125 C44.46105353 53.74168022 42.26616712 50.85608999 40 48 C39.38294189 47.21375244 38.76588379 46.42750488 38.13012695 45.61743164 C32.76215528 38.8961999 27.03302809 32.72031836 20.93383789 26.6730957 C19.42808798 25.17815554 17.93345199 23.67268996 16.43945312 22.16601562 C8.0054405 13.57247563 8.0054405 13.57247563 -2 7 C-1.34 4.69 -0.68 2.38 0 0 Z " fill="#AB1356" transform="translate(364,105)"/>
<path d="M0 0 C1.30066406 -0.00773437 2.60132813 -0.01546875 3.94140625 -0.0234375 C10.55959348 -0.00994476 16.29481208 0.33391173 22.625 2.25 C24.74958237 2.62735891 26.8745787 3.00239528 29 3.375 C38.12358609 5.30555474 46.27709452 9.18176842 54.625 13.25 C55.65882813 13.74628906 56.69265625 14.24257813 57.7578125 14.75390625 C69.31079303 20.66512515 79.22307214 29.41285226 88.625 38.25 C89.27210938 38.83265625 89.91921875 39.4153125 90.5859375 40.015625 C98.10226531 47.03961693 103.36838965 55.86253748 103.9609375 66.30078125 C104.25107345 80.02484922 101.12112911 89.02020719 91.7890625 99.265625 C87.15830838 104.07223054 87.15830838 104.07223054 83.625 105.25 C83.769375 104.70214844 83.91375 104.15429688 84.0625 103.58984375 C87.49057038 88.94912648 86.31629464 74.93379577 78.75 61.8125 C60.37143031 34.85464082 28.17515808 18.28194428 -3.1015625 11.94140625 C-13.22150922 10.17163549 -23.3144136 10.12098721 -33.5625 10.1875 C-34.90950352 10.19253037 -36.25650889 10.19709053 -37.60351562 10.20117188 C-40.86072537 10.21284646 -44.11783778 10.22922117 -47.375 10.25 C-47.705 9.26 -48.035 8.27 -48.375 7.25 C-45.50261966 6.44769334 -42.62759904 5.65819974 -39.75 4.875 C-38.96109375 4.65328125 -38.1721875 4.4315625 -37.359375 4.203125 C-24.98981478 0.86530716 -12.77636403 -0.07735437 0 0 Z " fill="#FAD434" transform="translate(246.375,16.75)"/>
<path d="M0 0 C0.68153137 -0.00078552 1.36306274 -0.00157104 2.06524658 -0.00238037 C17.37253262 0.01806124 32.61625303 1.12139597 47.875 2.25 C49.05151123 2.33695129 50.22802246 2.42390259 51.44018555 2.51348877 C62.77682255 3.3626107 74.10531555 4.27778992 85.4140625 5.4453125 C86.18454926 5.52409637 86.95503601 5.60288025 87.74887085 5.68405151 C91.0676804 6.04147197 94.29259218 6.42671379 97.5 7.375 C96.18071914 10.89216993 94.62651609 14.02808518 92.6796875 17.23828125 C91.87724609 18.56762695 91.87724609 18.56762695 91.05859375 19.92382812 C90.50300781 20.83583984 89.94742188 21.74785156 89.375 22.6875 C88.81167969 23.61884766 88.24835938 24.55019531 87.66796875 25.50976562 C86.2819554 27.80021142 84.89254372 30.08852076 83.5 32.375 C72.92828129 31.28417502 62.36730155 30.15009598 51.8203125 28.83984375 C43.38347168 27.89732781 35.0684839 27.28903336 26.57421875 27.515625 C0.57311096 28.06459939 0.57311096 28.06459939 -8.125 20.3125 C-10.39675883 18.10670326 -12.45705197 15.79097655 -14.5 13.375 C-15.33402344 12.53839844 -16.16804688 11.70179688 -17.02734375 10.83984375 C-20.40142497 7.37509624 -20.40142497 7.37509624 -21.5 5.375 C-21.17 4.385 -20.84 3.395 -20.5 2.375 C-13.97904036 -0.41702007 -6.98435075 -0.00778249 0 0 Z " fill="#FABE07" transform="translate(102.5,272.625)"/>
<path d="M0 0 C7.14468623 4.02101578 12.46275828 10.06192578 14.75 18 C15.36886471 23.29129328 15.41236593 27.54279496 13.1875 32.4375 C8.77993337 37.07109569 3.73636007 39.71064166 -2.68847656 40.17700195 C-5.62574872 40.24361338 -8.56209815 40.2848535 -11.5 40.3125 C-13.01787109 40.35600586 -13.01787109 40.35600586 -14.56640625 40.40039062 C-22.38774159 40.46632925 -27.69254587 39.01015349 -33.6875 33.9375 C-37.5077843 29.20034747 -36.78355127 22.75943017 -36.25 17 C-34.38876965 11.09806749 -30.73864913 5.70470616 -25.62109375 2.19921875 C-16.68863706 -2.40379156 -9.45060672 -4.1828214 0 0 Z " fill="#D54214" transform="translate(79.25,19)"/>
</svg>
