<?xml version="1.0" encoding="UTF-8"?>
<svg version="1.1" xmlns="http://www.w3.org/2000/svg" width="512" height="512">
<path d="M0 0 C3.21258415 1.33178173 5.32269262 3.63528344 7.715271 6.07948303 C8.25230148 6.61607544 8.78933197 7.15266785 9.34263611 7.70552063 C11.11370094 9.47867337 12.87390649 11.26221078 14.63421631 13.04603577 C15.86095754 14.27837292 17.08836335 15.51004885 18.31640625 16.74108887 C21.54524879 19.98138034 24.76498064 23.23058012 27.98291016 26.48170471 C31.26878542 29.79827962 34.5631801 33.10636785 37.85687256 36.41517639 C44.31707146 42.90754031 50.76767921 49.40934526 57.21234131 55.91712952 C55.60698844 59.32772355 53.8071523 61.53505436 51.08734131 64.16712952 C50.36288818 64.87353577 49.63843506 65.57994202 48.89202881 66.30775452 C48.33773193 66.83884827 47.78343506 67.36994202 47.21234131 67.91712952 C43.53164244 66.380691 41.22458927 64.13562006 38.46234131 61.29212952 C37.66312256 60.47486389 36.86390381 59.65759827 36.04046631 58.81556702 C35.43718506 58.18908264 34.83390381 57.56259827 34.21234131 56.91712952 C29.65203306 60.72188373 25.36144739 64.66682573 21.21234131 68.91712952 C22.62078849 72.13237257 24.31578917 74.23896819 26.83734131 76.66712952 C27.46898193 77.28072327 28.10062256 77.89431702 28.75140381 78.52650452 C29.47456787 79.21486389 29.47456787 79.21486389 30.21234131 79.91712952 C25.91449053 84.9487597 21.57808589 89.94431394 17.21234131 94.91712952 C18.44984131 95.00994202 18.44984131 95.00994202 19.71234131 95.10462952 C27.84735073 96.99311385 34.91753407 102.89793718 39.46624756 109.82728577 C44.53641488 119.23796534 45.40712738 129.02741578 42.77484131 139.29212952 C39.72905127 148.56941224 33.50583157 155.11407534 25.13421631 159.97962952 C24.49999756 160.28900452 23.86577881 160.59837952 23.21234131 160.91712952 C22.48917725 161.28064514 21.76601318 161.64416077 21.02093506 162.01869202 C12.5674432 164.72286883 0.40453708 164.28148754 -7.54937744 160.36634827 C-16.87797585 154.3263657 -22.29300953 147.40107699 -25.78765869 136.91712952 C-26.26737122 137.4079451 -26.74708374 137.89876068 -27.24133301 138.40444946 C-32.22267811 143.49614641 -37.22132826 148.57036753 -42.23052979 153.63465881 C-44.0993167 155.52863811 -45.96359795 157.42707394 -47.82330322 159.32997131 C-50.4924871 162.05959223 -53.17730192 164.77293701 -55.86578369 167.48353577 C-56.69821594 168.34177444 -57.53064819 169.20001312 -58.38830566 170.08425903 C-59.55906647 171.25558632 -59.55906647 171.25558632 -60.753479 172.45057678 C-61.43742737 173.1456282 -62.12137573 173.84067963 -62.8260498 174.55679321 C-64.78765869 175.91712952 -64.78765869 175.91712952 -66.91967773 175.7355957 C-69.33217932 174.67854479 -70.73291347 173.26349465 -72.53765869 171.35462952 C-73.15125244 170.71396545 -73.76484619 170.07330139 -74.39703369 169.41322327 C-74.85593994 168.91951233 -75.31484619 168.42580139 -75.78765869 167.91712952 C-79.15101463 169.37458376 -81.33299874 171.22830805 -83.89703369 173.83119202 C-84.65113525 174.59173889 -85.40523682 175.35228577 -86.18218994 176.13587952 C-86.95949463 176.92994202 -87.73679932 177.72400452 -88.53765869 178.54212952 C-89.33043213 179.34392639 -90.12320557 180.14572327 -90.94000244 180.97181702 C-92.89380363 182.94915797 -94.84277972 184.9310186 -96.78765869 186.91712952 C-99.96852388 185.4076644 -102.08635775 183.83771127 -104.53765869 181.29212952 C-105.15125244 180.66048889 -105.76484619 180.02884827 -106.39703369 179.37806702 C-106.85593994 178.89595764 -107.31484619 178.41384827 -107.78765869 177.91712952 C-112.31381862 181.59544969 -116.18190868 185.32799314 -119.78765869 189.91712952 C-119.22498291 190.70023499 -119.22498291 190.70023499 -118.65093994 191.49916077 C-107.07240722 208.15241563 -103.41358144 226.55659319 -106.97515869 246.54212952 C-110.9277459 264.30119577 -119.91830297 279.5610413 -135.22515869 289.72962952 C-140.19525715 292.74819214 -145.30483679 295.00230451 -150.78765869 296.91712952 C-150.57109619 297.60419983 -150.35453369 298.29127014 -150.13140869 298.99916077 C-149.71375244 300.3507428 -149.71375244 300.3507428 -149.28765869 301.72962952 C-148.87000244 303.06960999 -148.87000244 303.06960999 -148.44390869 304.43666077 C-147.78765869 306.91712952 -147.78765869 306.91712952 -147.78765869 309.91712952 C-147.03782715 309.90141907 -146.28799561 309.88570862 -145.51544189 309.86952209 C-142.04376083 309.80629391 -138.57220156 309.76786386 -135.10015869 309.72962952 C-133.33188721 309.69192444 -133.33188721 309.69192444 -131.52789307 309.65345764 C-113.15061681 309.50241154 -97.30369103 315.27014833 -83.78765869 327.91712952 C-71.8182442 339.76976923 -63.37668334 354.69234736 -62.66461086 371.88870049 C-62.66553266 372.9377009 -62.66645445 373.98670132 -62.66740417 375.06748962 C-62.66534218 376.88469765 -62.66534218 376.88469765 -62.66323853 378.73861694 C-62.6668338 380.0542009 -62.67042908 381.36978485 -62.6741333 382.72523499 C-62.6744156 384.13496905 -62.6742566 385.54470327 -62.6736908 386.95443726 C-62.67340449 390.77008893 -62.67927434 394.58570901 -62.68626475 398.40135336 C-62.69252597 402.39319288 -62.69310428 406.38503316 -62.69429016 410.37687683 C-62.69739532 417.9309098 -62.70559771 425.48492826 -62.71563965 433.03895485 C-62.72682612 441.64110487 -62.73231762 450.24325558 -62.73733509 458.84541106 C-62.74778101 476.53599377 -62.76611635 494.2265566 -62.78765869 511.91712952 C-81.26765869 511.91712952 -99.74765869 511.91712952 -118.78765869 511.91712952 C-118.79700439 507.7984137 -118.8063501 503.67969788 -118.815979 499.43617249 C-118.8497258 485.83743934 -118.90506062 472.23886622 -118.97156143 458.64025688 C-119.01135791 450.39432833 -119.04374727 442.14849529 -119.05865479 433.90248108 C-119.07166819 426.71460302 -119.09862474 419.52693507 -119.14227176 412.33917534 C-119.16489379 408.53383865 -119.18056894 404.72876119 -119.17954254 400.92335129 C-119.17879635 397.33958481 -119.19672987 393.75639152 -119.22882652 390.17277336 C-119.24137158 388.23450573 -119.23425827 386.29614189 -119.22651672 384.35784912 C-119.31053112 375.82819355 -119.31053112 375.82819355 -123.78765869 368.91712952 C-127.28102687 366.5882174 -128.64773734 366.68161809 -132.76812744 366.72181702 C-133.93150635 366.72826233 -135.09488525 366.73470764 -136.29351807 366.74134827 C-137.50845947 366.75810608 -138.72340088 366.77486389 -139.97515869 366.79212952 C-141.81497314 366.80566467 -141.81497314 366.80566467 -143.69195557 366.81947327 C-146.72405165 366.84306935 -149.75575807 366.87599111 -152.78765869 366.91712952 C-154.10765869 369.55712952 -155.42765869 372.19712952 -156.78765869 374.91712952 C-155.8266626 376.08115295 -155.8266626 376.08115295 -154.84625244 377.26869202 C-139.66780428 396.04900535 -132.60178701 417.68882086 -134.98980713 441.97279358 C-137.70112773 463.08016865 -147.8822157 483.2394272 -164.92828369 496.42884827 C-181.20614419 508.38407835 -200.62758214 514.29885002 -220.831604 511.64906311 C-235.74567737 509.06848311 -249.69411115 502.18760741 -260.78765869 491.91712952 C-261.75187744 491.03283264 -262.71609619 490.14853577 -263.70953369 489.23744202 C-272.95234499 480.5072201 -283.38158876 469.01379423 -287.78765869 456.91712952 C-286.65460877 453.51797976 -285.66247394 452.86458501 -282.78765869 450.91712952 C-283.32906494 449.76084045 -283.32906494 449.76084045 -283.88140869 448.58119202 C-284.34547119 447.57830139 -284.80953369 446.57541077 -285.28765869 445.54212952 C-285.75172119 444.54439514 -286.21578369 443.54666077 -286.69390869 442.51869202 C-287.78765869 439.91712952 -287.78765869 439.91712952 -287.78765869 437.91712952 C-288.55078369 438.24712952 -289.31390869 438.57712952 -290.10015869 438.91712952 C-292.78765869 439.91712952 -292.78765869 439.91712952 -295.78765869 439.91712952 C-303.30813475 420.94795623 -307.98325396 402.14890648 -310.78765869 381.91712952 C-310.94669678 380.78525208 -310.94669678 380.78525208 -311.10894775 379.63050842 C-312.1579546 370.89818438 -312.03151731 362.07409123 -312.03765869 353.29212952 C-312.03833344 352.42475159 -312.03900818 351.55737366 -312.03970337 350.66371155 C-312.02230916 336.55326686 -311.33294704 322.82602803 -308.78765869 308.91712952 C-308.62136963 307.98127014 -308.45508057 307.04541077 -308.28375244 306.08119202 C-299.86798406 260.07499154 -277.53941288 214.89513389 -238.41656494 187.51478577 C-214.65397207 171.45833836 -187.26074369 161.75981332 -158.42437744 166.15541077 C-151.09149167 167.69129984 -144.11797483 170.37482942 -137.72515869 174.29212952 C-135.07050225 176.10315115 -135.07050225 176.10315115 -132.90093994 175.80384827 C-129.94630671 174.56410382 -128.2447391 172.65908112 -126.03765869 170.35462952 C-125.23843994 169.52834045 -124.43922119 168.70205139 -123.61578369 167.85072327 C-123.01250244 167.21263733 -122.40922119 166.57455139 -121.78765869 165.91712952 C-123.19610587 162.70188647 -124.89110655 160.59529084 -127.41265869 158.16712952 C-128.04429932 157.55353577 -128.67593994 156.93994202 -129.32672119 156.30775452 C-129.80883057 155.84884827 -130.29093994 155.38994202 -130.78765869 154.91712952 C-126.54949332 149.85089183 -122.11356906 145.11674883 -117.41265869 140.47962952 C-116.77199463 139.84347717 -116.13133057 139.20732483 -115.47125244 138.55189514 C-113.9123499 137.0046262 -112.35114453 135.4597646 -110.78765869 133.91712952 C-111.72356373 132.81161062 -112.66145727 131.70777498 -113.60015869 130.60462952 C-114.122229 129.9897467 -114.64429932 129.37486389 -115.18218994 128.74134827 C-116.65938339 127.06288272 -118.18805 125.47830917 -119.78765869 123.91712952 C-118.36864207 120.68967428 -116.65910104 118.54454845 -114.16412354 116.06654358 C-113.42350677 115.32607788 -112.68289001 114.58561218 -111.91983032 113.82270813 C-111.12082306 113.03402344 -110.3218158 112.24533875 -109.49859619 111.43275452 C-108.68017242 110.61716064 -107.86174866 109.80156677 -107.01852417 108.96125793 C-104.40455896 106.3584839 -101.78372364 103.7627519 -99.16265869 101.16712952 C-97.38876415 99.40326612 -95.61532103 97.63894861 -93.84234619 95.87416077 C-89.49600727 91.54986815 -85.14400789 87.23133621 -80.78765869 82.91712952 C-81.67316406 82.46257385 -82.55866943 82.00801819 -83.4710083 81.53968811 C-85.2190979 80.62437317 -85.2190979 80.62437317 -87.00250244 79.69056702 C-88.15613281 79.09163635 -89.30976318 78.49270569 -90.49835205 77.87562561 C-98.92080178 72.86078914 -103.54353308 65.22570076 -106.36578369 56.03431702 C-108.3855808 45.8979278 -106.57281353 36.54402673 -101.50250244 27.66712952 C-97.8865936 22.34902403 -93.37338892 19.00854228 -87.78765869 15.91712952 C-87.18437744 15.57552795 -86.58109619 15.23392639 -85.95953369 14.88197327 C-77.88344006 11.10727733 -67.30555004 11.7750481 -58.97515869 14.35462952 C-50.09273371 18.10086837 -42.99440808 25.29329328 -38.78765869 33.91712952 C-38.12765869 35.56712952 -37.46765869 37.21712952 -36.78765869 38.91712952 C-32.82765869 34.95712952 -28.86765869 30.99712952 -24.78765869 26.91712952 C-21.29412031 28.66389871 -19.64820106 29.83118167 -17.03765869 32.54212952 C-16.11726807 33.48959045 -16.11726807 33.48959045 -15.17828369 34.45619202 C-14.71937744 34.93830139 -14.26047119 35.42041077 -13.78765869 35.91712952 C-9.22735045 32.1123753 -4.93676477 28.16743331 -0.78765869 23.91712952 C-2.63475112 19.53883635 -5.72474727 17.03833906 -9.20562744 13.91712952 C-10.78765869 11.91712952 -10.78765869 11.91712952 -10.76422119 9.93666077 C-9.51987006 7.36334262 -7.98091098 5.64015178 -5.97515869 3.60462952 C-5.28808838 2.8866217 -4.60101807 2.16861389 -3.89312744 1.42884827 C-1.78765869 -0.08287048 -1.78765869 -0.08287048 0 0 Z M-86.03765869 35.29212952 C-89.7364595 39.93015462 -91.29858431 43.71982362 -91.09234619 49.80384827 C-90.26895523 55.51480353 -87.51854864 59.66005889 -83.16265869 63.35462952 C-78.61206484 66.45615158 -74.24981168 67.30983333 -68.78765869 66.91712952 C-63.00210223 65.11507095 -58.53748347 62.41687921 -55.03765869 57.41712952 C-52.55540413 52.45262039 -51.6919966 47.32952291 -53.43609619 41.89759827 C-55.7626917 36.69755787 -59.06120597 33.08637508 -63.78765869 29.91712952 C-72.30971457 27.07644423 -79.9850746 28.61391774 -86.03765869 35.29212952 Z M-4.16265869 114.22962952 C-8.48058897 118.65036766 -9.96622156 122.16790623 -10.28765869 128.29212952 C-10.08716915 135.30926349 -7.2351408 139.33367618 -2.53765869 144.29212952 C2.97840867 147.55162386 8.05593051 148.52404531 14.33734131 147.04212952 C20.93296947 144.73057759 24.606174 140.0625405 27.71234131 133.97962952 C28.62962464 128.36126914 28.15902348 123.74036925 25.52484131 118.66712952 C21.06111652 113.35891625 17.46525901 110.2241478 10.57952881 109.00697327 C5.04247314 108.79682099 0.19414496 110.91630724 -4.16265869 114.22962952 Z " fill="#010101" transform="translate(311.78765869140625,0.0828704833984375)"/>
<path d="M0 0 C1.13679199 0.00757324 2.27358398 0.01514648 3.44482422 0.02294922 C13.19580899 0.21160688 22.14206811 1.52710206 31.4375 4.4375 C32.45263672 4.75098389 32.45263672 4.75098389 33.48828125 5.07080078 C64.41718064 14.93936691 89.24692777 37.5196699 107.20703125 64.01171875 C107.61308594 64.81222656 108.01914062 65.61273438 108.4375 66.4375 C107.4375 69.4375 107.4375 69.4375 103.4375 72.4375 C105.4175 76.0675 107.3975 79.6975 109.4375 83.4375 C111.9125 82.9425 111.9125 82.9425 114.4375 82.4375 C115.4275 82.4375 116.4175 82.4375 117.4375 82.4375 C135.13314799 113.21996161 140.90809681 150.48839881 140.75 185.5625 C140.74817719 186.40989746 140.74635437 187.25729492 140.74447632 188.13037109 C140.69422253 202.0770247 139.9723733 215.69427011 137.4375 229.4375 C137.26057617 230.40526367 137.08365234 231.37302734 136.90136719 232.37011719 C131.01002079 263.59730558 119.4947879 291.6771239 99.4375 316.4375 C98.65632813 317.45070313 98.65632813 317.45070313 97.859375 318.484375 C86.50479204 332.71023181 68.42099762 343.43781431 50.4375 346.15625 C28.61069187 348.20251326 9.39012206 342.87454374 -8.12109375 329.48046875 C-24.07514362 316.06512884 -33.50112621 296.42577268 -36.25 275.9375 C-38.18665325 253.50459991 -33.0034862 231.86449712 -18.6875 214.25 C-17.32143208 212.6382202 -15.94964545 211.031176 -14.5625 209.4375 C-15.8825 206.7975 -17.2025 204.1575 -18.5625 201.4375 C-22.62486402 201.35020953 -26.68698589 201.29701008 -30.75 201.25 C-31.90048828 201.22486328 -33.05097656 201.19972656 -34.23632812 201.17382812 C-35.34814453 201.16416016 -36.45996094 201.15449219 -37.60546875 201.14453125 C-38.62664795 201.1288208 -39.64782715 201.11311035 -40.69995117 201.09692383 C-44.10838379 201.50244737 -45.85453138 202.33891713 -48.5625 204.4375 C-51.22804415 208.13931413 -51.94044911 210.70599581 -51.96122742 215.23982239 C-51.97376556 216.39943481 -51.98630371 217.55904724 -51.9992218 218.75379944 C-51.99778671 220.01687424 -51.99635162 221.27994904 -51.99487305 222.58129883 C-52.00389419 223.93178197 -52.01422228 225.28225693 -52.02575684 226.63272095 C-52.05331193 230.29142079 -52.06260926 233.9499652 -52.06861091 237.60875535 C-52.0779985 241.43517088 -52.10420219 245.26147049 -52.12861633 249.08781433 C-52.17227447 256.33019012 -52.20082561 263.57254341 -52.22393972 270.81501073 C-52.25099509 279.06171121 -52.29490637 287.30829504 -52.34022844 295.55491221 C-52.43306495 312.51572792 -52.5025251 329.47653141 -52.5625 346.4375 C-71.0425 346.4375 -89.5225 346.4375 -108.5625 346.4375 C-108.63039336 328.16478628 -108.68558404 309.89217572 -108.71793652 291.6193676 C-108.733362 283.13373146 -108.75436825 274.64817965 -108.78881836 266.16259766 C-108.8188537 258.76087067 -108.83810633 251.3592048 -108.84476548 243.95741856 C-108.84865397 240.04338262 -108.85770073 236.12952141 -108.87969017 232.21554184 C-108.90027955 228.5203013 -108.90628927 224.82530497 -108.90182304 221.13001251 C-108.90302269 219.1502722 -108.91904593 217.17055757 -108.9357605 215.19088745 C-108.89662961 203.67121403 -107.34113997 192.36717727 -101.8125 182.125 C-101.46106934 181.45331787 -101.10963867 180.78163574 -100.74755859 180.08959961 C-91.75343364 163.3274528 -77.46658082 151.90298015 -59.3515625 146.1640625 C-54.21882146 144.82696189 -49.37056007 144.31460448 -44.0703125 144.33984375 C-42.87148438 144.34306641 -41.67265625 144.34628906 -40.4375 144.34960938 C-39.2 144.35798828 -37.9625 144.36636719 -36.6875 144.375 C-35.42679687 144.37951172 -34.16609375 144.38402344 -32.8671875 144.38867188 C-29.76557614 144.4004204 -26.66406275 144.41684833 -23.5625 144.4375 C-23.42972656 143.83421875 -23.29695313 143.2309375 -23.16015625 142.609375 C-22.98355469 141.81015625 -22.80695313 141.0109375 -22.625 140.1875 C-22.45097656 139.39859375 -22.27695312 138.6096875 -22.09765625 137.796875 C-21.614944 135.66871297 -21.10086822 133.55217158 -20.5625 131.4375 C-21.65304687 131.05271484 -21.65304687 131.05271484 -22.765625 130.66015625 C-40.24881898 124.00309393 -52.15010048 112.03429636 -59.90234375 95.28515625 C-67.4462672 78.22261329 -67.37574565 59.84197508 -61.49609375 42.24609375 C-58.78564508 35.24186501 -55.18413 29.33681605 -50.5625 23.4375 C-49.74458984 22.37208984 -49.74458984 22.37208984 -48.91015625 21.28515625 C-36.79634758 6.43505197 -18.70738885 -0.17624727 0 0 Z " fill="#FE9C86" transform="translate(371.5625,165.5625)"/>
<path d="M0 0 C1.98 1.98 1.98 1.98 4 4 C-22.07 30.07 -48.14 56.14 -75 83 C-73.25323081 86.49353838 -72.08594785 88.13945763 -69.375 90.75 C-68.74335937 91.36359375 -68.11171875 91.9771875 -67.4609375 92.609375 C-66.97882813 93.06828125 -66.49671875 93.5271875 -66 94 C-60.89158298 89.7237549 -56.10890952 85.24775843 -51.41235352 80.52587891 C-50.68956711 79.80323853 -49.9667807 79.08059814 -49.22209167 78.33605957 C-46.85531584 75.96859215 -44.49209281 73.59761225 -42.12890625 71.2265625 C-40.48003154 69.57582093 -38.83093458 67.92530133 -37.18162537 66.2749939 C-32.85745076 61.94701522 -28.5362887 57.61604101 -24.21575928 53.28442383 C-19.7999613 48.85836624 -15.381304 44.43516519 -10.96289062 40.01171875 C-2.30580205 31.3439301 6.34810481 22.67297231 15 14 C18.42640955 17.26534845 20.25000577 20.15682527 22.1875 24.5 C22.95126953 26.18609375 22.95126953 26.18609375 23.73046875 27.90625 C28.39280559 39.26800623 27.43742282 54.88897661 23.2578125 66.21484375 C17.36863837 79.2551579 9.17302851 88.98693848 -4 95 C-11.75071628 97.64046422 -19.92399945 98.78287226 -28 100 C-27.39671875 100.96679688 -26.7934375 101.93359375 -26.171875 102.9296875 C-15.3574652 120.45936952 -9.52883363 138.20831143 -13.6875 159.0546875 C-16.8081684 170.73118844 -22.1717585 180.82845079 -30 190 C-27.92921051 192.78760123 -26.00855716 194.99338765 -23.25 197.125 C-12.44017778 205.8875074 -4.77836495 221.35104903 -3 235 C-1.54902165 256.07805161 -5.63105729 275.40876282 -19.7578125 291.76171875 C-33.00962058 304.99044005 -47.60985263 310.28865093 -65.98388672 310.31689453 C-73.04775288 310.21812478 -78.67785987 309.28998809 -85 306 C-85.88300781 305.59910156 -86.76601562 305.19820313 -87.67578125 304.78515625 C-104.20991365 296.71687382 -117.85633436 280.28733129 -126 264 C-126.5775 264.144375 -127.155 264.28875 -127.75 264.4375 C-129.21354167 264.80338542 -130.67708333 265.16927083 -132.140625 265.53515625 C-132.75421875 265.68855469 -133.3678125 265.84195312 -134 266 C-135.03544174 264.09118566 -136.05290085 262.17260796 -137.0625 260.25 C-137.63097656 259.18265625 -138.19945312 258.1153125 -138.78515625 257.015625 C-140 254 -140 254 -139.8125 251.6875 C-138.70283071 249.38280225 -137.33133829 248.90245353 -135 248 C-135.57420528 243.73447505 -136.62491306 240.19989388 -138.3125 236.25 C-153.35640025 197.9682596 -152.94690894 150.04816942 -142 111 C-141.71511719 109.81019531 -141.43023437 108.62039063 -141.13671875 107.39453125 C-134.83818533 81.5067265 -122.34135085 56.25389433 -105 36 C-104.29101562 35.16855469 -103.58203125 34.33710938 -102.8515625 33.48046875 C-80.06846294 7.45977083 -34.66084317 -18.70897785 0 0 Z " fill="#FE9C86" transform="translate(164,186)"/>
<path d="M0 0 C1.13679199 0.00757324 2.27358398 0.01514648 3.44482422 0.02294922 C13.19580899 0.21160688 22.14206811 1.52710206 31.4375 4.4375 C32.45263672 4.75098389 32.45263672 4.75098389 33.48828125 5.07080078 C64.41718064 14.93936691 89.24692777 37.5196699 107.20703125 64.01171875 C107.61308594 64.81222656 108.01914062 65.61273438 108.4375 66.4375 C107.22745454 70.06763639 106.40127988 70.31443578 103.125 72.0625 C102.34511719 72.48789063 101.56523437 72.91328125 100.76171875 73.3515625 C98.64201398 74.34194557 96.72138447 74.96713478 94.4375 75.4375 C93.89222656 74.61507812 93.34695313 73.79265625 92.78515625 72.9453125 C86.50193372 63.59641739 79.52365084 55.3108574 71.4375 47.4375 C70.97601563 46.93089844 70.51453125 46.42429688 70.0390625 45.90234375 C53.36766736 28.05175236 27.24595111 17.64789258 3.28125 16.25390625 C-10.9103773 15.9430072 -22.38807949 19.40707534 -33.4609375 28.42578125 C-39.56577409 34.2696304 -43.62245124 41.57879147 -46.5625 49.4375 C-46.91957031 50.29601562 -47.27664063 51.15453125 -47.64453125 52.0390625 C-51.52558916 66.40723434 -48.89266063 82.0272032 -41.6875 94.75 C-40.67099638 96.32898578 -39.63071476 97.89302827 -38.5625 99.4375 C-38.12292969 100.07429688 -37.68335938 100.71109375 -37.23046875 101.3671875 C-30.20146162 110.48261461 -19.54455429 115.04431626 -8.5625 117.4375 C-5.63400475 117.79904262 -2.75258132 118.05034553 0.1953125 118.1640625 C2.4375 118.4375 2.4375 118.4375 5.4375 120.4375 C5.11998779 120.95546143 4.80247559 121.47342285 4.4753418 122.00708008 C-3.98950973 135.41770596 -3.98950973 135.41770596 -8.5625 150.4375 C-8.82933594 152.06365234 -8.82933594 152.06365234 -9.1015625 153.72265625 C-10.48643653 164.88380204 -10.15770343 175.72937255 -6.5625 186.4375 C-6.2840625 187.29730469 -6.005625 188.15710938 -5.71875 189.04296875 C-3.68651087 194.69294393 -0.81769889 199.30076208 2.75390625 204.11328125 C4.4683022 206.48002276 5.96758188 208.91317253 7.4375 211.4375 C6.67566406 212.06914062 5.91382813 212.70078125 5.12890625 213.3515625 C-8.74590957 225.22589691 -17.83193113 239.96367729 -19.5625 258.4375 C-20.4746137 277.40186395 -17.14008863 292.96009204 -5.5625 308.4375 C-4.88960937 309.35789062 -4.88960937 309.35789062 -4.203125 310.296875 C3.74514148 320.38849424 16.58793468 327.3036042 29.23046875 329.1484375 C41.65097751 330.26794742 52.05019338 330.26213045 63.4375 324.4375 C64.31792969 323.99148438 65.19835937 323.54546875 66.10546875 323.0859375 C86.83223597 311.58177833 98.70411965 291.18950576 108.4375 270.4375 C108.96214844 269.34953125 109.48679687 268.2615625 110.02734375 267.140625 C131.43917328 218.75102617 129.43387327 156.73520515 111.21875 107.8671875 C109.2998397 102.94997986 107.04720413 98.28074747 104.50390625 93.65234375 C103.4375 91.4375 103.4375 91.4375 103.4375 88.4375 C107.7275 86.1275 112.0175 83.8175 116.4375 81.4375 C120.94798314 88.2032247 120.94798314 88.2032247 122.3671875 91.6953125 C122.68461914 92.47511475 123.00205078 93.25491699 123.32910156 94.05834961 C123.81588379 95.29790405 123.81588379 95.29790405 124.3125 96.5625 C124.65764648 97.43849854 125.00279297 98.31449707 125.35839844 99.21704102 C130.25461793 111.88900965 134.08805806 124.72488717 136.6875 138.0625 C136.83864258 138.83585693 136.98978516 139.60921387 137.14550781 140.40600586 C139.86652191 155.3946168 140.81856496 170.35122245 140.75 185.5625 C140.74817719 186.40989746 140.74635437 187.25729492 140.74447632 188.13037109 C140.69422253 202.0770247 139.9723733 215.69427011 137.4375 229.4375 C137.26057617 230.40526367 137.08365234 231.37302734 136.90136719 232.37011719 C131.01002079 263.59730558 119.4947879 291.6771239 99.4375 316.4375 C98.65632813 317.45070313 98.65632813 317.45070313 97.859375 318.484375 C86.50479204 332.71023181 68.42099762 343.43781431 50.4375 346.15625 C28.61069187 348.20251326 9.39012206 342.87454374 -8.12109375 329.48046875 C-24.07514362 316.06512884 -33.50112621 296.42577268 -36.25 275.9375 C-38.18665325 253.50459991 -33.0034862 231.86449712 -18.6875 214.25 C-17.32143208 212.6382202 -15.94964545 211.031176 -14.5625 209.4375 C-15.8825 206.7975 -17.2025 204.1575 -18.5625 201.4375 C-22.62486402 201.35020953 -26.68698589 201.29701008 -30.75 201.25 C-31.90048828 201.22486328 -33.05097656 201.19972656 -34.23632812 201.17382812 C-35.34814453 201.16416016 -36.45996094 201.15449219 -37.60546875 201.14453125 C-38.62664795 201.1288208 -39.64782715 201.11311035 -40.69995117 201.09692383 C-44.10838379 201.50244737 -45.85453138 202.33891713 -48.5625 204.4375 C-51.22804415 208.13931413 -51.94044911 210.70599581 -51.96122742 215.23982239 C-51.97376556 216.39943481 -51.98630371 217.55904724 -51.9992218 218.75379944 C-51.99778671 220.01687424 -51.99635162 221.27994904 -51.99487305 222.58129883 C-52.00389419 223.93178197 -52.01422228 225.28225693 -52.02575684 226.63272095 C-52.05331193 230.29142079 -52.06260926 233.9499652 -52.06861091 237.60875535 C-52.0779985 241.43517088 -52.10420219 245.26147049 -52.12861633 249.08781433 C-52.17227447 256.33019012 -52.20082561 263.57254341 -52.22393972 270.81501073 C-52.25099509 279.06171121 -52.29490637 287.30829504 -52.34022844 295.55491221 C-52.43306495 312.51572792 -52.5025251 329.47653141 -52.5625 346.4375 C-71.0425 346.4375 -89.5225 346.4375 -108.5625 346.4375 C-108.63039336 328.16478628 -108.68558404 309.89217572 -108.71793652 291.6193676 C-108.733362 283.13373146 -108.75436825 274.64817965 -108.78881836 266.16259766 C-108.8188537 258.76087067 -108.83810633 251.3592048 -108.84476548 243.95741856 C-108.84865397 240.04338262 -108.85770073 236.12952141 -108.87969017 232.21554184 C-108.90027955 228.5203013 -108.90628927 224.82530497 -108.90182304 221.13001251 C-108.90302269 219.1502722 -108.91904593 217.17055757 -108.9357605 215.19088745 C-108.89662961 203.67121403 -107.34113997 192.36717727 -101.8125 182.125 C-101.46106934 181.45331787 -101.10963867 180.78163574 -100.74755859 180.08959961 C-91.75343364 163.3274528 -77.46658082 151.90298015 -59.3515625 146.1640625 C-54.21882146 144.82696189 -49.37056007 144.31460448 -44.0703125 144.33984375 C-42.87148438 144.34306641 -41.67265625 144.34628906 -40.4375 144.34960938 C-39.2 144.35798828 -37.9625 144.36636719 -36.6875 144.375 C-35.42679687 144.37951172 -34.16609375 144.38402344 -32.8671875 144.38867188 C-29.76557614 144.4004204 -26.66406275 144.41684833 -23.5625 144.4375 C-23.42972656 143.83421875 -23.29695313 143.2309375 -23.16015625 142.609375 C-22.98355469 141.81015625 -22.80695313 141.0109375 -22.625 140.1875 C-22.45097656 139.39859375 -22.27695312 138.6096875 -22.09765625 137.796875 C-21.614944 135.66871297 -21.10086822 133.55217158 -20.5625 131.4375 C-21.65304687 131.05271484 -21.65304687 131.05271484 -22.765625 130.66015625 C-40.24881898 124.00309393 -52.15010048 112.03429636 -59.90234375 95.28515625 C-67.4462672 78.22261329 -67.37574565 59.84197508 -61.49609375 42.24609375 C-58.78564508 35.24186501 -55.18413 29.33681605 -50.5625 23.4375 C-49.74458984 22.37208984 -49.74458984 22.37208984 -48.91015625 21.28515625 C-36.79634758 6.43505197 -18.70738885 -0.17624727 0 0 Z " fill="#020101" transform="translate(371.5625,165.5625)"/>
<path d="M0 0 C-0.56847656 0.4125 -1.13695312 0.825 -1.72265625 1.25 C-12.97126646 9.66298393 -21.23555425 20.1264741 -23.75 34.375 C-25.10688153 48.62225609 -24.39978072 62.09930161 -15.62109375 74.07421875 C-9.15795902 81.75211133 -1.00244175 86.18865097 8.75 88.375 C13.36759784 89.56706072 16.22597957 90.96400911 19.0390625 94.8828125 C23.29799067 104.26630466 18.37808566 118.39354088 16.35546875 128.08984375 C12.5754152 147.47961482 14.85511618 166.56744348 23.30664062 184.35546875 C25.70307526 189.54104983 26.53111453 193.27507944 26 199 C24.43134032 201.94908019 22.56392141 204.32859851 20.421875 206.87890625 C7.79002375 222.32731892 3.31210262 239.35124763 5 259 C6.92203003 273.99319018 13.86260212 288.81870531 24 300 C24.55300781 300.62132812 25.10601562 301.24265625 25.67578125 301.8828125 C29.46643896 305.90875242 33.59276141 308.91100629 38.27734375 311.8359375 C39.13005859 312.41214844 39.13005859 312.41214844 40 313 C40 313.33 40 313.66 40 314 C23.43554786 313.08675074 9.53022542 307.28557738 -2 295 C-14.85208279 279.1880436 -19.2218412 262.04100458 -18 242 C-15.8348382 222.27517737 -6.01148964 207.44007706 9 195 C8.2265625 193.8553125 8.2265625 193.8553125 7.4375 192.6875 C7.07398438 192.13449219 6.71046875 191.58148438 6.3359375 191.01171875 C5.36054264 189.5429224 4.3625116 188.08908647 3.3515625 186.64453125 C-7.63116777 170.41023345 -10.18675421 152.36947561 -6.9375 133.3125 C-4.51584993 122.5241063 0.94858009 113.16881804 7 104 C4.59613084 102.79806542 2.39216013 102.70244572 -0.25537109 102.45654297 C-14.34739483 101.0833741 -25.87173223 96.34919944 -35.2578125 85.35546875 C-46.1384346 71.00188055 -48.63765768 56.69790621 -47 39 C-45.05458166 28.65509059 -38.73315294 18.978699 -31 12 C-30.49984375 11.51917969 -29.9996875 11.03835937 -29.484375 10.54296875 C-22.22358209 3.84200333 -10.12250775 -3.37416925 0 0 Z " fill="#FC6946" transform="translate(369,182)"/>
<path d="M0 0 C3.444375 0.04125 6.88875 0.0825 10.4375 0.125 C11.4275 12.5 11.4275 12.5 12.4375 25.125 C2 25.375 2 25.375 -1.23217773 25.42285156 C-9.53122521 25.71461195 -16.54591463 27.79131012 -22.875 33.375 C-23.79732422 34.15617187 -23.79732422 34.15617187 -24.73828125 34.953125 C-31.09099893 42.51653192 -31.14528126 49.54373143 -31.10839844 59.06835938 C-31.11714492 60.468548 -31.12763445 61.86872664 -31.13972473 63.26889038 C-31.16747422 67.04936809 -31.17099189 70.82951789 -31.17000484 74.61008263 C-31.17314352 78.56862015 -31.19878149 82.52701204 -31.22198486 86.48547363 C-31.26247558 93.97214082 -31.28286922 101.45872105 -31.29595876 108.94548082 C-31.31185234 117.47278866 -31.35027785 125.99994903 -31.39055204 134.52717113 C-31.47285612 152.05974044 -31.52620825 169.5922772 -31.5625 187.125 C-39.8125 187.125 -48.0625 187.125 -56.5625 187.125 C-56.67856121 168.46119921 -56.76763417 149.79750135 -56.82156086 131.13341331 C-56.84727264 122.46609538 -56.88228757 113.79900668 -56.93969727 105.13183594 C-56.98974874 97.57189476 -57.021842 90.01211971 -57.03294247 82.45201743 C-57.03942474 78.45401208 -57.05451025 74.45648174 -57.09115028 70.45862961 C-57.12545507 66.68448438 -57.13548482 62.91100319 -57.12803841 59.13671684 C-57.13003886 57.11398147 -57.15675144 55.091316 -57.18460083 53.06877136 C-57.10015409 37.84256001 -51.7269576 26.04600966 -41.5390625 14.9140625 C-29.87571223 3.59757767 -15.80803827 -0.26985548 0 0 Z " fill="#F9DFBD" transform="translate(335.5625,324.875)"/>
<path d="M0 0 C19.47674926 -0.37455287 35.49660869 0.41103315 50.875 13.8125 C60.47928929 23.0856069 67.03211589 34.50292762 67.60127258 48.10603333 C67.61555981 50.69673171 67.60294652 53.28767682 67.56762695 55.87817383 C67.56621256 57.3184962 67.56701607 58.75882216 67.56983948 60.19914246 C67.57125983 64.06634317 67.54209777 67.93275054 67.50696969 71.79976869 C67.47547255 75.85692338 67.47275722 79.91410115 67.46684265 83.97135925 C67.4513722 91.6351149 67.41043711 99.2985091 67.3600952 106.96210641 C67.30398853 115.69495949 67.27666192 124.42783087 67.25161803 133.16081965 C67.19951415 151.10742287 67.11068531 169.05366896 67 187 C58.75 187 50.5 187 42 187 C41.99453156 184.35816711 41.99453156 184.35816711 41.98895264 181.66296387 C41.95201232 165.06552914 41.89448651 148.4682861 41.81609726 131.87099457 C41.77632337 123.3381469 41.74392252 114.80539125 41.72900391 106.27246094 C41.7159788 98.83333093 41.68899233 91.3944035 41.64538693 83.95538759 C41.62279127 80.01808586 41.60708817 76.08103382 41.60811615 72.1436615 C41.6088639 68.43349837 41.59086786 64.72388678 41.55883217 61.01386642 C41.54632454 59.01157202 41.55338826 57.00918491 41.56114197 55.00686646 C41.47812605 47.81197307 40.80005165 43.14029422 37 37 C36.49638758 35.93834751 36.49638758 35.93834751 35.98260117 34.8552475 C34.69887227 32.43144128 33.49439965 32.06902842 31 31 C30.21625 30.505 29.4325 30.01 28.625 29.5 C22.14024113 25.7944235 15.91804724 25.60166563 8.625 25.375 C5.11875 25.25125 1.6125 25.1275 -2 25 C-1.34 16.75 -0.68 8.5 0 0 Z " fill="#FAE1BE" transform="translate(166,325)"/>
<path d="M0 0 C-0.92039062 0.52207031 -1.84078125 1.04414063 -2.7890625 1.58203125 C-44.01539573 25.37764893 -67.89438838 64.86243372 -80.1875 110.0625 C-90.30116544 149.61514092 -89.46874475 195.06533899 -77 234 C-76.72704102 234.85722656 -76.45408203 235.71445312 -76.17285156 236.59765625 C-70.04467651 255.42232658 -61.90926661 273.80730795 -49 289 C-48.23300781 289.928125 -47.46601562 290.85625 -46.67578125 291.8125 C-40.51564752 298.95468403 -33.60282177 304.50642503 -26 310 C-32.12864015 312.17559615 -38.16005427 308.2621981 -43.7421875 305.78125 C-60.23072756 297.5608764 -73.83337934 281.33324132 -82 265 C-82.5775 265.144375 -83.155 265.28875 -83.75 265.4375 C-85.21354167 265.80338542 -86.67708333 266.16927083 -88.140625 266.53515625 C-88.75421875 266.68855469 -89.3678125 266.84195312 -90 267 C-91.03544174 265.09118566 -92.05290085 263.17260796 -93.0625 261.25 C-93.63097656 260.18265625 -94.19945312 259.1153125 -94.78515625 258.015625 C-96 255 -96 255 -95.8125 252.6875 C-94.70283071 250.38280225 -93.33133829 249.90245353 -91 249 C-91.57420528 244.73447505 -92.62491306 241.19989388 -94.3125 237.25 C-109.35640025 198.9682596 -108.94690894 151.04816942 -98 112 C-97.71511719 110.81019531 -97.43023437 109.62039063 -97.13671875 108.39453125 C-90.83818533 82.5067265 -78.34135085 57.25389433 -61 37 C-60.29101562 36.16855469 -59.58203125 35.33710938 -58.8515625 34.48046875 C-47.43692045 21.44374599 -34.68952029 11.99004977 -19.125 4.5625 C-18.09137329 4.06737915 -18.09137329 4.06737915 -17.03686523 3.56225586 C-5.38817402 -1.79605801 -5.38817402 -1.79605801 0 0 Z " fill="#FC6946" transform="translate(120,185)"/>
<path d="M0 0 C2.83374242 1.36558888 4.89648438 2.64996231 7.11621094 4.88916016 C7.69651062 5.4696109 8.2768103 6.05006165 8.87469482 6.64810181 C9.48838928 7.27211884 10.10208374 7.89613586 10.734375 8.5390625 C11.37240051 9.17991791 12.01042603 9.82077332 12.66778564 10.48104858 C14.69994069 12.52437821 16.72502218 14.57455982 18.75 16.625 C20.1284453 18.0134786 21.50734636 19.4015049 22.88671875 20.7890625 C26.26311894 24.18748697 29.63319288 27.59207254 33 31 C28.93873437 35.86239708 24.69481256 40.46630068 20.23193359 44.9609375 C19.26002327 45.94511406 19.26002327 45.94511406 18.26847839 46.94917297 C16.14812845 49.09410787 14.02385287 51.23508486 11.8984375 53.375 C11.16975086 54.10901031 10.44106422 54.84302063 9.69029617 55.59927368 C5.84394317 59.47222099 1.99401657 63.34157919 -1.85839844 67.20849609 C-5.04674967 70.41026197 -8.22764636 73.61916877 -11.40234375 76.83447266 C-15.24320539 80.7244449 -19.09600391 84.602193 -22.9579277 88.47125244 C-24.42703066 89.94708966 -25.89185834 91.42719518 -27.35234451 92.91156006 C-29.3869928 94.97760523 -31.43660872 97.02755208 -33.49072266 99.07421875 C-34.09341476 99.69331619 -34.69610687 100.31241364 -35.31706238 100.95027161 C-37.01577759 102.6237793 -37.01577759 102.6237793 -40 105 C-43.24573073 104.57219755 -44.83916703 103.53137024 -47.11621094 101.22436523 C-47.98666046 100.35357582 -47.98666046 100.35357582 -48.87469482 99.4651947 C-49.48838928 98.83601639 -50.10208374 98.20683807 -50.734375 97.55859375 C-51.37240051 96.91632339 -52.01042603 96.27405304 -52.66778564 95.61231995 C-54.70234118 93.56098274 -56.72621379 91.49945727 -58.75 89.4375 C-60.12821491 88.04423766 -61.50711325 86.65165102 -62.88671875 85.25976562 C-66.26579046 81.84763135 -69.63531864 78.42632293 -73 75 C-71.69316301 72.11669357 -70.30277863 70.05435892 -68.0640564 67.82354736 C-67.46390213 67.22064377 -66.86374786 66.61774017 -66.2454071 65.99656677 C-65.58869522 65.34704544 -64.93198334 64.69752411 -64.25537109 64.02832031 C-63.56257553 63.3352327 -62.86977997 62.64214508 -62.1559906 61.92805481 C-59.86651526 59.63997201 -57.5700387 57.35905349 -55.2734375 55.078125 C-53.68402291 53.4924408 -52.09504952 51.90631426 -50.50650024 50.31976318 C-46.32532415 46.14622146 -42.13817654 41.97872083 -37.94976807 37.81243896 C-33.67643937 33.55957281 -29.40877027 29.30103581 -25.140625 25.04296875 C-16.76595419 16.68974441 -8.38496557 8.34288952 0 0 Z " fill="#A6DFF6" transform="translate(287,49)"/>
<path d="M0 0 C-1.26700723 0.9841125 -2.5387619 1.96211497 -3.8125 2.9375 C-4.87404297 3.75541016 -4.87404297 3.75541016 -5.95703125 4.58984375 C-8 6 -8 6 -11 7 C-12.03627827 8.82670068 -12.03627827 8.82670068 -13 11 C-14.08563878 12.53411424 -15.19163558 14.05393081 -16.3125 15.5625 C-25.17379628 28.11600306 -27.29386246 40.05710132 -27.31884766 55.14868164 C-27.32816174 56.55886398 -27.33833258 57.96904089 -27.34928894 59.37921143 C-27.37643636 63.18226472 -27.39169271 66.9852813 -27.40471697 70.78840566 C-27.42041477 74.77226392 -27.44718357 78.75604794 -27.4727478 82.73985291 C-27.51941841 90.27250134 -27.55621899 97.80516393 -27.58942068 105.33788246 C-27.62772518 113.91838509 -27.67711336 122.49881292 -27.72740483 131.07925236 C-27.83055026 148.7194476 -27.91947375 166.359688 -28 184 C-31.96 184 -35.92 184 -40 184 C-40.11606121 165.33619921 -40.20513417 146.67250135 -40.25906086 128.00841331 C-40.28477264 119.34109538 -40.31978757 110.67400668 -40.37719727 102.00683594 C-40.42724874 94.44689476 -40.459342 86.88711971 -40.47044247 79.32701743 C-40.47692474 75.32901208 -40.49201025 71.33148174 -40.52865028 67.33362961 C-40.56295507 63.55948438 -40.57298482 59.78600319 -40.56553841 56.01171684 C-40.56753886 53.98898147 -40.59425144 51.966316 -40.62210083 49.94377136 C-40.53765409 34.71756001 -35.1644576 22.92100966 -24.9765625 11.7890625 C-19.74726107 6.71527933 -7.56976053 -3.27088418 0 0 Z " fill="#FCD0A3" transform="translate(319,328)"/>
<path d="M0 0 C4 2 4 2 10 9 C-14.42 33.42 -38.84 57.84 -64 83 C-71 77 -71 77 -73 73 C-48.91 48.91 -24.82 24.82 0 0 Z " fill="#73CFF1" transform="translate(287,49)"/>
<path d="M0 0 C5.48235476 -0.10632446 9.7671264 0.5311232 15 2 C15.03738281 2.99 15.07476562 3.98 15.11328125 5 C15.45732007 17.83318547 15.45732007 17.83318547 22.1875 28.3125 C30.1882305 34.5240376 39.60064976 35.0870332 49.375 35.5625 C50.20644531 35.60568359 51.03789063 35.64886719 51.89453125 35.69335938 C53.92953228 35.79861805 55.96474703 35.89973072 58 36 C58 40.95 58 45.9 58 51 C45.95583534 51.40943336 35.27166261 51.77133801 24 47 C23.27039063 46.72285156 22.54078125 46.44570313 21.7890625 46.16015625 C13.67980341 42.68247004 6.20164397 36.07184688 2.71875 27.921875 C2.4815625 27.28765625 2.244375 26.6534375 2 26 C1.6592041 25.24017822 1.3184082 24.48035645 0.96728516 23.69750977 C-0.03932986 20.89031913 -0.23169546 18.88317987 -0.1953125 15.91796875 C-0.18886719 14.98662109 -0.18242188 14.05527344 -0.17578125 13.09570312 C-0.15902344 12.13599609 -0.14226563 11.17628906 -0.125 10.1875 C-0.11597656 9.20845703 -0.10695312 8.22941406 -0.09765625 7.22070312 C-0.07417182 4.81354939 -0.0413284 2.40690257 0 0 Z " fill="#040302" transform="translate(58,258)"/>
<path d="M0 0 C3.45201639 1.47721422 5.64961936 3.43794001 8.25 6.125 C8.95640625 6.84945312 9.6628125 7.57390625 10.390625 8.3203125 C11.18726563 9.15175781 11.18726563 9.15175781 12 10 C7.59156563 15.29012124 2.92440206 20.18808428 -2 25 C-5.10442031 23.6095501 -7.3656443 21.98428402 -9.8125 19.625 C-10.43769531 19.03976563 -11.06289063 18.45453125 -11.70703125 17.8515625 C-13 16 -13 16 -12.75097656 14.07275391 C-11.91596662 11.76806132 -11.0279587 10.67970737 -9.27734375 8.984375 C-8.73916016 8.45585938 -8.20097656 7.92734375 -7.64648438 7.3828125 C-7.08251953 6.84398437 -6.51855469 6.30515625 -5.9375 5.75 C-5.36966797 5.19570313 -4.80183594 4.64140625 -4.21679688 4.0703125 C-2.81787531 2.70665786 -1.40980886 1.35239583 0 0 Z " fill="#F2F2F2" transform="translate(323,34)"/>
<path d="M0 0 C6.93 0 13.86 0 21 0 C21 0.33 21 0.66 21 1 C18.36 1 15.72 1 13 1 C12.97494385 1.62044189 12.9498877 2.24088379 12.92407227 2.88012695 C12.80803279 5.69112397 12.68534241 8.50179241 12.5625 11.3125 C12.50352539 12.77719727 12.50352539 12.77719727 12.44335938 14.27148438 C12.40146484 15.20927734 12.35957031 16.14707031 12.31640625 17.11328125 C12.26141968 18.40939331 12.26141968 18.40939331 12.20532227 19.73168945 C12 22 12 22 11 25 C6.71 25 2.42 25 -2 25 C-1.34 16.75 -0.68 8.5 0 0 Z " fill="#F5CB9F" transform="translate(166,325)"/>
<path d="M0 0 C2.69840393 1.22239727 4.2895212 2.86337226 6.328125 5.00390625 C7.03453125 5.73738281 7.7409375 6.47085938 8.46875 7.2265625 C8.99984375 7.79246094 9.5309375 8.35835937 10.078125 8.94140625 C8.66967782 12.1566493 6.97467714 14.26324493 4.453125 16.69140625 C3.82148438 17.305 3.18984375 17.91859375 2.5390625 18.55078125 C2.05695313 19.0096875 1.57484375 19.46859375 1.078125 19.94140625 C-2.37389139 18.46419203 -4.57149436 16.50346624 -7.171875 13.81640625 C-7.87828125 13.09195313 -8.5846875 12.3675 -9.3125 11.62109375 C-9.84359375 11.06679687 -10.3746875 10.5125 -10.921875 9.94140625 C-9.98596996 8.83588735 -9.04807642 7.73205172 -8.109375 6.62890625 C-7.58730469 6.01402344 -7.06523437 5.39914063 -6.52734375 4.765625 C-5.99753906 4.16363281 -5.46773437 3.56164062 -4.921875 2.94140625 C-4.20451172 2.05388672 -4.20451172 2.05388672 -3.47265625 1.1484375 C-1.921875 -0.05859375 -1.921875 -0.05859375 0 0 Z " fill="#F4F4F4" transform="translate(213.921875,145.05859375)"/>
<path d="M0 0 C4.95 0 9.9 0 15 0 C15 4.95 15 9.9 15 15 C10.05 15 5.1 15 0 15 C0 10.05 0 5.1 0 0 Z " fill="#FFFBFB" transform="translate(66,350)"/>
<path d="M0 0 C4.95 0 9.9 0 15 0 C15 4.95 15 9.9 15 15 C10.05 15 5.1 15 0 15 C0 10.05 0 5.1 0 0 Z " fill="#FFFCFB" transform="translate(66,320)"/>
</svg>
