<?xml version="1.0" encoding="UTF-8"?>
<svg version="1.1" xmlns="http://www.w3.org/2000/svg" width="512" height="512">
<path d="M0 0 C0.74894531 0.72445312 1.49789063 1.44890625 2.26953125 2.1953125 C10.10282064 9.66161418 18.54910006 11.51992769 28.8046875 14.2734375 C52.3491273 20.64718637 75.34689687 32.29156619 94 48 C94.82032715 48.68594238 94.82032715 48.68594238 95.65722656 49.38574219 C108.69491533 60.4347658 118.40162009 72.74109422 126 88 C126.47695313 88.92167969 126.95390625 89.84335938 127.4453125 90.79296875 C131.89415499 100.82619743 131.56799932 114.10565809 128.4375 124.5 C124.30990334 134.86228811 117.64337967 143.02138438 110 151 C109.40960938 151.65355469 108.81921875 152.30710938 108.2109375 152.98046875 C92.70426349 169.54596852 71.14361936 180.81472904 50.9375 190.5 C50.0801123 190.91765625 49.22272461 191.3353125 48.33935547 191.765625 C44.42597898 193.61682222 40.73427259 195.16499245 36.5 196.1015625 C32.32066562 197.09312815 29.29940448 198.08582818 26 201 C23.38920626 207.63158345 23.12477936 214.97042731 22.39990234 221.99755859 C19.51499846 243.65723378 4.84730207 263.46552718 -11.84765625 276.72265625 C-32.20032562 291.42600971 -58.76570749 299.32203616 -83.84765625 298.953125 C-97.35121873 298.48668083 -97.35121873 298.48668083 -108.6875 304.75 C-110.05825378 306.25181098 -111.35885548 307.7844153 -112.6328125 309.36914062 C-114.59044613 311.70431788 -116.78296337 313.75809787 -118.98364258 315.86157227 C-125.1915629 321.83110275 -130.66031203 328.24582515 -136 335 C-136.99208909 336.2053545 -137.98706976 337.40833275 -138.984375 338.609375 C-161.12926126 365.34523328 -179.70660004 394.82336195 -197.37475586 424.64868164 C-199.89836613 428.89836613 -199.89836613 428.89836613 -201 430 C-216.10389821 431.5250538 -232.63896073 426.7971179 -244.4765625 417.33203125 C-245.69347355 416.26801415 -246.85697662 415.14302338 -248 414 C-247.74717179 407.08672868 -245.46402275 401.09612282 -243 394.6875 C-242.60498291 393.64529297 -242.20996582 392.60308594 -241.80297852 391.52929688 C-238.03823629 381.77144181 -233.66627679 372.35461636 -229 363 C-229.78503906 363.20496094 -230.57007813 363.40992188 -231.37890625 363.62109375 C-232.42949219 363.89050781 -233.48007813 364.15992188 -234.5625 364.4375 C-236.11130859 364.83775391 -236.11130859 364.83775391 -237.69140625 365.24609375 C-257.3236524 369.71955716 -279.54896477 367.97299334 -296.875 357.21484375 C-307.15590885 350.0324866 -314.81105116 341.89793165 -321 331 C-321.51304687 330.13246094 -322.02609375 329.26492188 -322.5546875 328.37109375 C-326.1125623 321.89133731 -328.32567382 315.19453662 -330.375 308.125 C-330.63804932 307.22088379 -330.90109863 306.31676758 -331.17211914 305.38525391 C-332.43528347 300.8157835 -333.33188953 296.78869186 -333 292 C-334.155 291.835 -335.31 291.67 -336.5 291.5 C-351.97306234 288.0479402 -366.27813474 278.08279788 -375 265 C-383.19657609 249.87586087 -384.55015264 232.54081764 -380.375 215.875 C-378.95757549 211.27467562 -377.12590066 207.15356887 -374.9375 202.875 C-371.7219154 196.33100326 -370.9163552 190.01980573 -370.03613281 182.87402344 C-366.45092292 153.95333034 -352.40700328 126.90910634 -329.31982422 108.67285156 C-324.98446599 105.4602751 -320.56447345 102.21953038 -315.68359375 99.8984375 C-308.38223844 96.38349933 -306.18094773 88.93074309 -302.93505859 81.95361328 C-288.94616008 52.72667701 -257.60164924 33.34914678 -228.11230469 22.7265625 C-215.70537804 18.45899272 -203.20268831 15.32461804 -190.19506836 13.55615234 C-184.52694844 12.68672173 -181.75518267 11.61331399 -178 7 C-161.8724788 -8.52909741 -143.06734523 -14.38168773 -120.87109375 -14.22265625 C-116.90917887 -13.99477618 -113.15680001 -13.37050699 -109.25 -12.6875 C-101.05640849 -11.35422628 -94.19216323 -13.3065551 -86.375 -15.73828125 C-58.82836534 -24.09657653 -22.89789703 -17.32619524 0 0 Z " fill="#FDC5C8" transform="translate(382,50)"/>
<path d="M0 0 C0.74894531 0.72445312 1.49789063 1.44890625 2.26953125 2.1953125 C10.10282064 9.66161418 18.54910006 11.51992769 28.8046875 14.2734375 C52.3491273 20.64718637 75.34689687 32.29156619 94 48 C94.82032715 48.68594238 94.82032715 48.68594238 95.65722656 49.38574219 C108.69491533 60.4347658 118.40162009 72.74109422 126 88 C126.47695313 88.92167969 126.95390625 89.84335938 127.4453125 90.79296875 C131.89415499 100.82619743 131.56799932 114.10565809 128.4375 124.5 C124.30990334 134.86228811 117.64337967 143.02138438 110 151 C109.40960938 151.65355469 108.81921875 152.30710938 108.2109375 152.98046875 C92.70426349 169.54596852 71.14361936 180.81472904 50.9375 190.5 C50.0801123 190.91765625 49.22272461 191.3353125 48.33935547 191.765625 C44.42597898 193.61682222 40.73427259 195.16499245 36.5 196.1015625 C32.32066562 197.09312815 29.29940448 198.08582818 26 201 C23.38920626 207.63158345 23.12477936 214.97042731 22.39990234 221.99755859 C19.51499846 243.65723378 4.84730207 263.46552718 -11.84765625 276.72265625 C-32.20032562 291.42600971 -58.76570749 299.32203616 -83.84765625 298.953125 C-97.35121873 298.48668083 -97.35121873 298.48668083 -108.6875 304.75 C-110.05825378 306.25181098 -111.35885548 307.7844153 -112.6328125 309.36914062 C-114.59044613 311.70431788 -116.78296337 313.75809787 -118.98364258 315.86157227 C-125.1915629 321.83110275 -130.66031203 328.24582515 -136 335 C-136.99208909 336.2053545 -137.98706976 337.40833275 -138.984375 338.609375 C-161.12926126 365.34523328 -179.70660004 394.82336195 -197.37475586 424.64868164 C-199.89836613 428.89836613 -199.89836613 428.89836613 -201 430 C-216.10389821 431.5250538 -232.63896073 426.7971179 -244.4765625 417.33203125 C-245.69347355 416.26801415 -246.85697662 415.14302338 -248 414 C-247.74717179 407.08672868 -245.46402275 401.09612282 -243 394.6875 C-242.60498291 393.64529297 -242.20996582 392.60308594 -241.80297852 391.52929688 C-238.03823629 381.77144181 -233.66627679 372.35461636 -229 363 C-229.78503906 363.20496094 -230.57007813 363.40992188 -231.37890625 363.62109375 C-232.42949219 363.89050781 -233.48007813 364.15992188 -234.5625 364.4375 C-236.11130859 364.83775391 -236.11130859 364.83775391 -237.69140625 365.24609375 C-257.3236524 369.71955716 -279.54896477 367.97299334 -296.875 357.21484375 C-307.15590885 350.0324866 -314.81105116 341.89793165 -321 331 C-321.51304687 330.13246094 -322.02609375 329.26492188 -322.5546875 328.37109375 C-326.1125623 321.89133731 -328.32567382 315.19453662 -330.375 308.125 C-330.63804932 307.22088379 -330.90109863 306.31676758 -331.17211914 305.38525391 C-332.43528347 300.8157835 -333.33188953 296.78869186 -333 292 C-334.155 291.835 -335.31 291.67 -336.5 291.5 C-351.97306234 288.0479402 -366.27813474 278.08279788 -375 265 C-383.19657609 249.87586087 -384.55015264 232.54081764 -380.375 215.875 C-378.95757549 211.27467562 -377.12590066 207.15356887 -374.9375 202.875 C-371.7219154 196.33100326 -370.9163552 190.01980573 -370.03613281 182.87402344 C-366.45092292 153.95333034 -352.40700328 126.90910634 -329.31982422 108.67285156 C-324.98446599 105.4602751 -320.56447345 102.21953038 -315.68359375 99.8984375 C-308.38223844 96.38349933 -306.18094773 88.93074309 -302.93505859 81.95361328 C-288.94616008 52.72667701 -257.60164924 33.34914678 -228.11230469 22.7265625 C-215.70537804 18.45899272 -203.20268831 15.32461804 -190.19506836 13.55615234 C-184.52694844 12.68672173 -181.75518267 11.61331399 -178 7 C-161.8724788 -8.52909741 -143.06734523 -14.38168773 -120.87109375 -14.22265625 C-116.90917887 -13.99477618 -113.15680001 -13.37050699 -109.25 -12.6875 C-101.05640849 -11.35422628 -94.19216323 -13.3065551 -86.375 -15.73828125 C-58.82836534 -24.09657653 -22.89789703 -17.32619524 0 0 Z M-96.86328125 -4.56640625 C-101.10986368 -3.44071255 -105.20233766 -3.64158757 -109.5078125 -4.5 C-128.83229166 -7.26681581 -147.89624765 -5.33830627 -164.05859375 6.1796875 C-169.84562684 10.65408064 -169.84562684 10.65408064 -174.1875 16.4375 C-176.29772275 19.42091838 -177.84983822 19.97506357 -181.390625 20.640625 C-186.02814118 21.27932483 -190.66650134 21.8955756 -195.31640625 22.4375 C-199.04645731 23.00709422 -202.40257781 23.88882712 -206 25 C-205.52949219 25.70125 -205.05898437 26.4025 -204.57421875 27.125 C-197.59885759 37.75412176 -194.8060167 45.02124643 -196 58 C-197.01953125 60.92578125 -197.01953125 60.92578125 -198 63 C-199.32 63 -200.64 63 -202 63 C-202.05607422 61.2984375 -202.05607422 61.2984375 -202.11328125 59.5625 C-202.60121936 47.5057498 -203.88916921 38.98380661 -212.1875 29.5 C-216.41725945 27.24412829 -219.54434564 28.68428814 -224 30 C-227.43870154 31.21623026 -230.78148534 32.60654344 -234.125 34.0625 C-235.04152344 34.46025635 -235.95804688 34.8580127 -236.90234375 35.26782227 C-251.39173274 41.70065502 -267.70431763 50.68228272 -278 63 C-279.64357681 70.88100186 -278.04833789 78.18103884 -274 85 C-273.68417969 85.60199219 -273.36835938 86.20398438 -273.04296875 86.82421875 C-269.35299156 92.97418074 -262.9656534 96.33687949 -257 100 C-257.33 101.65 -257.66 103.3 -258 105 C-265.84965945 104.16885959 -271.88741182 99.67109694 -276.9375 93.71484375 C-281.65430505 86.84010038 -284.27304756 80.28725779 -285 72 C-285.66 72 -286.32 72 -287 72 C-288.70584527 74.40629855 -290.27591171 76.80063935 -291.8125 79.3125 C-292.26173828 80.03856445 -292.71097656 80.76462891 -293.17382812 81.51269531 C-296.96798193 87.74358795 -300.31262105 94.15795606 -302.71875 101.0625 C-304.64490676 103.97522485 -307.47972208 105.18400359 -310.5 106.75 C-334.82098069 120.05524464 -351.62231261 142.97703371 -359.4375 169.375 C-360.69635476 174.51578575 -361.22407706 179.44028076 -361.57055664 184.71484375 C-362.22733113 194.67994452 -364.08746699 201.91100656 -369.125 210.5546875 C-374.99237898 221.33599638 -375.93862437 236.85989388 -372.8125 248.69140625 C-367.60170304 263.49708416 -359.00911217 272.98749323 -345 280 C-340.72639377 281.6497197 -336.45031921 282.92468364 -332 284 C-331.401875 284.17732666 -330.80375 284.35465332 -330.1875 284.53735352 C-323.11817662 286.44549746 -315.97754839 286.26781049 -308.71630859 286.20581055 C-306.50476509 286.18753937 -304.29364252 286.18530163 -302.08203125 286.18554688 C-289.91469856 287.03672905 -289.91469856 287.03672905 -279.1328125 283.46875 C-278.80023438 282.8190625 -278.46765625 282.169375 -278.125 281.5 C-277.75246094 280.77683594 -277.37992187 280.05367188 -276.99609375 279.30859375 C-276.66738281 278.54675781 -276.33867187 277.78492188 -276 277 C-275.68160156 276.26910156 -275.36320312 275.53820312 -275.03515625 274.78515625 C-272.49558629 268.12609955 -272.49548531 261.97116264 -273.5625 255 C-273.7790625 253.515 -273.7790625 253.515 -274 252 C-273 251 -273 251 -270.4375 250.9375 C-269.633125 250.958125 -268.82875 250.97875 -268 251 C-265.28172728 260.75772749 -265.91434983 272.80728713 -270 282 C-263.0097808 281.35713429 -256.07406058 280.48732818 -249.125 279.5 C-223.35208686 275.95886271 -197.61345258 275.72863697 -172 281 C-168.12592863 281.59290136 -164.59026426 282.08586326 -161.2265625 279.7890625 C-157.03018428 275.25186168 -154.91374633 269.79644321 -153 264 C-152.6596875 263.02933594 -152.6596875 263.02933594 -152.3125 262.0390625 C-150.42454358 255.82453928 -150.82353397 249.43120638 -151 243 C-149.02 243 -147.04 243 -145 243 C-144.54649561 258.4191494 -146.15303079 268.46750219 -154 282 C-154.33 282.66 -154.66 283.32 -155 284 C-132.62884383 288.40045236 -132.62884383 288.40045236 -110 291 C-109.26620117 291.06654785 -108.53240234 291.1330957 -107.77636719 291.20166016 C-99.4619436 292.22127251 -99.4619436 292.22127251 -91.96484375 289.4921875 C-90.52928276 287.35767991 -89.74400858 285.45735406 -89 283 C-88.566875 281.80375 -88.13375 280.6075 -87.6875 279.375 C-86.39847277 273.37560226 -86.84585605 267.09724968 -87 261 C-87.82242187 260.96261719 -88.64484375 260.92523438 -89.4921875 260.88671875 C-107.15337423 259.84662577 -107.15337423 259.84662577 -111 256 C-111.04063832 254.33382885 -111.042721 252.66611905 -111 251 C-106.92557826 251.43654519 -103.25932711 251.92527863 -99.3125 253.0625 C-88.05062406 255.9495954 -77.03058094 254.04142004 -67.05078125 248.3046875 C-57.12205822 241.61329708 -51.93073797 232.67947855 -47 222 C-45.35 222 -43.7 222 -42 222 C-40.78320876 224.87858041 -40.96997306 225.92488176 -42.15234375 228.8828125 C-51.33107543 245.55315669 -60.77258871 254.80039459 -79 261 C-79.06731323 261.83023682 -79.06731323 261.83023682 -79.13598633 262.67724609 C-79.35047934 265.24421725 -79.58142042 267.80947081 -79.8125 270.375 C-79.91788086 271.68017578 -79.91788086 271.68017578 -80.02539062 273.01171875 C-80.60793846 279.30323535 -81.97383937 285.01892194 -84 291 C-54.16011482 287.7820822 -26.40759352 281.72547841 -5 259 C8.80213886 241.69290159 18.32248084 219.49565747 16 197 C14.07616703 192.17243782 9.66572887 189.96876013 5.16015625 187.859375 C-10.79717673 181.51106893 -29.05668673 185.84935577 -45.25 189.6875 C-55.285557 191.87984715 -65.5319694 192.98411345 -74.703125 187.64453125 C-78.75867525 184.74081245 -82.42912456 181.47599711 -86 178 C-93.28927433 184.73914042 -94.43449043 192.91519792 -94.921875 202.5078125 C-94.94765625 203.33023438 -94.9734375 204.15265625 -95 205 C-96.65 205 -98.3 205 -100 205 C-102.88483869 199.23032262 -101.14307447 191.61079085 -99.3125 185.75 C-97.52210823 180.82160974 -95.31147396 177.04735706 -92 173 C-96.14158853 163.06459347 -108.74518942 158.09034418 -118 154 C-127.21826241 150.23828754 -136.14906129 149.84918124 -146 149.9375 C-146.96550781 149.94201172 -147.93101562 149.94652344 -148.92578125 149.95117188 C-151.28392089 149.96284583 -153.64192602 149.97921979 -156 150 C-155.46878219 153.0583705 -154.91430963 155.16109789 -153.4375 157.9375 C-150.35274288 164.75406085 -151.33469715 173.8821733 -153 181 C-154.65 180.67 -156.3 180.34 -158 180 C-158.03867187 178.2984375 -158.03867187 178.2984375 -158.078125 176.5625 C-158.12792606 164.33849229 -158.12792606 164.33849229 -164 154 C-178.33379455 155.12456919 -191.6295608 165.66452 -203.4230957 173.27563477 C-213.57421561 179.71051806 -224.60021 186.02252672 -237 184 C-244.458367 181.86050049 -250.26069548 177.50973392 -255 171.4375 C-256.2018994 168.50787022 -255.93671589 166.98045964 -255 164 C-252.875 164 -252.875 164 -250 165 C-248.61328125 166.70703125 -248.61328125 166.70703125 -247.1875 168.8125 C-244.11688576 173.17559217 -241.14860534 175.50615283 -236 177 C-229.97187868 177.9042182 -225.28816714 176.9613736 -220 174 C-216.87592609 170.76618111 -216.56783649 168.30429079 -216.5625 163.875 C-216.66318662 158.28059943 -217.72716977 154.1036644 -220.22265625 149.12109375 C-221.13428218 146.63359183 -220.88475516 145.45394357 -220 143 C-218.35 143 -216.7 143 -215 143 C-211.53488597 151.04264474 -209.19388551 158.2046484 -209 167 C-205.3425752 165.63821911 -202.12069113 163.98065032 -198.7890625 161.953125 C-179.07389383 150.10542156 -163.10441345 143.17062361 -140 142 C-140.08701172 140.64068359 -140.08701172 140.64068359 -140.17578125 139.25390625 C-140.47447781 131.18909921 -140.15022374 125.4166722 -135 119 C-132.4375 116.375 -132.4375 116.375 -130 115 C-127.6875 115.25 -127.6875 115.25 -126 116 C-125.2890625 117.7734375 -125.2890625 117.7734375 -125 120 C-126.3984375 121.8515625 -126.3984375 121.8515625 -128.375 123.625 C-131.98724142 126.76656113 -131.98724142 126.76656113 -133.16796875 131.2421875 C-133.17763672 132.54542969 -133.17763672 132.54542969 -133.1875 133.875 C-133.20167969 134.73867187 -133.21585938 135.60234375 -133.23046875 136.4921875 C-132.97818235 139.23740556 -132.62484262 140.76953421 -131 143 C-128.81168717 143.96204788 -128.81168717 143.96204788 -126.1875 144.4375 C-108.29718253 148.81068872 -93.09395577 157.70612573 -81.43359375 172.10546875 C-79.23574012 174.71960926 -77.14646555 176.69589742 -74.4375 178.75 C-73.69371094 179.32234375 -72.94992187 179.8946875 -72.18359375 180.484375 C-67.29536278 183.8772795 -63.68127349 184.26123066 -57.75 184.125 C-57.00492187 184.11597656 -56.25984375 184.10695312 -55.4921875 184.09765625 C-53.66131941 184.07418358 -51.83061762 184.03831525 -50 184 C-50.23783203 182.54013672 -50.23783203 182.54013672 -50.48046875 181.05078125 C-52.20112789 168.89003043 -52.44998792 156.85332335 -45.24609375 146.47265625 C-42.97774184 143.47502209 -40.6583809 140.6583809 -38 138 C-35.375 137.875 -35.375 137.875 -33 138 C-32.73612847 140.94318249 -32.62595276 142.48305831 -34.390625 144.921875 C-35.00421875 145.52515625 -35.6178125 146.1284375 -36.25 146.75 C-43.47744654 154.66647289 -44.57043056 161.83103698 -44.3359375 172.328125 C-44.02969834 175.67539026 -43.45334769 178.00029037 -42 181 C-41.15824219 180.855625 -40.31648438 180.71125 -39.44921875 180.5625 C-30.39200621 179.20815046 -21.4062351 178.69836225 -12.25 178.5625 C-11.12682373 178.52833984 -10.00364746 178.49417969 -8.84643555 178.45898438 C1.6531256 178.40357366 10.85411975 181.27996007 18.59765625 188.5703125 C19.06042969 189.04210937 19.52320313 189.51390625 20 190 C20.99946193 191.00053778 21.9993948 192.00060556 23 193 C34.86305907 188.02620956 46.59503257 182.96125188 58 177 C57.38073236 173.87582957 56.32503069 171.703681 54.5625 169.0625 C50.87067674 163.51925493 49.74934921 159.40981728 49.875 152.6875 C49.89304687 151.43324219 49.91109375 150.17898437 49.9296875 148.88671875 C49.96449219 147.45779297 49.96449219 147.45779297 50 146 C51.65 146 53.3 146 55 146 C55.76191279 148.61227241 56.06079584 150.8815397 56.25 153.625 C57.04955731 160.51150975 60.7849252 166.62639587 65 172 C82.16555273 169.18177492 102.28729684 149.14239155 112.41796875 135.8203125 C117.44103738 128.48242353 121.26170396 122.00721169 122 113 C122.11408203 111.6696875 122.11408203 111.6696875 122.23046875 110.3125 C122.62439978 102.13576938 120.70420919 96.22933448 117 89 C116.25556641 87.53240234 116.25556641 87.53240234 115.49609375 86.03515625 C96.56966686 51.32910598 58.25346867 31.68792214 21.78222656 20.77099609 C19.71394811 20.1690752 17.64197691 19.58401101 15.56640625 19.0078125 C14.38949219 18.67523438 13.21257812 18.34265625 12 18 C10.45505859 17.58427734 10.45505859 17.58427734 8.87890625 17.16015625 C5.3760638 15.74856302 3.1788953 13.83446093 0.375 11.3125 C-8.77754065 3.38258874 -19.24736174 -2.75322799 -31 -6 C-34.31726267 -5.27024868 -34.31726267 -5.27024868 -35.75390625 -1.83203125 C-36.36748684 -0.4970609 -36.96993169 0.84307083 -37.5625 2.1875 C-37.86607422 2.84814453 -38.16964844 3.50878906 -38.48242188 4.18945312 C-39.35437611 6.11383142 -40.18220998 8.05209294 -41 10 C-41.59554687 11.36318359 -41.59554687 11.36318359 -42.203125 12.75390625 C-43.42611142 17.73577741 -43.24778093 22.64198444 -43.1875 27.75 C-43.18685547 28.80316406 -43.18621094 29.85632813 -43.18554688 30.94140625 C-43.38264035 36.13718303 -43.38264035 36.13718303 -42 41 C-41.86584528 43.6723621 -41.95681459 46.32250488 -42 49 C-43.65 48.67 -45.3 48.34 -47 48 C-49.72365994 41.28081158 -50.4837365 35.34410344 -50.375 28.125 C-50.36484863 27.15046875 -50.35469727 26.1759375 -50.34423828 25.171875 C-50.19727476 18.37281855 -49.59492844 12.33999 -47 6 C-46.63817627 5.10982178 -46.63817627 5.10982178 -46.26904297 4.20166016 C-44.5887798 0.09945117 -42.82295407 -3.9588235 -41 -8 C-47.74803872 -9.56954116 -54.13715805 -10.3564184 -61.0625 -10.3125 C-62.41952026 -10.30730347 -62.41952026 -10.30730347 -63.80395508 -10.30200195 C-75.23667203 -10.12040285 -85.99306934 -8.09138159 -96.86328125 -4.56640625 Z " fill="#050304" transform="translate(382,50)"/>
<path d="M0 0 C7.56108151 0.71037324 15.09146715 1.60593356 22.625 2.5625 C24.27435547 2.77036133 24.27435547 2.77036133 25.95703125 2.98242188 C28.63816654 3.32047806 31.31914983 3.65969146 34 4 C29.96958074 8.86034632 25.71092731 13.34980809 21.1875 17.75 C15.34159659 23.52488199 10.088486 29.54318163 5 36 C4.00939677 37.20420311 3.0156969 38.40586303 2.01953125 39.60546875 C-16.92832768 62.47733849 -33.1592777 87.37665733 -48.60302734 112.70996094 C-50.30689673 115.5030918 -52.0229054 118.28861874 -53.74023438 121.07348633 C-55.16283574 123.38067884 -56.58157491 125.6902383 -58 128 C-70.20025334 126.88331015 -80.98269002 124.51298249 -91 117 C-90.37561851 111.30601358 -88.36487452 106.43026527 -86.1875 101.1875 C-85.7965918 100.24277832 -85.40568359 99.29805664 -85.00292969 98.32470703 C-81.75684128 90.59538464 -78.31464764 82.96226695 -74.75 75.375 C-74.2552417 74.3027417 -73.7604834 73.2304834 -73.25073242 72.12573242 C-69.33754474 63.94385169 -65.53796743 60.70644962 -57.5625 56.4375 C-33.77658582 43.23256462 -15.03751799 22.26299206 0 0 Z " fill="#5D91FC" transform="translate(234,344)"/>
<path d="M0 0 C4.55555556 0.55555556 4.55555556 0.55555556 6 2 C6.95943503 14.06674062 4.91218702 24.94407777 -2 35 C-3.58084111 36.83928925 -5.17907666 38.38718219 -7 40 C-6.36835938 40.36609375 -5.73671875 40.7321875 -5.0859375 41.109375 C0.78729271 44.66377945 5.83601186 48.49396102 10.9375 53.0625 C17.68865439 59.03392797 24.60100761 64.08491654 33.6875 65.625 C43.43775331 63.78532956 49.71315765 58.4514571 56.44140625 51.46484375 C63.88639389 43.74706267 68.32939685 39.89298803 79.25 39.4375 C86.70576621 39.62370795 92.43448767 41.59871418 99 45 C99.76957031 45.38414063 100.53914062 45.76828125 101.33203125 46.1640625 C101.88246094 46.43992188 102.43289063 46.71578125 103 47 C108.70129726 39.01818383 109.55766064 32.63585715 109 23 C108.80664062 22.09121094 108.61328125 21.18242188 108.4140625 20.24609375 C108 18 108 18 109.1875 16.125 C111 15 111 15 113 14.875 C115.56179849 16.31601165 116.44994903 18.00186506 117.45703125 20.72265625 C119.75117372 30.34485093 117.69545731 39.54543437 112.84375 48.01953125 C111.94957413 49.38314944 110.98400113 50.69971279 110 52 C111.34616236 54.9863893 112.86637872 57.07907918 115.125 59.4375 C119.13024499 63.88591406 122.08594613 68.81418537 125.10546875 73.94921875 C130.62355639 82.83504647 139.68098453 90.35329069 150 93 C157.31875421 93.72609963 163.61403662 94.03710329 170 90 C171.48941268 88.1648345 171.48941268 88.1648345 172.3125 86.0625 C172.61800781 85.39347656 172.92351562 84.72445312 173.23828125 84.03515625 C175.907855 76.9026028 176.18844154 69.82065171 173 62.8125 C168.413135 54.59221947 161.22868097 50.13338836 153 46 C152.957279 44.33388095 152.95936168 42.66617115 153 41 C154 40 154 40 156.72265625 39.74609375 C164.40836717 40.34153023 171.44874439 46.76920154 176.5703125 52.24609375 C182.92627557 60.04343642 184.84851425 68.11413555 184 78 C182.5821854 85.98265364 179.33446784 93.4663767 172.94921875 98.671875 C165.6702105 103.02704632 157.21251944 103.2461937 149 102 C141.81204036 100.00560576 135.80851378 96.62040869 130 92 C129.85304688 93.01707031 129.85304688 93.01707031 129.703125 94.0546875 C127.87210471 105.45121035 124.70707145 114.07121427 116 122 C112.45063154 124.38951432 110.32237866 125.4802643 106 125 C105 124 105 124 104.70703125 121.61328125 C105 119 105 119 106.57421875 117.48046875 C107.27160156 117.05378906 107.96898437 116.62710938 108.6875 116.1875 C116.52181755 110.73392913 119.30427778 103.18516203 121 94 C122.2715804 85.62028514 119.78152615 80.77207338 115 74 C114.43539062 73.14019531 113.87078125 72.28039062 113.2890625 71.39453125 C106.53764674 61.297957 97.46227326 51.49245465 85 49 C77.60560047 48.34454076 73.00822592 48.24284426 67 53 C65.31797776 54.63297616 63.70629461 56.31403855 62.10571289 58.02685547 C54.35258936 66.30604085 47.02111862 73.01510784 35.11499023 73.53759766 C29.22283818 73.61133088 25.15426795 72.95542887 20 70 C20.05800781 70.72703125 20.11601562 71.4540625 20.17578125 72.203125 C20.54833159 80.50567533 18.81244541 86.63760543 15 94 C14 95 14 95 11.5625 95.1875 C9 95 9 95 7 93 C7.26780876 89.87556451 8.13210812 87.74106808 9.5625 84.9375 C12.31670778 78.73714061 11.66982066 71.67928266 10.0625 65.25 C3.05121487 54.20191434 -10.63826768 46.25924742 -22.96875 42.625 C-35.65275476 40.00974129 -46.45519144 42.94457721 -57.25 49.75 C-58.84210603 50.82039897 -60.42890347 51.89899535 -62 53 C-61.68546875 53.556875 -61.3709375 54.11375 -61.046875 54.6875 C-51.82141646 71.13771522 -51.82141646 71.13771522 -51.8125 80.5 C-51.80025391 81.17675781 -51.78800781 81.85351562 -51.77539062 82.55078125 C-51.76440604 86.26357044 -51.88655384 87.82983076 -54 91 C-56.5625 91.25 -56.5625 91.25 -59 91 C-60.7119291 89.2880709 -60.10069813 87.11494155 -60.13818359 84.83056641 C-60.33755505 76.16679089 -61.9333645 69.28486398 -67 62 C-67.99 61.34 -68.98 60.68 -70 60 C-79.52552592 69.56703148 -84.45264394 77.66702921 -84.76171875 91.34765625 C-85 94 -85 94 -87 96 C-91.55555556 95.44444444 -91.55555556 95.44444444 -93 94 C-94.28278754 79.0259224 -89.15829605 68.41460979 -79.875 56.9375 C-72.68987633 49.14697788 -64.1019664 43.25194833 -54.6875 38.5 C-53.71985718 38.01080078 -53.71985718 38.01080078 -52.73266602 37.51171875 C-42.53713025 32.60763605 -31.04976897 31.02008207 -20.0625 34.3125 C-17.64760974 34.93078359 -16.44296375 35.15274612 -14.07421875 34.3359375 C-9.03238778 31.16185119 -5.80921378 26.61995933 -4 21 C-3.31288708 16.84740862 -2.92516958 12.67332533 -2.6315918 8.47607422 C-2.54518433 7.26781982 -2.54518433 7.26781982 -2.45703125 6.03515625 C-2.3947937 4.94279663 -2.3947937 4.94279663 -2.33129883 3.82836914 C-2 2 -2 2 0 0 Z " fill="#070606" transform="translate(282,77)"/>
<path d="M0 0 C6.28691534 5.26212511 10.41312264 11.43304905 11.2734375 19.59375 C11.58071846 28.00852087 10.26198137 35.60666733 4.9375 42.3125 C-7.01836996 54.56479649 -25.5330546 54.1195858 -41.5 54.5 C-43.27093018 54.51691895 -43.27093018 54.51691895 -45.07763672 54.53417969 C-56.36840406 54.72893066 -65.91741557 57.01219408 -75 64 C-78.2885934 67.46202835 -81.44056285 71.11228595 -82 76 C-78.94236899 80.58644652 -75.33840708 84.19299567 -70 86 C-65.25902359 86.542044 -60.68882618 86.16623942 -56 85.375 C-55.01 85.25125 -54.02 85.1275 -53 85 C-51 87 -51 87 -51 89.4375 C-52 92 -52 92 -54.3125 93.8125 C-60.809329 95.90469917 -67.22217749 95.83334675 -73.75 93.875 C-77.76530842 91.55847591 -81.38853546 88.89855206 -85 86 C-85.88134678 97.046213 -83.65807376 105.94245921 -76.5625 114.625 C-66.46014587 125.04776462 -54.15130567 131.30003943 -41 137 C-41.03371704 136.10486694 -41.03371704 136.10486694 -41.06811523 135.19165039 C-41.24431202 127.18809418 -39.309583 122.59086763 -33.83984375 116.65625 C-27.98035567 111.10000755 -27.98035567 111.10000755 -24.28125 110.72265625 C-22 111 -22 111 -21 112 C-20.6640625 114.30859375 -20.6640625 114.30859375 -21 117 C-22.8984375 119.09765625 -22.8984375 119.09765625 -25.375 121.0625 C-29.46744255 124.34294998 -31.63109992 126.50818437 -32.4140625 131.796875 C-32.48367187 132.77140625 -32.55328125 133.7459375 -32.625 134.75 C-32.69976562 135.73484375 -32.77453125 136.7196875 -32.8515625 137.734375 C-32.92503906 138.85585938 -32.92503906 138.85585938 -33 140 C-28.75024041 140.11789773 -24.50091095 140.18781321 -20.25 140.25 C-18.46916016 140.30027344 -18.46916016 140.30027344 -16.65234375 140.3515625 C-2.63697925 140.50473588 6.80669551 136.57921066 16.98046875 127.16796875 C26.59778354 118.35689592 36.95727696 114.63314878 49.9375 114.75 C50.79279297 114.74226563 51.64808594 114.73453125 52.52929688 114.7265625 C65.87118612 114.76727002 78.29462071 119.75821809 89.26953125 127.15625 C91 129 91 129 91.32421875 131.65625 C91 134 91 134 90 135 C85.91812177 135.41097409 83.94650595 134.62589976 80.625 132.3125 C66.41296634 123.55222742 53.20667409 123.31354502 37 124 C37.42152344 124.68707031 37.84304687 125.37414062 38.27734375 126.08203125 C38.82519531 126.98308594 39.37304688 127.88414062 39.9375 128.8125 C40.48277344 129.70582031 41.02804688 130.59914063 41.58984375 131.51953125 C44.21006466 136.12850709 44.21549528 140.33291885 44.25 145.5 C44.2809375 146.65822266 44.2809375 146.65822266 44.3125 147.83984375 C44.35210928 153.55348281 44.35210928 153.55348281 42.61230469 155.75976562 C41 157 41 157 38.875 156.75 C37 156 37 156 36 155 C35.92405697 153.09087666 35.85303409 151.18139554 35.81030273 149.27124023 C35.60873015 141.4702996 35.15692005 136.2147498 30 130 C26.57122257 130.58908511 24.87966857 131.7482294 22.375 134.125 C8.24693645 146.79602568 -4.81786192 150.13624975 -23.51269531 149.17578125 C-39.99618239 148.0108705 -58.52015938 141.4697355 -70.9453125 130.2421875 C-72.97555826 128.75527106 -72.97555826 128.75527106 -75.62890625 129.1171875 C-87.11358176 132.08393457 -96.87268094 137.51401898 -103.12109375 147.85546875 C-104.53986136 151.31726171 -104.45778748 154.83773645 -104.65625 158.5390625 C-105 161 -105 161 -107 163 C-109.5625 163.1875 -109.5625 163.1875 -112 163 C-113.82083964 161.17916036 -113.30044708 158.51987883 -113.375 156.0625 C-113.26609779 147.00381632 -110.20320884 141.13052508 -104.25 134.4375 C-97.89862523 128.37826683 -89.82123017 124.79837011 -82 121 C-82.40943848 120.50886719 -82.81887695 120.01773438 -83.24072266 119.51171875 C-92.53682161 108.19200055 -95.25843558 95.27515887 -94 81 C-91.80315862 70.34664269 -85.10766072 60.03747001 -76 54 C-63.96688689 46.99891601 -53.96722383 45.73205082 -40.1875 45.5 C-20.66676238 45.42993943 -20.66676238 45.42993943 -3 38 C1.93356911 32.7916167 2.40138804 26.94965097 2.3515625 20.08203125 C1.699092 14.36203988 -1.22661319 10.67752806 -5.3125 6.8125 C-7 5 -7 5 -7.25 2.25 C-7.1675 1.5075 -7.085 0.765 -7 0 C-4.23097718 -1.38451141 -2.92967744 -0.90846081 0 0 Z " fill="#080606" transform="translate(153,133)"/>
<path d="M0 0 C1.15733643 0.02618408 2.31467285 0.05236816 3.50708008 0.0793457 C4.76069336 0.09545898 6.01430664 0.11157227 7.3059082 0.12817383 C8.61624023 0.17006836 9.92657227 0.21196289 11.27661133 0.25512695 C12.61185661 0.28021034 13.94714662 0.30302347 15.2824707 0.32348633 C18.5524784 0.38251174 21.82023466 0.46481219 25.08911133 0.56762695 C21.4863116 20.76603336 -1.68050061 38.64478346 -17.59448242 49.9831543 C-24.42481034 54.65524833 -31.61060567 58.68452988 -38.91088867 62.56762695 C-40.07346191 63.19386963 -40.07346191 63.19386963 -41.25952148 63.83276367 C-43.50374957 65.02586763 -45.76352797 66.17916206 -48.03588867 67.31762695 C-49.02878906 67.83933472 -49.02878906 67.83933472 -50.04174805 68.37158203 C-55.18630478 70.83959635 -59.38344307 70.95306578 -64.91088867 69.56762695 C-67.94213867 68.2277832 -67.94213867 68.2277832 -70.41088867 66.63012695 C-71.24620117 66.10547852 -72.08151367 65.58083008 -72.94213867 65.0402832 C-74.91088867 63.56762695 -74.91088867 63.56762695 -75.91088867 61.56762695 C-74.79713867 61.10614258 -73.68338867 60.6446582 -72.53588867 60.16918945 C-56.16714178 53.23762761 -41.98162715 44.64249964 -28.91088867 32.56762695 C-28.40074219 32.10130859 -27.8905957 31.63499023 -27.36499023 31.15454102 C-18.70816276 23.15644487 -9.67338039 13.68762284 -4.66967773 2.88891602 C-2.91088867 0.56762695 -2.91088867 0.56762695 0 0 Z " fill="#F15353" transform="translate(161.910888671875,334.432373046875)"/>
<path d="M0 0 C9.87956066 0.49059462 19.33360714 2.02701352 29 4 C29 13.43746705 18.23495654 22.44578364 12 29 C11.24589844 29.8029248 11.24589844 29.8029248 10.4765625 30.62207031 C-10.09679909 52.41359148 -37.79453738 71.19391222 -68.69140625 72.109375 C-71.79803985 72.12278011 -74.89488945 72.09147625 -78 72 C-74.32110634 68.96299664 -70.22251844 66.97008633 -66 64.8125 C-58.66028527 60.98112065 -51.71217275 56.86944098 -45 52 C-44.46342773 51.61150879 -43.92685547 51.22301758 -43.37402344 50.82275391 C-25.0735395 37.42173671 -9.15243171 21.03542316 0 0 Z " fill="#F15353" transform="translate(195,337)"/>
<path d="M0 0 C-15.25456528 22.2043529 -34.72542339 38.84581687 -59.18359375 50.15966797 C-60.41367138 50.72874421 -61.63502155 51.31700732 -62.84765625 51.92236328 C-65.54050834 53.20699331 -67.66691881 54.00048767 -70.66796875 53.99609375 C-73.84027335 52.64108927 -75.23273527 50.792436 -77.3125 48.0625 C-78.35857422 46.71865234 -78.35857422 46.71865234 -79.42578125 45.34765625 C-81 43 -81 43 -81 41 C-80.48203857 40.78907715 -79.96407715 40.5781543 -79.43041992 40.36083984 C-59.79871485 32.33038097 -40.03520469 23.15407974 -27.87109375 4.78515625 C-24.33033458 0.47647974 -19.10415373 0.57456369 -13.875 0.0625 C-12.87339844 -0.06189453 -11.87179688 -0.18628906 -10.83984375 -0.31445312 C-3.49999222 -1.16666407 -3.49999222 -1.16666407 0 0 Z " fill="#F05353" transform="translate(150,336)"/>
<path d="M0 0 C-11.17997689 12.33919108 -26.5060733 23.23607981 -43 27 C-44.66655817 27.01901722 -46.33346728 27.02113014 -48 27 C-49.01142195 23.77429922 -50.00708653 20.54394135 -51 17.3125 C-51.28617188 16.40048828 -51.57234375 15.48847656 -51.8671875 14.54882812 C-52.13789062 13.66259766 -52.40859375 12.77636719 -52.6875 11.86328125 C-52.93886719 11.05157471 -53.19023438 10.23986816 -53.44921875 9.40356445 C-54.03200496 6.86033295 -54.09712888 4.60022093 -54 2 C-53.1656543 2.01571045 -52.33130859 2.0314209 -51.47167969 2.04760742 C-36.28843814 2.29509217 -21.56447722 2.39113926 -6.578125 -0.44140625 C-3 -1 -3 -1 0 0 Z " fill="#F25454" transform="translate(112,342)"/>
</svg>
