<?xml version="1.0" encoding="UTF-8"?>
<svg version="1.1" xmlns="http://www.w3.org/2000/svg" width="512" height="512">
<path d="M0 0 C0.72720877 -0.00538554 1.45441754 -0.01077108 2.20366293 -0.01631981 C4.62330145 -0.03054694 7.04238882 -0.02350893 9.46205139 -0.01637268 C11.20378049 -0.022079 12.94550585 -0.02904427 14.68722534 -0.03717041 C19.40625984 -0.05508782 24.12510824 -0.05393612 28.84416652 -0.04822803 C32.7879932 -0.04513419 36.73178423 -0.05123079 40.67560583 -0.05726677 C49.9814044 -0.07130568 59.28711114 -0.06975592 68.59291077 -0.05836487 C78.18431179 -0.04688346 87.7754332 -0.06096117 97.36679739 -0.08776134 C105.61075206 -0.10993175 113.85461904 -0.11655272 122.0986014 -0.11068493 C127.01837744 -0.10731747 131.93797425 -0.10971652 136.85772514 -0.12693596 C141.48469949 -0.14242443 146.11126019 -0.13842848 150.73821831 -0.11963081 C152.43288597 -0.11595023 154.1275844 -0.11903791 155.82222366 -0.1295166 C171.57544215 -0.21946301 171.57544215 -0.21946301 178.45448303 4.38768005 C179.34135803 4.94455505 180.22823303 5.50143005 181.14198303 6.07518005 C186.48394014 11.41713716 189.29110419 17.56843735 189.64979553 25.12205505 C188.49733472 44.3911999 180.14892117 63.68765869 170.07899475 79.85154724 C160.86671406 94.68366021 154.12595389 112.74971665 158.14198303 130.41111755 C162.01573429 141.93552756 169.00050607 151.33838548 180.00135803 156.8056488 C185.53405126 159.50711957 191.21386637 161.73518802 196.95448303 163.95018005 C237.5252365 179.95655076 282.98807027 202.04593038 302.17713928 244.05174255 C308.50583252 258.80168081 309.89895773 272.74657486 309.8551178 288.59178162 C309.86087278 290.48580353 309.86796062 292.37982178 309.87626648 294.27383423 C309.89128685 298.32623442 309.89716185 302.37850364 309.8957386 306.43093109 C309.89368941 312.85561307 309.91337655 319.28012157 309.93591309 325.70475769 C309.97675543 338.19164549 309.99545258 350.67851922 310.01208496 363.16545868 C310.03448445 379.04435656 310.06826952 394.92321354 310.11928409 410.80204558 C310.13904983 417.17126339 310.14877526 423.54038971 310.15023625 429.90963697 C310.15301307 433.89297068 310.16390043 437.87625494 310.17674637 441.85956764 C310.18097681 443.68710426 310.18192001 445.5146524 310.17907143 447.3421917 C310.16669701 456.32052609 310.37683541 465.18821693 311.34643555 474.12028503 C311.4238613 474.8360015 311.50128705 475.55171797 311.58105904 476.28912282 C312.16340112 481.11540368 313.22928883 485.68453032 314.45448303 490.38768005 C315.30091484 497.2477146 314.58367009 501.80769754 310.45448303 507.38768005 C306.19396616 511.33645179 303.07823082 512.50310774 297.34388733 512.56468201 C296.30238022 512.57751724 295.26087311 512.59035248 294.18780518 512.60357666 C293.06280106 512.61096359 291.93779694 512.61835052 290.77870178 512.6259613 C289.62078629 512.63403305 288.46287079 512.6421048 287.26986694 512.65042114 C284.81783037 512.6642586 282.36577456 512.67498226 279.91371155 512.68284607 C276.16716481 512.70006432 272.42149917 512.74395582 268.67518616 512.78807068 C266.29303119 512.79819719 263.91086872 512.80671342 261.52870178 512.8134613 C260.40977036 512.83096939 259.29083893 512.84847748 258.13800049 512.86651611 C251.92709922 512.84922683 248.12210183 512.6435057 243.45448303 508.38768005 C238.94878354 503.25360377 237.09899486 496.93309055 235.39198303 490.45018005 C235.14303284 489.54372742 234.89408264 488.63727478 234.6375885 487.70335388 C232.36273686 479.31603015 230.34421722 470.86925171 228.45448303 462.38768005 C228.12448303 462.38768005 227.79448303 462.38768005 227.45448303 462.38768005 C227.3871698 463.6425824 227.3871698 463.6425824 227.3184967 464.9228363 C227.14402485 468.06202608 226.95813607 471.20028439 226.76478577 474.33836365 C226.64421727 476.35039536 226.53653243 478.36318585 226.42909241 480.3759613 C225.83160074 489.88802871 224.71104426 497.81394804 218.45448303 505.38768005 C213.43628488 509.27655593 208.90655765 512.50351576 202.39633846 512.52469444 C201.56748416 512.52976899 200.73862985 512.53484353 199.88465875 512.54007185 C198.51892979 512.54081848 198.51892979 512.54081848 197.12561035 512.5415802 C196.15821727 512.54596245 195.1908242 512.55034471 194.19411618 512.55485976 C190.93772285 512.56826287 187.6813566 512.57443007 184.42494202 512.58055115 C182.09592567 512.58845101 179.76691055 512.59671989 177.43789673 512.60533142 C169.77546867 512.63156803 162.1130351 512.64686213 154.45057678 512.66111755 C151.81369078 512.66647683 149.17680482 512.67185434 146.5399189 512.67724991 C135.57067444 512.6988823 124.60143127 512.71776993 113.63217068 512.7288723 C110.78575067 512.7318019 107.93933069 512.73476357 105.09291077 512.73777771 C104.03174071 512.73889679 104.03174071 512.73889679 102.94913287 512.74003847 C91.49731828 512.75268319 80.04565927 512.78589442 68.59391736 512.82757954 C56.83034398 512.87004777 45.06685013 512.89357308 33.3032003 512.89879286 C26.70092704 512.90244614 20.09891738 512.91446536 13.49671745 512.9468956 C7.28243081 512.97698204 1.0685672 512.98328559 -5.14577675 512.97151184 C-7.42336352 512.97129115 -9.70096994 512.97959239 -11.97848892 512.99716568 C-15.09541855 513.01990141 -18.21081993 513.01154085 -21.32775879 512.99568176 C-22.22262971 513.00956385 -23.11750063 513.02344594 -24.03948885 513.03774869 C-31.22817609 512.94803365 -37.71431765 510.79135512 -43.16942221 505.9449867 C-47.869179 500.59689312 -49.88614933 495.05605201 -50.67051697 488.07518005 C-50.74834412 487.39455505 -50.82617126 486.71393005 -50.90635681 486.01268005 C-51.75937449 478.15847957 -52.15788079 470.27574212 -52.54551697 462.38768005 C-52.79720642 463.29945007 -53.04889587 464.21122009 -53.30821228 465.15061951 C-54.25895891 468.58650976 -55.21369353 472.02124264 -56.17100525 475.45530701 C-56.58174698 476.93176136 -56.99097032 478.40863912 -57.39854431 479.88597107 C-64.69555296 506.32193973 -64.69555296 506.32193973 -72.54551697 511.38768005 C-75.04083737 512.63534026 -76.75044763 512.5280678 -79.54258728 512.54881287 C-81.10496124 512.56322418 -81.10496124 512.56322418 -82.69889832 512.57792664 C-83.82906372 512.58217651 -84.95922913 512.58642639 -86.12364197 512.59080505 C-87.28297241 512.59650513 -88.44230286 512.6022052 -89.63676453 512.608078 C-92.09478337 512.61753875 -94.55281496 512.62406623 -97.010849 512.62791443 C-100.76612115 512.6376042 -104.52084248 512.66861179 -108.27598572 512.70018005 C-110.66270121 512.70671154 -113.04942063 512.71196144 -115.43614197 512.71580505 C-116.55821045 512.72815186 -117.68027893 512.74049866 -118.83634949 512.7532196 C-125.29295627 512.73483877 -130.19753144 512.44142458 -135.19004822 507.88768005 C-139.74802191 502.03396133 -140.09780133 497.58609821 -139.54551697 490.38768005 C-138.89809068 486.98372712 -138.13784532 483.63228168 -137.29942322 480.27049255 C-135.06703961 468.77313866 -135.39978619 457.02398415 -135.40367126 445.36302185 C-135.40063387 443.46443095 -135.39711083 441.56584077 -135.3931427 439.66725159 C-135.38529847 435.59956471 -135.38012583 431.53188641 -135.37685204 427.46419334 C-135.37090179 421.01953881 -135.35432454 414.57493833 -135.33551025 408.13031006 C-135.32917417 405.91673949 -135.32284853 403.7031689 -135.31653309 401.48959827 C-135.31178437 399.82759921 -135.31178437 399.82759921 -135.30693972 398.13202441 C-135.26499055 383.14571913 -135.23188895 368.15944059 -135.21958923 353.17308044 C-135.2111873 343.03944894 -135.1886234 332.90595326 -135.15023357 322.77238971 C-135.13055579 317.421556 -135.11804099 312.0709249 -135.12306786 306.72005272 C-135.12774199 301.68423346 -135.113759 296.64879813 -135.08605576 291.61305618 C-135.07919207 289.77620644 -135.07896477 287.93931658 -135.08625603 286.10246849 C-135.17757154 260.49119264 -126.79101647 239.11557317 -108.81504822 220.55955505 C-99.86313992 211.66990678 -89.48444276 204.60467774 -78.54551697 198.38768005 C-77.95029236 198.04559509 -77.35506775 197.70351013 -76.74180603 197.35105896 C-59.80033078 187.69856304 -41.71138779 180.59304258 -23.43223572 173.9306488 C-22.35410614 173.53744949 -21.27597656 173.14425018 -20.16517639 172.73913574 C-14.71449386 170.75568831 -9.25838239 168.78911345 -3.79356384 166.84495544 C6.76022909 163.06074148 16.85017159 159.23165346 26.45448303 153.38768005 C24.91012354 148.17995617 23.15753597 145.19950532 18.45448303 142.38768005 C11.31447085 139.25905653 4.03603659 138.37330832 -3.698349 138.19993591 C-12.72695177 137.9396721 -19.72031145 136.77915923 -26.63145447 130.48924255 C-32.37151273 124.37432334 -33.69655664 119.12482778 -33.79551697 110.76268005 C-34.01859139 103.81539098 -35.78559496 99.17446515 -39.23301697 93.07518005 C-41.16414241 89.12097081 -41.46391309 85.67352863 -40.54551697 81.38768005 C-39.04551697 78.32518005 -39.04551697 78.32518005 -37.54551697 76.38768005 C-38.04051697 75.89268005 -38.53551697 75.39768005 -39.04551697 74.88768005 C-41.14552401 71.38766832 -41.04452884 68.37977501 -40.54551697 64.38768005 C-39.54551697 61.88768005 -39.54551697 61.88768005 -38.54551697 60.38768005 C-39.26739197 60.14018005 -39.98926697 59.89268005 -40.73301697 59.63768005 C-46.35349889 57.13968809 -49.29833376 54.11799724 -51.54551697 48.38768005 C-53.12660724 42.40212404 -52.38970385 37.79445116 -49.54551697 32.38768005 C-44.82188157 26.20225468 -38.24273838 21.68438722 -32.06114197 17.05174255 C-29.61642773 15.2161444 -27.21849979 13.33469277 -24.84239197 11.41111755 C-24.22895935 10.91716492 -23.61552673 10.42321228 -22.98350525 9.91429138 C-21.81040055 8.96692956 -20.64177292 8.01398529 -19.47862244 7.0544281 C-18.93608826 6.61912781 -18.39355408 6.18382751 -17.83457947 5.7353363 C-17.36745544 5.35385437 -16.90033142 4.97237244 -16.41905212 4.57933044 C-10.95188312 1.10197158 -6.46343531 0.01212038 0 0 Z " fill="#438DFE" transform="translate(168.54551696777344,-0.3876800537109375)"/>
<path d="M0 0 C1.64881872 -0.0023776 3.29763568 -0.00868464 4.94642639 -0.01858521 C9.38887654 -0.03387514 13.82921162 0.00637451 18.27132297 0.0579958 C22.93205227 0.10336767 27.5927642 0.09958756 32.25367737 0.10198975 C40.0705237 0.11303427 47.8865744 0.15777837 55.703125 0.22558594 C65.73312245 0.31241826 75.76248268 0.34328151 85.79281521 0.35663223 C94.43060176 0.3685718 103.06825023 0.40605725 111.70593762 0.44767284 C114.47741649 0.45995498 117.24889053 0.46873882 120.02038383 0.47705841 C124.37168289 0.49175121 128.72259706 0.52238315 133.07370567 0.56537247 C134.66962457 0.57892113 136.26559514 0.58745269 137.86156845 0.59059525 C140.04033455 0.59584785 142.21814446 0.61953096 144.39671326 0.64801025 C145.61540824 0.65693424 146.83410322 0.66585823 148.08972836 0.67505264 C152.56994988 1.2261401 155.14603185 2.92020177 158.29516602 6.06933594 C158.91436833 12.88056144 157.38265016 18.61419265 155.29516602 25.06933594 C154.76149414 26.77863281 154.76149414 26.77863281 154.21704102 28.52246094 C150.97880867 38.24737725 146.24211551 46.91607793 141.0534668 55.73632812 C133.40819494 68.76498407 126.91319002 82.72173988 126.29516602 98.06933594 C126.24360352 99.06449219 126.19204102 100.05964844 126.13891602 101.08496094 C125.68767194 116.95371091 130.87422275 131.66773283 141.54516602 143.50683594 C151.40407729 153.89049843 163.8217778 158.75958974 176.89672852 163.87011719 C199.80062349 172.84840745 221.6076655 183.17918118 241.29516602 198.06933594 C242.26454102 198.80023438 243.23391602 199.53113281 244.23266602 200.28417969 C262.56460891 214.68412915 275.59742922 233.7303067 279.29516602 257.06933594 C279.81997761 263.60592494 279.70311854 270.17425949 279.67993164 276.7265625 C279.68404449 278.68117081 279.68950956 280.63577667 279.69621277 282.59037781 C279.70787735 286.77649052 279.71044373 290.9624716 279.70585632 295.14859772 C279.699004 301.78295013 279.71498835 308.41713176 279.73425293 315.05145264 C279.77200108 329.14073794 279.78488658 343.23000783 279.79516602 357.31933594 C279.80626462 372.52057594 279.82178755 387.72173617 279.86587858 402.9229219 C279.88411673 409.50236462 279.88816969 416.08160948 279.8809433 422.6610713 C279.87940927 426.77329837 279.89028145 430.88542862 279.90432167 434.99762917 C279.90828595 436.88686315 279.90726597 438.77611613 279.90054893 440.66534233 C279.86575517 451.27657842 280.51127034 461.26156084 282.65244293 471.66923141 C283.29516602 475.06933594 283.29516602 475.06933594 283.29516602 479.06933594 C269.76516602 479.06933594 256.23516602 479.06933594 242.29516602 479.06933594 C236.38657942 459.16672844 231.47638881 439.39487246 227.29516602 419.06933594 C227.03445313 417.83441406 226.77374023 416.59949219 226.50512695 415.32714844 C224.67318923 406.48776087 223.28154429 397.65187857 222.17016602 388.69433594 C222.08423187 388.01177734 221.99829773 387.32921875 221.90975952 386.62597656 C220.47964388 375.15709806 219.73108659 363.75365643 219.47094727 352.19433594 C219.3298645 346.68906305 219.04791693 341.32758868 217.29516602 336.06933594 C212.82262105 334.57848762 208.76771098 334.57848762 204.29516602 336.06933594 C202.27760422 346.17664657 201.64289977 356.23542705 201.07641602 366.49902344 C200.9725025 368.29659083 200.86803849 370.09412648 200.76306152 371.89163208 C200.48844275 376.62114182 200.22173077 381.35106572 199.956604 386.08111572 C199.74524504 389.82972076 199.52849448 393.5780035 199.31130981 397.32627487 C199.09709514 401.02503295 198.88462024 404.72388975 198.67248535 408.42276764 C198.56688245 410.26335439 198.46100737 412.10392555 198.3548584 413.9444809 C197.7768827 423.99079151 197.24061221 434.03655671 196.79907227 444.08984375 C196.67923938 446.70841755 196.55850001 449.32694809 196.43751526 451.9454689 C196.32923477 454.38855025 196.23572146 456.83190222 196.1427002 459.27560425 C196.07510838 460.75782548 196.00682934 462.24001559 195.93774414 463.72216797 C195.88557739 465.00189484 195.83341064 466.2816217 195.77966309 467.60012817 C195.25446239 471.36079143 194.28555952 473.84838663 192.29516602 477.06933594 C189.10521784 479.19596806 188.24600254 479.32975435 184.57769775 479.38386536 C183.60764801 479.40251144 182.63759827 479.42115753 181.63815308 479.44036865 C180.57525055 479.45045959 179.51234802 479.46055054 178.41723633 479.47094727 C176.73632401 479.49788918 176.73632401 479.49788918 175.02145386 479.52537537 C171.30543446 479.58019402 167.58956335 479.61808541 163.87329102 479.65136719 C162.60500206 479.66326269 161.3367131 479.6751582 160.02999115 479.68741417 C154.69931958 479.73453007 149.36870347 479.77714817 144.03789139 479.8035326 C136.40731957 479.84166427 128.77916025 479.91677561 121.14952779 480.04337102 C115.13145769 480.13981633 109.1144899 480.17577194 103.09560394 480.19086266 C100.53898865 480.20614962 97.98241395 480.24024136 95.42630768 480.29349709 C75.35443871 480.68858764 75.35443871 480.68858764 70.24694824 476.67245483 C68.42713094 473.82622446 67.36808867 471.25583916 66.29516602 468.06933594 C57.91212925 456.73376594 41.76471085 451.24601418 29.44213867 445.45727539 C2.11880431 432.5884632 2.11880431 432.5884632 -2.07983398 424.11621094 C-3.86040677 418.28483508 -3.57840246 412.22415318 -1.01733398 406.69433594 C2.60348541 400.51244917 7.46800337 396.27164647 14.29516602 394.06933594 C19.00316875 393.193105 23.19809278 392.99344619 27.54125977 395.22167969 C29.95616626 397.03396731 32.10757764 398.98692008 34.29516602 401.06933594 C35.31446231 402.01110639 36.33539994 402.95110243 37.35766602 403.88964844 C39.02815663 405.42786489 40.69607726 406.96848852 42.35717773 408.5168457 C57.67712936 422.77940456 74.69160769 435.87763106 95.29516602 441.06933594 C96.18075195 441.34648437 97.06633789 441.62363281 97.97875977 441.90917969 C109.50045242 445.30159123 122.75151346 445.57300045 134.29516602 442.06933594 C135.30836914 441.76253906 136.32157227 441.45574219 137.36547852 441.13964844 C151.13136806 436.42084469 162.15921616 427.68777774 169.04516602 414.79199219 C177.24866736 397.57647134 178.61877028 376.46669668 172.54516602 358.18261719 C172.13266602 357.15523438 171.72016602 356.12785156 171.29516602 355.06933594 C170.88266602 354.01101563 170.47016602 352.95269531 170.04516602 351.86230469 C165.50661857 341.61189213 158.11175228 333.48458286 147.75610352 328.95996094 C142.01057616 326.88062723 136.59856529 326.08802689 130.49829102 325.87402344 C129.62479004 325.84211914 128.75128906 325.81021484 127.85131836 325.77734375 C126.10214177 325.72318968 124.3522538 325.68780384 122.60229492 325.67382812 C116.78987016 325.52185448 112.01809065 324.64624649 107.29516602 321.06933594 C105.33422852 318.27636719 105.33422852 318.27636719 103.92016602 314.88183594 C103.64889893 314.24600586 103.37763184 313.61017578 103.09814453 312.95507812 C102.48570318 311.50143802 101.88739289 310.04179322 101.30053711 308.57763672 C100.17540546 305.77054529 99.01065147 302.98132466 97.84594727 300.19042969 C80.4405534 258.04123999 74.59805892 214.95545743 74.13110352 169.49902344 C74.11764389 168.40742416 74.10418427 167.31582489 74.09031677 166.19114685 C74.02393514 160.75062815 73.98216853 155.31226878 73.98779297 149.87133789 C73.91242911 132.22180407 73.91242911 132.22180407 65.04516602 117.38183594 C62.09709202 114.25900497 61.48591663 111.6993845 61.10766602 107.47558594 C61.29516602 105.06933594 61.29516602 105.06933594 62.27172852 101.93261719 C64.85741893 92.17212933 65.28506163 78.27507561 60.61547852 69.13183594 C60.17977539 68.45121094 59.74407227 67.77058594 59.29516602 67.06933594 C58.79758789 66.28558594 58.30000977 65.50183594 57.78735352 64.69433594 C49.73496597 53.30863448 36.62505929 47.78206017 23.29516602 45.06933594 C19.05521353 44.69262365 14.86155887 44.68796489 10.60766602 44.75683594 C9.46934326 44.76666504 8.33102051 44.77649414 7.15820312 44.78662109 C-1.59932122 44.91958386 -10.07154136 45.59219454 -18.70483398 47.06933594 C-19.83018555 47.26011719 -20.95553711 47.45089844 -22.11499023 47.64746094 C-24.65084616 48.096285 -27.17926409 48.56636227 -29.70483398 49.06933594 C-29.5772168 48.44027344 -29.44959961 47.81121094 -29.31811523 47.16308594 C-28.97029187 44.16367408 -28.9474373 42.0068634 -29.70483398 39.06933594 C-32.95716107 35.72051747 -36.71027928 33.44743847 -40.70483398 31.06933594 C-41.93901073 30.24344072 -43.16955872 29.41201962 -44.39233398 28.56933594 C-45.15545898 28.07433594 -45.91858398 27.57933594 -46.70483398 27.06933594 C-45.37133265 24.02209302 -44.02328204 22.22322931 -41.43139648 20.15136719 C-40.43946289 19.35182617 -40.43946289 19.35182617 -39.42749023 18.53613281 C-38.73526367 17.99021484 -38.04303711 17.44429687 -37.32983398 16.88183594 C-36.6762793 16.35525391 -36.02272461 15.82867187 -35.34936523 15.28613281 C-33.98085919 14.19106631 -32.59931187 13.1121125 -31.20565128 12.04924393 C-28.65565249 10.0795361 -28.65565249 10.0795361 -26.21774197 7.78837204 C-17.8451701 0.57116457 -10.77921765 -0.20194709 0 0 Z " fill="#E2E6F2" transform="translate(181.704833984375,15.9306640625)"/>
<path d="M0 0 C0.95463135 -0.01780518 1.9092627 -0.03561035 2.89282227 -0.05395508 C13.56570073 -0.04191835 23.47272811 2.6531038 31.203125 10.30859375 C36.40190971 16.06741015 37.36845319 19.93607908 37.375 27.6875 C37.38724609 28.44289063 37.39949219 29.19828125 37.41210938 29.9765625 C37.42344154 34.29789655 36.94830604 37.31314985 35.1875 41.3125 C33.81251707 53.09806795 37.32112616 60.77001935 44.4453125 69.9296875 C46.91798247 73.31159038 47.31453934 75.90771059 47.36108398 79.98217773 C47.38146225 81.40940407 47.38146225 81.40940407 47.4022522 82.86546326 C47.41259491 83.89857132 47.42293762 84.93167938 47.43359375 85.99609375 C47.46489623 88.21224462 47.49656738 90.4283903 47.52856445 92.64453125 C47.54392242 93.80549316 47.5592804 94.96645508 47.57510376 96.16259766 C47.98369243 125.53899821 49.3240142 154.28611783 54.1875 183.3125 C54.35588379 184.32731445 54.52426758 185.34212891 54.69775391 186.38769531 C59.46595428 214.13743284 69.85799104 239.71476985 81.1875 265.3125 C86.66005148 277.77315596 93.62741706 293.95707487 89.4609375 307.7109375 C86.66164865 314.56122972 82.74242325 320.53024351 75.77734375 323.6171875 C62.13271533 327.28045124 46.75811953 322.71773456 33.47265625 319.37890625 C26.68000847 317.72235621 20.28027161 317.03497 13.3125 317 C12.52738037 316.99452148 11.74226074 316.98904297 10.93334961 316.98339844 C-0.10700831 317.11930861 -10.97745618 320.83481797 -19.21484375 328.390625 C-26.75651009 337.46275175 -29.38084562 348.7339999 -29.1171875 360.26171875 C-28.15935405 369.85233315 -23.95298282 376.96943151 -16.8125 383.3125 C-6.66341708 391.05220714 5.55068132 396.34502365 17.22167969 401.36621094 C27.30130456 405.71007931 35.39555177 410.45800448 43.1875 418.3125 C31.01787815 418.42833012 18.84838735 418.51718336 6.67832661 418.57156086 C1.02729642 418.59765893 -4.62335674 418.63306158 -10.27416992 418.68969727 C-15.72715271 418.74400841 -21.17977277 418.77391895 -26.63300514 418.78688622 C-28.71387251 418.79612762 -30.79471994 418.81417402 -32.87543297 418.84115028 C-35.78938123 418.8774282 -38.70182919 418.88244581 -41.6159668 418.88012695 C-42.47695984 418.89810333 -43.33795288 418.91607971 -44.22503662 418.93460083 C-48.57324779 418.89713967 -50.28409075 418.72437779 -53.82478333 415.96452332 C-56.49540345 412.40136619 -56.95066919 409.69312684 -57.18504333 405.3629303 C-57.24242676 404.34120728 -57.29981018 403.31948425 -57.3589325 402.26679993 C-57.4470092 400.58604622 -57.4470092 400.58604622 -57.53686523 398.87133789 C-57.63467789 397.10006027 -57.63467789 397.10006027 -57.73446655 395.29299927 C-57.9129268 392.05088176 -58.08780067 388.80859203 -58.26153445 385.56621861 C-58.44503837 382.16433568 -58.63428186 378.76277342 -58.82325745 375.3611908 C-59.42535025 364.50425206 -60.01848775 353.64682736 -60.60732561 342.7891621 C-60.99384791 335.66269643 -61.38424761 328.53646609 -61.78176266 321.41060442 C-61.97008079 318.03015167 -62.15580027 314.64960032 -62.33523369 311.26866341 C-62.53702134 307.4848204 -62.74703391 303.70151212 -62.95874023 299.91821289 C-63.01543381 298.8159285 -63.07212738 297.7136441 -63.13053894 296.57795715 C-63.54421837 289.38292458 -64.48952203 282.39622949 -65.8125 275.3125 C-70.28504497 273.82165168 -74.33995503 273.82165168 -78.8125 275.3125 C-79.72467283 278.04901848 -80.045336 280.11028647 -80.26147461 282.95727539 C-80.3350267 283.89998795 -80.4085788 284.8427005 -80.48435974 285.8139801 C-80.56041946 286.83571823 -80.63647919 287.85745636 -80.71484375 288.91015625 C-80.79746964 289.97302353 -80.88009552 291.03589081 -80.96522522 292.13096619 C-81.23040909 295.54537821 -81.49068905 298.96013727 -81.75 302.375 C-84.84638436 343.03302138 -84.84638436 343.03302138 -88.5625 360.9375 C-88.82417969 362.21657227 -89.08585937 363.49564453 -89.35546875 364.81347656 C-91.03257567 372.9298272 -92.8387929 381.01310417 -94.8125 389.0625 C-95.13105957 390.37855225 -95.13105957 390.37855225 -95.45605469 391.72119141 C-97.75669141 400.79443244 -100.8276197 409.35785911 -103.8125 418.3125 C-117.3425 418.3125 -130.8725 418.3125 -144.8125 418.3125 C-144.23008504 413.65318033 -143.62261288 409.24427955 -142.76879883 404.67041016 C-141.27738738 395.02549392 -141.50410301 385.32060861 -141.51171875 375.5859375 C-141.5078253 373.50420039 -141.5034893 371.42246407 -141.49873352 369.34072876 C-141.49131681 365.00560918 -141.49153249 360.67057115 -141.49682617 356.33544922 C-141.50266106 350.77469514 -141.48557165 345.2142698 -141.4624815 339.65357018 C-141.44778471 335.36770676 -141.44686611 331.08192372 -141.44999123 326.79603958 C-141.44947749 324.74427252 -141.44422988 322.69250102 -141.43417931 320.64075851 C-141.42189053 317.78551075 -141.42855725 314.93092022 -141.44018555 312.07568359 C-141.43254181 311.22792358 -141.42489807 310.38016357 -141.41702271 309.50671387 C-141.34149142 305.28936211 -141.34149142 305.28936211 -143.09370136 301.59972572 C-145.47809524 299.81402898 -147.7741088 299.90186445 -150.6796875 299.81640625 C-153.56695492 300.32628684 -153.56695492 300.32628684 -157.8125 304.3125 C-157.8125 283.1925 -157.8125 262.0725 -157.8125 240.3125 C-155.8125 243.3125 -155.8125 243.3125 -155.8125 245.3125 C-152.21985548 246.51004817 -149.58532526 246.64344958 -145.8125 246.3125 C-143.43698542 244.94228483 -143.43698542 244.94228483 -141.8125 242.3125 C-141.23117641 239.22389056 -141.27920434 236.17808685 -141.30859375 233.04296875 C-141.29917252 232.12977371 -141.28975128 231.21657867 -141.28004456 230.27571106 C-141.25138537 227.3502478 -141.24831267 224.42559207 -141.25 221.5 C-141.2179329 196.0707923 -138.36415113 176.05502979 -120.24609375 156.71484375 C-108.19236105 144.81589413 -93.91674648 136.45456173 -78.74023438 129.23583984 C-76.97857365 128.39204541 -75.23065199 127.51971936 -73.484375 126.64453125 C-57.85564501 118.99372273 -41.24746523 113.29502782 -24.86328125 107.4765625 C-8.45991255 101.7116476 -8.45991255 101.7116476 7.3125 94.4375 C7.97475586 94.09251465 8.63701172 93.7475293 9.31933594 93.39208984 C14.38691148 90.5717671 17.02929035 87.04981448 20.1875 82.3125 C21.35311051 73.56428636 20.14666854 66.61425921 15.1875 59.3125 C7.58749862 50.06925508 -4.21944202 45.84666248 -15.8125 44.3125 C-19.1430606 44.1295394 -22.46853042 43.97164001 -25.80273438 43.8828125 C-30.75673862 43.65482381 -34.42292275 42.67827471 -38.8125 40.3125 C-39.82498774 37.27503678 -39.78472604 35.02607345 -39.64697266 31.86621094 C-39.35663025 24.59254618 -39.77209025 19.59587137 -43.9140625 13.328125 C-44.8125 11.3125 -44.8125 11.3125 -44.41015625 9.2109375 C-42.02915374 6.38167779 -39.06552705 5.67045025 -35.625 4.6875 C-34.90449463 4.47585205 -34.18398926 4.2642041 -33.44165039 4.04614258 C-22.35721119 0.92473927 -11.45914054 0.13645105 0 0 Z " fill="#E2E6F2" transform="translate(191.8125,76.6875)"/>
<path d="M0 0 C2.56314499 -0.08132187 5.12368418 -0.14064175 7.6875 -0.1875 C8.40873047 -0.21263672 9.12996094 -0.23777344 9.87304688 -0.26367188 C14.48829346 -0.32689443 17.32151677 0.18142194 21 3 C23 5 23 5 23.3125 8.4375 C23.14643445 13.8981261 21.6724292 18.82833431 20 24 C19.64421875 25.13953125 19.2884375 26.2790625 18.921875 27.453125 C15.68364265 37.17804131 10.9469495 45.846742 5.75830078 54.66699219 C-1.88697108 67.69564814 -8.381976 81.65240394 -9 97 C-9.0515625 97.99515625 -9.103125 98.9903125 -9.15625 100.015625 C-9.60749407 115.88437497 -4.42094326 130.5983969 6.25 142.4375 C16.10891127 152.82116249 28.52661178 157.6902538 41.6015625 162.80078125 C64.50545747 171.77907152 86.31249948 182.10984524 106 197 C106.969375 197.73089844 107.93875 198.46179688 108.9375 199.21484375 C127.26944289 213.61479321 140.30226321 232.66097077 144 256 C144.52481159 262.536589 144.40795252 269.10492355 144.38476562 275.65722656 C144.38887848 277.61183487 144.39434354 279.56644073 144.40104675 281.52104187 C144.41271133 285.70715458 144.41527772 289.89313567 144.41069031 294.07926178 C144.40383798 300.71361419 144.41982234 307.34779582 144.43908691 313.9821167 C144.47683507 328.07140201 144.48972057 342.16067189 144.5 356.25 C144.51109861 371.45124 144.52662154 386.65240023 144.57071257 401.85358596 C144.58895071 408.43302868 144.59300367 415.01227354 144.58577728 421.59173536 C144.58424325 425.70396244 144.59511543 429.81609268 144.60915565 433.92829323 C144.61311993 435.81752721 144.61209995 437.70678019 144.60538292 439.59600639 C144.57058916 450.20724248 145.21610432 460.1922249 147.35727692 470.59989548 C148 474 148 474 148 478 C141.4 478 134.8 478 128 478 C123.57207531 463.10607151 122.70517945 448.97077207 122.72875977 433.56469727 C122.72436312 431.64610577 122.71905759 429.72751617 122.71292114 427.80892944 C122.70149396 423.70416158 122.69596713 419.59944483 122.69503975 415.49466133 C122.6930847 408.99101782 122.67495402 402.4874788 122.65428162 395.98387146 C122.60529229 379.83449175 122.57423876 363.68508395 122.55297852 347.53564453 C122.53641506 334.97085755 122.51350111 322.40616126 122.46995777 309.8414349 C122.44830189 303.38940087 122.44011215 296.93753967 122.44235051 290.48547184 C122.44067263 286.45746155 122.42655681 282.4295623 122.40913773 278.40159225 C122.40358383 276.54861071 122.40301036 274.6956057 122.40807533 272.84262276 C122.44630853 257.20390745 120.93338102 243.30009835 114 229 C113.54625 228.06414062 113.0925 227.12828125 112.625 226.1640625 C93.03290169 188.15113263 48.71119112 168.58855339 10.91625977 153.83178711 C3.19471605 150.80905434 -4.19665351 147.8394939 -11 143 C-12.051875 142.2575 -13.10375 141.515 -14.1875 140.75 C-23.97592073 131.17909973 -30.00891053 118.9290857 -30.34350586 105.28295898 C-30.5672095 83.73977829 -23.26142051 68.2800354 -11.8515625 50.0859375 C-3.38718243 35.97863739 2.06680735 19.52310917 1 3 C0.67 2.01 0.34 1.02 0 0 Z " fill="#A3C1F7" transform="translate(317,17)"/>
<path d="M0 0 C-0.53625 0.31710938 -1.0725 0.63421875 -1.625 0.9609375 C-4.42456831 2.62778574 -7.21321577 4.31185186 -10 6 C-10.62132813 6.37511719 -11.24265625 6.75023437 -11.8828125 7.13671875 C-20.34400883 12.26320829 -28.5822841 17.40366661 -36 24 C-36.82886719 24.73476562 -37.65773437 25.46953125 -38.51171875 26.2265625 C-52.49365211 39.37343399 -62.36705822 57.96252146 -63.27297783 77.34597969 C-63.4163494 82.46427783 -63.3913896 87.58167538 -63.36889648 92.70141602 C-63.37136913 94.66100779 -63.37521222 96.62059823 -63.38031006 98.58018494 C-63.38860501 102.77775567 -63.38787697 106.97519051 -63.38012505 111.17276192 C-63.36846314 117.82893678 -63.38077174 124.48493988 -63.39674377 131.14109802 C-63.43280937 147.67569965 -63.4391764 164.21029664 -63.43664551 180.74493408 C-63.43492816 193.59744572 -63.44223515 206.44981529 -63.47662407 219.30228752 C-63.4932863 225.89935161 -63.49173753 232.49606726 -63.47580135 239.09312928 C-63.4699463 243.22300549 -63.4808478 247.3527215 -63.49604797 251.48256874 C-63.49972987 253.37538329 -63.49679734 255.26822622 -63.48617744 257.16101456 C-63.4178028 270.2348026 -65.00993626 282.27050286 -68 295 C-73.61 295 -79.22 295 -85 295 C-84.41758504 290.34068033 -83.81011288 285.93177955 -82.95629883 281.35791016 C-81.46488738 271.71299392 -81.69160301 262.00810861 -81.69921875 252.2734375 C-81.6953253 250.19170039 -81.6909893 248.10996407 -81.68623352 246.02822876 C-81.67881681 241.69310918 -81.67903249 237.35807115 -81.68432617 233.02294922 C-81.69016106 227.46219514 -81.67307165 221.9017698 -81.6499815 216.34107018 C-81.63528471 212.05520676 -81.63436611 207.76942372 -81.63749123 203.48353958 C-81.63697749 201.43177252 -81.63172988 199.38000102 -81.62167931 197.32825851 C-81.60939053 194.47301075 -81.61605725 191.61842022 -81.62768555 188.76318359 C-81.62004181 187.91542358 -81.61239807 187.06766357 -81.60452271 186.19421387 C-81.52899142 181.97686211 -81.52899142 181.97686211 -83.28120136 178.28722572 C-85.66559524 176.50152898 -87.9616088 176.58936445 -90.8671875 176.50390625 C-93.75445492 177.01378684 -93.75445492 177.01378684 -98 181 C-98 159.88 -98 138.76 -98 117 C-96 120 -96 120 -96 122 C-92.40735548 123.19754817 -89.77282526 123.33094958 -86 123 C-83.62448542 121.62978483 -83.62448542 121.62978483 -82 119 C-81.41867641 115.91139056 -81.46670434 112.86558685 -81.49609375 109.73046875 C-81.48667252 108.81727371 -81.47725128 107.90407867 -81.46754456 106.96321106 C-81.43888537 104.0377478 -81.43581267 101.11309207 -81.4375 98.1875 C-81.4054329 72.7582923 -78.55165113 52.74252979 -60.43359375 33.40234375 C-48.38802868 21.51145689 -34.11435567 13.13751028 -18.94287109 5.92871094 C-17.03171247 5.01515886 -15.13459477 4.07672415 -13.23828125 3.1328125 C-12.08714844 2.57335937 -10.93601562 2.01390625 -9.75 1.4375 C-8.22632812 0.69306641 -8.22632812 0.69306641 -6.671875 -0.06640625 C-3.86277867 -1.04794722 -2.72095215 -1.0819024 0 0 Z " fill="#FCFDFE" transform="translate(132,200)"/>
<path d="M0 0 C3.14565046 -0.08845016 6.29097375 -0.14086835 9.4375 -0.1875 C10.31599609 -0.21263672 11.19449219 -0.23777344 12.09960938 -0.26367188 C19.84534698 -0.34941805 26.70855677 0.71497063 32.6875 5.9375 C44.06384492 18.47793603 44.90503719 34.57964465 44.18652344 50.62744141 C43.38725069 60.79410701 37.43725432 70.12912633 29.9375 76.84765625 C17.78071535 85.58534521 5.50455434 87.41639701 -8.99902344 85.17163086 C-26.57132428 82.11331868 -42.61534603 72.85453244 -55 60 C-55 59.67 -55 59.34 -55 59 C-54.01942627 59.03927612 -54.01942627 59.03927612 -53.01904297 59.0793457 C-31.09370642 59.95830107 -31.09370642 59.95830107 -11.9375 50.25 C-7.96138516 46.32552301 -5.21611683 42.11162715 -3 37 C-2.46503906 35.8965625 -1.93007813 34.793125 -1.37890625 33.65625 C0.94704912 27.35764518 0.31377758 20.61176467 0.1875 14 C0.17242476 12.63933774 0.15874138 11.27865931 0.14648438 9.91796875 C0.11130983 6.61156157 0.06208288 3.30599316 0 0 Z " fill="#E1E6F2" transform="translate(297,358)"/>
<path d="M0 0 C-1.98 2.97 -1.98 2.97 -4 6 C-3.41089844 6.95777344 -2.82179687 7.91554688 -2.21484375 8.90234375 C3.84629847 19.405483 4.88715447 27.0873374 3 39 C0.91695462 39.05418326 -1.16649768 39.09287551 -3.25 39.125 C-4.41015625 39.14820313 -5.5703125 39.17140625 -6.765625 39.1953125 C-9.85216691 39.00892712 -11.51148161 38.78936323 -14 37 C-15.01248774 33.96253678 -14.97222604 31.71357345 -14.83447266 28.55371094 C-14.54413025 21.28004618 -14.95959025 16.28337137 -19.1015625 10.015625 C-20 8 -20 8 -19.5078125 5.875 C-17.41078281 3.26729468 -15.42291211 2.74449484 -12.25 1.75 C-11.22390625 1.41484375 -10.1978125 1.0796875 -9.140625 0.734375 C-5.9766566 -0.00545841 -3.23621723 -0.13564982 0 0 Z " fill="#FBFCFE" transform="translate(167,80)"/>
<path d="M0 0 C-3.66777818 3.77746874 -7.51225759 7.20205722 -11.5625 10.5625 C-18.69923008 15.9788746 -18.69923008 15.9788746 -23.0625 23.4375 C-23.37737652 27.08112063 -23.37737652 27.08112063 -20.921875 29.421875 C-17.81557157 32.16273097 -14.62278933 34.51081785 -11.1875 36.8125 C-10.59001953 37.21919922 -9.99253906 37.62589844 -9.37695312 38.04492188 C-7.92125436 39.03479703 -6.46108826 40.01809735 -5 41 C-5.33 41.99 -5.66 42.98 -6 44 C-9.0546875 44.94921875 -9.0546875 44.94921875 -12.875 45.6875 C-14.13054687 45.93886719 -15.38609375 46.19023438 -16.6796875 46.44921875 C-20 47 -20 47 -23 47 C-22.87238281 46.3709375 -22.74476563 45.741875 -22.61328125 45.09375 C-22.26545789 42.09433814 -22.24260332 39.93752746 -23 37 C-26.25232708 33.65118154 -30.00544529 31.37810253 -34 29 C-35.23417674 28.17410479 -36.46472473 27.34268368 -37.6875 26.5 C-38.450625 26.005 -39.21375 25.51 -40 25 C-38.66090347 21.93520412 -37.2945493 20.13337185 -34.69140625 18.046875 C-34.03229248 17.51344482 -33.37317871 16.98001465 -32.6940918 16.43041992 C-31.9906665 15.87588135 -31.28724121 15.32134277 -30.5625 14.75 C-29.8403833 14.17805908 -29.1182666 13.60611816 -28.37426758 13.0168457 C-26.92245198 11.87125353 -25.46797726 10.72902247 -24.01074219 9.59033203 C-22.27147492 8.21471438 -20.57234129 6.80679926 -18.8828125 5.37109375 C-12.58554874 0.26939746 -8.08111072 -1.12541581 0 0 Z " fill="#FBFDFE" transform="translate(175,18)"/>
<path d="M0 0 C7.96229029 0.38527211 14.88993986 2.21196519 20.89453125 7.74609375 C25.50239927 12.95937508 27.76058998 17.40905406 27.54296875 24.4765625 C26.70642176 28.36439958 24.86665962 29.98731186 21.75 32.3359375 C13.98370824 37.03542655 5.78051592 40.68339027 -3 43 C-1.66184567 38.98553702 0.57970773 37.99968076 3.9921875 35.6953125 C7.29784586 32.90415349 8.79591978 30.29761009 9.46875 26.01953125 C9.55680457 16.98293062 7.92268978 10.24074571 1.6875 3.5 C1.130625 3.005 0.57375 2.51 0 2 C0 1.34 0 0.68 0 0 Z " fill="#FDFDFE" transform="translate(203,130)"/>
<path d="M0 0 C2.5 1.5625 2.5 1.5625 4 4 C4.72125695 8.40768137 4.52001338 10.25937488 1.9375 13.9375 C-1.74062512 16.52001338 -3.59231863 16.72125695 -8 16 C-11.26473709 13.85214665 -11.9058033 12.30475404 -13.0625 8.5625 C-13 5 -13 5 -11.0625 2.0625 C-6.86229946 -0.76620649 -4.99614519 -0.71373503 0 0 Z " fill="#468FFF" transform="translate(47,342)"/>
</svg>
