<?xml version="1.0" encoding="UTF-8"?>
<svg version="1.1" xmlns="http://www.w3.org/2000/svg" width="512" height="512">
<path d="M0 0 C0.7734375 -0.00773438 1.546875 -0.01546875 2.34375 -0.0234375 C5.02977045 0.47289237 5.93211776 1.1538335 7.5 3.375 C7.5 4.695 7.5 6.015 7.5 7.375 C13.11 7.375 18.72 7.375 24.5 7.375 C24.83 5.725 25.16 4.075 25.5 2.375 C28.6909164 0.2477224 30.70159774 0.04118588 34.46484375 -0.18359375 C37.73894433 0.71505574 38.70008297 2.55774421 40.5 5.375 C40.87528362 8.24517258 41.02498637 10.72650352 40.98242188 13.59008789 C40.98633438 14.40369278 40.99024689 15.21729767 40.99427795 16.05555725 C41.00024159 17.81631256 40.99710343 19.57711728 40.9858551 21.33784676 C40.9685824 24.12469832 40.97610573 26.91051363 40.9901123 29.69737244 C41.0154446 35.61081906 41.00994224 41.52402116 41 47.4375 C40.98847948 54.29415398 40.98957913 61.1503047 41.02406311 68.00689507 C41.03116559 70.7525274 41.01447092 73.49736553 40.99694824 76.24293518 C41.00265491 77.92506338 41.00947161 79.6071883 41.01757812 81.28930664 C41.00626358 82.05253235 40.99494904 82.81575806 40.98329163 83.60211182 C41.02354167 87.09180299 41.23306686 89.02002942 43.3583374 91.84623718 C46.14185119 93.83316658 47.95655924 93.91492978 51.359375 93.984375 C52.47441406 94.01660156 53.58945312 94.04882812 54.73828125 94.08203125 C55.89714844 94.09621094 57.05601563 94.11039062 58.25 94.125 C59.42433594 94.15464844 60.59867187 94.18429688 61.80859375 94.21484375 C64.70579822 94.28550727 67.60219955 94.33822266 70.5 94.375 C70.5417334 93.81087402 70.5834668 93.24674805 70.62646484 92.66552734 C72.50029033 71.82631666 86.54495971 54.48586762 101.9765625 41.35546875 C128.09671271 20.85559854 160.24639088 10.51107497 192.5 4.375 C193.60972168 4.16327148 194.71944336 3.95154297 195.86279297 3.73339844 C231.03820199 -2.61457327 269.40579174 -2.32077314 304.5 4.375 C305.62647949 4.58930664 306.75295898 4.80361328 307.91357422 5.02441406 C346.21473335 12.59320345 389.02695614 27.28916035 413.125 60.0625 C419.8624428 70.13732725 426.63434663 81.98824071 426.5 94.375 C430.5843728 94.32316332 434.66662471 94.2280929 438.75 94.125 C439.90886719 94.11082031 441.06773437 94.09664063 442.26171875 94.08203125 C443.37675781 94.04980469 444.49179687 94.01757812 445.640625 93.984375 C446.66704102 93.96342773 447.69345703 93.94248047 448.75097656 93.92089844 C452.25247797 93.22557365 453.43489497 92.26923924 455.5 89.375 C456.07454229 86.56506375 456.07454229 86.56506375 455.96875 83.47265625 C455.98292969 82.33505859 455.99710937 81.19746094 456.01171875 80.02539062 C456.00391901 77.63736975 455.99610655 75.24934892 455.98828125 72.86132812 C456.00246094 71.72244141 456.01664062 70.58355469 456.03125 69.41015625 C456.02448242 67.85373413 456.02448242 67.85373413 456.01757812 66.26586914 C456.62874506 62.60350696 457.83200423 60.92537634 460.5 58.375 C461.82 58.375 463.14 58.375 464.5 58.375 C464.5 52.105 464.5 45.835 464.5 39.375 C462.52 38.715 460.54 38.055 458.5 37.375 C454.79172172 32.64035909 456.13072507 25.11962904 456.125 19.4375 C456.10050781 18.16197266 456.07601563 16.88644531 456.05078125 15.57226562 C456.04691406 14.34314453 456.04304688 13.11402344 456.0390625 11.84765625 C456.03084473 10.72625244 456.02262695 9.60484863 456.01416016 8.44946289 C456.60505294 4.71021023 457.87321498 3.05012324 460.5 0.375 C463.24659176 -0.48867436 465.70392209 -0.25526346 468.5 0.375 C471 2.1875 471 2.1875 472.5 4.375 C472.5 5.365 472.5 6.355 472.5 7.375 C478.11 7.375 483.72 7.375 489.5 7.375 C489.83 5.725 490.16 4.075 490.5 2.375 C492.91486943 -0.03986943 493.62707789 0.0788075 496.9375 0.0625 C498.11119141 0.03736328 498.11119141 0.03736328 499.30859375 0.01171875 C502.04886826 0.46598886 502.7738716 1.23808258 504.5 3.375 C504.80168547 6.3646867 504.91993709 9.14680819 504.90405273 12.13818359 C504.91434761 13.48277145 504.91434761 13.48277145 504.92485046 14.85452271 C504.94319568 17.82765425 504.93926615 20.80026128 504.93359375 23.7734375 C504.93815557 25.84551159 504.94346114 27.91758417 504.94947815 29.98965454 C504.95842717 34.34261192 504.95597011 38.69538608 504.94604492 43.04833984 C504.93461982 48.59730028 504.95465799 54.14561823 504.98396206 59.69449425 C505.00242244 63.98080403 505.00201095 68.26696315 504.99632454 72.55330276 C504.99617216 74.59680703 505.00214641 76.64032207 505.01461601 78.6837883 C505.1178185 98.39002206 501.88582323 113.19302533 487.984375 128.05078125 C473.5169573 141.58555096 456.23240195 143.73171688 437.3125 143.5 C435.86914689 143.48994179 434.42578694 143.480821 432.98242188 143.47265625 C429.48813606 143.45088691 425.99411363 143.41651675 422.5 143.375 C422.34072021 144.03129395 422.18144043 144.68758789 422.01733398 145.36376953 C420.15385687 152.64436115 417.61500686 159.39000104 414.5625 166.25 C413.84223633 167.8731311 413.84223633 167.8731311 413.10742188 169.52905273 C405.57279968 186.16882234 396.2254483 201.61405072 385.5 216.375 C384.76499268 217.39400391 384.76499268 217.39400391 384.01513672 218.43359375 C378.28869101 226.34127963 372.39825015 233.88486358 365.71484375 241.01171875 C363.82697126 243.02611532 362.03013714 245.07885875 360.25 247.1875 C354.70742377 253.58897424 348.52100859 259.42914963 342.5 265.375 C343.62535156 266.08462891 343.62535156 266.08462891 344.7734375 266.80859375 C364.27630785 279.40931477 377.24560273 295.37548915 382.5 318.375 C383.325 318.51035156 384.15 318.64570313 385 318.78515625 C409.5314246 323.35741954 432.16831846 337.83889466 446.5 358.375 C461.31184359 380.53866368 467.1401861 407.35375025 462.375 433.6875 C458.47306226 451.71335321 450.41714613 467.35734969 438.5 481.375 C435.99913897 482.62543052 434.81690399 482.19230734 432.0625 481.875 C424.73074421 481.714918 420.59952645 486.69158075 415.5 491.375 C414.84 491.705 414.18 492.035 413.5 492.375 C413.27493973 494.36839099 413.05595654 496.36440493 412.94140625 498.3671875 C412.35572868 501.031243 411.69804398 501.73986972 409.5 503.375 C404.29883074 505.73860828 398.9207697 507.58048519 393.5 509.375 C392.44941406 509.72304688 391.39882813 510.07109375 390.31640625 510.4296875 C364.84677123 517.24322044 338.09282594 512.08673438 315.40625 499.68359375 C308.74655706 495.65223468 303.09470389 490.76215843 297.5 485.375 C296.68015625 484.59511719 295.8603125 483.81523437 295.015625 483.01171875 C290.91344027 479.02348359 287.64488272 475.17342421 284.5 470.375 C284.48598145 472.07027832 284.48598145 472.07027832 284.47167969 473.79980469 C284.43177608 477.99714421 284.36601674 482.19375104 284.29248047 486.390625 C284.2642729 488.20628439 284.24305726 490.02206652 284.22900391 491.83789062 C284.20757091 494.44985789 284.16092115 497.06034974 284.109375 499.671875 C284.10814636 500.48243347 284.10691772 501.29299194 284.10565186 502.12811279 C284.01093088 505.78120763 283.83533281 507.93529292 281.58691406 510.88354492 C278.69671613 512.94908296 276.86377151 513.00110875 273.40625 512.83984375 C271.5 512.375 271.5 512.375 269 510 C267.5 507.375 267.5 507.375 267.5 505.375 C254.96 505.375 242.42 505.375 229.5 505.375 C228.84 507.025 228.18 508.675 227.5 510.375 C224.93922235 512.93577765 223.07117397 512.68951364 219.5703125 512.8359375 C216.41841779 512.1341949 215.43452939 510.96724326 213.5 508.375 C212.91482165 505.31859027 212.99483371 502.30339678 213.04589844 499.20019531 C213.04531433 498.273022 213.04473022 497.34584869 213.04412842 496.39057922 C213.04691386 493.32771288 213.07802801 490.26582121 213.109375 487.203125 C213.11683574 485.07892387 213.12252946 482.95471585 213.12652588 480.83050537 C213.14179526 475.24079369 213.18108868 469.65149804 213.2253418 464.06195068 C213.26626615 458.35776396 213.28453086 452.65350998 213.3046875 446.94921875 C213.34758137 435.75762976 213.41584878 424.56634948 213.5 413.375 C212.82018066 413.65504883 212.14036133 413.93509766 211.43994141 414.22363281 C210.54452637 414.58811523 209.64911133 414.95259766 208.7265625 415.328125 C207.84049316 415.69067383 206.95442383 416.05322266 206.04150391 416.42675781 C191.94567661 421.68595024 170.76064056 419.02574793 157.21875 413.62890625 C138.10402737 404.81306435 125.60295363 390.77999545 117.5 371.375 C109.26098673 348.10836354 110.32078012 322.81934547 120.5 300.375 C127.35311752 286.32790309 137.55036219 275.91792113 150.73828125 267.71484375 C151.44637939 267.27390381 152.15447754 266.83296387 152.8840332 266.37866211 C153.41730225 266.04745361 153.95057129 265.71624512 154.5 265.375 C153.94127197 264.82674561 153.38254395 264.27849121 152.80688477 263.71362305 C133.49765338 244.71927024 133.49765338 244.71927024 125.5 234.375 C123.70345697 232.19489469 121.88308778 230.0350414 120.0625 227.875 C115.28812862 222.19656142 112.87417934 218.95761774 113.5 211.375 C113.87511719 210.44880859 113.87511719 210.44880859 114.2578125 209.50390625 C114.65801874 205.98596429 112.56632957 204.03823465 110.5625 201.25 C106.5 195.54995712 106.5 195.54995712 106.5 193.375 C105.59507813 193.46201172 105.59507813 193.46201172 104.671875 193.55078125 C103.87265625 193.59589844 103.0734375 193.64101562 102.25 193.6875 C101.06664063 193.77451172 101.06664063 193.77451172 99.859375 193.86328125 C96.34575824 193.13612546 95.46732483 191.30209262 93.5 188.375 C87.98599571 179.4659101 83.95123052 169.95432212 80.0625 160.25 C79.62534668 159.15913086 79.18819336 158.06826172 78.73779297 156.94433594 C76.96192583 152.42560792 75.33223638 148.17323578 74.5 143.375 C73.2013501 143.39856567 73.2013501 143.39856567 71.87646484 143.42260742 C68.5923842 143.47444751 65.30875258 143.51168842 62.02441406 143.53979492 C60.61646565 143.55466762 59.2085617 143.57497219 57.80078125 143.60131836 C39.75870675 143.92994186 23.75924163 140.739736 9.625 128.75 C-2.15318092 117.28405362 -7.73793526 103.56550166 -8.00170898 87.31787109 C-8.03585493 83.42756709 -8.01983322 79.53876195 -7.99609375 75.6484375 C-7.99624898 73.56670074 -7.99774184 71.48496369 -8.00050354 69.40322876 C-8.00187991 65.06800362 -7.98944709 60.73311244 -7.96655273 56.39794922 C-7.93799227 50.83715455 -7.94096356 45.27690647 -7.95364285 39.71607018 C-7.96058418 35.43017887 -7.95283142 31.14441465 -7.94038582 26.85853958 C-7.93586874 24.80678417 -7.93553676 22.75501516 -7.93945122 20.70325851 C-7.94235272 17.84794607 -7.92591378 14.99339935 -7.90405273 12.13818359 C-7.90855438 11.29042358 -7.91305603 10.44266357 -7.91769409 9.56921387 C-7.8440797 3.79974706 -7.8440797 3.79974706 -6.11053562 1.65978432 C-3.99368628 -0.02890533 -2.68243824 -0.02682438 0 0 Z " fill="#FD636E" transform="translate(7.5,-0.375)"/>
<path d="M0 0 C0.7734375 -0.00773438 1.546875 -0.01546875 2.34375 -0.0234375 C5.02977045 0.47289237 5.93211776 1.1538335 7.5 3.375 C7.5 4.695 7.5 6.015 7.5 7.375 C13.11 7.375 18.72 7.375 24.5 7.375 C24.83 5.725 25.16 4.075 25.5 2.375 C28.6909164 0.2477224 30.70159774 0.04118588 34.46484375 -0.18359375 C37.73894433 0.71505574 38.70008297 2.55774421 40.5 5.375 C40.87528362 8.24517258 41.02498637 10.72650352 40.98242188 13.59008789 C40.98633438 14.40369278 40.99024689 15.21729767 40.99427795 16.05555725 C41.00024159 17.81631256 40.99710343 19.57711728 40.9858551 21.33784676 C40.9685824 24.12469832 40.97610573 26.91051363 40.9901123 29.69737244 C41.0154446 35.61081906 41.00994224 41.52402116 41 47.4375 C40.98847948 54.29415398 40.98957913 61.1503047 41.02406311 68.00689507 C41.03116559 70.7525274 41.01447092 73.49736553 40.99694824 76.24293518 C41.00265491 77.92506338 41.00947161 79.6071883 41.01757812 81.28930664 C41.00626358 82.05253235 40.99494904 82.81575806 40.98329163 83.60211182 C41.02354167 87.09180299 41.23306686 89.02002942 43.3583374 91.84623718 C46.14185119 93.83316658 47.95655924 93.91492978 51.359375 93.984375 C52.47441406 94.01660156 53.58945312 94.04882812 54.73828125 94.08203125 C55.89714844 94.09621094 57.05601563 94.11039062 58.25 94.125 C59.42433594 94.15464844 60.59867187 94.18429688 61.80859375 94.21484375 C64.70579822 94.28550727 67.60219955 94.33822266 70.5 94.375 C70.5417334 93.81087402 70.5834668 93.24674805 70.62646484 92.66552734 C72.50029033 71.82631666 86.54495971 54.48586762 101.9765625 41.35546875 C128.09671271 20.85559854 160.24639088 10.51107497 192.5 4.375 C193.60972168 4.16327148 194.71944336 3.95154297 195.86279297 3.73339844 C231.03820199 -2.61457327 269.40579174 -2.32077314 304.5 4.375 C305.62647949 4.58930664 306.75295898 4.80361328 307.91357422 5.02441406 C346.21473335 12.59320345 389.02695614 27.28916035 413.125 60.0625 C419.8624428 70.13732725 426.63434663 81.98824071 426.5 94.375 C430.5843728 94.32316332 434.66662471 94.2280929 438.75 94.125 C439.90886719 94.11082031 441.06773437 94.09664063 442.26171875 94.08203125 C443.37675781 94.04980469 444.49179687 94.01757812 445.640625 93.984375 C446.66704102 93.96342773 447.69345703 93.94248047 448.75097656 93.92089844 C452.25247797 93.22557365 453.43489497 92.26923924 455.5 89.375 C456.07454229 86.56506375 456.07454229 86.56506375 455.96875 83.47265625 C455.98292969 82.33505859 455.99710937 81.19746094 456.01171875 80.02539062 C456.00391901 77.63736975 455.99610655 75.24934892 455.98828125 72.86132812 C456.00246094 71.72244141 456.01664062 70.58355469 456.03125 69.41015625 C456.02448242 67.85373413 456.02448242 67.85373413 456.01757812 66.26586914 C456.62874506 62.60350696 457.83200423 60.92537634 460.5 58.375 C461.82 58.375 463.14 58.375 464.5 58.375 C464.5 52.105 464.5 45.835 464.5 39.375 C462.52 38.715 460.54 38.055 458.5 37.375 C454.79172172 32.64035909 456.13072507 25.11962904 456.125 19.4375 C456.10050781 18.16197266 456.07601563 16.88644531 456.05078125 15.57226562 C456.04691406 14.34314453 456.04304688 13.11402344 456.0390625 11.84765625 C456.03084473 10.72625244 456.02262695 9.60484863 456.01416016 8.44946289 C456.60505294 4.71021023 457.87321498 3.05012324 460.5 0.375 C463.24659176 -0.48867436 465.70392209 -0.25526346 468.5 0.375 C471 2.1875 471 2.1875 472.5 4.375 C472.5 5.365 472.5 6.355 472.5 7.375 C478.11 7.375 483.72 7.375 489.5 7.375 C489.83 5.725 490.16 4.075 490.5 2.375 C492.91486943 -0.03986943 493.62707789 0.0788075 496.9375 0.0625 C498.11119141 0.03736328 498.11119141 0.03736328 499.30859375 0.01171875 C502.04886826 0.46598886 502.7738716 1.23808258 504.5 3.375 C504.80168547 6.3646867 504.91993709 9.14680819 504.90405273 12.13818359 C504.91434761 13.48277145 504.91434761 13.48277145 504.92485046 14.85452271 C504.94319568 17.82765425 504.93926615 20.80026128 504.93359375 23.7734375 C504.93815557 25.84551159 504.94346114 27.91758417 504.94947815 29.98965454 C504.95842717 34.34261192 504.95597011 38.69538608 504.94604492 43.04833984 C504.93461982 48.59730028 504.95465799 54.14561823 504.98396206 59.69449425 C505.00242244 63.98080403 505.00201095 68.26696315 504.99632454 72.55330276 C504.99617216 74.59680703 505.00214641 76.64032207 505.01461601 78.6837883 C505.1178185 98.39002206 501.88582323 113.19302533 487.984375 128.05078125 C473.5169573 141.58555096 456.23240195 143.73171688 437.3125 143.5 C435.86914689 143.48994179 434.42578694 143.480821 432.98242188 143.47265625 C429.48813606 143.45088691 425.99411363 143.41651675 422.5 143.375 C422.34072021 144.03129395 422.18144043 144.68758789 422.01733398 145.36376953 C420.15385687 152.64436115 417.61500686 159.39000104 414.5625 166.25 C413.84223633 167.8731311 413.84223633 167.8731311 413.10742188 169.52905273 C405.57279968 186.16882234 396.2254483 201.61405072 385.5 216.375 C384.76499268 217.39400391 384.76499268 217.39400391 384.01513672 218.43359375 C378.28869101 226.34127963 372.39825015 233.88486358 365.71484375 241.01171875 C363.82697126 243.02611532 362.03013714 245.07885875 360.25 247.1875 C354.70742377 253.58897424 348.52100859 259.42914963 342.5 265.375 C343.62535156 266.08462891 343.62535156 266.08462891 344.7734375 266.80859375 C364.27630785 279.40931477 377.24560273 295.37548915 382.5 318.375 C383.325 318.51035156 384.15 318.64570313 385 318.78515625 C409.5314246 323.35741954 432.16831846 337.83889466 446.5 358.375 C461.31184359 380.53866368 467.1401861 407.35375025 462.375 433.6875 C458.47306226 451.71335321 450.41714613 467.35734969 438.5 481.375 C435.99913897 482.62543052 434.81690399 482.19230734 432.0625 481.875 C424.73074421 481.714918 420.59952645 486.69158075 415.5 491.375 C414.84 491.705 414.18 492.035 413.5 492.375 C413.27493973 494.36839099 413.05595654 496.36440493 412.94140625 498.3671875 C412.35572868 501.031243 411.69804398 501.73986972 409.5 503.375 C404.29883074 505.73860828 398.9207697 507.58048519 393.5 509.375 C392.44941406 509.72304688 391.39882813 510.07109375 390.31640625 510.4296875 C364.84677123 517.24322044 338.09282594 512.08673438 315.40625 499.68359375 C308.74655706 495.65223468 303.09470389 490.76215843 297.5 485.375 C296.68015625 484.59511719 295.8603125 483.81523437 295.015625 483.01171875 C290.91344027 479.02348359 287.64488272 475.17342421 284.5 470.375 C284.48598145 472.07027832 284.48598145 472.07027832 284.47167969 473.79980469 C284.43177608 477.99714421 284.36601674 482.19375104 284.29248047 486.390625 C284.2642729 488.20628439 284.24305726 490.02206652 284.22900391 491.83789062 C284.20757091 494.44985789 284.16092115 497.06034974 284.109375 499.671875 C284.10814636 500.48243347 284.10691772 501.29299194 284.10565186 502.12811279 C284.01093088 505.78120763 283.83533281 507.93529292 281.58691406 510.88354492 C279.33736937 512.49122725 278.2374499 512.94284658 275.5 512.9375 C274.84 512.95941406 274.18 512.98132813 273.5 513.00390625 C270.30015949 511.9977064 269.2913646 510.15935115 267.5 507.375 C267.12418607 504.57226373 266.97769529 502.17152373 267.02330017 499.37559509 C267.01900721 498.17519737 267.01900721 498.17519737 267.01462752 496.95054919 C267.01004527 494.27125231 267.03420418 491.59299895 267.05834961 488.91381836 C267.06115535 486.99169075 267.06226257 485.06956002 267.0617981 483.14743042 C267.06603211 477.92582293 267.09591462 472.70465344 267.13169551 467.4831779 C267.1592616 463.11984323 267.17430083 458.75650243 267.1893273 454.39310938 C267.22497968 444.09176292 267.28129216 433.79067144 267.35083008 423.48950195 C267.42213693 412.87925727 267.46094465 402.26925476 267.48320192 391.65880293 C267.50336946 382.53914691 267.54284262 373.41971489 267.59784323 364.30020243 C267.63053662 358.85827648 267.65628705 353.41655519 267.66389275 347.97453117 C267.67198406 342.850008 267.70435742 337.72618451 267.75488663 332.60190964 C267.76943821 330.72836366 267.77570639 328.85473078 267.77276421 326.9811306 C267.75836363 313.06674312 269.45583689 300.93645907 279.5 290.375 C284.35783269 285.72379602 289.55557466 282.45618337 295.4375 279.25 C304.74127967 274.00956638 313.19877797 268.07782304 321.5 261.375 C322.09619141 260.89450195 322.69238281 260.41400391 323.30664062 259.91894531 C336.6602155 249.04616136 348.93146533 236.98222727 359.5 223.375 C360.35346472 222.32129032 361.2090389 221.26928669 362.06640625 220.21875 C380.74446369 197.16737561 395.88851645 171.62917058 405.375 143.5 C405.75664307 142.37094238 406.13828613 141.24188477 406.53149414 140.07861328 C413.25339998 119.51837869 414.82342444 97.42376421 404.8125 77.625 C386.21362821 46.20735693 350.21582679 32.44638607 316.53808594 23.59667969 C310.8989882 22.2544301 305.22756883 21.25294851 299.5 20.375 C298.63052734 20.23513672 297.76105469 20.09527344 296.86523438 19.95117188 C280.382381 17.31627847 264.0108841 16.13913939 247.3125 16.125 C246.5821051 16.12432526 245.85171021 16.12365051 245.09918213 16.12295532 C207.82291018 16.17693504 170.11295055 22.79004753 136.5 39.375 C135.88946777 39.6740625 135.27893555 39.973125 134.64990234 40.28125 C114.46988518 50.29581404 96.78445809 64.94726664 88.5 86.375 C88.0875 87.426875 87.675 88.47875 87.25 89.5625 C79.67795921 117.95765298 91.45040643 151.06228138 105.375 175.69140625 C105.931875 176.63886719 106.48875 177.58632812 107.0625 178.5625 C108.81606382 181.66459251 109.91938805 183.78381396 109.5625 187.375 C107.90450375 192.05640117 107.90450375 192.05640117 105.5 193.375 C99.92607683 194.08279977 99.92607683 194.08279977 97.5 193.375 C89.05742233 184.46067907 84.55143011 171.45211943 80.0625 160.25 C79.62534668 159.15913086 79.18819336 158.06826172 78.73779297 156.94433594 C76.96192583 152.42560792 75.33223638 148.17323578 74.5 143.375 C73.2013501 143.39856567 73.2013501 143.39856567 71.87646484 143.42260742 C68.5923842 143.47444751 65.30875258 143.51168842 62.02441406 143.53979492 C60.61646565 143.55466762 59.2085617 143.57497219 57.80078125 143.60131836 C39.75870675 143.92994186 23.75924163 140.739736 9.625 128.75 C-2.15318092 117.28405362 -7.73793526 103.56550166 -8.00170898 87.31787109 C-8.03585493 83.42756709 -8.01983322 79.53876195 -7.99609375 75.6484375 C-7.99624898 73.56670074 -7.99774184 71.48496369 -8.00050354 69.40322876 C-8.00187991 65.06800362 -7.98944709 60.73311244 -7.96655273 56.39794922 C-7.93799227 50.83715455 -7.94096356 45.27690647 -7.95364285 39.71607018 C-7.96058418 35.43017887 -7.95283142 31.14441465 -7.94038582 26.85853958 C-7.93586874 24.80678417 -7.93553676 22.75501516 -7.93945122 20.70325851 C-7.94235272 17.84794607 -7.92591378 14.99339935 -7.90405273 12.13818359 C-7.90855438 11.29042358 -7.91305603 10.44266357 -7.91769409 9.56921387 C-7.8440797 3.79974706 -7.8440797 3.79974706 -6.11053562 1.65978432 C-3.99368628 -0.02890533 -2.68243824 -0.02682438 0 0 Z " fill="#010101" transform="translate(7.5,-0.375)"/>
<path d="M0 0 C14.68024128 5.69517698 27.03534707 12.7689061 39 23 C40.04607422 23.89138672 40.04607422 23.89138672 41.11328125 24.80078125 C53.2016803 35.99991876 61.56147063 52.32999358 62.3359375 68.83984375 C63.1385226 113.78899519 37.31817823 156.76315001 9 190 C8.11241755 191.07220227 7.22574611 192.14515914 6.33984375 193.21875 C-4.54686964 206.2992079 -16.41431831 218.70209107 -30 229 C-30.53351074 229.41523926 -31.06702148 229.83047852 -31.61669922 230.25830078 C-39.05373944 236.0389189 -46.66134004 241.07192304 -54.875 245.6875 C-68.48592858 253.42195991 -75.96643878 260.89931635 -81 276 C-81.10544386 278.5964791 -81.15483162 281.16680404 -81.15821838 283.76371765 C-81.16315636 284.56257364 -81.16809434 285.36142962 -81.17318195 286.18449336 C-81.18857964 288.86998238 -81.19692372 291.55544744 -81.20532227 294.2409668 C-81.214899 296.16256929 -81.22490896 298.08416967 -81.23532104 300.00576782 C-81.2623983 305.23061664 -81.2833926 310.45547452 -81.30332303 315.68035483 C-81.32516519 321.13765353 -81.35256253 326.59492421 -81.37937927 332.05220032 C-81.42933012 342.39000595 -81.47426008 352.72782711 -81.51740164 363.06566316 C-81.56675357 374.83336288 -81.62167928 386.60103451 -81.67708123 398.36870706 C-81.79093801 422.57911313 -81.89703314 446.78954499 -82 471 C-94.87 471 -107.74 471 -121 471 C-121.66 472.65 -122.32 474.3 -123 476 C-125.56077765 478.56077765 -127.42882603 478.31451364 -130.9296875 478.4609375 C-134.08158221 477.7591949 -135.06547061 476.59224326 -137 474 C-137.58517835 470.94359027 -137.50516629 467.92839678 -137.45410156 464.82519531 C-137.45468567 463.898022 -137.45526978 462.97084869 -137.45587158 462.01557922 C-137.45308614 458.95271288 -137.42197199 455.89082121 -137.390625 452.828125 C-137.38316426 450.70392387 -137.37747054 448.57971585 -137.37347412 446.45550537 C-137.35820474 440.86579369 -137.31891132 435.27649804 -137.2746582 429.68695068 C-137.23373385 423.98276396 -137.21546914 418.27850998 -137.1953125 412.57421875 C-137.15241863 401.38262976 -137.08415122 390.19134948 -137 379 C-137.67981934 379.28004883 -138.35963867 379.56009766 -139.06005859 379.84863281 C-139.95547363 380.21311523 -140.85088867 380.57759766 -141.7734375 380.953125 C-142.65950684 381.31567383 -143.54557617 381.67822266 -144.45849609 382.05175781 C-158.55432339 387.31095024 -179.73935944 384.65074793 -193.28125 379.25390625 C-212.39597263 370.43806435 -224.89704637 356.40499545 -233 337 C-241.23901327 313.73336354 -240.17921988 288.44434547 -230 266 C-223.14688248 251.95290309 -212.94963781 241.54292113 -199.76171875 233.33984375 C-199.05362061 232.89890381 -198.34552246 232.45796387 -197.6159668 232.00366211 C-197.08269775 231.67245361 -196.54942871 231.34124512 -196 231 C-196.55872803 230.45174561 -197.11745605 229.90349121 -197.69311523 229.33862305 C-217.00234662 210.34427024 -217.00234662 210.34427024 -225 200 C-226.79654303 197.81989469 -228.61691222 195.6600414 -230.4375 193.5 C-237.44988655 185.15975935 -237.44988655 185.15975935 -237.2421875 178.87109375 C-237 177 -237 177 -235.9375 175.0625 C-232.88826749 173.39034023 -230.46758942 173.05978602 -227 173 C-222.94861366 175.70308497 -220.30845494 178.97905099 -217.4375 182.875 C-205.07642488 199.30271001 -191.26134733 214.36109915 -175 227 C-174.17886719 227.72832031 -173.35773438 228.45664062 -172.51171875 229.20703125 C-167.95189607 232.46202131 -163.37976568 231.65105445 -158 231 C-126.28391992 224.9948516 -95.80380585 210.54441443 -71 190 C-70.41734375 189.51885742 -69.8346875 189.03771484 -69.234375 188.54199219 C-58.02050102 179.22704879 -48.04775077 169.47370755 -39 158 C-38.18402344 156.989375 -37.36804688 155.97875 -36.52734375 154.9375 C-10.92219758 122.87527456 4.15602599 81.90574831 4.3125 40.9375 C4.31644775 40.18954163 4.32039551 39.44158325 4.32446289 38.67095947 C4.35697808 25.44682071 2.94643838 12.91697541 0 0 Z " fill="#FB4654" transform="translate(358,34)"/>
<path d="M0 0 C13.80142139 11.04806379 23.87624415 25.64475878 28.86328125 42.6796875 C29.2190625 43.83726562 29.57484375 44.99484375 29.94140625 46.1875 C35.01479857 67.01331161 30.41178127 89.53526129 20.01025391 107.82519531 C17.53523984 111.82694219 14.58994589 115.44791061 11.55078125 119.03125 C9.11527089 122.85364821 9.45413356 125.73623597 10.36328125 130.0546875 C10.52828125 130.5909375 10.69328125 131.1271875 10.86328125 131.6796875 C6.39021017 135.72134563 1.98051301 139.48141765 -3.13671875 142.6796875 C-3.65234375 142.3703125 -4.16796875 142.0609375 -4.69921875 141.7421875 C-9.38556642 139.69942057 -13.01619479 139.34191639 -17.93359375 140.82421875 C-19.2563387 141.36811714 -20.57396258 141.92460411 -21.88671875 142.4921875 C-41.7524013 150.40309942 -63.55788832 149.87229791 -83.26171875 141.4921875 C-105.52865241 131.43452689 -119.94819618 115.13431408 -129.13671875 92.6796875 C-136.25440856 73.0714214 -135.15760897 50.28188357 -126.40087891 31.43530273 C-116.30556258 10.84853706 -100.03533399 -5.61471956 -78.13671875 -13.3203125 C-51.0440176 -21.93974442 -22.9326702 -16.96389302 0 0 Z " fill="#B992DF" transform="translate(424.13671875,349.3203125)"/>
<path d="M0 0 C2.58984375 2.37109375 2.58984375 2.37109375 4.9375 5.4375 C5.57679443 6.25166382 5.57679443 6.25166382 6.22900391 7.08227539 C7.50312364 8.70910004 8.75270328 10.35256927 10 12 C16.2794836 20.06133315 22.96571079 27.59738558 30 35 C30.78632813 35.82886719 31.57265625 36.65773437 32.3828125 37.51171875 C37.88365702 43.16043543 43.81334415 48.12142697 50 53 C51.010625 53.81597656 52.02125 54.63195312 53.0625 55.47265625 C61.89174578 62.51967715 71.35185997 68.15458902 81.11328125 73.80078125 C92.65637986 80.74579909 98.76240302 89.28720905 103 102 C103.11396492 104.61017575 103.17230588 107.19502824 103.18513489 109.80599976 C103.19289513 110.60949502 103.20065537 111.41299028 103.20865077 112.24083388 C103.23344086 114.94227602 103.25113595 117.64371737 103.26879883 120.34521484 C103.28492191 122.27840987 103.30142058 124.2116018 103.31826782 126.14479065 C103.37169927 132.50012775 103.4145857 138.85551916 103.45703125 145.2109375 C103.47222778 147.3972236 103.48748867 149.58350926 103.50281334 151.76979446 C103.57415984 162.03788862 103.64069235 172.30600032 103.70140249 182.57416284 C103.77170718 194.43675395 103.85861958 206.29907335 103.95958501 218.16144216 C104.03650266 227.32491673 104.09803949 236.48841547 104.14799136 245.65207636 C104.17821877 251.12800258 104.21514945 256.60369283 104.26828957 262.0794487 C104.31788473 267.22906058 104.34845286 272.37843451 104.36432266 277.52825737 C104.37345663 279.41934927 104.38949446 281.31042217 104.41290474 283.20139122 C104.443794 285.78124826 104.44991035 288.36001808 104.44978333 290.94003296 C104.47207362 292.06489233 104.47207362 292.06489233 104.49481422 293.21247613 C104.46797113 296.86879367 104.09220689 298.85637104 102.09688854 301.9644413 C100 304 100 304 98 304.62890625 C97.34 304.60699219 96.68 304.58507812 96 304.5625 C95.34 304.56378906 94.68 304.56507813 94 304.56640625 C90.95679115 303.70455999 89.90717131 302.54307854 88 300 C87.41427953 296.94375347 87.49483503 293.92831668 87.54589844 290.82519531 C87.54531433 289.898022 87.54473022 288.97084869 87.54412842 288.01557922 C87.54691386 284.95271288 87.57802801 281.89082121 87.609375 278.828125 C87.61683574 276.70392387 87.62252946 274.57971585 87.62652588 272.45550537 C87.64179526 266.86579369 87.68108868 261.27649804 87.7253418 255.68695068 C87.76626615 249.98276396 87.78453086 244.27850998 87.8046875 238.57421875 C87.84758137 227.38262976 87.91584878 216.19134948 88 205 C87.32018066 205.28004883 86.64036133 205.56009766 85.93994141 205.84863281 C85.04452637 206.21311523 84.14911133 206.57759766 83.2265625 206.953125 C82.34049316 207.31567383 81.45442383 207.67822266 80.54150391 208.05175781 C66.44567661 213.31095024 45.26064056 210.65074793 31.71875 205.25390625 C12.60402737 196.43806435 0.10295363 182.40499545 -8 163 C-16.23901327 139.73336354 -15.17921988 114.44434547 -5 92 C1.85311752 77.95290309 12.05036219 67.54292113 25.23828125 59.33984375 C25.94637939 58.89890381 26.65447754 58.45796387 27.3840332 58.00366211 C27.91730225 57.67245361 28.45057129 57.34124512 29 57 C28.44127197 56.45174561 27.88254395 55.90349121 27.30688477 55.33862305 C7.99765338 36.34427024 7.99765338 36.34427024 0 26 C-1.79654303 23.81989469 -3.61691222 21.6600414 -5.4375 19.5 C-12.41277643 11.20389658 -12.41277643 11.20389658 -12.26171875 4.87109375 C-12 3 -12 3 -10.625 1.0625 C-6.77958975 -1.4518067 -4.48153704 -1.09781024 0 0 Z " fill="#010000" transform="translate(133,208)"/>
<path d="M0 0 C13.80142139 11.04806379 23.87624415 25.64475878 28.86328125 42.6796875 C29.2190625 43.83726562 29.57484375 44.99484375 29.94140625 46.1875 C35.01479857 67.01331161 30.41178127 89.53526129 20.01025391 107.82519531 C17.53523984 111.82694219 14.58994589 115.44791061 11.55078125 119.03125 C9.11527089 122.85364821 9.45413356 125.73623597 10.36328125 130.0546875 C10.52828125 130.5909375 10.69328125 131.1271875 10.86328125 131.6796875 C6.39021017 135.72134563 1.98051301 139.48141765 -3.13671875 142.6796875 C-3.65234375 142.3703125 -4.16796875 142.0609375 -4.69921875 141.7421875 C-9.38556642 139.69942057 -13.01619479 139.34191639 -17.93359375 140.82421875 C-19.2563387 141.36811714 -20.57396258 141.92460411 -21.88671875 142.4921875 C-41.7524013 150.40309942 -63.55788832 149.87229791 -83.26171875 141.4921875 C-105.52865241 131.43452689 -119.94819618 115.13431408 -129.13671875 92.6796875 C-136.25440856 73.0714214 -135.15760897 50.28188357 -126.40087891 31.43530273 C-116.30556258 10.84853706 -100.03533399 -5.61471956 -78.13671875 -13.3203125 C-51.0440176 -21.93974442 -22.9326702 -16.96389302 0 0 Z M-65.13671875 6.6796875 C-66.50492926 8.65599157 -67.84623067 10.65177766 -69.13671875 12.6796875 C-72.41833533 15.1737161 -75.57044576 14.74452303 -79.48413086 14.54931641 C-89.36329211 14.00780053 -89.36329211 14.00780053 -97.7265625 18.78125 C-101.86665313 24.35489002 -102.48743244 28.54940133 -102.13671875 35.2421875 C-101.65957723 44.39535241 -101.65957723 44.39535241 -105.13671875 48.6796875 C-107.07421875 50.26953125 -107.07421875 50.26953125 -109.13671875 51.6171875 C-113.42606717 54.72381117 -115.59951216 57.40150635 -116.48046875 62.77734375 C-116.83874559 67.99922866 -115.74167162 71.54943321 -112.7734375 75.8359375 C-110.4468685 78.45679805 -107.73776493 80.31520517 -104.87890625 82.31640625 C-102.47653603 84.19628788 -101.6613047 85.68205349 -101.13671875 88.6796875 C-101.40469226 90.68948881 -101.74658159 92.689988 -102.13671875 94.6796875 C-102.65034805 101.04869087 -101.80236184 105.36391569 -98.13671875 110.6796875 C-92.97251641 115.47501825 -89.71638056 115.74982069 -82.88671875 115.5546875 C-82.13519531 115.52503906 -81.38367188 115.49539063 -80.609375 115.46484375 C-75.6849185 115.37030794 -72.37616649 115.88479232 -68.13671875 118.6796875 C-66.484375 120.58203125 -66.484375 120.58203125 -65.19921875 122.6171875 C-62.24762825 126.79092094 -59.86978418 128.68681785 -55.13671875 130.6796875 C-49.26923951 131.53313903 -44.90502474 130.01362502 -40.13671875 126.6796875 C-38.43217446 124.99049947 -36.93290533 123.25701637 -35.4609375 121.36328125 C-31.92543714 116.86829407 -31.92543714 116.86829407 -28.26171875 115.9921875 C-24.68639804 115.5805301 -21.16625736 115.76069605 -17.57421875 115.8671875 C-12.20208712 115.90415171 -9.17431187 115.51022456 -5.13671875 111.6796875 C0.23703506 105.57975074 -0.05237756 101.14348488 -0.17578125 93.33203125 C-0.18738281 92.14673828 -0.18738281 92.14673828 -0.19921875 90.9375 C-0.21082031 90.2170752 -0.22242188 89.49665039 -0.234375 88.75439453 C-0.13161055 86.57116377 0.13476811 84.74248829 0.86328125 82.6796875 C1.56453125 82.4321875 2.26578125 82.1846875 2.98828125 81.9296875 C7.37654527 80.02174662 10.05633578 76.49019143 12.86328125 72.6796875 C14.69333878 67.18951491 14.80004127 61.7093342 12.36328125 56.4296875 C9.70075721 53.50091106 6.94830557 51.36289242 3.66796875 49.171875 C1.4734057 47.35732287 0.72625092 46.4124248 -0.13671875 43.6796875 C-0.30494033 39.92017543 -0.08496215 36.16523907 0.1171875 32.41015625 C0.27163173 26.95009855 -0.50269545 24.02600575 -4.13671875 19.6796875 C-10.1331777 14.26824893 -15.21787179 14.59302341 -22.88867188 14.80664062 C-30.16428019 14.9142867 -30.16428019 14.9142867 -33.13671875 12.6796875 C-34.69921875 10.83984375 -34.69921875 10.83984375 -36.13671875 8.7421875 C-38.92126022 4.694009 -41.4160672 2.25323802 -46.13671875 0.6796875 C-54.22857043 -0.3530367 -59.4341237 0.69263996 -65.13671875 6.6796875 Z " fill="#A0F2C0" transform="translate(424.13671875,349.3203125)"/>
<path d="M0 0 C2.37161491 1.44011315 4.61316149 2.90574476 6.875 4.5 C12.78272846 8.56257491 18.7852084 12.35871717 24.98779297 15.95507812 C30.16277919 18.98726316 34.64676235 21.83334305 37.75 27.0625 C38.15734375 27.73410156 38.5646875 28.40570313 38.984375 29.09765625 C41.13528947 33.1264845 41.17145272 36.82126797 41.20874023 41.26611328 C41.21852402 42.00311966 41.2283078 42.74012604 41.23838806 43.49946594 C41.26831031 45.93972989 41.28972285 48.37993894 41.30859375 50.8203125 C41.31516558 51.65583523 41.3217374 52.49135796 41.32850838 53.35219955 C41.36109386 57.77807675 41.38554235 62.20393002 41.4050293 66.62988281 C41.42281251 70.28291122 41.45758479 73.93516335 41.50756836 77.58789062 C41.56796211 82.0070038 41.59853144 86.42539966 41.60820198 90.84490585 C41.61672804 92.52336856 41.63547559 94.20181358 41.6649456 95.88003922 C41.9275984 111.69348272 41.9275984 111.69348272 36.63703918 118.40341187 C30.92689674 123.97245735 25.05781794 124.51166475 17.28515625 124.546875 C16.11855469 124.53140625 14.95195312 124.5159375 13.75 124.5 C12.59886719 124.51546875 11.44773438 124.5309375 10.26171875 124.546875 C-3.80129776 124.48345666 -14.34654094 119.94150938 -24.6875 110.5625 C-25.8321875 109.2940625 -25.8321875 109.2940625 -27 108 C-27.54140625 107.45085937 -28.0828125 106.90171875 -28.640625 106.3359375 C-41.18558822 93.08191115 -45.6689814 75.08983225 -45.25 57.31640625 C-44.49901073 40.40788287 -37.5278835 22.34819715 -25.015625 10.625 C-8.56016053 -2.64142096 -8.56016053 -2.64142096 0 0 Z " fill="#F6A5AE" transform="translate(180,278)"/>
<path d="M0 0 C2.94137757 2.12052801 5.04409811 4.39372241 7.29296875 7.21875 C9.2293317 9.60530377 10.92160473 11.55455237 13.6875 12.9375 C17.20181358 12.93008584 20.70354811 12.86118078 24.21484375 12.72265625 C29.86816154 12.61412833 34.03180683 13.45843251 38.33203125 17.47265625 C43.02026779 23.60342712 42.75539144 27.81021038 42.56054688 35.28515625 C42.54411133 36.47044922 42.54411133 36.47044922 42.52734375 37.6796875 C42.51050537 38.4001123 42.49366699 39.12053711 42.47631836 39.86279297 C42.81460769 43.18624123 43.92838759 45.30983563 46.4921875 47.4296875 C47.17539062 47.88601563 47.85859375 48.34234375 48.5625 48.8125 C52.2399261 51.50036416 54.73632903 53.70996289 56.6875 57.9375 C57.52971493 63.86204637 57.22685254 68.96028549 53.6875 73.9375 C51.1683215 76.46698189 48.59050747 78.85423774 45.6875 80.9375 C45.0275 80.9375 44.3675 80.9375 43.6875 80.9375 C42.87516475 83.75364814 42.6013568 86.13153862 42.73046875 89.0546875 C42.76237305 90.21291016 42.76237305 90.21291016 42.79492188 91.39453125 C42.84806316 92.99913876 42.91306125 94.60339988 42.99023438 96.20703125 C43.11256081 101.65282283 42.30758519 104.60785183 38.6875 108.9375 C32.75860869 114.16057092 28.66627795 114.02310193 21.07226562 113.81054688 C16.852152 113.74821679 13.44435359 113.7642836 9.6875 115.9375 C8.04418042 117.71517747 8.04418042 117.71517747 6.75 119.8125 C3.43304259 124.52292148 0.23527023 127.08824326 -5.3125 128.9375 C-10.77156043 129.5797424 -13.96781345 128.55933032 -18.3984375 125.57421875 C-21.07005413 123.28971392 -22.92049517 120.66565264 -24.79296875 117.70703125 C-26.83557967 115.32836095 -28.2716006 114.74146382 -31.3125 113.9375 C-34.89469076 113.88847686 -38.41272779 113.98541706 -41.98632812 114.19140625 C-47.27851709 114.35134796 -50.10831438 113.4556733 -54.3125 109.9375 C-58.59938322 104.26027628 -59.70102695 99.97117763 -59.3125 92.9375 C-59.085625 91.90625 -58.85875 90.875 -58.625 89.8125 C-58.19171112 85.82624235 -59.04344044 84.23795026 -61.3125 80.9375 C-62.59461468 79.91887075 -63.9106199 78.94206399 -65.25 78 C-69.92216651 74.67871773 -72.61310901 71.62762007 -73.72265625 65.7734375 C-74.06876792 60.60838636 -72.88664547 57.02075008 -69.953125 52.7890625 C-67.60547873 50.139576 -64.93505267 48.19740767 -61.984375 46.26171875 C-60.01175689 44.94748298 -60.01175689 44.94748298 -59.3125 41.9375 C-59.35371916 39.96928502 -59.39910009 38.00091993 -59.47998047 36.03393555 C-59.91899731 23.88304042 -59.91899731 23.88304042 -55.9921875 18.48046875 C-51.24420713 14.1189519 -47.98227888 12.51450706 -41.63085938 12.73242188 C-40.84517578 12.77947266 -40.05949219 12.82652344 -39.25 12.875 C-31.77564323 13.39542851 -31.77564323 13.39542851 -25.3125 9.9375 C-23.65579588 8.03413191 -23.65579588 8.03413191 -22.3125 5.9375 C-16.55804782 -1.94769392 -9.209985 -2.95414613 0 0 Z M-10.3125 13.9375 C-13.32950197 17.53416734 -13.32950197 17.53416734 -14.3125 21.9375 C-14.89644531 22.22367187 -15.48039062 22.50984375 -16.08203125 22.8046875 C-18.26248432 23.8765865 -18.26248432 23.8765865 -20.07421875 25.0078125 C-27.70804375 29.18860915 -35.8802235 28.28602119 -44.3125 27.9375 C-44.11720703 29.24460937 -44.11720703 29.24460937 -43.91796875 30.578125 C-42.84735136 39.82345652 -44.1486731 45.70267036 -48.3125 53.9375 C-48.6425 54.9275 -48.9725 55.9175 -49.3125 56.9375 C-51.0625 57.9375 -51.0625 57.9375 -53.3125 58.9375 C-54.98584039 59.92629205 -56.65401823 60.92398336 -58.3125 61.9375 C-57.94450914 64.45477082 -57.71837923 65.61977115 -55.67578125 67.21875 C-54.99902344 67.6209375 -54.32226562 68.023125 -53.625 68.4375 C-48.10213759 72.34828365 -45.59813063 77.68786052 -43.3125 83.9375 C-42.875 87.6875 -42.875 87.6875 -43.3125 90.9375 C-43.39371094 91.66324219 -43.47492188 92.38898438 -43.55859375 93.13671875 C-43.77837202 95.07414876 -44.04149222 97.00656957 -44.3125 98.9375 C-43.28511719 98.87949219 -42.25773437 98.82148438 -41.19921875 98.76171875 C-31.48347925 98.37736757 -22.93362813 98.74789282 -15.37890625 105.72265625 C-13.08301995 108.31585157 -11.23368377 111.05572434 -9.3125 113.9375 C-5.95977495 112.54942912 -4.62192783 111.19402275 -2.75 108.125 C1.06991707 102.92119238 5.45945221 100.50741027 11.6875 98.9375 C17.02092681 98.41664276 22.34689109 98.63595997 27.6875 98.9375 C27.62949219 97.82632813 27.57148438 96.71515625 27.51171875 95.5703125 C26.89925754 79.02082868 26.89925754 79.02082868 32.6875 71.9375 C35.52154661 69.32145698 38.46730572 67.05623349 41.6875 64.9375 C41.31675452 62.34781516 41.02553075 61.21906337 38.98046875 59.515625 C38.28566406 59.07734375 37.59085937 58.6390625 36.875 58.1875 C31.55168075 54.43828053 29.69526069 49.96078207 27.6875 43.9375 C27.61698886 41.19884713 27.59392235 38.48722412 27.625 35.75 C27.62951172 35.00041016 27.63402344 34.25082031 27.63867188 33.47851562 C27.65043646 31.63147617 27.66837135 29.78447787 27.6875 27.9375 C26.23730469 28.00710938 26.23730469 28.00710938 24.7578125 28.078125 C15.15275146 28.34440392 7.98770373 27.39415461 -0.1875 22.0625 C-2.3125 19.9375 -2.3125 19.9375 -4.375 16.6875 C-5.014375 15.78 -5.65375 14.8725 -6.3125 13.9375 C-7.6325 13.9375 -8.9525 13.9375 -10.3125 13.9375 Z " fill="#020303" transform="translate(381.3125,351.0625)"/>
<path d="M0 0 C2.37161491 1.44011315 4.61316149 2.90574476 6.875 4.5 C12.78272846 8.56257491 18.7852084 12.35871717 24.98779297 15.95507812 C30.16277919 18.98726316 34.64676235 21.83334305 37.75 27.0625 C38.15734375 27.73410156 38.5646875 28.40570313 38.984375 29.09765625 C41.13528947 33.1264845 41.17145272 36.82126797 41.20874023 41.26611328 C41.21852402 42.00311966 41.2283078 42.74012604 41.23838806 43.49946594 C41.26831031 45.93972989 41.28972285 48.37993894 41.30859375 50.8203125 C41.31516558 51.65583523 41.3217374 52.49135796 41.32850838 53.35219955 C41.36109386 57.77807675 41.38554235 62.20393002 41.4050293 66.62988281 C41.42281251 70.28291122 41.45758479 73.93516335 41.50756836 77.58789062 C41.56796211 82.0070038 41.59853144 86.42539966 41.60820198 90.84490585 C41.61672804 92.52336856 41.63547559 94.20181358 41.6649456 95.88003922 C41.927544 111.69020704 41.927544 111.69020704 36.65077209 118.40036011 C32.89626959 122.03856795 29.44286782 123.87871091 24.17260742 124.14038086 C22.71624878 124.11536499 22.71624878 124.11536499 21.23046875 124.08984375 C20.24844482 124.07687256 19.2664209 124.06390137 18.25463867 124.05053711 C17.51060791 124.03385986 16.76657715 124.01718262 16 124 C15.99413376 123.0486618 15.98826752 122.09732361 15.98222351 121.11715698 C15.92495567 112.14201319 15.85217283 103.16711075 15.76428509 94.19221306 C15.71959968 89.57835519 15.68033953 84.96458526 15.65356445 80.35058594 C15.62751321 75.89596707 15.58709794 71.4416869 15.53681374 66.98727798 C15.52015733 65.28971705 15.50863541 63.59209755 15.50238609 61.8944664 C15.49273151 59.51245556 15.46465714 57.13130878 15.43237305 54.74951172 C15.43380814 54.05107651 15.43524323 53.3526413 15.4367218 52.63304138 C15.3253787 46.80630907 13.63272803 42.91236653 9.87890625 38.515625 C6.1191053 35.23026297 2.09182147 32.50957148 -2.0625 29.75 C-9.55046543 24.7084053 -16.85597104 19.51844154 -24 14 C-25.98 15.32 -27.96 16.64 -30 18 C-26.05164087 8.91474507 -16.62425225 4.41253698 -8.234375 0.15234375 C-4.67989739 -1.11404622 -3.47667808 -1.33760045 0 0 Z " fill="#F38996" transform="translate(180,278)"/>
<path d="M0 0 C3.63999141 0.12085909 5.47227379 0.24630475 8.5 2.44140625 C10 4.62890625 10 4.62890625 10 7.62890625 C15.61 7.62890625 21.22 7.62890625 27 7.62890625 C27.04527836 18.42570637 27.08193203 29.22244289 27.10362434 40.01931667 C27.11403828 45.03334025 27.12815368 50.0472952 27.15087891 55.0612793 C27.1726927 59.90476718 27.18458659 64.74818926 27.18975449 69.59172249 C27.19343496 71.43478493 27.20062183 73.27784398 27.21146011 75.12087822 C27.22608864 77.71274324 27.22797323 80.30434023 27.22705078 82.89624023 C27.23424133 83.64934479 27.24143188 84.40244934 27.24884033 85.17837524 C27.2028695 97.20328394 23.26442085 107.95113874 15.01171875 116.8125 C4.11996202 126.64680462 -7.46634665 128.08124004 -21.5625 127.81640625 C-22.96678247 127.80132736 -24.37108066 127.78764464 -25.77539062 127.77539062 C-29.18376239 127.74025277 -32.59193294 127.68645335 -36 127.62890625 C-35.67 122.01890625 -35.34 116.40890625 -35 110.62890625 C-33.23914063 110.61472656 -31.47828125 110.60054688 -29.6640625 110.5859375 C-27.31768301 110.53900991 -24.97132965 110.4907627 -22.625 110.44140625 C-21.46871094 110.43560547 -20.31242187 110.42980469 -19.12109375 110.42382812 C-10.8149091 110.21265394 -3.80629335 108.82612559 2.6105957 103.22241211 C9.69229693 95.38498196 9.41374883 87.40852178 9.25 77.37890625 C9.24226563 75.46078125 9.24226563 75.46078125 9.234375 73.50390625 C9.31194121 66.96181669 9.31194121 66.96181669 8 60.62890625 C6.02 59.96890625 4.04 59.30890625 2 58.62890625 C2 52.35890625 2 46.08890625 2 39.62890625 C0.02 38.96890625 -1.96 38.30890625 -4 37.62890625 C-7.70827828 32.89426534 -6.36927493 25.37353529 -6.375 19.69140625 C-6.39949219 18.41587891 -6.42398437 17.14035156 -6.44921875 15.82617188 C-6.45501953 13.98249023 -6.45501953 13.98249023 -6.4609375 12.1015625 C-6.46915527 10.98015869 -6.47737305 9.85875488 -6.48583984 8.70336914 C-5.84364511 4.63947049 -4.11323811 1.29342058 0 0 Z " fill="#F6A5AD" transform="translate(470,-0.62890625)"/>
<path d="M0 0 C2.11328125 0.83984375 2.11328125 0.83984375 4.25 2 C5.04792969 2.39316406 5.84585938 2.78632813 6.66796875 3.19140625 C17.55490858 9.115927 25.26640472 17.23905146 31.25 28 C31.90162109 29.15628906 31.90162109 29.15628906 32.56640625 30.3359375 C34.44669711 33.86066393 35.25 35.9373624 35.25 40 C32.16123445 41.02958852 29.80341046 41.17017645 26.5625 41.3125 C-0.08020029 43.3438219 -22.05188868 56.50600832 -39.75 76 C-41.48764986 78.16949183 -43.14314149 80.35311445 -44.7265625 82.63671875 C-45.06429688 83.08660156 -45.40203125 83.53648437 -45.75 84 C-46.08 84 -46.41 84 -46.75 84 C-46.8775133 77.20495808 -46.96464857 70.41022837 -47.0246582 63.61425781 C-47.04969317 61.30587229 -47.08373154 58.99756517 -47.12719727 56.68945312 C-47.18833373 53.35787535 -47.21632107 50.02735187 -47.23828125 46.6953125 C-47.26408768 45.67511017 -47.2898941 44.65490784 -47.31648254 43.60379028 C-47.31924336 36.43766819 -45.83530967 30.95651846 -41.75 25 C-36.67879785 19.93458872 -30.52851943 16.61180644 -24.26708984 13.21289062 C-20.30717757 11.02650111 -16.79062677 8.56129206 -13.23413086 5.77075195 C-4.71740696 -0.84565116 -4.71740696 -0.84565116 0 0 Z " fill="#F28895" transform="translate(337.75,277)"/>
<path d="M0 0 C5.61 0 11.22 0 17 0 C17.00410889 2.49224121 17.00821777 4.98448242 17.01245117 7.55224609 C17.02969879 15.81452898 17.074284 24.07650464 17.13209057 32.33859825 C17.16628631 37.34477019 17.191459 42.35063936 17.19555664 47.35693359 C17.19985551 52.19423388 17.22844948 57.03085202 17.27343178 61.867939 C17.28635615 63.70733278 17.29073252 65.54680842 17.28615379 67.38624191 C17.13854451 82.86659144 17.13854451 82.86659144 24.81364441 95.91659546 C29.81360706 100.61131324 34.53914878 102.21912271 41.39453125 102.4140625 C42.59658203 102.45273438 43.79863281 102.49140625 45.03710938 102.53125 C46.28298828 102.5621875 47.52886719 102.593125 48.8125 102.625 C50.07771484 102.66367188 51.34292969 102.70234375 52.64648438 102.7421875 C55.76408675 102.8363038 58.8820232 102.91923441 62 103 C62.495 111.415 62.495 111.415 63 120 C58.80304672 120.11600915 54.61184211 120.21513229 50.41455078 120.2746582 C48.99280771 120.29951385 47.57118839 120.33341201 46.14990234 120.37719727 C33.43185402 120.75864896 23.04837388 118.36085047 13.03515625 110.01953125 C5.32717611 102.37072946 0.21969068 93.0630234 -0.12025452 82.13383484 C-0.12313748 80.60183823 -0.12053123 79.0698251 -0.11352539 77.5378418 C-0.11367142 76.6983046 -0.11381744 75.8587674 -0.1139679 74.99378967 C-0.11327326 72.22890608 -0.10550188 69.46409052 -0.09765625 66.69921875 C-0.09579048 64.77822405 -0.09436732 62.85722887 -0.09336853 60.93623352 C-0.08955591 55.88759033 -0.07973633 50.83897604 -0.06866455 45.79034424 C-0.05842345 40.63562409 -0.05386513 35.48089927 -0.04882812 30.32617188 C-0.03811293 20.21743319 -0.02052629 10.10872353 0 0 Z " fill="#F6A4AD" transform="translate(15,7)"/>
<path d="M0 0 C5.55419366 3.8109066 10.09397894 9.01088622 12.140625 15.46875 C13.29663074 23.39043146 11.87640457 29.98402545 7.140625 36.46875 C4.66480286 38.83671454 2.08992076 40.73318033 -0.859375 42.46875 C-1.48199219 42.84386719 -2.10460937 43.21898437 -2.74609375 43.60546875 C-8.23116965 45.84613746 -15.59491345 45.17428869 -21.171875 43.40625 C-27.77804627 40.48852436 -32.15379726 35.03037109 -34.859375 28.46875 C-35.71259315 21.94163113 -36.22656646 14.7582318 -32.796875 8.90625 C-24.54503388 -1.82348109 -12.7265968 -6.40907753 0 0 Z " fill="#030204" transform="translate(384.859375,393.53125)"/>
<path d="M0 0 C0.99 1.485 0.99 1.485 2 3 C5.3341374 7.35290161 8.31210821 10.16546078 13 13 C12.63050085 15.5538912 12.37170339 16.69951081 10.328125 18.3515625 C9.64234375 18.77179688 8.9565625 19.19203125 8.25 19.625 C3.26412446 23.25679783 0.58650822 27.00404169 -1 33 C-1.53970488 38.66232745 -1.29600681 44.32982502 -1 50 C-2.01578125 49.93039062 -3.0315625 49.86078125 -4.078125 49.7890625 C-13.5983321 49.3328448 -21.0817101 50.05227087 -29 56 C-31.68142858 58.80933318 -33.92881704 61.71819601 -36 65 C-39.46534923 63.84488359 -39.88952125 63.0549227 -41.875 60.125 C-44.29244244 56.79284962 -46.20100587 54.76050947 -50 53 C-51.55074219 52.2265625 -51.55074219 52.2265625 -53.1328125 51.4375 C-57.27151728 49.66917874 -60.9953564 49.65399716 -65.4375 49.8125 C-66.53481445 49.83280273 -66.53481445 49.83280273 -67.65429688 49.85351562 C-69.43652422 49.88846126 -71.21836573 49.94225195 -73 50 C-72.125 42.125 -72.125 42.125 -71 41 C-69.23569975 40.72610661 -67.46253861 40.50878843 -65.6875 40.31640625 C-64.61242187 40.19330078 -63.53734375 40.07019531 -62.4296875 39.94335938 C-60.14365441 39.68950035 -57.85718971 39.43949821 -55.5703125 39.19335938 C-54.49523437 39.06896484 -53.42015625 38.94457031 -52.3125 38.81640625 C-51.31863281 38.70756104 -50.32476562 38.59871582 -49.30078125 38.48657227 C-48.54152344 38.32600342 -47.78226562 38.16543457 -47 38 C-46.67 37.34 -46.34 36.68 -46 36 C-45.18402344 36.23396484 -45.18402344 36.23396484 -44.3515625 36.47265625 C-37.3409196 38.04481039 -30.82218929 37.96757937 -24.5 34.375 C-19.97245538 31.27225776 -17.26836333 28.15544048 -15.19921875 23.0078125 C-12.75469511 16.95573194 -9.39623617 12.50931794 -5.12109375 7.578125 C-3.12672945 5.1540358 -1.53727711 2.73075422 0 0 Z " fill="#A97DD9" transform="translate(410,400)"/>
<path d="M0 0 C0.99 0.03287109 0.99 0.03287109 2 0.06640625 C2.66 0.06511719 3.32 0.06382813 4 0.0625 C6.93485375 0.89365975 8.09605014 2.26241215 10 4.62890625 C10.72467956 8.75443902 10.61674146 12.86199535 10.57641602 17.04614258 C10.56255901 19.05783924 10.59661216 21.06486882 10.63476562 23.07617188 C10.63283203 24.35041016 10.63089844 25.62464844 10.62890625 26.9375 C10.62963135 28.10079834 10.63035645 29.26409668 10.63110352 30.46264648 C9.81658301 34.5491132 8.18326247 36.02921719 5 38.62890625 C2.12416926 39.68103945 0.72606689 39.8570987 -2.1875 38.94140625 C-4.43001885 37.31751329 -4.98868228 36.20724961 -6 33.62890625 C-6.45716233 28.99466325 -6.37031037 24.34586105 -6.375 19.69140625 C-6.39949219 18.41587891 -6.42398437 17.14035156 -6.44921875 15.82617188 C-6.45308594 14.59705078 -6.45695312 13.36792969 -6.4609375 12.1015625 C-6.46915527 10.98015869 -6.47737305 9.85875488 -6.48583984 8.70336914 C-5.84364511 4.63947049 -4.11323811 1.29342058 0 0 Z " fill="#040203" transform="translate(470,-0.62890625)"/>
<path d="M0 0 C8.25 0 16.5 0 25 0 C25 11 25 11 24 17 C15.75 17 7.5 17 -1 17 C-0.67 11.39 -0.34 5.78 0 0 Z " fill="#F48A96" transform="translate(435,110)"/>
<path d="M0 0 C8.25 0 16.5 0 25 0 C25.495 8.415 25.495 8.415 26 17 C17.75 17 9.5 17 1 17 C0 10 0 10 0 0 Z " fill="#F48996" transform="translate(52,110)"/>
<path d="M0 0 C3.80470451 0.7133821 5.41196019 1.67868421 8 4.5625 C9.125 7.9375 9.125 7.9375 9 11.5625 C7.0625 15 7.0625 15 4 17.5625 C0.88121827 18.42540403 -0.65888492 18.1458693 -4 17.5625 C-7.24985922 14.88136615 -7.89575014 13.21116582 -8.5625 9.0625 C-8 5.5625 -8 5.5625 -5.875 2.625 C-3 0.5625 -3 0.5625 0 0 Z " fill="#9863CF" transform="translate(373,405.4375)"/>
</svg>
