<?xml version="1.0" encoding="UTF-8"?>
<svg version="1.1" xmlns="http://www.w3.org/2000/svg" width="512" height="512">
<path d="M0 0 C0.83096191 -0.01268417 1.66192383 -0.02536835 2.51806641 -0.03843689 C3.41187012 -0.03550125 4.30567383 -0.03256561 5.2265625 -0.02954102 C6.14743652 -0.03478287 7.06831055 -0.04002472 8.01708984 -0.04542542 C9.96385693 -0.05184825 11.91066281 -0.05050524 13.85742188 -0.04199219 C16.84054417 -0.03347871 19.82175431 -0.0622451 22.8046875 -0.09399414 C24.69531192 -0.09560611 26.58593975 -0.09502871 28.4765625 -0.09204102 C29.37036621 -0.10327499 30.26416992 -0.11450897 31.18505859 -0.12608337 C32.01602051 -0.11670242 32.84698242 -0.10732147 33.703125 -0.09765625 C34.43354004 -0.09749008 35.16395508 -0.09732391 35.91650391 -0.09715271 C37.8515625 0.40405273 37.8515625 0.40405273 39.45052719 1.96665859 C41.34408364 5.26089633 41.25340392 8.20982003 41.20318604 11.90356445 C41.20574783 13.04142725 41.20574783 13.04142725 41.20836139 14.20227718 C41.2106239 16.74632274 41.19160078 19.28976929 41.17285156 21.83374023 C41.17040823 23.6571998 41.16937998 25.48066174 41.16966248 27.30412292 C41.16783375 31.23342265 41.15714493 35.16256512 41.13999176 39.09182739 C41.11408887 45.31240651 41.11514234 51.53279851 41.12127686 57.75341797 C41.13487371 75.44352395 41.11730529 93.13346317 41.06103516 110.82348633 C41.03019706 120.59192017 41.02452728 130.36004714 41.04592109 140.12850952 C41.05800592 146.30409862 41.03927583 152.47856664 40.99743605 158.65401363 C40.9787293 162.51046513 40.9894732 166.36643038 41.00828743 170.22286415 C41.0111734 172.00133787 41.00224016 173.77987946 40.98012352 175.558218 C40.84980048 186.6827598 41.89139843 194.19936973 48.8515625 203.40405273 C49.30074665 204.02804962 49.7499308 204.65204651 50.21272659 205.29495239 C51.28729724 206.72844617 52.44073848 208.10196706 53.6015625 209.46655273 C54.33890625 210.3444043 55.07625 211.22225586 55.8359375 212.12670898 C57.45681355 213.95804762 59.11375928 215.68693765 60.8515625 217.40405273 C60.82126953 216.28248779 60.79097656 215.16092285 60.75976562 214.00537109 C58.50561691 129.7905339 58.50561691 129.7905339 75.99609375 109.97436523 C88.13563482 98.01601135 103.37123602 94.46370148 119.8515625 93.40405273 C120.30595703 92.27870117 120.30595703 92.27870117 120.76953125 91.13061523 C125.3337372 79.97990901 129.86966657 70.53063916 137.8515625 61.40405273 C138.37234375 60.78788086 138.893125 60.17170898 139.4296875 59.53686523 C147.94309263 50.20651719 159.95304444 44.10098132 171.8515625 40.40405273 C172.63273437 40.15913086 173.41390625 39.91420898 174.21875 39.66186523 C193.82505826 34.70940675 213.95302827 39.53323495 231.10498047 49.3527832 C247.12556812 58.99559148 257.56037591 75.3738974 262.3515625 93.21655273 C267.07358506 113.1465916 263.32508949 133.01203739 252.8515625 150.40405273 C250.38566002 153.94271988 247.73738534 157.201423 244.8515625 160.40405273 C244.29855469 161.03827148 243.74554688 161.67249023 243.17578125 162.32592773 C238.03075748 167.87616817 231.603418 172.02812498 224.8515625 175.40405273 C226.2625833 180.04127687 228.18904623 184.24093835 230.4140625 188.52905273 C238.46591952 204.40574422 245.34931711 220.4701434 250.8515625 237.40405273 C251.13741211 238.26772461 251.42326172 239.13139648 251.71777344 240.02124023 C263.12242676 274.70562625 269.29244736 311.01810249 271.8515625 347.40405273 C271.93379059 348.55574951 272.01601868 349.70744629 272.10073853 350.89404297 C272.86264971 362.22453094 272.99869168 373.51204731 272.984375 384.86499023 C272.98505135 386.79057833 272.9860241 388.71616634 272.98727417 390.64175415 C272.98873632 394.65041935 272.98664533 398.65906205 272.98193359 402.66772461 C272.97624504 407.74913011 272.97951937 412.83048266 272.98550606 417.91188622 C272.98915872 421.88097516 272.98795161 425.85005203 272.98537827 429.81914139 C272.98472153 431.69021232 272.98549233 433.56128442 272.98785782 435.43235397 C272.99720643 444.90241913 272.89214822 454.35234683 272.43701172 463.81274414 C272.40247957 464.58735174 272.36794743 465.36195934 272.33236885 466.1600399 C271.85775213 474.89198329 270.13850041 481.64959467 263.6640625 487.84155273 C254.28688972 495.36796773 244.62843075 497.09522867 232.8515625 496.40405273 C229.99721643 496.07093069 227.16313541 495.63656913 224.32568359 495.18286133 C223.49971365 495.051117 222.67374371 494.91937267 221.82274437 494.78363609 C211.7855561 493.12988794 201.87704572 490.91400151 191.953125 488.69311523 C189.90076628 488.2381001 187.84830422 487.78355092 185.79574585 487.32943726 C181.5241806 486.38318306 177.25345698 485.43325453 172.98339844 484.48022461 C167.5738095 483.27289122 162.16282867 482.0719507 156.75127602 480.87345314 C151.50556571 479.7113934 146.2605692 478.54612701 141.015625 477.38061523 C139.56484999 477.05862089 139.56484999 477.05862089 138.08476639 476.73012161 C127.82666222 474.4510862 117.579446 472.13077152 107.35302734 469.71313477 C106.48862345 469.50995447 105.62421955 469.30677418 104.7336216 469.0974369 C98.63131218 467.64347467 92.69518371 465.9553852 86.8515625 463.65405273 C85.98764893 463.31752686 85.12373535 462.98100098 84.23364258 462.63427734 C70.90761195 457.21594642 59.25434858 448.98984285 52.9140625 435.71655273 C51.35011883 431.92740061 50.11456088 428.52436069 49.8515625 424.40405273 C49.80128906 423.72600586 49.75101562 423.04795898 49.69921875 422.34936523 C49.2532047 411.46662252 52.48230655 400.86828626 55.05737305 390.390625 C57.90541642 378.78395084 60.31995351 367.25926846 61.8515625 355.40405273 C61.93993094 354.72493112 62.02829939 354.0458095 62.11934566 353.34610844 C62.76615457 348.00594716 62.98983023 342.77184192 62.96508789 337.39599609 C62.96530693 336.12118378 62.96530693 336.12118378 62.9655304 334.82061768 C62.9648404 332.04501688 62.95709131 329.26948538 62.94921875 326.49389648 C62.94735132 324.55619849 62.94592895 322.61850003 62.94493103 320.68080139 C62.94113146 315.60591302 62.93132328 310.53105372 62.92022705 305.45617676 C62.90995764 300.26758213 62.90542161 295.07898275 62.90039062 289.89038086 C62.8896985 279.72825878 62.87265315 269.56615818 62.8515625 259.40405273 C61.9152298 259.09661636 60.97889709 258.78917999 60.01419067 258.47242737 C44.48201025 253.22546609 29.3302191 245.19936193 17.8515625 233.40405273 C14.86578747 234.74699958 12.81467199 236.25442133 10.4765625 238.52905273 C0.82877948 247.09699215 -11.70396382 252.29221196 -23.2890625 257.71655273 C-23.98547852 258.04268555 -24.68189453 258.36881836 -25.39941406 258.70483398 C-27.1484375 259.40405273 -27.1484375 259.40405273 -29.1484375 259.40405273 C-29.21863046 270.35017563 -29.2715945 281.29624306 -29.30387402 292.24254704 C-29.31938372 297.32795855 -29.34034531 302.41321363 -29.37475586 307.49853516 C-29.80327327 338.59313826 -29.80327327 338.59313826 -26.1484375 369.40405273 C-25.82613159 371.20434937 -25.82613159 371.20434937 -25.49731445 373.04101562 C-24.96103089 375.8469868 -24.36120266 378.62265754 -23.7109375 381.40405273 C-23.49920898 382.34700195 -23.28748047 383.28995117 -23.06933594 384.26147461 C-21.54120349 390.97426032 -19.83244664 397.62736492 -17.9453125 404.24780273 C-15.08969182 415.55830032 -14.84760848 427.36296404 -20.2734375 437.90405273 C-31.46915451 456.48829769 -50.66578277 464.13792803 -70.81396484 469.3527832 C-79.45778626 471.47506554 -88.1656199 473.32035862 -96.86833191 475.18235779 C-105.84517085 477.10791494 -114.80540346 479.10447922 -123.76461983 481.11002922 C-128.95764408 482.27184961 -134.15163406 483.42934587 -139.34556484 484.58710575 C-143.6938401 485.55649454 -148.0417765 486.52734436 -152.38894653 487.50167847 C-156.55182241 488.43425388 -160.71613506 489.36015674 -164.88148499 490.28161621 C-166.42831419 490.62490575 -167.974663 490.97036892 -169.52046204 491.31826782 C-209.13126394 500.22663122 -209.13126394 500.22663122 -224.3359375 491.71655273 C-232.15087259 486.69266589 -235.8512348 481.34548364 -238.1484375 472.40405273 C-238.58928898 469.46896573 -238.73781998 466.56929841 -238.82324219 463.60449219 C-238.87266024 462.37921924 -238.87266024 462.37921924 -238.92307663 461.12919331 C-239.26779728 451.82178765 -239.33184665 442.509836 -239.3515625 433.19702148 C-239.35438988 432.26894495 -239.35721725 431.34086842 -239.36013031 430.38466835 C-239.37498669 425.45842855 -239.38429743 420.53221693 -239.38867188 415.60595703 C-239.39302208 411.63027598 -239.40679891 407.65481616 -239.4296875 403.67919922 C-239.54464315 383.27456823 -239.43371193 362.97113291 -237.77734375 342.62280273 C-237.71592949 341.86733343 -237.65451523 341.11186413 -237.59123993 340.33350182 C-233.70647624 293.85620019 -223.48248238 248.34195867 -205.1484375 205.40405273 C-204.77251465 204.52362305 -204.3965918 203.64319336 -204.00927734 202.73608398 C-191.66841451 174.34137809 -174.22330942 148.04137205 -153.1484375 125.40405273 C-152.46265625 124.6525293 -151.776875 123.90100586 -151.0703125 123.12670898 C-134.34253964 105.50059276 -111.18104524 94.41139277 -86.84765625 93.36889648 C-70.20652216 93.52704876 -54.53347598 98.66426063 -42.28125 110.12670898 C-17.23183606 136.87361068 -26.25434174 184.14654413 -27.1484375 217.40405273 C-19.16081936 208.91952311 -19.16081936 208.91952311 -12.5859375 199.34155273 C-11.94527344 198.25745117 -11.30460938 197.17334961 -10.64453125 196.05639648 C-8.2481216 191.80793133 -8.0033036 188.85796885 -8.01040649 184.04652405 C-8.00758521 183.27922405 -8.00476393 182.51192406 -8.00185716 181.72137254 C-7.99348848 179.13650391 -7.99217099 176.55167797 -7.99072266 173.96679688 C-7.98605618 172.11917499 -7.98091289 170.27155426 -7.97532654 168.42393494 C-7.96403289 164.43844269 -7.95560491 160.45295797 -7.94920731 156.46745491 C-7.93854737 150.16971659 -7.9183088 143.87203238 -7.89608765 137.57432556 C-7.83409299 119.66383332 -7.78011052 101.7533442 -7.74707031 83.84277344 C-7.72875185 73.95618769 -7.69985223 64.06969241 -7.6590656 54.18317312 C-7.6379512 48.94774091 -7.62253206 43.71242292 -7.62025833 38.47694588 C-7.6181181 33.55461395 -7.60231301 28.63251994 -7.57586861 23.71026039 C-7.56865058 21.90063029 -7.56658668 20.09097144 -7.56997108 18.28133011 C-7.57384504 15.81679038 -7.55947952 13.35301838 -7.54043579 10.88856506 C-7.54596549 10.16716955 -7.55149518 9.44577403 -7.55719244 8.70251805 C-7.51809731 5.78528751 -7.48270675 3.8669259 -5.74487877 1.46050072 C-3.71018558 0.11403871 -2.43309424 0.01799795 0 0 Z " fill="#333C5B" transform="translate(239.1484375,7.595947265625)"/>
<path d="M0 0 C2.42521249 2.03178913 4.64378207 4.11702235 6.7578125 6.47265625 C7.7478125 7.55546875 7.7478125 7.55546875 8.7578125 8.66015625 C18.46810716 22.31525811 19.2458068 37.07105556 19.0078125 53.22265625 C18.97221013 55.92893415 18.93664776 58.63521257 18.90113831 61.3414917 C18.87578706 63.20810373 18.84796371 65.07468375 18.81773376 66.94122314 C18.73941897 72.63944569 18.81760748 78.31036691 19.02220154 84.00523376 C20.10426762 114.76472781 20.10426762 114.76472781 14.46875 121.5078125 C11.03781985 124.52248859 7.27553048 126.43770788 3.11962891 128.27587891 C-0.21844151 129.96734275 -2.79213143 132.29939408 -5.60058594 134.74462891 C-13.31733393 141.35711587 -13.31733393 141.35711587 -18.30078125 141.65625 C-21.16615927 140.8799561 -23.58156078 139.781096 -26.2421875 138.47265625 C-28.27350443 137.89338336 -30.31565418 137.35066378 -32.3671875 136.84765625 C-37.11911058 135.59573317 -37.11911058 135.59573317 -38.2421875 134.47265625 C-38.28039981 132.4282977 -38.31465521 130.3837826 -38.328125 128.33911133 C-38.5190046 115.85916458 -41.18191826 105.97263321 -50.4296875 96.91015625 C-54.66788663 93.52248008 -59.18186396 91.54233393 -64.23046875 89.62890625 C-75.35797697 85.35686678 -75.35797697 85.35686678 -79.2421875 81.47265625 C-81.35039547 81.79117395 -81.35039547 81.79117395 -83.2421875 82.47265625 C-83.55033356 84.84659114 -83.55033356 84.84659114 -83.2421875 87.47265625 C-79.16476423 91.85562287 -73.18451979 93.97089905 -67.6796875 95.97265625 C-57.51171547 99.72935454 -51.94873833 104.60355658 -47.2421875 114.47265625 C-45.8867659 118.26296695 -46.09448598 122.18360595 -46.1171875 126.16015625 C-46.11332031 126.84916016 -46.10945312 127.53816406 -46.10546875 128.24804688 C-46.11549415 133.3459629 -46.11549415 133.3459629 -47.2421875 134.47265625 C-48.99037341 134.69570066 -50.74089073 134.90052075 -52.4921875 135.09765625 C-60.01236873 136.293035 -65.76123983 139.62734738 -72.2421875 143.47265625 C-83.4485952 150.0414054 -93.25207145 152.81521582 -106.2421875 153.47265625 C-106.2849085 155.1387753 -106.28282582 156.8064851 -106.2421875 158.47265625 C-104.70349842 160.01134533 -103.33092141 159.71692012 -101.1796875 159.78515625 C-86.96058214 159.58202617 -75.24282675 153.99385375 -63.33203125 146.6875 C-53.2125814 140.92635964 -43.14162943 140.96157743 -32.13623047 143.91650391 C-29.47919364 144.69669595 -26.8556971 145.55792789 -24.2421875 146.47265625 C-24.2421875 147.13265625 -24.2421875 147.79265625 -24.2421875 148.47265625 C-26.0078125 150.03125 -26.0078125 150.03125 -28.4921875 151.91015625 C-43.31704135 163.53133405 -54.79537283 176.18431586 -64.11328125 192.58984375 C-64.48864014 193.24815186 -64.86399902 193.90645996 -65.25073242 194.5847168 C-66.39793761 196.67322607 -66.39793761 196.67322607 -67.5078125 199.859375 C-69.2421875 202.47265625 -69.2421875 202.47265625 -72.98046875 203.6875 C-74.50203806 203.94766036 -76.02718087 204.18749041 -77.5546875 204.41015625 C-88.73986721 206.44812913 -100.99460813 210.52315925 -108.12109375 219.9609375 C-112.90588398 227.98739536 -115.1446787 235.45635064 -117.2421875 244.47265625 C-118.39122355 249.36382323 -119.40178857 252.14730812 -123.0546875 255.59765625 C-129.5775786 262.55697948 -131.61871193 271.3353612 -134.3046875 280.28515625 C-136.94214633 288.94811392 -139.20689707 294.27334595 -146.6328125 299.734375 C-148.51579323 301.41161478 -148.51579323 301.41161478 -148.4765625 304.1796875 C-148.39921875 304.93636719 -148.321875 305.69304687 -148.2421875 306.47265625 C-143.5106713 306.37609469 -141.02190496 305.71226811 -137.5546875 302.41015625 C-130.13039406 294.24011905 -127.26831135 283.0388154 -124.2421875 272.66015625 C-122.48166516 266.824094 -120.57734311 262.80781186 -116.2421875 258.47265625 C-112.450127 258.73227865 -110.78793561 260.6442814 -108.3671875 263.41015625 C-97.09069738 276.69880817 -93.76760292 290.53251662 -92.2421875 307.47265625 C-90.16665102 308.02613265 -88.39852786 308.47265625 -86.2421875 308.47265625 C-85.21741306 289.99825035 -90.46021789 273.90876421 -102.3125 259.62890625 C-104.21034698 257.44200814 -104.21034698 257.44200814 -106.359375 255.50390625 C-109.18380025 252.45680847 -110.25931376 249.94765508 -110.2109375 245.78125 C-108.48391309 235.20322549 -104.96824213 225.64033902 -96.31640625 218.8671875 C-89.13707237 214.04040371 -81.98389304 211.32573683 -73.2421875 211.47265625 C-73.54511719 212.35526123 -73.84804687 213.23786621 -74.16015625 214.1472168 C-75.28441417 217.4345902 -76.4017956 220.72413753 -77.51464844 224.01538086 C-77.99695213 225.43720567 -78.48194908 226.85811992 -78.96972656 228.27807617 C-79.67188526 230.32365075 -80.36417421 232.37234446 -81.0546875 234.421875 C-81.47363281 235.65252686 -81.89257812 236.88317871 -82.32421875 238.15112305 C-83.14888191 241.13504387 -83.44569727 243.40729033 -83.2421875 246.47265625 C-81.5921875 246.80265625 -79.9421875 247.13265625 -78.2421875 247.47265625 C-77.29472656 246.07080078 -77.29472656 246.07080078 -76.328125 244.640625 C-65.42002132 228.58625085 -54.13199585 212.99987009 -41.2421875 198.47265625 C-39.82478475 196.84829826 -38.40798593 195.22341277 -36.9921875 193.59765625 C-36.07630763 192.55529773 -35.16001926 191.51329648 -34.2421875 190.47265625 C-28.97385829 196.45939399 -28.90887133 203.59705926 -28.9921875 211.16015625 C-28.99895508 212.04719238 -29.00572266 212.93422852 -29.01269531 213.84814453 C-29.24453169 228.6182782 -33.43342237 242.19205965 -38.07421875 256.1015625 C-38.31729767 256.83262207 -38.56037659 257.56368164 -38.81082153 258.31689453 C-39.81293624 261.3263302 -40.816664 264.3350391 -41.83764648 267.33813477 C-42.5940217 269.56831363 -43.33528183 271.80305529 -44.07421875 274.0390625 C-44.30744339 274.71304581 -44.54066803 275.38702911 -44.78096008 276.08143616 C-46.03421899 279.91953585 -46.45526647 282.58735492 -45.2421875 286.47265625 C-42.82888067 286.68692609 -42.82888067 286.68692609 -40.2421875 285.47265625 C-38.58536897 282.65017093 -37.70746493 279.58753226 -36.7421875 276.47265625 C-36.44666992 275.57651611 -36.15115234 274.68037598 -35.84667969 273.75708008 C-33.72802943 267.25824092 -31.74979306 260.70755352 -29.92773438 254.11914062 C-28.69200273 249.70328239 -27.11959951 245.64288465 -25.2421875 241.47265625 C-16.65812464 241.87006657 -10.44378465 243.83085485 -4.4296875 250.16015625 C0.97885767 256.83767671 2.05033281 263.78175008 2.546875 272.1875 C2.62101832 274.50165738 2.62101832 274.50165738 3.7578125 276.47265625 C5.4078125 276.47265625 7.0578125 276.47265625 8.7578125 276.47265625 C9.44126402 263.46809269 7.4830034 252.56370647 -1.2421875 242.47265625 C-7.2819726 236.9550021 -15.52032848 235.41396631 -23.2421875 233.47265625 C-23.17 232.93382812 -23.0978125 232.395 -23.0234375 231.83984375 C-21.5297422 218.60404372 -19.95650752 203.40242709 -25.26953125 190.91015625 C-26.44636272 187.96098824 -27.15490737 185.66461547 -27.2421875 182.47265625 C-19.50410483 171.65961496 -5.23561873 164.48174253 5.7578125 157.47265625 C6.53318359 156.96959961 7.30855469 156.46654297 8.10742188 155.94824219 C9.17959961 155.26036621 9.17959961 155.26036621 10.2734375 154.55859375 C10.90024414 154.15431152 11.52705078 153.7500293 12.17285156 153.33349609 C13.7578125 152.47265625 13.7578125 152.47265625 15.7578125 152.47265625 C15.75115067 153.41938705 15.74448883 154.36611786 15.73762512 155.34153748 C15.67608067 164.38414037 15.63149532 173.42669931 15.60237598 182.46946621 C15.58690093 187.11539561 15.5660075 191.76115235 15.53149414 196.40698242 C15.38305661 216.95042728 15.2746584 237.15394639 18.7578125 257.47265625 C18.97800049 258.75825439 19.19818848 260.04385254 19.42504883 261.3684082 C19.9710479 264.23647728 20.58413816 267.06985831 21.2578125 269.91015625 C21.55751953 271.26077148 21.55751953 271.26077148 21.86328125 272.63867188 C23.05893013 277.91247348 24.47983124 283.08661335 26.07348633 288.25366211 C29.25690313 298.57620057 31.4114811 311.08123125 26.5078125 321.16015625 C16.53563779 338.48834873 -2.96179914 344.3986991 -21.05810547 349.62158203 C-27.7400766 351.40760805 -34.51889405 352.72410415 -41.30200195 354.06225586 C-51.85659677 356.14833567 -62.32887976 358.52322797 -72.8046875 360.97265625 C-86.574149 364.18362417 -100.35443166 367.29586783 -114.1953125 370.1875 C-117.97152793 370.9776642 -121.72777987 371.81533993 -125.4765625 372.7265625 C-137.89697996 375.6953878 -153.17354604 378.88528944 -165.2421875 373.28515625 C-171.91259949 369.07658348 -174.36435689 363.91884655 -176.2421875 356.47265625 C-176.72413175 352.69570904 -176.83451066 348.94130234 -176.9140625 345.13671875 C-176.94667175 344.02084381 -176.97928101 342.90496887 -177.01287842 341.75527954 C-177.42452076 326.12336764 -177.48556163 310.48412561 -177.4921875 294.84765625 C-177.49292393 294.04775143 -177.49366035 293.2478466 -177.4944191 292.42370224 C-177.51318168 267.33186069 -177.07222388 242.43173002 -174.2421875 217.47265625 C-174.1194043 216.35777832 -173.99662109 215.24290039 -173.87011719 214.09423828 C-173.16077392 207.85573038 -172.27041427 201.66584167 -171.2421875 195.47265625 C-171.11263672 194.64975098 -170.98308594 193.8268457 -170.84960938 192.97900391 C-165.23239988 157.55937739 -155.45540919 122.98009761 -140.2421875 90.47265625 C-139.84418945 89.61623535 -139.44619141 88.75981445 -139.03613281 87.87744141 C-121.6058493 50.72567003 -96.03111953 10.74936316 -56.6171875 -5.40234375 C-38.07345662 -12.05389939 -16.34844952 -12.15255468 0 0 Z " fill="#FBA8AE" transform="translate(185.2421875,119.52734375)"/>
<path d="M0 0 C0.05607422 1.59714844 0.05607422 1.59714844 0.11328125 3.2265625 C0.89291824 21.70867122 4.30478695 38.18606348 16 53 C16.61875 53.78375 17.2375 54.5675 17.875 55.375 C28.12084212 67.60390834 44.12981852 76.73127303 60 79 C69.67986148 79.75315009 79.21273006 79.64409497 88.68457031 77.42431641 C91.16853135 76.96911562 93.48018618 76.9303457 96 77 C110.91274671 104.62063108 122.81656377 132.4601786 130.26171875 162.98730469 C130.99977317 165.99907438 131.76523476 169.00304968 132.53125 172.0078125 C138.94894655 197.80095706 142.51223296 224.47199889 144 251 C144.04163269 251.68901398 144.08326538 252.37802795 144.12615967 253.08792114 C145.09771936 269.49992285 145.15571069 285.90511349 145.13037109 302.33911133 C145.12582161 305.31601969 145.12580065 308.29286707 145.13037109 311.26977539 C145.14550272 321.18067761 145.11066833 331.08966626 145 341 C144.98674683 342.23651306 144.97349365 343.47302612 144.95983887 344.74700928 C144.91157805 348.14881556 144.83357347 351.54832738 144.7421875 354.94921875 C144.72177902 356.40229179 144.72177902 356.40229179 144.70095825 357.88471985 C144.44780919 365.20193521 143.35562904 373.59354062 138.01657104 379.01347351 C131.92696825 383.84080876 126.55143425 385.3275403 118.8125 385.1875 C117.66986694 385.17348145 117.66986694 385.17348145 116.50415039 385.15917969 C108.25070595 385.02210555 100.73538018 384.25645747 92.71875 382.18359375 C84.36769714 380.0618355 75.9772645 378.16251133 67.5625 376.3125 C66.01729898 375.97110566 64.47213393 375.62954847 62.92700195 375.2878418 C58.811206 374.37841114 54.69473265 373.47208802 50.57800293 372.56689453 C47.95588714 371.99029973 45.33388969 371.41316932 42.71191406 370.8359375 C38.25480089 369.85482219 33.79737703 368.87512606 29.33987427 367.89578247 C26.69891279 367.31500978 24.05829786 366.73268148 21.41772461 366.15014648 C14.27539463 364.57694773 7.1347397 363.01014473 -0.03515625 361.56640625 C-19.82176721 357.55907202 -44.17927074 352.05401556 -56.3125 334.4375 C-62.258155 325.29910972 -62.30468855 315.17681979 -60.2421875 304.69921875 C-59.29242956 300.43092932 -58.17091539 296.21228017 -57 292 C-50.51682476 268.50150238 -47.64443078 245.35634402 -47.8046875 220.984375 C-47.80843375 219.26418221 -47.81127305 217.54398723 -47.81326294 215.8237915 C-47.82077291 211.37208803 -47.84030687 206.92052238 -47.8626709 202.46887207 C-47.88340752 197.89593366 -47.8923231 193.32297222 -47.90234375 188.75 C-47.92356953 179.83327393 -47.95754527 170.91664857 -48 162 C-44.98912922 163.18352947 -42.1866448 164.36347599 -39.43359375 166.06640625 C-38.78922363 166.46480713 -38.14485352 166.86320801 -37.48095703 167.27368164 C-36.80661621 167.6989917 -36.13227539 168.12430176 -35.4375 168.5625 C-34.73222168 169.00650146 -34.02694336 169.45050293 -33.30029297 169.90795898 C-26.939567 173.95995033 -20.89206049 178.28469421 -15 183 C-14.01128906 183.76441406 -13.02257812 184.52882813 -12.00390625 185.31640625 C-5.12011356 190.95901579 -5.12011356 190.95901579 -4.625 195.25 C-5.41264882 197.39813315 -6.20195155 199.54566516 -6.99609375 201.69140625 C-11.67362285 215.38131743 -10.77872377 228.95752094 -8 243 C-8.99 243.21914063 -9.98 243.43828125 -11 243.6640625 C-21.80875253 246.19892507 -29.15951674 249.50310527 -35.75 258.8515625 C-39.64185502 265.54068832 -41.1548807 273.14490218 -41.0625 280.8125 C-41.05347656 281.78832031 -41.04445313 282.76414062 -41.03515625 283.76953125 C-41.02355469 284.50558594 -41.01195312 285.24164063 -41 286 C-39.33388095 286.042721 -37.66617115 286.04063832 -36 286 C-34.20660605 284.20660605 -34.41990302 281.68075789 -34.04980469 279.27270508 C-32.54055253 269.54494435 -31.08647572 261.62859246 -22.9921875 255.25390625 C-17.51078446 251.80384669 -12.38568153 250.93776458 -6 251 C-5.72325439 251.8657666 -5.44650879 252.7315332 -5.16137695 253.62353516 C-4.11018452 256.908156 -3.05686096 260.19207878 -2.00219727 263.47558594 C-1.55052668 264.88319933 -1.09964996 266.29106776 -0.6496582 267.69921875 C2.38784695 277.20202818 5.58146015 286.62685144 9 296 C10.65 295.67 12.3 295.34 14 295 C13.43524721 289.20711032 12.26393774 284.08182221 10.41796875 278.57421875 C9.89247168 276.95511267 9.36708481 275.33597082 8.84179688 273.71679688 C8.0222763 271.21989218 7.19960654 268.72407389 6.3737793 266.22924805 C3.38870787 257.1781206 0.63603255 248.1624732 -1.359375 238.8359375 C-1.52270828 238.08185104 -1.68604156 237.32776459 -1.85432434 236.55082703 C-4.25747133 224.67370828 -4.52891473 212.05782946 1 201 C5.34465728 202.59684301 7.90126011 205.95074284 10.8125 209.375 C11.65748047 210.36161621 11.65748047 210.36161621 12.51953125 211.36816406 C24.71113899 225.79891029 35.49890396 241.31678884 46 257 C47.65 256.67 49.3 256.34 51 256 C50.46689335 248.24572141 47.95876317 241.31282151 45.4375 234 C45.00776298 232.73591503 44.57872069 231.47159365 44.15039062 230.20703125 C43.10705272 227.13563202 42.0567602 224.06680152 41 221 C52.22827624 222.00950907 62.92297315 224.75306424 70.4609375 233.7421875 C75.39960722 240.95563843 78.91569265 250.20935058 78 259 C77.938125 259.721875 77.87625 260.44375 77.8125 261.1875 C77 263 77 263 74.6953125 264.80078125 C63.20640898 274.1750605 56.84374037 289.64403869 55 304 C54.79761104 308.34911386 54.8049587 312.65130132 55 317 C56.89179203 317.6814823 56.89179203 317.6814823 59 318 C61.82762349 315.17237651 61.23456306 313.20427422 61.3125 309.25 C62.02230736 293.52795676 69.17080383 280.08684799 80.49609375 269.36328125 C80.99238281 268.91339844 81.48867188 268.46351563 82 268 C85.84679304 269.51124012 87.62816313 271.65917747 90 275 C91.27685547 278.1027832 91.27685547 278.1027832 92.3671875 281.55078125 C92.78234558 282.81972904 93.19771696 284.08860706 93.61328125 285.35742188 C94.24543666 287.33040188 94.87258122 289.30481574 95.49462891 291.28100586 C98.57194929 300.98780216 101.89709943 310.39821503 111 316 C113.7104607 316.33592508 113.7104607 316.33592508 116 316 C116.58963678 313.75775342 116.58963678 313.75775342 116 311 C114.5969676 309.6156373 114.5969676 309.6156373 112.8125 308.3125 C104.71293751 301.78740156 102.72359637 291.21787217 99.6628418 281.70336914 C96.35639935 270.8219118 96.35639935 270.8219118 88.93359375 262.73828125 C86.04394167 260.14051322 85.89203738 256.97959191 85.25 253.3125 C83.06283755 242.70790297 79.01776574 229.55467066 69.76171875 223.0234375 C69.18035156 222.68570313 68.59898437 222.34796875 68 222 C67.40832031 221.64164063 66.81664062 221.28328125 66.20703125 220.9140625 C58.79242554 216.84749525 50.67446726 214.11982356 42.25 213.6875 C39.51953125 213.24609375 39.51953125 213.24609375 37 212 C34.53410955 208.54046053 32.80135277 204.98666016 31.01171875 201.1484375 C23.70077939 185.50963727 7.64578497 165.82289248 -8 158 C-8 157.34 -8 156.68 -8 156 C2.74905691 151.87707406 14.79276883 149.35015687 26 153.4375 C29.68925492 155.16451698 33.16388795 157.25007207 36.68017578 159.29931641 C49.24210752 166.58636291 60.29818799 169.80435446 75 169 C75.042721 167.33388095 75.04063832 165.66617115 75 164 C73.23911352 162.23911352 70.84146274 162.66102021 68.47827148 162.45678711 C55.55450141 161.29016308 45.68960876 156.65177698 34.60522461 150.12280273 C29.49857665 147.1381979 24.66616119 144.96436203 18.6875 144.5 C17.470625 144.335 16.25375 144.17 15 144 C12.30212015 138.60424029 13.41302112 130.02162224 14.9375 124.3125 C18.29712523 115.78784345 25.23544075 109.6612192 33.44921875 106.0078125 C36.04158196 104.98357099 38.64513919 103.99195599 41.25 103 C45.64326417 101.30921694 48.59267149 99.22799543 52 96 C51.67 94.68 51.34 93.36 51 92 C49.26424351 91.12563582 49.26424351 91.12563582 47 91 C45.92105469 91.88945312 45.92105469 91.88945312 44.8203125 92.796875 C41.61307409 95.30225237 38.34244004 96.62821717 34.5625 98 C29.55264404 99.82907479 25.3831615 101.86734746 21 105 C20.175 105.556875 19.35 106.11375 18.5 106.6875 C11.84230988 112.84586336 7.38709636 120.96693286 6.88427734 130.10253906 C6.75513036 135.07312297 6.84435961 140.03103643 7 145 C5.65808594 145.27263672 5.65808594 145.27263672 4.2890625 145.55078125 C3.07992187 145.80214844 1.87078125 146.05351562 0.625 146.3125 C-1.21724482 146.6917857 -3.05957965 147.07068078 -4.90332031 147.44262695 C-7.0809566 147.96349814 -7.0809566 147.96349814 -9.33886719 149.03198242 C-12.0112925 150.14181194 -14.10436066 150.82615349 -17 151 C-21.05990818 149.23735557 -24.16568128 146.56131827 -27.5 143.6875 C-28.80904297 142.62305664 -28.80904297 142.62305664 -30.14453125 141.53710938 C-31.8996185 140.10573822 -33.64325726 138.66021151 -35.375 137.20068359 C-38.85924753 134.27964498 -42.42068854 131.46056311 -45.98632812 128.63989258 C-49.95559418 125.40740469 -49.95559418 125.40740469 -50.31884766 122.07470703 C-50.365979 120.18534424 -50.365979 120.18534424 -50.4140625 118.2578125 C-50.43365524 117.55869751 -50.45324799 116.85958252 -50.47343445 116.13928223 C-50.53509677 113.80130949 -50.58109925 111.46337004 -50.625 109.125 C-50.64235199 108.31987976 -50.65970398 107.51475952 -50.67758179 106.6852417 C-50.79142634 101.40174014 -50.88003167 96.118141 -50.95709229 90.83398438 C-51.00077043 87.94911467 -51.05148837 85.0644266 -51.10302734 82.1796875 C-51.1872488 77.28312281 -51.24491026 72.38680236 -51.28509521 67.48968506 C-51.30314937 65.60244239 -51.3277674 63.71524935 -51.35943604 61.82818604 C-51.62732115 44.92731052 -49.62965345 30.11749503 -39.8125 15.8125 C-28.74427597 4.74427597 -15.4987853 -0.49202493 0 0 Z " fill="#FBA8AE" transform="translate(359,110)"/>
<path d="M0 0 C3.01087078 1.18352947 5.8133552 2.36347599 8.56640625 4.06640625 C9.21077637 4.46480713 9.85514648 4.86320801 10.51904297 5.27368164 C11.19338379 5.6989917 11.86772461 6.12430176 12.5625 6.5625 C13.26777832 7.00650146 13.97305664 7.45050293 14.69970703 7.90795898 C21.060433 11.95995033 27.10793951 16.28469421 33 21 C33.98871094 21.76441406 34.97742188 22.52882813 35.99609375 23.31640625 C42.87988644 28.95901579 42.87988644 28.95901579 43.375 33.25 C42.58735118 35.39813315 41.79804845 37.54566516 41.00390625 39.69140625 C36.32637715 53.38131743 37.22127623 66.95752094 40 81 C39.01 81.21914063 38.02 81.43828125 37 81.6640625 C26.19124747 84.19892507 18.84048326 87.50310527 12.25 96.8515625 C8.35814498 103.54068832 6.8451193 111.14490218 6.9375 118.8125 C6.94652344 119.78832031 6.95554687 120.76414062 6.96484375 121.76953125 C6.97644531 122.50558594 6.98804688 123.24164063 7 124 C8.66611905 124.042721 10.33382885 124.04063832 12 124 C13.79339395 122.20660605 13.58009698 119.68075789 13.95019531 117.27270508 C15.45944747 107.54494435 16.91352428 99.62859246 25.0078125 93.25390625 C30.48921554 89.80384669 35.61431847 88.93776458 42 89 C42.27674561 89.8657666 42.55349121 90.7315332 42.83862305 91.62353516 C43.88981548 94.908156 44.94313904 98.19207878 45.99780273 101.47558594 C46.44947332 102.88319933 46.90035004 104.29106776 47.3503418 105.69921875 C50.38784695 115.20202818 53.58146015 124.62685144 57 134 C58.65 133.67 60.3 133.34 62 133 C61.43524721 127.20711032 60.26393774 122.08182221 58.41796875 116.57421875 C57.89247168 114.95511267 57.36708481 113.33597082 56.84179688 111.71679688 C56.0222763 109.21989218 55.19960654 106.72407389 54.3737793 104.22924805 C51.38870787 95.1781206 48.63603255 86.1624732 46.640625 76.8359375 C46.47729172 76.08185104 46.31395844 75.32776459 46.14567566 74.55082703 C43.74252867 62.67370828 43.47108527 50.05782946 49 39 C53.34465728 40.59684301 55.90126011 43.95074284 58.8125 47.375 C59.65748047 48.36161621 59.65748047 48.36161621 60.51953125 49.36816406 C72.71113899 63.79891029 83.49890396 79.31678884 94 95 C95.65 94.67 97.3 94.34 99 94 C98.46689335 86.24572141 95.95876317 79.31282151 93.4375 72 C93.00776298 70.73591503 92.57872069 69.47159365 92.15039062 68.20703125 C91.10705272 65.13563202 90.0567602 62.06680152 89 59 C100.22827624 60.00950907 110.92297315 62.75306424 118.4609375 71.7421875 C123.39960722 78.95563843 126.91569265 88.20935058 126 97 C125.938125 97.721875 125.87625 98.44375 125.8125 99.1875 C125 101 125 101 122.6953125 102.80078125 C111.20640898 112.1750605 104.84374037 127.64403869 103 142 C102.79761104 146.34911386 102.8049587 150.65130132 103 155 C104.89179203 155.6814823 104.89179203 155.6814823 107 156 C109.82762349 153.17237651 109.23456306 151.20427422 109.3125 147.25 C110.02230736 131.52795676 117.17080383 118.08684799 128.49609375 107.36328125 C128.99238281 106.91339844 129.48867188 106.46351563 130 106 C133.84679304 107.51124012 135.62816313 109.65917747 138 113 C139.27685547 116.1027832 139.27685547 116.1027832 140.3671875 119.55078125 C140.78234558 120.81972904 141.19771696 122.08860706 141.61328125 123.35742188 C142.24543666 125.33040188 142.87258122 127.30481574 143.49462891 129.28100586 C147.87641985 143.24229099 147.87641985 143.24229099 158.375 152.875 C160.7531378 154.56520905 161.81939363 155.38528555 162.6484375 158.20703125 C162.96632434 165.97080604 160.14451816 173.20585248 156.375 179.875 C147.56994821 187.75320423 136.77985736 188.76938129 125.453125 188.53515625 C113.82263485 187.87324345 102.42212867 184.47307998 91.14848328 181.7097168 C83.1689602 179.76712144 75.13984429 178.08965758 67.09677124 176.43371582 C53.38555373 173.60974028 39.73182475 170.61052828 26.11303711 167.36962891 C19.17966524 165.72303065 12.23850143 164.20458703 5.25 162.8125 C-1.13805682 161.53160429 -7.11673796 159.84332458 -13 157 C-13.7568964 145.07888174 -10.07665071 133.88093637 -6.9375 122.5 C-1.35296719 101.7167779 0.33638311 80.43850476 0.1953125 58.984375 C0.19156625 57.26418221 0.18872695 55.54398723 0.18673706 53.8237915 C0.17922709 49.37208803 0.15969313 44.92052238 0.1373291 40.46887207 C0.11659248 35.89593366 0.1076769 31.32297222 0.09765625 26.75 C0.07643047 17.83327393 0.04245473 8.91664857 0 0 Z " fill="#FAA8AE" transform="translate(311,272)"/>
<path d="M0 0 C0.92296875 0.40089844 1.8459375 0.80179688 2.796875 1.21484375 C18.7025978 8.96551376 29.23360364 23.04087323 36 39 C41.39118252 55.21151364 39.69529488 72.54368864 32.18359375 87.859375 C22.63756677 105.12413667 9.40470346 116.36883915 -9.703125 122.11328125 C-25.88857558 125.94702792 -44.2369972 123.1197346 -58.4453125 114.6875 C-73.09346203 105.01165811 -83.24650457 91.9511002 -87.9375 74.875 C-91.6607909 55.83967529 -88.67039851 38.30420967 -78 22 C-60.33662383 -1.25486701 -27.59203436 -12.57408423 0 0 Z " fill="#E8EDF0" transform="translate(456,59)"/>
<path d="M0 0 C0.99 0.495 0.99 0.495 2 1 C0.94425781 1.82951172 0.94425781 1.82951172 -0.1328125 2.67578125 C-11.65146632 12.82603103 -17.57070334 26.33748494 -24 40 C-24.60303955 41.26674561 -24.60303955 41.26674561 -25.21826172 42.55908203 C-36.05109998 65.64816053 -43.54566367 91.14743429 -49 116 C-49.19142578 116.86334961 -49.38285156 117.72669922 -49.58007812 118.61621094 C-53.4834986 136.46721923 -55.83259838 154.45142998 -57.625 172.625 C-57.80977905 174.48088745 -57.80977905 174.48088745 -57.99829102 176.37426758 C-59.53594608 192.59775055 -60.15705845 208.79444118 -60.1328125 225.0859375 C-60.133489 226.72832249 -60.13446188 228.37070739 -60.13571167 230.01309204 C-60.13716657 233.40945413 -60.13510264 236.8057895 -60.13037109 240.20214844 C-60.12461067 244.54725905 -60.12800609 248.89230872 -60.13394356 253.23741722 C-60.1375551 256.60888124 -60.13640894 259.98033074 -60.13381577 263.3517952 C-60.13315144 264.9553287 -60.13395756 266.55886354 -60.13629532 268.16239548 C-60.1388386 270.39133986 -60.13496052 272.62018417 -60.12939453 274.84912109 C-60.12859894 276.11307709 -60.12780334 277.37703308 -60.12698364 278.67929077 C-60.01578546 281.58719952 -59.67624082 284.17761021 -59 287 C-59.99 287.66 -60.98 288.32 -62 289 C-62.25030977 291.58380177 -62.25030977 291.58380177 -62 294 C-60.68 294.66 -59.36 295.32 -58 296 C-58.66 296 -59.32 296 -60 296 C-58.77626578 309.57144916 -58.77626578 309.57144916 -52.01953125 320.87890625 C-41.77499472 328.19643234 -29.10623223 328.38096569 -17 327 C-6.66723636 325.15836414 3.5115823 322.56924607 13.69628906 320.05175781 C19.92143879 318.51950403 26.17689041 317.12973246 32.4375 315.75 C34.08141724 315.38442993 34.08141724 315.38442993 35.75854492 315.01147461 C43.07915599 313.392766 50.4187359 311.90186149 57.77783203 310.4699707 C64.72532453 309.09941085 71.59903867 307.46568183 78.4777832 305.78710938 C83.65515897 304.53104525 88.82645145 303.42059483 94.0625 302.4375 C99.80759262 301.33656815 105.20643183 299.75152861 110.70703125 297.76953125 C113 297 113 297 115 297 C115.92898392 304.06027778 112.16151089 310.01939025 108.14453125 315.55859375 C93.12668227 332.65541636 66.14704515 337.40597232 44.94018555 341.58959961 C34.38559073 343.67567942 23.91330774 346.05057172 13.4375 348.5 C-0.3319615 351.71096792 -14.11224416 354.82321158 -27.953125 357.71484375 C-31.72934043 358.50500795 -35.48559237 359.34268368 -39.234375 360.25390625 C-51.65479246 363.22273155 -66.93135854 366.41263319 -79 360.8125 C-85.67041199 356.60392723 -88.12216939 351.4461903 -90 344 C-90.48194425 340.22305279 -90.59232316 336.46864609 -90.671875 332.6640625 C-90.70448425 331.54818756 -90.73709351 330.43231262 -90.77069092 329.28262329 C-91.18233326 313.65071139 -91.24337413 298.01146936 -91.25 282.375 C-91.25073643 281.57509518 -91.25147285 280.77519035 -91.2522316 279.95104599 C-91.27099418 254.85920444 -90.83003638 229.95907377 -88 205 C-87.8772168 203.88512207 -87.75443359 202.77024414 -87.62792969 201.62158203 C-86.91858642 195.38307413 -86.02822677 189.19318542 -85 183 C-84.87044922 182.17709473 -84.74089844 181.35418945 -84.60742188 180.50634766 C-78.99021238 145.08672114 -69.21322169 110.50744136 -54 78 C-53.60200195 77.1435791 -53.20400391 76.2871582 -52.79394531 75.40478516 C-39.55286277 47.18208466 -22.04832969 22.00350773 0 0 Z " fill="#FC8D9D" transform="translate(99,132)"/>
<path d="M0 0 C14.91274671 27.62063108 26.81656377 55.4601786 34.26171875 85.98730469 C34.99977317 88.99907438 35.76523476 92.00304968 36.53125 95.0078125 C42.94894655 120.80095706 46.51223296 147.47199889 48 174 C48.04163269 174.68901398 48.08326538 175.37802795 48.12615967 176.08792114 C49.09771936 192.49992285 49.15571069 208.90511349 49.13037109 225.33911133 C49.12582161 228.31601969 49.12580065 231.29286707 49.13037109 234.26977539 C49.14550272 244.18067761 49.11066833 254.08966626 49 264 C48.98674683 265.23651306 48.97349365 266.47302612 48.95983887 267.74700928 C48.91157805 271.14881556 48.83357347 274.54832738 48.7421875 277.94921875 C48.72177902 279.40229179 48.72177902 279.40229179 48.70095825 280.88471985 C48.44780919 288.20193521 47.35562904 296.59354062 42.01657104 302.01347351 C35.92696825 306.84080876 30.55143425 308.3275403 22.8125 308.1875 C21.66986694 308.17348145 21.66986694 308.17348145 20.50415039 308.15917969 C12.25070595 308.02210555 4.73538018 307.25645747 -3.28125 305.18359375 C-11.63230286 303.0618355 -20.0227355 301.16251133 -28.4375 299.3125 C-29.98270102 298.97110566 -31.52786607 298.62954847 -33.07299805 298.2878418 C-37.188794 297.37841114 -41.30526735 296.47208802 -45.42199707 295.56689453 C-48.04411286 294.99029973 -50.66611031 294.41316932 -53.28808594 293.8359375 C-57.74519911 292.85482219 -62.20262297 291.87512606 -66.66012573 290.89578247 C-69.30108721 290.31500978 -71.94170214 289.73268148 -74.58227539 289.15014648 C-81.72460537 287.57694773 -88.8652603 286.01014473 -96.03515625 284.56640625 C-115.82176721 280.55907202 -140.17927074 275.05401556 -152.3125 257.4375 C-155.68339003 252.25648819 -157.29111499 248.25897226 -157 242 C-156.42894531 242.15557373 -155.85789062 242.31114746 -155.26953125 242.47143555 C-143.29564484 245.71356993 -131.31675557 248.65281541 -119.15771484 251.11303711 C-112.11680488 252.54267775 -105.11842304 254.10455414 -98.125 255.75 C-84.49474658 258.94798172 -70.80457099 261.85511433 -57.10791016 264.75292969 C-55.38310608 265.11899014 -53.6583335 265.48519906 -51.93359375 265.8515625 C-51.09379471 266.02908554 -50.25399567 266.20660858 -49.38874817 266.38951111 C-44.58911672 267.41339628 -39.82085672 268.52345578 -35.05825806 269.70698547 C-28.1901492 271.40291616 -21.66960107 272.64301905 -14.5625 272.4375 C-13.72050049 272.42356201 -12.87850098 272.40962402 -12.01098633 272.39526367 C-6.00108861 272.21642888 -0.47209677 271.66561546 5 269 C5.66128906 268.68289063 6.32257813 268.36578125 7.00390625 268.0390625 C12.54785404 264.77519345 14.13169854 259.9263326 16 254 C16.33 253.01 16.66 252.02 17 251 C17.0685495 249.10529184 17.08480372 247.2083166 17.0625 245.3125 C17.05347656 244.31863281 17.04445313 243.32476562 17.03515625 242.30078125 C17.02355469 241.54152344 17.01195312 240.78226563 17 240 C17.99 239.67 18.98 239.34 20 239 C20.25069913 236.62570704 20.25069913 236.62570704 20 234 C19.484375 233.484375 18.96875 232.96875 18.4375 232.4375 C17.963125 231.963125 17.48875 231.48875 17 231 C17.32224488 229.66394344 17.6588187 228.33134677 18 227 C18.09773756 224.7245651 18.13818813 222.44646734 18.14526367 220.16894531 C18.14862228 219.48824478 18.1519809 218.80754425 18.15544128 218.10621643 C18.16495815 215.84683403 18.16689754 213.58752625 18.16796875 211.328125 C18.17119062 209.72898327 18.17455536 208.12984183 18.17805481 206.53070068 C18.18405475 203.1579928 18.1858948 199.7853105 18.18530273 196.41259766 C18.18522278 193.02094028 18.19194616 189.62942172 18.20581055 186.23779297 C18.36185672 147.52231857 15.73827677 109.98903659 8.71533203 71.88867188 C8.12174444 68.6618244 7.5412823 65.4330574 6.96484375 62.203125 C3.69330703 44.37840808 -1.68811667 27.08322267 -7.86645508 10.06640625 C-10 4.18212005 -10 4.18212005 -10 2 C-6.45648927 0.38010938 -3.87280581 -0.10414268 0 0 Z " fill="#FC8D9D" transform="translate(455,187)"/>
<path d="M0 0 C2.14576637 -0.02685938 4.29162645 -0.04633088 6.4375 -0.0625 C7.63246094 -0.07410156 8.82742188 -0.08570312 10.05859375 -0.09765625 C13 0 13 0 14 1 C14.04080783 2.99958364 14.04254356 5.00045254 14 7 C13.01 7 12.02 7 11 7 C11 8.65 11 10.3 11 12 C11.90878906 12.12955078 11.90878906 12.12955078 12.8359375 12.26171875 C19.59027664 13.39436947 25.0344565 15.67452682 31 19 C31.89130413 16.3260876 32.47731534 13.76276177 33 11 C35.0625 10.0625 35.0625 10.0625 38 10 C41.69509613 12.5728252 44.66540207 15.32701033 45.5625 19.8125 C45 22 45 22 43 24 C40.375 24.125 40.375 24.125 38 24 C37.67 24.66 37.34 25.32 37 26 C37.88772978 27.74606454 38.8617297 29.44866803 39.875 31.125 C42.62459057 35.95587788 43.7915715 39.47664478 44 45 C45.32 45 46.64 45 48 45 C48.66 43.68 49.32 42.36 50 41 C54.875 41.875 54.875 41.875 56 43 C56.12514928 44.97619447 56.1757276 46.95738173 56.1875 48.9375 C56.20167969 50.01902344 56.21585937 51.10054687 56.23046875 52.21484375 C56 55 56 55 54 57 C51.375 56.625 51.375 56.625 49 56 C48.67 55.01 48.34 54.02 48 53 C46.68 53 45.36 53 44 53 C43.89816406 54.01191406 43.79632813 55.02382812 43.69140625 56.06640625 C42.97392373 60.14835485 41.73927467 63.21894376 39.9375 66.9375 C39.11572266 68.65259766 39.11572266 68.65259766 38.27734375 70.40234375 C37.85582031 71.25957031 37.43429687 72.11679688 37 73 C39.64 73.99 42.28 74.98 45 76 C45.4375 78.0625 45.4375 78.0625 45 81 C43.00387546 83.77991355 40.81146412 86.04243097 38 88 C35.0625 87.9375 35.0625 87.9375 33 87 C32.7834375 85.824375 32.7834375 85.824375 32.5625 84.625 C32.12201075 82.03578982 32.12201075 82.03578982 31 80 C28.58531 80.93471871 26.20842188 81.89962034 23.875 83.0234375 C19.39813235 85.15599945 16.08123157 86.52115196 11 86 C11 87.65 11 89.3 11 91 C11.99 91.33 12.98 91.66 14 92 C14.125 94.375 14.125 94.375 14 97 C12 99 12 99 9.46875 99.265625 C8.4890625 99.26046875 7.509375 99.2553125 6.5 99.25 C5.5203125 99.25515625 4.540625 99.2603125 3.53125 99.265625 C1 99 1 99 -1 97 C-1.125 94.375 -1.125 94.375 -1 92 C0.98 91.505 0.98 91.505 3 91 C3 89.35 3 87.7 3 86 C2.443125 85.97421875 1.88625 85.9484375 1.3125 85.921875 C-3.86030372 85.53740986 -7.66557567 84.50935727 -12.17578125 81.9375 C-14.09854333 80.94935675 -15.89144052 80.44684704 -18 80 C-19.15392455 82.3078491 -19.53437166 84.47230331 -20 87 C-22.0625 87.9375 -22.0625 87.9375 -25 88 C-27.81238633 86.04178885 -29.99714991 83.77578097 -32 81 C-32.5 78.125 -32.5 78.125 -32 76 C-30.03177114 74.03177114 -26.65191291 74.33751619 -24 74 C-24.66220878 70.68895612 -25.93424089 68.13321093 -27.5625 65.1875 C-29.83757265 60.77464356 -30.5334107 57.90737842 -30 53 C-31.65 53 -33.3 53 -35 53 C-35.66 54.32 -36.32 55.64 -37 57 C-41.875 56.125 -41.875 56.125 -43 55 C-43.15135944 53.2127943 -43.22175778 51.41838124 -43.25 49.625 C-43.27578125 48.64789063 -43.3015625 47.67078125 -43.328125 46.6640625 C-43 44 -43 44 -41.6171875 42.140625 C-40 41 -40 41 -37.875 41.125 C-36.946875 41.558125 -36.946875 41.558125 -36 42 C-35.67 42.99 -35.34 43.98 -35 45 C-33.35 45 -31.7 45 -30 45 C-29.9071875 43.0509375 -29.9071875 43.0509375 -29.8125 41.0625 C-29.31798231 36.24665847 -27.57001995 32.96704732 -24.9609375 28.9453125 C-23.65222402 26.87052361 -23.65222402 26.87052361 -25 24 C-25.78375 24.04125 -26.5675 24.0825 -27.375 24.125 C-30 24 -30 24 -32 22 C-32.07404149 18.74217444 -31.63548461 16.7502711 -29.5078125 14.23828125 C-26.14207144 11.13977715 -26.14207144 11.13977715 -24 10 C-21.76953125 10.33984375 -21.76953125 10.33984375 -20 11 C-19.34 13.31 -18.68 15.62 -18 18 C-15.10730092 17.38697768 -12.87353372 16.46037981 -10.3125 15 C-5.95580039 12.73550077 -1.85878508 12.22494375 3 12 C3 10.68 3 9.36 3 8 C1.68 7.34 0.36 6.68 -1 6 C-0.67 4.02 -0.34 2.04 0 0 Z " fill="#343E5D" transform="translate(424,68)"/>
<path d="M0 0 C9.9 0 19.8 0 30 0 C30 2.495625 30 4.99125 30 7.5625 C30.56899728 22.58141555 39.68455143 35.01430198 50.265625 45.17578125 C52 47 52 47 52 49 C52.5878125 49.25394531 53.175625 49.50789063 53.78125 49.76953125 C56.24937161 51.13829587 57.61543206 52.59131744 59.5 54.6875 C68.54482817 63.93991439 79.64187287 71.09717333 90.06640625 78.69140625 C99.36142785 85.47433471 108.34760814 92.41400938 117 100 C117.81726563 100.68320312 118.63453125 101.36640625 119.4765625 102.0703125 C132.54767065 113.16503316 141.85317096 127.95142708 149.1875 143.3125 C149.49123535 143.9405957 149.7949707 144.56869141 150.10791016 145.21582031 C152.12416265 149.62751204 152.12416265 149.62751204 151 153 C150.03513672 151.74509766 150.03513672 151.74509766 149.05078125 150.46484375 C142.00702007 141.36549479 134.66579937 132.58131483 127 124 C126.42314453 123.35321289 125.84628906 122.70642578 125.25195312 122.04003906 C112.90570782 108.28181985 99.78141626 97.60182823 84 88 C83.19916992 87.51241211 82.39833984 87.02482422 81.57324219 86.52246094 C70.50019248 79.8490682 59.23383467 74.01061454 47.34545898 68.91601562 C38.66331851 65.12356052 31.10311137 60.17133895 24.0625 53.8125 C22.99708984 52.86310547 22.99708984 52.86310547 21.91015625 51.89453125 C20.04580315 50.04542848 18.51432471 48.14094184 17 46 C13.80437993 46.31014684 12.3375173 46.66181169 10.03515625 48.96875 C9.05869141 50.22171875 9.05869141 50.22171875 8.0625 51.5 C-1.44113166 62.39214928 -13.97486427 67.46991674 -26.89794922 73.27685547 C-67.07744438 91.55176687 -94.26649046 118.77111395 -121 153 C-122.43109929 148.70670213 -120.50141867 146.04793796 -118.625 142.1875 C-118.25922852 141.42848389 -117.89345703 140.66946777 -117.51660156 139.88745117 C-109.63409266 123.88970849 -99.00750134 109.18750932 -85 98 C-83.81393081 97.01703909 -82.62916811 96.03250077 -81.4453125 95.046875 C-74.59281929 89.3729804 -67.65085373 83.92329189 -60.36962891 78.81152344 C-48.28962117 70.31141043 -36.07505723 61.48840568 -25.86328125 50.75390625 C-24 49 -24 49 -22 49 C-21.61714844 48.13181641 -21.61714844 48.13181641 -21.2265625 47.24609375 C-19.8760794 44.77307534 -18.32815919 43.08958354 -16.375 41.0625 C-11.37384608 35.56031973 -7.6489666 29.44839551 -4 23 C-3.443125 22.06285156 -2.88625 21.12570313 -2.3125 20.16015625 C-0.62242042 16.09088725 -0.44284719 12.48593624 -0.3125 8.125 C-0.209375 5.44375 -0.10625 2.7625 0 0 Z " fill="#E4C49A" transform="translate(241,183)"/>
<path d="M0 0 C0.33 0.99 0.66 1.98 1 3 C3.41619823 3.25030977 3.41619823 3.25030977 6 3 C6.66 2.01 7.32 1.02 8 0 C15.57699754 1.37763592 21.83084557 4.16187694 26.83203125 10.21875 C29.96297715 14.78947394 33 19.32195797 33 25 C31.68 25.33 30.36 25.66 29 26 C29.495 28.97 29.495 28.97 30 32 C30.99 32.33 31.98 32.66 33 33 C31.78421746 42.05548372 28.09463437 47.81211009 20.875 53.375 C16.72913832 56.35535839 13.26637604 58.69294422 8 58 C7.34 57.01 6.68 56.02 6 55 C2.91634129 54.7497843 2.91634129 54.7497843 0 55 C0 55.99 0 56.98 0 58 C-7.9260034 57.71178169 -13.40159616 54.85926894 -18.83203125 49.03515625 C-22.82936638 43.96797474 -25 39.56909771 -25 33 C-24.01 32.34 -23.02 31.68 -22 31 C-22 29.68 -22 28.36 -22 27 C-22.99 26.34 -23.98 25.68 -25 25 C-24.71582789 17.04318087 -21.79937767 12.85154304 -16.29296875 7.26953125 C-11.41522131 2.81019104 -6.77996647 0 0 0 Z " fill="#ED4153" transform="translate(427,88)"/>
<path d="M0 0 C9.9 0 19.8 0 30 0 C30 9.57 30 19.14 30 29 C20.1 29 10.2 29 0 29 C0 19.43 0 9.86 0 0 Z " fill="#E8C79C" transform="translate(241,17)"/>
<path d="M0 0 C9.9 0 19.8 0 30 0 C30 8.25 30 16.5 30 25 C20.1 25 10.2 25 0 25 C0 16.75 0 8.5 0 0 Z " fill="#E2C299" transform="translate(241,54)"/>
<path d="M0 0 C9.9 0 19.8 0 30 0 C30 7.92 30 15.84 30 24 C20.1 24 10.2 24 0 24 C0 16.08 0 8.16 0 0 Z " fill="#E6C69B" transform="translate(241,151)"/>
<path d="M0 0 C9.9 0 19.8 0 30 0 C30 7.92 30 15.84 30 24 C20.1 24 10.2 24 0 24 C0 16.08 0 8.16 0 0 Z " fill="#E8C79C" transform="translate(241,119)"/>
<path d="M0 0 C9.9 0 19.8 0 30 0 C30 7.92 30 15.84 30 24 C20.1 24 10.2 24 0 24 C0 16.08 0 8.16 0 0 Z " fill="#E6C69B" transform="translate(241,87)"/>
<path d="M0 0 C4.18459301 1.72841885 6.20718739 3.84822343 8 8 C8.5660929 13.18918491 7.95455268 16.66665607 5 21 C1.13401751 23.69719709 -2.3944424 24.59001926 -7.03515625 24.4296875 C-10.6186316 23.6460249 -12.47052561 21.59116889 -15 19 C-16.86233425 15.27533151 -16.57130829 11.05504687 -16 7 C-12.26977637 0.0267088 -7.27520611 -0.69347719 0 0 Z " fill="#343A59" transform="translate(435,105)"/>
<path d="M0 0 C2.5625 0.1875 2.5625 0.1875 4.5625 2.1875 C4.00694444 6.74305556 4.00694444 6.74305556 2.5625 8.1875 C0.0625 8.3125 0.0625 8.3125 -2.4375 8.1875 C-3.4375 7.1875 -3.4375 7.1875 -3.5625 4.1875 C-3.39891479 0.26145498 -3.39891479 0.26145498 0 0 Z " fill="#E84153" transform="translate(430.4375,112.8125)"/>
</svg>
