<?xml version="1.0" encoding="UTF-8"?>
<svg version="1.1" xmlns="http://www.w3.org/2000/svg" width="512" height="512">
<path d="M0 0 C8.59788675 6.53550873 15.72430971 14.51011074 22.4296875 22.921875 C25.33120729 26.50010708 28.34434535 29.96866792 31.375 33.4375 C35.10948633 37.71925404 38.79960598 42.02083679 42.375 46.4375 C46.45321716 51.47178272 50.68117058 56.36260708 54.93530273 61.24780273 C58.92216333 65.82866089 62.8631908 70.44500287 66.77636719 75.08886719 C70.15981948 79.10134184 73.57600184 83.08460388 77 87.0625 C80.49323856 91.12370876 83.93948707 95.21268971 87.3125 99.375 C92.46554648 105.71864205 97.84571967 111.85967562 103.2109375 118.0234375 C107.35469283 122.78972884 111.47536815 127.57480332 115.55859375 132.39306641 C116.74618039 133.78636631 117.95025396 135.16557258 119.15625 136.54296875 C129.6586899 148.92372963 135.1640864 162.64999564 133.875 178.9375 C131.63262092 193.63544688 123.9003032 203.52490417 114.32519531 214.28564453 C112.29660028 216.59633039 110.36594427 218.98045574 108.4375 221.375 C103.28313208 227.72026881 97.90137235 233.86259448 92.53466797 240.02783203 C86.4142154 247.07022391 80.31469663 254.12752801 74.4375 261.375 C70.33520051 266.42683717 66.08798022 271.3405598 61.81494141 276.24755859 C57.82796241 280.82846638 53.88688319 285.44491507 49.97363281 290.08886719 C46.59018052 294.10134184 43.17399816 298.08460388 39.75 302.0625 C36.25676144 306.12370876 32.81051293 310.21268971 29.4375 314.375 C25.22901372 319.5605937 20.86931997 324.60520386 16.47875977 329.63647461 C15.95467529 330.2372583 15.43059082 330.83804199 14.890625 331.45703125 C14.37991455 332.04129883 13.8692041 332.62556641 13.34301758 333.22753906 C11.95315725 334.84646169 10.61437993 336.49760109 9.27734375 338.16015625 C2.38566624 346.12760781 -8.50314836 352.09598001 -19.10107422 353.13037109 C-34.70068 353.73500698 -47.16462451 351.93912796 -59.125 340.9375 C-59.73730469 340.43863281 -60.34960938 339.93976563 -60.98046875 339.42578125 C-69.682026 331.7999132 -74.48085453 319.46646317 -75.3359375 308.14453125 C-75.96151246 289.54570643 -67.52878713 276.97622428 -55.67431641 263.68847656 C-53.27644009 260.97849091 -50.95177708 258.20849919 -48.625 255.4375 C-44.77582327 250.87334687 -40.89461605 246.33790806 -37 241.8125 C-32.53624439 236.62423033 -28.16791927 231.37159053 -23.8671875 226.046875 C-22.125 223.9375 -22.125 223.9375 -20.125 221.9375 C-21.38257378 221.93668285 -21.38257378 221.93668285 -22.66555309 221.93584919 C-43.10762411 221.92085259 -63.54947776 221.87828954 -83.99142742 221.80540943 C-93.87720369 221.77082248 -103.76284143 221.74541218 -113.64868164 221.74194336 C-122.26970591 221.73889469 -130.89048306 221.71828327 -139.51141196 221.67697543 C-144.07210223 221.65572542 -148.63244189 221.64300343 -153.19318199 221.65134621 C-157.49518757 221.65893734 -161.79648573 221.64286031 -166.09836197 221.60943985 C-167.66834873 221.60126708 -169.23840667 221.60138434 -170.80838585 221.61090279 C-185.60874606 221.69167466 -198.47896287 218.01471889 -209.5 207.71875 C-214.9602346 202.04297983 -218.41002438 196.30827717 -221.125 188.9375 C-221.48851562 188.03644531 -221.85203125 187.13539063 -222.2265625 186.20703125 C-225.50882885 174.26243588 -223.90930985 160.75431286 -218.125 149.9375 C-217.47337891 148.71353516 -217.47337891 148.71353516 -216.80859375 147.46484375 C-210.7741996 137.44190419 -201.98468321 130.93759041 -191.125 126.9375 C-190.22461439 126.59318247 -189.32422878 126.24886494 -188.39655876 125.89411354 C-184.82117118 124.84865955 -181.86107693 124.6760209 -178.13943481 124.6590271 C-177.12106578 124.6503385 -177.12106578 124.6503385 -176.08212364 124.64147437 C-173.82048789 124.62454818 -171.55905712 124.62160431 -169.29736328 124.61865234 C-167.67087813 124.60934906 -166.04439774 124.59917979 -164.41792297 124.58821106 C-160.01140409 124.56094215 -155.60491713 124.54577086 -151.19833612 124.53278303 C-146.58985902 124.5171389 -141.98144697 124.49035275 -137.37301636 124.4647522 C-128.65028792 124.41798714 -119.92754721 124.38123202 -111.20475757 124.34807932 C-101.27248181 124.30984189 -91.34027142 124.26043596 -81.40805078 124.21009517 C-60.98041546 124.10680911 -40.55273876 124.01753788 -20.125 123.9375 C-21.13276489 122.83776855 -21.13276489 122.83776855 -22.16088867 121.71582031 C-23.0501001 120.74225586 -23.93931152 119.76869141 -24.85546875 118.765625 C-25.73356201 117.8055957 -26.61165527 116.84556641 -27.51635742 115.85644531 C-30.68137371 112.31494464 -33.66216031 108.64809784 -36.64453125 104.953125 C-39.57469021 101.39079001 -42.59281425 97.91296222 -45.625 94.4375 C-50.91573045 88.36451528 -56.07606138 82.21402369 -61.125 75.9375 C-61.76179687 75.18210937 -62.39859375 74.42671875 -63.0546875 73.6484375 C-72.41567341 62.27865633 -76.2822802 49.55964344 -75.125 34.9375 C-72.86928842 20.1521636 -65.65550402 9.66800823 -54.16015625 0.34375 C-38.56024116 -10.4739501 -15.70380541 -10.25554639 0 0 Z " fill="#000000" transform="translate(223.125,83.0625)"/>
<path d="M0 0 C6.69361944 5.77889652 12.30552279 12.53496507 17.94482422 19.31445312 C19.80974828 21.55407912 21.6924743 23.77824953 23.5769043 26.00146484 C24.47913026 27.06602961 25.38033468 28.13146099 26.28051758 29.19775391 C29.68196817 33.22625346 33.11552199 37.22634701 36.5546875 41.22265625 C40.04788232 45.28390435 43.49417301 49.37284404 46.8671875 53.53515625 C50.96948699 58.58699342 55.21670728 63.50071605 59.48974609 68.40771484 C63.47672509 72.98862263 67.41780431 77.60507132 71.33105469 82.24902344 C74.71450698 86.26149809 78.13068934 90.24476013 81.5546875 94.22265625 C85.04792606 98.28386501 88.49417457 102.37284596 91.8671875 106.53515625 C95.38239007 110.86740591 99.00994101 115.08449772 102.6796875 119.28515625 C118.92422128 137.97296382 130.80622736 151.85241092 129.625 177.77050781 C129.21150134 182.69734431 127.71461751 186.75845163 125.4296875 191.09765625 C125.05199219 191.87367188 124.67429687 192.6496875 124.28515625 193.44921875 C120.07523659 201.25855612 113.93880853 207.64845613 108.07714844 214.23242188 C105.62898258 217.0042042 103.24579417 219.8286886 100.8671875 222.66015625 C97.03960224 227.2042353 93.18059653 231.71974393 89.3046875 236.22265625 C85.81144894 240.28386501 82.36520043 244.37284596 78.9921875 248.53515625 C74.88988801 253.58699342 70.64266772 258.50071605 66.36962891 263.40771484 C62.38264991 267.98862263 58.44157069 272.60507132 54.52832031 277.24902344 C51.14486802 281.26149809 47.72868566 285.24476013 44.3046875 289.22265625 C40.81144894 293.28386501 37.36520043 297.37284596 33.9921875 301.53515625 C29.91372449 306.55593563 25.70138291 311.44895721 21.44873047 316.32202148 C18.67584397 319.50021331 15.92086199 322.68972547 13.2109375 325.921875 C3.08562452 337.98297941 -7.07440597 348.72743705 -23.73730469 350.30249023 C-40.06010863 351.01430359 -53.2175491 347.8296642 -65.8203125 336.66015625 C-76.22072402 325.583827 -78.97773 312.16792938 -78.79296875 297.5703125 C-78.25303879 281.30110207 -67.33392135 269.01114518 -56.8046875 257.57421875 C-54.55547156 255.08120667 -52.43080169 252.52130893 -50.3203125 249.91015625 C-46.66185116 245.38824686 -42.89338534 240.97986726 -39.0703125 236.59765625 C-35.33616082 232.31559333 -31.64572146 228.0143379 -28.0703125 223.59765625 C-23.99209534 218.56337353 -19.76414192 213.67254917 -15.51000977 208.78735352 C-11.52690503 204.2108108 -7.5896323 199.59878284 -3.67993164 194.95947266 C0.30713095 190.23152889 4.33256141 185.53709845 8.37133789 180.85327148 C11.12495015 177.65193269 13.81309877 174.41323914 16.4296875 171.09765625 C14.79788867 167.26567922 12.25368249 164.33644613 9.5546875 161.22265625 C9.0714502 160.65820801 8.58821289 160.09375977 8.09033203 159.51220703 C6.54081145 157.7038523 4.98567783 155.90044554 3.4296875 154.09765625 C1.38656048 151.72390943 -0.65472833 149.34858919 -2.6953125 146.97265625 C-3.2018335 146.38363525 -3.70835449 145.79461426 -4.23022461 145.18774414 C-7.20667156 141.71787293 -10.12932161 138.21222453 -13.0078125 134.66015625 C-17.11011199 129.60831908 -21.35733228 124.69459645 -25.63037109 119.78759766 C-29.61735009 115.20668987 -33.55842931 110.59024118 -37.47167969 105.94628906 C-40.3464461 102.5370708 -43.24185635 99.14666825 -46.15112305 95.7668457 C-51.72535171 89.29016484 -57.19649723 82.74237382 -62.5703125 76.09765625 C-63.29347656 75.22109375 -64.01664062 74.34453125 -64.76171875 73.44140625 C-76.19149149 59.46466757 -79.64515575 46.8675744 -78.5703125 29.09765625 C-77.01661252 18.22175641 -70.26978019 6.79081949 -61.5703125 0.09765625 C-42.39507963 -13.08015802 -19.10753098 -14.14189603 0 0 Z " fill="#000000" transform="translate(382.5703125,85.90234375)"/>
</svg>
