<?xml version="1.0" encoding="UTF-8"?>
<svg version="1.1" xmlns="http://www.w3.org/2000/svg" width="512" height="512">
<path d="M0 0 C0.73221771 -0.00671722 1.46443542 -0.01343445 2.21884155 -0.02035522 C4.63570979 -0.03932891 7.05230023 -0.04325908 9.46923828 -0.04541016 C11.1530875 -0.0518386 12.8369356 -0.05856699 14.52078247 -0.06558228 C18.04968861 -0.0775535 21.57849687 -0.08126327 25.10742188 -0.08007812 C29.62237505 -0.07987496 34.1366986 -0.10717496 38.65150261 -0.14162254 C42.12943385 -0.16389481 45.60721365 -0.16791557 49.08520889 -0.16685867 C50.74934178 -0.16921422 52.41347887 -0.17803521 54.07754135 -0.19352341 C56.40890945 -0.21319057 58.73892107 -0.20734364 61.0703125 -0.1953125 C62.09451294 -0.21217102 62.09451294 -0.21217102 63.1394043 -0.22937012 C68.08024984 -0.16480265 70.85491784 1.21509608 74.66455078 4.29052734 C76.35655356 6.43945395 77.86330959 8.51465716 79.35205078 10.79052734 C89.06289008 24.92950936 102.71384073 40.31051678 118.66455078 47.29052734 C121.10298101 47.00528838 121.10298101 47.00528838 123.66455078 46.29052734 C130.38192133 45.51823085 134.01291618 47.82604552 139.47705078 51.29052734 C152.98610174 59.44732908 167.09935537 65.09460646 181.78955078 70.79052734 C192.06216581 74.77715996 202.03158903 78.93118172 211.66455078 84.29052734 C212.63650391 84.82677734 213.60845703 85.36302734 214.60986328 85.91552734 C226.79379861 93.13563717 240.05685111 104.46742834 244.66455078 118.29052734 C244.90283203 120.34130859 244.90283203 120.34130859 244.97705078 122.60302734 C245.01443359 123.34166016 245.05181641 124.08029297 245.09033203 124.84130859 C244.66455078 127.29052734 244.66455078 127.29052734 242.46142578 130.12646484 C241.57197266 131.69267578 241.57197266 131.69267578 240.66455078 133.29052734 C241.44913312 136.12709427 242.23830626 138.06579883 243.60205078 140.60302734 C244.29002841 142.01699242 244.96949087 143.43512706 245.64111328 144.85693359 C245.98561523 145.58541504 246.33011719 146.31389648 246.68505859 147.06445312 C248.25607754 150.63487954 249.39317318 154.29788905 250.47705078 158.04052734 C250.67097412 158.68803955 250.86489746 159.33555176 251.06469727 160.00268555 C254.08943495 170.64695094 255.01420751 181.3401566 255.28515625 192.36401367 C255.32315462 193.71958338 255.36125279 195.07515029 255.39944267 196.43071461 C255.79945055 211.53503253 255.78310549 226.64100541 255.74088049 241.74934983 C255.73046717 245.84287868 255.72569369 249.93641507 255.72024536 254.029953 C255.71294501 259.19670506 255.70481065 264.36345244 255.69382286 269.5301981 C255.66989751 280.78567736 255.66098217 292.04106485 255.66310835 303.29656816 C255.66604676 319.4611116 255.64157032 335.62535074 255.58425522 351.78979683 C255.554316 360.43130342 255.53669634 369.07254932 255.54443359 377.71411133 C255.55135736 385.48380949 255.53746347 393.25313851 255.49811471 401.02274531 C255.47828939 405.07135037 255.46835759 409.11937276 255.48412704 413.1680088 C255.49842469 416.91138662 255.48481489 420.65361707 255.44959831 424.39684677 C255.43788686 426.40698838 255.45570633 428.41723483 255.47453308 430.42732239 C255.38220975 437.09848515 255.04903193 441.36726859 250.14518929 446.14737988 C246.95215223 448.61260836 244.46412782 448.44425467 240.48999023 448.49926758 C239.19136551 448.5185582 237.89274078 448.53784882 236.55476379 448.557724 C235.12913001 448.57253319 233.70348514 448.5863063 232.27783203 448.59912109 C231.20146516 448.60897883 231.20146516 448.60897883 230.1033535 448.61903572 C226.30223945 448.65163692 222.50115344 448.67608137 218.69995117 448.69555664 C215.55988511 448.71334301 212.42072168 448.74811612 209.28100586 448.7980957 C205.48548705 448.85844184 201.69080258 448.88905202 197.89482689 448.89872932 C196.45193971 448.90726404 195.00907363 448.92603366 193.56646156 448.95547295 C180.87282826 449.20048322 180.87282826 449.20048322 176.28637695 445.37670898 C173.23329985 442.16685977 172.53961732 440.00572177 172.4909668 435.60180664 C172.47058853 434.12741119 172.47058853 434.12741119 172.44979858 432.62322998 C172.43945587 431.5479303 172.42911316 430.47263062 172.41845703 429.36474609 C172.38710593 427.05541575 172.35543583 424.74608972 172.32348633 422.43676758 C172.30812836 421.21947968 172.29277039 420.00219177 172.27694702 418.74801636 C171.63006467 369.87180169 168.41701644 322.95597976 156.66455078 275.29052734 C152.86773242 291.56237094 149.36160646 307.82916627 146.85205078 324.35302734 C146.65780518 325.60784912 146.46355957 326.8626709 146.26342773 328.15551758 C145.67168909 332.19529681 145.14373144 336.23608495 144.66455078 340.29052734 C144.57232239 341.06305847 144.48009399 341.8355896 144.3850708 342.63153076 C142.09995258 362.61705922 142.27572827 382.68814537 142.14886475 402.77404785 C142.11751129 407.63776766 142.0783527 412.5013005 142.02861023 417.36486816 C142.00876247 419.61322658 142.00028149 421.86143632 141.99230957 424.10986328 C141.9793373 425.49040268 141.96581701 426.87093708 141.95166016 428.25146484 C141.9443689 429.44562012 141.93707764 430.63977539 141.92956543 431.87011719 C141.49658968 437.45831636 140.83324675 441.58335423 136.60953522 445.45759964 C132.51608271 448.81342386 129.29171891 449.14239904 124.12524414 449.0524292 C123.29115745 449.06178914 122.45707075 449.07114909 121.5977087 449.08079267 C118.81594785 449.10463569 116.03616832 449.08580563 113.25439453 449.06689453 C111.25488133 449.07502868 109.25537712 449.08571398 107.25588989 449.09875488 C101.83429502 449.12608251 96.41338603 449.11551334 90.99177933 449.09648037 C85.31489479 449.08127712 79.63806851 449.09538117 73.96118164 449.10479736 C64.42827829 449.11570961 54.89565395 449.10133706 45.36279297 449.07275391 C34.34547662 449.04010102 23.3288265 449.05067827 12.3115263 449.08371234 C2.84802649 449.11095054 -6.6152729 449.11477738 -16.07879925 449.09908032 C-21.72908637 449.08973179 -27.37906045 449.08846355 -33.02932739 449.10829926 C-38.34181998 449.12564684 -43.65345463 449.11358185 -48.96585464 449.07893372 C-50.91410015 449.07100813 -52.86241801 449.07326531 -54.81063461 449.0865097 C-57.47344117 449.10294145 -60.13350992 449.0823087 -62.79614258 449.0524292 C-63.5647313 449.06581353 -64.33332003 449.07919786 -65.12519932 449.09298778 C-70.4047655 448.97829346 -73.13433964 447.42524501 -77.00675297 443.86921048 C-79.49317517 440.91498162 -79.47340833 437.97309746 -79.52490234 434.28198242 C-79.54161987 433.25853226 -79.5583374 432.23508209 -79.57556152 431.18061829 C-79.58913696 430.06833359 -79.6027124 428.95604889 -79.61669922 427.81005859 C-79.63510864 426.65044113 -79.65351807 425.49082367 -79.67248535 424.29606628 C-79.7312861 420.56510564 -79.78389318 416.83409462 -79.83544922 413.10302734 C-80.03574944 399.03989262 -80.24317105 384.98145066 -80.80419922 370.92724609 C-80.84154175 369.95245804 -80.87888428 368.97766998 -80.9173584 367.9733429 C-80.7593524 359.20914732 -80.7593524 359.20914732 -83.79293823 351.48455811 C-85.74788677 348.70388603 -86.10546433 346.44758926 -86.66992188 343.10083008 C-86.88669586 341.8495079 -87.10346985 340.59818573 -87.32681274 339.3089447 C-87.55121294 337.94736438 -87.77544183 336.58575581 -87.99951172 335.22412109 C-88.23840616 333.82437062 -88.47836135 332.4248008 -88.71932983 331.02540588 C-89.35007125 327.34731359 -89.96776768 323.66715275 -90.58233643 319.98632812 C-91.45142446 314.79564898 -92.33809325 309.60793961 -93.22299194 304.41993713 C-93.69397833 301.65844135 -94.15995473 298.89617216 -94.62197876 296.13316345 C-94.93768326 294.26090843 -94.93768326 294.26090843 -95.25976562 292.35083008 C-95.44391022 291.2503685 -95.62805481 290.14990692 -95.81777954 289.01609802 C-96.28757518 286.21139231 -96.28757518 286.21139231 -97.33544922 283.29052734 C-103.93194362 314.28459568 -109.34920424 345.17648952 -109.56524467 376.97036362 C-109.58196469 379.34254668 -109.60519864 381.7145903 -109.63014221 384.08670044 C-109.70013823 390.82025993 -109.76120262 397.55386772 -109.81225586 404.28759766 C-109.84413509 408.43294031 -109.88540307 412.57810402 -109.93245125 416.72330093 C-109.94838115 418.29165563 -109.96074387 419.86005104 -109.96935844 421.42846298 C-109.98158606 423.61948563 -110.00575742 425.8100892 -110.0324707 428.00097656 C-110.04277817 429.24305878 -110.05308563 430.48514099 -110.06370544 431.76486206 C-110.45827432 436.88408803 -111.17321116 442.00707829 -115.03076172 445.67822266 C-120.5769659 449.96868922 -127.52607355 449.15310712 -134.21044922 449.08740234 C-135.66341739 449.09145045 -137.11638158 449.09727885 -138.56933594 449.10479736 C-141.60570186 449.11361388 -144.64100442 449.10088413 -147.67724609 449.07275391 C-151.55476523 449.03856564 -155.4297926 449.05826503 -159.30722046 449.09418869 C-162.30495728 449.11594935 -165.30211059 449.10893424 -168.29986572 449.09342194 C-169.72870179 449.08944106 -171.15759216 449.09425498 -172.58636475 449.10829926 C-185.09761128 449.20431361 -185.09761128 449.20431361 -189.70263672 445.36572266 C-192.63801826 442.29856811 -193.46003072 440.23552488 -193.4696703 436.00854683 C-193.47412814 435.10424907 -193.47858598 434.19995131 -193.48317891 433.26825058 C-193.48299455 432.26829021 -193.48281019 431.26832983 -193.48262024 430.23806763 C-193.48629693 429.18057938 -193.48997362 428.12309112 -193.49376172 427.03355777 C-193.50483451 423.46572641 -193.50864863 419.89792413 -193.51245117 416.33007812 C-193.5187136 413.78098457 -193.5253602 411.23189192 -193.53236389 408.68280029 C-193.55162757 401.00975462 -193.56220293 393.33671404 -193.57109168 385.66365033 C-193.57547623 382.04505186 -193.58084308 378.42645484 -193.58608055 374.80785751 C-193.60310454 362.76551937 -193.61759221 350.72318215 -193.62482929 338.68083382 C-193.62673907 335.55382409 -193.6286594 332.42681438 -193.63061523 329.29980469 C-193.63109897 328.52264083 -193.63158271 327.74547697 -193.63208111 326.94476269 C-193.64035681 314.39389428 -193.66564657 301.84312194 -193.69819591 289.29229535 C-193.73138821 276.38739195 -193.74928949 263.4825371 -193.75247353 250.57759082 C-193.75462879 243.34011 -193.76323036 236.10276873 -193.78893471 228.86532974 C-193.81311502 222.0412376 -193.81639158 215.21739869 -193.80617332 208.3932724 C-193.80568114 205.90219921 -193.81190654 203.41111316 -193.82572937 200.92007828 C-193.91953716 182.99619709 -192.81219946 165.45847275 -186.14794922 148.60302734 C-185.85170654 147.8330542 -185.55546387 147.06308105 -185.25024414 146.26977539 C-174.49466244 119.1490557 -156.01906456 96.00159029 -131.33544922 80.29052734 C-130.34544922 79.63181641 -129.35544922 78.97310547 -128.33544922 78.29443359 C-117.25341236 71.40971819 -104.88652582 67.21114218 -92.74365234 62.58935547 C-60.89128923 50.45077583 -34.17398127 36.08820378 -14.73388672 6.88549805 C-10.53885435 0.71443064 -7.22730414 -0.00953722 0 0 Z " fill="#030303" transform="translate(225.33544921875,31.70947265625)"/>
<path d="M0 0 C1.53113921 -0.0301535 3.06226716 -0.06088411 4.59338379 -0.09216309 C7.80472092 -0.14757559 11.01477805 -0.17256139 14.2265625 -0.18066406 C17.50254955 -0.19348244 20.76929125 -0.26260627 24.04296875 -0.38574219 C52.6075657 -1.44318558 52.6075657 -1.44318558 59.58447266 4.94995117 C62.52643191 8.41303566 64.64116014 12.10529991 66.57637024 16.201828 C73.1214618 28.80508983 87.99405745 38.70886158 99.65625 46.28125 C95.59090837 49.72846951 91.28547541 52.38871576 86.71875 55.09375 C63.77048774 68.92528706 42.01875447 84.76517062 21.39306641 101.84863281 C18.89390595 103.91007132 16.36579629 105.93541707 13.84375 107.96875 C9.23851644 111.73729698 4.82751466 115.68913304 0.45703125 119.7265625 C-1.72602162 121.71779901 -3.92968365 123.66847939 -6.16015625 125.60546875 C-10.39477484 129.29961432 -14.50727501 133.11197971 -18.59375 136.96875 C-19.33028809 137.66355469 -20.06682617 138.35835937 -20.82568359 139.07421875 C-33.10521035 150.69922454 -33.10521035 150.69922454 -44.51171875 163.16796875 C-46.39258352 165.33758035 -48.3327449 167.44573509 -50.28637695 169.54980469 C-55.89815333 175.59870086 -61.17287343 181.84877915 -66.34375 188.28125 C-67.35160316 189.51015019 -68.36080155 190.73794793 -69.37109375 191.96484375 C-74.86044351 198.64393819 -80.26535865 205.37622741 -85.46875 212.28125 C-85.95859375 212.9299707 -86.4484375 213.57869141 -86.953125 214.24707031 C-89.52381497 217.69568159 -91.96468915 221.19137608 -94.29296875 224.80859375 C-94.77427246 225.54658203 -95.25557617 226.28457031 -95.75146484 227.04492188 C-96.66376009 228.45664883 -97.55729474 229.88074323 -98.42822266 231.31835938 C-98.83991699 231.95451172 -99.25161133 232.59066406 -99.67578125 233.24609375 C-100.02358643 233.8093335 -100.3713916 234.37257324 -100.72973633 234.95288086 C-103.29919392 237.06760159 -106.11525427 236.98069935 -109.34375 237.28125 C-116.47607956 263.20302448 -122.35235666 289.69571933 -126.34375 316.28125 C-126.53453125 317.50392578 -126.7253125 318.72660156 -126.921875 319.98632812 C-130.93912332 346.89917752 -130.88240668 373.9795363 -130.92364979 401.13158894 C-130.9301959 404.36478936 -130.94706397 407.59789766 -130.96495628 410.83105278 C-130.97252499 413.09741522 -130.96323727 415.36331026 -130.95344543 417.62965393 C-130.95973519 419.0033509 -130.96682498 420.37704452 -130.97485352 421.75073242 C-130.97389175 422.94405685 -130.97292999 424.13738129 -130.97193909 425.36686707 C-131.34375 428.28125 -131.34375 428.28125 -132.51573181 430.16514587 C-135.07305549 431.72653051 -136.97149396 431.66240149 -139.9609375 431.66943359 C-141.11223145 431.67889008 -142.26352539 431.68834656 -143.44970703 431.6980896 C-145.3153833 431.68898056 -145.3153833 431.68898056 -147.21875 431.6796875 C-148.49476074 431.68255768 -149.77077148 431.68542786 -151.08544922 431.68838501 C-153.78579116 431.69042835 -156.48532081 431.68638392 -159.18554688 431.67236328 C-162.6459423 431.65527089 -166.10563971 431.66511307 -169.56600952 431.68308067 C-172.86694806 431.69653016 -176.16780236 431.68711244 -179.46875 431.6796875 C-180.71253418 431.68576019 -181.95631836 431.69183289 -183.23779297 431.6980896 C-184.38908691 431.68863312 -185.54038086 431.67917664 -186.7265625 431.66943359 C-187.74121582 431.66704681 -188.75586914 431.66466003 -189.80126953 431.66220093 C-192.81236688 431.21103509 -193.49602269 430.63902713 -195.34375 428.28125 C-195.72209883 426.3151778 -195.72209883 426.3151778 -195.72686005 424.03074455 C-195.73591669 423.1588898 -195.74497333 422.28703504 -195.75430441 421.38876045 C-195.74897648 420.43014205 -195.74364856 419.47152364 -195.73815918 418.4838562 C-195.74425028 417.46579332 -195.75034139 416.44773045 -195.75661707 415.39881718 C-195.77333228 411.97003066 -195.76845875 408.54161209 -195.76367188 405.11279297 C-195.77100819 402.66033032 -195.77959313 400.20787113 -195.78933716 397.75541687 C-195.80931163 391.7696305 -195.81492937 385.78398989 -195.81314927 379.79818313 C-195.81184088 374.92145469 -195.81564983 370.04475637 -195.82307434 365.1680336 C-195.82517371 363.76215748 -195.82727131 362.35628136 -195.82936716 360.95040524 C-195.83041069 360.25050056 -195.83145422 359.55059588 -195.83252937 358.82948197 C-195.85145377 345.57536194 -195.85037779 332.32129716 -195.84356004 319.0671692 C-195.83801049 306.9949899 -195.85869474 294.92302455 -195.89192051 282.85089515 C-195.92584734 270.42617487 -195.94080057 258.00155638 -195.93620348 245.57678902 C-195.93397425 238.6135719 -195.93896883 231.6505513 -195.96409607 224.68737411 C-195.98760742 218.11601571 -195.98429834 211.54502017 -195.96416855 204.97362709 C-195.960796 202.58141162 -195.96568193 200.18916543 -195.98015213 197.79699135 C-196.17801289 162.61314736 -187.54099575 131.21084283 -164.34375 104.28125 C-163.72113281 103.52585937 -163.09851563 102.77046875 -162.45703125 101.9921875 C-145.06297199 81.45802424 -121.14249135 71.18740457 -96.50158691 62.17370605 C-77.58745833 55.24605523 -59.73535394 47.58340233 -44.34375 34.28125 C-42.84328125 33.02248047 -42.84328125 33.02248047 -41.3125 31.73828125 C-33.54167453 25.04763794 -23.68269788 16.10351163 -19.60238647 6.54443359 C-15.70484469 -1.13390192 -7.55272161 0.07231237 0 0 Z " fill="#FED8B5" transform="translate(236.34375,39.71875)"/>
<path d="M0 0 C2.76886497 1.09781447 4.54077775 2.85873298 6.71582031 4.87963867 C7.59496094 5.69561523 8.47410156 6.5115918 9.37988281 7.35229492 C15.21304522 12.90553777 20.71286904 18.59276349 25.90332031 24.75463867 C26.5880542 25.56070557 26.5880542 25.56070557 27.28662109 26.38305664 C35.45954511 36.04576853 42.80902176 46.04706471 49.59472656 56.73022461 C50.78151741 58.56620776 52.01511235 60.35365495 53.27832031 62.13745117 C54.26832031 63.61858398 54.26832031 63.61858398 55.27832031 65.12963867 C55.84292969 65.94174805 56.40753906 66.75385742 56.98925781 67.59057617 C58.48828481 72.77951578 56.96157635 77.54836211 55.90332031 82.75463867 C55.55909609 84.83750343 55.22568063 86.92218451 54.90332031 89.00854492 C54.73832031 90.04817383 54.57332031 91.08780273 54.40332031 92.15893555 C54.06938366 94.26821512 53.73605247 96.37759063 53.40332031 98.48706055 C53.23832031 99.52540039 53.07332031 100.56374023 52.90332031 101.63354492 C52.75894531 102.54692627 52.61457031 103.46030762 52.46582031 104.40136719 C52.14558994 106.3103794 51.81481283 108.21786512 51.45153809 110.11915588 C46.42669372 136.55254351 46.45376393 163.20310838 46.39801025 189.99371338 C46.38648826 194.98820099 46.36309705 199.98234903 46.32331848 204.97669411 C46.30982546 207.28520376 46.31389198 209.59324624 46.31872559 211.90177917 C46.30939876 213.3002483 46.29923347 214.69871217 46.28808594 216.09716797 C46.28603149 217.31462204 46.28397705 218.53207611 46.28186035 219.78642273 C45.90332031 222.75463867 45.90332031 222.75463867 44.86600494 224.41634274 C41.82605777 226.48919177 38.6747232 226.16721407 35.12182617 226.1355896 C33.92059191 226.14260956 33.92059191 226.14260956 32.69509029 226.14977133 C30.00261476 226.16176961 27.31064368 226.15224539 24.61816406 226.14282227 C22.69157615 226.14688582 20.76499057 226.15222649 18.83840942 226.15875244 C13.59882546 226.1724575 8.35941823 226.16711423 3.11983109 226.15761518 C-2.35607133 226.1500351 -7.83195833 226.15705959 -13.30786133 226.16177368 C-22.50474777 226.16723605 -31.70156201 226.16002698 -40.8984375 226.14575195 C-51.5406768 226.12942454 -62.1827437 226.13471271 -72.82497883 226.15123117 C-81.95198959 226.16483231 -91.07894837 226.16677242 -100.205966 226.15891516 C-105.6616009 226.1542311 -111.11715469 226.15363391 -116.57278442 226.16352463 C-121.70112326 226.17217207 -126.82923919 226.16621312 -131.95755386 226.14884186 C-133.84298456 226.14486511 -135.72843392 226.14603126 -137.61385727 226.15262985 C-140.18122248 226.16078866 -142.74786668 226.15059289 -145.31518555 226.1355896 C-146.06702653 226.14228176 -146.81886751 226.14897393 -147.59349155 226.15586889 C-150.50771327 226.12267671 -152.58607637 226.09382724 -155.05347633 224.45475864 C-156.89262891 221.45747147 -156.63445643 218.03915387 -156.70361328 214.61816406 C-156.73147415 213.78844086 -156.75933502 212.95871765 -156.78804016 212.10385132 C-156.8744697 209.35350754 -156.93715474 206.60337875 -156.99511719 203.85229492 C-157.01712818 202.91019102 -157.03913918 201.96808712 -157.06181717 200.99743462 C-157.1768441 196.00419508 -157.2729547 191.0109836 -157.35449219 186.01708984 C-157.44219892 180.88093495 -157.59552786 175.748987 -157.76441002 170.61495304 C-157.88245922 166.64906459 -157.95023333 162.68340501 -158.00496292 158.71618462 C-158.03973476 156.82492853 -158.09312664 154.9339122 -158.16621017 153.04374886 C-158.76814658 136.73698467 -158.76814658 136.73698467 -153.26439857 130.30055141 C-150.99639722 127.97381076 -148.56751461 125.86217271 -146.09667969 123.75463867 C-144.90138929 122.42566939 -143.72636434 121.07730691 -142.59667969 119.69213867 C-139.18074092 115.73464863 -135.47992798 112.08172829 -131.73925781 108.43408203 C-129.07661305 105.85545998 -129.07661305 105.85545998 -127.09667969 102.75463867 C-126.43667969 102.75463867 -125.77667969 102.75463867 -125.09667969 102.75463867 C-125.09667969 102.09463867 -125.09667969 101.43463867 -125.09667969 100.75463867 C-122.10778481 97.46685431 -118.7885825 94.58210471 -115.47167969 91.62963867 C-111.6784953 88.2428669 -108.04742519 84.74511468 -104.47167969 81.12963867 C-100.80070465 77.42262321 -97.07910001 73.87530237 -93.11230469 70.48901367 C-90.79553348 68.49551286 -88.54247984 66.43909479 -86.28417969 64.37963867 C-81.96407178 60.48100471 -77.51596588 56.7796001 -72.99121094 53.12182617 C-70.48339806 51.07090228 -68.01610208 48.98082539 -65.56030273 46.86816406 C-57.33792806 39.81084693 -48.76678602 33.24977627 -40.09667969 26.75463867 C-39.33548828 26.18310059 -38.57429688 25.6115625 -37.79003906 25.02270508 C-32.26257491 20.88173245 -26.69726787 16.79612926 -21.09667969 12.75463867 C-20.23026855 12.12831543 -19.36385742 11.50199219 -18.47119141 10.85668945 C-15.87824057 8.99397298 -13.27169701 7.15228259 -10.65917969 5.31713867 C-9.86012207 4.74286133 -9.06106445 4.16858398 -8.23779297 3.5769043 C-7.11800049 2.80056641 -7.11800049 2.80056641 -5.97558594 2.00854492 C-4.99440796 1.31740601 -4.99440796 1.31740601 -3.9934082 0.61230469 C-2.09667969 -0.24536133 -2.09667969 -0.24536133 0 0 Z " fill="#FED8B5" transform="translate(311.0966796875,245.245361328125)"/>
<path d="M0 0 C3.40590736 1.66375526 6.63450184 3.48469594 9.8046875 5.5546875 C10.41086914 5.94809326 11.01705078 6.34149902 11.64160156 6.74682617 C18.36439485 11.21420213 25.54774722 16.04625035 29.0546875 23.4921875 C28.02182617 23.78279053 26.98896484 24.07339355 25.92480469 24.37280273 C15.53991401 27.33586374 5.40872448 30.74962911 -4.6953125 34.5546875 C-5.44477142 34.83531036 -6.19423035 35.11593323 -6.96640015 35.40505981 C-57.8432497 54.47391286 -107.16512572 77.47425936 -151.9453125 108.4921875 C-152.56937988 108.92337891 -153.19344727 109.35457031 -153.83642578 109.79882812 C-162.23976071 115.63254824 -170.35158701 121.80308424 -178.33300781 128.20019531 C-179.82225442 129.39357706 -181.31713112 130.57992379 -182.8125 131.765625 C-189.1113322 136.82294825 -195.04688813 142.20003308 -200.9453125 147.7109375 C-203.29547967 149.90286399 -205.68968854 152.02871056 -208.1328125 154.1171875 C-215.67360216 160.65572031 -222.48526654 167.89970321 -228.9453125 175.4921875 C-229.84816493 176.53193947 -230.75188517 177.57093823 -231.65625 178.609375 C-238.68606335 186.70636761 -245.4000855 195.00042459 -251.9453125 203.4921875 C-252.45175293 204.14558105 -252.95819336 204.79897461 -253.47998047 205.47216797 C-260.47590303 214.50076239 -267.29421948 223.63433853 -273.89599609 232.95605469 C-274.41242676 233.68083008 -274.92885742 234.40560547 -275.4609375 235.15234375 C-276.14591309 236.12119507 -276.14591309 236.12119507 -276.84472656 237.10961914 C-277.20791992 237.5658667 -277.57111328 238.02211426 -277.9453125 238.4921875 C-278.2753125 238.4921875 -278.6053125 238.4921875 -278.9453125 238.4921875 C-279.5958362 234.84717526 -280.23986156 231.2010425 -280.8828125 227.5546875 C-281.15641602 226.02231445 -281.15641602 226.02231445 -281.43554688 224.45898438 C-281.79290002 222.42532009 -282.13502145 220.38891901 -282.46166992 218.35009766 C-282.89872056 215.55644524 -282.89872056 215.55644524 -283.5324707 213.09912109 C-284.54850867 208.22667138 -283.81937163 205.63574082 -281.18359375 201.3984375 C-279.89970295 199.57867203 -278.58957446 197.77721748 -277.2578125 195.9921875 C-276.22648193 194.55033081 -276.22648193 194.55033081 -275.17431641 193.0793457 C-273.77422216 191.12482451 -272.36442798 189.17721382 -270.94482422 187.23681641 C-269.17332389 184.80516723 -267.44086321 182.35371673 -265.73046875 179.87890625 C-256.09643045 165.94783167 -245.82749482 152.47213991 -234.9453125 139.4921875 C-234.09499581 138.45447319 -233.24473838 137.41671033 -232.39453125 136.37890625 C-220.63196935 122.18314113 -207.59353567 108.71671354 -192.9453125 97.4921875 C-191.89585385 96.6333558 -190.84913772 95.77116565 -189.8046875 94.90625 C-167.64543972 76.71894286 -141.23651558 64.46320273 -114.9453125 53.4921875 C-113.22777222 52.76714584 -111.51032075 52.04189376 -109.79296875 51.31640625 C-108.24005634 50.66553697 -106.6866983 50.01572948 -105.1328125 49.3671875 C-104.42721191 49.07158936 -103.72161133 48.77599121 -102.99462891 48.47143555 C-98.18278984 46.4921875 -98.18278984 46.4921875 -95.9453125 46.4921875 C-95.6153125 45.5021875 -95.2853125 44.5121875 -94.9453125 43.4921875 C-94.2853125 43.8221875 -93.6253125 44.1521875 -92.9453125 44.4921875 C-90.85643896 43.82971456 -88.80264936 43.05601825 -86.76953125 42.23828125 C-86.14065506 41.98641556 -85.51177887 41.73454987 -84.86384583 41.47505188 C-82.78267475 40.63646576 -80.70743383 39.78433975 -78.6328125 38.9296875 C-77.56595215 38.49360168 -77.56595215 38.49360168 -76.47753906 38.04870605 C-43.03690625 24.47716187 -43.03690625 24.47716187 -12.3125 5.875 C-11.72339844 5.44550049 -11.13429688 5.01600098 -10.52734375 4.57348633 C-8.93639765 3.39097104 -7.37317396 2.17140887 -5.8125 0.94921875 C-2.9453125 -0.5078125 -2.9453125 -0.5078125 0 0 Z " fill="#DFDFDF" transform="translate(424.9453125,120.5078125)"/>
<path d="M0 0 C2.7265625 1.53125 2.7265625 1.53125 5.625 3.5 C21.04256694 13.46368753 38.93518508 19.49967107 56 26 C34.96277448 48.180553 -1.89283373 58.65969049 -29.86447144 69.73846436 C-70.16694816 85.71390019 -108.8879838 103.13937977 -141 133 C-142.30887002 134.1292212 -143.6212759 135.2543594 -144.9375 136.375 C-152.88645192 143.31021918 -160.19929575 150.94465849 -167 159 C-168.24716797 160.44826172 -168.24716797 160.44826172 -169.51953125 161.92578125 C-186.57371508 181.78799854 -201.36667472 203.32619893 -216 225 C-216.66 224.67 -217.32 224.34 -218 224 C-218.64892503 221.27927761 -219.17364321 218.62919754 -219.625 215.875 C-219.82609375 214.75351562 -219.82609375 214.75351562 -220.03125 213.609375 C-221.26800415 206.36552927 -222.16059364 200.84476282 -217.75048828 194.61132812 C-217.27595215 193.97646484 -216.80141602 193.34160156 -216.3125 192.6875 C-215.81991699 192.00236328 -215.32733398 191.31722656 -214.81982422 190.61132812 C-213.76613232 189.14916964 -212.70537103 187.69208388 -211.63818359 186.23974609 C-210.01173648 184.01604626 -208.41819042 181.77210268 -206.83203125 179.51953125 C-200.06703401 169.95518911 -192.93382214 160.77052528 -185.453125 151.75732422 C-183.36384079 149.23066633 -181.31028732 146.67532093 -179.25 144.125 C-175.65951125 139.73881686 -171.92161279 135.51084589 -168.10546875 131.3203125 C-166.27082315 129.29845816 -164.47231214 127.25321478 -162.6875 125.1875 C-154.52058976 115.8538883 -146.00503415 106.90806249 -137.25 98.125 C-136.45819336 97.32860107 -135.66638672 96.53220215 -134.85058594 95.71166992 C-130.63214413 91.50425499 -126.33392505 87.45886933 -121.81787109 83.57275391 C-119.21362774 81.31966021 -116.70734075 78.97215236 -114.1875 76.625 C-109.61836664 72.40850096 -104.93377247 68.39241956 -100.0859375 64.49609375 C-97.75812556 62.61321802 -95.4554198 60.71149369 -93.1640625 58.78515625 C-83.8042805 50.93895517 -74.19596046 43.60220233 -64.21435547 36.56591797 C-62.05181138 35.03663927 -59.90155254 33.4915159 -57.75390625 31.94140625 C-48.23655731 25.10008451 -38.49187135 18.70231546 -28.51171875 12.55712891 C-25.84865459 10.90617408 -23.20591183 9.22518265 -20.5625 7.54296875 C-18.77149954 6.42341271 -16.97984976 5.30489461 -15.1875 4.1875 C-14.35758545 3.65318359 -13.5276709 3.11886719 -12.67260742 2.56835938 C-5.27342137 -1.98031435 -5.27342137 -1.98031435 0 0 Z " fill="#E0E0E0" transform="translate(356,89)"/>
<path d="M0 0 C22.44 0 44.88 0 68 0 C68.12032643 25.83452975 68.12032643 25.83452975 68.14648438 36.82226562 C68.164438 44.32827085 68.18570758 51.8341666 68.22631836 59.34008789 C68.25884522 65.38955067 68.27683899 71.4388961 68.28463173 77.48843956 C68.29018723 79.79978979 68.30103534 82.1111334 68.31719017 84.42243385 C68.33887547 87.65261488 68.34197062 90.88230707 68.34057617 94.11254883 C68.351362 95.07423981 68.36214783 96.03593079 68.3732605 97.02676392 C68.36913651 97.90595993 68.36501251 98.78515594 68.36076355 99.69099426 C68.36352893 100.45516065 68.36629431 101.21932703 68.36914349 102.00664997 C67.89722379 104.55498464 67.03542701 105.43956072 65 107 C62.45751953 107.38095093 62.45751953 107.38095093 59.3828125 107.38818359 C58.23151855 107.39764008 57.08022461 107.40709656 55.89404297 107.4168396 C54.65025879 107.41076691 53.40647461 107.40469421 52.125 107.3984375 C50.84898926 107.40130768 49.57297852 107.40417786 48.25830078 107.40713501 C45.55795884 107.40917835 42.85842919 107.40513392 40.15820312 107.39111328 C36.6978077 107.37402089 33.23811029 107.38386307 29.77774048 107.40183067 C26.47680194 107.41528016 23.17594764 107.40586244 19.875 107.3984375 C18.63121582 107.40451019 17.38743164 107.41058289 16.10595703 107.4168396 C14.95466309 107.40738312 13.80336914 107.39792664 12.6171875 107.38818359 C11.60253418 107.38579681 10.58788086 107.38341003 9.54248047 107.38095093 C7 107 7 107 5.17297363 105.89855957 C3.39481759 103.02045977 3.62081377 100.59762345 3.61523438 97.23486328 C3.60717522 96.20680321 3.60717522 96.20680321 3.59895325 95.15797424 C3.5891612 93.66518089 3.58623542 92.17233052 3.58930969 90.67950821 C3.59381631 88.28508375 3.57969167 85.89138809 3.56091309 83.49703979 C3.52408642 78.37303909 3.51049652 73.24911323 3.5 68.125 C3.48775812 62.26592429 3.46503683 56.40719769 3.41999817 50.54827499 C3.40689737 48.24655194 3.41051799 45.94532742 3.41540527 43.64358521 C3.31476724 28.81641574 1.55174546 15.00020614 0 0 Z " fill="#FCD7B4" transform="translate(403,364)"/>
<path d="M0 0 C3.5030825 1.47877099 6.86537956 3.20766077 10.25 4.9375 C35.57722381 17.44606403 64.78206123 28.35081714 93 32 C91.66420352 34.97636205 90.20765397 37.03951858 87.875 39.3125 C87.25109375 39.9209375 86.6271875 40.529375 85.984375 41.15625 C84.07339472 42.93180648 82.11427198 44.62559736 80.125 46.3125 C70.83473854 54.37238135 63.46246891 64.28994353 56 74 C55.4519873 74.71236816 54.90397461 75.42473633 54.33935547 76.15869141 C48.51412347 83.73861108 42.72482979 91.34391771 37 99 C34.57908933 95.368634 33.9479645 91.8490267 33.08984375 87.6484375 C32.91747696 86.83380035 32.74511017 86.01916321 32.56752014 85.17984009 C32.01802605 82.5794757 31.47714988 79.97742372 30.9375 77.375 C30.39332713 74.7656563 29.84728277 72.15674994 29.29676819 69.54873657 C28.95448665 67.92584287 28.61604318 66.30213424 28.28172302 64.67758179 C27.78119637 61.03689004 27.78119637 61.03689004 26 58 C24.00041636 57.95919217 21.99954746 57.95745644 20 58 C17.60462229 66.61638292 15.39786077 75.15301274 14 84 C13.34 84 12.68 84 12 84 C10.44193283 81.65222756 8.99169937 79.29981522 7.5625 76.875 C2.6150817 68.73009197 -2.92911004 61.33209598 -9 54 C-9.44988281 53.4524707 -9.89976562 52.90494141 -10.36328125 52.34082031 C-23.51457063 36.32042893 -23.51457063 36.32042893 -38.671875 22.26953125 C-39.11015625 21.85058594 -39.5484375 21.43164062 -40 21 C-40 20.34 -40 19.68 -40 19 C-38.1550293 17.69067383 -38.1550293 17.69067383 -35.57421875 16.20703125 C-34.16861694 15.38936279 -34.16861694 15.38936279 -32.73461914 14.55517578 C-31.22629517 13.69255127 -31.22629517 13.69255127 -29.6875 12.8125 C-22.69311698 8.77665675 -15.83171854 4.75823517 -9.31640625 -0.0234375 C-5.78633585 -1.51166279 -3.70993455 -0.93594093 0 0 Z " fill="#E0E0E0" transform="translate(359,219)"/>
<path d="M0 0 C5.15594975 11.51328585 9.4517622 22.63434077 12 35 C12.22429687 35.94101563 12.44859375 36.88203125 12.6796875 37.8515625 C14.13519677 44.77021616 14.39431626 51.82651313 14.625 58.875 C14.68461914 59.87474854 14.74423828 60.87449707 14.80566406 61.90454102 C14.91624849 68.89194749 14.91624849 68.89194749 12.32641602 72.02392578 C8.80445114 74.81934438 6.26442159 76.37198947 1.6875 76.125 C-0.21525338 75.78686009 -2.11047265 75.40558036 -4 75 C-5.2684375 74.78085938 -6.536875 74.56171875 -7.84375 74.3359375 C-37.01379853 69.05563529 -65.46361887 58.03087334 -92 45 C-92 44.34 -92 43.68 -92 43 C-14.1909536 0 -14.1909536 0 0 0 Z " fill="#E0E0E0" transform="translate(457,168)"/>
<path d="M0 0 C0.33 1.65 0.66 3.3 1 5 C0.32461182 5.28496338 -0.35077637 5.56992676 -1.04663086 5.86352539 C-59.96589 30.78085618 -116.44427753 59.23417883 -169 96 C-169.63341309 96.4429541 -170.26682617 96.8859082 -170.91943359 97.34228516 C-197.32868124 115.87646462 -222.76609706 135.93687941 -246.5390625 157.7578125 C-248.74786947 159.77028107 -250.98693298 161.73658016 -253.25 163.6875 C-256.35603546 166.38318525 -259.25195854 169.22709865 -262.13012695 172.16259766 C-263.91278978 173.9143042 -265.75058477 175.53957198 -267.65234375 177.16015625 C-272.32350951 181.22311409 -276.69747174 185.55025786 -281.0625 189.9375 C-281.82626953 190.69740234 -282.59003906 191.45730469 -283.37695312 192.24023438 C-287.52913963 196.3995247 -291.51541171 200.64242303 -295.34985352 205.09594727 C-297.9770393 208.12737527 -300.7076528 211.06121845 -303.4375 214 C-303.97826172 214.58394531 -304.51902344 215.16789063 -305.07617188 215.76953125 C-306.38313832 217.18059237 -307.69142284 218.59043248 -309 220 C-309 215.62990684 -306.47548105 213.04065585 -304 209.625 C-303.46963135 208.88403076 -302.9392627 208.14306152 -302.39282227 207.37963867 C-295.46386932 197.76818967 -288.24022033 188.37771774 -281 179 C-280.22027832 177.98413818 -280.22027832 177.98413818 -279.42480469 176.94775391 C-264.19162819 157.10931921 -247.40965336 137.22454379 -228.3125 120.9765625 C-226.47816646 119.40870309 -224.67288617 117.81985345 -222.875 116.2109375 C-212.71162821 107.17166421 -202.00371575 98.98680295 -191 91 C-190.16774902 90.39478516 -189.33549805 89.78957031 -188.47802734 89.16601562 C-176.37350142 80.41005357 -163.9241858 72.48436573 -151 65 C-150.12134277 64.48663086 -149.24268555 63.97326172 -148.33740234 63.44433594 C-137.88051249 57.33770888 -127.3755638 51.45334713 -116.46484375 46.19775391 C-113.52862964 44.77094463 -110.60892721 43.31231121 -107.6875 41.85546875 C-80.22129706 28.25692133 -51.84142891 17.30619378 -23 7 C-21.94570801 6.62020996 -20.89141602 6.24041992 -19.80517578 5.84912109 C-16.97648364 4.83060899 -14.1453301 3.81943757 -11.3125 2.8125 C-10.4987793 2.52068848 -9.68505859 2.22887695 -8.84667969 1.92822266 C-5.77634406 0.85085303 -3.27908452 0 0 0 Z " fill="#DCDCDC" transform="translate(460,151)"/>
<path d="M0 0 C3.14627054 2.94962863 5.81389131 6.01270327 8.4375 9.4375 C12.01598665 13.96482781 15.87530341 18.09912032 19.9375 22.1875 C20.49816162 22.75718506 21.05882324 23.32687012 21.63647461 23.91381836 C22.19858643 24.47206299 22.76069824 25.03030762 23.33984375 25.60546875 C23.91275146 26.17950439 24.48565918 26.75354004 25.07592773 27.3449707 C26.97706378 29.0982045 26.97706378 29.0982045 29.42602539 30.31713867 C32.33522984 31.98866405 34.034717 33.25640826 36 36 C37.5052455 42.12305117 36.83567997 48.709695 36.5625 54.9375 C36.376875 60.898125 36.19125 66.85875 36 73 C13.23 73 -9.54 73 -33 73 C-37.26780561 48.81576821 -37.26780561 48.81576821 -33.375 43.1875 C-32.73820312 42.26066406 -32.10140625 41.33382812 -31.4453125 40.37890625 C-30.6319989 39.2513105 -29.81668193 38.12515857 -29 37 C-28.4956543 36.29343262 -27.99130859 35.58686523 -27.47167969 34.85888672 C-20.768861 25.48397188 -13.86063124 16.36832596 -6.3046875 7.6640625 C-4.13617075 5.15740415 -2.05295971 2.60167706 0 0 Z " fill="#E0E0E0" transform="translate(435,282)"/>
<path d="M0 0 C0 18.48 0 36.96 0 56 C-4.70188636 53.17886818 -7.89314833 50.45273612 -11.6875 46.625 C-12.29674316 46.01446777 -12.90598633 45.40393555 -13.53369141 44.77490234 C-19.25876321 38.9296506 -24.22122835 32.62861874 -29 26 C-27.50153206 22.37598787 -25.44211507 20.3682297 -22.5 17.8125 C-21.60925781 17.03132813 -20.71851563 16.25015625 -19.80078125 15.4453125 C-18.87652344 14.63835937 -17.95226562 13.83140625 -17 13 C-15.22690687 11.39833145 -13.45598783 9.79425206 -11.6875 8.1875 C-2.66484517 0 -2.66484517 0 0 0 Z " fill="#DDDDDD" transform="translate(471,250)"/>
<path d="M0 0 C0.99 2.97 0.99 2.97 2 6 C1.45690186 6.17233154 0.91380371 6.34466309 0.35424805 6.5222168 C-5.28911494 8.35257834 -10.74311387 10.45939951 -16.1875 12.8125 C-17.07405273 13.1950293 -17.96060547 13.57755859 -18.87402344 13.97167969 C-38.06834606 22.33207659 -56.98983267 31.22726843 -75.45996094 41.08886719 C-76.42708008 41.60352539 -77.39419922 42.11818359 -78.390625 42.6484375 C-79.23657227 43.10395996 -80.08251953 43.55948242 -80.95410156 44.02880859 C-83 45 -83 45 -85 45 C-85.33 45.99 -85.66 46.98 -86 48 C-87.98 47.01 -89.96 46.02 -92 45 C-92 44.34 -92 43.68 -92 43 C-14.1909536 0 -14.1909536 0 0 0 Z " fill="#C5C5C5" transform="translate(457,168)"/>
<path d="M0 0 C2.9375 1.0625 2.9375 1.0625 4.9375 3.0625 C4.35411865 3.34005127 3.7707373 3.61760254 3.16967773 3.90356445 C-3.80723611 7.29849798 -10.40009144 11.177716 -17 15.25 C-18.54010742 16.19262695 -18.54010742 16.19262695 -20.11132812 17.15429688 C-23.79486782 19.41272941 -27.46715798 21.66560532 -31.0625 24.0625 C-33.75 23.6875 -33.75 23.6875 -36.0625 23.0625 C-36.3925 22.0725 -36.7225 21.0825 -37.0625 20.0625 C-36.45365967 19.70534912 -35.84481934 19.34819824 -35.2175293 18.98022461 C-33.41013588 17.91897298 -31.60338612 16.85662475 -29.79711914 15.79345703 C-27.76232066 14.59582626 -25.72634477 13.40019372 -23.68920898 12.20654297 C-18.54676752 9.17942909 -13.53173379 6.0807483 -8.625 2.6875 C-5.58190627 0.70606437 -3.66093789 -0.37795108 0 0 Z " fill="#C5C5C5" transform="translate(356.0625,217.9375)"/>
</svg>
