<?xml version="1.0" encoding="UTF-8"?>
<svg version="1.1" xmlns="http://www.w3.org/2000/svg" width="512" height="512">
<path d="M0 0 C0.96860458 -0.00860046 1.93720917 -0.01720093 2.93516541 -0.02606201 C4.52716263 -0.03245193 4.52716263 -0.03245193 6.15132141 -0.03897095 C7.27032333 -0.04714844 8.38932526 -0.05532593 9.54223633 -0.06375122 C13.25347863 -0.08860754 16.96468266 -0.10512241 20.67597961 -0.11953735 C21.94302042 -0.12486103 23.21006123 -0.13018471 24.51549721 -0.13566971 C29.84190041 -0.15689991 35.16829023 -0.17602914 40.49472332 -0.1872921 C48.11540022 -0.20351476 55.73556596 -0.23665454 63.35605019 -0.29369295 C69.36870369 -0.33715405 75.38112556 -0.3530464 81.39394569 -0.35942459 C83.94679718 -0.36613968 86.49964115 -0.38136823 89.05238914 -0.4053154 C92.6287294 -0.4369492 96.2037841 -0.43700539 99.78022766 -0.42959595 C100.83143799 -0.44600128 101.88264832 -0.46240662 102.9657135 -0.47930908 C109.68869085 -0.4223998 114.07826274 0.82183827 119.28926086 5.15390015 C123.25770208 9.22677402 125.16594238 13.31757506 125.41426086 19.02890015 C125.37301086 19.73015015 125.33176086 20.43140015 125.28926086 21.15390015 C126.03176086 21.38077515 126.77426086 21.60765015 127.53926086 21.84140015 C130.84691895 23.42005514 132.23784495 25.15004113 134.28926086 28.15390015 C134.61926086 29.14390015 134.94926086 30.13390015 135.28926086 31.15390015 C136.77426086 31.19257202 136.77426086 31.19257202 138.28926086 31.23202515 C153.77946106 31.81844827 153.77946106 31.81844827 159.80488586 37.6109314 C164.43378213 42.86499468 165.55725807 46.18597281 165.28926086 53.15390015 C166.03176086 53.38077515 166.77426086 53.60765015 167.53926086 53.84140015 C171.54232958 55.75195567 173.47168865 58.05386173 175.08613586 62.20077515 C176.4668603 67.08382496 176.50195514 70.70363422 174.41035461 75.3609314 C172.25617348 78.80612004 169.40779517 81.41438441 165.50508118 82.77670288 C162.56972281 83.27638652 159.75121236 83.26509084 156.77363586 83.2515564 C155.52324524 83.24833374 154.27285461 83.24511108 152.98457336 83.24179077 C151.03164368 83.22922241 151.03164368 83.22922241 149.03926086 83.21640015 C147.72183899 83.21188843 146.40441711 83.20737671 145.04707336 83.20272827 C141.79442345 83.19094331 138.54186502 83.17449026 135.28926086 83.15390015 C135.31282654 84.06099731 135.31282654 84.06099731 135.33686829 84.98641968 C135.39957966 87.7504831 135.43836498 90.51439635 135.47676086 93.27890015 C135.50189758 94.23022827 135.5270343 95.1815564 135.55293274 96.16171265 C135.61818667 102.42609029 135.22129023 107.08632684 130.68379211 111.83358765 C129.21894836 112.94035848 127.75410461 114.04712931 126.28926086 115.15390015 C127.21738586 115.69015015 128.14551086 116.22640015 129.10176086 116.77890015 C132.28926086 119.15390015 132.28926086 119.15390015 133.35176086 122.34140015 C133.99113586 123.26952515 134.63051086 124.19765015 135.28926086 125.15390015 C138.48998529 125.70115044 141.61576943 125.78860202 144.85957336 125.9078064 C150.73056347 126.32907334 155.77865092 127.84685317 160.16816711 131.88046265 C163.07444596 135.39600958 164.49961158 138.3435695 165.22676086 142.84140015 C165.74487233 146.1175472 165.74487233 146.1175472 167.85176086 148.55233765 C169.09733039 149.32562873 170.34602682 150.09390674 171.59785461 150.85702515 C174.7075757 153.24138404 175.61486669 156.39954083 176.28926086 160.15390015 C176.67250744 165.05197838 175.57788168 168.22727234 172.47676086 172.02890015 C169.34577518 175.48988689 166.80854227 177.0463711 162.08125305 177.38095093 C160.84536438 177.37047729 159.60947571 177.36000366 158.33613586 177.34921265 C157.34580353 177.3449678 157.34580353 177.3449678 156.33546448 177.34063721 C154.2365419 177.32948429 152.13805344 177.30438961 150.03926086 177.27890015 C148.61218371 177.26886399 147.18509984 177.25973925 145.75801086 177.2515564 C142.26828759 177.22956125 138.77881663 177.1950655 135.28926086 177.15390015 C135.31020813 177.78892456 135.3311554 178.42394897 135.35273743 179.07821655 C135.43630667 181.97828091 135.4880486 184.8780913 135.53926086 187.77890015 C135.57277649 188.77792358 135.60629211 189.77694702 135.64082336 190.8062439 C135.72248668 196.97182405 135.36630732 200.44196653 131.28926086 205.15390015 C130.77363586 205.77265015 130.25801086 206.39140015 129.72676086 207.02890015 C128.28926086 208.15390015 128.28926086 208.15390015 125.28926086 208.15390015 C125.28926086 208.81390015 125.28926086 209.47390015 125.28926086 210.15390015 C125.84613586 210.19515015 126.40301086 210.23640015 126.97676086 210.27890015 C130.54601262 211.62942784 132.0879587 214.11967284 134.28926086 217.15390015 C134.93379211 219.3531189 134.93379211 219.3531189 135.28926086 221.15390015 C136.37465149 221.11909546 137.46004211 221.08429077 138.57832336 221.0484314 C140.02362029 221.02027626 141.46893408 220.99297796 142.91426086 220.96640015 C143.62711243 220.94126343 144.33996399 220.91612671 145.07441711 220.89022827 C151.2584992 220.80512622 155.21648058 222.37034502 159.97676086 226.46640015 C164.38458657 231.5890084 165.69495125 235.39239369 165.28926086 242.15390015 C166.01113586 242.36015015 166.73301086 242.56640015 167.47676086 242.77890015 C171.0645263 244.5329188 173.31950049 246.7295475 175.28926086 250.15390015 C176.96824124 255.1089398 176.3026706 259.33283999 174.66426086 264.1968689 C172.31285261 267.54361758 170.05509909 269.6383258 166.28926086 271.15390015 C160.96285761 271.76330532 155.69658651 271.62613611 150.35176086 271.46640015 C148.89021044 271.4412876 147.42861849 271.41847962 145.96699524 271.39804077 C142.40687983 271.34327452 138.84833788 271.25716771 135.28926086 271.15390015 C135.31020813 271.78368774 135.3311554 272.41347534 135.35273743 273.06234741 C135.43646185 275.94686586 135.48809707 278.83112783 135.53926086 281.71640015 C135.57277649 282.70704468 135.60629211 283.69768921 135.64082336 284.71835327 C135.72596063 291.12493262 135.1398051 294.96403618 131.28926086 300.15390015 C128.53926086 302.09140015 128.53926086 302.09140015 126.28926086 303.15390015 C127.01242493 303.71657593 127.01242493 303.71657593 127.75019836 304.2906189 C128.38183899 304.80237671 129.01347961 305.31413452 129.66426086 305.84140015 C130.29074524 306.34026733 130.91722961 306.83913452 131.56269836 307.3531189 C133.58209574 309.45932295 134.36365763 311.40981378 135.28926086 314.15390015 C136.27926086 314.1796814 137.26926086 314.20546265 138.28926086 314.23202515 C153.77946106 314.81844827 153.77946106 314.81844827 159.80488586 320.6109314 C164.43378213 325.86499468 165.55725807 329.18597281 165.28926086 336.15390015 C166.40301086 336.49421265 166.40301086 336.49421265 167.53926086 336.84140015 C171.54232958 338.75195567 173.47168865 341.05386173 175.08613586 345.20077515 C176.4668603 350.08382496 176.50195514 353.70363422 174.41035461 358.3609314 C172.25617348 361.80612004 169.40779517 364.41438441 165.50508118 365.77670288 C162.56972281 366.27638652 159.75121236 366.26509084 156.77363586 366.2515564 C155.52324524 366.24833374 154.27285461 366.24511108 152.98457336 366.24179077 C151.68262024 366.23341187 150.38066711 366.22503296 149.03926086 366.21640015 C147.72183899 366.21188843 146.40441711 366.20737671 145.04707336 366.20272827 C141.79442345 366.19094331 138.54186502 366.17449026 135.28926086 366.15390015 C135.31282654 367.06099731 135.31282654 367.06099731 135.33686829 367.98641968 C135.39957966 370.7504831 135.43836498 373.51439635 135.47676086 376.27890015 C135.50189758 377.23022827 135.5270343 378.1815564 135.55293274 379.16171265 C135.61818667 385.42609029 135.22129023 390.08632684 130.68379211 394.83358765 C129.21894836 395.94035848 127.75410461 397.04712931 126.28926086 398.15390015 C127.21738586 398.69015015 128.14551086 399.22640015 129.10176086 399.77890015 C132.28926086 402.15390015 132.28926086 402.15390015 133.35176086 405.34140015 C133.99113586 406.26952515 134.63051086 407.19765015 135.28926086 408.15390015 C138.53906467 408.73649803 141.69412487 408.84888713 144.99238586 408.9624939 C152.06901408 409.3733408 157.37778793 412.12820691 162.28926086 417.15390015 C164.14038264 420.66464835 165.21448336 423.39116959 165.60176086 427.34140015 C166.58167376 431.35013472 168.87063385 432.0343514 172.28926086 434.15390015 C175.40390893 438.02035982 176.42993907 442.2301629 176.28926086 447.15390015 C174.59493435 453.0342098 172.12889892 455.72582319 167.28926086 459.15390015 C163.87174433 460.29307232 161.25438149 460.26728495 157.65254211 460.2515564 C156.35381165 460.24833374 155.05508118 460.24511108 153.71699524 460.24179077 C152.34524978 460.23343546 150.97350499 460.22497052 149.60176086 460.21640015 C148.21829891 460.2113835 146.83483523 460.20682088 145.45137024 460.20272827 C142.06395692 460.19092544 138.67663053 460.17446033 135.28926086 460.15390015 C135.31020813 460.78892456 135.3311554 461.42394897 135.35273743 462.07821655 C135.43630667 464.97828091 135.4880486 467.8780913 135.53926086 470.77890015 C135.57277649 471.77792358 135.60629211 472.77694702 135.64082336 473.8062439 C135.71974932 479.76515378 135.53477118 483.58505627 131.28926086 488.15390015 C125.88699695 492.82954534 121.20293993 492.72596277 114.23847961 492.67147827 C112.58376144 492.68199219 112.58376144 492.68199219 110.89561462 492.69271851 C107.25573928 492.7102974 103.61664388 492.69867531 99.97676086 492.68515015 C97.44380036 492.68784507 94.91084087 492.69172749 92.37788391 492.69674683 C87.0718657 492.70264178 81.76612601 492.69446143 76.4601593 492.67538452 C70.33539419 492.65361731 64.21116178 492.66066939 58.08640957 492.68269014 C52.18210881 492.70306446 46.27797284 492.7008633 40.37364197 492.68916321 C37.86662216 492.68649589 35.35958875 492.68976584 32.85258484 492.69908142 C29.34803821 492.70924601 25.84451274 492.69374533 22.34004211 492.67147827 C21.30505585 492.6795752 20.27006958 492.68767212 19.20372009 492.6960144 C13.24180032 492.62587786 9.84554874 492.09796119 5.28926086 488.15390015 C2.28926086 484.75390015 2.28926086 484.75390015 2.28926086 482.15390015 C1.70918274 482.1281189 1.12910461 482.10233765 0.53144836 482.07577515 C-6.2638954 481.58238385 -10.23994371 479.83059519 -14.96073914 474.71640015 C-18.34869814 469.75546018 -18.94652625 466.16647151 -18.71073914 460.15390015 C-19.29081726 460.18870483 -19.87089539 460.22350952 -20.46855164 460.2593689 C-25.68417781 460.44010842 -29.24591358 460.16506157 -33.71073914 457.15390015 C-37.71073914 452.83811067 -37.71073914 452.83811067 -37.71073914 450.15390015 C-38.90698914 450.05077515 -40.10323914 449.94765015 -41.33573914 449.84140015 C-47.84436753 448.98198619 -52.34956555 446.41958954 -56.44120789 441.30233765 C-59.27545663 436.50591669 -60.13943421 431.18848324 -59.36308289 425.69296265 C-57.85436058 420.39888318 -55.14114807 415.51369946 -50.71073914 412.15390015 C-43.85871356 408.78648507 -37.75136697 408.7905123 -30.21073914 408.96640015 C-29.10214539 408.9799353 -27.99355164 408.99347046 -26.85136414 409.00741577 C-24.13730682 409.04251134 -21.42428721 409.09167744 -18.71073914 409.15390015 C-18.75714539 408.01952515 -18.80355164 406.88515015 -18.85136414 405.71640015 C-19.26144161 391.26437277 -19.26144161 391.26437277 -14.71073914 384.15390015 C-14.71073914 380.95480444 -15.16762721 380.08291391 -16.71073914 377.40390015 C-18.82414573 373.38545098 -19.08483024 370.64299345 -18.71073914 366.15390015 C-19.86573914 366.23640015 -21.02073914 366.31890015 -22.21073914 366.40390015 C-27.09118812 366.40390015 -30.69467666 364.85897211 -34.71073914 362.15390015 C-37.2586434 359.52637388 -37.71073914 358.84674441 -37.71073914 355.15390015 C-38.84511414 355.27765015 -39.97948914 355.40140015 -41.14823914 355.52890015 C-46.79208805 355.51887555 -50.59543955 352.81554466 -54.71073914 349.15390015 C-58.68337609 344.57008828 -59.93008066 339.09606145 -59.71073914 333.15390015 C-58.752655 326.51415426 -55.93637084 322.78810056 -50.84355164 318.5640564 C-46.52477493 315.70860147 -42.90363851 314.90576785 -37.75370789 314.95858765 C-36.64189148 314.96503296 -35.53007507 314.97147827 -34.38456726 314.9781189 C-33.23407898 314.99487671 -32.0835907 315.01163452 -30.89823914 315.02890015 C-29.72841492 315.03792358 -28.5585907 315.04694702 -27.35331726 315.0562439 C-24.4722486 315.07976282 -21.59159924 315.11263163 -18.71073914 315.15390015 C-18.75714539 314.01952515 -18.80355164 312.88515015 -18.85136414 311.71640015 C-19.08730327 303.40231063 -19.25028203 297.38879664 -14.71073914 290.15390015 C-14.71073914 286.24354123 -14.8749094 285.47123487 -16.71073914 282.34140015 C-18.83891005 278.3473329 -19.08368709 275.62927562 -18.71073914 271.15390015 C-19.37460632 271.18870483 -20.03847351 271.22350952 -20.72245789 271.2593689 C-29.74553189 271.53598868 -29.74553189 271.53598868 -33.71073914 268.15390015 C-37.71073914 263.72146771 -37.71073914 263.72146771 -37.71073914 261.15390015 C-38.2792157 261.1281189 -38.84769226 261.10233765 -39.43339539 261.07577515 C-45.89886677 260.60084903 -50.83756831 259.44390405 -55.21855164 254.42733765 C-58.55980141 249.63503082 -60.05857961 245.00755842 -59.71073914 239.15390015 C-58.31484256 232.19711477 -55.62173544 227.38333738 -49.94120789 223.0328064 C-44.35286676 219.91290375 -37.97609982 220.73476079 -31.77323914 220.90390015 C-30.51704773 220.92194702 -29.26085632 220.9399939 -27.96659851 220.95858765 C-24.88051997 221.0055242 -21.79603133 221.07117601 -18.71073914 221.15390015 C-18.75714539 219.94733765 -18.80355164 218.74077515 -18.85136414 217.49765015 C-18.888912 215.88309178 -18.92530891 214.26850637 -18.96073914 212.65390015 C-18.99425476 211.86241577 -19.02777039 211.0709314 -19.06230164 210.25546265 C-19.14920187 204.95454848 -18.29030218 201.43648239 -15.57695007 196.86288452 C-14.48468915 195.02724519 -14.48468915 195.02724519 -14.71073914 192.15390015 C-15.3309663 190.88021937 -16.00364935 189.63148659 -16.71073914 188.40390015 C-18.82414573 184.38545098 -19.08483024 181.64299345 -18.71073914 177.15390015 C-19.29081726 177.18870483 -19.87089539 177.22350952 -20.46855164 177.2593689 C-25.68417781 177.44010842 -29.24591358 177.16506157 -33.71073914 174.15390015 C-37.71073914 169.83811067 -37.71073914 169.83811067 -37.71073914 167.15390015 C-38.29081726 167.1281189 -38.87089539 167.10233765 -39.46855164 167.07577515 C-46.60130526 166.55788544 -50.3966603 164.52057168 -55.46073914 159.34140015 C-59.35154005 153.82943219 -60.21583801 148.91249945 -59.24589539 142.35702515 C-57.71273144 136.04531373 -54.0383161 131.81008042 -48.71073914 128.15390015 C-42.43178521 125.75361221 -36.43280336 125.92142115 -29.77323914 126.02890015 C-28.70782898 126.03792358 -27.64241882 126.04694702 -26.54472351 126.0562439 C-23.9331588 126.079666 -21.32206976 126.11246563 -18.71073914 126.15390015 C-18.75714539 125.01952515 -18.80355164 123.88515015 -18.85136414 122.71640015 C-19.26144161 108.26437277 -19.26144161 108.26437277 -14.71073914 101.15390015 C-14.71073914 97.95480444 -15.16762721 97.08291391 -16.71073914 94.40390015 C-18.82414573 90.38545098 -19.08483024 87.64299345 -18.71073914 83.15390015 C-19.86573914 83.23640015 -21.02073914 83.31890015 -22.21073914 83.40390015 C-27.09118812 83.40390015 -30.69467666 81.85897211 -34.71073914 79.15390015 C-37.2586434 76.52637388 -37.71073914 75.84674441 -37.71073914 72.15390015 C-38.86573914 72.25702515 -40.02073914 72.36015015 -41.21073914 72.46640015 C-46.41301372 72.43877745 -49.84970716 70.5529283 -53.71073914 67.15390015 C-58.11210315 62.14244607 -60.06283433 56.82099295 -59.71073914 50.15390015 C-58.73958594 43.51210528 -55.94257418 39.79324569 -50.84355164 35.5640564 C-46.52477493 32.70860147 -42.90363851 31.90576785 -37.75370789 31.95858765 C-36.64189148 31.96503296 -35.53007507 31.97147827 -34.38456726 31.9781189 C-32.65883484 32.00325562 -32.65883484 32.00325562 -30.89823914 32.02890015 C-29.72841492 32.03792358 -28.5585907 32.04694702 -27.35331726 32.0562439 C-24.4722486 32.07976282 -21.59159924 32.11263163 -18.71073914 32.15390015 C-18.75714539 31.01952515 -18.80355164 29.88515015 -18.85136414 28.71640015 C-19.32221257 12.56970035 -19.32221257 12.56970035 -14.71073914 7.15390015 C-10.15755221 2.4765354 -6.67887979 0.04418632 0 0 Z M-5.83985901 14.02690125 C-7.78475203 17.27760569 -8.33533678 18.96223364 -8.34745789 22.70077515 C-8.36743835 23.71011108 -8.38741882 24.71944702 -8.40800476 25.7593689 C-8.4047821 26.79706421 -8.40155945 27.83475952 -8.39823914 28.90390015 C-8.41477321 30.98210663 -8.43911378 33.0602704 -8.47245789 35.13827515 C-8.47185364 36.51064331 -8.47185364 36.51064331 -8.47123718 37.91073608 C-8.71073914 40.15390015 -8.71073914 40.15390015 -10.71073914 42.15390015 C-13.6882782 42.3934021 -13.6882782 42.3934021 -17.47636414 42.3921814 C-18.85528013 42.40760961 -20.23418655 42.42391386 -21.61308289 42.44100952 C-23.78338258 42.45741779 -25.95298059 42.46642555 -28.12333679 42.45932007 C-30.22098019 42.45668544 -32.31650496 42.48492757 -34.41386414 42.5171814 C-35.66844421 42.52016235 -36.92302429 42.52314331 -38.21562195 42.5262146 C-42.81095702 43.35148747 -44.43604429 44.88229027 -47.71073914 48.15390015 C-48.74383343 50.95120163 -48.48424304 53.2907812 -47.71073914 56.15390015 C-45.40317388 59.31856106 -43.97515604 60.84550578 -40.14823914 61.77890015 C-37.49510543 61.36235725 -37.49510543 61.36235725 -35.89823914 58.84140015 C-32.32930606 54.45671094 -27.97726215 53.38947111 -22.52787781 52.8230896 C-18.92081844 52.63689448 -15.32194004 52.533133 -11.71073914 52.46640015 C-10.45905945 52.43223999 -9.20737976 52.39807983 -7.91777039 52.36288452 C-4.84884957 52.28089045 -1.78019708 52.21157995 1.28926086 52.15390015 C1.29860657 51.5899353 1.30795227 51.02597046 1.31758118 50.44491577 C1.37183573 47.84708022 1.45536769 45.25094095 1.53926086 42.65390015 C1.55344055 41.76702515 1.56762024 40.88015015 1.58222961 39.96640015 C1.79386028 34.21004613 2.41362354 28.67591674 6.28926086 24.15390015 C11.6184241 20.73893778 16.21479173 20.7121073 22.33369446 20.7215271 C23.32943481 20.71133545 24.32517517 20.7011438 25.35108948 20.69064331 C28.63001654 20.66053983 31.90865132 20.65125121 35.18769836 20.6421814 C37.46599802 20.62533279 39.74428838 20.60718231 42.02256775 20.58778381 C48.00987344 20.54029767 53.99714148 20.51047915 59.98457336 20.48434448 C66.09793025 20.45453213 72.21115743 20.40800405 78.32441711 20.36288452 C90.3126305 20.27686704 102.30087059 20.20951467 114.28926086 20.15390015 C113.11239565 15.7406556 112.23675665 13.51869901 108.28926086 11.15390015 C106.04949525 10.70014875 106.04949525 10.70014875 103.62789917 10.75276184 C102.69565521 10.73996689 101.76341125 10.72717194 100.80291748 10.71398926 C99.27937401 10.71602859 99.27937401 10.71602859 97.72505188 10.71810913 C96.11225342 10.70299538 96.11225342 10.70299538 94.46687317 10.68757629 C90.90886572 10.6590543 87.3512818 10.65321771 83.79316711 10.6499939 C81.32221297 10.6403565 78.85126056 10.63026431 76.38031006 10.61973572 C71.19944794 10.60176422 66.01873595 10.59621583 60.83784485 10.59799194 C54.19499296 10.59829701 47.55310168 10.55732131 40.91047764 10.50567532 C35.80697191 10.47234239 30.70369921 10.46623342 25.60009575 10.46782112 C23.15082929 10.46427738 20.70155703 10.45098752 18.25239754 10.42782402 C14.82853223 10.39847139 11.40676248 10.40703443 7.98286438 10.42514038 C6.96919296 10.40828186 5.95552155 10.39142334 4.91113281 10.37405396 C-1.19145287 10.43300021 -1.19145287 10.43300021 -5.83985901 14.02690125 Z M135.28926086 43.15390015 C135.28926086 46.12390015 135.28926086 49.09390015 135.28926086 52.15390015 C141.55926086 52.15390015 147.82926086 52.15390015 154.28926086 52.15390015 C153.7655628 47.26343541 153.7655628 47.26343541 151.15254211 44.85702515 C147.64615499 42.7713706 145.52283968 42.74042221 141.47676086 42.90390015 C140.31531555 42.9399939 139.15387024 42.97608765 137.95722961 43.01327515 C137.07679993 43.0596814 136.19637024 43.10608765 135.28926086 43.15390015 Z M-7.71073914 83.15390015 C-7.39490466 86.62807941 -7.07588277 88.68802723 -4.89823914 91.46640015 C-2.61334975 93.46195694 -2.61334975 93.46195694 1.28926086 94.15390015 C1.28926086 90.52390015 1.28926086 86.89390015 1.28926086 83.15390015 C-1.68073914 83.15390015 -4.65073914 83.15390015 -7.71073914 83.15390015 Z M-6.71073914 109.15390015 C-7.96347952 111.65938091 -7.90175002 113.50889766 -7.99198914 116.31015015 C-8.02937195 117.33237671 -8.06675476 118.35460327 -8.10527039 119.4078064 C-8.14007507 120.47901733 -8.17487976 121.55022827 -8.21073914 122.65390015 C-8.27944859 124.76862437 -8.35216458 126.88322341 -8.42948914 128.99765015 C-8.4597821 129.93802124 -8.49007507 130.87839233 -8.52128601 131.84725952 C-8.71073914 134.15390015 -8.71073914 134.15390015 -9.71073914 136.15390015 C-11.07223083 136.1679187 -11.07223083 136.1679187 -12.46122742 136.18222046 C-15.85000728 136.22640498 -19.23755139 136.28809125 -22.6257782 136.36141968 C-24.08822619 136.38953125 -25.55082334 136.41079446 -27.01347351 136.42489624 C-29.12427083 136.44646433 -31.23329342 136.49317671 -33.34355164 136.54452515 C-34.61086121 136.56547241 -35.87817078 136.58641968 -37.18388367 136.60800171 C-41.30690051 137.24617599 -43.49197565 138.54003297 -46.71073914 141.15390015 C-48.44875648 143.95088718 -48.44875648 143.95088718 -48.71073914 147.15390015 C-47.48286094 150.83753475 -46.31314803 152.67506231 -43.27323914 155.09140015 C-40.85554322 156.28556156 -40.85554322 156.28556156 -38.64823914 156.15390015 C-35.91605229 154.7437392 -34.58751017 152.55851304 -32.71073914 150.15390015 C-29.1997573 147.79803336 -25.91105934 147.84543371 -21.75761414 147.73983765 C-21.09739258 147.7204715 -20.43717102 147.70110535 -19.75694275 147.68115234 C-17.65833761 147.62160665 -15.55967685 147.57507293 -13.46073914 147.52890015 C-12.03363253 147.4906972 -10.60654842 147.45164412 -9.17948914 147.41171265 C-5.69011223 147.31592684 -2.20056628 147.23180373 1.28926086 147.15390015 C1.30384338 146.5491687 1.3184259 145.94443726 1.33345032 145.32138062 C1.40835275 142.5566075 1.50487159 139.79298657 1.60176086 137.02890015 C1.62431946 136.07757202 1.64687805 135.1262439 1.67012024 134.14608765 C1.8747845 128.78760509 2.26075816 124.76249121 5.28926086 120.15390015 C7.85176086 117.90390015 7.85176086 117.90390015 10.28926086 116.15390015 C10.94926086 115.49390015 11.60926086 114.83390015 12.28926086 114.15390015 C11.19613586 113.59702515 10.10301086 113.04015015 8.97676086 112.46640015 C5.53470057 110.53801697 4.2754633 108.5588186 2.28926086 105.15390015 C-2.4114306 105.15390015 -3.35422566 106.06953641 -6.71073914 109.15390015 Z M135.28926086 137.15390015 C135.28926086 140.45390015 135.28926086 143.75390015 135.28926086 147.15390015 C141.55926086 147.15390015 147.82926086 147.15390015 154.28926086 147.15390015 C153.90567376 141.33529492 153.90567376 141.33529492 150.97676086 138.77890015 C146.28306839 135.98805598 140.53953249 136.84805908 135.28926086 137.15390015 Z M-7.71073914 177.15390015 C-7.46749598 181.37011485 -7.33936155 183.50873504 -4.33573914 186.59140015 C-1.79023225 188.40964208 -1.79023225 188.40964208 1.28926086 188.15390015 C1.28926086 184.52390015 1.28926086 180.89390015 1.28926086 177.15390015 C-1.68073914 177.15390015 -4.65073914 177.15390015 -7.71073914 177.15390015 Z M-5.71073914 202.15390015 C-7.65185766 205.22179593 -7.96906408 207.65618692 -8.01933289 211.2515564 C-8.0444696 212.21770874 -8.06960632 213.18386108 -8.09550476 214.17929077 C-8.13072771 216.20787151 -8.16196279 218.23652533 -8.18925476 220.26522827 C-8.21568054 221.23009155 -8.24210632 222.19495483 -8.26933289 223.1890564 C-8.28278748 224.06956665 -8.29624207 224.9500769 -8.31010437 225.85726929 C-8.71073914 228.15390015 -8.71073914 228.15390015 -9.80717468 229.94320679 C-12.71019683 231.78956909 -15.19837001 231.50521153 -18.60917664 231.48983765 C-19.98938965 231.50235213 -21.36959801 231.51538934 -22.74980164 231.52890015 C-24.91793894 231.53282615 -27.08561473 231.52890099 -29.25370789 231.51425171 C-31.35205705 231.50565192 -33.44849552 231.52740969 -35.54667664 231.55233765 C-36.80012878 231.54895386 -38.05358093 231.54557007 -39.34501648 231.54208374 C-43.58167596 232.31221784 -45.04114104 233.85336268 -47.71073914 237.15390015 C-48.66380973 239.96519218 -48.52431622 242.30638034 -47.71073914 245.15390015 C-45.90500907 247.69507656 -44.51361 248.51448511 -41.71073914 250.15390015 C-39.04407247 250.48723348 -39.04407247 250.48723348 -36.71073914 249.15390015 C-35.35686978 247.50387187 -34.02395771 245.83646145 -32.71073914 244.15390015 C-28.76171366 242.11600474 -25.28368283 241.8562687 -20.87870789 241.73983765 C-19.58642273 241.70116577 -18.29413757 241.6624939 -16.96269226 241.62265015 C-15.60787918 241.59120001 -14.25306139 241.55995254 -12.89823914 241.52890015 C-11.52386642 241.49068264 -10.14951669 241.45162875 -8.77519226 241.41171265 C-5.42050924 241.31754611 -2.0658302 241.23191814 1.28926086 241.15390015 C1.29860657 240.55440552 1.30795227 239.95491089 1.31758118 239.33724976 C1.37168363 236.58783748 1.45524883 233.84005463 1.53926086 231.09140015 C1.55344055 230.14845093 1.56762024 229.20550171 1.58222961 228.23397827 C1.79744472 222.05730463 2.63580496 218.19083384 6.28926086 213.15390015 C9.03926086 211.34140015 9.03926086 211.34140015 11.28926086 210.15390015 C11.28926086 209.49390015 11.28926086 208.83390015 11.28926086 208.15390015 C10.36113586 207.55577515 9.43301086 206.95765015 8.47676086 206.34140015 C5.23351648 204.1156442 4.21821017 202.46067039 2.28926086 199.15390015 C-1.36425777 199.15390015 -2.7710069 200.04332315 -5.71073914 202.15390015 Z M135.28926086 232.15390015 C135.28926086 235.12390015 135.28926086 238.09390015 135.28926086 241.15390015 C141.55926086 241.15390015 147.82926086 241.15390015 154.28926086 241.15390015 C153.25567685 235.57347844 153.25567685 235.57347844 149.28926086 232.15390015 C145.78569737 231.67065809 145.78569737 231.67065809 142.03926086 231.90390015 C140.77597961 231.9399939 139.51269836 231.97608765 138.21113586 232.01327515 C137.24691711 232.0596814 136.28269836 232.10608765 135.28926086 232.15390015 Z M-7.71073914 271.15390015 C-7.41747193 274.96637387 -7.20943845 277.48323555 -4.89823914 280.59140015 C-2.61628793 282.54139228 -2.61628793 282.54139228 1.28926086 282.15390015 C1.28926086 278.52390015 1.28926086 274.89390015 1.28926086 271.15390015 C-1.68073914 271.15390015 -4.65073914 271.15390015 -7.71073914 271.15390015 Z M-6.64091492 298.10800171 C-8.86251671 302.35652363 -8.41280293 307.21435863 -8.39823914 311.90390015 C-8.41477321 313.98210663 -8.43911378 316.0602704 -8.47245789 318.13827515 C-8.47185364 319.51064331 -8.47185364 319.51064331 -8.47123718 320.91073608 C-8.71073914 323.15390015 -8.71073914 323.15390015 -10.71073914 325.15390015 C-13.6882782 325.3934021 -13.6882782 325.3934021 -17.47636414 325.3921814 C-18.85528013 325.40760961 -20.23418655 325.42391386 -21.61308289 325.44100952 C-23.78338258 325.45741779 -25.95298059 325.46642555 -28.12333679 325.45932007 C-30.22098019 325.45668544 -32.31650496 325.48492757 -34.41386414 325.5171814 C-35.66844421 325.52016235 -36.92302429 325.52314331 -38.21562195 325.5262146 C-42.81095702 326.35148747 -44.43604429 327.88229027 -47.71073914 331.15390015 C-48.74383343 333.95120163 -48.48424304 336.2907812 -47.71073914 339.15390015 C-45.40317388 342.31856106 -43.97515604 343.84550578 -40.14823914 344.77890015 C-36.73965789 343.90490495 -35.86842699 341.88274067 -33.71073914 339.15390015 C-27.02061487 335.17236697 -19.88035959 335.60080157 -12.27323914 335.46640015 C-10.96935242 335.43223999 -9.6654657 335.39807983 -8.32206726 335.36288452 C-5.11837716 335.28073862 -1.91494935 335.21147605 1.28926086 335.15390015 C1.29860657 334.5899353 1.30795227 334.02597046 1.31758118 333.44491577 C1.37183573 330.84708022 1.45536769 328.25094095 1.53926086 325.65390015 C1.55344055 324.76702515 1.56762024 323.88015015 1.58222961 322.96640015 C1.80026287 317.0358956 2.68994687 312.01930448 6.28926086 307.15390015 C9.53926086 305.15390015 9.53926086 305.15390015 12.28926086 304.15390015 C11.56738586 303.61765015 10.84551086 303.08140015 10.10176086 302.52890015 C7.86823011 300.64280751 6.49055378 299.18309256 4.78926086 296.90390015 C2.58993592 294.01000566 2.58993592 294.01000566 -0.21073914 293.40390015 C-3.18817603 294.29713122 -4.70975691 295.70067756 -6.64091492 298.10800171 Z M135.28926086 326.15390015 C135.28926086 329.12390015 135.28926086 332.09390015 135.28926086 335.15390015 C141.55926086 335.15390015 147.82926086 335.15390015 154.28926086 335.15390015 C153.7655628 330.26343541 153.7655628 330.26343541 151.15254211 327.85702515 C147.64615499 325.7713706 145.52283968 325.74042221 141.47676086 325.90390015 C140.31531555 325.9399939 139.15387024 325.97608765 137.95722961 326.01327515 C137.07679993 326.0596814 136.19637024 326.10608765 135.28926086 326.15390015 Z M-7.71073914 366.15390015 C-7.39490466 369.62807941 -7.07588277 371.68802723 -4.89823914 374.46640015 C-2.61334975 376.46195694 -2.61334975 376.46195694 1.28926086 377.15390015 C1.28926086 373.52390015 1.28926086 369.89390015 1.28926086 366.15390015 C-1.68073914 366.15390015 -4.65073914 366.15390015 -7.71073914 366.15390015 Z M-6.71073914 392.15390015 C-8.02435612 394.78113411 -7.92327822 396.88000576 -8.02714539 399.81796265 C-8.08998718 401.50018921 -8.08998718 401.50018921 -8.15409851 403.21640015 C-8.19341492 404.39202515 -8.23273132 405.56765015 -8.27323914 406.77890015 C-8.33801453 408.55393921 -8.33801453 408.55393921 -8.40409851 410.36483765 C-8.5104134 413.29440342 -8.61244555 416.22405603 -8.71073914 419.15390015 C-10.12552551 419.17577393 -10.12552551 419.17577393 -11.56889343 419.1980896 C-15.08232575 419.25929621 -18.5949936 419.33347523 -22.10795593 419.41635132 C-23.62575535 419.4495193 -25.1436757 419.47757647 -26.66166687 419.50033569 C-28.84911933 419.53403293 -31.03547177 419.58635218 -33.22245789 419.6421814 C-34.5368988 419.66836548 -35.85133972 419.69454956 -37.20561218 419.7215271 C-40.89776754 420.17697093 -42.79332347 420.88832132 -45.71073914 423.15390015 C-47.87107788 426.38909869 -47.87107788 426.38909869 -48.71073914 430.15390015 C-47.55058214 433.92441039 -46.35283672 435.64351489 -43.27323914 438.09140015 C-40.86478964 439.26719306 -40.86478964 439.26719306 -38.71073914 439.21640015 C-35.62115193 437.57505694 -33.89458011 434.84170443 -31.71073914 432.15390015 C-28.28190972 431.01095701 -25.46991075 430.94425543 -21.85527039 430.8374939 C-21.19363388 430.8167128 -20.53199738 430.7959317 -19.85031128 430.77452087 C-17.74139062 430.70925287 -15.63234779 430.6502467 -13.52323914 430.59140015 C-12.09158599 430.54819325 -10.6599451 430.50457827 -9.22831726 430.46054077 C-5.72258759 430.35359509 -2.21672128 430.25226374 1.28926086 430.15390015 C1.30384338 429.5491687 1.3184259 428.94443726 1.33345032 428.32138062 C1.40835275 425.5566075 1.50487159 422.79298657 1.60176086 420.02890015 C1.62431946 419.07757202 1.64687805 418.1262439 1.67012024 417.14608765 C1.8747845 411.78760509 2.26075816 407.76249121 5.28926086 403.15390015 C7.85176086 400.90390015 7.85176086 400.90390015 10.28926086 399.15390015 C10.94926086 398.49390015 11.60926086 397.83390015 12.28926086 397.15390015 C10.92801086 396.59702515 10.92801086 396.59702515 9.53926086 396.02890015 C5.82430041 393.88565373 4.6292549 391.6638912 2.28926086 388.15390015 C-2.4114306 388.15390015 -3.35422566 389.06953641 -6.71073914 392.15390015 Z M135.28926086 420.15390015 C135.28926086 423.45390015 135.28926086 426.75390015 135.28926086 430.15390015 C141.55926086 430.15390015 147.82926086 430.15390015 154.28926086 430.15390015 C153.90567376 424.33529492 153.90567376 424.33529492 150.97676086 421.77890015 C146.28306839 418.98805598 140.53953249 419.84805908 135.28926086 420.15390015 Z M-7.71073914 460.15390015 C-7.46749598 464.37011485 -7.33936155 466.50873504 -4.33573914 469.59140015 C-1.79023225 471.40964208 -1.79023225 471.40964208 1.28926086 471.15390015 C1.28926086 467.52390015 1.28926086 463.89390015 1.28926086 460.15390015 C-1.68073914 460.15390015 -4.65073914 460.15390015 -7.71073914 460.15390015 Z " fill="#56567A" transform="translate(197.7107391357422,9.846099853515625)"/>
<path d="M0 0 C13.60391334 -0.06948087 27.20778453 -0.12280168 40.8118391 -0.15543652 C47.12861074 -0.17109882 53.44526107 -0.19234772 59.76196289 -0.22631836 C65.85682176 -0.25889118 71.95156388 -0.27684876 78.04650307 -0.28463173 C80.37294668 -0.29017893 82.69938384 -0.30101111 85.02577782 -0.31719017 C88.28189325 -0.33893641 91.53752491 -0.34196804 94.79370117 -0.34057617 C95.75755234 -0.351362 96.7214035 -0.36214783 97.71446228 -0.3732605 C102.60544506 -0.3506063 106.0852099 -0.28260141 110 3 C112.22853305 6.34279957 112.26887974 7.55907184 112.34375 11.47265625 C112.37339844 12.53677734 112.40304687 13.60089844 112.43359375 14.69726562 C112.47794164 16.94465994 112.5222122 19.19205578 112.56640625 21.43945312 C112.59605469 22.50228516 112.62570312 23.56511719 112.65625 24.66015625 C112.67494141 25.63605713 112.69363281 26.61195801 112.71289062 27.61743164 C112.77357847 30.18519894 112.77357847 30.18519894 115 32 C116.93257855 32.36831081 116.93257855 32.36831081 119.1328125 32.4140625 C119.93847656 32.45273438 120.74414062 32.49140625 121.57421875 32.53125 C122.83685547 32.57765625 122.83685547 32.57765625 124.125 32.625 C124.97449219 32.66367188 125.82398438 32.70234375 126.69921875 32.7421875 C128.79911684 32.83656494 130.89952891 32.91937586 133 33 C133 36.3 133 39.6 133 43 C139.6 43 146.2 43 153 43 C151 49 151 49 149.33251953 50.84741211 C146.05209028 52.46839876 143.32965088 52.40383111 139.6796875 52.44140625 C138.62988205 52.46121803 138.62988205 52.46121803 137.55886841 52.48143005 C135.33087107 52.52222078 133.10328565 52.54397506 130.875 52.5625 C128.6396974 52.58627981 126.40478312 52.6143534 124.16970825 52.65428162 C122.14698948 52.68978609 120.12401428 52.70964714 118.10107422 52.72875977 C114.89724883 52.67421489 114.89724883 52.67421489 113 55 C112.71102912 57.44094215 112.71102912 57.44094215 112.76171875 60.26953125 C112.74560547 61.32333984 112.72949219 62.37714844 112.71289062 63.46289062 C112.69605281 65.68418708 112.69072069 67.90560249 112.69726562 70.12695312 C112.52596594 79.19478485 112.52596594 79.19478485 109.58203125 82.19921875 C106.27438952 84.50606116 104.69600057 85.12493617 100.73532104 85.12025452 C99.84067139 85.12162918 98.94602173 85.12300385 98.02426147 85.12442017 C97.04027374 85.12082489 96.05628601 85.11722961 95.04248047 85.11352539 C94.00830994 85.11367142 92.9741394 85.11381744 91.90863037 85.1139679 C88.47812834 85.11326924 85.04768009 85.10547901 81.6171875 85.09765625 C79.24350006 85.0957919 76.86981223 85.09436808 74.49612427 85.09336853 C68.23910465 85.08954466 61.98210813 85.07971547 55.72509766 85.06866455 C49.3440787 85.05844764 42.96305602 85.05387031 36.58203125 85.04882812 C24.05467733 85.0380931 11.52734059 85.02101823 -1 85 C-1 81.04 -1 77.08 -1 73 C-4.3 73 -7.6 73 -11 73 C-11.495 63.595 -11.495 63.595 -12 54 C-14.6821281 52.65893595 -16.88398032 52.78549581 -19.8828125 52.68359375 C-21.63271484 52.62075195 -21.63271484 52.62075195 -23.41796875 52.55664062 C-25.25294922 52.49766602 -25.25294922 52.49766602 -27.125 52.4375 C-28.35605469 52.39431641 -29.58710938 52.35113281 -30.85546875 52.30664062 C-33.90352853 52.20031296 -36.9516719 52.09828219 -40 52 C-37.77624913 47.55249826 -35.40576322 45.31409825 -31 43 C-27.56494141 42.54589844 -27.56494141 42.54589844 -23.8515625 42.609375 C-23.19417084 42.61503479 -22.53677917 42.62069458 -21.85946655 42.62652588 C-19.78053809 42.64873725 -17.70339837 42.6988958 -15.625 42.75 C-14.20705632 42.77008511 -12.78908535 42.78833235 -11.37109375 42.8046875 C-7.91349123 42.84854933 -4.45692049 42.91746563 -1 43 C-1.01571045 42.39526855 -1.0314209 41.79053711 -1.04760742 41.16748047 C-1.1103188 38.40341704 -1.14910411 35.63950379 -1.1875 32.875 C-1.21263672 31.92367187 -1.23777344 30.97234375 -1.26367188 29.9921875 C-1.32892581 23.72780986 -0.93202937 19.0675733 3.60546875 14.3203125 C5.0703125 13.21354167 6.53515625 12.10677083 8 11 C7.05125 10.29875 6.1025 9.5975 5.125 8.875 C1.83643261 6.44431975 1.19889591 3.83194277 0 0 Z " fill="#FAA58A" transform="translate(200,114)"/>
<path d="M0 0 C13.60391334 -0.06948087 27.20778453 -0.12280168 40.8118391 -0.15543652 C47.12861074 -0.17109882 53.44526107 -0.19234772 59.76196289 -0.22631836 C65.85682176 -0.25889118 71.95156388 -0.27684876 78.04650307 -0.28463173 C80.37294668 -0.29017893 82.69938384 -0.30101111 85.02577782 -0.31719017 C88.28189325 -0.33893641 91.53752491 -0.34196804 94.79370117 -0.34057617 C95.75755234 -0.351362 96.7214035 -0.36214783 97.71446228 -0.3732605 C102.60544506 -0.3506063 106.0852099 -0.28260141 110 3 C112.22853305 6.34279957 112.26887974 7.55907184 112.34375 11.47265625 C112.37339844 12.53677734 112.40304687 13.60089844 112.43359375 14.69726562 C112.47794164 16.94465994 112.5222122 19.19205578 112.56640625 21.43945312 C112.59605469 22.50228516 112.62570312 23.56511719 112.65625 24.66015625 C112.67494141 25.63605713 112.69363281 26.61195801 112.71289062 27.61743164 C112.77357847 30.18519894 112.77357847 30.18519894 115 32 C116.93257855 32.36831081 116.93257855 32.36831081 119.1328125 32.4140625 C119.93847656 32.45273437 120.74414062 32.49140625 121.57421875 32.53125 C122.83685547 32.57765625 122.83685547 32.57765625 124.125 32.625 C124.97449219 32.66367187 125.82398438 32.70234375 126.69921875 32.7421875 C128.79911684 32.83656494 130.89952891 32.91937586 133 33 C133 36.3 133 39.6 133 43 C139.6 43 146.2 43 153 43 C151 49 151 49 148.82495117 50.84741211 C145.33611335 52.27086759 142.56749061 52.40117856 138.80078125 52.44140625 C137.78639229 52.46121803 137.78639229 52.46121803 136.75151062 52.48143005 C134.60513063 52.52212024 132.4591771 52.54395055 130.3125 52.5625 C128.15523914 52.58629067 125.99837954 52.61436068 123.84135437 52.65428162 C121.89220345 52.68974298 119.94278786 52.70963472 117.9934082 52.72875977 C114.88474074 52.68831902 114.88474074 52.68831902 113 55 C112.71102912 57.44094215 112.71102912 57.44094215 112.76171875 60.26953125 C112.74560547 61.32333984 112.72949219 62.37714844 112.71289062 63.46289062 C112.69605281 65.68418708 112.69072069 67.90560249 112.69726562 70.12695312 C112.52596594 79.19478485 112.52596594 79.19478485 109.58203125 82.19921875 C106.27438952 84.50606116 104.69600057 85.12493617 100.73532104 85.12025452 C99.84067139 85.12162918 98.94602173 85.12300385 98.02426147 85.12442017 C97.04027374 85.12082489 96.05628601 85.11722961 95.04248047 85.11352539 C94.00830994 85.11367142 92.9741394 85.11381744 91.90863037 85.1139679 C88.47812834 85.11326924 85.04768009 85.10547901 81.6171875 85.09765625 C79.24350006 85.0957919 76.86981223 85.09436808 74.49612427 85.09336853 C68.23910465 85.08954466 61.98210813 85.07971547 55.72509766 85.06866455 C49.3440787 85.05844764 42.96305602 85.05387031 36.58203125 85.04882812 C24.05467733 85.0380931 11.52734059 85.02101823 -1 85 C-1 81.04 -1 77.08 -1 73 C-4.3 73 -7.6 73 -11 73 C-11.495 63.595 -11.495 63.595 -12 54 C-14.6821281 52.65893595 -16.88398032 52.78549581 -19.8828125 52.68359375 C-21.63271484 52.62075195 -21.63271484 52.62075195 -23.41796875 52.55664062 C-25.25294922 52.49766602 -25.25294922 52.49766602 -27.125 52.4375 C-28.35605469 52.39431641 -29.58710938 52.35113281 -30.85546875 52.30664062 C-33.90352853 52.20031296 -36.9516719 52.09828219 -40 52 C-35.6097561 44.53658537 -35.6097561 44.53658537 -31 43 C-28.7161483 42.91621372 -26.429899 42.89270085 -24.14453125 42.90234375 C-23.15207649 42.90446617 -23.15207649 42.90446617 -22.13957214 42.90663147 C-20.03050172 42.91222004 -17.92153823 42.92477035 -15.8125 42.9375 C-14.38086091 42.94251648 -12.94922015 42.94707913 -11.51757812 42.95117188 C-8.01168412 42.9621857 -4.5058525 42.97944245 -1 43 C-1.01571045 42.39526855 -1.0314209 41.79053711 -1.04760742 41.16748047 C-1.1103188 38.40341704 -1.14910411 35.63950379 -1.1875 32.875 C-1.21263672 31.92367188 -1.23777344 30.97234375 -1.26367188 29.9921875 C-1.32892581 23.72780986 -0.93202937 19.0675733 3.60546875 14.3203125 C5.0703125 13.21354167 6.53515625 12.10677083 8 11 C7.236875 10.443125 6.47375 9.88625 5.6875 9.3125 C3.01844497 7.01587126 1.56376121 5.12752243 0 2 C0 1.34 0 0.68 0 0 Z " fill="#FAA58A" transform="translate(200,397)"/>
<path d="M0 0 C13.60391334 -0.06948087 27.20778453 -0.12280168 40.8118391 -0.15543652 C47.12861074 -0.17109882 53.44526107 -0.19234772 59.76196289 -0.22631836 C65.85682176 -0.25889118 71.95156388 -0.27684876 78.04650307 -0.28463173 C80.37294668 -0.29017893 82.69938384 -0.30101111 85.02577782 -0.31719017 C88.28189325 -0.33893641 91.53752491 -0.34196804 94.79370117 -0.34057617 C95.75755234 -0.351362 96.7214035 -0.36214783 97.71446228 -0.3732605 C102.60544506 -0.3506063 106.0852099 -0.28260141 110 3 C112.18833577 6.28250365 112.27636519 7.42691565 112.37890625 11.25390625 C112.41306641 12.27291016 112.44722656 13.29191406 112.48242188 14.34179688 C112.52206055 15.93604492 112.52206055 15.93604492 112.5625 17.5625 C112.62229611 19.66808633 112.68590612 21.7735689 112.75390625 23.87890625 C112.77783447 24.8129126 112.8017627 25.74691895 112.82641602 26.70922852 C112.85692555 29.0291456 112.85692555 29.0291456 114 31 C120.27 31.33 126.54 31.66 133 32 C133 35.3 133 38.6 133 42 C139.27 42 145.54 42 152 42 C152 47 152 47 150.1875 49.25 C146.36227166 52.31018267 142.96136987 52.15363502 138.21484375 52.24609375 C136.86652948 52.27901223 135.51822235 52.3122242 134.16992188 52.34570312 C132.04781684 52.39323316 129.9257448 52.43771652 127.8034668 52.47680664 C125.75279897 52.51642963 123.70269998 52.56797164 121.65234375 52.62109375 C120.42507568 52.6461499 119.19780762 52.67120605 117.93334961 52.69702148 C114.87862777 52.70089487 114.87862777 52.70089487 113 55 C112.69481409 57.34249378 112.69481409 57.34249378 112.7265625 60.05078125 C112.7059375 61.05947266 112.6853125 62.06816406 112.6640625 63.10742188 C112.63816463 65.23234225 112.61984969 67.3573695 112.609375 69.48242188 C112.43052024 77.28744508 112.43052024 77.28744508 110.0859375 81.16796875 C107.12164945 83.77143522 105.54804778 84.12476352 101.69735718 84.12025452 C100.34276146 84.12231651 100.34276146 84.12231651 98.96080017 84.12442017 C97.9674617 84.12082489 96.97412323 84.11722961 95.95068359 84.11352539 C94.90675949 84.11367142 93.86283539 84.11381744 92.78727722 84.1139679 C89.32430977 84.11326922 85.8613956 84.10547891 82.3984375 84.09765625 C80.00232981 84.09579191 77.60622173 84.09436808 75.21011353 84.09336853 C68.89391025 84.08954461 62.57772986 84.07971538 56.26153564 84.06866455 C49.82019358 84.05844774 43.37884783 84.05387033 36.9375 84.04882812 C24.2916566 84.03809302 11.6458302 84.02101808 -1 84 C-1 80.37 -1 76.74 -1 73 C-2.464375 73.020625 -3.92875 73.04125 -5.4375 73.0625 C-6.95832518 73.08392007 -8.48071962 73.07179964 -10 73 C-11.51062693 71.48937307 -11.19532457 70.10608711 -11.28125 68 C-11.31863281 67.195625 -11.35601562 66.39125 -11.39453125 65.5625 C-11.46484375 63.85416667 -11.53515625 62.14583333 -11.60546875 60.4375 C-11.64285156 59.633125 -11.68023437 58.82875 -11.71875 58 C-11.74904297 57.2575 -11.77933594 56.515 -11.81054688 55.75 C-11.81792413 53.97311145 -11.81792413 53.97311145 -13 53 C-14.99782126 52.84174742 -17.00088834 52.74880829 -19.00390625 52.68359375 C-20.82631836 52.62075195 -20.82631836 52.62075195 -22.68554688 52.55664062 C-24.60463867 52.49766602 -24.60463867 52.49766602 -26.5625 52.4375 C-27.84576172 52.39431641 -29.12902344 52.35113281 -30.45117188 52.30664062 C-33.63399853 52.200152 -36.81690674 52.09814038 -40 52 C-38.3264631 47.16355843 -36.47464902 45.5569423 -32 43 C-28.64264863 41.88088288 -26.11794614 41.88634414 -22.58203125 41.90234375 C-21.32841797 41.90556641 -20.07480469 41.90878906 -18.78320312 41.91210938 C-16.81770508 41.92467773 -16.81770508 41.92467773 -14.8125 41.9375 C-13.47721519 41.94251683 -12.14192859 41.94707941 -10.80664062 41.95117188 C-7.53771527 41.96297305 -4.26888009 41.97943703 -1 42 C-1.02094727 41.43603516 -1.04189453 40.87207031 -1.06347656 40.29101562 C-1.14748501 37.69419751 -1.19892229 35.09766638 -1.25 32.5 C-1.30027344 31.1696875 -1.30027344 31.1696875 -1.3515625 29.8125 C-1.44162237 23.68842904 -0.54935495 19.08272515 3 14 C5.75 11.5 5.75 11.5 8 10 C7.50628906 9.61328125 7.01257813 9.2265625 6.50390625 8.828125 C5.54291016 8.04695313 5.54291016 8.04695313 4.5625 7.25 C3.92441406 6.73953125 3.28632813 6.2290625 2.62890625 5.703125 C0.78698301 3.7772772 0.53738464 2.55545999 0 0 Z " fill="#FBA58A" transform="translate(200,303)"/>
<path d="M0 0 C13.71696839 -0.11584834 27.4338204 -0.20469284 41.15117836 -0.25906086 C47.52072046 -0.2851548 53.88992787 -0.32055043 60.25927734 -0.37719727 C66.40603297 -0.43152234 72.55246665 -0.46142206 78.69944382 -0.47438622 C81.04463138 -0.48362505 83.38980132 -0.50166636 85.73485184 -0.52865028 C89.01974823 -0.56494565 92.30331426 -0.56994493 95.58837891 -0.56762695 C96.55798553 -0.58560333 97.52759216 -0.60357971 98.52658081 -0.62210083 C102.95865328 -0.58825856 106.05004983 -0.44707242 109.60440063 2.36428833 C112.36794503 5.40482437 112.74381525 6.62315895 112.734375 10.66796875 C112.75113281 11.72564453 112.76789063 12.78332031 112.78515625 13.87304688 C112.76775391 15.51370117 112.76775391 15.51370117 112.75 17.1875 C112.75763043 19.36853221 112.77286494 21.54955536 112.796875 23.73046875 C112.79010742 24.69364014 112.78333984 25.65681152 112.77636719 26.64916992 C112.76634409 29.19098714 112.76634409 29.19098714 115 31 C116.93257855 31.36831081 116.93257855 31.36831081 119.1328125 31.4140625 C119.93847656 31.45273438 120.74414062 31.49140625 121.57421875 31.53125 C122.83685547 31.57765625 122.83685547 31.57765625 124.125 31.625 C124.97449219 31.66367188 125.82398438 31.70234375 126.69921875 31.7421875 C128.79911684 31.83656494 130.89952891 31.91937586 133 32 C133 35.3 133 38.6 133 42 C139.27 42 145.54 42 152 42 C152 43.65 152 45.3 152 47 C147.29772348 51.45478828 144.39031642 52.1352349 138.0234375 52.31640625 C137.33819 52.33718735 136.6529425 52.35796844 135.94692993 52.37937927 C133.75638931 52.44480185 131.56572811 52.50372554 129.375 52.5625 C127.8906125 52.60569218 126.40623722 52.6493067 124.921875 52.69335938 C121.28137916 52.80047553 117.64074749 52.90176362 114 53 C112.7504478 55.4991044 112.85818337 57.25664184 112.82421875 60.05078125 C112.80037109 61.05947266 112.77652344 62.06816406 112.75195312 63.10742188 C112.70922405 65.23222205 112.67784397 67.35728287 112.65820312 69.48242188 C112.44590596 77.23867425 112.44590596 77.23867425 110.14453125 81.16796875 C107.04286192 83.8176644 104.54918807 84.12491028 100.61506653 84.12025452 C99.27103004 84.12231651 99.27103004 84.12231651 97.89984131 84.12442017 C96.91944885 84.12082489 95.9390564 84.11722961 94.92895508 84.11352539 C93.89463852 84.11367142 92.86032196 84.11381744 91.79466248 84.1139679 C88.36959754 84.1132702 84.94458671 84.10548446 81.51953125 84.09765625 C79.14727305 84.09579156 76.77501446 84.0943679 74.40275574 84.09336853 C68.15397074 84.08954736 61.90520893 84.07972045 55.65643311 84.06866455 C49.2820263 84.05844186 42.90761576 84.05386907 36.53320312 84.04882812 C24.02212522 84.03809786 11.51106454 84.0210262 -1 84 C-1 80.04 -1 76.08 -1 72 C-4.3 72 -7.6 72 -11 72 C-11.06058594 70.71222656 -11.12117188 69.42445313 -11.18359375 68.09765625 C-11.26798247 66.41925841 -11.3526313 64.74087364 -11.4375 63.0625 C-11.47681641 62.21236328 -11.51613281 61.36222656 -11.55664062 60.48632812 C-11.59853516 59.67744141 -11.64042969 58.86855469 -11.68359375 58.03515625 C-11.72025146 57.2862915 -11.75690918 56.53742676 -11.79467773 55.76586914 C-11.81771063 53.97538674 -11.81771063 53.97538674 -13 53 C-14.99782126 52.84174742 -17.00088834 52.74880829 -19.00390625 52.68359375 C-20.82631836 52.62075195 -20.82631836 52.62075195 -22.68554688 52.55664062 C-24.60463867 52.49766602 -24.60463867 52.49766602 -26.5625 52.4375 C-27.84576172 52.39431641 -29.12902344 52.35113281 -30.45117188 52.30664062 C-33.63399853 52.200152 -36.81690674 52.09814038 -40 52 C-38.42552722 47.6175965 -36.88713176 45.65462657 -33 43 C-29.58248347 41.86082782 -26.96512063 41.88661519 -23.36328125 41.90234375 C-22.06455078 41.90556641 -20.76582031 41.90878906 -19.42773438 41.91210938 C-18.05598892 41.92046469 -16.68424413 41.92892963 -15.3125 41.9375 C-13.92903805 41.94251665 -12.54557437 41.94707927 -11.16210938 41.95117188 C-7.77469605 41.96297471 -4.38736967 41.97943981 -1 42 C-1.02094727 41.40050537 -1.04189453 40.80101074 -1.06347656 40.18334961 C-1.14725274 37.43490758 -1.19885144 34.68673508 -1.25 31.9375 C-1.28351563 30.99455078 -1.31703125 30.05160156 -1.3515625 29.08007812 C-1.43930178 22.78478474 -0.70233236 19.13681538 3 14 C6.29032258 11 6.29032258 11 9 11 C9 10.34 9 9.68 9 9 C8.2575 8.773125 7.515 8.54625 6.75 8.3125 C3.4574253 6.7410439 2.02502891 5.00004284 0 2 C0 1.34 0 0.68 0 0 Z " fill="#FBA58A" transform="translate(200,209)"/>
<path d="M0 0 C1.49382957 -0.00087616 1.49382957 -0.00087616 3.01783752 -0.00177002 C6.29163126 0.00100452 9.56450115 0.03206754 12.83813477 0.06347656 C15.11499026 0.07094117 17.3918522 0.07663306 19.66871643 0.08062744 C25.64799887 0.0958663 31.62688981 0.13513356 37.60601807 0.17944336 C43.71263331 0.22043348 49.81931209 0.23864648 55.92602539 0.25878906 C67.89820217 0.30162909 79.87008898 0.36985964 91.84204102 0.45410156 C91.86391479 1.2938855 91.86391479 1.2938855 91.88623047 2.15063477 C91.96075453 4.68998294 92.05739683 7.22802234 92.15454102 9.76660156 C92.17709961 10.64767578 92.1996582 11.52875 92.22290039 12.43652344 C92.25834961 13.28408203 92.29379883 14.13164063 92.33032227 15.00488281 C92.35650635 15.78516846 92.38269043 16.5654541 92.40966797 17.36938477 C92.94211904 19.93663473 93.80413528 20.85013385 95.84204102 22.45410156 C97.7616975 22.95233252 97.7616975 22.95233252 99.85375977 22.96582031 C100.61108398 23.00126953 101.3684082 23.03671875 102.14868164 23.07324219 C102.93436523 23.09580078 103.72004883 23.11835937 104.52954102 23.14160156 C105.32682617 23.17576172 106.12411133 23.20992187 106.94555664 23.24511719 C108.91056006 23.3274826 110.87627798 23.39247223 112.84204102 23.45410156 C112.84204102 26.42410156 112.84204102 29.39410156 112.84204102 32.45410156 C119.11204102 32.45410156 125.38204102 32.45410156 131.84204102 32.45410156 C131.84204102 37.45410156 131.84204102 37.45410156 130.02954102 39.70410156 C126.20431267 42.76428424 122.80341089 42.60773658 118.05688477 42.70019531 C116.70857049 42.7331138 115.36026336 42.76632576 114.01196289 42.79980469 C111.88985786 42.84733472 109.76778581 42.89181808 107.64550781 42.9309082 C105.59483999 42.9705312 103.54474099 43.0220732 101.49438477 43.07519531 C100.2671167 43.10025146 99.03984863 43.12530762 97.77539062 43.15112305 C94.72066879 43.15499644 94.72066879 43.15499644 92.84204102 45.45410156 C92.5368551 47.79659534 92.5368551 47.79659534 92.56860352 50.50488281 C92.54797852 51.51357422 92.52735352 52.52226563 92.50610352 53.56152344 C92.48020564 55.68644381 92.4618907 57.81147107 92.45141602 59.93652344 C92.27256125 67.74154664 92.27256125 67.74154664 89.92797852 71.62207031 C86.96369047 74.22553678 85.39008879 74.57886508 81.53939819 74.57435608 C80.18480247 74.57641808 80.18480247 74.57641808 78.80284119 74.57852173 C77.80950272 74.57492645 76.81616425 74.57133118 75.79272461 74.56762695 C74.74880051 74.56777298 73.7048764 74.56791901 72.62931824 74.56806946 C69.16635079 74.56737078 65.70343661 74.55958047 62.24047852 74.55175781 C59.84437082 74.54989347 57.44826275 74.54846965 55.05215454 74.54747009 C48.73595127 74.54364617 42.41977087 74.53381694 36.10357666 74.52276611 C29.66223459 74.51254931 23.22088884 74.50797189 16.77954102 74.50292969 C4.13369761 74.49219458 -8.51212879 74.47511964 -21.15795898 74.45410156 C-21.15795898 70.82410156 -21.15795898 67.19410156 -21.15795898 63.45410156 C-22.62233398 63.47472656 -24.08670898 63.49535156 -25.59545898 63.51660156 C-27.11628417 63.53802164 -28.63867861 63.5259012 -30.15795898 63.45410156 C-31.66858592 61.94347463 -31.35328356 60.56018867 -31.43920898 58.45410156 C-31.4765918 57.64972656 -31.51397461 56.84535156 -31.55249023 56.01660156 C-31.62280273 54.30826823 -31.69311523 52.5999349 -31.76342773 50.89160156 C-31.80081055 50.08722656 -31.83819336 49.28285156 -31.87670898 48.45410156 C-31.90700195 47.71160156 -31.93729492 46.96910156 -31.96850586 46.20410156 C-31.97588311 44.42721301 -31.97588311 44.42721301 -33.15795898 43.45410156 C-35.15578025 43.29584898 -37.15884732 43.20290985 -39.16186523 43.13769531 C-40.98427734 43.07485352 -40.98427734 43.07485352 -42.84350586 43.01074219 C-44.76259766 42.95176758 -44.76259766 42.95176758 -46.72045898 42.89160156 C-48.0037207 42.84841797 -49.28698242 42.80523437 -50.60913086 42.76074219 C-53.79195752 42.65425356 -56.97486572 42.55224194 -60.15795898 42.45410156 C-58.47632432 37.61739995 -56.66725507 35.97930737 -52.15795898 33.45410156 C-48.71997357 32.30298206 -45.46844231 32.33942947 -41.86108398 32.35644531 C-40.65581055 32.35966797 -39.45053711 32.36289062 -38.20874023 32.36621094 C-36.95448242 32.37458984 -35.70022461 32.38296875 -34.40795898 32.39160156 C-32.50336914 32.39836914 -32.50336914 32.39836914 -30.56030273 32.40527344 C-27.42614062 32.417056 -24.29207357 32.4335074 -21.15795898 32.45410156 C-21.17890625 31.89013672 -21.19985352 31.32617188 -21.22143555 30.74511719 C-21.305444 28.14829907 -21.35688127 25.55176794 -21.40795898 22.95410156 C-21.45823242 21.62378906 -21.45823242 21.62378906 -21.50952148 20.26660156 C-21.59560015 14.41325233 -21.15241404 9.01991219 -17.15795898 4.45410156 C-11.34791181 0.36952619 -6.999497 -0.10839929 0 0 Z " fill="#FBA58B" transform="translate(220.157958984375,29.5458984375)"/>
<path d="M0 0 C5.07343291 2.07549528 7.50099017 4.09453625 10 9 C11.28004254 13.31356801 11.18885107 16.3445757 9.9375 20.6875 C7.21272685 25.34598313 4.23933272 28.25355576 -1 30 C-3.21089945 30.08358958 -5.42426078 30.10731764 -7.63671875 30.09765625 C-8.93544922 30.09443359 -10.23417969 30.09121094 -11.57226562 30.08789062 C-12.94401108 30.07953531 -14.31575587 30.07107037 -15.6875 30.0625 C-17.07096195 30.05748335 -18.45442563 30.05292073 -19.83789062 30.04882812 C-23.22530395 30.03702529 -26.61263033 30.02056019 -30 30 C-29.97905273 30.63502441 -29.95810547 31.27004883 -29.93652344 31.92431641 C-29.85295419 34.82438076 -29.80121226 37.72419116 -29.75 40.625 C-29.71648437 41.62402344 -29.68296875 42.62304688 -29.6484375 43.65234375 C-29.56951154 49.61125363 -29.75448969 53.43115612 -34 58 C-39.40226391 62.67564519 -44.08632093 62.57206262 -51.05078125 62.51757812 C-52.1539267 62.5245874 -53.25707214 62.53159668 -54.39364624 62.53881836 C-58.03352159 62.55639726 -61.67261699 62.54477516 -65.3125 62.53125 C-67.8454605 62.53394492 -70.37841999 62.53782734 -72.91137695 62.54284668 C-78.21739516 62.54874163 -83.52313485 62.54056129 -88.82910156 62.52148438 C-94.95386667 62.49971716 -101.07809909 62.50676925 -107.2028513 62.52879 C-113.10715205 62.54916431 -119.01128803 62.54696315 -124.9156189 62.53526306 C-127.4226387 62.53259574 -129.92967211 62.53586569 -132.43667603 62.54518127 C-135.94122266 62.55534587 -139.44474812 62.53984519 -142.94921875 62.51757812 C-143.98420502 62.52567505 -145.01919128 62.53377197 -146.08554077 62.54211426 C-152.04746055 62.47197771 -155.44371213 61.94406104 -160 58 C-163 54.6 -163 54.6 -163 52 C-161.70675812 51.99635437 -160.41351624 51.99270874 -159.08108521 51.98895264 C-146.86965004 51.95194722 -134.65846576 51.89411357 -122.44722176 51.81609726 C-116.16988228 51.77665574 -109.89268239 51.74445074 -103.61523438 51.72900391 C-97.55259895 51.71381575 -91.49034736 51.679331 -85.42788315 51.63169098 C-83.11958027 51.6168996 -80.81122258 51.60896028 -78.50287247 51.60811615 C-75.25947814 51.60573808 -72.01713737 51.57858931 -68.77392578 51.54589844 C-67.82805099 51.5509288 -66.88217621 51.55595917 -65.90763855 51.56114197 C-59.01074556 51.45419629 -51.38429628 50.40560414 -46.30746651 45.29681015 C-43.33333739 41.26034033 -41.92882116 37.70911184 -41.68359375 32.76953125 C-41.64169922 31.96708984 -41.59980469 31.16464844 -41.55664062 30.33789062 C-41.51732422 29.50451172 -41.47800781 28.67113281 -41.4375 27.8125 C-41.37272461 26.5450293 -41.37272461 26.5450293 -41.30664062 25.25195312 C-41.20068482 23.16815567 -41.0998498 21.08409897 -41 19 C-40.22398437 18.99589111 -39.44796875 18.99178223 -38.6484375 18.98754883 C-35.09820876 18.95445078 -31.54965906 18.88378564 -28 18.8125 C-26.16888672 18.80379883 -26.16888672 18.80379883 -24.30078125 18.79492188 C-17.07645845 18.6191951 -11.4317965 18.10777586 -6 13 C-2.98787309 9.11945057 -1.3713699 4.68551383 0 0 Z " fill="#FAA58A" transform="translate(363,440)"/>
<path d="M0 0 C2.73509897 0.08044409 4.50956538 0.59638873 6.6328125 2.34375 C9.99389671 5.91591679 11.91994618 8.99518916 12.16015625 13.953125 C11.72891129 19.46464598 10.21872814 22.73962142 6.37109375 26.71875 C0.49452771 30.71289516 -7.1346339 29.5158111 -13.9375 29.3125 C-15.39905043 29.28738745 -16.86064237 29.26457948 -18.32226562 29.24414062 C-21.88238103 29.18937438 -25.44092298 29.10326757 -29 29 C-28.97905273 29.6297876 -28.95810547 30.2595752 -28.93652344 30.90844727 C-28.85279901 33.79296571 -28.80116379 36.67722768 -28.75 39.5625 C-28.69972656 41.0484668 -28.69972656 41.0484668 -28.6484375 42.56445312 C-28.56326373 48.97377928 -29.15813432 52.80300351 -33 58 C-37.06451613 61 -37.06451613 61 -40 61 C-40.09796875 60.40832031 -40.1959375 59.81664062 -40.296875 59.20703125 C-41.25769801 54.12957861 -42.2985201 50.82486256 -46 47 C-45.731875 46.484375 -45.46375 45.96875 -45.1875 45.4375 C-44.795625 44.633125 -44.40375 43.82875 -44 43 C-43.4946875 41.989375 -42.989375 40.97875 -42.46875 39.9375 C-40.59484187 35.5436469 -40.44577456 31.28803517 -40.3125 26.5625 C-40.27833984 25.73556641 -40.24417969 24.90863281 -40.20898438 24.05664062 C-40.12731379 22.03821056 -40.06196276 20.01913116 -40 18 C-38.82026611 17.97812622 -38.82026611 17.97812622 -37.61669922 17.95581055 C-34.03565042 17.88110637 -30.45551089 17.78451793 -26.875 17.6875 C-25.6375 17.66494141 -24.4 17.64238281 -23.125 17.61914062 C-21.92617188 17.58369141 -20.72734375 17.54824219 -19.4921875 17.51171875 C-17.84259033 17.47244263 -17.84259033 17.47244263 -16.15966797 17.43237305 C-10.51072986 16.65936506 -6.55598084 14.25614757 -3.03515625 9.76171875 C-1.21680374 6.66708862 -0.66537177 3.50832388 0 0 Z " fill="#F7A48A" transform="translate(362,252)"/>
<path d="M0 0 C4.45596642 1.36154529 6.54952923 3.02854737 9 7 C10.77275329 11.55354277 11.50811794 15.52932313 10 20.25 C8.14555986 24.37922004 5.7322059 26.48647358 2 29 C-1.48159223 30.2153177 -4.85316559 30.11430379 -8.515625 30.09765625 C-9.76601563 30.09443359 -11.01640625 30.09121094 -12.3046875 30.08789062 C-14.25761719 30.07532227 -14.25761719 30.07532227 -16.25 30.0625 C-18.22613281 30.05573242 -18.22613281 30.05573242 -20.2421875 30.04882812 C-23.49483741 30.03704316 -26.74739584 30.02059011 -30 30 C-29.98428955 30.60473145 -29.9685791 31.20946289 -29.95239258 31.83251953 C-29.8896812 34.59658296 -29.85089589 37.36049621 -29.8125 40.125 C-29.78736328 41.07632813 -29.76222656 42.02765625 -29.73632812 43.0078125 C-29.67968224 48.44581778 -29.88557887 52.32466947 -33 57 C-37.21052632 61 -37.21052632 61 -41 61 C-41.37125 59.205625 -41.37125 59.205625 -41.75 57.375 C-42.77382519 53.20550902 -44.43678148 50.4176247 -47 47 C-45.95112989 44.82157747 -44.92921547 42.90610216 -43.46875 40.96875 C-41.38258085 36.75202513 -41.43379091 32.83467475 -41.3125 28.1875 C-41.27833984 27.30384766 -41.24417969 26.42019531 -41.20898438 25.50976562 C-41.12689567 23.34027833 -41.06176121 21.1701611 -41 19 C-40.29504395 18.99589111 -39.59008789 18.99178223 -38.86376953 18.98754883 C-35.61670679 18.95430699 -32.37144518 18.88362998 -29.125 18.8125 C-28.01640625 18.80669922 -26.9078125 18.80089844 -25.765625 18.79492188 C-18.25912286 18.59622035 -12.21429904 17.41854373 -6 13 C-2.80227125 9.27496873 -1.36387447 4.65990444 0 0 Z " fill="#FAA58A" transform="translate(363,63)"/>
<path d="M0 0 C4.45596642 1.36154529 6.54952923 3.02854737 9 7 C10.77275329 11.55354277 11.50811794 15.52932313 10 20.25 C8.14555986 24.37922004 5.7322059 26.48647358 2 29 C-1.48159223 30.2153177 -4.85316559 30.11430379 -8.515625 30.09765625 C-9.76601563 30.09443359 -11.01640625 30.09121094 -12.3046875 30.08789062 C-14.25761719 30.07532227 -14.25761719 30.07532227 -16.25 30.0625 C-18.22613281 30.05573242 -18.22613281 30.05573242 -20.2421875 30.04882812 C-23.49483741 30.03704316 -26.74739584 30.02059011 -30 30 C-29.98428955 30.60473145 -29.9685791 31.20946289 -29.95239258 31.83251953 C-29.8896812 34.59658296 -29.85089589 37.36049621 -29.8125 40.125 C-29.78736328 41.07632813 -29.76222656 42.02765625 -29.73632812 43.0078125 C-29.67968224 48.44581778 -29.88557887 52.32466947 -33 57 C-37.21052632 61 -37.21052632 61 -41 61 C-41.37125 59.205625 -41.37125 59.205625 -41.75 57.375 C-42.77382519 53.20550902 -44.43678148 50.4176247 -47 47 C-45.95112989 44.82157747 -44.92921547 42.90610216 -43.46875 40.96875 C-41.38258085 36.75202513 -41.43379091 32.83467475 -41.3125 28.1875 C-41.27833984 27.30384766 -41.24417969 26.42019531 -41.20898438 25.50976562 C-41.12689567 23.34027833 -41.06176121 21.1701611 -41 19 C-39.88927124 18.99383667 -39.88927124 18.99383667 -38.75610352 18.98754883 C-35.35745878 18.95438226 -31.96055207 18.88371119 -28.5625 18.8125 C-27.39783203 18.80669922 -26.23316406 18.80089844 -25.03320312 18.79492188 C-17.6600178 18.60799605 -11.85901431 17.74442903 -6 13 C-2.89273672 9.19826393 -1.36725904 4.67146839 0 0 Z " fill="#FAA58A" transform="translate(363,346)"/>
<path d="M0 0 C7.9815818 4.06608884 7.9815818 4.06608884 10 9 C11.36312307 15.0366879 11.22613337 18.48435262 8 24 C4.7665124 27.32808431 1.76285455 29.93286426 -2.98095703 30.11352539 C-4.85050049 30.10567017 -4.85050049 30.10567017 -6.7578125 30.09765625 C-7.75238968 30.09553383 -7.75238968 30.09553383 -8.76705933 30.09336853 C-10.88641863 30.08776754 -13.00567259 30.075215 -15.125 30.0625 C-16.56119639 30.05748512 -17.99739444 30.05292219 -19.43359375 30.04882812 C-22.95576345 30.03779782 -26.47787145 30.02053259 -30 30 C-29.97905273 30.63502441 -29.95810547 31.27004883 -29.93652344 31.92431641 C-29.85295419 34.82438076 -29.80121226 37.72419116 -29.75 40.625 C-29.69972656 42.12353516 -29.69972656 42.12353516 -29.6484375 43.65234375 C-29.56674959 49.81978109 -29.92703522 53.28393552 -34 58 C-34.495 58.61875 -34.99 59.2375 -35.5 59.875 C-37 61 -37 61 -41 61 C-41.2475 59.783125 -41.495 58.56625 -41.75 57.3125 C-42.7049925 53.41640742 -44.22781085 50.95700176 -47 48 C-45.97626041 45.32252722 -44.92930001 42.88024288 -43.46875 40.40625 C-41.59777122 36.06717156 -41.44297539 32.299747 -41.3125 27.625 C-41.27833984 26.79355469 -41.24417969 25.96210938 -41.20898438 25.10546875 C-41.12712854 23.07076649 -41.06187299 21.03540792 -41 19 C-40.22398437 18.99589111 -39.44796875 18.99178223 -38.6484375 18.98754883 C-35.09820876 18.95445078 -31.54965906 18.88378564 -28 18.8125 C-26.16888672 18.80379883 -26.16888672 18.80379883 -24.30078125 18.79492188 C-17.07645845 18.6191951 -11.4317965 18.10777586 -6 13 C-2.98787309 9.11945057 -1.3713699 4.68551383 0 0 Z " fill="#F9A58B" transform="translate(363,157)"/>
<path d="M0 0 C6.27 0 12.54 0 19 0 C19 3.63 19 7.26 19 11 C13.09488431 11.26841435 9.06282104 11.4144607 4 8 C0 3.78947368 0 3.78947368 0 0 Z " fill="#F8A48A" transform="translate(160,459)"/>
<path d="M0 0 C6.27 0 12.54 0 19 0 C19 3.63 19 7.26 19 11 C13.09488431 11.26841435 9.06282104 11.4144607 4 8 C0 3.78947368 0 3.78947368 0 0 Z " fill="#F7A38A" transform="translate(160,176)"/>
<path d="M0 0 C6.27 0 12.54 0 19 0 C19 3.63 19 7.26 19 11 C12.6249026 11.4553641 8.34644207 10.60116672 3 7 C0.45209574 4.37247373 0 3.69284426 0 0 Z " fill="#FCA68C" transform="translate(160,365)"/>
<path d="M0 0 C6.27 0 12.54 0 19 0 C19 3.63 19 7.26 19 11 C12.6249026 11.4553641 8.34644207 10.60116672 3 7 C0.45209574 4.37247373 0 3.69284426 0 0 Z " fill="#FCA58A" transform="translate(160,82)"/>
<path d="M0 0 C6.27 0 12.54 0 19 0 C19 3.3 19 6.6 19 10 C8.03162055 10.43873518 8.03162055 10.43873518 4 7 C0 2.56756757 0 2.56756757 0 0 Z " fill="#FCA68B" transform="translate(160,271)"/>
<path d="M0 0 C5.81537343 1.16307469 6.72436074 2.26852107 10 7 C10.33 8.65 10.66 10.3 11 12 C7.37 12 3.74 12 0 12 C0 8.04 0 4.08 0 0 Z " fill="#EB9D89" transform="translate(322,314)"/>
<path d="M0 0 C5.81537343 1.16307469 6.72436074 2.26852107 10 7 C10.33 8.65 10.66 10.3 11 12 C7.37 12 3.74 12 0 12 C0 8.04 0 4.08 0 0 Z " fill="#EB9D89" transform="translate(322,31)"/>
<path d="M0 0 C4.94119746 1.23529937 7.27606774 2.66188566 10 7 C10.33 8.65 10.66 10.3 11 12 C7.37 12 3.74 12 0 12 C0 8.04 0 4.08 0 0 Z " fill="#EFA18B" transform="translate(322,408)"/>
<path d="M0 0 C4.82978859 1.93191544 6.75182433 3.12023462 10 7 C10.33 8.65 10.66 10.3 11 12 C7.37 12 3.74 12 0 12 C0 8.04 0 4.08 0 0 Z " fill="#F09F8A" transform="translate(322,125)"/>
<path d="M0 0 C5.80824709 1.16164942 6.69204469 2.31372998 10 7 C10.33 8.32 10.66 9.64 11 11 C7.37 11 3.74 11 0 11 C0 7.37 0 3.74 0 0 Z " fill="#F5A38C" transform="translate(322,220)"/>
</svg>
