<?xml version="1.0" encoding="UTF-8"?>
<svg version="1.1" xmlns="http://www.w3.org/2000/svg" width="512" height="512">
<path d="M0 0 C13.91144416 10.74122001 24.04180531 24.84514743 33.4375 39.5 C34.35789062 40.88251953 34.35789062 40.88251953 35.296875 42.29296875 C49.62525803 64.67143794 58.47195531 94.87528646 58.640625 121.390625 C58.64763931 122.12864349 58.65465363 122.86666199 58.66188049 123.62704468 C58.67932061 126.00142563 58.6857345 128.37555731 58.6875 130.75 C58.68817474 131.56023621 58.68884949 132.37047241 58.68954468 133.20526123 C58.67364236 145.20571519 58.29798454 156.78971851 55.4375 168.5 C55.26057617 169.24266113 55.08365234 169.98532227 54.90136719 170.75048828 C49.44915877 193.08194298 40.46142683 213.56019622 27.4375 232.5 C26.76332031 233.48226562 26.08914063 234.46453125 25.39453125 235.4765625 C16.79491946 247.44825472 6.4155022 260.20233919 -6.5625 267.5 C-7.61695313 268.10070312 -8.67140625 268.70140625 -9.7578125 269.3203125 C-27.81888875 278.97712956 -49.10225363 282.16543649 -69.1875 277 C-80.62994171 272.97737763 -91.37729548 267.45419773 -100.5625 259.5 C-101.38492188 258.86707031 -102.20734375 258.23414063 -103.0546875 257.58203125 C-116.27714848 246.60450523 -124.10135921 228.18463666 -126.5625 211.5 C-126.86306774 207.95270216 -126.94385333 204.43413448 -126.9375 200.875 C-126.93508301 199.44365723 -126.93508301 199.44365723 -126.93261719 197.98339844 C-126.78457503 189.32438353 -125.28939078 181.71828463 -122.5625 173.5 C-122.25054687 172.55898437 -121.93859375 171.61796875 -121.6171875 170.6484375 C-119.3497601 164.49399169 -116.0828508 159.01521626 -112.5625 153.5 C-129.15204169 160.84175462 -139.73565548 172.50049114 -147.15234375 188.82421875 C-151.81560761 200.9797071 -151.7091453 213.36518301 -151.7043457 226.19970703 C-151.70738167 227.88423757 -151.71090433 229.5687673 -151.71487427 231.2532959 C-151.72272744 234.86596898 -151.72789447 238.47863234 -151.73116493 242.09131241 C-151.73710181 247.80682612 -151.75366524 253.52227846 -151.77250671 259.23776245 C-151.77884287 261.19829747 -151.78516851 263.15883252 -151.79148388 265.1193676 C-151.79464969 266.10071985 -151.7978155 267.0820721 -151.80107725 268.0931623 C-151.84309184 281.3887578 -151.87615227 294.6843229 -151.88842773 307.97998047 C-151.8968079 316.96464576 -151.91928982 325.94915703 -151.9577834 334.93374527 C-151.97753159 339.68298507 -151.98995238 344.43199474 -151.98494911 349.18127823 C-151.98030304 353.64497339 -151.99410564 358.10823135 -152.02196121 362.57183838 C-152.02887141 364.20724935 -152.02900137 365.84270554 -152.02176094 367.47811508 C-152.01285681 369.71559305 -152.02858855 371.9516338 -152.05024719 374.18899536 C-152.05263555 375.43924059 -152.0550239 376.68948582 -152.05748463 377.97761726 C-152.8688643 383.63683064 -155.08982488 387.32787082 -159.625 390.9375 C-164.91022679 393.56306428 -171.10245973 393.57688178 -176.68359375 391.83984375 C-181.24583409 389.57344049 -183.64197898 386.06710193 -185.5625 381.5 C-186.06307125 377.8538208 -186.06307125 377.8538208 -186.06370544 373.88769531 C-186.06923984 373.15317485 -186.07477424 372.41865438 -186.08047634 371.66187572 C-186.09401674 369.21694094 -186.07915004 366.77303885 -186.06420898 364.328125 C-186.06799485 362.56819731 -186.07349709 360.8082726 -186.08058167 359.0483551 C-186.09452691 354.27712642 -186.0833693 349.5062588 -186.06687045 344.7350502 C-186.05298705 339.72790516 -186.05948444 334.72078041 -186.06300354 329.71362305 C-186.06570506 321.29714166 -186.05224188 312.8808029 -186.02905273 304.46435547 C-186.00251256 294.76520025 -186.00067413 285.06628451 -186.0124411 275.36710548 C-186.02326748 266.00988357 -186.01698938 256.65274738 -186.00288582 247.29553223 C-185.99716104 243.32781929 -185.99718105 239.36016983 -186.00195122 235.39245605 C-186.00676674 230.70394274 -185.99643237 226.01568723 -185.97499657 221.32722282 C-185.96948767 219.61776537 -185.96890824 217.90828283 -185.97394943 216.19882393 C-186.04687166 187.89499734 -177.05444476 162.82244437 -157.30664062 142.23242188 C-145.10186116 130.10964541 -125.41499251 116.5 -107.5625 116.5 C-109.49082482 113.18514556 -111.56823532 110.12227752 -113.875 107.0625 C-125.72300304 90.15467324 -129.00579342 69.33310711 -126.23730469 49.12646484 C-124.6625787 40.46164045 -121.74610243 32.24261069 -117.5625 24.5 C-116.86060547 23.18322266 -116.86060547 23.18322266 -116.14453125 21.83984375 C-104.64196109 2.10086533 -86.04401056 -8.2429443 -64.76953125 -14.640625 C-41.91786894 -20.09086983 -18.92539741 -12.6542598 0 0 Z " fill="#F62250" transform="translate(453.5625,67.5)"/>
<path d="M0 0 C16.69806884 13.6268169 27.32249183 30.34985377 30.4375 51.75 C32.16889022 72.14878459 29.06608887 92.41854791 16.62109375 109.19921875 C15.26861423 110.75375545 13.85942115 112.25871685 12.4375 113.75 C12.1075 114.74 11.7775 115.73 11.4375 116.75 C12.61054688 116.86214844 13.78359375 116.97429687 14.9921875 117.08984375 C36.03736699 119.7493994 56.48815969 135.48519295 69.375 151.625 C78.1444739 163.13003814 84.06281775 175.67911617 87.4375 189.75 C87.61098276 190.46851765 87.78446552 191.18703529 87.96320534 191.9273262 C89.82143241 200.75462678 89.73411174 209.53226416 89.72802734 218.50292969 C89.73402152 220.27642599 89.7408291 222.04991969 89.74838257 223.82341003 C89.76594867 228.61028022 89.77073366 233.39707878 89.77201414 238.18397808 C89.77344042 241.17800062 89.77771877 244.1720052 89.78300858 247.16602325 C89.80147018 257.61964567 89.80968311 268.07321728 89.80810547 278.52685547 C89.80690166 288.26035595 89.82806077 297.99363556 89.8595928 307.72708011 C89.88574586 316.0993271 89.89647333 324.47150181 89.89519465 332.84378934 C89.8946852 337.83782065 89.90036074 342.83165497 89.92155075 347.82564545 C89.94091946 352.51749163 89.94106703 357.20895234 89.92651749 361.90081215 C89.92442735 363.62009812 89.92914251 365.33940818 89.9412384 367.05865288 C89.95670703 369.40981318 89.9473738 371.75964648 89.93197632 374.11077881 C89.93306585 375.42479549 89.93415539 376.73881218 89.93527794 378.09264755 C89.1524569 383.84431357 86.98552543 387.51789813 82.375 391.1875 C77.08977321 393.81306428 70.89754027 393.82688178 65.31640625 392.08984375 C60.75133466 389.82203399 58.37548134 386.3097741 56.4375 381.75 C55.93527794 378.23879051 55.93527794 378.23879051 55.93197632 374.46591187 C55.9258862 373.76673224 55.91979608 373.06755262 55.91352141 372.34718573 C55.89799968 370.0219641 55.91067752 367.69778422 55.92333984 365.37255859 C55.91787524 363.69805253 55.91063161 362.02355148 55.90174866 360.34906006 C55.88643527 356.75046657 55.88359993 353.1521581 55.89051437 349.55353928 C55.90132798 343.85325805 55.88388443 338.15327274 55.86270142 332.45303345 C55.8324553 323.42704333 55.8207488 314.40114113 55.81712496 305.37510455 C55.81048255 289.23739958 55.78127261 273.09975672 55.7320286 256.96212637 C55.71561591 251.30653459 55.71009747 245.65107067 55.71361899 239.99545741 C55.71405912 236.46141592 55.70644562 232.92742181 55.69694328 229.39339447 C55.69428291 227.76694303 55.69497356 226.14048172 55.69945335 224.51403427 C55.75623765 202.34647859 51.65589634 182.9209609 36.1484375 166.22265625 C31.17992407 161.69085654 23.35095552 154.75 16.4375 154.75 C16.88480469 155.38164062 17.33210937 156.01328125 17.79296875 156.6640625 C29.56003132 174.07630434 33.47973639 195.6750562 29.71484375 216.34765625 C25.21525256 236.91618748 13.68774299 254.62548888 -3.64697266 266.53173828 C-7.01589619 268.6743496 -10.52551699 270.46674783 -14.125 272.1875 C-14.78419434 272.50525391 -15.44338867 272.82300781 -16.12255859 273.15039062 C-26.23814931 277.7293633 -36.33325191 279.29286333 -47.375 279.1875 C-48.51501465 279.17847656 -49.6550293 279.16945313 -50.82958984 279.16015625 C-74.73336373 278.67045025 -93.1697121 267.7892342 -109.4375 250.875 C-117.19176408 242.56389394 -123.46900323 233.31637151 -129.5625 223.75 C-130.26246094 222.656875 -130.96242187 221.56375 -131.68359375 220.4375 C-147.82535566 193.97795264 -155.0254752 162.80490551 -154.875 132.0625 C-154.87284485 131.26874969 -154.8706897 130.47499939 -154.86846924 129.65719604 C-154.66451187 82.81596913 -135.62848975 38.48459439 -102.35009766 5.42871094 C-74.26240107 -20.94809891 -30.5781557 -22.58974478 0 0 Z " fill="#F62250" transform="translate(154.5625,67.25)"/>
<path d="M0 0 C1.61846329 -0.00956978 1.61846329 -0.00956978 3.2696228 -0.01933289 C5.02262192 -0.02100212 5.02262192 -0.02100212 6.81103516 -0.02270508 C8.01893707 -0.02603348 9.22683899 -0.02936188 10.47134399 -0.03279114 C13.0352541 -0.03786093 15.59917082 -0.04019945 18.16308594 -0.04003906 C22.04975619 -0.04220823 25.93613455 -0.06031545 29.82275391 -0.0793457 C32.31884669 -0.08228323 34.81494082 -0.08426562 37.31103516 -0.08520508 C38.45945892 -0.09239059 39.60788269 -0.09957611 40.79110718 -0.10697937 C64.51357104 -0.04125634 85.84307057 7.53042216 103.72509766 23.14526367 C104.71509766 23.92063477 104.71509766 23.92063477 105.72509766 24.71166992 C121.26626781 37.21353865 131.13820325 56.02000876 135.72509766 75.14526367 C135.89858042 75.86378132 136.07206318 76.58229897 136.25080299 77.32258987 C138.10903006 86.14989045 138.0217094 94.92752783 138.015625 103.89819336 C138.02161918 105.67168966 138.02842675 107.44518336 138.03598022 109.21867371 C138.05354633 114.00554389 138.05833131 118.79234245 138.0596118 123.57924175 C138.06103807 126.57326429 138.06531643 129.56726887 138.07060623 132.56128693 C138.08906784 143.01490935 138.09728076 153.46848095 138.09570312 163.92211914 C138.09449932 173.65561962 138.11565843 183.38889923 138.14719045 193.12234378 C138.17334351 201.49459077 138.18407099 209.86676549 138.18279231 218.23905301 C138.18228285 223.23308432 138.18795839 228.22691864 138.20914841 233.22090912 C138.22851712 237.9127553 138.22866468 242.60421602 138.21411514 247.29607582 C138.21202501 249.0153618 138.21674017 250.73467185 138.22883606 252.45391655 C138.24430469 254.80507685 138.23497146 257.15491015 138.21957397 259.50604248 C138.22066351 260.82005917 138.22175304 262.13407585 138.2228756 263.48791122 C137.44005455 269.23957724 135.27312309 272.9131618 130.66259766 276.58276367 C125.37737087 279.20832795 119.18513793 279.22214545 113.60400391 277.48510742 C109.03893232 275.21729767 106.66307899 271.70503778 104.72509766 267.14526367 C104.2228756 263.63405418 104.2228756 263.63405418 104.21957397 259.86117554 C104.21043879 258.8124061 104.21043879 258.8124061 104.20111907 257.7424494 C104.18559734 255.41722777 104.19827517 253.09304789 104.2109375 250.76782227 C104.2054729 249.0933162 104.19822927 247.41881515 104.18934631 245.74432373 C104.17403292 242.14573024 104.17119759 238.54742177 104.17811203 234.94880295 C104.18892563 229.24852172 104.17148209 223.54853641 104.15029907 217.84829712 C104.12005295 208.822307 104.10834645 199.79640481 104.10472262 190.77036822 C104.09808021 174.63266325 104.06887027 158.49502039 104.01962626 142.35739005 C104.00321356 136.70179826 103.99769513 131.04633434 104.00121665 125.39072108 C104.00165678 121.8566796 103.99404327 118.32268548 103.98454094 114.78865814 C103.98188057 113.1622067 103.98257121 111.53574539 103.98705101 109.90929794 C104.0438381 87.74065206 99.94630945 68.28829581 84.41650391 51.60229492 C79.36359212 46.98940448 73.62438377 43.5672695 67.72509766 40.14526367 C66.95810547 39.69022461 66.19111328 39.23518555 65.40087891 38.76635742 C56.64019584 33.95064726 46.91447544 33.85548866 37.14697266 33.83666992 C34.74592832 33.81153291 32.34488671 33.78613459 29.94384766 33.76049805 C26.19580667 33.73167833 22.44781257 33.70762781 18.69970703 33.68896484 C15.05689936 33.66732676 11.41460331 33.62791835 7.77197266 33.58666992 C6.65312683 33.58655411 5.53428101 33.58643829 4.38153076 33.58631897 C-2.88160085 33.49390943 -7.38953531 32.63717157 -13.02490234 27.77026367 C-16.94246599 23.19977275 -17.73851036 19.26389878 -17.59130859 13.35620117 C-16.91750972 8.64792754 -14.11538731 5.90375011 -10.71240234 2.83276367 C-7.06894993 0.31037354 -4.3206766 0.01735534 0 0 Z " fill="#1975D1" transform="translate(106.27490234375,181.854736328125)"/>
<path d="M0 0 C1.84739021 -0.0099852 1.84739021 -0.0099852 3.73210144 -0.02017212 C6.31446858 -0.03022793 8.89686134 -0.03499135 11.47924805 -0.03466797 C15.42474624 -0.03907006 19.36915004 -0.07554591 23.31445312 -0.11328125 C25.83463162 -0.11914513 28.35481538 -0.12311739 30.875 -0.125 C32.04803177 -0.13937103 33.22106354 -0.15374207 34.42964172 -0.16854858 C41.05594994 -0.13154651 45.24615708 0.32459477 50.60546875 4.3359375 C54.76951664 8.93830623 55.97702514 11.79353544 55.87890625 17.88671875 C55.4343361 21.86879707 54.21862331 25.27743329 51.60546875 28.3359375 C45.65720621 32.57511199 40.98730972 32.89970386 33.80078125 32.83984375 C32.76339813 32.84926498 31.72601501 32.85868622 30.65719604 32.86839294 C27.34808571 32.89695266 24.03969192 32.90012785 20.73046875 32.8984375 C-5.13719003 32.20064081 -5.13719003 32.20064081 -29.33203125 40.0234375 C-30.2449292 40.54780396 -30.2449292 40.54780396 -31.17626953 41.08276367 C-47.12978234 50.48913701 -58.66786195 64.17058656 -63.5234375 82.23046875 C-65.72706045 92.08729494 -65.5401301 101.99941124 -65.53637695 112.03564453 C-65.53941292 113.72017507 -65.54293558 115.4047048 -65.54690552 117.0892334 C-65.55475869 120.70190648 -65.55992572 124.31456984 -65.56319618 127.92724991 C-65.56913306 133.64276362 -65.58569649 139.35821596 -65.60453796 145.07369995 C-65.61087412 147.03423497 -65.61719976 148.99477002 -65.62351513 150.9553051 C-65.62668094 151.93665735 -65.62984675 152.9180096 -65.6331085 153.9290998 C-65.67512309 167.2246953 -65.70818352 180.5202604 -65.72045898 193.81591797 C-65.72883915 202.80058326 -65.75132107 211.78509453 -65.78981465 220.76968277 C-65.80956284 225.51892257 -65.82198363 230.26793224 -65.81698036 235.01721573 C-65.81233429 239.48091089 -65.82613689 243.94416885 -65.85399246 248.40777588 C-65.86090266 250.04318685 -65.86103262 251.67864304 -65.85379219 253.31405258 C-65.84488806 255.55153055 -65.8606198 257.7875713 -65.88227844 260.02493286 C-65.8846668 261.27517809 -65.88705515 262.52542332 -65.88951588 263.81355476 C-66.70089555 269.47276814 -68.92185613 273.16380832 -73.45703125 276.7734375 C-78.74225804 279.39900178 -84.93449098 279.41281928 -90.515625 277.67578125 C-95.07786534 275.40937799 -97.47401023 271.90303943 -99.39453125 267.3359375 C-99.8951025 263.6897583 -99.8951025 263.6897583 -99.89573669 259.72363281 C-99.90127109 258.98911235 -99.90680549 258.25459188 -99.91250759 257.49781322 C-99.92604799 255.05287844 -99.91118129 252.60897635 -99.89624023 250.1640625 C-99.9000261 248.40413481 -99.90552834 246.6442101 -99.91261292 244.8842926 C-99.92655816 240.11306392 -99.91540055 235.3421963 -99.8989017 230.5709877 C-99.8850183 225.56384266 -99.89151569 220.55671791 -99.89503479 215.54956055 C-99.89773631 207.13307916 -99.88427313 198.7167404 -99.86108398 190.30029297 C-99.83454381 180.60113775 -99.83270538 170.90222201 -99.84447235 161.20304298 C-99.85529873 151.84582107 -99.84902063 142.48868488 -99.83491707 133.13146973 C-99.82919229 129.16375679 -99.8292123 125.19610733 -99.83398247 121.22839355 C-99.83879799 116.53988024 -99.82846362 111.85162473 -99.80702782 107.16316032 C-99.80151892 105.45370287 -99.80093949 103.74422033 -99.80598068 102.03476143 C-99.87890291 73.73093484 -90.88647601 48.65838187 -71.13867188 28.06835938 C-51.77297977 8.8327839 -27.0208373 0.05171407 0 0 Z " fill="#1975D1" transform="translate(367.39453125,181.6640625)"/>
<path d="M0 0 C0 0.66 0 1.32 0 2 C-0.92039062 2.20753906 -1.84078125 2.41507813 -2.7890625 2.62890625 C-16.11103315 5.87121886 -27.47596764 10.98251999 -38 20 C-39.03125 20.804375 -40.0625 21.60875 -41.125 22.4375 C-63.79001559 42.63892694 -79.83163316 72.81450642 -87 102 C-87.27328125 102.98742187 -87.5465625 103.97484375 -87.828125 104.9921875 C-91.56637453 118.80905097 -92.38253062 132.52198673 -92.3125 146.75 C-92.30926727 147.93687912 -92.30926727 147.93687912 -92.30596924 149.1477356 C-92.10447805 195.30610508 -73.60180591 239.21189806 -41 272 C-29.25973881 283.19601067 -14.3752137 288.74728132 1 293 C1 293.33 1 293.66 1 294 C-23.48759537 294.72341493 -45.12137574 292.43993629 -64.234375 275.64453125 C-75.89554423 264.49394994 -85.33042566 252.6106364 -94 239 C-94.69996094 237.906875 -95.39992188 236.81375 -96.12109375 235.6875 C-112.26285566 209.22795264 -119.4629752 178.05490551 -119.3125 147.3125 C-119.31034485 146.51874969 -119.3081897 145.72499939 -119.30596924 144.90719604 C-119.10201187 98.06596913 -100.06598975 53.73459439 -66.78759766 20.67871094 C-47.73633196 2.78790201 -24.96064952 -0.85301904 0 0 Z " fill="#F85A7B" transform="translate(119,52)"/>
<path d="M0 0 C24.92714449 -0.85187402 46.66800882 3.01451258 66 20 C77.11935125 30.43488847 85.79724629 42.20582669 94 55 C94.61359375 55.92167969 95.2271875 56.84335938 95.859375 57.79296875 C110.18775803 80.17143794 119.03445531 110.37528646 119.203125 136.890625 C119.21013931 137.62864349 119.21715363 138.36666199 119.22438049 139.12704468 C119.24182061 141.50142563 119.2482345 143.87555731 119.25 146.25 C119.25067474 147.06023621 119.25134949 147.87047241 119.25204468 148.70526123 C119.23614236 160.70571519 118.86048454 172.28971851 116 184 C115.82307617 184.74266113 115.64615234 185.48532227 115.46386719 186.25048828 C110.01165877 208.58194298 101.02392683 229.06019622 88 248 C86.98873047 249.47339844 86.98873047 249.47339844 85.95703125 250.9765625 C77.35741946 262.94825472 66.9780022 275.70233919 54 283 C52.94554687 283.60070312 51.89109375 284.20140625 50.8046875 284.8203125 C33.58662522 294.02639054 18.16511956 294.56617783 -1 294 C1.47526287 291.52473713 3.03759733 291.40815557 6.4375 290.6875 C24.92527359 286.25308175 40.24914559 274.70027205 52 260 C52.63760254 259.20625977 52.63760254 259.20625977 53.28808594 258.39648438 C69.33814016 238.23752814 79.82257276 216.63102336 87 192 C87.29777344 191.04867187 87.59554687 190.09734375 87.90234375 189.1171875 C91.78335855 176.1804715 92.3353826 162.75681978 92.26074219 149.34594727 C92.25002093 147.06694866 92.26071809 144.7887407 92.2734375 142.50976562 C92.29012635 127.97884808 91.12017205 113.89344778 86.8125 99.9375 C86.50642822 98.91946289 86.20035645 97.90142578 85.88500977 96.85253906 C83.2226623 88.23886184 79.92482526 80.10581627 76 72 C75.51917969 70.96101563 75.03835938 69.92203125 74.54296875 68.8515625 C67.08696788 53.20012266 56.71148633 37.85527222 44 26 C43.195625 25.175 42.39125 24.35 41.5625 23.5 C40.716875 22.675 39.87125 21.85 39 21 C38.49726563 20.47792969 37.99453125 19.95585938 37.4765625 19.41796875 C27.89750844 10.15263917 13.16484434 3.68780056 0 2 C0 1.34 0 0.68 0 0 Z " fill="#B8193C" transform="translate(393,52)"/>
<path d="M0 0 C2.20507406 0.01005033 4.41015255 0.01917254 6.61523438 0.02734375 C11.97275436 0.04919345 17.33010602 0.08250815 22.6875 0.125 C22.6875 0.455 22.6875 0.785 22.6875 1.125 C21.5730249 1.10816162 20.4585498 1.09132324 19.31030273 1.07397461 C15.15187024 1.023115 10.9952727 1.03176843 6.83666992 1.05786133 C5.04137793 1.06093241 3.24598265 1.04813461 1.45092773 1.01879883 C-8.73642652 0.50158163 -8.73642652 0.50158163 -17.94213867 3.95141602 C-19.77402802 6.26059237 -21.05354067 8.46587701 -22.3125 11.125 C-23.06982373 12.32865107 -23.83351503 13.52833528 -24.60546875 14.72265625 C-34.55309249 32.91552688 -38.00741755 53.85795726 -32.87133789 74.26977539 C-27.21615345 93.43074019 -15.30602422 109.6360592 1.6875 120.125 C6.55773021 122.76799078 11.42246409 125.36998803 16.6875 127.125 C16.6875 127.785 16.6875 128.445 16.6875 129.125 C1.40263762 133.06003904 -11.07012216 128.59596536 -24.5546875 120.91015625 C-42.65536303 109.19343002 -54.79107126 91.46983063 -59.4296875 70.38671875 C-60.43061389 65.07752204 -60.69713002 59.89473909 -60.6875 54.5 C-60.68588867 53.54577148 -60.68427734 52.59154297 -60.68261719 51.60839844 C-60.53496522 42.97220597 -59.01164365 35.29740716 -56.3125 27.125 C-55.879375 25.74828125 -55.879375 25.74828125 -55.4375 24.34375 C-52.63137464 16.42646773 -48.21108415 7.7240561 -41.125 3 C-27.35866936 -0.15948572 -14.06306535 -0.11193849 0 0 Z " fill="#F65D7E" transform="translate(387.3125,213.875)"/>
<path d="M0 0 C22.52795031 -0.50310559 22.52795031 -0.50310559 28.6875 3.9375 C42.59441276 22.35476284 47.74627085 43.53045912 44.67919922 66.39111328 C40.92441577 87.00820489 29.6340515 105.21676604 12.74609375 117.53125 C2.70564892 124.43219673 -10.56729078 131.09058853 -23 130 C-26.06137588 129.15125316 -29.03208247 128.13063525 -32 127 C-29.21312839 125.14208559 -26.5234273 123.79919339 -23.5 122.375 C-3.24629875 112.2847966 9.54254869 96.18486167 17 75 C22.76488 55.56784689 19.89133312 33.72363965 10.625 16 C7.51594974 10.30263658 4.15346012 5.00545194 0 0 Z " fill="#B4193B" transform="translate(140,215)"/>
<path d="M0 0 C15.44401078 13.02313223 25.08683323 29.9865068 28 50 C29.96473245 73.14796141 25.0680256 94.04162745 10.640625 112.49609375 C8.69487794 114.27969522 7.61783236 114.73336893 5 115 C3.32732249 114.69827358 1.6614284 114.35853109 0 114 C-2.76649758 113.73723614 -5.53792811 113.58875012 -8.3125 113.4375 C-9.42334961 113.37272461 -9.42334961 113.37272461 -10.55664062 113.30664062 C-12.37091464 113.20129568 -14.1854355 113.10021684 -16 113 C-15.62488281 112.45472656 -15.24976563 111.90945312 -14.86328125 111.34765625 C-9.52056466 103.47488747 -5.14779705 95.76569857 -1.75 86.875 C-1.49154297 86.205896 -1.23308594 85.53679199 -0.96679688 84.84741211 C5.38130872 67.68425062 3.46644794 46.38145872 -3.765625 29.8828125 C-13.1962054 9.4364409 -28.39808827 -3.46604419 -49 -12 C-46.7999829 -14.2000171 -45.83319236 -14.50206518 -42.875 -15.1875 C-41.78832031 -15.45626953 -41.78832031 -15.45626953 -40.6796875 -15.73046875 C-26.42983967 -17.16376248 -10.8600232 -8.57421015 0 0 Z " fill="#B4193B" transform="translate(157,69)"/>
<path d="M0 0 C-2.05516816 2.05516816 -3.28953553 2.62927189 -5.9375 3.6875 C-23.9770558 11.55089612 -38.04491457 25.5527715 -45.71484375 43.69140625 C-46.13894531 44.78324219 -46.56304687 45.87507813 -47 47 C-47.41378906 48.01964844 -47.82757813 49.03929687 -48.25390625 50.08984375 C-53.97387497 66.53226255 -53.11881338 88.17405777 -45.8125 104 C-45.50932861 104.67571045 -45.20615723 105.3514209 -44.89379883 106.04760742 C-42.12790405 112.04856678 -38.76225225 117.57004754 -35 123 C-34.01 124.485 -34.01 124.485 -33 126 C-55.10094949 128.71533062 -55.10094949 128.71533062 -61.1953125 125.109375 C-63.31805414 122.17019427 -64.64349344 119.35990209 -66 116 C-66.61101562 114.92621094 -67.22203125 113.85242188 -67.8515625 112.74609375 C-77.71002314 95.24022639 -80.18145888 73.80725329 -75.3125 54.3125 C-73.44400426 47.89689575 -71.17705654 41.87979197 -68 36 C-67.29810547 34.68322266 -67.29810547 34.68322266 -66.58203125 33.33984375 C-55.39324756 14.1393384 -37.50669697 3.83363274 -16.84375 -2.6796875 C-11.32768948 -3.63798615 -4.96360846 -2.48180423 0 0 Z " fill="#F85D7E" transform="translate(404,56)"/>
<path d="M0 0 C2.75317974 0.22390317 5.49305329 0.41393662 8.25 0.5625 C8.99507813 0.60568359 9.74015625 0.64886719 10.5078125 0.69335938 C12.338349 0.79896725 14.16915176 0.89994201 16 1 C16 1.33 16 1.66 16 2 C7.42 2 -1.16 2 -10 2 C-6.67216512 -1.32783488 -4.32338555 -1.10485408 0 0 Z " fill="#C92B4D" transform="translate(402,344)"/>
<path d="M0 0 C2.64 0 5.28 0 8 0 C8 0.66 8 1.32 8 2 C6.02 2.33 4.04 2.66 2 3 C1.34 2.01 0.68 1.02 0 0 Z " fill="#F05375" transform="translate(111,52)"/>
</svg>
