<?xml version="1.0" encoding="UTF-8"?>
<svg version="1.1" xmlns="http://www.w3.org/2000/svg" width="512" height="512">
<path d="M0 0 C2.43119623 1.87015094 3.64069173 3.28138345 5 6 C4.9871634 8.34574886 4.91836788 10.69126239 4.82421875 13.03515625 C3.74386244 32.95448883 3.74386244 32.95448883 12.5625 50 C14.41505364 51.8822058 16.2991346 53.68161488 18.27636719 55.43212891 C20.69789979 57.6348318 22.67829155 60.1101446 24.6875 62.6875 C25.26886719 63.39261719 25.85023438 64.09773438 26.44921875 64.82421875 C30.97259753 71.17062173 31.41327376 76.07121694 31.29296875 83.6484375 C31.28872391 84.66096588 31.28447906 85.67349426 31.28010559 86.71670532 C31.26337302 89.93641248 31.22573026 93.15548344 31.1875 96.375 C31.17244618 98.56379302 31.158759 100.75259589 31.14648438 102.94140625 C31.11348732 108.29448626 31.06334196 113.64719766 31 119 C33.36969126 118.71898801 35.73760967 118.42856925 38.10546875 118.1328125 C38.76800659 118.05522705 39.43054443 117.9776416 40.11315918 117.89770508 C52.13435562 116.37061845 62.2646167 110.7568987 70.10546875 101.51953125 C71.30621247 99.96227806 72.48281862 98.38585756 73.625 96.78515625 C75 95 75 95 77 94 C84.05621181 93.30594638 84.05621181 93.30594638 87.60002136 95.91203308 C90.97469366 100.25410356 90.67046793 103.57730093 90.56762695 108.9309082 C90.56835709 109.92650253 90.56908722 110.92209686 90.56983948 111.94786072 C90.56636105 115.23272523 90.52748617 118.516165 90.48828125 121.80078125 C90.47895408 124.0804924 90.47183751 126.36021359 90.46684265 128.63993835 C90.4477656 134.63579043 90.39865767 140.63103547 90.34332275 146.62664795 C90.29214615 152.74645781 90.26933194 158.86636589 90.24414062 164.98632812 C90.19054046 176.99115191 90.10521827 188.99552545 90 201 C92.82934113 200.253392 95.65537312 199.496753 98.48046875 198.734375 C99.26933472 198.52731934 100.05820068 198.32026367 100.87097168 198.10693359 C113.3010506 194.7276354 123.9244808 188.55283491 134.03515625 180.6875 C137.63418416 178.63904143 139.91941628 178.62992319 144 179 C146.57635475 179.83557451 147.61436339 180.40947203 149.09127808 182.67108154 C150.28203114 185.72280364 150.23955388 188.23688318 150.22705078 191.51269531 C150.22734283 192.15701508 150.22763489 192.80133484 150.22793579 193.46517944 C150.22654694 195.58630021 150.21100716 197.7070659 150.1953125 199.828125 C150.19158078 201.30214242 150.18873456 202.77616232 150.18673706 204.25018311 C150.17911311 208.12344247 150.15947535 211.99655105 150.1373291 215.86975098 C150.11684394 219.8246049 150.10772964 223.77948327 150.09765625 227.734375 C150.07622821 235.48965196 150.04210732 243.24480482 150 251 C154.27914662 250.07848905 158.55575211 249.14565699 162.83203125 248.2109375 C164.03025513 247.95304443 165.228479 247.69515137 166.4630127 247.42944336 C180.97026297 244.24510563 194.74231016 239.80838774 207.71557617 232.48876953 C211.99190039 230.15412453 215.15445048 229.53712405 220 230 C224.6 232.2 224.6 232.2 226 235 C226.0923837 236.53319359 226.12192769 238.07038027 226.12025452 239.60635376 C226.12231651 241.06191933 226.12231651 241.06191933 226.12442017 242.54689026 C226.12082489 243.61503464 226.11722961 244.68317902 226.11352539 245.78369141 C226.11367142 246.90564407 226.11381744 248.02759674 226.1139679 249.18354797 C226.11326909 252.90623889 226.10547815 256.62888028 226.09765625 260.3515625 C226.09579196 262.92703219 226.09436811 265.50250224 226.09336853 268.07797241 C226.0899355 274.17300322 226.08204739 280.26801347 226.07201904 286.36303651 C226.06085056 293.30127972 226.0553456 300.23952376 226.05032361 307.17777371 C226.03986458 321.45185876 226.02226971 335.72592874 226 350 C226.64549805 349.97905273 227.29099609 349.95810547 227.95605469 349.93652344 C230.88721068 349.85325795 233.81811777 349.80130794 236.75 349.75 C237.76578125 349.71648437 238.7815625 349.68296875 239.828125 349.6484375 C240.8078125 349.63554687 241.7875 349.62265625 242.796875 349.609375 C243.69760742 349.58842773 244.59833984 349.56748047 245.52636719 349.54589844 C248.88473344 350.16241652 250.00608249 351.2545061 252 354 C252.50615788 356.76115417 252.50615788 356.76115417 252.5146637 359.99682617 C252.52738815 361.22501068 252.54011261 362.45319519 252.55322266 363.71859741 C252.54704045 365.07672312 252.54043443 366.43484695 252.53344727 367.79296875 C252.54050573 369.22548308 252.54925045 370.65798996 252.55955505 372.09048462 C252.58206609 375.97894418 252.57910571 379.86699705 252.57023358 383.75549698 C252.56512572 387.0011875 252.5724145 390.24680146 252.57970566 393.49248409 C252.59670971 401.14837771 252.59313336 408.80407202 252.57641602 416.45996094 C252.55948782 424.36043081 252.57533729 432.26034845 252.6076389 440.16075802 C252.63431926 446.94305227 252.64161524 453.72517444 252.63312382 460.50751591 C252.62819075 464.55871398 252.63043053 468.60957963 252.65091133 472.66073608 C252.66924482 476.46948097 252.66333956 480.27743014 252.63871193 484.08613205 C252.63369674 485.48415096 252.63721233 486.88223026 252.64986038 488.28020096 C252.66575458 490.18780604 252.64784274 492.09560377 252.62818909 494.00317383 C252.62760278 495.07094559 252.62701647 496.13871735 252.62641239 497.23884583 C252 500 252 500 249.98842376 502.14111185 C246.14942575 504.52908239 242.94073753 504.55525432 238.55880737 504.50336456 C237.70697254 504.50917833 236.85513772 504.51499209 235.97748971 504.52098203 C233.10954562 504.53563504 230.24245025 504.52167206 227.37451172 504.50793457 C225.30310566 504.51254138 223.23170286 504.51889281 221.16030693 504.52684355 C215.45757821 504.54359009 209.75511615 504.53526626 204.05238628 504.52289867 C197.90642651 504.51387229 191.76051355 504.52780591 185.61456299 504.53881836 C174.26701863 504.55560359 162.91958336 504.55411164 151.57204169 504.54317249 C141.08966497 504.53311677 130.60731952 504.53048041 120.12493896 504.53526306 C119.4300622 504.5355686 118.73518544 504.53587414 118.01925181 504.53618894 C115.19863702 504.53743426 112.37802225 504.53870786 109.55740749 504.540028 C83.08898955 504.55226853 56.62062596 504.54116298 30.1522164 504.51964041 C6.62814119 504.50065747 -16.89584742 504.50235596 -40.41992188 504.52148438 C-66.83941668 504.54289528 -93.25886344 504.55140049 -119.67836571 504.53903532 C-122.49389012 504.53775242 -125.30941454 504.53650106 -128.12493896 504.53526306 C-128.81821089 504.53494675 -129.51148281 504.53463044 -130.22576298 504.53430455 C-140.70246273 504.5297515 -151.1791278 504.53508162 -161.65582275 504.54518127 C-173.5663487 504.55660579 -185.47677233 504.55339983 -197.38729429 504.5320583 C-203.46785764 504.52152324 -209.5482449 504.51746791 -215.62880707 504.53065491 C-221.19013051 504.54253369 -226.75111391 504.53609086 -232.3124063 504.5147447 C-234.32915272 504.51025945 -236.3459276 504.51258768 -238.36265588 504.52224785 C-241.09512013 504.53433705 -243.82640562 504.52201317 -246.55880737 504.50336456 C-247.34962448 504.51272923 -248.14044158 504.52209389 -248.95522285 504.53174233 C-252.65680489 504.48093171 -254.8163499 504.1142358 -257.98842376 502.14111185 C-260.62876565 499.33074494 -260.62609074 497.82463131 -260.62818909 494.00317383 C-260.64084305 492.77498932 -260.65349701 491.54680481 -260.66653442 490.28140259 C-260.65521848 488.9232746 -260.64339101 487.5651508 -260.63110352 486.20703125 C-260.63624245 484.77451694 -260.64352354 483.34200896 -260.65278625 481.90951538 C-260.67131237 478.02094011 -260.65835468 474.13304984 -260.63869596 470.24450302 C-260.62231781 466.17577051 -260.63112118 462.10708167 -260.63621521 458.03833008 C-260.64073712 451.20545501 -260.62486046 444.37285362 -260.59692383 437.54003906 C-260.56487131 429.63962052 -260.56488723 421.73969557 -260.5821386 413.83924198 C-260.59800079 406.24020764 -260.59127216 398.64135431 -260.57420158 391.04232788 C-260.56732781 387.80792423 -260.56836682 384.57366554 -260.57574654 381.33926392 C-260.58340617 377.53057935 -260.57129459 373.72245668 -260.54389763 369.91386795 C-260.5370092 368.51586195 -260.53692081 367.11780351 -260.54411316 365.71979904 C-260.55279687 363.81213593 -260.53442695 361.90440668 -260.5146637 359.99682617 C-260.51185678 358.92905441 -260.50904985 357.86128265 -260.50615788 356.76115417 C-259.86264774 353.25072632 -258.88033483 352.07212228 -256 350 C-253.52636719 349.54589844 -253.52636719 349.54589844 -250.796875 349.609375 C-249.8171875 349.62226563 -248.8375 349.63515625 -247.828125 349.6484375 C-246.30445313 349.69871094 -246.30445313 349.69871094 -244.75 349.75 C-243.71875 349.76804687 -242.6875 349.78609375 -241.625 349.8046875 C-239.08238936 349.85177288 -236.54166838 349.9175195 -234 350 C-234.00368717 349.41100796 -234.00737434 348.82201591 -234.01117325 348.21517563 C-234.09950234 333.8851243 -234.16569885 319.55509726 -234.20724869 305.22483444 C-234.2278759 298.29480972 -234.2559992 291.3649667 -234.30175781 284.43505859 C-234.34587758 277.75016016 -234.36912265 271.0654897 -234.37950897 264.38043976 C-234.38691284 261.82708002 -234.40137041 259.27373089 -234.42292023 256.72045135 C-234.45186017 253.15031907 -234.4559598 249.58097245 -234.45410156 246.01074219 C-234.46848267 244.94978836 -234.48286377 243.88883453 -234.49768066 242.79573059 C-234.45719455 235.63068951 -234.45719455 235.63068951 -232.09661865 232.37432861 C-228.18995234 229.813518 -225.71272315 229.65198352 -221 230 C-218.54947158 231.07765928 -216.36905628 232.17992982 -214.0625 233.5 C-207.38603511 237.04988635 -200.60086904 239.77457569 -193.4375 242.1875 C-192.54877197 242.49558594 -191.66004395 242.80367187 -190.74438477 243.12109375 C-180.05964968 246.62544185 -168.99442881 248.71097312 -158 251 C-158.00444122 250.18202942 -158.00888245 249.36405884 -158.01345825 248.52130127 C-158.05353856 240.81129448 -158.08398621 233.10133823 -158.10362434 225.39125443 C-158.1140599 221.42745773 -158.12821492 217.46374714 -158.15087891 213.5 C-158.17261545 209.67449853 -158.18457034 205.84907988 -158.18975449 202.02352142 C-158.19344879 200.56428473 -158.20066283 199.10505256 -158.21146011 197.64585114 C-158.225986 195.60136635 -158.22797751 193.55722343 -158.22705078 191.51269531 C-158.231492 190.34909485 -158.23593323 189.18549438 -158.24050903 187.9866333 C-158.00524402 185.06512002 -157.58760133 183.43110471 -156 181 C-152.53494367 178.43329161 -149.1844921 178.60208817 -145 179 C-142.28477522 180.38159071 -139.96691348 182.20258442 -137.5625 184.0625 C-127.48595823 191.3912151 -117.28054859 195.93486617 -105.22485352 199.09594727 C-104.18150219 199.37172985 -104.18150219 199.37172985 -103.11707306 199.6530838 C-101.41178817 200.10359598 -99.70594897 200.55200908 -98 201 C-98.01110306 199.73323929 -98.02220612 198.46647858 -98.03364563 197.16133118 C-98.13496735 185.22817426 -98.2099396 173.29510452 -98.25906086 161.36161518 C-98.2851636 155.22632748 -98.3205751 149.0913868 -98.37719727 142.95629883 C-98.43149125 137.03648146 -98.46141543 131.11699804 -98.47438622 125.19695091 C-98.48363067 122.93745859 -98.50168286 120.67798471 -98.52865028 118.41863441 C-98.56490467 115.25565604 -98.5699467 112.09406064 -98.56762695 108.9309082 C-98.59459152 107.52720978 -98.59459152 107.52720978 -98.62210083 106.09515381 C-98.58581264 101.52770712 -98.48995065 99.62688595 -95.59342957 95.92082214 C-92.35081358 93.51918044 -90.80601195 93.24672252 -86.91015625 93.5234375 C-82.90393157 94.5229455 -80.96918269 97.7711689 -78.52734375 100.8671875 C-70.7032233 110.37451116 -59.66277301 116.97450246 -47.27026367 118.28970337 C-46.28775635 118.37408661 -45.30524902 118.45846985 -44.29296875 118.54541016 C-43.30192139 118.63166656 -42.31087402 118.71792297 -41.28979492 118.80679321 C-40.15634644 118.90243057 -40.15634644 118.90243057 -39 119 C-39.00999275 118.15554825 -39.00999275 118.15554825 -39.02018738 117.29403687 C-39.08668604 111.42150599 -39.1318608 105.54908253 -39.16479492 99.67626953 C-39.17985806 97.48612115 -39.20031259 95.29600281 -39.22631836 93.10595703 C-39.26280989 89.95337497 -39.27975139 86.80119263 -39.29296875 83.6484375 C-39.30845261 82.67321136 -39.32393646 81.69798523 -39.33988953 80.69320679 C-39.34202462 72.0197011 -36.50350482 67.20039337 -30.8125 60.75 C-29.82836066 59.61159813 -28.84529762 58.47226496 -27.86328125 57.33203125 C-27.37939941 56.77209473 -26.89551758 56.2121582 -26.39697266 55.63525391 C-23.15842868 51.84431236 -20.06822521 47.92935445 -17 44 C-16.47921875 43.45408203 -15.9584375 42.90816406 -15.421875 42.34570312 C-13.44538808 39.08504269 -13.57794215 36.04882734 -13.59375 32.34765625 C-13.57749573 31.2419352 -13.57749573 31.2419352 -13.56091309 30.11387634 C-13.52671357 27.76332798 -13.51107375 25.4132642 -13.5 23.0625 C-13.48539732 19.96958839 -13.45165272 16.87775227 -13.40625 13.78515625 C-13.40927124 13.0798024 -13.41229248 12.37444855 -13.41540527 11.64772034 C-13.34909345 7.27057864 -12.68522213 4.48480521 -10 1 C-6.80766515 -0.59616743 -3.46538503 -0.51466114 0 0 Z " fill="#010000" transform="translate(260,4)"/>
<path d="M0 0 C56.1 0 112.2 0 170 0 C170 76.23 170 152.46 170 231 C158.78 231 147.56 231 136 231 C136.00112793 227.54249268 136.00225586 224.08498535 136.00341797 220.52270508 C136.00279082 209.1072376 135.96966221 197.69199386 135.9197216 186.27664661 C135.89023364 179.35451697 135.87189856 172.43269426 135.87988281 165.51049805 C135.88755479 158.83181169 135.86406249 152.15390289 135.82144547 145.475317 C135.81029173 142.92562946 135.80963433 140.37587397 135.81957626 137.82618141 C135.83170742 134.25812863 135.80673916 130.69213949 135.77294922 127.12426758 C135.79128059 125.53822975 135.79128059 125.53822975 135.8099823 123.92015076 C135.83740257 118.78928605 135.83740257 118.78928605 133.73561287 114.28320122 C131.99158061 112.72096581 131.99158061 112.72096581 129 111 C128.37876251 110.57464966 127.75752502 110.14929932 127.11746216 109.71105957 C126.5864389 109.39971069 126.05541565 109.08836182 125.50830078 108.76757812 C124.58671677 108.22176086 124.58671677 108.22176086 123.64651489 107.66491699 C123.0026181 107.29080688 122.35872131 106.91669678 121.6953125 106.53125 C121.01250214 106.12845825 120.32969177 105.7256665 119.62619019 105.31066895 C117.46208102 104.03534124 115.29375672 102.76740499 113.125 101.5 C110.96877026 100.2337042 108.81345047 98.96588487 106.65887451 97.69677734 C105.27713134 96.88434353 103.89372846 96.07472527 102.50860596 95.26806641 C99.07447592 93.26152738 95.76204156 91.17454153 92.4921875 88.90625 C88.33904946 86.63921268 85.53262404 85.71550429 81 87 C76.27985787 89.2877612 71.90846542 92.05105298 67.5 94.875 C66.24920183 95.65856848 64.9974053 96.44054549 63.74462891 97.22094727 C61.27970966 98.76009304 58.82115166 100.30861026 56.36816406 101.86669922 C53.48395982 103.6934734 50.58842482 105.49783922 47.6796875 107.28515625 C40.97662721 111.16961171 40.97662721 111.16961171 35 116 C34.68620055 118.1228867 34.68620055 118.1228867 34.7215271 120.60635376 C34.71036362 121.5767308 34.69920013 122.54710785 34.68769836 123.54689026 C34.68553818 124.61503464 34.68337799 125.68317902 34.68115234 126.78369141 C34.66608391 128.46662041 34.66608391 128.46662041 34.65071106 130.18354797 C34.6197255 133.90621408 34.60280121 137.62880779 34.5859375 141.3515625 C34.56723823 143.92703888 34.54766577 146.50250905 34.5272522 149.07797241 C34.48105856 155.17296738 34.44369754 161.26795835 34.41057932 167.36303651 C34.37238917 174.30134017 34.32297094 181.2395495 34.27259517 188.17777371 C34.16920938 202.45178426 34.08145306 216.72584785 34 231 C22.78 231 11.56 231 0 231 C0 154.77 0 78.54 0 0 Z " fill="#977742" transform="translate(171,260)"/>
<path d="M0 0 C1.02140579 0.4265538 1.02140579 0.4265538 2.06344604 0.86172485 C4.11138961 1.65555439 6.1924354 2.3667901 8.29177856 3.01254272 C18.32572101 6.27250649 29.20643917 10.67032304 35 20 C40.69520714 35.4789131 37.93014439 54.72204956 37.05993652 70.83709717 C36.69625911 78.28600283 36.56085246 85.74226557 36.38633728 93.19754028 C36.09705901 104.48005787 35.52262845 115.71509689 35 127 C12.56 127 -9.88 127 -33 127 C-34.2834819 101.05851343 -34.2834819 101.05851343 -34.5625 89.89257812 C-34.75303616 82.30388808 -34.9767273 74.72768092 -35.4140625 67.14868164 C-37.79497419 24.83620123 -37.79497419 24.83620123 -29.77197266 15.79107666 C-22.49482777 9.04861881 -13.36402082 5.02850096 -4.01928711 1.98982239 C-1.15048605 1.30103369 -1.15048605 1.30103369 0 0 Z " fill="#F9AC49" transform="translate(255,364)"/>
<path d="M0 0 C17.16 0 34.32 0 52 0 C52 47.85 52 95.7 52 145 C34.84 145 17.68 145 0 145 C0 97.15 0 49.3 0 0 Z " fill="#967541" transform="translate(358,346)"/>
<path d="M0 0 C17.16 0 34.32 0 52 0 C52 47.85 52 95.7 52 145 C34.84 145 17.68 145 0 145 C0 97.15 0 49.3 0 0 Z " fill="#967541" transform="translate(102,346)"/>
<path d="M0 0 C22.44 0 44.88 0 68 0 C68 31.02 68 62.04 68 94 C45.56 94 23.12 94 0 94 C0 62.98 0 31.96 0 0 Z " fill="#987742" transform="translate(427,397)"/>
<path d="M0 0 C22.44 0 44.88 0 68 0 C68 31.02 68 62.04 68 94 C45.56 94 23.12 94 0 94 C0 62.98 0 31.96 0 0 Z " fill="#987742" transform="translate(17,397)"/>
<path d="M0 0 C3.63182963 1.21060988 4.43640753 2.50158416 6.75 5.5 C7.38421875 6.3146875 8.0184375 7.129375 8.671875 7.96875 C9.44015625 8.9690625 10.2084375 9.969375 11 11 C11.85668069 11.88442606 11.85668069 11.88442606 12.73066807 12.78671932 C18.73018704 19.389971 18.96950981 24.92335411 18.79467773 33.59790039 C18.7926996 34.94896338 18.7938186 36.30003388 18.79777527 37.65109253 C18.79977181 41.29367667 18.75881691 44.93462495 18.70975757 48.5768311 C18.66579567 52.39239762 18.66187063 56.20800774 18.65357971 60.02378845 C18.63188179 67.23808033 18.57451998 74.45162364 18.50413328 81.66558689 C18.42570628 89.88318729 18.38735746 98.10082473 18.35226524 106.31870663 C18.27923061 123.21297753 18.15093508 140.10621817 18 157 C6.78 157 -4.44 157 -16 157 C-16.20352588 139.32734311 -16.3691583 121.65569341 -16.46630955 103.98218822 C-16.51262686 95.77521356 -16.57571935 87.56902119 -16.67895508 79.36254883 C-16.76894152 72.20585642 -16.82678959 65.04973077 -16.84679645 57.8924883 C-16.85848389 54.10590201 -16.88574954 50.32093638 -16.95157051 46.53487206 C-17.01315751 42.96304544 -17.03140869 39.39348944 -17.01796913 35.82118225 C-17.02158448 33.90143172 -17.06976364 31.98192267 -17.11978149 30.06282043 C-17.01747398 20.40544087 -13.54296132 15.81610446 -7 9 C-5.6260002 7.28655047 -4.26836941 5.55966093 -2.9375 3.8125 C-2.36902344 3.07644531 -1.80054688 2.34039062 -1.21484375 1.58203125 C-0.81394531 1.05996094 -0.41304687 0.53789063 0 0 Z " fill="#F87CA2" transform="translate(255,61)"/>
<path d="M0 0 C0 32.01 0 64.02 0 97 C-13.86 97 -27.72 97 -42 97 C-42.01417969 93.80957031 -42.02835937 90.61914062 -42.04296875 87.33203125 C-42.07359442 84.23744157 -42.11268194 81.14306625 -42.15258789 78.04858398 C-42.17576522 75.90022376 -42.19016297 73.75174996 -42.19555664 71.60327148 C-42.20484791 68.51213827 -42.24584351 65.42279088 -42.29296875 62.33203125 C-42.2890361 61.37351761 -42.28510345 60.41500397 -42.28105164 59.42744446 C-42.37413823 55.15980246 -42.62455197 52.62347577 -44.85668945 48.91674805 C-48.9606433 46.09713548 -48.9606433 46.09713548 -59 46 C-59 36.1 -59 26.2 -59 16 C-45.33617021 12.84680851 -45.33617021 12.84680851 -39.3125 11.875 C-26.59438014 9.411701 -12.56339371 0 0 0 Z " fill="#EB5380" transform="translate(469,257)"/>
<path d="M0 0 C2.97 0.99 5.94 1.98 9 3 C25.53108257 8.43615472 41.90647229 12.70486213 59 16 C59 25.9 59 35.8 59 46 C53.06 46.495 53.06 46.495 47 47 C44.04665519 48.72747892 44.04665519 48.72747892 43 52 C42.44895644 55.45277966 42.39510097 58.8401346 42.390625 62.33203125 C42.37408875 63.32377853 42.35755249 64.31552582 42.34051514 65.33732605 C42.29204438 68.49578043 42.27066582 71.65375334 42.25 74.8125 C42.22183961 76.9577065 42.19191209 79.10289058 42.16015625 81.24804688 C42.08296741 86.4989192 42.0424382 91.74827231 42 97 C28.14 97 14.28 97 0 97 C0 64.99 0 32.98 0 0 Z " fill="#EC5380" transform="translate(43,257)"/>
<path d="M0 0 C0.66 0 1.32 0 2 0 C2 29.37 2 58.74 2 89 C-12.19 89 -26.38 89 -41 89 C-41 63.92 -41 38.84 -41 13 C-32.585 12.01 -32.585 12.01 -24 11 C-16.2414949 9.24510004 -5.79901732 5.79901732 0 0 Z " fill="#EA537F" transform="translate(331,128)"/>
<path d="M0 0 C2.33936308 1.16968154 4.66678181 2.36505864 6.9609375 3.62109375 C18.82553182 9.93349233 29.50282969 11.77298452 43 13 C43 38.08 43 63.16 43 89 C28.81 89 14.62 89 0 89 C0 59.63 0 30.26 0 0 Z " fill="#EA537F" transform="translate(179,128)"/>
<path d="M0 0 C0 31.35 0 62.7 0 95 C-11.55 95 -23.1 95 -35 95 C-35 68.27 -35 41.54 -35 14 C-31.37 12.68 -27.74 11.36 -24 10 C-21.41072569 9.01548505 -18.82654996 8.0173502 -16.25 7 C-15.03828125 6.525625 -13.8265625 6.05125 -12.578125 5.5625 C-9.94902271 4.4144204 -7.62633474 3.25420955 -5.171875 1.8125 C-2 0 -2 0 0 0 Z " fill="#E6517D" transform="translate(393,208)"/>
<path d="M0 0 C3.39179552 1.35671821 6.42409691 2.69425824 9.625 4.375 C17.76466586 8.48716403 26.35990579 11.1199686 35 14 C35 40.73 35 67.46 35 95 C23.45 95 11.9 95 0 95 C0 63.65 0 32.3 0 0 Z " fill="#E6517D" transform="translate(119,208)"/>
<path d="M0 0 C56.1 0 112.2 0 170 0 C170 2.64 170 5.28 170 8 C113.9 8 57.8 8 0 8 C0 5.36 0 2.72 0 0 Z " fill="#FEDA38" transform="translate(171,235)"/>
<path d="M0 0 C5.94 0 11.88 0 18 0 C18 11.55 18 23.1 18 35 C12.39 35 6.78 35 1 35 C0 34 0 34 -0.11352539 30.76538086 C-0.11336631 29.33185874 -0.10767407 27.89833088 -0.09765625 26.46484375 C-0.0962413 25.71159317 -0.09482635 24.95834259 -0.09336853 24.18226624 C-0.08775376 21.7673044 -0.07519883 19.35243399 -0.0625 16.9375 C-0.0574869 15.30403779 -0.05292366 13.67057414 -0.04882812 12.03710938 C-0.03862875 8.0246757 -0.01905645 4.01244064 0 0 Z " fill="#0B0804" transform="translate(264,277)"/>
<path d="M0 0 C5.94 0 11.88 0 18 0 C18.0229102 4.82387067 18.04283686 9.64755389 18.05493164 14.47143555 C18.05997174 16.11369464 18.06680378 17.75594923 18.07543945 19.39819336 C18.08751926 21.75375479 18.09323139 24.10925709 18.09765625 26.46484375 C18.10281754 27.20339096 18.10797882 27.94193817 18.11329651 28.7028656 C18.1134925 30.46898088 18.06194719 32.23497146 18 34 C17.67 34.33 17.34 34.66 17 35 C11.39 35 5.78 35 0 35 C0 23.45 0 11.9 0 0 Z " fill="#0B0804" transform="translate(230,277)"/>
<path d="M0 0 C22.77 0 45.54 0 69 0 C69 2.97 69 5.94 69 9 C46.23 9 23.46 9 0 9 C0 6.03 0 3.06 0 0 Z " fill="#E8C733" transform="translate(426,371)"/>
<path d="M0 0 C22.77 0 45.54 0 69 0 C69 2.97 69 5.94 69 9 C46.23 9 23.46 9 0 9 C0 6.03 0 3.06 0 0 Z " fill="#E8C733" transform="translate(17,371)"/>
<path d="M0 0 C5.61 0 11.22 0 17 0 C17 11.55 17 23.1 17 35 C11.39 35 5.78 35 0 35 C0 23.45 0 11.9 0 0 Z " fill="#050402" transform="translate(316,277)"/>
<path d="M0 0 C5.61 0 11.22 0 17 0 C17 11.55 17 23.1 17 35 C11.39 35 5.78 35 0 35 C0 23.45 0 11.9 0 0 Z " fill="#040302" transform="translate(290,277)"/>
<path d="M0 0 C5.61 0 11.22 0 17 0 C17 11.55 17 23.1 17 35 C11.39 35 5.78 35 0 35 C0 23.45 0 11.9 0 0 Z " fill="#040302" transform="translate(205,277)"/>
<path d="M0 0 C5.61 0 11.22 0 17 0 C17 11.55 17 23.1 17 35 C11.39 35 5.78 35 0 35 C0 23.45 0 11.9 0 0 Z " fill="#050402" transform="translate(179,277)"/>
<path d="M0 0 C17.16 0 34.32 0 52 0 C52 2.97 52 5.94 52 9 C34.84 9 17.68 9 0 9 C0 6.03 0 3.06 0 0 Z " fill="#EDCB34" transform="translate(358,320)"/>
<path d="M0 0 C17.16 0 34.32 0 52 0 C52 2.97 52 5.94 52 9 C34.84 9 17.68 9 0 9 C0 6.03 0 3.06 0 0 Z " fill="#EDCB34" transform="translate(102,320)"/>
</svg>
