<?xml version="1.0" encoding="UTF-8"?>
<svg version="1.1" xmlns="http://www.w3.org/2000/svg" width="512" height="512">
<path d="M0 0 C2.24084827 1.46240857 4.40166499 3.00206029 6.56640625 4.57421875 C7.99436371 5.52619039 9.43157079 6.46447553 10.87890625 7.38671875 C11.49378906 7.78503906 12.10867188 8.18335938 12.7421875 8.59375 C16.21189847 10.45862677 19.53096399 10.701959 23.42333984 10.73193359 C24.8653627 10.74732681 24.8653627 10.74732681 26.33651733 10.76303101 C27.88503891 10.773983 27.88503891 10.773983 29.46484375 10.78515625 C31.65755959 10.81322159 33.85026783 10.84188603 36.04296875 10.87109375 C39.49478976 10.91236232 42.94646833 10.94925736 46.3984375 10.97558594 C49.73336957 11.00321823 53.06765964 11.04908542 56.40234375 11.09765625 C57.94479263 11.10253555 57.94479263 11.10253555 59.5184021 11.10751343 C64.93835895 11.20030449 68.89961504 11.49866815 73.56640625 14.57421875 C77.84136554 19.1180434 76.899779 25.04058768 76.75390625 30.88671875 C76.74037109 31.91345703 76.72683594 32.94019531 76.71289062 33.99804688 C76.67764508 36.52397784 76.62837325 39.04882535 76.56640625 41.57421875 C77.84281982 41.5585083 79.1192334 41.54279785 80.43432617 41.52661133 C85.17726309 41.47224494 89.92017255 41.43784412 94.66333008 41.40942383 C96.71480951 41.39435253 98.76625681 41.37389193 100.81762695 41.34790039 C103.76912373 41.31144451 106.72019388 41.29447569 109.671875 41.28125 C111.04402412 41.25802422 111.04402412 41.25802422 112.44389343 41.23432922 C117.30503136 41.23304918 120.69199528 41.31307499 124.56640625 44.57421875 C127.90480794 47.96027282 129.02389042 50.29636531 129.06408691 55.08283997 C129.04251526 56.1358857 129.04251526 56.1358857 129.02050781 57.21020508 C129.02109192 57.96196014 129.02167603 58.71371521 129.02227783 59.48825073 C129.01950155 61.96139462 128.988433 64.43331792 128.95703125 66.90625 C128.94956719 68.62545615 128.94387504 70.34467084 128.93988037 72.06388855 C128.92463691 76.58010512 128.88536648 81.09580387 128.84106445 85.61181641 C128.80008379 90.22356156 128.7818634 94.83539071 128.76171875 99.44726562 C128.71887076 108.48981034 128.65063522 117.53197142 128.56640625 126.57421875 C129.79617188 126.5278125 131.0259375 126.48140625 132.29296875 126.43359375 C133.92575685 126.39605839 135.55857136 126.35966013 137.19140625 126.32421875 C137.99964844 126.29070312 138.80789063 126.2571875 139.640625 126.22265625 C145.13999511 126.1332356 148.20679339 126.90036287 152.56640625 130.57421875 C155.50369613 134.3140975 155.92881809 137.05101764 155.859375 141.75 C155.84970703 142.90693359 155.84003906 144.06386719 155.83007812 145.25585938 C155.80494141 146.45404297 155.77980469 147.65222656 155.75390625 148.88671875 C155.74037109 150.10423828 155.72683594 151.32175781 155.71289062 152.57617188 C155.67759886 155.5759722 155.62829106 158.5748685 155.56640625 161.57421875 C156.617677 161.55065308 156.617677 161.55065308 157.69018555 161.52661133 C160.87800976 161.46409463 164.06570476 161.42517494 167.25390625 161.38671875 C168.35669922 161.36158203 169.45949219 161.33644531 170.59570312 161.31054688 C172.19575195 161.29604492 172.19575195 161.29604492 173.828125 161.28125 C175.297052 161.25768433 175.297052 161.25768433 176.7956543 161.23364258 C180.91757836 161.74030255 183.37062487 163.44776751 186.35180664 166.25610352 C188.12529318 169.64087833 188.01458901 172.93125291 188 176.6640625 C188.00524185 177.44560196 188.0104837 178.22714142 188.0158844 179.03236389 C188.02229634 180.68228978 188.02097829 182.33226142 188.01245117 183.98217773 C188.00394577 186.50001879 188.03270295 189.01558637 188.06445312 191.53320312 C188.06606548 193.13932224 188.06548694 194.74544535 188.0625 196.3515625 C188.07373398 197.10066391 188.08496796 197.84976532 188.09654236 198.62156677 C188.04995038 202.13527185 187.66820041 204.39663798 185.91040039 207.46313477 C180.2032238 212.60321975 173.43817149 211.82077739 166.19140625 211.69921875 C165.16917969 211.69019531 164.14695312 211.68117187 163.09375 211.671875 C160.58439103 211.64842305 158.07552289 211.6156023 155.56640625 211.57421875 C155.5752887 212.45482971 155.58417114 213.33544067 155.59332275 214.24273682 C155.67346826 222.54134234 155.73437041 230.83981791 155.77365494 239.13872147 C155.79453058 243.40531167 155.82284734 247.67158211 155.86816406 251.93798828 C155.91162335 256.05528659 155.93554353 260.17227732 155.94591522 264.28978729 C155.95330652 265.86070345 155.96774013 267.43160277 155.98932648 269.002388 C156.01836307 271.20280844 156.02236237 273.40195788 156.02050781 275.60253906 C156.02939026 276.85496399 156.03827271 278.10738892 156.04742432 279.39776611 C155.56640625 282.57421875 155.56640625 282.57421875 153.7255249 285.00994873 C151.56640625 286.57421875 151.56640625 286.57421875 148.56640625 286.57421875 C148.56640625 292.84421875 148.56640625 299.11421875 148.56640625 305.57421875 C150.21640625 306.23421875 151.86640625 306.89421875 153.56640625 307.57421875 C155.67124371 310.73147494 155.81361215 311.44796486 155.79345703 315.0456543 C155.79330597 315.94636154 155.79315491 316.84706879 155.79299927 317.77507019 C155.7826767 318.7439064 155.77235413 319.71274261 155.76171875 320.7109375 C155.75747391 322.20280327 155.75747391 322.20280327 155.75314331 323.72480774 C155.74194114 326.90390005 155.71683639 330.08271147 155.69140625 333.26171875 C155.6813765 335.41601156 155.67225064 337.57030878 155.6640625 339.72460938 C155.64200171 345.00790847 155.60852381 350.29104354 155.56640625 355.57421875 C156.74783203 355.78691406 156.74783203 355.78691406 157.953125 356.00390625 C160.56640625 356.57421875 160.56640625 356.57421875 162.37890625 357.69921875 C164.32520605 360.7723237 164.05484591 363.03303119 163.56640625 366.57421875 C161.25390625 369.51171875 161.25390625 369.51171875 158.56640625 371.57421875 C157.57640625 371.57421875 156.58640625 371.57421875 155.56640625 371.57421875 C155.56640625 389.72421875 155.56640625 407.87421875 155.56640625 426.57421875 C157.21640625 426.90421875 158.86640625 427.23421875 160.56640625 427.57421875 C163.249644 429.97988018 163.55228887 431.47539707 164.06640625 435.07421875 C163.56640625 438.57421875 163.56640625 438.57421875 161.25390625 441.01171875 C158.56640625 442.57421875 158.56640625 442.57421875 155.56640625 442.57421875 C155.5752887 443.26246735 155.58417114 443.95071594 155.59332275 444.65982056 C155.6818892 451.82993252 155.74217964 458.99988881 155.78613281 466.17041016 C155.8039745 468.8458525 155.83351674 471.52043891 155.86816406 474.19580078 C155.91674131 478.04340446 155.9393899 481.89042662 155.95703125 485.73828125 C155.97767639 486.93224518 155.99832153 488.12620911 156.01959229 489.35635376 C156.02244104 499.92363571 156.02244104 499.92363571 151.56640625 504.57421875 C148.39102679 506.55981928 145.92945834 506.82843364 142.21496582 506.84164429 C141.12982193 506.85017426 140.04467804 506.85870422 138.926651 506.86749268 C137.74107101 506.8665863 136.55549103 506.86567993 135.33398438 506.86474609 C134.08161484 506.87146332 132.8292453 506.87818054 131.53892517 506.88510132 C128.10711055 506.90084557 124.67553791 506.90745631 121.24370384 506.90873289 C119.09951618 506.91015502 116.95535385 506.91442569 114.81117249 506.91972733 C107.33064158 506.93822305 99.85018192 506.94639821 92.36962891 506.94482422 C85.3962709 506.94362181 78.4232219 506.96474454 71.44994211 506.99631155 C65.46172329 507.02245359 59.47360556 507.03319245 53.4853301 507.0319134 C49.90922266 507.0314033 46.33339008 507.03711305 42.75733948 507.0582695 C38.77104576 507.08121025 34.78517717 507.07214364 30.79882812 507.06005859 C29.61324814 507.07129761 28.42766815 507.08253662 27.2061615 507.09411621 C26.12101761 507.08572723 25.03587372 507.07733826 23.91784668 507.06869507 C22.50423481 507.07032937 22.50423481 507.07032937 21.06206512 507.07199669 C17.80153487 506.4216594 16.60500067 505.14894226 14.56640625 502.57421875 C14.08538818 499.81536865 14.08538818 499.81536865 14.11230469 496.61230469 C14.11260681 495.41136169 14.11290894 494.2104187 14.11322021 492.9730835 C14.13386536 491.68130188 14.1545105 490.38952026 14.17578125 489.05859375 C14.18324554 487.71910446 14.18893759 486.37960423 14.19293213 485.0401001 C14.20817412 481.52170439 14.24744207 478.0039736 14.29174805 474.48583984 C14.33273261 470.89299514 14.35094985 467.30004255 14.37109375 463.70703125 C14.4139388 456.66248909 14.48217179 449.61839743 14.56640625 442.57421875 C13.77878906 442.43113281 12.99117187 442.28804688 12.1796875 442.140625 C9.56640625 441.57421875 9.56640625 441.57421875 7.75390625 440.51171875 C5.81882376 437.3544789 5.79336956 434.09898238 6.56640625 430.57421875 C8.87890625 428.07421875 8.87890625 428.07421875 11.56640625 426.57421875 C12.55640625 426.57421875 13.54640625 426.57421875 14.56640625 426.57421875 C14.56640625 408.42421875 14.56640625 390.27421875 14.56640625 371.57421875 C12.91640625 371.24421875 11.26640625 370.91421875 9.56640625 370.57421875 C7.75390625 369.51171875 7.75390625 369.51171875 6.56640625 367.57421875 C5.79928296 360.67010916 5.79928296 360.67010916 8.31640625 357.07421875 C10.56640625 355.57421875 10.56640625 355.57421875 14.56640625 355.57421875 C14.49699662 349.38487395 14.40877777 343.19617076 14.30395508 337.00732422 C14.27092815 334.90681137 14.24282886 332.80621452 14.2199707 330.70556641 C14.11135612 306.69017159 14.11135612 306.69017159 2.45703125 286.31640625 C-5.66498989 278.72651753 -14.11926981 274.77700714 -25.31640625 274.50390625 C-36.7443342 275.01115109 -46.02618622 279.10274073 -54.23828125 287.05078125 C-62.87836158 296.98226149 -64.69426655 307.77110735 -64.84765625 320.515625 C-64.8670224 321.52390854 -64.88638855 322.53219208 -64.90634155 323.57102966 C-64.96563808 326.75950937 -65.01232144 329.94802616 -65.05859375 333.13671875 C-65.09681955 335.31186382 -65.13587389 337.4869945 -65.17578125 339.66210938 C-65.27129788 344.96601711 -65.35648811 350.2700131 -65.43359375 355.57421875 C-64.64597656 355.71730469 -63.85835937 355.86039062 -63.046875 356.0078125 C-60.43359375 356.57421875 -60.43359375 356.57421875 -58.62109375 357.63671875 C-56.68601126 360.7939586 -56.66055706 364.04945512 -57.43359375 367.57421875 C-59.74609375 370.07421875 -59.74609375 370.07421875 -62.43359375 371.57421875 C-63.42359375 371.57421875 -64.41359375 371.57421875 -65.43359375 371.57421875 C-65.43359375 389.72421875 -65.43359375 407.87421875 -65.43359375 426.57421875 C-63.78359375 426.90421875 -62.13359375 427.23421875 -60.43359375 427.57421875 C-58.62109375 428.63671875 -58.62109375 428.63671875 -57.43359375 430.57421875 C-56.66647046 437.47832834 -56.66647046 437.47832834 -59.18359375 441.07421875 C-61.43359375 442.57421875 -61.43359375 442.57421875 -65.43359375 442.57421875 C-65.4247113 443.31702087 -65.41582886 444.059823 -65.40667725 444.82513428 C-65.32649631 451.8287178 -65.26561189 458.8321421 -65.22634506 465.83605576 C-65.20547862 469.43680161 -65.17717954 473.03716791 -65.13183594 476.63769531 C-65.0883425 480.11309788 -65.06444954 483.58813563 -65.05408478 487.06378937 C-65.0431076 489.03367659 -65.01188675 491.00341722 -64.98040771 492.9730835 C-64.98010559 494.17402649 -64.97980347 495.37496948 -64.97949219 496.61230469 C-64.97060974 497.6693158 -64.96172729 498.7263269 -64.95257568 499.81536865 C-65.56866744 503.34892573 -66.66761596 504.34257327 -69.43359375 506.57421875 C-71.92645931 507.07479 -71.92645931 507.07479 -74.77830505 507.07542419 C-75.86200378 507.08525833 -76.94570251 507.09509247 -78.0622406 507.10522461 C-79.83825401 507.09072266 -79.83825401 507.09072266 -81.65014648 507.07592773 C-82.90090973 507.08133072 -84.15167297 507.0867337 -85.44033813 507.09230042 C-88.86836341 507.1026667 -92.29542393 507.09508264 -95.72336459 507.0785892 C-99.31249298 507.06473258 -102.90159242 507.07119959 -106.49073792 507.07472229 C-112.51905393 507.07742429 -118.54717082 507.06395105 -124.57543945 507.04077148 C-131.5407959 507.01417372 -138.50581918 507.01241077 -145.47120899 507.02415985 C-152.17534351 507.03494778 -158.87935775 507.02874186 -165.58348274 507.01460457 C-168.43466097 507.00885231 -171.28575096 507.00892146 -174.13693047 507.01366997 C-178.12063019 507.01933826 -182.10399804 507.00010018 -186.08764648 506.97827148 C-187.2696312 506.98277313 -188.45161591 506.98727478 -189.66941833 506.99191284 C-190.75593689 506.98200821 -191.84245544 506.97210358 -192.9618988 506.9618988 C-193.90338492 506.95946891 -194.84487104 506.95703901 -195.81488705 506.95453548 C-200.02763775 506.34271455 -202.65492309 504.58742789 -205.22480774 501.2434845 C-206.59635817 498.21479907 -206.79661329 496.18010401 -206.77416992 492.8659668 C-206.77394333 491.74518234 -206.77371674 490.62439789 -206.77348328 489.46965027 C-206.75799942 488.27052505 -206.74251556 487.07139984 -206.7265625 485.8359375 C-206.72231766 484.60003372 -206.71807281 483.36412994 -206.71369934 482.09077454 C-206.69977154 478.81745793 -206.67285352 475.54458967 -206.6395874 472.27142334 C-206.60880622 468.9264336 -206.59543293 465.58142428 -206.58007812 462.23632812 C-206.54702018 455.68211694 -206.49682839 449.1282045 -206.43359375 442.57421875 C-207.61501953 442.36152344 -207.61501953 442.36152344 -208.8203125 442.14453125 C-211.43359375 441.57421875 -211.43359375 441.57421875 -213.24609375 440.44921875 C-215.19239355 437.3761138 -214.92203341 435.11540631 -214.43359375 431.57421875 C-212.12109375 428.63671875 -212.12109375 428.63671875 -209.43359375 426.57421875 C-208.44359375 426.57421875 -207.45359375 426.57421875 -206.43359375 426.57421875 C-206.43359375 408.42421875 -206.43359375 390.27421875 -206.43359375 371.57421875 C-208.08359375 371.24421875 -209.73359375 370.91421875 -211.43359375 370.57421875 C-214.13090362 368.15594094 -214.41769914 366.70137561 -214.87109375 363.07421875 C-214.43359375 359.57421875 -214.43359375 359.57421875 -212.68359375 357.13671875 C-210.43359375 355.57421875 -210.43359375 355.57421875 -206.43359375 355.57421875 C-206.43359375 308.05421875 -206.43359375 260.53421875 -206.43359375 211.57421875 C-213.69359375 211.57421875 -220.95359375 211.57421875 -228.43359375 211.57421875 C-236.83000035 207.97575878 -236.83000035 207.97575878 -238.43359375 204.57421875 C-238.75012557 201.81266262 -238.9016 199.28156139 -238.90234375 196.51953125 C-238.90995728 195.74036346 -238.9175708 194.96119568 -238.92541504 194.15841675 C-238.93620212 192.51270749 -238.93907478 190.86692985 -238.93457031 189.22119141 C-238.93359947 186.71399573 -238.97519882 184.20987776 -239.01953125 181.703125 C-239.02473995 180.10026676 -239.02742642 178.49739795 -239.02734375 176.89453125 C-239.04373901 176.15059113 -239.06013428 175.406651 -239.07702637 174.64016724 C-239.02554749 170.72682528 -238.48721502 168.14845151 -236.08398438 165.11669922 C-232.37275677 161.55657355 -229.83496816 161.45040195 -224.890625 161.4765625 C-223.81748047 161.47978516 -222.74433594 161.48300781 -221.63867188 161.48632812 C-220.51912109 161.49470703 -219.39957031 161.50308594 -218.24609375 161.51171875 C-216.54936523 161.51848633 -216.54936523 161.51848633 -214.81835938 161.52539062 C-212.02338448 161.53718377 -209.22851555 161.55364225 -206.43359375 161.57421875 C-206.45454102 160.81802246 -206.47548828 160.06182617 -206.49707031 159.28271484 C-206.5804996 155.83835275 -206.63233999 152.39420368 -206.68359375 148.94921875 C-206.71710938 147.75941406 -206.750625 146.56960937 -206.78515625 145.34375 C-206.91014392 134.15735345 -206.91014392 134.15735345 -202.43359375 129.57421875 C-198.04511928 125.80250285 -193.61328903 126.21766144 -188.12109375 126.38671875 C-187.28513672 126.40025391 -186.44917969 126.41378906 -185.58789062 126.42773438 C-183.53617877 126.46290658 -181.484801 126.51670827 -179.43359375 126.57421875 C-179.45977783 125.95901367 -179.48596191 125.34380859 -179.51293945 124.70996094 C-179.61705296 121.91497467 -179.68196124 119.12039617 -179.74609375 116.32421875 C-179.80893555 114.87208984 -179.80893555 114.87208984 -179.87304688 113.390625 C-179.996974 106.20285185 -179.996974 106.20285185 -177.0390625 102.90234375 C-174.43359375 101.57421875 -174.43359375 101.57421875 -172.43359375 101.57421875 C-172.43359375 95.30421875 -172.43359375 89.03421875 -172.43359375 82.57421875 C-174.41359375 82.07921875 -174.41359375 82.07921875 -176.43359375 81.57421875 C-178.15209961 80.41113281 -178.15209961 80.41113281 -179.43359375 78.57421875 C-180.04588765 74.51146866 -179.99100428 70.44764453 -179.98950195 66.34228516 C-179.99602587 64.34500145 -180.05147246 62.34807307 -180.10742188 60.3515625 C-180.15670267 49.54264208 -180.15670267 49.54264208 -176.5859375 45.21484375 C-173.41193988 42.114545 -170.50051398 41.4479228 -166.14575195 41.46069336 C-165.28508621 41.46076889 -164.42442047 41.46084442 -163.53767395 41.46092224 C-162.6125853 41.46608353 -161.68749664 41.47124481 -160.734375 41.4765625 C-159.78418991 41.47797745 -158.83400482 41.4793924 -157.85502625 41.48085022 C-154.81868346 41.48645 -151.78241427 41.49900243 -148.74609375 41.51171875 C-146.68815211 41.51673378 -144.63020931 41.52129668 -142.57226562 41.52539062 C-137.52601329 41.53641935 -132.479816 41.55368382 -127.43359375 41.57421875 C-127.45015015 40.86978638 -127.46670654 40.165354 -127.48376465 39.4395752 C-127.54677027 36.5887449 -127.58350632 33.73799366 -127.62109375 30.88671875 C-127.64623047 29.87931641 -127.67136719 28.87191406 -127.69726562 27.83398438 C-127.79319502 18.1451157 -127.79319502 18.1451157 -124.43359375 14.57421875 C-118.91871631 10.94450923 -113.8482138 11.16427869 -107.48046875 11.203125 C-105.31249846 11.18573746 -103.14452975 11.16815314 -100.9765625 11.15039062 C-97.58216373 11.14034222 -94.18787003 11.13671659 -90.79345703 11.13842773 C-87.50131526 11.13483526 -84.20996786 11.10740551 -80.91796875 11.078125 C-79.91658875 11.08630753 -78.91520874 11.09449005 -77.88348389 11.10292053 C-69.26155026 11.0128734 -61.46650707 8.96455043 -54.93359375 3.07421875 C-40.60697339 -8.78404962 -15.68117848 -9.1872073 0 0 Z " fill="#010101" transform="translate(281.43359375,5.42578125)"/>
<path d="M0 0 C4.95 0 9.9 0 15 0 C15.01417969 1.73507813 15.02835938 3.47015625 15.04296875 5.2578125 C15.08987631 7.54690137 15.13812365 9.83596305 15.1875 12.125 C15.19330078 13.26710937 15.19910156 14.40921875 15.20507812 15.5859375 C15.25847424 22.63787434 15.25847424 22.63787434 18.36328125 28.7421875 C21.6360571 31.54465334 23.9313205 32.12010227 28.10083008 32.17700195 C29.33274834 32.19625481 29.33274834 32.19625481 30.58955383 32.21589661 C31.47394638 32.22328354 32.35833893 32.23067047 33.26953125 32.23828125 C34.18329025 32.246353 35.09704926 32.25442474 36.03849792 32.26274109 C37.97266753 32.27657007 39.90686142 32.28729753 41.84106445 32.29516602 C44.79100043 32.31237458 47.73981421 32.35627051 50.68945312 32.40039062 C52.57030427 32.4105184 54.45116493 32.41903424 56.33203125 32.42578125 C57.2103511 32.44328934 58.08867096 32.46079742 58.99360657 32.47883606 C64.48700105 32.45949019 67.6714064 31.71064232 72 28 C74.25870108 24.61194839 74.29259413 23.22649259 74.4140625 19.23828125 C74.45273438 18.12001953 74.49140625 17.00175781 74.53125 15.84960938 C74.5621875 14.68236328 74.593125 13.51511719 74.625 12.3125 C74.66367188 11.13365234 74.70234375 9.95480469 74.7421875 8.74023438 C74.83654057 5.82708332 74.91936242 2.91356297 75 0 C79.95 0 84.9 0 90 0 C90.01417969 1.73507813 90.02835938 3.47015625 90.04296875 5.2578125 C90.08987631 7.54690137 90.13812365 9.83596305 90.1875 12.125 C90.19330078 13.26710937 90.19910156 14.40921875 90.20507812 15.5859375 C90.25847424 22.63787434 90.25847424 22.63787434 93.36328125 28.7421875 C96.6360571 31.54465334 98.9313205 32.12010227 103.10083008 32.17700195 C104.33274834 32.19625481 104.33274834 32.19625481 105.58955383 32.21589661 C106.47394638 32.22328354 107.35833893 32.23067047 108.26953125 32.23828125 C109.18329025 32.246353 110.09704926 32.25442474 111.03849792 32.26274109 C112.97266753 32.27657007 114.90686142 32.28729753 116.84106445 32.29516602 C119.79100043 32.31237458 122.73981421 32.35627051 125.68945312 32.40039062 C127.57030427 32.4105184 129.45116493 32.41903424 131.33203125 32.42578125 C132.2103511 32.44328934 133.08867096 32.46079742 133.99360657 32.47883606 C139.48700105 32.45949019 142.6714064 31.71064232 147 28 C149.25870108 24.61194839 149.29259413 23.22649259 149.4140625 19.23828125 C149.47207031 17.56088867 149.47207031 17.56088867 149.53125 15.84960938 C149.5621875 14.68236328 149.593125 13.51511719 149.625 12.3125 C149.68300781 10.54422852 149.68300781 10.54422852 149.7421875 8.74023438 C149.83654057 5.82708332 149.91936242 2.91356297 150 0 C154.95 0 159.9 0 165 0 C165.03867187 2.62001953 165.03867187 2.62001953 165.078125 5.29296875 C165.1344075 7.59117077 165.1917548 9.88934689 165.25 12.1875 C165.26417969 13.33798828 165.27835938 14.48847656 165.29296875 15.67382812 C165.32519531 16.78564453 165.35742188 17.89746094 165.390625 19.04296875 C165.41157227 20.06414795 165.43251953 21.08532715 165.45410156 22.13745117 C166.1416938 25.74300529 167.44530001 27.39821007 170 30 C172.8277252 31.69320604 174.93385606 32.25575108 178.21435547 32.29052734 C179.44616043 32.3096669 179.44616043 32.3096669 180.70285034 32.32919312 C181.5820816 32.33141876 182.46131287 32.33364441 183.3671875 32.3359375 C184.73570358 32.3459227 184.73570358 32.3459227 186.13186646 32.35610962 C188.06005846 32.3662245 189.9882854 32.370927 191.91650391 32.37060547 C194.85768708 32.37497428 197.79736389 32.41129367 200.73828125 32.44921875 C202.61457822 32.45508813 204.49088229 32.45905671 206.3671875 32.4609375 C207.2423703 32.47530853 208.1175531 32.48967957 209.01925659 32.50448608 C214.48540703 32.46384037 217.74441072 31.75890294 222 28 C224.69210597 24.48696041 225.38922642 21.86569404 225.51171875 17.48046875 C225.54716797 16.45888672 225.58261719 15.43730469 225.61914062 14.38476562 C225.64169922 13.32966797 225.66425781 12.27457031 225.6875 11.1875 C225.72166016 10.11306641 225.75582031 9.03863281 225.79101562 7.93164062 C225.87325843 5.28812187 225.93831193 2.64407826 226 0 C230.62 0 235.24 0 240 0 C240.02578125 1.74667969 240.0515625 3.49335938 240.078125 5.29296875 C240.1344075 7.59117077 240.1917548 9.88934689 240.25 12.1875 C240.26417969 13.33798828 240.27835937 14.48847656 240.29296875 15.67382812 C240.32519531 16.78564453 240.35742188 17.89746094 240.390625 19.04296875 C240.41157227 20.06414795 240.43251953 21.08532715 240.45410156 22.13745117 C241.25678384 26.3465074 243.32705566 28.74837924 246.71972656 31.28662109 C250.25719074 32.39330957 253.81067707 32.3602569 257.484375 32.4140625 C258.29996887 32.43342865 259.11556274 32.4527948 259.95587158 32.4727478 C262.55380892 32.53239575 265.15179093 32.57886942 267.75 32.625 C269.51434194 32.66319342 271.27866551 32.70224595 273.04296875 32.7421875 C277.36182946 32.83808505 281.68077744 32.92217047 286 33 C286.0093457 34.16571533 286.01869141 35.33143066 286.02832031 36.5324707 C286.06817182 40.8546378 286.13391648 45.17608942 286.20751953 49.49780273 C286.23575737 51.36880304 286.2569579 53.23992326 286.27099609 55.11108398 C286.29238717 57.79994221 286.33901545 60.48735438 286.390625 63.17578125 C286.39246796 64.43217155 286.39246796 64.43217155 286.39434814 65.71394348 C286.45146521 70.28196143 286.45146521 70.28196143 288.85058594 73.98901367 C291.10135558 75.09913386 291.10135558 75.09913386 294 76 C294 82.27 294 88.54 294 95 C292.02 95.99 290.04 96.98 288 98 C286.82440785 100.3511843 286.84483537 101.82717914 286.79467773 104.44970703 C286.77473251 105.37051056 286.75478729 106.29131409 286.73423767 107.24002075 C286.71752518 108.23589203 286.70081268 109.23176331 286.68359375 110.2578125 C286.6524221 111.78509476 286.6524221 111.78509476 286.62062073 113.3432312 C286.55510534 116.60375055 286.49623098 119.86435206 286.4375 123.125 C286.39431668 125.33203983 286.35070245 127.53907128 286.30664062 129.74609375 C286.19942195 135.16397501 286.09765926 140.58193846 286 146 C282.79656378 146.20843362 279.59488034 146.33394029 276.38671875 146.4453125 C275.48465698 146.50501221 274.58259521 146.56471191 273.65319824 146.6262207 C267.06381438 146.79768607 267.06381438 146.79768607 264.0489502 144.53703308 C257.29337299 136.96147279 255.18005626 128.84810427 255.19140625 118.8828125 C254.99156316 115.87293086 254.70085977 114.80572425 252.625 112.6875 C248.20682494 109.8472446 244.31622604 109.81291201 239.2265625 109.76171875 C238.46580414 109.753647 237.70504578 109.74557526 236.92123413 109.73725891 C235.31242132 109.72343976 233.70357946 109.71270791 232.09472656 109.70483398 C229.64070919 109.68761026 227.18803596 109.64370629 224.734375 109.59960938 C223.16928071 109.58948259 221.604175 109.58096644 220.0390625 109.57421875 C218.94351547 109.54795662 218.94351547 109.54795662 217.82583618 109.52116394 C214.16317826 109.53667847 212.16550782 109.89294632 209.06005859 111.90161133 C206.95809568 113.82758339 206.95809568 113.82758339 206 116 C206.01160156 116.90105469 206.02320313 117.80210937 206.03515625 118.73046875 C206.11185773 128.42772776 203.76478557 136.54046385 196.95159912 143.64039612 C193.18446228 146.26481515 189.02708805 145.68567532 184.61328125 145.4140625 C183.68729126 145.38417236 182.76130127 145.35428223 181.80725098 145.32348633 C179.53518762 145.24582147 177.26911063 145.13728035 175 145 C174.99453156 144.06278107 174.99453156 144.06278107 174.98895264 143.10662842 C174.94685543 136.55151338 174.87732244 129.99708088 174.79248047 123.44238281 C174.76440813 121.00234839 174.74312593 118.56222535 174.72900391 116.12207031 C174.70738378 112.59654821 174.66063499 109.07207636 174.609375 105.546875 C174.60753204 103.93362335 174.60753204 103.93362335 174.60565186 102.28778076 C174.29739238 86.02685724 167.35853019 73.26227146 156 62 C144.47497623 51.17419315 129.5879818 48.46297322 114.30078125 48.71875 C108.42524307 48.97764131 103.34117272 50.59092506 98 53 C97.21367187 53.350625 96.42734375 53.70125 95.6171875 54.0625 C82.36171454 60.71332964 73.08732147 72.28635083 68 86 C65.96704659 92.70598228 65.66103157 98.95368607 65.5859375 105.9375 C65.56657135 107.05817871 65.5472052 108.17885742 65.5272522 109.33349609 C65.46779868 112.88892163 65.42120814 116.44438013 65.375 120 C65.33678873 122.4205865 65.2977352 124.84115987 65.2578125 127.26171875 C65.16212545 133.17436194 65.07697909 139.08708523 65 145 C61.79642935 145.19381483 58.59437607 145.31052216 55.38671875 145.4140625 C54.0336261 145.49732788 54.0336261 145.49732788 52.65319824 145.58227539 C46.06465451 145.74168777 46.06465451 145.74168777 43.0489502 143.64080811 C36.18207773 136.48441153 34.16598971 128.72053595 34.19921875 118.91796875 C33.98866455 115.83396895 33.67059027 114.80944959 31.5 112.6875 C30.675 112.130625 29.85 111.57375 29 111 C28.67 110.67 28.34 110.34 28 110 C25.39218867 109.87414774 22.81232026 109.81133968 20.203125 109.796875 C19.4173407 109.79117493 18.6315564 109.78547485 17.82196045 109.77960205 C16.15410718 109.77013571 14.48623507 109.76361161 12.81835938 109.75976562 C10.27440291 109.75009279 7.73126549 109.71909957 5.1875 109.6875 C3.56771314 109.68096682 1.94792048 109.67571759 0.328125 109.671875 C-0.43038757 109.6595282 -1.18890015 109.6471814 -1.97039795 109.63446045 C-6.50266352 109.6534271 -9.41900305 110.1634516 -13 113 C-15.39162551 116.58743827 -15.07789331 117.95691979 -15 122.1875 C-15.72622752 132.56063042 -19.0845617 138.03676802 -26 146 C-32.6 146 -39.2 146 -46 146 C-46 108.71 -46 71.42 -46 33 C-33.79 32.67 -21.58 32.34 -9 32 C-3.16666667 28.66666667 -3.16666667 28.66666667 -1 25 C-0.63201307 22.28924456 -0.63201307 22.28924456 -0.5859375 19.23828125 C-0.54726562 18.12001953 -0.50859375 17.00175781 -0.46875 15.84960938 C-0.4378125 14.68236328 -0.406875 13.51511719 -0.375 12.3125 C-0.33632812 11.13365234 -0.29765625 9.95480469 -0.2578125 8.74023438 C-0.16345943 5.82708332 -0.08063758 2.91356297 0 0 Z " fill="#E7A560" transform="translate(136,216)"/>
<path d="M0 0 C91.74 0 183.48 0 278 0 C278 23.43 278 46.86 278 71 C186.26 71 94.52 71 0 71 C-0.495 60.605 -0.495 60.605 -1 50 C-3.89459074 46.78918149 -3.89459074 46.78918149 -8 45 C-8 38.73 -8 32.46 -8 26 C-6.02 25.01 -4.04 24.02 -2 23 C1.44157587 16.11684827 -0.36604225 7.68688723 0 0 Z " fill="#E8A660" transform="translate(117,62)"/>
<path d="M0 0 C109.56 0 219.12 0 332 0 C332 6.93 332 13.86 332 21 C330.07696045 21.01458252 328.1539209 21.02916504 326.17260742 21.04418945 C319.8221581 21.09581462 313.4719643 21.16109327 307.12174511 21.23571491 C303.27120744 21.28046171 299.42077662 21.31970798 295.57006836 21.34643555 C291.85458435 21.37242607 288.1395106 21.41279735 284.42428017 21.46318626 C283.00614839 21.47988396 281.58794561 21.49138017 280.16972923 21.49761391 C278.1848976 21.50722254 276.20019418 21.53696284 274.21557617 21.56762695 C272.52013924 21.58428154 272.52013924 21.58428154 270.79045105 21.60127258 C268.00899636 21.78346169 268.00899636 21.78346169 266.13887024 23.30827332 C264.19589019 26.1944592 264.58134926 28.65079405 265 32 C266.75495915 34.0420067 268.21224103 34.88338988 270.88497162 35.27902794 C273.31940725 35.41132561 275.73673739 35.43637658 278.17480469 35.43237305 C279.101978 35.4425647 280.02915131 35.45275635 280.98442078 35.46325684 C284.04696661 35.49343461 287.10919989 35.50266018 290.171875 35.51171875 C292.29609216 35.52856187 294.42029933 35.54671161 296.54449463 35.56611633 C302.13398111 35.61366218 307.72342709 35.64344199 313.31304932 35.66955566 C319.01737466 35.69933797 324.72156041 35.74587632 330.42578125 35.79101562 C341.61713063 35.87710109 352.80846528 35.94287457 364 36 C364 41.94 364 47.88 364 54 C233.32 54 102.64 54 -32 54 C-32 48.06 -32 42.12 -32 36 C-30.61217945 35.99761165 -29.2243589 35.99522329 -27.79448318 35.99276257 C5.13204467 35.93543208 38.05850174 35.8627225 70.98495166 35.77101372 C75.03554038 35.75974523 79.08612945 35.74860683 83.13671875 35.73754883 C83.9431355 35.73534514 84.74955224 35.73314146 85.58040586 35.730871 C98.64654352 35.69547574 111.71268112 35.6706242 124.77884898 35.64965298 C138.18085381 35.62790865 151.5827963 35.59487131 164.98474813 35.55129844 C173.25787889 35.52475807 181.53093193 35.5070803 189.80410317 35.50065396 C195.47339825 35.49540735 201.14259545 35.47921496 206.81183812 35.45433434 C210.08522296 35.4402942 213.35839701 35.43277736 216.63181686 35.43499184 C220.17766437 35.43663377 223.72296501 35.42003721 227.26873779 35.39872742 C228.8270948 35.40599878 228.8270948 35.40599878 230.41693377 35.41341704 C231.36541477 35.4039605 232.31389577 35.39450396 233.29111862 35.38476086 C234.51913417 35.38191295 234.51913417 35.38191295 235.77195811 35.37900752 C238.5493185 34.90655659 239.94347554 33.89375357 242 32 C242.72508429 29.11679083 242.33638076 27.02742688 242 24 C238.94094402 21.96062935 238.33893627 21.7491009 234.89830494 21.73828697 C234.05980025 21.73082148 233.22129556 21.72335599 232.35738164 21.71566427 C230.97558446 21.71856637 230.97558446 21.71856637 229.56587219 21.7215271 C228.5873399 21.7157347 227.60880762 21.7099423 226.60062283 21.70397437 C223.30703917 21.68690844 220.01359508 21.68409219 216.7199707 21.68115234 C214.36487481 21.67185872 212.00978223 21.66169091 209.6546936 21.65071106 C203.24805782 21.62333322 196.84144411 21.60823862 190.4347651 21.59528303 C184.42165724 21.58221045 178.40858668 21.55812584 172.39551082 21.53501268 C160.48431425 21.48952634 148.57310755 21.45291916 136.66186523 21.421875 C125.09023256 21.39169699 113.51862467 21.35735018 101.94702148 21.31738281 C101.23391771 21.31492126 100.52081394 21.31245972 99.78610096 21.30992357 C96.2087196 21.29754912 92.63133852 21.28509256 89.05395758 21.27259517 C59.36933991 21.1689998 29.68468988 21.08035208 0 21 C0 14.07 0 7.14 0 0 Z " fill="#F3D9BC" transform="translate(90,147)"/>
<path d="M0 0 C109.56 0 219.12 0 332 0 C332 6.93 332 13.86 332 21 C330.07696045 21.01458252 328.1539209 21.02916504 326.17260742 21.04418945 C319.8221581 21.09581462 313.4719643 21.16109327 307.12174511 21.23571491 C303.27120744 21.28046171 299.42077662 21.31970798 295.57006836 21.34643555 C291.85458435 21.37242607 288.1395106 21.41279735 284.42428017 21.46318626 C283.00614839 21.47988396 281.58794561 21.49138017 280.16972923 21.49761391 C278.1848976 21.50722254 276.20019418 21.53696284 274.21557617 21.56762695 C272.52013924 21.58428154 272.52013924 21.58428154 270.79045105 21.60127258 C268.00014539 21.7754541 268.00014539 21.7754541 266.15449524 23.35905457 C264.65114325 25.49584864 264.34646217 27.43617996 264 30 C263.67 29.34 263.34 28.68 263 28 C256.73 28 250.46 28 244 28 C243.67 28.66 243.34 29.32 243 30 C242.566875 28.2984375 242.566875 28.2984375 242.125 26.5625 C241.75375 25.386875 241.3825 24.21125 241 23 C237.53050936 21.26525468 233.50610766 21.8458248 229.68612671 21.84178162 C228.70844885 21.83684364 227.73077098 21.83190566 226.72346652 21.82681805 C223.4268115 21.811383 220.13017604 21.80306621 216.83349609 21.79467773 C214.47854946 21.78510393 212.12360456 21.77509415 209.7686615 21.76467896 C203.35783843 21.73756991 196.94700795 21.7165929 190.53615904 21.69667697 C184.52051057 21.67753405 178.50488289 21.65290356 172.48925288 21.62875474 C160.57194959 21.58106333 148.65463447 21.53780335 136.73730469 21.49731445 C125.1588448 21.4579674 113.58039544 21.41654308 102.00195312 21.37231445 C101.28858663 21.36959018 100.57522013 21.36686591 99.84023647 21.36405908 C96.26158458 21.35037974 92.68293284 21.33665944 89.10428119 21.32291877 C59.40287611 21.20892967 29.70144734 21.10239808 0 21 C0 14.07 0 7.14 0 0 Z " fill="#E8A660" transform="translate(90,147)"/>
<path d="M0 0 C91.74 0 183.48 0 278 0 C278 23.43 278 46.86 278 71 C186.26 71 94.52 71 0 71 C0 67.7 0 64.4 0 61 C84.48 61 168.96 61 256 61 C256 41.2 256 21.4 256 1 C171.52 1 87.04 1 0 1 C0 0.67 0 0.34 0 0 Z " fill="#D47D22" transform="translate(117,62)"/>
<path d="M0 0 C1.58508968 1.14428378 3.14223726 2.32698228 4.69750977 3.51147461 C12.4968288 8.92347027 20.3060563 10.36326515 29.64282227 10.37475586 C31.21971329 10.39956024 31.21971329 10.39956024 32.82846069 10.42486572 C36.14945509 10.47301802 39.46999269 10.49464404 42.79125977 10.51538086 C45.05820943 10.54356789 47.32513811 10.57349909 49.59204102 10.60522461 C55.11674294 10.67876834 60.64119613 10.72854287 66.16625977 10.76538086 C66.16625977 16.04538086 66.16625977 21.32538086 66.16625977 26.76538086 C8.74625977 26.76538086 -48.67374023 26.76538086 -107.83374023 26.76538086 C-107.83374023 21.48538086 -107.83374023 16.20538086 -107.83374023 10.76538086 C-106.44251953 10.76127197 -105.05129883 10.75716309 -103.61791992 10.75292969 C-98.40661665 10.73099257 -93.19605284 10.67655273 -87.98510742 10.61279297 C-85.73908631 10.58973949 -83.49295904 10.57524728 -81.24682617 10.56982422 C-60.23712476 10.50949573 -60.23712476 10.50949573 -42.08374023 0.64038086 C-29.36527352 -8.94822136 -13.22147842 -9.21683141 0 0 Z " fill="#EAD1B5" transform="translate(276.833740234375,21.234619140625)"/>
<path d="M0 0 C109.56 0 219.12 0 332 0 C332 6.93 332 13.86 332 21 C330.07696045 21.01458252 328.1539209 21.02916504 326.17260742 21.04418945 C319.8221581 21.09581462 313.4719643 21.16109327 307.12174511 21.23571491 C303.27120744 21.28046171 299.42077662 21.31970798 295.57006836 21.34643555 C291.85458435 21.37242607 288.1395106 21.41279735 284.42428017 21.46318626 C283.00614839 21.47988396 281.58794561 21.49138017 280.16972923 21.49761391 C278.1848976 21.50722254 276.20019418 21.53696284 274.21557617 21.56762695 C272.52013924 21.58428154 272.52013924 21.58428154 270.79045105 21.60127258 C268.00014539 21.7754541 268.00014539 21.7754541 266.15449524 23.35905457 C264.65114325 25.49584864 264.34646217 27.43617996 264 30 C263.67 29.34 263.34 28.68 263 28 C256.73 28 250.46 28 244 28 C243.67 28.66 243.34 29.32 243 30 C242.566875 28.2984375 242.566875 28.2984375 242.125 26.5625 C241.75375 25.386875 241.3825 24.21125 241 23 C237.53050936 21.26525468 233.50610766 21.8458248 229.68612671 21.84178162 C228.70844885 21.83684364 227.73077098 21.83190566 226.72346652 21.82681805 C223.4268115 21.811383 220.13017604 21.80306621 216.83349609 21.79467773 C214.47854946 21.78510393 212.12360456 21.77509415 209.7686615 21.76467896 C203.35783843 21.73756991 196.94700795 21.7165929 190.53615904 21.69667697 C184.52051057 21.67753405 178.50488289 21.65290356 172.48925288 21.62875474 C160.57194959 21.58106333 148.65463447 21.53780335 136.73730469 21.49731445 C125.1588448 21.4579674 113.58039544 21.41654308 102.00195312 21.37231445 C101.28858663 21.36959018 100.57522013 21.36686591 99.84023647 21.36405908 C96.26158458 21.35037974 92.68293284 21.33665944 89.10428119 21.32291877 C59.40287611 21.20892967 29.70144734 21.10239808 0 21 C0 14.07 0 7.14 0 0 Z M1 1 C1 4.96 1 8.92 1 13 C102.97 13 204.94 13 310 13 C310 9.04 310 5.08 310 1 C208.03 1 106.06 1 1 1 Z " fill="#CF7C24" transform="translate(90,147)"/>
<path d="M0 0 C16.17 0 32.34 0 49 0 C49 18.81 49 37.62 49 57 C32.83 57 16.66 57 0 57 C0 38.19 0 19.38 0 0 Z " fill="#F3D9BC" transform="translate(342,376)"/>
<path d="M0 0 C16.17 0 32.34 0 49 0 C49 18.81 49 37.62 49 57 C32.83 57 16.66 57 0 57 C0 38.19 0 19.38 0 0 Z " fill="#F4D9BC" transform="translate(121,376)"/>
<path d="M0 0 C15.84 0 31.68 0 48 0 C48 16.5 48 33 48 50 C32.16 50 16.32 50 0 50 C0 33.5 0 17 0 0 Z " fill="#F3D9BC" transform="translate(342,447)"/>
<path d="M0 0 C15.84 0 31.68 0 48 0 C48 16.5 48 33 48 50 C32.16 50 16.32 50 0 50 C0 33.5 0 17 0 0 Z " fill="#F4D9BC" transform="translate(122,447)"/>
<path d="M0 0 C5.94 0 11.88 0 18 0 C18.02578125 2.78050781 18.0515625 5.56101563 18.078125 8.42578125 C18.11652976 11.11655842 18.16169493 13.80714292 18.20751953 16.49780273 C18.23575737 18.36880304 18.2569579 20.23992326 18.27099609 22.11108398 C18.29238717 24.79994221 18.33901545 27.48735438 18.390625 30.17578125 C18.39185364 31.01337479 18.39308228 31.85096832 18.39434814 32.71394348 C18.45146521 37.28196143 18.45146521 37.28196143 20.85058594 40.98901367 C23.10135558 42.09913386 23.10135558 42.09913386 26 43 C26 49.27 26 55.54 26 62 C24.02 62.99 22.04 63.98 20 65 C18.82440785 67.3511843 18.84483537 68.82717914 18.79467773 71.44970703 C18.77473251 72.37051056 18.75478729 73.29131409 18.73423767 74.24002075 C18.70916893 75.73382767 18.70916893 75.73382767 18.68359375 77.2578125 C18.66281265 78.27600067 18.64203156 79.29418884 18.62062073 80.3432312 C18.55510534 83.60375055 18.49623098 86.86435206 18.4375 90.125 C18.39431668 92.33203983 18.35070245 94.53907128 18.30664062 96.74609375 C18.19860904 102.16397942 18.09955024 107.58192521 18 113 C11.4 113 4.8 113 -2 113 C-1.01 112.505 -1.01 112.505 0 112 C0 75.04 0 38.08 0 0 Z " fill="#DE8222" transform="translate(404,249)"/>
<path d="M0 0 C5.1616695 3.02172735 9.44521008 7.84931129 11.625 13.4375 C12.45601788 21.28385483 12.68120137 29.00800937 7.625 35.4375 C2.53110546 40.87480316 -2.83621613 43.59558604 -10.25 43.875 C-16.77675141 43.6811361 -21.26623572 42.29841291 -26.08984375 37.859375 C-31.14879875 32.36750209 -34.08196323 26.39806324 -33.78515625 18.8359375 C-32.56234743 11.68541738 -28.77410703 6.10092646 -23.21875 1.59375 C-16.37648314 -2.69716312 -7.41589354 -3.32929325 0 0 Z " fill="#040302" transform="translate(378.375,265.5625)"/>
<path d="M0 0 C6.0090483 3.56045482 10.03457654 8.77568902 12.1484375 15.41015625 C13.78255149 22.36183788 12.5315242 26.93681804 9.18359375 33.1015625 C5.74376587 38.25699375 1.507648 41.50847806 -4.375 43.4375 C-11.71857361 44.30859977 -18.36028132 44.02909328 -24.375 39.4375 C-29.087127 34.99884466 -31.96033196 30.73889559 -32.78125 24.203125 C-32.9724942 17.03146746 -32.6781963 12.02163249 -28.1640625 6.27734375 C-20.67321275 -1.42612837 -10.22370012 -4.62736137 0 0 Z " fill="#040302" transform="translate(157.375,265.5625)"/>
<path d="M0 0 C6.28804979 2.80429725 10.60244152 7.96120093 14.11328125 13.76171875 C15.59327867 20.66837336 15.25583988 26.91410149 12.07421875 33.27734375 C8.9577956 37.97809376 4.85379849 41.27350994 -0.13671875 43.82421875 C-7.88435959 45.19144949 -14.47451469 45.37042022 -21.3125 41.0859375 C-26.18818156 36.96764337 -29.92395298 31.19496164 -30.59765625 24.78515625 C-30.8425891 17.49369369 -30.19717558 12.04203103 -25.32421875 6.38671875 C-17.53609204 0.02193934 -10.08058606 -2.65991935 0 0 Z " fill="#030201" transform="translate(343.32421875,75.61328125)"/>
<path d="M0 0 C4.4005959 3.30234047 6.84791022 7.85988293 9.26953125 12.703125 C10.17224919 20.56476982 9.82463605 26.93417478 5.2265625 33.53515625 C1.09610212 38.11081595 -3.39385865 41.1508905 -9.5390625 42.16796875 C-17.42545709 42.4414221 -23.67703272 40.87946629 -29.54296875 35.515625 C-34.76918839 29.81212503 -36.36394029 23.82190172 -36.0703125 16.15234375 C-35.08276363 9.0351812 -31.20129078 4.52815418 -25.73046875 0.11328125 C-17.81403935 -5.46841995 -8.1617022 -4.47286986 0 0 Z " fill="#030201" transform="translate(189.73046875,78.296875)"/>
<path d="M0 0 C1.26488754 -0.01591187 2.52977509 -0.03182373 3.83299255 -0.04821777 C5.2103571 -0.04948504 6.58772302 -0.04966189 7.96508789 -0.04882812 C9.38229168 -0.05593177 10.79949259 -0.06363107 12.21669006 -0.07189941 C15.18490598 -0.08533641 18.15285596 -0.08691664 21.12109375 -0.08105469 C24.91895259 -0.07515881 28.71553292 -0.10574652 32.51314449 -0.14617157 C35.43948706 -0.1720617 38.36552228 -0.17492491 41.29196358 -0.17127991 C42.69178036 -0.17296995 44.09161151 -0.18260156 45.49131584 -0.20042419 C47.45111672 -0.22263325 49.41121981 -0.2096949 51.37109375 -0.1953125 C53.04177162 -0.19839417 53.04177162 -0.19839417 54.74620056 -0.20153809 C58.7418978 0.62506971 60.2650397 2.24660147 62.75024414 5.41992188 C62.81274414 9.04492187 62.81274414 9.04492187 61.75024414 12.41992188 C58.54124477 15.64595604 55.94650991 15.8062119 51.50048828 15.83984375 C50.23560074 15.85575562 48.9707132 15.87166748 47.66749573 15.88806152 C46.29013118 15.88932879 44.91276527 15.88950564 43.53540039 15.88867188 C42.1181966 15.89577552 40.70099569 15.90347482 39.28379822 15.91174316 C36.3155823 15.92518016 33.34763233 15.92676039 30.37939453 15.92089844 C26.58153569 15.91500256 22.78495536 15.94559027 18.98734379 15.98601532 C16.06100122 16.01190545 13.13496601 16.01476866 10.2085247 16.01112366 C8.80870793 16.0128137 7.40887677 16.02244531 6.00917244 16.04026794 C4.04937157 16.062477 2.08926847 16.04953865 0.12939453 16.03515625 C-1.54128334 16.03823792 -1.54128334 16.03823792 -3.24571228 16.04138184 C-7.24140952 15.21477404 -8.76455142 13.59324228 -11.24975586 10.41992188 C-11.31225586 6.79492188 -11.31225586 6.79492188 -10.24975586 3.41992188 C-7.04075649 0.19388771 -4.44602163 0.03363185 0 0 Z " fill="#020101" transform="translate(230.249755859375,89.580078125)"/>
<path d="M0 0 C16.17 0 32.34 0 49 0 C49 18.81 49 37.62 49 57 C32.83 57 16.66 57 0 57 C0 38.19 0 19.38 0 0 Z M1 1 C1 19.15 1 37.3 1 56 C11.89 56 22.78 56 34 56 C34 37.85 34 19.7 34 1 C23.11 1 12.22 1 1 1 Z " fill="#DBB891" transform="translate(342,376)"/>
<path d="M0 0 C16.17 0 32.34 0 49 0 C49 18.81 49 37.62 49 57 C32.83 57 16.66 57 0 57 C0 38.19 0 19.38 0 0 Z M1 1 C1 19.15 1 37.3 1 56 C11.89 56 22.78 56 34 56 C34 37.85 34 19.7 34 1 C23.11 1 12.22 1 1 1 Z " fill="#DBB891" transform="translate(121,376)"/>
<path d="M0 0 C5.61 0 11.22 0 17 0 C17 18.81 17 37.62 17 57 C11.39 57 5.78 57 0 57 C0 38.19 0 19.38 0 0 Z " fill="#D47C20" transform="translate(405,376)"/>
<path d="M0 0 C5.61 0 11.22 0 17 0 C17 18.81 17 37.62 17 57 C11.39 57 5.78 57 0 57 C0 38.19 0 19.38 0 0 Z " fill="#D99C5A" transform="translate(90,376)"/>
<path d="M0 0 C5.28 0 10.56 0 16 0 C16 18.81 16 37.62 16 57 C10.72 57 5.44 57 0 57 C0 38.19 0 19.38 0 0 Z " fill="#E2A25E" transform="translate(311,376)"/>
<path d="M0 0 C5.28 0 10.56 0 16 0 C16 18.81 16 37.62 16 57 C10.72 57 5.44 57 0 57 C0 38.19 0 19.38 0 0 Z " fill="#E2A25E" transform="translate(185,376)"/>
<path d="M0 0 C5.61 0 11.22 0 17 0 C17 16.5 17 33 17 50 C11.39 50 5.78 50 0 50 C0 33.5 0 17 0 0 Z " fill="#D47C20" transform="translate(405,447)"/>
<path d="M0 0 C5.61 0 11.22 0 17 0 C17 16.5 17 33 17 50 C11.39 50 5.78 50 0 50 C0 33.5 0 17 0 0 Z " fill="#DA9C5A" transform="translate(90,447)"/>
<path d="M0 0 C5.28 0 10.56 0 16 0 C16 16.17 16 32.34 16 49 C10.72 49 5.44 49 0 49 C0 32.83 0 16.66 0 0 Z " fill="#E6A55F" transform="translate(311,448)"/>
<path d="M0 0 C5.28 0 10.56 0 16 0 C16 16.17 16 32.34 16 49 C10.72 49 5.44 49 0 49 C0 32.83 0 16.66 0 0 Z " fill="#E6A55F" transform="translate(185,448)"/>
<path d="M0 0 C15.84 0 31.68 0 48 0 C48 16.5 48 33 48 50 C43.38 50 38.76 50 34 50 C34 33.83 34 17.66 34 1 C23.11 1 12.22 1 1 1 C1 17.17 1 33.34 1 50 C0.67 50 0.34 50 0 50 C0 33.5 0 17 0 0 Z " fill="#E2BE95" transform="translate(342,447)"/>
<path d="M0 0 C15.84 0 31.68 0 48 0 C48 16.5 48 33 48 50 C43.05 50 38.1 50 33 50 C33 33.83 33 17.66 33 1 C22.11 1 11.22 1 0 1 C0 0.67 0 0.34 0 0 Z " fill="#E2BD94" transform="translate(122,447)"/>
<path d="M0 0 C10.56 0 21.12 0 32 0 C32 5.94 32 11.88 32 18 C21.44 18 10.88 18 0 18 C0 12.06 0 6.12 0 0 Z " fill="#A3533B" transform="translate(390,216)"/>
<path d="M0 0 C10.56 0 21.12 0 32 0 C32 5.94 32 11.88 32 18 C21.44 18 10.88 18 0 18 C0 12.06 0 6.12 0 0 Z " fill="#A0533A" transform="translate(315,216)"/>
<path d="M0 0 C10.56 0 21.12 0 32 0 C32 5.94 32 11.88 32 18 C21.44 18 10.88 18 0 18 C0 12.06 0 6.12 0 0 Z " fill="#A0533A" transform="translate(240,216)"/>
<path d="M0 0 C10.56 0 21.12 0 32 0 C32 5.94 32 11.88 32 18 C21.44 18 10.88 18 0 18 C0 12.06 0 6.12 0 0 Z " fill="#A0533A" transform="translate(165,216)"/>
<path d="M0 0 C10.56 0 21.12 0 32 0 C32 5.94 32 11.88 32 18 C21.44 18 10.88 18 0 18 C0 12.06 0 6.12 0 0 Z " fill="#A0533A" transform="translate(90,216)"/>
<path d="M0 0 C6.93 0 13.86 0 21 0 C21.33 3.3 21.66 6.6 22 10 C23.98 13.63 25.96 17.26 28 21 C16.45 21 4.9 21 -7 21 C-3 13 -3 13 -1 10 C-0.67 6.7 -0.34 3.4 0 0 Z " fill="#FDE1CA" transform="translate(356,340)"/>
<path d="M0 0 C6.93 0 13.86 0 21 0 C21.33 3.3 21.66 6.6 22 10 C23.29028657 13.1026386 23.29028657 13.1026386 25.0625 15.5625 C28 19.99294118 28 19.99294118 28 21 C16.45 21 4.9 21 -7 21 C-5.02 17.37 -3.04 13.74 -1 10 C-0.67 6.7 -0.34 3.4 0 0 Z " fill="#FDE1CA" transform="translate(135,340)"/>
<path d="M0 0 C7.26 0 14.52 0 22 0 C22 5.94 22 11.88 22 18 C14.74 18 7.48 18 0 18 C0 12.06 0 6.12 0 0 Z " fill="#EAB77F" transform="translate(432,183)"/>
<path d="M0 0 C9.9 0 19.8 0 30 0 C30 2.64 30 5.28 30 8 C20.1 8 10.2 8 0 8 C0 5.36 0 2.72 0 0 Z " fill="#BE694E" transform="translate(316,225)"/>
<path d="M0 0 C9.9 0 19.8 0 30 0 C30 2.64 30 5.28 30 8 C20.1 8 10.2 8 0 8 C0 5.36 0 2.72 0 0 Z " fill="#BE694E" transform="translate(241,225)"/>
<path d="M0 0 C9.9 0 19.8 0 30 0 C30 2.64 30 5.28 30 8 C20.1 8 10.2 8 0 8 C0 5.36 0 2.72 0 0 Z " fill="#BE694E" transform="translate(166,225)"/>
<path d="M0 0 C9.9 0 19.8 0 30 0 C30 2.64 30 5.28 30 8 C20.1 8 10.2 8 0 8 C0 5.36 0 2.72 0 0 Z " fill="#BE694E" transform="translate(91,225)"/>
<path d="M0 0 C3.63 0 7.26 0 11 0 C11.04125 1.44375 11.0825 2.8875 11.125 4.375 C11.63428223 9.86741292 13.7106299 13.5235618 16.72265625 18.06640625 C18 20 18 20 18 21 C14.04 21 10.08 21 6 21 C-0.88838269 7.55125285 -0.88838269 7.55125285 0 0 Z " fill="#F2D8BC" transform="translate(145,340)"/>
<path d="M0 0 C3.63 0 7.26 0 11 0 C11.04125 1.423125 11.0825 2.84625 11.125 4.3125 C11.73332721 10.85435725 14.64397026 15.43041873 18 21 C14.04 21 10.08 21 6 21 C-0.88838269 7.55125285 -0.88838269 7.55125285 0 0 Z " fill="#F2D8BC" transform="translate(366,340)"/>
<path d="M0 0 C2.375 1.5625 2.375 1.5625 4 4 C4.56783945 7.97487617 4.62340519 10.06489221 2.375 13.4375 C-0.75683492 15.49791771 -2.31544773 15.6767545 -6 15 C-8.9375 12.9375 -8.9375 12.9375 -11 10 C-11.06641554 6.14789873 -10.87229157 4.00151995 -8.3125 1.0625 C-5.26397123 -0.33817538 -3.32073048 -0.4842732 0 0 Z " fill="#F5E1D1" transform="translate(371,279)"/>
<path d="M0 0 C2.9375 2.0625 2.9375 2.0625 5 5 C5.06641554 8.85210127 4.87229157 10.99848005 2.3125 13.9375 C-0.73602877 15.33817538 -2.67926952 15.4842732 -6 15 C-8.375 13.4375 -8.375 13.4375 -10 11 C-10.56783945 7.02512383 -10.62340519 4.93510779 -8.375 1.5625 C-5.24316508 -0.49791771 -3.68455227 -0.6767545 0 0 Z " fill="#F6E1D1" transform="translate(150,279)"/>
<path d="M0 0 C2.4375 1.5625 2.4375 1.5625 4 4 C4.56288002 7.94016013 4.60396028 10.05782196 2.4375 13.4375 C-0.96719488 15.61999672 -3.03430012 15.63734462 -7 15 C-9.96135546 12.41830549 -10.86756104 10.81118865 -11.5 6.9375 C-11 4 -11 4 -9.4375 1.625 C-6.06489221 -0.62340519 -3.97487617 -0.56783945 0 0 Z " fill="#EDD4B7" transform="translate(180,90)"/>
<path d="M0 0 C2.875 1.625 2.875 1.625 5 4 C5.625 6.9375 5.625 6.9375 5 10 C2.51397551 13.36344489 1.08574477 14.80057749 -3.0625 15.5625 C-6 15 -6 15 -8.375 13.4375 C-10.62340519 10.06489221 -10.56783945 7.97487617 -10 4 C-7.25657347 -0.1151398 -4.81370572 -0.78591114 0 0 Z " fill="#EED5B8" transform="translate(338,90)"/>
<path d="M0 0 C4.95 0 9.9 0 15 0 C15 7.59 15 15.18 15 23 C14.67 23 14.34 23 14 23 C14 18.38 14 13.76 14 9 C9.71 9 5.42 9 1 9 C1 13.62 1 18.24 1 23 C0.67 23 0.34 23 0 23 C0 15.41 0 7.82 0 0 Z " fill="#BE7222" transform="translate(286,216)"/>
<path d="M0 0 C4.95 0 9.9 0 15 0 C15 7.59 15 15.18 15 23 C14.67 23 14.34 23 14 23 C14 18.38 14 13.76 14 9 C9.71 9 5.42 9 1 9 C1 13.62 1 18.24 1 23 C0.67 23 0.34 23 0 23 C0 15.41 0 7.82 0 0 Z " fill="#BE7222" transform="translate(211,216)"/>
<path d="M0 0 C4.95 0 9.9 0 15 0 C15 7.59 15 15.18 15 23 C14.67 23 14.34 23 14 23 C14 18.38 14 13.76 14 9 C9.71 9 5.42 9 1 9 C1 13.62 1 18.24 1 23 C0.67 23 0.34 23 0 23 C0 15.41 0 7.82 0 0 Z " fill="#BE7222" transform="translate(136,216)"/>
<path d="M0 0 C4.62 0 9.24 0 14 0 C14 7.59 14 15.18 14 23 C13.67 23 13.34 23 13 23 C13 18.38 13 13.76 13 9 C8.71 9 4.42 9 0 9 C0 6.03 0 3.06 0 0 Z " fill="#CD7A23" transform="translate(362,216)"/>
<path d="M0 0 C4.29 0 8.58 0 13 0 C13 2.64 13 5.28 13 8 C8.71 8 4.42 8 0 8 C0 5.36 0 2.72 0 0 Z " fill="#BE694E" transform="translate(391,225)"/>
</svg>
