<?xml version="1.0" encoding="UTF-8"?>
<svg version="1.1" xmlns="http://www.w3.org/2000/svg" width="512" height="512">
<path d="M0 0 C1.86083984 1.26367188 1.86083984 1.26367188 3.7109375 2.96875 C4.40364746 3.60490234 5.09635742 4.24105469 5.81005859 4.89648438 C10.38654644 9.29236167 14.84041609 13.80356312 19.2890625 18.328125 C22.65070825 21.72442689 26.00181555 25.05786421 29.6484375 28.1484375 C36.3443929 33.90251508 42.41921979 40.35431871 48.625 46.625 C51.19755777 49.22431543 53.77352494 51.82018317 56.3515625 54.4140625 C56.92983795 55.00063629 57.5081134 55.58721008 58.10391235 56.19155884 C60.73519152 58.83851774 63.36691318 61.33872078 66.29052734 63.66162109 C69.6751213 66.58265559 70.85577409 68.34780209 71.24609566 72.81917953 C71.24425207 73.9142696 71.24240849 75.00935966 71.24050903 76.13763428 C71.24463303 78.02644569 71.24463303 78.02644569 71.24884033 79.95341492 C71.24176251 81.34622288 71.23449289 82.73902988 71.22705078 84.13183594 C71.22648656 85.60038749 71.22680345 87.06893962 71.22793579 88.53749084 C71.22850987 92.52271348 71.21674667 96.50781585 71.20278788 100.49301052 C71.19028969 104.65835906 71.18911074 108.82371031 71.18673706 112.98907471 C71.18051961 120.87610402 71.16410521 128.76307792 71.14403808 136.65008283 C71.12168733 145.62944073 71.11068772 154.60880127 71.10064721 163.58818007 C71.07973921 182.058819 71.04415545 200.52940302 71 219 C76.94 219 82.88 219 89 219 C88.93192139 216.84436523 88.86384277 214.68873047 88.79370117 212.46777344 C88.57504331 205.22047187 88.433444 197.97299449 88.32644176 190.72323227 C88.25953305 186.34133564 88.16936773 181.9629073 88.01928711 177.58300781 C87.25496987 154.65788239 88.81829233 137.96167519 100.42556763 117.78027344 C102.52702232 114.06933687 104.28237497 110.24731955 106.0078125 106.3515625 C106.53890625 105.20558594 107.07 104.05960937 107.6171875 102.87890625 C108.66208376 100.62398763 109.7063089 98.36875794 110.75 96.11328125 C111.52730469 94.43685547 111.52730469 94.43685547 112.3203125 92.7265625 C112.98957764 91.28144287 112.98957764 91.28144287 113.67236328 89.80712891 C118.3868697 79.83886947 118.3868697 79.83886947 121 78 C124.3643935 76.9532998 126.42210761 76.84355399 129.828125 77.765625 C134.80129093 81.26888967 136.48069626 86.17546831 138.9375 91.625 C139.4830957 92.79603271 140.02869141 93.96706543 140.59082031 95.17358398 C142.09362727 98.40326413 143.57070146 101.64410084 145.04144287 104.88848877 C146.03857923 107.08498239 147.04125295 109.27887568 148.04541016 111.47216797 C151.96162972 120.02714 155.8527238 128.59302721 159.71582031 137.17211914 C160.45194274 138.79312789 161.2038159 140.4076318 162 142 C162.09279918 144.4414156 162.12583928 146.85400059 162.11352539 149.29541016 C162.11367142 150.04672714 162.11381744 150.79804413 162.1139679 151.5721283 C162.11326996 154.0611355 162.10548314 156.55006833 162.09765625 159.0390625 C162.09579165 160.76256265 162.09436794 162.48606334 162.09336853 164.20956421 C162.08954669 168.75025897 162.07971922 173.29092185 162.06866455 177.831604 C162.05844329 182.46325245 162.05386937 187.09490603 162.04882812 191.7265625 C162.03809667 200.81772236 162.02102422 209.90885853 162 219 C163.82374146 218.97643433 163.82374146 218.97643433 165.68432617 218.95239258 C170.20362703 218.89801199 174.72289906 218.86362028 179.24243164 218.83520508 C181.19690823 218.82013699 183.15135112 218.79967876 185.10571289 218.77368164 C187.91821623 218.73721135 190.73027174 218.72025378 193.54296875 218.70703125 C194.41398727 218.69154739 195.2850058 218.67606354 196.18241882 218.66011047 C200.91453128 218.65880359 204.23582324 218.79518596 208 222 C210.41475549 225.58341649 210.28344201 229.18547746 210.26069641 233.35679626 C210.26452196 234.09989266 210.26834751 234.84298906 210.27228898 235.60860354 C210.28261156 238.09973659 210.27862828 240.59063884 210.2746582 243.08178711 C210.27900508 244.86734735 210.28418815 246.65290572 210.29014587 248.4384613 C210.30354951 253.28966609 210.30411304 258.14079304 210.30158257 262.99201274 C210.30051382 267.04034827 210.30539377 271.08866799 210.310188 275.13700014 C210.32128784 284.68664165 210.32171786 294.23624383 210.31567383 303.78588867 C210.3096322 313.6413743 210.32194877 323.49671723 210.3432439 333.35217851 C210.36084971 341.81087529 210.36686288 350.2695266 210.36360615 358.72824103 C210.36179157 363.78151774 210.36444695 368.83469266 210.37832069 373.8879528 C210.39087786 378.63956809 210.38897497 383.39096062 210.37590981 388.1425724 C210.37353989 389.88687591 210.37629354 391.63119499 210.38453293 393.37548065 C210.39496714 395.75598689 210.38692698 398.1357411 210.3742218 400.51622009 C210.38159609 401.20708 210.38897037 401.8979399 210.39656812 402.60973495 C210.3484296 406.89462537 209.61074986 409.58537328 207 413 C204.07520063 414.46239968 201.50491927 414.1296074 198.23701668 414.13422108 C197.17674242 414.13774942 197.17674242 414.13774942 196.09504849 414.14134905 C193.70252085 414.14805954 191.31004727 414.14758021 188.91751099 414.14717102 C187.19446825 414.15046836 185.47142628 414.15419365 183.74838531 414.1583125 C178.99476745 414.16835519 174.24116221 414.17205292 169.48753524 414.17470181 C164.36814951 414.17859808 159.24877385 414.18817678 154.12939453 414.19691467 C141.75783909 414.21669693 129.3862828 414.22674693 117.01471549 414.23564246 C111.19445003 414.24002195 105.37418548 414.24538959 99.55392075 414.25063133 C80.21651206 414.26764438 60.87910394 414.28214022 41.54168892 414.28938007 C36.52111943 414.29129009 31.50054994 414.2932104 26.47998047 414.29516602 C24.60813537 414.29589163 24.60813537 414.29589163 22.69847523 414.2966319 C2.46751509 414.30493842 -17.76338603 414.33028551 -37.99432038 414.36274669 C-58.74595193 414.39577305 -79.49755345 414.41382477 -100.24921143 414.41702431 C-111.90828301 414.41919338 -123.56726851 414.42799992 -135.22631454 414.45348549 C-145.15223625 414.47513204 -155.07805098 414.48327278 -165.00399362 414.47351871 C-170.07180353 414.46895657 -175.13939243 414.47097076 -180.20717239 414.49028015 C-184.84212141 414.50778852 -189.47668617 414.50701532 -194.11163856 414.49138286 C-195.79266633 414.48898792 -197.47371985 414.49342694 -199.15470801 414.50521151 C-201.43205745 414.52019405 -203.70802112 414.51075473 -205.9853344 414.49498463 C-207.25251615 414.49596144 -208.51969791 414.49693824 -209.82527912 414.49794465 C-213.57082594 413.91046781 -214.70959177 412.95321052 -217 410 C-218.46830912 407.06338176 -218.14443291 404.102922 -218.14044189 400.88371277 C-218.14341302 400.14232522 -218.14638414 399.40093767 -218.1494453 398.63708383 C-218.15815314 396.13979917 -218.1596423 393.64256233 -218.16113281 391.14526367 C-218.16575953 389.35999956 -218.17078399 387.57473644 -218.17617798 385.78947449 C-218.18931845 380.92990843 -218.19575018 376.07035619 -218.20018864 371.21077514 C-218.20311681 368.17645248 -218.20722114 365.14213363 -218.21169281 362.10781288 C-218.2253723 352.61923336 -218.23503665 343.13066251 -218.2388947 333.64207381 C-218.24337621 322.67950125 -218.26092652 311.71705334 -218.2898953 300.75451869 C-218.31149514 292.28737639 -218.32159808 283.82026921 -218.32293582 275.35309964 C-218.3239851 270.29307699 -218.32991897 265.23317143 -218.34775543 260.17317772 C-218.3642067 255.41339419 -218.36640596 250.65381614 -218.35761642 245.89401436 C-218.35684446 244.1464826 -218.36120972 242.39893993 -218.37107468 240.65143585 C-218.38374916 238.26645727 -218.37794226 235.88221134 -218.36749268 233.49723816 C-218.37554908 232.80501402 -218.38360548 232.11278987 -218.39190602 231.39958924 C-218.34784866 227.10272616 -217.59693644 224.43395563 -215 221 C-212.26614339 219.16058103 -210.13344737 218.75231995 -206.87402344 218.77294922 C-205.67323151 218.77317581 -205.67323151 218.77317581 -204.44818115 218.77340698 C-203.59387512 218.78372955 -202.73956909 218.79405212 -201.859375 218.8046875 C-200.97719299 218.8075174 -200.09501099 218.81034729 -199.18609619 218.81326294 C-196.37392501 218.82444039 -193.5620746 218.84954049 -190.75 218.875 C-188.84115044 218.88503295 -186.93229588 218.89415825 -185.0234375 218.90234375 C-180.34883511 218.92437176 -175.67447191 218.95888489 -171 219 C-171.01665459 217.64935455 -171.01665459 217.64935455 -171.03364563 216.27142334 C-171.13428989 207.73988141 -171.21018805 199.20854202 -171.25906086 190.67654037 C-171.2850327 186.29126176 -171.32019995 181.90647818 -171.37719727 177.52148438 C-171.43196513 173.28093936 -171.46151361 169.04086713 -171.47438622 164.79999542 C-171.48354657 163.19100768 -171.5014324 161.58204257 -171.52865028 159.97325897 C-171.69115473 149.95970823 -170.69640488 142.05639898 -166 133 C-165.35827282 131.60314985 -164.72122931 130.20413081 -164.09057617 128.80224609 C-163.49405791 127.54136983 -162.89483674 126.2817689 -162.29296875 125.0234375 C-161.96623672 124.33356247 -161.6395047 123.64368744 -161.3028717 122.9329071 C-160.26684822 120.7457738 -159.22734922 118.56031661 -158.1875 116.375 C-150.99938069 101.28471229 -150.99938069 101.28471229 -144.38354492 85.93701172 C-142.83153749 82.27222302 -141.50043538 79.99223176 -138 78 C-135.18930258 77.06310086 -133.4176536 76.92691062 -130.5 77.4375 C-124.71842404 81.05098498 -121.91234921 88.92563797 -119.109375 94.953125 C-118.76046204 95.69342957 -118.41154907 96.43373413 -118.05206299 97.19647217 C-117.31701943 98.75845509 -116.58436344 100.32156361 -115.85400391 101.88574219 C-114.41313255 104.97141186 -112.96024744 108.05136419 -111.50636292 111.13092041 C-110.77452325 112.69800236 -110.0536686 114.27025499 -109.34312439 115.84710693 C-107.5619201 119.78686669 -105.71266365 123.55381506 -103.46704102 127.25097656 C-94.14131817 143.46675036 -95.96175984 161.5147688 -96.38201904 179.60400391 C-96.47536634 184.05592038 -96.51545927 188.50831712 -96.56054688 192.9609375 C-96.65604614 201.64206632 -96.81384367 210.32034178 -97 219 C-91.06 219 -85.12 219 -79 219 C-79.00888245 217.14664032 -79.01776489 215.29328064 -79.0269165 213.38375854 C-79.10794257 195.93231178 -79.16817715 178.48090302 -79.20724869 161.02931023 C-79.22787067 152.05689818 -79.25598429 143.08462658 -79.30175781 134.11230469 C-79.34163675 126.2916826 -79.36743546 118.47116223 -79.37635398 110.65044129 C-79.38156696 106.50969037 -79.39381161 102.36923046 -79.42292023 98.22857285 C-79.45010617 94.32976075 -79.45843868 90.43135905 -79.45243073 86.53246117 C-79.45352955 85.10300782 -79.46146486 83.67354051 -79.4768219 82.24416924 C-79.61288692 68.92444128 -79.61288692 68.92444128 -75 64 C-74.26813477 63.20118408 -74.26813477 63.20118408 -73.52148438 62.38623047 C-73.05033203 61.96744629 -72.57917969 61.54866211 -72.09375 61.1171875 C-71.52849609 60.60349609 -70.96324219 60.08980469 -70.38085938 59.56054688 C-69.76017578 59.00431641 -69.13949219 58.44808594 -68.5 57.875 C-58.97689418 49.1615882 -49.92727674 39.98368947 -40.84960938 30.81201172 C-35.61663373 25.53605049 -30.40609818 20.33236702 -24.73925781 15.51660156 C-21.71224316 12.87709918 -18.92993654 9.99640423 -16.125 7.125 C-7.58052488 -1.61366773 -7.58052488 -1.61366773 0 0 Z " fill="#010101" transform="translate(260,49)"/>
<path d="M0 0 C61.71 0 123.42 0 187 0 C187 52.8 187 105.6 187 160 C170.17 160 153.34 160 136 160 C135.95101562 155.35421875 135.90203125 150.7084375 135.8515625 145.921875 C135.81617493 142.97784286 135.78021431 140.03384009 135.7421875 137.08984375 C135.68189104 132.41752334 135.62371206 127.74524401 135.578125 123.07275391 C135.54123683 119.30547664 135.49486748 115.53842424 135.44193649 111.77133942 C135.42341127 110.33448483 135.40829637 108.89758207 135.39665604 107.46065521 C135.37976235 105.44730677 135.34959317 103.43408299 135.31884766 101.42089844 C135.29886215 99.70214508 135.29886215 99.70214508 135.2784729 97.94866943 C135.00202457 95.02143756 134.69876113 93.38046558 133 91 C129.60784749 88.53655831 126.27293697 88.74653315 122.18359375 88.74121094 C121.50668488 88.7377063 120.829776 88.73420166 120.13235474 88.73059082 C117.90063137 88.72180712 115.66922645 88.72761062 113.4375 88.734375 C111.88338154 88.73302738 110.3292635 88.73108604 108.77514648 88.72857666 C105.52030416 88.72562996 102.26557172 88.72990841 99.01074219 88.73925781 C94.84103143 88.75065213 90.67157815 88.74409023 86.50187683 88.73211288 C83.29339665 88.72488201 80.08497739 88.72718785 76.87649536 88.73236847 C75.33912119 88.73370157 73.80174147 88.73206914 72.26437378 88.72740936 C70.11490244 88.72232391 67.96584669 88.73008239 65.81640625 88.74121094 C64.59381104 88.74280212 63.37121582 88.74439331 62.11157227 88.74603271 C59.10349423 88.99155278 57.46120548 89.30316876 55 91 C52.62419103 94.56371346 52.72953031 96.16609813 52.68115234 100.39916992 C52.66608391 101.36543053 52.66608391 101.36543053 52.65071106 102.35121155 C52.61985295 104.47762165 52.60283707 106.6039057 52.5859375 108.73046875 C52.56722791 110.20592841 52.54765466 111.68137735 52.5272522 113.15681458 C52.47590264 117.03817425 52.43629219 120.91956863 52.39910889 124.80108643 C52.3520489 129.45931021 52.29043902 134.11736144 52.23126221 138.77544403 C52.14301545 145.85022648 52.07327635 152.92497528 52 160 C34.84 160 17.68 160 0 160 C0 107.2 0 54.4 0 0 Z " fill="#F2D0B0" transform="translate(162,286)"/>
<path d="M0 0 C37.62 0 75.24 0 114 0 C114 45.87 114 91.74 114 139 C76.38 139 38.76 139 0 139 C0 93.13 0 47.26 0 0 Z " fill="#D6AA89" transform="translate(199,130)"/>
<path d="M0 0 C3.21052474 1.60526237 3.97652534 4.94954639 5.37109375 8.10546875 C5.69408951 8.82229324 6.01708527 9.53911774 6.34986877 10.27766418 C7.38512893 12.57828223 8.41157282 14.88270691 9.4375 17.1875 C10.46161216 19.47361527 11.48752428 21.75891109 12.51441956 24.04377747 C13.15310131 25.4664489 13.78987252 26.8899801 14.42442322 28.3144989 C14.71805252 28.97150284 15.01168182 29.62850677 15.31420898 30.30541992 C15.56798813 30.8753215 15.82176727 31.44522308 16.08323669 32.03239441 C17.01544808 34.13340595 17.01544808 34.13340595 18.53474998 36.48469448 C20.48901351 41.1732004 20.40676024 45.18432243 20.36076355 50.2124939 C20.36332682 51.23850854 20.3658901 52.26452317 20.36853105 53.32162917 C20.37347064 56.75803657 20.35697267 60.19400419 20.34057617 63.63037109 C20.33972994 66.09427887 20.34020496 68.55818739 20.34190369 71.02209473 C20.34258674 76.32590764 20.33408016 81.62958378 20.31719017 86.93336105 C20.29278622 94.60166383 20.28499348 102.2699131 20.2812262 109.9382505 C20.2746639 122.38025077 20.25470876 134.82219196 20.22631836 147.26416016 C20.19877205 159.34879257 20.17754127 171.43340893 20.16479492 183.51806641 C20.16400675 184.26323896 20.16321858 185.00841151 20.16240653 185.77616505 C20.15849135 189.51455896 20.15470024 193.25295298 20.15097082 196.99134707 C20.1198818 227.99427568 20.06622514 258.99712562 20 290 C7.13 290 -5.74 290 -19 290 C-19.34065159 258.82381364 -19.60847281 227.64831006 -19.76597994 196.47070524 C-19.78473563 192.77164544 -19.80415094 189.07258938 -19.82397461 185.37353516 C-19.82790927 184.63726601 -19.83184392 183.90099687 -19.83589781 183.14241654 C-19.90078062 171.29413412 -20.01882623 159.44696792 -20.15729194 147.59934288 C-20.29865983 135.39964437 -20.38110862 123.20052134 -20.41132742 111.00003767 C-20.42988277 104.16468629 -20.47405777 97.3316616 -20.58595085 90.49714661 C-21.41932708 36.84008576 -21.41932708 36.84008576 -5.71272469 11.81465149 C-3.39898239 8.01230178 -1.69464732 4.11013547 0 0 Z " fill="#D4A988" transform="translate(385,156)"/>
<path d="M0 0 C2.68322595 2.68322595 3.88294814 5.85546371 5.40625 9.2734375 C5.73161743 9.99359039 6.05698486 10.71374329 6.39221191 11.45571899 C7.43241387 13.76024844 8.46638632 16.06750912 9.5 18.375 C10.53489012 20.67475583 11.57104379 22.97393718 12.60778809 25.27285767 C13.25246169 26.703539 13.89582735 28.13481062 14.53771973 29.56674194 C16.20357338 33.30601197 16.20357338 33.30601197 18.08288562 36.9399693 C19.12151398 39.27294582 19.24863524 40.86749273 19.24609566 43.41215134 C19.25007775 44.29444782 19.25405985 45.1767443 19.25816262 46.08577704 C19.24942409 47.53324203 19.24942409 47.53324203 19.24050903 49.00994873 C19.24221788 50.03833807 19.24392673 51.06672741 19.24568737 52.12628007 C19.24898953 55.58262932 19.23796648 59.03878573 19.22705078 62.49511719 C19.22648682 64.96858211 19.22680292 67.44204736 19.22793579 69.91551208 C19.22839167 75.24606571 19.22270777 80.57655896 19.21146011 85.90709686 C19.19520848 93.61415723 19.18999745 101.32119392 19.18748413 109.02826956 C19.1831065 121.53236891 19.16979554 134.03644216 19.15087891 146.54052734 C19.13252187 158.68733591 19.1183645 170.83413739 19.10986328 182.98095703 C19.10907511 184.10398453 19.10907511 184.10398453 19.10827102 185.24969944 C19.10566095 189.00561875 19.10313353 192.7615381 19.10064721 196.51745749 C19.07991258 227.67832455 19.0441349 258.83915689 19 290 C6.46 290 -6.08 290 -19 290 C-19.31781903 258.66234331 -19.56784358 227.3252769 -19.71491461 195.98639231 C-19.73242031 192.26973411 -19.75054123 188.55307915 -19.76904297 184.83642578 C-19.77271531 184.0966414 -19.77638766 183.35685702 -19.78017129 182.59465493 C-19.84075865 170.68366913 -19.95095261 158.77364877 -20.08013915 146.86323188 C-20.2119961 134.60251289 -20.28901716 122.34229233 -20.31723893 110.08089364 C-20.33457108 103.2099774 -20.37590755 96.34107549 -20.48022079 89.47088242 C-21.27712073 35.41820148 -21.27712073 35.41820148 -6.70306778 12.70929337 C-4.14163545 8.63448689 -2.06586115 4.34192131 0 0 Z " fill="#D7AB8A" transform="translate(126,156)"/>
<path d="M0 0 C9.9 0 19.8 0 30 0 C30 52.8 30 105.6 30 160 C20.1 160 10.2 160 0 160 C0 107.2 0 54.4 0 0 Z " fill="#F3D1B0" transform="translate(422,286)"/>
<path d="M0 0 C9.9 0 19.8 0 30 0 C30 52.8 30 105.6 30 160 C20.1 160 10.2 160 0 160 C0 107.2 0 54.4 0 0 Z " fill="#F3D1B0" transform="translate(60,286)"/>
<path d="M0 0 C16.5 0 33 0 50 0 C50 18.15 50 36.3 50 55 C33.5 55 17 55 0 55 C0 36.85 0 18.7 0 0 Z " fill="#E0E7F1" transform="translate(231,391)"/>
<path d="M0 0 C1.50783302 -0.01073296 1.50783302 -0.01073296 3.04612732 -0.02168274 C4.15317017 -0.02437164 5.26021301 -0.02706055 6.40080261 -0.02983093 C8.1448362 -0.03968773 8.1448362 -0.03968773 9.92410278 -0.04974365 C13.78507037 -0.06951073 17.64599903 -0.08114623 21.50700378 -0.09111023 C23.48075265 -0.09722352 23.48075265 -0.09722352 25.49437523 -0.10346031 C31.73875605 -0.12251274 37.98312504 -0.13674355 44.22752935 -0.14507228 C51.43543241 -0.15484483 58.64302838 -0.18116416 65.85082322 -0.22157317 C71.4220235 -0.25173496 76.99313577 -0.2665412 82.56441611 -0.26985329 C85.89191583 -0.27220383 89.2190124 -0.28313485 92.54644203 -0.30631447 C96.25986506 -0.330577 99.97248138 -0.32976404 103.68595886 -0.32279968 C104.78692902 -0.33560974 105.88789917 -0.3484198 107.02223206 -0.36161804 C114.47192135 -0.31058694 114.47192135 -0.31058694 118.42233276 2.05154419 C120.94738524 4.966784 120.84157203 6.54998728 120.60075378 10.24482727 C120.09796078 12.87773259 119.19729448 14.33252107 117.23747253 16.14717102 C114.31785015 17.12037848 112.4328131 17.27937918 109.39265442 17.29434204 C107.89538063 17.305075 107.89538063 17.305075 106.36785889 17.31602478 C104.72671364 17.32005814 104.72671364 17.32005814 103.05241394 17.32417297 C101.32279167 17.33402977 101.32279167 17.33402977 99.55822754 17.34408569 C95.73516275 17.36382796 91.91213721 17.375482 88.08903503 17.38545227 C86.13321062 17.39156556 86.13321062 17.39156556 84.1378746 17.39780235 C77.95116233 17.4168458 71.76446194 17.43107985 65.57772601 17.43941432 C58.4388824 17.44919073 51.30034852 17.47552388 44.16161406 17.51591522 C38.64134859 17.54607652 33.12117194 17.5608831 27.60082567 17.56419533 C24.30463847 17.56654542 21.00885825 17.57747266 17.71274185 17.60065651 C14.0353481 17.62491904 10.35876893 17.62410626 6.68132019 17.61714172 C5.59127182 17.62995178 4.50122345 17.64276184 3.37814331 17.65596008 C-3.96778377 17.60514553 -3.96778377 17.60514553 -7.91136169 15.3326416 C-10.5190247 12.25405682 -10.83278635 10.15192743 -10.76252747 6.14717102 C-7.68099204 1.25921828 -5.60919592 0.0273457 0 0 Z " fill="#000000" transform="translate(200.7625274658203,318.8528289794922)"/>
<path d="M0 0 C3.245613 1.42074324 5.3626159 3.13762681 7.828125 5.66796875 C8.54613281 6.39693359 9.26414062 7.12589844 10.00390625 7.87695312 C10.74511719 8.63943359 11.48632812 9.40191406 12.25 10.1875 C17.01631576 15.06810575 21.81645 19.77847279 26.99121094 24.22485352 C30.64492784 27.45360602 34.06297808 30.91888352 37.5 34.375 C38.22703125 35.09816406 38.9540625 35.82132813 39.703125 36.56640625 C40.38890625 37.25347656 41.0746875 37.94054687 41.78125 38.6484375 C42.40064453 39.26895996 43.02003906 39.88948242 43.65820312 40.52880859 C45 42 45 42 45 43 C15.96 43 -13.08 43 -43 43 C-39.46970979 38.88132809 -36.11951474 34.9923739 -32.3203125 31.1875 C-31.47339844 30.33929688 -30.62648437 29.49109375 -29.75390625 28.6171875 C-28.88636719 27.75351563 -28.01882812 26.88984375 -27.125 26 C-26.26519531 25.13632813 -25.40539062 24.27265625 -24.51953125 23.3828125 C-20.05643161 18.9264854 -15.52596592 14.62828085 -10.74169922 10.51904297 C-8.38952169 8.46756433 -6.18916588 6.28587159 -4 4.0625 C-3.236875 3.29035156 -2.47375 2.51820312 -1.6875 1.72265625 C-1.130625 1.15417969 -0.57375 0.58570312 0 0 Z " fill="#E5ECF7" transform="translate(255,70)"/>
<path d="M0 0 C1.1446875 -0.01583633 2.289375 -0.03167267 3.46875 -0.04798889 C5.30953125 -0.04054909 5.30953125 -0.04054909 7.1875 -0.03295898 C8.4559375 -0.03915756 9.724375 -0.04535614 11.03125 -0.05174255 C13.7114989 -0.05884259 16.39024516 -0.05761212 19.0703125 -0.04296875 C22.49720286 -0.02577325 25.92241764 -0.04929048 29.34912109 -0.08445835 C32.62860051 -0.11175122 35.90793907 -0.10169513 39.1875 -0.09545898 C41.02828125 -0.1153463 41.02828125 -0.1153463 42.90625 -0.13563538 C52.36667204 -0.03205381 52.36667204 -0.03205381 55.46875 2.85009766 C57.71958328 6.36414716 57.78397665 8.43267029 57.1875 12.53344727 C55.42734869 15.71848296 54.68859084 16.36641699 51.1875 17.53344727 C49.3586413 17.64643604 47.52603899 17.70253818 45.69384766 17.72631836 C44.00662094 17.75041275 44.00662094 17.75041275 42.28530884 17.7749939 C37.15116236 17.81944115 32.0171036 17.86092908 26.8828125 17.88354492 C24.17250868 17.89689016 21.46295674 17.92475636 18.75292969 17.96557617 C14.8483279 18.02438074 10.94409195 18.04220385 7.0390625 18.05688477 C5.82747467 18.07955414 4.61588684 18.10222351 3.36758423 18.12557983 C-5.98485548 18.10201492 -5.98485548 18.10201492 -9.07421875 15.13183594 C-11.78929659 11.07332844 -11.57558569 9.34088711 -10.8125 4.53344727 C-7.32457396 0.98625251 -4.92324823 0.03039012 0 0 Z " fill="#010000" transform="translate(232.8125,190.466552734375)"/>
<path d="M0 0 C1.86936218 -0.00006042 1.86936218 -0.00006042 3.77648926 -0.00012207 C7.08270217 0.00660566 10.38771077 0.03659154 13.69366455 0.07556152 C15.7170225 0.09373448 17.7397539 0.09632063 19.76318359 0.09277344 C23.6549046 0.08612011 27.54585638 0.10122521 31.4375 0.125 C33.24547058 0.12530212 33.24547058 0.12530212 35.08996582 0.12561035 C36.77696594 0.14947815 36.77696594 0.14947815 38.49804688 0.17382812 C39.48446167 0.18224731 40.47087646 0.1906665 41.48718262 0.19934082 C44.69984689 0.66321526 46.60444883 1.69818988 49.21875 3.59375 C50.78810594 6.73246188 50.57076103 9.13230822 50.21875 12.59375 C48.56562263 15.21832482 47.87267912 16.17345567 45.21875 17.59375 C40.80443662 18.3435043 36.43300053 18.26996486 31.96484375 18.22265625 C30.02533592 18.22627419 30.02533592 18.22627419 28.04664612 18.22996521 C25.31536273 18.23281777 22.58490189 18.21817572 19.85375977 18.19067383 C16.35742414 18.15655578 12.86255526 18.16262433 9.36614895 18.1813364 C6.02390177 18.19445875 2.68208068 18.17619057 -0.66015625 18.16015625 C-1.91437881 18.16511612 -3.16860138 18.17007599 -4.46083069 18.17518616 C-6.20800636 18.15143166 -6.20800636 18.15143166 -7.99047852 18.12719727 C-9.01464371 18.12099869 -10.0388089 18.11480011 -11.0940094 18.1084137 C-14.51447032 17.45332272 -15.69934715 16.34694535 -17.78125 13.59375 C-18.72349161 6.99805875 -18.72349161 6.99805875 -16.04077148 2.99975586 C-11.75361756 -1.11876354 -5.54758117 -0.0754609 0 0 Z " fill="#030202" transform="translate(239.78125,152.40625)"/>
<path d="M0 0 C1.18803223 -0.01260864 2.37606445 -0.02521729 3.60009766 -0.03820801 C4.87933105 -0.03011108 6.15856445 -0.02201416 7.4765625 -0.01367188 C8.79317871 -0.01749878 10.10979492 -0.02132568 11.46630859 -0.02526855 C14.25051684 -0.03115911 17.03421099 -0.02261601 19.81835938 -0.00390625 C23.38305583 0.01888437 26.94654768 0.00575872 30.51119995 -0.01819611 C33.9164168 -0.03614518 37.32131144 -0.02356965 40.7265625 -0.01367188 C42.6454126 -0.02581726 42.6454126 -0.02581726 44.60302734 -0.03820801 C46.38507568 -0.01929504 46.38507568 -0.01929504 48.203125 0 C49.24807129 0.00318237 50.29301758 0.00636475 51.36962891 0.00964355 C54.82616754 0.65230027 56.00289829 1.7362806 58.1015625 4.51757812 C58.97234902 10.00353318 58.97234902 10.00353318 58.1015625 12.51757812 C55.35372623 15.67968799 53.60156811 17.25981069 49.42858887 17.97691345 C46.0895644 18.14650389 42.78447186 18.15784551 39.44140625 18.11132812 C38.21877579 18.11136841 36.99614532 18.11140869 35.73646545 18.1114502 C33.1568588 18.10609816 30.57725239 18.08852939 27.99780273 18.05957031 C24.04946084 18.01768843 20.10282364 18.01850609 16.15429688 18.02539062 C13.64582148 18.01489889 11.13735487 18.00196089 8.62890625 17.98632812 C6.85845192 17.986026 6.85845192 17.986026 5.05223083 17.98571777 C3.95081253 17.96980591 2.84939423 17.95389404 1.71459961 17.9375 C0.74896591 17.92908081 -0.21666779 17.92066162 -1.21156311 17.9119873 C-4.39704076 17.44438762 -6.30264113 16.39399442 -8.8984375 14.51757812 C-10.46314983 11.38815347 -10.59545708 7.90675589 -9.8984375 4.51757812 C-6.84712304 0.65816633 -4.85386084 0.01478238 0 0 Z " fill="#040302" transform="translate(231.8984375,228.482421875)"/>
</svg>
