<?xml version="1.0" encoding="UTF-8"?>
<svg version="1.1" xmlns="http://www.w3.org/2000/svg" width="512" height="512">
<path d="M0 0 C2.87029869 1.79393668 4.49131638 2.98263276 6 6 C6.01877434 8.05683293 6.03518385 10.11373569 6.03540039 12.1706543 C5.95146522 21.24532354 5.95146522 21.24532354 10.5625 28.6875 C12.01034604 29.8324279 13.48981778 30.93864816 15 32 C16.28298876 33.09001891 17.55394305 34.19436056 18.8125 35.3125 C19.46863281 35.87582031 20.12476563 36.43914063 20.80078125 37.01953125 C23.46477329 39.41854362 25.98337327 41.94892842 28.5 44.5 C31.57389855 47.61579869 34.66702191 50.65877278 38 53.5 C54.00479409 67.3796762 54.00479409 67.3796762 55 77 C56.01911941 81.92089088 56.87641116 85.84760119 60.4375 89.5 C63.82179332 90.92496561 66.45632209 91.43688808 70.0625 91.9375 C74.1805248 92.51484095 75.77185847 92.83001219 79.1875 95.375 C82.38706993 100.0088599 82.14011056 104.3953433 82.11352539 109.88964844 C82.11367142 110.68027176 82.11381744 111.47089508 82.1139679 112.28547668 C82.11327236 114.89347089 82.10549675 117.5013933 82.09765625 120.109375 C82.0957908 121.91969768 82.09436749 123.73002087 82.09336853 125.54034424 C82.08955339 130.30130409 82.07973165 135.06223337 82.06866455 139.82318115 C82.05842887 144.68289781 82.05386629 149.54261942 82.04882812 154.40234375 C82.0381085 163.93490926 82.0210441 173.46745208 82 183 C82.88260498 182.97381592 83.76520996 182.94763184 84.67456055 182.9206543 C87.9641158 182.83519725 91.25248422 182.77264255 94.54272461 182.7253418 C95.96381291 182.70026853 97.38477313 182.66620001 98.80541992 182.62280273 C100.85367462 182.56182142 102.90021883 182.53372238 104.94921875 182.51171875 C106.17987061 182.48553467 107.41052246 182.45935059 108.6784668 182.43237305 C112.92496667 183.15807038 114.34845333 184.67969366 117 188 C118.28694112 191.86082336 118.13440961 195.50018519 118.12025452 199.522995 C118.12153615 200.84378554 118.12153615 200.84378554 118.12284368 202.19125873 C118.12449587 205.15316103 118.11898134 208.11500718 118.11352539 211.0769043 C118.11324344 213.19554645 118.11340141 215.31418871 118.1139679 217.43283081 C118.11425555 223.19487461 118.10836396 228.95689771 118.10139394 234.71893668 C118.0951551 240.73676178 118.09455618 246.75458733 118.09336853 252.77241516 C118.09025678 264.17271972 118.08204549 275.57301472 118.07201904 286.97331506 C118.06085306 299.95016185 118.05534623 312.9270091 118.05032361 325.9038595 C118.03986276 352.6025783 118.02226633 379.30128862 118 406 C118.94319092 405.97905273 119.88638184 405.95810547 120.8581543 405.93652344 C124.37127524 405.86818572 127.88368585 405.81812253 131.3972168 405.78027344 C132.9152341 405.76020797 134.43317459 405.73294866 135.95092773 405.69824219 C138.13805122 405.64949607 140.32414952 405.62698195 142.51171875 405.609375 C143.82615967 405.58842773 145.14060059 405.56748047 146.49487305 405.54589844 C150.54750786 406.07093157 152.14662035 407.13830534 155 410 C156.43509221 412.87018441 156.11158506 415.33543723 156.09765625 418.5390625 C156.09443359 419.84101563 156.09121094 421.14296875 156.08789062 422.484375 C156.07953466 423.86458399 156.07106971 425.24479232 156.0625 426.625 C156.05748501 428.01301926 156.0529221 429.40104022 156.04882812 430.7890625 C156.03700976 434.19275132 156.02053434 437.59635439 156 441 C157.03406982 440.98428955 158.06813965 440.9685791 159.13354492 440.95239258 C162.98193527 440.89795946 166.83029179 440.86360151 170.67895508 440.83520508 C172.34242481 440.82014886 174.00585505 440.79969937 175.66918945 440.77368164 C178.06471522 440.73715793 180.45971467 440.72024218 182.85546875 440.70703125 C183.5952446 440.69154739 184.33502045 440.67606354 185.09721375 440.66011047 C189.59366278 440.65865568 192.445595 441.19609242 196 444 C198.27517076 447.41275615 198.26072835 448.66532463 198.29052734 452.67724609 C198.30328705 453.84210541 198.31604675 455.00696472 198.32919312 456.2071228 C198.33253159 458.09619858 198.33253159 458.09619858 198.3359375 460.0234375 C198.3425943 461.31690094 198.3492511 462.61036438 198.35610962 463.94302368 C198.36808273 466.68177629 198.37179048 469.42040276 198.37060547 472.15917969 C198.37040238 475.6620698 198.39769173 479.1641476 198.43214989 482.66684532 C198.45979026 486.01488812 198.45856877 489.36278208 198.4609375 492.7109375 C198.47530853 493.96627289 198.48967957 495.22160828 198.50448608 496.51498413 C198.49833282 497.68614777 198.49217957 498.8573114 198.48583984 500.06396484 C198.48868988 501.09194183 198.49153992 502.11991882 198.49447632 503.17904663 C197.87057628 506.73835342 196.47158236 508.41412356 194 511 C191.15759076 512.42120462 188.76327169 512.13083576 185.58339214 512.13701439 C184.91398646 512.13966622 184.24458077 512.14231804 183.55489007 512.14505023 C181.28972788 512.15276961 179.02461967 512.1533034 176.75944519 512.15390015 C175.12786053 512.15791302 173.49627687 512.16235095 171.86469442 512.1671797 C167.36384367 512.17917037 162.86300366 512.1847994 158.36214006 512.18936086 C153.51471968 512.19530744 148.66731221 512.20691954 143.81990051 512.21765137 C132.10537493 512.2421957 120.39084508 512.25680479 108.67630169 512.26971143 C105.36958593 512.27342166 102.06287059 512.27739502 98.75615525 512.2814641 C78.23705192 512.30669711 57.71794794 512.32875771 37.19883251 512.34119225 C32.44399704 512.34412211 27.68916159 512.34708375 22.93432617 512.35009766 C21.75248528 512.35084371 20.57064438 512.35158976 19.35299013 512.35235842 C0.19613188 512.36501946 -18.96063371 512.39825153 -38.11744861 512.43989949 C-57.76958236 512.48227536 -77.42166861 512.50588218 -97.07384795 512.51111281 C-108.11426013 512.5145317 -119.15452747 512.52634312 -130.19489479 512.55921555 C-139.5948942 512.58715743 -148.9947191 512.5982412 -158.39475683 512.58702008 C-163.19338604 512.58181852 -167.99164945 512.58481697 -172.79022598 512.60948563 C-177.18043464 512.63186722 -181.57001238 512.63132536 -185.96023127 512.61228175 C-187.55110643 512.60946609 -189.14202337 512.61516663 -190.73283098 512.63009469 C-192.89128466 512.64911618 -195.0474688 512.63747383 -197.20586872 512.61803246 C-198.40583998 512.61938898 -199.60581124 512.62074551 -200.84214526 512.62214315 C-204.93291414 511.81620239 -206.42670947 510.2110198 -209 507 C-209.63491821 504.15454102 -209.63491821 504.15454102 -209.64697266 501.00390625 C-209.66273346 499.81917725 -209.67849426 498.63444824 -209.69473267 497.41381836 C-209.68461151 496.1428833 -209.67449036 494.87194824 -209.6640625 493.5625 C-209.67123795 491.59325562 -209.67123795 491.59325562 -209.67855835 489.58422852 C-209.68591486 486.81008373 -209.67526586 484.03674598 -209.65185547 481.26269531 C-209.62336572 477.71470402 -209.63977664 474.16860373 -209.66971779 470.62068176 C-209.69217705 467.22613804 -209.67643158 463.83209739 -209.6640625 460.4375 C-209.67418365 459.16656494 -209.68430481 457.89562988 -209.69473267 456.58618164 C-209.56452475 446.79854018 -209.56452475 446.79854018 -206.58349609 443.72265625 C-202.29469689 440.86291639 -199.18640217 440.86791536 -194.1484375 440.90234375 C-193.37440582 440.9037587 -192.60037415 440.90517365 -191.80288696 440.90663147 C-189.32688558 440.91223597 -186.85097412 440.92478917 -184.375 440.9375 C-182.69791797 440.94251442 -181.02083453 440.94707743 -179.34375 440.95117188 C-175.22913194 440.96220685 -171.11458122 440.97947446 -167 441 C-167.02094727 440.18321777 -167.04189453 439.36643555 -167.06347656 438.52490234 C-167.1468513 434.80839445 -167.19872988 431.09208367 -167.25 427.375 C-167.28351563 426.08980469 -167.31703125 424.80460937 -167.3515625 423.48046875 C-167.47477167 411.59078426 -167.47477167 411.59078426 -163 407 C-159.98786971 405.49393485 -156.88717378 405.87839669 -153.5859375 405.90234375 C-152.85629791 405.9037587 -152.12665833 405.90517365 -151.37490845 405.90663147 C-149.04156415 405.91223469 -146.70831536 405.92478765 -144.375 405.9375 C-142.79427222 405.94251459 -141.21354293 405.94707757 -139.6328125 405.95117188 C-135.75517146 405.96220516 -131.87760193 405.97947189 -128 406 C-128.00368717 404.88624906 -128.00737434 403.77249811 -128.01117325 402.62499714 C-128.09991438 375.543097 -128.16567587 348.46121569 -128.20724869 321.37920094 C-128.22788661 308.28261464 -128.25603082 295.18612431 -128.30175781 282.08959961 C-128.34158778 270.67659702 -128.36742386 259.26366391 -128.37635398 247.85059375 C-128.3815752 241.80569686 -128.39387275 235.7609988 -128.42292023 229.71616554 C-128.45002848 224.02892003 -128.4584542 218.34195563 -128.45243073 212.65465164 C-128.45353301 210.56524949 -128.46151401 208.47583814 -128.4768219 206.38649178 C-128.49667775 203.53712438 -128.49195509 200.68882302 -128.48101807 197.83943176 C-128.49266943 197.00966019 -128.5043208 196.17988862 -128.51632524 195.32497245 C-128.47496713 191.34789763 -128.28649575 189.44965013 -126.09493637 186.01003551 C-122.49943936 182.56025213 -119.54891561 182.86683773 -114.8046875 182.90234375 C-114.09724396 182.9037587 -113.38980042 182.90517365 -112.66091919 182.90663147 C-110.39890331 182.912234 -108.13698602 182.92478682 -105.875 182.9375 C-104.34244935 182.94251468 -102.80989714 182.94707764 -101.27734375 182.95117188 C-97.51819112 182.96220423 -93.75911228 182.97947048 -90 183 C-90.00888245 181.95874466 -90.01776489 180.91748932 -90.0269165 179.84468079 C-90.10801209 170.03063118 -90.1679701 160.21664957 -90.20724869 150.40234089 C-90.22812116 145.35670822 -90.25643274 140.3113461 -90.30175781 135.26586914 C-90.34522748 130.39644398 -90.36913967 125.52727901 -90.37950897 120.65767479 C-90.38689832 118.8001108 -90.40132803 116.942561 -90.42292023 115.0851078 C-90.45196935 112.48261396 -90.45595541 109.88119441 -90.45410156 107.27856445 C-90.46848267 106.5110788 -90.48286377 105.74359314 -90.49768066 104.95285034 C-90.46956215 101.30339228 -90.11423654 99.1838109 -88.1708374 96.05680847 C-85.26704979 93.30554992 -82.8998236 92.83110995 -79 92 C-77.41642332 91.646923 -75.83309487 91.29273104 -74.25 90.9375 C-73.14398438 90.70353516 -73.14398438 90.70353516 -72.015625 90.46484375 C-69.81349758 89.99058252 -69.81349758 89.99058252 -67 89 C-64.56389855 84.35460654 -64.32807017 79.39229182 -63.7578125 74.25390625 C-62.10075953 67.1388283 -57.03228061 62.88692865 -51.8125 58.1875 C-50.46236087 56.95180975 -49.11339853 55.71483249 -47.765625 54.4765625 C-47.11658203 53.88133789 -46.46753906 53.28611328 -45.79882812 52.67285156 C-43.49238865 50.52793798 -41.27008748 48.30868166 -39.0625 46.0625 C-36.50078753 43.46262421 -33.89878448 40.9969485 -31.125 38.625 C-30.48691406 38.0578125 -29.84882813 37.490625 -29.19140625 36.90625 C-27.53150803 35.46234567 -25.82129705 34.07602346 -24.08984375 32.71875 C-17.79858784 27.36831256 -17.79858784 27.36831256 -15.21875 19.72265625 C-15.08261121 17.46823679 -15.0592723 15.27078402 -15.14672852 13.01416016 C-15.33742038 7.74959307 -14.36837605 5.05073584 -11 1 C-7.54260443 -0.72869779 -3.78024432 -0.48966895 0 0 Z " fill="#010100" transform="translate(262,0)"/>
<path d="M0 0 C67.65 0 135.3 0 205 0 C205 66.99 205 133.98 205 203 C196.42 203 187.84 203 179 203 C178.9845388 199.66499641 178.9845388 199.66499641 178.96876526 196.26261902 C178.87135478 175.35187912 178.76852326 154.44117093 178.66066074 133.53048229 C178.60533329 122.77904034 178.55185206 112.02759508 178.50268555 101.27612305 C178.45983787 91.90743851 178.41355838 82.53877837 178.36312145 73.1701315 C178.33652524 68.20745027 178.31167224 63.24477386 178.29092598 58.28206444 C178.27135845 53.61427368 178.24721427 48.94652932 178.21950912 44.27877998 C178.21013932 42.56267514 178.20246378 40.8465601 178.19658089 39.13043976 C178.18831854 36.79301936 178.17404148 34.45571154 178.15821838 32.11833191 C178.15176583 30.80846408 178.14531328 29.49859625 178.1386652 28.14903545 C178.14294399 24.97185267 178.14294399 24.97185267 177 22 C173.31567203 19.99993624 170.1498736 19.4812658 166 20 C163.30009338 21.79993774 161.4581135 23.083773 160 26 C159.89321886 28.3181792 159.85326978 30.63950476 159.84178162 32.96011353 C159.83684364 33.68461114 159.83190566 34.40910876 159.82681805 35.15556085 C159.81139862 37.59540407 159.80307045 40.03522088 159.79467773 42.47509766 C159.7851027 44.21921523 159.77509284 45.96333047 159.76467896 47.70744324 C159.73758322 52.4530263 159.71659898 57.19861936 159.69667697 61.94423723 C159.67484615 66.89972294 159.64744329 71.85517768 159.62062073 76.81063843 C159.57065448 86.19932783 159.52573027 95.58803439 159.48259836 104.97675741 C159.43325955 115.66344072 159.378329 126.35009297 159.32291877 137.03674626 C159.20903838 159.02446876 159.10241092 181.01222136 159 203 C151.08 203 143.16 203 135 203 C134.99453156 199.66832733 134.99453156 199.66832733 134.98895264 196.26934814 C134.95276146 175.37357704 134.89460584 154.47795009 134.81609726 133.58229446 C134.77626249 122.83871454 134.74389257 112.09520834 134.72900391 101.3515625 C134.71601037 91.98903064 134.68910464 82.62666069 134.64538693 73.26422 C134.62272032 68.30536361 134.60709243 63.34670729 134.60811615 58.38779449 C134.6088597 53.7223063 134.59103224 49.05726125 134.55883217 44.39188766 C134.5502988 42.6778274 134.54860643 40.96371762 134.55419731 39.24964523 C134.56080741 36.91210373 134.54299077 34.57598462 134.51898193 32.23858643 C134.51529476 30.92964039 134.51160759 29.62069435 134.50780869 28.27208328 C133.91657526 24.4624497 133.01110508 23.31684482 130 21 C127.14675563 19.57337781 125.16545451 19.68966132 122 20 C119.30009338 21.79993774 117.4581135 23.083773 116 26 C115.89321886 28.3181792 115.85326978 30.63950476 115.84178162 32.96011353 C115.83684364 33.68461114 115.83190566 34.40910876 115.82681805 35.15556085 C115.81139862 37.59540407 115.80307045 40.03522088 115.79467773 42.47509766 C115.7851027 44.21921523 115.77509284 45.96333047 115.76467896 47.70744324 C115.73758322 52.4530263 115.71659898 57.19861936 115.69667697 61.94423723 C115.67484615 66.89972294 115.64744329 71.85517768 115.62062073 76.81063843 C115.57065448 86.19932783 115.52573027 95.58803439 115.48259836 104.97675741 C115.43325955 115.66344072 115.378329 126.35009297 115.32291877 137.03674626 C115.20903838 159.02446876 115.10241092 181.01222136 115 203 C107.08 203 99.16 203 91 203 C90.97421875 199.79796875 90.9484375 196.5959375 90.921875 193.296875 C90.88346257 190.19571133 90.83829966 187.09471437 90.79248047 183.99365234 C90.76425501 181.83845987 90.74304835 179.68316357 90.72900391 177.52783203 C90.70759653 174.4294717 90.6609568 171.33236173 90.609375 168.234375 C90.60814636 167.27070007 90.60691772 166.30702515 90.60565186 165.31414795 C90.55489565 159.99346715 90.55489565 159.99346715 88.08691406 155.42285156 C84.52008666 152.99099966 82.3454197 152.57397846 78 153 C75.30009338 154.79993774 73.4581135 156.083773 72 159 C71.88252522 160.41882881 71.82314572 161.84271414 71.79467773 163.26611328 C71.77473251 164.14687531 71.75478729 165.02763733 71.73423767 165.93508911 C71.71752518 166.88721283 71.70081268 167.83933655 71.68359375 168.8203125 C71.6524221 170.28100662 71.6524221 170.28100662 71.62062073 171.77120972 C71.55511402 174.88906647 71.49623503 178.00700903 71.4375 181.125 C71.39431585 183.23568604 71.3507016 185.34636333 71.30664062 187.45703125 C71.19862023 192.63793407 71.09955507 197.81889984 71 203 C63.08 203 55.16 203 47 203 C46.99453156 199.66832733 46.99453156 199.66832733 46.98895264 196.26934814 C46.95276146 175.37357704 46.89460584 154.47795009 46.81609726 133.58229446 C46.77626249 122.83871454 46.74389257 112.09520834 46.72900391 101.3515625 C46.71601037 91.98903064 46.68910464 82.62666069 46.64538693 73.26422 C46.62272032 68.30536361 46.60709243 63.34670729 46.60811615 58.38779449 C46.6088597 53.7223063 46.59103224 49.05726125 46.55883217 44.39188766 C46.5502988 42.6778274 46.54860643 40.96371762 46.55419731 39.24964523 C46.56080741 36.91210373 46.54299077 34.57598462 46.51898193 32.23858643 C46.51529476 30.92964039 46.51160759 29.62069435 46.50780869 28.27208328 C45.91657526 24.4624497 45.01110508 23.31684482 42 21 C39.14675563 19.57337781 37.16545451 19.68966132 34 20 C31.30009338 21.79993774 29.4581135 23.083773 28 26 C27.89321886 28.3181792 27.85326978 30.63950476 27.84178162 32.96011353 C27.83684364 33.68461114 27.83190566 34.40910876 27.82681805 35.15556085 C27.81139862 37.59540407 27.80307045 40.03522088 27.79467773 42.47509766 C27.7851027 44.21921523 27.77509284 45.96333047 27.76467896 47.70744324 C27.73758322 52.4530263 27.71659898 57.19861936 27.69667697 61.94423723 C27.67484615 66.89972294 27.64744329 71.85517768 27.62062073 76.81063843 C27.57065448 86.19932783 27.52573027 95.58803439 27.48259836 104.97675741 C27.43325955 115.66344072 27.378329 126.35009297 27.32291877 137.03674626 C27.20903838 159.02446876 27.10241092 181.01222136 27 203 C18.09 203 9.18 203 0 203 C0 136.01 0 69.02 0 0 Z " fill="#FDC97B" transform="translate(154,203)"/>
<path d="M0 0 C93.39 0 186.78 0 283 0 C283 21.78 283 43.56 283 66 C247.03 66 211.06 66 174 66 C173.67 54.12 173.34 42.24 173 30 C167.76778785 25.06286762 167.76778785 25.06286762 161.99194336 24.38476562 C160.57533669 24.3708075 160.57533669 24.3708075 159.13011169 24.35656738 C157.62517906 24.38116028 157.62517906 24.38116028 156.08984375 24.40625 C155.04478165 24.40620972 153.99971954 24.40616943 152.92298889 24.40612793 C150.72000087 24.41147556 148.51701285 24.42902567 146.31420898 24.45800781 C142.94520718 24.49990415 139.57820311 24.49906998 136.20898438 24.4921875 C134.0650903 24.50267917 131.9212065 24.51561714 129.77734375 24.53125 C128.7720311 24.53145142 127.76671844 24.53165283 126.73094177 24.53186035 C119.83496559 24.58956208 119.83496559 24.58956208 114 28 C108.31766871 39.36466258 111.37354667 53.29941311 111 66 C74.37 66 37.74 66 0 66 C0 44.22 0 22.44 0 0 Z " fill="#FC9B6A" transform="translate(115,426)"/>
<path d="M0 0 C25.74 0 51.48 0 78 0 C79.65 4.29 81.3 8.58 83 13 C87.71669586 19.26315352 91.71488651 23.19355907 99 26 C100.65 26.66 102.3 27.32 104 28 C104 51.43 104 74.86 104 99 C60.77 99 17.54 99 -27 99 C-27 75.57 -27 52.14 -27 28 C-23.04 26.35 -19.08 24.7 -15 23 C-6.66213736 17.59582977 -3.37641969 9.00378584 0 0 Z " fill="#FBE3BD" transform="translate(219,84)"/>
<path d="M0 0 C1.15706703 -0.0131424 1.15706703 -0.0131424 2.33750916 -0.02655029 C4.87931102 -0.0484994 7.41936308 -0.03400747 9.96118164 -0.01708984 C11.73328484 -0.02045965 13.50538578 -0.02531364 15.27748108 -0.03158569 C18.98892248 -0.03895119 22.69976153 -0.02826356 26.41113281 -0.00488281 C31.16057595 0.02358436 35.90860508 0.00721264 40.65799618 -0.02274513 C44.31700726 -0.04084488 47.97568518 -0.03504755 51.6347065 -0.02210617 C53.38534272 -0.01877845 55.13600952 -0.0228369 56.88661003 -0.03450394 C59.33797728 -0.04725511 61.78708185 -0.02777853 64.23828125 0 C64.95691345 -0.01012115 65.67554565 -0.02024231 66.41595459 -0.03067017 C72.04840891 0.08712576 74.3851098 1.77210323 78.18383789 5.64697266 C79.22203035 8.75622597 78.97015069 11.47876344 78.18383789 14.64697266 C76.00224644 17.40266712 74.31206296 19.08286012 71.18383789 20.64697266 C68.77467673 20.76049131 66.39372508 20.8147614 63.98364258 20.82397461 C62.87112373 20.83383141 62.87112373 20.83383141 61.73612976 20.84388733 C59.27598981 20.8636341 56.81591099 20.87528694 54.35571289 20.88525391 C53.09543652 20.8913672 53.09543652 20.8913672 51.80970001 20.89760399 C47.3613357 20.91847223 42.9130023 20.93276975 38.46459961 20.94213867 C33.87340125 20.95319496 29.28268864 20.98758339 24.69166183 21.02731037 C21.15884512 21.05348035 17.62614395 21.06183091 14.09323883 21.06542015 C12.40118383 21.07028642 10.70913401 21.08190163 9.01717377 21.10045815 C6.64493079 21.1248549 4.27394184 21.12388396 1.90161133 21.11694336 C0.85867165 21.13615845 0.85867165 21.13615845 -0.20533752 21.15576172 C-5.16926837 21.10299668 -7.99221905 19.75283524 -11.81616211 16.64697266 C-12.9524033 14.37449028 -13.08063054 12.86394502 -13.19116211 10.33447266 C-13.24014648 9.57521484 -13.28913086 8.81595703 -13.33959961 8.03369141 C-11.81790648 1.09522498 -6.21456288 -0.08727953 0 0 Z " fill="#050404" transform="translate(224.816162109375,141.35302734375)"/>
<path d="M0 0 C3.49406769 1.66762322 4.82670681 2.74006022 7 6 C7.26069641 8.18734741 7.26069641 8.18734741 7.2746582 10.75927734 C7.28895622 12.20625504 7.28895622 12.20625504 7.30354309 13.6824646 C7.30263168 14.72311066 7.30172028 15.76375671 7.30078125 16.8359375 C7.30506638 17.90744049 7.3093515 18.97894348 7.31376648 20.08291626 C7.31951248 22.35084323 7.32000807 24.61878864 7.31567383 26.88671875 C7.31251866 30.35448756 7.33595378 33.82139951 7.36132812 37.2890625 C7.36360158 39.49218642 7.3643044 41.69531264 7.36328125 43.8984375 C7.372491 44.9350351 7.38170074 45.97163269 7.39118958 47.03964233 C7.33343295 56.04285949 7.33343295 56.04285949 4 60 C0.79062591 62.32402951 -2.11506021 62.47570691 -6 62 C-9.49885513 59.77345583 -11.44295391 57.81312 -13 54 C-13.27415466 51.77505493 -13.27415466 51.77505493 -13.30639648 49.32666016 C-13.32238388 48.40535309 -13.33837128 47.48404602 -13.35484314 46.53482056 C-13.36020584 45.5462204 -13.36556854 44.55762024 -13.37109375 43.5390625 C-13.38012222 42.51573822 -13.3891507 41.49241394 -13.39845276 40.43807983 C-13.41295161 38.27450484 -13.42184109 36.11088604 -13.42553711 33.94726562 C-13.43743239 30.64377697 -13.48662217 27.34215699 -13.53710938 24.0390625 C-13.54657403 21.93490493 -13.55380886 19.83073591 -13.55859375 17.7265625 C-13.57812607 16.7420108 -13.59765839 15.75745911 -13.61778259 14.74307251 C-13.58807394 10.20879811 -13.51002916 7.00573585 -10.59008789 3.39208984 C-6.89317179 -0.02221725 -4.99937829 -0.3921081 0 0 Z " fill="#050402" transform="translate(238,222)"/>
<path d="M0 0 C0.88126556 -0.0127597 1.76253113 -0.02551941 2.67050171 -0.03866577 C3.61535431 -0.04089142 4.56020691 -0.04311707 5.53369141 -0.04541016 C6.5126236 -0.05206696 7.49155579 -0.05872375 8.50015259 -0.06558228 C10.56958133 -0.07569997 12.63904264 -0.08039957 14.70849609 -0.08007812 C17.86692359 -0.0844473 21.02394894 -0.12076566 24.18212891 -0.15869141 C26.19514497 -0.16456061 28.20816766 -0.16852931 30.22119141 -0.17041016 C31.63239761 -0.19196671 31.63239761 -0.19196671 33.07211304 -0.21395874 C38.71565313 -0.17483375 42.08081853 0.43797298 46.51025391 4.29052734 C48.64524166 7.49300897 48.7841993 8.10053428 48.44775391 11.72802734 C48.39490234 12.48986328 48.34205078 13.25169922 48.28759766 14.03662109 C47.0998228 17.48057129 45.64362164 18.40052084 42.51025391 20.29052734 C38.83554944 20.8994731 35.19734182 20.87483328 31.47900391 20.85693359 C30.41033081 20.86313217 29.34165771 20.86933075 28.24060059 20.87571716 C25.9846284 20.88281057 23.72860381 20.87964975 21.47265625 20.86694336 C18.0219696 20.85307443 14.57399301 20.88716229 11.12353516 20.92529297 C8.92952408 20.92624415 6.7355096 20.92438539 4.54150391 20.91943359 C3.51118042 20.9326918 2.48085693 20.94595001 1.41931152 20.95960999 C-5.74372016 20.86653066 -5.74372016 20.86653066 -9.61669922 17.8762207 C-12.37304773 14.071152 -12.95316973 12.01744839 -12.48974609 7.29052734 C-9.24571621 2.1927661 -6.0141692 0.0593568 0 0 Z " fill="#060504" transform="translate(239.48974609375,102.70947265625)"/>
<path d="M0 0 C7.26 0 14.52 0 22 0 C22 9.9 22 19.8 22 30 C14.74 30 7.48 30 0 30 C0 20.1 0 10.2 0 0 Z " fill="#FC9B6B" transform="translate(418,462)"/>
<path d="M0 0 C7.26 0 14.52 0 22 0 C22 9.9 22 19.8 22 30 C14.74 30 7.48 30 0 30 C0 20.1 0 10.2 0 0 Z " fill="#FF9D6C" transform="translate(73,462)"/>
<path d="M0 0 C7.59 0 15.18 0 23 0 C23 7.26 23 14.52 23 22 C15.41 22 7.82 22 0 22 C0 14.74 0 7.48 0 0 Z " fill="#939CAD" transform="translate(246,470)"/>
<path d="M0 0 C3.15079917 1.21632661 5.34325282 3.04042966 7.78515625 5.3359375 C8.82833008 6.31433594 8.82833008 6.31433594 9.89257812 7.3125 C10.60865234 7.993125 11.32472656 8.67375 12.0625 9.375 C13.14241211 10.38433594 13.14241211 10.38433594 14.24414062 11.4140625 C17.52367911 14.50785182 20.27403242 17.36537656 23 21 C8.15 21 -6.7 21 -22 21 C-20.35 19.35 -18.7 17.7 -17 16 C-15.76618237 14.75594648 -14.53305723 13.51120559 -13.30078125 12.265625 C-11.97139924 10.92703857 -10.64197129 9.58849776 -9.3125 8.25 C-8.29833008 7.22326172 -8.29833008 7.22326172 -7.26367188 6.17578125 C-6.61591797 5.52480469 -5.96816406 4.87382813 -5.30078125 4.203125 C-4.71466064 3.61176758 -4.12854004 3.02041016 -3.5246582 2.41113281 C-2 1 -2 1 0 0 Z " fill="#FBE2BD" transform="translate(257,43)"/>
<path d="M0 0 C4.00079356 2.4449294 5.65936873 3.95918222 7.125 8.4375 C6.97001806 12.85448522 5.85971159 14.67655139 3 18 C-0.19879429 20.34578248 -3.10652889 20.47675156 -7 20 C-9.69990662 18.20006226 -11.5418865 16.916227 -13 14 C-13.5811138 6.91041162 -13.5811138 6.91041162 -11.125 3.0625 C-7.52217335 -0.43436116 -4.97275774 -0.49727577 0 0 Z " fill="#070403" transform="translate(366,451)"/>
<path d="M0 0 C3.5386994 1.65139305 4.81070153 2.71605229 7 6 C7.55248619 13.59668508 7.55248619 13.59668508 5 17 C2.32378584 19.0814999 0.40875611 19.93042449 -2.9375 20.5 C-7.25011712 19.79589925 -8.88856971 18.03907145 -12 15 C-13.41000664 12.17998673 -13.24548451 10.12992745 -13 7 C-10.01415562 0.74394511 -6.81497582 -0.58749792 0 0 Z " fill="#070403" transform="translate(326,451)"/>
<path d="M0 0 C2.66346536 2.1437648 3.7026198 3.58458461 4.40625 6.93359375 C4.7206953 11.09213286 4.3257515 12.59709683 1.625 15.9375 C-2.16080728 18.91206287 -4.17180697 19.47335226 -9 19 C-12.34213802 16.8731849 -14.89264987 14.87572544 -16 11 C-16 6.44609119 -15.43669827 4.52403792 -12.5 1 C-8.51495107 -1.90696806 -4.52672606 -1.53754073 0 0 Z " fill="#070403" transform="translate(197,452)"/>
<path d="M0 0 C4.04212164 2.47018545 5.67811019 3.93965709 7.0625 8.5 C6.97642701 13.32008768 5.52645066 15.47354934 2.1875 18.8125 C-0.77565641 20.42107062 -2.66759369 20.40804975 -6 20 C-8.77428577 18.73896101 -10.48317435 17.68910086 -12.3125 15.25 C-13.31199111 11.9789382 -13.3581657 9.40257412 -13 6 C-9.33404658 0.37887142 -6.67491925 -0.66749193 0 0 Z " fill="#070403" transform="translate(155,451)"/>
<path d="M0 0 C3.9295493 0.92685276 5.41241975 2.29808529 8.00390625 5.47265625 C8.80206186 8.6480523 8.76446448 11.29214003 8.00390625 14.47265625 C5.48556152 18.13570313 3.80106814 19.22626076 -0.43359375 20.53515625 C-4.82766964 20.4580672 -6.65939372 19.25323961 -9.99609375 16.47265625 C-11.74074823 12.98334729 -11.56059927 9.27978648 -10.99609375 5.47265625 C-8.10250338 1.041846 -5.38309693 -0.3983696 0 0 Z " fill="#060503" transform="translate(236.99609375,309.52734375)"/>
</svg>
