<?xml version="1.0" encoding="UTF-8"?>
<svg version="1.1" xmlns="http://www.w3.org/2000/svg" width="512" height="512">
<path d="M0 0 C5.28 0 10.56 0 16 0 C15.89816406 2.42472656 15.79632813 4.84945313 15.69140625 7.34765625 C14.40896597 25.21238666 14.40896597 25.21238666 20.1953125 41.37890625 C23.24634424 44.54483201 26.67356991 47.14622576 30.26855469 49.66503906 C35.69860329 53.8516586 38.86457126 61.41451333 40 68 C40 71.96 40 75.92 40 80 C92.8 80 145.6 80 200 80 C200 75.71 200 71.42 200 67 C202.59530576 58.27977266 206.86067875 51.36736436 213.97167969 45.58251953 C218.76459344 41.64782322 222.96072377 37.99164173 224.06835938 31.65283203 C224.5377538 26.84621542 224.41141274 22.06945971 224.25 17.25 C224.23799781 15.57034276 224.23144874 13.89063733 224.23046875 12.2109375 C224.22644767 8.13356038 224.11123248 4.08137643 224 0 C229.28 0 234.56 0 240 0 C239.89816406 2.42472656 239.79632813 4.84945313 239.69140625 7.34765625 C238.40896597 25.21238666 238.40896597 25.21238666 244.1953125 41.37890625 C247.24634424 44.54483201 250.67356991 47.14622576 254.26855469 49.66503906 C259.7396574 53.88331171 262.82564133 61.33398472 264 68 C264.24307577 72.81522403 264.18825781 77.61774167 264.125 82.4375 C264.11597656 83.74138672 264.10695313 85.04527344 264.09765625 86.38867188 C264.07418397 89.59263832 264.04134727 92.79622264 264 96 C265.55189026 95.97668358 265.55189026 95.97668358 267.13513184 95.95289612 C276.90396537 95.81075176 286.67258804 95.70594544 296.4422226 95.6373148 C301.46452568 95.60084371 306.48599134 95.55140633 311.5078125 95.47192383 C316.35785604 95.39564398 321.2070962 95.35396367 326.05769348 95.3358593 C327.9044916 95.32296442 329.75124767 95.29778257 331.59770203 95.2598896 C347.88675913 94.93902024 347.88675913 94.93902024 353.04199219 99.39941406 C354.0659253 100.56741702 355.05856161 101.76453908 356 103 C356.81984375 103.75667969 357.6396875 104.51335937 358.484375 105.29296875 C360.84685964 109.51256116 360.42424819 113.57093864 360.25 118.3125 C360.23195313 119.24384766 360.21390625 120.17519531 360.1953125 121.13476562 C360.14834888 123.42424197 360.08269475 125.71158184 360 128 C360.81984375 127.95359375 361.6396875 127.9071875 362.484375 127.859375 C363.56203125 127.82328125 364.6396875 127.7871875 365.75 127.75 C366.81734375 127.70359375 367.8846875 127.6571875 368.984375 127.609375 C372.78515533 128.10170406 373.67592821 129.00104883 376 132 C376.49679399 134.93336511 376.49679399 134.93336511 376.49219131 138.42679214 C376.49680629 139.07322457 376.50142127 139.71965699 376.5061761 140.38567828 C376.51679479 142.5599599 376.49880017 144.73306625 376.48101807 146.9072876 C376.48276744 148.47436807 376.48627453 150.04144742 376.49139404 151.60852051 C376.5003871 155.93043556 376.48428409 160.25195598 376.46429092 164.57382089 C376.44686231 169.30001487 376.45266684 174.02618976 376.45556259 178.75240707 C376.45769198 187.9327691 376.43919613 197.11297503 376.41355728 206.29329692 C376.38479543 216.90892573 376.38158039 227.52446032 376.37841797 238.14013672 C376.35740312 266.17678261 376.30155885 294.21339364 376.25 322.25 C376.1675 384.8675 376.085 447.485 376 512 C207.04 512 38.08 512 -136 512 C-136.0825 449.3825 -136.165 386.765 -136.25 322.25 C-136.28641602 302.44774414 -136.32283203 282.64548828 -136.36035156 262.24316406 C-136.37841797 238.14013672 -136.37841797 238.14013672 -136.3817749 226.871521 C-136.38551514 218.9683154 -136.40023021 211.06522204 -136.42230225 203.16204834 C-136.44769745 194.05556726 -136.45935936 184.94919437 -136.4537798 175.84267758 C-136.45136176 171.18058507 -136.45529365 166.51873462 -136.47686052 161.85668612 C-136.49622312 157.64570406 -136.49736147 153.43513685 -136.48360443 149.22413635 C-136.48190003 147.6973462 -136.48704371 146.17053077 -136.49953032 144.64379072 C-136.51549461 142.57094657 -136.50698948 140.49961126 -136.49219131 138.42679214 C-136.4937102 137.27396122 -136.49522908 136.1211303 -136.49679399 134.93336511 C-135.8897891 131.34924978 -134.87551708 130.16257298 -132 128 C-128.984375 127.609375 -128.984375 127.609375 -125.75 127.75 C-124.67234375 127.78609375 -123.5946875 127.8221875 -122.484375 127.859375 C-121.66453125 127.90578125 -120.8446875 127.9521875 -120 128 C-120.03665771 127.43603516 -120.07331543 126.87207031 -120.11108398 126.29101562 C-121.15308311 107.8855048 -121.15308311 107.8855048 -116.8125 103 C-115.01953125 101.4375 -115.01953125 101.4375 -113 100 C-111.90461914 98.9776123 -111.90461914 98.9776123 -110.78710938 97.93457031 C-107.36246699 95.55747971 -105.51808072 95.53391633 -101.38671875 95.609375 C-100.13955078 95.62226562 -98.89238281 95.63515625 -97.60742188 95.6484375 C-95.66706055 95.69871094 -95.66706055 95.69871094 -93.6875 95.75 C-92.37458984 95.76804687 -91.06167969 95.78609375 -89.70898438 95.8046875 C-86.47191512 95.85177214 -83.23632947 95.91752958 -80 96 C-80 98.64 -80 101.28 -80 104 C-74.72 104 -69.44 104 -64 104 C-64 101.36 -64 98.72 -64 96 C-50.8 96 -37.6 96 -24 96 C-24.1572308 86.90599384 -24.1572308 86.90599384 -24.36035156 77.81298828 C-24.46682381 65.52918195 -21.38478704 56.99753581 -13 48 C-11.52901855 46.80334717 -11.52901855 46.80334717 -10.02832031 45.58251953 C-5.23540656 41.64782322 -1.03927623 37.99164173 0.06835938 31.65283203 C0.5377538 26.84621542 0.41141274 22.06945971 0.25 17.25 C0.23799781 15.57034276 0.23144874 13.89063733 0.23046875 12.2109375 C0.22644767 8.13356038 0.11123248 4.08137643 0 0 Z " fill="#000000" transform="translate(136,0)"/>
<path d="M0 0 C52.8 0 105.6 0 160 0 C160 89.76 160 179.52 160 272 C107.2 272 54.4 272 0 272 C0 182.24 0 92.48 0 0 Z " fill="#FBB540" transform="translate(176,240)"/>
<path d="M0 0 C4.05903424 2.24300069 7.74121501 4.91751131 11.47265625 7.6640625 C12.67704346 8.54529785 12.67704346 8.54529785 13.90576172 9.44433594 C16.20525188 11.13419382 18.49689454 12.83404194 20.78515625 14.5390625 C21.81511719 15.30476563 22.84507812 16.07046875 23.90625 16.859375 C35.59247133 25.86560485 43.77783586 36.78526692 46.78515625 51.5390625 C47.05210752 54.80560699 47.03863796 58.05395399 47.01220703 61.32983398 C47.01249908 62.28670609 47.01279114 63.24357819 47.01309204 64.22944641 C47.01170546 67.37311055 46.99617587 70.51653382 46.98046875 73.66015625 C46.97673623 75.8473345 46.97389039 78.03451442 46.97189331 80.22169495 C46.96427566 85.96410784 46.94464319 91.70641876 46.92248535 97.4487915 C46.90198667 103.31415426 46.892883 109.17953358 46.8828125 115.04492188 C46.86139555 126.54301343 46.82728216 138.04102947 46.78515625 149.5390625 C49.42515625 149.5390625 52.06515625 149.5390625 54.78515625 149.5390625 C54.78515625 154.8190625 54.78515625 160.0990625 54.78515625 165.5390625 C52.14515625 165.5390625 49.50515625 165.5390625 46.78515625 165.5390625 C46.78515625 184.0190625 46.78515625 202.4990625 46.78515625 221.5390625 C15.10515625 221.5390625 -16.57484375 221.5390625 -49.21484375 221.5390625 C-49.37605589 179.39104494 -49.37605589 179.39104494 -49.41015625 161.6953125 C-49.43386779 149.48886372 -49.46170536 137.28252558 -49.51660156 125.07617188 C-49.55656746 116.18535597 -49.5822998 107.29463006 -49.59119773 98.40372682 C-49.596396 93.69941453 -49.60854668 88.99535959 -49.63776398 84.29113007 C-49.66508745 79.85552504 -49.67325483 75.42028127 -49.66727448 70.98460007 C-49.66836719 69.36416276 -49.67621971 67.74371229 -49.69166565 66.12334824 C-49.84183687 49.54434077 -45.73233526 35.68550295 -34.265625 23.3515625 C-28.26274794 17.55713329 -21.18404609 12.89066145 -14.38623047 8.09228516 C-12.53774538 6.77003846 -10.72999591 5.41600391 -8.9375 4.01953125 C-8.08027344 3.36597656 -7.22304687 2.71242188 -6.33984375 2.0390625 C-5.64117187 1.4925 -4.9425 0.9459375 -4.22265625 0.3828125 C-2.21484375 -0.4609375 -2.21484375 -0.4609375 0 0 Z " fill="#FEFCF9" transform="translate(257.21484375,290.4609375)"/>
<path d="M0 0 C52.8 0 105.6 0 160 0 C160 15.84 160 31.68 160 48 C107.2 48 54.4 48 0 48 C0 32.16 0 16.32 0 0 Z " fill="#FCB641" transform="translate(176,128)"/>
<path d="M0 0 C2.79248263 1.45539922 5.24198038 3.29184932 7.75 5.1875 C8.48154297 5.72342773 9.21308594 6.25935547 9.96679688 6.81152344 C11.52007067 7.94975509 13.06946636 9.09329509 14.61523438 10.24169922 C16.99016082 11.99274552 19.38781801 13.70644052 21.796875 15.41015625 C40.39310902 28.57761646 54.83037124 42.10815715 60.38687134 65.11047363 C61.77700866 73.9291378 61.35984158 82.92432282 61.29296875 91.828125 C61.2873645 94.03057566 61.28309833 96.23303009 61.28010559 98.43548584 C61.2687221 104.19596924 61.23931154 109.95622105 61.20599365 115.71661377 C61.1751519 121.60922108 61.16157026 127.50186627 61.14648438 133.39453125 C61.11443504 144.92978853 61.06331827 156.46487491 61 168 C55.72 168 50.44 168 45 168 C44.99453156 166.19834381 44.99453156 166.19834381 44.98895264 164.36029053 C44.95190122 153.00300459 44.89401795 141.64598725 44.81609726 130.2889061 C44.77670371 124.4510567 44.74447537 118.61335632 44.72900391 112.77539062 C44.7137839 107.13418392 44.6792435 101.49338711 44.63169098 95.85236359 C44.61693221 93.70759915 44.60896217 91.56277617 44.60811615 89.41796112 C44.68563993 73.29736449 44.68563993 73.29736449 40 58 C39.62284851 57.18126404 39.24569702 56.36252808 38.8571167 55.51898193 C32.64283429 42.76472553 21.39668242 35.26468429 10.07324219 27.45507812 C8.274543 26.19268444 6.52452181 24.8940352 4.7890625 23.546875 C3.93054688 22.89203125 3.07203125 22.2371875 2.1875 21.5625 C1.47980469 21.00691406 0.77210938 20.45132812 0.04296875 19.87890625 C-1.98377654 18.77601136 -1.98377654 18.77601136 -4.21875 19.45703125 C-8.27298497 21.7062206 -11.95687015 24.37914813 -15.6875 27.125 C-16.48969971 27.71176514 -17.29189941 28.29853027 -18.1184082 28.90307617 C-33.88794199 40.48888866 -45.05760884 50.23618563 -50 70 C-50.18063402 72.42693767 -50.26768076 74.86201239 -50.2784729 77.29563904 C-50.2842653 77.99582391 -50.2900577 78.69600879 -50.29602563 79.41741139 C-50.31292361 81.74503752 -50.31589324 84.07246415 -50.31884766 86.40014648 C-50.32815289 88.07603943 -50.33832245 89.75192777 -50.34928894 91.42781067 C-50.37653585 95.96443179 -50.3917226 100.50102195 -50.40471697 105.03770328 C-50.42037076 109.78364017 -50.44715381 114.52951406 -50.4727478 119.27540588 C-50.51949579 128.25663833 -50.55625916 137.23788268 -50.58942068 146.21917444 C-50.62767019 156.44650887 -50.67707295 166.67377995 -50.72740483 176.90106094 C-50.8306655 197.93399453 -50.91954936 218.96696786 -51 240 C-56.28 240 -61.56 240 -67 240 C-67.09283869 218.11112058 -67.16410233 196.22228906 -67.20724869 174.33325195 C-67.22782024 164.16838858 -67.25583673 154.00365026 -67.30175781 143.83886719 C-67.3417919 134.97291664 -67.36747205 126.10705673 -67.37635398 117.2410183 C-67.38154083 112.55222724 -67.39361734 107.8636953 -67.42292023 103.17498779 C-67.45035209 98.74921947 -67.45838979 94.32381357 -67.45243073 89.89796829 C-67.45351869 88.28566127 -67.46130556 86.67334036 -67.4768219 85.06110764 C-67.66471479 64.50549496 -62.48970633 46.29190461 -48 31 C-39.93273028 23.33483718 -30.73099894 17.24985056 -21.515625 11.07421875 C-16.95671277 8.00746919 -12.61187236 4.73017867 -8.32421875 1.29296875 C-5.17655704 -0.45808339 -3.56895034 -0.58536028 0 0 Z " fill="#010100" transform="translate(259,272)"/>
<path d="M0 0 C10.56 0 21.12 0 32 0 C32 71.28 32 142.56 32 216 C21.44 216 10.88 216 0 216 C0 144.72 0 73.44 0 0 Z " fill="#FFD642" transform="translate(352,192)"/>
<path d="M0 0 C10.56 0 21.12 0 32 0 C32 71.28 32 142.56 32 216 C21.44 216 10.88 216 0 216 C0 144.72 0 73.44 0 0 Z " fill="#FFD642" transform="translate(128,192)"/>
<path d="M0 0 C31.68 0 63.36 0 96 0 C96 47.52 96 95.04 96 144 C90.72 144 85.44 144 80 144 C79.9906543 141.39706055 79.98130859 138.79412109 79.97167969 136.11230469 C79.93778622 127.47486823 79.88216899 118.83766757 79.81609726 110.20042038 C79.77672831 104.96791144 79.74448812 99.73556814 79.72900391 94.50292969 C79.71376739 89.44524779 79.67919869 84.38802157 79.63169098 79.33054352 C79.61694899 77.40907013 79.60896315 75.48753165 79.60811615 73.56600189 C79.59006522 53.13329368 74.85688643 39.54438643 60.1875 24.875 C55.06838031 19.36059748 55.06838031 19.36059748 48.375 16.5 C43.19363601 17.26760948 40.6371447 20.40931518 37 24 C36.25234375 24.68707031 35.5046875 25.37414062 34.734375 26.08203125 C24.07006858 36.14783068 17.11456596 48.03998176 16.51135921 62.90440464 C16.40961917 67.41061969 16.39261175 71.91467146 16.390625 76.421875 C16.37561931 78.37771965 16.35888721 80.33355175 16.34051514 82.28936768 C16.29709755 87.39872874 16.27689965 92.50791895 16.26177979 97.61743164 C16.24211583 102.84661862 16.20015665 108.07562354 16.16015625 113.3046875 C16.08513155 123.53643266 16.03673724 133.76804567 16 144 C10.72 144 5.44 144 0 144 C0 96.48 0 48.96 0 0 Z " fill="#FBB540" transform="translate(400,336)"/>
<path d="M0 0 C31.68 0 63.36 0 96 0 C96 47.52 96 95.04 96 144 C90.72 144 85.44 144 80 144 C79.9906543 141.39706055 79.98130859 138.79412109 79.97167969 136.11230469 C79.93778622 127.47486823 79.88216899 118.83766757 79.81609726 110.20042038 C79.77672831 104.96791144 79.74448812 99.73556814 79.72900391 94.50292969 C79.71376739 89.44524779 79.67919869 84.38802157 79.63169098 79.33054352 C79.61694899 77.40907013 79.60896315 75.48753165 79.60811615 73.56600189 C79.59006522 53.13329368 74.85688643 39.54438643 60.1875 24.875 C55.06838031 19.36059748 55.06838031 19.36059748 48.375 16.5 C43.19363601 17.26760948 40.6371447 20.40931518 37 24 C36.25234375 24.68707031 35.5046875 25.37414062 34.734375 26.08203125 C24.07006858 36.14783068 17.11456596 48.03998176 16.51135921 62.90440464 C16.40961917 67.41061969 16.39261175 71.91467146 16.390625 76.421875 C16.37561931 78.37771965 16.35888721 80.33355175 16.34051514 82.28936768 C16.29709755 87.39872874 16.27689965 92.50791895 16.26177979 97.61743164 C16.24211583 102.84661862 16.20015665 108.07562354 16.16015625 113.3046875 C16.08513155 123.53643266 16.03673724 133.76804567 16 144 C10.72 144 5.44 144 0 144 C0 96.48 0 48.96 0 0 Z " fill="#FBB540" transform="translate(16,336)"/>
<path d="M0 0 C31.68 0 63.36 0 96 0 C96 15.84 96 31.68 96 48 C64.32 48 32.64 48 0 48 C0 32.16 0 16.32 0 0 Z " fill="#FCB641" transform="translate(400,240)"/>
<path d="M0 0 C31.68 0 63.36 0 96 0 C96 15.84 96 31.68 96 48 C64.32 48 32.64 48 0 48 C0 32.16 0 16.32 0 0 Z " fill="#FCB641" transform="translate(16,240)"/>
<path d="M0 0 C31.68 0 63.36 0 96 0 C96 15.84 96 31.68 96 48 C64.32 48 32.64 48 0 48 C0 32.16 0 16.32 0 0 Z " fill="#FCB641" transform="translate(400,144)"/>
<path d="M0 0 C31.68 0 63.36 0 96 0 C96 15.84 96 31.68 96 48 C64.32 48 32.64 48 0 48 C0 32.16 0 16.32 0 0 Z " fill="#FCB641" transform="translate(16,144)"/>
<path d="M0 0 C7.78848746 3.52782692 12.58218546 10.35934849 16 18 C17.19328521 22.10614121 17.13284571 26.10449513 17.11352539 30.34863281 C17.11367142 31.18802399 17.11381744 32.02741516 17.1139679 32.89224243 C17.11327207 35.66256304 17.10549507 38.43281615 17.09765625 41.203125 C17.0957909 43.12554894 17.09436755 45.04797336 17.09336853 46.97039795 C17.08955257 52.02727575 17.07973012 57.08412477 17.06866455 62.14099121 C17.05843065 67.30232351 17.05386667 72.46366047 17.04882812 77.625 C17.03810705 87.75001467 17.02051768 97.87500044 17 108 C6.44 108 -4.12 108 -15 108 C-15.09059126 96.95971268 -15.1638831 85.91967472 -15.20724869 74.87909889 C-15.22806847 69.75177761 -15.25628314 64.62472518 -15.30175781 59.49755859 C-15.34541624 54.54382075 -15.36917924 49.5903405 -15.37950897 44.63642502 C-15.38686458 42.75229211 -15.40122795 40.86817232 -15.42292023 38.98414993 C-15.56088161 26.49833184 -15.60998049 16.01295649 -6.375 6.5 C-5.59898437 5.6853125 -4.82296875 4.870625 -4.0234375 4.03125 C-2.68357805 2.68621734 -1.34244855 1.34244855 0 0 Z " fill="#FEFCF9" transform="translate(447,372)"/>
<path d="M0 0 C7.78848746 3.52782692 12.58218546 10.35934849 16 18 C17.19328521 22.10614121 17.13284571 26.10449513 17.11352539 30.34863281 C17.11367142 31.18802399 17.11381744 32.02741516 17.1139679 32.89224243 C17.11327207 35.66256304 17.10549507 38.43281615 17.09765625 41.203125 C17.0957909 43.12554894 17.09436755 45.04797336 17.09336853 46.97039795 C17.08955257 52.02727575 17.07973012 57.08412477 17.06866455 62.14099121 C17.05843065 67.30232351 17.05386667 72.46366047 17.04882812 77.625 C17.03810705 87.75001467 17.02051768 97.87500044 17 108 C6.44 108 -4.12 108 -15 108 C-15.09059126 96.95971268 -15.1638831 85.91967472 -15.20724869 74.87909889 C-15.22806847 69.75177761 -15.25628314 64.62472518 -15.30175781 59.49755859 C-15.34541624 54.54382075 -15.36917924 49.5903405 -15.37950897 44.63642502 C-15.38686458 42.75229211 -15.40122795 40.86817232 -15.42292023 38.98414993 C-15.56088161 26.49833184 -15.60998049 16.01295649 -6.375 6.5 C-5.59898438 5.6853125 -4.82296875 4.870625 -4.0234375 4.03125 C-2.68357805 2.68621734 -1.34244855 1.34244855 0 0 Z " fill="#FEFCF9" transform="translate(63,372)"/>
<path d="M0 0 C52.8 0 105.6 0 160 0 C160 5.28 160 10.56 160 16 C107.2 16 54.4 16 0 16 C0 10.72 0 5.44 0 0 Z " fill="#E68A34" transform="translate(176,96)"/>
<path d="M0 0 C3.46757141 1.49736038 5.81406516 3.4850572 8.5 6.125 C9.2528125 6.84945312 10.005625 7.57390625 10.78125 8.3203125 C17.19008933 16.06056563 17.55760489 22.49967783 17.390625 32.25 C17.38496521 33.50385498 17.37930542 34.75770996 17.37347412 36.04956055 C17.35496138 39.35751376 17.31912524 42.66466465 17.2746582 45.97235107 C17.2334882 49.35776861 17.21519679 52.74330781 17.1953125 56.12890625 C17.15474709 62.75323702 17.0764354 69.37559867 17 76 C6.44 76 -4.12 76 -15 76 C-15.08408809 68.71236576 -15.16419864 61.42650761 -15.20700073 54.1388092 C-15.22804714 50.74450742 -15.2561295 47.35061088 -15.30175781 43.95654297 C-15.35044693 40.05425354 -15.37300929 36.15253848 -15.390625 32.25 C-15.41127014 31.04448486 -15.43191528 29.83896973 -15.45318604 28.59692383 C-15.45546703 19.98569733 -14.17158766 14.29423433 -8.203125 7.8125 C-7.22900116 6.86435279 -6.24455916 5.92668898 -5.25 5 C-4.74339844 4.51144531 -4.23679687 4.02289063 -3.71484375 3.51953125 C-2.48570696 2.33677698 -1.24416225 1.16693839 0 0 Z " fill="#FED541" transform="translate(367,52)"/>
<path d="M0 0 C3.46757141 1.49736038 5.81406516 3.4850572 8.5 6.125 C9.2528125 6.84945312 10.005625 7.57390625 10.78125 8.3203125 C17.19008933 16.06056563 17.55760489 22.49967783 17.390625 32.25 C17.38496521 33.50385498 17.37930542 34.75770996 17.37347412 36.04956055 C17.35496138 39.35751376 17.31912524 42.66466465 17.2746582 45.97235107 C17.2334882 49.35776861 17.21519679 52.74330781 17.1953125 56.12890625 C17.15474709 62.75323702 17.0764354 69.37559867 17 76 C6.44 76 -4.12 76 -15 76 C-15.08408809 68.71236576 -15.16419864 61.42650761 -15.20700073 54.1388092 C-15.22804714 50.74450742 -15.2561295 47.35061088 -15.30175781 43.95654297 C-15.35044693 40.05425354 -15.37300929 36.15253848 -15.390625 32.25 C-15.41127014 31.04448486 -15.43191528 29.83896973 -15.45318604 28.59692383 C-15.45546703 19.98569733 -14.17158766 14.29423433 -8.203125 7.8125 C-7.22900116 6.86435279 -6.24455916 5.92668898 -5.25 5 C-4.74339844 4.51144531 -4.23679688 4.02289063 -3.71484375 3.51953125 C-2.48570696 2.33677698 -1.24416225 1.16693839 0 0 Z " fill="#FED541" transform="translate(143,52)"/>
<path d="M0 0 C31.68 0 63.36 0 96 0 C96 5.28 96 10.56 96 16 C64.32 16 32.64 16 0 16 C0 10.72 0 5.44 0 0 Z " fill="#E68A34" transform="translate(400,496)"/>
<path d="M0 0 C31.68 0 63.36 0 96 0 C96 5.28 96 10.56 96 16 C64.32 16 32.64 16 0 16 C0 10.72 0 5.44 0 0 Z " fill="#E68A34" transform="translate(16,496)"/>
<path d="M0 0 C31.68 0 63.36 0 96 0 C96 5.28 96 10.56 96 16 C64.32 16 32.64 16 0 16 C0 10.72 0 5.44 0 0 Z " fill="#E68A34" transform="translate(400,304)"/>
<path d="M0 0 C31.68 0 63.36 0 96 0 C96 5.28 96 10.56 96 16 C64.32 16 32.64 16 0 16 C0 10.72 0 5.44 0 0 Z " fill="#E68A34" transform="translate(16,304)"/>
<path d="M0 0 C31.68 0 63.36 0 96 0 C96 5.28 96 10.56 96 16 C64.32 16 32.64 16 0 16 C0 10.72 0 5.44 0 0 Z " fill="#E68A34" transform="translate(400,208)"/>
<path d="M0 0 C31.68 0 63.36 0 96 0 C96 5.28 96 10.56 96 16 C64.32 16 32.64 16 0 16 C0 10.72 0 5.44 0 0 Z " fill="#E68A34" transform="translate(16,208)"/>
<path d="M0 0 C5.28 0 10.56 0 16 0 C16 2.64 16 5.28 16 8 C29.2 8 42.4 8 56 8 C56 13.28 56 18.56 56 24 C29.6 24 3.2 24 -24 24 C-24 19.71 -24 15.42 -24 11 C-21 8 -21 8 -18.73168945 7.65942383 C-17.86761475 7.67513428 -17.00354004 7.69084473 -16.11328125 7.70703125 C-14.7065918 7.7215332 -14.7065918 7.7215332 -13.27148438 7.73632812 C-12.29501953 7.76146484 -11.31855469 7.78660156 -10.3125 7.8125 C-9.32443359 7.82603516 -8.33636719 7.83957031 -7.31835938 7.85351562 C-4.87835769 7.88887797 -2.43945281 7.93822967 0 8 C0 5.36 0 2.72 0 0 Z " fill="#E58933" transform="translate(56,104)"/>
<path d="M0 0 C9.98773267 -0.06772639 19.9753133 -0.12278745 29.96322346 -0.15543652 C34.6008131 -0.17110494 39.23823775 -0.19236458 43.87573242 -0.22631836 C48.34962273 -0.25887 52.82335417 -0.27684415 57.29735374 -0.28463173 C59.00583587 -0.2901828 60.71430912 -0.3010225 62.42272377 -0.31719017 C64.81236312 -0.33890904 67.20134258 -0.34196931 69.59106445 -0.34057617 C70.65489601 -0.35675491 70.65489601 -0.35675491 71.74021912 -0.3732605 C76.0551945 -0.34596824 76.77618289 -0.22381711 80 3 C80 7.29 80 11.58 80 16 C53.6 16 27.2 16 0 16 C0 10.72 0 5.44 0 0 Z " fill="#E58933" transform="translate(400,112)"/>
<path d="M0 0 C21.12 0 42.24 0 64 0 C64 5.28 64 10.56 64 16 C42.88 16 21.76 16 0 16 C0 10.72 0 5.44 0 0 Z " fill="#000000" transform="translate(416,160)"/>
<path d="M0 0 C21.12 0 42.24 0 64 0 C64 5.28 64 10.56 64 16 C42.88 16 21.76 16 0 16 C0 10.72 0 5.44 0 0 Z " fill="#000000" transform="translate(32,160)"/>
<path d="M0 0 C10.56 0 21.12 0 32 0 C32 10.56 32 21.12 32 32 C21.44 32 10.88 32 0 32 C0 21.44 0 10.88 0 0 Z " fill="#FFFEFA" transform="translate(352,144)"/>
<path d="M0 0 C10.56 0 21.12 0 32 0 C32 10.56 32 21.12 32 32 C21.44 32 10.88 32 0 32 C0 21.44 0 10.88 0 0 Z " fill="#FFFEFA" transform="translate(128,144)"/>
<path d="M0 0 C5.28 0 10.56 0 16 0 C16 18.48 16 36.96 16 56 C10.72 56 5.44 56 0 56 C0 37.52 0 19.04 0 0 Z " fill="#000000" transform="translate(304,456)"/>
<path d="M0 0 C18.48 0 36.96 0 56 0 C56 5.28 56 10.56 56 16 C37.52 16 19.04 16 0 16 C0 10.72 0 5.44 0 0 Z " fill="#000000" transform="translate(264,144)"/>
<path d="M0 0 C18.48 0 36.96 0 56 0 C56 5.28 56 10.56 56 16 C37.52 16 19.04 16 0 16 C0 10.72 0 5.44 0 0 Z " fill="#000000" transform="translate(192,144)"/>
<path d="M0 0 C10.56 0 21.12 0 32 0 C32 7.92 32 15.84 32 24 C21.44 24 10.88 24 0 24 C0 16.08 0 8.16 0 0 Z " fill="#FFD642" transform="translate(352,488)"/>
<path d="M0 0 C10.56 0 21.12 0 32 0 C32 7.92 32 15.84 32 24 C21.44 24 10.88 24 0 24 C0 16.08 0 8.16 0 0 Z " fill="#FFD642" transform="translate(128,488)"/>
<path d="M0 0 C7.92 0 15.84 0 24 0 C24 10.56 24 21.12 24 32 C16.08 32 8.16 32 0 32 C0 21.44 0 10.88 0 0 Z " fill="#E68A34" transform="translate(312,192)"/>
<path d="M0 0 C7.92 0 15.84 0 24 0 C24 10.56 24 21.12 24 32 C16.08 32 8.16 32 0 32 C0 21.44 0 10.88 0 0 Z " fill="#E68A34" transform="translate(176,192)"/>
<path d="M0 0 C10.56 0 21.12 0 32 0 C32 5.28 32 10.56 32 16 C21.44 16 10.88 16 0 16 C0 10.72 0 5.44 0 0 Z " fill="#FFD642" transform="translate(352,456)"/>
<path d="M0 0 C10.56 0 21.12 0 32 0 C32 5.28 32 10.56 32 16 C21.44 16 10.88 16 0 16 C0 10.72 0 5.44 0 0 Z " fill="#FFD642" transform="translate(128,456)"/>
<path d="M0 0 C10.56 0 21.12 0 32 0 C32 5.28 32 10.56 32 16 C21.44 16 10.88 16 0 16 C0 10.72 0 5.44 0 0 Z " fill="#FFFEFA" transform="translate(352,424)"/>
<path d="M0 0 C10.56 0 21.12 0 32 0 C32 5.28 32 10.56 32 16 C21.44 16 10.88 16 0 16 C0 10.72 0 5.44 0 0 Z " fill="#FFFEFA" transform="translate(128,424)"/>
<path d="M0 0 C5.28 0 10.56 0 16 0 C16 10.56 16 21.12 16 32 C10.72 32 5.44 32 0 32 C0 21.44 0 10.88 0 0 Z " fill="#FFFBF8" transform="translate(280,192)"/>
<path d="M0 0 C5.28 0 10.56 0 16 0 C16 10.56 16 21.12 16 32 C10.72 32 5.44 32 0 32 C0 21.44 0 10.88 0 0 Z " fill="#FFFBF8" transform="translate(248,192)"/>
<path d="M0 0 C5.28 0 10.56 0 16 0 C16 10.56 16 21.12 16 32 C10.72 32 5.44 32 0 32 C0 21.44 0 10.88 0 0 Z " fill="#FFFBF8" transform="translate(216,192)"/>
<path d="M0 0 C7.92 0 15.84 0 24 0 C24 5.28 24 10.56 24 16 C16.08 16 8.16 16 0 16 C0 10.72 0 5.44 0 0 Z " fill="#000000" transform="translate(296,256)"/>
<path d="M0 0 C7.92 0 15.84 0 24 0 C24 5.28 24 10.56 24 16 C16.08 16 8.16 16 0 16 C0 10.72 0 5.44 0 0 Z " fill="#000000" transform="translate(192,256)"/>
<path d="M0 0 C5.28 0 10.56 0 16 0 C16 5.28 16 10.56 16 16 C10.72 16 5.44 16 0 16 C0 10.72 0 5.44 0 0 Z " fill="#000000" transform="translate(464,256)"/>
<path d="M0 0 C5.28 0 10.56 0 16 0 C16 5.28 16 10.56 16 16 C10.72 16 5.44 16 0 16 C0 10.72 0 5.44 0 0 Z " fill="#000000" transform="translate(416,256)"/>
<path d="M0 0 C5.28 0 10.56 0 16 0 C16 5.28 16 10.56 16 16 C10.72 16 5.44 16 0 16 C0 10.72 0 5.44 0 0 Z " fill="#000000" transform="translate(80,256)"/>
<path d="M0 0 C5.28 0 10.56 0 16 0 C16 5.28 16 10.56 16 16 C10.72 16 5.44 16 0 16 C0 10.72 0 5.44 0 0 Z " fill="#000000" transform="translate(32,256)"/>
</svg>
