<?xml version="1.0" encoding="UTF-8"?>
<svg version="1.1" xmlns="http://www.w3.org/2000/svg" width="512" height="512">
<path d="M0 0 C55.46723956 -1.15815979 111.13411479 13.20859477 156.46630859 46.06201172 C157.49369141 46.79806641 158.52107422 47.53412109 159.57958984 48.29248047 C173.41961557 58.43465237 187.73083974 69.86236099 198.77490234 83.06201172 C200.68472209 85.32027432 202.69925874 87.46160817 204.71630859 89.62451172 C210.49967588 96.05483196 215.52653342 102.97488317 220.46630859 110.06201172 C220.91232422 110.69961426 221.35833984 111.3372168 221.81787109 111.99414062 C243.59884334 143.47942763 257.10486649 179.42612984 263.46630859 217.06201172 C263.58490234 217.75117676 263.70349609 218.4403418 263.82568359 219.15039062 C265.42154519 228.84667472 265.71435062 238.55923551 265.84130859 248.37451172 C265.88046387 250.15643921 265.88046387 250.15643921 265.92041016 251.97436523 C265.92266602 253.09254639 265.92492187 254.21072754 265.92724609 255.36279297 C265.93546387 256.36479736 265.94368164 257.36680176 265.95214844 258.39916992 C265.33227679 261.79662723 264.14315378 262.94614754 261.46630859 265.06201172 C257.85727287 266.26502363 254.57226134 266.19708357 250.81648254 266.18226624 C250.02987722 266.18312066 249.24327189 266.18397509 248.43283004 266.1848554 C245.78877456 266.18650664 243.14478208 266.18099462 240.50073242 266.17553711 C238.60868837 266.17525514 236.71664421 266.17541317 234.82460022 266.17597961 C229.68030429 266.17626719 224.53603156 266.17037688 219.39174104 266.16340566 C214.01854205 266.1571655 208.64534256 266.15656779 203.2721405 266.15538025 C193.09368627 266.15226889 182.91524274 266.14405813 172.73679322 266.13403076 C161.15048846 266.12286356 149.5641832 266.11735764 137.9778744 266.11233532 C114.14067985 266.10187537 90.30349482 266.08427969 66.46630859 266.06201172 C66.60692593 266.97087065 66.74754326 267.87972958 66.89242172 268.81612968 C70.33217416 291.04850149 73.77180348 313.28089234 77.2112999 335.51330376 C78.87469408 346.26522599 80.53812819 357.01714205 82.20166016 367.76904297 C83.65353336 377.15293119 85.10532772 386.5368316 86.55703187 395.92074597 C87.32393286 400.8780287 88.09087029 405.83530578 88.85790253 410.79256821 C89.00504424 411.74360762 89.15218596 412.69464704 89.30378652 413.67450583 C89.59528661 415.55838421 89.886858 417.44225155 90.17850375 419.32610738 C90.8695226 423.79057248 91.55919815 428.25523528 92.2455101 432.72042656 C93.39945473 440.22119212 94.56580067 447.71866381 95.79455566 455.20758057 C95.99004124 456.41688799 96.18552681 457.62619541 96.38693619 458.87214851 C96.73736649 461.03285055 97.09562454 463.19230751 97.46410751 465.3500042 C98.3034977 470.56869767 98.665103 474.88761486 97.46630859 480.06201172 C95.57096984 482.64656456 94.57804343 483.02476677 91.46630859 484.06201172 C89.28362483 484.16037364 87.0980087 484.19703812 84.91311646 484.20245361 C84.24437842 484.20542474 83.57564039 484.20839586 82.88663757 484.21145701 C80.64120931 484.22014285 78.39583436 484.22165215 76.15039062 484.22314453 C74.54231655 484.22777275 72.93424357 484.23279741 71.32617188 484.2381897 C66.95425282 484.25131438 62.58234913 484.25775866 58.21041346 484.26220036 C55.47978032 484.26513065 52.74915138 484.26923535 50.01852036 484.27370453 C41.4771467 484.28737893 32.93578265 484.29704617 24.39439881 484.30090642 C14.53041014 484.30538879 4.66655994 484.32294523 -5.19738662 484.35190701 C-12.81954574 484.37351091 -20.44166587 484.38360999 -28.06385529 484.38494754 C-32.61749283 484.38599639 -37.17100021 484.3919213 -41.72460556 484.40976715 C-46.00753851 484.42622578 -50.29024314 484.42841415 -54.57319641 484.41962814 C-56.14496089 484.41885661 -57.71673754 484.42321578 -59.28847122 484.4330864 C-61.43476424 484.44577468 -63.58024473 484.43994688 -65.72653198 484.42950439 C-66.92741896 484.43097095 -68.12830593 484.43243752 -69.36558342 484.43394852 C-72.8611215 484.02357133 -74.73051629 483.15233441 -77.53369141 481.06201172 C-80.36628201 476.64134018 -79.34455148 472.28351973 -78.55761719 467.35888672 C-78.34897883 465.94950836 -78.34897883 465.94950836 -78.13612556 464.51165771 C-77.61562274 461.02625921 -77.0739087 457.54440807 -76.53369141 454.06201172 C-76.19938588 451.8623993 -75.86729415 449.66245961 -75.53541052 447.46248055 C-73.91631068 436.73067991 -72.26404195 426.00405686 -70.60842657 415.27783966 C-69.83350118 410.25476651 -69.06069571 405.23136717 -68.28762817 400.20800781 C-66.99279961 391.79619489 -65.69660288 383.38459379 -64.39941406 374.97314453 C-62.57061453 363.11451035 -60.74444811 351.25547174 -58.91873336 339.3963623 C-57.64985738 331.15489363 -56.38036457 322.91351995 -55.11075068 314.67216492 C-54.80391915 312.6804377 -54.49710403 310.68870796 -54.19030523 308.69697571 C-53.31772126 303.03233415 -52.44475076 297.36775243 -51.57115936 291.70326614 C-51.30699127 289.99002622 -51.04294615 288.27676733 -50.77903366 286.56348801 C-50.4186188 284.22391223 -50.05774392 281.88440787 -49.69674683 279.54492188 C-49.59275947 278.86925297 -49.48877212 278.19358406 -49.38163364 277.49744034 C-48.79212929 273.68097527 -48.17624314 269.86990075 -47.53369141 266.06201172 C-48.51859904 266.0638553 -49.50350668 266.06569889 -50.51826 266.06759834 C-74.47073256 266.11197518 -98.4231998 266.14485267 -122.37570477 266.16563606 C-133.95889941 266.1759536 -145.54206691 266.19002307 -157.12524414 266.21289062 C-167.21980346 266.23280986 -177.31434312 266.24572468 -187.40892154 266.25018871 C-192.75511375 266.25279857 -198.10124973 266.25894284 -203.44742393 266.27347183 C-208.47799555 266.28703255 -213.5084877 266.29123741 -218.53907585 266.28822708 C-220.38658327 266.28877792 -222.2340933 266.29276434 -224.08158493 266.30042267 C-226.60227338 266.31036025 -229.12266104 266.30798493 -231.64335632 266.30252075 C-232.74210312 266.31125928 -232.74210312 266.31125928 -233.86304682 266.32017434 C-237.84530367 266.29681179 -241.01612621 265.99658752 -244.53369141 264.06201172 C-247.68351995 259.33726891 -246.87291036 254.37222692 -246.84619141 248.81201172 C-246.84055176 247.59779541 -246.83491211 246.3835791 -246.82910156 245.13256836 C-246.31445965 206.11914429 -234.52097455 168.23409226 -216.34619141 133.93701172 C-215.85687134 133.01214966 -215.85687134 133.01214966 -215.35766602 132.06860352 C-213.94860337 129.4626757 -212.49400475 127.00808963 -210.73681641 124.62060547 C-206.00205694 118.13849429 -205.8457008 112.08814455 -205.84643555 104.2800293 C-205.82017999 98.76904159 -205.30732969 94.88926931 -202.53369141 90.06201172 C-199.21062 87.32272313 -195.43395905 87.92861037 -191.28369141 87.93701172 C-186.11653765 87.76974766 -182.66214644 87.16391939 -178.90869141 83.37451172 C-177.74355481 81.96934698 -176.61409916 80.53332077 -175.53369141 79.06201172 C-172.15651554 74.92497128 -168.78755192 71.39716086 -164.72900391 67.95263672 C-163.27871836 66.70363635 -161.85559783 65.4223008 -160.46337891 64.10888672 C-118.22464575 24.37209943 -57.65205587 1.41102546 0 0 Z " fill="#603075" transform="translate(246.53369140625,13.93798828125)"/>
<path d="M0 0 C0.89265564 -0.00376648 1.78531128 -0.00753296 2.70501709 -0.01141357 C26.93614211 -0.06316451 51.67850356 2.47987924 74.65136719 10.55566406 C77.06492763 11.400901 79.4894594 12.21044535 81.9140625 13.0234375 C107.68878881 21.84651094 131.81738156 34.8827092 152.8125 52.3125 C153.4101416 52.80862793 154.0077832 53.30475586 154.62353516 53.81591797 C167.18559868 64.3269003 178.73169229 75.35612964 188.8125 88.3125 C189.3089502 88.93785645 189.80540039 89.56321289 190.31689453 90.20751953 C197.96035096 99.83593128 204.86832781 109.54967935 210.8125 120.3125 C211.45783691 121.46395508 211.45783691 121.46395508 212.11621094 122.63867188 C223.17361766 142.49334825 230.98652063 162.78653881 236.23413086 184.89086914 C236.76869363 187.12908278 237.33304022 189.35737618 237.90625 191.5859375 C241.00246786 204.31779889 241.34077416 217.27797034 241.8125 230.3125 C236.2025 230.3125 230.5925 230.3125 224.8125 230.3125 C224.8031543 228.17740967 224.79380859 226.04231934 224.78417969 223.8425293 C224.75043469 216.7935718 224.69489999 209.74490784 224.62859726 202.69618511 C224.5890629 198.4218713 224.55690393 194.14776533 224.54150391 189.87329102 C224.52637617 185.74927039 224.49200094 181.62582095 224.44419098 177.50205421 C224.42933683 175.92762017 224.42145668 174.35310459 224.42061615 172.77860069 C224.41825666 170.57533013 224.39126394 168.3736513 224.35839844 166.1706543 C224.34951599 164.91600876 224.34063354 163.66136322 224.33148193 162.36869812 C224.08335596 159.28224623 224.08335596 159.28224623 222.1308136 157.40614319 C219.29716718 156.06939647 217.30593064 155.94457409 214.17358398 155.95605469 C213.04238632 155.95305359 211.91118866 155.95005249 210.74571228 155.94696045 C208.92058861 155.96548065 208.92058861 155.96548065 207.05859375 155.984375 C205.806194 155.98624817 204.55379425 155.98812134 203.26344299 155.99005127 C200.61615573 155.99677381 197.96963836 156.00904337 195.32250977 156.03125 C191.93072112 156.05956073 188.53917247 156.07046538 185.14727688 156.0749321 C181.90935279 156.08008917 178.67148642 156.09462705 175.43359375 156.109375 C173.60543373 156.11574982 173.60543373 156.11574982 171.74034119 156.12225342 C170.61229568 156.13186096 169.48425018 156.14146851 168.32202148 156.15136719 C167.32814926 156.15819519 166.33427704 156.16502319 165.31028748 156.17205811 C162.68184352 156.21023436 162.68184352 156.21023436 159.8125 157.3125 C158.40460055 160.73119765 158.65375691 164.45410177 158.60717773 168.10058594 C158.59727814 168.77416641 158.58737854 169.44774689 158.57717896 170.14173889 C158.54568342 172.36008229 158.52085403 174.57844707 158.49609375 176.796875 C158.47551389 178.33816066 158.45451715 179.8794408 158.43312073 181.42071533 C158.3780066 185.47141038 158.32855046 189.52215547 158.28027344 193.57293701 C158.22113328 198.43638057 158.15496411 203.29973297 158.08997345 208.1631012 C157.99209807 215.54617831 157.90315039 222.92931471 157.8125 230.3125 C141.3125 230.3125 124.8125 230.3125 107.8125 230.3125 C107.80839111 226.4256543 107.80428223 222.53880859 107.80004883 218.53417969 C107.78287194 205.70974472 107.7386576 192.88552351 107.68040943 180.06121445 C107.64574745 172.28377899 107.62040235 164.50652099 107.61694336 156.72900391 C107.61390511 149.95055833 107.59343387 143.17242871 107.55197543 136.3941052 C107.53063049 132.80450647 107.51805212 129.21535706 107.52634621 125.62569427 C107.53527625 121.61948517 107.50528793 117.61447852 107.47192383 113.60839844 C107.48054947 112.41653427 107.48917511 111.2246701 107.49806213 109.99668884 C107.53293926 103.81519963 107.53293926 103.81519963 104.65673828 98.578125 C101.42631441 97.1406557 99.17867954 96.79586381 95.64526367 96.76660156 C94.42437546 96.74688293 93.20348724 96.72716431 91.94560242 96.70684814 C90.63710831 96.70561951 89.3286142 96.70439087 87.98046875 96.703125 C86.6199599 96.68813526 85.2594692 96.67140643 83.89900208 96.65301514 C80.32995749 96.60941734 76.76115834 96.58935977 73.19189453 96.57427979 C69.54510023 96.55468101 65.89856992 96.51271427 62.25195312 96.47265625 C55.10556947 96.39743681 47.95920517 96.34709555 40.8125 96.3125 C40.80703156 95.48017853 40.80703156 95.48017853 40.80145264 94.63104248 C40.7596416 88.85565306 40.69030659 83.0810594 40.60498047 77.30615234 C40.57675501 75.15095987 40.55554835 72.99566357 40.54150391 70.84033203 C40.52009653 67.7419717 40.4734568 64.64486173 40.421875 61.546875 C40.42003204 60.10136261 40.42003204 60.10136261 40.41815186 58.62664795 C40.39843323 57.72601624 40.3787146 56.82538452 40.35839844 55.89746094 C40.34951599 55.10692322 40.34063354 54.3163855 40.33148193 53.50189209 C39.56761039 50.27940166 38.53747908 49.20601059 35.8125 47.3125 C32.77648473 46.91798204 30.1038231 46.76531891 27.06835938 46.79492188 C25.74575859 46.78440796 25.74575859 46.78440796 24.3964386 46.77368164 C21.48272175 46.75608079 18.56997667 46.7677318 15.65625 46.78125 C13.63130507 46.77855569 11.6063614 46.77467378 9.5814209 46.76965332 C5.33784668 46.76375544 1.09460928 46.77233069 -3.14892578 46.79101562 C-8.59003763 46.8138052 -14.03036029 46.80068369 -19.47144318 46.77672577 C-23.65275017 46.76227572 -27.83386988 46.76687017 -32.0151825 46.77723694 C-34.02145989 46.77990641 -36.02775426 46.77662673 -38.03401184 46.76731873 C-40.83758624 46.7571663 -43.6398804 46.77263583 -46.44335938 46.79492188 C-47.2736113 46.78682495 -48.10386322 46.77872803 -48.95927429 46.77038574 C-52.31108256 46.81977919 -54.62663906 46.91263097 -57.39936447 48.88946152 C-59.85850528 52.22175525 -59.69493335 54.46620539 -59.70648193 58.58905029 C-59.71398319 59.32342386 -59.72148444 60.05779744 -59.729213 60.81442475 C-59.74951825 63.27598386 -59.74138237 65.73662434 -59.73339844 68.19824219 C-59.74213195 69.96236585 -59.75261695 71.72648159 -59.76472473 73.49058533 C-59.79263267 78.28158077 -59.79598836 83.07231836 -59.79500484 87.86338329 C-59.79812983 92.86961356 -59.82373938 97.87572698 -59.84698486 102.88189697 C-59.88758018 112.36261664 -59.90789388 121.84326747 -59.92095876 131.32406068 C-59.93681684 142.11723847 -59.97522743 152.91029892 -60.01555204 163.70340872 C-60.09799934 185.90640321 -60.1512613 208.10938617 -60.1875 230.3125 C-65.7975 230.3125 -71.4075 230.3125 -77.1875 230.3125 C-77.19336624 229.01624191 -77.19923248 227.71998383 -77.20527649 226.38444519 C-77.26241803 214.18557188 -77.33513456 201.98687831 -77.42321491 189.78818798 C-77.46799741 183.51627568 -77.50723614 177.24442953 -77.53393555 170.97241211 C-77.55988989 164.92282492 -77.60023633 158.87349123 -77.65068626 152.82406044 C-77.66740833 150.51276101 -77.67888922 148.20141769 -77.68511391 145.89006615 C-77.69469693 142.65975562 -77.72268681 139.4301015 -77.75512695 136.19995117 C-77.75369186 135.23826019 -77.75225677 134.27656921 -77.7507782 133.28573608 C-77.76331635 132.40654007 -77.77585449 131.52734406 -77.78877258 130.62150574 C-77.79338155 129.85733935 -77.79799051 129.09317297 -77.80273914 128.30585003 C-78.29093535 125.77662725 -79.20925279 124.91132293 -81.1875 123.3125 C-83.49333369 122.15958316 -84.88616887 122.15852662 -87.45361328 122.10717773 C-88.33437531 122.08723251 -89.21513733 122.06728729 -90.12258911 122.04673767 C-91.07471283 122.03002518 -92.02683655 122.01331268 -93.0078125 121.99609375 C-93.98160858 121.97531265 -94.95540466 121.95453156 -95.95870972 121.93312073 C-99.07656647 121.86761402 -102.19450903 121.80873503 -105.3125 121.75 C-107.42318604 121.70681585 -109.53386333 121.6632016 -111.64453125 121.61914062 C-116.8254295 121.51193153 -122.00641356 121.41016722 -127.1875 121.3125 C-127.19296844 120.48017853 -127.19296844 120.48017853 -127.19854736 119.63104248 C-127.2403584 113.85565306 -127.30969341 108.0810594 -127.39501953 102.30615234 C-127.42324499 100.15095987 -127.44445165 97.99566357 -127.45849609 95.84033203 C-127.47990347 92.7419717 -127.5265432 89.64486173 -127.578125 86.546875 C-127.57935364 85.58320007 -127.58058228 84.61952515 -127.58184814 83.62664795 C-127.66694284 79.74001923 -127.72544948 77.09551691 -129.72265625 73.7109375 C-133.17128501 71.75434622 -136.36948467 71.70949943 -140.234375 71.703125 C-141.00557678 71.68658875 -141.77677856 71.67005249 -142.5713501 71.65301514 C-145.02681454 71.60455407 -147.48165984 71.58316963 -149.9375 71.5625 C-151.60549987 71.53433854 -153.27347092 71.50441086 -154.94140625 71.47265625 C-159.0233865 71.39879628 -163.10502345 71.34921064 -167.1875 71.3125 C-136.70232254 34.80651615 -87.60588135 13.18707853 -42.1875 3.3125 C-41.3845752 3.13170898 -40.58165039 2.95091797 -39.75439453 2.76464844 C-26.63895978 -0.0588327 -13.35249359 0.03115727 0 0 Z " fill="#E93357" transform="translate(253.1875,31.6875)"/>
<path d="M0 0 C25.74 0 51.48 0 78 0 C81.36855037 17.96560197 81.36855037 17.96560197 82.2109375 24.1640625 C82.40292746 25.55079057 82.59498749 26.93750895 82.78710938 28.32421875 C82.8827417 29.02466309 82.97837402 29.72510742 83.0769043 30.44677734 C84.70336434 42.33152468 86.47384893 54.17626868 88.5 66 C90.47764483 77.55507412 92.19205714 89.12981557 93.8125 100.73876953 C95.39740691 112.06837753 97.18938835 123.34720349 99.12060547 134.6237793 C101.03351162 145.91563577 102.65472073 157.24226099 104.21289062 168.58789062 C105.31871655 176.5792528 106.56491868 184.52312709 108.05410767 192.45320129 C108.65741781 195.72586402 109 198.65418503 109 202 C62.8 202 16.6 202 -31 202 C-29.77659021 191.60101682 -28.49210657 181.40665972 -26.6875 171.125 C-24.77099324 159.93967336 -23.06638742 148.73949779 -21.5 137.5 C-19.81355515 125.41301376 -17.93367033 113.37801096 -15.875 101.34765625 C-14.12534705 91.01376851 -12.63744079 80.65359686 -11.18951416 70.27432251 C-9.5636404 58.64377326 -7.72285735 47.06892397 -5.74316406 35.49291992 C-4.27880225 26.86900036 -3.00256991 18.23492083 -1.89990234 9.55737305 C-1.74062256 8.31661011 -1.74062256 8.31661011 -1.578125 7.05078125 C-1.44519043 5.97824097 -1.44519043 5.97824097 -1.30957031 4.8840332 C-1 3 -1 3 0 0 Z " fill="#00E5FD" transform="translate(217,279)"/>
<path d="M0 0 C22.11 0 44.22 0 67 0 C67 11.22 67 22.44 67 34 C61.06 34.495 61.06 34.495 55 35 C52.00514286 36.60634358 52.00514286 36.60634358 51 40 C50.4443568 44.11263559 50.43641353 48.17225262 50.45410156 52.31762695 C50.44376389 53.56681412 50.43342621 54.81600128 50.42277527 56.1030426 C50.39836212 59.52025465 50.39150987 62.93665157 50.39249516 66.35389352 C50.38936344 69.92808381 50.36373992 73.50211162 50.34051514 77.07621765 C50.29997121 83.84049875 50.27961828 90.60468349 50.26654124 97.36906737 C50.25066569 105.07166244 50.21224779 112.77409364 50.17194796 120.47659361 C50.08957095 136.31770541 50.03844088 152.1587114 50 168 C33.5 168 17 168 0 168 C0 112.56 0 57.12 0 0 Z " fill="#FEE500" transform="translate(210,94)"/>
<path d="M0 0 C22.11 0 44.22 0 67 0 C67 38.61 67 77.22 67 117 C44.89 117 22.78 117 0 117 C0 78.39 0 39.78 0 0 Z " fill="#FDFDFD" transform="translate(277,145)"/>
<path d="M0 0 C16.5 0 33 0 50 0 C50 46.86 50 93.72 50 142 C33.5 142 17 142 0 142 C0 95.14 0 48.28 0 0 Z " fill="#FDFDFD" transform="translate(59,120)"/>
<path d="M0 0 C10.89 0 21.78 0 33 0 C33 30.36 33 60.72 33 92 C22.11 92 11.22 92 0 92 C0 61.64 0 31.28 0 0 Z " fill="#FFFFFF" transform="translate(126,170)"/>
<path d="M0 0 C11.22 0 22.44 0 34 0 C34 19.47 34 38.94 34 59 C22.78 59 11.56 59 0 59 C0 39.53 0 20.06 0 0 Z " fill="#FBE202" transform="translate(428,203)"/>
<path d="M0 0 C0.33 0 0.66 0 1 0 C1 32.01 1 64.02 1 97 C-7.25 97 -15.5 97 -24 97 C-24 62.81342329 -14.46841899 30.68619257 0 0 Z " fill="#E83357" transform="translate(41,165)"/>
<path d="M0 0 C2.68725586 1.44726562 2.68725586 1.44726562 5 4 C5.73617188 7.07141002 5.67720289 10.07273671 5.62890625 13.21875 C5.63131821 14.11364136 5.63373016 15.00853271 5.63621521 15.93054199 C5.63523694 17.8201135 5.62184793 19.70971372 5.59692383 21.59912109 C5.56261571 24.49024888 5.57626434 27.37831985 5.59570312 30.26953125 C5.58880452 32.10678384 5.579132 33.94402854 5.56640625 35.78125 C5.57136612 36.64488159 5.57632599 37.50851318 5.58143616 38.39831543 C5.46456632 44.3585658 5.46456632 44.3585658 3.17944336 47.51367188 C0.05491423 49.64452584 -2.23428731 50 -6 50 C-8.80189446 48.23358828 -10.51524911 46.96950178 -12 44 C-12.11127579 41.20258264 -12.16411675 38.43082963 -12.16796875 35.6328125 C-12.17129715 34.80167938 -12.17462555 33.97054626 -12.17805481 33.11422729 C-12.18312216 31.3539892 -12.18546319 29.59374148 -12.18530273 27.83349609 C-12.18748561 25.14274195 -12.20563315 22.45240012 -12.22460938 19.76171875 C-12.22754407 18.05208474 -12.22952836 16.34244877 -12.23046875 14.6328125 C-12.23765427 13.82852814 -12.24483978 13.02424377 -12.25224304 12.19558716 C-12.22290072 5.00426999 -12.22290072 5.00426999 -10 2 C-6.2626144 -0.4915904 -4.42668417 -0.45793285 0 0 Z " fill="#5D3478" transform="translate(255,397)"/>
<path d="M0 0 C1.08023438 -0.02771484 2.16046875 -0.05542969 3.2734375 -0.08398438 C10.93601824 -0.06033443 10.93601824 -0.06033443 13.84130859 1.98168945 C15.79959842 4.25309621 16.91534678 6.34042181 17.625 9.25 C16.72051919 12.77747515 14.71845276 14.35739763 12 16.6875 C8.26189305 18.55655348 3.80168822 17.95866522 -0.3125 18 C-1.26318359 18.02900391 -2.21386719 18.05800781 -3.19335938 18.08789062 C-7.63741318 18.12826288 -10.24401499 18.1486984 -14.10546875 15.79296875 C-16.35579967 13.29208552 -16.9296054 12.21545951 -17.375 8.875 C-17 5.6875 -17 5.6875 -15.2265625 3.03125 C-10.35699949 -0.50596284 -5.87037402 -0.08056003 0 0 Z " fill="#65367A" transform="translate(84,186.3125)"/>
<path d="M0 0 C1.03253906 -0.01095703 2.06507812 -0.02191406 3.12890625 -0.03320312 C7.67463338 0.01078778 10.66615418 0.08099796 14.65234375 2.3828125 C17.2588661 5.45773739 17.5701897 7.56168732 17.5 11.5625 C15.41374661 14.98991629 14.3255689 16.28731037 10.5 17.5625 C7.04648216 17.84175501 3.58857161 17.83989623 0.125 17.875 C-0.82117188 17.90400391 -1.76734375 17.93300781 -2.7421875 17.96289062 C-7.17211027 18.00333234 -9.75311542 18.01872043 -13.6015625 15.66796875 C-15.85632704 13.16731425 -16.42927179 12.09296156 -16.875 8.75 C-16.5 5.5625 -16.5 5.5625 -14.6953125 2.8984375 C-9.95001325 -0.5706199 -5.72829296 -0.1323014 0 0 Z " fill="#643478" transform="translate(83.5,211.4375)"/>
<path d="M0 0 C0.94230469 -0.02900391 1.88460937 -0.05800781 2.85546875 -0.08789062 C8.7868876 -0.14196387 12.30308438 0.24219613 16.75 4.3125 C17.875 7.75 17.875 7.75 17.75 11.3125 C15.98358828 14.11439446 14.71950178 15.82774911 11.75 17.3125 C7.9646452 17.60702482 4.17047488 17.59045381 0.375 17.625 C-0.67945312 17.65400391 -1.73390625 17.68300781 -2.8203125 17.71289062 C-3.83609375 17.72126953 -4.851875 17.72964844 -5.8984375 17.73828125 C-7.29328369 17.76015503 -7.29328369 17.76015503 -8.71630859 17.7824707 C-12.03610498 17.16668654 -13.18213256 15.93107811 -15.25 13.3125 C-16.25 9.875 -16.25 9.875 -16.25 6.3125 C-11.88290291 -0.61461952 -7.5281904 0.07599115 0 0 Z " fill="#653579" transform="translate(83.25,135.6875)"/>
<path d="M0 0 C0.98484375 -0.00257813 1.9696875 -0.00515625 2.984375 -0.0078125 C12.0167609 0.11424677 12.0167609 0.11424677 16 3.5 C17.52846661 6.55693322 17.23242445 9.12984547 17 12.5 C15.23984869 15.6850357 14.50109084 16.33296972 11 17.5 C7.3802246 17.80610389 3.75619167 17.82359317 0.125 17.875 C-0.86886719 17.91238281 -1.86273438 17.94976562 -2.88671875 17.98828125 C-10.21046195 18.07651912 -10.21046195 18.07651912 -14.15625 15.1953125 C-16.596958 11.62732835 -16.75707251 9.73960606 -16 5.5 C-11.71724963 -0.71631277 -6.90740668 -0.19890438 0 0 Z " fill="#633378" transform="translate(310,152.5)"/>
<path d="M0 0 C4.56246066 0.89619763 5.75294237 1.92763829 8.5 5.6875 C9.24196608 9.53371011 9.19814586 13.28151121 9.125 17.1875 C9.15400391 18.73630859 9.15400391 18.73630859 9.18359375 20.31640625 C9.1521127 25.19596905 9.11104737 27.84769628 6.18359375 31.87109375 C2.65778166 34.25756045 0.67545188 34.37075576 -3.5 33.6875 C-5.86497439 31.82041495 -7.16030715 30.36688569 -8.5 27.6875 C-8.81927202 24.27815978 -8.82433113 20.85995187 -8.875 17.4375 C-8.91238281 16.49519531 -8.94976562 15.55289062 -8.98828125 14.58203125 C-9.0452775 10.06666184 -9.0560157 6.70821339 -6.1953125 3.05859375 C-3.5 0.6875 -3.5 0.6875 0 0 Z " fill="#5D3378" transform="translate(251.5,337.3125)"/>
<path d="M0 0 C1.08474609 -0.01095703 2.16949219 -0.02191406 3.28710938 -0.03320312 C7.94745421 0.00976256 11.15596718 0.0574002 15.2734375 2.3515625 C17.40463924 4.98531836 17.69739185 7.10726849 17.82421875 10.46484375 C16.55508493 13.95984304 14.28171327 15.91404285 11.0625 17.5625 C7.51883029 18.24899288 4.0987622 18.21740403 0.5 18.125 C-0.89895508 18.14143555 -0.89895508 18.14143555 -2.32617188 18.15820312 C-6.69196219 18.11152682 -9.2532028 17.98553581 -13.02734375 15.65234375 C-15.31648503 13.14786403 -15.87454717 12.12907548 -16.25 8.75 C-15.29443564 -0.99675643 -7.90691183 -0.1732124 0 0 Z " fill="#643478" transform="translate(309.9375,228.4375)"/>
<path d="M0 0 C0.92425781 -0.01933594 1.84851563 -0.03867188 2.80078125 -0.05859375 C7.24803451 -0.02678221 10.53183785 0.14563246 14.11328125 2.9453125 C16.5 5.625 16.5 5.625 17.1875 9.125 C16.29130237 13.68746066 15.25986171 14.87794237 11.5 17.625 C7.65378989 18.36696608 3.90598879 18.32314586 0 18.25 C-1.54880859 18.27900391 -1.54880859 18.27900391 -3.12890625 18.30859375 C-8.00855317 18.27711216 -10.65768586 18.24041771 -14.67578125 15.3046875 C-16.5 12.625 -16.5 12.625 -17.1875 9.125 C-16.44589091 5.34953553 -15.46732519 4.00379351 -12.46801758 1.65917969 C-8.53590971 -0.40711592 -4.34368881 -0.09087215 0 0 Z " fill="#633378" transform="translate(310.5,177.375)"/>
<path d="M0 0 C1.62035156 -0.02900391 1.62035156 -0.02900391 3.2734375 -0.05859375 C11.10983373 -0.01022093 11.10983373 -0.01022093 15.24609375 2.94140625 C17 5.625 17 5.625 17.0625 9.1875 C15.9024037 12.94075273 15.02671262 14.20830236 12 16.625 C9.40625 17.14257812 9.40625 17.14257812 6.5 17.15625 C5.448125 17.16140625 4.39625 17.1665625 3.3125 17.171875 C2.219375 17.15640625 1.12625 17.1409375 0 17.125 C-1.6396875 17.14820313 -1.6396875 17.14820313 -3.3125 17.171875 C-4.364375 17.16671875 -5.41625 17.1615625 -6.5 17.15625 C-7.4590625 17.15173828 -8.418125 17.14722656 -9.40625 17.14257812 C-12.7450038 16.47633584 -13.91281115 15.26829926 -16 12.625 C-17.0625 9.1875 -17.0625 9.1875 -17 5.625 C-12.74293677 -0.88859118 -7.04881691 -0.12617214 0 0 Z " fill="#623277" transform="translate(84,161.375)"/>
<path d="M0 0 C1.64548828 -0.00773438 1.64548828 -0.00773438 3.32421875 -0.015625 C4.46503906 -0.00015625 5.60585938 0.0153125 6.78125 0.03125 C8.49248047 0.00804687 8.49248047 0.00804687 10.23828125 -0.015625 C11.33527344 -0.01046875 12.43226563 -0.0053125 13.5625 0 C15.06393555 0.00676758 15.06393555 0.00676758 16.59570312 0.01367188 C20.00166645 0.6700939 21.1877958 1.80902841 23.28125 4.53125 C23.96125379 8.68682874 23.84230036 10.68598333 21.5 14.21484375 C16.61864791 17.72775854 12.08328043 17.26078708 6.21875 17.15625 C5.13013672 17.17558594 4.04152344 17.19492188 2.91992188 17.21484375 C-4.97451092 17.16626263 -4.97451092 17.16626263 -8.43359375 14.21484375 C-10.12311262 10.68688186 -10.2809469 8.39635369 -9.71875 4.53125 C-6.78181755 0.70329953 -4.75197947 0.0214191 0 0 Z " fill="#613076" transform="translate(303.71875,203.46875)"/>
<path d="M0 0 C2.2265625 1.5546875 2.2265625 1.5546875 4 4 C4.53125 7.49609375 4.53125 7.49609375 4.5 11.4375 C4.5103125 12.73558594 4.520625 14.03367187 4.53125 15.37109375 C3.92739194 19.49597711 3.0337669 21.17987866 0 24 C-2.74448951 24.8630133 -5.20676192 24.6366518 -8 24 C-10.43119623 22.12984906 -11.64069173 20.71861655 -13 18 C-13.14851844 16.06640414 -13.22130833 14.12657903 -13.25 12.1875 C-13.27578125 11.14980469 -13.3015625 10.11210937 -13.328125 9.04296875 C-12.95701851 5.60139786 -12.04491005 3.76459927 -10 1 C-6.87057535 -0.56471233 -3.38917777 -0.69701958 0 0 Z " fill="#5D3378" transform="translate(256,288)"/>
</svg>
